<?xml version="1.0" encoding="UTF-8" standalone="no"?>
<!DOCTYPE svg PUBLIC "-//W3C//DTD SVG 1.1//EN"
 "http://www.w3.org/Graphics/SVG/1.1/DTD/svg11.dtd">
<!-- Generated by graphviz version 2.43.0 (0)
 -->
<!-- Title: include/parsed_lac/amg.h Pages: 1 -->
<svg width="2576pt" height="240pt"
 viewBox="0.00 0.00 2576.00 240.00" xmlns="http://www.w3.org/2000/svg" xmlns:xlink="http://www.w3.org/1999/xlink">
<g id="graph0" class="graph" transform="scale(1 1) rotate(0) translate(4 236)">
<title>include/parsed_lac/amg.h</title>
<!-- Node1 -->
<g id="node1" class="node">
<title>Node1</title>
<g id="a_node1"><a xlink:title=" ">
<polygon fill="#bfbfbf" stroke="black" points="1542,-201.5 1542,-231.5 1649,-231.5 1649,-201.5 1542,-201.5"/>
<text text-anchor="start" x="1550" y="-219.5" font-family="Helvetica,sans-Serif" font-size="10.00">include/parsed_lac</text>
<text text-anchor="middle" x="1595.5" y="-208.5" font-family="Helvetica,sans-Serif" font-size="10.00">/amg.h</text>
</a>
</g>
</g>
<!-- Node2 -->
<g id="node2" class="node">
<title>Node2</title>
<g id="a_node2"><a xlink:href="lac_8h.html" target="_top" xlink:title=" ">
<polygon fill="none" stroke="black" points="816.5,-140 816.5,-159 894.5,-159 894.5,-140 816.5,-140"/>
<text text-anchor="middle" x="855.5" y="-147" font-family="Helvetica,sans-Serif" font-size="10.00">include/lac.h</text>
</a>
</g>
</g>
<!-- Node1&#45;&gt;Node2 -->
<g id="edge1" class="edge">
<title>Node1&#45;&gt;Node2</title>
<path fill="none" stroke="midnightblue" d="M1531.64,-209.89C1382.62,-196.8 1015.44,-164.55 894.69,-153.94"/>
<polygon fill="midnightblue" stroke="midnightblue" points="1531.72,-213.41 1541.98,-210.8 1532.33,-206.44 1531.72,-213.41"/>
</g>
<!-- Node6 -->
<g id="node6" class="node">
<title>Node6</title>
<g id="a_node6"><a xlink:href="distributed__lagrange_8h.html" target="_top" xlink:title=" ">
<polygon fill="none" stroke="black" points="269.5,-67.5 269.5,-97.5 403.5,-97.5 403.5,-67.5 269.5,-67.5"/>
<text text-anchor="start" x="277.5" y="-85.5" font-family="Helvetica,sans-Serif" font-size="10.00">include/pdes/distributed</text>
<text text-anchor="middle" x="336.5" y="-74.5" font-family="Helvetica,sans-Serif" font-size="10.00">_lagrange.h</text>
</a>
</g>
</g>
<!-- Node1&#45;&gt;Node6 -->
<g id="edge5" class="edge">
<title>Node1&#45;&gt;Node6</title>
<path fill="none" stroke="midnightblue" d="M1531.71,-213.66C1397.36,-209.3 1075.57,-196.24 807.5,-165 662.63,-148.12 494.69,-116 403.63,-97.53"/>
<polygon fill="midnightblue" stroke="midnightblue" points="1531.71,-217.16 1541.82,-213.99 1531.94,-210.17 1531.71,-217.16"/>
</g>
<!-- Node9 -->
<g id="node9" class="node">
<title>Node9</title>
<g id="a_node9"><a xlink:href="linear__problem_8h.html" target="_top" xlink:title=" ">
<polygon fill="none" stroke="black" points="1043,-134.5 1043,-164.5 1152,-164.5 1152,-134.5 1043,-134.5"/>
<text text-anchor="start" x="1051" y="-152.5" font-family="Helvetica,sans-Serif" font-size="10.00">include/pdes/linear</text>
<text text-anchor="middle" x="1097.5" y="-141.5" font-family="Helvetica,sans-Serif" font-size="10.00">_problem.h</text>
</a>
</g>
</g>
<!-- Node1&#45;&gt;Node9 -->
<g id="edge9" class="edge">
<title>Node1&#45;&gt;Node9</title>
<path fill="none" stroke="midnightblue" d="M1531.59,-207.16C1432.87,-194.27 1244.99,-169.75 1152.18,-157.64"/>
<polygon fill="midnightblue" stroke="midnightblue" points="1531.36,-210.66 1541.73,-208.48 1532.27,-203.72 1531.36,-210.66"/>
</g>
<!-- Node21 -->
<g id="node21" class="node">
<title>Node21</title>
<g id="a_node21"><a xlink:href="stokes_8h.html" target="_top" xlink:title=" ">
<polygon fill="none" stroke="black" points="1337.5,-73 1337.5,-92 1459.5,-92 1459.5,-73 1337.5,-73"/>
<text text-anchor="middle" x="1398.5" y="-80" font-family="Helvetica,sans-Serif" font-size="10.00">include/pdes/stokes.h</text>
</a>
</g>
</g>
<!-- Node1&#45;&gt;Node21 -->
<g id="edge38" class="edge">
<title>Node1&#45;&gt;Node21</title>
<path fill="none" stroke="midnightblue" d="M1565.94,-195.69C1522.28,-166.44 1442.39,-112.91 1411.33,-92.1"/>
<polygon fill="midnightblue" stroke="midnightblue" points="1564.16,-198.71 1574.42,-201.37 1568.06,-192.9 1564.16,-198.71"/>
</g>
<!-- Node24 -->
<g id="node24" class="node">
<title>Node24</title>
<g id="a_node24"><a xlink:href="serial_2poisson_8h.html" target="_top" xlink:title=" ">
<polygon fill="none" stroke="black" points="1541.5,-134.5 1541.5,-164.5 1649.5,-164.5 1649.5,-134.5 1541.5,-134.5"/>
<text text-anchor="start" x="1549.5" y="-152.5" font-family="Helvetica,sans-Serif" font-size="10.00">include/pdes/serial</text>
<text text-anchor="middle" x="1595.5" y="-141.5" font-family="Helvetica,sans-Serif" font-size="10.00">/poisson.h</text>
</a>
</g>
</g>
<!-- Node1&#45;&gt;Node24 -->
<g id="edge26" class="edge">
<title>Node1&#45;&gt;Node24</title>
<path fill="none" stroke="midnightblue" d="M1595.5,-191.11C1595.5,-182.15 1595.5,-172.32 1595.5,-164.58"/>
<polygon fill="midnightblue" stroke="midnightblue" points="1592,-191.4 1595.5,-201.4 1599,-191.4 1592,-191.4"/>
</g>
<!-- Node27 -->
<g id="node27" class="node">
<title>Node27</title>
<g id="a_node27"><a xlink:href="poisson__nitsche__interface_8h.html" target="_top" xlink:title=" ">
<polygon fill="none" stroke="black" points="1725,-134.5 1725,-164.5 1880,-164.5 1880,-134.5 1725,-134.5"/>
<text text-anchor="start" x="1733" y="-152.5" font-family="Helvetica,sans-Serif" font-size="10.00">include/pdes/serial</text>
<text text-anchor="middle" x="1802.5" y="-141.5" font-family="Helvetica,sans-Serif" font-size="10.00">/poisson_nitsche_interface.h</text>
</a>
</g>
</g>
<!-- Node1&#45;&gt;Node27 -->
<g id="edge29" class="edge">
<title>Node1&#45;&gt;Node27</title>
<path fill="none" stroke="midnightblue" d="M1649.82,-198.44C1683.37,-187.91 1725.91,-174.55 1757.56,-164.61"/>
<polygon fill="midnightblue" stroke="midnightblue" points="1648.65,-195.14 1640.16,-201.48 1650.75,-201.82 1648.65,-195.14"/>
</g>
<!-- Node30 -->
<g id="node30" class="node">
<title>Node30</title>
<g id="a_node30"><a xlink:href="reduced__lagrange_8h.html" target="_top" xlink:title=" ">
<polygon fill="none" stroke="black" points="2056.5,-134.5 2056.5,-164.5 2172.5,-164.5 2172.5,-134.5 2056.5,-134.5"/>
<text text-anchor="start" x="2064.5" y="-152.5" font-family="Helvetica,sans-Serif" font-size="10.00">include/pdes/serial</text>
<text text-anchor="middle" x="2114.5" y="-141.5" font-family="Helvetica,sans-Serif" font-size="10.00">/reduced_lagrange.h</text>
</a>
</g>
</g>
<!-- Node1&#45;&gt;Node30 -->
<g id="edge32" class="edge">
<title>Node1&#45;&gt;Node30</title>
<path fill="none" stroke="midnightblue" d="M1659.22,-207.52C1760.93,-194.78 1958.47,-170.04 2056.47,-157.77"/>
<polygon fill="midnightblue" stroke="midnightblue" points="1658.57,-204.07 1649.09,-208.79 1659.44,-211.02 1658.57,-204.07"/>
</g>
<!-- Node33 -->
<g id="node33" class="node">
<title>Node33</title>
<g id="a_node33"><a xlink:href="serial_2stokes_8h.html" target="_top" xlink:title=" ">
<polygon fill="none" stroke="black" points="2260.5,-134.5 2260.5,-164.5 2368.5,-164.5 2368.5,-134.5 2260.5,-134.5"/>
<text text-anchor="start" x="2268.5" y="-152.5" font-family="Helvetica,sans-Serif" font-size="10.00">include/pdes/serial</text>
<text text-anchor="middle" x="2314.5" y="-141.5" font-family="Helvetica,sans-Serif" font-size="10.00">/stokes.h</text>
</a>
</g>
</g>
<!-- Node1&#45;&gt;Node33 -->
<g id="edge35" class="edge">
<title>Node1&#45;&gt;Node33</title>
<path fill="none" stroke="midnightblue" d="M1659.32,-210.48C1767.03,-201.89 1991.73,-183.52 2181.5,-165 2207.51,-162.46 2236.34,-159.35 2260.5,-156.67"/>
<polygon fill="midnightblue" stroke="midnightblue" points="1658.96,-206.99 1649.26,-211.28 1659.51,-213.97 1658.96,-206.99"/>
</g>
<!-- Node36 -->
<g id="node36" class="node">
<title>Node36</title>
<g id="a_node36"><a xlink:href="amg_8cc.html" target="_top" xlink:title=" ">
<polygon fill="none" stroke="black" points="2387,-140 2387,-159 2530,-159 2530,-140 2387,-140"/>
<text text-anchor="middle" x="2458.5" y="-147" font-family="Helvetica,sans-Serif" font-size="10.00">source/parsed_lac/amg.cc</text>
</a>
</g>
</g>
<!-- Node1&#45;&gt;Node36 -->
<g id="edge39" class="edge">
<title>Node1&#45;&gt;Node36</title>
<path fill="none" stroke="midnightblue" d="M1659.33,-213.81C1792.99,-209.75 2111.94,-197.24 2377.5,-165 2390.12,-163.47 2403.76,-161.25 2416.18,-159"/>
<polygon fill="midnightblue" stroke="midnightblue" points="1659.15,-210.32 1649.26,-214.11 1659.36,-217.31 1659.15,-210.32"/>
</g>
<!-- Node3 -->
<g id="node3" class="node">
<title>Node3</title>
<g id="a_node3"><a xlink:href="lac__initializer_8h.html" target="_top" xlink:title=" ">
<polygon fill="none" stroke="black" points="422,-73 422,-92 551,-92 551,-73 422,-73"/>
<text text-anchor="middle" x="486.5" y="-80" font-family="Helvetica,sans-Serif" font-size="10.00">include/lac_initializer.h</text>
</a>
</g>
</g>
<!-- Node2&#45;&gt;Node3 -->
<g id="edge2" class="edge">
<title>Node2&#45;&gt;Node3</title>
<path fill="none" stroke="midnightblue" d="M806.34,-139.84C735.43,-127.35 605.24,-104.42 534.81,-92.01"/>
<polygon fill="midnightblue" stroke="midnightblue" points="805.9,-143.32 816.36,-141.61 807.12,-136.42 805.9,-143.32"/>
</g>
<!-- Node4 -->
<g id="node4" class="node">
<title>Node4</title>
<g id="a_node4"><a xlink:href="source_2pdes_2distributed__lagrange_8cc.html" target="_top" xlink:title=" ">
<polygon fill="none" stroke="black" points="278,-0.5 278,-30.5 409,-30.5 409,-0.5 278,-0.5"/>
<text text-anchor="start" x="286" y="-18.5" font-family="Helvetica,sans-Serif" font-size="10.00">source/pdes/distributed</text>
<text text-anchor="middle" x="343.5" y="-7.5" font-family="Helvetica,sans-Serif" font-size="10.00">_lagrange.cc</text>
</a>
</g>
</g>
<!-- Node3&#45;&gt;Node4 -->
<g id="edge3" class="edge">
<title>Node3&#45;&gt;Node4</title>
<path fill="none" stroke="midnightblue" d="M458.17,-68.62C433.98,-57.63 399.25,-41.84 374.36,-30.53"/>
<polygon fill="midnightblue" stroke="midnightblue" points="456.96,-71.92 467.51,-72.87 459.86,-65.54 456.96,-71.92"/>
</g>
<!-- Node5 -->
<g id="node5" class="node">
<title>Node5</title>
<g id="a_node5"><a xlink:href="linear__problem_8cc.html" target="_top" xlink:title=" ">
<polygon fill="none" stroke="black" points="427.5,-0.5 427.5,-30.5 533.5,-30.5 533.5,-0.5 427.5,-0.5"/>
<text text-anchor="start" x="435.5" y="-18.5" font-family="Helvetica,sans-Serif" font-size="10.00">source/pdes/linear</text>
<text text-anchor="middle" x="480.5" y="-7.5" font-family="Helvetica,sans-Serif" font-size="10.00">_problem.cc</text>
</a>
</g>
</g>
<!-- Node3&#45;&gt;Node5 -->
<g id="edge4" class="edge">
<title>Node3&#45;&gt;Node5</title>
<path fill="none" stroke="midnightblue" d="M484.77,-62.74C483.82,-52.49 482.67,-40 481.8,-30.59"/>
<polygon fill="midnightblue" stroke="midnightblue" points="481.29,-63.1 485.69,-72.73 488.26,-62.45 481.29,-63.1"/>
</g>
<!-- Node6&#45;&gt;Node4 -->
<g id="edge6" class="edge">
<title>Node6&#45;&gt;Node4</title>
<path fill="none" stroke="midnightblue" d="M339.1,-57.4C340.07,-48.37 341.14,-38.41 341.98,-30.58"/>
<polygon fill="midnightblue" stroke="midnightblue" points="335.61,-57.08 338.02,-67.4 342.57,-57.83 335.61,-57.08"/>
</g>
<!-- Node7 -->
<g id="node7" class="node">
<title>Node7</title>
<g id="a_node7"><a xlink:href="apps_2mpi_2distributed__lagrange_8cc.html" target="_top" xlink:title=" ">
<polygon fill="none" stroke="black" points="0,-0.5 0,-30.5 117,-30.5 117,-0.5 0,-0.5"/>
<text text-anchor="start" x="8" y="-18.5" font-family="Helvetica,sans-Serif" font-size="10.00">apps/mpi/distributed</text>
<text text-anchor="middle" x="58.5" y="-7.5" font-family="Helvetica,sans-Serif" font-size="10.00">_lagrange.cc</text>
</a>
</g>
</g>
<!-- Node6&#45;&gt;Node7 -->
<g id="edge7" class="edge">
<title>Node6&#45;&gt;Node7</title>
<path fill="none" stroke="midnightblue" d="M266.62,-65.16C220.6,-54.4 161.03,-40.47 117.42,-30.28"/>
<polygon fill="midnightblue" stroke="midnightblue" points="265.99,-68.61 276.52,-67.48 267.58,-61.79 265.99,-68.61"/>
</g>
<!-- Node8 -->
<g id="node8" class="node">
<title>Node8</title>
<g id="a_node8"><a xlink:href="apps_2serial_2distributed__lagrange_8cc.html" target="_top" xlink:title=" ">
<polygon fill="none" stroke="black" points="135,-0.5 135,-30.5 260,-30.5 260,-0.5 135,-0.5"/>
<text text-anchor="start" x="143" y="-18.5" font-family="Helvetica,sans-Serif" font-size="10.00">apps/serial/distributed</text>
<text text-anchor="middle" x="197.5" y="-7.5" font-family="Helvetica,sans-Serif" font-size="10.00">_lagrange.cc</text>
</a>
</g>
</g>
<!-- Node6&#45;&gt;Node8 -->
<g id="edge8" class="edge">
<title>Node6&#45;&gt;Node8</title>
<path fill="none" stroke="midnightblue" d="M297.22,-63.13C275.13,-52.8 247.99,-40.11 227.6,-30.58"/>
<polygon fill="midnightblue" stroke="midnightblue" points="295.8,-66.33 306.34,-67.4 298.76,-59.99 295.8,-66.33"/>
</g>
<!-- Node9&#45;&gt;Node5 -->
<g id="edge25" class="edge">
<title>Node9&#45;&gt;Node5</title>
<path fill="none" stroke="midnightblue" d="M1032.56,-140.7C966.66,-132.26 861.89,-117.35 772.5,-98 683.51,-78.74 581.44,-48.29 524.62,-30.57"/>
<polygon fill="midnightblue" stroke="midnightblue" points="1032.44,-144.22 1042.8,-142 1033.32,-137.27 1032.44,-144.22"/>
</g>
<!-- Node9&#45;&gt;Node6 -->
<g id="edge10" class="edge">
<title>Node9&#45;&gt;Node6</title>
<path fill="none" stroke="midnightblue" d="M1032.4,-143.61C994.74,-140.79 946.45,-137.18 903.5,-134 685.29,-117.85 629.44,-126.55 412.5,-98 409.57,-97.61 406.58,-97.19 403.57,-96.73"/>
<polygon fill="midnightblue" stroke="midnightblue" points="1032.5,-147.13 1042.73,-144.39 1033.02,-140.15 1032.5,-147.13"/>
</g>
<!-- Node10 -->
<g id="node10" class="node">
<title>Node10</title>
<g id="a_node10"><a xlink:href="linear__elasticity_8h.html" target="_top" xlink:title=" ">
<polygon fill="none" stroke="black" points="782,-67.5 782,-97.5 891,-97.5 891,-67.5 782,-67.5"/>
<text text-anchor="start" x="790" y="-85.5" font-family="Helvetica,sans-Serif" font-size="10.00">include/pdes/linear</text>
<text text-anchor="middle" x="836.5" y="-74.5" font-family="Helvetica,sans-Serif" font-size="10.00">_elasticity.h</text>
</a>
</g>
</g>
<!-- Node9&#45;&gt;Node10 -->
<g id="edge11" class="edge">
<title>Node9&#45;&gt;Node10</title>
<path fill="none" stroke="midnightblue" d="M1032.86,-132.4C989.29,-121.55 932.45,-107.4 891.14,-97.11"/>
<polygon fill="midnightblue" stroke="midnightblue" points="1032.24,-135.85 1042.79,-134.87 1033.93,-129.06 1032.24,-135.85"/>
</g>
<!-- Node14 -->
<g id="node14" class="node">
<title>Node14</title>
<g id="a_node14"><a xlink:href="linear__visco__elasticity_8h.html" target="_top" xlink:title=" ">
<polygon fill="none" stroke="black" points="1043,-67.5 1043,-97.5 1152,-97.5 1152,-67.5 1043,-67.5"/>
<text text-anchor="start" x="1051" y="-85.5" font-family="Helvetica,sans-Serif" font-size="10.00">include/pdes/linear</text>
<text text-anchor="middle" x="1097.5" y="-74.5" font-family="Helvetica,sans-Serif" font-size="10.00">_visco_elasticity.h</text>
</a>
</g>
</g>
<!-- Node9&#45;&gt;Node14 -->
<g id="edge15" class="edge">
<title>Node9&#45;&gt;Node14</title>
<path fill="none" stroke="midnightblue" d="M1097.5,-124.11C1097.5,-115.15 1097.5,-105.32 1097.5,-97.58"/>
<polygon fill="midnightblue" stroke="midnightblue" points="1094,-124.4 1097.5,-134.4 1101,-124.4 1094,-124.4"/>
</g>
<!-- Node18 -->
<g id="node18" class="node">
<title>Node18</title>
<g id="a_node18"><a xlink:href="mpi_2poisson_8h.html" target="_top" xlink:title=" ">
<polygon fill="none" stroke="black" points="1170,-73 1170,-92 1319,-92 1319,-73 1170,-73"/>
<text text-anchor="middle" x="1244.5" y="-80" font-family="Helvetica,sans-Serif" font-size="10.00">include/pdes/mpi/poisson.h</text>
</a>
</g>
</g>
<!-- Node9&#45;&gt;Node18 -->
<g id="edge19" class="edge">
<title>Node9&#45;&gt;Node18</title>
<path fill="none" stroke="midnightblue" d="M1138.67,-130.3C1167.02,-117.76 1203.38,-101.68 1225.26,-92.01"/>
<polygon fill="midnightblue" stroke="midnightblue" points="1137.13,-127.15 1129.4,-134.4 1139.96,-133.55 1137.13,-127.15"/>
</g>
<!-- Node9&#45;&gt;Node21 -->
<g id="edge22" class="edge">
<title>Node9&#45;&gt;Node21</title>
<path fill="none" stroke="midnightblue" d="M1162.09,-134.55C1221.82,-121.65 1308.68,-102.9 1358.8,-92.07"/>
<polygon fill="midnightblue" stroke="midnightblue" points="1161.04,-131.2 1152.01,-136.73 1162.52,-138.04 1161.04,-131.2"/>
</g>
<!-- Node11 -->
<g id="node11" class="node">
<title>Node11</title>
<g id="a_node11"><a xlink:href="source_2pdes_2linear__elasticity_8cc.html" target="_top" xlink:title=" ">
<polygon fill="none" stroke="black" points="844.5,-0.5 844.5,-30.5 950.5,-30.5 950.5,-0.5 844.5,-0.5"/>
<text text-anchor="start" x="852.5" y="-18.5" font-family="Helvetica,sans-Serif" font-size="10.00">source/pdes/linear</text>
<text text-anchor="middle" x="897.5" y="-7.5" font-family="Helvetica,sans-Serif" font-size="10.00">_elasticity.cc</text>
</a>
</g>
</g>
<!-- Node10&#45;&gt;Node11 -->
<g id="edge12" class="edge">
<title>Node10&#45;&gt;Node11</title>
<path fill="none" stroke="midnightblue" d="M856.65,-60.02C865.74,-50.34 876.22,-39.17 884.29,-30.58"/>
<polygon fill="midnightblue" stroke="midnightblue" points="854.03,-57.71 849.74,-67.4 859.13,-62.5 854.03,-57.71"/>
</g>
<!-- Node12 -->
<g id="node12" class="node">
<title>Node12</title>
<g id="a_node12"><a xlink:href="apps_2mpi_2linear__elasticity_8cc.html" target="_top" xlink:title=" ">
<polygon fill="none" stroke="black" points="552,-6 552,-25 707,-25 707,-6 552,-6"/>
<text text-anchor="middle" x="629.5" y="-13" font-family="Helvetica,sans-Serif" font-size="10.00">apps/mpi/linear_elasticity.cc</text>
</a>
</g>
</g>
<!-- Node10&#45;&gt;Node12 -->
<g id="edge13" class="edge">
<title>Node10&#45;&gt;Node12</title>
<path fill="none" stroke="midnightblue" d="M782.14,-64.43C741.77,-51.75 688.42,-35 656.66,-25.03"/>
<polygon fill="midnightblue" stroke="midnightblue" points="781.25,-67.82 791.84,-67.48 783.35,-61.14 781.25,-67.82"/>
</g>
<!-- Node13 -->
<g id="node13" class="node">
<title>Node13</title>
<g id="a_node13"><a xlink:href="apps_2serial_2linear__elasticity_8cc.html" target="_top" xlink:title=" ">
<polygon fill="none" stroke="black" points="725,-0.5 725,-30.5 826,-30.5 826,-0.5 725,-0.5"/>
<text text-anchor="start" x="733" y="-18.5" font-family="Helvetica,sans-Serif" font-size="10.00">apps/serial/linear</text>
<text text-anchor="middle" x="775.5" y="-7.5" font-family="Helvetica,sans-Serif" font-size="10.00">_elasticity.cc</text>
</a>
</g>
</g>
<!-- Node10&#45;&gt;Node13 -->
<g id="edge14" class="edge">
<title>Node10&#45;&gt;Node13</title>
<path fill="none" stroke="midnightblue" d="M816.35,-60.02C807.26,-50.34 796.78,-39.17 788.71,-30.58"/>
<polygon fill="midnightblue" stroke="midnightblue" points="813.87,-62.5 823.26,-67.4 818.97,-57.71 813.87,-62.5"/>
</g>
<!-- Node15 -->
<g id="node15" class="node">
<title>Node15</title>
<g id="a_node15"><a xlink:href="source_2pdes_2linear__visco__elasticity_8cc.html" target="_top" xlink:title=" ">
<polygon fill="none" stroke="black" points="1238.5,-0.5 1238.5,-30.5 1348.5,-30.5 1348.5,-0.5 1238.5,-0.5"/>
<text text-anchor="start" x="1246.5" y="-18.5" font-family="Helvetica,sans-Serif" font-size="10.00">source/pdes/linear</text>
<text text-anchor="middle" x="1293.5" y="-7.5" font-family="Helvetica,sans-Serif" font-size="10.00">_visco_elasticity.cc</text>
</a>
</g>
</g>
<!-- Node14&#45;&gt;Node15 -->
<g id="edge16" class="edge">
<title>Node14&#45;&gt;Node15</title>
<path fill="none" stroke="midnightblue" d="M1149.58,-64.23C1181.29,-53.71 1221.28,-40.45 1251.05,-30.58"/>
<polygon fill="midnightblue" stroke="midnightblue" points="1148.42,-60.93 1140.03,-67.4 1150.62,-67.57 1148.42,-60.93"/>
</g>
<!-- Node16 -->
<g id="node16" class="node">
<title>Node16</title>
<g id="a_node16"><a xlink:href="apps_2mpi_2linear__visco__elasticity_8cc.html" target="_top" xlink:title=" ">
<polygon fill="none" stroke="black" points="969,-0.5 969,-30.5 1092,-30.5 1092,-0.5 969,-0.5"/>
<text text-anchor="start" x="977" y="-18.5" font-family="Helvetica,sans-Serif" font-size="10.00">apps/mpi/linear_visco</text>
<text text-anchor="middle" x="1030.5" y="-7.5" font-family="Helvetica,sans-Serif" font-size="10.00">_elasticity.cc</text>
</a>
</g>
</g>
<!-- Node14&#45;&gt;Node16 -->
<g id="edge17" class="edge">
<title>Node14&#45;&gt;Node16</title>
<path fill="none" stroke="midnightblue" d="M1075.66,-60.31C1065.61,-50.56 1053.96,-39.26 1045.01,-30.58"/>
<polygon fill="midnightblue" stroke="midnightblue" points="1073.35,-62.94 1082.96,-67.4 1078.22,-57.92 1073.35,-62.94"/>
</g>
<!-- Node17 -->
<g id="node17" class="node">
<title>Node17</title>
<g id="a_node17"><a xlink:href="apps_2serial_2linear__visco__elasticity_8cc.html" target="_top" xlink:title=" ">
<polygon fill="none" stroke="black" points="1110.5,-0.5 1110.5,-30.5 1220.5,-30.5 1220.5,-0.5 1110.5,-0.5"/>
<text text-anchor="start" x="1118.5" y="-18.5" font-family="Helvetica,sans-Serif" font-size="10.00">apps/serial/linear</text>
<text text-anchor="middle" x="1165.5" y="-7.5" font-family="Helvetica,sans-Serif" font-size="10.00">_visco_elasticity.cc</text>
</a>
</g>
</g>
<!-- Node14&#45;&gt;Node17 -->
<g id="edge18" class="edge">
<title>Node14&#45;&gt;Node17</title>
<path fill="none" stroke="midnightblue" d="M1119.67,-60.31C1129.87,-50.56 1141.69,-39.26 1150.77,-30.58"/>
<polygon fill="midnightblue" stroke="midnightblue" points="1117.07,-57.96 1112.25,-67.4 1121.9,-63.02 1117.07,-57.96"/>
</g>
<!-- Node19 -->
<g id="node19" class="node">
<title>Node19</title>
<g id="a_node19"><a xlink:href="source_2pdes_2mpi_2poisson_8cc.html" target="_top" xlink:title=" ">
<polygon fill="none" stroke="black" points="1367,-6 1367,-25 1518,-25 1518,-6 1367,-6"/>
<text text-anchor="middle" x="1442.5" y="-13" font-family="Helvetica,sans-Serif" font-size="10.00">source/pdes/mpi/poisson.cc</text>
</a>
</g>
</g>
<!-- Node18&#45;&gt;Node19 -->
<g id="edge20" class="edge">
<title>Node18&#45;&gt;Node19</title>
<path fill="none" stroke="midnightblue" d="M1280.5,-69.68C1319.74,-56.8 1381.59,-36.5 1416.41,-25.06"/>
<polygon fill="midnightblue" stroke="midnightblue" points="1279.2,-66.42 1270.79,-72.87 1281.39,-73.07 1279.2,-66.42"/>
</g>
<!-- Node20 -->
<g id="node20" class="node">
<title>Node20</title>
<g id="a_node20"><a xlink:href="apps_2mpi_2poisson_8cc.html" target="_top" xlink:title=" ">
<polygon fill="none" stroke="black" points="1536.5,-6 1536.5,-25 1652.5,-25 1652.5,-6 1536.5,-6"/>
<text text-anchor="middle" x="1594.5" y="-13" font-family="Helvetica,sans-Serif" font-size="10.00">apps/mpi/poisson.cc</text>
</a>
</g>
</g>
<!-- Node18&#45;&gt;Node20 -->
<g id="edge21" class="edge">
<title>Node18&#45;&gt;Node20</title>
<path fill="none" stroke="midnightblue" d="M1303.22,-71.22C1372.85,-58.99 1484.75,-39.19 1526.5,-31 1535.98,-29.14 1546.17,-27.03 1555.71,-25"/>
<polygon fill="midnightblue" stroke="midnightblue" points="1302.51,-67.79 1293.26,-72.97 1303.72,-74.69 1302.51,-67.79"/>
</g>
<!-- Node22 -->
<g id="node22" class="node">
<title>Node22</title>
<g id="a_node22"><a xlink:href="source_2pdes_2stokes_8cc.html" target="_top" xlink:title=" ">
<polygon fill="none" stroke="black" points="1671,-6 1671,-25 1794,-25 1794,-6 1671,-6"/>
<text text-anchor="middle" x="1732.5" y="-13" font-family="Helvetica,sans-Serif" font-size="10.00">source/pdes/stokes.cc</text>
</a>
</g>
</g>
<!-- Node21&#45;&gt;Node22 -->
<g id="edge23" class="edge">
<title>Node21&#45;&gt;Node22</title>
<path fill="none" stroke="midnightblue" d="M1449.25,-70.86C1455.73,-69.54 1462.27,-68.23 1468.5,-67 1554.11,-50.15 1575.86,-47.73 1661.5,-31 1671.13,-29.12 1681.48,-27.04 1691.23,-25.05"/>
<polygon fill="midnightblue" stroke="midnightblue" points="1448.28,-67.49 1439.19,-72.93 1449.69,-74.35 1448.28,-67.49"/>
</g>
<!-- Node23 -->
<g id="node23" class="node">
<title>Node23</title>
<g id="a_node23"><a xlink:href="apps_2mpi_2stokes_8cc.html" target="_top" xlink:title=" ">
<polygon fill="none" stroke="black" points="1812.5,-6 1812.5,-25 1922.5,-25 1922.5,-6 1812.5,-6"/>
<text text-anchor="middle" x="1867.5" y="-13" font-family="Helvetica,sans-Serif" font-size="10.00">apps/mpi/stokes.cc</text>
</a>
</g>
</g>
<!-- Node21&#45;&gt;Node23 -->
<g id="edge24" class="edge">
<title>Node21&#45;&gt;Node23</title>
<path fill="none" stroke="midnightblue" d="M1446.42,-70.93C1453.79,-69.49 1461.34,-68.13 1468.5,-67 1616,-43.83 1655.19,-55.29 1802.5,-31 1812.31,-29.38 1822.87,-27.21 1832.56,-25.05"/>
<polygon fill="midnightblue" stroke="midnightblue" points="1445.64,-67.52 1436.52,-72.93 1447.02,-74.38 1445.64,-67.52"/>
</g>
<!-- Node25 -->
<g id="node25" class="node">
<title>Node25</title>
<g id="a_node25"><a xlink:href="source_2pdes_2serial_2poisson_8cc.html" target="_top" xlink:title=" ">
<polygon fill="none" stroke="black" points="1620,-67.5 1620,-97.5 1725,-97.5 1725,-67.5 1620,-67.5"/>
<text text-anchor="start" x="1628" y="-85.5" font-family="Helvetica,sans-Serif" font-size="10.00">source/pdes/serial</text>
<text text-anchor="middle" x="1672.5" y="-74.5" font-family="Helvetica,sans-Serif" font-size="10.00">/poisson.cc</text>
</a>
</g>
</g>
<!-- Node24&#45;&gt;Node25 -->
<g id="edge27" class="edge">
<title>Node24&#45;&gt;Node25</title>
<path fill="none" stroke="midnightblue" d="M1619.92,-127.88C1631.62,-118.01 1645.34,-106.43 1655.82,-97.58"/>
<polygon fill="midnightblue" stroke="midnightblue" points="1617.59,-125.27 1612.21,-134.4 1622.11,-130.62 1617.59,-125.27"/>
</g>
<!-- Node26 -->
<g id="node26" class="node">
<title>Node26</title>
<g id="a_node26"><a xlink:href="apps_2serial_2poisson_8cc.html" target="_top" xlink:title=" ">
<polygon fill="none" stroke="black" points="1477.5,-73 1477.5,-92 1601.5,-92 1601.5,-73 1477.5,-73"/>
<text text-anchor="middle" x="1539.5" y="-80" font-family="Helvetica,sans-Serif" font-size="10.00">apps/serial/poisson.cc</text>
</a>
</g>
</g>
<!-- Node24&#45;&gt;Node26 -->
<g id="edge28" class="edge">
<title>Node24&#45;&gt;Node26</title>
<path fill="none" stroke="midnightblue" d="M1576.68,-126.66C1566.52,-114.86 1554.55,-100.97 1546.99,-92.19"/>
<polygon fill="midnightblue" stroke="midnightblue" points="1574.17,-129.1 1583.35,-134.4 1579.47,-124.54 1574.17,-129.1"/>
</g>
<!-- Node28 -->
<g id="node28" class="node">
<title>Node28</title>
<g id="a_node28"><a xlink:href="source_2pdes_2serial_2poisson__nitsche__interface_8cc.html" target="_top" xlink:title=" ">
<polygon fill="none" stroke="black" points="1880.5,-67.5 1880.5,-97.5 2040.5,-97.5 2040.5,-67.5 1880.5,-67.5"/>
<text text-anchor="start" x="1888.5" y="-85.5" font-family="Helvetica,sans-Serif" font-size="10.00">source/pdes/serial</text>
<text text-anchor="middle" x="1960.5" y="-74.5" font-family="Helvetica,sans-Serif" font-size="10.00">/poisson_nitsche_interface.cc</text>
</a>
</g>
</g>
<!-- Node27&#45;&gt;Node28 -->
<g id="edge30" class="edge">
<title>Node27&#45;&gt;Node28</title>
<path fill="none" stroke="midnightblue" d="M1846.15,-130.54C1871.43,-120.14 1902.8,-107.24 1926.28,-97.58"/>
<polygon fill="midnightblue" stroke="midnightblue" points="1844.7,-127.35 1836.78,-134.4 1847.36,-133.83 1844.7,-127.35"/>
</g>
<!-- Node29 -->
<g id="node29" class="node">
<title>Node29</title>
<g id="a_node29"><a xlink:href="apps_2serial_2poisson__nitsche__interface_8cc.html" target="_top" xlink:title=" ">
<polygon fill="none" stroke="black" points="1743,-67.5 1743,-97.5 1862,-97.5 1862,-67.5 1743,-67.5"/>
<text text-anchor="start" x="1751" y="-85.5" font-family="Helvetica,sans-Serif" font-size="10.00">apps/serial/poisson</text>
<text text-anchor="middle" x="1802.5" y="-74.5" font-family="Helvetica,sans-Serif" font-size="10.00">_nitsche_interface.cc</text>
</a>
</g>
</g>
<!-- Node27&#45;&gt;Node29 -->
<g id="edge31" class="edge">
<title>Node27&#45;&gt;Node29</title>
<path fill="none" stroke="midnightblue" d="M1802.5,-124.11C1802.5,-115.15 1802.5,-105.32 1802.5,-97.58"/>
<polygon fill="midnightblue" stroke="midnightblue" points="1799,-124.4 1802.5,-134.4 1806,-124.4 1799,-124.4"/>
</g>
<!-- Node31 -->
<g id="node31" class="node">
<title>Node31</title>
<g id="a_node31"><a xlink:href="source_2pdes_2serial_2reduced__lagrange_8cc.html" target="_top" xlink:title=" ">
<polygon fill="none" stroke="black" points="2188.5,-67.5 2188.5,-97.5 2308.5,-97.5 2308.5,-67.5 2188.5,-67.5"/>
<text text-anchor="start" x="2196.5" y="-85.5" font-family="Helvetica,sans-Serif" font-size="10.00">source/pdes/serial</text>
<text text-anchor="middle" x="2248.5" y="-74.5" font-family="Helvetica,sans-Serif" font-size="10.00">/reduced_lagrange.cc</text>
</a>
</g>
</g>
<!-- Node30&#45;&gt;Node31 -->
<g id="edge33" class="edge">
<title>Node30&#45;&gt;Node31</title>
<path fill="none" stroke="midnightblue" d="M2152.65,-129.99C2173.89,-119.69 2199.91,-107.07 2219.48,-97.58"/>
<polygon fill="midnightblue" stroke="midnightblue" points="2151.05,-126.88 2143.58,-134.4 2154.1,-133.18 2151.05,-126.88"/>
</g>
<!-- Node32 -->
<g id="node32" class="node">
<title>Node32</title>
<g id="a_node32"><a xlink:href="apps_2serial_2reduced__lagrange_8cc.html" target="_top" xlink:title=" ">
<polygon fill="none" stroke="black" points="2058.5,-67.5 2058.5,-97.5 2170.5,-97.5 2170.5,-67.5 2058.5,-67.5"/>
<text text-anchor="start" x="2066.5" y="-85.5" font-family="Helvetica,sans-Serif" font-size="10.00">apps/serial/reduced</text>
<text text-anchor="middle" x="2114.5" y="-74.5" font-family="Helvetica,sans-Serif" font-size="10.00">_lagrange.cc</text>
</a>
</g>
</g>
<!-- Node30&#45;&gt;Node32 -->
<g id="edge34" class="edge">
<title>Node30&#45;&gt;Node32</title>
<path fill="none" stroke="midnightblue" d="M2114.5,-124.11C2114.5,-115.15 2114.5,-105.32 2114.5,-97.58"/>
<polygon fill="midnightblue" stroke="midnightblue" points="2111,-124.4 2114.5,-134.4 2118,-124.4 2111,-124.4"/>
</g>
<!-- Node34 -->
<g id="node34" class="node">
<title>Node34</title>
<g id="a_node34"><a xlink:href="source_2pdes_2serial_2stokes_8cc.html" target="_top" xlink:title=" ">
<polygon fill="none" stroke="black" points="2463,-67.5 2463,-97.5 2568,-97.5 2568,-67.5 2463,-67.5"/>
<text text-anchor="start" x="2471" y="-85.5" font-family="Helvetica,sans-Serif" font-size="10.00">source/pdes/serial</text>
<text text-anchor="middle" x="2515.5" y="-74.5" font-family="Helvetica,sans-Serif" font-size="10.00">/stokes.cc</text>
</a>
</g>
</g>
<!-- Node33&#45;&gt;Node34 -->
<g id="edge36" class="edge">
<title>Node33&#45;&gt;Node34</title>
<path fill="none" stroke="midnightblue" d="M2367.91,-131.23C2400.43,-120.71 2441.44,-107.45 2471.97,-97.58"/>
<polygon fill="midnightblue" stroke="midnightblue" points="2366.55,-127.99 2358.11,-134.4 2368.71,-134.65 2366.55,-127.99"/>
</g>
<!-- Node35 -->
<g id="node35" class="node">
<title>Node35</title>
<g id="a_node35"><a xlink:href="apps_2serial_2stokes_8cc.html" target="_top" xlink:title=" ">
<polygon fill="none" stroke="black" points="2326.5,-73 2326.5,-92 2444.5,-92 2444.5,-73 2326.5,-73"/>
<text text-anchor="middle" x="2385.5" y="-80" font-family="Helvetica,sans-Serif" font-size="10.00">apps/serial/stokes.cc</text>
</a>
</g>
</g>
<!-- Node33&#45;&gt;Node35 -->
<g id="edge37" class="edge">
<title>Node33&#45;&gt;Node35</title>
<path fill="none" stroke="midnightblue" d="M2337.62,-127.34C2350.65,-115.4 2366.24,-101.14 2376,-92.19"/>
<polygon fill="midnightblue" stroke="midnightblue" points="2334.92,-125.06 2329.91,-134.4 2339.65,-130.22 2334.92,-125.06"/>
</g>
</g>
</svg>
