<?xml version="1.0" encoding="UTF-8" standalone="no"?>
<!DOCTYPE svg PUBLIC "-//W3C//DTD SVG 1.1//EN"
 "http://www.w3.org/Graphics/SVG/1.1/DTD/svg11.dtd">
<!-- Generated by graphviz version 2.43.0 (0)
 -->
<!-- Title: source/parsed_lac/amg_petsc.cc Pages: 1 -->
<svg width="896pt" height="173pt"
 viewBox="0.00 0.00 896.00 173.00" xmlns="http://www.w3.org/2000/svg" xmlns:xlink="http://www.w3.org/1999/xlink">
<g id="graph0" class="graph" transform="scale(1 1) rotate(0) translate(4 169)">
<title>source/parsed_lac/amg_petsc.cc</title>
<!-- Node1 -->
<g id="node1" class="node">
<title>Node1</title>
<g id="a_node1"><a xlink:title=" ">
<polygon fill="#bfbfbf" stroke="black" points="308.5,-134.5 308.5,-164.5 437.5,-164.5 437.5,-134.5 308.5,-134.5"/>
<text text-anchor="start" x="316.5" y="-152.5" font-family="Helvetica,sans-Serif" font-size="10.00">source/parsed_lac/amg</text>
<text text-anchor="middle" x="373" y="-141.5" font-family="Helvetica,sans-Serif" font-size="10.00">_petsc.cc</text>
</a>
</g>
</g>
<!-- Node2 -->
<g id="node2" class="node">
<title>Node2</title>
<g id="a_node2"><a target="_parent" xlink:href="http://www.dealii.org/developer/doxygen/deal.II/config_8h.html.html" xlink:title=" ">
<polygon fill="none" stroke="black" points="437,-6 437,-25 551,-25 551,-6 437,-6"/>
<text text-anchor="middle" x="494" y="-13" font-family="Helvetica,sans-Serif" font-size="10.00">deal.II/base/config.h</text>
</a>
</g>
</g>
<!-- Node1&#45;&gt;Node2 -->
<g id="edge1" class="edge">
<title>Node1&#45;&gt;Node2</title>
<path fill="none" stroke="midnightblue" d="M339.59,-134.34C324.61,-126.09 308.44,-114.11 300,-98 293.6,-85.8 291.57,-77.9 300,-67 304.57,-61.09 390.38,-40.37 446.33,-27.37"/>
<polygon fill="midnightblue" stroke="midnightblue" points="447.45,-30.71 456.41,-25.04 445.88,-23.89 447.45,-30.71"/>
</g>
<!-- Node3 -->
<g id="node3" class="node">
<title>Node3</title>
<g id="a_node3"><a xlink:href="enum_8h.html" target="_top" xlink:title=" ">
<polygon fill="none" stroke="black" points="133.5,-73 133.5,-92 252.5,-92 252.5,-73 133.5,-73"/>
<text text-anchor="middle" x="193" y="-80" font-family="Helvetica,sans-Serif" font-size="10.00">parsed_tools/enum.h</text>
</a>
</g>
</g>
<!-- Node1&#45;&gt;Node3 -->
<g id="edge2" class="edge">
<title>Node1&#45;&gt;Node3</title>
<path fill="none" stroke="midnightblue" d="M333.94,-134.4C301.8,-122.79 256.73,-106.51 226.28,-95.52"/>
<polygon fill="midnightblue" stroke="midnightblue" points="227.15,-92.11 216.56,-92.01 224.77,-98.7 227.15,-92.11"/>
</g>
<!-- Node7 -->
<g id="node7" class="node">
<title>Node7</title>
<g id="a_node7"><a target="_parent" xlink:href="http://www.dealii.org/developer/doxygen/deal.II/dof__tools_8h.html.html" xlink:title=" ">
<polygon fill="none" stroke="black" points="309,-73 309,-92 437,-92 437,-73 309,-73"/>
<text text-anchor="middle" x="373" y="-80" font-family="Helvetica,sans-Serif" font-size="10.00">deal.II/dofs/dof_tools.h</text>
</a>
</g>
</g>
<!-- Node1&#45;&gt;Node7 -->
<g id="edge6" class="edge">
<title>Node1&#45;&gt;Node7</title>
<path fill="none" stroke="midnightblue" d="M373,-134.4C373,-125.06 373,-112.71 373,-102.52"/>
<polygon fill="midnightblue" stroke="midnightblue" points="376.5,-102.19 373,-92.19 369.5,-102.19 376.5,-102.19"/>
</g>
<!-- Node8 -->
<g id="node8" class="node">
<title>Node8</title>
<g id="a_node8"><a target="_parent" xlink:href="http://www.dealii.org/developer/doxygen/deal.II/sparse__matrix_8h.html.html" xlink:title=" ">
<polygon fill="none" stroke="black" points="455.5,-67.5 455.5,-97.5 554.5,-97.5 554.5,-67.5 455.5,-67.5"/>
<text text-anchor="start" x="463.5" y="-85.5" font-family="Helvetica,sans-Serif" font-size="10.00">deal.II/lac/sparse</text>
<text text-anchor="middle" x="505" y="-74.5" font-family="Helvetica,sans-Serif" font-size="10.00">_matrix.h</text>
</a>
</g>
</g>
<!-- Node1&#45;&gt;Node8 -->
<g id="edge7" class="edge">
<title>Node1&#45;&gt;Node8</title>
<path fill="none" stroke="midnightblue" d="M401.64,-134.4C420.84,-124.94 446.33,-112.39 467.19,-102.12"/>
<polygon fill="midnightblue" stroke="midnightblue" points="468.99,-105.13 476.41,-97.58 465.9,-98.85 468.99,-105.13"/>
</g>
<!-- Node9 -->
<g id="node9" class="node">
<title>Node9</title>
<g id="a_node9"><a xlink:href="amg__petsc_8h.html" target="_top" xlink:title=" ">
<polygon fill="none" stroke="black" points="573,-73 573,-92 707,-92 707,-73 573,-73"/>
<text text-anchor="middle" x="640" y="-80" font-family="Helvetica,sans-Serif" font-size="10.00">parsed_lac/amg_petsc.h</text>
</a>
</g>
</g>
<!-- Node1&#45;&gt;Node9 -->
<g id="edge8" class="edge">
<title>Node1&#45;&gt;Node9</title>
<path fill="none" stroke="midnightblue" d="M430.61,-134.48C479.92,-122.47 549.92,-105.43 595.15,-94.42"/>
<polygon fill="midnightblue" stroke="midnightblue" points="596.08,-97.79 604.97,-92.03 594.42,-90.99 596.08,-97.79"/>
</g>
<!-- Node4 -->
<g id="node4" class="node">
<title>Node4</title>
<g id="a_node4"><a target="_parent" xlink:href="http://www.dealii.org/developer/doxygen/deal.II/patterns_8h.html.html" xlink:title=" ">
<polygon fill="none" stroke="black" points="130.5,-6 130.5,-25 255.5,-25 255.5,-6 130.5,-6"/>
<text text-anchor="middle" x="193" y="-13" font-family="Helvetica,sans-Serif" font-size="10.00">deal.II/base/patterns.h</text>
</a>
</g>
</g>
<!-- Node3&#45;&gt;Node4 -->
<g id="edge3" class="edge">
<title>Node3&#45;&gt;Node4</title>
<path fill="none" stroke="midnightblue" d="M193,-72.73C193,-63.18 193,-47.62 193,-35.28"/>
<polygon fill="midnightblue" stroke="midnightblue" points="196.5,-35.13 193,-25.13 189.5,-35.13 196.5,-35.13"/>
</g>
<!-- Node5 -->
<g id="node5" class="node">
<title>Node5</title>
<g id="a_node5"><a target="_parent" xlink:href="http://www.dealii.org/developer/doxygen/deal.II/sd_8h.html.html" xlink:title=" ">
<polygon fill="none" stroke="black" points="274,-6 274,-25 416,-25 416,-6 274,-6"/>
<text text-anchor="middle" x="345" y="-13" font-family="Helvetica,sans-Serif" font-size="10.00">deal.II/differentiation/sd.h</text>
</a>
</g>
</g>
<!-- Node3&#45;&gt;Node5 -->
<g id="edge4" class="edge">
<title>Node3&#45;&gt;Node5</title>
<path fill="none" stroke="midnightblue" d="M213.18,-72.87C239.3,-61.7 285.03,-42.15 315.16,-29.26"/>
<polygon fill="midnightblue" stroke="midnightblue" points="316.91,-32.32 324.73,-25.17 314.16,-25.88 316.91,-32.32"/>
</g>
<!-- Node6 -->
<g id="node6" class="node">
<title>Node6</title>
<g id="a_node6"><a xlink:title=" ">
<polygon fill="none" stroke="#bfbfbf" points="0,-0.5 0,-30.5 112,-30.5 112,-0.5 0,-0.5"/>
<text text-anchor="start" x="8" y="-18.5" font-family="Helvetica,sans-Serif" font-size="10.00">parsed_tools/magic</text>
<text text-anchor="middle" x="56" y="-7.5" font-family="Helvetica,sans-Serif" font-size="10.00">_enum.hpp</text>
</a>
</g>
</g>
<!-- Node3&#45;&gt;Node6 -->
<g id="edge5" class="edge">
<title>Node3&#45;&gt;Node6</title>
<path fill="none" stroke="midnightblue" d="M174.81,-72.87C154.52,-63.24 121.1,-47.39 94.87,-34.94"/>
<polygon fill="midnightblue" stroke="midnightblue" points="96.1,-31.65 85.57,-30.53 93.1,-37.98 96.1,-31.65"/>
</g>
<!-- Node9&#45;&gt;Node2 -->
<g id="edge9" class="edge">
<title>Node9&#45;&gt;Node2</title>
<path fill="none" stroke="midnightblue" d="M620.61,-72.87C595.52,-61.7 551.61,-42.15 522.66,-29.26"/>
<polygon fill="midnightblue" stroke="midnightblue" points="524.03,-26.04 513.47,-25.17 521.18,-32.43 524.03,-26.04"/>
</g>
<!-- Node10 -->
<g id="node10" class="node">
<title>Node10</title>
<g id="a_node10"><a target="_parent" xlink:href="http://www.dealii.org/developer/doxygen/deal.II/parameter__acceptor_8h.html.html" xlink:title=" ">
<polygon fill="none" stroke="black" points="574.5,-0.5 574.5,-30.5 701.5,-30.5 701.5,-0.5 574.5,-0.5"/>
<text text-anchor="start" x="582.5" y="-18.5" font-family="Helvetica,sans-Serif" font-size="10.00">deal.II/base/parameter</text>
<text text-anchor="middle" x="638" y="-7.5" font-family="Helvetica,sans-Serif" font-size="10.00">_acceptor.h</text>
</a>
</g>
</g>
<!-- Node9&#45;&gt;Node10 -->
<g id="edge10" class="edge">
<title>Node9&#45;&gt;Node10</title>
<path fill="none" stroke="midnightblue" d="M639.73,-72.73C639.48,-64.54 639.09,-51.92 638.75,-40.71"/>
<polygon fill="midnightblue" stroke="midnightblue" points="642.24,-40.48 638.43,-30.59 635.24,-40.69 642.24,-40.48"/>
</g>
<!-- Node11 -->
<g id="node11" class="node">
<title>Node11</title>
<g id="a_node11"><a target="_parent" xlink:href="http://www.dealii.org/developer/doxygen/deal.II/petsc__precondition_8h.html.html" xlink:title=" ">
<polygon fill="none" stroke="black" points="720,-6 720,-25 888,-25 888,-6 720,-6"/>
<text text-anchor="middle" x="804" y="-13" font-family="Helvetica,sans-Serif" font-size="10.00">deal.II/lac/petsc_precondition.h</text>
</a>
</g>
</g>
<!-- Node9&#45;&gt;Node11 -->
<g id="edge11" class="edge">
<title>Node9&#45;&gt;Node11</title>
<path fill="none" stroke="midnightblue" d="M661.78,-72.87C690.28,-61.57 740.43,-41.7 772.92,-28.82"/>
<polygon fill="midnightblue" stroke="midnightblue" points="774.39,-32 782.39,-25.06 771.81,-25.49 774.39,-32"/>
</g>
</g>
</svg>
