<?xml version="1.0" encoding="UTF-8" standalone="no"?>
<!DOCTYPE svg PUBLIC "-//W3C//DTD SVG 1.1//EN"
 "http://www.w3.org/Graphics/SVG/1.1/DTD/svg11.dtd">
<!-- Generated by graphviz version 2.43.0 (0)
 -->
<!-- Title: include/parsed_lac/amg.h Pages: 1 -->
<svg width="318pt" height="151pt"
 viewBox="0.00 0.00 317.50 151.00" xmlns="http://www.w3.org/2000/svg" xmlns:xlink="http://www.w3.org/1999/xlink">
<g id="graph0" class="graph" transform="scale(1 1) rotate(0) translate(4 147)">
<title>include/parsed_lac/amg.h</title>
<!-- Node1 -->
<g id="node1" class="node">
<title>Node1</title>
<g id="a_node1"><a xlink:title=" ">
<polygon fill="#bfbfbf" stroke="black" points="54,-112.5 54,-142.5 161,-142.5 161,-112.5 54,-112.5"/>
<text text-anchor="start" x="62" y="-130.5" font-family="Helvetica,sans-Serif" font-size="10.00">include/parsed_lac</text>
<text text-anchor="middle" x="107.5" y="-119.5" font-family="Helvetica,sans-Serif" font-size="10.00">/amg.h</text>
</a>
</g>
</g>
<!-- Node2 -->
<g id="node2" class="node">
<title>Node2</title>
<g id="a_node2"><a xlink:href="amg_8cc.html" target="_top" xlink:title=" ">
<polygon fill="none" stroke="black" points="0,-56.5 0,-75.5 87,-75.5 87,-56.5 0,-56.5"/>
<text text-anchor="middle" x="43.5" y="-63.5" font-family="Helvetica,sans-Serif" font-size="10.00">source/amg.cc</text>
</a>
</g>
</g>
<!-- Node1&#45;&gt;Node2 -->
<g id="edge1" class="edge">
<title>Node1&#45;&gt;Node2</title>
<path fill="none" stroke="midnightblue" d="M84.7,-105.3C73.71,-95.09 61.15,-83.41 52.81,-75.66"/>
<polygon fill="midnightblue" stroke="midnightblue" points="82.63,-108.15 92.33,-112.4 87.39,-103.03 82.63,-108.15"/>
</g>
<!-- Node3 -->
<g id="node3" class="node">
<title>Node3</title>
<g id="a_node3"><a xlink:href="serial__poisson_8h.html" target="_top" xlink:title=" ">
<polygon fill="none" stroke="black" points="105.5,-56.5 105.5,-75.5 239.5,-75.5 239.5,-56.5 105.5,-56.5"/>
<text text-anchor="middle" x="172.5" y="-63.5" font-family="Helvetica,sans-Serif" font-size="10.00">include/serial_poisson.h</text>
</a>
</g>
</g>
<!-- Node1&#45;&gt;Node3 -->
<g id="edge2" class="edge">
<title>Node1&#45;&gt;Node3</title>
<path fill="none" stroke="midnightblue" d="M130.33,-105.6C141.57,-95.32 154.49,-83.48 163.04,-75.66"/>
<polygon fill="midnightblue" stroke="midnightblue" points="127.92,-103.07 122.9,-112.4 132.64,-108.23 127.92,-103.07"/>
</g>
<!-- Node4 -->
<g id="node4" class="node">
<title>Node4</title>
<g id="a_node4"><a xlink:href="source_2serial__poisson_8cc.html" target="_top" xlink:title=" ">
<polygon fill="none" stroke="black" points="30,-0.5 30,-19.5 165,-19.5 165,-0.5 30,-0.5"/>
<text text-anchor="middle" x="97.5" y="-7.5" font-family="Helvetica,sans-Serif" font-size="10.00">source/serial_poisson.cc</text>
</a>
</g>
</g>
<!-- Node3&#45;&gt;Node4 -->
<g id="edge3" class="edge">
<title>Node3&#45;&gt;Node4</title>
<path fill="none" stroke="midnightblue" d="M152.19,-50.38C138.64,-40.62 121.26,-28.11 109.77,-19.83"/>
<polygon fill="midnightblue" stroke="midnightblue" points="150.29,-53.32 160.45,-56.32 154.38,-47.64 150.29,-53.32"/>
</g>
<!-- Node5 -->
<g id="node5" class="node">
<title>Node5</title>
<g id="a_node5"><a xlink:href="apps_2serial__poisson_8cc.html" target="_top" xlink:title=" ">
<polygon fill="none" stroke="black" points="183.5,-0.5 183.5,-19.5 309.5,-19.5 309.5,-0.5 183.5,-0.5"/>
<text text-anchor="middle" x="246.5" y="-7.5" font-family="Helvetica,sans-Serif" font-size="10.00">apps/serial_poisson.cc</text>
</a>
</g>
</g>
<!-- Node3&#45;&gt;Node5 -->
<g id="edge4" class="edge">
<title>Node3&#45;&gt;Node5</title>
<path fill="none" stroke="midnightblue" d="M192.53,-50.38C205.91,-40.62 223.06,-28.11 234.39,-19.83"/>
<polygon fill="midnightblue" stroke="midnightblue" points="190.4,-47.6 184.39,-56.32 194.53,-53.26 190.4,-47.6"/>
</g>
</g>
</svg>
