<?xml version="1.0" encoding="UTF-8" standalone="no"?>
<!DOCTYPE svg PUBLIC "-//W3C//DTD SVG 1.1//EN"
 "http://www.w3.org/Graphics/SVG/1.1/DTD/svg11.dtd">
<!-- Generated by graphviz version 2.43.0 (0)
 -->
<!-- Title: include/parsed_lac/amg.h Pages: 1 -->
<svg width="1918pt" height="240pt"
 viewBox="0.00 0.00 1918.00 240.00" xmlns="http://www.w3.org/2000/svg" xmlns:xlink="http://www.w3.org/1999/xlink">
<g id="graph0" class="graph" transform="scale(1 1) rotate(0) translate(4 236)">
<title>include/parsed_lac/amg.h</title>
<!-- Node1 -->
<g id="node1" class="node">
<title>Node1</title>
<g id="a_node1"><a xlink:title=" ">
<polygon fill="#bfbfbf" stroke="black" points="1092.5,-201.5 1092.5,-231.5 1199.5,-231.5 1199.5,-201.5 1092.5,-201.5"/>
<text text-anchor="start" x="1100.5" y="-219.5" font-family="Helvetica,sans-Serif" font-size="10.00">include/parsed_lac</text>
<text text-anchor="middle" x="1146" y="-208.5" font-family="Helvetica,sans-Serif" font-size="10.00">/amg.h</text>
</a>
</g>
</g>
<!-- Node2 -->
<g id="node2" class="node">
<title>Node2</title>
<g id="a_node2"><a xlink:href="lac_8h.html" target="_top" xlink:title=" ">
<polygon fill="none" stroke="black" points="358,-140 358,-159 436,-159 436,-140 358,-140"/>
<text text-anchor="middle" x="397" y="-147" font-family="Helvetica,sans-Serif" font-size="10.00">include/lac.h</text>
</a>
</g>
</g>
<!-- Node1&#45;&gt;Node2 -->
<g id="edge1" class="edge">
<title>Node1&#45;&gt;Node2</title>
<path fill="none" stroke="midnightblue" d="M1082.44,-209.98C932.16,-196.94 558.46,-164.51 436.32,-153.91"/>
<polygon fill="midnightblue" stroke="midnightblue" points="1082.17,-213.47 1092.43,-210.85 1082.77,-206.5 1082.17,-213.47"/>
</g>
<!-- Node5 -->
<g id="node5" class="node">
<title>Node5</title>
<g id="a_node5"><a xlink:href="linear__problem_8h.html" target="_top" xlink:title=" ">
<polygon fill="none" stroke="black" points="778.5,-134.5 778.5,-164.5 887.5,-164.5 887.5,-134.5 778.5,-134.5"/>
<text text-anchor="start" x="786.5" y="-152.5" font-family="Helvetica,sans-Serif" font-size="10.00">include/pdes/linear</text>
<text text-anchor="middle" x="833" y="-141.5" font-family="Helvetica,sans-Serif" font-size="10.00">_problem.h</text>
</a>
</g>
</g>
<!-- Node1&#45;&gt;Node5 -->
<g id="edge4" class="edge">
<title>Node1&#45;&gt;Node5</title>
<path fill="none" stroke="midnightblue" d="M1082.18,-202.25C1024.96,-190.36 941.91,-173.12 887.68,-161.85"/>
<polygon fill="midnightblue" stroke="midnightblue" points="1081.69,-205.72 1092.19,-204.33 1083.11,-198.87 1081.69,-205.72"/>
</g>
<!-- Node13 -->
<g id="node13" class="node">
<title>Node13</title>
<g id="a_node13"><a xlink:href="distributed__lagrange_8h.html" target="_top" xlink:title=" ">
<polygon fill="none" stroke="black" points="846.5,-67.5 846.5,-97.5 975.5,-97.5 975.5,-67.5 846.5,-67.5"/>
<text text-anchor="start" x="854.5" y="-85.5" font-family="Helvetica,sans-Serif" font-size="10.00">include/pdes/serial</text>
<text text-anchor="middle" x="911" y="-74.5" font-family="Helvetica,sans-Serif" font-size="10.00">/distributed_lagrange.h</text>
</a>
</g>
</g>
<!-- Node1&#45;&gt;Node13 -->
<g id="edge19" class="edge">
<title>Node1&#45;&gt;Node13</title>
<path fill="none" stroke="midnightblue" d="M1112.11,-196.47C1064.35,-169.64 978.34,-121.32 935.97,-97.52"/>
<polygon fill="midnightblue" stroke="midnightblue" points="1110.42,-199.53 1120.85,-201.37 1113.85,-193.42 1110.42,-199.53"/>
</g>
<!-- Node16 -->
<g id="node16" class="node">
<title>Node16</title>
<g id="a_node16"><a xlink:href="stokes_8h.html" target="_top" xlink:title=" ">
<polygon fill="none" stroke="black" points="994,-73 994,-92 1116,-92 1116,-73 994,-73"/>
<text text-anchor="middle" x="1055" y="-80" font-family="Helvetica,sans-Serif" font-size="10.00">include/pdes/stokes.h</text>
</a>
</g>
</g>
<!-- Node1&#45;&gt;Node16 -->
<g id="edge29" class="edge">
<title>Node1&#45;&gt;Node16</title>
<path fill="none" stroke="midnightblue" d="M1130.4,-192.87C1109.89,-163.12 1074.83,-112.26 1060.93,-92.1"/>
<polygon fill="midnightblue" stroke="midnightblue" points="1127.7,-195.13 1136.26,-201.37 1133.47,-191.15 1127.7,-195.13"/>
</g>
<!-- Node19 -->
<g id="node19" class="node">
<title>Node19</title>
<g id="a_node19"><a xlink:href="serial_2poisson_8h.html" target="_top" xlink:title=" ">
<polygon fill="none" stroke="black" points="1133,-134.5 1133,-164.5 1241,-164.5 1241,-134.5 1133,-134.5"/>
<text text-anchor="start" x="1141" y="-152.5" font-family="Helvetica,sans-Serif" font-size="10.00">include/pdes/serial</text>
<text text-anchor="middle" x="1187" y="-141.5" font-family="Helvetica,sans-Serif" font-size="10.00">/poisson.h</text>
</a>
</g>
</g>
<!-- Node1&#45;&gt;Node19 -->
<g id="edge20" class="edge">
<title>Node1&#45;&gt;Node19</title>
<path fill="none" stroke="midnightblue" d="M1160.28,-192.87C1166.21,-183.46 1172.91,-172.83 1178.12,-164.58"/>
<polygon fill="midnightblue" stroke="midnightblue" points="1157.27,-191.07 1154.9,-201.4 1163.19,-194.81 1157.27,-191.07"/>
</g>
<!-- Node22 -->
<g id="node22" class="node">
<title>Node22</title>
<g id="a_node22"><a xlink:href="reduced__lagrange_8h.html" target="_top" xlink:title=" ">
<polygon fill="none" stroke="black" points="1402,-134.5 1402,-164.5 1518,-164.5 1518,-134.5 1402,-134.5"/>
<text text-anchor="start" x="1410" y="-152.5" font-family="Helvetica,sans-Serif" font-size="10.00">include/pdes/serial</text>
<text text-anchor="middle" x="1460" y="-141.5" font-family="Helvetica,sans-Serif" font-size="10.00">/reduced_lagrange.h</text>
</a>
</g>
</g>
<!-- Node1&#45;&gt;Node22 -->
<g id="edge23" class="edge">
<title>Node1&#45;&gt;Node22</title>
<path fill="none" stroke="midnightblue" d="M1209.47,-202.36C1265.73,-190.72 1347.2,-173.85 1401.8,-162.55"/>
<polygon fill="midnightblue" stroke="midnightblue" points="1208.7,-198.95 1199.62,-204.4 1210.12,-205.8 1208.7,-198.95"/>
</g>
<!-- Node25 -->
<g id="node25" class="node">
<title>Node25</title>
<g id="a_node25"><a xlink:href="serial_2stokes_8h.html" target="_top" xlink:title=" ">
<polygon fill="none" stroke="black" points="1601,-134.5 1601,-164.5 1709,-164.5 1709,-134.5 1601,-134.5"/>
<text text-anchor="start" x="1609" y="-152.5" font-family="Helvetica,sans-Serif" font-size="10.00">include/pdes/serial</text>
<text text-anchor="middle" x="1655" y="-141.5" font-family="Helvetica,sans-Serif" font-size="10.00">/stokes.h</text>
</a>
</g>
</g>
<!-- Node1&#45;&gt;Node25 -->
<g id="edge26" class="edge">
<title>Node1&#45;&gt;Node25</title>
<path fill="none" stroke="midnightblue" d="M1209.57,-207.38C1310.54,-194.49 1505.83,-169.55 1600.68,-157.44"/>
<polygon fill="midnightblue" stroke="midnightblue" points="1208.99,-203.93 1199.51,-208.67 1209.87,-210.87 1208.99,-203.93"/>
</g>
<!-- Node28 -->
<g id="node28" class="node">
<title>Node28</title>
<g id="a_node28"><a xlink:href="amg_8cc.html" target="_top" xlink:title=" ">
<polygon fill="none" stroke="black" points="1727.5,-140 1727.5,-159 1870.5,-159 1870.5,-140 1727.5,-140"/>
<text text-anchor="middle" x="1799" y="-147" font-family="Helvetica,sans-Serif" font-size="10.00">source/parsed_lac/amg.cc</text>
</a>
</g>
</g>
<!-- Node1&#45;&gt;Node28 -->
<g id="edge30" class="edge">
<title>Node1&#45;&gt;Node28</title>
<path fill="none" stroke="midnightblue" d="M1210.01,-211.72C1315.97,-205.03 1534.39,-189.49 1718,-165 1730.18,-163.38 1743.32,-161.21 1755.39,-159.04"/>
<polygon fill="midnightblue" stroke="midnightblue" points="1209.56,-208.24 1199.8,-212.35 1210,-215.22 1209.56,-208.24"/>
</g>
<!-- Node3 -->
<g id="node3" class="node">
<title>Node3</title>
<g id="a_node3"><a xlink:href="lac__initializer_8h.html" target="_top" xlink:title=" ">
<polygon fill="none" stroke="black" points="86.5,-73 86.5,-92 215.5,-92 215.5,-73 86.5,-73"/>
<text text-anchor="middle" x="151" y="-80" font-family="Helvetica,sans-Serif" font-size="10.00">include/lac_initializer.h</text>
</a>
</g>
</g>
<!-- Node2&#45;&gt;Node3 -->
<g id="edge2" class="edge">
<title>Node2&#45;&gt;Node3</title>
<path fill="none" stroke="midnightblue" d="M354.7,-137.32C306.13,-124.49 227.49,-103.71 183.48,-92.08"/>
<polygon fill="midnightblue" stroke="midnightblue" points="354.02,-140.76 364.59,-139.94 355.81,-134 354.02,-140.76"/>
</g>
<!-- Node4 -->
<g id="node4" class="node">
<title>Node4</title>
<g id="a_node4"><a xlink:href="linear__problem_8cc.html" target="_top" xlink:title=" ">
<polygon fill="none" stroke="black" points="0,-0.5 0,-30.5 106,-30.5 106,-0.5 0,-0.5"/>
<text text-anchor="start" x="8" y="-18.5" font-family="Helvetica,sans-Serif" font-size="10.00">source/pdes/linear</text>
<text text-anchor="middle" x="53" y="-7.5" font-family="Helvetica,sans-Serif" font-size="10.00">_problem.cc</text>
</a>
</g>
</g>
<!-- Node3&#45;&gt;Node4 -->
<g id="edge3" class="edge">
<title>Node3&#45;&gt;Node4</title>
<path fill="none" stroke="midnightblue" d="M129.37,-67.15C112.97,-56.27 90.55,-41.4 74.24,-30.59"/>
<polygon fill="midnightblue" stroke="midnightblue" points="127.52,-70.12 137.78,-72.73 131.38,-64.29 127.52,-70.12"/>
</g>
<!-- Node5&#45;&gt;Node4 -->
<g id="edge18" class="edge">
<title>Node5&#45;&gt;Node4</title>
<path fill="none" stroke="midnightblue" d="M768.29,-145.67C672.76,-140.64 488.73,-127.76 335,-98 323.3,-95.74 178.22,-53.29 100.87,-30.58"/>
<polygon fill="midnightblue" stroke="midnightblue" points="768.2,-149.17 778.37,-146.18 768.56,-142.17 768.2,-149.17"/>
</g>
<!-- Node6 -->
<g id="node6" class="node">
<title>Node6</title>
<g id="a_node6"><a xlink:href="linear__elasticity_8h.html" target="_top" xlink:title=" ">
<polygon fill="none" stroke="black" points="344.5,-67.5 344.5,-97.5 453.5,-97.5 453.5,-67.5 344.5,-67.5"/>
<text text-anchor="start" x="352.5" y="-85.5" font-family="Helvetica,sans-Serif" font-size="10.00">include/pdes/linear</text>
<text text-anchor="middle" x="399" y="-74.5" font-family="Helvetica,sans-Serif" font-size="10.00">_elasticity.h</text>
</a>
</g>
</g>
<!-- Node5&#45;&gt;Node6 -->
<g id="edge5" class="edge">
<title>Node5&#45;&gt;Node6</title>
<path fill="none" stroke="midnightblue" d="M768.38,-138.82C682.91,-126.02 533.78,-103.69 453.65,-91.68"/>
<polygon fill="midnightblue" stroke="midnightblue" points="768.06,-142.31 778.47,-140.33 769.1,-135.39 768.06,-142.31"/>
</g>
<!-- Node10 -->
<g id="node10" class="node">
<title>Node10</title>
<g id="a_node10"><a xlink:href="mpi_2poisson_8h.html" target="_top" xlink:title=" ">
<polygon fill="none" stroke="black" points="679.5,-73 679.5,-92 828.5,-92 828.5,-73 679.5,-73"/>
<text text-anchor="middle" x="754" y="-80" font-family="Helvetica,sans-Serif" font-size="10.00">include/pdes/mpi/poisson.h</text>
</a>
</g>
</g>
<!-- Node5&#45;&gt;Node10 -->
<g id="edge9" class="edge">
<title>Node5&#45;&gt;Node10</title>
<path fill="none" stroke="midnightblue" d="M808.09,-128.01C793.43,-115.94 775.64,-101.3 764.57,-92.19"/>
<polygon fill="midnightblue" stroke="midnightblue" points="805.91,-130.75 815.86,-134.4 810.36,-125.34 805.91,-130.75"/>
</g>
<!-- Node5&#45;&gt;Node13 -->
<g id="edge12" class="edge">
<title>Node5&#45;&gt;Node13</title>
<path fill="none" stroke="midnightblue" d="M857.74,-127.88C869.59,-118.01 883.48,-106.43 894.11,-97.58"/>
<polygon fill="midnightblue" stroke="midnightblue" points="855.37,-125.31 849.92,-134.4 859.85,-130.68 855.37,-125.31"/>
</g>
<!-- Node5&#45;&gt;Node16 -->
<g id="edge15" class="edge">
<title>Node5&#45;&gt;Node16</title>
<path fill="none" stroke="midnightblue" d="M890.75,-131.59C934.11,-118.9 991.67,-102.04 1025.87,-92.03"/>
<polygon fill="midnightblue" stroke="midnightblue" points="889.51,-128.31 880.9,-134.48 891.48,-135.02 889.51,-128.31"/>
</g>
<!-- Node7 -->
<g id="node7" class="node">
<title>Node7</title>
<g id="a_node7"><a xlink:href="source_2pdes_2linear__elasticity_8cc.html" target="_top" xlink:title=" ">
<polygon fill="none" stroke="black" points="124,-0.5 124,-30.5 230,-30.5 230,-0.5 124,-0.5"/>
<text text-anchor="start" x="132" y="-18.5" font-family="Helvetica,sans-Serif" font-size="10.00">source/pdes/linear</text>
<text text-anchor="middle" x="177" y="-7.5" font-family="Helvetica,sans-Serif" font-size="10.00">_elasticity.cc</text>
</a>
</g>
</g>
<!-- Node6&#45;&gt;Node7 -->
<g id="edge6" class="edge">
<title>Node6&#45;&gt;Node7</title>
<path fill="none" stroke="midnightblue" d="M341.21,-64.58C305.15,-54.02 259.28,-40.59 225.19,-30.61"/>
<polygon fill="midnightblue" stroke="midnightblue" points="340.52,-68.02 351.1,-67.48 342.49,-61.31 340.52,-68.02"/>
</g>
<!-- Node8 -->
<g id="node8" class="node">
<title>Node8</title>
<g id="a_node8"><a xlink:href="apps_2mpi_2linear__elasticity_8cc.html" target="_top" xlink:title=" ">
<polygon fill="none" stroke="black" points="248.5,-6 248.5,-25 403.5,-25 403.5,-6 248.5,-6"/>
<text text-anchor="middle" x="326" y="-13" font-family="Helvetica,sans-Serif" font-size="10.00">apps/mpi/linear_elasticity.cc</text>
</a>
</g>
</g>
<!-- Node6&#45;&gt;Node8 -->
<g id="edge7" class="edge">
<title>Node6&#45;&gt;Node8</title>
<path fill="none" stroke="midnightblue" d="M375.61,-60.67C362.13,-48.67 345.9,-34.22 335.76,-25.19"/>
<polygon fill="midnightblue" stroke="midnightblue" points="373.36,-63.36 383.16,-67.4 378.02,-58.13 373.36,-63.36"/>
</g>
<!-- Node9 -->
<g id="node9" class="node">
<title>Node9</title>
<g id="a_node9"><a xlink:href="apps_2serial_2linear__elasticity_8cc.html" target="_top" xlink:title=" ">
<polygon fill="none" stroke="black" points="421.5,-0.5 421.5,-30.5 522.5,-30.5 522.5,-0.5 421.5,-0.5"/>
<text text-anchor="start" x="429.5" y="-18.5" font-family="Helvetica,sans-Serif" font-size="10.00">apps/serial/linear</text>
<text text-anchor="middle" x="472" y="-7.5" font-family="Helvetica,sans-Serif" font-size="10.00">_elasticity.cc</text>
</a>
</g>
</g>
<!-- Node6&#45;&gt;Node9 -->
<g id="edge8" class="edge">
<title>Node6&#45;&gt;Node9</title>
<path fill="none" stroke="midnightblue" d="M422.47,-60.6C433.5,-50.78 446.34,-39.34 456.19,-30.58"/>
<polygon fill="midnightblue" stroke="midnightblue" points="419.98,-58.13 414.84,-67.4 424.64,-63.36 419.98,-58.13"/>
</g>
<!-- Node11 -->
<g id="node11" class="node">
<title>Node11</title>
<g id="a_node11"><a xlink:href="source_2pdes_2mpi_2poisson_8cc.html" target="_top" xlink:title=" ">
<polygon fill="none" stroke="black" points="540.5,-6 540.5,-25 691.5,-25 691.5,-6 540.5,-6"/>
<text text-anchor="middle" x="616" y="-13" font-family="Helvetica,sans-Serif" font-size="10.00">source/pdes/mpi/poisson.cc</text>
</a>
</g>
</g>
<!-- Node10&#45;&gt;Node11 -->
<g id="edge10" class="edge">
<title>Node10&#45;&gt;Node11</title>
<path fill="none" stroke="midnightblue" d="M726.28,-68.44C698.95,-55.57 657.95,-36.26 634.4,-25.17"/>
<polygon fill="midnightblue" stroke="midnightblue" points="725.14,-71.77 735.67,-72.87 728.12,-65.44 725.14,-71.77"/>
</g>
<!-- Node12 -->
<g id="node12" class="node">
<title>Node12</title>
<g id="a_node12"><a xlink:href="apps_2mpi_2poisson_8cc.html" target="_top" xlink:title=" ">
<polygon fill="none" stroke="black" points="710,-6 710,-25 826,-25 826,-6 710,-6"/>
<text text-anchor="middle" x="768" y="-13" font-family="Helvetica,sans-Serif" font-size="10.00">apps/mpi/poisson.cc</text>
</a>
</g>
</g>
<!-- Node10&#45;&gt;Node12 -->
<g id="edge11" class="edge">
<title>Node10&#45;&gt;Node12</title>
<path fill="none" stroke="midnightblue" d="M758,-62.91C760.68,-50.49 764.08,-34.72 766.14,-25.13"/>
<polygon fill="midnightblue" stroke="midnightblue" points="754.57,-62.22 755.89,-72.73 761.42,-63.69 754.57,-62.22"/>
</g>
<!-- Node14 -->
<g id="node14" class="node">
<title>Node14</title>
<g id="a_node14"><a xlink:href="source_2pdes_2serial_2distributed__lagrange_8cc.html" target="_top" xlink:title=" ">
<polygon fill="none" stroke="black" points="844,-0.5 844,-30.5 978,-30.5 978,-0.5 844,-0.5"/>
<text text-anchor="start" x="852" y="-18.5" font-family="Helvetica,sans-Serif" font-size="10.00">source/pdes/serial</text>
<text text-anchor="middle" x="911" y="-7.5" font-family="Helvetica,sans-Serif" font-size="10.00">/distributed_lagrange.cc</text>
</a>
</g>
</g>
<!-- Node13&#45;&gt;Node14 -->
<g id="edge13" class="edge">
<title>Node13&#45;&gt;Node14</title>
<path fill="none" stroke="midnightblue" d="M911,-57.11C911,-48.15 911,-38.32 911,-30.58"/>
<polygon fill="midnightblue" stroke="midnightblue" points="907.5,-57.4 911,-67.4 914.5,-57.4 907.5,-57.4"/>
</g>
<!-- Node15 -->
<g id="node15" class="node">
<title>Node15</title>
<g id="a_node15"><a xlink:href="apps_2serial_2distributed__lagrange_8cc.html" target="_top" xlink:title=" ">
<polygon fill="none" stroke="black" points="996.5,-0.5 996.5,-30.5 1121.5,-30.5 1121.5,-0.5 996.5,-0.5"/>
<text text-anchor="start" x="1004.5" y="-18.5" font-family="Helvetica,sans-Serif" font-size="10.00">apps/serial/distributed</text>
<text text-anchor="middle" x="1059" y="-7.5" font-family="Helvetica,sans-Serif" font-size="10.00">_lagrange.cc</text>
</a>
</g>
</g>
<!-- Node13&#45;&gt;Node15 -->
<g id="edge14" class="edge">
<title>Node13&#45;&gt;Node15</title>
<path fill="none" stroke="midnightblue" d="M952.51,-63.27C976.08,-52.92 1005.14,-40.15 1026.95,-30.58"/>
<polygon fill="midnightblue" stroke="midnightblue" points="950.86,-60.17 943.11,-67.4 953.68,-66.58 950.86,-60.17"/>
</g>
<!-- Node17 -->
<g id="node17" class="node">
<title>Node17</title>
<g id="a_node17"><a xlink:href="source_2pdes_2stokes_8cc.html" target="_top" xlink:title=" ">
<polygon fill="none" stroke="black" points="1139.5,-6 1139.5,-25 1262.5,-25 1262.5,-6 1139.5,-6"/>
<text text-anchor="middle" x="1201" y="-13" font-family="Helvetica,sans-Serif" font-size="10.00">source/pdes/stokes.cc</text>
</a>
</g>
</g>
<!-- Node16&#45;&gt;Node17 -->
<g id="edge16" class="edge">
<title>Node16&#45;&gt;Node17</title>
<path fill="none" stroke="midnightblue" d="M1083.57,-68.78C1112.48,-55.91 1156.4,-36.35 1181.53,-25.17"/>
<polygon fill="midnightblue" stroke="midnightblue" points="1082.1,-65.6 1074.39,-72.87 1084.95,-72 1082.1,-65.6"/>
</g>
<!-- Node18 -->
<g id="node18" class="node">
<title>Node18</title>
<g id="a_node18"><a xlink:href="apps_2mpi_2stokes_8cc.html" target="_top" xlink:title=" ">
<polygon fill="none" stroke="black" points="1281,-6 1281,-25 1391,-25 1391,-6 1281,-6"/>
<text text-anchor="middle" x="1336" y="-13" font-family="Helvetica,sans-Serif" font-size="10.00">apps/mpi/stokes.cc</text>
</a>
</g>
</g>
<!-- Node16&#45;&gt;Node18 -->
<g id="edge17" class="edge">
<title>Node16&#45;&gt;Node18</title>
<path fill="none" stroke="midnightblue" d="M1101.93,-70.64C1157.3,-57.84 1248.2,-36.81 1298.89,-25.08"/>
<polygon fill="midnightblue" stroke="midnightblue" points="1100.98,-67.27 1092.02,-72.94 1102.56,-74.09 1100.98,-67.27"/>
</g>
<!-- Node20 -->
<g id="node20" class="node">
<title>Node20</title>
<g id="a_node20"><a xlink:href="source_2pdes_2serial_2poisson_8cc.html" target="_top" xlink:title=" ">
<polygon fill="none" stroke="black" points="1134.5,-67.5 1134.5,-97.5 1239.5,-97.5 1239.5,-67.5 1134.5,-67.5"/>
<text text-anchor="start" x="1142.5" y="-85.5" font-family="Helvetica,sans-Serif" font-size="10.00">source/pdes/serial</text>
<text text-anchor="middle" x="1187" y="-74.5" font-family="Helvetica,sans-Serif" font-size="10.00">/poisson.cc</text>
</a>
</g>
</g>
<!-- Node19&#45;&gt;Node20 -->
<g id="edge21" class="edge">
<title>Node19&#45;&gt;Node20</title>
<path fill="none" stroke="midnightblue" d="M1187,-124.11C1187,-115.15 1187,-105.32 1187,-97.58"/>
<polygon fill="midnightblue" stroke="midnightblue" points="1183.5,-124.4 1187,-134.4 1190.5,-124.4 1183.5,-124.4"/>
</g>
<!-- Node21 -->
<g id="node21" class="node">
<title>Node21</title>
<g id="a_node21"><a xlink:href="apps_2serial_2poisson_8cc.html" target="_top" xlink:title=" ">
<polygon fill="none" stroke="black" points="1258,-73 1258,-92 1382,-92 1382,-73 1258,-73"/>
<text text-anchor="middle" x="1320" y="-80" font-family="Helvetica,sans-Serif" font-size="10.00">apps/serial/poisson.cc</text>
</a>
</g>
</g>
<!-- Node19&#45;&gt;Node21 -->
<g id="edge22" class="edge">
<title>Node19&#45;&gt;Node21</title>
<path fill="none" stroke="midnightblue" d="M1224.92,-129.97C1250.47,-117.48 1282.97,-101.6 1302.59,-92.01"/>
<polygon fill="midnightblue" stroke="midnightblue" points="1223.31,-126.86 1215.86,-134.4 1226.38,-133.15 1223.31,-126.86"/>
</g>
<!-- Node23 -->
<g id="node23" class="node">
<title>Node23</title>
<g id="a_node23"><a xlink:href="source_2pdes_2serial_2reduced__lagrange_8cc.html" target="_top" xlink:title=" ">
<polygon fill="none" stroke="black" points="1400,-67.5 1400,-97.5 1520,-97.5 1520,-67.5 1400,-67.5"/>
<text text-anchor="start" x="1408" y="-85.5" font-family="Helvetica,sans-Serif" font-size="10.00">source/pdes/serial</text>
<text text-anchor="middle" x="1460" y="-74.5" font-family="Helvetica,sans-Serif" font-size="10.00">/reduced_lagrange.cc</text>
</a>
</g>
</g>
<!-- Node22&#45;&gt;Node23 -->
<g id="edge24" class="edge">
<title>Node22&#45;&gt;Node23</title>
<path fill="none" stroke="midnightblue" d="M1460,-124.11C1460,-115.15 1460,-105.32 1460,-97.58"/>
<polygon fill="midnightblue" stroke="midnightblue" points="1456.5,-124.4 1460,-134.4 1463.5,-124.4 1456.5,-124.4"/>
</g>
<!-- Node24 -->
<g id="node24" class="node">
<title>Node24</title>
<g id="a_node24"><a xlink:href="apps_2serial_2reduced__lagrange_8cc.html" target="_top" xlink:title=" ">
<polygon fill="none" stroke="black" points="1538,-67.5 1538,-97.5 1650,-97.5 1650,-67.5 1538,-67.5"/>
<text text-anchor="start" x="1546" y="-85.5" font-family="Helvetica,sans-Serif" font-size="10.00">apps/serial/reduced</text>
<text text-anchor="middle" x="1594" y="-74.5" font-family="Helvetica,sans-Serif" font-size="10.00">_lagrange.cc</text>
</a>
</g>
</g>
<!-- Node22&#45;&gt;Node24 -->
<g id="edge25" class="edge">
<title>Node22&#45;&gt;Node24</title>
<path fill="none" stroke="midnightblue" d="M1498.15,-129.99C1519.39,-119.69 1545.41,-107.07 1564.98,-97.58"/>
<polygon fill="midnightblue" stroke="midnightblue" points="1496.55,-126.88 1489.08,-134.4 1499.6,-133.18 1496.55,-126.88"/>
</g>
<!-- Node26 -->
<g id="node26" class="node">
<title>Node26</title>
<g id="a_node26"><a xlink:href="source_2pdes_2serial_2stokes_8cc.html" target="_top" xlink:title=" ">
<polygon fill="none" stroke="black" points="1668.5,-67.5 1668.5,-97.5 1773.5,-97.5 1773.5,-67.5 1668.5,-67.5"/>
<text text-anchor="start" x="1676.5" y="-85.5" font-family="Helvetica,sans-Serif" font-size="10.00">source/pdes/serial</text>
<text text-anchor="middle" x="1721" y="-74.5" font-family="Helvetica,sans-Serif" font-size="10.00">/stokes.cc</text>
</a>
</g>
</g>
<!-- Node25&#45;&gt;Node26 -->
<g id="edge27" class="edge">
<title>Node25&#45;&gt;Node26</title>
<path fill="none" stroke="midnightblue" d="M1676.51,-127.31C1686.41,-117.56 1697.89,-106.26 1706.71,-97.58"/>
<polygon fill="midnightblue" stroke="midnightblue" points="1673.99,-124.89 1669.32,-134.4 1678.9,-129.87 1673.99,-124.89"/>
</g>
<!-- Node27 -->
<g id="node27" class="node">
<title>Node27</title>
<g id="a_node27"><a xlink:href="apps_2serial_2stokes_8cc.html" target="_top" xlink:title=" ">
<polygon fill="none" stroke="black" points="1792,-73 1792,-92 1910,-92 1910,-73 1792,-73"/>
<text text-anchor="middle" x="1851" y="-80" font-family="Helvetica,sans-Serif" font-size="10.00">apps/serial/stokes.cc</text>
</a>
</g>
</g>
<!-- Node25&#45;&gt;Node27 -->
<g id="edge28" class="edge">
<title>Node25&#45;&gt;Node27</title>
<path fill="none" stroke="midnightblue" d="M1707.44,-131.11C1745.58,-118.46 1795.54,-101.89 1825.35,-92.01"/>
<polygon fill="midnightblue" stroke="midnightblue" points="1705.92,-127.93 1697.53,-134.4 1708.12,-134.57 1705.92,-127.93"/>
</g>
</g>
</svg>
