<?xml version="1.0" encoding="UTF-8" standalone="no"?>
<!DOCTYPE svg PUBLIC "-//W3C//DTD SVG 1.1//EN"
 "http://www.w3.org/Graphics/SVG/1.1/DTD/svg11.dtd">
<!-- Generated by graphviz version 2.43.0 (0)
 -->
<!-- Title: include/parsed_lac/amg_petsc.h Pages: 1 -->
<svg width="328pt" height="229pt"
 viewBox="0.00 0.00 328.00 229.00" xmlns="http://www.w3.org/2000/svg" xmlns:xlink="http://www.w3.org/1999/xlink">
<g id="graph0" class="graph" transform="scale(1 1) rotate(0) translate(4 225)">
<title>include/parsed_lac/amg_petsc.h</title>
<!-- Node1 -->
<g id="node1" class="node">
<title>Node1</title>
<g id="a_node1"><a xlink:title=" ">
<polygon fill="#bfbfbf" stroke="black" points="141,-190.5 141,-220.5 248,-220.5 248,-190.5 141,-190.5"/>
<text text-anchor="start" x="149" y="-208.5" font-family="Helvetica,sans-Serif" font-size="10.00">include/parsed_lac</text>
<text text-anchor="middle" x="194.5" y="-197.5" font-family="Helvetica,sans-Serif" font-size="10.00">/amg_petsc.h</text>
</a>
</g>
</g>
<!-- Node2 -->
<g id="node2" class="node">
<title>Node2</title>
<g id="a_node2"><a xlink:href="lac_8h.html" target="_top" xlink:title=" ">
<polygon fill="none" stroke="black" points="94.5,-129 94.5,-148 172.5,-148 172.5,-129 94.5,-129"/>
<text text-anchor="middle" x="133.5" y="-136" font-family="Helvetica,sans-Serif" font-size="10.00">include/lac.h</text>
</a>
</g>
</g>
<!-- Node1&#45;&gt;Node2 -->
<g id="edge1" class="edge">
<title>Node1&#45;&gt;Node2</title>
<path fill="none" stroke="midnightblue" d="M174.32,-183C163.19,-171.13 149.97,-157.05 141.66,-148.19"/>
<polygon fill="midnightblue" stroke="midnightblue" points="171.87,-185.5 181.26,-190.4 176.97,-180.71 171.87,-185.5"/>
</g>
<!-- Node6 -->
<g id="node6" class="node">
<title>Node6</title>
<g id="a_node6"><a xlink:href="amg__petsc_8cc.html" target="_top" xlink:title=" ">
<polygon fill="none" stroke="black" points="191,-123.5 191,-153.5 320,-153.5 320,-123.5 191,-123.5"/>
<text text-anchor="start" x="199" y="-141.5" font-family="Helvetica,sans-Serif" font-size="10.00">source/parsed_lac/amg</text>
<text text-anchor="middle" x="255.5" y="-130.5" font-family="Helvetica,sans-Serif" font-size="10.00">_petsc.cc</text>
</a>
</g>
</g>
<!-- Node1&#45;&gt;Node6 -->
<g id="edge5" class="edge">
<title>Node1&#45;&gt;Node6</title>
<path fill="none" stroke="midnightblue" d="M214.65,-183.02C223.74,-173.34 234.22,-162.17 242.29,-153.58"/>
<polygon fill="midnightblue" stroke="midnightblue" points="212.03,-180.71 207.74,-190.4 217.13,-185.5 212.03,-180.71"/>
</g>
<!-- Node3 -->
<g id="node3" class="node">
<title>Node3</title>
<g id="a_node3"><a xlink:href="lac__initializer_8h.html" target="_top" xlink:title=" ">
<polygon fill="none" stroke="black" points="69,-67.5 69,-86.5 198,-86.5 198,-67.5 69,-67.5"/>
<text text-anchor="middle" x="133.5" y="-74.5" font-family="Helvetica,sans-Serif" font-size="10.00">include/lac_initializer.h</text>
</a>
</g>
</g>
<!-- Node2&#45;&gt;Node3 -->
<g id="edge2" class="edge">
<title>Node2&#45;&gt;Node3</title>
<path fill="none" stroke="midnightblue" d="M133.5,-118.82C133.5,-108 133.5,-94.9 133.5,-86.51"/>
<polygon fill="midnightblue" stroke="midnightblue" points="130,-118.98 133.5,-128.98 137,-118.98 130,-118.98"/>
</g>
<!-- Node4 -->
<g id="node4" class="node">
<title>Node4</title>
<g id="a_node4"><a xlink:href="source_2pdes_2distributed__lagrange_8cc.html" target="_top" xlink:title=" ">
<polygon fill="none" stroke="black" points="0,-0.5 0,-30.5 131,-30.5 131,-0.5 0,-0.5"/>
<text text-anchor="start" x="8" y="-18.5" font-family="Helvetica,sans-Serif" font-size="10.00">source/pdes/distributed</text>
<text text-anchor="middle" x="65.5" y="-7.5" font-family="Helvetica,sans-Serif" font-size="10.00">_lagrange.cc</text>
</a>
</g>
</g>
<!-- Node3&#45;&gt;Node4 -->
<g id="edge3" class="edge">
<title>Node3&#45;&gt;Node4</title>
<path fill="none" stroke="midnightblue" d="M115.95,-60.65C105.32,-51.35 91.87,-39.57 81.53,-30.52"/>
<polygon fill="midnightblue" stroke="midnightblue" points="113.93,-63.52 123.76,-67.48 118.54,-58.26 113.93,-63.52"/>
</g>
<!-- Node5 -->
<g id="node5" class="node">
<title>Node5</title>
<g id="a_node5"><a xlink:href="linear__problem_8cc.html" target="_top" xlink:title=" ">
<polygon fill="none" stroke="black" points="149.5,-0.5 149.5,-30.5 255.5,-30.5 255.5,-0.5 149.5,-0.5"/>
<text text-anchor="start" x="157.5" y="-18.5" font-family="Helvetica,sans-Serif" font-size="10.00">source/pdes/linear</text>
<text text-anchor="middle" x="202.5" y="-7.5" font-family="Helvetica,sans-Serif" font-size="10.00">_problem.cc</text>
</a>
</g>
</g>
<!-- Node3&#45;&gt;Node5 -->
<g id="edge4" class="edge">
<title>Node3&#45;&gt;Node5</title>
<path fill="none" stroke="midnightblue" d="M150.99,-60.92C161.82,-51.58 175.64,-39.66 186.24,-30.52"/>
<polygon fill="midnightblue" stroke="midnightblue" points="148.67,-58.29 143.39,-67.48 153.24,-63.6 148.67,-58.29"/>
</g>
</g>
</svg>
