<?xml version="1.0" encoding="UTF-8" standalone="no"?>
<!DOCTYPE svg PUBLIC "-//W3C//DTD SVG 1.1//EN"
 "http://www.w3.org/Graphics/SVG/1.1/DTD/svg11.dtd">
<!-- Generated by graphviz version 2.43.0 (0)
 -->
<!-- Title: source/parsed_lac/amg.cc Pages: 1 -->
<svg width="520pt" height="162pt"
 viewBox="0.00 0.00 520.00 162.00" xmlns="http://www.w3.org/2000/svg" xmlns:xlink="http://www.w3.org/1999/xlink">
<g id="graph0" class="graph" transform="scale(1 1) rotate(0) translate(4 158)">
<title>source/parsed_lac/amg.cc</title>
<!-- Node1 -->
<g id="node1" class="node">
<title>Node1</title>
<g id="a_node1"><a xlink:title=" ">
<polygon fill="#bfbfbf" stroke="black" points="259,-134.5 259,-153.5 402,-153.5 402,-134.5 259,-134.5"/>
<text text-anchor="middle" x="330.5" y="-141.5" font-family="Helvetica,sans-Serif" font-size="10.00">source/parsed_lac/amg.cc</text>
</a>
</g>
</g>
<!-- Node2 -->
<g id="node2" class="node">
<title>Node2</title>
<g id="a_node2"><a xlink:href="amg_8h.html" target="_top" xlink:title=" ">
<polygon fill="none" stroke="black" points="145,-73 145,-92 248,-92 248,-73 145,-73"/>
<text text-anchor="middle" x="196.5" y="-80" font-family="Helvetica,sans-Serif" font-size="10.00">parsed_lac/amg.h</text>
</a>
</g>
</g>
<!-- Node1&#45;&gt;Node2 -->
<g id="edge1" class="edge">
<title>Node1&#45;&gt;Node2</title>
<path fill="none" stroke="midnightblue" d="M311.3,-134.48C288.71,-124.45 251,-107.7 225,-96.15"/>
<polygon fill="midnightblue" stroke="midnightblue" points="226.22,-92.87 215.66,-92.01 223.38,-99.27 226.22,-92.87"/>
</g>
<!-- Node6 -->
<g id="node6" class="node">
<title>Node6</title>
<g id="a_node6"><a xlink:href="http://www.dealii.org/developer/doxygen/deal.II/dof__tools_8h.html.html" xlink:title=" ">
<polygon fill="none" stroke="black" points="266.5,-73 266.5,-92 394.5,-92 394.5,-73 266.5,-73"/>
<text text-anchor="middle" x="330.5" y="-80" font-family="Helvetica,sans-Serif" font-size="10.00">deal.II/dofs/dof_tools.h</text>
</a>
</g>
</g>
<!-- Node1&#45;&gt;Node6 -->
<g id="edge5" class="edge">
<title>Node1&#45;&gt;Node6</title>
<path fill="none" stroke="midnightblue" d="M330.5,-134.48C330.5,-126.08 330.5,-112.98 330.5,-102.16"/>
<polygon fill="midnightblue" stroke="midnightblue" points="334,-102.01 330.5,-92.01 327,-102.01 334,-102.01"/>
</g>
<!-- Node7 -->
<g id="node7" class="node">
<title>Node7</title>
<g id="a_node7"><a xlink:href="http://www.dealii.org/developer/doxygen/deal.II/sparse__matrix_8h.html.html" xlink:title=" ">
<polygon fill="none" stroke="black" points="413,-67.5 413,-97.5 512,-97.5 512,-67.5 413,-67.5"/>
<text text-anchor="start" x="421" y="-85.5" font-family="Helvetica,sans-Serif" font-size="10.00">deal.II/lac/sparse</text>
<text text-anchor="middle" x="462.5" y="-74.5" font-family="Helvetica,sans-Serif" font-size="10.00">_matrix.h</text>
</a>
</g>
</g>
<!-- Node1&#45;&gt;Node7 -->
<g id="edge6" class="edge">
<title>Node1&#45;&gt;Node7</title>
<path fill="none" stroke="midnightblue" d="M349.41,-134.48C368.29,-125.96 397.9,-112.62 422.08,-101.72"/>
<polygon fill="midnightblue" stroke="midnightblue" points="423.71,-104.82 431.39,-97.52 420.84,-98.44 423.71,-104.82"/>
</g>
<!-- Node3 -->
<g id="node3" class="node">
<title>Node3</title>
<g id="a_node3"><a xlink:href="http://www.dealii.org/developer/doxygen/deal.II/config_8h.html.html" xlink:title=" ">
<polygon fill="none" stroke="black" points="0,-6 0,-25 115,-25 115,-6 0,-6"/>
<text text-anchor="middle" x="57.5" y="-13" font-family="Helvetica,sans-Serif" font-size="10.00">deal.II/base/config.h</text>
</a>
</g>
</g>
<!-- Node2&#45;&gt;Node3 -->
<g id="edge2" class="edge">
<title>Node2&#45;&gt;Node3</title>
<path fill="none" stroke="midnightblue" d="M178.04,-72.87C154.26,-61.75 112.71,-42.32 85.15,-29.43"/>
<polygon fill="midnightblue" stroke="midnightblue" points="86.58,-26.23 76.03,-25.17 83.61,-32.57 86.58,-26.23"/>
</g>
<!-- Node4 -->
<g id="node4" class="node">
<title>Node4</title>
<g id="a_node4"><a xlink:href="http://www.dealii.org/developer/doxygen/deal.II/parameter__acceptor_8h.html.html" xlink:title=" ">
<polygon fill="none" stroke="black" points="133,-0.5 133,-30.5 260,-30.5 260,-0.5 133,-0.5"/>
<text text-anchor="start" x="141" y="-18.5" font-family="Helvetica,sans-Serif" font-size="10.00">deal.II/base/parameter</text>
<text text-anchor="middle" x="196.5" y="-7.5" font-family="Helvetica,sans-Serif" font-size="10.00">_acceptor.h</text>
</a>
</g>
</g>
<!-- Node2&#45;&gt;Node4 -->
<g id="edge3" class="edge">
<title>Node2&#45;&gt;Node4</title>
<path fill="none" stroke="midnightblue" d="M196.5,-72.73C196.5,-64.54 196.5,-51.92 196.5,-40.71"/>
<polygon fill="midnightblue" stroke="midnightblue" points="200,-40.59 196.5,-30.59 193,-40.59 200,-40.59"/>
</g>
<!-- Node5 -->
<g id="node5" class="node">
<title>Node5</title>
<g id="a_node5"><a xlink:href="http://www.dealii.org/developer/doxygen/deal.II/trilinos__precondition_8h.html.html" xlink:title=" ">
<polygon fill="none" stroke="black" points="278,-0.5 278,-30.5 379,-30.5 379,-0.5 278,-0.5"/>
<text text-anchor="start" x="286" y="-18.5" font-family="Helvetica,sans-Serif" font-size="10.00">deal.II/lac/trilinos</text>
<text text-anchor="middle" x="328.5" y="-7.5" font-family="Helvetica,sans-Serif" font-size="10.00">_precondition.h</text>
</a>
</g>
</g>
<!-- Node2&#45;&gt;Node5 -->
<g id="edge4" class="edge">
<title>Node2&#45;&gt;Node5</title>
<path fill="none" stroke="midnightblue" d="M214.03,-72.87C233.43,-63.31 265.29,-47.63 290.47,-35.22"/>
<polygon fill="midnightblue" stroke="midnightblue" points="292.34,-38.21 299.76,-30.65 289.24,-31.93 292.34,-38.21"/>
</g>
</g>
</svg>
