<?xml version="1.0" encoding="UTF-8" standalone="no"?>
<!DOCTYPE svg PUBLIC "-//W3C//DTD SVG 1.1//EN"
 "http://www.w3.org/Graphics/SVG/1.1/DTD/svg11.dtd">
<!-- Generated by graphviz version 2.43.0 (0)
 -->
<!-- Title: apps/serial/linear_visco_elasticity.cc Pages: 1 -->
<svg width="5210pt" height="296pt"
 viewBox="0.00 0.00 5210.19 296.00" xmlns="http://www.w3.org/2000/svg" xmlns:xlink="http://www.w3.org/1999/xlink">
<g id="graph0" class="graph" transform="scale(1 1) rotate(0) translate(4 292)">
<title>apps/serial/linear_visco_elasticity.cc</title>
<!-- Node1 -->
<g id="node1" class="node">
<title>Node1</title>
<g id="a_node1"><a xlink:title=" ">
<polygon fill="#bfbfbf" stroke="black" points="2851.69,-257.5 2851.69,-287.5 2961.69,-287.5 2961.69,-257.5 2851.69,-257.5"/>
<text text-anchor="start" x="2859.69" y="-275.5" font-family="Helvetica,sans-Serif" font-size="10.00">apps/serial/linear</text>
<text text-anchor="middle" x="2906.69" y="-264.5" font-family="Helvetica,sans-Serif" font-size="10.00">_visco_elasticity.cc</text>
</a>
</g>
</g>
<!-- Node2 -->
<g id="node2" class="node">
<title>Node2</title>
<g id="a_node2"><a xlink:href="linear__visco__elasticity_8h.html" target="_top" xlink:title=" ">
<polygon fill="none" stroke="black" points="2764.19,-201.5 2764.19,-220.5 2923.19,-220.5 2923.19,-201.5 2764.19,-201.5"/>
<text text-anchor="middle" x="2843.69" y="-208.5" font-family="Helvetica,sans-Serif" font-size="10.00">pdes/linear_visco_elasticity.h</text>
</a>
</g>
</g>
<!-- Node1&#45;&gt;Node2 -->
<g id="edge1" class="edge">
<title>Node1&#45;&gt;Node2</title>
<path fill="none" stroke="midnightblue" d="M2891.76,-257.4C2882.32,-248.49 2870.11,-236.95 2860.35,-227.74"/>
<polygon fill="midnightblue" stroke="midnightblue" points="2862.53,-224.98 2852.85,-220.66 2857.72,-230.07 2862.53,-224.98"/>
</g>
<!-- Node90 -->
<g id="node49" class="node">
<title>Node90</title>
<g id="a_node49"><a xlink:href="runner_8h.html" target="_top" xlink:title=" ">
<polygon fill="none" stroke="black" points="2954.19,-201.5 2954.19,-220.5 3011.19,-220.5 3011.19,-201.5 2954.19,-201.5"/>
<text text-anchor="middle" x="2982.69" y="-208.5" font-family="Helvetica,sans-Serif" font-size="10.00">runner.h</text>
</a>
</g>
</g>
<!-- Node1&#45;&gt;Node90 -->
<g id="edge60" class="edge">
<title>Node1&#45;&gt;Node90</title>
<path fill="none" stroke="midnightblue" d="M2924.7,-257.4C2936.42,-248.22 2951.7,-236.26 2963.63,-226.92"/>
<polygon fill="midnightblue" stroke="midnightblue" points="2965.91,-229.58 2971.63,-220.66 2961.6,-224.07 2965.91,-229.58"/>
</g>
<!-- Node3 -->
<g id="node3" class="node">
<title>Node3</title>
<g id="a_node3"><a xlink:href="constants_8h.html" target="_top" xlink:title=" ">
<polygon fill="none" stroke="black" points="5061.69,-73 5061.69,-92 5199.69,-92 5199.69,-73 5061.69,-73"/>
<text text-anchor="middle" x="5130.69" y="-80" font-family="Helvetica,sans-Serif" font-size="10.00">parsed_tools/constants.h</text>
</a>
</g>
</g>
<!-- Node2&#45;&gt;Node3 -->
<g id="edge2" class="edge">
<title>Node2&#45;&gt;Node3</title>
<path fill="none" stroke="midnightblue" d="M2852.27,-201.49C2871.6,-182.41 2917.57,-137.63 2926.69,-134 3036.42,-90.28 4935.15,-109.84 5052.69,-98 5062.25,-97.04 5072.39,-95.52 5082.09,-93.83"/>
<polygon fill="midnightblue" stroke="midnightblue" points="5082.78,-97.26 5091.99,-92.01 5081.52,-90.37 5082.78,-97.26"/>
</g>
<!-- Node6 -->
<g id="node6" class="node">
<title>Node6</title>
<g id="a_node6"><a xlink:href="mapping__eulerian_8h.html" target="_top" xlink:title=" ">
<polygon fill="none" stroke="black" points="248.19,-134.5 248.19,-164.5 373.19,-164.5 373.19,-134.5 248.19,-134.5"/>
<text text-anchor="start" x="256.19" y="-152.5" font-family="Helvetica,sans-Serif" font-size="10.00">parsed_tools/mapping</text>
<text text-anchor="middle" x="310.69" y="-141.5" font-family="Helvetica,sans-Serif" font-size="10.00">_eulerian.h</text>
</a>
</g>
</g>
<!-- Node2&#45;&gt;Node6 -->
<g id="edge5" class="edge">
<title>Node2&#45;&gt;Node6</title>
<path fill="none" stroke="midnightblue" d="M2764.05,-208.13C2383.02,-199.18 749.51,-160.81 383.6,-152.21"/>
<polygon fill="midnightblue" stroke="midnightblue" points="383.48,-148.71 373.41,-151.97 383.32,-155.71 383.48,-148.71"/>
</g>
<!-- Node15 -->
<g id="node14" class="node">
<title>Node15</title>
<g id="a_node14"><a xlink:href="linear__problem_8h.html" target="_top" xlink:title=" ">
<polygon fill="none" stroke="red" points="2754.19,-140 2754.19,-159 2879.19,-159 2879.19,-140 2754.19,-140"/>
<text text-anchor="middle" x="2816.69" y="-147" font-family="Helvetica,sans-Serif" font-size="10.00">pdes/linear_problem.h</text>
</a>
</g>
</g>
<!-- Node2&#45;&gt;Node15 -->
<g id="edge14" class="edge">
<title>Node2&#45;&gt;Node15</title>
<path fill="none" stroke="midnightblue" d="M2839.82,-201.48C2835.89,-192.82 2829.69,-179.15 2824.69,-168.15"/>
<polygon fill="midnightblue" stroke="midnightblue" points="2827.87,-166.67 2820.55,-159.01 2821.49,-169.56 2827.87,-166.67"/>
</g>
<!-- Node4 -->
<g id="node4" class="node">
<title>Node4</title>
<g id="a_node4"><a xlink:href="http://www.dealii.org/developer/doxygen/deal.II/parameter__acceptor_8h.html.html" xlink:title=" ">
<polygon fill="none" stroke="black" points="4166.19,-0.5 4166.19,-30.5 4293.19,-30.5 4293.19,-0.5 4166.19,-0.5"/>
<text text-anchor="start" x="4174.19" y="-18.5" font-family="Helvetica,sans-Serif" font-size="10.00">deal.II/base/parameter</text>
<text text-anchor="middle" x="4229.69" y="-7.5" font-family="Helvetica,sans-Serif" font-size="10.00">_acceptor.h</text>
</a>
</g>
</g>
<!-- Node3&#45;&gt;Node4 -->
<g id="edge3" class="edge">
<title>Node3&#45;&gt;Node4</title>
<path fill="none" stroke="midnightblue" d="M5089.95,-72.95C5077.99,-70.71 5064.85,-68.5 5052.69,-67 4777.62,-33.12 4447.9,-21.6 4303.51,-18"/>
<polygon fill="midnightblue" stroke="midnightblue" points="4303.52,-14.5 4293.43,-17.75 4303.35,-21.5 4303.52,-14.5"/>
</g>
<!-- Node5 -->
<g id="node5" class="node">
<title>Node5</title>
<g id="a_node5"><a xlink:href="http://www.dealii.org/developer/doxygen/deal.II/sd_8h.html.html" xlink:title=" ">
<polygon fill="none" stroke="black" points="5059.19,-6 5059.19,-25 5202.19,-25 5202.19,-6 5059.19,-6"/>
<text text-anchor="middle" x="5130.69" y="-13" font-family="Helvetica,sans-Serif" font-size="10.00">deal.II/differentiation/sd.h</text>
</a>
</g>
</g>
<!-- Node3&#45;&gt;Node5 -->
<g id="edge4" class="edge">
<title>Node3&#45;&gt;Node5</title>
<path fill="none" stroke="midnightblue" d="M5130.69,-72.73C5130.69,-63.18 5130.69,-47.62 5130.69,-35.28"/>
<polygon fill="midnightblue" stroke="midnightblue" points="5134.19,-35.13 5130.69,-25.13 5127.19,-35.13 5134.19,-35.13"/>
</g>
<!-- Node6&#45;&gt;Node4 -->
<g id="edge9" class="edge">
<title>Node6&#45;&gt;Node4</title>
<path fill="none" stroke="midnightblue" d="M309.26,-134.29C308.25,-115.54 309.76,-83.03 329.69,-67 368.43,-35.84 3620.81,-19.34 4155.64,-16.84"/>
<polygon fill="midnightblue" stroke="midnightblue" points="4155.94,-20.34 4165.93,-16.79 4155.91,-13.34 4155.94,-20.34"/>
</g>
<!-- Node7 -->
<g id="node7" class="node">
<title>Node7</title>
<g id="a_node7"><a xlink:href="http://www.dealii.org/developer/doxygen/deal.II/config_8h.html.html" xlink:title=" ">
<polygon fill="none" stroke="black" points="866.19,-6 866.19,-25 981.19,-25 981.19,-6 866.19,-6"/>
<text text-anchor="middle" x="923.69" y="-13" font-family="Helvetica,sans-Serif" font-size="10.00">deal.II/base/config.h</text>
</a>
</g>
</g>
<!-- Node6&#45;&gt;Node7 -->
<g id="edge6" class="edge">
<title>Node6&#45;&gt;Node7</title>
<path fill="none" stroke="midnightblue" d="M302.04,-134.38C292.21,-116.32 279.6,-85.22 296.69,-67 339.34,-21.52 794.93,-39.62 856.69,-31 863.98,-29.98 871.66,-28.61 879.12,-27.11"/>
<polygon fill="midnightblue" stroke="midnightblue" points="880.02,-30.5 889.09,-25.02 878.58,-23.65 880.02,-30.5"/>
</g>
<!-- Node8 -->
<g id="node8" class="node">
<title>Node8</title>
<g id="a_node8"><a xlink:href="http://www.dealii.org/developer/doxygen/deal.II/general__data__storage_8h.html.html" xlink:title=" ">
<polygon fill="none" stroke="black" points="247.69,-0.5 247.69,-30.5 381.69,-30.5 381.69,-0.5 247.69,-0.5"/>
<text text-anchor="start" x="255.69" y="-18.5" font-family="Helvetica,sans-Serif" font-size="10.00">deal.II/algorithms</text>
<text text-anchor="middle" x="314.69" y="-7.5" font-family="Helvetica,sans-Serif" font-size="10.00">/general_data_storage.h</text>
</a>
</g>
</g>
<!-- Node6&#45;&gt;Node8 -->
<g id="edge7" class="edge">
<title>Node6&#45;&gt;Node8</title>
<path fill="none" stroke="midnightblue" d="M248.08,-147.27C168.27,-144.23 37,-133.76 6.69,-98 -2.22,-87.49 -2.23,-77.5 6.69,-67 35.7,-32.84 155.83,-21.74 237.2,-18.16"/>
<polygon fill="midnightblue" stroke="midnightblue" points="237.57,-21.65 247.42,-17.74 237.28,-14.66 237.57,-21.65"/>
</g>
<!-- Node9 -->
<g id="node9" class="node">
<title>Node9</title>
<g id="a_node9"><a xlink:href="http://www.dealii.org/developer/doxygen/deal.II/function__parser_8h.html.html" xlink:title=" ">
<polygon fill="none" stroke="black" points="338.69,-67.5 338.69,-97.5 454.69,-97.5 454.69,-67.5 338.69,-67.5"/>
<text text-anchor="start" x="346.69" y="-85.5" font-family="Helvetica,sans-Serif" font-size="10.00">deal.II/base/function</text>
<text text-anchor="middle" x="396.69" y="-74.5" font-family="Helvetica,sans-Serif" font-size="10.00">_parser.h</text>
</a>
</g>
</g>
<!-- Node6&#45;&gt;Node9 -->
<g id="edge8" class="edge">
<title>Node6&#45;&gt;Node9</title>
<path fill="none" stroke="midnightblue" d="M329.35,-134.4C341.18,-125.45 356.68,-113.74 369.83,-103.8"/>
<polygon fill="midnightblue" stroke="midnightblue" points="372.19,-106.4 378.06,-97.58 367.97,-100.81 372.19,-106.4"/>
</g>
<!-- Node10 -->
<g id="node10" class="node">
<title>Node10</title>
<g id="a_node10"><a xlink:href="http://www.dealii.org/developer/doxygen/deal.II/dof__handler_8h.html.html" xlink:title=" ">
<polygon fill="none" stroke="red" points="472.69,-73 472.69,-92 612.69,-92 612.69,-73 472.69,-73"/>
<text text-anchor="middle" x="542.69" y="-80" font-family="Helvetica,sans-Serif" font-size="10.00">deal.II/dofs/dof_handler.h</text>
</a>
</g>
</g>
<!-- Node6&#45;&gt;Node10 -->
<g id="edge10" class="edge">
<title>Node6&#45;&gt;Node10</title>
<path fill="none" stroke="midnightblue" d="M360.74,-134.48C403.14,-122.6 463.14,-105.79 502.47,-94.77"/>
<polygon fill="midnightblue" stroke="midnightblue" points="503.56,-98.1 512.25,-92.03 501.67,-91.36 503.56,-98.1"/>
</g>
<!-- Node12 -->
<g id="node11" class="node">
<title>Node12</title>
<g id="a_node11"><a xlink:href="http://www.dealii.org/developer/doxygen/deal.II/mapping__fe__field_8h.html.html" xlink:title=" ">
<polygon fill="none" stroke="black" points="16.19,-67.5 16.19,-97.5 121.19,-97.5 121.19,-67.5 16.19,-67.5"/>
<text text-anchor="start" x="24.19" y="-85.5" font-family="Helvetica,sans-Serif" font-size="10.00">deal.II/fe/mapping</text>
<text text-anchor="middle" x="68.69" y="-74.5" font-family="Helvetica,sans-Serif" font-size="10.00">_fe_field.h</text>
</a>
</g>
</g>
<!-- Node6&#45;&gt;Node12 -->
<g id="edge11" class="edge">
<title>Node6&#45;&gt;Node12</title>
<path fill="none" stroke="midnightblue" d="M258.47,-134.48C221.07,-124.43 170.54,-110.86 131.02,-100.24"/>
<polygon fill="midnightblue" stroke="midnightblue" points="131.79,-96.82 121.22,-97.61 129.97,-103.59 131.79,-96.82"/>
</g>
<!-- Node13 -->
<g id="node12" class="node">
<title>Node13</title>
<g id="a_node12"><a xlink:href="http://www.dealii.org/developer/doxygen/deal.II/mapping__q__eulerian_8h.html.html" xlink:title=" ">
<polygon fill="none" stroke="black" points="139.19,-67.5 139.19,-97.5 244.19,-97.5 244.19,-67.5 139.19,-67.5"/>
<text text-anchor="start" x="147.19" y="-85.5" font-family="Helvetica,sans-Serif" font-size="10.00">deal.II/fe/mapping</text>
<text text-anchor="middle" x="191.69" y="-74.5" font-family="Helvetica,sans-Serif" font-size="10.00">_q_eulerian.h</text>
</a>
</g>
</g>
<!-- Node6&#45;&gt;Node13 -->
<g id="edge12" class="edge">
<title>Node6&#45;&gt;Node13</title>
<path fill="none" stroke="midnightblue" d="M284.86,-134.4C267.71,-125.03 244.99,-112.62 226.28,-102.39"/>
<polygon fill="midnightblue" stroke="midnightblue" points="227.91,-99.3 217.46,-97.58 224.56,-105.44 227.91,-99.3"/>
</g>
<!-- Node14 -->
<g id="node13" class="node">
<title>Node14</title>
<g id="a_node13"><a xlink:href="http://www.dealii.org/developer/doxygen/deal.II/vector__tools_8h.html.html" xlink:title=" ">
<polygon fill="none" stroke="black" points="630.69,-67.5 630.69,-97.5 758.69,-97.5 758.69,-67.5 630.69,-67.5"/>
<text text-anchor="start" x="638.69" y="-85.5" font-family="Helvetica,sans-Serif" font-size="10.00">deal.II/numerics/vector</text>
<text text-anchor="middle" x="694.69" y="-74.5" font-family="Helvetica,sans-Serif" font-size="10.00">_tools.h</text>
</a>
</g>
</g>
<!-- Node6&#45;&gt;Node14 -->
<g id="edge13" class="edge">
<title>Node6&#45;&gt;Node14</title>
<path fill="none" stroke="midnightblue" d="M373.34,-138.99C434.02,-129.63 528.87,-114.6 620.6,-98.16"/>
<polygon fill="midnightblue" stroke="midnightblue" points="621.39,-101.57 630.62,-96.36 620.15,-94.68 621.39,-101.57"/>
</g>
<!-- Node15&#45;&gt;Node3 -->
<g id="edge59" class="edge">
<title>Node15&#45;&gt;Node3</title>
<path fill="none" stroke="midnightblue" d="M2854.88,-139.98C2867.2,-137.59 2880.96,-135.29 2893.69,-134 3848.45,-36.85 4097.81,-194.03 5052.69,-98 5062.25,-97.04 5072.39,-95.52 5082.09,-93.83"/>
<polygon fill="midnightblue" stroke="midnightblue" points="5082.78,-97.26 5091.99,-92.01 5081.52,-90.38 5082.78,-97.26"/>
</g>
<!-- Node15&#45;&gt;Node4 -->
<g id="edge19" class="edge">
<title>Node15&#45;&gt;Node4</title>
<path fill="none" stroke="midnightblue" d="M2855.28,-139.98C2867.5,-137.62 2881.11,-135.34 2893.69,-134 2970.89,-125.79 4236.5,-153.6 4290.69,-98 4309.36,-78.84 4284.61,-53.83 4261.27,-36.6"/>
<polygon fill="midnightblue" stroke="midnightblue" points="4263,-33.54 4252.81,-30.63 4258.96,-39.26 4263,-33.54"/>
</g>
<!-- Node15&#45;&gt;Node9 -->
<g id="edge18" class="edge">
<title>Node15&#45;&gt;Node9</title>
<path fill="none" stroke="midnightblue" d="M2753.93,-148.78C2430.32,-149.98 947,-152.42 465.19,-97.99"/>
<polygon fill="midnightblue" stroke="midnightblue" points="465.38,-94.49 455.04,-96.82 464.57,-101.44 465.38,-94.49"/>
</g>
<!-- Node15&#45;&gt;Node10 -->
<g id="edge25" class="edge">
<title>Node15&#45;&gt;Node10</title>
<path fill="none" stroke="midnightblue" d="M2754.11,-148.4C2441.99,-147.7 1051.59,-142.12 621.69,-98 612.11,-97.02 601.96,-95.51 592.23,-93.83"/>
<polygon fill="midnightblue" stroke="midnightblue" points="592.76,-90.37 582.29,-92.04 591.51,-97.26 592.76,-90.37"/>
</g>
<!-- Node15&#45;&gt;Node14 -->
<g id="edge45" class="edge">
<title>Node15&#45;&gt;Node14</title>
<path fill="none" stroke="midnightblue" d="M2754.01,-148.3C2454.92,-147.12 1170.96,-139.67 772.69,-98 771.41,-97.87 770.13,-97.72 768.84,-97.57"/>
<polygon fill="midnightblue" stroke="midnightblue" points="769.21,-94.09 758.84,-96.26 768.3,-101.03 769.21,-94.09"/>
</g>
<!-- Node16 -->
<g id="node15" class="node">
<title>Node16</title>
<g id="a_node15"><a xlink:href="http://www.dealii.org/developer/doxygen/deal.II/conditional__ostream_8h.html.html" xlink:title=" ">
<polygon fill="none" stroke="black" points="4337.69,-67.5 4337.69,-97.5 4467.69,-97.5 4467.69,-67.5 4337.69,-67.5"/>
<text text-anchor="start" x="4345.69" y="-85.5" font-family="Helvetica,sans-Serif" font-size="10.00">deal.II/base/conditional</text>
<text text-anchor="middle" x="4402.69" y="-74.5" font-family="Helvetica,sans-Serif" font-size="10.00">_ostream.h</text>
</a>
</g>
</g>
<!-- Node15&#45;&gt;Node16 -->
<g id="edge15" class="edge">
<title>Node15&#45;&gt;Node16</title>
<path fill="none" stroke="midnightblue" d="M2855.28,-139.97C2867.5,-137.61 2881.11,-135.33 2893.69,-134 3525.9,-66.96 3691.32,-163.59 4323.69,-98 4324.8,-97.88 4325.91,-97.76 4327.04,-97.63"/>
<polygon fill="midnightblue" stroke="midnightblue" points="4327.8,-101.06 4337.28,-96.32 4326.91,-94.12 4327.8,-101.06"/>
</g>
<!-- Node17 -->
<g id="node16" class="node">
<title>Node17</title>
<g id="a_node16"><a xlink:href="http://www.dealii.org/developer/doxygen/deal.II/convergence__table_8h.html.html" xlink:title=" ">
<polygon fill="none" stroke="black" points="4485.69,-67.5 4485.69,-97.5 4623.69,-97.5 4623.69,-67.5 4485.69,-67.5"/>
<text text-anchor="start" x="4493.69" y="-85.5" font-family="Helvetica,sans-Serif" font-size="10.00">deal.II/base/convergence</text>
<text text-anchor="middle" x="4554.69" y="-74.5" font-family="Helvetica,sans-Serif" font-size="10.00">_table.h</text>
</a>
</g>
</g>
<!-- Node15&#45;&gt;Node17 -->
<g id="edge16" class="edge">
<title>Node15&#45;&gt;Node17</title>
<path fill="none" stroke="midnightblue" d="M2855.28,-139.95C2867.5,-137.59 2881.1,-135.32 2893.69,-134 3590.26,-60.99 3774.94,-169.5 4475.36,-98.01"/>
<polygon fill="midnightblue" stroke="midnightblue" points="4475.86,-101.48 4485.45,-96.97 4475.14,-94.51 4475.86,-101.48"/>
</g>
<!-- Node18 -->
<g id="node17" class="node">
<title>Node18</title>
<g id="a_node17"><a xlink:href="http://www.dealii.org/developer/doxygen/deal.II/function_8h.html.html" xlink:title=" ">
<polygon fill="none" stroke="black" points="4642.19,-73 4642.19,-92 4767.19,-92 4767.19,-73 4642.19,-73"/>
<text text-anchor="middle" x="4704.69" y="-80" font-family="Helvetica,sans-Serif" font-size="10.00">deal.II/base/function.h</text>
</a>
</g>
</g>
<!-- Node15&#45;&gt;Node18 -->
<g id="edge17" class="edge">
<title>Node15&#45;&gt;Node18</title>
<path fill="none" stroke="midnightblue" d="M2855.28,-139.94C2867.5,-137.58 2881.1,-135.31 2893.69,-134 3662.61,-54.2 3864.28,-182.65 4632.69,-98 4641.16,-97.07 4650.11,-95.63 4658.73,-94.02"/>
<polygon fill="midnightblue" stroke="midnightblue" points="4659.49,-97.44 4668.62,-92.07 4658.14,-90.57 4659.49,-97.44"/>
</g>
<!-- Node19 -->
<g id="node18" class="node">
<title>Node19</title>
<g id="a_node18"><a xlink:href="http://www.dealii.org/developer/doxygen/deal.II/quadrature__lib_8h.html.html" xlink:title=" ">
<polygon fill="none" stroke="black" points="4785.19,-67.5 4785.19,-97.5 4914.19,-97.5 4914.19,-67.5 4785.19,-67.5"/>
<text text-anchor="start" x="4793.19" y="-85.5" font-family="Helvetica,sans-Serif" font-size="10.00">deal.II/base/quadrature</text>
<text text-anchor="middle" x="4849.69" y="-74.5" font-family="Helvetica,sans-Serif" font-size="10.00">_lib.h</text>
</a>
</g>
</g>
<!-- Node15&#45;&gt;Node19 -->
<g id="edge20" class="edge">
<title>Node15&#45;&gt;Node19</title>
<path fill="none" stroke="midnightblue" d="M2855.28,-139.93C2867.5,-137.56 2881.1,-135.3 2893.69,-134 3722.97,-48.6 3942.72,-186.77 4774.77,-98.07"/>
<polygon fill="midnightblue" stroke="midnightblue" points="4775.33,-101.53 4784.9,-96.99 4774.58,-94.57 4775.33,-101.53"/>
</g>
<!-- Node20 -->
<g id="node19" class="node">
<title>Node20</title>
<g id="a_node19"><a xlink:href="http://www.dealii.org/developer/doxygen/deal.II/timer_8h.html.html" xlink:title=" ">
<polygon fill="none" stroke="black" points="4932.19,-73 4932.19,-92 5043.19,-92 5043.19,-73 4932.19,-73"/>
<text text-anchor="middle" x="4987.69" y="-80" font-family="Helvetica,sans-Serif" font-size="10.00">deal.II/base/timer.h</text>
</a>
</g>
</g>
<!-- Node15&#45;&gt;Node20 -->
<g id="edge21" class="edge">
<title>Node15&#45;&gt;Node20</title>
<path fill="none" stroke="midnightblue" d="M2854.88,-139.99C2867.21,-137.6 2880.97,-135.3 2893.69,-134 3342.53,-88.09 4475.76,-152.13 4923.69,-98 4931,-97.12 4938.69,-95.76 4946.12,-94.21"/>
<polygon fill="midnightblue" stroke="midnightblue" points="4947,-97.6 4956.01,-92.03 4945.49,-90.77 4947,-97.6"/>
</g>
<!-- Node21 -->
<g id="node20" class="node">
<title>Node21</title>
<g id="a_node20"><a xlink:href="http://www.dealii.org/developer/doxygen/deal.II/distributed_2grid__refinement_8h.html.html" xlink:title=" ">
<polygon fill="none" stroke="black" points="941.19,-67.5 941.19,-97.5 1048.19,-97.5 1048.19,-67.5 941.19,-67.5"/>
<text text-anchor="start" x="949.19" y="-85.5" font-family="Helvetica,sans-Serif" font-size="10.00">deal.II/distributed</text>
<text text-anchor="middle" x="994.69" y="-74.5" font-family="Helvetica,sans-Serif" font-size="10.00">/grid_refinement.h</text>
</a>
</g>
</g>
<!-- Node15&#45;&gt;Node21 -->
<g id="edge22" class="edge">
<title>Node15&#45;&gt;Node21</title>
<path fill="none" stroke="midnightblue" d="M2753.84,-148.36C2483.35,-147.5 1416.34,-141.44 1058.63,-97.89"/>
<polygon fill="midnightblue" stroke="midnightblue" points="1058.87,-94.39 1048.52,-96.63 1058,-101.34 1058.87,-94.39"/>
</g>
<!-- Node22 -->
<g id="node21" class="node">
<title>Node22</title>
<g id="a_node21"><a xlink:href="http://www.dealii.org/developer/doxygen/deal.II/shared__tria_8h.html.html" xlink:title=" ">
<polygon fill="none" stroke="black" points="1066.69,-67.5 1066.69,-97.5 1168.69,-97.5 1168.69,-67.5 1066.69,-67.5"/>
<text text-anchor="start" x="1074.69" y="-85.5" font-family="Helvetica,sans-Serif" font-size="10.00">deal.II/distributed</text>
<text text-anchor="middle" x="1117.69" y="-74.5" font-family="Helvetica,sans-Serif" font-size="10.00">/shared_tria.h</text>
</a>
</g>
</g>
<!-- Node15&#45;&gt;Node22 -->
<g id="edge23" class="edge">
<title>Node15&#45;&gt;Node22</title>
<path fill="none" stroke="midnightblue" d="M2753.76,-148.3C2494.97,-147.19 1511.14,-140.32 1179.05,-97.95"/>
<polygon fill="midnightblue" stroke="midnightblue" points="1179.31,-94.46 1168.94,-96.62 1178.4,-101.4 1179.31,-94.46"/>
</g>
<!-- Node23 -->
<g id="node22" class="node">
<title>Node23</title>
<g id="a_node22"><a xlink:href="http://www.dealii.org/developer/doxygen/deal.II/distributed_2tria_8h.html.html" xlink:title=" ">
<polygon fill="none" stroke="black" points="1186.69,-67.5 1186.69,-97.5 1288.69,-97.5 1288.69,-67.5 1186.69,-67.5"/>
<text text-anchor="start" x="1194.69" y="-85.5" font-family="Helvetica,sans-Serif" font-size="10.00">deal.II/distributed</text>
<text text-anchor="middle" x="1237.69" y="-74.5" font-family="Helvetica,sans-Serif" font-size="10.00">/tria.h</text>
</a>
</g>
</g>
<!-- Node15&#45;&gt;Node23 -->
<g id="edge24" class="edge">
<title>Node15&#45;&gt;Node23</title>
<path fill="none" stroke="midnightblue" d="M2753.79,-148.12C2507.36,-146.36 1606.49,-137.41 1299.18,-97.97"/>
<polygon fill="midnightblue" stroke="midnightblue" points="1299.31,-94.46 1288.94,-96.61 1298.4,-101.4 1299.31,-94.46"/>
</g>
<!-- Node24 -->
<g id="node23" class="node">
<title>Node24</title>
<g id="a_node23"><a xlink:href="http://www.dealii.org/developer/doxygen/deal.II/dof__tools_8h.html.html" xlink:title=" ">
<polygon fill="none" stroke="black" points="1306.69,-73 1306.69,-92 1434.69,-92 1434.69,-73 1306.69,-73"/>
<text text-anchor="middle" x="1370.69" y="-80" font-family="Helvetica,sans-Serif" font-size="10.00">deal.II/dofs/dof_tools.h</text>
</a>
</g>
</g>
<!-- Node15&#45;&gt;Node24 -->
<g id="edge26" class="edge">
<title>Node15&#45;&gt;Node24</title>
<path fill="none" stroke="midnightblue" d="M2754,-147.52C2520.67,-143.67 1702.66,-128.29 1443.69,-98 1435.2,-97.01 1426.23,-95.56 1417.59,-93.96"/>
<polygon fill="midnightblue" stroke="midnightblue" points="1418.13,-90.5 1407.64,-92.03 1416.79,-97.37 1418.13,-90.5"/>
</g>
<!-- Node25 -->
<g id="node24" class="node">
<title>Node25</title>
<g id="a_node24"><a xlink:href="http://www.dealii.org/developer/doxygen/deal.II/fe__q_8h.html.html" xlink:title=" ">
<polygon fill="none" stroke="black" points="1452.69,-73 1452.69,-92 1544.69,-92 1544.69,-73 1452.69,-73"/>
<text text-anchor="middle" x="1498.69" y="-80" font-family="Helvetica,sans-Serif" font-size="10.00">deal.II/fe/fe_q.h</text>
</a>
</g>
</g>
<!-- Node15&#45;&gt;Node25 -->
<g id="edge27" class="edge">
<title>Node15&#45;&gt;Node25</title>
<path fill="none" stroke="midnightblue" d="M2754.07,-147.8C2532.92,-145.05 1789.15,-133.31 1553.69,-98 1548.07,-97.16 1542.2,-95.96 1536.48,-94.62"/>
<polygon fill="midnightblue" stroke="midnightblue" points="1536.97,-91.13 1526.42,-92.07 1535.26,-97.92 1536.97,-91.13"/>
</g>
<!-- Node26 -->
<g id="node25" class="node">
<title>Node26</title>
<g id="a_node25"><a xlink:href="http://www.dealii.org/developer/doxygen/deal.II/fe_2fe__values_8h.html.html" xlink:title=" ">
<polygon fill="none" stroke="black" points="1563.19,-73 1563.19,-92 1682.19,-92 1682.19,-73 1563.19,-73"/>
<text text-anchor="middle" x="1622.69" y="-80" font-family="Helvetica,sans-Serif" font-size="10.00">deal.II/fe/fe_values.h</text>
</a>
</g>
</g>
<!-- Node15&#45;&gt;Node26 -->
<g id="edge28" class="edge">
<title>Node15&#45;&gt;Node26</title>
<path fill="none" stroke="midnightblue" d="M2754.19,-149.24C2583.29,-150.49 2094.15,-148.98 1691.69,-98 1683.92,-97.02 1675.72,-95.62 1667.8,-94.07"/>
<polygon fill="midnightblue" stroke="midnightblue" points="1668.45,-90.64 1657.96,-92.06 1667.05,-97.49 1668.45,-90.64"/>
</g>
<!-- Node27 -->
<g id="node26" class="node">
<title>Node27</title>
<g id="a_node26"><a xlink:href="http://www.dealii.org/developer/doxygen/deal.II/fe__values__extractors_8h.html.html" xlink:title=" ">
<polygon fill="none" stroke="black" points="1700.69,-67.5 1700.69,-97.5 1810.69,-97.5 1810.69,-67.5 1700.69,-67.5"/>
<text text-anchor="start" x="1708.69" y="-85.5" font-family="Helvetica,sans-Serif" font-size="10.00">deal.II/fe/fe_values</text>
<text text-anchor="middle" x="1755.69" y="-74.5" font-family="Helvetica,sans-Serif" font-size="10.00">_extractors.h</text>
</a>
</g>
</g>
<!-- Node15&#45;&gt;Node27 -->
<g id="edge29" class="edge">
<title>Node15&#45;&gt;Node27</title>
<path fill="none" stroke="midnightblue" d="M2753.93,-149.06C2597.59,-149.65 2178.25,-146.3 1820.76,-97.97"/>
<polygon fill="midnightblue" stroke="midnightblue" points="1821.12,-94.49 1810.73,-96.6 1820.17,-101.43 1821.12,-94.49"/>
</g>
<!-- Node28 -->
<g id="node27" class="node">
<title>Node28</title>
<g id="a_node27"><a xlink:href="http://www.dealii.org/developer/doxygen/deal.II/mapping__q__generic_8h.html.html" xlink:title=" ">
<polygon fill="none" stroke="black" points="1829.19,-67.5 1829.19,-97.5 1934.19,-97.5 1934.19,-67.5 1829.19,-67.5"/>
<text text-anchor="start" x="1837.19" y="-85.5" font-family="Helvetica,sans-Serif" font-size="10.00">deal.II/fe/mapping</text>
<text text-anchor="middle" x="1881.69" y="-74.5" font-family="Helvetica,sans-Serif" font-size="10.00">_q_generic.h</text>
</a>
</g>
</g>
<!-- Node15&#45;&gt;Node28 -->
<g id="edge30" class="edge">
<title>Node15&#45;&gt;Node28</title>
<path fill="none" stroke="midnightblue" d="M2754.13,-148.56C2611.81,-147.9 2252.94,-141.77 1944.37,-97.9"/>
<polygon fill="midnightblue" stroke="midnightblue" points="1944.73,-94.42 1934.33,-96.46 1943.73,-101.35 1944.73,-94.42"/>
</g>
<!-- Node29 -->
<g id="node28" class="node">
<title>Node29</title>
<g id="a_node28"><a xlink:href="http://www.dealii.org/developer/doxygen/deal.II/grid__generator_8h.html.html" xlink:title=" ">
<polygon fill="none" stroke="red" points="1952.69,-73 1952.69,-92 2104.69,-92 2104.69,-73 1952.69,-73"/>
<text text-anchor="middle" x="2028.69" y="-80" font-family="Helvetica,sans-Serif" font-size="10.00">deal.II/grid/grid_generator.h</text>
</a>
</g>
</g>
<!-- Node15&#45;&gt;Node29 -->
<g id="edge31" class="edge">
<title>Node15&#45;&gt;Node29</title>
<path fill="none" stroke="midnightblue" d="M2753.95,-146.04C2630.83,-140.77 2349.05,-126.46 2113.69,-98 2104.09,-96.84 2093.93,-95.34 2084.09,-93.75"/>
<polygon fill="midnightblue" stroke="midnightblue" points="2084.44,-90.26 2074,-92.07 2083.29,-97.17 2084.44,-90.26"/>
</g>
<!-- Node30 -->
<g id="node29" class="node">
<title>Node30</title>
<g id="a_node29"><a xlink:href="http://www.dealii.org/developer/doxygen/deal.II/grid_2tria_8h.html.html" xlink:title=" ">
<polygon fill="none" stroke="black" points="2123.19,-73 2123.19,-92 2220.19,-92 2220.19,-73 2123.19,-73"/>
<text text-anchor="middle" x="2171.69" y="-80" font-family="Helvetica,sans-Serif" font-size="10.00">deal.II/grid/tria.h</text>
</a>
</g>
</g>
<!-- Node15&#45;&gt;Node30 -->
<g id="edge32" class="edge">
<title>Node15&#45;&gt;Node30</title>
<path fill="none" stroke="midnightblue" d="M2754.04,-146.48C2646.09,-142.25 2418.36,-130.05 2228.69,-98 2223.09,-97.05 2217.23,-95.83 2211.49,-94.5"/>
<polygon fill="midnightblue" stroke="midnightblue" points="2211.91,-91.01 2201.37,-92.03 2210.25,-97.8 2211.91,-91.01"/>
</g>
<!-- Node31 -->
<g id="node30" class="node">
<title>Node31</title>
<g id="a_node30"><a xlink:href="http://www.dealii.org/developer/doxygen/deal.II/affine__constraints_8h.html.html" xlink:title=" ">
<polygon fill="none" stroke="black" points="2238.19,-67.5 2238.19,-97.5 2333.19,-97.5 2333.19,-67.5 2238.19,-67.5"/>
<text text-anchor="start" x="2246.19" y="-85.5" font-family="Helvetica,sans-Serif" font-size="10.00">deal.II/lac/affine</text>
<text text-anchor="middle" x="2285.69" y="-74.5" font-family="Helvetica,sans-Serif" font-size="10.00">_constraints.h</text>
</a>
</g>
</g>
<!-- Node15&#45;&gt;Node31 -->
<g id="edge33" class="edge">
<title>Node15&#45;&gt;Node31</title>
<path fill="none" stroke="midnightblue" d="M2754.17,-144.7C2665.07,-138.65 2496.35,-124.86 2343.51,-97.97"/>
<polygon fill="midnightblue" stroke="midnightblue" points="2343.93,-94.49 2333.47,-96.18 2342.7,-101.38 2343.93,-94.49"/>
</g>
<!-- Node32 -->
<g id="node31" class="node">
<title>Node32</title>
<g id="a_node31"><a xlink:href="http://www.dealii.org/developer/doxygen/deal.II/dynamic__sparsity__pattern_8h.html.html" xlink:title=" ">
<polygon fill="none" stroke="black" points="2351.69,-67.5 2351.69,-97.5 2461.69,-97.5 2461.69,-67.5 2351.69,-67.5"/>
<text text-anchor="start" x="2359.69" y="-85.5" font-family="Helvetica,sans-Serif" font-size="10.00">deal.II/lac/dynamic</text>
<text text-anchor="middle" x="2406.69" y="-74.5" font-family="Helvetica,sans-Serif" font-size="10.00">_sparsity_pattern.h</text>
</a>
</g>
</g>
<!-- Node15&#45;&gt;Node32 -->
<g id="edge34" class="edge">
<title>Node15&#45;&gt;Node32</title>
<path fill="none" stroke="midnightblue" d="M2753.94,-140.84C2686.6,-132.27 2576.32,-117.29 2471.88,-98.14"/>
<polygon fill="midnightblue" stroke="midnightblue" points="2472.26,-94.65 2461.79,-96.27 2470.98,-101.53 2472.26,-94.65"/>
</g>
<!-- Node33 -->
<g id="node32" class="node">
<title>Node33</title>
<g id="a_node32"><a xlink:href="http://www.dealii.org/developer/doxygen/deal.II/full__matrix_8h.html.html" xlink:title=" ">
<polygon fill="none" stroke="black" points="2480.19,-73 2480.19,-92 2609.19,-92 2609.19,-73 2480.19,-73"/>
<text text-anchor="middle" x="2544.69" y="-80" font-family="Helvetica,sans-Serif" font-size="10.00">deal.II/lac/full_matrix.h</text>
</a>
</g>
</g>
<!-- Node15&#45;&gt;Node33 -->
<g id="edge35" class="edge">
<title>Node15&#45;&gt;Node33</title>
<path fill="none" stroke="midnightblue" d="M2780.85,-139.94C2731.92,-128.24 2644.2,-107.28 2590.54,-94.46"/>
<polygon fill="midnightblue" stroke="midnightblue" points="2591.14,-91 2580.6,-92.08 2589.52,-97.81 2591.14,-91"/>
</g>
<!-- Node34 -->
<g id="node33" class="node">
<title>Node34</title>
<g id="a_node33"><a xlink:href="http://www.dealii.org/developer/doxygen/deal.II/generic__linear__algebra_8h.html.html" xlink:title=" ">
<polygon fill="none" stroke="black" points="2627.19,-67.5 2627.19,-97.5 2730.19,-97.5 2730.19,-67.5 2627.19,-67.5"/>
<text text-anchor="start" x="2635.19" y="-85.5" font-family="Helvetica,sans-Serif" font-size="10.00">deal.II/lac/generic</text>
<text text-anchor="middle" x="2678.69" y="-74.5" font-family="Helvetica,sans-Serif" font-size="10.00">_linear_algebra.h</text>
</a>
</g>
</g>
<!-- Node15&#45;&gt;Node34 -->
<g id="edge36" class="edge">
<title>Node15&#45;&gt;Node34</title>
<path fill="none" stroke="midnightblue" d="M2798.36,-139.87C2777.92,-130.24 2744.26,-114.39 2717.84,-101.94"/>
<polygon fill="midnightblue" stroke="midnightblue" points="2719.01,-98.62 2708.47,-97.53 2716.02,-104.96 2719.01,-98.62"/>
</g>
<!-- Node35 -->
<g id="node34" class="node">
<title>Node35</title>
<g id="a_node34"><a xlink:href="http://www.dealii.org/developer/doxygen/deal.II/precondition_8h.html.html" xlink:title=" ">
<polygon fill="none" stroke="black" points="2748.19,-73 2748.19,-92 2885.19,-92 2885.19,-73 2748.19,-73"/>
<text text-anchor="middle" x="2816.69" y="-80" font-family="Helvetica,sans-Serif" font-size="10.00">deal.II/lac/precondition.h</text>
</a>
</g>
</g>
<!-- Node15&#45;&gt;Node35 -->
<g id="edge37" class="edge">
<title>Node15&#45;&gt;Node35</title>
<path fill="none" stroke="midnightblue" d="M2816.69,-139.73C2816.69,-130.18 2816.69,-114.62 2816.69,-102.28"/>
<polygon fill="midnightblue" stroke="midnightblue" points="2820.19,-102.13 2816.69,-92.13 2813.19,-102.13 2820.19,-102.13"/>
</g>
<!-- Node36 -->
<g id="node35" class="node">
<title>Node36</title>
<g id="a_node35"><a xlink:href="http://www.dealii.org/developer/doxygen/deal.II/solver__cg_8h.html.html" xlink:title=" ">
<polygon fill="none" stroke="black" points="725.69,-6 725.69,-25 847.69,-25 847.69,-6 725.69,-6"/>
<text text-anchor="middle" x="786.69" y="-13" font-family="Helvetica,sans-Serif" font-size="10.00">deal.II/lac/solver_cg.h</text>
</a>
</g>
</g>
<!-- Node15&#45;&gt;Node36 -->
<g id="edge38" class="edge">
<title>Node15&#45;&gt;Node36</title>
<path fill="none" stroke="midnightblue" d="M2753.95,-147.97C2417.87,-145.02 844.38,-129.51 805.69,-98 787.41,-83.12 784.67,-54.36 785.11,-35.3"/>
<polygon fill="midnightblue" stroke="midnightblue" points="788.61,-35.31 785.67,-25.13 781.63,-34.92 788.61,-35.31"/>
</g>
<!-- Node37 -->
<g id="node36" class="node">
<title>Node37</title>
<g id="a_node36"><a xlink:href="http://www.dealii.org/developer/doxygen/deal.II/sparse__matrix_8h.html.html" xlink:title=" ">
<polygon fill="none" stroke="black" points="2903.19,-67.5 2903.19,-97.5 3002.19,-97.5 3002.19,-67.5 2903.19,-67.5"/>
<text text-anchor="start" x="2911.19" y="-85.5" font-family="Helvetica,sans-Serif" font-size="10.00">deal.II/lac/sparse</text>
<text text-anchor="middle" x="2952.69" y="-74.5" font-family="Helvetica,sans-Serif" font-size="10.00">_matrix.h</text>
</a>
</g>
</g>
<!-- Node15&#45;&gt;Node37 -->
<g id="edge39" class="edge">
<title>Node15&#45;&gt;Node37</title>
<path fill="none" stroke="midnightblue" d="M2834.75,-139.87C2854.89,-130.24 2888.06,-114.39 2914.1,-101.94"/>
<polygon fill="midnightblue" stroke="midnightblue" points="2915.82,-105 2923.34,-97.53 2912.8,-98.68 2915.82,-105"/>
</g>
<!-- Node38 -->
<g id="node37" class="node">
<title>Node38</title>
<g id="a_node37"><a xlink:href="http://www.dealii.org/developer/doxygen/deal.II/vector_8h.html.html" xlink:title=" ">
<polygon fill="none" stroke="black" points="3020.19,-73 3020.19,-92 3127.19,-92 3127.19,-73 3020.19,-73"/>
<text text-anchor="middle" x="3073.69" y="-80" font-family="Helvetica,sans-Serif" font-size="10.00">deal.II/lac/vector.h</text>
</a>
</g>
</g>
<!-- Node15&#45;&gt;Node38 -->
<g id="edge40" class="edge">
<title>Node15&#45;&gt;Node38</title>
<path fill="none" stroke="midnightblue" d="M2850.55,-139.94C2896.68,-128.27 2979.32,-107.37 3030.05,-94.54"/>
<polygon fill="midnightblue" stroke="midnightblue" points="3030.91,-97.93 3039.75,-92.08 3029.2,-91.14 3030.91,-97.93"/>
</g>
<!-- Node39 -->
<g id="node38" class="node">
<title>Node39</title>
<g id="a_node38"><a xlink:href="http://www.dealii.org/developer/doxygen/deal.II/copy__data_8h.html.html" xlink:title=" ">
<polygon fill="none" stroke="black" points="3145.69,-67.5 3145.69,-97.5 3255.69,-97.5 3255.69,-67.5 3145.69,-67.5"/>
<text text-anchor="start" x="3153.69" y="-85.5" font-family="Helvetica,sans-Serif" font-size="10.00">deal.II/meshworker</text>
<text text-anchor="middle" x="3200.69" y="-74.5" font-family="Helvetica,sans-Serif" font-size="10.00">/copy_data.h</text>
</a>
</g>
</g>
<!-- Node15&#45;&gt;Node39 -->
<g id="edge41" class="edge">
<title>Node15&#45;&gt;Node39</title>
<path fill="none" stroke="midnightblue" d="M2860.21,-140C2871.12,-137.95 2882.82,-135.83 2893.69,-134 2998.2,-116.42 3027.66,-117.97 3135.59,-98.12"/>
<polygon fill="midnightblue" stroke="midnightblue" points="3136.39,-101.53 3145.58,-96.26 3135.11,-94.65 3136.39,-101.53"/>
</g>
<!-- Node40 -->
<g id="node39" class="node">
<title>Node40</title>
<g id="a_node39"><a xlink:href="http://www.dealii.org/developer/doxygen/deal.II/scratch__data_8h.html.html" xlink:title=" ">
<polygon fill="none" stroke="black" points="3273.69,-67.5 3273.69,-97.5 3383.69,-97.5 3383.69,-67.5 3273.69,-67.5"/>
<text text-anchor="start" x="3281.69" y="-85.5" font-family="Helvetica,sans-Serif" font-size="10.00">deal.II/meshworker</text>
<text text-anchor="middle" x="3328.69" y="-74.5" font-family="Helvetica,sans-Serif" font-size="10.00">/scratch_data.h</text>
</a>
</g>
</g>
<!-- Node15&#45;&gt;Node40 -->
<g id="edge42" class="edge">
<title>Node15&#45;&gt;Node40</title>
<path fill="none" stroke="midnightblue" d="M2858.13,-139.99C2869.61,-137.83 2882.1,-135.65 2893.69,-134 3054.49,-111.1 3099.39,-123.83 3263.65,-98.03"/>
<polygon fill="midnightblue" stroke="midnightblue" points="3264.29,-101.47 3273.61,-96.44 3263.19,-94.56 3264.29,-101.47"/>
</g>
<!-- Node41 -->
<g id="node40" class="node">
<title>Node41</title>
<g id="a_node40"><a xlink:href="http://www.dealii.org/developer/doxygen/deal.II/numerics_2data__out_8h.html.html" xlink:title=" ">
<polygon fill="none" stroke="black" points="3402.19,-67.5 3402.19,-97.5 3521.19,-97.5 3521.19,-67.5 3402.19,-67.5"/>
<text text-anchor="start" x="3410.19" y="-85.5" font-family="Helvetica,sans-Serif" font-size="10.00">deal.II/numerics/data</text>
<text text-anchor="middle" x="3461.69" y="-74.5" font-family="Helvetica,sans-Serif" font-size="10.00">_out.h</text>
</a>
</g>
</g>
<!-- Node15&#45;&gt;Node41 -->
<g id="edge43" class="edge">
<title>Node15&#45;&gt;Node41</title>
<path fill="none" stroke="midnightblue" d="M2857.31,-139.95C2869.01,-137.74 2881.82,-135.54 2893.69,-134 3110.96,-105.8 3170.75,-128.26 3391.96,-97.96"/>
<polygon fill="midnightblue" stroke="midnightblue" points="3392.51,-101.42 3401.93,-96.57 3391.55,-94.48 3392.51,-101.42"/>
</g>
<!-- Node42 -->
<g id="node41" class="node">
<title>Node42</title>
<g id="a_node41"><a xlink:href="http://www.dealii.org/developer/doxygen/deal.II/matrix__tools_8h.html.html" xlink:title=" ">
<polygon fill="none" stroke="red" points="3539.69,-67.5 3539.69,-97.5 3669.69,-97.5 3669.69,-67.5 3539.69,-67.5"/>
<text text-anchor="start" x="3547.69" y="-85.5" font-family="Helvetica,sans-Serif" font-size="10.00">deal.II/numerics/matrix</text>
<text text-anchor="middle" x="3604.69" y="-74.5" font-family="Helvetica,sans-Serif" font-size="10.00">_tools.h</text>
</a>
</g>
</g>
<!-- Node15&#45;&gt;Node42 -->
<g id="edge44" class="edge">
<title>Node15&#45;&gt;Node42</title>
<path fill="none" stroke="midnightblue" d="M2856.5,-139.98C2868.41,-137.71 2881.53,-135.48 2893.69,-134 3171.87,-100.09 3247.57,-132.57 3529.29,-98.05"/>
<polygon fill="midnightblue" stroke="midnightblue" points="3529.9,-101.5 3539.39,-96.8 3529.04,-94.56 3529.9,-101.5"/>
</g>
<!-- Node43 -->
<g id="node42" class="node">
<title>Node43</title>
<g id="a_node42"><a xlink:href="http://www.dealii.org/developer/doxygen/deal.II/arkode_8h.html.html" xlink:title=" ">
<polygon fill="none" stroke="black" points="3688.19,-73 3688.19,-92 3823.19,-92 3823.19,-73 3688.19,-73"/>
<text text-anchor="middle" x="3755.69" y="-80" font-family="Helvetica,sans-Serif" font-size="10.00">deal.II/sundials/arkode.h</text>
</a>
</g>
</g>
<!-- Node15&#45;&gt;Node43 -->
<g id="edge46" class="edge">
<title>Node15&#45;&gt;Node43</title>
<path fill="none" stroke="midnightblue" d="M2856.09,-139.98C2868.11,-137.68 2881.39,-135.43 2893.69,-134 3240.6,-93.58 3331.78,-138.42 3678.69,-98 3687.62,-96.96 3697.07,-95.49 3706.19,-93.88"/>
<polygon fill="midnightblue" stroke="midnightblue" points="3707.08,-97.27 3716.28,-92.02 3705.81,-90.39 3707.08,-97.27"/>
</g>
<!-- Node44 -->
<g id="node43" class="node">
<title>Node44</title>
<g id="a_node43"><a xlink:title=" ">
<polygon fill="none" stroke="#bfbfbf" points="3841.69,-73 3841.69,-92 3949.69,-92 3949.69,-73 3841.69,-73"/>
<text text-anchor="middle" x="3895.69" y="-80" font-family="Helvetica,sans-Serif" font-size="10.00">boost/signals2.hpp</text>
</a>
</g>
</g>
<!-- Node15&#45;&gt;Node44 -->
<g id="edge47" class="edge">
<title>Node15&#45;&gt;Node44</title>
<path fill="none" stroke="midnightblue" d="M2855.69,-140C2867.81,-137.67 2881.25,-135.4 2893.69,-134 3308.7,-87.23 3418.69,-153.08 3832.69,-98 3839.56,-97.09 3846.79,-95.77 3853.8,-94.29"/>
<polygon fill="midnightblue" stroke="midnightblue" points="3854.85,-97.64 3863.85,-92.05 3853.33,-90.81 3854.85,-97.64"/>
</g>
<!-- Node45 -->
<g id="node44" class="node">
<title>Node45</title>
<g id="a_node44"><a xlink:title=" ">
<polygon fill="none" stroke="#bfbfbf" points="3968.19,-73 3968.19,-92 4023.19,-92 4023.19,-73 3968.19,-73"/>
<text text-anchor="middle" x="3995.69" y="-80" font-family="Helvetica,sans-Serif" font-size="10.00">fstream</text>
</a>
</g>
</g>
<!-- Node15&#45;&gt;Node45 -->
<g id="edge48" class="edge">
<title>Node15&#45;&gt;Node45</title>
<path fill="none" stroke="midnightblue" d="M2855.68,-139.96C2867.8,-137.63 2881.25,-135.37 2893.69,-134 3129.06,-108.01 3726.78,-145.89 3958.69,-98 3961.7,-97.38 3964.78,-96.53 3967.82,-95.56"/>
<polygon fill="midnightblue" stroke="midnightblue" points="3969.03,-98.85 3977.24,-92.15 3966.65,-92.27 3969.03,-98.85"/>
</g>
<!-- Node46 -->
<g id="node45" class="node">
<title>Node46</title>
<g id="a_node45"><a xlink:title=" ">
<polygon fill="none" stroke="#bfbfbf" points="4041.69,-73 4041.69,-92 4101.69,-92 4101.69,-73 4041.69,-73"/>
<text text-anchor="middle" x="4071.69" y="-80" font-family="Helvetica,sans-Serif" font-size="10.00">iostream</text>
</a>
</g>
</g>
<!-- Node15&#45;&gt;Node46 -->
<g id="edge49" class="edge">
<title>Node15&#45;&gt;Node46</title>
<path fill="none" stroke="midnightblue" d="M2855.68,-139.95C2867.8,-137.61 2881.25,-135.36 2893.69,-134 3145.42,-106.49 3784.19,-146.77 4032.69,-98 4035.95,-97.36 4039.29,-96.48 4042.59,-95.47"/>
<polygon fill="midnightblue" stroke="midnightblue" points="4043.9,-98.73 4052.21,-92.15 4041.61,-92.11 4043.9,-98.73"/>
</g>
<!-- Node47 -->
<g id="node46" class="node">
<title>Node47</title>
<g id="a_node46"><a xlink:title=" ">
<polygon fill="none" stroke="#bfbfbf" points="4119.69,-73 4119.69,-92 4159.69,-92 4159.69,-73 4119.69,-73"/>
<text text-anchor="middle" x="4139.69" y="-80" font-family="Helvetica,sans-Serif" font-size="10.00">lac.h</text>
</a>
</g>
</g>
<!-- Node15&#45;&gt;Node47 -->
<g id="edge50" class="edge">
<title>Node15&#45;&gt;Node47</title>
<path fill="none" stroke="midnightblue" d="M2855.68,-139.93C2867.8,-137.6 2881.24,-135.35 2893.69,-134 3162.68,-104.88 3848.31,-164.05 4110.69,-98 4112.61,-97.52 4114.55,-96.89 4116.48,-96.17"/>
<polygon fill="midnightblue" stroke="midnightblue" points="4118.02,-99.31 4125.71,-92.02 4115.15,-92.93 4118.02,-99.31"/>
</g>
<!-- Node48 -->
<g id="node47" class="node">
<title>Node48</title>
<g id="a_node47"><a xlink:href="amg_8h.html" target="_top" xlink:title=" ">
<polygon fill="none" stroke="red" points="4178.19,-73 4178.19,-92 4281.19,-92 4281.19,-73 4178.19,-73"/>
<text text-anchor="middle" x="4229.69" y="-80" font-family="Helvetica,sans-Serif" font-size="10.00">parsed_lac/amg.h</text>
</a>
</g>
</g>
<!-- Node15&#45;&gt;Node48 -->
<g id="edge51" class="edge">
<title>Node15&#45;&gt;Node48</title>
<path fill="none" stroke="midnightblue" d="M2855.29,-140C2867.51,-137.64 2881.11,-135.35 2893.69,-134 3457.33,-73.36 3606.64,-171.94 4168.69,-98 4175.43,-97.11 4182.52,-95.79 4189.37,-94.31"/>
<polygon fill="midnightblue" stroke="midnightblue" points="4190.24,-97.7 4199.2,-92.04 4188.66,-90.88 4190.24,-97.7"/>
</g>
<!-- Node50 -->
<g id="node48" class="node">
<title>Node50</title>
<g id="a_node48"><a xlink:href="inverse__operator_8h.html" target="_top" xlink:title=" ">
<polygon fill="none" stroke="red" points="814.69,-67.5 814.69,-97.5 922.69,-97.5 922.69,-67.5 814.69,-67.5"/>
<text text-anchor="start" x="822.69" y="-85.5" font-family="Helvetica,sans-Serif" font-size="10.00">parsed_lac/inverse</text>
<text text-anchor="middle" x="868.69" y="-74.5" font-family="Helvetica,sans-Serif" font-size="10.00">_operator.h</text>
</a>
</g>
</g>
<!-- Node15&#45;&gt;Node50 -->
<g id="edge54" class="edge">
<title>Node15&#45;&gt;Node50</title>
<path fill="none" stroke="midnightblue" d="M2754.17,-148.5C2472.24,-148.24 1316.59,-144.41 932.88,-97.94"/>
<polygon fill="midnightblue" stroke="midnightblue" points="933.21,-94.45 922.86,-96.69 932.35,-101.4 933.21,-94.45"/>
</g>
<!-- Node48&#45;&gt;Node4 -->
<g id="edge53" class="edge">
<title>Node48&#45;&gt;Node4</title>
<path fill="none" stroke="midnightblue" d="M4229.69,-72.73C4229.69,-64.54 4229.69,-51.92 4229.69,-40.71"/>
<polygon fill="midnightblue" stroke="midnightblue" points="4233.19,-40.59 4229.69,-30.59 4226.19,-40.59 4233.19,-40.59"/>
</g>
<!-- Node48&#45;&gt;Node7 -->
<g id="edge52" class="edge">
<title>Node48&#45;&gt;Node7</title>
<path fill="none" stroke="midnightblue" d="M4199.52,-72.96C4189.76,-70.56 4178.84,-68.27 4168.69,-67 3843.48,-26.31 1428.86,-17.87 991.51,-16.67"/>
<polygon fill="midnightblue" stroke="midnightblue" points="991.25,-13.17 981.24,-16.64 991.23,-20.17 991.25,-13.17"/>
</g>
<!-- Node50&#45;&gt;Node4 -->
<g id="edge57" class="edge">
<title>Node50&#45;&gt;Node4</title>
<path fill="none" stroke="midnightblue" d="M922.85,-68.27C925.83,-67.78 928.79,-67.35 931.69,-67 1261.19,-27.01 3699.11,-18.03 4156.01,-16.7"/>
<polygon fill="midnightblue" stroke="midnightblue" points="4156.13,-20.2 4166.12,-16.67 4156.11,-13.2 4156.13,-20.2"/>
</g>
<!-- Node50&#45;&gt;Node7 -->
<g id="edge55" class="edge">
<title>Node50&#45;&gt;Node7</title>
<path fill="none" stroke="midnightblue" d="M880.62,-67.4C889.2,-57.26 900.78,-43.57 909.78,-32.94"/>
<polygon fill="midnightblue" stroke="midnightblue" points="912.54,-35.09 916.33,-25.19 907.2,-30.57 912.54,-35.09"/>
</g>
<!-- Node50&#45;&gt;Node8 -->
<g id="edge56" class="edge">
<title>Node50&#45;&gt;Node8</title>
<path fill="none" stroke="midnightblue" d="M814.48,-73.4C799.35,-71.22 782.89,-68.94 767.69,-67 635.98,-50.21 482.33,-33.74 392.07,-24.38"/>
<polygon fill="midnightblue" stroke="midnightblue" points="392.23,-20.87 381.92,-23.33 391.51,-27.84 392.23,-20.87"/>
</g>
<!-- Node50&#45;&gt;Node36 -->
<g id="edge58" class="edge">
<title>Node50&#45;&gt;Node36</title>
<path fill="none" stroke="midnightblue" d="M850.89,-67.4C837.6,-56.86 819.46,-42.48 805.85,-31.69"/>
<polygon fill="midnightblue" stroke="midnightblue" points="807.67,-28.66 797.65,-25.19 803.32,-34.15 807.67,-28.66"/>
</g>
<!-- Node64 -->
<g id="node50" class="node">
<title>Node64</title>
<g id="a_node50"><a xlink:href="http://www.dealii.org/developer/doxygen/deal.II/include_2deal_8II_2base_2utilities_8h.html.html" xlink:title=" ">
<polygon fill="none" stroke="black" points="2935.69,-140 2935.69,-159 3057.69,-159 3057.69,-140 2935.69,-140"/>
<text text-anchor="middle" x="2996.69" y="-147" font-family="Helvetica,sans-Serif" font-size="10.00">deal.II/base/utilities.h</text>
</a>
</g>
</g>
<!-- Node90&#45;&gt;Node64 -->
<g id="edge61" class="edge">
<title>Node90&#45;&gt;Node64</title>
<path fill="none" stroke="midnightblue" d="M2984.69,-201.48C2986.69,-192.99 2989.81,-179.7 2992.38,-168.82"/>
<polygon fill="midnightblue" stroke="midnightblue" points="2995.8,-169.54 2994.68,-159.01 2988.99,-167.94 2995.8,-169.54"/>
</g>
</g>
</svg>
