<?xml version="1.0" encoding="UTF-8" standalone="no"?>
<!DOCTYPE svg PUBLIC "-//W3C//DTD SVG 1.1//EN"
 "http://www.w3.org/Graphics/SVG/1.1/DTD/svg11.dtd">
<!-- Generated by graphviz version 2.43.0 (0)
 -->
<!-- Title: apps/serial/linear_visco_elasticity.cc Pages: 1 -->
<svg width="5204pt" height="296pt"
 viewBox="0.00 0.00 5203.69 296.00" xmlns="http://www.w3.org/2000/svg" xmlns:xlink="http://www.w3.org/1999/xlink">
<g id="graph0" class="graph" transform="scale(1 1) rotate(0) translate(4 292)">
<title>apps/serial/linear_visco_elasticity.cc</title>
<!-- Node1 -->
<g id="node1" class="node">
<title>Node1</title>
<g id="a_node1"><a xlink:title=" ">
<polygon fill="#bfbfbf" stroke="black" points="2846.69,-257.5 2846.69,-287.5 2956.69,-287.5 2956.69,-257.5 2846.69,-257.5"/>
<text text-anchor="start" x="2854.69" y="-275.5" font-family="Helvetica,sans-Serif" font-size="10.00">apps/serial/linear</text>
<text text-anchor="middle" x="2901.69" y="-264.5" font-family="Helvetica,sans-Serif" font-size="10.00">_visco_elasticity.cc</text>
</a>
</g>
</g>
<!-- Node2 -->
<g id="node2" class="node">
<title>Node2</title>
<g id="a_node2"><a xlink:href="linear__visco__elasticity_8h.html" target="_top" xlink:title=" ">
<polygon fill="none" stroke="black" points="2760.19,-201.5 2760.19,-220.5 2919.19,-220.5 2919.19,-201.5 2760.19,-201.5"/>
<text text-anchor="middle" x="2839.69" y="-208.5" font-family="Helvetica,sans-Serif" font-size="10.00">pdes/linear_visco_elasticity.h</text>
</a>
</g>
</g>
<!-- Node1&#45;&gt;Node2 -->
<g id="edge1" class="edge">
<title>Node1&#45;&gt;Node2</title>
<path fill="none" stroke="midnightblue" d="M2886.99,-257.4C2877.71,-248.49 2865.69,-236.95 2856.09,-227.74"/>
<polygon fill="midnightblue" stroke="midnightblue" points="2858.35,-225.06 2848.71,-220.66 2853.5,-230.11 2858.35,-225.06"/>
</g>
<!-- Node90 -->
<g id="node49" class="node">
<title>Node90</title>
<g id="a_node49"><a xlink:href="runner_8h.html" target="_top" xlink:title=" ">
<polygon fill="none" stroke="black" points="2950.69,-201.5 2950.69,-220.5 3006.69,-220.5 3006.69,-201.5 2950.69,-201.5"/>
<text text-anchor="middle" x="2978.69" y="-208.5" font-family="Helvetica,sans-Serif" font-size="10.00">runner.h</text>
</a>
</g>
</g>
<!-- Node1&#45;&gt;Node90 -->
<g id="edge60" class="edge">
<title>Node1&#45;&gt;Node90</title>
<path fill="none" stroke="midnightblue" d="M2919.93,-257.4C2931.82,-248.22 2947.29,-236.26 2959.38,-226.92"/>
<polygon fill="midnightblue" stroke="midnightblue" points="2961.71,-229.54 2967.48,-220.66 2957.43,-224 2961.71,-229.54"/>
</g>
<!-- Node3 -->
<g id="node3" class="node">
<title>Node3</title>
<g id="a_node3"><a xlink:href="constants_8h.html" target="_top" xlink:title=" ">
<polygon fill="none" stroke="black" points="5055.69,-73 5055.69,-92 5193.69,-92 5193.69,-73 5055.69,-73"/>
<text text-anchor="middle" x="5124.69" y="-80" font-family="Helvetica,sans-Serif" font-size="10.00">parsed_tools/constants.h</text>
</a>
</g>
</g>
<!-- Node2&#45;&gt;Node3 -->
<g id="edge2" class="edge">
<title>Node2&#45;&gt;Node3</title>
<path fill="none" stroke="midnightblue" d="M2848.27,-201.49C2867.6,-182.41 2913.57,-137.63 2922.69,-134 3032.32,-90.32 4929.26,-109.83 5046.69,-98 5056.25,-97.04 5066.39,-95.52 5076.09,-93.83"/>
<polygon fill="midnightblue" stroke="midnightblue" points="5076.78,-97.26 5085.99,-92.01 5075.52,-90.37 5076.78,-97.26"/>
</g>
<!-- Node6 -->
<g id="node6" class="node">
<title>Node6</title>
<g id="a_node6"><a xlink:href="mapping__eulerian_8h.html" target="_top" xlink:title=" ">
<polygon fill="none" stroke="black" points="248.19,-134.5 248.19,-164.5 373.19,-164.5 373.19,-134.5 248.19,-134.5"/>
<text text-anchor="start" x="256.19" y="-152.5" font-family="Helvetica,sans-Serif" font-size="10.00">parsed_tools/mapping</text>
<text text-anchor="middle" x="310.69" y="-141.5" font-family="Helvetica,sans-Serif" font-size="10.00">_eulerian.h</text>
</a>
</g>
</g>
<!-- Node2&#45;&gt;Node6 -->
<g id="edge5" class="edge">
<title>Node2&#45;&gt;Node6</title>
<path fill="none" stroke="midnightblue" d="M2760.17,-208.13C2379.75,-199.18 748.82,-160.81 383.49,-152.21"/>
<polygon fill="midnightblue" stroke="midnightblue" points="383.39,-148.71 373.31,-151.97 383.22,-155.71 383.39,-148.71"/>
</g>
<!-- Node15 -->
<g id="node14" class="node">
<title>Node15</title>
<g id="a_node14"><a xlink:href="linear__problem_8h.html" target="_top" xlink:title=" ">
<polygon fill="none" stroke="red" points="2750.19,-140 2750.19,-159 2875.19,-159 2875.19,-140 2750.19,-140"/>
<text text-anchor="middle" x="2812.69" y="-147" font-family="Helvetica,sans-Serif" font-size="10.00">pdes/linear_problem.h</text>
</a>
</g>
</g>
<!-- Node2&#45;&gt;Node15 -->
<g id="edge14" class="edge">
<title>Node2&#45;&gt;Node15</title>
<path fill="none" stroke="midnightblue" d="M2835.82,-201.48C2831.89,-192.82 2825.69,-179.15 2820.69,-168.15"/>
<polygon fill="midnightblue" stroke="midnightblue" points="2823.87,-166.67 2816.55,-159.01 2817.49,-169.56 2823.87,-166.67"/>
</g>
<!-- Node4 -->
<g id="node4" class="node">
<title>Node4</title>
<g id="a_node4"><a target="_parent" xlink:href="http://www.dealii.org/developer/doxygen/deal.II/parameter__acceptor_8h.html.html" xlink:title=" ">
<polygon fill="none" stroke="black" points="4161.19,-0.5 4161.19,-30.5 4288.19,-30.5 4288.19,-0.5 4161.19,-0.5"/>
<text text-anchor="start" x="4169.19" y="-18.5" font-family="Helvetica,sans-Serif" font-size="10.00">deal.II/base/parameter</text>
<text text-anchor="middle" x="4224.69" y="-7.5" font-family="Helvetica,sans-Serif" font-size="10.00">_acceptor.h</text>
</a>
</g>
</g>
<!-- Node3&#45;&gt;Node4 -->
<g id="edge3" class="edge">
<title>Node3&#45;&gt;Node4</title>
<path fill="none" stroke="midnightblue" d="M5083.95,-72.95C5071.99,-70.71 5058.85,-68.5 5046.69,-67 4771.95,-33.15 4442.63,-21.62 4298.42,-18.01"/>
<polygon fill="midnightblue" stroke="midnightblue" points="4298.44,-14.51 4288.36,-17.76 4298.27,-21.5 4298.44,-14.51"/>
</g>
<!-- Node5 -->
<g id="node5" class="node">
<title>Node5</title>
<g id="a_node5"><a target="_parent" xlink:href="http://www.dealii.org/developer/doxygen/deal.II/sd_8h.html.html" xlink:title=" ">
<polygon fill="none" stroke="black" points="5053.69,-6 5053.69,-25 5195.69,-25 5195.69,-6 5053.69,-6"/>
<text text-anchor="middle" x="5124.69" y="-13" font-family="Helvetica,sans-Serif" font-size="10.00">deal.II/differentiation/sd.h</text>
</a>
</g>
</g>
<!-- Node3&#45;&gt;Node5 -->
<g id="edge4" class="edge">
<title>Node3&#45;&gt;Node5</title>
<path fill="none" stroke="midnightblue" d="M5124.69,-72.73C5124.69,-63.18 5124.69,-47.62 5124.69,-35.28"/>
<polygon fill="midnightblue" stroke="midnightblue" points="5128.19,-35.13 5124.69,-25.13 5121.19,-35.13 5128.19,-35.13"/>
</g>
<!-- Node6&#45;&gt;Node4 -->
<g id="edge9" class="edge">
<title>Node6&#45;&gt;Node4</title>
<path fill="none" stroke="midnightblue" d="M309.26,-134.29C308.25,-115.54 309.76,-83.03 329.69,-67 368.38,-35.88 3616.59,-19.35 4150.74,-16.84"/>
<polygon fill="midnightblue" stroke="midnightblue" points="4151.03,-20.34 4161.01,-16.79 4150.99,-13.34 4151.03,-20.34"/>
</g>
<!-- Node7 -->
<g id="node7" class="node">
<title>Node7</title>
<g id="a_node7"><a target="_parent" xlink:href="http://www.dealii.org/developer/doxygen/deal.II/config_8h.html.html" xlink:title=" ">
<polygon fill="none" stroke="black" points="865.69,-6 865.69,-25 979.69,-25 979.69,-6 865.69,-6"/>
<text text-anchor="middle" x="922.69" y="-13" font-family="Helvetica,sans-Serif" font-size="10.00">deal.II/base/config.h</text>
</a>
</g>
</g>
<!-- Node6&#45;&gt;Node7 -->
<g id="edge6" class="edge">
<title>Node6&#45;&gt;Node7</title>
<path fill="none" stroke="midnightblue" d="M302.04,-134.38C292.21,-116.32 279.6,-85.22 296.69,-67 339.34,-21.52 794.95,-39.71 856.69,-31 863.87,-29.99 871.44,-28.61 878.79,-27.12"/>
<polygon fill="midnightblue" stroke="midnightblue" points="879.56,-30.53 888.61,-25.02 878.1,-23.69 879.56,-30.53"/>
</g>
<!-- Node8 -->
<g id="node8" class="node">
<title>Node8</title>
<g id="a_node8"><a target="_parent" xlink:href="http://www.dealii.org/developer/doxygen/deal.II/general__data__storage_8h.html.html" xlink:title=" ">
<polygon fill="none" stroke="black" points="247.69,-0.5 247.69,-30.5 381.69,-30.5 381.69,-0.5 247.69,-0.5"/>
<text text-anchor="start" x="255.69" y="-18.5" font-family="Helvetica,sans-Serif" font-size="10.00">deal.II/algorithms</text>
<text text-anchor="middle" x="314.69" y="-7.5" font-family="Helvetica,sans-Serif" font-size="10.00">/general_data_storage.h</text>
</a>
</g>
</g>
<!-- Node6&#45;&gt;Node8 -->
<g id="edge7" class="edge">
<title>Node6&#45;&gt;Node8</title>
<path fill="none" stroke="midnightblue" d="M248.08,-147.27C168.27,-144.23 37,-133.76 6.69,-98 -2.22,-87.49 -2.23,-77.5 6.69,-67 35.7,-32.84 155.83,-21.74 237.2,-18.16"/>
<polygon fill="midnightblue" stroke="midnightblue" points="237.57,-21.65 247.42,-17.74 237.28,-14.66 237.57,-21.65"/>
</g>
<!-- Node9 -->
<g id="node9" class="node">
<title>Node9</title>
<g id="a_node9"><a target="_parent" xlink:href="http://www.dealii.org/developer/doxygen/deal.II/function__parser_8h.html.html" xlink:title=" ">
<polygon fill="none" stroke="black" points="338.69,-67.5 338.69,-97.5 454.69,-97.5 454.69,-67.5 338.69,-67.5"/>
<text text-anchor="start" x="346.69" y="-85.5" font-family="Helvetica,sans-Serif" font-size="10.00">deal.II/base/function</text>
<text text-anchor="middle" x="396.69" y="-74.5" font-family="Helvetica,sans-Serif" font-size="10.00">_parser.h</text>
</a>
</g>
</g>
<!-- Node6&#45;&gt;Node9 -->
<g id="edge8" class="edge">
<title>Node6&#45;&gt;Node9</title>
<path fill="none" stroke="midnightblue" d="M329.35,-134.4C341.18,-125.45 356.68,-113.74 369.83,-103.8"/>
<polygon fill="midnightblue" stroke="midnightblue" points="372.19,-106.4 378.06,-97.58 367.97,-100.81 372.19,-106.4"/>
</g>
<!-- Node10 -->
<g id="node10" class="node">
<title>Node10</title>
<g id="a_node10"><a target="_parent" xlink:href="http://www.dealii.org/developer/doxygen/deal.II/dof__handler_8h.html.html" xlink:title=" ">
<polygon fill="none" stroke="red" points="472.69,-73 472.69,-92 612.69,-92 612.69,-73 472.69,-73"/>
<text text-anchor="middle" x="542.69" y="-80" font-family="Helvetica,sans-Serif" font-size="10.00">deal.II/dofs/dof_handler.h</text>
</a>
</g>
</g>
<!-- Node6&#45;&gt;Node10 -->
<g id="edge10" class="edge">
<title>Node6&#45;&gt;Node10</title>
<path fill="none" stroke="midnightblue" d="M360.74,-134.48C403.14,-122.6 463.14,-105.79 502.47,-94.77"/>
<polygon fill="midnightblue" stroke="midnightblue" points="503.56,-98.1 512.25,-92.03 501.67,-91.36 503.56,-98.1"/>
</g>
<!-- Node12 -->
<g id="node11" class="node">
<title>Node12</title>
<g id="a_node11"><a target="_parent" xlink:href="http://www.dealii.org/developer/doxygen/deal.II/mapping__fe__field_8h.html.html" xlink:title=" ">
<polygon fill="none" stroke="black" points="16.19,-67.5 16.19,-97.5 121.19,-97.5 121.19,-67.5 16.19,-67.5"/>
<text text-anchor="start" x="24.19" y="-85.5" font-family="Helvetica,sans-Serif" font-size="10.00">deal.II/fe/mapping</text>
<text text-anchor="middle" x="68.69" y="-74.5" font-family="Helvetica,sans-Serif" font-size="10.00">_fe_field.h</text>
</a>
</g>
</g>
<!-- Node6&#45;&gt;Node12 -->
<g id="edge11" class="edge">
<title>Node6&#45;&gt;Node12</title>
<path fill="none" stroke="midnightblue" d="M258.47,-134.48C221.07,-124.43 170.54,-110.86 131.02,-100.24"/>
<polygon fill="midnightblue" stroke="midnightblue" points="131.79,-96.82 121.22,-97.61 129.97,-103.59 131.79,-96.82"/>
</g>
<!-- Node13 -->
<g id="node12" class="node">
<title>Node13</title>
<g id="a_node12"><a target="_parent" xlink:href="http://www.dealii.org/developer/doxygen/deal.II/mapping__q__eulerian_8h.html.html" xlink:title=" ">
<polygon fill="none" stroke="black" points="139.19,-67.5 139.19,-97.5 244.19,-97.5 244.19,-67.5 139.19,-67.5"/>
<text text-anchor="start" x="147.19" y="-85.5" font-family="Helvetica,sans-Serif" font-size="10.00">deal.II/fe/mapping</text>
<text text-anchor="middle" x="191.69" y="-74.5" font-family="Helvetica,sans-Serif" font-size="10.00">_q_eulerian.h</text>
</a>
</g>
</g>
<!-- Node6&#45;&gt;Node13 -->
<g id="edge12" class="edge">
<title>Node6&#45;&gt;Node13</title>
<path fill="none" stroke="midnightblue" d="M284.86,-134.4C267.71,-125.03 244.99,-112.62 226.28,-102.39"/>
<polygon fill="midnightblue" stroke="midnightblue" points="227.91,-99.3 217.46,-97.58 224.56,-105.44 227.91,-99.3"/>
</g>
<!-- Node14 -->
<g id="node13" class="node">
<title>Node14</title>
<g id="a_node13"><a target="_parent" xlink:href="http://www.dealii.org/developer/doxygen/deal.II/vector__tools_8h.html.html" xlink:title=" ">
<polygon fill="none" stroke="black" points="630.69,-67.5 630.69,-97.5 758.69,-97.5 758.69,-67.5 630.69,-67.5"/>
<text text-anchor="start" x="638.69" y="-85.5" font-family="Helvetica,sans-Serif" font-size="10.00">deal.II/numerics/vector</text>
<text text-anchor="middle" x="694.69" y="-74.5" font-family="Helvetica,sans-Serif" font-size="10.00">_tools.h</text>
</a>
</g>
</g>
<!-- Node6&#45;&gt;Node14 -->
<g id="edge13" class="edge">
<title>Node6&#45;&gt;Node14</title>
<path fill="none" stroke="midnightblue" d="M373.34,-138.99C434.02,-129.63 528.87,-114.6 620.6,-98.16"/>
<polygon fill="midnightblue" stroke="midnightblue" points="621.39,-101.57 630.62,-96.36 620.15,-94.68 621.39,-101.57"/>
</g>
<!-- Node15&#45;&gt;Node3 -->
<g id="edge59" class="edge">
<title>Node15&#45;&gt;Node3</title>
<path fill="none" stroke="midnightblue" d="M2850.88,-139.98C2863.2,-137.59 2876.96,-135.29 2889.69,-134 3843.56,-36.93 4092.7,-193.95 5046.69,-98 5056.25,-97.04 5066.39,-95.52 5076.09,-93.83"/>
<polygon fill="midnightblue" stroke="midnightblue" points="5076.78,-97.26 5085.99,-92.01 5075.52,-90.37 5076.78,-97.26"/>
</g>
<!-- Node15&#45;&gt;Node4 -->
<g id="edge19" class="edge">
<title>Node15&#45;&gt;Node4</title>
<path fill="none" stroke="midnightblue" d="M2851.28,-139.98C2863.5,-137.62 2877.11,-135.34 2889.69,-134 2966.83,-125.8 4231.54,-153.56 4285.69,-98 4304.36,-78.84 4279.61,-53.83 4256.27,-36.6"/>
<polygon fill="midnightblue" stroke="midnightblue" points="4258,-33.54 4247.81,-30.63 4253.96,-39.26 4258,-33.54"/>
</g>
<!-- Node15&#45;&gt;Node9 -->
<g id="edge18" class="edge">
<title>Node15&#45;&gt;Node9</title>
<path fill="none" stroke="midnightblue" d="M2750.04,-148.78C2426.98,-149.96 946.17,-152.33 465.18,-97.99"/>
<polygon fill="midnightblue" stroke="midnightblue" points="465.38,-94.49 455.04,-96.82 464.57,-101.44 465.38,-94.49"/>
</g>
<!-- Node15&#45;&gt;Node10 -->
<g id="edge25" class="edge">
<title>Node15&#45;&gt;Node10</title>
<path fill="none" stroke="midnightblue" d="M2749.96,-148.4C2437.91,-147.68 1050.69,-142.03 621.69,-98 612.11,-97.02 601.96,-95.51 592.23,-93.83"/>
<polygon fill="midnightblue" stroke="midnightblue" points="592.76,-90.37 582.29,-92.04 591.51,-97.26 592.76,-90.37"/>
</g>
<!-- Node15&#45;&gt;Node14 -->
<g id="edge45" class="edge">
<title>Node15&#45;&gt;Node14</title>
<path fill="none" stroke="midnightblue" d="M2750.13,-148.29C2451.63,-147.1 1170.18,-139.6 772.69,-98 771.41,-97.87 770.13,-97.72 768.84,-97.57"/>
<polygon fill="midnightblue" stroke="midnightblue" points="769.21,-94.09 758.84,-96.26 768.3,-101.03 769.21,-94.09"/>
</g>
<!-- Node16 -->
<g id="node15" class="node">
<title>Node16</title>
<g id="a_node15"><a target="_parent" xlink:href="http://www.dealii.org/developer/doxygen/deal.II/conditional__ostream_8h.html.html" xlink:title=" ">
<polygon fill="none" stroke="black" points="4332.69,-67.5 4332.69,-97.5 4462.69,-97.5 4462.69,-67.5 4332.69,-67.5"/>
<text text-anchor="start" x="4340.69" y="-85.5" font-family="Helvetica,sans-Serif" font-size="10.00">deal.II/base/conditional</text>
<text text-anchor="middle" x="4397.69" y="-74.5" font-family="Helvetica,sans-Serif" font-size="10.00">_ostream.h</text>
</a>
</g>
</g>
<!-- Node15&#45;&gt;Node16 -->
<g id="edge15" class="edge">
<title>Node15&#45;&gt;Node16</title>
<path fill="none" stroke="midnightblue" d="M2851.28,-139.97C2863.5,-137.61 2877.11,-135.33 2889.69,-134 3521.46,-67 3686.76,-163.55 4318.69,-98 4319.8,-97.88 4320.91,-97.76 4322.04,-97.63"/>
<polygon fill="midnightblue" stroke="midnightblue" points="4322.8,-101.06 4332.28,-96.32 4321.91,-94.12 4322.8,-101.06"/>
</g>
<!-- Node17 -->
<g id="node16" class="node">
<title>Node17</title>
<g id="a_node16"><a target="_parent" xlink:href="http://www.dealii.org/developer/doxygen/deal.II/convergence__table_8h.html.html" xlink:title=" ">
<polygon fill="none" stroke="black" points="4480.69,-67.5 4480.69,-97.5 4618.69,-97.5 4618.69,-67.5 4480.69,-67.5"/>
<text text-anchor="start" x="4488.69" y="-85.5" font-family="Helvetica,sans-Serif" font-size="10.00">deal.II/base/convergence</text>
<text text-anchor="middle" x="4549.69" y="-74.5" font-family="Helvetica,sans-Serif" font-size="10.00">_table.h</text>
</a>
</g>
</g>
<!-- Node15&#45;&gt;Node17 -->
<g id="edge16" class="edge">
<title>Node15&#45;&gt;Node17</title>
<path fill="none" stroke="midnightblue" d="M2851.28,-139.95C2863.5,-137.59 2877.1,-135.32 2889.69,-134 3585.82,-61.03 3770.39,-169.46 4470.37,-98.01"/>
<polygon fill="midnightblue" stroke="midnightblue" points="4470.86,-101.48 4480.45,-96.97 4470.14,-94.51 4470.86,-101.48"/>
</g>
<!-- Node18 -->
<g id="node17" class="node">
<title>Node18</title>
<g id="a_node17"><a target="_parent" xlink:href="http://www.dealii.org/developer/doxygen/deal.II/function_8h.html.html" xlink:title=" ">
<polygon fill="none" stroke="black" points="4637.19,-73 4637.19,-92 4762.19,-92 4762.19,-73 4637.19,-73"/>
<text text-anchor="middle" x="4699.69" y="-80" font-family="Helvetica,sans-Serif" font-size="10.00">deal.II/base/function.h</text>
</a>
</g>
</g>
<!-- Node15&#45;&gt;Node18 -->
<g id="edge17" class="edge">
<title>Node15&#45;&gt;Node18</title>
<path fill="none" stroke="midnightblue" d="M2851.28,-139.94C2863.5,-137.58 2877.1,-135.31 2889.69,-134 3658.17,-54.24 3859.72,-182.6 4627.69,-98 4636.16,-97.07 4645.11,-95.63 4653.73,-94.02"/>
<polygon fill="midnightblue" stroke="midnightblue" points="4654.49,-97.44 4663.62,-92.07 4653.14,-90.57 4654.49,-97.44"/>
</g>
<!-- Node19 -->
<g id="node18" class="node">
<title>Node19</title>
<g id="a_node18"><a target="_parent" xlink:href="http://www.dealii.org/developer/doxygen/deal.II/quadrature__lib_8h.html.html" xlink:title=" ">
<polygon fill="none" stroke="black" points="4780.19,-67.5 4780.19,-97.5 4909.19,-97.5 4909.19,-67.5 4780.19,-67.5"/>
<text text-anchor="start" x="4788.19" y="-85.5" font-family="Helvetica,sans-Serif" font-size="10.00">deal.II/base/quadrature</text>
<text text-anchor="middle" x="4844.69" y="-74.5" font-family="Helvetica,sans-Serif" font-size="10.00">_lib.h</text>
</a>
</g>
</g>
<!-- Node15&#45;&gt;Node19 -->
<g id="edge20" class="edge">
<title>Node15&#45;&gt;Node19</title>
<path fill="none" stroke="midnightblue" d="M2851.28,-139.93C2863.5,-137.56 2877.1,-135.3 2889.69,-134 3718.53,-48.64 3938.16,-186.73 4769.78,-98.07"/>
<polygon fill="midnightblue" stroke="midnightblue" points="4770.33,-101.53 4779.9,-96.99 4769.58,-94.57 4770.33,-101.53"/>
</g>
<!-- Node20 -->
<g id="node19" class="node">
<title>Node20</title>
<g id="a_node19"><a target="_parent" xlink:href="http://www.dealii.org/developer/doxygen/deal.II/timer_8h.html.html" xlink:title=" ">
<polygon fill="none" stroke="black" points="4927.69,-73 4927.69,-92 5037.69,-92 5037.69,-73 4927.69,-73"/>
<text text-anchor="middle" x="4982.69" y="-80" font-family="Helvetica,sans-Serif" font-size="10.00">deal.II/base/timer.h</text>
</a>
</g>
</g>
<!-- Node15&#45;&gt;Node20 -->
<g id="edge21" class="edge">
<title>Node15&#45;&gt;Node20</title>
<path fill="none" stroke="midnightblue" d="M2850.88,-139.99C2863.21,-137.6 2876.97,-135.3 2889.69,-134 3338.31,-88.11 4470.98,-152.11 4918.69,-98 4926,-97.12 4933.69,-95.76 4941.12,-94.21"/>
<polygon fill="midnightblue" stroke="midnightblue" points="4942,-97.6 4951.01,-92.03 4940.49,-90.77 4942,-97.6"/>
</g>
<!-- Node21 -->
<g id="node20" class="node">
<title>Node21</title>
<g id="a_node20"><a target="_parent" xlink:href="http://www.dealii.org/developer/doxygen/deal.II/distributed_2grid__refinement_8h.html.html" xlink:title=" ">
<polygon fill="none" stroke="black" points="940.69,-67.5 940.69,-97.5 1046.69,-97.5 1046.69,-67.5 940.69,-67.5"/>
<text text-anchor="start" x="948.69" y="-85.5" font-family="Helvetica,sans-Serif" font-size="10.00">deal.II/distributed</text>
<text text-anchor="middle" x="993.69" y="-74.5" font-family="Helvetica,sans-Serif" font-size="10.00">/grid_refinement.h</text>
</a>
</g>
</g>
<!-- Node15&#45;&gt;Node21 -->
<g id="edge22" class="edge">
<title>Node15&#45;&gt;Node21</title>
<path fill="none" stroke="midnightblue" d="M2749.91,-148.39C2479.71,-147.64 1413.86,-141.99 1057.09,-97.96"/>
<polygon fill="midnightblue" stroke="midnightblue" points="1057.36,-94.47 1047,-96.68 1056.48,-101.42 1057.36,-94.47"/>
</g>
<!-- Node22 -->
<g id="node21" class="node">
<title>Node22</title>
<g id="a_node21"><a target="_parent" xlink:href="http://www.dealii.org/developer/doxygen/deal.II/shared__tria_8h.html.html" xlink:title=" ">
<polygon fill="none" stroke="black" points="1064.69,-67.5 1064.69,-97.5 1166.69,-97.5 1166.69,-67.5 1064.69,-67.5"/>
<text text-anchor="start" x="1072.69" y="-85.5" font-family="Helvetica,sans-Serif" font-size="10.00">deal.II/distributed</text>
<text text-anchor="middle" x="1115.69" y="-74.5" font-family="Helvetica,sans-Serif" font-size="10.00">/shared_tria.h</text>
</a>
</g>
</g>
<!-- Node15&#45;&gt;Node22 -->
<g id="edge23" class="edge">
<title>Node15&#45;&gt;Node22</title>
<path fill="none" stroke="midnightblue" d="M2749.84,-148.29C2491.37,-147.18 1508.73,-140.28 1177.04,-97.95"/>
<polygon fill="midnightblue" stroke="midnightblue" points="1177.31,-94.46 1166.94,-96.62 1176.4,-101.4 1177.31,-94.46"/>
</g>
<!-- Node23 -->
<g id="node22" class="node">
<title>Node23</title>
<g id="a_node22"><a target="_parent" xlink:href="http://www.dealii.org/developer/doxygen/deal.II/distributed_2tria_8h.html.html" xlink:title=" ">
<polygon fill="none" stroke="black" points="1184.69,-67.5 1184.69,-97.5 1286.69,-97.5 1286.69,-67.5 1184.69,-67.5"/>
<text text-anchor="start" x="1192.69" y="-85.5" font-family="Helvetica,sans-Serif" font-size="10.00">deal.II/distributed</text>
<text text-anchor="middle" x="1235.69" y="-74.5" font-family="Helvetica,sans-Serif" font-size="10.00">/tria.h</text>
</a>
</g>
</g>
<!-- Node15&#45;&gt;Node23 -->
<g id="edge24" class="edge">
<title>Node15&#45;&gt;Node23</title>
<path fill="none" stroke="midnightblue" d="M2749.87,-148.12C2503.76,-146.35 1604.08,-137.36 1297.17,-97.97"/>
<polygon fill="midnightblue" stroke="midnightblue" points="1297.32,-94.46 1286.94,-96.61 1296.4,-101.4 1297.32,-94.46"/>
</g>
<!-- Node24 -->
<g id="node23" class="node">
<title>Node24</title>
<g id="a_node23"><a target="_parent" xlink:href="http://www.dealii.org/developer/doxygen/deal.II/dof__tools_8h.html.html" xlink:title=" ">
<polygon fill="none" stroke="black" points="1304.69,-73 1304.69,-92 1432.69,-92 1432.69,-73 1304.69,-73"/>
<text text-anchor="middle" x="1368.69" y="-80" font-family="Helvetica,sans-Serif" font-size="10.00">deal.II/dofs/dof_tools.h</text>
</a>
</g>
</g>
<!-- Node15&#45;&gt;Node24 -->
<g id="edge26" class="edge">
<title>Node15&#45;&gt;Node24</title>
<path fill="none" stroke="midnightblue" d="M2750.09,-147.52C2517.1,-143.66 1700.29,-128.25 1441.69,-98 1433.2,-97.01 1424.23,-95.56 1415.59,-93.96"/>
<polygon fill="midnightblue" stroke="midnightblue" points="1416.13,-90.5 1405.64,-92.03 1414.79,-97.37 1416.13,-90.5"/>
</g>
<!-- Node25 -->
<g id="node24" class="node">
<title>Node25</title>
<g id="a_node24"><a target="_parent" xlink:href="http://www.dealii.org/developer/doxygen/deal.II/fe__q_8h.html.html" xlink:title=" ">
<polygon fill="none" stroke="black" points="1450.69,-73 1450.69,-92 1542.69,-92 1542.69,-73 1450.69,-73"/>
<text text-anchor="middle" x="1496.69" y="-80" font-family="Helvetica,sans-Serif" font-size="10.00">deal.II/fe/fe_q.h</text>
</a>
</g>
</g>
<!-- Node15&#45;&gt;Node25 -->
<g id="edge27" class="edge">
<title>Node15&#45;&gt;Node25</title>
<path fill="none" stroke="midnightblue" d="M2750.17,-147.8C2529.37,-145.03 1786.78,-133.27 1551.69,-98 1546.07,-97.16 1540.2,-95.96 1534.48,-94.61"/>
<polygon fill="midnightblue" stroke="midnightblue" points="1534.97,-91.13 1524.42,-92.07 1533.26,-97.92 1534.97,-91.13"/>
</g>
<!-- Node26 -->
<g id="node25" class="node">
<title>Node26</title>
<g id="a_node25"><a target="_parent" xlink:href="http://www.dealii.org/developer/doxygen/deal.II/fe_2fe__values_8h.html.html" xlink:title=" ">
<polygon fill="none" stroke="black" points="1561.19,-73 1561.19,-92 1680.19,-92 1680.19,-73 1561.19,-73"/>
<text text-anchor="middle" x="1620.69" y="-80" font-family="Helvetica,sans-Serif" font-size="10.00">deal.II/fe/fe_values.h</text>
</a>
</g>
</g>
<!-- Node15&#45;&gt;Node26 -->
<g id="edge28" class="edge">
<title>Node15&#45;&gt;Node26</title>
<path fill="none" stroke="midnightblue" d="M2749.99,-149.23C2579.12,-150.46 2091.19,-148.87 1689.69,-98 1681.92,-97.02 1673.72,-95.62 1665.8,-94.07"/>
<polygon fill="midnightblue" stroke="midnightblue" points="1666.45,-90.64 1655.96,-92.06 1665.05,-97.49 1666.45,-90.64"/>
</g>
<!-- Node27 -->
<g id="node26" class="node">
<title>Node27</title>
<g id="a_node26"><a target="_parent" xlink:href="http://www.dealii.org/developer/doxygen/deal.II/fe__values__extractors_8h.html.html" xlink:title=" ">
<polygon fill="none" stroke="black" points="1698.69,-67.5 1698.69,-97.5 1808.69,-97.5 1808.69,-67.5 1698.69,-67.5"/>
<text text-anchor="start" x="1706.69" y="-85.5" font-family="Helvetica,sans-Serif" font-size="10.00">deal.II/fe/fe_values</text>
<text text-anchor="middle" x="1753.69" y="-74.5" font-family="Helvetica,sans-Serif" font-size="10.00">_extractors.h</text>
</a>
</g>
</g>
<!-- Node15&#45;&gt;Node27 -->
<g id="edge29" class="edge">
<title>Node15&#45;&gt;Node27</title>
<path fill="none" stroke="midnightblue" d="M2750.05,-149.05C2594.03,-149.61 2175.53,-146.23 1818.74,-97.97"/>
<polygon fill="midnightblue" stroke="midnightblue" points="1819.12,-94.49 1808.73,-96.6 1818.17,-101.43 1819.12,-94.49"/>
</g>
<!-- Node28 -->
<g id="node27" class="node">
<title>Node28</title>
<g id="a_node27"><a target="_parent" xlink:href="http://www.dealii.org/developer/doxygen/deal.II/mapping__q__generic_8h.html.html" xlink:title=" ">
<polygon fill="none" stroke="black" points="1827.19,-67.5 1827.19,-97.5 1932.19,-97.5 1932.19,-67.5 1827.19,-67.5"/>
<text text-anchor="start" x="1835.19" y="-85.5" font-family="Helvetica,sans-Serif" font-size="10.00">deal.II/fe/mapping</text>
<text text-anchor="middle" x="1879.69" y="-74.5" font-family="Helvetica,sans-Serif" font-size="10.00">_q_generic.h</text>
</a>
</g>
</g>
<!-- Node15&#45;&gt;Node28 -->
<g id="edge30" class="edge">
<title>Node15&#45;&gt;Node28</title>
<path fill="none" stroke="midnightblue" d="M2749.92,-148.63C2607.56,-148.11 2249.32,-142.24 1942.46,-98.1"/>
<polygon fill="midnightblue" stroke="midnightblue" points="1942.88,-94.62 1932.48,-96.65 1941.87,-101.55 1942.88,-94.62"/>
</g>
<!-- Node29 -->
<g id="node28" class="node">
<title>Node29</title>
<g id="a_node28"><a target="_parent" xlink:href="http://www.dealii.org/developer/doxygen/deal.II/grid__generator_8h.html.html" xlink:title=" ">
<polygon fill="none" stroke="red" points="1950.19,-73 1950.19,-92 2101.19,-92 2101.19,-73 1950.19,-73"/>
<text text-anchor="middle" x="2025.69" y="-80" font-family="Helvetica,sans-Serif" font-size="10.00">deal.II/grid/grid_generator.h</text>
</a>
</g>
</g>
<!-- Node15&#45;&gt;Node29 -->
<g id="edge31" class="edge">
<title>Node15&#45;&gt;Node29</title>
<path fill="none" stroke="midnightblue" d="M2749.94,-146.08C2626.82,-140.88 2345.02,-126.69 2109.69,-98 2100.09,-96.83 2089.93,-95.31 2080.1,-93.7"/>
<polygon fill="midnightblue" stroke="midnightblue" points="2080.47,-90.22 2070.03,-92 2079.31,-97.12 2080.47,-90.22"/>
</g>
<!-- Node30 -->
<g id="node29" class="node">
<title>Node30</title>
<g id="a_node29"><a target="_parent" xlink:href="http://www.dealii.org/developer/doxygen/deal.II/grid_2tria_8h.html.html" xlink:title=" ">
<polygon fill="none" stroke="black" points="2119.19,-73 2119.19,-92 2216.19,-92 2216.19,-73 2119.19,-73"/>
<text text-anchor="middle" x="2167.69" y="-80" font-family="Helvetica,sans-Serif" font-size="10.00">deal.II/grid/tria.h</text>
</a>
</g>
</g>
<!-- Node15&#45;&gt;Node30 -->
<g id="edge32" class="edge">
<title>Node15&#45;&gt;Node30</title>
<path fill="none" stroke="midnightblue" d="M2750.04,-146.48C2642.09,-142.25 2414.36,-130.05 2224.69,-98 2219.09,-97.05 2213.23,-95.83 2207.49,-94.5"/>
<polygon fill="midnightblue" stroke="midnightblue" points="2207.91,-91.01 2197.37,-92.03 2206.25,-97.8 2207.91,-91.01"/>
</g>
<!-- Node31 -->
<g id="node30" class="node">
<title>Node31</title>
<g id="a_node30"><a target="_parent" xlink:href="http://www.dealii.org/developer/doxygen/deal.II/affine__constraints_8h.html.html" xlink:title=" ">
<polygon fill="none" stroke="black" points="2234.19,-67.5 2234.19,-97.5 2329.19,-97.5 2329.19,-67.5 2234.19,-67.5"/>
<text text-anchor="start" x="2242.19" y="-85.5" font-family="Helvetica,sans-Serif" font-size="10.00">deal.II/lac/affine</text>
<text text-anchor="middle" x="2281.69" y="-74.5" font-family="Helvetica,sans-Serif" font-size="10.00">_constraints.h</text>
</a>
</g>
</g>
<!-- Node15&#45;&gt;Node31 -->
<g id="edge33" class="edge">
<title>Node15&#45;&gt;Node31</title>
<path fill="none" stroke="midnightblue" d="M2750.17,-144.7C2661.07,-138.65 2492.35,-124.86 2339.51,-97.97"/>
<polygon fill="midnightblue" stroke="midnightblue" points="2339.93,-94.49 2329.47,-96.18 2338.7,-101.38 2339.93,-94.49"/>
</g>
<!-- Node32 -->
<g id="node31" class="node">
<title>Node32</title>
<g id="a_node31"><a target="_parent" xlink:href="http://www.dealii.org/developer/doxygen/deal.II/dynamic__sparsity__pattern_8h.html.html" xlink:title=" ">
<polygon fill="none" stroke="black" points="2347.69,-67.5 2347.69,-97.5 2457.69,-97.5 2457.69,-67.5 2347.69,-67.5"/>
<text text-anchor="start" x="2355.69" y="-85.5" font-family="Helvetica,sans-Serif" font-size="10.00">deal.II/lac/dynamic</text>
<text text-anchor="middle" x="2402.69" y="-74.5" font-family="Helvetica,sans-Serif" font-size="10.00">_sparsity_pattern.h</text>
</a>
</g>
</g>
<!-- Node15&#45;&gt;Node32 -->
<g id="edge34" class="edge">
<title>Node15&#45;&gt;Node32</title>
<path fill="none" stroke="midnightblue" d="M2749.94,-140.84C2682.6,-132.27 2572.32,-117.29 2467.88,-98.14"/>
<polygon fill="midnightblue" stroke="midnightblue" points="2468.26,-94.65 2457.79,-96.27 2466.98,-101.53 2468.26,-94.65"/>
</g>
<!-- Node33 -->
<g id="node32" class="node">
<title>Node33</title>
<g id="a_node32"><a target="_parent" xlink:href="http://www.dealii.org/developer/doxygen/deal.II/full__matrix_8h.html.html" xlink:title=" ">
<polygon fill="none" stroke="black" points="2476.19,-73 2476.19,-92 2605.19,-92 2605.19,-73 2476.19,-73"/>
<text text-anchor="middle" x="2540.69" y="-80" font-family="Helvetica,sans-Serif" font-size="10.00">deal.II/lac/full_matrix.h</text>
</a>
</g>
</g>
<!-- Node15&#45;&gt;Node33 -->
<g id="edge35" class="edge">
<title>Node15&#45;&gt;Node33</title>
<path fill="none" stroke="midnightblue" d="M2776.85,-139.94C2727.92,-128.24 2640.2,-107.28 2586.54,-94.46"/>
<polygon fill="midnightblue" stroke="midnightblue" points="2587.14,-91 2576.6,-92.08 2585.52,-97.81 2587.14,-91"/>
</g>
<!-- Node34 -->
<g id="node33" class="node">
<title>Node34</title>
<g id="a_node33"><a target="_parent" xlink:href="http://www.dealii.org/developer/doxygen/deal.II/generic__linear__algebra_8h.html.html" xlink:title=" ">
<polygon fill="none" stroke="black" points="2623.19,-67.5 2623.19,-97.5 2726.19,-97.5 2726.19,-67.5 2623.19,-67.5"/>
<text text-anchor="start" x="2631.19" y="-85.5" font-family="Helvetica,sans-Serif" font-size="10.00">deal.II/lac/generic</text>
<text text-anchor="middle" x="2674.69" y="-74.5" font-family="Helvetica,sans-Serif" font-size="10.00">_linear_algebra.h</text>
</a>
</g>
</g>
<!-- Node15&#45;&gt;Node34 -->
<g id="edge36" class="edge">
<title>Node15&#45;&gt;Node34</title>
<path fill="none" stroke="midnightblue" d="M2794.36,-139.87C2773.92,-130.24 2740.26,-114.39 2713.84,-101.94"/>
<polygon fill="midnightblue" stroke="midnightblue" points="2715.01,-98.62 2704.47,-97.53 2712.02,-104.96 2715.01,-98.62"/>
</g>
<!-- Node35 -->
<g id="node34" class="node">
<title>Node35</title>
<g id="a_node34"><a target="_parent" xlink:href="http://www.dealii.org/developer/doxygen/deal.II/precondition_8h.html.html" xlink:title=" ">
<polygon fill="none" stroke="black" points="2744.19,-73 2744.19,-92 2881.19,-92 2881.19,-73 2744.19,-73"/>
<text text-anchor="middle" x="2812.69" y="-80" font-family="Helvetica,sans-Serif" font-size="10.00">deal.II/lac/precondition.h</text>
</a>
</g>
</g>
<!-- Node15&#45;&gt;Node35 -->
<g id="edge37" class="edge">
<title>Node15&#45;&gt;Node35</title>
<path fill="none" stroke="midnightblue" d="M2812.69,-139.73C2812.69,-130.18 2812.69,-114.62 2812.69,-102.28"/>
<polygon fill="midnightblue" stroke="midnightblue" points="2816.19,-102.13 2812.69,-92.13 2809.19,-102.13 2816.19,-102.13"/>
</g>
<!-- Node36 -->
<g id="node35" class="node">
<title>Node36</title>
<g id="a_node35"><a target="_parent" xlink:href="http://www.dealii.org/developer/doxygen/deal.II/solver__cg_8h.html.html" xlink:title=" ">
<polygon fill="none" stroke="black" points="725.69,-6 725.69,-25 847.69,-25 847.69,-6 725.69,-6"/>
<text text-anchor="middle" x="786.69" y="-13" font-family="Helvetica,sans-Serif" font-size="10.00">deal.II/lac/solver_cg.h</text>
</a>
</g>
</g>
<!-- Node15&#45;&gt;Node36 -->
<g id="edge38" class="edge">
<title>Node15&#45;&gt;Node36</title>
<path fill="none" stroke="midnightblue" d="M2750.07,-147.97C2414.66,-145 844.3,-129.45 805.69,-98 787.41,-83.11 784.67,-54.36 785.11,-35.3"/>
<polygon fill="midnightblue" stroke="midnightblue" points="788.61,-35.31 785.67,-25.13 781.63,-34.92 788.61,-35.31"/>
</g>
<!-- Node37 -->
<g id="node36" class="node">
<title>Node37</title>
<g id="a_node36"><a target="_parent" xlink:href="http://www.dealii.org/developer/doxygen/deal.II/sparse__matrix_8h.html.html" xlink:title=" ">
<polygon fill="none" stroke="black" points="2899.19,-67.5 2899.19,-97.5 2998.19,-97.5 2998.19,-67.5 2899.19,-67.5"/>
<text text-anchor="start" x="2907.19" y="-85.5" font-family="Helvetica,sans-Serif" font-size="10.00">deal.II/lac/sparse</text>
<text text-anchor="middle" x="2948.69" y="-74.5" font-family="Helvetica,sans-Serif" font-size="10.00">_matrix.h</text>
</a>
</g>
</g>
<!-- Node15&#45;&gt;Node37 -->
<g id="edge39" class="edge">
<title>Node15&#45;&gt;Node37</title>
<path fill="none" stroke="midnightblue" d="M2830.75,-139.87C2850.89,-130.24 2884.06,-114.39 2910.1,-101.94"/>
<polygon fill="midnightblue" stroke="midnightblue" points="2911.82,-105 2919.34,-97.53 2908.8,-98.68 2911.82,-105"/>
</g>
<!-- Node38 -->
<g id="node37" class="node">
<title>Node38</title>
<g id="a_node37"><a target="_parent" xlink:href="http://www.dealii.org/developer/doxygen/deal.II/vector_8h.html.html" xlink:title=" ">
<polygon fill="none" stroke="black" points="3016.69,-73 3016.69,-92 3122.69,-92 3122.69,-73 3016.69,-73"/>
<text text-anchor="middle" x="3069.69" y="-80" font-family="Helvetica,sans-Serif" font-size="10.00">deal.II/lac/vector.h</text>
</a>
</g>
</g>
<!-- Node15&#45;&gt;Node38 -->
<g id="edge40" class="edge">
<title>Node15&#45;&gt;Node38</title>
<path fill="none" stroke="midnightblue" d="M2846.55,-139.94C2892.68,-128.27 2975.32,-107.37 3026.05,-94.54"/>
<polygon fill="midnightblue" stroke="midnightblue" points="3026.91,-97.93 3035.75,-92.08 3025.2,-91.14 3026.91,-97.93"/>
</g>
<!-- Node39 -->
<g id="node38" class="node">
<title>Node39</title>
<g id="a_node38"><a target="_parent" xlink:href="http://www.dealii.org/developer/doxygen/deal.II/copy__data_8h.html.html" xlink:title=" ">
<polygon fill="none" stroke="black" points="3140.69,-67.5 3140.69,-97.5 3250.69,-97.5 3250.69,-67.5 3140.69,-67.5"/>
<text text-anchor="start" x="3148.69" y="-85.5" font-family="Helvetica,sans-Serif" font-size="10.00">deal.II/meshworker</text>
<text text-anchor="middle" x="3195.69" y="-74.5" font-family="Helvetica,sans-Serif" font-size="10.00">/copy_data.h</text>
</a>
</g>
</g>
<!-- Node15&#45;&gt;Node39 -->
<g id="edge41" class="edge">
<title>Node15&#45;&gt;Node39</title>
<path fill="none" stroke="midnightblue" d="M2856.61,-139.93C2867.41,-137.9 2878.95,-135.81 2889.69,-134 2993.77,-116.46 3023.1,-117.92 3130.63,-98.11"/>
<polygon fill="midnightblue" stroke="midnightblue" points="3131.39,-101.53 3140.58,-96.26 3130.11,-94.65 3131.39,-101.53"/>
</g>
<!-- Node40 -->
<g id="node39" class="node">
<title>Node40</title>
<g id="a_node39"><a target="_parent" xlink:href="http://www.dealii.org/developer/doxygen/deal.II/scratch__data_8h.html.html" xlink:title=" ">
<polygon fill="none" stroke="black" points="3268.69,-67.5 3268.69,-97.5 3378.69,-97.5 3378.69,-67.5 3268.69,-67.5"/>
<text text-anchor="start" x="3276.69" y="-85.5" font-family="Helvetica,sans-Serif" font-size="10.00">deal.II/meshworker</text>
<text text-anchor="middle" x="3323.69" y="-74.5" font-family="Helvetica,sans-Serif" font-size="10.00">/scratch_data.h</text>
</a>
</g>
</g>
<!-- Node15&#45;&gt;Node40 -->
<g id="edge42" class="edge">
<title>Node15&#45;&gt;Node40</title>
<path fill="none" stroke="midnightblue" d="M2854.13,-139.99C2865.61,-137.83 2878.1,-135.65 2889.69,-134 3050.06,-111.14 3094.83,-123.79 3258.68,-98.03"/>
<polygon fill="midnightblue" stroke="midnightblue" points="3259.29,-101.47 3268.61,-96.44 3258.19,-94.56 3259.29,-101.47"/>
</g>
<!-- Node41 -->
<g id="node40" class="node">
<title>Node41</title>
<g id="a_node40"><a target="_parent" xlink:href="http://www.dealii.org/developer/doxygen/deal.II/numerics_2data__out_8h.html.html" xlink:title=" ">
<polygon fill="none" stroke="black" points="3397.19,-67.5 3397.19,-97.5 3516.19,-97.5 3516.19,-67.5 3397.19,-67.5"/>
<text text-anchor="start" x="3405.19" y="-85.5" font-family="Helvetica,sans-Serif" font-size="10.00">deal.II/numerics/data</text>
<text text-anchor="middle" x="3456.69" y="-74.5" font-family="Helvetica,sans-Serif" font-size="10.00">_out.h</text>
</a>
</g>
</g>
<!-- Node15&#45;&gt;Node41 -->
<g id="edge43" class="edge">
<title>Node15&#45;&gt;Node41</title>
<path fill="none" stroke="midnightblue" d="M2853.31,-139.95C2865.01,-137.74 2877.82,-135.54 2889.69,-134 3106.53,-105.84 3166.2,-128.21 3386.98,-97.96"/>
<polygon fill="midnightblue" stroke="midnightblue" points="3387.51,-101.42 3396.93,-96.57 3386.55,-94.48 3387.51,-101.42"/>
</g>
<!-- Node42 -->
<g id="node41" class="node">
<title>Node42</title>
<g id="a_node41"><a target="_parent" xlink:href="http://www.dealii.org/developer/doxygen/deal.II/matrix__tools_8h.html.html" xlink:title=" ">
<polygon fill="none" stroke="red" points="3534.69,-67.5 3534.69,-97.5 3664.69,-97.5 3664.69,-67.5 3534.69,-67.5"/>
<text text-anchor="start" x="3542.69" y="-85.5" font-family="Helvetica,sans-Serif" font-size="10.00">deal.II/numerics/matrix</text>
<text text-anchor="middle" x="3599.69" y="-74.5" font-family="Helvetica,sans-Serif" font-size="10.00">_tools.h</text>
</a>
</g>
</g>
<!-- Node15&#45;&gt;Node42 -->
<g id="edge44" class="edge">
<title>Node15&#45;&gt;Node42</title>
<path fill="none" stroke="midnightblue" d="M2852.5,-139.99C2864.41,-137.71 2877.53,-135.48 2889.69,-134 3167.43,-100.13 3243.01,-132.53 3524.3,-98.05"/>
<polygon fill="midnightblue" stroke="midnightblue" points="3524.9,-101.5 3534.39,-96.8 3524.04,-94.56 3524.9,-101.5"/>
</g>
<!-- Node43 -->
<g id="node42" class="node">
<title>Node43</title>
<g id="a_node42"><a target="_parent" xlink:href="http://www.dealii.org/developer/doxygen/deal.II/arkode_8h.html.html" xlink:title=" ">
<polygon fill="none" stroke="black" points="3683.19,-73 3683.19,-92 3818.19,-92 3818.19,-73 3683.19,-73"/>
<text text-anchor="middle" x="3750.69" y="-80" font-family="Helvetica,sans-Serif" font-size="10.00">deal.II/sundials/arkode.h</text>
</a>
</g>
</g>
<!-- Node15&#45;&gt;Node43 -->
<g id="edge46" class="edge">
<title>Node15&#45;&gt;Node43</title>
<path fill="none" stroke="midnightblue" d="M2852.09,-139.98C2864.11,-137.68 2877.39,-135.43 2889.69,-134 3236.15,-93.63 3327.22,-138.37 3673.69,-98 3682.62,-96.96 3692.07,-95.49 3701.19,-93.88"/>
<polygon fill="midnightblue" stroke="midnightblue" points="3702.08,-97.27 3711.28,-92.02 3700.81,-90.39 3702.08,-97.27"/>
</g>
<!-- Node44 -->
<g id="node43" class="node">
<title>Node44</title>
<g id="a_node43"><a xlink:title=" ">
<polygon fill="none" stroke="#bfbfbf" points="3836.69,-73 3836.69,-92 3944.69,-92 3944.69,-73 3836.69,-73"/>
<text text-anchor="middle" x="3890.69" y="-80" font-family="Helvetica,sans-Serif" font-size="10.00">boost/signals2.hpp</text>
</a>
</g>
</g>
<!-- Node15&#45;&gt;Node44 -->
<g id="edge47" class="edge">
<title>Node15&#45;&gt;Node44</title>
<path fill="none" stroke="midnightblue" d="M2851.69,-140C2863.81,-137.67 2877.25,-135.4 2889.69,-134 3304.26,-87.27 3414.14,-153.03 3827.69,-98 3834.56,-97.08 3841.79,-95.77 3848.8,-94.29"/>
<polygon fill="midnightblue" stroke="midnightblue" points="3849.85,-97.64 3858.85,-92.05 3848.33,-90.81 3849.85,-97.64"/>
</g>
<!-- Node45 -->
<g id="node44" class="node">
<title>Node45</title>
<g id="a_node44"><a xlink:title=" ">
<polygon fill="none" stroke="#bfbfbf" points="3963.19,-73 3963.19,-92 4018.19,-92 4018.19,-73 3963.19,-73"/>
<text text-anchor="middle" x="3990.69" y="-80" font-family="Helvetica,sans-Serif" font-size="10.00">fstream</text>
</a>
</g>
</g>
<!-- Node15&#45;&gt;Node45 -->
<g id="edge48" class="edge">
<title>Node15&#45;&gt;Node45</title>
<path fill="none" stroke="midnightblue" d="M2851.68,-139.96C2863.8,-137.63 2877.25,-135.37 2889.69,-134 3124.84,-108.03 3722,-145.85 3953.69,-98 3956.7,-97.38 3959.78,-96.53 3962.82,-95.56"/>
<polygon fill="midnightblue" stroke="midnightblue" points="3964.03,-98.85 3972.24,-92.15 3961.65,-92.27 3964.03,-98.85"/>
</g>
<!-- Node46 -->
<g id="node45" class="node">
<title>Node46</title>
<g id="a_node45"><a xlink:title=" ">
<polygon fill="none" stroke="#bfbfbf" points="4036.69,-73 4036.69,-92 4096.69,-92 4096.69,-73 4036.69,-73"/>
<text text-anchor="middle" x="4066.69" y="-80" font-family="Helvetica,sans-Serif" font-size="10.00">iostream</text>
</a>
</g>
</g>
<!-- Node15&#45;&gt;Node46 -->
<g id="edge49" class="edge">
<title>Node15&#45;&gt;Node46</title>
<path fill="none" stroke="midnightblue" d="M2851.68,-139.95C2863.8,-137.62 2877.25,-135.36 2889.69,-134 3141.2,-106.51 3779.41,-146.73 4027.69,-98 4030.95,-97.36 4034.29,-96.48 4037.59,-95.47"/>
<polygon fill="midnightblue" stroke="midnightblue" points="4038.9,-98.73 4047.21,-92.15 4036.61,-92.11 4038.9,-98.73"/>
</g>
<!-- Node47 -->
<g id="node46" class="node">
<title>Node47</title>
<g id="a_node46"><a xlink:title=" ">
<polygon fill="none" stroke="#bfbfbf" points="4114.69,-73 4114.69,-92 4154.69,-92 4154.69,-73 4114.69,-73"/>
<text text-anchor="middle" x="4134.69" y="-80" font-family="Helvetica,sans-Serif" font-size="10.00">lac.h</text>
</a>
</g>
</g>
<!-- Node15&#45;&gt;Node47 -->
<g id="edge50" class="edge">
<title>Node15&#45;&gt;Node47</title>
<path fill="none" stroke="midnightblue" d="M2851.68,-139.93C2863.8,-137.6 2877.24,-135.35 2889.69,-134 3158.46,-104.9 3843.53,-164 4105.69,-98 4107.61,-97.52 4109.55,-96.89 4111.48,-96.17"/>
<polygon fill="midnightblue" stroke="midnightblue" points="4113.02,-99.31 4120.71,-92.02 4110.15,-92.93 4113.02,-99.31"/>
</g>
<!-- Node48 -->
<g id="node47" class="node">
<title>Node48</title>
<g id="a_node47"><a xlink:href="amg_8h.html" target="_top" xlink:title=" ">
<polygon fill="none" stroke="red" points="4173.19,-73 4173.19,-92 4276.19,-92 4276.19,-73 4173.19,-73"/>
<text text-anchor="middle" x="4224.69" y="-80" font-family="Helvetica,sans-Serif" font-size="10.00">parsed_lac/amg.h</text>
</a>
</g>
</g>
<!-- Node15&#45;&gt;Node48 -->
<g id="edge51" class="edge">
<title>Node15&#45;&gt;Node48</title>
<path fill="none" stroke="midnightblue" d="M2851.29,-140C2863.51,-137.64 2877.11,-135.35 2889.69,-134 3452.88,-73.4 3602.08,-171.89 4163.69,-98 4170.43,-97.11 4177.52,-95.79 4184.37,-94.31"/>
<polygon fill="midnightblue" stroke="midnightblue" points="4185.24,-97.7 4194.2,-92.04 4183.66,-90.88 4185.24,-97.7"/>
</g>
<!-- Node50 -->
<g id="node48" class="node">
<title>Node50</title>
<g id="a_node48"><a xlink:href="inverse__operator_8h.html" target="_top" xlink:title=" ">
<polygon fill="none" stroke="red" points="814.69,-67.5 814.69,-97.5 922.69,-97.5 922.69,-67.5 814.69,-67.5"/>
<text text-anchor="start" x="822.69" y="-85.5" font-family="Helvetica,sans-Serif" font-size="10.00">parsed_lac/inverse</text>
<text text-anchor="middle" x="868.69" y="-74.5" font-family="Helvetica,sans-Serif" font-size="10.00">_operator.h</text>
</a>
</g>
</g>
<!-- Node15&#45;&gt;Node50 -->
<g id="edge54" class="edge">
<title>Node15&#45;&gt;Node50</title>
<path fill="none" stroke="midnightblue" d="M2749.83,-148.5C2467.68,-148.22 1315.55,-144.29 932.86,-97.93"/>
<polygon fill="midnightblue" stroke="midnightblue" points="933.21,-94.45 922.86,-96.69 932.35,-101.4 933.21,-94.45"/>
</g>
<!-- Node48&#45;&gt;Node4 -->
<g id="edge53" class="edge">
<title>Node48&#45;&gt;Node4</title>
<path fill="none" stroke="midnightblue" d="M4224.69,-72.73C4224.69,-64.54 4224.69,-51.92 4224.69,-40.71"/>
<polygon fill="midnightblue" stroke="midnightblue" points="4228.19,-40.59 4224.69,-30.59 4221.19,-40.59 4228.19,-40.59"/>
</g>
<!-- Node48&#45;&gt;Node7 -->
<g id="edge52" class="edge">
<title>Node48&#45;&gt;Node7</title>
<path fill="none" stroke="midnightblue" d="M4194.52,-72.96C4184.76,-70.56 4173.84,-68.27 4163.69,-67 3838.8,-26.35 1425.95,-17.87 990.07,-16.67"/>
<polygon fill="midnightblue" stroke="midnightblue" points="989.86,-13.17 979.85,-16.64 989.84,-20.17 989.86,-13.17"/>
</g>
<!-- Node50&#45;&gt;Node4 -->
<g id="edge57" class="edge">
<title>Node50&#45;&gt;Node4</title>
<path fill="none" stroke="midnightblue" d="M922.85,-68.27C925.83,-67.78 928.79,-67.35 931.69,-67 1260.6,-27.08 3693.61,-18.05 4150.76,-16.7"/>
<polygon fill="midnightblue" stroke="midnightblue" points="4150.88,-20.2 4160.87,-16.67 4150.86,-13.2 4150.88,-20.2"/>
</g>
<!-- Node50&#45;&gt;Node7 -->
<g id="edge55" class="edge">
<title>Node50&#45;&gt;Node7</title>
<path fill="none" stroke="midnightblue" d="M880.4,-67.4C888.82,-57.26 900.2,-43.57 909.03,-32.94"/>
<polygon fill="midnightblue" stroke="midnightblue" points="911.76,-35.12 915.46,-25.19 906.38,-30.65 911.76,-35.12"/>
</g>
<!-- Node50&#45;&gt;Node8 -->
<g id="edge56" class="edge">
<title>Node50&#45;&gt;Node8</title>
<path fill="none" stroke="midnightblue" d="M814.48,-73.4C799.35,-71.22 782.89,-68.94 767.69,-67 635.98,-50.21 482.33,-33.74 392.07,-24.38"/>
<polygon fill="midnightblue" stroke="midnightblue" points="392.23,-20.87 381.92,-23.33 391.51,-27.84 392.23,-20.87"/>
</g>
<!-- Node50&#45;&gt;Node36 -->
<g id="edge58" class="edge">
<title>Node50&#45;&gt;Node36</title>
<path fill="none" stroke="midnightblue" d="M850.89,-67.4C837.6,-56.86 819.46,-42.48 805.85,-31.69"/>
<polygon fill="midnightblue" stroke="midnightblue" points="807.67,-28.66 797.65,-25.19 803.32,-34.15 807.67,-28.66"/>
</g>
<!-- Node64 -->
<g id="node50" class="node">
<title>Node64</title>
<g id="a_node50"><a target="_parent" xlink:href="http://www.dealii.org/developer/doxygen/deal.II/include_2deal_8II_2base_2utilities_8h.html.html" xlink:title=" ">
<polygon fill="none" stroke="black" points="2931.69,-140 2931.69,-159 3053.69,-159 3053.69,-140 2931.69,-140"/>
<text text-anchor="middle" x="2992.69" y="-147" font-family="Helvetica,sans-Serif" font-size="10.00">deal.II/base/utilities.h</text>
</a>
</g>
</g>
<!-- Node90&#45;&gt;Node64 -->
<g id="edge61" class="edge">
<title>Node90&#45;&gt;Node64</title>
<path fill="none" stroke="midnightblue" d="M2980.69,-201.48C2982.69,-192.99 2985.81,-179.7 2988.38,-168.82"/>
<polygon fill="midnightblue" stroke="midnightblue" points="2991.8,-169.54 2990.68,-159.01 2984.99,-167.94 2991.8,-169.54"/>
</g>
</g>
</svg>
