<?xml version="1.0" encoding="UTF-8" standalone="no"?>
<!DOCTYPE svg PUBLIC "-//W3C//DTD SVG 1.1//EN"
 "http://www.w3.org/Graphics/SVG/1.1/DTD/svg11.dtd">
<!-- Generated by graphviz version 2.43.0 (0)
 -->
<!-- Title: apps/mpi/stokes.cc Pages: 1 -->
<svg width="4704pt" height="274pt"
 viewBox="0.00 0.00 4703.50 274.00" xmlns="http://www.w3.org/2000/svg" xmlns:xlink="http://www.w3.org/1999/xlink">
<g id="graph0" class="graph" transform="scale(1 1) rotate(0) translate(4 270)">
<title>apps/mpi/stokes.cc</title>
<!-- Node1 -->
<g id="node1" class="node">
<title>Node1</title>
<g id="a_node1"><a xlink:title=" ">
<polygon fill="#bfbfbf" stroke="black" points="1349,-246.5 1349,-265.5 1459,-265.5 1459,-246.5 1349,-246.5"/>
<text text-anchor="middle" x="1404" y="-253.5" font-family="Helvetica,sans-Serif" font-size="10.00">apps/mpi/stokes.cc</text>
</a>
</g>
</g>
<!-- Node2 -->
<g id="node2" class="node">
<title>Node2</title>
<g id="a_node2"><a xlink:href="stokes_8h.html" target="_top" xlink:title=" ">
<polygon fill="none" stroke="black" points="1318.5,-190.5 1318.5,-209.5 1401.5,-209.5 1401.5,-190.5 1318.5,-190.5"/>
<text text-anchor="middle" x="1360" y="-197.5" font-family="Helvetica,sans-Serif" font-size="10.00">pdes/stokes.h</text>
</a>
</g>
</g>
<!-- Node1&#45;&gt;Node2 -->
<g id="edge1" class="edge">
<title>Node1&#45;&gt;Node2</title>
<path fill="none" stroke="midnightblue" d="M1396.73,-246.08C1390.46,-238.38 1381.21,-227.03 1373.57,-217.65"/>
<polygon fill="midnightblue" stroke="midnightblue" points="1376.16,-215.29 1367.13,-209.75 1370.73,-219.71 1376.16,-215.29"/>
</g>
<!-- Node88 -->
<g id="node49" class="node">
<title>Node88</title>
<g id="a_node49"><a xlink:href="runner_8h.html" target="_top" xlink:title=" ">
<polygon fill="none" stroke="black" points="1870,-190.5 1870,-209.5 1926,-209.5 1926,-190.5 1870,-190.5"/>
<text text-anchor="middle" x="1898" y="-197.5" font-family="Helvetica,sans-Serif" font-size="10.00">runner.h</text>
</a>
</g>
</g>
<!-- Node1&#45;&gt;Node88 -->
<g id="edge59" class="edge">
<title>Node1&#45;&gt;Node88</title>
<path fill="none" stroke="midnightblue" d="M1459.23,-248.96C1560.38,-237.91 1772.94,-214.67 1859.79,-205.18"/>
<polygon fill="midnightblue" stroke="midnightblue" points="1860.43,-208.63 1869.99,-204.06 1859.67,-201.67 1860.43,-208.63"/>
</g>
<!-- Node3 -->
<g id="node3" class="node">
<title>Node3</title>
<g id="a_node3"><a xlink:href="amg_8h.html" target="_top" xlink:title=" ">
<polygon fill="none" stroke="black" points="275.5,-73 275.5,-92 378.5,-92 378.5,-73 275.5,-73"/>
<text text-anchor="middle" x="327" y="-80" font-family="Helvetica,sans-Serif" font-size="10.00">parsed_lac/amg.h</text>
</a>
</g>
</g>
<!-- Node2&#45;&gt;Node3 -->
<g id="edge2" class="edge">
<title>Node2&#45;&gt;Node3</title>
<path fill="none" stroke="midnightblue" d="M1318.31,-196.33C1183.7,-187.33 748.77,-155.47 393,-98 386.31,-96.92 379.27,-95.59 372.39,-94.17"/>
<polygon fill="midnightblue" stroke="midnightblue" points="372.99,-90.72 362.48,-92.06 371.53,-97.57 372.99,-90.72"/>
</g>
<!-- Node7 -->
<g id="node7" class="node">
<title>Node7</title>
<g id="a_node7"><a xlink:href="ilu_8h.html" target="_top" xlink:title=" ">
<polygon fill="none" stroke="black" points="164.5,-73 164.5,-92 257.5,-92 257.5,-73 164.5,-73"/>
<text text-anchor="middle" x="211" y="-80" font-family="Helvetica,sans-Serif" font-size="10.00">parsed_lac/ilu.h</text>
</a>
</g>
</g>
<!-- Node2&#45;&gt;Node7 -->
<g id="edge6" class="edge">
<title>Node2&#45;&gt;Node7</title>
<path fill="none" stroke="midnightblue" d="M1318.13,-197.5C1208.71,-193.32 905.35,-180.11 654,-154 480.7,-136 436.74,-132.71 266,-98 260.99,-96.98 255.75,-95.78 250.59,-94.51"/>
<polygon fill="midnightblue" stroke="midnightblue" points="251.38,-91.1 240.83,-92.03 249.65,-97.89 251.38,-91.1"/>
</g>
<!-- Node8 -->
<g id="node8" class="node">
<title>Node8</title>
<g id="a_node8"><a xlink:href="inverse__operator_8h.html" target="_top" xlink:title=" ">
<polygon fill="none" stroke="black" points="4083,-67.5 4083,-97.5 4191,-97.5 4191,-67.5 4083,-67.5"/>
<text text-anchor="start" x="4091" y="-85.5" font-family="Helvetica,sans-Serif" font-size="10.00">parsed_lac/inverse</text>
<text text-anchor="middle" x="4137" y="-74.5" font-family="Helvetica,sans-Serif" font-size="10.00">_operator.h</text>
</a>
</g>
</g>
<!-- Node2&#45;&gt;Node8 -->
<g id="edge10" class="edge">
<title>Node2&#45;&gt;Node8</title>
<path fill="none" stroke="midnightblue" d="M1401.53,-198.7C1535.26,-197.36 1953.43,-190.32 2083,-154 2101.38,-148.85 2102.51,-138.75 2121,-134 2328.23,-80.76 3815.59,-123.24 4072.53,-97.86"/>
<polygon fill="midnightblue" stroke="midnightblue" points="4073.28,-101.29 4082.83,-96.72 4072.51,-94.34 4073.28,-101.29"/>
</g>
<!-- Node19 -->
<g id="node19" class="node">
<title>Node19</title>
<g id="a_node19"><a xlink:href="constants_8h.html" target="_top" xlink:title=" ">
<polygon fill="none" stroke="black" points="8,-73 8,-92 146,-92 146,-73 8,-73"/>
<text text-anchor="middle" x="77" y="-80" font-family="Helvetica,sans-Serif" font-size="10.00">parsed_tools/constants.h</text>
</a>
</g>
</g>
<!-- Node2&#45;&gt;Node19 -->
<g id="edge23" class="edge">
<title>Node2&#45;&gt;Node19</title>
<path fill="none" stroke="midnightblue" d="M1318.1,-198.76C1190.31,-197.61 794.47,-191.09 469,-154 344,-139.75 198.67,-110.15 125.05,-94.21"/>
<polygon fill="midnightblue" stroke="midnightblue" points="125.67,-90.76 115.15,-92.05 124.18,-97.6 125.67,-90.76"/>
</g>
<!-- Node21 -->
<g id="node21" class="node">
<title>Node21</title>
<g id="a_node21"><a xlink:href="linear__problem_8h.html" target="_top" xlink:title=" ">
<polygon fill="none" stroke="red" points="1948.5,-134.5 1948.5,-153.5 2073.5,-153.5 2073.5,-134.5 1948.5,-134.5"/>
<text text-anchor="middle" x="2011" y="-141.5" font-family="Helvetica,sans-Serif" font-size="10.00">pdes/linear_problem.h</text>
</a>
</g>
</g>
<!-- Node2&#45;&gt;Node21 -->
<g id="edge26" class="edge">
<title>Node2&#45;&gt;Node21</title>
<path fill="none" stroke="midnightblue" d="M1401.71,-195.54C1510.02,-186.56 1801.25,-162.4 1938.09,-151.05"/>
<polygon fill="midnightblue" stroke="midnightblue" points="1938.78,-154.5 1948.46,-150.19 1938.2,-147.53 1938.78,-154.5"/>
</g>
<!-- Node4 -->
<g id="node4" class="node">
<title>Node4</title>
<g id="a_node4"><a target="_parent" xlink:href="http://www.dealii.org/developer/doxygen/deal.II/config_8h.html.html" xlink:title=" ">
<polygon fill="none" stroke="black" points="425,-6 425,-25 539,-25 539,-6 425,-6"/>
<text text-anchor="middle" x="482" y="-13" font-family="Helvetica,sans-Serif" font-size="10.00">deal.II/base/config.h</text>
</a>
</g>
</g>
<!-- Node3&#45;&gt;Node4 -->
<g id="edge3" class="edge">
<title>Node3&#45;&gt;Node4</title>
<path fill="none" stroke="midnightblue" d="M347.58,-72.87C374.33,-61.65 421.25,-41.98 451.97,-29.09"/>
<polygon fill="midnightblue" stroke="midnightblue" points="453.46,-32.26 461.33,-25.17 450.76,-25.81 453.46,-32.26"/>
</g>
<!-- Node5 -->
<g id="node5" class="node">
<title>Node5</title>
<g id="a_node5"><a target="_parent" xlink:href="http://www.dealii.org/developer/doxygen/deal.II/parameter__acceptor_8h.html.html" xlink:title=" ">
<polygon fill="none" stroke="black" points="279.5,-0.5 279.5,-30.5 406.5,-30.5 406.5,-0.5 279.5,-0.5"/>
<text text-anchor="start" x="287.5" y="-18.5" font-family="Helvetica,sans-Serif" font-size="10.00">deal.II/base/parameter</text>
<text text-anchor="middle" x="343" y="-7.5" font-family="Helvetica,sans-Serif" font-size="10.00">_acceptor.h</text>
</a>
</g>
</g>
<!-- Node3&#45;&gt;Node5 -->
<g id="edge4" class="edge">
<title>Node3&#45;&gt;Node5</title>
<path fill="none" stroke="midnightblue" d="M329.16,-72.73C331.2,-64.46 334.34,-51.66 337.12,-40.37"/>
<polygon fill="midnightblue" stroke="midnightblue" points="340.54,-41.14 339.53,-30.59 333.74,-39.46 340.54,-41.14"/>
</g>
<!-- Node6 -->
<g id="node6" class="node">
<title>Node6</title>
<g id="a_node6"><a target="_parent" xlink:href="http://www.dealii.org/developer/doxygen/deal.II/trilinos__precondition_8h.html.html" xlink:title=" ">
<polygon fill="none" stroke="black" points="160.5,-0.5 160.5,-30.5 261.5,-30.5 261.5,-0.5 160.5,-0.5"/>
<text text-anchor="start" x="168.5" y="-18.5" font-family="Helvetica,sans-Serif" font-size="10.00">deal.II/lac/trilinos</text>
<text text-anchor="middle" x="211" y="-7.5" font-family="Helvetica,sans-Serif" font-size="10.00">_precondition.h</text>
</a>
</g>
</g>
<!-- Node3&#45;&gt;Node6 -->
<g id="edge5" class="edge">
<title>Node3&#45;&gt;Node6</title>
<path fill="none" stroke="midnightblue" d="M311.36,-72.73C294.47,-63.27 267.06,-47.91 245.15,-35.64"/>
<polygon fill="midnightblue" stroke="midnightblue" points="246.58,-32.42 236.14,-30.59 243.16,-38.53 246.58,-32.42"/>
</g>
<!-- Node7&#45;&gt;Node4 -->
<g id="edge7" class="edge">
<title>Node7&#45;&gt;Node4</title>
<path fill="none" stroke="midnightblue" d="M242.66,-72.99C250.29,-70.98 258.43,-68.88 266,-67 323.73,-52.64 390.43,-37.23 434.26,-27.26"/>
<polygon fill="midnightblue" stroke="midnightblue" points="435.1,-30.66 444.07,-25.03 433.55,-23.83 435.1,-30.66"/>
</g>
<!-- Node7&#45;&gt;Node5 -->
<g id="edge8" class="edge">
<title>Node7&#45;&gt;Node5</title>
<path fill="none" stroke="midnightblue" d="M228.53,-72.87C247.93,-63.31 279.79,-47.63 304.97,-35.22"/>
<polygon fill="midnightblue" stroke="midnightblue" points="306.84,-38.21 314.26,-30.65 303.74,-31.93 306.84,-38.21"/>
</g>
<!-- Node7&#45;&gt;Node6 -->
<g id="edge9" class="edge">
<title>Node7&#45;&gt;Node6</title>
<path fill="none" stroke="midnightblue" d="M211,-72.73C211,-64.54 211,-51.92 211,-40.71"/>
<polygon fill="midnightblue" stroke="midnightblue" points="214.5,-40.59 211,-30.59 207.5,-40.59 214.5,-40.59"/>
</g>
<!-- Node8&#45;&gt;Node4 -->
<g id="edge11" class="edge">
<title>Node8&#45;&gt;Node4</title>
<path fill="none" stroke="midnightblue" d="M4082.83,-68.27C4079.86,-67.78 4076.9,-67.35 4074,-67 3711.83,-23.28 1011.38,-17.29 549.2,-16.59"/>
<polygon fill="midnightblue" stroke="midnightblue" points="549.03,-13.09 539.02,-16.57 549.01,-20.09 549.03,-13.09"/>
</g>
<!-- Node8&#45;&gt;Node5 -->
<g id="edge13" class="edge">
<title>Node8&#45;&gt;Node5</title>
<path fill="none" stroke="midnightblue" d="M4082.83,-68.25C4079.86,-67.77 4076.9,-67.34 4074,-67 3270.08,28.33 1241.55,-113.37 416.84,-30.9"/>
<polygon fill="midnightblue" stroke="midnightblue" points="416.9,-27.39 406.6,-29.86 416.19,-34.35 416.9,-27.39"/>
</g>
<!-- Node9 -->
<g id="node9" class="node">
<title>Node9</title>
<g id="a_node9"><a target="_parent" xlink:href="http://www.dealii.org/developer/doxygen/deal.II/general__data__storage_8h.html.html" xlink:title=" ">
<polygon fill="none" stroke="black" points="4204,-0.5 4204,-30.5 4338,-30.5 4338,-0.5 4204,-0.5"/>
<text text-anchor="start" x="4212" y="-18.5" font-family="Helvetica,sans-Serif" font-size="10.00">deal.II/algorithms</text>
<text text-anchor="middle" x="4271" y="-7.5" font-family="Helvetica,sans-Serif" font-size="10.00">/general_data_storage.h</text>
</a>
</g>
</g>
<!-- Node8&#45;&gt;Node9 -->
<g id="edge12" class="edge">
<title>Node8&#45;&gt;Node9</title>
<path fill="none" stroke="midnightblue" d="M4166.08,-67.4C4185.65,-57.9 4211.68,-45.28 4232.91,-34.98"/>
<polygon fill="midnightblue" stroke="midnightblue" points="4234.51,-38.09 4241.98,-30.58 4231.46,-31.79 4234.51,-38.09"/>
</g>
<!-- Node10 -->
<g id="node10" class="node">
<title>Node10</title>
<g id="a_node10"><a target="_parent" xlink:href="http://www.dealii.org/developer/doxygen/deal.II/linear__operator__tools_8h.html.html" xlink:title=" ">
<polygon fill="none" stroke="black" points="4356.5,-0.5 4356.5,-30.5 4457.5,-30.5 4457.5,-0.5 4356.5,-0.5"/>
<text text-anchor="start" x="4364.5" y="-18.5" font-family="Helvetica,sans-Serif" font-size="10.00">deal.II/lac/linear</text>
<text text-anchor="middle" x="4407" y="-7.5" font-family="Helvetica,sans-Serif" font-size="10.00">_operator_tools.h</text>
</a>
</g>
</g>
<!-- Node8&#45;&gt;Node10 -->
<g id="edge14" class="edge">
<title>Node8&#45;&gt;Node10</title>
<path fill="none" stroke="midnightblue" d="M4191.39,-68.44C4231.56,-58.79 4287.83,-45.26 4346.45,-31.13"/>
<polygon fill="midnightblue" stroke="midnightblue" points="4347.36,-34.51 4356.26,-28.77 4345.72,-27.71 4347.36,-34.51"/>
</g>
<!-- Node11 -->
<g id="node11" class="node">
<title>Node11</title>
<g id="a_node11"><a target="_parent" xlink:href="http://www.dealii.org/developer/doxygen/deal.II/solver_8h.html.html" xlink:title=" ">
<polygon fill="none" stroke="black" points="4475.5,-6 4475.5,-25 4580.5,-25 4580.5,-6 4475.5,-6"/>
<text text-anchor="middle" x="4528" y="-13" font-family="Helvetica,sans-Serif" font-size="10.00">deal.II/lac/solver.h</text>
</a>
</g>
</g>
<!-- Node8&#45;&gt;Node11 -->
<g id="edge15" class="edge">
<title>Node8&#45;&gt;Node11</title>
<path fill="none" stroke="midnightblue" d="M4191.25,-74.58C4256.84,-65.89 4370.43,-49.83 4467,-31 4472.54,-29.92 4478.34,-28.68 4484.07,-27.39"/>
<polygon fill="midnightblue" stroke="midnightblue" points="4485.27,-30.71 4494.23,-25.05 4483.7,-23.89 4485.27,-30.71"/>
</g>
<!-- Node12 -->
<g id="node12" class="node">
<title>Node12</title>
<g id="a_node12"><a target="_parent" xlink:href="http://www.dealii.org/developer/doxygen/deal.II/solver__bicgstab_8h.html.html" xlink:title=" ">
<polygon fill="none" stroke="black" points="4598.5,-0.5 4598.5,-30.5 4695.5,-30.5 4695.5,-0.5 4598.5,-0.5"/>
<text text-anchor="start" x="4606.5" y="-18.5" font-family="Helvetica,sans-Serif" font-size="10.00">deal.II/lac/solver</text>
<text text-anchor="middle" x="4647" y="-7.5" font-family="Helvetica,sans-Serif" font-size="10.00">_bicgstab.h</text>
</a>
</g>
</g>
<!-- Node8&#45;&gt;Node12 -->
<g id="edge16" class="edge">
<title>Node8&#45;&gt;Node12</title>
<path fill="none" stroke="midnightblue" d="M4191.04,-77.9C4274.42,-71.82 4439.51,-57.66 4588.07,-31.21"/>
<polygon fill="midnightblue" stroke="midnightblue" points="4589.06,-34.59 4598.28,-29.36 4587.82,-27.7 4589.06,-34.59"/>
</g>
<!-- Node13 -->
<g id="node13" class="node">
<title>Node13</title>
<g id="a_node13"><a target="_parent" xlink:href="http://www.dealii.org/developer/doxygen/deal.II/solver__cg_8h.html.html" xlink:title=" ">
<polygon fill="none" stroke="black" points="3480,-6 3480,-25 3602,-25 3602,-6 3480,-6"/>
<text text-anchor="middle" x="3541" y="-13" font-family="Helvetica,sans-Serif" font-size="10.00">deal.II/lac/solver_cg.h</text>
</a>
</g>
</g>
<!-- Node8&#45;&gt;Node13 -->
<g id="edge17" class="edge">
<title>Node8&#45;&gt;Node13</title>
<path fill="none" stroke="midnightblue" d="M4082.8,-68.49C4079.83,-67.95 4076.88,-67.44 4074,-67 3873.94,-36.22 3820.69,-57.3 3620,-31 3611.26,-29.85 3602.02,-28.39 3593.06,-26.84"/>
<polygon fill="midnightblue" stroke="midnightblue" points="3593.56,-23.37 3583.1,-25.05 3592.33,-30.26 3593.56,-23.37"/>
</g>
<!-- Node14 -->
<g id="node14" class="node">
<title>Node14</title>
<g id="a_node14"><a target="_parent" xlink:href="http://www.dealii.org/developer/doxygen/deal.II/solver__control_8h.html.html" xlink:title=" ">
<polygon fill="none" stroke="black" points="3628.5,-0.5 3628.5,-30.5 3725.5,-30.5 3725.5,-0.5 3628.5,-0.5"/>
<text text-anchor="start" x="3636.5" y="-18.5" font-family="Helvetica,sans-Serif" font-size="10.00">deal.II/lac/solver</text>
<text text-anchor="middle" x="3677" y="-7.5" font-family="Helvetica,sans-Serif" font-size="10.00">_control.h</text>
</a>
</g>
</g>
<!-- Node8&#45;&gt;Node14 -->
<g id="edge18" class="edge">
<title>Node8&#45;&gt;Node14</title>
<path fill="none" stroke="midnightblue" d="M4082.79,-68.59C4079.82,-68.02 4076.88,-67.48 4074,-67 3927.78,-42.5 3885.97,-56.79 3735.69,-30.94"/>
<polygon fill="midnightblue" stroke="midnightblue" points="3736.08,-27.46 3725.63,-29.18 3734.87,-34.35 3736.08,-27.46"/>
</g>
<!-- Node15 -->
<g id="node15" class="node">
<title>Node15</title>
<g id="a_node15"><a target="_parent" xlink:href="http://www.dealii.org/developer/doxygen/deal.II/solver__gmres_8h.html.html" xlink:title=" ">
<polygon fill="none" stroke="black" points="3743.5,-0.5 3743.5,-30.5 3840.5,-30.5 3840.5,-0.5 3743.5,-0.5"/>
<text text-anchor="start" x="3751.5" y="-18.5" font-family="Helvetica,sans-Serif" font-size="10.00">deal.II/lac/solver</text>
<text text-anchor="middle" x="3792" y="-7.5" font-family="Helvetica,sans-Serif" font-size="10.00">_gmres.h</text>
</a>
</g>
</g>
<!-- Node8&#45;&gt;Node15 -->
<g id="edge19" class="edge">
<title>Node8&#45;&gt;Node15</title>
<path fill="none" stroke="midnightblue" d="M4082.75,-68.77C4079.8,-68.15 4076.86,-67.56 4074,-67 3978.13,-48.28 3950.49,-51.05 3850.57,-31"/>
<polygon fill="midnightblue" stroke="midnightblue" points="3851.16,-27.55 3840.67,-28.99 3849.77,-34.41 3851.16,-27.55"/>
</g>
<!-- Node16 -->
<g id="node16" class="node">
<title>Node16</title>
<g id="a_node16"><a target="_parent" xlink:href="http://www.dealii.org/developer/doxygen/deal.II/solver__minres_8h.html.html" xlink:title=" ">
<polygon fill="none" stroke="black" points="3858.5,-0.5 3858.5,-30.5 3955.5,-30.5 3955.5,-0.5 3858.5,-0.5"/>
<text text-anchor="start" x="3866.5" y="-18.5" font-family="Helvetica,sans-Serif" font-size="10.00">deal.II/lac/solver</text>
<text text-anchor="middle" x="3907" y="-7.5" font-family="Helvetica,sans-Serif" font-size="10.00">_minres.h</text>
</a>
</g>
</g>
<!-- Node8&#45;&gt;Node16 -->
<g id="edge20" class="edge">
<title>Node8&#45;&gt;Node16</title>
<path fill="none" stroke="midnightblue" d="M4087.38,-67.48C4051.62,-57.37 4003.22,-43.69 3965.57,-33.05"/>
<polygon fill="midnightblue" stroke="midnightblue" points="3966.32,-29.63 3955.74,-30.28 3964.42,-36.36 3966.32,-29.63"/>
</g>
<!-- Node17 -->
<g id="node17" class="node">
<title>Node17</title>
<g id="a_node17"><a target="_parent" xlink:href="http://www.dealii.org/developer/doxygen/deal.II/solver__qmrs_8h.html.html" xlink:title=" ">
<polygon fill="none" stroke="black" points="3973.5,-0.5 3973.5,-30.5 4070.5,-30.5 4070.5,-0.5 3973.5,-0.5"/>
<text text-anchor="start" x="3981.5" y="-18.5" font-family="Helvetica,sans-Serif" font-size="10.00">deal.II/lac/solver</text>
<text text-anchor="middle" x="4022" y="-7.5" font-family="Helvetica,sans-Serif" font-size="10.00">_qmrs.h</text>
</a>
</g>
</g>
<!-- Node8&#45;&gt;Node17 -->
<g id="edge21" class="edge">
<title>Node8&#45;&gt;Node17</title>
<path fill="none" stroke="midnightblue" d="M4112.05,-67.4C4095.62,-58.11 4073.91,-45.84 4055.92,-35.67"/>
<polygon fill="midnightblue" stroke="midnightblue" points="4057.33,-32.45 4046.9,-30.58 4053.89,-38.54 4057.33,-32.45"/>
</g>
<!-- Node18 -->
<g id="node18" class="node">
<title>Node18</title>
<g id="a_node18"><a target="_parent" xlink:href="http://www.dealii.org/developer/doxygen/deal.II/solver__richardson_8h.html.html" xlink:title=" ">
<polygon fill="none" stroke="black" points="4088.5,-0.5 4088.5,-30.5 4185.5,-30.5 4185.5,-0.5 4088.5,-0.5"/>
<text text-anchor="start" x="4096.5" y="-18.5" font-family="Helvetica,sans-Serif" font-size="10.00">deal.II/lac/solver</text>
<text text-anchor="middle" x="4137" y="-7.5" font-family="Helvetica,sans-Serif" font-size="10.00">_richardson.h</text>
</a>
</g>
</g>
<!-- Node8&#45;&gt;Node18 -->
<g id="edge22" class="edge">
<title>Node8&#45;&gt;Node18</title>
<path fill="none" stroke="midnightblue" d="M4137,-67.4C4137,-59.64 4137,-49.81 4137,-40.86"/>
<polygon fill="midnightblue" stroke="midnightblue" points="4140.5,-40.58 4137,-30.58 4133.5,-40.58 4140.5,-40.58"/>
</g>
<!-- Node19&#45;&gt;Node5 -->
<g id="edge24" class="edge">
<title>Node19&#45;&gt;Node5</title>
<path fill="none" stroke="midnightblue" d="M112.05,-72.94C153.53,-62.8 223.54,-45.69 275.63,-32.96"/>
<polygon fill="midnightblue" stroke="midnightblue" points="276.58,-36.33 285.47,-30.56 274.92,-29.53 276.58,-36.33"/>
</g>
<!-- Node20 -->
<g id="node20" class="node">
<title>Node20</title>
<g id="a_node20"><a target="_parent" xlink:href="http://www.dealii.org/developer/doxygen/deal.II/sd_8h.html.html" xlink:title=" ">
<polygon fill="none" stroke="black" points="0,-6 0,-25 142,-25 142,-6 0,-6"/>
<text text-anchor="middle" x="71" y="-13" font-family="Helvetica,sans-Serif" font-size="10.00">deal.II/differentiation/sd.h</text>
</a>
</g>
</g>
<!-- Node19&#45;&gt;Node20 -->
<g id="edge25" class="edge">
<title>Node19&#45;&gt;Node20</title>
<path fill="none" stroke="midnightblue" d="M76.19,-72.73C75.31,-63.18 73.87,-47.62 72.73,-35.28"/>
<polygon fill="midnightblue" stroke="midnightblue" points="76.2,-34.76 71.8,-25.13 69.23,-35.41 76.2,-34.76"/>
</g>
<!-- Node21&#45;&gt;Node3 -->
<g id="edge56" class="edge">
<title>Node21&#45;&gt;Node3</title>
<path fill="none" stroke="midnightblue" d="M1948.47,-142.84C1689.77,-141.91 702.25,-135.93 393,-98 385.47,-97.08 377.53,-95.69 369.88,-94.14"/>
<polygon fill="midnightblue" stroke="midnightblue" points="370.54,-90.71 360.03,-92.03 369.07,-97.55 370.54,-90.71"/>
</g>
<!-- Node21&#45;&gt;Node5 -->
<g id="edge31" class="edge">
<title>Node21&#45;&gt;Node5</title>
<path fill="none" stroke="midnightblue" d="M1948.14,-142.5C1662.43,-140.05 497.08,-128.25 426,-98 410.86,-91.56 381.35,-60.28 361.91,-38.41"/>
<polygon fill="midnightblue" stroke="midnightblue" points="364.48,-36.03 355.25,-30.84 359.23,-40.66 364.48,-36.03"/>
</g>
<!-- Node21&#45;&gt;Node8 -->
<g id="edge57" class="edge">
<title>Node21&#45;&gt;Node8</title>
<path fill="none" stroke="midnightblue" d="M2073.57,-135.17C2078.45,-134.71 2083.3,-134.32 2088,-134 2525.08,-104.57 3619.16,-151.08 4072.57,-97.95"/>
<polygon fill="midnightblue" stroke="midnightblue" points="4073.32,-101.39 4082.83,-96.72 4072.49,-94.44 4073.32,-101.39"/>
</g>
<!-- Node21&#45;&gt;Node13 -->
<g id="edge50" class="edge">
<title>Node21&#45;&gt;Node13</title>
<path fill="none" stroke="midnightblue" d="M2073.57,-135.2C2078.45,-134.74 2083.3,-134.33 2088,-134 2167.05,-128.39 3450.34,-145.2 3514,-98 3533.52,-83.53 3539.13,-54.44 3540.63,-35.22"/>
<polygon fill="midnightblue" stroke="midnightblue" points="3544.12,-35.39 3541.11,-25.23 3537.13,-35.05 3544.12,-35.39"/>
</g>
<!-- Node21&#45;&gt;Node19 -->
<g id="edge58" class="edge">
<title>Node21&#45;&gt;Node19</title>
<path fill="none" stroke="midnightblue" d="M1948.08,-142.82C1665.76,-141.82 514.04,-135.48 155,-98 145.64,-97.02 135.73,-95.54 126.22,-93.88"/>
<polygon fill="midnightblue" stroke="midnightblue" points="126.57,-90.39 116.1,-92.03 125.31,-97.27 126.57,-90.39"/>
</g>
<!-- Node22 -->
<g id="node22" class="node">
<title>Node22</title>
<g id="a_node22"><a target="_parent" xlink:href="http://www.dealii.org/developer/doxygen/deal.II/conditional__ostream_8h.html.html" xlink:title=" ">
<polygon fill="none" stroke="black" points="2665,-67.5 2665,-97.5 2795,-97.5 2795,-67.5 2665,-67.5"/>
<text text-anchor="start" x="2673" y="-85.5" font-family="Helvetica,sans-Serif" font-size="10.00">deal.II/base/conditional</text>
<text text-anchor="middle" x="2730" y="-74.5" font-family="Helvetica,sans-Serif" font-size="10.00">_ostream.h</text>
</a>
</g>
</g>
<!-- Node21&#45;&gt;Node22 -->
<g id="edge27" class="edge">
<title>Node21&#45;&gt;Node22</title>
<path fill="none" stroke="midnightblue" d="M2073.59,-135.4C2078.46,-134.9 2083.31,-134.42 2088,-134 2336.61,-111.61 2403.38,-129.89 2654.54,-98.08"/>
<polygon fill="midnightblue" stroke="midnightblue" points="2655.23,-101.52 2664.71,-96.77 2654.34,-94.57 2655.23,-101.52"/>
</g>
<!-- Node23 -->
<g id="node23" class="node">
<title>Node23</title>
<g id="a_node23"><a target="_parent" xlink:href="http://www.dealii.org/developer/doxygen/deal.II/convergence__table_8h.html.html" xlink:title=" ">
<polygon fill="none" stroke="black" points="2813,-67.5 2813,-97.5 2951,-97.5 2951,-67.5 2813,-67.5"/>
<text text-anchor="start" x="2821" y="-85.5" font-family="Helvetica,sans-Serif" font-size="10.00">deal.II/base/convergence</text>
<text text-anchor="middle" x="2882" y="-74.5" font-family="Helvetica,sans-Serif" font-size="10.00">_table.h</text>
</a>
</g>
</g>
<!-- Node21&#45;&gt;Node23 -->
<g id="edge28" class="edge">
<title>Node21&#45;&gt;Node23</title>
<path fill="none" stroke="midnightblue" d="M2073.58,-135.33C2078.46,-134.84 2083.31,-134.39 2088,-134 2402.11,-107.78 2485.77,-134.61 2802.35,-98.08"/>
<polygon fill="midnightblue" stroke="midnightblue" points="2803.22,-101.5 2812.75,-96.87 2802.41,-94.55 2803.22,-101.5"/>
</g>
<!-- Node24 -->
<g id="node24" class="node">
<title>Node24</title>
<g id="a_node24"><a target="_parent" xlink:href="http://www.dealii.org/developer/doxygen/deal.II/function_8h.html.html" xlink:title=" ">
<polygon fill="none" stroke="black" points="2969.5,-73 2969.5,-92 3094.5,-92 3094.5,-73 2969.5,-73"/>
<text text-anchor="middle" x="3032" y="-80" font-family="Helvetica,sans-Serif" font-size="10.00">deal.II/base/function.h</text>
</a>
</g>
</g>
<!-- Node21&#45;&gt;Node24 -->
<g id="edge29" class="edge">
<title>Node21&#45;&gt;Node24</title>
<path fill="none" stroke="midnightblue" d="M2073.58,-135.29C2078.45,-134.81 2083.3,-134.37 2088,-134 2474.68,-103.46 2574.9,-144.43 2960,-98 2968.19,-97.01 2976.84,-95.6 2985.19,-94.04"/>
<polygon fill="midnightblue" stroke="midnightblue" points="2986.04,-97.44 2995.18,-92.07 2984.7,-90.57 2986.04,-97.44"/>
</g>
<!-- Node25 -->
<g id="node25" class="node">
<title>Node25</title>
<g id="a_node25"><a target="_parent" xlink:href="http://www.dealii.org/developer/doxygen/deal.II/function__parser_8h.html.html" xlink:title=" ">
<polygon fill="none" stroke="black" points="3113,-67.5 3113,-97.5 3229,-97.5 3229,-67.5 3113,-67.5"/>
<text text-anchor="start" x="3121" y="-85.5" font-family="Helvetica,sans-Serif" font-size="10.00">deal.II/base/function</text>
<text text-anchor="middle" x="3171" y="-74.5" font-family="Helvetica,sans-Serif" font-size="10.00">_parser.h</text>
</a>
</g>
</g>
<!-- Node21&#45;&gt;Node25 -->
<g id="edge30" class="edge">
<title>Node21&#45;&gt;Node25</title>
<path fill="none" stroke="midnightblue" d="M2073.57,-135.26C2078.45,-134.78 2083.3,-134.36 2088,-134 2535.24,-100 2653.91,-153.22 3102.65,-98.01"/>
<polygon fill="midnightblue" stroke="midnightblue" points="3103.15,-101.47 3112.64,-96.77 3102.28,-94.53 3103.15,-101.47"/>
</g>
<!-- Node26 -->
<g id="node26" class="node">
<title>Node26</title>
<g id="a_node26"><a target="_parent" xlink:href="http://www.dealii.org/developer/doxygen/deal.II/quadrature__lib_8h.html.html" xlink:title=" ">
<polygon fill="none" stroke="black" points="3247.5,-67.5 3247.5,-97.5 3376.5,-97.5 3376.5,-67.5 3247.5,-67.5"/>
<text text-anchor="start" x="3255.5" y="-85.5" font-family="Helvetica,sans-Serif" font-size="10.00">deal.II/base/quadrature</text>
<text text-anchor="middle" x="3312" y="-74.5" font-family="Helvetica,sans-Serif" font-size="10.00">_lib.h</text>
</a>
</g>
</g>
<!-- Node21&#45;&gt;Node26 -->
<g id="edge32" class="edge">
<title>Node21&#45;&gt;Node26</title>
<path fill="none" stroke="midnightblue" d="M2073.57,-135.24C2078.45,-134.77 2083.3,-134.35 2088,-134 2594.61,-96.53 2728.11,-154.58 3236.94,-97.97"/>
<polygon fill="midnightblue" stroke="midnightblue" points="3237.57,-101.42 3247.12,-96.83 3236.79,-94.47 3237.57,-101.42"/>
</g>
<!-- Node27 -->
<g id="node27" class="node">
<title>Node27</title>
<g id="a_node27"><a target="_parent" xlink:href="http://www.dealii.org/developer/doxygen/deal.II/timer_8h.html.html" xlink:title=" ">
<polygon fill="none" stroke="black" points="3395,-73 3395,-92 3505,-92 3505,-73 3395,-73"/>
<text text-anchor="middle" x="3450" y="-80" font-family="Helvetica,sans-Serif" font-size="10.00">deal.II/base/timer.h</text>
</a>
</g>
</g>
<!-- Node21&#45;&gt;Node27 -->
<g id="edge33" class="edge">
<title>Node21&#45;&gt;Node27</title>
<path fill="none" stroke="midnightblue" d="M2073.57,-135.22C2078.45,-134.75 2083.3,-134.34 2088,-134 2663.61,-92.46 2813.41,-170.1 3386,-98 3393.23,-97.09 3400.84,-95.73 3408.19,-94.2"/>
<polygon fill="midnightblue" stroke="midnightblue" points="3408.98,-97.61 3417.99,-92.04 3407.47,-90.78 3408.98,-97.61"/>
</g>
<!-- Node28 -->
<g id="node28" class="node">
<title>Node28</title>
<g id="a_node28"><a target="_parent" xlink:href="http://www.dealii.org/developer/doxygen/deal.II/distributed_2grid__refinement_8h.html.html" xlink:title=" ">
<polygon fill="none" stroke="black" points="3561,-67.5 3561,-97.5 3667,-97.5 3667,-67.5 3561,-67.5"/>
<text text-anchor="start" x="3569" y="-85.5" font-family="Helvetica,sans-Serif" font-size="10.00">deal.II/distributed</text>
<text text-anchor="middle" x="3614" y="-74.5" font-family="Helvetica,sans-Serif" font-size="10.00">/grid_refinement.h</text>
</a>
</g>
</g>
<!-- Node21&#45;&gt;Node28 -->
<g id="edge34" class="edge">
<title>Node21&#45;&gt;Node28</title>
<path fill="none" stroke="midnightblue" d="M2073.57,-135.2C2078.45,-134.74 2083.3,-134.33 2088,-134 2735.03,-88.3 2902.94,-174.94 3547,-98 3548.26,-97.85 3549.54,-97.69 3550.82,-97.51"/>
<polygon fill="midnightblue" stroke="midnightblue" points="3551.41,-100.96 3560.76,-95.97 3550.34,-94.04 3551.41,-100.96"/>
</g>
<!-- Node29 -->
<g id="node29" class="node">
<title>Node29</title>
<g id="a_node29"><a target="_parent" xlink:href="http://www.dealii.org/developer/doxygen/deal.II/shared__tria_8h.html.html" xlink:title=" ">
<polygon fill="none" stroke="black" points="3685,-67.5 3685,-97.5 3787,-97.5 3787,-67.5 3685,-67.5"/>
<text text-anchor="start" x="3693" y="-85.5" font-family="Helvetica,sans-Serif" font-size="10.00">deal.II/distributed</text>
<text text-anchor="middle" x="3736" y="-74.5" font-family="Helvetica,sans-Serif" font-size="10.00">/shared_tria.h</text>
</a>
</g>
</g>
<!-- Node21&#45;&gt;Node29 -->
<g id="edge35" class="edge">
<title>Node21&#45;&gt;Node29</title>
<path fill="none" stroke="midnightblue" d="M2073.57,-135.19C2078.45,-134.73 2083.3,-134.33 2088,-134 2436.86,-109.71 3309.6,-143.09 3674.63,-97.94"/>
<polygon fill="midnightblue" stroke="midnightblue" points="3675.27,-101.39 3684.75,-96.65 3674.39,-94.44 3675.27,-101.39"/>
</g>
<!-- Node30 -->
<g id="node30" class="node">
<title>Node30</title>
<g id="a_node30"><a target="_parent" xlink:href="http://www.dealii.org/developer/doxygen/deal.II/distributed_2tria_8h.html.html" xlink:title=" ">
<polygon fill="none" stroke="black" points="3805,-67.5 3805,-97.5 3907,-97.5 3907,-67.5 3805,-67.5"/>
<text text-anchor="start" x="3813" y="-85.5" font-family="Helvetica,sans-Serif" font-size="10.00">deal.II/distributed</text>
<text text-anchor="middle" x="3856" y="-74.5" font-family="Helvetica,sans-Serif" font-size="10.00">/tria.h</text>
</a>
</g>
</g>
<!-- Node21&#45;&gt;Node30 -->
<g id="edge36" class="edge">
<title>Node21&#45;&gt;Node30</title>
<path fill="none" stroke="midnightblue" d="M2073.57,-135.18C2078.45,-134.73 2083.3,-134.32 2088,-134 2463.51,-108.16 3403.28,-146.21 3794.75,-97.92"/>
<polygon fill="midnightblue" stroke="midnightblue" points="3795.27,-101.39 3804.75,-96.66 3794.39,-94.44 3795.27,-101.39"/>
</g>
<!-- Node31 -->
<g id="node31" class="node">
<title>Node31</title>
<g id="a_node31"><a target="_parent" xlink:href="http://www.dealii.org/developer/doxygen/deal.II/dof__handler_8h.html.html" xlink:title=" ">
<polygon fill="none" stroke="red" points="3925,-73 3925,-92 4065,-92 4065,-73 3925,-73"/>
<text text-anchor="middle" x="3995" y="-80" font-family="Helvetica,sans-Serif" font-size="10.00">deal.II/dofs/dof_handler.h</text>
</a>
</g>
</g>
<!-- Node21&#45;&gt;Node31 -->
<g id="edge37" class="edge">
<title>Node21&#45;&gt;Node31</title>
<path fill="none" stroke="midnightblue" d="M2073.57,-135.17C2078.45,-134.72 2083.3,-134.32 2088,-134 2898.72,-78.77 3107.51,-179.62 3916,-98 3925.58,-97.03 3935.73,-95.53 3945.46,-93.86"/>
<polygon fill="midnightblue" stroke="midnightblue" points="3946.18,-97.29 3955.4,-92.07 3944.93,-90.4 3946.18,-97.29"/>
</g>
<!-- Node33 -->
<g id="node32" class="node">
<title>Node33</title>
<g id="a_node32"><a target="_parent" xlink:href="http://www.dealii.org/developer/doxygen/deal.II/dof__tools_8h.html.html" xlink:title=" ">
<polygon fill="none" stroke="black" points="435,-73 435,-92 563,-92 563,-73 435,-73"/>
<text text-anchor="middle" x="499" y="-80" font-family="Helvetica,sans-Serif" font-size="10.00">deal.II/dofs/dof_tools.h</text>
</a>
</g>
</g>
<!-- Node21&#45;&gt;Node33 -->
<g id="edge38" class="edge">
<title>Node21&#45;&gt;Node33</title>
<path fill="none" stroke="midnightblue" d="M1948.2,-142.41C1707.63,-139.96 844.55,-129.11 572,-98 563.51,-97.03 554.54,-95.59 545.89,-94"/>
<polygon fill="midnightblue" stroke="midnightblue" points="546.43,-90.54 535.95,-92.07 545.1,-97.41 546.43,-90.54"/>
</g>
<!-- Node34 -->
<g id="node33" class="node">
<title>Node34</title>
<g id="a_node33"><a target="_parent" xlink:href="http://www.dealii.org/developer/doxygen/deal.II/fe__q_8h.html.html" xlink:title=" ">
<polygon fill="none" stroke="black" points="581,-73 581,-92 673,-92 673,-73 581,-73"/>
<text text-anchor="middle" x="627" y="-80" font-family="Helvetica,sans-Serif" font-size="10.00">deal.II/fe/fe_q.h</text>
</a>
</g>
</g>
<!-- Node21&#45;&gt;Node34 -->
<g id="edge39" class="edge">
<title>Node21&#45;&gt;Node34</title>
<path fill="none" stroke="midnightblue" d="M1948.3,-142.74C1719.65,-141.49 930.97,-134.56 682,-98 676.18,-97.15 670.09,-95.9 664.17,-94.5"/>
<polygon fill="midnightblue" stroke="midnightblue" points="665,-91.1 654.45,-92.03 663.28,-97.88 665,-91.1"/>
</g>
<!-- Node35 -->
<g id="node34" class="node">
<title>Node35</title>
<g id="a_node34"><a target="_parent" xlink:href="http://www.dealii.org/developer/doxygen/deal.II/fe_2fe__values_8h.html.html" xlink:title=" ">
<polygon fill="none" stroke="black" points="691.5,-73 691.5,-92 810.5,-92 810.5,-73 691.5,-73"/>
<text text-anchor="middle" x="751" y="-80" font-family="Helvetica,sans-Serif" font-size="10.00">deal.II/fe/fe_values.h</text>
</a>
</g>
</g>
<!-- Node21&#45;&gt;Node35 -->
<g id="edge40" class="edge">
<title>Node21&#45;&gt;Node35</title>
<path fill="none" stroke="midnightblue" d="M1948.36,-142.03C1735.59,-138.54 1041.54,-125.26 820,-98 812.14,-97.03 803.85,-95.63 795.84,-94.07"/>
<polygon fill="midnightblue" stroke="midnightblue" points="796.41,-90.61 785.91,-92.03 795,-97.47 796.41,-90.61"/>
</g>
<!-- Node36 -->
<g id="node35" class="node">
<title>Node36</title>
<g id="a_node35"><a target="_parent" xlink:href="http://www.dealii.org/developer/doxygen/deal.II/fe__values__extractors_8h.html.html" xlink:title=" ">
<polygon fill="none" stroke="black" points="829,-67.5 829,-97.5 939,-97.5 939,-67.5 829,-67.5"/>
<text text-anchor="start" x="837" y="-85.5" font-family="Helvetica,sans-Serif" font-size="10.00">deal.II/fe/fe_values</text>
<text text-anchor="middle" x="884" y="-74.5" font-family="Helvetica,sans-Serif" font-size="10.00">_extractors.h</text>
</a>
</g>
</g>
<!-- Node21&#45;&gt;Node36 -->
<g id="edge41" class="edge">
<title>Node21&#45;&gt;Node36</title>
<path fill="none" stroke="midnightblue" d="M1948.3,-141.83C1754,-137.98 1162.7,-124.48 949.22,-97.95"/>
<polygon fill="midnightblue" stroke="midnightblue" points="949.41,-94.44 939.04,-96.63 948.51,-101.38 949.41,-94.44"/>
</g>
<!-- Node37 -->
<g id="node36" class="node">
<title>Node37</title>
<g id="a_node36"><a target="_parent" xlink:href="http://www.dealii.org/developer/doxygen/deal.II/mapping__q__generic_8h.html.html" xlink:title=" ">
<polygon fill="none" stroke="black" points="957.5,-67.5 957.5,-97.5 1062.5,-97.5 1062.5,-67.5 957.5,-67.5"/>
<text text-anchor="start" x="965.5" y="-85.5" font-family="Helvetica,sans-Serif" font-size="10.00">deal.II/fe/mapping</text>
<text text-anchor="middle" x="1010" y="-74.5" font-family="Helvetica,sans-Serif" font-size="10.00">_q_generic.h</text>
</a>
</g>
</g>
<!-- Node21&#45;&gt;Node37 -->
<g id="edge42" class="edge">
<title>Node21&#45;&gt;Node37</title>
<path fill="none" stroke="midnightblue" d="M1948.28,-141.52C1769.74,-137.06 1260.03,-122.62 1072.79,-98.05"/>
<polygon fill="midnightblue" stroke="midnightblue" points="1073.17,-94.57 1062.79,-96.68 1072.22,-101.5 1073.17,-94.57"/>
</g>
<!-- Node38 -->
<g id="node37" class="node">
<title>Node38</title>
<g id="a_node37"><a target="_parent" xlink:href="http://www.dealii.org/developer/doxygen/deal.II/grid__generator_8h.html.html" xlink:title=" ">
<polygon fill="none" stroke="red" points="1080.5,-73 1080.5,-92 1231.5,-92 1231.5,-73 1080.5,-73"/>
<text text-anchor="middle" x="1156" y="-80" font-family="Helvetica,sans-Serif" font-size="10.00">deal.II/grid/grid_generator.h</text>
</a>
</g>
</g>
<!-- Node21&#45;&gt;Node38 -->
<g id="edge43" class="edge">
<title>Node21&#45;&gt;Node38</title>
<path fill="none" stroke="midnightblue" d="M1948.33,-141.73C1816.72,-138.55 1502.08,-128.17 1240,-98 1230.29,-96.88 1220,-95.38 1210.07,-93.76"/>
<polygon fill="midnightblue" stroke="midnightblue" points="1210.34,-90.25 1199.9,-92.04 1209.17,-97.15 1210.34,-90.25"/>
</g>
<!-- Node39 -->
<g id="node38" class="node">
<title>Node39</title>
<g id="a_node38"><a target="_parent" xlink:href="http://www.dealii.org/developer/doxygen/deal.II/grid_2tria_8h.html.html" xlink:title=" ">
<polygon fill="none" stroke="black" points="1249.5,-73 1249.5,-92 1346.5,-92 1346.5,-73 1249.5,-73"/>
<text text-anchor="middle" x="1298" y="-80" font-family="Helvetica,sans-Serif" font-size="10.00">deal.II/grid/tria.h</text>
</a>
</g>
</g>
<!-- Node21&#45;&gt;Node39 -->
<g id="edge44" class="edge">
<title>Node21&#45;&gt;Node39</title>
<path fill="none" stroke="midnightblue" d="M1948.16,-142.45C1830.85,-140.6 1570.86,-132.57 1355,-98 1349.19,-97.07 1343.1,-95.82 1337.16,-94.45"/>
<polygon fill="midnightblue" stroke="midnightblue" points="1337.92,-91.03 1327.37,-92.05 1336.25,-97.83 1337.92,-91.03"/>
</g>
<!-- Node40 -->
<g id="node39" class="node">
<title>Node40</title>
<g id="a_node39"><a target="_parent" xlink:href="http://www.dealii.org/developer/doxygen/deal.II/affine__constraints_8h.html.html" xlink:title=" ">
<polygon fill="none" stroke="black" points="1364.5,-67.5 1364.5,-97.5 1459.5,-97.5 1459.5,-67.5 1364.5,-67.5"/>
<text text-anchor="start" x="1372.5" y="-85.5" font-family="Helvetica,sans-Serif" font-size="10.00">deal.II/lac/affine</text>
<text text-anchor="middle" x="1412" y="-74.5" font-family="Helvetica,sans-Serif" font-size="10.00">_constraints.h</text>
</a>
</g>
</g>
<!-- Node21&#45;&gt;Node40 -->
<g id="edge45" class="edge">
<title>Node21&#45;&gt;Node40</title>
<path fill="none" stroke="midnightblue" d="M1948.4,-141.18C1848.93,-137.55 1648.65,-127.21 1469.89,-97.95"/>
<polygon fill="midnightblue" stroke="midnightblue" points="1470.21,-94.45 1459.77,-96.27 1469.06,-101.36 1470.21,-94.45"/>
</g>
<!-- Node41 -->
<g id="node40" class="node">
<title>Node41</title>
<g id="a_node40"><a target="_parent" xlink:href="http://www.dealii.org/developer/doxygen/deal.II/dynamic__sparsity__pattern_8h.html.html" xlink:title=" ">
<polygon fill="none" stroke="black" points="1478,-67.5 1478,-97.5 1588,-97.5 1588,-67.5 1478,-67.5"/>
<text text-anchor="start" x="1486" y="-85.5" font-family="Helvetica,sans-Serif" font-size="10.00">deal.II/lac/dynamic</text>
<text text-anchor="middle" x="1533" y="-74.5" font-family="Helvetica,sans-Serif" font-size="10.00">_sparsity_pattern.h</text>
</a>
</g>
</g>
<!-- Node21&#45;&gt;Node41 -->
<g id="edge46" class="edge">
<title>Node21&#45;&gt;Node41</title>
<path fill="none" stroke="midnightblue" d="M1948.27,-138.43C1868.97,-132.16 1728.1,-119.34 1598.21,-98.08"/>
<polygon fill="midnightblue" stroke="midnightblue" points="1598.52,-94.58 1588.08,-96.4 1597.37,-101.49 1598.52,-94.58"/>
</g>
<!-- Node42 -->
<g id="node41" class="node">
<title>Node42</title>
<g id="a_node41"><a target="_parent" xlink:href="http://www.dealii.org/developer/doxygen/deal.II/full__matrix_8h.html.html" xlink:title=" ">
<polygon fill="none" stroke="black" points="1606.5,-73 1606.5,-92 1735.5,-92 1735.5,-73 1606.5,-73"/>
<text text-anchor="middle" x="1671" y="-80" font-family="Helvetica,sans-Serif" font-size="10.00">deal.II/lac/full_matrix.h</text>
</a>
</g>
</g>
<!-- Node21&#45;&gt;Node42 -->
<g id="edge47" class="edge">
<title>Node21&#45;&gt;Node42</title>
<path fill="none" stroke="midnightblue" d="M1957.73,-134.49C1903.78,-125.76 1817.98,-111.58 1744,-98 1737.25,-96.76 1730.17,-95.41 1723.17,-94.05"/>
<polygon fill="midnightblue" stroke="midnightblue" points="1723.52,-90.56 1713.04,-92.07 1722.18,-97.43 1723.52,-90.56"/>
</g>
<!-- Node43 -->
<g id="node42" class="node">
<title>Node43</title>
<g id="a_node42"><a target="_parent" xlink:href="http://www.dealii.org/developer/doxygen/deal.II/generic__linear__algebra_8h.html.html" xlink:title=" ">
<polygon fill="none" stroke="black" points="1753.5,-67.5 1753.5,-97.5 1856.5,-97.5 1856.5,-67.5 1753.5,-67.5"/>
<text text-anchor="start" x="1761.5" y="-85.5" font-family="Helvetica,sans-Serif" font-size="10.00">deal.II/lac/generic</text>
<text text-anchor="middle" x="1805" y="-74.5" font-family="Helvetica,sans-Serif" font-size="10.00">_linear_algebra.h</text>
</a>
</g>
</g>
<!-- Node21&#45;&gt;Node43 -->
<g id="edge48" class="edge">
<title>Node21&#45;&gt;Node43</title>
<path fill="none" stroke="midnightblue" d="M1981.49,-134.48C1950.85,-125.63 1902.11,-111.55 1863.61,-100.43"/>
<polygon fill="midnightblue" stroke="midnightblue" points="1864.13,-96.94 1853.55,-97.52 1862.19,-103.66 1864.13,-96.94"/>
</g>
<!-- Node44 -->
<g id="node43" class="node">
<title>Node44</title>
<g id="a_node43"><a target="_parent" xlink:href="http://www.dealii.org/developer/doxygen/deal.II/precondition_8h.html.html" xlink:title=" ">
<polygon fill="none" stroke="black" points="1874.5,-73 1874.5,-92 2011.5,-92 2011.5,-73 1874.5,-73"/>
<text text-anchor="middle" x="1943" y="-80" font-family="Helvetica,sans-Serif" font-size="10.00">deal.II/lac/precondition.h</text>
</a>
</g>
</g>
<!-- Node21&#45;&gt;Node44 -->
<g id="edge49" class="edge">
<title>Node21&#45;&gt;Node44</title>
<path fill="none" stroke="midnightblue" d="M2001.26,-134.48C1990.65,-125.2 1973.48,-110.17 1960.52,-98.83"/>
<polygon fill="midnightblue" stroke="midnightblue" points="1962.56,-95.96 1952.72,-92.01 1957.95,-101.23 1962.56,-95.96"/>
</g>
<!-- Node45 -->
<g id="node44" class="node">
<title>Node45</title>
<g id="a_node44"><a target="_parent" xlink:href="http://www.dealii.org/developer/doxygen/deal.II/sparse__matrix_8h.html.html" xlink:title=" ">
<polygon fill="none" stroke="black" points="2029.5,-67.5 2029.5,-97.5 2128.5,-97.5 2128.5,-67.5 2029.5,-67.5"/>
<text text-anchor="start" x="2037.5" y="-85.5" font-family="Helvetica,sans-Serif" font-size="10.00">deal.II/lac/sparse</text>
<text text-anchor="middle" x="2079" y="-74.5" font-family="Helvetica,sans-Serif" font-size="10.00">_matrix.h</text>
</a>
</g>
</g>
<!-- Node21&#45;&gt;Node45 -->
<g id="edge51" class="edge">
<title>Node21&#45;&gt;Node45</title>
<path fill="none" stroke="midnightblue" d="M2020.74,-134.48C2029.69,-126.64 2043.33,-114.71 2055.15,-104.37"/>
<polygon fill="midnightblue" stroke="midnightblue" points="2057.75,-106.74 2062.97,-97.52 2053.14,-101.47 2057.75,-106.74"/>
</g>
<!-- Node46 -->
<g id="node45" class="node">
<title>Node46</title>
<g id="a_node45"><a target="_parent" xlink:href="http://www.dealii.org/developer/doxygen/deal.II/vector_8h.html.html" xlink:title=" ">
<polygon fill="none" stroke="black" points="2147,-73 2147,-92 2253,-92 2253,-73 2147,-73"/>
<text text-anchor="middle" x="2200" y="-80" font-family="Helvetica,sans-Serif" font-size="10.00">deal.II/lac/vector.h</text>
</a>
</g>
</g>
<!-- Node21&#45;&gt;Node46 -->
<g id="edge52" class="edge">
<title>Node21&#45;&gt;Node46</title>
<path fill="none" stroke="midnightblue" d="M2038.08,-134.48C2070.92,-124.14 2126.43,-106.66 2163.15,-95.1"/>
<polygon fill="midnightblue" stroke="midnightblue" points="2164.48,-98.35 2172.97,-92.01 2162.38,-91.67 2164.48,-98.35"/>
</g>
<!-- Node47 -->
<g id="node46" class="node">
<title>Node47</title>
<g id="a_node46"><a target="_parent" xlink:href="http://www.dealii.org/developer/doxygen/deal.II/copy__data_8h.html.html" xlink:title=" ">
<polygon fill="none" stroke="black" points="2271,-67.5 2271,-97.5 2381,-97.5 2381,-67.5 2271,-67.5"/>
<text text-anchor="start" x="2279" y="-85.5" font-family="Helvetica,sans-Serif" font-size="10.00">deal.II/meshworker</text>
<text text-anchor="middle" x="2326" y="-74.5" font-family="Helvetica,sans-Serif" font-size="10.00">/copy_data.h</text>
</a>
</g>
</g>
<!-- Node21&#45;&gt;Node47 -->
<g id="edge53" class="edge">
<title>Node21&#45;&gt;Node47</title>
<path fill="none" stroke="midnightblue" d="M2062.57,-134.46C2111.22,-126.24 2186.42,-113.13 2260.86,-98.18"/>
<polygon fill="midnightblue" stroke="midnightblue" points="2261.77,-101.57 2270.88,-96.16 2260.38,-94.71 2261.77,-101.57"/>
</g>
<!-- Node48 -->
<g id="node47" class="node">
<title>Node48</title>
<g id="a_node47"><a target="_parent" xlink:href="http://www.dealii.org/developer/doxygen/deal.II/scratch__data_8h.html.html" xlink:title=" ">
<polygon fill="none" stroke="black" points="2399,-67.5 2399,-97.5 2509,-97.5 2509,-67.5 2399,-67.5"/>
<text text-anchor="start" x="2407" y="-85.5" font-family="Helvetica,sans-Serif" font-size="10.00">deal.II/meshworker</text>
<text text-anchor="middle" x="2454" y="-74.5" font-family="Helvetica,sans-Serif" font-size="10.00">/scratch_data.h</text>
</a>
</g>
</g>
<!-- Node21&#45;&gt;Node48 -->
<g id="edge54" class="edge">
<title>Node21&#45;&gt;Node48</title>
<path fill="none" stroke="midnightblue" d="M2073.71,-135.64C2169.06,-124.44 2343.58,-103.89 2388.98,-97.8"/>
<polygon fill="midnightblue" stroke="midnightblue" points="2389.52,-101.26 2398.92,-96.36 2388.52,-94.33 2389.52,-101.26"/>
</g>
<!-- Node49 -->
<g id="node48" class="node">
<title>Node49</title>
<g id="a_node48"><a target="_parent" xlink:href="http://www.dealii.org/developer/doxygen/deal.II/numerics_2data__out_8h.html.html" xlink:title=" ">
<polygon fill="none" stroke="black" points="2527.5,-67.5 2527.5,-97.5 2646.5,-97.5 2646.5,-67.5 2527.5,-67.5"/>
<text text-anchor="start" x="2535.5" y="-85.5" font-family="Helvetica,sans-Serif" font-size="10.00">deal.II/numerics/data</text>
<text text-anchor="middle" x="2587" y="-74.5" font-family="Helvetica,sans-Serif" font-size="10.00">_out.h</text>
</a>
</g>
</g>
<!-- Node21&#45;&gt;Node49 -->
<g id="edge55" class="edge">
<title>Node21&#45;&gt;Node49</title>
<path fill="none" stroke="midnightblue" d="M2073.6,-135.51C2078.47,-134.98 2083.31,-134.47 2088,-134 2275.56,-115.19 2326.51,-125.41 2517.17,-97.99"/>
<polygon fill="midnightblue" stroke="midnightblue" points="2517.85,-101.43 2527.24,-96.53 2516.84,-94.5 2517.85,-101.43"/>
</g>
<!-- Node62 -->
<g id="node50" class="node">
<title>Node62</title>
<g id="a_node50"><a target="_parent" xlink:href="http://www.dealii.org/developer/doxygen/deal.II/include_2deal_8II_2base_2utilities_8h.html.html" xlink:title=" ">
<polygon fill="none" stroke="black" points="2130,-134.5 2130,-153.5 2252,-153.5 2252,-134.5 2130,-134.5"/>
<text text-anchor="middle" x="2191" y="-141.5" font-family="Helvetica,sans-Serif" font-size="10.00">deal.II/base/utilities.h</text>
</a>
</g>
</g>
<!-- Node88&#45;&gt;Node62 -->
<g id="edge60" class="edge">
<title>Node88&#45;&gt;Node62</title>
<path fill="none" stroke="midnightblue" d="M1926.09,-193.82C1973.99,-185 2072.32,-166.87 2134.77,-155.36"/>
<polygon fill="midnightblue" stroke="midnightblue" points="2135.65,-158.76 2144.85,-153.5 2134.38,-151.88 2135.65,-158.76"/>
</g>
</g>
</svg>
