<?xml version="1.0" encoding="UTF-8" standalone="no"?>
<!DOCTYPE svg PUBLIC "-//W3C//DTD SVG 1.1//EN"
 "http://www.w3.org/Graphics/SVG/1.1/DTD/svg11.dtd">
<!-- Generated by graphviz version 2.43.0 (0)
 -->
<!-- Title: apps/mpi/stokes.cc Pages: 1 -->
<svg width="4712pt" height="274pt"
 viewBox="0.00 0.00 4712.00 274.00" xmlns="http://www.w3.org/2000/svg" xmlns:xlink="http://www.w3.org/1999/xlink">
<g id="graph0" class="graph" transform="scale(1 1) rotate(0) translate(4 270)">
<title>apps/mpi/stokes.cc</title>
<!-- Node1 -->
<g id="node1" class="node">
<title>Node1</title>
<g id="a_node1"><a xlink:title=" ">
<polygon fill="#bfbfbf" stroke="black" points="1350.5,-246.5 1350.5,-265.5 1460.5,-265.5 1460.5,-246.5 1350.5,-246.5"/>
<text text-anchor="middle" x="1405.5" y="-253.5" font-family="Helvetica,sans-Serif" font-size="10.00">apps/mpi/stokes.cc</text>
</a>
</g>
</g>
<!-- Node2 -->
<g id="node2" class="node">
<title>Node2</title>
<g id="a_node2"><a xlink:href="stokes_8h.html" target="_top" xlink:title=" ">
<polygon fill="none" stroke="black" points="1320,-190.5 1320,-209.5 1403,-209.5 1403,-190.5 1320,-190.5"/>
<text text-anchor="middle" x="1361.5" y="-197.5" font-family="Helvetica,sans-Serif" font-size="10.00">pdes/stokes.h</text>
</a>
</g>
</g>
<!-- Node1&#45;&gt;Node2 -->
<g id="edge1" class="edge">
<title>Node1&#45;&gt;Node2</title>
<path fill="none" stroke="midnightblue" d="M1398.23,-246.08C1391.96,-238.38 1382.71,-227.03 1375.07,-217.65"/>
<polygon fill="midnightblue" stroke="midnightblue" points="1377.66,-215.29 1368.63,-209.75 1372.23,-219.71 1377.66,-215.29"/>
</g>
<!-- Node88 -->
<g id="node49" class="node">
<title>Node88</title>
<g id="a_node49"><a xlink:href="runner_8h.html" target="_top" xlink:title=" ">
<polygon fill="none" stroke="black" points="1871,-190.5 1871,-209.5 1928,-209.5 1928,-190.5 1871,-190.5"/>
<text text-anchor="middle" x="1899.5" y="-197.5" font-family="Helvetica,sans-Serif" font-size="10.00">runner.h</text>
</a>
</g>
</g>
<!-- Node1&#45;&gt;Node88 -->
<g id="edge59" class="edge">
<title>Node1&#45;&gt;Node88</title>
<path fill="none" stroke="midnightblue" d="M1460.73,-248.96C1561.74,-237.92 1773.85,-214.73 1860.93,-205.22"/>
<polygon fill="midnightblue" stroke="midnightblue" points="1861.36,-208.69 1870.92,-204.12 1860.6,-201.73 1861.36,-208.69"/>
</g>
<!-- Node3 -->
<g id="node3" class="node">
<title>Node3</title>
<g id="a_node3"><a xlink:href="amg_8h.html" target="_top" xlink:title=" ">
<polygon fill="none" stroke="black" points="276,-73 276,-92 379,-92 379,-73 276,-73"/>
<text text-anchor="middle" x="327.5" y="-80" font-family="Helvetica,sans-Serif" font-size="10.00">parsed_lac/amg.h</text>
</a>
</g>
</g>
<!-- Node2&#45;&gt;Node3 -->
<g id="edge2" class="edge">
<title>Node2&#45;&gt;Node3</title>
<path fill="none" stroke="midnightblue" d="M1319.77,-196.33C1185.02,-187.34 749.63,-155.51 393.5,-98 386.81,-96.92 379.77,-95.59 372.89,-94.17"/>
<polygon fill="midnightblue" stroke="midnightblue" points="373.49,-90.72 362.98,-92.06 372.03,-97.57 373.49,-90.72"/>
</g>
<!-- Node7 -->
<g id="node7" class="node">
<title>Node7</title>
<g id="a_node7"><a xlink:href="ilu_8h.html" target="_top" xlink:title=" ">
<polygon fill="none" stroke="black" points="165,-73 165,-92 258,-92 258,-73 165,-73"/>
<text text-anchor="middle" x="211.5" y="-80" font-family="Helvetica,sans-Serif" font-size="10.00">parsed_lac/ilu.h</text>
</a>
</g>
</g>
<!-- Node2&#45;&gt;Node7 -->
<g id="edge6" class="edge">
<title>Node2&#45;&gt;Node7</title>
<path fill="none" stroke="midnightblue" d="M1319.97,-197.51C1210.74,-193.36 906.51,-180.16 654.5,-154 481.2,-136.01 437.24,-132.71 266.5,-98 261.49,-96.98 256.25,-95.78 251.09,-94.51"/>
<polygon fill="midnightblue" stroke="midnightblue" points="251.88,-91.1 241.33,-92.03 250.15,-97.89 251.88,-91.1"/>
</g>
<!-- Node8 -->
<g id="node8" class="node">
<title>Node8</title>
<g id="a_node8"><a xlink:href="inverse__operator_8h.html" target="_top" xlink:title=" ">
<polygon fill="none" stroke="black" points="4089.5,-67.5 4089.5,-97.5 4197.5,-97.5 4197.5,-67.5 4089.5,-67.5"/>
<text text-anchor="start" x="4097.5" y="-85.5" font-family="Helvetica,sans-Serif" font-size="10.00">parsed_lac/inverse</text>
<text text-anchor="middle" x="4143.5" y="-74.5" font-family="Helvetica,sans-Serif" font-size="10.00">_operator.h</text>
</a>
</g>
</g>
<!-- Node2&#45;&gt;Node8 -->
<g id="edge10" class="edge">
<title>Node2&#45;&gt;Node8</title>
<path fill="none" stroke="midnightblue" d="M1403.09,-198.7C1537,-197.38 1955.75,-190.37 2085.5,-154 2103.88,-148.85 2105.01,-138.75 2123.5,-134 2331.26,-80.63 3823.04,-123.33 4079.39,-97.82"/>
<polygon fill="midnightblue" stroke="midnightblue" points="4079.78,-101.3 4089.33,-96.72 4079.01,-94.34 4079.78,-101.3"/>
</g>
<!-- Node19 -->
<g id="node19" class="node">
<title>Node19</title>
<g id="a_node19"><a xlink:href="constants_8h.html" target="_top" xlink:title=" ">
<polygon fill="none" stroke="black" points="8.5,-73 8.5,-92 146.5,-92 146.5,-73 8.5,-73"/>
<text text-anchor="middle" x="77.5" y="-80" font-family="Helvetica,sans-Serif" font-size="10.00">parsed_tools/constants.h</text>
</a>
</g>
</g>
<!-- Node2&#45;&gt;Node19 -->
<g id="edge23" class="edge">
<title>Node2&#45;&gt;Node19</title>
<path fill="none" stroke="midnightblue" d="M1319.55,-198.76C1191.62,-197.62 795.34,-191.12 469.5,-154 344.5,-139.76 199.17,-110.15 125.55,-94.21"/>
<polygon fill="midnightblue" stroke="midnightblue" points="126.17,-90.76 115.65,-92.06 124.68,-97.6 126.17,-90.76"/>
</g>
<!-- Node21 -->
<g id="node21" class="node">
<title>Node21</title>
<g id="a_node21"><a xlink:href="linear__problem_8h.html" target="_top" xlink:title=" ">
<polygon fill="none" stroke="red" points="1951,-134.5 1951,-153.5 2076,-153.5 2076,-134.5 1951,-134.5"/>
<text text-anchor="middle" x="2013.5" y="-141.5" font-family="Helvetica,sans-Serif" font-size="10.00">pdes/linear_problem.h</text>
</a>
</g>
</g>
<!-- Node2&#45;&gt;Node21 -->
<g id="edge26" class="edge">
<title>Node2&#45;&gt;Node21</title>
<path fill="none" stroke="midnightblue" d="M1403.28,-195.54C1511.86,-186.55 1804.01,-162.35 1940.88,-151.01"/>
<polygon fill="midnightblue" stroke="midnightblue" points="1941.19,-154.5 1950.86,-150.19 1940.61,-147.53 1941.19,-154.5"/>
</g>
<!-- Node4 -->
<g id="node4" class="node">
<title>Node4</title>
<g id="a_node4"><a xlink:href="http://www.dealii.org/developer/doxygen/deal.II/config_8h.html.html" xlink:title=" ">
<polygon fill="none" stroke="black" points="425,-6 425,-25 540,-25 540,-6 425,-6"/>
<text text-anchor="middle" x="482.5" y="-13" font-family="Helvetica,sans-Serif" font-size="10.00">deal.II/base/config.h</text>
</a>
</g>
</g>
<!-- Node3&#45;&gt;Node4 -->
<g id="edge3" class="edge">
<title>Node3&#45;&gt;Node4</title>
<path fill="none" stroke="midnightblue" d="M348.08,-72.87C374.83,-61.65 421.75,-41.98 452.47,-29.09"/>
<polygon fill="midnightblue" stroke="midnightblue" points="453.96,-32.26 461.83,-25.17 451.26,-25.81 453.96,-32.26"/>
</g>
<!-- Node5 -->
<g id="node5" class="node">
<title>Node5</title>
<g id="a_node5"><a xlink:href="http://www.dealii.org/developer/doxygen/deal.II/parameter__acceptor_8h.html.html" xlink:title=" ">
<polygon fill="none" stroke="black" points="280,-0.5 280,-30.5 407,-30.5 407,-0.5 280,-0.5"/>
<text text-anchor="start" x="288" y="-18.5" font-family="Helvetica,sans-Serif" font-size="10.00">deal.II/base/parameter</text>
<text text-anchor="middle" x="343.5" y="-7.5" font-family="Helvetica,sans-Serif" font-size="10.00">_acceptor.h</text>
</a>
</g>
</g>
<!-- Node3&#45;&gt;Node5 -->
<g id="edge4" class="edge">
<title>Node3&#45;&gt;Node5</title>
<path fill="none" stroke="midnightblue" d="M329.66,-72.73C331.7,-64.46 334.84,-51.66 337.62,-40.37"/>
<polygon fill="midnightblue" stroke="midnightblue" points="341.04,-41.14 340.03,-30.59 334.24,-39.46 341.04,-41.14"/>
</g>
<!-- Node6 -->
<g id="node6" class="node">
<title>Node6</title>
<g id="a_node6"><a xlink:href="http://www.dealii.org/developer/doxygen/deal.II/trilinos__precondition_8h.html.html" xlink:title=" ">
<polygon fill="none" stroke="black" points="161,-0.5 161,-30.5 262,-30.5 262,-0.5 161,-0.5"/>
<text text-anchor="start" x="169" y="-18.5" font-family="Helvetica,sans-Serif" font-size="10.00">deal.II/lac/trilinos</text>
<text text-anchor="middle" x="211.5" y="-7.5" font-family="Helvetica,sans-Serif" font-size="10.00">_precondition.h</text>
</a>
</g>
</g>
<!-- Node3&#45;&gt;Node6 -->
<g id="edge5" class="edge">
<title>Node3&#45;&gt;Node6</title>
<path fill="none" stroke="midnightblue" d="M311.86,-72.73C294.97,-63.27 267.56,-47.91 245.65,-35.64"/>
<polygon fill="midnightblue" stroke="midnightblue" points="247.08,-32.42 236.64,-30.59 243.66,-38.53 247.08,-32.42"/>
</g>
<!-- Node7&#45;&gt;Node4 -->
<g id="edge7" class="edge">
<title>Node7&#45;&gt;Node4</title>
<path fill="none" stroke="midnightblue" d="M243.16,-72.99C250.79,-70.98 258.93,-68.88 266.5,-67 324.23,-52.64 390.93,-37.23 434.76,-27.26"/>
<polygon fill="midnightblue" stroke="midnightblue" points="435.6,-30.66 444.57,-25.03 434.05,-23.83 435.6,-30.66"/>
</g>
<!-- Node7&#45;&gt;Node5 -->
<g id="edge8" class="edge">
<title>Node7&#45;&gt;Node5</title>
<path fill="none" stroke="midnightblue" d="M229.03,-72.87C248.43,-63.31 280.29,-47.63 305.47,-35.22"/>
<polygon fill="midnightblue" stroke="midnightblue" points="307.34,-38.21 314.76,-30.65 304.24,-31.93 307.34,-38.21"/>
</g>
<!-- Node7&#45;&gt;Node6 -->
<g id="edge9" class="edge">
<title>Node7&#45;&gt;Node6</title>
<path fill="none" stroke="midnightblue" d="M211.5,-72.73C211.5,-64.54 211.5,-51.92 211.5,-40.71"/>
<polygon fill="midnightblue" stroke="midnightblue" points="215,-40.59 211.5,-30.59 208,-40.59 215,-40.59"/>
</g>
<!-- Node8&#45;&gt;Node4 -->
<g id="edge11" class="edge">
<title>Node8&#45;&gt;Node4</title>
<path fill="none" stroke="midnightblue" d="M4089.33,-68.27C4086.36,-67.78 4083.4,-67.35 4080.5,-67 3717.92,-23.23 1015.63,-17.29 550.55,-16.59"/>
<polygon fill="midnightblue" stroke="midnightblue" points="550.31,-13.09 540.3,-16.57 550.3,-20.09 550.31,-13.09"/>
</g>
<!-- Node8&#45;&gt;Node5 -->
<g id="edge13" class="edge">
<title>Node8&#45;&gt;Node5</title>
<path fill="none" stroke="midnightblue" d="M4089.33,-68.25C4086.36,-67.77 4083.4,-67.34 4080.5,-67 3274.94,28.52 1242.02,-114.62 416.95,-30.99"/>
<polygon fill="midnightblue" stroke="midnightblue" points="417.31,-27.51 407,-29.97 416.59,-34.47 417.31,-27.51"/>
</g>
<!-- Node9 -->
<g id="node9" class="node">
<title>Node9</title>
<g id="a_node9"><a xlink:href="http://www.dealii.org/developer/doxygen/deal.II/general__data__storage_8h.html.html" xlink:title=" ">
<polygon fill="none" stroke="black" points="4210.5,-0.5 4210.5,-30.5 4344.5,-30.5 4344.5,-0.5 4210.5,-0.5"/>
<text text-anchor="start" x="4218.5" y="-18.5" font-family="Helvetica,sans-Serif" font-size="10.00">deal.II/algorithms</text>
<text text-anchor="middle" x="4277.5" y="-7.5" font-family="Helvetica,sans-Serif" font-size="10.00">/general_data_storage.h</text>
</a>
</g>
</g>
<!-- Node8&#45;&gt;Node9 -->
<g id="edge12" class="edge">
<title>Node8&#45;&gt;Node9</title>
<path fill="none" stroke="midnightblue" d="M4172.58,-67.4C4192.15,-57.9 4218.18,-45.28 4239.41,-34.98"/>
<polygon fill="midnightblue" stroke="midnightblue" points="4241.01,-38.09 4248.48,-30.58 4237.96,-31.79 4241.01,-38.09"/>
</g>
<!-- Node10 -->
<g id="node10" class="node">
<title>Node10</title>
<g id="a_node10"><a xlink:href="http://www.dealii.org/developer/doxygen/deal.II/linear__operator__tools_8h.html.html" xlink:title=" ">
<polygon fill="none" stroke="black" points="4363,-0.5 4363,-30.5 4464,-30.5 4464,-0.5 4363,-0.5"/>
<text text-anchor="start" x="4371" y="-18.5" font-family="Helvetica,sans-Serif" font-size="10.00">deal.II/lac/linear</text>
<text text-anchor="middle" x="4413.5" y="-7.5" font-family="Helvetica,sans-Serif" font-size="10.00">_operator_tools.h</text>
</a>
</g>
</g>
<!-- Node8&#45;&gt;Node10 -->
<g id="edge14" class="edge">
<title>Node8&#45;&gt;Node10</title>
<path fill="none" stroke="midnightblue" d="M4197.89,-68.44C4238.06,-58.79 4294.33,-45.26 4352.95,-31.13"/>
<polygon fill="midnightblue" stroke="midnightblue" points="4353.86,-34.51 4362.76,-28.77 4352.22,-27.71 4353.86,-34.51"/>
</g>
<!-- Node11 -->
<g id="node11" class="node">
<title>Node11</title>
<g id="a_node11"><a xlink:href="http://www.dealii.org/developer/doxygen/deal.II/solver_8h.html.html" xlink:title=" ">
<polygon fill="none" stroke="black" points="4482.5,-6 4482.5,-25 4588.5,-25 4588.5,-6 4482.5,-6"/>
<text text-anchor="middle" x="4535.5" y="-13" font-family="Helvetica,sans-Serif" font-size="10.00">deal.II/lac/solver.h</text>
</a>
</g>
</g>
<!-- Node8&#45;&gt;Node11 -->
<g id="edge15" class="edge">
<title>Node8&#45;&gt;Node11</title>
<path fill="none" stroke="midnightblue" d="M4197.74,-74.52C4263.31,-65.78 4376.9,-49.66 4473.5,-31 4479.27,-29.89 4485.32,-28.61 4491.28,-27.28"/>
<polygon fill="midnightblue" stroke="midnightblue" points="4492.2,-30.67 4501.17,-25.03 4490.64,-23.84 4492.2,-30.67"/>
</g>
<!-- Node12 -->
<g id="node12" class="node">
<title>Node12</title>
<g id="a_node12"><a xlink:href="http://www.dealii.org/developer/doxygen/deal.II/solver__bicgstab_8h.html.html" xlink:title=" ">
<polygon fill="none" stroke="black" points="4607,-0.5 4607,-30.5 4704,-30.5 4704,-0.5 4607,-0.5"/>
<text text-anchor="start" x="4615" y="-18.5" font-family="Helvetica,sans-Serif" font-size="10.00">deal.II/lac/solver</text>
<text text-anchor="middle" x="4655.5" y="-7.5" font-family="Helvetica,sans-Serif" font-size="10.00">_bicgstab.h</text>
</a>
</g>
</g>
<!-- Node8&#45;&gt;Node12 -->
<g id="edge16" class="edge">
<title>Node8&#45;&gt;Node12</title>
<path fill="none" stroke="midnightblue" d="M4197.65,-77.84C4281.27,-71.67 4446.96,-57.38 4597.01,-30.92"/>
<polygon fill="midnightblue" stroke="midnightblue" points="4597.64,-34.36 4606.87,-29.16 4596.41,-27.47 4597.64,-34.36"/>
</g>
<!-- Node13 -->
<g id="node13" class="node">
<title>Node13</title>
<g id="a_node13"><a xlink:href="http://www.dealii.org/developer/doxygen/deal.II/solver__cg_8h.html.html" xlink:title=" ">
<polygon fill="none" stroke="black" points="3485.5,-6 3485.5,-25 3607.5,-25 3607.5,-6 3485.5,-6"/>
<text text-anchor="middle" x="3546.5" y="-13" font-family="Helvetica,sans-Serif" font-size="10.00">deal.II/lac/solver_cg.h</text>
</a>
</g>
</g>
<!-- Node8&#45;&gt;Node13 -->
<g id="edge17" class="edge">
<title>Node8&#45;&gt;Node13</title>
<path fill="none" stroke="midnightblue" d="M4089.3,-68.49C4086.33,-67.95 4083.38,-67.44 4080.5,-67 3880.44,-36.22 3827.22,-57.08 3626.5,-31 3617.65,-29.85 3608.3,-28.38 3599.22,-26.83"/>
<polygon fill="midnightblue" stroke="midnightblue" points="3599.6,-23.34 3589.14,-25.05 3598.38,-30.23 3599.6,-23.34"/>
</g>
<!-- Node14 -->
<g id="node14" class="node">
<title>Node14</title>
<g id="a_node14"><a xlink:href="http://www.dealii.org/developer/doxygen/deal.II/solver__control_8h.html.html" xlink:title=" ">
<polygon fill="none" stroke="black" points="3635,-0.5 3635,-30.5 3732,-30.5 3732,-0.5 3635,-0.5"/>
<text text-anchor="start" x="3643" y="-18.5" font-family="Helvetica,sans-Serif" font-size="10.00">deal.II/lac/solver</text>
<text text-anchor="middle" x="3683.5" y="-7.5" font-family="Helvetica,sans-Serif" font-size="10.00">_control.h</text>
</a>
</g>
</g>
<!-- Node8&#45;&gt;Node14 -->
<g id="edge18" class="edge">
<title>Node8&#45;&gt;Node14</title>
<path fill="none" stroke="midnightblue" d="M4089.29,-68.59C4086.32,-68.02 4083.38,-67.48 4080.5,-67 3934.28,-42.5 3892.47,-56.79 3742.19,-30.94"/>
<polygon fill="midnightblue" stroke="midnightblue" points="3742.58,-27.46 3732.13,-29.18 3741.37,-34.35 3742.58,-27.46"/>
</g>
<!-- Node15 -->
<g id="node15" class="node">
<title>Node15</title>
<g id="a_node15"><a xlink:href="http://www.dealii.org/developer/doxygen/deal.II/solver__gmres_8h.html.html" xlink:title=" ">
<polygon fill="none" stroke="black" points="3750,-0.5 3750,-30.5 3847,-30.5 3847,-0.5 3750,-0.5"/>
<text text-anchor="start" x="3758" y="-18.5" font-family="Helvetica,sans-Serif" font-size="10.00">deal.II/lac/solver</text>
<text text-anchor="middle" x="3798.5" y="-7.5" font-family="Helvetica,sans-Serif" font-size="10.00">_gmres.h</text>
</a>
</g>
</g>
<!-- Node8&#45;&gt;Node15 -->
<g id="edge19" class="edge">
<title>Node8&#45;&gt;Node15</title>
<path fill="none" stroke="midnightblue" d="M4089.25,-68.77C4086.3,-68.15 4083.36,-67.56 4080.5,-67 3984.63,-48.28 3956.99,-51.05 3857.07,-31"/>
<polygon fill="midnightblue" stroke="midnightblue" points="3857.66,-27.55 3847.17,-28.99 3856.27,-34.41 3857.66,-27.55"/>
</g>
<!-- Node16 -->
<g id="node16" class="node">
<title>Node16</title>
<g id="a_node16"><a xlink:href="http://www.dealii.org/developer/doxygen/deal.II/solver__minres_8h.html.html" xlink:title=" ">
<polygon fill="none" stroke="black" points="3865,-0.5 3865,-30.5 3962,-30.5 3962,-0.5 3865,-0.5"/>
<text text-anchor="start" x="3873" y="-18.5" font-family="Helvetica,sans-Serif" font-size="10.00">deal.II/lac/solver</text>
<text text-anchor="middle" x="3913.5" y="-7.5" font-family="Helvetica,sans-Serif" font-size="10.00">_minres.h</text>
</a>
</g>
</g>
<!-- Node8&#45;&gt;Node16 -->
<g id="edge20" class="edge">
<title>Node8&#45;&gt;Node16</title>
<path fill="none" stroke="midnightblue" d="M4093.88,-67.48C4058.12,-57.37 4009.72,-43.69 3972.07,-33.05"/>
<polygon fill="midnightblue" stroke="midnightblue" points="3972.82,-29.63 3962.24,-30.28 3970.92,-36.36 3972.82,-29.63"/>
</g>
<!-- Node17 -->
<g id="node17" class="node">
<title>Node17</title>
<g id="a_node17"><a xlink:href="http://www.dealii.org/developer/doxygen/deal.II/solver__qmrs_8h.html.html" xlink:title=" ">
<polygon fill="none" stroke="black" points="3980,-0.5 3980,-30.5 4077,-30.5 4077,-0.5 3980,-0.5"/>
<text text-anchor="start" x="3988" y="-18.5" font-family="Helvetica,sans-Serif" font-size="10.00">deal.II/lac/solver</text>
<text text-anchor="middle" x="4028.5" y="-7.5" font-family="Helvetica,sans-Serif" font-size="10.00">_qmrs.h</text>
</a>
</g>
</g>
<!-- Node8&#45;&gt;Node17 -->
<g id="edge21" class="edge">
<title>Node8&#45;&gt;Node17</title>
<path fill="none" stroke="midnightblue" d="M4118.55,-67.4C4102.12,-58.11 4080.41,-45.84 4062.42,-35.67"/>
<polygon fill="midnightblue" stroke="midnightblue" points="4063.83,-32.45 4053.4,-30.58 4060.39,-38.54 4063.83,-32.45"/>
</g>
<!-- Node18 -->
<g id="node18" class="node">
<title>Node18</title>
<g id="a_node18"><a xlink:href="http://www.dealii.org/developer/doxygen/deal.II/solver__richardson_8h.html.html" xlink:title=" ">
<polygon fill="none" stroke="black" points="4095,-0.5 4095,-30.5 4192,-30.5 4192,-0.5 4095,-0.5"/>
<text text-anchor="start" x="4103" y="-18.5" font-family="Helvetica,sans-Serif" font-size="10.00">deal.II/lac/solver</text>
<text text-anchor="middle" x="4143.5" y="-7.5" font-family="Helvetica,sans-Serif" font-size="10.00">_richardson.h</text>
</a>
</g>
</g>
<!-- Node8&#45;&gt;Node18 -->
<g id="edge22" class="edge">
<title>Node8&#45;&gt;Node18</title>
<path fill="none" stroke="midnightblue" d="M4143.5,-67.4C4143.5,-59.64 4143.5,-49.81 4143.5,-40.86"/>
<polygon fill="midnightblue" stroke="midnightblue" points="4147,-40.58 4143.5,-30.58 4140,-40.58 4147,-40.58"/>
</g>
<!-- Node19&#45;&gt;Node5 -->
<g id="edge24" class="edge">
<title>Node19&#45;&gt;Node5</title>
<path fill="none" stroke="midnightblue" d="M112.55,-72.94C154.03,-62.8 224.04,-45.69 276.13,-32.96"/>
<polygon fill="midnightblue" stroke="midnightblue" points="277.08,-36.33 285.97,-30.56 275.42,-29.53 277.08,-36.33"/>
</g>
<!-- Node20 -->
<g id="node20" class="node">
<title>Node20</title>
<g id="a_node20"><a xlink:href="http://www.dealii.org/developer/doxygen/deal.II/sd_8h.html.html" xlink:title=" ">
<polygon fill="none" stroke="black" points="0,-6 0,-25 143,-25 143,-6 0,-6"/>
<text text-anchor="middle" x="71.5" y="-13" font-family="Helvetica,sans-Serif" font-size="10.00">deal.II/differentiation/sd.h</text>
</a>
</g>
</g>
<!-- Node19&#45;&gt;Node20 -->
<g id="edge25" class="edge">
<title>Node19&#45;&gt;Node20</title>
<path fill="none" stroke="midnightblue" d="M76.69,-72.73C75.81,-63.18 74.37,-47.62 73.23,-35.28"/>
<polygon fill="midnightblue" stroke="midnightblue" points="76.7,-34.76 72.3,-25.13 69.73,-35.41 76.7,-34.76"/>
</g>
<!-- Node21&#45;&gt;Node3 -->
<g id="edge56" class="edge">
<title>Node21&#45;&gt;Node3</title>
<path fill="none" stroke="midnightblue" d="M1950.89,-142.84C1691.87,-141.92 703.14,-135.97 393.5,-98 385.97,-97.08 378.03,-95.69 370.38,-94.14"/>
<polygon fill="midnightblue" stroke="midnightblue" points="371.04,-90.71 360.53,-92.03 369.57,-97.55 371.04,-90.71"/>
</g>
<!-- Node21&#45;&gt;Node5 -->
<g id="edge31" class="edge">
<title>Node21&#45;&gt;Node5</title>
<path fill="none" stroke="midnightblue" d="M1950.56,-142.5C1664.49,-140.06 497.67,-128.29 426.5,-98 411.36,-91.56 381.85,-60.28 362.41,-38.41"/>
<polygon fill="midnightblue" stroke="midnightblue" points="364.98,-36.03 355.75,-30.84 359.73,-40.66 364.98,-36.03"/>
</g>
<!-- Node21&#45;&gt;Node8 -->
<g id="edge57" class="edge">
<title>Node21&#45;&gt;Node8</title>
<path fill="none" stroke="midnightblue" d="M2076.07,-135.17C2080.95,-134.71 2085.8,-134.32 2090.5,-134 2528.56,-104.51 3625.28,-151.2 4079.39,-97.92"/>
<polygon fill="midnightblue" stroke="midnightblue" points="4079.82,-101.39 4089.33,-96.72 4078.98,-94.44 4079.82,-101.39"/>
</g>
<!-- Node21&#45;&gt;Node13 -->
<g id="edge50" class="edge">
<title>Node21&#45;&gt;Node13</title>
<path fill="none" stroke="midnightblue" d="M2076.07,-135.2C2080.95,-134.74 2085.8,-134.33 2090.5,-134 2169.66,-128.39 3454.49,-144.92 3518.5,-98 3538.17,-83.58 3544.14,-54.48 3545.89,-35.24"/>
<polygon fill="midnightblue" stroke="midnightblue" points="3549.38,-35.43 3546.5,-25.24 3542.39,-35.01 3549.38,-35.43"/>
</g>
<!-- Node21&#45;&gt;Node19 -->
<g id="edge58" class="edge">
<title>Node21&#45;&gt;Node19</title>
<path fill="none" stroke="midnightblue" d="M1950.98,-142.83C1669.18,-141.84 515.13,-135.54 155.5,-98 146.14,-97.02 136.23,-95.54 126.72,-93.88"/>
<polygon fill="midnightblue" stroke="midnightblue" points="127.07,-90.39 116.6,-92.03 125.81,-97.27 127.07,-90.39"/>
</g>
<!-- Node22 -->
<g id="node22" class="node">
<title>Node22</title>
<g id="a_node22"><a xlink:href="http://www.dealii.org/developer/doxygen/deal.II/conditional__ostream_8h.html.html" xlink:title=" ">
<polygon fill="none" stroke="black" points="2668.5,-67.5 2668.5,-97.5 2798.5,-97.5 2798.5,-67.5 2668.5,-67.5"/>
<text text-anchor="start" x="2676.5" y="-85.5" font-family="Helvetica,sans-Serif" font-size="10.00">deal.II/base/conditional</text>
<text text-anchor="middle" x="2733.5" y="-74.5" font-family="Helvetica,sans-Serif" font-size="10.00">_ostream.h</text>
</a>
</g>
</g>
<!-- Node21&#45;&gt;Node22 -->
<g id="edge27" class="edge">
<title>Node21&#45;&gt;Node22</title>
<path fill="none" stroke="midnightblue" d="M2076.09,-135.4C2080.96,-134.9 2085.81,-134.42 2090.5,-134 2339.55,-111.58 2406.43,-129.93 2658.02,-98.08"/>
<polygon fill="midnightblue" stroke="midnightblue" points="2658.73,-101.51 2668.21,-96.77 2657.84,-94.57 2658.73,-101.51"/>
</g>
<!-- Node23 -->
<g id="node23" class="node">
<title>Node23</title>
<g id="a_node23"><a xlink:href="http://www.dealii.org/developer/doxygen/deal.II/convergence__table_8h.html.html" xlink:title=" ">
<polygon fill="none" stroke="black" points="2816.5,-67.5 2816.5,-97.5 2954.5,-97.5 2954.5,-67.5 2816.5,-67.5"/>
<text text-anchor="start" x="2824.5" y="-85.5" font-family="Helvetica,sans-Serif" font-size="10.00">deal.II/base/convergence</text>
<text text-anchor="middle" x="2885.5" y="-74.5" font-family="Helvetica,sans-Serif" font-size="10.00">_table.h</text>
</a>
</g>
</g>
<!-- Node21&#45;&gt;Node23 -->
<g id="edge28" class="edge">
<title>Node21&#45;&gt;Node23</title>
<path fill="none" stroke="midnightblue" d="M2076.08,-135.33C2080.96,-134.84 2085.81,-134.39 2090.5,-134 2405.2,-107.74 2488.9,-134.68 2806.31,-98.03"/>
<polygon fill="midnightblue" stroke="midnightblue" points="2806.72,-101.51 2816.25,-96.87 2805.91,-94.55 2806.72,-101.51"/>
</g>
<!-- Node24 -->
<g id="node24" class="node">
<title>Node24</title>
<g id="a_node24"><a xlink:href="http://www.dealii.org/developer/doxygen/deal.II/function_8h.html.html" xlink:title=" ">
<polygon fill="none" stroke="black" points="2973,-73 2973,-92 3098,-92 3098,-73 2973,-73"/>
<text text-anchor="middle" x="3035.5" y="-80" font-family="Helvetica,sans-Serif" font-size="10.00">deal.II/base/function.h</text>
</a>
</g>
</g>
<!-- Node21&#45;&gt;Node24 -->
<g id="edge29" class="edge">
<title>Node21&#45;&gt;Node24</title>
<path fill="none" stroke="midnightblue" d="M2076.08,-135.29C2080.95,-134.81 2085.8,-134.37 2090.5,-134 2477.63,-103.44 2577.96,-144.48 2963.5,-98 2971.69,-97.01 2980.34,-95.6 2988.69,-94.04"/>
<polygon fill="midnightblue" stroke="midnightblue" points="2989.54,-97.44 2998.68,-92.08 2988.2,-90.57 2989.54,-97.44"/>
</g>
<!-- Node25 -->
<g id="node25" class="node">
<title>Node25</title>
<g id="a_node25"><a xlink:href="http://www.dealii.org/developer/doxygen/deal.II/function__parser_8h.html.html" xlink:title=" ">
<polygon fill="none" stroke="black" points="3116.5,-67.5 3116.5,-97.5 3232.5,-97.5 3232.5,-67.5 3116.5,-67.5"/>
<text text-anchor="start" x="3124.5" y="-85.5" font-family="Helvetica,sans-Serif" font-size="10.00">deal.II/base/function</text>
<text text-anchor="middle" x="3174.5" y="-74.5" font-family="Helvetica,sans-Serif" font-size="10.00">_parser.h</text>
</a>
</g>
</g>
<!-- Node21&#45;&gt;Node25 -->
<g id="edge30" class="edge">
<title>Node21&#45;&gt;Node25</title>
<path fill="none" stroke="midnightblue" d="M2076.07,-135.26C2080.95,-134.78 2085.8,-134.36 2090.5,-134 2538.18,-99.97 2656.97,-153.26 3106.14,-98.01"/>
<polygon fill="midnightblue" stroke="midnightblue" points="3106.65,-101.47 3116.14,-96.77 3105.78,-94.53 3106.65,-101.47"/>
</g>
<!-- Node26 -->
<g id="node26" class="node">
<title>Node26</title>
<g id="a_node26"><a xlink:href="http://www.dealii.org/developer/doxygen/deal.II/quadrature__lib_8h.html.html" xlink:title=" ">
<polygon fill="none" stroke="black" points="3251,-67.5 3251,-97.5 3380,-97.5 3380,-67.5 3251,-67.5"/>
<text text-anchor="start" x="3259" y="-85.5" font-family="Helvetica,sans-Serif" font-size="10.00">deal.II/base/quadrature</text>
<text text-anchor="middle" x="3315.5" y="-74.5" font-family="Helvetica,sans-Serif" font-size="10.00">_lib.h</text>
</a>
</g>
</g>
<!-- Node21&#45;&gt;Node26 -->
<g id="edge32" class="edge">
<title>Node21&#45;&gt;Node26</title>
<path fill="none" stroke="midnightblue" d="M2076.07,-135.24C2080.95,-134.77 2085.8,-134.35 2090.5,-134 2597.55,-96.51 2731.17,-154.62 3240.43,-97.97"/>
<polygon fill="midnightblue" stroke="midnightblue" points="3241.07,-101.42 3250.62,-96.83 3240.29,-94.47 3241.07,-101.42"/>
</g>
<!-- Node27 -->
<g id="node27" class="node">
<title>Node27</title>
<g id="a_node27"><a xlink:href="http://www.dealii.org/developer/doxygen/deal.II/timer_8h.html.html" xlink:title=" ">
<polygon fill="none" stroke="black" points="3398,-73 3398,-92 3509,-92 3509,-73 3398,-73"/>
<text text-anchor="middle" x="3453.5" y="-80" font-family="Helvetica,sans-Serif" font-size="10.00">deal.II/base/timer.h</text>
</a>
</g>
</g>
<!-- Node21&#45;&gt;Node27 -->
<g id="edge33" class="edge">
<title>Node21&#45;&gt;Node27</title>
<path fill="none" stroke="midnightblue" d="M2076.07,-135.22C2080.95,-134.75 2085.8,-134.34 2090.5,-134 2666.56,-92.43 2816.47,-170.15 3389.5,-98 3396.73,-97.09 3404.34,-95.73 3411.69,-94.2"/>
<polygon fill="midnightblue" stroke="midnightblue" points="3412.48,-97.61 3421.49,-92.04 3410.97,-90.78 3412.48,-97.61"/>
</g>
<!-- Node28 -->
<g id="node28" class="node">
<title>Node28</title>
<g id="a_node28"><a xlink:href="http://www.dealii.org/developer/doxygen/deal.II/distributed_2grid__refinement_8h.html.html" xlink:title=" ">
<polygon fill="none" stroke="black" points="3566,-67.5 3566,-97.5 3673,-97.5 3673,-67.5 3566,-67.5"/>
<text text-anchor="start" x="3574" y="-85.5" font-family="Helvetica,sans-Serif" font-size="10.00">deal.II/distributed</text>
<text text-anchor="middle" x="3619.5" y="-74.5" font-family="Helvetica,sans-Serif" font-size="10.00">/grid_refinement.h</text>
</a>
</g>
</g>
<!-- Node21&#45;&gt;Node28 -->
<g id="edge34" class="edge">
<title>Node21&#45;&gt;Node28</title>
<path fill="none" stroke="midnightblue" d="M2076.07,-135.2C2080.95,-134.74 2085.8,-134.33 2090.5,-134 2738.42,-88.25 2906.44,-174.06 3551.5,-98 3552.96,-97.83 3554.44,-97.64 3555.92,-97.44"/>
<polygon fill="midnightblue" stroke="midnightblue" points="3556.48,-100.89 3565.83,-95.9 3555.41,-93.97 3556.48,-100.89"/>
</g>
<!-- Node29 -->
<g id="node29" class="node">
<title>Node29</title>
<g id="a_node29"><a xlink:href="http://www.dealii.org/developer/doxygen/deal.II/shared__tria_8h.html.html" xlink:title=" ">
<polygon fill="none" stroke="black" points="3691.5,-67.5 3691.5,-97.5 3793.5,-97.5 3793.5,-67.5 3691.5,-67.5"/>
<text text-anchor="start" x="3699.5" y="-85.5" font-family="Helvetica,sans-Serif" font-size="10.00">deal.II/distributed</text>
<text text-anchor="middle" x="3742.5" y="-74.5" font-family="Helvetica,sans-Serif" font-size="10.00">/shared_tria.h</text>
</a>
</g>
</g>
<!-- Node21&#45;&gt;Node29 -->
<g id="edge35" class="edge">
<title>Node21&#45;&gt;Node29</title>
<path fill="none" stroke="midnightblue" d="M2076.07,-135.19C2080.95,-134.73 2085.8,-134.33 2090.5,-134 2440.24,-109.66 3315.18,-143.19 3681.1,-97.94"/>
<polygon fill="midnightblue" stroke="midnightblue" points="3681.77,-101.39 3691.25,-96.65 3680.89,-94.44 3681.77,-101.39"/>
</g>
<!-- Node30 -->
<g id="node30" class="node">
<title>Node30</title>
<g id="a_node30"><a xlink:href="http://www.dealii.org/developer/doxygen/deal.II/distributed_2tria_8h.html.html" xlink:title=" ">
<polygon fill="none" stroke="black" points="3811.5,-67.5 3811.5,-97.5 3913.5,-97.5 3913.5,-67.5 3811.5,-67.5"/>
<text text-anchor="start" x="3819.5" y="-85.5" font-family="Helvetica,sans-Serif" font-size="10.00">deal.II/distributed</text>
<text text-anchor="middle" x="3862.5" y="-74.5" font-family="Helvetica,sans-Serif" font-size="10.00">/tria.h</text>
</a>
</g>
</g>
<!-- Node21&#45;&gt;Node30 -->
<g id="edge36" class="edge">
<title>Node21&#45;&gt;Node30</title>
<path fill="none" stroke="midnightblue" d="M2076.07,-135.18C2080.95,-134.73 2085.8,-134.32 2090.5,-134 2466.89,-108.11 3408.86,-146.32 3801.23,-97.93"/>
<polygon fill="midnightblue" stroke="midnightblue" points="3801.77,-101.39 3811.25,-96.66 3800.89,-94.44 3801.77,-101.39"/>
</g>
<!-- Node31 -->
<g id="node31" class="node">
<title>Node31</title>
<g id="a_node31"><a xlink:href="http://www.dealii.org/developer/doxygen/deal.II/dof__handler_8h.html.html" xlink:title=" ">
<polygon fill="none" stroke="red" points="3931.5,-73 3931.5,-92 4071.5,-92 4071.5,-73 3931.5,-73"/>
<text text-anchor="middle" x="4001.5" y="-80" font-family="Helvetica,sans-Serif" font-size="10.00">deal.II/dofs/dof_handler.h</text>
</a>
</g>
</g>
<!-- Node21&#45;&gt;Node31 -->
<g id="edge37" class="edge">
<title>Node21&#45;&gt;Node31</title>
<path fill="none" stroke="midnightblue" d="M2076.07,-135.17C2080.95,-134.72 2085.8,-134.32 2090.5,-134 2903,-78.66 3112.24,-179.78 3922.5,-98 3932.08,-97.03 3942.23,-95.53 3951.96,-93.86"/>
<polygon fill="midnightblue" stroke="midnightblue" points="3952.68,-97.29 3961.9,-92.07 3951.43,-90.4 3952.68,-97.29"/>
</g>
<!-- Node33 -->
<g id="node32" class="node">
<title>Node33</title>
<g id="a_node32"><a xlink:href="http://www.dealii.org/developer/doxygen/deal.II/dof__tools_8h.html.html" xlink:title=" ">
<polygon fill="none" stroke="black" points="435.5,-73 435.5,-92 563.5,-92 563.5,-73 435.5,-73"/>
<text text-anchor="middle" x="499.5" y="-80" font-family="Helvetica,sans-Serif" font-size="10.00">deal.II/dofs/dof_tools.h</text>
</a>
</g>
</g>
<!-- Node21&#45;&gt;Node33 -->
<g id="edge38" class="edge">
<title>Node21&#45;&gt;Node33</title>
<path fill="none" stroke="midnightblue" d="M1950.62,-142.42C1709.71,-139.97 845.43,-129.15 572.5,-98 564.01,-97.03 555.04,-95.6 546.39,-94"/>
<polygon fill="midnightblue" stroke="midnightblue" points="546.93,-90.54 536.45,-92.07 545.6,-97.41 546.93,-90.54"/>
</g>
<!-- Node34 -->
<g id="node33" class="node">
<title>Node34</title>
<g id="a_node33"><a xlink:href="http://www.dealii.org/developer/doxygen/deal.II/fe__q_8h.html.html" xlink:title=" ">
<polygon fill="none" stroke="black" points="581.5,-73 581.5,-92 673.5,-92 673.5,-73 581.5,-73"/>
<text text-anchor="middle" x="627.5" y="-80" font-family="Helvetica,sans-Serif" font-size="10.00">deal.II/fe/fe_q.h</text>
</a>
</g>
</g>
<!-- Node21&#45;&gt;Node34 -->
<g id="edge39" class="edge">
<title>Node21&#45;&gt;Node34</title>
<path fill="none" stroke="midnightblue" d="M1950.71,-142.74C1721.71,-141.5 931.84,-134.61 682.5,-98 676.68,-97.15 670.59,-95.9 664.67,-94.5"/>
<polygon fill="midnightblue" stroke="midnightblue" points="665.5,-91.1 654.95,-92.03 663.78,-97.88 665.5,-91.1"/>
</g>
<!-- Node35 -->
<g id="node34" class="node">
<title>Node35</title>
<g id="a_node34"><a xlink:href="http://www.dealii.org/developer/doxygen/deal.II/fe_2fe__values_8h.html.html" xlink:title=" ">
<polygon fill="none" stroke="black" points="692,-73 692,-92 811,-92 811,-73 692,-73"/>
<text text-anchor="middle" x="751.5" y="-80" font-family="Helvetica,sans-Serif" font-size="10.00">deal.II/fe/fe_values.h</text>
</a>
</g>
</g>
<!-- Node21&#45;&gt;Node35 -->
<g id="edge40" class="edge">
<title>Node21&#45;&gt;Node35</title>
<path fill="none" stroke="midnightblue" d="M1950.76,-142.04C1737.63,-138.55 1042.41,-125.3 820.5,-98 812.64,-97.03 804.35,-95.63 796.34,-94.07"/>
<polygon fill="midnightblue" stroke="midnightblue" points="796.91,-90.61 786.41,-92.03 795.5,-97.47 796.91,-90.61"/>
</g>
<!-- Node36 -->
<g id="node35" class="node">
<title>Node36</title>
<g id="a_node35"><a xlink:href="http://www.dealii.org/developer/doxygen/deal.II/fe__values__extractors_8h.html.html" xlink:title=" ">
<polygon fill="none" stroke="black" points="829.5,-67.5 829.5,-97.5 939.5,-97.5 939.5,-67.5 829.5,-67.5"/>
<text text-anchor="start" x="837.5" y="-85.5" font-family="Helvetica,sans-Serif" font-size="10.00">deal.II/fe/fe_values</text>
<text text-anchor="middle" x="884.5" y="-74.5" font-family="Helvetica,sans-Serif" font-size="10.00">_extractors.h</text>
</a>
</g>
</g>
<!-- Node21&#45;&gt;Node36 -->
<g id="edge41" class="edge">
<title>Node21&#45;&gt;Node36</title>
<path fill="none" stroke="midnightblue" d="M1950.68,-141.84C1756.02,-138 1163.6,-124.52 949.74,-97.95"/>
<polygon fill="midnightblue" stroke="midnightblue" points="949.91,-94.44 939.54,-96.63 949.01,-101.38 949.91,-94.44"/>
</g>
<!-- Node37 -->
<g id="node36" class="node">
<title>Node37</title>
<g id="a_node36"><a xlink:href="http://www.dealii.org/developer/doxygen/deal.II/mapping__q__generic_8h.html.html" xlink:title=" ">
<polygon fill="none" stroke="black" points="958,-67.5 958,-97.5 1063,-97.5 1063,-67.5 958,-67.5"/>
<text text-anchor="start" x="966" y="-85.5" font-family="Helvetica,sans-Serif" font-size="10.00">deal.II/fe/mapping</text>
<text text-anchor="middle" x="1010.5" y="-74.5" font-family="Helvetica,sans-Serif" font-size="10.00">_q_generic.h</text>
</a>
</g>
</g>
<!-- Node21&#45;&gt;Node37 -->
<g id="edge42" class="edge">
<title>Node21&#45;&gt;Node37</title>
<path fill="none" stroke="midnightblue" d="M1950.72,-141.49C1772,-136.95 1261.77,-122.34 1073.22,-97.86"/>
<polygon fill="midnightblue" stroke="midnightblue" points="1073.52,-94.37 1063.14,-96.5 1072.58,-101.31 1073.52,-94.37"/>
</g>
<!-- Node38 -->
<g id="node37" class="node">
<title>Node38</title>
<g id="a_node37"><a xlink:href="http://www.dealii.org/developer/doxygen/deal.II/grid__generator_8h.html.html" xlink:title=" ">
<polygon fill="none" stroke="red" points="1081.5,-73 1081.5,-92 1233.5,-92 1233.5,-73 1081.5,-73"/>
<text text-anchor="middle" x="1157.5" y="-80" font-family="Helvetica,sans-Serif" font-size="10.00">deal.II/grid/grid_generator.h</text>
</a>
</g>
</g>
<!-- Node21&#45;&gt;Node38 -->
<g id="edge43" class="edge">
<title>Node21&#45;&gt;Node38</title>
<path fill="none" stroke="midnightblue" d="M1950.84,-141.69C1819.24,-138.43 1504.6,-127.91 1242.5,-98 1232.57,-96.87 1222.04,-95.34 1211.9,-93.7"/>
<polygon fill="midnightblue" stroke="midnightblue" points="1212.36,-90.23 1201.92,-92.03 1211.21,-97.13 1212.36,-90.23"/>
</g>
<!-- Node39 -->
<g id="node38" class="node">
<title>Node39</title>
<g id="a_node38"><a xlink:href="http://www.dealii.org/developer/doxygen/deal.II/grid_2tria_8h.html.html" xlink:title=" ">
<polygon fill="none" stroke="black" points="1252,-73 1252,-92 1349,-92 1349,-73 1252,-73"/>
<text text-anchor="middle" x="1300.5" y="-80" font-family="Helvetica,sans-Serif" font-size="10.00">deal.II/grid/tria.h</text>
</a>
</g>
</g>
<!-- Node21&#45;&gt;Node39 -->
<g id="edge44" class="edge">
<title>Node21&#45;&gt;Node39</title>
<path fill="none" stroke="midnightblue" d="M1950.66,-142.45C1833.35,-140.6 1573.36,-132.57 1357.5,-98 1351.69,-97.07 1345.6,-95.82 1339.66,-94.45"/>
<polygon fill="midnightblue" stroke="midnightblue" points="1340.42,-91.03 1329.87,-92.05 1338.75,-97.83 1340.42,-91.03"/>
</g>
<!-- Node40 -->
<g id="node39" class="node">
<title>Node40</title>
<g id="a_node39"><a xlink:href="http://www.dealii.org/developer/doxygen/deal.II/affine__constraints_8h.html.html" xlink:title=" ">
<polygon fill="none" stroke="black" points="1367,-67.5 1367,-97.5 1462,-97.5 1462,-67.5 1367,-67.5"/>
<text text-anchor="start" x="1375" y="-85.5" font-family="Helvetica,sans-Serif" font-size="10.00">deal.II/lac/affine</text>
<text text-anchor="middle" x="1414.5" y="-74.5" font-family="Helvetica,sans-Serif" font-size="10.00">_constraints.h</text>
</a>
</g>
</g>
<!-- Node21&#45;&gt;Node40 -->
<g id="edge45" class="edge">
<title>Node21&#45;&gt;Node40</title>
<path fill="none" stroke="midnightblue" d="M1950.9,-141.18C1851.43,-137.55 1651.15,-127.21 1472.39,-97.95"/>
<polygon fill="midnightblue" stroke="midnightblue" points="1472.71,-94.45 1462.27,-96.27 1471.56,-101.36 1472.71,-94.45"/>
</g>
<!-- Node41 -->
<g id="node40" class="node">
<title>Node41</title>
<g id="a_node40"><a xlink:href="http://www.dealii.org/developer/doxygen/deal.II/dynamic__sparsity__pattern_8h.html.html" xlink:title=" ">
<polygon fill="none" stroke="black" points="1480.5,-67.5 1480.5,-97.5 1590.5,-97.5 1590.5,-67.5 1480.5,-67.5"/>
<text text-anchor="start" x="1488.5" y="-85.5" font-family="Helvetica,sans-Serif" font-size="10.00">deal.II/lac/dynamic</text>
<text text-anchor="middle" x="1535.5" y="-74.5" font-family="Helvetica,sans-Serif" font-size="10.00">_sparsity_pattern.h</text>
</a>
</g>
</g>
<!-- Node21&#45;&gt;Node41 -->
<g id="edge46" class="edge">
<title>Node21&#45;&gt;Node41</title>
<path fill="none" stroke="midnightblue" d="M1950.77,-138.43C1871.47,-132.16 1730.6,-119.34 1600.71,-98.08"/>
<polygon fill="midnightblue" stroke="midnightblue" points="1601.02,-94.58 1590.58,-96.4 1599.87,-101.49 1601.02,-94.58"/>
</g>
<!-- Node42 -->
<g id="node41" class="node">
<title>Node42</title>
<g id="a_node41"><a xlink:href="http://www.dealii.org/developer/doxygen/deal.II/full__matrix_8h.html.html" xlink:title=" ">
<polygon fill="none" stroke="black" points="1609,-73 1609,-92 1738,-92 1738,-73 1609,-73"/>
<text text-anchor="middle" x="1673.5" y="-80" font-family="Helvetica,sans-Serif" font-size="10.00">deal.II/lac/full_matrix.h</text>
</a>
</g>
</g>
<!-- Node21&#45;&gt;Node42 -->
<g id="edge47" class="edge">
<title>Node21&#45;&gt;Node42</title>
<path fill="none" stroke="midnightblue" d="M1960.23,-134.49C1906.28,-125.76 1820.48,-111.58 1746.5,-98 1739.75,-96.76 1732.67,-95.41 1725.67,-94.05"/>
<polygon fill="midnightblue" stroke="midnightblue" points="1726.02,-90.56 1715.54,-92.07 1724.68,-97.43 1726.02,-90.56"/>
</g>
<!-- Node43 -->
<g id="node42" class="node">
<title>Node43</title>
<g id="a_node42"><a xlink:href="http://www.dealii.org/developer/doxygen/deal.II/generic__linear__algebra_8h.html.html" xlink:title=" ">
<polygon fill="none" stroke="black" points="1756,-67.5 1756,-97.5 1859,-97.5 1859,-67.5 1756,-67.5"/>
<text text-anchor="start" x="1764" y="-85.5" font-family="Helvetica,sans-Serif" font-size="10.00">deal.II/lac/generic</text>
<text text-anchor="middle" x="1807.5" y="-74.5" font-family="Helvetica,sans-Serif" font-size="10.00">_linear_algebra.h</text>
</a>
</g>
</g>
<!-- Node21&#45;&gt;Node43 -->
<g id="edge48" class="edge">
<title>Node21&#45;&gt;Node43</title>
<path fill="none" stroke="midnightblue" d="M1983.99,-134.48C1953.35,-125.63 1904.61,-111.55 1866.11,-100.43"/>
<polygon fill="midnightblue" stroke="midnightblue" points="1866.63,-96.94 1856.05,-97.52 1864.69,-103.66 1866.63,-96.94"/>
</g>
<!-- Node44 -->
<g id="node43" class="node">
<title>Node44</title>
<g id="a_node43"><a xlink:href="http://www.dealii.org/developer/doxygen/deal.II/precondition_8h.html.html" xlink:title=" ">
<polygon fill="none" stroke="black" points="1877,-73 1877,-92 2014,-92 2014,-73 1877,-73"/>
<text text-anchor="middle" x="1945.5" y="-80" font-family="Helvetica,sans-Serif" font-size="10.00">deal.II/lac/precondition.h</text>
</a>
</g>
</g>
<!-- Node21&#45;&gt;Node44 -->
<g id="edge49" class="edge">
<title>Node21&#45;&gt;Node44</title>
<path fill="none" stroke="midnightblue" d="M2003.76,-134.48C1993.15,-125.2 1975.98,-110.17 1963.02,-98.83"/>
<polygon fill="midnightblue" stroke="midnightblue" points="1965.06,-95.96 1955.22,-92.01 1960.45,-101.23 1965.06,-95.96"/>
</g>
<!-- Node45 -->
<g id="node44" class="node">
<title>Node45</title>
<g id="a_node44"><a xlink:href="http://www.dealii.org/developer/doxygen/deal.II/sparse__matrix_8h.html.html" xlink:title=" ">
<polygon fill="none" stroke="black" points="2032,-67.5 2032,-97.5 2131,-97.5 2131,-67.5 2032,-67.5"/>
<text text-anchor="start" x="2040" y="-85.5" font-family="Helvetica,sans-Serif" font-size="10.00">deal.II/lac/sparse</text>
<text text-anchor="middle" x="2081.5" y="-74.5" font-family="Helvetica,sans-Serif" font-size="10.00">_matrix.h</text>
</a>
</g>
</g>
<!-- Node21&#45;&gt;Node45 -->
<g id="edge51" class="edge">
<title>Node21&#45;&gt;Node45</title>
<path fill="none" stroke="midnightblue" d="M2023.24,-134.48C2032.19,-126.64 2045.83,-114.71 2057.65,-104.37"/>
<polygon fill="midnightblue" stroke="midnightblue" points="2060.25,-106.74 2065.47,-97.52 2055.64,-101.47 2060.25,-106.74"/>
</g>
<!-- Node46 -->
<g id="node45" class="node">
<title>Node46</title>
<g id="a_node45"><a xlink:href="http://www.dealii.org/developer/doxygen/deal.II/vector_8h.html.html" xlink:title=" ">
<polygon fill="none" stroke="black" points="2149,-73 2149,-92 2256,-92 2256,-73 2149,-73"/>
<text text-anchor="middle" x="2202.5" y="-80" font-family="Helvetica,sans-Serif" font-size="10.00">deal.II/lac/vector.h</text>
</a>
</g>
</g>
<!-- Node21&#45;&gt;Node46 -->
<g id="edge52" class="edge">
<title>Node21&#45;&gt;Node46</title>
<path fill="none" stroke="midnightblue" d="M2040.58,-134.48C2073.42,-124.14 2128.93,-106.66 2165.65,-95.1"/>
<polygon fill="midnightblue" stroke="midnightblue" points="2166.98,-98.35 2175.47,-92.01 2164.88,-91.67 2166.98,-98.35"/>
</g>
<!-- Node47 -->
<g id="node46" class="node">
<title>Node47</title>
<g id="a_node46"><a xlink:href="http://www.dealii.org/developer/doxygen/deal.II/copy__data_8h.html.html" xlink:title=" ">
<polygon fill="none" stroke="black" points="2274.5,-67.5 2274.5,-97.5 2384.5,-97.5 2384.5,-67.5 2274.5,-67.5"/>
<text text-anchor="start" x="2282.5" y="-85.5" font-family="Helvetica,sans-Serif" font-size="10.00">deal.II/meshworker</text>
<text text-anchor="middle" x="2329.5" y="-74.5" font-family="Helvetica,sans-Serif" font-size="10.00">/copy_data.h</text>
</a>
</g>
</g>
<!-- Node21&#45;&gt;Node47 -->
<g id="edge53" class="edge">
<title>Node21&#45;&gt;Node47</title>
<path fill="none" stroke="midnightblue" d="M2065.27,-134.47C2114.12,-126.27 2189.63,-113.16 2264.32,-98.19"/>
<polygon fill="midnightblue" stroke="midnightblue" points="2265.27,-101.57 2274.38,-96.16 2263.88,-94.71 2265.27,-101.57"/>
</g>
<!-- Node48 -->
<g id="node47" class="node">
<title>Node48</title>
<g id="a_node47"><a xlink:href="http://www.dealii.org/developer/doxygen/deal.II/scratch__data_8h.html.html" xlink:title=" ">
<polygon fill="none" stroke="black" points="2402.5,-67.5 2402.5,-97.5 2512.5,-97.5 2512.5,-67.5 2402.5,-67.5"/>
<text text-anchor="start" x="2410.5" y="-85.5" font-family="Helvetica,sans-Serif" font-size="10.00">deal.II/meshworker</text>
<text text-anchor="middle" x="2457.5" y="-74.5" font-family="Helvetica,sans-Serif" font-size="10.00">/scratch_data.h</text>
</a>
</g>
</g>
<!-- Node21&#45;&gt;Node48 -->
<g id="edge54" class="edge">
<title>Node21&#45;&gt;Node48</title>
<path fill="none" stroke="midnightblue" d="M2076.37,-135.64C2171.98,-124.44 2346.96,-103.89 2392.46,-97.8"/>
<polygon fill="midnightblue" stroke="midnightblue" points="2393.02,-101.26 2402.42,-96.37 2392.02,-94.33 2393.02,-101.26"/>
</g>
<!-- Node49 -->
<g id="node48" class="node">
<title>Node49</title>
<g id="a_node48"><a xlink:href="http://www.dealii.org/developer/doxygen/deal.II/numerics_2data__out_8h.html.html" xlink:title=" ">
<polygon fill="none" stroke="black" points="2531,-67.5 2531,-97.5 2650,-97.5 2650,-67.5 2531,-67.5"/>
<text text-anchor="start" x="2539" y="-85.5" font-family="Helvetica,sans-Serif" font-size="10.00">deal.II/numerics/data</text>
<text text-anchor="middle" x="2590.5" y="-74.5" font-family="Helvetica,sans-Serif" font-size="10.00">_out.h</text>
</a>
</g>
</g>
<!-- Node21&#45;&gt;Node49 -->
<g id="edge55" class="edge">
<title>Node21&#45;&gt;Node49</title>
<path fill="none" stroke="midnightblue" d="M2076.1,-135.51C2080.97,-134.98 2085.81,-134.47 2090.5,-134 2278.5,-115.17 2329.57,-125.45 2520.65,-98"/>
<polygon fill="midnightblue" stroke="midnightblue" points="2521.35,-101.43 2530.74,-96.53 2520.34,-94.5 2521.35,-101.43"/>
</g>
<!-- Node62 -->
<g id="node50" class="node">
<title>Node62</title>
<g id="a_node50"><a xlink:href="http://www.dealii.org/developer/doxygen/deal.II/include_2deal_8II_2base_2utilities_8h.html.html" xlink:title=" ">
<polygon fill="none" stroke="black" points="2132.5,-134.5 2132.5,-153.5 2254.5,-153.5 2254.5,-134.5 2132.5,-134.5"/>
<text text-anchor="middle" x="2193.5" y="-141.5" font-family="Helvetica,sans-Serif" font-size="10.00">deal.II/base/utilities.h</text>
</a>
</g>
</g>
<!-- Node88&#45;&gt;Node62 -->
<g id="edge60" class="edge">
<title>Node88&#45;&gt;Node62</title>
<path fill="none" stroke="midnightblue" d="M1928.23,-193.72C1976.47,-184.86 2074.62,-166.84 2137.05,-155.37"/>
<polygon fill="midnightblue" stroke="midnightblue" points="2137.93,-158.76 2147.14,-153.52 2136.67,-151.88 2137.93,-158.76"/>
</g>
</g>
</svg>
