<?xml version="1.0" encoding="UTF-8" standalone="no"?>
<!DOCTYPE svg PUBLIC "-//W3C//DTD SVG 1.1//EN"
 "http://www.w3.org/Graphics/SVG/1.1/DTD/svg11.dtd">
<!-- Generated by graphviz version 2.43.0 (0)
 -->
<!-- Title: include/assemble_coupling_mass_matrix_with_exact_intersections.h Pages: 1 -->
<svg width="466pt" height="262pt"
 viewBox="0.00 0.00 466.00 262.00" xmlns="http://www.w3.org/2000/svg" xmlns:xlink="http://www.w3.org/1999/xlink">
<g id="graph0" class="graph" transform="scale(1 1) rotate(0) translate(4 258)">
<title>include/assemble_coupling_mass_matrix_with_exact_intersections.h</title>
<!-- Node1 -->
<g id="node1" class="node">
<title>Node1</title>
<g id="a_node1"><a xlink:title=" ">
<polygon fill="#bfbfbf" stroke="black" points="209.5,-212.5 209.5,-253.5 358.5,-253.5 358.5,-212.5 209.5,-212.5"/>
<text text-anchor="start" x="217.5" y="-241.5" font-family="Helvetica,sans-Serif" font-size="10.00">include/assemble_coupling</text>
<text text-anchor="start" x="217.5" y="-230.5" font-family="Helvetica,sans-Serif" font-size="10.00">_mass_matrix_with_exact</text>
<text text-anchor="middle" x="284" y="-219.5" font-family="Helvetica,sans-Serif" font-size="10.00">_intersections.h</text>
</a>
</g>
</g>
<!-- Node2 -->
<g id="node2" class="node">
<title>Node2</title>
<g id="a_node2"><a xlink:href="non__matching__coupling_8h.html" target="_top" xlink:title=" ">
<polygon fill="none" stroke="black" points="112,-140 112,-170 256,-170 256,-140 112,-140"/>
<text text-anchor="start" x="120" y="-158" font-family="Helvetica,sans-Serif" font-size="10.00">include/parsed_tools</text>
<text text-anchor="middle" x="184" y="-147" font-family="Helvetica,sans-Serif" font-size="10.00">/non_matching_coupling.h</text>
</a>
</g>
</g>
<!-- Node1&#45;&gt;Node2 -->
<g id="edge1" class="edge">
<title>Node1&#45;&gt;Node2</title>
<path fill="none" stroke="midnightblue" d="M250.22,-206.32C234.36,-194.27 216.05,-180.36 202.72,-170.23"/>
<polygon fill="midnightblue" stroke="midnightblue" points="248.17,-209.16 258.25,-212.43 252.4,-203.59 248.17,-209.16"/>
</g>
<!-- Node6 -->
<g id="node6" class="node">
<title>Node6</title>
<g id="a_node6"><a xlink:href="non__matching__coupling_8cc.html" target="_top" xlink:title=" ">
<polygon fill="none" stroke="black" points="223.5,-67.5 223.5,-97.5 344.5,-97.5 344.5,-67.5 223.5,-67.5"/>
<text text-anchor="start" x="231.5" y="-85.5" font-family="Helvetica,sans-Serif" font-size="10.00">source/non_matching</text>
<text text-anchor="middle" x="284" y="-74.5" font-family="Helvetica,sans-Serif" font-size="10.00">_coupling.cc</text>
</a>
</g>
</g>
<!-- Node1&#45;&gt;Node6 -->
<g id="edge7" class="edge">
<title>Node1&#45;&gt;Node6</title>
<path fill="none" stroke="midnightblue" d="M284,-202.22C284,-170.42 284,-121.4 284,-97.53"/>
<polygon fill="midnightblue" stroke="midnightblue" points="280.5,-202.28 284,-212.28 287.5,-202.28 280.5,-202.28"/>
</g>
<!-- Node7 -->
<g id="node7" class="node">
<title>Node7</title>
<g id="a_node7"><a xlink:href="assemble__coupling__mass__matrix__with__exact__intersections_8cc.html" target="_top" xlink:title=" ">
<polygon fill="none" stroke="black" points="312,-134.5 312,-175.5 458,-175.5 458,-134.5 312,-134.5"/>
<text text-anchor="start" x="320" y="-163.5" font-family="Helvetica,sans-Serif" font-size="10.00">source/assemble_coupling</text>
<text text-anchor="start" x="320" y="-152.5" font-family="Helvetica,sans-Serif" font-size="10.00">_mass_matrix_with_exact</text>
<text text-anchor="middle" x="385" y="-141.5" font-family="Helvetica,sans-Serif" font-size="10.00">_intersections.cc</text>
</a>
</g>
</g>
<!-- Node1&#45;&gt;Node7 -->
<g id="edge6" class="edge">
<title>Node1&#45;&gt;Node7</title>
<path fill="none" stroke="midnightblue" d="M318.09,-206.35C331.48,-196.27 346.6,-184.89 359.08,-175.51"/>
<polygon fill="midnightblue" stroke="midnightblue" points="315.9,-203.62 310.01,-212.43 320.1,-209.21 315.9,-203.62"/>
</g>
<!-- Node3 -->
<g id="node3" class="node">
<title>Node3</title>
<g id="a_node3"><a xlink:href="distributed__lagrange_8h.html" target="_top" xlink:title=" ">
<polygon fill="none" stroke="black" points="76.5,-67.5 76.5,-97.5 205.5,-97.5 205.5,-67.5 76.5,-67.5"/>
<text text-anchor="start" x="84.5" y="-85.5" font-family="Helvetica,sans-Serif" font-size="10.00">include/pdes/serial</text>
<text text-anchor="middle" x="141" y="-74.5" font-family="Helvetica,sans-Serif" font-size="10.00">/distributed_lagrange.h</text>
</a>
</g>
</g>
<!-- Node2&#45;&gt;Node3 -->
<g id="edge2" class="edge">
<title>Node2&#45;&gt;Node3</title>
<path fill="none" stroke="midnightblue" d="M170.01,-131.06C163.31,-120.09 155.51,-107.3 149.69,-97.75"/>
<polygon fill="midnightblue" stroke="midnightblue" points="167.1,-133.02 175.3,-139.73 173.08,-129.37 167.1,-133.02"/>
</g>
<!-- Node2&#45;&gt;Node6 -->
<g id="edge5" class="edge">
<title>Node2&#45;&gt;Node6</title>
<path fill="none" stroke="midnightblue" d="M212.47,-133.93C228.98,-122.29 249.36,-107.92 264.13,-97.5"/>
<polygon fill="midnightblue" stroke="midnightblue" points="210.39,-131.11 204.24,-139.73 214.43,-136.83 210.39,-131.11"/>
</g>
<!-- Node4 -->
<g id="node4" class="node">
<title>Node4</title>
<g id="a_node4"><a xlink:href="source_2pdes_2serial_2distributed__lagrange_8cc.html" target="_top" xlink:title=" ">
<polygon fill="none" stroke="black" points="0,-0.5 0,-30.5 134,-30.5 134,-0.5 0,-0.5"/>
<text text-anchor="start" x="8" y="-18.5" font-family="Helvetica,sans-Serif" font-size="10.00">source/pdes/serial</text>
<text text-anchor="middle" x="67" y="-7.5" font-family="Helvetica,sans-Serif" font-size="10.00">/distributed_lagrange.cc</text>
</a>
</g>
</g>
<!-- Node3&#45;&gt;Node4 -->
<g id="edge3" class="edge">
<title>Node3&#45;&gt;Node4</title>
<path fill="none" stroke="midnightblue" d="M117.2,-60.6C106.03,-50.78 93.01,-39.34 83.03,-30.58"/>
<polygon fill="midnightblue" stroke="midnightblue" points="115.12,-63.43 124.94,-67.4 119.74,-58.17 115.12,-63.43"/>
</g>
<!-- Node5 -->
<g id="node5" class="node">
<title>Node5</title>
<g id="a_node5"><a xlink:href="apps_2serial_2distributed__lagrange_8cc.html" target="_top" xlink:title=" ">
<polygon fill="none" stroke="black" points="152.5,-0.5 152.5,-30.5 277.5,-30.5 277.5,-0.5 152.5,-0.5"/>
<text text-anchor="start" x="160.5" y="-18.5" font-family="Helvetica,sans-Serif" font-size="10.00">apps/serial/distributed</text>
<text text-anchor="middle" x="215" y="-7.5" font-family="Helvetica,sans-Serif" font-size="10.00">_lagrange.cc</text>
</a>
</g>
</g>
<!-- Node3&#45;&gt;Node5 -->
<g id="edge4" class="edge">
<title>Node3&#45;&gt;Node5</title>
<path fill="none" stroke="midnightblue" d="M164.8,-60.6C175.97,-50.78 188.99,-39.34 198.97,-30.58"/>
<polygon fill="midnightblue" stroke="midnightblue" points="162.26,-58.17 157.06,-67.4 166.88,-63.43 162.26,-58.17"/>
</g>
</g>
</svg>
