<?xml version="1.0" encoding="UTF-8" standalone="no"?>
<!DOCTYPE svg PUBLIC "-//W3C//DTD SVG 1.1//EN"
 "http://www.w3.org/Graphics/SVG/1.1/DTD/svg11.dtd">
<!-- Generated by graphviz version 2.43.0 (0)
 -->
<!-- Title: include/assemble_coupling_mass_matrix_with_exact_intersections.h Pages: 1 -->
<svg width="1315pt" height="296pt"
 viewBox="0.00 0.00 1314.50 296.00" xmlns="http://www.w3.org/2000/svg" xmlns:xlink="http://www.w3.org/1999/xlink">
<g id="graph0" class="graph" transform="scale(1 1) rotate(0) translate(4 292)">
<title>include/assemble_coupling_mass_matrix_with_exact_intersections.h</title>
<!-- Node1 -->
<g id="node1" class="node">
<title>Node1</title>
<g id="a_node1"><a xlink:title=" ">
<polygon fill="#bfbfbf" stroke="black" points="643.5,-246.5 643.5,-287.5 792.5,-287.5 792.5,-246.5 643.5,-246.5"/>
<text text-anchor="start" x="651.5" y="-275.5" font-family="Helvetica,sans-Serif" font-size="10.00">include/assemble_coupling</text>
<text text-anchor="start" x="651.5" y="-264.5" font-family="Helvetica,sans-Serif" font-size="10.00">_mass_matrix_with_exact</text>
<text text-anchor="middle" x="718" y="-253.5" font-family="Helvetica,sans-Serif" font-size="10.00">_intersections.h</text>
</a>
</g>
</g>
<!-- Node2 -->
<g id="node2" class="node">
<title>Node2</title>
<g id="a_node2"><a target="_parent" xlink:href="http://www.dealii.org/developer/doxygen/deal.II/config_8h.html.html" xlink:title=" ">
<polygon fill="none" stroke="black" points="47,-129 47,-148 161,-148 161,-129 47,-129"/>
<text text-anchor="middle" x="104" y="-136" font-family="Helvetica,sans-Serif" font-size="10.00">deal.II/base/config.h</text>
</a>
</g>
</g>
<!-- Node1&#45;&gt;Node2 -->
<g id="edge1" class="edge">
<title>Node1&#45;&gt;Node2</title>
<path fill="none" stroke="midnightblue" d="M643.29,-251.82C585.33,-240.72 502.99,-224.75 431,-210 314.77,-186.19 285.94,-179.17 170,-154 164.34,-152.77 158.42,-151.48 152.54,-150.19"/>
<polygon fill="midnightblue" stroke="midnightblue" points="153.25,-146.76 142.73,-148.04 151.75,-153.6 153.25,-146.76"/>
</g>
<!-- Node3 -->
<g id="node3" class="node">
<title>Node3</title>
<g id="a_node3"><a target="_parent" xlink:href="http://www.dealii.org/developer/doxygen/deal.II/function__lib_8h.html.html" xlink:title=" ">
<polygon fill="none" stroke="black" points="179,-123.5 179,-153.5 295,-153.5 295,-123.5 179,-123.5"/>
<text text-anchor="start" x="187" y="-141.5" font-family="Helvetica,sans-Serif" font-size="10.00">deal.II/base/function</text>
<text text-anchor="middle" x="237" y="-130.5" font-family="Helvetica,sans-Serif" font-size="10.00">_lib.h</text>
</a>
</g>
</g>
<!-- Node1&#45;&gt;Node3 -->
<g id="edge2" class="edge">
<title>Node1&#45;&gt;Node3</title>
<path fill="none" stroke="midnightblue" d="M643.63,-246.44C549.43,-221.67 388.73,-179.4 300.18,-156.12"/>
<polygon fill="midnightblue" stroke="midnightblue" points="300.83,-152.67 290.27,-153.51 299.05,-159.44 300.83,-152.67"/>
</g>
<!-- Node7 -->
<g id="node7" class="node">
<title>Node7</title>
<g id="a_node7"><a target="_parent" xlink:href="http://www.dealii.org/developer/doxygen/deal.II/include_2deal_8II_2base_2quadrature_8h.html.html" xlink:title=" ">
<polygon fill="none" stroke="black" points="313,-129 313,-148 451,-148 451,-129 313,-129"/>
<text text-anchor="middle" x="382" y="-136" font-family="Helvetica,sans-Serif" font-size="10.00">deal.II/base/quadrature.h</text>
</a>
</g>
</g>
<!-- Node1&#45;&gt;Node7 -->
<g id="edge6" class="edge">
<title>Node1&#45;&gt;Node7</title>
<path fill="none" stroke="midnightblue" d="M665.87,-246.37C595.47,-219.87 472.16,-173.44 414.03,-151.56"/>
<polygon fill="midnightblue" stroke="midnightblue" points="415.21,-148.27 404.62,-148.02 412.75,-154.82 415.21,-148.27"/>
</g>
<!-- Node8 -->
<g id="node8" class="node">
<title>Node8</title>
<g id="a_node8"><a target="_parent" xlink:href="http://www.dealii.org/developer/doxygen/deal.II/dof__handler_8h.html.html" xlink:title=" ">
<polygon fill="none" stroke="black" points="19,-190.5 19,-209.5 159,-209.5 159,-190.5 19,-190.5"/>
<text text-anchor="middle" x="89" y="-197.5" font-family="Helvetica,sans-Serif" font-size="10.00">deal.II/dofs/dof_handler.h</text>
</a>
</g>
</g>
<!-- Node1&#45;&gt;Node8 -->
<g id="edge7" class="edge">
<title>Node1&#45;&gt;Node8</title>
<path fill="none" stroke="midnightblue" d="M643.38,-258.29C524.2,-245.97 291.9,-221.97 169.27,-209.29"/>
<polygon fill="midnightblue" stroke="midnightblue" points="169.5,-205.8 159.19,-208.25 168.78,-212.76 169.5,-205.8"/>
</g>
<!-- Node9 -->
<g id="node9" class="node">
<title>Node9</title>
<g id="a_node9"><a target="_parent" xlink:href="http://www.dealii.org/developer/doxygen/deal.II/mapping_8h.html.html" xlink:title=" ">
<polygon fill="none" stroke="black" points="469,-129 469,-148 583,-148 583,-129 469,-129"/>
<text text-anchor="middle" x="526" y="-136" font-family="Helvetica,sans-Serif" font-size="10.00">deal.II/fe/mapping.h</text>
</a>
</g>
</g>
<!-- Node1&#45;&gt;Node9 -->
<g id="edge9" class="edge">
<title>Node1&#45;&gt;Node9</title>
<path fill="none" stroke="midnightblue" d="M688,-246.23C649.08,-220.59 582.11,-176.47 547.74,-153.82"/>
<polygon fill="midnightblue" stroke="midnightblue" points="549.62,-150.87 539.35,-148.29 545.77,-156.72 549.62,-150.87"/>
</g>
<!-- Node10 -->
<g id="node10" class="node">
<title>Node10</title>
<g id="a_node10"><a target="_parent" xlink:href="http://www.dealii.org/developer/doxygen/deal.II/mapping__q1_8h.html.html" xlink:title=" ">
<polygon fill="none" stroke="black" points="601.5,-129 601.5,-148 732.5,-148 732.5,-129 601.5,-129"/>
<text text-anchor="middle" x="667" y="-136" font-family="Helvetica,sans-Serif" font-size="10.00">deal.II/fe/mapping_q1.h</text>
</a>
</g>
</g>
<!-- Node1&#45;&gt;Node10 -->
<g id="edge10" class="edge">
<title>Node1&#45;&gt;Node10</title>
<path fill="none" stroke="midnightblue" d="M710.03,-246.23C700.26,-222.01 683.85,-181.29 674.37,-157.77"/>
<polygon fill="midnightblue" stroke="midnightblue" points="677.53,-156.26 670.55,-148.29 671.04,-158.88 677.53,-156.26"/>
</g>
<!-- Node11 -->
<g id="node11" class="node">
<title>Node11</title>
<g id="a_node11"><a target="_parent" xlink:href="http://www.dealii.org/developer/doxygen/deal.II/grid__tools_8h.html.html" xlink:title=" ">
<polygon fill="none" stroke="black" points="751,-129 751,-148 879,-148 879,-129 751,-129"/>
<text text-anchor="middle" x="815" y="-136" font-family="Helvetica,sans-Serif" font-size="10.00">deal.II/grid/grid_tools.h</text>
</a>
</g>
</g>
<!-- Node1&#45;&gt;Node11 -->
<g id="edge11" class="edge">
<title>Node1&#45;&gt;Node11</title>
<path fill="none" stroke="midnightblue" d="M718.97,-246.24C720.65,-229.84 725.14,-206.6 737,-190 748.84,-173.43 767.97,-160.93 784.32,-152.5"/>
<polygon fill="midnightblue" stroke="midnightblue" points="786.08,-155.54 793.55,-148.02 783.02,-149.24 786.08,-155.54"/>
</g>
<!-- Node12 -->
<g id="node12" class="node">
<title>Node12</title>
<g id="a_node12"><a target="_parent" xlink:href="http://www.dealii.org/developer/doxygen/deal.II/grid__tools__cache_8h.html.html" xlink:title=" ">
<polygon fill="none" stroke="black" points="897.5,-123.5 897.5,-153.5 1016.5,-153.5 1016.5,-123.5 897.5,-123.5"/>
<text text-anchor="start" x="905.5" y="-141.5" font-family="Helvetica,sans-Serif" font-size="10.00">deal.II/grid/grid_tools</text>
<text text-anchor="middle" x="957" y="-130.5" font-family="Helvetica,sans-Serif" font-size="10.00">_cache.h</text>
</a>
</g>
</g>
<!-- Node1&#45;&gt;Node12 -->
<g id="edge12" class="edge">
<title>Node1&#45;&gt;Node12</title>
<path fill="none" stroke="midnightblue" d="M792.8,-250.95C825,-242.25 862.05,-229.14 892,-210 911.77,-197.37 929.47,-177.28 941.38,-161.78"/>
<polygon fill="midnightblue" stroke="midnightblue" points="944.23,-163.82 947.39,-153.71 938.61,-159.64 944.23,-163.82"/>
</g>
<!-- Node13 -->
<g id="node13" class="node">
<title>Node13</title>
<g id="a_node13"><a target="_parent" xlink:href="http://www.dealii.org/developer/doxygen/deal.II/grid_2tria_8h.html.html" xlink:title=" ">
<polygon fill="none" stroke="black" points="1034.5,-129 1034.5,-148 1131.5,-148 1131.5,-129 1034.5,-129"/>
<text text-anchor="middle" x="1083" y="-136" font-family="Helvetica,sans-Serif" font-size="10.00">deal.II/grid/tria.h</text>
</a>
</g>
</g>
<!-- Node1&#45;&gt;Node13 -->
<g id="edge13" class="edge">
<title>Node1&#45;&gt;Node13</title>
<path fill="none" stroke="midnightblue" d="M792.72,-247.74C830.89,-237.77 877.83,-224.51 919,-210 968.27,-192.63 1023.76,-167.57 1055.92,-152.48"/>
<polygon fill="midnightblue" stroke="midnightblue" points="1057.57,-155.57 1065.11,-148.13 1054.58,-149.24 1057.57,-155.57"/>
</g>
<!-- Node14 -->
<g id="node14" class="node">
<title>Node14</title>
<g id="a_node14"><a xlink:title=" ">
<polygon fill="none" stroke="#bfbfbf" points="1150,-129 1150,-148 1182,-148 1182,-129 1150,-129"/>
<text text-anchor="middle" x="1166" y="-136" font-family="Helvetica,sans-Serif" font-size="10.00">set</text>
</a>
</g>
</g>
<!-- Node1&#45;&gt;Node14 -->
<g id="edge14" class="edge">
<title>Node1&#45;&gt;Node14</title>
<path fill="none" stroke="midnightblue" d="M792.58,-253.01C878.64,-236.49 1023.28,-203.96 1140,-154 1141,-153.57 1142.01,-153.12 1143.02,-152.64"/>
<polygon fill="midnightblue" stroke="midnightblue" points="1144.68,-155.72 1151.97,-148.03 1141.47,-149.5 1144.68,-155.72"/>
</g>
<!-- Node15 -->
<g id="node15" class="node">
<title>Node15</title>
<g id="a_node15"><a xlink:title=" ">
<polygon fill="none" stroke="#bfbfbf" points="1200.5,-129 1200.5,-148 1241.5,-148 1241.5,-129 1200.5,-129"/>
<text text-anchor="middle" x="1221" y="-136" font-family="Helvetica,sans-Serif" font-size="10.00">tuple</text>
</a>
</g>
</g>
<!-- Node1&#45;&gt;Node15 -->
<g id="edge15" class="edge">
<title>Node1&#45;&gt;Node15</title>
<path fill="none" stroke="midnightblue" d="M792.79,-255.46C855.36,-245.91 946.71,-230.23 1025,-210 1100.39,-190.52 1118.92,-183.44 1191,-154 1192.37,-153.44 1193.77,-152.85 1195.18,-152.23"/>
<polygon fill="midnightblue" stroke="midnightblue" points="1196.73,-155.37 1204.35,-148 1193.8,-149.01 1196.73,-155.37"/>
</g>
<!-- Node16 -->
<g id="node16" class="node">
<title>Node16</title>
<g id="a_node16"><a xlink:title=" ">
<polygon fill="none" stroke="#bfbfbf" points="1259.5,-129 1259.5,-148 1306.5,-148 1306.5,-129 1259.5,-129"/>
<text text-anchor="middle" x="1283" y="-136" font-family="Helvetica,sans-Serif" font-size="10.00">vector</text>
</a>
</g>
</g>
<!-- Node1&#45;&gt;Node16 -->
<g id="edge16" class="edge">
<title>Node1&#45;&gt;Node16</title>
<path fill="none" stroke="midnightblue" d="M792.83,-257.63C865.51,-248.72 978.68,-232.74 1075,-210 1154.89,-191.14 1174.37,-183.43 1251,-154 1252.6,-153.38 1254.24,-152.73 1255.89,-152.05"/>
<polygon fill="midnightblue" stroke="midnightblue" points="1257.43,-155.19 1265.22,-148 1254.65,-148.77 1257.43,-155.19"/>
</g>
<!-- Node17 -->
<g id="node17" class="node">
<title>Node17</title>
<g id="a_node17"><a xlink:href="compute__intersections_8h.html" target="_top" xlink:title=" ">
<polygon fill="none" stroke="black" points="746.5,-190.5 746.5,-209.5 883.5,-209.5 883.5,-190.5 746.5,-190.5"/>
<text text-anchor="middle" x="815" y="-197.5" font-family="Helvetica,sans-Serif" font-size="10.00">compute_intersections.h</text>
</a>
</g>
</g>
<!-- Node1&#45;&gt;Node17 -->
<g id="edge17" class="edge">
<title>Node1&#45;&gt;Node17</title>
<path fill="none" stroke="midnightblue" d="M747.1,-246.5C761.98,-236.53 779.76,-224.61 793.4,-215.48"/>
<polygon fill="midnightblue" stroke="midnightblue" points="795.73,-218.13 802.09,-209.65 791.83,-212.31 795.73,-218.13"/>
</g>
<!-- Node4 -->
<g id="node4" class="node">
<title>Node4</title>
<g id="a_node4"><a xlink:href="function_8h.html" target="_top" xlink:title=" ">
<polygon fill="none" stroke="black" points="65.5,-67.5 65.5,-86.5 190.5,-86.5 190.5,-67.5 65.5,-67.5"/>
<text text-anchor="middle" x="128" y="-74.5" font-family="Helvetica,sans-Serif" font-size="10.00">deal.II/base/function.h</text>
</a>
</g>
</g>
<!-- Node3&#45;&gt;Node4 -->
<g id="edge3" class="edge">
<title>Node3&#45;&gt;Node4</title>
<path fill="none" stroke="midnightblue" d="M211.17,-123.4C193.53,-113.77 170.3,-101.09 152.87,-91.58"/>
<polygon fill="midnightblue" stroke="midnightblue" points="154.31,-88.38 143.86,-86.66 150.96,-94.52 154.31,-88.38"/>
</g>
<!-- Node5 -->
<g id="node5" class="node">
<title>Node5</title>
<g id="a_node5"><a target="_parent" xlink:href="http://www.dealii.org/developer/doxygen/deal.II/function__parser_8h.html.html" xlink:title=" ">
<polygon fill="none" stroke="black" points="0,-0.5 0,-30.5 116,-30.5 116,-0.5 0,-0.5"/>
<text text-anchor="start" x="8" y="-18.5" font-family="Helvetica,sans-Serif" font-size="10.00">deal.II/base/function</text>
<text text-anchor="middle" x="58" y="-7.5" font-family="Helvetica,sans-Serif" font-size="10.00">_parser.h</text>
</a>
</g>
</g>
<!-- Node4&#45;&gt;Node5 -->
<g id="edge4" class="edge">
<title>Node4&#45;&gt;Node5</title>
<path fill="none" stroke="midnightblue" d="M117.97,-67.48C108.67,-59.57 94.45,-47.48 82.2,-37.07"/>
<polygon fill="midnightblue" stroke="midnightblue" points="84.38,-34.33 74.5,-30.52 79.85,-39.67 84.38,-34.33"/>
</g>
<!-- Node6 -->
<g id="node6" class="node">
<title>Node6</title>
<g id="a_node6"><a target="_parent" xlink:href="http://www.dealii.org/developer/doxygen/deal.II/parameter__acceptor_8h.html.html" xlink:title=" ">
<polygon fill="none" stroke="black" points="134.5,-0.5 134.5,-30.5 261.5,-30.5 261.5,-0.5 134.5,-0.5"/>
<text text-anchor="start" x="142.5" y="-18.5" font-family="Helvetica,sans-Serif" font-size="10.00">deal.II/base/parameter</text>
<text text-anchor="middle" x="198" y="-7.5" font-family="Helvetica,sans-Serif" font-size="10.00">_acceptor.h</text>
</a>
</g>
</g>
<!-- Node4&#45;&gt;Node6 -->
<g id="edge5" class="edge">
<title>Node4&#45;&gt;Node6</title>
<path fill="none" stroke="midnightblue" d="M138.03,-67.48C147.33,-59.57 161.55,-47.48 173.8,-37.07"/>
<polygon fill="midnightblue" stroke="midnightblue" points="176.15,-39.67 181.5,-30.52 171.62,-34.33 176.15,-39.67"/>
</g>
<!-- Node8&#45;&gt;Node4 -->
<g id="edge8" class="edge">
<title>Node8&#45;&gt;Node4</title>
<path fill="none" stroke="midnightblue" d="M73.27,-190.24C61.11,-182.48 45.19,-169.93 38,-154 32.33,-141.44 30.76,-134.72 38,-123 47.67,-107.35 64.62,-96.96 81.22,-90.15"/>
<polygon fill="midnightblue" stroke="midnightblue" points="82.75,-93.32 90.9,-86.54 80.31,-86.76 82.75,-93.32"/>
</g>
<!-- Node17&#45;&gt;Node2 -->
<g id="edge18" class="edge">
<title>Node17&#45;&gt;Node2</title>
<path fill="none" stroke="midnightblue" d="M746.39,-197.51C628.16,-194.21 378.6,-184.03 170,-154 163.06,-153 155.76,-151.68 148.64,-150.23"/>
<polygon fill="midnightblue" stroke="midnightblue" points="148.93,-146.72 138.42,-148.06 147.48,-153.56 148.93,-146.72"/>
</g>
<!-- Node17&#45;&gt;Node3 -->
<g id="edge19" class="edge">
<title>Node17&#45;&gt;Node3</title>
<path fill="none" stroke="midnightblue" d="M746.49,-195.7C650.14,-190.45 469.01,-178.37 305.28,-154.07"/>
<polygon fill="midnightblue" stroke="midnightblue" points="305.43,-150.55 295.02,-152.52 304.39,-157.47 305.43,-150.55"/>
</g>
<!-- Node17&#45;&gt;Node7 -->
<g id="edge20" class="edge">
<title>Node17&#45;&gt;Node7</title>
<path fill="none" stroke="midnightblue" d="M746.45,-191.5C674.83,-183.38 559.28,-169.51 460,-154 452.07,-152.76 443.7,-151.33 435.51,-149.87"/>
<polygon fill="midnightblue" stroke="midnightblue" points="436.12,-146.42 425.65,-148.07 434.86,-153.31 436.12,-146.42"/>
</g>
<!-- Node17&#45;&gt;Node9 -->
<g id="edge21" class="edge">
<title>Node17&#45;&gt;Node9</title>
<path fill="none" stroke="midnightblue" d="M771.37,-190.43C726.38,-181.53 654.22,-167.11 592,-154 586.26,-152.79 580.25,-151.5 574.29,-150.21"/>
<polygon fill="midnightblue" stroke="midnightblue" points="574.88,-146.76 564.37,-148.05 573.39,-153.6 574.88,-146.76"/>
</g>
<!-- Node17&#45;&gt;Node10 -->
<g id="edge22" class="edge">
<title>Node17&#45;&gt;Node10</title>
<path fill="none" stroke="midnightblue" d="M793.8,-190.48C768.63,-180.36 726.46,-163.4 697.72,-151.85"/>
<polygon fill="midnightblue" stroke="midnightblue" points="698.75,-148.49 688.17,-148.01 696.14,-154.99 698.75,-148.49"/>
</g>
<!-- Node17&#45;&gt;Node11 -->
<g id="edge23" class="edge">
<title>Node17&#45;&gt;Node11</title>
<path fill="none" stroke="midnightblue" d="M815,-190.48C815,-182.08 815,-168.98 815,-158.16"/>
<polygon fill="midnightblue" stroke="midnightblue" points="818.5,-158.01 815,-148.01 811.5,-158.01 818.5,-158.01"/>
</g>
<!-- Node17&#45;&gt;Node12 -->
<g id="edge24" class="edge">
<title>Node17&#45;&gt;Node12</title>
<path fill="none" stroke="midnightblue" d="M835.35,-190.48C855.84,-181.89 888.07,-168.38 914.21,-157.43"/>
<polygon fill="midnightblue" stroke="midnightblue" points="915.66,-160.62 923.53,-153.52 912.96,-154.16 915.66,-160.62"/>
</g>
<!-- Node17&#45;&gt;Node13 -->
<g id="edge25" class="edge">
<title>Node17&#45;&gt;Node13</title>
<path fill="none" stroke="midnightblue" d="M856.93,-190.45C899.38,-181.69 966.89,-167.49 1025,-154 1029.74,-152.9 1034.69,-151.72 1039.62,-150.52"/>
<polygon fill="midnightblue" stroke="midnightblue" points="1040.74,-153.84 1049.62,-148.05 1039.07,-147.05 1040.74,-153.84"/>
</g>
<!-- Node17&#45;&gt;Node14 -->
<g id="edge26" class="edge">
<title>Node17&#45;&gt;Node14</title>
<path fill="none" stroke="midnightblue" d="M883.58,-196.85C950.53,-193.06 1054.52,-182.63 1140,-154 1141.24,-153.58 1142.49,-153.11 1143.73,-152.59"/>
<polygon fill="midnightblue" stroke="midnightblue" points="1145.54,-155.6 1152.94,-148.02 1142.43,-149.33 1145.54,-155.6"/>
</g>
<!-- Node17&#45;&gt;Node15 -->
<g id="edge27" class="edge">
<title>Node17&#45;&gt;Node15</title>
<path fill="none" stroke="midnightblue" d="M883.59,-197.56C960.02,-194.41 1086.57,-184.56 1191,-154 1192.87,-153.45 1194.77,-152.8 1196.66,-152.07"/>
<polygon fill="midnightblue" stroke="midnightblue" points="1198.08,-155.27 1205.82,-148.04 1195.26,-148.87 1198.08,-155.27"/>
</g>
<!-- Node17&#45;&gt;Node16 -->
<g id="edge28" class="edge">
<title>Node17&#45;&gt;Node16</title>
<path fill="none" stroke="midnightblue" d="M883.83,-198.69C970.82,-196.76 1124.47,-188.22 1251,-154 1253.15,-153.42 1255.34,-152.71 1257.52,-151.91"/>
<polygon fill="midnightblue" stroke="midnightblue" points="1258.87,-155.14 1266.77,-148.08 1256.19,-148.67 1258.87,-155.14"/>
</g>
</g>
</svg>
