<?xml version="1.0" encoding="UTF-8" standalone="no"?>
<!DOCTYPE svg PUBLIC "-//W3C//DTD SVG 1.1//EN"
 "http://www.w3.org/Graphics/SVG/1.1/DTD/svg11.dtd">
<!-- Generated by graphviz version 2.43.0 (0)
 -->
<!-- Title: source/assemble_coupling_mass_matrix_with_exact_intersections.cc Pages: 1 -->
<svg width="1490pt" height="363pt"
 viewBox="0.00 0.00 1490.00 363.00" xmlns="http://www.w3.org/2000/svg" xmlns:xlink="http://www.w3.org/1999/xlink">
<g id="graph0" class="graph" transform="scale(1 1) rotate(0) translate(4 359)">
<title>source/assemble_coupling_mass_matrix_with_exact_intersections.cc</title>
<!-- Node1 -->
<g id="node1" class="node">
<title>Node1</title>
<g id="a_node1"><a xlink:title=" ">
<polygon fill="#bfbfbf" stroke="black" points="911,-313.5 911,-354.5 1057,-354.5 1057,-313.5 911,-313.5"/>
<text text-anchor="start" x="919" y="-342.5" font-family="Helvetica,sans-Serif" font-size="10.00">source/assemble_coupling</text>
<text text-anchor="start" x="919" y="-331.5" font-family="Helvetica,sans-Serif" font-size="10.00">_mass_matrix_with_exact</text>
<text text-anchor="middle" x="984" y="-320.5" font-family="Helvetica,sans-Serif" font-size="10.00">_intersections.cc</text>
</a>
</g>
</g>
<!-- Node2 -->
<g id="node2" class="node">
<title>Node2</title>
<g id="a_node2"><a xlink:href="http://www.dealii.org/developer/doxygen/deal.II/config_8h.html.html" xlink:title=" ">
<polygon fill="none" stroke="black" points="974.5,-129 974.5,-148 1089.5,-148 1089.5,-129 974.5,-129"/>
<text text-anchor="middle" x="1032" y="-136" font-family="Helvetica,sans-Serif" font-size="10.00">deal.II/base/config.h</text>
</a>
</g>
</g>
<!-- Node1&#45;&gt;Node2 -->
<g id="edge1" class="edge">
<title>Node1&#45;&gt;Node2</title>
<path fill="none" stroke="midnightblue" d="M988.94,-313.31C991.62,-302.57 995,-289.06 998,-277 1008.59,-234.4 1020.94,-184.36 1027.45,-157.96"/>
<polygon fill="midnightblue" stroke="midnightblue" points="1030.86,-158.74 1029.86,-148.19 1024.07,-157.06 1030.86,-158.74"/>
</g>
<!-- Node3 -->
<g id="node3" class="node">
<title>Node3</title>
<g id="a_node3"><a xlink:href="assemble__coupling__mass__matrix__with__exact__intersections_8h.html" target="_top" xlink:title=" ">
<polygon fill="none" stroke="black" points="629,-246.5 629,-276.5 819,-276.5 819,-246.5 629,-246.5"/>
<text text-anchor="start" x="637" y="-264.5" font-family="Helvetica,sans-Serif" font-size="10.00">assemble_coupling_mass</text>
<text text-anchor="middle" x="724" y="-253.5" font-family="Helvetica,sans-Serif" font-size="10.00">_matrix_with_exact_intersections.h</text>
</a>
</g>
</g>
<!-- Node1&#45;&gt;Node3 -->
<g id="edge2" class="edge">
<title>Node1&#45;&gt;Node3</title>
<path fill="none" stroke="midnightblue" d="M911.92,-313.46C872.33,-302.72 823.72,-289.54 785.87,-279.28"/>
<polygon fill="midnightblue" stroke="midnightblue" points="786.56,-275.84 775.99,-276.6 784.72,-282.59 786.56,-275.84"/>
</g>
<!-- Node4 -->
<g id="node4" class="node">
<title>Node4</title>
<g id="a_node4"><a xlink:href="http://www.dealii.org/developer/doxygen/deal.II/function__lib_8h.html.html" xlink:title=" ">
<polygon fill="none" stroke="black" points="113,-123.5 113,-153.5 229,-153.5 229,-123.5 113,-123.5"/>
<text text-anchor="start" x="121" y="-141.5" font-family="Helvetica,sans-Serif" font-size="10.00">deal.II/base/function</text>
<text text-anchor="middle" x="171" y="-130.5" font-family="Helvetica,sans-Serif" font-size="10.00">_lib.h</text>
</a>
</g>
</g>
<!-- Node1&#45;&gt;Node4 -->
<g id="edge31" class="edge">
<title>Node1&#45;&gt;Node4</title>
<path fill="none" stroke="midnightblue" d="M910.76,-333.42C810.94,-332.09 627.57,-322.81 479,-277 400.15,-252.69 390.59,-223.08 315,-190 286.36,-177.47 253.52,-165.76 226.45,-156.78"/>
<polygon fill="midnightblue" stroke="midnightblue" points="227.34,-153.39 216.75,-153.59 225.16,-160.04 227.34,-153.39"/>
</g>
<!-- Node8 -->
<g id="node8" class="node">
<title>Node8</title>
<g id="a_node8"><a xlink:href="http://www.dealii.org/developer/doxygen/deal.II/include_2deal_8II_2base_2quadrature_8h.html.html" xlink:title=" ">
<polygon fill="none" stroke="black" points="247,-129 247,-148 385,-148 385,-129 247,-129"/>
<text text-anchor="middle" x="316" y="-136" font-family="Helvetica,sans-Serif" font-size="10.00">deal.II/base/quadrature.h</text>
</a>
</g>
</g>
<!-- Node1&#45;&gt;Node8 -->
<g id="edge32" class="edge">
<title>Node1&#45;&gt;Node8</title>
<path fill="none" stroke="midnightblue" d="M910.75,-332.36C822.99,-329.6 672.59,-318.51 551,-277 464.03,-247.31 373.62,-183.41 335.16,-154.39"/>
<polygon fill="midnightblue" stroke="midnightblue" points="337.01,-151.4 326.94,-148.12 332.76,-156.96 337.01,-151.4"/>
</g>
<!-- Node9 -->
<g id="node9" class="node">
<title>Node9</title>
<g id="a_node9"><a xlink:href="http://www.dealii.org/developer/doxygen/deal.II/dof__handler_8h.html.html" xlink:title=" ">
<polygon fill="none" stroke="black" points="166,-190.5 166,-209.5 306,-209.5 306,-190.5 166,-190.5"/>
<text text-anchor="middle" x="236" y="-197.5" font-family="Helvetica,sans-Serif" font-size="10.00">deal.II/dofs/dof_handler.h</text>
</a>
</g>
</g>
<!-- Node1&#45;&gt;Node9 -->
<g id="edge35" class="edge">
<title>Node1&#45;&gt;Node9</title>
<path fill="none" stroke="midnightblue" d="M910.82,-332.68C760.95,-331.08 424.45,-322.37 320,-277 289.93,-263.94 263.4,-235.66 248.55,-217.52"/>
<polygon fill="midnightblue" stroke="midnightblue" points="251.19,-215.21 242.24,-209.54 245.7,-219.55 251.19,-215.21"/>
</g>
<!-- Node10 -->
<g id="node10" class="node">
<title>Node10</title>
<g id="a_node10"><a xlink:href="http://www.dealii.org/developer/doxygen/deal.II/mapping_8h.html.html" xlink:title=" ">
<polygon fill="none" stroke="black" points="403,-129 403,-148 517,-148 517,-129 403,-129"/>
<text text-anchor="middle" x="460" y="-136" font-family="Helvetica,sans-Serif" font-size="10.00">deal.II/fe/mapping.h</text>
</a>
</g>
</g>
<!-- Node1&#45;&gt;Node10 -->
<g id="edge36" class="edge">
<title>Node1&#45;&gt;Node10</title>
<path fill="none" stroke="midnightblue" d="M910.7,-327.81C814.68,-320.08 652.28,-303.54 599,-277 541.43,-248.32 492.93,-186.76 471.61,-156.71"/>
<polygon fill="midnightblue" stroke="midnightblue" points="474.25,-154.37 465.67,-148.14 468.49,-158.36 474.25,-154.37"/>
</g>
<!-- Node11 -->
<g id="node11" class="node">
<title>Node11</title>
<g id="a_node11"><a xlink:href="http://www.dealii.org/developer/doxygen/deal.II/mapping__q1_8h.html.html" xlink:title=" ">
<polygon fill="none" stroke="black" points="535.5,-129 535.5,-148 666.5,-148 666.5,-129 535.5,-129"/>
<text text-anchor="middle" x="601" y="-136" font-family="Helvetica,sans-Serif" font-size="10.00">deal.II/fe/mapping_q1.h</text>
</a>
</g>
</g>
<!-- Node1&#45;&gt;Node11 -->
<g id="edge37" class="edge">
<title>Node1&#45;&gt;Node11</title>
<path fill="none" stroke="midnightblue" d="M910.74,-331.74C816.28,-328.49 659.42,-317.03 620,-277 588.8,-245.32 592.71,-187.88 597.32,-158.27"/>
<polygon fill="midnightblue" stroke="midnightblue" points="600.83,-158.53 599.11,-148.07 593.93,-157.32 600.83,-158.53"/>
</g>
<!-- Node12 -->
<g id="node12" class="node">
<title>Node12</title>
<g id="a_node12"><a xlink:href="http://www.dealii.org/developer/doxygen/deal.II/grid__tools_8h.html.html" xlink:title=" ">
<polygon fill="none" stroke="black" points="1245,-129 1245,-148 1373,-148 1373,-129 1245,-129"/>
<text text-anchor="middle" x="1309" y="-136" font-family="Helvetica,sans-Serif" font-size="10.00">deal.II/grid/grid_tools.h</text>
</a>
</g>
</g>
<!-- Node1&#45;&gt;Node12 -->
<g id="edge38" class="edge">
<title>Node1&#45;&gt;Node12</title>
<path fill="none" stroke="midnightblue" d="M1016.95,-313.38C1082.84,-274.15 1229.35,-186.92 1286.01,-153.19"/>
<polygon fill="midnightblue" stroke="midnightblue" points="1287.8,-156.19 1294.61,-148.07 1284.22,-150.18 1287.8,-156.19"/>
</g>
<!-- Node13 -->
<g id="node13" class="node">
<title>Node13</title>
<g id="a_node13"><a xlink:href="http://www.dealii.org/developer/doxygen/deal.II/grid__tools__cache_8h.html.html" xlink:title=" ">
<polygon fill="none" stroke="black" points="1107.5,-123.5 1107.5,-153.5 1226.5,-153.5 1226.5,-123.5 1107.5,-123.5"/>
<text text-anchor="start" x="1115.5" y="-141.5" font-family="Helvetica,sans-Serif" font-size="10.00">deal.II/grid/grid_tools</text>
<text text-anchor="middle" x="1167" y="-130.5" font-family="Helvetica,sans-Serif" font-size="10.00">_cache.h</text>
</a>
</g>
</g>
<!-- Node1&#45;&gt;Node13 -->
<g id="edge39" class="edge">
<title>Node1&#45;&gt;Node13</title>
<path fill="none" stroke="midnightblue" d="M1002.55,-313.38C1037.08,-276.87 1110.93,-198.79 1146.72,-160.94"/>
<polygon fill="midnightblue" stroke="midnightblue" points="1149.43,-163.18 1153.75,-153.51 1144.34,-158.37 1149.43,-163.18"/>
</g>
<!-- Node14 -->
<g id="node14" class="node">
<title>Node14</title>
<g id="a_node14"><a xlink:href="http://www.dealii.org/developer/doxygen/deal.II/grid_2tria_8h.html.html" xlink:title=" ">
<polygon fill="none" stroke="black" points="859.5,-129 859.5,-148 956.5,-148 956.5,-129 859.5,-129"/>
<text text-anchor="middle" x="908" y="-136" font-family="Helvetica,sans-Serif" font-size="10.00">deal.II/grid/tria.h</text>
</a>
</g>
</g>
<!-- Node1&#45;&gt;Node14 -->
<g id="edge40" class="edge">
<title>Node1&#45;&gt;Node14</title>
<path fill="none" stroke="midnightblue" d="M976.29,-313.38C961.53,-275.78 929.43,-194.06 915.13,-157.65"/>
<polygon fill="midnightblue" stroke="midnightblue" points="918.36,-156.3 911.45,-148.27 911.84,-158.86 918.36,-156.3"/>
</g>
<!-- Node19 -->
<g id="node19" class="node">
<title>Node19</title>
<g id="a_node19"><a xlink:href="http://www.dealii.org/developer/doxygen/deal.II/shared__tria_8h.html.html" xlink:title=" ">
<polygon fill="none" stroke="black" points="1202,-246.5 1202,-276.5 1304,-276.5 1304,-246.5 1202,-246.5"/>
<text text-anchor="start" x="1210" y="-264.5" font-family="Helvetica,sans-Serif" font-size="10.00">deal.II/distributed</text>
<text text-anchor="middle" x="1253" y="-253.5" font-family="Helvetica,sans-Serif" font-size="10.00">/shared_tria.h</text>
</a>
</g>
</g>
<!-- Node1&#45;&gt;Node19 -->
<g id="edge33" class="edge">
<title>Node1&#45;&gt;Node19</title>
<path fill="none" stroke="midnightblue" d="M1057.15,-313.83C1099.32,-302.78 1151.72,-289.04 1191.71,-278.56"/>
<polygon fill="midnightblue" stroke="midnightblue" points="1192.81,-281.89 1201.6,-275.97 1191.03,-275.12 1192.81,-281.89"/>
</g>
<!-- Node20 -->
<g id="node20" class="node">
<title>Node20</title>
<g id="a_node20"><a xlink:href="http://www.dealii.org/developer/doxygen/deal.II/distributed_2tria_8h.html.html" xlink:title=" ">
<polygon fill="none" stroke="black" points="1322,-246.5 1322,-276.5 1424,-276.5 1424,-246.5 1322,-246.5"/>
<text text-anchor="start" x="1330" y="-264.5" font-family="Helvetica,sans-Serif" font-size="10.00">deal.II/distributed</text>
<text text-anchor="middle" x="1373" y="-253.5" font-family="Helvetica,sans-Serif" font-size="10.00">/tria.h</text>
</a>
</g>
</g>
<!-- Node1&#45;&gt;Node20 -->
<g id="edge34" class="edge">
<title>Node1&#45;&gt;Node20</title>
<path fill="none" stroke="midnightblue" d="M1057.12,-322.03C1121.68,-312 1218.56,-296.14 1312.08,-277.11"/>
<polygon fill="midnightblue" stroke="midnightblue" points="1312.9,-280.52 1321.99,-275.08 1311.49,-273.66 1312.9,-280.52"/>
</g>
<!-- Node21 -->
<g id="node21" class="node">
<title>Node21</title>
<g id="a_node21"><a xlink:title=" ">
<polygon fill="none" stroke="#bfbfbf" points="1442,-252 1442,-271 1482,-271 1482,-252 1442,-252"/>
<text text-anchor="middle" x="1462" y="-259" font-family="Helvetica,sans-Serif" font-size="10.00">lac.h</text>
</a>
</g>
</g>
<!-- Node1&#45;&gt;Node21 -->
<g id="edge41" class="edge">
<title>Node1&#45;&gt;Node21</title>
<path fill="none" stroke="midnightblue" d="M1057.11,-331.45C1147.28,-327.82 1304.43,-315.91 1433,-277 1434.67,-276.5 1436.35,-275.9 1438.03,-275.25"/>
<polygon fill="midnightblue" stroke="midnightblue" points="1439.68,-278.34 1447.35,-271.03 1436.8,-271.96 1439.68,-278.34"/>
</g>
<!-- Node3&#45;&gt;Node2 -->
<g id="edge3" class="edge">
<title>Node3&#45;&gt;Node2</title>
<path fill="none" stroke="midnightblue" d="M777.51,-246.48C810.17,-237.35 852.52,-224.47 889,-210 931.81,-193.02 979.38,-168.33 1007.44,-153.13"/>
<polygon fill="midnightblue" stroke="midnightblue" points="1009.41,-156.04 1016.51,-148.17 1006.05,-149.9 1009.41,-156.04"/>
</g>
<!-- Node3&#45;&gt;Node4 -->
<g id="edge4" class="edge">
<title>Node3&#45;&gt;Node4</title>
<path fill="none" stroke="midnightblue" d="M659.49,-246.49C612.93,-236.37 548.58,-222.37 492,-210 404.83,-190.94 304.37,-168.86 239.39,-154.56"/>
<polygon fill="midnightblue" stroke="midnightblue" points="239.79,-151.06 229.27,-152.33 238.29,-157.9 239.79,-151.06"/>
</g>
<!-- Node3&#45;&gt;Node8 -->
<g id="edge8" class="edge">
<title>Node3&#45;&gt;Node8</title>
<path fill="none" stroke="midnightblue" d="M676.4,-246.38C594.79,-222.18 429.72,-173.23 354.69,-150.97"/>
<polygon fill="midnightblue" stroke="midnightblue" points="355.3,-147.5 344.72,-148.02 353.31,-154.22 355.3,-147.5"/>
</g>
<!-- Node3&#45;&gt;Node9 -->
<g id="edge9" class="edge">
<title>Node3&#45;&gt;Node9</title>
<path fill="none" stroke="midnightblue" d="M628.75,-248.89C537.5,-237.76 401.37,-221.16 315.7,-210.72"/>
<polygon fill="midnightblue" stroke="midnightblue" points="316.12,-207.24 305.77,-209.51 315.27,-214.19 316.12,-207.24"/>
</g>
<!-- Node3&#45;&gt;Node10 -->
<g id="edge11" class="edge">
<title>Node3&#45;&gt;Node10</title>
<path fill="none" stroke="midnightblue" d="M693.2,-246.38C641.43,-222.65 537.75,-175.14 487.96,-152.31"/>
<polygon fill="midnightblue" stroke="midnightblue" points="489.3,-149.08 478.75,-148.09 486.38,-155.44 489.3,-149.08"/>
</g>
<!-- Node3&#45;&gt;Node11 -->
<g id="edge12" class="edge">
<title>Node3&#45;&gt;Node11</title>
<path fill="none" stroke="midnightblue" d="M701.29,-246.29C687.19,-236.9 669.11,-223.81 655,-210 638.21,-193.57 622.27,-171.72 612.13,-156.73"/>
<polygon fill="midnightblue" stroke="midnightblue" points="615.04,-154.79 606.6,-148.39 609.21,-158.65 615.04,-154.79"/>
</g>
<!-- Node3&#45;&gt;Node12 -->
<g id="edge13" class="edge">
<title>Node3&#45;&gt;Node12</title>
<path fill="none" stroke="midnightblue" d="M793.5,-246.45C843.23,-236.37 911.76,-222.44 972,-210 1073.69,-189.01 1192.54,-164.05 1258.44,-150.16"/>
<polygon fill="midnightblue" stroke="midnightblue" points="1259.49,-153.52 1268.55,-148.03 1258.05,-146.67 1259.49,-153.52"/>
</g>
<!-- Node3&#45;&gt;Node13 -->
<g id="edge14" class="edge">
<title>Node3&#45;&gt;Node13</title>
<path fill="none" stroke="midnightblue" d="M782.2,-246.49C822.41,-236.66 877.08,-223 925,-210 989.01,-192.64 1062.05,-171.13 1110.99,-156.46"/>
<polygon fill="midnightblue" stroke="midnightblue" points="1112.18,-159.76 1120.75,-153.53 1110.17,-153.05 1112.18,-159.76"/>
</g>
<!-- Node3&#45;&gt;Node14 -->
<g id="edge15" class="edge">
<title>Node3&#45;&gt;Node14</title>
<path fill="none" stroke="midnightblue" d="M793.8,-246.48C818.89,-238.85 846.12,-227.3 867,-210 883.66,-196.2 895.03,-173.77 901.5,-157.92"/>
<polygon fill="midnightblue" stroke="midnightblue" points="904.92,-158.78 905.2,-148.19 898.37,-156.29 904.92,-158.78"/>
</g>
<!-- Node15 -->
<g id="node15" class="node">
<title>Node15</title>
<g id="a_node15"><a xlink:title=" ">
<polygon fill="none" stroke="#bfbfbf" points="685,-129 685,-148 717,-148 717,-129 685,-129"/>
<text text-anchor="middle" x="701" y="-136" font-family="Helvetica,sans-Serif" font-size="10.00">set</text>
</a>
</g>
</g>
<!-- Node3&#45;&gt;Node15 -->
<g id="edge16" class="edge">
<title>Node3&#45;&gt;Node15</title>
<path fill="none" stroke="midnightblue" d="M697.44,-246.47C684.17,-237.88 669.39,-225.55 662,-210 652.78,-190.6 668.65,-169.11 682.84,-155.01"/>
<polygon fill="midnightblue" stroke="midnightblue" points="685.43,-157.38 690.37,-148 680.66,-152.25 685.43,-157.38"/>
</g>
<!-- Node16 -->
<g id="node16" class="node">
<title>Node16</title>
<g id="a_node16"><a xlink:title=" ">
<polygon fill="none" stroke="#bfbfbf" points="735.5,-129 735.5,-148 776.5,-148 776.5,-129 735.5,-129"/>
<text text-anchor="middle" x="756" y="-136" font-family="Helvetica,sans-Serif" font-size="10.00">tuple</text>
</a>
</g>
</g>
<!-- Node3&#45;&gt;Node16 -->
<g id="edge17" class="edge">
<title>Node3&#45;&gt;Node16</title>
<path fill="none" stroke="midnightblue" d="M711.39,-246.25C700.27,-231.87 687.11,-209.1 696,-190 703.19,-174.55 717.68,-162.14 730.63,-153.49"/>
<polygon fill="midnightblue" stroke="midnightblue" points="732.61,-156.38 739.23,-148.11 728.89,-150.44 732.61,-156.38"/>
</g>
<!-- Node17 -->
<g id="node17" class="node">
<title>Node17</title>
<g id="a_node17"><a xlink:title=" ">
<polygon fill="none" stroke="#bfbfbf" points="794.5,-129 794.5,-148 841.5,-148 841.5,-129 794.5,-129"/>
<text text-anchor="middle" x="818" y="-136" font-family="Helvetica,sans-Serif" font-size="10.00">vector</text>
</a>
</g>
</g>
<!-- Node3&#45;&gt;Node17 -->
<g id="edge18" class="edge">
<title>Node3&#45;&gt;Node17</title>
<path fill="none" stroke="midnightblue" d="M800.49,-246.38C820.18,-238.9 839.14,-227.47 851,-210 862.78,-192.64 848.14,-170.41 834.78,-155.6"/>
<polygon fill="midnightblue" stroke="midnightblue" points="837.13,-152.99 827.68,-148.21 832.09,-157.84 837.13,-152.99"/>
</g>
<!-- Node18 -->
<g id="node18" class="node">
<title>Node18</title>
<g id="a_node18"><a xlink:href="compute__intersections_8h.html" target="_top" xlink:title=" ">
<polygon fill="none" stroke="black" points="704.5,-190.5 704.5,-209.5 841.5,-209.5 841.5,-190.5 704.5,-190.5"/>
<text text-anchor="middle" x="773" y="-197.5" font-family="Helvetica,sans-Serif" font-size="10.00">compute_intersections.h</text>
</a>
</g>
</g>
<!-- Node3&#45;&gt;Node18 -->
<g id="edge19" class="edge">
<title>Node3&#45;&gt;Node18</title>
<path fill="none" stroke="midnightblue" d="M735.61,-246.4C742.73,-237.75 751.88,-226.64 759.35,-217.58"/>
<polygon fill="midnightblue" stroke="midnightblue" points="762.21,-219.6 765.87,-209.66 756.81,-215.15 762.21,-219.6"/>
</g>
<!-- Node5 -->
<g id="node5" class="node">
<title>Node5</title>
<g id="a_node5"><a xlink:href="function_8h.html" target="_top" xlink:title=" ">
<polygon fill="none" stroke="black" points="65.5,-67.5 65.5,-86.5 190.5,-86.5 190.5,-67.5 65.5,-67.5"/>
<text text-anchor="middle" x="128" y="-74.5" font-family="Helvetica,sans-Serif" font-size="10.00">deal.II/base/function.h</text>
</a>
</g>
</g>
<!-- Node4&#45;&gt;Node5 -->
<g id="edge5" class="edge">
<title>Node4&#45;&gt;Node5</title>
<path fill="none" stroke="midnightblue" d="M160.81,-123.4C154.63,-114.84 146.7,-103.87 140.18,-94.86"/>
<polygon fill="midnightblue" stroke="midnightblue" points="142.95,-92.71 134.26,-86.66 137.28,-96.81 142.95,-92.71"/>
</g>
<!-- Node6 -->
<g id="node6" class="node">
<title>Node6</title>
<g id="a_node6"><a xlink:href="http://www.dealii.org/developer/doxygen/deal.II/function__parser_8h.html.html" xlink:title=" ">
<polygon fill="none" stroke="black" points="0,-0.5 0,-30.5 116,-30.5 116,-0.5 0,-0.5"/>
<text text-anchor="start" x="8" y="-18.5" font-family="Helvetica,sans-Serif" font-size="10.00">deal.II/base/function</text>
<text text-anchor="middle" x="58" y="-7.5" font-family="Helvetica,sans-Serif" font-size="10.00">_parser.h</text>
</a>
</g>
</g>
<!-- Node5&#45;&gt;Node6 -->
<g id="edge6" class="edge">
<title>Node5&#45;&gt;Node6</title>
<path fill="none" stroke="midnightblue" d="M117.97,-67.48C108.67,-59.57 94.45,-47.48 82.2,-37.07"/>
<polygon fill="midnightblue" stroke="midnightblue" points="84.38,-34.33 74.5,-30.52 79.85,-39.67 84.38,-34.33"/>
</g>
<!-- Node7 -->
<g id="node7" class="node">
<title>Node7</title>
<g id="a_node7"><a xlink:href="http://www.dealii.org/developer/doxygen/deal.II/parameter__acceptor_8h.html.html" xlink:title=" ">
<polygon fill="none" stroke="black" points="134.5,-0.5 134.5,-30.5 261.5,-30.5 261.5,-0.5 134.5,-0.5"/>
<text text-anchor="start" x="142.5" y="-18.5" font-family="Helvetica,sans-Serif" font-size="10.00">deal.II/base/parameter</text>
<text text-anchor="middle" x="198" y="-7.5" font-family="Helvetica,sans-Serif" font-size="10.00">_acceptor.h</text>
</a>
</g>
</g>
<!-- Node5&#45;&gt;Node7 -->
<g id="edge7" class="edge">
<title>Node5&#45;&gt;Node7</title>
<path fill="none" stroke="midnightblue" d="M138.03,-67.48C147.33,-59.57 161.55,-47.48 173.8,-37.07"/>
<polygon fill="midnightblue" stroke="midnightblue" points="176.15,-39.67 181.5,-30.52 171.62,-34.33 176.15,-39.67"/>
</g>
<!-- Node9&#45;&gt;Node5 -->
<g id="edge10" class="edge">
<title>Node9&#45;&gt;Node5</title>
<path fill="none" stroke="midnightblue" d="M165.77,-191.54C142.25,-185.31 118.37,-174.08 104,-154 91.23,-136.15 103.5,-111.24 114.68,-94.88"/>
<polygon fill="midnightblue" stroke="midnightblue" points="117.54,-96.9 120.62,-86.76 111.89,-92.77 117.54,-96.9"/>
</g>
<!-- Node18&#45;&gt;Node2 -->
<g id="edge20" class="edge">
<title>Node18&#45;&gt;Node2</title>
<path fill="none" stroke="midnightblue" d="M810.11,-190.48C856.17,-179.89 934.77,-161.84 985,-150.3"/>
<polygon fill="midnightblue" stroke="midnightblue" points="986,-153.66 994.96,-148.01 984.43,-146.84 986,-153.66"/>
</g>
<!-- Node18&#45;&gt;Node4 -->
<g id="edge21" class="edge">
<title>Node18&#45;&gt;Node4</title>
<path fill="none" stroke="midnightblue" d="M704.26,-196.06C604.06,-191.15 411.89,-179.36 239.06,-154.03"/>
<polygon fill="midnightblue" stroke="midnightblue" points="239.43,-150.54 229.02,-152.54 238.4,-157.47 239.43,-150.54"/>
</g>
<!-- Node18&#45;&gt;Node8 -->
<g id="edge22" class="edge">
<title>Node18&#45;&gt;Node8</title>
<path fill="none" stroke="midnightblue" d="M704.35,-192.22C628.29,-184.39 502.09,-170.45 394,-154 385.96,-152.78 377.49,-151.35 369.2,-149.87"/>
<polygon fill="midnightblue" stroke="midnightblue" points="369.7,-146.41 359.23,-148.06 368.45,-153.29 369.7,-146.41"/>
</g>
<!-- Node18&#45;&gt;Node10 -->
<g id="edge23" class="edge">
<title>Node18&#45;&gt;Node10</title>
<path fill="none" stroke="midnightblue" d="M723.22,-190.47C673.27,-181.79 594.16,-167.69 526,-154 520.11,-152.82 513.93,-151.52 507.81,-150.22"/>
<polygon fill="midnightblue" stroke="midnightblue" points="508.16,-146.71 497.64,-148.02 506.68,-153.55 508.16,-146.71"/>
</g>
<!-- Node18&#45;&gt;Node11 -->
<g id="edge24" class="edge">
<title>Node18&#45;&gt;Node11</title>
<path fill="none" stroke="midnightblue" d="M748.36,-190.48C718.72,-180.22 668.82,-162.96 635.4,-151.4"/>
<polygon fill="midnightblue" stroke="midnightblue" points="636.19,-147.97 625.6,-148.01 633.9,-154.59 636.19,-147.97"/>
</g>
<!-- Node18&#45;&gt;Node12 -->
<g id="edge25" class="edge">
<title>Node18&#45;&gt;Node12</title>
<path fill="none" stroke="midnightblue" d="M841.51,-194.48C932.1,-188.01 1096.58,-174.57 1236,-154 1243.73,-152.86 1251.88,-151.45 1259.82,-149.96"/>
<polygon fill="midnightblue" stroke="midnightblue" points="1260.57,-153.38 1269.72,-148.04 1259.24,-146.51 1260.57,-153.38"/>
</g>
<!-- Node18&#45;&gt;Node13 -->
<g id="edge26" class="edge">
<title>Node18&#45;&gt;Node13</title>
<path fill="none" stroke="midnightblue" d="M841.6,-191.01C905.47,-183.23 1003.52,-170.43 1097.4,-154.21"/>
<polygon fill="midnightblue" stroke="midnightblue" points="1098.09,-157.64 1107.34,-152.48 1096.89,-150.75 1098.09,-157.64"/>
</g>
<!-- Node18&#45;&gt;Node14 -->
<g id="edge27" class="edge">
<title>Node18&#45;&gt;Node14</title>
<path fill="none" stroke="midnightblue" d="M792.34,-190.48C815.1,-180.45 853.09,-163.7 879.29,-152.15"/>
<polygon fill="midnightblue" stroke="midnightblue" points="880.95,-155.24 888.69,-148.01 878.13,-148.84 880.95,-155.24"/>
</g>
<!-- Node18&#45;&gt;Node15 -->
<g id="edge28" class="edge">
<title>Node18&#45;&gt;Node15</title>
<path fill="none" stroke="midnightblue" d="M762.68,-190.48C751.35,-181.11 732.93,-165.88 719.16,-154.51"/>
<polygon fill="midnightblue" stroke="midnightblue" points="721.23,-151.68 711.3,-148.01 716.78,-157.08 721.23,-151.68"/>
</g>
<!-- Node18&#45;&gt;Node16 -->
<g id="edge29" class="edge">
<title>Node18&#45;&gt;Node16</title>
<path fill="none" stroke="midnightblue" d="M770.56,-190.48C768.14,-181.99 764.34,-168.7 761.23,-157.82"/>
<polygon fill="midnightblue" stroke="midnightblue" points="764.54,-156.66 758.43,-148.01 757.81,-158.59 764.54,-156.66"/>
</g>
<!-- Node18&#45;&gt;Node17 -->
<g id="edge30" class="edge">
<title>Node18&#45;&gt;Node17</title>
<path fill="none" stroke="midnightblue" d="M779.45,-190.48C786.2,-181.55 796.97,-167.31 805.41,-156.14"/>
<polygon fill="midnightblue" stroke="midnightblue" points="808.32,-158.1 811.56,-148.01 802.74,-153.87 808.32,-158.1"/>
</g>
</g>
</svg>
