<?xml version="1.0" encoding="UTF-8" standalone="no"?>
<!DOCTYPE svg PUBLIC "-//W3C//DTD SVG 1.1//EN"
 "http://www.w3.org/Graphics/SVG/1.1/DTD/svg11.dtd">
<!-- Generated by graphviz version 2.43.0 (0)
 -->
<!-- Title: source/assemble_nitsche_with_exact_intersections.cc Pages: 1 -->
<svg width="1252pt" height="229pt"
 viewBox="0.00 0.00 1252.00 229.00" xmlns="http://www.w3.org/2000/svg" xmlns:xlink="http://www.w3.org/1999/xlink">
<g id="graph0" class="graph" transform="scale(1 1) rotate(0) translate(4 225)">
<title>source/assemble_nitsche_with_exact_intersections.cc</title>
<!-- Node1 -->
<g id="node1" class="node">
<title>Node1</title>
<g id="a_node1"><a xlink:title=" ">
<polygon fill="#bfbfbf" stroke="black" points="560,-190.5 560,-220.5 717,-220.5 717,-190.5 560,-190.5"/>
<text text-anchor="start" x="568" y="-208.5" font-family="Helvetica,sans-Serif" font-size="10.00">source/assemble_nitsche</text>
<text text-anchor="middle" x="638.5" y="-197.5" font-family="Helvetica,sans-Serif" font-size="10.00">_with_exact_intersections.cc</text>
</a>
</g>
</g>
<!-- Node2 -->
<g id="node2" class="node">
<title>Node2</title>
<g id="a_node2"><a xlink:href="http://www.dealii.org/developer/doxygen/deal.II/config_8h.html.html" xlink:title=" ">
<polygon fill="none" stroke="black" points="0,-129 0,-148 115,-148 115,-129 0,-129"/>
<text text-anchor="middle" x="57.5" y="-136" font-family="Helvetica,sans-Serif" font-size="10.00">deal.II/base/config.h</text>
</a>
</g>
</g>
<!-- Node1&#45;&gt;Node2 -->
<g id="edge1" class="edge">
<title>Node1&#45;&gt;Node2</title>
<path fill="none" stroke="midnightblue" d="M559.77,-199.59C458.61,-192.64 277.75,-178.03 124.5,-154 117.63,-152.92 110.4,-151.58 103.34,-150.15"/>
<polygon fill="midnightblue" stroke="midnightblue" points="103.68,-146.65 93.17,-148.02 102.24,-153.5 103.68,-146.65"/>
</g>
<!-- Node3 -->
<g id="node3" class="node">
<title>Node3</title>
<g id="a_node3"><a xlink:href="http://www.dealii.org/developer/doxygen/deal.II/function__lib_8h.html.html" xlink:title=" ">
<polygon fill="none" stroke="black" points="133.5,-123.5 133.5,-153.5 249.5,-153.5 249.5,-123.5 133.5,-123.5"/>
<text text-anchor="start" x="141.5" y="-141.5" font-family="Helvetica,sans-Serif" font-size="10.00">deal.II/base/function</text>
<text text-anchor="middle" x="191.5" y="-130.5" font-family="Helvetica,sans-Serif" font-size="10.00">_lib.h</text>
</a>
</g>
</g>
<!-- Node1&#45;&gt;Node3 -->
<g id="edge2" class="edge">
<title>Node1&#45;&gt;Node3</title>
<path fill="none" stroke="midnightblue" d="M559.98,-195.95C485.2,-187.37 369.29,-172.97 259.47,-154.09"/>
<polygon fill="midnightblue" stroke="midnightblue" points="260,-150.62 249.55,-152.36 258.8,-157.52 260,-150.62"/>
</g>
<!-- Node7 -->
<g id="node7" class="node">
<title>Node7</title>
<g id="a_node7"><a xlink:href="http://www.dealii.org/developer/doxygen/deal.II/include_2deal_8II_2base_2quadrature_8h.html.html" xlink:title=" ">
<polygon fill="none" stroke="black" points="267.5,-129 267.5,-148 405.5,-148 405.5,-129 267.5,-129"/>
<text text-anchor="middle" x="336.5" y="-136" font-family="Helvetica,sans-Serif" font-size="10.00">deal.II/base/quadrature.h</text>
</a>
</g>
</g>
<!-- Node1&#45;&gt;Node7 -->
<g id="edge6" class="edge">
<title>Node1&#45;&gt;Node7</title>
<path fill="none" stroke="midnightblue" d="M573.34,-190.48C517.1,-178.37 437.06,-161.14 385.95,-150.14"/>
<polygon fill="midnightblue" stroke="midnightblue" points="386.64,-146.71 376.13,-148.03 385.17,-153.55 386.64,-146.71"/>
</g>
<!-- Node8 -->
<g id="node8" class="node">
<title>Node8</title>
<g id="a_node8"><a xlink:href="http://www.dealii.org/developer/doxygen/deal.II/dof__handler_8h.html.html" xlink:title=" ">
<polygon fill="none" stroke="black" points="423.5,-129 423.5,-148 563.5,-148 563.5,-129 423.5,-129"/>
<text text-anchor="middle" x="493.5" y="-136" font-family="Helvetica,sans-Serif" font-size="10.00">deal.II/dofs/dof_handler.h</text>
</a>
</g>
</g>
<!-- Node1&#45;&gt;Node8 -->
<g id="edge7" class="edge">
<title>Node1&#45;&gt;Node8</title>
<path fill="none" stroke="midnightblue" d="M607.04,-190.4C581.6,-178.99 546.1,-163.08 521.6,-152.1"/>
<polygon fill="midnightblue" stroke="midnightblue" points="523.03,-148.9 512.48,-148.01 520.17,-155.29 523.03,-148.9"/>
</g>
<!-- Node9 -->
<g id="node9" class="node">
<title>Node9</title>
<g id="a_node9"><a xlink:href="http://www.dealii.org/developer/doxygen/deal.II/mapping_8h.html.html" xlink:title=" ">
<polygon fill="none" stroke="black" points="581.5,-129 581.5,-148 695.5,-148 695.5,-129 581.5,-129"/>
<text text-anchor="middle" x="638.5" y="-136" font-family="Helvetica,sans-Serif" font-size="10.00">deal.II/fe/mapping.h</text>
</a>
</g>
</g>
<!-- Node1&#45;&gt;Node9 -->
<g id="edge9" class="edge">
<title>Node1&#45;&gt;Node9</title>
<path fill="none" stroke="midnightblue" d="M638.5,-190.4C638.5,-181.06 638.5,-168.71 638.5,-158.52"/>
<polygon fill="midnightblue" stroke="midnightblue" points="642,-158.19 638.5,-148.19 635,-158.19 642,-158.19"/>
</g>
<!-- Node10 -->
<g id="node10" class="node">
<title>Node10</title>
<g id="a_node10"><a xlink:href="http://www.dealii.org/developer/doxygen/deal.II/mapping__q1_8h.html.html" xlink:title=" ">
<polygon fill="none" stroke="black" points="714,-129 714,-148 845,-148 845,-129 714,-129"/>
<text text-anchor="middle" x="779.5" y="-136" font-family="Helvetica,sans-Serif" font-size="10.00">deal.II/fe/mapping_q1.h</text>
</a>
</g>
</g>
<!-- Node1&#45;&gt;Node10 -->
<g id="edge10" class="edge">
<title>Node1&#45;&gt;Node10</title>
<path fill="none" stroke="midnightblue" d="M669.09,-190.4C693.73,-179.04 728.05,-163.22 751.86,-152.24"/>
<polygon fill="midnightblue" stroke="midnightblue" points="753.43,-155.37 761.05,-148.01 750.5,-149.02 753.43,-155.37"/>
</g>
<!-- Node11 -->
<g id="node11" class="node">
<title>Node11</title>
<g id="a_node11"><a xlink:href="http://www.dealii.org/developer/doxygen/deal.II/grid__tools_8h.html.html" xlink:title=" ">
<polygon fill="none" stroke="black" points="863.5,-129 863.5,-148 991.5,-148 991.5,-129 863.5,-129"/>
<text text-anchor="middle" x="927.5" y="-136" font-family="Helvetica,sans-Serif" font-size="10.00">deal.II/grid/grid_tools.h</text>
</a>
</g>
</g>
<!-- Node1&#45;&gt;Node11 -->
<g id="edge11" class="edge">
<title>Node1&#45;&gt;Node11</title>
<path fill="none" stroke="midnightblue" d="M700.85,-190.48C754.45,-178.42 830.64,-161.29 879.57,-150.28"/>
<polygon fill="midnightblue" stroke="midnightblue" points="880.59,-153.64 889.58,-148.03 879.06,-146.81 880.59,-153.64"/>
</g>
<!-- Node12 -->
<g id="node12" class="node">
<title>Node12</title>
<g id="a_node12"><a xlink:href="http://www.dealii.org/developer/doxygen/deal.II/grid__tools__cache_8h.html.html" xlink:title=" ">
<polygon fill="none" stroke="black" points="1010,-123.5 1010,-153.5 1129,-153.5 1129,-123.5 1010,-123.5"/>
<text text-anchor="start" x="1018" y="-141.5" font-family="Helvetica,sans-Serif" font-size="10.00">deal.II/grid/grid_tools</text>
<text text-anchor="middle" x="1069.5" y="-130.5" font-family="Helvetica,sans-Serif" font-size="10.00">_cache.h</text>
</a>
</g>
</g>
<!-- Node1&#45;&gt;Node12 -->
<g id="edge12" class="edge">
<title>Node1&#45;&gt;Node12</title>
<path fill="none" stroke="midnightblue" d="M717.13,-195.11C788.32,-186.24 896.29,-171.9 999.72,-154.06"/>
<polygon fill="midnightblue" stroke="midnightblue" points="1000.46,-157.49 1009.71,-152.33 999.26,-150.59 1000.46,-157.49"/>
</g>
<!-- Node13 -->
<g id="node13" class="node">
<title>Node13</title>
<g id="a_node13"><a xlink:href="http://www.dealii.org/developer/doxygen/deal.II/grid_2tria_8h.html.html" xlink:title=" ">
<polygon fill="none" stroke="black" points="1147,-129 1147,-148 1244,-148 1244,-129 1147,-129"/>
<text text-anchor="middle" x="1195.5" y="-136" font-family="Helvetica,sans-Serif" font-size="10.00">deal.II/grid/tria.h</text>
</a>
</g>
</g>
<!-- Node1&#45;&gt;Node13 -->
<g id="edge13" class="edge">
<title>Node1&#45;&gt;Node13</title>
<path fill="none" stroke="midnightblue" d="M717.37,-200.16C816.32,-193.89 990.94,-180.07 1138.5,-154 1144.03,-153.02 1149.82,-151.8 1155.49,-150.47"/>
<polygon fill="midnightblue" stroke="midnightblue" points="1156.63,-153.8 1165.51,-148.02 1154.96,-147 1156.63,-153.8"/>
</g>
<!-- Node4 -->
<g id="node4" class="node">
<title>Node4</title>
<g id="a_node4"><a xlink:href="function_8h.html" target="_top" xlink:title=" ">
<polygon fill="none" stroke="black" points="280,-67.5 280,-86.5 405,-86.5 405,-67.5 280,-67.5"/>
<text text-anchor="middle" x="342.5" y="-74.5" font-family="Helvetica,sans-Serif" font-size="10.00">deal.II/base/function.h</text>
</a>
</g>
</g>
<!-- Node3&#45;&gt;Node4 -->
<g id="edge3" class="edge">
<title>Node3&#45;&gt;Node4</title>
<path fill="none" stroke="midnightblue" d="M227.28,-123.4C252.73,-113.37 286.6,-100.03 311.02,-90.4"/>
<polygon fill="midnightblue" stroke="midnightblue" points="312.51,-93.58 320.53,-86.66 309.94,-87.07 312.51,-93.58"/>
</g>
<!-- Node5 -->
<g id="node5" class="node">
<title>Node5</title>
<g id="a_node5"><a xlink:href="http://www.dealii.org/developer/doxygen/deal.II/function__parser_8h.html.html" xlink:title=" ">
<polygon fill="none" stroke="black" points="214.5,-0.5 214.5,-30.5 330.5,-30.5 330.5,-0.5 214.5,-0.5"/>
<text text-anchor="start" x="222.5" y="-18.5" font-family="Helvetica,sans-Serif" font-size="10.00">deal.II/base/function</text>
<text text-anchor="middle" x="272.5" y="-7.5" font-family="Helvetica,sans-Serif" font-size="10.00">_parser.h</text>
</a>
</g>
</g>
<!-- Node4&#45;&gt;Node5 -->
<g id="edge4" class="edge">
<title>Node4&#45;&gt;Node5</title>
<path fill="none" stroke="midnightblue" d="M332.47,-67.48C323.17,-59.57 308.95,-47.48 296.7,-37.07"/>
<polygon fill="midnightblue" stroke="midnightblue" points="298.88,-34.33 289,-30.52 294.35,-39.67 298.88,-34.33"/>
</g>
<!-- Node6 -->
<g id="node6" class="node">
<title>Node6</title>
<g id="a_node6"><a xlink:href="http://www.dealii.org/developer/doxygen/deal.II/parameter__acceptor_8h.html.html" xlink:title=" ">
<polygon fill="none" stroke="black" points="349,-0.5 349,-30.5 476,-30.5 476,-0.5 349,-0.5"/>
<text text-anchor="start" x="357" y="-18.5" font-family="Helvetica,sans-Serif" font-size="10.00">deal.II/base/parameter</text>
<text text-anchor="middle" x="412.5" y="-7.5" font-family="Helvetica,sans-Serif" font-size="10.00">_acceptor.h</text>
</a>
</g>
</g>
<!-- Node4&#45;&gt;Node6 -->
<g id="edge5" class="edge">
<title>Node4&#45;&gt;Node6</title>
<path fill="none" stroke="midnightblue" d="M352.53,-67.48C361.83,-59.57 376.05,-47.48 388.3,-37.07"/>
<polygon fill="midnightblue" stroke="midnightblue" points="390.65,-39.67 396,-30.52 386.12,-34.33 390.65,-39.67"/>
</g>
<!-- Node8&#45;&gt;Node4 -->
<g id="edge8" class="edge">
<title>Node8&#45;&gt;Node4</title>
<path fill="none" stroke="midnightblue" d="M471.87,-128.98C446.08,-118.81 402.79,-101.76 373.46,-90.2"/>
<polygon fill="midnightblue" stroke="midnightblue" points="374.68,-86.92 364.09,-86.51 372.12,-93.43 374.68,-86.92"/>
</g>
</g>
</svg>
