<?xml version="1.0" encoding="UTF-8" standalone="no"?>
<!DOCTYPE svg PUBLIC "-//W3C//DTD SVG 1.1//EN"
 "http://www.w3.org/Graphics/SVG/1.1/DTD/svg11.dtd">
<!-- Generated by graphviz version 2.43.0 (0)
 -->
<!-- Title: include/assemble_coupling_mass_matrix_with_exact_intersections.h Pages: 1 -->
<svg width="1316pt" height="296pt"
 viewBox="0.00 0.00 1315.50 296.00" xmlns="http://www.w3.org/2000/svg" xmlns:xlink="http://www.w3.org/1999/xlink">
<g id="graph0" class="graph" transform="scale(1 1) rotate(0) translate(4 292)">
<title>include/assemble_coupling_mass_matrix_with_exact_intersections.h</title>
<!-- Node1 -->
<g id="node1" class="node">
<title>Node1</title>
<g id="a_node1"><a xlink:title=" ">
<polygon fill="#bfbfbf" stroke="black" points="644.5,-246.5 644.5,-287.5 793.5,-287.5 793.5,-246.5 644.5,-246.5"/>
<text text-anchor="start" x="652.5" y="-275.5" font-family="Helvetica,sans-Serif" font-size="10.00">include/assemble_coupling</text>
<text text-anchor="start" x="652.5" y="-264.5" font-family="Helvetica,sans-Serif" font-size="10.00">_mass_matrix_with_exact</text>
<text text-anchor="middle" x="719" y="-253.5" font-family="Helvetica,sans-Serif" font-size="10.00">_intersections.h</text>
</a>
</g>
</g>
<!-- Node2 -->
<g id="node2" class="node">
<title>Node2</title>
<g id="a_node2"><a xlink:href="http://www.dealii.org/developer/doxygen/deal.II/config_8h.html.html" xlink:title=" ">
<polygon fill="none" stroke="black" points="46.5,-129 46.5,-148 161.5,-148 161.5,-129 46.5,-129"/>
<text text-anchor="middle" x="104" y="-136" font-family="Helvetica,sans-Serif" font-size="10.00">deal.II/base/config.h</text>
</a>
</g>
</g>
<!-- Node1&#45;&gt;Node2 -->
<g id="edge1" class="edge">
<title>Node1&#45;&gt;Node2</title>
<path fill="none" stroke="midnightblue" d="M644.29,-251.82C586.33,-240.72 503.99,-224.75 432,-210 315.77,-186.19 286.98,-178.99 171,-154 165.26,-152.76 159.25,-151.46 153.27,-150.17"/>
<polygon fill="midnightblue" stroke="midnightblue" points="153.84,-146.72 143.32,-148.02 152.36,-153.56 153.84,-146.72"/>
</g>
<!-- Node3 -->
<g id="node3" class="node">
<title>Node3</title>
<g id="a_node3"><a xlink:href="http://www.dealii.org/developer/doxygen/deal.II/function__lib_8h.html.html" xlink:title=" ">
<polygon fill="none" stroke="black" points="180,-123.5 180,-153.5 296,-153.5 296,-123.5 180,-123.5"/>
<text text-anchor="start" x="188" y="-141.5" font-family="Helvetica,sans-Serif" font-size="10.00">deal.II/base/function</text>
<text text-anchor="middle" x="238" y="-130.5" font-family="Helvetica,sans-Serif" font-size="10.00">_lib.h</text>
</a>
</g>
</g>
<!-- Node1&#45;&gt;Node3 -->
<g id="edge2" class="edge">
<title>Node1&#45;&gt;Node3</title>
<path fill="none" stroke="midnightblue" d="M644.63,-246.44C550.43,-221.67 389.73,-179.4 301.18,-156.12"/>
<polygon fill="midnightblue" stroke="midnightblue" points="301.83,-152.67 291.27,-153.51 300.05,-159.44 301.83,-152.67"/>
</g>
<!-- Node7 -->
<g id="node7" class="node">
<title>Node7</title>
<g id="a_node7"><a xlink:href="http://www.dealii.org/developer/doxygen/deal.II/include_2deal_8II_2base_2quadrature_8h.html.html" xlink:title=" ">
<polygon fill="none" stroke="black" points="314,-129 314,-148 452,-148 452,-129 314,-129"/>
<text text-anchor="middle" x="383" y="-136" font-family="Helvetica,sans-Serif" font-size="10.00">deal.II/base/quadrature.h</text>
</a>
</g>
</g>
<!-- Node1&#45;&gt;Node7 -->
<g id="edge6" class="edge">
<title>Node1&#45;&gt;Node7</title>
<path fill="none" stroke="midnightblue" d="M666.87,-246.37C596.47,-219.87 473.16,-173.44 415.03,-151.56"/>
<polygon fill="midnightblue" stroke="midnightblue" points="416.21,-148.27 405.62,-148.02 413.75,-154.82 416.21,-148.27"/>
</g>
<!-- Node8 -->
<g id="node8" class="node">
<title>Node8</title>
<g id="a_node8"><a xlink:href="http://www.dealii.org/developer/doxygen/deal.II/dof__handler_8h.html.html" xlink:title=" ">
<polygon fill="none" stroke="black" points="18,-190.5 18,-209.5 158,-209.5 158,-190.5 18,-190.5"/>
<text text-anchor="middle" x="88" y="-197.5" font-family="Helvetica,sans-Serif" font-size="10.00">deal.II/dofs/dof_handler.h</text>
</a>
</g>
</g>
<!-- Node1&#45;&gt;Node8 -->
<g id="edge7" class="edge">
<title>Node1&#45;&gt;Node8</title>
<path fill="none" stroke="midnightblue" d="M644.45,-258.32C524.86,-246 291.15,-221.93 168.12,-209.25"/>
<polygon fill="midnightblue" stroke="midnightblue" points="168.32,-205.76 158.01,-208.21 167.6,-212.72 168.32,-205.76"/>
</g>
<!-- Node9 -->
<g id="node9" class="node">
<title>Node9</title>
<g id="a_node9"><a xlink:href="http://www.dealii.org/developer/doxygen/deal.II/mapping_8h.html.html" xlink:title=" ">
<polygon fill="none" stroke="black" points="470,-129 470,-148 584,-148 584,-129 470,-129"/>
<text text-anchor="middle" x="527" y="-136" font-family="Helvetica,sans-Serif" font-size="10.00">deal.II/fe/mapping.h</text>
</a>
</g>
</g>
<!-- Node1&#45;&gt;Node9 -->
<g id="edge9" class="edge">
<title>Node1&#45;&gt;Node9</title>
<path fill="none" stroke="midnightblue" d="M689,-246.23C650.08,-220.59 583.11,-176.47 548.74,-153.82"/>
<polygon fill="midnightblue" stroke="midnightblue" points="550.62,-150.87 540.35,-148.29 546.77,-156.72 550.62,-150.87"/>
</g>
<!-- Node10 -->
<g id="node10" class="node">
<title>Node10</title>
<g id="a_node10"><a xlink:href="http://www.dealii.org/developer/doxygen/deal.II/mapping__q1_8h.html.html" xlink:title=" ">
<polygon fill="none" stroke="black" points="602.5,-129 602.5,-148 733.5,-148 733.5,-129 602.5,-129"/>
<text text-anchor="middle" x="668" y="-136" font-family="Helvetica,sans-Serif" font-size="10.00">deal.II/fe/mapping_q1.h</text>
</a>
</g>
</g>
<!-- Node1&#45;&gt;Node10 -->
<g id="edge10" class="edge">
<title>Node1&#45;&gt;Node10</title>
<path fill="none" stroke="midnightblue" d="M711.03,-246.23C701.26,-222.01 684.85,-181.29 675.37,-157.77"/>
<polygon fill="midnightblue" stroke="midnightblue" points="678.53,-156.26 671.55,-148.29 672.04,-158.88 678.53,-156.26"/>
</g>
<!-- Node11 -->
<g id="node11" class="node">
<title>Node11</title>
<g id="a_node11"><a xlink:href="http://www.dealii.org/developer/doxygen/deal.II/grid__tools_8h.html.html" xlink:title=" ">
<polygon fill="none" stroke="black" points="752,-129 752,-148 880,-148 880,-129 752,-129"/>
<text text-anchor="middle" x="816" y="-136" font-family="Helvetica,sans-Serif" font-size="10.00">deal.II/grid/grid_tools.h</text>
</a>
</g>
</g>
<!-- Node1&#45;&gt;Node11 -->
<g id="edge11" class="edge">
<title>Node1&#45;&gt;Node11</title>
<path fill="none" stroke="midnightblue" d="M719.97,-246.24C721.65,-229.84 726.14,-206.6 738,-190 749.84,-173.43 768.97,-160.93 785.32,-152.5"/>
<polygon fill="midnightblue" stroke="midnightblue" points="787.08,-155.54 794.55,-148.02 784.02,-149.24 787.08,-155.54"/>
</g>
<!-- Node12 -->
<g id="node12" class="node">
<title>Node12</title>
<g id="a_node12"><a xlink:href="http://www.dealii.org/developer/doxygen/deal.II/grid__tools__cache_8h.html.html" xlink:title=" ">
<polygon fill="none" stroke="black" points="898.5,-123.5 898.5,-153.5 1017.5,-153.5 1017.5,-123.5 898.5,-123.5"/>
<text text-anchor="start" x="906.5" y="-141.5" font-family="Helvetica,sans-Serif" font-size="10.00">deal.II/grid/grid_tools</text>
<text text-anchor="middle" x="958" y="-130.5" font-family="Helvetica,sans-Serif" font-size="10.00">_cache.h</text>
</a>
</g>
</g>
<!-- Node1&#45;&gt;Node12 -->
<g id="edge12" class="edge">
<title>Node1&#45;&gt;Node12</title>
<path fill="none" stroke="midnightblue" d="M793.8,-250.95C826,-242.25 863.05,-229.14 893,-210 912.77,-197.37 930.47,-177.28 942.38,-161.78"/>
<polygon fill="midnightblue" stroke="midnightblue" points="945.23,-163.82 948.39,-153.71 939.61,-159.64 945.23,-163.82"/>
</g>
<!-- Node13 -->
<g id="node13" class="node">
<title>Node13</title>
<g id="a_node13"><a xlink:href="http://www.dealii.org/developer/doxygen/deal.II/grid_2tria_8h.html.html" xlink:title=" ">
<polygon fill="none" stroke="black" points="1035.5,-129 1035.5,-148 1132.5,-148 1132.5,-129 1035.5,-129"/>
<text text-anchor="middle" x="1084" y="-136" font-family="Helvetica,sans-Serif" font-size="10.00">deal.II/grid/tria.h</text>
</a>
</g>
</g>
<!-- Node1&#45;&gt;Node13 -->
<g id="edge13" class="edge">
<title>Node1&#45;&gt;Node13</title>
<path fill="none" stroke="midnightblue" d="M793.72,-247.74C831.89,-237.77 878.83,-224.51 920,-210 969.27,-192.63 1024.76,-167.57 1056.92,-152.48"/>
<polygon fill="midnightblue" stroke="midnightblue" points="1058.57,-155.57 1066.11,-148.13 1055.58,-149.24 1058.57,-155.57"/>
</g>
<!-- Node14 -->
<g id="node14" class="node">
<title>Node14</title>
<g id="a_node14"><a xlink:title=" ">
<polygon fill="none" stroke="#bfbfbf" points="1151,-129 1151,-148 1183,-148 1183,-129 1151,-129"/>
<text text-anchor="middle" x="1167" y="-136" font-family="Helvetica,sans-Serif" font-size="10.00">set</text>
</a>
</g>
</g>
<!-- Node1&#45;&gt;Node14 -->
<g id="edge14" class="edge">
<title>Node1&#45;&gt;Node14</title>
<path fill="none" stroke="midnightblue" d="M793.58,-253.01C879.64,-236.49 1024.28,-203.96 1141,-154 1142,-153.57 1143.01,-153.12 1144.02,-152.64"/>
<polygon fill="midnightblue" stroke="midnightblue" points="1145.68,-155.72 1152.97,-148.03 1142.47,-149.5 1145.68,-155.72"/>
</g>
<!-- Node15 -->
<g id="node15" class="node">
<title>Node15</title>
<g id="a_node15"><a xlink:title=" ">
<polygon fill="none" stroke="#bfbfbf" points="1201.5,-129 1201.5,-148 1242.5,-148 1242.5,-129 1201.5,-129"/>
<text text-anchor="middle" x="1222" y="-136" font-family="Helvetica,sans-Serif" font-size="10.00">tuple</text>
</a>
</g>
</g>
<!-- Node1&#45;&gt;Node15 -->
<g id="edge15" class="edge">
<title>Node1&#45;&gt;Node15</title>
<path fill="none" stroke="midnightblue" d="M793.79,-255.46C856.36,-245.91 947.71,-230.23 1026,-210 1101.39,-190.52 1119.92,-183.44 1192,-154 1193.37,-153.44 1194.77,-152.85 1196.18,-152.23"/>
<polygon fill="midnightblue" stroke="midnightblue" points="1197.73,-155.37 1205.35,-148 1194.8,-149.01 1197.73,-155.37"/>
</g>
<!-- Node16 -->
<g id="node16" class="node">
<title>Node16</title>
<g id="a_node16"><a xlink:title=" ">
<polygon fill="none" stroke="#bfbfbf" points="1260.5,-129 1260.5,-148 1307.5,-148 1307.5,-129 1260.5,-129"/>
<text text-anchor="middle" x="1284" y="-136" font-family="Helvetica,sans-Serif" font-size="10.00">vector</text>
</a>
</g>
</g>
<!-- Node1&#45;&gt;Node16 -->
<g id="edge16" class="edge">
<title>Node1&#45;&gt;Node16</title>
<path fill="none" stroke="midnightblue" d="M793.83,-257.63C866.51,-248.72 979.68,-232.74 1076,-210 1155.89,-191.14 1175.37,-183.43 1252,-154 1253.6,-153.38 1255.24,-152.73 1256.89,-152.05"/>
<polygon fill="midnightblue" stroke="midnightblue" points="1258.43,-155.19 1266.22,-148 1255.65,-148.77 1258.43,-155.19"/>
</g>
<!-- Node17 -->
<g id="node17" class="node">
<title>Node17</title>
<g id="a_node17"><a xlink:href="compute__intersections_8h.html" target="_top" xlink:title=" ">
<polygon fill="none" stroke="black" points="747.5,-190.5 747.5,-209.5 884.5,-209.5 884.5,-190.5 747.5,-190.5"/>
<text text-anchor="middle" x="816" y="-197.5" font-family="Helvetica,sans-Serif" font-size="10.00">compute_intersections.h</text>
</a>
</g>
</g>
<!-- Node1&#45;&gt;Node17 -->
<g id="edge17" class="edge">
<title>Node1&#45;&gt;Node17</title>
<path fill="none" stroke="midnightblue" d="M748.1,-246.5C762.98,-236.53 780.76,-224.61 794.4,-215.48"/>
<polygon fill="midnightblue" stroke="midnightblue" points="796.73,-218.13 803.09,-209.65 792.83,-212.31 796.73,-218.13"/>
</g>
<!-- Node4 -->
<g id="node4" class="node">
<title>Node4</title>
<g id="a_node4"><a xlink:href="function_8h.html" target="_top" xlink:title=" ">
<polygon fill="none" stroke="black" points="65.5,-67.5 65.5,-86.5 190.5,-86.5 190.5,-67.5 65.5,-67.5"/>
<text text-anchor="middle" x="128" y="-74.5" font-family="Helvetica,sans-Serif" font-size="10.00">deal.II/base/function.h</text>
</a>
</g>
</g>
<!-- Node3&#45;&gt;Node4 -->
<g id="edge3" class="edge">
<title>Node3&#45;&gt;Node4</title>
<path fill="none" stroke="midnightblue" d="M211.93,-123.4C194.13,-113.77 170.69,-101.09 153.1,-91.58"/>
<polygon fill="midnightblue" stroke="midnightblue" points="154.47,-88.34 144.01,-86.66 151.14,-94.49 154.47,-88.34"/>
</g>
<!-- Node5 -->
<g id="node5" class="node">
<title>Node5</title>
<g id="a_node5"><a xlink:href="http://www.dealii.org/developer/doxygen/deal.II/function__parser_8h.html.html" xlink:title=" ">
<polygon fill="none" stroke="black" points="0,-0.5 0,-30.5 116,-30.5 116,-0.5 0,-0.5"/>
<text text-anchor="start" x="8" y="-18.5" font-family="Helvetica,sans-Serif" font-size="10.00">deal.II/base/function</text>
<text text-anchor="middle" x="58" y="-7.5" font-family="Helvetica,sans-Serif" font-size="10.00">_parser.h</text>
</a>
</g>
</g>
<!-- Node4&#45;&gt;Node5 -->
<g id="edge4" class="edge">
<title>Node4&#45;&gt;Node5</title>
<path fill="none" stroke="midnightblue" d="M117.97,-67.48C108.67,-59.57 94.45,-47.48 82.2,-37.07"/>
<polygon fill="midnightblue" stroke="midnightblue" points="84.38,-34.33 74.5,-30.52 79.85,-39.67 84.38,-34.33"/>
</g>
<!-- Node6 -->
<g id="node6" class="node">
<title>Node6</title>
<g id="a_node6"><a xlink:href="http://www.dealii.org/developer/doxygen/deal.II/parameter__acceptor_8h.html.html" xlink:title=" ">
<polygon fill="none" stroke="black" points="134.5,-0.5 134.5,-30.5 261.5,-30.5 261.5,-0.5 134.5,-0.5"/>
<text text-anchor="start" x="142.5" y="-18.5" font-family="Helvetica,sans-Serif" font-size="10.00">deal.II/base/parameter</text>
<text text-anchor="middle" x="198" y="-7.5" font-family="Helvetica,sans-Serif" font-size="10.00">_acceptor.h</text>
</a>
</g>
</g>
<!-- Node4&#45;&gt;Node6 -->
<g id="edge5" class="edge">
<title>Node4&#45;&gt;Node6</title>
<path fill="none" stroke="midnightblue" d="M138.03,-67.48C147.33,-59.57 161.55,-47.48 173.8,-37.07"/>
<polygon fill="midnightblue" stroke="midnightblue" points="176.15,-39.67 181.5,-30.52 171.62,-34.33 176.15,-39.67"/>
</g>
<!-- Node8&#45;&gt;Node4 -->
<g id="edge8" class="edge">
<title>Node8&#45;&gt;Node4</title>
<path fill="none" stroke="midnightblue" d="M72.27,-190.24C60.11,-182.48 44.19,-169.93 37,-154 31.33,-141.44 29.73,-134.7 37,-123 46.72,-107.36 63.66,-96.98 80.32,-90.19"/>
<polygon fill="midnightblue" stroke="midnightblue" points="81.87,-93.35 90.03,-86.59 79.44,-86.78 81.87,-93.35"/>
</g>
<!-- Node17&#45;&gt;Node2 -->
<g id="edge18" class="edge">
<title>Node17&#45;&gt;Node2</title>
<path fill="none" stroke="midnightblue" d="M747.4,-197.44C629.18,-194.04 379.65,-183.7 171,-154 163.79,-152.97 156.2,-151.61 148.82,-150.13"/>
<polygon fill="midnightblue" stroke="midnightblue" points="149.46,-146.68 138.95,-148.06 148.02,-153.54 149.46,-146.68"/>
</g>
<!-- Node17&#45;&gt;Node3 -->
<g id="edge19" class="edge">
<title>Node17&#45;&gt;Node3</title>
<path fill="none" stroke="midnightblue" d="M747.49,-195.7C651.14,-190.45 470.01,-178.37 306.28,-154.07"/>
<polygon fill="midnightblue" stroke="midnightblue" points="306.43,-150.55 296.02,-152.52 305.39,-157.47 306.43,-150.55"/>
</g>
<!-- Node17&#45;&gt;Node7 -->
<g id="edge20" class="edge">
<title>Node17&#45;&gt;Node7</title>
<path fill="none" stroke="midnightblue" d="M747.45,-191.5C675.83,-183.38 560.28,-169.51 461,-154 453.07,-152.76 444.7,-151.33 436.51,-149.87"/>
<polygon fill="midnightblue" stroke="midnightblue" points="437.12,-146.42 426.65,-148.07 435.86,-153.31 437.12,-146.42"/>
</g>
<!-- Node17&#45;&gt;Node9 -->
<g id="edge21" class="edge">
<title>Node17&#45;&gt;Node9</title>
<path fill="none" stroke="midnightblue" d="M772.37,-190.43C727.38,-181.53 655.22,-167.11 593,-154 587.26,-152.79 581.25,-151.5 575.29,-150.21"/>
<polygon fill="midnightblue" stroke="midnightblue" points="575.88,-146.76 565.37,-148.05 574.39,-153.6 575.88,-146.76"/>
</g>
<!-- Node17&#45;&gt;Node10 -->
<g id="edge22" class="edge">
<title>Node17&#45;&gt;Node10</title>
<path fill="none" stroke="midnightblue" d="M794.8,-190.48C769.63,-180.36 727.46,-163.4 698.72,-151.85"/>
<polygon fill="midnightblue" stroke="midnightblue" points="699.75,-148.49 689.17,-148.01 697.14,-154.99 699.75,-148.49"/>
</g>
<!-- Node17&#45;&gt;Node11 -->
<g id="edge23" class="edge">
<title>Node17&#45;&gt;Node11</title>
<path fill="none" stroke="midnightblue" d="M816,-190.48C816,-182.08 816,-168.98 816,-158.16"/>
<polygon fill="midnightblue" stroke="midnightblue" points="819.5,-158.01 816,-148.01 812.5,-158.01 819.5,-158.01"/>
</g>
<!-- Node17&#45;&gt;Node12 -->
<g id="edge24" class="edge">
<title>Node17&#45;&gt;Node12</title>
<path fill="none" stroke="midnightblue" d="M836.35,-190.48C856.84,-181.89 889.07,-168.38 915.21,-157.43"/>
<polygon fill="midnightblue" stroke="midnightblue" points="916.66,-160.62 924.53,-153.52 913.96,-154.16 916.66,-160.62"/>
</g>
<!-- Node17&#45;&gt;Node13 -->
<g id="edge25" class="edge">
<title>Node17&#45;&gt;Node13</title>
<path fill="none" stroke="midnightblue" d="M857.93,-190.45C900.38,-181.69 967.89,-167.49 1026,-154 1030.74,-152.9 1035.69,-151.72 1040.62,-150.52"/>
<polygon fill="midnightblue" stroke="midnightblue" points="1041.74,-153.84 1050.62,-148.05 1040.07,-147.05 1041.74,-153.84"/>
</g>
<!-- Node17&#45;&gt;Node14 -->
<g id="edge26" class="edge">
<title>Node17&#45;&gt;Node14</title>
<path fill="none" stroke="midnightblue" d="M884.58,-196.85C951.53,-193.06 1055.52,-182.63 1141,-154 1142.24,-153.58 1143.49,-153.11 1144.73,-152.59"/>
<polygon fill="midnightblue" stroke="midnightblue" points="1146.54,-155.6 1153.94,-148.02 1143.43,-149.33 1146.54,-155.6"/>
</g>
<!-- Node17&#45;&gt;Node15 -->
<g id="edge27" class="edge">
<title>Node17&#45;&gt;Node15</title>
<path fill="none" stroke="midnightblue" d="M884.59,-197.56C961.02,-194.41 1087.57,-184.56 1192,-154 1193.87,-153.45 1195.77,-152.8 1197.66,-152.07"/>
<polygon fill="midnightblue" stroke="midnightblue" points="1199.08,-155.27 1206.82,-148.04 1196.26,-148.87 1199.08,-155.27"/>
</g>
<!-- Node17&#45;&gt;Node16 -->
<g id="edge28" class="edge">
<title>Node17&#45;&gt;Node16</title>
<path fill="none" stroke="midnightblue" d="M884.83,-198.69C971.82,-196.76 1125.47,-188.22 1252,-154 1254.15,-153.42 1256.34,-152.71 1258.52,-151.91"/>
<polygon fill="midnightblue" stroke="midnightblue" points="1259.87,-155.14 1267.77,-148.08 1257.19,-148.67 1259.87,-155.14"/>
</g>
</g>
</svg>
