<?xml version="1.0" encoding="UTF-8" standalone="no"?>
<!DOCTYPE svg PUBLIC "-//W3C//DTD SVG 1.1//EN"
 "http://www.w3.org/Graphics/SVG/1.1/DTD/svg11.dtd">
<!-- Generated by graphviz version 2.43.0 (0)
 -->
<!-- Title: include/parsed_tools/boundary_conditions.h Pages: 1 -->
<svg width="1901pt" height="307pt"
 viewBox="0.00 0.00 1900.50 307.00" xmlns="http://www.w3.org/2000/svg" xmlns:xlink="http://www.w3.org/1999/xlink">
<g id="graph0" class="graph" transform="scale(1 1) rotate(0) translate(4 303)">
<title>include/parsed_tools/boundary_conditions.h</title>
<!-- Node1 -->
<g id="node1" class="node">
<title>Node1</title>
<g id="a_node1"><a xlink:title=" ">
<polygon fill="#bfbfbf" stroke="black" points="940.5,-268.5 940.5,-298.5 1070.5,-298.5 1070.5,-268.5 940.5,-268.5"/>
<text text-anchor="start" x="948.5" y="-286.5" font-family="Helvetica,sans-Serif" font-size="10.00">include/parsed_tools</text>
<text text-anchor="middle" x="1005.5" y="-275.5" font-family="Helvetica,sans-Serif" font-size="10.00">/boundary_conditions.h</text>
</a>
</g>
</g>
<!-- Node2 -->
<g id="node2" class="node">
<title>Node2</title>
<g id="a_node2"><a target="_parent" xlink:href="http://www.dealii.org/developer/doxygen/deal.II/parameter__acceptor_8h.html.html" xlink:title=" ">
<polygon fill="none" stroke="black" points="0,-0.5 0,-30.5 127,-30.5 127,-0.5 0,-0.5"/>
<text text-anchor="start" x="8" y="-18.5" font-family="Helvetica,sans-Serif" font-size="10.00">deal.II/base/parameter</text>
<text text-anchor="middle" x="63.5" y="-7.5" font-family="Helvetica,sans-Serif" font-size="10.00">_acceptor.h</text>
</a>
</g>
</g>
<!-- Node1&#45;&gt;Node2 -->
<g id="edge1" class="edge">
<title>Node1&#45;&gt;Node2</title>
<path fill="none" stroke="midnightblue" d="M940.43,-281.59C726.26,-278.27 55.1,-265.26 23.5,-232 -27.27,-178.55 21.7,-82.59 48.54,-39.07"/>
<polygon fill="midnightblue" stroke="midnightblue" points="51.5,-40.93 53.88,-30.61 45.58,-37.19 51.5,-40.93"/>
</g>
<!-- Node3 -->
<g id="node3" class="node">
<title>Node3</title>
<g id="a_node3"><a target="_parent" xlink:href="http://www.dealii.org/developer/doxygen/deal.II/symbolic__function_8h.html.html" xlink:title=" ">
<polygon fill="none" stroke="black" points="68.5,-134.5 68.5,-164.5 188.5,-164.5 188.5,-134.5 68.5,-134.5"/>
<text text-anchor="start" x="76.5" y="-152.5" font-family="Helvetica,sans-Serif" font-size="10.00">deal.II/base/symbolic</text>
<text text-anchor="middle" x="128.5" y="-141.5" font-family="Helvetica,sans-Serif" font-size="10.00">_function.h</text>
</a>
</g>
</g>
<!-- Node1&#45;&gt;Node3 -->
<g id="edge2" class="edge">
<title>Node1&#45;&gt;Node3</title>
<path fill="none" stroke="midnightblue" d="M940.24,-280.65C764.31,-275.34 289.02,-258.68 223.5,-232 215.06,-228.56 176.85,-194.6 151.54,-171.62"/>
<polygon fill="midnightblue" stroke="midnightblue" points="153.58,-168.74 143.83,-164.59 148.86,-173.91 153.58,-168.74"/>
</g>
<!-- Node6 -->
<g id="node6" class="node">
<title>Node6</title>
<g id="a_node6"><a target="_parent" xlink:href="http://www.dealii.org/developer/doxygen/deal.II/dof__handler_8h.html.html" xlink:title=" ">
<polygon fill="none" stroke="black" points="32.5,-207 32.5,-226 172.5,-226 172.5,-207 32.5,-207"/>
<text text-anchor="middle" x="102.5" y="-214" font-family="Helvetica,sans-Serif" font-size="10.00">deal.II/dofs/dof_handler.h</text>
</a>
</g>
</g>
<!-- Node1&#45;&gt;Node6 -->
<g id="edge6" class="edge">
<title>Node1&#45;&gt;Node6</title>
<path fill="none" stroke="midnightblue" d="M940.25,-280.75C801.62,-276.53 467.67,-263.7 189.5,-232 179.46,-230.86 168.81,-229.34 158.54,-227.71"/>
<polygon fill="midnightblue" stroke="midnightblue" points="158.86,-224.22 148.43,-226.07 157.74,-231.13 158.86,-224.22"/>
</g>
<!-- Node7 -->
<g id="node7" class="node">
<title>Node7</title>
<g id="a_node7"><a target="_parent" xlink:href="http://www.dealii.org/developer/doxygen/deal.II/mapping_8h.html.html" xlink:title=" ">
<polygon fill="none" stroke="black" points="1237.5,-207 1237.5,-226 1351.5,-226 1351.5,-207 1237.5,-207"/>
<text text-anchor="middle" x="1294.5" y="-214" font-family="Helvetica,sans-Serif" font-size="10.00">deal.II/fe/mapping.h</text>
</a>
</g>
</g>
<!-- Node1&#45;&gt;Node7 -->
<g id="edge8" class="edge">
<title>Node1&#45;&gt;Node7</title>
<path fill="none" stroke="midnightblue" d="M1067.85,-268.48C1121.45,-256.42 1197.64,-239.29 1246.57,-228.28"/>
<polygon fill="midnightblue" stroke="midnightblue" points="1247.59,-231.64 1256.58,-226.03 1246.06,-224.81 1247.59,-231.64"/>
</g>
<!-- Node8 -->
<g id="node8" class="node">
<title>Node8</title>
<g id="a_node8"><a target="_parent" xlink:href="http://www.dealii.org/developer/doxygen/deal.II/affine__constraints_8h.html.html" xlink:title=" ">
<polygon fill="none" stroke="black" points="1370,-201.5 1370,-231.5 1465,-231.5 1465,-201.5 1370,-201.5"/>
<text text-anchor="start" x="1378" y="-219.5" font-family="Helvetica,sans-Serif" font-size="10.00">deal.II/lac/affine</text>
<text text-anchor="middle" x="1417.5" y="-208.5" font-family="Helvetica,sans-Serif" font-size="10.00">_constraints.h</text>
</a>
</g>
</g>
<!-- Node1&#45;&gt;Node8 -->
<g id="edge9" class="edge">
<title>Node1&#45;&gt;Node8</title>
<path fill="none" stroke="midnightblue" d="M1070.63,-275.37C1139.94,-267.3 1252.94,-252.78 1359.71,-232.02"/>
<polygon fill="midnightblue" stroke="midnightblue" points="1360.55,-235.42 1369.69,-230.06 1359.2,-228.55 1360.55,-235.42"/>
</g>
<!-- Node9 -->
<g id="node9" class="node">
<title>Node9</title>
<g id="a_node9"><a target="_parent" xlink:href="http://www.dealii.org/developer/doxygen/deal.II/vector__tools_8h.html.html" xlink:title=" ">
<polygon fill="none" stroke="black" points="1483.5,-201.5 1483.5,-231.5 1611.5,-231.5 1611.5,-201.5 1483.5,-201.5"/>
<text text-anchor="start" x="1491.5" y="-219.5" font-family="Helvetica,sans-Serif" font-size="10.00">deal.II/numerics/vector</text>
<text text-anchor="middle" x="1547.5" y="-208.5" font-family="Helvetica,sans-Serif" font-size="10.00">_tools.h</text>
</a>
</g>
</g>
<!-- Node1&#45;&gt;Node9 -->
<g id="edge10" class="edge">
<title>Node1&#45;&gt;Node9</title>
<path fill="none" stroke="midnightblue" d="M1070.6,-277.33C1159.34,-269.87 1323.43,-254.64 1473.16,-232.12"/>
<polygon fill="midnightblue" stroke="midnightblue" points="1474.1,-235.52 1483.46,-230.55 1473.05,-228.6 1474.1,-235.52"/>
</g>
<!-- Node10 -->
<g id="node10" class="node">
<title>Node10</title>
<g id="a_node10"><a xlink:href="components_8h.html" target="_top" xlink:title=" ">
<polygon fill="none" stroke="black" points="878,-207 878,-226 1029,-226 1029,-207 878,-207"/>
<text text-anchor="middle" x="953.5" y="-214" font-family="Helvetica,sans-Serif" font-size="10.00">parsed_tools/components.h</text>
</a>
</g>
</g>
<!-- Node1&#45;&gt;Node10 -->
<g id="edge11" class="edge">
<title>Node1&#45;&gt;Node10</title>
<path fill="none" stroke="midnightblue" d="M994.22,-268.4C986.19,-258.36 975.37,-244.84 966.9,-234.25"/>
<polygon fill="midnightblue" stroke="midnightblue" points="969.44,-231.82 960.46,-226.19 963.97,-236.19 969.44,-231.82"/>
</g>
<!-- Node21 -->
<g id="node21" class="node">
<title>Node21</title>
<g id="a_node21"><a xlink:href="enum_8h.html" target="_top" xlink:title=" ">
<polygon fill="none" stroke="black" points="1484,-140 1484,-159 1603,-159 1603,-140 1484,-140"/>
<text text-anchor="middle" x="1543.5" y="-147" font-family="Helvetica,sans-Serif" font-size="10.00">parsed_tools/enum.h</text>
</a>
</g>
</g>
<!-- Node1&#45;&gt;Node21 -->
<g id="edge26" class="edge">
<title>Node1&#45;&gt;Node21</title>
<path fill="none" stroke="midnightblue" d="M1013.16,-268.32C1024.3,-249.28 1046.92,-216.1 1076.5,-201 1155.79,-160.52 1387.47,-178.31 1475.5,-165 1482.64,-163.92 1490.15,-162.55 1497.48,-161.09"/>
<polygon fill="midnightblue" stroke="midnightblue" points="1498.22,-164.52 1507.3,-159.06 1496.8,-157.66 1498.22,-164.52"/>
</g>
<!-- Node25 -->
<g id="node25" class="node">
<title>Node25</title>
<g id="a_node25"><a xlink:href="grid__info_8h.html" target="_top" xlink:title=" ">
<polygon fill="none" stroke="black" points="1085.5,-207 1085.5,-226 1219.5,-226 1219.5,-207 1085.5,-207"/>
<text text-anchor="middle" x="1152.5" y="-214" font-family="Helvetica,sans-Serif" font-size="10.00">parsed_tools/grid_info.h</text>
</a>
</g>
</g>
<!-- Node1&#45;&gt;Node25 -->
<g id="edge27" class="edge">
<title>Node1&#45;&gt;Node25</title>
<path fill="none" stroke="midnightblue" d="M1037.4,-268.4C1063.19,-256.99 1099.17,-241.08 1124.01,-230.1"/>
<polygon fill="midnightblue" stroke="midnightblue" points="1125.53,-233.25 1133.26,-226.01 1122.7,-226.85 1125.53,-233.25"/>
</g>
<!-- Node27 -->
<g id="node27" class="node">
<title>Node27</title>
<g id="a_node27"><a xlink:href="symbolic__function_8h.html" target="_top" xlink:title=" ">
<polygon fill="none" stroke="black" points="232.5,-201.5 232.5,-231.5 358.5,-231.5 358.5,-201.5 232.5,-201.5"/>
<text text-anchor="start" x="240.5" y="-219.5" font-family="Helvetica,sans-Serif" font-size="10.00">parsed_tools/symbolic</text>
<text text-anchor="middle" x="295.5" y="-208.5" font-family="Helvetica,sans-Serif" font-size="10.00">_function.h</text>
</a>
</g>
</g>
<!-- Node1&#45;&gt;Node27 -->
<g id="edge31" class="edge">
<title>Node1&#45;&gt;Node27</title>
<path fill="none" stroke="midnightblue" d="M940.29,-276.53C807.77,-264.4 507.79,-236.93 368.77,-224.21"/>
<polygon fill="midnightblue" stroke="midnightblue" points="368.91,-220.71 358.64,-223.28 368.28,-227.68 368.91,-220.71"/>
</g>
<!-- Node4 -->
<g id="node4" class="node">
<title>Node4</title>
<g id="a_node4"><a xlink:href="function_8h.html" target="_top" xlink:title=" ">
<polygon fill="none" stroke="black" points="47,-73 47,-92 172,-92 172,-73 47,-73"/>
<text text-anchor="middle" x="109.5" y="-80" font-family="Helvetica,sans-Serif" font-size="10.00">deal.II/base/function.h</text>
</a>
</g>
</g>
<!-- Node3&#45;&gt;Node4 -->
<g id="edge3" class="edge">
<title>Node3&#45;&gt;Node4</title>
<path fill="none" stroke="midnightblue" d="M124.38,-134.4C121.59,-124.86 117.88,-112.18 114.87,-101.86"/>
<polygon fill="midnightblue" stroke="midnightblue" points="118.21,-100.81 112.04,-92.19 111.49,-102.77 118.21,-100.81"/>
</g>
<!-- Node4&#45;&gt;Node2 -->
<g id="edge5" class="edge">
<title>Node4&#45;&gt;Node2</title>
<path fill="none" stroke="midnightblue" d="M103.3,-72.73C97.2,-64.12 87.64,-50.61 79.42,-38.99"/>
<polygon fill="midnightblue" stroke="midnightblue" points="82.1,-36.73 73.47,-30.59 76.39,-40.77 82.1,-36.73"/>
</g>
<!-- Node5 -->
<g id="node5" class="node">
<title>Node5</title>
<g id="a_node5"><a target="_parent" xlink:href="http://www.dealii.org/developer/doxygen/deal.II/function__parser_8h.html.html" xlink:title=" ">
<polygon fill="none" stroke="black" points="145.5,-0.5 145.5,-30.5 261.5,-30.5 261.5,-0.5 145.5,-0.5"/>
<text text-anchor="start" x="153.5" y="-18.5" font-family="Helvetica,sans-Serif" font-size="10.00">deal.II/base/function</text>
<text text-anchor="middle" x="203.5" y="-7.5" font-family="Helvetica,sans-Serif" font-size="10.00">_parser.h</text>
</a>
</g>
</g>
<!-- Node4&#45;&gt;Node5 -->
<g id="edge4" class="edge">
<title>Node4&#45;&gt;Node5</title>
<path fill="none" stroke="midnightblue" d="M122.18,-72.73C135.61,-63.44 157.28,-48.46 174.87,-36.3"/>
<polygon fill="midnightblue" stroke="midnightblue" points="176.89,-39.16 183.13,-30.59 172.91,-33.4 176.89,-39.16"/>
</g>
<!-- Node6&#45;&gt;Node4 -->
<g id="edge7" class="edge">
<title>Node6&#45;&gt;Node4</title>
<path fill="none" stroke="midnightblue" d="M91.58,-206.82C81.07,-197.69 65.86,-182.29 59.5,-165 54.74,-152.07 54.26,-146.74 59.5,-134 65.41,-119.63 77.6,-107.18 88.46,-98.24"/>
<polygon fill="midnightblue" stroke="midnightblue" points="90.62,-101 96.39,-92.11 86.34,-95.46 90.62,-101"/>
</g>
<!-- Node11 -->
<g id="node11" class="node">
<title>Node11</title>
<g id="a_node11"><a target="_parent" xlink:href="http://www.dealii.org/developer/doxygen/deal.II/config_8h.html.html" xlink:title=" ">
<polygon fill="none" stroke="black" points="244.5,-140 244.5,-159 358.5,-159 358.5,-140 244.5,-140"/>
<text text-anchor="middle" x="301.5" y="-147" font-family="Helvetica,sans-Serif" font-size="10.00">deal.II/base/config.h</text>
</a>
</g>
</g>
<!-- Node10&#45;&gt;Node11 -->
<g id="edge12" class="edge">
<title>Node10&#45;&gt;Node11</title>
<path fill="none" stroke="midnightblue" d="M877.74,-212.13C765.7,-206.43 549.46,-192.71 367.5,-165 360.64,-163.96 353.43,-162.62 346.4,-161.18"/>
<polygon fill="midnightblue" stroke="midnightblue" points="346.79,-157.69 336.28,-159.03 345.33,-164.54 346.79,-157.69"/>
</g>
<!-- Node12 -->
<g id="node12" class="node">
<title>Node12</title>
<g id="a_node12"><a target="_parent" xlink:href="http://www.dealii.org/developer/doxygen/deal.II/include_2deal_8II_2base_2quadrature_8h.html.html" xlink:title=" ">
<polygon fill="none" stroke="black" points="1180.5,-140 1180.5,-159 1318.5,-159 1318.5,-140 1180.5,-140"/>
<text text-anchor="middle" x="1249.5" y="-147" font-family="Helvetica,sans-Serif" font-size="10.00">deal.II/base/quadrature.h</text>
</a>
</g>
</g>
<!-- Node10&#45;&gt;Node12 -->
<g id="edge13" class="edge">
<title>Node10&#45;&gt;Node12</title>
<path fill="none" stroke="midnightblue" d="M992.5,-206.94C1045.96,-195.2 1142.01,-174.11 1200.33,-161.3"/>
<polygon fill="midnightblue" stroke="midnightblue" points="1201.4,-164.65 1210.41,-159.08 1199.89,-157.81 1201.4,-164.65"/>
</g>
<!-- Node13 -->
<g id="node13" class="node">
<title>Node13</title>
<g id="a_node13"><a target="_parent" xlink:href="http://www.dealii.org/developer/doxygen/deal.II/quadrature__lib_8h.html.html" xlink:title=" ">
<polygon fill="none" stroke="black" points="1337,-134.5 1337,-164.5 1466,-164.5 1466,-134.5 1337,-134.5"/>
<text text-anchor="start" x="1345" y="-152.5" font-family="Helvetica,sans-Serif" font-size="10.00">deal.II/base/quadrature</text>
<text text-anchor="middle" x="1401.5" y="-141.5" font-family="Helvetica,sans-Serif" font-size="10.00">_lib.h</text>
</a>
</g>
</g>
<!-- Node10&#45;&gt;Node13 -->
<g id="edge14" class="edge">
<title>Node10&#45;&gt;Node13</title>
<path fill="none" stroke="midnightblue" d="M1004.38,-207C1017.14,-204.95 1030.81,-202.83 1043.5,-201 1166.24,-183.34 1200.18,-185.14 1326.88,-165.03"/>
<polygon fill="midnightblue" stroke="midnightblue" points="1327.65,-168.45 1336.97,-163.41 1326.54,-161.54 1327.65,-168.45"/>
</g>
<!-- Node14 -->
<g id="node14" class="node">
<title>Node14</title>
<g id="a_node14"><a target="_parent" xlink:href="http://www.dealii.org/developer/doxygen/deal.II/include_2deal_8II_2base_2utilities_8h.html.html" xlink:title=" ">
<polygon fill="none" stroke="black" points="376.5,-140 376.5,-159 498.5,-159 498.5,-140 376.5,-140"/>
<text text-anchor="middle" x="437.5" y="-147" font-family="Helvetica,sans-Serif" font-size="10.00">deal.II/base/utilities.h</text>
</a>
</g>
</g>
<!-- Node10&#45;&gt;Node14 -->
<g id="edge15" class="edge">
<title>Node10&#45;&gt;Node14</title>
<path fill="none" stroke="midnightblue" d="M877.64,-208.95C788.84,-200.81 637.51,-185.45 508.5,-165 501.24,-163.85 493.59,-162.47 486.12,-161.02"/>
<polygon fill="midnightblue" stroke="midnightblue" points="486.57,-157.54 476.08,-159.02 485.2,-164.41 486.57,-157.54"/>
</g>
<!-- Node15 -->
<g id="node15" class="node">
<title>Node15</title>
<g id="a_node15"><a target="_parent" xlink:href="http://www.dealii.org/developer/doxygen/deal.II/component__mask_8h.html.html" xlink:title=" ">
<polygon fill="none" stroke="black" points="517,-134.5 517,-164.5 634,-164.5 634,-134.5 517,-134.5"/>
<text text-anchor="start" x="525" y="-152.5" font-family="Helvetica,sans-Serif" font-size="10.00">deal.II/fe/component</text>
<text text-anchor="middle" x="575.5" y="-141.5" font-family="Helvetica,sans-Serif" font-size="10.00">_mask.h</text>
</a>
</g>
</g>
<!-- Node10&#45;&gt;Node15 -->
<g id="edge16" class="edge">
<title>Node10&#45;&gt;Node15</title>
<path fill="none" stroke="midnightblue" d="M895.93,-206.98C835.71,-197.87 738.2,-182.58 644.05,-165.05"/>
<polygon fill="midnightblue" stroke="midnightblue" points="644.54,-161.58 634.07,-163.18 643.25,-168.46 644.54,-161.58"/>
</g>
<!-- Node16 -->
<g id="node16" class="node">
<title>Node16</title>
<g id="a_node16"><a target="_parent" xlink:href="http://www.dealii.org/developer/doxygen/deal.II/fe__dgq_8h.html.html" xlink:title=" ">
<polygon fill="none" stroke="black" points="652.5,-140 652.5,-159 756.5,-159 756.5,-140 652.5,-140"/>
<text text-anchor="middle" x="704.5" y="-147" font-family="Helvetica,sans-Serif" font-size="10.00">deal.II/fe/fe_dgq.h</text>
</a>
</g>
</g>
<!-- Node10&#45;&gt;Node16 -->
<g id="edge17" class="edge">
<title>Node10&#45;&gt;Node16</title>
<path fill="none" stroke="midnightblue" d="M920.69,-206.94C876.09,-195.29 796.26,-174.45 747.09,-161.62"/>
<polygon fill="midnightblue" stroke="midnightblue" points="747.94,-158.22 737.38,-159.08 746.17,-165 747.94,-158.22"/>
</g>
<!-- Node17 -->
<g id="node17" class="node">
<title>Node17</title>
<g id="a_node17"><a target="_parent" xlink:href="http://www.dealii.org/developer/doxygen/deal.II/fe__q_8h.html.html" xlink:title=" ">
<polygon fill="none" stroke="black" points="774.5,-140 774.5,-159 866.5,-159 866.5,-140 774.5,-140"/>
<text text-anchor="middle" x="820.5" y="-147" font-family="Helvetica,sans-Serif" font-size="10.00">deal.II/fe/fe_q.h</text>
</a>
</g>
</g>
<!-- Node10&#45;&gt;Node17 -->
<g id="edge18" class="edge">
<title>Node10&#45;&gt;Node17</title>
<path fill="none" stroke="midnightblue" d="M935.84,-206.87C913.18,-195.8 873.67,-176.49 847.3,-163.6"/>
<polygon fill="midnightblue" stroke="midnightblue" points="848.76,-160.41 838.23,-159.17 845.68,-166.7 848.76,-160.41"/>
</g>
<!-- Node18 -->
<g id="node18" class="node">
<title>Node18</title>
<g id="a_node18"><a target="_parent" xlink:href="http://www.dealii.org/developer/doxygen/deal.II/fe__simplex__p_8h.html.html" xlink:title=" ">
<polygon fill="none" stroke="black" points="885,-140 885,-159 1022,-159 1022,-140 885,-140"/>
<text text-anchor="middle" x="953.5" y="-147" font-family="Helvetica,sans-Serif" font-size="10.00">deal.II/fe/fe_simplex_p.h</text>
</a>
</g>
</g>
<!-- Node10&#45;&gt;Node18 -->
<g id="edge19" class="edge">
<title>Node10&#45;&gt;Node18</title>
<path fill="none" stroke="midnightblue" d="M953.5,-206.73C953.5,-197.18 953.5,-181.62 953.5,-169.28"/>
<polygon fill="midnightblue" stroke="midnightblue" points="957,-169.13 953.5,-159.13 950,-169.13 957,-169.13"/>
</g>
<!-- Node19 -->
<g id="node19" class="node">
<title>Node19</title>
<g id="a_node19"><a target="_parent" xlink:href="http://www.dealii.org/developer/doxygen/deal.II/fe__system_8h.html.html" xlink:title=" ">
<polygon fill="none" stroke="black" points="1040.5,-140 1040.5,-159 1162.5,-159 1162.5,-140 1040.5,-140"/>
<text text-anchor="middle" x="1101.5" y="-147" font-family="Helvetica,sans-Serif" font-size="10.00">deal.II/fe/fe_system.h</text>
</a>
</g>
</g>
<!-- Node10&#45;&gt;Node19 -->
<g id="edge20" class="edge">
<title>Node10&#45;&gt;Node19</title>
<path fill="none" stroke="midnightblue" d="M973.15,-206.87C998.59,-195.7 1043.1,-176.15 1072.45,-163.26"/>
<polygon fill="midnightblue" stroke="midnightblue" points="1074.02,-166.39 1081.77,-159.17 1071.2,-159.98 1074.02,-166.39"/>
</g>
<!-- Node20 -->
<g id="node20" class="node">
<title>Node20</title>
<g id="a_node20"><a target="_parent" xlink:href="http://www.dealii.org/developer/doxygen/deal.II/grid_2tria_8h.html.html" xlink:title=" ">
<polygon fill="none" stroke="black" points="1621,-140 1621,-159 1718,-159 1718,-140 1621,-140"/>
<text text-anchor="middle" x="1669.5" y="-147" font-family="Helvetica,sans-Serif" font-size="10.00">deal.II/grid/tria.h</text>
</a>
</g>
</g>
<!-- Node10&#45;&gt;Node20 -->
<g id="edge21" class="edge">
<title>Node10&#45;&gt;Node20</title>
<path fill="none" stroke="midnightblue" d="M1020.46,-206.99C1038.63,-204.85 1058.3,-202.68 1076.5,-201 1314.24,-179.02 1376.72,-202.59 1612.5,-165 1618.31,-164.07 1624.4,-162.83 1630.34,-161.46"/>
<polygon fill="midnightblue" stroke="midnightblue" points="1631.25,-164.84 1640.13,-159.06 1629.58,-158.04 1631.25,-164.84"/>
</g>
<!-- Node10&#45;&gt;Node21 -->
<g id="edge22" class="edge">
<title>Node10&#45;&gt;Node21</title>
<path fill="none" stroke="midnightblue" d="M1001.98,-206.99C1015.4,-204.83 1029.99,-202.65 1043.5,-201 1234.75,-177.66 1284.9,-193.15 1475.5,-165 1482.72,-163.93 1490.33,-162.56 1497.74,-161.09"/>
<polygon fill="midnightblue" stroke="midnightblue" points="1498.58,-164.49 1507.66,-159.03 1497.16,-157.63 1498.58,-164.49"/>
</g>
<!-- Node22 -->
<g id="node22" class="node">
<title>Node22</title>
<g id="a_node22"><a target="_parent" xlink:href="http://www.dealii.org/developer/doxygen/deal.II/patterns_8h.html.html" xlink:title=" ">
<polygon fill="none" stroke="black" points="1667,-73 1667,-92 1792,-92 1792,-73 1667,-73"/>
<text text-anchor="middle" x="1729.5" y="-80" font-family="Helvetica,sans-Serif" font-size="10.00">deal.II/base/patterns.h</text>
</a>
</g>
</g>
<!-- Node21&#45;&gt;Node22 -->
<g id="edge23" class="edge">
<title>Node21&#45;&gt;Node22</title>
<path fill="none" stroke="midnightblue" d="M1568.2,-139.87C1600.81,-128.47 1658.38,-108.35 1695.2,-95.49"/>
<polygon fill="midnightblue" stroke="midnightblue" points="1696.71,-98.67 1704.99,-92.06 1694.4,-92.06 1696.71,-98.67"/>
</g>
<!-- Node23 -->
<g id="node23" class="node">
<title>Node23</title>
<g id="a_node23"><a target="_parent" xlink:href="http://www.dealii.org/developer/doxygen/deal.II/sd_8h.html.html" xlink:title=" ">
<polygon fill="none" stroke="black" points="1343.5,-73 1343.5,-92 1485.5,-92 1485.5,-73 1343.5,-73"/>
<text text-anchor="middle" x="1414.5" y="-80" font-family="Helvetica,sans-Serif" font-size="10.00">deal.II/differentiation/sd.h</text>
</a>
</g>
</g>
<!-- Node21&#45;&gt;Node23 -->
<g id="edge24" class="edge">
<title>Node21&#45;&gt;Node23</title>
<path fill="none" stroke="midnightblue" d="M1526.37,-139.87C1504.49,-128.84 1466.41,-109.66 1440.83,-96.77"/>
<polygon fill="midnightblue" stroke="midnightblue" points="1442.21,-93.54 1431.7,-92.17 1439.06,-99.79 1442.21,-93.54"/>
</g>
<!-- Node24 -->
<g id="node24" class="node">
<title>Node24</title>
<g id="a_node24"><a xlink:title=" ">
<polygon fill="none" stroke="#bfbfbf" points="1503.5,-67.5 1503.5,-97.5 1615.5,-97.5 1615.5,-67.5 1503.5,-67.5"/>
<text text-anchor="start" x="1511.5" y="-85.5" font-family="Helvetica,sans-Serif" font-size="10.00">parsed_tools/magic</text>
<text text-anchor="middle" x="1559.5" y="-74.5" font-family="Helvetica,sans-Serif" font-size="10.00">_enum.hpp</text>
</a>
</g>
</g>
<!-- Node21&#45;&gt;Node24 -->
<g id="edge25" class="edge">
<title>Node21&#45;&gt;Node24</title>
<path fill="none" stroke="midnightblue" d="M1545.66,-139.73C1547.7,-131.46 1550.84,-118.66 1553.62,-107.37"/>
<polygon fill="midnightblue" stroke="midnightblue" points="1557.04,-108.14 1556.03,-97.59 1550.24,-106.46 1557.04,-108.14"/>
</g>
<!-- Node25&#45;&gt;Node20 -->
<g id="edge30" class="edge">
<title>Node25&#45;&gt;Node20</title>
<path fill="none" stroke="midnightblue" d="M1193.4,-206.96C1204.73,-204.79 1217.06,-202.62 1228.5,-201 1398.21,-176.91 1443.59,-194.22 1612.5,-165 1618.03,-164.04 1623.82,-162.83 1629.5,-161.51"/>
<polygon fill="midnightblue" stroke="midnightblue" points="1630.63,-164.83 1639.52,-159.06 1628.97,-158.04 1630.63,-164.83"/>
</g>
<!-- Node25&#45;&gt;Node22 -->
<g id="edge28" class="edge">
<title>Node25&#45;&gt;Node22</title>
<path fill="none" stroke="midnightblue" d="M1192.59,-206.95C1204.14,-204.73 1216.78,-202.54 1228.5,-201 1283.62,-193.78 1689.14,-205.23 1727.5,-165 1743.27,-148.47 1739.95,-120.38 1735.34,-101.88"/>
<polygon fill="midnightblue" stroke="midnightblue" points="1738.64,-100.69 1732.54,-92.03 1731.91,-102.6 1738.64,-100.69"/>
</g>
<!-- Node26 -->
<g id="node26" class="node">
<title>Node26</title>
<g id="a_node26"><a target="_parent" xlink:href="http://www.dealii.org/developer/doxygen/deal.II/reference__cell_8h.html.html" xlink:title=" ">
<polygon fill="none" stroke="black" points="1774.5,-134.5 1774.5,-164.5 1892.5,-164.5 1892.5,-134.5 1774.5,-134.5"/>
<text text-anchor="start" x="1782.5" y="-152.5" font-family="Helvetica,sans-Serif" font-size="10.00">deal.II/grid/reference</text>
<text text-anchor="middle" x="1833.5" y="-141.5" font-family="Helvetica,sans-Serif" font-size="10.00">_cell.h</text>
</a>
</g>
</g>
<!-- Node25&#45;&gt;Node26 -->
<g id="edge29" class="edge">
<title>Node25&#45;&gt;Node26</title>
<path fill="none" stroke="midnightblue" d="M1192.19,-206.99C1203.84,-204.74 1216.64,-202.53 1228.5,-201 1463.55,-170.74 1525.57,-196.15 1760.5,-165 1761.76,-164.83 1763.03,-164.66 1764.31,-164.47"/>
<polygon fill="midnightblue" stroke="midnightblue" points="1764.9,-167.92 1774.24,-162.93 1763.83,-161.01 1764.9,-167.92"/>
</g>
<!-- Node27&#45;&gt;Node2 -->
<g id="edge33" class="edge">
<title>Node27&#45;&gt;Node2</title>
<path fill="none" stroke="midnightblue" d="M275.21,-201.42C262.74,-192.08 246.99,-179 235.5,-165 203.95,-126.56 218.37,-100.38 181.5,-67 165.6,-52.61 144.98,-41.9 125.43,-34.14"/>
<polygon fill="midnightblue" stroke="midnightblue" points="126.54,-30.81 115.94,-30.56 124.07,-37.36 126.54,-30.81"/>
</g>
<!-- Node27&#45;&gt;Node3 -->
<g id="edge34" class="edge">
<title>Node27&#45;&gt;Node3</title>
<path fill="none" stroke="midnightblue" d="M259.26,-201.4C234.32,-191.69 200.97,-178.71 174.2,-168.29"/>
<polygon fill="midnightblue" stroke="midnightblue" points="175.25,-164.94 164.67,-164.58 172.72,-171.47 175.25,-164.94"/>
</g>
<!-- Node27&#45;&gt;Node11 -->
<g id="edge32" class="edge">
<title>Node27&#45;&gt;Node11</title>
<path fill="none" stroke="midnightblue" d="M296.8,-201.4C297.67,-191.96 298.83,-179.45 299.77,-169.19"/>
<polygon fill="midnightblue" stroke="midnightblue" points="303.26,-169.47 300.7,-159.19 296.29,-168.83 303.26,-169.47"/>
</g>
</g>
</svg>
