<?xml version="1.0" encoding="UTF-8" standalone="no"?>
<!DOCTYPE svg PUBLIC "-//W3C//DTD SVG 1.1//EN"
 "http://www.w3.org/Graphics/SVG/1.1/DTD/svg11.dtd">
<!-- Generated by graphviz version 2.43.0 (0)
 -->
<!-- Title: include/parsed_tools/boundary_conditions.h Pages: 1 -->
<svg width="1642pt" height="229pt"
 viewBox="0.00 0.00 1641.50 229.00" xmlns="http://www.w3.org/2000/svg" xmlns:xlink="http://www.w3.org/1999/xlink">
<g id="graph0" class="graph" transform="scale(1 1) rotate(0) translate(4 225)">
<title>include/parsed_tools/boundary_conditions.h</title>
<!-- Node1 -->
<g id="node1" class="node">
<title>Node1</title>
<g id="a_node1"><a xlink:title=" ">
<polygon fill="#bfbfbf" stroke="black" points="914.5,-190.5 914.5,-220.5 1044.5,-220.5 1044.5,-190.5 914.5,-190.5"/>
<text text-anchor="start" x="922.5" y="-208.5" font-family="Helvetica,sans-Serif" font-size="10.00">include/parsed_tools</text>
<text text-anchor="middle" x="979.5" y="-197.5" font-family="Helvetica,sans-Serif" font-size="10.00">/boundary_conditions.h</text>
</a>
</g>
</g>
<!-- Node2 -->
<g id="node2" class="node">
<title>Node2</title>
<g id="a_node2"><a xlink:href="linear__problem_8h.html" target="_top" xlink:title=" ">
<polygon fill="none" stroke="black" points="167,-123.5 167,-153.5 298,-153.5 298,-123.5 167,-123.5"/>
<text text-anchor="start" x="175" y="-141.5" font-family="Helvetica,sans-Serif" font-size="10.00">include/pdes/mpi/linear</text>
<text text-anchor="middle" x="232.5" y="-130.5" font-family="Helvetica,sans-Serif" font-size="10.00">_problem.h</text>
</a>
</g>
</g>
<!-- Node1&#45;&gt;Node2 -->
<g id="edge1" class="edge">
<title>Node1&#45;&gt;Node2</title>
<path fill="none" stroke="midnightblue" d="M903.94,-197.92C757.28,-185.16 436.36,-157.24 298.06,-145.2"/>
<polygon fill="midnightblue" stroke="midnightblue" points="903.92,-201.44 914.19,-198.82 904.53,-194.46 903.92,-201.44"/>
</g>
<!-- Node6 -->
<g id="node6" class="node">
<title>Node6</title>
<g id="a_node6"><a xlink:href="distributed__lagrange_8h.html" target="_top" xlink:title=" ">
<polygon fill="none" stroke="black" points="465,-123.5 465,-153.5 594,-153.5 594,-123.5 465,-123.5"/>
<text text-anchor="start" x="473" y="-141.5" font-family="Helvetica,sans-Serif" font-size="10.00">include/pdes/serial</text>
<text text-anchor="middle" x="529.5" y="-130.5" font-family="Helvetica,sans-Serif" font-size="10.00">/distributed_lagrange.h</text>
</a>
</g>
</g>
<!-- Node1&#45;&gt;Node6 -->
<g id="edge5" class="edge">
<title>Node1&#45;&gt;Node6</title>
<path fill="none" stroke="midnightblue" d="M904.02,-193.6C817.25,-181.06 676.27,-160.7 594.28,-148.86"/>
<polygon fill="midnightblue" stroke="midnightblue" points="903.67,-197.08 914.07,-195.05 904.67,-190.15 903.67,-197.08"/>
</g>
<!-- Node9 -->
<g id="node9" class="node">
<title>Node9</title>
<g id="a_node9"><a xlink:href="linear__elasticity_8h.html" target="_top" xlink:title=" ">
<polygon fill="none" stroke="black" points="735.5,-123.5 735.5,-153.5 843.5,-153.5 843.5,-123.5 735.5,-123.5"/>
<text text-anchor="start" x="743.5" y="-141.5" font-family="Helvetica,sans-Serif" font-size="10.00">include/pdes/serial</text>
<text text-anchor="middle" x="789.5" y="-130.5" font-family="Helvetica,sans-Serif" font-size="10.00">/linear_elasticity.h</text>
</a>
</g>
</g>
<!-- Node1&#45;&gt;Node9 -->
<g id="edge8" class="edge">
<title>Node1&#45;&gt;Node9</title>
<path fill="none" stroke="midnightblue" d="M928.61,-187.09C897.94,-176.6 859.39,-163.41 830.65,-153.58"/>
<polygon fill="midnightblue" stroke="midnightblue" points="927.68,-190.47 938.27,-190.4 929.94,-183.85 927.68,-190.47"/>
</g>
<!-- Node12 -->
<g id="node12" class="node">
<title>Node12</title>
<g id="a_node12"><a xlink:href="serial_2poisson_8h.html" target="_top" xlink:title=" ">
<polygon fill="none" stroke="black" points="925.5,-123.5 925.5,-153.5 1033.5,-153.5 1033.5,-123.5 925.5,-123.5"/>
<text text-anchor="start" x="933.5" y="-141.5" font-family="Helvetica,sans-Serif" font-size="10.00">include/pdes/serial</text>
<text text-anchor="middle" x="979.5" y="-130.5" font-family="Helvetica,sans-Serif" font-size="10.00">/poisson.h</text>
</a>
</g>
</g>
<!-- Node1&#45;&gt;Node12 -->
<g id="edge11" class="edge">
<title>Node1&#45;&gt;Node12</title>
<path fill="none" stroke="midnightblue" d="M979.5,-180.11C979.5,-171.15 979.5,-161.32 979.5,-153.58"/>
<polygon fill="midnightblue" stroke="midnightblue" points="976,-180.4 979.5,-190.4 983,-180.4 976,-180.4"/>
</g>
<!-- Node15 -->
<g id="node15" class="node">
<title>Node15</title>
<g id="a_node15"><a xlink:href="reduced__lagrange_8h.html" target="_top" xlink:title=" ">
<polygon fill="none" stroke="black" points="1125.5,-123.5 1125.5,-153.5 1241.5,-153.5 1241.5,-123.5 1125.5,-123.5"/>
<text text-anchor="start" x="1133.5" y="-141.5" font-family="Helvetica,sans-Serif" font-size="10.00">include/pdes/serial</text>
<text text-anchor="middle" x="1183.5" y="-130.5" font-family="Helvetica,sans-Serif" font-size="10.00">/reduced_lagrange.h</text>
</a>
</g>
</g>
<!-- Node1&#45;&gt;Node15 -->
<g id="edge14" class="edge">
<title>Node1&#45;&gt;Node15</title>
<path fill="none" stroke="midnightblue" d="M1033.46,-187.31C1066.46,-176.79 1108.16,-163.51 1139.21,-153.61"/>
<polygon fill="midnightblue" stroke="midnightblue" points="1031.98,-184.11 1023.51,-190.48 1034.1,-190.77 1031.98,-184.11"/>
</g>
<!-- Node18 -->
<g id="node18" class="node">
<title>Node18</title>
<g id="a_node18"><a xlink:href="stokes_8h.html" target="_top" xlink:title=" ">
<polygon fill="none" stroke="black" points="1324.5,-123.5 1324.5,-153.5 1432.5,-153.5 1432.5,-123.5 1324.5,-123.5"/>
<text text-anchor="start" x="1332.5" y="-141.5" font-family="Helvetica,sans-Serif" font-size="10.00">include/pdes/serial</text>
<text text-anchor="middle" x="1378.5" y="-130.5" font-family="Helvetica,sans-Serif" font-size="10.00">/stokes.h</text>
</a>
</g>
</g>
<!-- Node1&#45;&gt;Node18 -->
<g id="edge17" class="edge">
<title>Node1&#45;&gt;Node18</title>
<path fill="none" stroke="midnightblue" d="M1055.26,-192.16C1133.83,-179.36 1254.72,-159.66 1324.25,-148.34"/>
<polygon fill="midnightblue" stroke="midnightblue" points="1054.25,-188.78 1044.94,-193.84 1055.37,-195.69 1054.25,-188.78"/>
</g>
<!-- Node21 -->
<g id="node21" class="node">
<title>Node21</title>
<g id="a_node21"><a xlink:href="boundary__conditions_8cc.html" target="_top" xlink:title=" ">
<polygon fill="none" stroke="black" points="1451,-129 1451,-148 1618,-148 1618,-129 1451,-129"/>
<text text-anchor="middle" x="1534.5" y="-136" font-family="Helvetica,sans-Serif" font-size="10.00">source/boundary_conditions.cc</text>
</a>
</g>
</g>
<!-- Node1&#45;&gt;Node21 -->
<g id="edge20" class="edge">
<title>Node1&#45;&gt;Node21</title>
<path fill="none" stroke="midnightblue" d="M1054.65,-197.35C1146.18,-188.4 1305.42,-172.04 1441.5,-154 1454.78,-152.24 1469.1,-150.12 1482.42,-148.05"/>
<polygon fill="midnightblue" stroke="midnightblue" points="1054.26,-193.87 1044.65,-198.33 1054.94,-200.84 1054.26,-193.87"/>
</g>
<!-- Node3 -->
<g id="node3" class="node">
<title>Node3</title>
<g id="a_node3"><a xlink:href="mpi_2poisson_8h.html" target="_top" xlink:title=" ">
<polygon fill="none" stroke="black" points="1,-62 1,-81 150,-81 150,-62 1,-62"/>
<text text-anchor="middle" x="75.5" y="-69" font-family="Helvetica,sans-Serif" font-size="10.00">include/pdes/mpi/poisson.h</text>
</a>
</g>
</g>
<!-- Node2&#45;&gt;Node3 -->
<g id="edge2" class="edge">
<title>Node2&#45;&gt;Node3</title>
<path fill="none" stroke="midnightblue" d="M188.92,-119.46C158.59,-106.9 119.52,-90.72 96.05,-81.01"/>
<polygon fill="midnightblue" stroke="midnightblue" points="187.86,-122.8 198.43,-123.4 190.53,-116.34 187.86,-122.8"/>
</g>
<!-- Node5 -->
<g id="node5" class="node">
<title>Node5</title>
<g id="a_node5"><a xlink:href="linear__problem_8cc.html" target="_top" xlink:title=" ">
<polygon fill="none" stroke="black" points="168.5,-56.5 168.5,-86.5 296.5,-86.5 296.5,-56.5 168.5,-56.5"/>
<text text-anchor="start" x="176.5" y="-74.5" font-family="Helvetica,sans-Serif" font-size="10.00">source/pdes/mpi/linear</text>
<text text-anchor="middle" x="232.5" y="-63.5" font-family="Helvetica,sans-Serif" font-size="10.00">_problem.cc</text>
</a>
</g>
</g>
<!-- Node2&#45;&gt;Node5 -->
<g id="edge4" class="edge">
<title>Node2&#45;&gt;Node5</title>
<path fill="none" stroke="midnightblue" d="M232.5,-113.11C232.5,-104.15 232.5,-94.32 232.5,-86.58"/>
<polygon fill="midnightblue" stroke="midnightblue" points="229,-113.4 232.5,-123.4 236,-113.4 229,-113.4"/>
</g>
<!-- Node4 -->
<g id="node4" class="node">
<title>Node4</title>
<g id="a_node4"><a xlink:href="source_2pdes_2mpi_2poisson_8cc.html" target="_top" xlink:title=" ">
<polygon fill="none" stroke="black" points="0,-0.5 0,-19.5 151,-19.5 151,-0.5 0,-0.5"/>
<text text-anchor="middle" x="75.5" y="-7.5" font-family="Helvetica,sans-Serif" font-size="10.00">source/pdes/mpi/poisson.cc</text>
</a>
</g>
</g>
<!-- Node3&#45;&gt;Node4 -->
<g id="edge3" class="edge">
<title>Node3&#45;&gt;Node4</title>
<path fill="none" stroke="midnightblue" d="M75.5,-51.82C75.5,-41 75.5,-27.9 75.5,-19.51"/>
<polygon fill="midnightblue" stroke="midnightblue" points="72,-51.98 75.5,-61.98 79,-51.98 72,-51.98"/>
</g>
<!-- Node7 -->
<g id="node7" class="node">
<title>Node7</title>
<g id="a_node7"><a xlink:href="source_2pdes_2serial_2distributed__lagrange_8cc.html" target="_top" xlink:title=" ">
<polygon fill="none" stroke="black" points="314.5,-56.5 314.5,-86.5 448.5,-86.5 448.5,-56.5 314.5,-56.5"/>
<text text-anchor="start" x="322.5" y="-74.5" font-family="Helvetica,sans-Serif" font-size="10.00">source/pdes/serial</text>
<text text-anchor="middle" x="381.5" y="-63.5" font-family="Helvetica,sans-Serif" font-size="10.00">/distributed_lagrange.cc</text>
</a>
</g>
</g>
<!-- Node6&#45;&gt;Node7 -->
<g id="edge6" class="edge">
<title>Node6&#45;&gt;Node7</title>
<path fill="none" stroke="midnightblue" d="M487.99,-119.27C464.42,-108.92 435.36,-96.15 413.55,-86.58"/>
<polygon fill="midnightblue" stroke="midnightblue" points="486.82,-122.58 497.39,-123.4 489.64,-116.17 486.82,-122.58"/>
</g>
<!-- Node8 -->
<g id="node8" class="node">
<title>Node8</title>
<g id="a_node8"><a xlink:href="apps_2serial_2distributed__lagrange_8cc.html" target="_top" xlink:title=" ">
<polygon fill="none" stroke="black" points="467,-56.5 467,-86.5 592,-86.5 592,-56.5 467,-56.5"/>
<text text-anchor="start" x="475" y="-74.5" font-family="Helvetica,sans-Serif" font-size="10.00">apps/serial/distributed</text>
<text text-anchor="middle" x="529.5" y="-63.5" font-family="Helvetica,sans-Serif" font-size="10.00">_lagrange.cc</text>
</a>
</g>
</g>
<!-- Node6&#45;&gt;Node8 -->
<g id="edge7" class="edge">
<title>Node6&#45;&gt;Node8</title>
<path fill="none" stroke="midnightblue" d="M529.5,-113.11C529.5,-104.15 529.5,-94.32 529.5,-86.58"/>
<polygon fill="midnightblue" stroke="midnightblue" points="526,-113.4 529.5,-123.4 533,-113.4 526,-113.4"/>
</g>
<!-- Node10 -->
<g id="node10" class="node">
<title>Node10</title>
<g id="a_node10"><a xlink:href="source_2pdes_2serial_2linear__elasticity_8cc.html" target="_top" xlink:title=" ">
<polygon fill="none" stroke="black" points="610.5,-56.5 610.5,-86.5 720.5,-86.5 720.5,-56.5 610.5,-56.5"/>
<text text-anchor="start" x="618.5" y="-74.5" font-family="Helvetica,sans-Serif" font-size="10.00">source/pdes/serial</text>
<text text-anchor="middle" x="665.5" y="-63.5" font-family="Helvetica,sans-Serif" font-size="10.00">/linear_elasticity.cc</text>
</a>
</g>
</g>
<!-- Node9&#45;&gt;Node10 -->
<g id="edge9" class="edge">
<title>Node9&#45;&gt;Node10</title>
<path fill="none" stroke="midnightblue" d="M753.66,-118.71C734.11,-108.46 710.3,-95.98 692.35,-86.58"/>
<polygon fill="midnightblue" stroke="midnightblue" points="752.11,-121.85 762.59,-123.4 755.36,-115.65 752.11,-121.85"/>
</g>
<!-- Node11 -->
<g id="node11" class="node">
<title>Node11</title>
<g id="a_node11"><a xlink:href="apps_2serial_2linear__elasticity_8cc.html" target="_top" xlink:title=" ">
<polygon fill="none" stroke="black" points="739,-56.5 739,-86.5 840,-86.5 840,-56.5 739,-56.5"/>
<text text-anchor="start" x="747" y="-74.5" font-family="Helvetica,sans-Serif" font-size="10.00">apps/serial/linear</text>
<text text-anchor="middle" x="789.5" y="-63.5" font-family="Helvetica,sans-Serif" font-size="10.00">_elasticity.cc</text>
</a>
</g>
</g>
<!-- Node9&#45;&gt;Node11 -->
<g id="edge10" class="edge">
<title>Node9&#45;&gt;Node11</title>
<path fill="none" stroke="midnightblue" d="M789.5,-113.11C789.5,-104.15 789.5,-94.32 789.5,-86.58"/>
<polygon fill="midnightblue" stroke="midnightblue" points="786,-113.4 789.5,-123.4 793,-113.4 786,-113.4"/>
</g>
<!-- Node13 -->
<g id="node13" class="node">
<title>Node13</title>
<g id="a_node13"><a xlink:href="source_2pdes_2serial_2poisson_8cc.html" target="_top" xlink:title=" ">
<polygon fill="none" stroke="black" points="858,-56.5 858,-86.5 963,-86.5 963,-56.5 858,-56.5"/>
<text text-anchor="start" x="866" y="-74.5" font-family="Helvetica,sans-Serif" font-size="10.00">source/pdes/serial</text>
<text text-anchor="middle" x="910.5" y="-63.5" font-family="Helvetica,sans-Serif" font-size="10.00">/poisson.cc</text>
</a>
</g>
</g>
<!-- Node12&#45;&gt;Node13 -->
<g id="edge12" class="edge">
<title>Node12&#45;&gt;Node13</title>
<path fill="none" stroke="midnightblue" d="M957.01,-116.31C946.66,-106.56 934.66,-95.26 925.44,-86.58"/>
<polygon fill="midnightblue" stroke="midnightblue" points="954.85,-119.09 964.53,-123.4 959.65,-113.99 954.85,-119.09"/>
</g>
<!-- Node14 -->
<g id="node14" class="node">
<title>Node14</title>
<g id="a_node14"><a xlink:href="apps_2serial_2poisson_8cc.html" target="_top" xlink:title=" ">
<polygon fill="none" stroke="black" points="981.5,-62 981.5,-81 1105.5,-81 1105.5,-62 981.5,-62"/>
<text text-anchor="middle" x="1043.5" y="-69" font-family="Helvetica,sans-Serif" font-size="10.00">apps/serial/poisson.cc</text>
</a>
</g>
</g>
<!-- Node12&#45;&gt;Node14 -->
<g id="edge13" class="edge">
<title>Node12&#45;&gt;Node14</title>
<path fill="none" stroke="midnightblue" d="M1000.67,-116C1012.35,-104.13 1026.22,-90.05 1034.94,-81.19"/>
<polygon fill="midnightblue" stroke="midnightblue" points="997.91,-113.81 993.39,-123.4 1002.9,-118.73 997.91,-113.81"/>
</g>
<!-- Node16 -->
<g id="node16" class="node">
<title>Node16</title>
<g id="a_node16"><a xlink:href="source_2pdes_2serial_2reduced__lagrange_8cc.html" target="_top" xlink:title=" ">
<polygon fill="none" stroke="black" points="1123.5,-56.5 1123.5,-86.5 1243.5,-86.5 1243.5,-56.5 1123.5,-56.5"/>
<text text-anchor="start" x="1131.5" y="-74.5" font-family="Helvetica,sans-Serif" font-size="10.00">source/pdes/serial</text>
<text text-anchor="middle" x="1183.5" y="-63.5" font-family="Helvetica,sans-Serif" font-size="10.00">/reduced_lagrange.cc</text>
</a>
</g>
</g>
<!-- Node15&#45;&gt;Node16 -->
<g id="edge15" class="edge">
<title>Node15&#45;&gt;Node16</title>
<path fill="none" stroke="midnightblue" d="M1183.5,-113.11C1183.5,-104.15 1183.5,-94.32 1183.5,-86.58"/>
<polygon fill="midnightblue" stroke="midnightblue" points="1180,-113.4 1183.5,-123.4 1187,-113.4 1180,-113.4"/>
</g>
<!-- Node17 -->
<g id="node17" class="node">
<title>Node17</title>
<g id="a_node17"><a xlink:href="apps_2serial_2reduced__lagrange_8cc.html" target="_top" xlink:title=" ">
<polygon fill="none" stroke="black" points="1261.5,-56.5 1261.5,-86.5 1373.5,-86.5 1373.5,-56.5 1261.5,-56.5"/>
<text text-anchor="start" x="1269.5" y="-74.5" font-family="Helvetica,sans-Serif" font-size="10.00">apps/serial/reduced</text>
<text text-anchor="middle" x="1317.5" y="-63.5" font-family="Helvetica,sans-Serif" font-size="10.00">_lagrange.cc</text>
</a>
</g>
</g>
<!-- Node15&#45;&gt;Node17 -->
<g id="edge16" class="edge">
<title>Node15&#45;&gt;Node17</title>
<path fill="none" stroke="midnightblue" d="M1221.65,-118.99C1242.89,-108.69 1268.91,-96.07 1288.48,-86.58"/>
<polygon fill="midnightblue" stroke="midnightblue" points="1220.05,-115.88 1212.58,-123.4 1223.1,-122.18 1220.05,-115.88"/>
</g>
<!-- Node19 -->
<g id="node19" class="node">
<title>Node19</title>
<g id="a_node19"><a xlink:href="source_2pdes_2serial_2stokes_8cc.html" target="_top" xlink:title=" ">
<polygon fill="none" stroke="black" points="1392,-56.5 1392,-86.5 1497,-86.5 1497,-56.5 1392,-56.5"/>
<text text-anchor="start" x="1400" y="-74.5" font-family="Helvetica,sans-Serif" font-size="10.00">source/pdes/serial</text>
<text text-anchor="middle" x="1444.5" y="-63.5" font-family="Helvetica,sans-Serif" font-size="10.00">/stokes.cc</text>
</a>
</g>
</g>
<!-- Node18&#45;&gt;Node19 -->
<g id="edge18" class="edge">
<title>Node18&#45;&gt;Node19</title>
<path fill="none" stroke="midnightblue" d="M1400.01,-116.31C1409.91,-106.56 1421.39,-95.26 1430.21,-86.58"/>
<polygon fill="midnightblue" stroke="midnightblue" points="1397.49,-113.89 1392.82,-123.4 1402.4,-118.87 1397.49,-113.89"/>
</g>
<!-- Node20 -->
<g id="node20" class="node">
<title>Node20</title>
<g id="a_node20"><a xlink:href="apps_2serial_2stokes_8cc.html" target="_top" xlink:title=" ">
<polygon fill="none" stroke="black" points="1515.5,-62 1515.5,-81 1633.5,-81 1633.5,-62 1515.5,-62"/>
<text text-anchor="middle" x="1574.5" y="-69" font-family="Helvetica,sans-Serif" font-size="10.00">apps/serial/stokes.cc</text>
</a>
</g>
</g>
<!-- Node18&#45;&gt;Node20 -->
<g id="edge19" class="edge">
<title>Node18&#45;&gt;Node20</title>
<path fill="none" stroke="midnightblue" d="M1430.94,-120.11C1469.08,-107.46 1519.04,-90.89 1548.85,-81.01"/>
<polygon fill="midnightblue" stroke="midnightblue" points="1429.42,-116.93 1421.03,-123.4 1431.62,-123.57 1429.42,-116.93"/>
</g>
</g>
</svg>
