<?xml version="1.0" encoding="UTF-8" standalone="no"?>
<!DOCTYPE svg PUBLIC "-//W3C//DTD SVG 1.1//EN"
 "http://www.w3.org/Graphics/SVG/1.1/DTD/svg11.dtd">
<!-- Generated by graphviz version 2.43.0 (0)
 -->
<!-- Title: source/boundary_conditions.cc Pages: 1 -->
<svg width="1967pt" height="363pt"
 viewBox="0.00 0.00 1967.46 363.00" xmlns="http://www.w3.org/2000/svg" xmlns:xlink="http://www.w3.org/1999/xlink">
<g id="graph0" class="graph" transform="scale(1 1) rotate(0) translate(4 359)">
<title>source/boundary_conditions.cc</title>
<!-- Node1 -->
<g id="node1" class="node">
<title>Node1</title>
<g id="a_node1"><a xlink:title=" ">
<polygon fill="#bfbfbf" stroke="black" points="955,-335.5 955,-354.5 1122,-354.5 1122,-335.5 955,-335.5"/>
<text text-anchor="middle" x="1038.5" y="-342.5" font-family="Helvetica,sans-Serif" font-size="10.00">source/boundary_conditions.cc</text>
</a>
</g>
</g>
<!-- Node2 -->
<g id="node2" class="node">
<title>Node2</title>
<g id="a_node2"><a xlink:href="boundary__conditions_8h.html" target="_top" xlink:title=" ">
<polygon fill="none" stroke="black" points="467.5,-268.5 467.5,-298.5 595.5,-298.5 595.5,-268.5 467.5,-268.5"/>
<text text-anchor="start" x="475.5" y="-286.5" font-family="Helvetica,sans-Serif" font-size="10.00">parsed_tools/boundary</text>
<text text-anchor="middle" x="531.5" y="-275.5" font-family="Helvetica,sans-Serif" font-size="10.00">_conditions.h</text>
</a>
</g>
</g>
<!-- Node1&#45;&gt;Node2 -->
<g id="edge1" class="edge">
<title>Node1&#45;&gt;Node2</title>
<path fill="none" stroke="midnightblue" d="M965.86,-335.48C870,-324.22 702.13,-304.53 605.56,-293.19"/>
<polygon fill="midnightblue" stroke="midnightblue" points="605.93,-289.71 595.59,-292.02 605.11,-296.66 605.93,-289.71"/>
</g>
<!-- Node11 -->
<g id="node11" class="node">
<title>Node11</title>
<g id="a_node11"><a xlink:href="components_8h.html" target="_top" xlink:title=" ">
<polygon fill="none" stroke="black" points="915,-207 915,-226 1066,-226 1066,-207 915,-207"/>
<text text-anchor="middle" x="990.5" y="-214" font-family="Helvetica,sans-Serif" font-size="10.00">parsed_tools/components.h</text>
</a>
</g>
</g>
<!-- Node1&#45;&gt;Node11 -->
<g id="edge36" class="edge">
<title>Node1&#45;&gt;Node11</title>
<path fill="none" stroke="midnightblue" d="M1035.2,-335.31C1027.46,-314.9 1007.99,-263.6 997.48,-235.91"/>
<polygon fill="midnightblue" stroke="midnightblue" points="1000.64,-234.36 993.82,-226.26 994.1,-236.85 1000.64,-234.36"/>
</g>
<!-- Node26 -->
<g id="node26" class="node">
<title>Node26</title>
<g id="a_node26"><a xlink:href="grid__info_8h.html" target="_top" xlink:title=" ">
<polygon fill="none" stroke="black" points="1652.5,-207 1652.5,-226 1786.5,-226 1786.5,-207 1652.5,-207"/>
<text text-anchor="middle" x="1719.5" y="-214" font-family="Helvetica,sans-Serif" font-size="10.00">parsed_tools/grid_info.h</text>
</a>
</g>
</g>
<!-- Node1&#45;&gt;Node26 -->
<g id="edge37" class="edge">
<title>Node1&#45;&gt;Node26</title>
<path fill="none" stroke="midnightblue" d="M1084.51,-335.45C1205.5,-312.98 1532.32,-252.27 1663.7,-227.87"/>
<polygon fill="midnightblue" stroke="midnightblue" points="1664.37,-231.3 1673.56,-226.03 1663.09,-224.42 1664.37,-231.3"/>
</g>
<!-- Node29 -->
<g id="node29" class="node">
<title>Node29</title>
<g id="a_node29"><a xlink:href="patterns__unsigned__int_8h.html" target="_top" xlink:title=" ">
<polygon fill="none" stroke="black" points="1084.5,-201.5 1084.5,-231.5 1206.5,-231.5 1206.5,-201.5 1084.5,-201.5"/>
<text text-anchor="start" x="1092.5" y="-219.5" font-family="Helvetica,sans-Serif" font-size="10.00">parsed_tools/patterns</text>
<text text-anchor="middle" x="1145.5" y="-208.5" font-family="Helvetica,sans-Serif" font-size="10.00">_unsigned_int.h</text>
</a>
</g>
</g>
<!-- Node1&#45;&gt;Node29 -->
<g id="edge38" class="edge">
<title>Node1&#45;&gt;Node29</title>
<path fill="none" stroke="midnightblue" d="M1045.85,-335.31C1062.36,-315.8 1102.76,-268.03 1126.75,-239.67"/>
<polygon fill="midnightblue" stroke="midnightblue" points="1129.54,-241.78 1133.33,-231.89 1124.2,-237.26 1129.54,-241.78"/>
</g>
<!-- Node3 -->
<g id="node3" class="node">
<title>Node3</title>
<g id="a_node3"><a xlink:href="http://www.dealii.org/developer/doxygen/deal.II/parameter__acceptor_8h.html.html" xlink:title=" ">
<polygon fill="none" stroke="black" points="0,-0.5 0,-30.5 127,-30.5 127,-0.5 0,-0.5"/>
<text text-anchor="start" x="8" y="-18.5" font-family="Helvetica,sans-Serif" font-size="10.00">deal.II/base/parameter</text>
<text text-anchor="middle" x="63.5" y="-7.5" font-family="Helvetica,sans-Serif" font-size="10.00">_acceptor.h</text>
</a>
</g>
</g>
<!-- Node2&#45;&gt;Node3 -->
<g id="edge2" class="edge">
<title>Node2&#45;&gt;Node3</title>
<path fill="none" stroke="midnightblue" d="M467.13,-279.48C350.6,-273.39 114.19,-257.97 87.5,-232 35.65,-181.56 48.12,-85.43 57.56,-40.61"/>
<polygon fill="midnightblue" stroke="midnightblue" points="61.02,-41.15 59.8,-30.63 54.19,-39.62 61.02,-41.15"/>
</g>
<!-- Node4 -->
<g id="node4" class="node">
<title>Node4</title>
<g id="a_node4"><a xlink:href="http://www.dealii.org/developer/doxygen/deal.II/symbolic__function_8h.html.html" xlink:title=" ">
<polygon fill="none" stroke="black" points="116.5,-134.5 116.5,-164.5 236.5,-164.5 236.5,-134.5 116.5,-134.5"/>
<text text-anchor="start" x="124.5" y="-152.5" font-family="Helvetica,sans-Serif" font-size="10.00">deal.II/base/symbolic</text>
<text text-anchor="middle" x="176.5" y="-141.5" font-family="Helvetica,sans-Serif" font-size="10.00">_function.h</text>
</a>
</g>
</g>
<!-- Node2&#45;&gt;Node4 -->
<g id="edge3" class="edge">
<title>Node2&#45;&gt;Node4</title>
<path fill="none" stroke="midnightblue" d="M467.41,-279.52C412.46,-274.83 332.44,-262.79 269.5,-232 261.45,-228.06 224.36,-194.61 199.52,-171.8"/>
<polygon fill="midnightblue" stroke="midnightblue" points="201.66,-169.02 191.93,-164.82 196.92,-174.17 201.66,-169.02"/>
</g>
<!-- Node7 -->
<g id="node7" class="node">
<title>Node7</title>
<g id="a_node7"><a xlink:href="http://www.dealii.org/developer/doxygen/deal.II/dof__handler_8h.html.html" xlink:title=" ">
<polygon fill="none" stroke="black" points="278.5,-207 278.5,-226 418.5,-226 418.5,-207 278.5,-207"/>
<text text-anchor="middle" x="348.5" y="-214" font-family="Helvetica,sans-Serif" font-size="10.00">deal.II/dofs/dof_handler.h</text>
</a>
</g>
</g>
<!-- Node2&#45;&gt;Node7 -->
<g id="edge7" class="edge">
<title>Node2&#45;&gt;Node7</title>
<path fill="none" stroke="midnightblue" d="M491.79,-268.4C458.97,-256.74 412.9,-240.37 381.94,-229.38"/>
<polygon fill="midnightblue" stroke="midnightblue" points="383.05,-226.06 372.45,-226.01 380.7,-232.65 383.05,-226.06"/>
</g>
<!-- Node8 -->
<g id="node8" class="node">
<title>Node8</title>
<g id="a_node8"><a xlink:href="http://www.dealii.org/developer/doxygen/deal.II/mapping_8h.html.html" xlink:title=" ">
<polygon fill="none" stroke="black" points="474.5,-207 474.5,-226 588.5,-226 588.5,-207 474.5,-207"/>
<text text-anchor="middle" x="531.5" y="-214" font-family="Helvetica,sans-Serif" font-size="10.00">deal.II/fe/mapping.h</text>
</a>
</g>
</g>
<!-- Node2&#45;&gt;Node8 -->
<g id="edge9" class="edge">
<title>Node2&#45;&gt;Node8</title>
<path fill="none" stroke="midnightblue" d="M531.5,-268.4C531.5,-259.06 531.5,-246.71 531.5,-236.52"/>
<polygon fill="midnightblue" stroke="midnightblue" points="535,-236.19 531.5,-226.19 528,-236.19 535,-236.19"/>
</g>
<!-- Node9 -->
<g id="node9" class="node">
<title>Node9</title>
<g id="a_node9"><a xlink:href="http://www.dealii.org/developer/doxygen/deal.II/affine__constraints_8h.html.html" xlink:title=" ">
<polygon fill="none" stroke="black" points="607,-201.5 607,-231.5 702,-231.5 702,-201.5 607,-201.5"/>
<text text-anchor="start" x="615" y="-219.5" font-family="Helvetica,sans-Serif" font-size="10.00">deal.II/lac/affine</text>
<text text-anchor="middle" x="654.5" y="-208.5" font-family="Helvetica,sans-Serif" font-size="10.00">_constraints.h</text>
</a>
</g>
</g>
<!-- Node2&#45;&gt;Node9 -->
<g id="edge10" class="edge">
<title>Node2&#45;&gt;Node9</title>
<path fill="none" stroke="midnightblue" d="M558.19,-268.4C576,-258.98 599.62,-246.5 619.01,-236.26"/>
<polygon fill="midnightblue" stroke="midnightblue" points="620.66,-239.34 627.86,-231.58 617.39,-233.15 620.66,-239.34"/>
</g>
<!-- Node10 -->
<g id="node10" class="node">
<title>Node10</title>
<g id="a_node10"><a xlink:href="http://www.dealii.org/developer/doxygen/deal.II/vector__tools_8h.html.html" xlink:title=" ">
<polygon fill="none" stroke="black" points="720.5,-201.5 720.5,-231.5 848.5,-231.5 848.5,-201.5 720.5,-201.5"/>
<text text-anchor="start" x="728.5" y="-219.5" font-family="Helvetica,sans-Serif" font-size="10.00">deal.II/numerics/vector</text>
<text text-anchor="middle" x="784.5" y="-208.5" font-family="Helvetica,sans-Serif" font-size="10.00">_tools.h</text>
</a>
</g>
</g>
<!-- Node2&#45;&gt;Node10 -->
<g id="edge11" class="edge">
<title>Node2&#45;&gt;Node10</title>
<path fill="none" stroke="midnightblue" d="M586.09,-268.48C625.35,-258.39 678.47,-244.74 719.86,-234.11"/>
<polygon fill="midnightblue" stroke="midnightblue" points="720.76,-237.49 729.58,-231.61 719.02,-230.71 720.76,-237.49"/>
</g>
<!-- Node2&#45;&gt;Node11 -->
<g id="edge12" class="edge">
<title>Node2&#45;&gt;Node11</title>
<path fill="none" stroke="midnightblue" d="M595.81,-273.39C681.33,-261.28 831.97,-239.95 920.35,-227.43"/>
<polygon fill="midnightblue" stroke="midnightblue" points="920.87,-230.9 930.28,-226.03 919.89,-223.96 920.87,-230.9"/>
</g>
<!-- Node22 -->
<g id="node22" class="node">
<title>Node22</title>
<g id="a_node22"><a xlink:href="enum_8h.html" target="_top" xlink:title=" ">
<polygon fill="none" stroke="black" points="293,-140 293,-159 412,-159 412,-140 293,-140"/>
<text text-anchor="middle" x="352.5" y="-147" font-family="Helvetica,sans-Serif" font-size="10.00">parsed_tools/enum.h</text>
</a>
</g>
</g>
<!-- Node2&#45;&gt;Node22 -->
<g id="edge27" class="edge">
<title>Node2&#45;&gt;Node22</title>
<path fill="none" stroke="midnightblue" d="M512.6,-268.29C499.34,-258.25 481.24,-244.43 465.5,-232 448.4,-218.49 445,-213.99 427.5,-201 410.17,-188.14 389.83,-174.53 374.7,-164.68"/>
<polygon fill="midnightblue" stroke="midnightblue" points="376.33,-161.57 366.03,-159.08 372.53,-167.45 376.33,-161.57"/>
</g>
<!-- Node2&#45;&gt;Node26 -->
<g id="edge28" class="edge">
<title>Node2&#45;&gt;Node26</title>
<path fill="none" stroke="midnightblue" d="M595.79,-278.98C798.37,-267.9 1422.91,-233.73 1642.32,-221.72"/>
<polygon fill="midnightblue" stroke="midnightblue" points="1642.66,-225.21 1652.46,-221.17 1642.28,-218.22 1642.66,-225.21"/>
</g>
<!-- Node28 -->
<g id="node28" class="node">
<title>Node28</title>
<g id="a_node28"><a xlink:href="symbolic__function_8h.html" target="_top" xlink:title=" ">
<polygon fill="none" stroke="black" points="96.5,-201.5 96.5,-231.5 222.5,-231.5 222.5,-201.5 96.5,-201.5"/>
<text text-anchor="start" x="104.5" y="-219.5" font-family="Helvetica,sans-Serif" font-size="10.00">parsed_tools/symbolic</text>
<text text-anchor="middle" x="159.5" y="-208.5" font-family="Helvetica,sans-Serif" font-size="10.00">_function.h</text>
</a>
</g>
</g>
<!-- Node2&#45;&gt;Node28 -->
<g id="edge32" class="edge">
<title>Node2&#45;&gt;Node28</title>
<path fill="none" stroke="midnightblue" d="M467.28,-271.82C407.49,-261.81 315.9,-246.27 236.5,-232 235.22,-231.77 233.93,-231.54 232.63,-231.3"/>
<polygon fill="midnightblue" stroke="midnightblue" points="232.98,-227.81 222.52,-229.45 231.72,-234.69 232.98,-227.81"/>
</g>
<!-- Node5 -->
<g id="node5" class="node">
<title>Node5</title>
<g id="a_node5"><a xlink:href="function_8h.html" target="_top" xlink:title=" ">
<polygon fill="none" stroke="black" points="125,-73 125,-92 250,-92 250,-73 125,-73"/>
<text text-anchor="middle" x="187.5" y="-80" font-family="Helvetica,sans-Serif" font-size="10.00">deal.II/base/function.h</text>
</a>
</g>
</g>
<!-- Node4&#45;&gt;Node5 -->
<g id="edge4" class="edge">
<title>Node4&#45;&gt;Node5</title>
<path fill="none" stroke="midnightblue" d="M178.89,-134.4C180.48,-124.96 182.6,-112.45 184.34,-102.19"/>
<polygon fill="midnightblue" stroke="midnightblue" points="187.81,-102.64 186.03,-92.19 180.91,-101.47 187.81,-102.64"/>
</g>
<!-- Node5&#45;&gt;Node3 -->
<g id="edge6" class="edge">
<title>Node5&#45;&gt;Node3</title>
<path fill="none" stroke="midnightblue" d="M171.03,-72.87C152.89,-63.36 123.14,-47.77 99.53,-35.39"/>
<polygon fill="midnightblue" stroke="midnightblue" points="100.98,-32.19 90.5,-30.65 97.73,-38.39 100.98,-32.19"/>
</g>
<!-- Node6 -->
<g id="node6" class="node">
<title>Node6</title>
<g id="a_node6"><a xlink:href="http://www.dealii.org/developer/doxygen/deal.II/function__parser_8h.html.html" xlink:title=" ">
<polygon fill="none" stroke="black" points="145.5,-0.5 145.5,-30.5 261.5,-30.5 261.5,-0.5 145.5,-0.5"/>
<text text-anchor="start" x="153.5" y="-18.5" font-family="Helvetica,sans-Serif" font-size="10.00">deal.II/base/function</text>
<text text-anchor="middle" x="203.5" y="-7.5" font-family="Helvetica,sans-Serif" font-size="10.00">_parser.h</text>
</a>
</g>
</g>
<!-- Node5&#45;&gt;Node6 -->
<g id="edge5" class="edge">
<title>Node5&#45;&gt;Node6</title>
<path fill="none" stroke="midnightblue" d="M189.66,-72.73C191.7,-64.46 194.84,-51.66 197.62,-40.37"/>
<polygon fill="midnightblue" stroke="midnightblue" points="201.04,-41.14 200.03,-30.59 194.24,-39.46 201.04,-41.14"/>
</g>
<!-- Node7&#45;&gt;Node5 -->
<g id="edge8" class="edge">
<title>Node7&#45;&gt;Node5</title>
<path fill="none" stroke="midnightblue" d="M337.09,-206.66C324.22,-196.67 302.72,-179.84 284.5,-165 256.57,-142.25 224.68,-115.26 205.32,-98.76"/>
<polygon fill="midnightblue" stroke="midnightblue" points="207.49,-96 197.61,-92.17 202.94,-101.32 207.49,-96"/>
</g>
<!-- Node12 -->
<g id="node12" class="node">
<title>Node12</title>
<g id="a_node12"><a xlink:href="http://www.dealii.org/developer/doxygen/deal.II/config_8h.html.html" xlink:title=" ">
<polygon fill="none" stroke="black" points="430,-140 430,-159 545,-159 545,-140 430,-140"/>
<text text-anchor="middle" x="487.5" y="-147" font-family="Helvetica,sans-Serif" font-size="10.00">deal.II/base/config.h</text>
</a>
</g>
</g>
<!-- Node11&#45;&gt;Node12 -->
<g id="edge13" class="edge">
<title>Node11&#45;&gt;Node12</title>
<path fill="none" stroke="midnightblue" d="M914.64,-207.12C799.19,-194.31 589.08,-170.73 554.5,-165 547.79,-163.89 540.75,-162.55 533.84,-161.15"/>
<polygon fill="midnightblue" stroke="midnightblue" points="534.39,-157.68 523.89,-159.05 532.95,-164.53 534.39,-157.68"/>
</g>
<!-- Node13 -->
<g id="node13" class="node">
<title>Node13</title>
<g id="a_node13"><a xlink:href="http://www.dealii.org/developer/doxygen/deal.II/include_2deal_8II_2base_2quadrature_8h.html.html" xlink:title=" ">
<polygon fill="none" stroke="black" points="1514.5,-140 1514.5,-159 1652.5,-159 1652.5,-140 1514.5,-140"/>
<text text-anchor="middle" x="1583.5" y="-147" font-family="Helvetica,sans-Serif" font-size="10.00">deal.II/base/quadrature.h</text>
</a>
</g>
</g>
<!-- Node11&#45;&gt;Node13 -->
<g id="edge14" class="edge">
<title>Node11&#45;&gt;Node13</title>
<path fill="none" stroke="midnightblue" d="M1036.27,-206.95C1048.94,-204.79 1062.73,-202.62 1075.5,-201 1265.75,-176.85 1315.43,-190.56 1505.5,-165 1514.04,-163.85 1523.06,-162.4 1531.81,-160.86"/>
<polygon fill="midnightblue" stroke="midnightblue" points="1532.71,-164.25 1541.93,-159.03 1531.47,-157.37 1532.71,-164.25"/>
</g>
<!-- Node14 -->
<g id="node14" class="node">
<title>Node14</title>
<g id="a_node14"><a xlink:href="http://www.dealii.org/developer/doxygen/deal.II/quadrature__lib_8h.html.html" xlink:title=" ">
<polygon fill="none" stroke="black" points="563,-134.5 563,-164.5 692,-164.5 692,-134.5 563,-134.5"/>
<text text-anchor="start" x="571" y="-152.5" font-family="Helvetica,sans-Serif" font-size="10.00">deal.II/base/quadrature</text>
<text text-anchor="middle" x="627.5" y="-141.5" font-family="Helvetica,sans-Serif" font-size="10.00">_lib.h</text>
</a>
</g>
</g>
<!-- Node11&#45;&gt;Node14 -->
<g id="edge15" class="edge">
<title>Node11&#45;&gt;Node14</title>
<path fill="none" stroke="midnightblue" d="M939.8,-206.96C884.14,-197.52 791.86,-181.65 702.14,-165.1"/>
<polygon fill="midnightblue" stroke="midnightblue" points="702.53,-161.61 692.06,-163.23 701.26,-168.49 702.53,-161.61"/>
</g>
<!-- Node15 -->
<g id="node15" class="node">
<title>Node15</title>
<g id="a_node15"><a xlink:href="http://www.dealii.org/developer/doxygen/deal.II/include_2deal_8II_2base_2utilities_8h.html.html" xlink:title=" ">
<polygon fill="none" stroke="black" points="710.5,-140 710.5,-159 832.5,-159 832.5,-140 710.5,-140"/>
<text text-anchor="middle" x="771.5" y="-147" font-family="Helvetica,sans-Serif" font-size="10.00">deal.II/base/utilities.h</text>
</a>
</g>
</g>
<!-- Node11&#45;&gt;Node15 -->
<g id="edge16" class="edge">
<title>Node11&#45;&gt;Node15</title>
<path fill="none" stroke="midnightblue" d="M961.42,-206.87C922.45,-195.3 853.2,-174.75 809.96,-161.91"/>
<polygon fill="midnightblue" stroke="midnightblue" points="810.94,-158.55 800.35,-159.06 808.94,-165.26 810.94,-158.55"/>
</g>
<!-- Node16 -->
<g id="node16" class="node">
<title>Node16</title>
<g id="a_node16"><a xlink:href="http://www.dealii.org/developer/doxygen/deal.II/component__mask_8h.html.html" xlink:title=" ">
<polygon fill="none" stroke="black" points="851,-134.5 851,-164.5 968,-164.5 968,-134.5 851,-134.5"/>
<text text-anchor="start" x="859" y="-152.5" font-family="Helvetica,sans-Serif" font-size="10.00">deal.II/fe/component</text>
<text text-anchor="middle" x="909.5" y="-141.5" font-family="Helvetica,sans-Serif" font-size="10.00">_mask.h</text>
</a>
</g>
</g>
<!-- Node11&#45;&gt;Node16 -->
<g id="edge17" class="edge">
<title>Node11&#45;&gt;Node16</title>
<path fill="none" stroke="midnightblue" d="M979.58,-206.73C968.21,-197.61 950,-183 935,-170.96"/>
<polygon fill="midnightblue" stroke="midnightblue" points="937.05,-168.12 927.06,-164.59 932.67,-173.58 937.05,-168.12"/>
</g>
<!-- Node17 -->
<g id="node17" class="node">
<title>Node17</title>
<g id="a_node17"><a xlink:href="http://www.dealii.org/developer/doxygen/deal.II/fe__dgq_8h.html.html" xlink:title=" ">
<polygon fill="none" stroke="black" points="986.5,-140 986.5,-159 1090.5,-159 1090.5,-140 986.5,-140"/>
<text text-anchor="middle" x="1038.5" y="-147" font-family="Helvetica,sans-Serif" font-size="10.00">deal.II/fe/fe_dgq.h</text>
</a>
</g>
</g>
<!-- Node11&#45;&gt;Node17 -->
<g id="edge18" class="edge">
<title>Node11&#45;&gt;Node17</title>
<path fill="none" stroke="midnightblue" d="M996.97,-206.73C1004.39,-196.7 1016.7,-180.01 1026,-167.42"/>
<polygon fill="midnightblue" stroke="midnightblue" points="1029,-169.25 1032.13,-159.13 1023.37,-165.09 1029,-169.25"/>
</g>
<!-- Node18 -->
<g id="node18" class="node">
<title>Node18</title>
<g id="a_node18"><a xlink:href="http://www.dealii.org/developer/doxygen/deal.II/fe__q_8h.html.html" xlink:title=" ">
<polygon fill="none" stroke="black" points="1108.5,-140 1108.5,-159 1200.5,-159 1200.5,-140 1108.5,-140"/>
<text text-anchor="middle" x="1154.5" y="-147" font-family="Helvetica,sans-Serif" font-size="10.00">deal.II/fe/fe_q.h</text>
</a>
</g>
</g>
<!-- Node11&#45;&gt;Node18 -->
<g id="edge19" class="edge">
<title>Node11&#45;&gt;Node18</title>
<path fill="none" stroke="midnightblue" d="M1012.28,-206.87C1040.78,-195.57 1090.93,-175.7 1123.42,-162.82"/>
<polygon fill="midnightblue" stroke="midnightblue" points="1124.89,-166 1132.89,-159.06 1122.31,-159.49 1124.89,-166"/>
</g>
<!-- Node19 -->
<g id="node19" class="node">
<title>Node19</title>
<g id="a_node19"><a xlink:href="http://www.dealii.org/developer/doxygen/deal.II/fe__simplex__p_8h.html.html" xlink:title=" ">
<polygon fill="none" stroke="black" points="1219,-140 1219,-159 1356,-159 1356,-140 1219,-140"/>
<text text-anchor="middle" x="1287.5" y="-147" font-family="Helvetica,sans-Serif" font-size="10.00">deal.II/fe/fe_simplex_p.h</text>
</a>
</g>
</g>
<!-- Node11&#45;&gt;Node19 -->
<g id="edge20" class="edge">
<title>Node11&#45;&gt;Node19</title>
<path fill="none" stroke="midnightblue" d="M1029.63,-206.94C1083.28,-195.2 1179.64,-174.11 1238.17,-161.3"/>
<polygon fill="midnightblue" stroke="midnightblue" points="1239.26,-164.64 1248.28,-159.08 1237.76,-157.8 1239.26,-164.64"/>
</g>
<!-- Node20 -->
<g id="node20" class="node">
<title>Node20</title>
<g id="a_node20"><a xlink:href="http://www.dealii.org/developer/doxygen/deal.II/fe__system_8h.html.html" xlink:title=" ">
<polygon fill="none" stroke="black" points="1374.5,-140 1374.5,-159 1496.5,-159 1496.5,-140 1374.5,-140"/>
<text text-anchor="middle" x="1435.5" y="-147" font-family="Helvetica,sans-Serif" font-size="10.00">deal.II/fe/fe_system.h</text>
</a>
</g>
</g>
<!-- Node11&#45;&gt;Node20 -->
<g id="edge21" class="edge">
<title>Node11&#45;&gt;Node20</title>
<path fill="none" stroke="midnightblue" d="M1038.09,-206.99C1050.27,-204.92 1063.36,-202.79 1075.5,-201 1203.99,-182.08 1237.36,-186.19 1365.5,-165 1372.41,-163.86 1379.68,-162.51 1386.8,-161.11"/>
<polygon fill="midnightblue" stroke="midnightblue" points="1387.98,-164.45 1397.09,-159.04 1386.6,-157.58 1387.98,-164.45"/>
</g>
<!-- Node21 -->
<g id="node21" class="node">
<title>Node21</title>
<g id="a_node21"><a xlink:href="http://www.dealii.org/developer/doxygen/deal.II/grid_2tria_8h.html.html" xlink:title=" ">
<polygon fill="none" stroke="black" points="1671,-140 1671,-159 1768,-159 1768,-140 1671,-140"/>
<text text-anchor="middle" x="1719.5" y="-147" font-family="Helvetica,sans-Serif" font-size="10.00">deal.II/grid/tria.h</text>
</a>
</g>
</g>
<!-- Node11&#45;&gt;Node21 -->
<g id="edge22" class="edge">
<title>Node11&#45;&gt;Node21</title>
<path fill="none" stroke="midnightblue" d="M1034.93,-206.99C1047.96,-204.75 1062.26,-202.53 1075.5,-201 1334.71,-171.02 1403.62,-204.81 1661.5,-165 1667.48,-164.08 1673.74,-162.82 1679.85,-161.43"/>
<polygon fill="midnightblue" stroke="midnightblue" points="1681.01,-164.76 1689.91,-159.01 1679.37,-157.95 1681.01,-164.76"/>
</g>
<!-- Node11&#45;&gt;Node22 -->
<g id="edge23" class="edge">
<title>Node11&#45;&gt;Node22</title>
<path fill="none" stroke="midnightblue" d="M915.62,-206.99C896.67,-204.93 876.34,-202.8 857.5,-201 663.95,-182.46 613.9,-193.05 421.5,-165 414.09,-163.92 406.28,-162.53 398.68,-161.03"/>
<polygon fill="midnightblue" stroke="midnightblue" points="399.37,-157.6 388.87,-159.03 397.97,-164.46 399.37,-157.6"/>
</g>
<!-- Node23 -->
<g id="node23" class="node">
<title>Node23</title>
<g id="a_node23"><a xlink:href="http://www.dealii.org/developer/doxygen/deal.II/patterns_8h.html.html" xlink:title=" ">
<polygon fill="none" stroke="black" points="1734,-73 1734,-92 1859,-92 1859,-73 1734,-73"/>
<text text-anchor="middle" x="1796.5" y="-80" font-family="Helvetica,sans-Serif" font-size="10.00">deal.II/base/patterns.h</text>
</a>
</g>
</g>
<!-- Node22&#45;&gt;Node23 -->
<g id="edge24" class="edge">
<title>Node22&#45;&gt;Node23</title>
<path fill="none" stroke="midnightblue" d="M387.41,-139.96C398.27,-137.63 410.32,-135.37 421.5,-134 677.01,-102.69 1476.91,-88.31 1723.43,-84.54"/>
<polygon fill="midnightblue" stroke="midnightblue" points="1723.76,-88.04 1733.71,-84.38 1723.66,-81.04 1723.76,-88.04"/>
</g>
<!-- Node24 -->
<g id="node24" class="node">
<title>Node24</title>
<g id="a_node24"><a xlink:href="http://www.dealii.org/developer/doxygen/deal.II/sd_8h.html.html" xlink:title=" ">
<polygon fill="none" stroke="black" points="276,-73 276,-92 419,-92 419,-73 276,-73"/>
<text text-anchor="middle" x="347.5" y="-80" font-family="Helvetica,sans-Serif" font-size="10.00">deal.II/differentiation/sd.h</text>
</a>
</g>
</g>
<!-- Node22&#45;&gt;Node24 -->
<g id="edge25" class="edge">
<title>Node22&#45;&gt;Node24</title>
<path fill="none" stroke="midnightblue" d="M351.83,-139.73C351.09,-130.18 349.89,-114.62 348.94,-102.28"/>
<polygon fill="midnightblue" stroke="midnightblue" points="352.42,-101.83 348.16,-92.13 345.44,-102.37 352.42,-101.83"/>
</g>
<!-- Node25 -->
<g id="node25" class="node">
<title>Node25</title>
<g id="a_node25"><a xlink:title=" ">
<polygon fill="none" stroke="#bfbfbf" points="437.5,-67.5 437.5,-97.5 549.5,-97.5 549.5,-67.5 437.5,-67.5"/>
<text text-anchor="start" x="445.5" y="-85.5" font-family="Helvetica,sans-Serif" font-size="10.00">parsed_tools/magic</text>
<text text-anchor="middle" x="493.5" y="-74.5" font-family="Helvetica,sans-Serif" font-size="10.00">_enum.hpp</text>
</a>
</g>
</g>
<!-- Node22&#45;&gt;Node25 -->
<g id="edge26" class="edge">
<title>Node22&#45;&gt;Node25</title>
<path fill="none" stroke="midnightblue" d="M371.22,-139.87C392.2,-130.2 426.8,-114.25 453.85,-101.78"/>
<polygon fill="midnightblue" stroke="midnightblue" points="455.45,-104.89 463.07,-97.53 452.52,-98.54 455.45,-104.89"/>
</g>
<!-- Node26&#45;&gt;Node21 -->
<g id="edge31" class="edge">
<title>Node26&#45;&gt;Node21</title>
<path fill="none" stroke="midnightblue" d="M1719.5,-206.73C1719.5,-197.18 1719.5,-181.62 1719.5,-169.28"/>
<polygon fill="midnightblue" stroke="midnightblue" points="1723,-169.13 1719.5,-159.13 1716,-169.13 1723,-169.13"/>
</g>
<!-- Node26&#45;&gt;Node23 -->
<g id="edge29" class="edge">
<title>Node26&#45;&gt;Node23</title>
<path fill="none" stroke="midnightblue" d="M1786.77,-210.08C1847.75,-203.61 1931.1,-190.32 1951.5,-165 1981.35,-127.95 1916.77,-105.74 1862.06,-94.07"/>
<polygon fill="midnightblue" stroke="midnightblue" points="1862.49,-90.59 1851.99,-92.02 1861.09,-97.44 1862.49,-90.59"/>
</g>
<!-- Node27 -->
<g id="node27" class="node">
<title>Node27</title>
<g id="a_node27"><a xlink:href="http://www.dealii.org/developer/doxygen/deal.II/reference__cell_8h.html.html" xlink:title=" ">
<polygon fill="none" stroke="black" points="1824.5,-134.5 1824.5,-164.5 1942.5,-164.5 1942.5,-134.5 1824.5,-134.5"/>
<text text-anchor="start" x="1832.5" y="-152.5" font-family="Helvetica,sans-Serif" font-size="10.00">deal.II/grid/reference</text>
<text text-anchor="middle" x="1883.5" y="-141.5" font-family="Helvetica,sans-Serif" font-size="10.00">_cell.h</text>
</a>
</g>
</g>
<!-- Node26&#45;&gt;Node27 -->
<g id="edge30" class="edge">
<title>Node26&#45;&gt;Node27</title>
<path fill="none" stroke="midnightblue" d="M1741.28,-206.87C1765.99,-197.07 1806.98,-180.83 1838.62,-168.29"/>
<polygon fill="midnightblue" stroke="midnightblue" points="1840.1,-171.47 1848.11,-164.53 1837.52,-164.96 1840.1,-171.47"/>
</g>
<!-- Node28&#45;&gt;Node3 -->
<g id="edge34" class="edge">
<title>Node28&#45;&gt;Node3</title>
<path fill="none" stroke="midnightblue" d="M140.77,-201.44C129.65,-192.2 116.1,-179.21 107.5,-165 83.45,-125.25 71.82,-71.51 66.8,-40.77"/>
<polygon fill="midnightblue" stroke="midnightblue" points="70.21,-39.91 65.24,-30.56 63.29,-40.97 70.21,-39.91"/>
</g>
<!-- Node28&#45;&gt;Node4 -->
<g id="edge35" class="edge">
<title>Node28&#45;&gt;Node4</title>
<path fill="none" stroke="midnightblue" d="M163.19,-201.4C165.26,-193.47 167.9,-183.38 170.28,-174.27"/>
<polygon fill="midnightblue" stroke="midnightblue" points="173.67,-175.14 172.82,-164.58 166.9,-173.37 173.67,-175.14"/>
</g>
<!-- Node28&#45;&gt;Node12 -->
<g id="edge33" class="edge">
<title>Node28&#45;&gt;Node12</title>
<path fill="none" stroke="midnightblue" d="M222.59,-203.81C275.71,-193.86 353.67,-178.98 421.5,-165 427.31,-163.8 433.41,-162.51 439.45,-161.21"/>
<polygon fill="midnightblue" stroke="midnightblue" points="440.47,-164.57 449.49,-159.03 438.98,-157.73 440.47,-164.57"/>
</g>
<!-- Node29&#45;&gt;Node12 -->
<g id="edge39" class="edge">
<title>Node29&#45;&gt;Node12</title>
<path fill="none" stroke="midnightblue" d="M1084.12,-202.3C1081.21,-201.82 1078.33,-201.39 1075.5,-201 845.56,-169.39 784.3,-197.63 554.5,-165 547.29,-163.98 539.7,-162.61 532.32,-161.13"/>
<polygon fill="midnightblue" stroke="midnightblue" points="532.95,-157.69 522.45,-159.06 531.52,-164.54 532.95,-157.69"/>
</g>
<!-- Node29&#45;&gt;Node23 -->
<g id="edge40" class="edge">
<title>Node29&#45;&gt;Node23</title>
<path fill="none" stroke="midnightblue" d="M1206.76,-214.65C1357.04,-212 1734.85,-201.71 1777.5,-165 1795.36,-149.62 1798.22,-121 1797.91,-102.1"/>
<polygon fill="midnightblue" stroke="midnightblue" points="1801.4,-101.85 1797.44,-92.03 1794.41,-102.18 1801.4,-101.85"/>
</g>
</g>
</svg>
