<?xml version="1.0" encoding="UTF-8" standalone="no"?>
<!DOCTYPE svg PUBLIC "-//W3C//DTD SVG 1.1//EN"
 "http://www.w3.org/Graphics/SVG/1.1/DTD/svg11.dtd">
<!-- Generated by graphviz version 2.43.0 (0)
 -->
<!-- Title: include/parsed_tools/boundary_conditions.h Pages: 1 -->
<svg width="1961pt" height="240pt"
 viewBox="0.00 0.00 1961.00 240.00" xmlns="http://www.w3.org/2000/svg" xmlns:xlink="http://www.w3.org/1999/xlink">
<g id="graph0" class="graph" transform="scale(1 1) rotate(0) translate(4 236)">
<title>include/parsed_tools/boundary_conditions.h</title>
<!-- Node1 -->
<g id="node1" class="node">
<title>Node1</title>
<g id="a_node1"><a xlink:title=" ">
<polygon fill="#bfbfbf" stroke="black" points="1234,-201.5 1234,-231.5 1364,-231.5 1364,-201.5 1234,-201.5"/>
<text text-anchor="start" x="1242" y="-219.5" font-family="Helvetica,sans-Serif" font-size="10.00">include/parsed_tools</text>
<text text-anchor="middle" x="1299" y="-208.5" font-family="Helvetica,sans-Serif" font-size="10.00">/boundary_conditions.h</text>
</a>
</g>
</g>
<!-- Node2 -->
<g id="node2" class="node">
<title>Node2</title>
<g id="a_node2"><a xlink:href="linear__problem_8h.html" target="_top" xlink:title=" ">
<polygon fill="none" stroke="black" points="408.5,-134.5 408.5,-164.5 539.5,-164.5 539.5,-134.5 408.5,-134.5"/>
<text text-anchor="start" x="416.5" y="-152.5" font-family="Helvetica,sans-Serif" font-size="10.00">include/pdes/mpi/linear</text>
<text text-anchor="middle" x="474" y="-141.5" font-family="Helvetica,sans-Serif" font-size="10.00">_problem.h</text>
</a>
</g>
</g>
<!-- Node1&#45;&gt;Node2 -->
<g id="edge1" class="edge">
<title>Node1&#45;&gt;Node2</title>
<path fill="none" stroke="midnightblue" d="M1223.67,-209.56C1063.35,-196.93 690.71,-167.57 539.5,-155.66"/>
<polygon fill="midnightblue" stroke="midnightblue" points="1223.68,-213.08 1233.92,-210.37 1224.23,-206.1 1223.68,-213.08"/>
</g>
<!-- Node10 -->
<g id="node10" class="node">
<title>Node10</title>
<g id="a_node10"><a xlink:href="distributed__lagrange_8h.html" target="_top" xlink:title=" ">
<polygon fill="none" stroke="black" points="784.5,-134.5 784.5,-164.5 913.5,-164.5 913.5,-134.5 784.5,-134.5"/>
<text text-anchor="start" x="792.5" y="-152.5" font-family="Helvetica,sans-Serif" font-size="10.00">include/pdes/serial</text>
<text text-anchor="middle" x="849" y="-141.5" font-family="Helvetica,sans-Serif" font-size="10.00">/distributed_lagrange.h</text>
</a>
</g>
</g>
<!-- Node1&#45;&gt;Node10 -->
<g id="edge9" class="edge">
<title>Node1&#45;&gt;Node10</title>
<path fill="none" stroke="midnightblue" d="M1223.52,-204.6C1136.75,-192.06 995.77,-171.7 913.78,-159.86"/>
<polygon fill="midnightblue" stroke="midnightblue" points="1223.17,-208.08 1233.57,-206.05 1224.17,-201.15 1223.17,-208.08"/>
</g>
<!-- Node13 -->
<g id="node13" class="node">
<title>Node13</title>
<g id="a_node13"><a xlink:href="serial_2linear__elasticity_8h.html" target="_top" xlink:title=" ">
<polygon fill="none" stroke="black" points="1055,-134.5 1055,-164.5 1163,-164.5 1163,-134.5 1055,-134.5"/>
<text text-anchor="start" x="1063" y="-152.5" font-family="Helvetica,sans-Serif" font-size="10.00">include/pdes/serial</text>
<text text-anchor="middle" x="1109" y="-141.5" font-family="Helvetica,sans-Serif" font-size="10.00">/linear_elasticity.h</text>
</a>
</g>
</g>
<!-- Node1&#45;&gt;Node13 -->
<g id="edge12" class="edge">
<title>Node1&#45;&gt;Node13</title>
<path fill="none" stroke="midnightblue" d="M1248.11,-198.09C1217.44,-187.6 1178.89,-174.41 1150.15,-164.58"/>
<polygon fill="midnightblue" stroke="midnightblue" points="1247.18,-201.47 1257.77,-201.4 1249.44,-194.85 1247.18,-201.47"/>
</g>
<!-- Node16 -->
<g id="node16" class="node">
<title>Node16</title>
<g id="a_node16"><a xlink:href="serial_2poisson_8h.html" target="_top" xlink:title=" ">
<polygon fill="none" stroke="black" points="1245,-134.5 1245,-164.5 1353,-164.5 1353,-134.5 1245,-134.5"/>
<text text-anchor="start" x="1253" y="-152.5" font-family="Helvetica,sans-Serif" font-size="10.00">include/pdes/serial</text>
<text text-anchor="middle" x="1299" y="-141.5" font-family="Helvetica,sans-Serif" font-size="10.00">/poisson.h</text>
</a>
</g>
</g>
<!-- Node1&#45;&gt;Node16 -->
<g id="edge15" class="edge">
<title>Node1&#45;&gt;Node16</title>
<path fill="none" stroke="midnightblue" d="M1299,-191.11C1299,-182.15 1299,-172.32 1299,-164.58"/>
<polygon fill="midnightblue" stroke="midnightblue" points="1295.5,-191.4 1299,-201.4 1302.5,-191.4 1295.5,-191.4"/>
</g>
<!-- Node19 -->
<g id="node19" class="node">
<title>Node19</title>
<g id="a_node19"><a xlink:href="reduced__lagrange_8h.html" target="_top" xlink:title=" ">
<polygon fill="none" stroke="black" points="1445,-134.5 1445,-164.5 1561,-164.5 1561,-134.5 1445,-134.5"/>
<text text-anchor="start" x="1453" y="-152.5" font-family="Helvetica,sans-Serif" font-size="10.00">include/pdes/serial</text>
<text text-anchor="middle" x="1503" y="-141.5" font-family="Helvetica,sans-Serif" font-size="10.00">/reduced_lagrange.h</text>
</a>
</g>
</g>
<!-- Node1&#45;&gt;Node19 -->
<g id="edge18" class="edge">
<title>Node1&#45;&gt;Node19</title>
<path fill="none" stroke="midnightblue" d="M1352.96,-198.31C1385.96,-187.79 1427.66,-174.51 1458.71,-164.61"/>
<polygon fill="midnightblue" stroke="midnightblue" points="1351.48,-195.11 1343.01,-201.48 1353.6,-201.77 1351.48,-195.11"/>
</g>
<!-- Node22 -->
<g id="node22" class="node">
<title>Node22</title>
<g id="a_node22"><a xlink:href="stokes_8h.html" target="_top" xlink:title=" ">
<polygon fill="none" stroke="black" points="1644,-134.5 1644,-164.5 1752,-164.5 1752,-134.5 1644,-134.5"/>
<text text-anchor="start" x="1652" y="-152.5" font-family="Helvetica,sans-Serif" font-size="10.00">include/pdes/serial</text>
<text text-anchor="middle" x="1698" y="-141.5" font-family="Helvetica,sans-Serif" font-size="10.00">/stokes.h</text>
</a>
</g>
</g>
<!-- Node1&#45;&gt;Node22 -->
<g id="edge21" class="edge">
<title>Node1&#45;&gt;Node22</title>
<path fill="none" stroke="midnightblue" d="M1374.76,-203.16C1453.33,-190.36 1574.22,-170.66 1643.75,-159.34"/>
<polygon fill="midnightblue" stroke="midnightblue" points="1373.75,-199.78 1364.44,-204.84 1374.87,-206.69 1373.75,-199.78"/>
</g>
<!-- Node25 -->
<g id="node25" class="node">
<title>Node25</title>
<g id="a_node25"><a xlink:href="boundary__conditions_8cc.html" target="_top" xlink:title=" ">
<polygon fill="none" stroke="black" points="1770.5,-140 1770.5,-159 1937.5,-159 1937.5,-140 1770.5,-140"/>
<text text-anchor="middle" x="1854" y="-147" font-family="Helvetica,sans-Serif" font-size="10.00">source/boundary_conditions.cc</text>
</a>
</g>
</g>
<!-- Node1&#45;&gt;Node25 -->
<g id="edge24" class="edge">
<title>Node1&#45;&gt;Node25</title>
<path fill="none" stroke="midnightblue" d="M1374.15,-208.35C1465.68,-199.4 1624.92,-183.04 1761,-165 1774.28,-163.24 1788.6,-161.12 1801.92,-159.05"/>
<polygon fill="midnightblue" stroke="midnightblue" points="1373.76,-204.87 1364.15,-209.33 1374.44,-211.84 1373.76,-204.87"/>
</g>
<!-- Node3 -->
<g id="node3" class="node">
<title>Node3</title>
<g id="a_node3"><a xlink:href="mpi_2linear__elasticity_8h.html" target="_top" xlink:title=" ">
<polygon fill="none" stroke="black" points="158.5,-67.5 158.5,-97.5 289.5,-97.5 289.5,-67.5 158.5,-67.5"/>
<text text-anchor="start" x="166.5" y="-85.5" font-family="Helvetica,sans-Serif" font-size="10.00">include/pdes/mpi/linear</text>
<text text-anchor="middle" x="224" y="-74.5" font-family="Helvetica,sans-Serif" font-size="10.00">_elasticity.h</text>
</a>
</g>
</g>
<!-- Node2&#45;&gt;Node3 -->
<g id="edge2" class="edge">
<title>Node2&#45;&gt;Node3</title>
<path fill="none" stroke="midnightblue" d="M410.22,-131.92C369.42,-121.31 317.07,-107.7 278.27,-97.61"/>
<polygon fill="midnightblue" stroke="midnightblue" points="409.5,-135.35 420.06,-134.48 411.26,-128.57 409.5,-135.35"/>
</g>
<!-- Node6 -->
<g id="node6" class="node">
<title>Node6</title>
<g id="a_node6"><a xlink:href="mpi_2poisson_8h.html" target="_top" xlink:title=" ">
<polygon fill="none" stroke="black" points="320.5,-73 320.5,-92 469.5,-92 469.5,-73 320.5,-73"/>
<text text-anchor="middle" x="395" y="-80" font-family="Helvetica,sans-Serif" font-size="10.00">include/pdes/mpi/poisson.h</text>
</a>
</g>
</g>
<!-- Node2&#45;&gt;Node6 -->
<g id="edge5" class="edge">
<title>Node2&#45;&gt;Node6</title>
<path fill="none" stroke="midnightblue" d="M449.09,-128.01C434.43,-115.94 416.64,-101.3 405.57,-92.19"/>
<polygon fill="midnightblue" stroke="midnightblue" points="446.91,-130.75 456.86,-134.4 451.36,-125.34 446.91,-130.75"/>
</g>
<!-- Node9 -->
<g id="node9" class="node">
<title>Node9</title>
<g id="a_node9"><a xlink:href="linear__problem_8cc.html" target="_top" xlink:title=" ">
<polygon fill="none" stroke="black" points="488,-67.5 488,-97.5 616,-97.5 616,-67.5 488,-67.5"/>
<text text-anchor="start" x="496" y="-85.5" font-family="Helvetica,sans-Serif" font-size="10.00">source/pdes/mpi/linear</text>
<text text-anchor="middle" x="552" y="-74.5" font-family="Helvetica,sans-Serif" font-size="10.00">_problem.cc</text>
</a>
</g>
</g>
<!-- Node2&#45;&gt;Node9 -->
<g id="edge8" class="edge">
<title>Node2&#45;&gt;Node9</title>
<path fill="none" stroke="midnightblue" d="M498.74,-127.88C510.59,-118.01 524.48,-106.43 535.11,-97.58"/>
<polygon fill="midnightblue" stroke="midnightblue" points="496.37,-125.31 490.92,-134.4 500.85,-130.68 496.37,-125.31"/>
</g>
<!-- Node4 -->
<g id="node4" class="node">
<title>Node4</title>
<g id="a_node4"><a xlink:href="source_2pdes_2mpi_2linear__elasticity_8cc.html" target="_top" xlink:title=" ">
<polygon fill="none" stroke="black" points="0,-0.5 0,-30.5 128,-30.5 128,-0.5 0,-0.5"/>
<text text-anchor="start" x="8" y="-18.5" font-family="Helvetica,sans-Serif" font-size="10.00">source/pdes/mpi/linear</text>
<text text-anchor="middle" x="64" y="-7.5" font-family="Helvetica,sans-Serif" font-size="10.00">_elasticity.cc</text>
</a>
</g>
</g>
<!-- Node3&#45;&gt;Node4 -->
<g id="edge3" class="edge">
<title>Node3&#45;&gt;Node4</title>
<path fill="none" stroke="midnightblue" d="M179.8,-63.54C154.2,-53.14 122.43,-40.24 98.65,-30.58"/>
<polygon fill="midnightblue" stroke="midnightblue" points="178.7,-66.87 189.28,-67.4 181.34,-60.39 178.7,-66.87"/>
</g>
<!-- Node5 -->
<g id="node5" class="node">
<title>Node5</title>
<g id="a_node5"><a xlink:href="apps_2mpi_2linear__elasticity_8cc.html" target="_top" xlink:title=" ">
<polygon fill="none" stroke="black" points="146.5,-6 146.5,-25 301.5,-25 301.5,-6 146.5,-6"/>
<text text-anchor="middle" x="224" y="-13" font-family="Helvetica,sans-Serif" font-size="10.00">apps/mpi/linear_elasticity.cc</text>
</a>
</g>
</g>
<!-- Node3&#45;&gt;Node5 -->
<g id="edge4" class="edge">
<title>Node3&#45;&gt;Node5</title>
<path fill="none" stroke="midnightblue" d="M224,-57.25C224,-46.02 224,-33.38 224,-25.19"/>
<polygon fill="midnightblue" stroke="midnightblue" points="220.5,-57.4 224,-67.4 227.5,-57.4 220.5,-57.4"/>
</g>
<!-- Node7 -->
<g id="node7" class="node">
<title>Node7</title>
<g id="a_node7"><a xlink:href="source_2pdes_2mpi_2poisson_8cc.html" target="_top" xlink:title=" ">
<polygon fill="none" stroke="black" points="319.5,-6 319.5,-25 470.5,-25 470.5,-6 319.5,-6"/>
<text text-anchor="middle" x="395" y="-13" font-family="Helvetica,sans-Serif" font-size="10.00">source/pdes/mpi/poisson.cc</text>
</a>
</g>
</g>
<!-- Node6&#45;&gt;Node7 -->
<g id="edge6" class="edge">
<title>Node6&#45;&gt;Node7</title>
<path fill="none" stroke="midnightblue" d="M395,-62.54C395,-50.17 395,-34.62 395,-25.13"/>
<polygon fill="midnightblue" stroke="midnightblue" points="391.5,-62.73 395,-72.73 398.5,-62.73 391.5,-62.73"/>
</g>
<!-- Node8 -->
<g id="node8" class="node">
<title>Node8</title>
<g id="a_node8"><a xlink:href="apps_2mpi_2poisson_8cc.html" target="_top" xlink:title=" ">
<polygon fill="none" stroke="black" points="489,-6 489,-25 605,-25 605,-6 489,-6"/>
<text text-anchor="middle" x="547" y="-13" font-family="Helvetica,sans-Serif" font-size="10.00">apps/mpi/poisson.cc</text>
</a>
</g>
</g>
<!-- Node6&#45;&gt;Node8 -->
<g id="edge7" class="edge">
<title>Node6&#45;&gt;Node8</title>
<path fill="none" stroke="midnightblue" d="M424.74,-68.78C454.84,-55.91 500.57,-36.35 526.73,-25.17"/>
<polygon fill="midnightblue" stroke="midnightblue" points="423,-65.72 415.18,-72.87 425.76,-72.15 423,-65.72"/>
</g>
<!-- Node11 -->
<g id="node11" class="node">
<title>Node11</title>
<g id="a_node11"><a xlink:href="source_2pdes_2serial_2distributed__lagrange_8cc.html" target="_top" xlink:title=" ">
<polygon fill="none" stroke="black" points="634,-67.5 634,-97.5 768,-97.5 768,-67.5 634,-67.5"/>
<text text-anchor="start" x="642" y="-85.5" font-family="Helvetica,sans-Serif" font-size="10.00">source/pdes/serial</text>
<text text-anchor="middle" x="701" y="-74.5" font-family="Helvetica,sans-Serif" font-size="10.00">/distributed_lagrange.cc</text>
</a>
</g>
</g>
<!-- Node10&#45;&gt;Node11 -->
<g id="edge10" class="edge">
<title>Node10&#45;&gt;Node11</title>
<path fill="none" stroke="midnightblue" d="M807.49,-130.27C783.92,-119.92 754.86,-107.15 733.05,-97.58"/>
<polygon fill="midnightblue" stroke="midnightblue" points="806.32,-133.58 816.89,-134.4 809.14,-127.17 806.32,-133.58"/>
</g>
<!-- Node12 -->
<g id="node12" class="node">
<title>Node12</title>
<g id="a_node12"><a xlink:href="apps_2serial_2distributed__lagrange_8cc.html" target="_top" xlink:title=" ">
<polygon fill="none" stroke="black" points="786.5,-67.5 786.5,-97.5 911.5,-97.5 911.5,-67.5 786.5,-67.5"/>
<text text-anchor="start" x="794.5" y="-85.5" font-family="Helvetica,sans-Serif" font-size="10.00">apps/serial/distributed</text>
<text text-anchor="middle" x="849" y="-74.5" font-family="Helvetica,sans-Serif" font-size="10.00">_lagrange.cc</text>
</a>
</g>
</g>
<!-- Node10&#45;&gt;Node12 -->
<g id="edge11" class="edge">
<title>Node10&#45;&gt;Node12</title>
<path fill="none" stroke="midnightblue" d="M849,-124.11C849,-115.15 849,-105.32 849,-97.58"/>
<polygon fill="midnightblue" stroke="midnightblue" points="845.5,-124.4 849,-134.4 852.5,-124.4 845.5,-124.4"/>
</g>
<!-- Node14 -->
<g id="node14" class="node">
<title>Node14</title>
<g id="a_node14"><a xlink:href="source_2pdes_2serial_2linear__elasticity_8cc.html" target="_top" xlink:title=" ">
<polygon fill="none" stroke="black" points="930,-67.5 930,-97.5 1040,-97.5 1040,-67.5 930,-67.5"/>
<text text-anchor="start" x="938" y="-85.5" font-family="Helvetica,sans-Serif" font-size="10.00">source/pdes/serial</text>
<text text-anchor="middle" x="985" y="-74.5" font-family="Helvetica,sans-Serif" font-size="10.00">/linear_elasticity.cc</text>
</a>
</g>
</g>
<!-- Node13&#45;&gt;Node14 -->
<g id="edge13" class="edge">
<title>Node13&#45;&gt;Node14</title>
<path fill="none" stroke="midnightblue" d="M1073.16,-129.71C1053.61,-119.46 1029.8,-106.98 1011.85,-97.58"/>
<polygon fill="midnightblue" stroke="midnightblue" points="1071.61,-132.85 1082.09,-134.4 1074.86,-126.65 1071.61,-132.85"/>
</g>
<!-- Node15 -->
<g id="node15" class="node">
<title>Node15</title>
<g id="a_node15"><a xlink:href="apps_2serial_2linear__elasticity_8cc.html" target="_top" xlink:title=" ">
<polygon fill="none" stroke="black" points="1058.5,-67.5 1058.5,-97.5 1159.5,-97.5 1159.5,-67.5 1058.5,-67.5"/>
<text text-anchor="start" x="1066.5" y="-85.5" font-family="Helvetica,sans-Serif" font-size="10.00">apps/serial/linear</text>
<text text-anchor="middle" x="1109" y="-74.5" font-family="Helvetica,sans-Serif" font-size="10.00">_elasticity.cc</text>
</a>
</g>
</g>
<!-- Node13&#45;&gt;Node15 -->
<g id="edge14" class="edge">
<title>Node13&#45;&gt;Node15</title>
<path fill="none" stroke="midnightblue" d="M1109,-124.11C1109,-115.15 1109,-105.32 1109,-97.58"/>
<polygon fill="midnightblue" stroke="midnightblue" points="1105.5,-124.4 1109,-134.4 1112.5,-124.4 1105.5,-124.4"/>
</g>
<!-- Node17 -->
<g id="node17" class="node">
<title>Node17</title>
<g id="a_node17"><a xlink:href="source_2pdes_2serial_2poisson_8cc.html" target="_top" xlink:title=" ">
<polygon fill="none" stroke="black" points="1177.5,-67.5 1177.5,-97.5 1282.5,-97.5 1282.5,-67.5 1177.5,-67.5"/>
<text text-anchor="start" x="1185.5" y="-85.5" font-family="Helvetica,sans-Serif" font-size="10.00">source/pdes/serial</text>
<text text-anchor="middle" x="1230" y="-74.5" font-family="Helvetica,sans-Serif" font-size="10.00">/poisson.cc</text>
</a>
</g>
</g>
<!-- Node16&#45;&gt;Node17 -->
<g id="edge16" class="edge">
<title>Node16&#45;&gt;Node17</title>
<path fill="none" stroke="midnightblue" d="M1276.51,-127.31C1266.16,-117.56 1254.16,-106.26 1244.94,-97.58"/>
<polygon fill="midnightblue" stroke="midnightblue" points="1274.35,-130.09 1284.03,-134.4 1279.15,-124.99 1274.35,-130.09"/>
</g>
<!-- Node18 -->
<g id="node18" class="node">
<title>Node18</title>
<g id="a_node18"><a xlink:href="apps_2serial_2poisson_8cc.html" target="_top" xlink:title=" ">
<polygon fill="none" stroke="black" points="1301,-73 1301,-92 1425,-92 1425,-73 1301,-73"/>
<text text-anchor="middle" x="1363" y="-80" font-family="Helvetica,sans-Serif" font-size="10.00">apps/serial/poisson.cc</text>
</a>
</g>
</g>
<!-- Node16&#45;&gt;Node18 -->
<g id="edge17" class="edge">
<title>Node16&#45;&gt;Node18</title>
<path fill="none" stroke="midnightblue" d="M1320.17,-127C1331.85,-115.13 1345.72,-101.05 1354.44,-92.19"/>
<polygon fill="midnightblue" stroke="midnightblue" points="1317.41,-124.81 1312.89,-134.4 1322.4,-129.73 1317.41,-124.81"/>
</g>
<!-- Node20 -->
<g id="node20" class="node">
<title>Node20</title>
<g id="a_node20"><a xlink:href="source_2pdes_2serial_2reduced__lagrange_8cc.html" target="_top" xlink:title=" ">
<polygon fill="none" stroke="black" points="1443,-67.5 1443,-97.5 1563,-97.5 1563,-67.5 1443,-67.5"/>
<text text-anchor="start" x="1451" y="-85.5" font-family="Helvetica,sans-Serif" font-size="10.00">source/pdes/serial</text>
<text text-anchor="middle" x="1503" y="-74.5" font-family="Helvetica,sans-Serif" font-size="10.00">/reduced_lagrange.cc</text>
</a>
</g>
</g>
<!-- Node19&#45;&gt;Node20 -->
<g id="edge19" class="edge">
<title>Node19&#45;&gt;Node20</title>
<path fill="none" stroke="midnightblue" d="M1503,-124.11C1503,-115.15 1503,-105.32 1503,-97.58"/>
<polygon fill="midnightblue" stroke="midnightblue" points="1499.5,-124.4 1503,-134.4 1506.5,-124.4 1499.5,-124.4"/>
</g>
<!-- Node21 -->
<g id="node21" class="node">
<title>Node21</title>
<g id="a_node21"><a xlink:href="apps_2serial_2reduced__lagrange_8cc.html" target="_top" xlink:title=" ">
<polygon fill="none" stroke="black" points="1581,-67.5 1581,-97.5 1693,-97.5 1693,-67.5 1581,-67.5"/>
<text text-anchor="start" x="1589" y="-85.5" font-family="Helvetica,sans-Serif" font-size="10.00">apps/serial/reduced</text>
<text text-anchor="middle" x="1637" y="-74.5" font-family="Helvetica,sans-Serif" font-size="10.00">_lagrange.cc</text>
</a>
</g>
</g>
<!-- Node19&#45;&gt;Node21 -->
<g id="edge20" class="edge">
<title>Node19&#45;&gt;Node21</title>
<path fill="none" stroke="midnightblue" d="M1541.15,-129.99C1562.39,-119.69 1588.41,-107.07 1607.98,-97.58"/>
<polygon fill="midnightblue" stroke="midnightblue" points="1539.55,-126.88 1532.08,-134.4 1542.6,-133.18 1539.55,-126.88"/>
</g>
<!-- Node23 -->
<g id="node23" class="node">
<title>Node23</title>
<g id="a_node23"><a xlink:href="source_2pdes_2serial_2stokes_8cc.html" target="_top" xlink:title=" ">
<polygon fill="none" stroke="black" points="1711.5,-67.5 1711.5,-97.5 1816.5,-97.5 1816.5,-67.5 1711.5,-67.5"/>
<text text-anchor="start" x="1719.5" y="-85.5" font-family="Helvetica,sans-Serif" font-size="10.00">source/pdes/serial</text>
<text text-anchor="middle" x="1764" y="-74.5" font-family="Helvetica,sans-Serif" font-size="10.00">/stokes.cc</text>
</a>
</g>
</g>
<!-- Node22&#45;&gt;Node23 -->
<g id="edge22" class="edge">
<title>Node22&#45;&gt;Node23</title>
<path fill="none" stroke="midnightblue" d="M1719.51,-127.31C1729.41,-117.56 1740.89,-106.26 1749.71,-97.58"/>
<polygon fill="midnightblue" stroke="midnightblue" points="1716.99,-124.89 1712.32,-134.4 1721.9,-129.87 1716.99,-124.89"/>
</g>
<!-- Node24 -->
<g id="node24" class="node">
<title>Node24</title>
<g id="a_node24"><a xlink:href="apps_2serial_2stokes_8cc.html" target="_top" xlink:title=" ">
<polygon fill="none" stroke="black" points="1835,-73 1835,-92 1953,-92 1953,-73 1835,-73"/>
<text text-anchor="middle" x="1894" y="-80" font-family="Helvetica,sans-Serif" font-size="10.00">apps/serial/stokes.cc</text>
</a>
</g>
</g>
<!-- Node22&#45;&gt;Node24 -->
<g id="edge23" class="edge">
<title>Node22&#45;&gt;Node24</title>
<path fill="none" stroke="midnightblue" d="M1750.44,-131.11C1788.58,-118.46 1838.54,-101.89 1868.35,-92.01"/>
<polygon fill="midnightblue" stroke="midnightblue" points="1748.92,-127.93 1740.53,-134.4 1751.12,-134.57 1748.92,-127.93"/>
</g>
</g>
</svg>
