<?xml version="1.0" encoding="UTF-8" standalone="no"?>
<!DOCTYPE svg PUBLIC "-//W3C//DTD SVG 1.1//EN"
 "http://www.w3.org/Graphics/SVG/1.1/DTD/svg11.dtd">
<!-- Generated by graphviz version 2.43.0 (0)
 -->
<!-- Title: ParsedLAC::PETScAMGPreconditioner Pages: 1 -->
<svg width="299pt" height="207pt"
 viewBox="0.00 0.00 298.50 207.00" xmlns="http://www.w3.org/2000/svg" xmlns:xlink="http://www.w3.org/1999/xlink">
<g id="graph0" class="graph" transform="scale(1 1) rotate(0) translate(4 203)">
<title>ParsedLAC::PETScAMGPreconditioner</title>
<!-- Node1 -->
<g id="node1" class="node">
<title>Node1</title>
<g id="a_node1"><a xlink:title="A parsed AMG preconditioner which uses parameter files to choose between different options.">
<polygon fill="#bfbfbf" stroke="black" points="32,-0.5 32,-19.5 230,-19.5 230,-0.5 32,-0.5"/>
<text text-anchor="middle" x="131" y="-7.5" font-family="Helvetica,sans-Serif" font-size="10.00">ParsedLAC::PETScAMGPreconditioner</text>
</a>
</g>
</g>
<!-- Node2 -->
<g id="node2" class="node">
<title>Node2</title>
<g id="a_node2"><a xlink:href="http://www.dealii.org/developer/doxygen/deal.II/classParameterAcceptor.html" xlink:title=" ">
<polygon fill="none" stroke="black" points="0,-62 0,-81 110,-81 110,-62 0,-62"/>
<text text-anchor="middle" x="55" y="-69" font-family="Helvetica,sans-Serif" font-size="10.00">ParameterAcceptor</text>
</a>
</g>
</g>
<!-- Node2&#45;&gt;Node1 -->
<g id="edge1" class="edge">
<title>Node2&#45;&gt;Node1</title>
<path fill="none" stroke="midnightblue" d="M73.78,-55.79C88.36,-44.38 108.06,-28.96 120.13,-19.51"/>
<polygon fill="midnightblue" stroke="midnightblue" points="71.61,-53.05 65.89,-61.98 75.92,-58.57 71.61,-53.05"/>
</g>
<!-- Node3 -->
<g id="node3" class="node">
<title>Node3</title>
<g id="a_node3"><a xlink:href="http://www.dealii.org/developer/doxygen/deal.II/classSubscriptor.html" xlink:title=" ">
<polygon fill="none" stroke="black" points="95.5,-179.5 95.5,-198.5 166.5,-198.5 166.5,-179.5 95.5,-179.5"/>
<text text-anchor="middle" x="131" y="-186.5" font-family="Helvetica,sans-Serif" font-size="10.00">Subscriptor</text>
</a>
</g>
</g>
<!-- Node3&#45;&gt;Node2 -->
<g id="edge2" class="edge">
<title>Node3&#45;&gt;Node2</title>
<path fill="none" stroke="midnightblue" d="M118.04,-171.04C111.81,-162.71 104.34,-152.46 98,-143 83.48,-121.32 67.87,-94.83 60.06,-81.33"/>
<polygon fill="midnightblue" stroke="midnightblue" points="115.38,-173.33 124.2,-179.19 120.96,-169.11 115.38,-173.33"/>
</g>
<!-- Node5 -->
<g id="node5" class="node">
<title>Node5</title>
<g id="a_node5"><a xlink:href="http://www.dealii.org/developer/doxygen/deal.II/classPETScWrappers_1_1PreconditionBase.html" xlink:title=" ">
<polygon fill="none" stroke="black" points="107.5,-123.5 107.5,-142.5 290.5,-142.5 290.5,-123.5 107.5,-123.5"/>
<text text-anchor="middle" x="199" y="-130.5" font-family="Helvetica,sans-Serif" font-size="10.00">PETScWrappers::PreconditionBase</text>
</a>
</g>
</g>
<!-- Node3&#45;&gt;Node5 -->
<g id="edge5" class="edge">
<title>Node3&#45;&gt;Node5</title>
<path fill="none" stroke="midnightblue" d="M149.76,-173.1C162,-163.38 177.56,-151.03 187.88,-142.83"/>
<polygon fill="midnightblue" stroke="midnightblue" points="147.58,-170.36 141.93,-179.32 151.93,-175.85 147.58,-170.36"/>
</g>
<!-- Node4 -->
<g id="node4" class="node">
<title>Node4</title>
<g id="a_node4"><a xlink:href="http://www.dealii.org/developer/doxygen/deal.II/classPETScWrappers_1_1PreconditionBoomerAMG.html" xlink:title=" ">
<polygon fill="none" stroke="black" points="128.5,-56.5 128.5,-86.5 287.5,-86.5 287.5,-56.5 128.5,-56.5"/>
<text text-anchor="start" x="136.5" y="-74.5" font-family="Helvetica,sans-Serif" font-size="10.00">PETScWrappers::Precondition</text>
<text text-anchor="middle" x="208" y="-63.5" font-family="Helvetica,sans-Serif" font-size="10.00">BoomerAMG</text>
</a>
</g>
</g>
<!-- Node4&#45;&gt;Node1 -->
<g id="edge3" class="edge">
<title>Node4&#45;&gt;Node1</title>
<path fill="none" stroke="midnightblue" d="M181.71,-50.19C168.23,-39.77 152.52,-27.63 142.2,-19.66"/>
<polygon fill="midnightblue" stroke="midnightblue" points="179.7,-53.05 189.75,-56.4 183.98,-47.52 179.7,-53.05"/>
</g>
<!-- Node5&#45;&gt;Node4 -->
<g id="edge4" class="edge">
<title>Node5&#45;&gt;Node4</title>
<path fill="none" stroke="midnightblue" d="M201.79,-113.53C203.11,-104.81 204.66,-94.59 205.88,-86.52"/>
<polygon fill="midnightblue" stroke="midnightblue" points="198.32,-113.06 200.29,-123.48 205.25,-114.11 198.32,-113.06"/>
</g>
</g>
</svg>
