<?xml version="1.0" encoding="UTF-8" standalone="no"?>
<!DOCTYPE svg PUBLIC "-//W3C//DTD SVG 1.1//EN"
 "http://www.w3.org/Graphics/SVG/1.1/DTD/svg11.dtd">
<!-- Generated by graphviz version 2.43.0 (0)
 -->
<!-- Title: Tools::ParsedFunction&lt; dim &gt; Pages: 1 -->
<svg width="272pt" height="274pt"
 viewBox="0.00 0.00 271.50 274.00" xmlns="http://www.w3.org/2000/svg" xmlns:xlink="http://www.w3.org/1999/xlink">
<g id="graph0" class="graph" transform="scale(1 1) rotate(0) translate(4 270)">
<title>Tools::ParsedFunction&lt; dim &gt;</title>
<!-- Node1 -->
<g id="node1" class="node">
<title>Node1</title>
<g id="a_node1"><a xlink:title="A wrapper for the FunctionParser class.">
<polygon fill="#bfbfbf" stroke="black" points="63,-0.5 63,-30.5 185,-30.5 185,-0.5 63,-0.5"/>
<text text-anchor="start" x="71" y="-18.5" font-family="Helvetica,sans-Serif" font-size="10.00">Tools::ParsedFunction</text>
<text text-anchor="middle" x="124" y="-7.5" font-family="Helvetica,sans-Serif" font-size="10.00">&lt; dim &gt;</text>
</a>
</g>
</g>
<!-- Node2 -->
<g id="node2" class="node">
<title>Node2</title>
<g id="a_node2"><a xlink:href="http://www.dealii.org/developer/doxygen/deal.II/classParameterAcceptor.html" xlink:title=" ">
<polygon fill="none" stroke="black" points="0,-129 0,-148 110,-148 110,-129 0,-129"/>
<text text-anchor="middle" x="55" y="-136" font-family="Helvetica,sans-Serif" font-size="10.00">ParameterAcceptor</text>
</a>
</g>
</g>
<!-- Node2&#45;&gt;Node1 -->
<g id="edge1" class="edge">
<title>Node2&#45;&gt;Node1</title>
<path fill="none" stroke="midnightblue" d="M64.98,-119.99C78.77,-95.82 103.35,-52.72 115.99,-30.54"/>
<polygon fill="midnightblue" stroke="midnightblue" points="61.88,-118.38 59.96,-128.8 67.96,-121.84 61.88,-118.38"/>
</g>
<!-- Node3 -->
<g id="node3" class="node">
<title>Node3</title>
<g id="a_node3"><a xlink:href="http://www.dealii.org/developer/doxygen/deal.II/classSubscriptor.html" xlink:title=" ">
<polygon fill="none" stroke="black" points="29.5,-246.5 29.5,-265.5 100.5,-265.5 100.5,-246.5 29.5,-246.5"/>
<text text-anchor="middle" x="65" y="-253.5" font-family="Helvetica,sans-Serif" font-size="10.00">Subscriptor</text>
</a>
</g>
</g>
<!-- Node3&#45;&gt;Node2 -->
<g id="edge2" class="edge">
<title>Node3&#45;&gt;Node2</title>
<path fill="none" stroke="midnightblue" d="M63.37,-236.16C61.18,-210.87 57.38,-166.94 55.76,-148.28"/>
<polygon fill="midnightblue" stroke="midnightblue" points="59.9,-236.66 64.25,-246.32 66.87,-236.05 59.9,-236.66"/>
</g>
<!-- Node6 -->
<g id="node6" class="node">
<title>Node6</title>
<g id="a_node6"><a xlink:href="http://www.dealii.org/developer/doxygen/deal.II/classFunction.html" xlink:title=" ">
<polygon fill="none" stroke="black" points="142.5,-190.5 142.5,-209.5 241.5,-209.5 241.5,-190.5 142.5,-190.5"/>
<text text-anchor="middle" x="192" y="-197.5" font-family="Helvetica,sans-Serif" font-size="10.00">Function&lt; dim &gt;</text>
</a>
</g>
</g>
<!-- Node3&#45;&gt;Node6 -->
<g id="edge7" class="edge">
<title>Node3&#45;&gt;Node6</title>
<path fill="none" stroke="midnightblue" d="M94.39,-242.5C118.2,-232.38 151.11,-218.39 171.97,-209.52"/>
<polygon fill="midnightblue" stroke="midnightblue" points="92.96,-239.31 85.12,-246.44 95.7,-245.75 92.96,-239.31"/>
</g>
<!-- Node4 -->
<g id="node4" class="node">
<title>Node4</title>
<g id="a_node4"><a xlink:href="http://www.dealii.org/developer/doxygen/deal.II/classFunctionParser.html" xlink:title=" ">
<polygon fill="none" stroke="black" points="117,-67.5 117,-86.5 247,-86.5 247,-67.5 117,-67.5"/>
<text text-anchor="middle" x="182" y="-74.5" font-family="Helvetica,sans-Serif" font-size="10.00">FunctionParser&lt; dim &gt;</text>
</a>
</g>
</g>
<!-- Node4&#45;&gt;Node1 -->
<g id="edge3" class="edge">
<title>Node4&#45;&gt;Node1</title>
<path fill="none" stroke="midnightblue" d="M166.49,-60.09C157.51,-50.88 146.32,-39.39 137.67,-30.52"/>
<polygon fill="midnightblue" stroke="midnightblue" points="164.2,-62.76 173.69,-67.48 169.22,-57.87 164.2,-62.76"/>
</g>
<!-- Node5 -->
<g id="node5" class="node">
<title>Node5</title>
<g id="a_node5"><a xlink:href="http://www.dealii.org/developer/doxygen/deal.II/classAutoDerivativeFunction.html" xlink:title=" ">
<polygon fill="none" stroke="black" points="128.5,-123.5 128.5,-153.5 259.5,-153.5 259.5,-123.5 128.5,-123.5"/>
<text text-anchor="start" x="136.5" y="-141.5" font-family="Helvetica,sans-Serif" font-size="10.00">AutoDerivativeFunction</text>
<text text-anchor="middle" x="194" y="-130.5" font-family="Helvetica,sans-Serif" font-size="10.00">&lt; dim &gt;</text>
</a>
</g>
</g>
<!-- Node5&#45;&gt;Node4 -->
<g id="edge4" class="edge">
<title>Node5&#45;&gt;Node4</title>
<path fill="none" stroke="midnightblue" d="M189.18,-113.59C187.26,-104.08 185.17,-93.73 183.75,-86.66"/>
<polygon fill="midnightblue" stroke="midnightblue" points="185.75,-114.29 191.16,-123.4 192.61,-112.9 185.75,-114.29"/>
</g>
<!-- Node6&#45;&gt;Node5 -->
<g id="edge5" class="edge">
<title>Node6&#45;&gt;Node5</title>
<path fill="none" stroke="midnightblue" d="M192.63,-180.23C192.92,-171.59 193.26,-161.5 193.53,-153.52"/>
<polygon fill="midnightblue" stroke="midnightblue" points="189.12,-180.36 192.29,-190.48 196.12,-180.6 189.12,-180.36"/>
</g>
<!-- Node7 -->
<g id="node7" class="node">
<title>Node7</title>
<g id="a_node7"><a xlink:href="http://www.dealii.org/developer/doxygen/deal.II/classFunctionTime.html" xlink:title=" ">
<polygon fill="none" stroke="black" points="120.5,-246.5 120.5,-265.5 263.5,-265.5 263.5,-246.5 120.5,-246.5"/>
<text text-anchor="middle" x="192" y="-253.5" font-family="Helvetica,sans-Serif" font-size="10.00">FunctionTime&lt; Number &gt;</text>
</a>
</g>
</g>
<!-- Node7&#45;&gt;Node6 -->
<g id="edge6" class="edge">
<title>Node7&#45;&gt;Node6</title>
<path fill="none" stroke="midnightblue" d="M192,-235.8C192,-226.91 192,-216.78 192,-209.75"/>
<polygon fill="midnightblue" stroke="midnightblue" points="188.5,-236.08 192,-246.08 195.5,-236.08 188.5,-236.08"/>
</g>
</g>
</svg>
