<?xml version="1.0" encoding="UTF-8" standalone="no"?>
<!DOCTYPE svg PUBLIC "-//W3C//DTD SVG 1.1//EN"
 "http://www.w3.org/Graphics/SVG/1.1/DTD/svg11.dtd">
<!-- Generated by graphviz version 2.43.0 (0)
 -->
<!-- Title: PDEs::MPI::LinearProblem&lt; dim, spacedim &gt; Pages: 1 -->
<svg width="150pt" height="151pt"
 viewBox="0.00 0.00 150.00 151.00" xmlns="http://www.w3.org/2000/svg" xmlns:xlink="http://www.w3.org/1999/xlink">
<g id="graph0" class="graph" transform="scale(1 1) rotate(0) translate(4 147)">
<title>PDEs::MPI::LinearProblem&lt; dim, spacedim &gt;</title>
<!-- Node1 -->
<g id="node1" class="node">
<title>Node1</title>
<g id="a_node1"><a xlink:title="Construct a LinearProblem.">
<polygon fill="#bfbfbf" stroke="black" points="0,-0.5 0,-30.5 142,-30.5 142,-0.5 0,-0.5"/>
<text text-anchor="start" x="8" y="-18.5" font-family="Helvetica,sans-Serif" font-size="10.00">PDEs::MPI::LinearProblem</text>
<text text-anchor="middle" x="71" y="-7.5" font-family="Helvetica,sans-Serif" font-size="10.00">&lt; dim, spacedim &gt;</text>
</a>
</g>
</g>
<!-- Node2 -->
<g id="node2" class="node">
<title>Node2</title>
<g id="a_node2"><a xlink:href="http://www.dealii.org/developer/doxygen/deal.II/classParameterAcceptor.html" xlink:title=" ">
<polygon fill="none" stroke="black" points="16,-67.5 16,-86.5 126,-86.5 126,-67.5 16,-67.5"/>
<text text-anchor="middle" x="71" y="-74.5" font-family="Helvetica,sans-Serif" font-size="10.00">ParameterAcceptor</text>
</a>
</g>
</g>
<!-- Node2&#45;&gt;Node1 -->
<g id="edge1" class="edge">
<title>Node2&#45;&gt;Node1</title>
<path fill="none" stroke="midnightblue" d="M71,-57.23C71,-48.59 71,-38.5 71,-30.52"/>
<polygon fill="midnightblue" stroke="midnightblue" points="67.5,-57.48 71,-67.48 74.5,-57.48 67.5,-57.48"/>
</g>
<!-- Node3 -->
<g id="node3" class="node">
<title>Node3</title>
<g id="a_node3"><a xlink:href="http://www.dealii.org/developer/doxygen/deal.II/classSubscriptor.html" xlink:title=" ">
<polygon fill="none" stroke="black" points="35.5,-123.5 35.5,-142.5 106.5,-142.5 106.5,-123.5 35.5,-123.5"/>
<text text-anchor="middle" x="71" y="-130.5" font-family="Helvetica,sans-Serif" font-size="10.00">Subscriptor</text>
</a>
</g>
</g>
<!-- Node3&#45;&gt;Node2 -->
<g id="edge2" class="edge">
<title>Node3&#45;&gt;Node2</title>
<path fill="none" stroke="midnightblue" d="M71,-112.8C71,-103.91 71,-93.78 71,-86.75"/>
<polygon fill="midnightblue" stroke="midnightblue" points="67.5,-113.08 71,-123.08 74.5,-113.08 67.5,-113.08"/>
</g>
</g>
</svg>
