<?xml version="1.0" encoding="UTF-8" standalone="no"?>
<!DOCTYPE svg PUBLIC "-//W3C//DTD SVG 1.1//EN"
 "http://www.w3.org/Graphics/SVG/1.1/DTD/svg11.dtd">
<!-- Generated by graphviz version 2.43.0 (0)
 -->
<!-- Title: ParsedLAC::JacobiPreconditioner Pages: 1 -->
<svg width="303pt" height="207pt"
 viewBox="0.00 0.00 303.00 207.00" xmlns="http://www.w3.org/2000/svg" xmlns:xlink="http://www.w3.org/1999/xlink">
<g id="graph0" class="graph" transform="scale(1 1) rotate(0) translate(4 203)">
<title>ParsedLAC::JacobiPreconditioner</title>
<!-- Node1 -->
<g id="node1" class="node">
<title>Node1</title>
<g id="a_node1"><a xlink:title="A parsed Jacobi preconditioner which uses parameter files to choose between different options.">
<polygon fill="#bfbfbf" stroke="black" points="45,-0.5 45,-19.5 219,-19.5 219,-0.5 45,-0.5"/>
<text text-anchor="middle" x="132" y="-7.5" font-family="Helvetica,sans-Serif" font-size="10.00">ParsedLAC::JacobiPreconditioner</text>
</a>
</g>
</g>
<!-- Node2 -->
<g id="node2" class="node">
<title>Node2</title>
<g id="a_node2"><a target="_parent" xlink:href="http://www.dealii.org/developer/doxygen/deal.II/classParameterAcceptor.html" xlink:title=" ">
<polygon fill="none" stroke="black" points="0,-62 0,-81 110,-81 110,-62 0,-62"/>
<text text-anchor="middle" x="55" y="-69" font-family="Helvetica,sans-Serif" font-size="10.00">ParameterAcceptor</text>
</a>
</g>
</g>
<!-- Node2&#45;&gt;Node1 -->
<g id="edge1" class="edge">
<title>Node2&#45;&gt;Node1</title>
<path fill="none" stroke="midnightblue" d="M74.03,-55.79C88.8,-44.38 108.76,-28.96 120.99,-19.51"/>
<polygon fill="midnightblue" stroke="midnightblue" points="71.81,-53.09 66.03,-61.98 76.09,-58.63 71.81,-53.09"/>
</g>
<!-- Node3 -->
<g id="node3" class="node">
<title>Node3</title>
<g id="a_node3"><a target="_parent" xlink:href="http://www.dealii.org/developer/doxygen/deal.II/classSubscriptor.html" xlink:title=" ">
<polygon fill="none" stroke="black" points="96.5,-179.5 96.5,-198.5 167.5,-198.5 167.5,-179.5 96.5,-179.5"/>
<text text-anchor="middle" x="132" y="-186.5" font-family="Helvetica,sans-Serif" font-size="10.00">Subscriptor</text>
</a>
</g>
</g>
<!-- Node3&#45;&gt;Node2 -->
<g id="edge2" class="edge">
<title>Node3&#45;&gt;Node2</title>
<path fill="none" stroke="midnightblue" d="M118.6,-171.09C112.16,-162.77 104.47,-152.51 98,-143 83.32,-121.43 67.78,-94.89 60.02,-81.36"/>
<polygon fill="midnightblue" stroke="midnightblue" points="116.04,-173.51 124.96,-179.23 121.55,-169.19 116.04,-173.51"/>
</g>
<!-- Node5 -->
<g id="node5" class="node">
<title>Node5</title>
<g id="a_node5"><a target="_parent" xlink:href="http://www.dealii.org/developer/doxygen/deal.II/classTrilinosWrappers_1_1PreconditionBase.html" xlink:title=" ">
<polygon fill="none" stroke="black" points="107,-123.5 107,-142.5 295,-142.5 295,-123.5 107,-123.5"/>
<text text-anchor="middle" x="201" y="-130.5" font-family="Helvetica,sans-Serif" font-size="10.00">TrilinosWrappers::PreconditionBase</text>
</a>
</g>
</g>
<!-- Node3&#45;&gt;Node5 -->
<g id="edge5" class="edge">
<title>Node3&#45;&gt;Node5</title>
<path fill="none" stroke="midnightblue" d="M151.04,-173.1C163.46,-163.38 179.24,-151.03 189.71,-142.83"/>
<polygon fill="midnightblue" stroke="midnightblue" points="148.8,-170.4 143.09,-179.32 153.12,-175.92 148.8,-170.4"/>
</g>
<!-- Node4 -->
<g id="node4" class="node">
<title>Node4</title>
<g id="a_node4"><a target="_parent" xlink:href="http://www.dealii.org/developer/doxygen/deal.II/classTrilinosWrappers_1_1PreconditionJacobi.html" xlink:title=" ">
<polygon fill="none" stroke="black" points="128,-56.5 128,-86.5 292,-86.5 292,-56.5 128,-56.5"/>
<text text-anchor="start" x="136" y="-74.5" font-family="Helvetica,sans-Serif" font-size="10.00">TrilinosWrappers::Precondition</text>
<text text-anchor="middle" x="210" y="-63.5" font-family="Helvetica,sans-Serif" font-size="10.00">Jacobi</text>
</a>
</g>
</g>
<!-- Node4&#45;&gt;Node1 -->
<g id="edge3" class="edge">
<title>Node4&#45;&gt;Node1</title>
<path fill="none" stroke="midnightblue" d="M183.37,-50.19C169.72,-39.77 153.8,-27.63 143.35,-19.66"/>
<polygon fill="midnightblue" stroke="midnightblue" points="181.44,-53.12 191.52,-56.4 185.69,-47.55 181.44,-53.12"/>
</g>
<!-- Node5&#45;&gt;Node4 -->
<g id="edge4" class="edge">
<title>Node5&#45;&gt;Node4</title>
<path fill="none" stroke="midnightblue" d="M203.79,-113.53C205.11,-104.81 206.66,-94.59 207.88,-86.52"/>
<polygon fill="midnightblue" stroke="midnightblue" points="200.32,-113.06 202.29,-123.48 207.25,-114.11 200.32,-113.06"/>
</g>
</g>
</svg>
