<?xml version="1.0" encoding="UTF-8" standalone="no"?>
<!DOCTYPE svg PUBLIC "-//W3C//DTD SVG 1.1//EN"
 "http://www.w3.org/Graphics/SVG/1.1/DTD/svg11.dtd">
<!-- Generated by graphviz version 2.43.0 (0)
 -->
<!-- Title: PDEs::MPI::Poisson&lt; dim, spacedim &gt; Pages: 1 -->
<svg width="170pt" height="218pt"
 viewBox="0.00 0.00 170.00 218.00" xmlns="http://www.w3.org/2000/svg" xmlns:xlink="http://www.w3.org/1999/xlink">
<g id="graph0" class="graph" transform="scale(1 1) rotate(0) translate(4 214)">
<title>PDEs::MPI::Poisson&lt; dim, spacedim &gt;</title>
<!-- Node1 -->
<g id="node1" class="node">
<title>Node1</title>
<g id="a_node1"><a xlink:title="Solve the Poisson problem, in parallel.">
<polygon fill="#bfbfbf" stroke="black" points="25.5,-0.5 25.5,-30.5 136.5,-30.5 136.5,-0.5 25.5,-0.5"/>
<text text-anchor="start" x="33.5" y="-18.5" font-family="Helvetica,sans-Serif" font-size="10.00">PDEs::MPI::Poisson</text>
<text text-anchor="middle" x="81" y="-7.5" font-family="Helvetica,sans-Serif" font-size="10.00">&lt; dim, spacedim &gt;</text>
</a>
</g>
</g>
<!-- Node2 -->
<g id="node2" class="node">
<title>Node2</title>
<g id="a_node2"><a xlink:href="class_p_d_es_1_1_linear_problem.html" target="_top" xlink:title=" ">
<polygon fill="none" stroke="black" points="0,-67.5 0,-97.5 162,-97.5 162,-67.5 0,-67.5"/>
<text text-anchor="start" x="8" y="-85.5" font-family="Helvetica,sans-Serif" font-size="10.00">PDEs::LinearProblem</text>
<text text-anchor="middle" x="81" y="-74.5" font-family="Helvetica,sans-Serif" font-size="10.00">&lt; dim, dim, LAC::LATrilinos &gt;</text>
</a>
</g>
</g>
<!-- Node2&#45;&gt;Node1 -->
<g id="edge1" class="edge">
<title>Node2&#45;&gt;Node1</title>
<path fill="none" stroke="midnightblue" d="M81,-57.11C81,-48.15 81,-38.32 81,-30.58"/>
<polygon fill="midnightblue" stroke="midnightblue" points="77.5,-57.4 81,-67.4 84.5,-57.4 77.5,-57.4"/>
</g>
<!-- Node3 -->
<g id="node3" class="node">
<title>Node3</title>
<g id="a_node3"><a xlink:href="http://www.dealii.org/developer/doxygen/deal.II/classParameterAcceptor.html" xlink:title=" ">
<polygon fill="none" stroke="black" points="26,-134.5 26,-153.5 136,-153.5 136,-134.5 26,-134.5"/>
<text text-anchor="middle" x="81" y="-141.5" font-family="Helvetica,sans-Serif" font-size="10.00">ParameterAcceptor</text>
</a>
</g>
</g>
<!-- Node3&#45;&gt;Node2 -->
<g id="edge2" class="edge">
<title>Node3&#45;&gt;Node2</title>
<path fill="none" stroke="midnightblue" d="M81,-124.23C81,-115.59 81,-105.5 81,-97.52"/>
<polygon fill="midnightblue" stroke="midnightblue" points="77.5,-124.48 81,-134.48 84.5,-124.48 77.5,-124.48"/>
</g>
<!-- Node4 -->
<g id="node4" class="node">
<title>Node4</title>
<g id="a_node4"><a xlink:href="http://www.dealii.org/developer/doxygen/deal.II/classSubscriptor.html" xlink:title=" ">
<polygon fill="none" stroke="black" points="45.5,-190.5 45.5,-209.5 116.5,-209.5 116.5,-190.5 45.5,-190.5"/>
<text text-anchor="middle" x="81" y="-197.5" font-family="Helvetica,sans-Serif" font-size="10.00">Subscriptor</text>
</a>
</g>
</g>
<!-- Node4&#45;&gt;Node3 -->
<g id="edge3" class="edge">
<title>Node4&#45;&gt;Node3</title>
<path fill="none" stroke="midnightblue" d="M81,-179.8C81,-170.91 81,-160.78 81,-153.75"/>
<polygon fill="midnightblue" stroke="midnightblue" points="77.5,-180.08 81,-190.08 84.5,-180.08 77.5,-180.08"/>
</g>
</g>
</svg>
