<?xml version="1.0" encoding="UTF-8" standalone="no"?>
<!DOCTYPE svg PUBLIC "-//W3C//DTD SVG 1.1//EN"
 "http://www.w3.org/Graphics/SVG/1.1/DTD/svg11.dtd">
<!-- Generated by graphviz version 2.43.0 (0)
 -->
<!-- Title: ParsedLAC::ILUPreconditioner Pages: 1 -->
<svg width="316pt" height="196pt"
 viewBox="0.00 0.00 316.00 196.00" xmlns="http://www.w3.org/2000/svg" xmlns:xlink="http://www.w3.org/1999/xlink">
<g id="graph0" class="graph" transform="scale(1 1) rotate(0) translate(4 192)">
<title>ParsedLAC::ILUPreconditioner</title>
<!-- Node1 -->
<g id="node1" class="node">
<title>Node1</title>
<g id="a_node1"><a xlink:title="A parsed ILU preconditioner which uses parameter files to choose between different options.">
<polygon fill="#bfbfbf" stroke="black" points="55.5,-0.5 55.5,-19.5 216.5,-19.5 216.5,-0.5 55.5,-0.5"/>
<text text-anchor="middle" x="136" y="-7.5" font-family="Helvetica,sans-Serif" font-size="10.00">ParsedLAC::ILUPreconditioner</text>
</a>
</g>
</g>
<!-- Node2 -->
<g id="node2" class="node">
<title>Node2</title>
<g id="a_node2"><a target="_parent" xlink:href="http://www.dealii.org/developer/doxygen/deal.II/classParameterAcceptor.html" xlink:title=" ">
<polygon fill="none" stroke="black" points="0,-56.5 0,-75.5 110,-75.5 110,-56.5 0,-56.5"/>
<text text-anchor="middle" x="55" y="-63.5" font-family="Helvetica,sans-Serif" font-size="10.00">ParameterAcceptor</text>
</a>
</g>
</g>
<!-- Node2&#45;&gt;Node1 -->
<g id="edge1" class="edge">
<title>Node2&#45;&gt;Node1</title>
<path fill="none" stroke="midnightblue" d="M76.57,-50.62C91.36,-40.76 110.51,-27.99 123.02,-19.65"/>
<polygon fill="midnightblue" stroke="midnightblue" points="74.39,-47.86 68.01,-56.32 78.28,-53.69 74.39,-47.86"/>
</g>
<!-- Node3 -->
<g id="node3" class="node">
<title>Node3</title>
<g id="a_node3"><a target="_parent" xlink:href="http://www.dealii.org/developer/doxygen/deal.II/classSubscriptor.html" xlink:title=" ">
<polygon fill="none" stroke="black" points="100.5,-168.5 100.5,-187.5 171.5,-187.5 171.5,-168.5 100.5,-168.5"/>
<text text-anchor="middle" x="136" y="-175.5" font-family="Helvetica,sans-Serif" font-size="10.00">Subscriptor</text>
</a>
</g>
</g>
<!-- Node3&#45;&gt;Node2 -->
<g id="edge2" class="edge">
<title>Node3&#45;&gt;Node2</title>
<path fill="none" stroke="midnightblue" d="M123.68,-160.27C106.17,-136.49 74.73,-93.79 61.33,-75.59"/>
<polygon fill="midnightblue" stroke="midnightblue" points="120.9,-162.39 129.64,-168.37 126.53,-158.24 120.9,-162.39"/>
</g>
<!-- Node5 -->
<g id="node5" class="node">
<title>Node5</title>
<g id="a_node5"><a target="_parent" xlink:href="http://www.dealii.org/developer/doxygen/deal.II/classTrilinosWrappers_1_1PreconditionBase.html" xlink:title=" ">
<polygon fill="none" stroke="black" points="113,-112.5 113,-131.5 301,-131.5 301,-112.5 113,-112.5"/>
<text text-anchor="middle" x="207" y="-119.5" font-family="Helvetica,sans-Serif" font-size="10.00">TrilinosWrappers::PreconditionBase</text>
</a>
</g>
</g>
<!-- Node3&#45;&gt;Node5 -->
<g id="edge5" class="edge">
<title>Node3&#45;&gt;Node5</title>
<path fill="none" stroke="midnightblue" d="M155.59,-162.1C168.37,-152.38 184.61,-140.03 195.39,-131.83"/>
<polygon fill="midnightblue" stroke="midnightblue" points="153.25,-159.48 147.41,-168.32 157.49,-165.06 153.25,-159.48"/>
</g>
<!-- Node4 -->
<g id="node4" class="node">
<title>Node4</title>
<g id="a_node4"><a target="_parent" xlink:href="http://www.dealii.org/developer/doxygen/deal.II/classTrilinosWrappers_1_1PreconditionILU.html" xlink:title=" ">
<polygon fill="none" stroke="black" points="128,-56.5 128,-75.5 308,-75.5 308,-56.5 128,-56.5"/>
<text text-anchor="middle" x="218" y="-63.5" font-family="Helvetica,sans-Serif" font-size="10.00">TrilinosWrappers::PreconditionILU</text>
</a>
</g>
</g>
<!-- Node4&#45;&gt;Node1 -->
<g id="edge3" class="edge">
<title>Node4&#45;&gt;Node1</title>
<path fill="none" stroke="midnightblue" d="M196.17,-50.62C181.19,-40.76 161.8,-27.99 149.14,-19.65"/>
<polygon fill="midnightblue" stroke="midnightblue" points="194.55,-53.75 204.83,-56.32 198.4,-47.9 194.55,-53.75"/>
</g>
<!-- Node5&#45;&gt;Node4 -->
<g id="edge4" class="edge">
<title>Node5&#45;&gt;Node4</title>
<path fill="none" stroke="midnightblue" d="M210.85,-102.1C212.68,-93.14 214.77,-82.86 216.22,-75.75"/>
<polygon fill="midnightblue" stroke="midnightblue" points="207.38,-101.59 208.82,-112.08 214.24,-102.98 207.38,-101.59"/>
</g>
</g>
</svg>
