<?xml version="1.0" encoding="UTF-8" standalone="no"?>
<!DOCTYPE svg PUBLIC "-//W3C//DTD SVG 1.1//EN"
 "http://www.w3.org/Graphics/SVG/1.1/DTD/svg11.dtd">
<!-- Generated by graphviz version 2.43.0 (0)
 -->
<!-- Title: include/parsed_tools/components.h Pages: 1 -->
<svg width="2785pt" height="307pt"
 viewBox="0.00 0.00 2785.00 307.00" xmlns="http://www.w3.org/2000/svg" xmlns:xlink="http://www.w3.org/1999/xlink">
<g id="graph0" class="graph" transform="scale(1 1) rotate(0) translate(4 303)">
<title>include/parsed_tools/components.h</title>
<!-- Node1 -->
<g id="node1" class="node">
<title>Node1</title>
<g id="a_node1"><a xlink:title=" ">
<polygon fill="#bfbfbf" stroke="black" points="2283.5,-268.5 2283.5,-298.5 2400.5,-298.5 2400.5,-268.5 2283.5,-268.5"/>
<text text-anchor="start" x="2291.5" y="-286.5" font-family="Helvetica,sans-Serif" font-size="10.00">include/parsed_tools</text>
<text text-anchor="middle" x="2342" y="-275.5" font-family="Helvetica,sans-Serif" font-size="10.00">/components.h</text>
</a>
</g>
</g>
<!-- Node2 -->
<g id="node2" class="node">
<title>Node2</title>
<g id="a_node2"><a xlink:href="boundary__conditions_8h.html" target="_top" xlink:title=" ">
<polygon fill="none" stroke="black" points="1871,-201.5 1871,-231.5 2001,-231.5 2001,-201.5 1871,-201.5"/>
<text text-anchor="start" x="1879" y="-219.5" font-family="Helvetica,sans-Serif" font-size="10.00">include/parsed_tools</text>
<text text-anchor="middle" x="1936" y="-208.5" font-family="Helvetica,sans-Serif" font-size="10.00">/boundary_conditions.h</text>
</a>
</g>
</g>
<!-- Node1&#45;&gt;Node2 -->
<g id="edge1" class="edge">
<title>Node1&#45;&gt;Node2</title>
<path fill="none" stroke="midnightblue" d="M2273.45,-271.53C2197.5,-259.37 2075.93,-239.9 2001.31,-227.96"/>
<polygon fill="midnightblue" stroke="midnightblue" points="2272.97,-274.99 2283.4,-273.12 2274.08,-268.08 2272.97,-274.99"/>
</g>
<!-- Node5 -->
<g id="node5" class="node">
<title>Node5</title>
<g id="a_node5"><a xlink:href="source_2pdes_2linear__elasticity_8cc.html" target="_top" xlink:title=" ">
<polygon fill="none" stroke="black" points="0,-0.5 0,-30.5 106,-30.5 106,-0.5 0,-0.5"/>
<text text-anchor="start" x="8" y="-18.5" font-family="Helvetica,sans-Serif" font-size="10.00">source/pdes/linear</text>
<text text-anchor="middle" x="53" y="-7.5" font-family="Helvetica,sans-Serif" font-size="10.00">_elasticity.cc</text>
</a>
</g>
</g>
<!-- Node1&#45;&gt;Node5 -->
<g id="edge37" class="edge">
<title>Node1&#45;&gt;Node5</title>
<path fill="none" stroke="midnightblue" d="M2273.24,-282.13C2089.04,-280.58 1569.2,-272.66 1139,-232 732.88,-193.62 622.13,-213.84 231,-98 173.81,-81.06 111.38,-49.04 77.77,-30.58"/>
<polygon fill="midnightblue" stroke="midnightblue" points="2273.3,-285.63 2283.33,-282.21 2273.36,-278.63 2273.3,-285.63"/>
</g>
<!-- Node9 -->
<g id="node9" class="node">
<title>Node9</title>
<g id="a_node9"><a xlink:href="source_2pdes_2linear__visco__elasticity_8cc.html" target="_top" xlink:title=" ">
<polygon fill="none" stroke="black" points="720,-0.5 720,-30.5 830,-30.5 830,-0.5 720,-0.5"/>
<text text-anchor="start" x="728" y="-18.5" font-family="Helvetica,sans-Serif" font-size="10.00">source/pdes/linear</text>
<text text-anchor="middle" x="775" y="-7.5" font-family="Helvetica,sans-Serif" font-size="10.00">_visco_elasticity.cc</text>
</a>
</g>
</g>
<!-- Node1&#45;&gt;Node9 -->
<g id="edge38" class="edge">
<title>Node1&#45;&gt;Node9</title>
<path fill="none" stroke="midnightblue" d="M2273.09,-280.33C2028.76,-272.08 1205.02,-239.26 953,-165 892.16,-147.07 873.59,-141.04 827,-98 805.79,-78.41 789.61,-48.35 781.27,-30.74"/>
<polygon fill="midnightblue" stroke="midnightblue" points="2273.15,-283.84 2283.26,-280.67 2273.38,-276.84 2273.15,-283.84"/>
</g>
<!-- Node19 -->
<g id="node19" class="node">
<title>Node19</title>
<g id="a_node19"><a xlink:href="source_2pdes_2stokes_8cc.html" target="_top" xlink:title=" ">
<polygon fill="none" stroke="black" points="1389.5,-6 1389.5,-25 1512.5,-25 1512.5,-6 1389.5,-6"/>
<text text-anchor="middle" x="1451" y="-13" font-family="Helvetica,sans-Serif" font-size="10.00">source/pdes/stokes.cc</text>
</a>
</g>
</g>
<!-- Node1&#45;&gt;Node19 -->
<g id="edge39" class="edge">
<title>Node1&#45;&gt;Node19</title>
<path fill="none" stroke="midnightblue" d="M2371.13,-262.18C2426.1,-221.53 2534.49,-128.78 2475,-67 2438.25,-28.84 1574.6,-37.32 1522,-31 1510.51,-29.62 1498.11,-27.36 1486.93,-25.03"/>
<polygon fill="midnightblue" stroke="midnightblue" points="2368.82,-259.53 2362.8,-268.25 2372.94,-265.19 2368.82,-259.53"/>
</g>
<!-- Node34 -->
<g id="node34" class="node">
<title>Node34</title>
<g id="a_node34"><a xlink:href="boundary__conditions_8cc.html" target="_top" xlink:title=" ">
<polygon fill="none" stroke="black" points="2258.5,-140 2258.5,-159 2425.5,-159 2425.5,-140 2258.5,-140"/>
<text text-anchor="middle" x="2342" y="-147" font-family="Helvetica,sans-Serif" font-size="10.00">source/boundary_conditions.cc</text>
</a>
</g>
</g>
<!-- Node1&#45;&gt;Node34 -->
<g id="edge35" class="edge">
<title>Node1&#45;&gt;Node34</title>
<path fill="none" stroke="midnightblue" d="M2342,-258.32C2342,-228.38 2342,-178.91 2342,-159.1"/>
<polygon fill="midnightblue" stroke="midnightblue" points="2338.5,-258.37 2342,-268.37 2345.5,-258.37 2338.5,-258.37"/>
</g>
<!-- Node35 -->
<g id="node35" class="node">
<title>Node35</title>
<g id="a_node35"><a xlink:href="components_8cc.html" target="_top" xlink:title=" ">
<polygon fill="none" stroke="black" points="2523.5,-207 2523.5,-226 2648.5,-226 2648.5,-207 2523.5,-207"/>
<text text-anchor="middle" x="2586" y="-214" font-family="Helvetica,sans-Serif" font-size="10.00">source/components.cc</text>
</a>
</g>
</g>
<!-- Node1&#45;&gt;Node35 -->
<g id="edge36" class="edge">
<title>Node1&#45;&gt;Node35</title>
<path fill="none" stroke="midnightblue" d="M2404.57,-265.83C2452.33,-253.11 2516.16,-236.11 2553.98,-226.03"/>
<polygon fill="midnightblue" stroke="midnightblue" points="2403.41,-262.52 2394.64,-268.48 2405.21,-269.28 2403.41,-262.52"/>
</g>
<!-- Node36 -->
<g id="node36" class="node">
<title>Node36</title>
<g id="a_node36"><a xlink:href="dof__plotter_8cc.html" target="_top" xlink:title="Degrees of freedom plotter.">
<polygon fill="none" stroke="black" points="2667,-207 2667,-226 2777,-226 2777,-207 2667,-207"/>
<text text-anchor="middle" x="2722" y="-214" font-family="Helvetica,sans-Serif" font-size="10.00">apps/dof_plotter.cc</text>
</a>
</g>
</g>
<!-- Node1&#45;&gt;Node36 -->
<g id="edge40" class="edge">
<title>Node1&#45;&gt;Node36</title>
<path fill="none" stroke="midnightblue" d="M2410.5,-272.74C2474.45,-263.34 2572.45,-248.19 2657,-232 2666.31,-230.22 2676.33,-228.09 2685.64,-226.02"/>
<polygon fill="midnightblue" stroke="midnightblue" points="2409.92,-269.29 2400.53,-274.2 2410.93,-276.21 2409.92,-269.29"/>
</g>
<!-- Node3 -->
<g id="node3" class="node">
<title>Node3</title>
<g id="a_node3"><a xlink:href="linear__problem_8h.html" target="_top" xlink:title=" ">
<polygon fill="none" stroke="black" points="962.5,-134.5 962.5,-164.5 1071.5,-164.5 1071.5,-134.5 962.5,-134.5"/>
<text text-anchor="start" x="970.5" y="-152.5" font-family="Helvetica,sans-Serif" font-size="10.00">include/pdes/linear</text>
<text text-anchor="middle" x="1017" y="-141.5" font-family="Helvetica,sans-Serif" font-size="10.00">_problem.h</text>
</a>
</g>
</g>
<!-- Node2&#45;&gt;Node3 -->
<g id="edge2" class="edge">
<title>Node2&#45;&gt;Node3</title>
<path fill="none" stroke="midnightblue" d="M1860.46,-210.16C1680.25,-197.41 1228.51,-165.46 1071.67,-154.37"/>
<polygon fill="midnightblue" stroke="midnightblue" points="1860.42,-213.66 1870.64,-210.88 1860.92,-206.68 1860.42,-213.66"/>
</g>
<!-- Node15 -->
<g id="node15" class="node">
<title>Node15</title>
<g id="a_node15"><a xlink:href="distributed__lagrange_8h.html" target="_top" xlink:title=" ">
<polygon fill="none" stroke="black" points="1228.5,-67.5 1228.5,-97.5 1357.5,-97.5 1357.5,-67.5 1228.5,-67.5"/>
<text text-anchor="start" x="1236.5" y="-85.5" font-family="Helvetica,sans-Serif" font-size="10.00">include/pdes/serial</text>
<text text-anchor="middle" x="1293" y="-74.5" font-family="Helvetica,sans-Serif" font-size="10.00">/distributed_lagrange.h</text>
</a>
</g>
</g>
<!-- Node2&#45;&gt;Node15 -->
<g id="edge21" class="edge">
<title>Node2&#45;&gt;Node15</title>
<path fill="none" stroke="midnightblue" d="M1860.73,-212.19C1774.46,-207.13 1629.35,-194.68 1508,-165 1439.76,-148.31 1363.73,-116.05 1322.87,-97.51"/>
<polygon fill="midnightblue" stroke="midnightblue" points="1860.77,-215.7 1870.95,-212.78 1861.17,-208.71 1860.77,-215.7"/>
</g>
<!-- Node22 -->
<g id="node22" class="node">
<title>Node22</title>
<g id="a_node22"><a xlink:href="serial_2poisson_8h.html" target="_top" xlink:title=" ">
<polygon fill="none" stroke="black" points="1517,-134.5 1517,-164.5 1625,-164.5 1625,-134.5 1517,-134.5"/>
<text text-anchor="start" x="1525" y="-152.5" font-family="Helvetica,sans-Serif" font-size="10.00">include/pdes/serial</text>
<text text-anchor="middle" x="1571" y="-141.5" font-family="Helvetica,sans-Serif" font-size="10.00">/poisson.h</text>
</a>
</g>
</g>
<!-- Node2&#45;&gt;Node22 -->
<g id="edge22" class="edge">
<title>Node2&#45;&gt;Node22</title>
<path fill="none" stroke="midnightblue" d="M1860.64,-202.08C1790.51,-189.59 1687.69,-171.28 1625.29,-160.17"/>
<polygon fill="midnightblue" stroke="midnightblue" points="1860.29,-205.57 1870.75,-203.88 1861.51,-198.68 1860.29,-205.57"/>
</g>
<!-- Node25 -->
<g id="node25" class="node">
<title>Node25</title>
<g id="a_node25"><a xlink:href="poisson__nitsche__interface_8h.html" target="_top" xlink:title=" ">
<polygon fill="none" stroke="black" points="1781.5,-134.5 1781.5,-164.5 1936.5,-164.5 1936.5,-134.5 1781.5,-134.5"/>
<text text-anchor="start" x="1789.5" y="-152.5" font-family="Helvetica,sans-Serif" font-size="10.00">include/pdes/serial</text>
<text text-anchor="middle" x="1859" y="-141.5" font-family="Helvetica,sans-Serif" font-size="10.00">/poisson_nitsche_interface.h</text>
</a>
</g>
</g>
<!-- Node2&#45;&gt;Node25 -->
<g id="edge25" class="edge">
<title>Node2&#45;&gt;Node25</title>
<path fill="none" stroke="midnightblue" d="M1911.58,-194.88C1899.88,-185.01 1886.16,-173.43 1875.68,-164.58"/>
<polygon fill="midnightblue" stroke="midnightblue" points="1909.39,-197.62 1919.29,-201.4 1913.91,-192.27 1909.39,-197.62"/>
</g>
<!-- Node28 -->
<g id="node28" class="node">
<title>Node28</title>
<g id="a_node28"><a xlink:href="reduced__lagrange_8h.html" target="_top" xlink:title=" ">
<polygon fill="none" stroke="black" points="1955,-134.5 1955,-164.5 2071,-164.5 2071,-134.5 1955,-134.5"/>
<text text-anchor="start" x="1963" y="-152.5" font-family="Helvetica,sans-Serif" font-size="10.00">include/pdes/serial</text>
<text text-anchor="middle" x="2013" y="-141.5" font-family="Helvetica,sans-Serif" font-size="10.00">/reduced_lagrange.h</text>
</a>
</g>
</g>
<!-- Node2&#45;&gt;Node28 -->
<g id="edge28" class="edge">
<title>Node2&#45;&gt;Node28</title>
<path fill="none" stroke="midnightblue" d="M1960.42,-194.88C1972.12,-185.01 1985.84,-173.43 1996.32,-164.58"/>
<polygon fill="midnightblue" stroke="midnightblue" points="1958.09,-192.27 1952.71,-201.4 1962.61,-197.62 1958.09,-192.27"/>
</g>
<!-- Node31 -->
<g id="node31" class="node">
<title>Node31</title>
<g id="a_node31"><a xlink:href="serial_2stokes_8h.html" target="_top" xlink:title=" ">
<polygon fill="none" stroke="black" points="2132,-134.5 2132,-164.5 2240,-164.5 2240,-134.5 2132,-134.5"/>
<text text-anchor="start" x="2140" y="-152.5" font-family="Helvetica,sans-Serif" font-size="10.00">include/pdes/serial</text>
<text text-anchor="middle" x="2186" y="-141.5" font-family="Helvetica,sans-Serif" font-size="10.00">/stokes.h</text>
</a>
</g>
</g>
<!-- Node2&#45;&gt;Node31 -->
<g id="edge31" class="edge">
<title>Node2&#45;&gt;Node31</title>
<path fill="none" stroke="midnightblue" d="M1999.78,-198.92C2040.58,-188.31 2092.93,-174.7 2131.73,-164.61"/>
<polygon fill="midnightblue" stroke="midnightblue" points="1998.74,-195.57 1989.94,-201.48 2000.5,-202.35 1998.74,-195.57"/>
</g>
<!-- Node2&#45;&gt;Node34 -->
<g id="edge34" class="edge">
<title>Node2&#45;&gt;Node34</title>
<path fill="none" stroke="midnightblue" d="M2011.31,-203.44C2091.89,-190.54 2217.64,-170.41 2288.6,-159.05"/>
<polygon fill="midnightblue" stroke="midnightblue" points="2010.55,-200.02 2001.23,-205.06 2011.66,-206.93 2010.55,-200.02"/>
</g>
<!-- Node4 -->
<g id="node4" class="node">
<title>Node4</title>
<g id="a_node4"><a xlink:href="linear__elasticity_8h.html" target="_top" xlink:title=" ">
<polygon fill="none" stroke="black" points="240.5,-67.5 240.5,-97.5 349.5,-97.5 349.5,-67.5 240.5,-67.5"/>
<text text-anchor="start" x="248.5" y="-85.5" font-family="Helvetica,sans-Serif" font-size="10.00">include/pdes/linear</text>
<text text-anchor="middle" x="295" y="-74.5" font-family="Helvetica,sans-Serif" font-size="10.00">_elasticity.h</text>
</a>
</g>
</g>
<!-- Node3&#45;&gt;Node4 -->
<g id="edge3" class="edge">
<title>Node3&#45;&gt;Node4</title>
<path fill="none" stroke="midnightblue" d="M952.25,-142.67C811.72,-130.02 480.88,-100.23 349.84,-88.44"/>
<polygon fill="midnightblue" stroke="midnightblue" points="952.16,-146.18 962.44,-143.59 952.79,-139.21 952.16,-146.18"/>
</g>
<!-- Node8 -->
<g id="node8" class="node">
<title>Node8</title>
<g id="a_node8"><a xlink:href="linear__visco__elasticity_8h.html" target="_top" xlink:title=" ">
<polygon fill="none" stroke="black" points="836.5,-67.5 836.5,-97.5 945.5,-97.5 945.5,-67.5 836.5,-67.5"/>
<text text-anchor="start" x="844.5" y="-85.5" font-family="Helvetica,sans-Serif" font-size="10.00">include/pdes/linear</text>
<text text-anchor="middle" x="891" y="-74.5" font-family="Helvetica,sans-Serif" font-size="10.00">_visco_elasticity.h</text>
</a>
</g>
</g>
<!-- Node3&#45;&gt;Node8 -->
<g id="edge7" class="edge">
<title>Node3&#45;&gt;Node8</title>
<path fill="none" stroke="midnightblue" d="M980.58,-129.71C960.71,-119.46 936.52,-106.98 918.29,-97.58"/>
<polygon fill="midnightblue" stroke="midnightblue" points="979.17,-132.92 989.66,-134.4 982.38,-126.7 979.17,-132.92"/>
</g>
<!-- Node12 -->
<g id="node12" class="node">
<title>Node12</title>
<g id="a_node12"><a xlink:href="mpi_2poisson_8h.html" target="_top" xlink:title=" ">
<polygon fill="none" stroke="black" points="569.5,-73 569.5,-92 718.5,-92 718.5,-73 569.5,-73"/>
<text text-anchor="middle" x="644" y="-80" font-family="Helvetica,sans-Serif" font-size="10.00">include/pdes/mpi/poisson.h</text>
</a>
</g>
</g>
<!-- Node3&#45;&gt;Node12 -->
<g id="edge11" class="edge">
<title>Node3&#45;&gt;Node12</title>
<path fill="none" stroke="midnightblue" d="M952.25,-137.22C878.4,-124.35 759.3,-103.59 692.84,-92.01"/>
<polygon fill="midnightblue" stroke="midnightblue" points="951.91,-140.71 962.36,-138.98 953.11,-133.81 951.91,-140.71"/>
</g>
<!-- Node3&#45;&gt;Node15 -->
<g id="edge14" class="edge">
<title>Node3&#45;&gt;Node15</title>
<path fill="none" stroke="midnightblue" d="M1081.37,-133.34C1127.27,-122.53 1188.52,-108.1 1233.32,-97.55"/>
<polygon fill="midnightblue" stroke="midnightblue" points="1080.46,-129.96 1071.53,-135.66 1082.06,-136.77 1080.46,-129.96"/>
</g>
<!-- Node18 -->
<g id="node18" class="node">
<title>Node18</title>
<g id="a_node18"><a xlink:href="stokes_8h.html" target="_top" xlink:title=" ">
<polygon fill="none" stroke="black" points="1088,-73 1088,-92 1210,-92 1210,-73 1088,-73"/>
<text text-anchor="middle" x="1149" y="-80" font-family="Helvetica,sans-Serif" font-size="10.00">include/pdes/stokes.h</text>
</a>
</g>
</g>
<!-- Node3&#45;&gt;Node18 -->
<g id="edge17" class="edge">
<title>Node3&#45;&gt;Node18</title>
<path fill="none" stroke="midnightblue" d="M1054.64,-129.97C1079.99,-117.48 1112.25,-101.6 1131.72,-92.01"/>
<polygon fill="midnightblue" stroke="midnightblue" points="1053.07,-126.84 1045.64,-134.4 1056.16,-133.12 1053.07,-126.84"/>
</g>
<!-- Node21 -->
<g id="node21" class="node">
<title>Node21</title>
<g id="a_node21"><a xlink:href="linear__problem_8cc.html" target="_top" xlink:title=" ">
<polygon fill="none" stroke="black" points="964,-67.5 964,-97.5 1070,-97.5 1070,-67.5 964,-67.5"/>
<text text-anchor="start" x="972" y="-85.5" font-family="Helvetica,sans-Serif" font-size="10.00">source/pdes/linear</text>
<text text-anchor="middle" x="1017" y="-74.5" font-family="Helvetica,sans-Serif" font-size="10.00">_problem.cc</text>
</a>
</g>
</g>
<!-- Node3&#45;&gt;Node21 -->
<g id="edge20" class="edge">
<title>Node3&#45;&gt;Node21</title>
<path fill="none" stroke="midnightblue" d="M1017,-124.11C1017,-115.15 1017,-105.32 1017,-97.58"/>
<polygon fill="midnightblue" stroke="midnightblue" points="1013.5,-124.4 1017,-134.4 1020.5,-124.4 1013.5,-124.4"/>
</g>
<!-- Node4&#45;&gt;Node5 -->
<g id="edge4" class="edge">
<title>Node4&#45;&gt;Node5</title>
<path fill="none" stroke="midnightblue" d="M233.01,-64.85C193.55,-54.25 143.01,-40.68 105.54,-30.61"/>
<polygon fill="midnightblue" stroke="midnightblue" points="232.22,-68.26 242.79,-67.48 234.04,-61.5 232.22,-68.26"/>
</g>
<!-- Node6 -->
<g id="node6" class="node">
<title>Node6</title>
<g id="a_node6"><a xlink:href="apps_2mpi_2linear__elasticity_8cc.html" target="_top" xlink:title=" ">
<polygon fill="none" stroke="black" points="124.5,-6 124.5,-25 279.5,-25 279.5,-6 124.5,-6"/>
<text text-anchor="middle" x="202" y="-13" font-family="Helvetica,sans-Serif" font-size="10.00">apps/mpi/linear_elasticity.cc</text>
</a>
</g>
</g>
<!-- Node4&#45;&gt;Node6 -->
<g id="edge5" class="edge">
<title>Node4&#45;&gt;Node6</title>
<path fill="none" stroke="midnightblue" d="M266.59,-61.64C249.04,-49.37 227.41,-34.26 214.17,-25.01"/>
<polygon fill="midnightblue" stroke="midnightblue" points="264.62,-64.54 274.82,-67.4 268.63,-58.8 264.62,-64.54"/>
</g>
<!-- Node7 -->
<g id="node7" class="node">
<title>Node7</title>
<g id="a_node7"><a xlink:href="apps_2serial_2linear__elasticity_8cc.html" target="_top" xlink:title=" ">
<polygon fill="none" stroke="black" points="297.5,-0.5 297.5,-30.5 398.5,-30.5 398.5,-0.5 297.5,-0.5"/>
<text text-anchor="start" x="305.5" y="-18.5" font-family="Helvetica,sans-Serif" font-size="10.00">apps/serial/linear</text>
<text text-anchor="middle" x="348" y="-7.5" font-family="Helvetica,sans-Serif" font-size="10.00">_elasticity.cc</text>
</a>
</g>
</g>
<!-- Node4&#45;&gt;Node7 -->
<g id="edge6" class="edge">
<title>Node4&#45;&gt;Node7</title>
<path fill="none" stroke="midnightblue" d="M312.98,-59.45C320.77,-49.9 329.65,-39 336.52,-30.58"/>
<polygon fill="midnightblue" stroke="midnightblue" points="310.11,-57.43 306.5,-67.4 315.53,-61.86 310.11,-57.43"/>
</g>
<!-- Node8&#45;&gt;Node9 -->
<g id="edge8" class="edge">
<title>Node8&#45;&gt;Node9</title>
<path fill="none" stroke="midnightblue" d="M856.73,-62.3C838.58,-52.12 816.68,-39.85 800.12,-30.58"/>
<polygon fill="midnightblue" stroke="midnightblue" points="855.4,-65.56 865.83,-67.4 858.82,-59.45 855.4,-65.56"/>
</g>
<!-- Node10 -->
<g id="node10" class="node">
<title>Node10</title>
<g id="a_node10"><a xlink:href="apps_2mpi_2linear__visco__elasticity_8cc.html" target="_top" xlink:title=" ">
<polygon fill="none" stroke="black" points="976.5,-0.5 976.5,-30.5 1099.5,-30.5 1099.5,-0.5 976.5,-0.5"/>
<text text-anchor="start" x="984.5" y="-18.5" font-family="Helvetica,sans-Serif" font-size="10.00">apps/mpi/linear_visco</text>
<text text-anchor="middle" x="1038" y="-7.5" font-family="Helvetica,sans-Serif" font-size="10.00">_elasticity.cc</text>
</a>
</g>
</g>
<!-- Node8&#45;&gt;Node10 -->
<g id="edge9" class="edge">
<title>Node8&#45;&gt;Node10</title>
<path fill="none" stroke="midnightblue" d="M932.23,-63.27C955.64,-52.92 984.51,-40.15 1006.17,-30.58"/>
<polygon fill="midnightblue" stroke="midnightblue" points="930.63,-60.15 922.9,-67.4 933.46,-66.55 930.63,-60.15"/>
</g>
<!-- Node11 -->
<g id="node11" class="node">
<title>Node11</title>
<g id="a_node11"><a xlink:href="apps_2serial_2linear__visco__elasticity_8cc.html" target="_top" xlink:title=" ">
<polygon fill="none" stroke="black" points="848,-0.5 848,-30.5 958,-30.5 958,-0.5 848,-0.5"/>
<text text-anchor="start" x="856" y="-18.5" font-family="Helvetica,sans-Serif" font-size="10.00">apps/serial/linear</text>
<text text-anchor="middle" x="903" y="-7.5" font-family="Helvetica,sans-Serif" font-size="10.00">_visco_elasticity.cc</text>
</a>
</g>
</g>
<!-- Node8&#45;&gt;Node11 -->
<g id="edge10" class="edge">
<title>Node8&#45;&gt;Node11</title>
<path fill="none" stroke="midnightblue" d="M895.45,-57.4C897.12,-48.37 898.96,-38.41 900.4,-30.58"/>
<polygon fill="midnightblue" stroke="midnightblue" points="891.98,-56.93 893.6,-67.4 898.86,-58.2 891.98,-56.93"/>
</g>
<!-- Node13 -->
<g id="node13" class="node">
<title>Node13</title>
<g id="a_node13"><a xlink:href="source_2pdes_2mpi_2poisson_8cc.html" target="_top" xlink:title=" ">
<polygon fill="none" stroke="black" points="416.5,-6 416.5,-25 567.5,-25 567.5,-6 416.5,-6"/>
<text text-anchor="middle" x="492" y="-13" font-family="Helvetica,sans-Serif" font-size="10.00">source/pdes/mpi/poisson.cc</text>
</a>
</g>
</g>
<!-- Node12&#45;&gt;Node13 -->
<g id="edge12" class="edge">
<title>Node12&#45;&gt;Node13</title>
<path fill="none" stroke="midnightblue" d="M614.26,-68.78C584.16,-55.91 538.43,-36.35 512.27,-25.17"/>
<polygon fill="midnightblue" stroke="midnightblue" points="613.24,-72.15 623.82,-72.87 616,-65.72 613.24,-72.15"/>
</g>
<!-- Node14 -->
<g id="node14" class="node">
<title>Node14</title>
<g id="a_node14"><a xlink:href="apps_2mpi_2poisson_8cc.html" target="_top" xlink:title=" ">
<polygon fill="none" stroke="black" points="586,-6 586,-25 702,-25 702,-6 586,-6"/>
<text text-anchor="middle" x="644" y="-13" font-family="Helvetica,sans-Serif" font-size="10.00">apps/mpi/poisson.cc</text>
</a>
</g>
</g>
<!-- Node12&#45;&gt;Node14 -->
<g id="edge13" class="edge">
<title>Node12&#45;&gt;Node14</title>
<path fill="none" stroke="midnightblue" d="M644,-62.54C644,-50.17 644,-34.62 644,-25.13"/>
<polygon fill="midnightblue" stroke="midnightblue" points="640.5,-62.73 644,-72.73 647.5,-62.73 640.5,-62.73"/>
</g>
<!-- Node16 -->
<g id="node16" class="node">
<title>Node16</title>
<g id="a_node16"><a xlink:href="source_2pdes_2serial_2distributed__lagrange_8cc.html" target="_top" xlink:title=" ">
<polygon fill="none" stroke="black" points="1531,-0.5 1531,-30.5 1665,-30.5 1665,-0.5 1531,-0.5"/>
<text text-anchor="start" x="1539" y="-18.5" font-family="Helvetica,sans-Serif" font-size="10.00">source/pdes/serial</text>
<text text-anchor="middle" x="1598" y="-7.5" font-family="Helvetica,sans-Serif" font-size="10.00">/distributed_lagrange.cc</text>
</a>
</g>
</g>
<!-- Node15&#45;&gt;Node16 -->
<g id="edge15" class="edge">
<title>Node15&#45;&gt;Node16</title>
<path fill="none" stroke="midnightblue" d="M1367.53,-65.62C1417.86,-54.89 1483.68,-40.86 1532.1,-30.55"/>
<polygon fill="midnightblue" stroke="midnightblue" points="1366.73,-62.21 1357.68,-67.72 1368.19,-69.05 1366.73,-62.21"/>
</g>
<!-- Node17 -->
<g id="node17" class="node">
<title>Node17</title>
<g id="a_node17"><a xlink:href="apps_2serial_2distributed__lagrange_8cc.html" target="_top" xlink:title=" ">
<polygon fill="none" stroke="black" points="1246.5,-0.5 1246.5,-30.5 1371.5,-30.5 1371.5,-0.5 1246.5,-0.5"/>
<text text-anchor="start" x="1254.5" y="-18.5" font-family="Helvetica,sans-Serif" font-size="10.00">apps/serial/distributed</text>
<text text-anchor="middle" x="1309" y="-7.5" font-family="Helvetica,sans-Serif" font-size="10.00">_lagrange.cc</text>
</a>
</g>
</g>
<!-- Node15&#45;&gt;Node17 -->
<g id="edge16" class="edge">
<title>Node15&#45;&gt;Node17</title>
<path fill="none" stroke="midnightblue" d="M1298.93,-57.4C1301.16,-48.37 1303.61,-38.41 1305.54,-30.58"/>
<polygon fill="midnightblue" stroke="midnightblue" points="1295.46,-56.85 1296.47,-67.4 1302.26,-58.52 1295.46,-56.85"/>
</g>
<!-- Node18&#45;&gt;Node19 -->
<g id="edge18" class="edge">
<title>Node18&#45;&gt;Node19</title>
<path fill="none" stroke="midnightblue" d="M1198.7,-70.8C1258.13,-58.01 1356.41,-36.86 1411.12,-25.08"/>
<polygon fill="midnightblue" stroke="midnightblue" points="1197.83,-67.41 1188.79,-72.94 1199.3,-74.25 1197.83,-67.41"/>
</g>
<!-- Node20 -->
<g id="node20" class="node">
<title>Node20</title>
<g id="a_node20"><a xlink:href="apps_2mpi_2stokes_8cc.html" target="_top" xlink:title=" ">
<polygon fill="none" stroke="black" points="1118,-6 1118,-25 1228,-25 1228,-6 1118,-6"/>
<text text-anchor="middle" x="1173" y="-13" font-family="Helvetica,sans-Serif" font-size="10.00">apps/mpi/stokes.cc</text>
</a>
</g>
</g>
<!-- Node18&#45;&gt;Node20 -->
<g id="edge19" class="edge">
<title>Node18&#45;&gt;Node20</title>
<path fill="none" stroke="midnightblue" d="M1155.72,-63.29C1160.33,-50.81 1166.24,-34.81 1169.81,-25.13"/>
<polygon fill="midnightblue" stroke="midnightblue" points="1152.42,-62.14 1152.24,-72.73 1158.98,-64.57 1152.42,-62.14"/>
</g>
<!-- Node23 -->
<g id="node23" class="node">
<title>Node23</title>
<g id="a_node23"><a xlink:href="source_2pdes_2serial_2poisson_8cc.html" target="_top" xlink:title=" ">
<polygon fill="none" stroke="black" points="1518.5,-67.5 1518.5,-97.5 1623.5,-97.5 1623.5,-67.5 1518.5,-67.5"/>
<text text-anchor="start" x="1526.5" y="-85.5" font-family="Helvetica,sans-Serif" font-size="10.00">source/pdes/serial</text>
<text text-anchor="middle" x="1571" y="-74.5" font-family="Helvetica,sans-Serif" font-size="10.00">/poisson.cc</text>
</a>
</g>
</g>
<!-- Node22&#45;&gt;Node23 -->
<g id="edge23" class="edge">
<title>Node22&#45;&gt;Node23</title>
<path fill="none" stroke="midnightblue" d="M1571,-124.11C1571,-115.15 1571,-105.32 1571,-97.58"/>
<polygon fill="midnightblue" stroke="midnightblue" points="1567.5,-124.4 1571,-134.4 1574.5,-124.4 1567.5,-124.4"/>
</g>
<!-- Node24 -->
<g id="node24" class="node">
<title>Node24</title>
<g id="a_node24"><a xlink:href="apps_2serial_2poisson_8cc.html" target="_top" xlink:title=" ">
<polygon fill="none" stroke="black" points="1376,-73 1376,-92 1500,-92 1500,-73 1376,-73"/>
<text text-anchor="middle" x="1438" y="-80" font-family="Helvetica,sans-Serif" font-size="10.00">apps/serial/poisson.cc</text>
</a>
</g>
</g>
<!-- Node22&#45;&gt;Node24 -->
<g id="edge24" class="edge">
<title>Node22&#45;&gt;Node24</title>
<path fill="none" stroke="midnightblue" d="M1533.08,-129.97C1507.53,-117.48 1475.03,-101.6 1455.41,-92.01"/>
<polygon fill="midnightblue" stroke="midnightblue" points="1531.62,-133.15 1542.14,-134.4 1534.69,-126.86 1531.62,-133.15"/>
</g>
<!-- Node26 -->
<g id="node26" class="node">
<title>Node26</title>
<g id="a_node26"><a xlink:href="source_2pdes_2serial_2poisson__nitsche__interface_8cc.html" target="_top" xlink:title=" ">
<polygon fill="none" stroke="black" points="1779,-67.5 1779,-97.5 1939,-97.5 1939,-67.5 1779,-67.5"/>
<text text-anchor="start" x="1787" y="-85.5" font-family="Helvetica,sans-Serif" font-size="10.00">source/pdes/serial</text>
<text text-anchor="middle" x="1859" y="-74.5" font-family="Helvetica,sans-Serif" font-size="10.00">/poisson_nitsche_interface.cc</text>
</a>
</g>
</g>
<!-- Node25&#45;&gt;Node26 -->
<g id="edge26" class="edge">
<title>Node25&#45;&gt;Node26</title>
<path fill="none" stroke="midnightblue" d="M1859,-124.11C1859,-115.15 1859,-105.32 1859,-97.58"/>
<polygon fill="midnightblue" stroke="midnightblue" points="1855.5,-124.4 1859,-134.4 1862.5,-124.4 1855.5,-124.4"/>
</g>
<!-- Node27 -->
<g id="node27" class="node">
<title>Node27</title>
<g id="a_node27"><a xlink:href="apps_2serial_2poisson__nitsche__interface_8cc.html" target="_top" xlink:title=" ">
<polygon fill="none" stroke="black" points="1641.5,-67.5 1641.5,-97.5 1760.5,-97.5 1760.5,-67.5 1641.5,-67.5"/>
<text text-anchor="start" x="1649.5" y="-85.5" font-family="Helvetica,sans-Serif" font-size="10.00">apps/serial/poisson</text>
<text text-anchor="middle" x="1701" y="-74.5" font-family="Helvetica,sans-Serif" font-size="10.00">_nitsche_interface.cc</text>
</a>
</g>
</g>
<!-- Node25&#45;&gt;Node27 -->
<g id="edge27" class="edge">
<title>Node25&#45;&gt;Node27</title>
<path fill="none" stroke="midnightblue" d="M1815.35,-130.54C1790.07,-120.14 1758.7,-107.24 1735.22,-97.58"/>
<polygon fill="midnightblue" stroke="midnightblue" points="1814.14,-133.83 1824.72,-134.4 1816.8,-127.35 1814.14,-133.83"/>
</g>
<!-- Node29 -->
<g id="node29" class="node">
<title>Node29</title>
<g id="a_node29"><a xlink:href="source_2pdes_2serial_2reduced__lagrange_8cc.html" target="_top" xlink:title=" ">
<polygon fill="none" stroke="black" points="2087,-67.5 2087,-97.5 2207,-97.5 2207,-67.5 2087,-67.5"/>
<text text-anchor="start" x="2095" y="-85.5" font-family="Helvetica,sans-Serif" font-size="10.00">source/pdes/serial</text>
<text text-anchor="middle" x="2147" y="-74.5" font-family="Helvetica,sans-Serif" font-size="10.00">/reduced_lagrange.cc</text>
</a>
</g>
</g>
<!-- Node28&#45;&gt;Node29 -->
<g id="edge29" class="edge">
<title>Node28&#45;&gt;Node29</title>
<path fill="none" stroke="midnightblue" d="M2051.15,-129.99C2072.39,-119.69 2098.41,-107.07 2117.98,-97.58"/>
<polygon fill="midnightblue" stroke="midnightblue" points="2049.55,-126.88 2042.08,-134.4 2052.6,-133.18 2049.55,-126.88"/>
</g>
<!-- Node30 -->
<g id="node30" class="node">
<title>Node30</title>
<g id="a_node30"><a xlink:href="apps_2serial_2reduced__lagrange_8cc.html" target="_top" xlink:title=" ">
<polygon fill="none" stroke="black" points="1957,-67.5 1957,-97.5 2069,-97.5 2069,-67.5 1957,-67.5"/>
<text text-anchor="start" x="1965" y="-85.5" font-family="Helvetica,sans-Serif" font-size="10.00">apps/serial/reduced</text>
<text text-anchor="middle" x="2013" y="-74.5" font-family="Helvetica,sans-Serif" font-size="10.00">_lagrange.cc</text>
</a>
</g>
</g>
<!-- Node28&#45;&gt;Node30 -->
<g id="edge30" class="edge">
<title>Node28&#45;&gt;Node30</title>
<path fill="none" stroke="midnightblue" d="M2013,-124.11C2013,-115.15 2013,-105.32 2013,-97.58"/>
<polygon fill="midnightblue" stroke="midnightblue" points="2009.5,-124.4 2013,-134.4 2016.5,-124.4 2009.5,-124.4"/>
</g>
<!-- Node32 -->
<g id="node32" class="node">
<title>Node32</title>
<g id="a_node32"><a xlink:href="source_2pdes_2serial_2stokes_8cc.html" target="_top" xlink:title=" ">
<polygon fill="none" stroke="black" points="2361.5,-67.5 2361.5,-97.5 2466.5,-97.5 2466.5,-67.5 2361.5,-67.5"/>
<text text-anchor="start" x="2369.5" y="-85.5" font-family="Helvetica,sans-Serif" font-size="10.00">source/pdes/serial</text>
<text text-anchor="middle" x="2414" y="-74.5" font-family="Helvetica,sans-Serif" font-size="10.00">/stokes.cc</text>
</a>
</g>
</g>
<!-- Node31&#45;&gt;Node32 -->
<g id="edge32" class="edge">
<title>Node31&#45;&gt;Node32</title>
<path fill="none" stroke="midnightblue" d="M2244.88,-131.71C2281.98,-121.14 2329.34,-107.63 2364.5,-97.61"/>
<polygon fill="midnightblue" stroke="midnightblue" points="2243.85,-128.37 2235.19,-134.48 2245.77,-135.1 2243.85,-128.37"/>
</g>
<!-- Node33 -->
<g id="node33" class="node">
<title>Node33</title>
<g id="a_node33"><a xlink:href="apps_2serial_2stokes_8cc.html" target="_top" xlink:title=" ">
<polygon fill="none" stroke="black" points="2225,-73 2225,-92 2343,-92 2343,-73 2225,-73"/>
<text text-anchor="middle" x="2284" y="-80" font-family="Helvetica,sans-Serif" font-size="10.00">apps/serial/stokes.cc</text>
</a>
</g>
</g>
<!-- Node31&#45;&gt;Node33 -->
<g id="edge33" class="edge">
<title>Node31&#45;&gt;Node33</title>
<path fill="none" stroke="midnightblue" d="M2215.69,-128.81C2234.23,-116.51 2257.16,-101.3 2271.17,-92.01"/>
<polygon fill="midnightblue" stroke="midnightblue" points="2213.66,-125.95 2207.26,-134.4 2217.53,-131.79 2213.66,-125.95"/>
</g>
</g>
</svg>
