<?xml version="1.0" encoding="UTF-8" standalone="no"?>
<!DOCTYPE svg PUBLIC "-//W3C//DTD SVG 1.1//EN"
 "http://www.w3.org/Graphics/SVG/1.1/DTD/svg11.dtd">
<!-- Generated by graphviz version 2.43.0 (0)
 -->
<!-- Title: include/parsed_tools/components.h Pages: 1 -->
<svg width="1990pt" height="307pt"
 viewBox="0.00 0.00 1990.36 307.00" xmlns="http://www.w3.org/2000/svg" xmlns:xlink="http://www.w3.org/1999/xlink">
<g id="graph0" class="graph" transform="scale(1 1) rotate(0) translate(4 303)">
<title>include/parsed_tools/components.h</title>
<!-- Node1 -->
<g id="node1" class="node">
<title>Node1</title>
<g id="a_node1"><a xlink:title=" ">
<polygon fill="#bfbfbf" stroke="black" points="892.36,-268.5 892.36,-298.5 1009.36,-298.5 1009.36,-268.5 892.36,-268.5"/>
<text text-anchor="start" x="900.36" y="-286.5" font-family="Helvetica,sans-Serif" font-size="10.00">include/parsed_tools</text>
<text text-anchor="middle" x="950.86" y="-275.5" font-family="Helvetica,sans-Serif" font-size="10.00">/components.h</text>
</a>
</g>
</g>
<!-- Node2 -->
<g id="node2" class="node">
<title>Node2</title>
<g id="a_node2"><a xlink:href="boundary__conditions_8h.html" target="_top" xlink:title=" ">
<polygon fill="none" stroke="black" points="839.86,-201.5 839.86,-231.5 969.86,-231.5 969.86,-201.5 839.86,-201.5"/>
<text text-anchor="start" x="847.86" y="-219.5" font-family="Helvetica,sans-Serif" font-size="10.00">include/parsed_tools</text>
<text text-anchor="middle" x="904.86" y="-208.5" font-family="Helvetica,sans-Serif" font-size="10.00">/boundary_conditions.h</text>
</a>
</g>
</g>
<!-- Node1&#45;&gt;Node2 -->
<g id="edge1" class="edge">
<title>Node1&#45;&gt;Node2</title>
<path fill="none" stroke="midnightblue" d="M935.05,-260.16C928.34,-250.68 920.72,-239.92 914.82,-231.58"/>
<polygon fill="midnightblue" stroke="midnightblue" points="932.24,-262.26 940.88,-268.4 937.96,-258.21 932.24,-262.26"/>
</g>
<!-- Node5 -->
<g id="node5" class="node">
<title>Node5</title>
<g id="a_node5"><a xlink:href="source_2pdes_2mpi_2linear__elasticity_8cc.html" target="_top" xlink:title=" ">
<polygon fill="none" stroke="black" points="216.86,-0.5 216.86,-30.5 344.86,-30.5 344.86,-0.5 216.86,-0.5"/>
<text text-anchor="start" x="224.86" y="-18.5" font-family="Helvetica,sans-Serif" font-size="10.00">source/pdes/mpi/linear</text>
<text text-anchor="middle" x="280.86" y="-7.5" font-family="Helvetica,sans-Serif" font-size="10.00">_elasticity.cc</text>
</a>
</g>
</g>
<!-- Node1&#45;&gt;Node5 -->
<g id="edge31" class="edge">
<title>Node1&#45;&gt;Node5</title>
<path fill="none" stroke="midnightblue" d="M882.05,-283.14C692.47,-283.48 168.35,-274.29 43.86,-165 9.53,-134.86 -16.3,-102.17 12.86,-67 38.24,-36.38 145.73,-24.2 216.62,-19.45"/>
<polygon fill="midnightblue" stroke="midnightblue" points="882.18,-286.64 892.17,-283.12 882.16,-279.64 882.18,-286.64"/>
</g>
<!-- Node11 -->
<g id="node11" class="node">
<title>Node11</title>
<g id="a_node11"><a xlink:href="source_2pdes_2mpi_2stokes_8cc.html" target="_top" xlink:title=" ">
<polygon fill="none" stroke="black" points="839.36,-6 839.36,-25 984.36,-25 984.36,-6 839.36,-6"/>
<text text-anchor="middle" x="911.86" y="-13" font-family="Helvetica,sans-Serif" font-size="10.00">source/pdes/mpi/stokes.cc</text>
</a>
</g>
</g>
<!-- Node1&#45;&gt;Node11 -->
<g id="edge32" class="edge">
<title>Node1&#45;&gt;Node11</title>
<path fill="none" stroke="midnightblue" d="M881.98,-277.79C648.34,-260.58 -92.79,-195.29 29.86,-67 60.6,-34.84 785.64,-35.88 829.86,-31 842.93,-29.56 857.07,-27.31 869.87,-25.01"/>
<polygon fill="midnightblue" stroke="midnightblue" points="881.83,-281.29 892.05,-278.52 882.34,-274.31 881.83,-281.29"/>
</g>
<!-- Node29 -->
<g id="node29" class="node">
<title>Node29</title>
<g id="a_node29"><a xlink:href="boundary__conditions_8cc.html" target="_top" xlink:title=" ">
<polygon fill="none" stroke="black" points="1572.36,-140 1572.36,-159 1739.36,-159 1739.36,-140 1572.36,-140"/>
<text text-anchor="middle" x="1655.86" y="-147" font-family="Helvetica,sans-Serif" font-size="10.00">source/boundary_conditions.cc</text>
</a>
</g>
</g>
<!-- Node1&#45;&gt;Node29 -->
<g id="edge29" class="edge">
<title>Node1&#45;&gt;Node29</title>
<path fill="none" stroke="midnightblue" d="M962.49,-259.42C973.6,-240.11 992.27,-213.74 1016.86,-201 1124.83,-145.07 1442,-178.38 1562.86,-165 1576.99,-163.44 1592.25,-161.26 1606.25,-159.07"/>
<polygon fill="midnightblue" stroke="midnightblue" points="959.4,-257.79 957.66,-268.24 965.53,-261.16 959.4,-257.79"/>
</g>
<!-- Node30 -->
<g id="node30" class="node">
<title>Node30</title>
<g id="a_node30"><a xlink:href="components_8cc.html" target="_top" xlink:title=" ">
<polygon fill="none" stroke="black" points="1026.36,-207 1026.36,-226 1151.36,-226 1151.36,-207 1026.36,-207"/>
<text text-anchor="middle" x="1088.86" y="-214" font-family="Helvetica,sans-Serif" font-size="10.00">source/components.cc</text>
</a>
</g>
</g>
<!-- Node1&#45;&gt;Node30 -->
<g id="edge30" class="edge">
<title>Node1&#45;&gt;Node30</title>
<path fill="none" stroke="midnightblue" d="M989.85,-264.13C1016.42,-251.62 1050.34,-235.64 1070.8,-226.01"/>
<polygon fill="midnightblue" stroke="midnightblue" points="988.36,-260.97 980.8,-268.4 991.34,-267.3 988.36,-260.97"/>
</g>
<!-- Node31 -->
<g id="node31" class="node">
<title>Node31</title>
<g id="a_node31"><a xlink:href="dof__plotter_8cc.html" target="_top" xlink:title="Degrees of freedom plotter.">
<polygon fill="none" stroke="black" points="1169.86,-207 1169.86,-226 1279.86,-226 1279.86,-207 1169.86,-207"/>
<text text-anchor="middle" x="1224.86" y="-214" font-family="Helvetica,sans-Serif" font-size="10.00">apps/dof_plotter.cc</text>
</a>
</g>
</g>
<!-- Node1&#45;&gt;Node31 -->
<g id="edge33" class="edge">
<title>Node1&#45;&gt;Node31</title>
<path fill="none" stroke="midnightblue" d="M1019.44,-266.23C1073.21,-253.48 1145.88,-236.24 1188.81,-226.05"/>
<polygon fill="midnightblue" stroke="midnightblue" points="1018.56,-262.84 1009.64,-268.56 1020.17,-269.65 1018.56,-262.84"/>
</g>
<!-- Node3 -->
<g id="node3" class="node">
<title>Node3</title>
<g id="a_node3"><a xlink:href="linear__problem_8h.html" target="_top" xlink:title=" ">
<polygon fill="none" stroke="black" points="988.36,-134.5 988.36,-164.5 1119.36,-164.5 1119.36,-134.5 988.36,-134.5"/>
<text text-anchor="start" x="996.36" y="-152.5" font-family="Helvetica,sans-Serif" font-size="10.00">include/pdes/mpi/linear</text>
<text text-anchor="middle" x="1053.86" y="-141.5" font-family="Helvetica,sans-Serif" font-size="10.00">_problem.h</text>
</a>
</g>
</g>
<!-- Node2&#45;&gt;Node3 -->
<g id="edge2" class="edge">
<title>Node2&#45;&gt;Node3</title>
<path fill="none" stroke="midnightblue" d="M946.65,-197.27C970.38,-186.92 999.64,-174.15 1021.59,-164.58"/>
<polygon fill="midnightblue" stroke="midnightblue" points="944.95,-194.19 937.19,-201.4 947.75,-200.61 944.95,-194.19"/>
</g>
<!-- Node14 -->
<g id="node14" class="node">
<title>Node14</title>
<g id="a_node14"><a xlink:href="distributed__lagrange_8h.html" target="_top" xlink:title=" ">
<polygon fill="none" stroke="black" points="1298.36,-134.5 1298.36,-164.5 1427.36,-164.5 1427.36,-134.5 1298.36,-134.5"/>
<text text-anchor="start" x="1306.36" y="-152.5" font-family="Helvetica,sans-Serif" font-size="10.00">include/pdes/serial</text>
<text text-anchor="middle" x="1362.86" y="-141.5" font-family="Helvetica,sans-Serif" font-size="10.00">/distributed_lagrange.h</text>
</a>
</g>
</g>
<!-- Node2&#45;&gt;Node14 -->
<g id="edge13" class="edge">
<title>Node2&#45;&gt;Node14</title>
<path fill="none" stroke="midnightblue" d="M979.99,-201.62C981.29,-201.41 982.58,-201.2 983.86,-201 1094,-183.56 1222.8,-167.26 1298.34,-158.12"/>
<polygon fill="midnightblue" stroke="midnightblue" points="979.2,-198.2 969.91,-203.3 980.35,-205.11 979.2,-198.2"/>
</g>
<!-- Node17 -->
<g id="node17" class="node">
<title>Node17</title>
<g id="a_node17"><a xlink:href="serial_2linear__elasticity_8h.html" target="_top" xlink:title=" ">
<polygon fill="none" stroke="black" points="1445.86,-134.5 1445.86,-164.5 1553.86,-164.5 1553.86,-134.5 1445.86,-134.5"/>
<text text-anchor="start" x="1453.86" y="-152.5" font-family="Helvetica,sans-Serif" font-size="10.00">include/pdes/serial</text>
<text text-anchor="middle" x="1499.86" y="-141.5" font-family="Helvetica,sans-Serif" font-size="10.00">/linear_elasticity.h</text>
</a>
</g>
</g>
<!-- Node2&#45;&gt;Node17 -->
<g id="edge16" class="edge">
<title>Node2&#45;&gt;Node17</title>
<path fill="none" stroke="midnightblue" d="M979.98,-201.52C981.28,-201.34 982.57,-201.17 983.86,-201 1184.11,-174.74 1237.24,-195.73 1436.86,-165 1439.74,-164.56 1442.69,-164.05 1445.66,-163.51"/>
<polygon fill="midnightblue" stroke="midnightblue" points="979.25,-198.09 969.87,-203.02 980.28,-205.02 979.25,-198.09"/>
</g>
<!-- Node20 -->
<g id="node20" class="node">
<title>Node20</title>
<g id="a_node20"><a xlink:href="serial_2poisson_8h.html" target="_top" xlink:title=" ">
<polygon fill="none" stroke="black" points="170.86,-134.5 170.86,-164.5 278.86,-164.5 278.86,-134.5 170.86,-134.5"/>
<text text-anchor="start" x="178.86" y="-152.5" font-family="Helvetica,sans-Serif" font-size="10.00">include/pdes/serial</text>
<text text-anchor="middle" x="224.86" y="-141.5" font-family="Helvetica,sans-Serif" font-size="10.00">/poisson.h</text>
</a>
</g>
</g>
<!-- Node2&#45;&gt;Node20 -->
<g id="edge19" class="edge">
<title>Node2&#45;&gt;Node20</title>
<path fill="none" stroke="midnightblue" d="M829.57,-208.3C691.34,-195.09 400.2,-167.26 279.29,-155.7"/>
<polygon fill="midnightblue" stroke="midnightblue" points="829.37,-211.8 839.66,-209.27 830.03,-204.83 829.37,-211.8"/>
</g>
<!-- Node23 -->
<g id="node23" class="node">
<title>Node23</title>
<g id="a_node23"><a xlink:href="reduced__lagrange_8h.html" target="_top" xlink:title=" ">
<polygon fill="none" stroke="black" points="440.86,-134.5 440.86,-164.5 556.86,-164.5 556.86,-134.5 440.86,-134.5"/>
<text text-anchor="start" x="448.86" y="-152.5" font-family="Helvetica,sans-Serif" font-size="10.00">include/pdes/serial</text>
<text text-anchor="middle" x="498.86" y="-141.5" font-family="Helvetica,sans-Serif" font-size="10.00">/reduced_lagrange.h</text>
</a>
</g>
</g>
<!-- Node2&#45;&gt;Node23 -->
<g id="edge22" class="edge">
<title>Node2&#45;&gt;Node23</title>
<path fill="none" stroke="midnightblue" d="M829.28,-203.4C750.47,-190.78 628.64,-171.28 557.01,-159.81"/>
<polygon fill="midnightblue" stroke="midnightblue" points="829.2,-206.93 839.63,-205.06 830.31,-200.02 829.2,-206.93"/>
</g>
<!-- Node26 -->
<g id="node26" class="node">
<title>Node26</title>
<g id="a_node26"><a xlink:href="serial_2stokes_8h.html" target="_top" xlink:title=" ">
<polygon fill="none" stroke="black" points="701.86,-134.5 701.86,-164.5 809.86,-164.5 809.86,-134.5 701.86,-134.5"/>
<text text-anchor="start" x="709.86" y="-152.5" font-family="Helvetica,sans-Serif" font-size="10.00">include/pdes/serial</text>
<text text-anchor="middle" x="755.86" y="-141.5" font-family="Helvetica,sans-Serif" font-size="10.00">/stokes.h</text>
</a>
</g>
</g>
<!-- Node2&#45;&gt;Node26 -->
<g id="edge25" class="edge">
<title>Node2&#45;&gt;Node26</title>
<path fill="none" stroke="midnightblue" d="M863.07,-197.27C839.33,-186.92 810.08,-174.15 788.12,-164.58"/>
<polygon fill="midnightblue" stroke="midnightblue" points="861.96,-200.61 872.53,-201.4 864.76,-194.19 861.96,-200.61"/>
</g>
<!-- Node2&#45;&gt;Node29 -->
<g id="edge28" class="edge">
<title>Node2&#45;&gt;Node29</title>
<path fill="none" stroke="midnightblue" d="M979.97,-201.49C981.28,-201.32 982.57,-201.16 983.86,-201 1239.78,-169.67 1306.54,-192.89 1562.86,-165 1577.15,-163.44 1592.61,-161.25 1606.74,-159.03"/>
<polygon fill="midnightblue" stroke="midnightblue" points="979.27,-198.06 969.86,-202.93 980.25,-204.99 979.27,-198.06"/>
</g>
<!-- Node4 -->
<g id="node4" class="node">
<title>Node4</title>
<g id="a_node4"><a xlink:href="mpi_2linear__elasticity_8h.html" target="_top" xlink:title=" ">
<polygon fill="none" stroke="black" points="833.36,-67.5 833.36,-97.5 964.36,-97.5 964.36,-67.5 833.36,-67.5"/>
<text text-anchor="start" x="841.36" y="-85.5" font-family="Helvetica,sans-Serif" font-size="10.00">include/pdes/mpi/linear</text>
<text text-anchor="middle" x="898.86" y="-74.5" font-family="Helvetica,sans-Serif" font-size="10.00">_elasticity.h</text>
</a>
</g>
</g>
<!-- Node3&#45;&gt;Node4 -->
<g id="edge3" class="edge">
<title>Node3&#45;&gt;Node4</title>
<path fill="none" stroke="midnightblue" d="M1010.71,-130.41C985.97,-120.03 955.36,-107.2 932.42,-97.58"/>
<polygon fill="midnightblue" stroke="midnightblue" points="1009.65,-133.76 1020.22,-134.4 1012.36,-127.3 1009.65,-133.76"/>
</g>
<!-- Node7 -->
<g id="node7" class="node">
<title>Node7</title>
<g id="a_node7"><a xlink:href="mpi_2poisson_8h.html" target="_top" xlink:title=" ">
<polygon fill="none" stroke="black" points="1143.36,-73 1143.36,-92 1292.36,-92 1292.36,-73 1143.36,-73"/>
<text text-anchor="middle" x="1217.86" y="-80" font-family="Helvetica,sans-Serif" font-size="10.00">include/pdes/mpi/poisson.h</text>
</a>
</g>
</g>
<!-- Node3&#45;&gt;Node7 -->
<g id="edge6" class="edge">
<title>Node3&#45;&gt;Node7</title>
<path fill="none" stroke="midnightblue" d="M1098.97,-130.62C1130.71,-118.04 1171.77,-101.77 1196.39,-92.01"/>
<polygon fill="midnightblue" stroke="midnightblue" points="1097.45,-127.46 1089.44,-134.4 1100.03,-133.97 1097.45,-127.46"/>
</g>
<!-- Node10 -->
<g id="node10" class="node">
<title>Node10</title>
<g id="a_node10"><a xlink:href="mpi_2stokes_8h.html" target="_top" xlink:title=" ">
<polygon fill="none" stroke="black" points="982.36,-73 982.36,-92 1125.36,-92 1125.36,-73 982.36,-73"/>
<text text-anchor="middle" x="1053.86" y="-80" font-family="Helvetica,sans-Serif" font-size="10.00">include/pdes/mpi/stokes.h</text>
</a>
</g>
</g>
<!-- Node3&#45;&gt;Node10 -->
<g id="edge9" class="edge">
<title>Node3&#45;&gt;Node10</title>
<path fill="none" stroke="midnightblue" d="M1053.86,-124.25C1053.86,-113.02 1053.86,-100.38 1053.86,-92.19"/>
<polygon fill="midnightblue" stroke="midnightblue" points="1050.36,-124.4 1053.86,-134.4 1057.36,-124.4 1050.36,-124.4"/>
</g>
<!-- Node13 -->
<g id="node13" class="node">
<title>Node13</title>
<g id="a_node13"><a xlink:href="linear__problem_8cc.html" target="_top" xlink:title=" ">
<polygon fill="none" stroke="black" points="1310.86,-67.5 1310.86,-97.5 1438.86,-97.5 1438.86,-67.5 1310.86,-67.5"/>
<text text-anchor="start" x="1318.86" y="-85.5" font-family="Helvetica,sans-Serif" font-size="10.00">source/pdes/mpi/linear</text>
<text text-anchor="middle" x="1374.86" y="-74.5" font-family="Helvetica,sans-Serif" font-size="10.00">_problem.cc</text>
</a>
</g>
</g>
<!-- Node3&#45;&gt;Node13 -->
<g id="edge12" class="edge">
<title>Node3&#45;&gt;Node13</title>
<path fill="none" stroke="midnightblue" d="M1129.66,-133.15C1184.81,-121.98 1258.66,-107.03 1310.85,-96.46"/>
<polygon fill="midnightblue" stroke="midnightblue" points="1128.7,-129.77 1119.59,-135.19 1130.09,-136.64 1128.7,-129.77"/>
</g>
<!-- Node4&#45;&gt;Node5 -->
<g id="edge4" class="edge">
<title>Node4&#45;&gt;Node5</title>
<path fill="none" stroke="midnightblue" d="M822.95,-66.97C644.07,-41.84 445,-26.98 345.04,-20.42"/>
<polygon fill="midnightblue" stroke="midnightblue" points="822.68,-70.46 833.07,-68.4 823.66,-63.53 822.68,-70.46"/>
</g>
<!-- Node6 -->
<g id="node6" class="node">
<title>Node6</title>
<g id="a_node6"><a xlink:href="apps_2mpi_2linear__elasticity_8cc.html" target="_top" xlink:title=" ">
<polygon fill="none" stroke="black" points="666.36,-6 666.36,-25 821.36,-25 821.36,-6 666.36,-6"/>
<text text-anchor="middle" x="743.86" y="-13" font-family="Helvetica,sans-Serif" font-size="10.00">apps/mpi/linear_elasticity.cc</text>
</a>
</g>
</g>
<!-- Node4&#45;&gt;Node6 -->
<g id="edge5" class="edge">
<title>Node4&#45;&gt;Node6</title>
<path fill="none" stroke="midnightblue" d="M855.83,-63.46C825.89,-50.9 787.31,-34.72 764.14,-25.01"/>
<polygon fill="midnightblue" stroke="midnightblue" points="854.65,-66.76 865.22,-67.4 857.36,-60.3 854.65,-66.76"/>
</g>
<!-- Node8 -->
<g id="node8" class="node">
<title>Node8</title>
<g id="a_node8"><a xlink:href="source_2pdes_2mpi_2poisson_8cc.html" target="_top" xlink:title=" ">
<polygon fill="none" stroke="black" points="1138.36,-6 1138.36,-25 1289.36,-25 1289.36,-6 1138.36,-6"/>
<text text-anchor="middle" x="1213.86" y="-13" font-family="Helvetica,sans-Serif" font-size="10.00">source/pdes/mpi/poisson.cc</text>
</a>
</g>
</g>
<!-- Node7&#45;&gt;Node8 -->
<g id="edge7" class="edge">
<title>Node7&#45;&gt;Node8</title>
<path fill="none" stroke="midnightblue" d="M1216.69,-62.54C1215.93,-50.17 1214.97,-34.62 1214.39,-25.13"/>
<polygon fill="midnightblue" stroke="midnightblue" points="1213.21,-62.97 1217.32,-72.73 1220.2,-62.54 1213.21,-62.97"/>
</g>
<!-- Node9 -->
<g id="node9" class="node">
<title>Node9</title>
<g id="a_node9"><a xlink:href="apps_2mpi_2poisson_8cc.html" target="_top" xlink:title=" ">
<polygon fill="none" stroke="black" points="1307.86,-6 1307.86,-25 1423.86,-25 1423.86,-6 1307.86,-6"/>
<text text-anchor="middle" x="1365.86" y="-13" font-family="Helvetica,sans-Serif" font-size="10.00">apps/mpi/poisson.cc</text>
</a>
</g>
</g>
<!-- Node7&#45;&gt;Node9 -->
<g id="edge8" class="edge">
<title>Node7&#45;&gt;Node9</title>
<path fill="none" stroke="midnightblue" d="M1246.82,-68.78C1276.13,-55.91 1320.65,-36.35 1346.12,-25.17"/>
<polygon fill="midnightblue" stroke="midnightblue" points="1245.26,-65.64 1237.51,-72.87 1248.07,-72.05 1245.26,-65.64"/>
</g>
<!-- Node10&#45;&gt;Node11 -->
<g id="edge10" class="edge">
<title>Node10&#45;&gt;Node11</title>
<path fill="none" stroke="midnightblue" d="M1025.7,-68.61C997.58,-55.74 955.13,-36.31 930.79,-25.17"/>
<polygon fill="midnightblue" stroke="midnightblue" points="1024.45,-71.89 1035,-72.87 1027.36,-65.52 1024.45,-71.89"/>
</g>
<!-- Node12 -->
<g id="node12" class="node">
<title>Node12</title>
<g id="a_node12"><a xlink:href="apps_2mpi_2stokes_8cc.html" target="_top" xlink:title=" ">
<polygon fill="none" stroke="black" points="1002.86,-6 1002.86,-25 1112.86,-25 1112.86,-6 1002.86,-6"/>
<text text-anchor="middle" x="1057.86" y="-13" font-family="Helvetica,sans-Serif" font-size="10.00">apps/mpi/stokes.cc</text>
</a>
</g>
</g>
<!-- Node10&#45;&gt;Node12 -->
<g id="edge11" class="edge">
<title>Node10&#45;&gt;Node12</title>
<path fill="none" stroke="midnightblue" d="M1055.02,-62.54C1055.78,-50.17 1056.74,-34.62 1057.33,-25.13"/>
<polygon fill="midnightblue" stroke="midnightblue" points="1051.52,-62.54 1054.4,-72.73 1058.5,-62.97 1051.52,-62.54"/>
</g>
<!-- Node15 -->
<g id="node15" class="node">
<title>Node15</title>
<g id="a_node15"><a xlink:href="source_2pdes_2serial_2distributed__lagrange_8cc.html" target="_top" xlink:title=" ">
<polygon fill="none" stroke="black" points="1456.86,-67.5 1456.86,-97.5 1590.86,-97.5 1590.86,-67.5 1456.86,-67.5"/>
<text text-anchor="start" x="1464.86" y="-85.5" font-family="Helvetica,sans-Serif" font-size="10.00">source/pdes/serial</text>
<text text-anchor="middle" x="1523.86" y="-74.5" font-family="Helvetica,sans-Serif" font-size="10.00">/distributed_lagrange.cc</text>
</a>
</g>
</g>
<!-- Node14&#45;&gt;Node15 -->
<g id="edge14" class="edge">
<title>Node14&#45;&gt;Node15</title>
<path fill="none" stroke="midnightblue" d="M1407.33,-130.54C1433.09,-120.14 1465.06,-107.24 1488.99,-97.58"/>
<polygon fill="midnightblue" stroke="midnightblue" points="1405.75,-127.41 1397.79,-134.4 1408.37,-133.9 1405.75,-127.41"/>
</g>
<!-- Node16 -->
<g id="node16" class="node">
<title>Node16</title>
<g id="a_node16"><a xlink:href="apps_2serial_2distributed__lagrange_8cc.html" target="_top" xlink:title=" ">
<polygon fill="none" stroke="black" points="1609.36,-67.5 1609.36,-97.5 1734.36,-97.5 1734.36,-67.5 1609.36,-67.5"/>
<text text-anchor="start" x="1617.36" y="-85.5" font-family="Helvetica,sans-Serif" font-size="10.00">apps/serial/distributed</text>
<text text-anchor="middle" x="1671.86" y="-74.5" font-family="Helvetica,sans-Serif" font-size="10.00">_lagrange.cc</text>
</a>
</g>
</g>
<!-- Node14&#45;&gt;Node16 -->
<g id="edge15" class="edge">
<title>Node14&#45;&gt;Node16</title>
<path fill="none" stroke="midnightblue" d="M1437.57,-132.78C1490.12,-121.73 1559.64,-107.1 1609.28,-96.66"/>
<polygon fill="midnightblue" stroke="midnightblue" points="1436.7,-129.39 1427.63,-134.87 1438.14,-136.24 1436.7,-129.39"/>
</g>
<!-- Node18 -->
<g id="node18" class="node">
<title>Node18</title>
<g id="a_node18"><a xlink:href="source_2pdes_2serial_2linear__elasticity_8cc.html" target="_top" xlink:title=" ">
<polygon fill="none" stroke="black" points="1752.86,-67.5 1752.86,-97.5 1862.86,-97.5 1862.86,-67.5 1752.86,-67.5"/>
<text text-anchor="start" x="1760.86" y="-85.5" font-family="Helvetica,sans-Serif" font-size="10.00">source/pdes/serial</text>
<text text-anchor="middle" x="1807.86" y="-74.5" font-family="Helvetica,sans-Serif" font-size="10.00">/linear_elasticity.cc</text>
</a>
</g>
</g>
<!-- Node17&#45;&gt;Node18 -->
<g id="edge17" class="edge">
<title>Node17&#45;&gt;Node18</title>
<path fill="none" stroke="midnightblue" d="M1563.55,-134.06C1563.65,-134.04 1563.76,-134.02 1563.86,-134 1643.65,-116.99 1664.07,-115.01 1743.86,-98 1746.75,-97.38 1749.72,-96.74 1752.72,-96.09"/>
<polygon fill="midnightblue" stroke="midnightblue" points="1562.99,-130.61 1553.96,-136.14 1564.47,-137.45 1562.99,-130.61"/>
</g>
<!-- Node19 -->
<g id="node19" class="node">
<title>Node19</title>
<g id="a_node19"><a xlink:href="apps_2serial_2linear__elasticity_8cc.html" target="_top" xlink:title=" ">
<polygon fill="none" stroke="black" points="1881.36,-67.5 1881.36,-97.5 1982.36,-97.5 1982.36,-67.5 1881.36,-67.5"/>
<text text-anchor="start" x="1889.36" y="-85.5" font-family="Helvetica,sans-Serif" font-size="10.00">apps/serial/linear</text>
<text text-anchor="middle" x="1931.86" y="-74.5" font-family="Helvetica,sans-Serif" font-size="10.00">_elasticity.cc</text>
</a>
</g>
</g>
<!-- Node17&#45;&gt;Node19 -->
<g id="edge18" class="edge">
<title>Node17&#45;&gt;Node19</title>
<path fill="none" stroke="midnightblue" d="M1563.55,-134.05C1563.65,-134.03 1563.76,-134.02 1563.86,-134 1699.7,-110.74 1736.18,-122.23 1871.86,-98 1874.92,-97.45 1878.05,-96.84 1881.21,-96.2"/>
<polygon fill="midnightblue" stroke="midnightblue" points="1563.1,-130.58 1553.9,-135.83 1564.37,-137.46 1563.1,-130.58"/>
</g>
<!-- Node21 -->
<g id="node21" class="node">
<title>Node21</title>
<g id="a_node21"><a xlink:href="source_2pdes_2serial_2poisson_8cc.html" target="_top" xlink:title=" ">
<polygon fill="none" stroke="black" points="39.36,-67.5 39.36,-97.5 144.36,-97.5 144.36,-67.5 39.36,-67.5"/>
<text text-anchor="start" x="47.36" y="-85.5" font-family="Helvetica,sans-Serif" font-size="10.00">source/pdes/serial</text>
<text text-anchor="middle" x="91.86" y="-74.5" font-family="Helvetica,sans-Serif" font-size="10.00">/poisson.cc</text>
</a>
</g>
</g>
<!-- Node20&#45;&gt;Node21 -->
<g id="edge20" class="edge">
<title>Node20&#45;&gt;Node21</title>
<path fill="none" stroke="midnightblue" d="M186.99,-129.99C165.91,-119.69 140.08,-107.07 120.66,-97.58"/>
<polygon fill="midnightblue" stroke="midnightblue" points="185.48,-133.15 196,-134.4 188.55,-126.86 185.48,-133.15"/>
</g>
<!-- Node22 -->
<g id="node22" class="node">
<title>Node22</title>
<g id="a_node22"><a xlink:href="apps_2serial_2poisson_8cc.html" target="_top" xlink:title=" ">
<polygon fill="none" stroke="black" points="162.86,-73 162.86,-92 286.86,-92 286.86,-73 162.86,-73"/>
<text text-anchor="middle" x="224.86" y="-80" font-family="Helvetica,sans-Serif" font-size="10.00">apps/serial/poisson.cc</text>
</a>
</g>
</g>
<!-- Node20&#45;&gt;Node22 -->
<g id="edge21" class="edge">
<title>Node20&#45;&gt;Node22</title>
<path fill="none" stroke="midnightblue" d="M224.86,-124.25C224.86,-113.02 224.86,-100.38 224.86,-92.19"/>
<polygon fill="midnightblue" stroke="midnightblue" points="221.36,-124.4 224.86,-134.4 228.36,-124.4 221.36,-124.4"/>
</g>
<!-- Node24 -->
<g id="node24" class="node">
<title>Node24</title>
<g id="a_node24"><a xlink:href="source_2pdes_2serial_2reduced__lagrange_8cc.html" target="_top" xlink:title=" ">
<polygon fill="none" stroke="black" points="304.86,-67.5 304.86,-97.5 424.86,-97.5 424.86,-67.5 304.86,-67.5"/>
<text text-anchor="start" x="312.86" y="-85.5" font-family="Helvetica,sans-Serif" font-size="10.00">source/pdes/serial</text>
<text text-anchor="middle" x="364.86" y="-74.5" font-family="Helvetica,sans-Serif" font-size="10.00">/reduced_lagrange.cc</text>
</a>
</g>
</g>
<!-- Node23&#45;&gt;Node24 -->
<g id="edge23" class="edge">
<title>Node23&#45;&gt;Node24</title>
<path fill="none" stroke="midnightblue" d="M460.7,-129.99C439.46,-119.69 413.44,-107.07 393.88,-97.58"/>
<polygon fill="midnightblue" stroke="midnightblue" points="459.26,-133.18 469.78,-134.4 462.31,-126.88 459.26,-133.18"/>
</g>
<!-- Node25 -->
<g id="node25" class="node">
<title>Node25</title>
<g id="a_node25"><a xlink:href="apps_2serial_2reduced__lagrange_8cc.html" target="_top" xlink:title=" ">
<polygon fill="none" stroke="black" points="442.86,-67.5 442.86,-97.5 554.86,-97.5 554.86,-67.5 442.86,-67.5"/>
<text text-anchor="start" x="450.86" y="-85.5" font-family="Helvetica,sans-Serif" font-size="10.00">apps/serial/reduced</text>
<text text-anchor="middle" x="498.86" y="-74.5" font-family="Helvetica,sans-Serif" font-size="10.00">_lagrange.cc</text>
</a>
</g>
</g>
<!-- Node23&#45;&gt;Node25 -->
<g id="edge24" class="edge">
<title>Node23&#45;&gt;Node25</title>
<path fill="none" stroke="midnightblue" d="M498.86,-124.11C498.86,-115.15 498.86,-105.32 498.86,-97.58"/>
<polygon fill="midnightblue" stroke="midnightblue" points="495.36,-124.4 498.86,-134.4 502.36,-124.4 495.36,-124.4"/>
</g>
<!-- Node27 -->
<g id="node27" class="node">
<title>Node27</title>
<g id="a_node27"><a xlink:href="source_2pdes_2serial_2stokes_8cc.html" target="_top" xlink:title=" ">
<polygon fill="none" stroke="black" points="573.36,-67.5 573.36,-97.5 678.36,-97.5 678.36,-67.5 573.36,-67.5"/>
<text text-anchor="start" x="581.36" y="-85.5" font-family="Helvetica,sans-Serif" font-size="10.00">source/pdes/serial</text>
<text text-anchor="middle" x="625.86" y="-74.5" font-family="Helvetica,sans-Serif" font-size="10.00">/stokes.cc</text>
</a>
</g>
</g>
<!-- Node26&#45;&gt;Node27 -->
<g id="edge26" class="edge">
<title>Node26&#45;&gt;Node27</title>
<path fill="none" stroke="midnightblue" d="M718.56,-129.85C698.01,-119.58 672.91,-107.03 654.01,-97.58"/>
<polygon fill="midnightblue" stroke="midnightblue" points="717.14,-133.05 727.65,-134.4 720.27,-126.79 717.14,-133.05"/>
</g>
<!-- Node28 -->
<g id="node28" class="node">
<title>Node28</title>
<g id="a_node28"><a xlink:href="apps_2serial_2stokes_8cc.html" target="_top" xlink:title=" ">
<polygon fill="none" stroke="black" points="696.86,-73 696.86,-92 814.86,-92 814.86,-73 696.86,-73"/>
<text text-anchor="middle" x="755.86" y="-80" font-family="Helvetica,sans-Serif" font-size="10.00">apps/serial/stokes.cc</text>
</a>
</g>
</g>
<!-- Node26&#45;&gt;Node28 -->
<g id="edge27" class="edge">
<title>Node26&#45;&gt;Node28</title>
<path fill="none" stroke="midnightblue" d="M755.86,-124.25C755.86,-113.02 755.86,-100.38 755.86,-92.19"/>
<polygon fill="midnightblue" stroke="midnightblue" points="752.36,-124.4 755.86,-134.4 759.36,-124.4 752.36,-124.4"/>
</g>
</g>
</svg>
