<?xml version="1.0" encoding="UTF-8" standalone="no"?>
<!DOCTYPE svg PUBLIC "-//W3C//DTD SVG 1.1//EN"
 "http://www.w3.org/Graphics/SVG/1.1/DTD/svg11.dtd">
<!-- Generated by graphviz version 2.43.0 (0)
 -->
<!-- Title: include/compute_intersections.h Pages: 1 -->
<svg width="306pt" height="173pt"
 viewBox="0.00 0.00 306.00 173.00" xmlns="http://www.w3.org/2000/svg" xmlns:xlink="http://www.w3.org/1999/xlink">
<g id="graph0" class="graph" transform="scale(1 1) rotate(0) translate(4 169)">
<title>include/compute_intersections.h</title>
<!-- Node1 -->
<g id="node1" class="node">
<title>Node1</title>
<g id="a_node1"><a xlink:title=" ">
<polygon fill="#bfbfbf" stroke="black" points="66,-145.5 66,-164.5 241,-164.5 241,-145.5 66,-145.5"/>
<text text-anchor="middle" x="153.5" y="-152.5" font-family="Helvetica,sans-Serif" font-size="10.00">include/compute_intersections.h</text>
</a>
</g>
</g>
<!-- Node2 -->
<g id="node2" class="node">
<title>Node2</title>
<g id="a_node2"><a xlink:href="assemble__coupling__exact_8h.html" target="_top" xlink:title=" ">
<polygon fill="none" stroke="black" points="0,-73 0,-103 149,-103 149,-73 0,-73"/>
<text text-anchor="start" x="8" y="-91" font-family="Helvetica,sans-Serif" font-size="10.00">include/assemble_coupling</text>
<text text-anchor="middle" x="74.5" y="-80" font-family="Helvetica,sans-Serif" font-size="10.00">_exact.h</text>
</a>
</g>
</g>
<!-- Node1&#45;&gt;Node2 -->
<g id="edge1" class="edge">
<title>Node1&#45;&gt;Node2</title>
<path fill="none" stroke="midnightblue" d="M134.95,-138.74C121.84,-127.95 104.4,-113.6 91.62,-103.09"/>
<polygon fill="midnightblue" stroke="midnightblue" points="132.9,-141.58 142.85,-145.23 137.35,-136.18 132.9,-141.58"/>
</g>
<!-- Node4 -->
<g id="node4" class="node">
<title>Node4</title>
<g id="a_node4"><a xlink:href="create__coupling__sparsity__pattern__with__exact__intersections_8cc.html" target="_top" xlink:title=" ">
<polygon fill="none" stroke="black" points="167,-67.5 167,-108.5 298,-108.5 298,-67.5 167,-67.5"/>
<text text-anchor="start" x="175" y="-96.5" font-family="Helvetica,sans-Serif" font-size="10.00">source/create_coupling</text>
<text text-anchor="start" x="175" y="-85.5" font-family="Helvetica,sans-Serif" font-size="10.00">_sparsity_pattern_with</text>
<text text-anchor="middle" x="232.5" y="-74.5" font-family="Helvetica,sans-Serif" font-size="10.00">_exact_intersections.cc</text>
</a>
</g>
</g>
<!-- Node1&#45;&gt;Node4 -->
<g id="edge3" class="edge">
<title>Node1&#45;&gt;Node4</title>
<path fill="none" stroke="midnightblue" d="M172.19,-138.62C183.12,-129.63 197.04,-118.18 208.75,-108.54"/>
<polygon fill="midnightblue" stroke="midnightblue" points="169.65,-136.18 164.15,-145.23 174.1,-141.58 169.65,-136.18"/>
</g>
<!-- Node3 -->
<g id="node3" class="node">
<title>Node3</title>
<g id="a_node3"><a xlink:href="assemble__coupling__exact_8cc.html" target="_top" xlink:title=" ">
<polygon fill="none" stroke="black" points="1.5,-0.5 1.5,-30.5 147.5,-30.5 147.5,-0.5 1.5,-0.5"/>
<text text-anchor="start" x="9.5" y="-18.5" font-family="Helvetica,sans-Serif" font-size="10.00">source/assemble_coupling</text>
<text text-anchor="middle" x="74.5" y="-7.5" font-family="Helvetica,sans-Serif" font-size="10.00">_exact.cc</text>
</a>
</g>
</g>
<!-- Node2&#45;&gt;Node3 -->
<g id="edge2" class="edge">
<title>Node2&#45;&gt;Node3</title>
<path fill="none" stroke="midnightblue" d="M74.5,-62.73C74.5,-52.07 74.5,-39.91 74.5,-30.75"/>
<polygon fill="midnightblue" stroke="midnightblue" points="71,-62.73 74.5,-72.73 78,-62.73 71,-62.73"/>
</g>
</g>
</svg>
