<?xml version="1.0" encoding="UTF-8" standalone="no"?>
<!DOCTYPE svg PUBLIC "-//W3C//DTD SVG 1.1//EN"
 "http://www.w3.org/Graphics/SVG/1.1/DTD/svg11.dtd">
<!-- Generated by graphviz version 2.43.0 (0)
 -->
<!-- Title: include/parsed_tools/components.h Pages: 1 -->
<svg width="2066pt" height="307pt"
 viewBox="0.00 0.00 2066.00 307.00" xmlns="http://www.w3.org/2000/svg" xmlns:xlink="http://www.w3.org/1999/xlink">
<g id="graph0" class="graph" transform="scale(1 1) rotate(0) translate(4 303)">
<title>include/parsed_tools/components.h</title>
<!-- Node1 -->
<g id="node1" class="node">
<title>Node1</title>
<g id="a_node1"><a xlink:title=" ">
<polygon fill="#bfbfbf" stroke="black" points="1210,-268.5 1210,-298.5 1327,-298.5 1327,-268.5 1210,-268.5"/>
<text text-anchor="start" x="1218" y="-286.5" font-family="Helvetica,sans-Serif" font-size="10.00">include/parsed_tools</text>
<text text-anchor="middle" x="1268.5" y="-275.5" font-family="Helvetica,sans-Serif" font-size="10.00">/components.h</text>
</a>
</g>
</g>
<!-- Node2 -->
<g id="node2" class="node">
<title>Node2</title>
<g id="a_node2"><a xlink:href="boundary__conditions_8h.html" target="_top" xlink:title=" ">
<polygon fill="none" stroke="black" points="1157.5,-201.5 1157.5,-231.5 1287.5,-231.5 1287.5,-201.5 1157.5,-201.5"/>
<text text-anchor="start" x="1165.5" y="-219.5" font-family="Helvetica,sans-Serif" font-size="10.00">include/parsed_tools</text>
<text text-anchor="middle" x="1222.5" y="-208.5" font-family="Helvetica,sans-Serif" font-size="10.00">/boundary_conditions.h</text>
</a>
</g>
</g>
<!-- Node1&#45;&gt;Node2 -->
<g id="edge1" class="edge">
<title>Node1&#45;&gt;Node2</title>
<path fill="none" stroke="midnightblue" d="M1252.69,-260.16C1245.98,-250.68 1238.37,-239.92 1232.46,-231.58"/>
<polygon fill="midnightblue" stroke="midnightblue" points="1249.88,-262.26 1258.52,-268.4 1255.6,-258.21 1249.88,-262.26"/>
</g>
<!-- Node5 -->
<g id="node5" class="node">
<title>Node5</title>
<g id="a_node5"><a xlink:href="source_2pdes_2linear__elasticity_8cc.html" target="_top" xlink:title=" ">
<polygon fill="none" stroke="black" points="269.5,-0.5 269.5,-30.5 375.5,-30.5 375.5,-0.5 269.5,-0.5"/>
<text text-anchor="start" x="277.5" y="-18.5" font-family="Helvetica,sans-Serif" font-size="10.00">source/pdes/linear</text>
<text text-anchor="middle" x="322.5" y="-7.5" font-family="Helvetica,sans-Serif" font-size="10.00">_elasticity.cc</text>
</a>
</g>
</g>
<!-- Node1&#45;&gt;Node5 -->
<g id="edge33" class="edge">
<title>Node1&#45;&gt;Node5</title>
<path fill="none" stroke="midnightblue" d="M1199.76,-274.17C1076.47,-258.43 810.1,-220.83 590.5,-165 500.46,-142.11 469.5,-149.97 392.5,-98 365.6,-79.84 342.93,-48.72 331.17,-30.64"/>
<polygon fill="midnightblue" stroke="midnightblue" points="1199.45,-277.66 1209.82,-275.44 1200.34,-270.71 1199.45,-277.66"/>
</g>
<!-- Node15 -->
<g id="node15" class="node">
<title>Node15</title>
<g id="a_node15"><a xlink:href="source_2pdes_2stokes_8cc.html" target="_top" xlink:title=" ">
<polygon fill="none" stroke="black" points="0,-6 0,-25 123,-25 123,-6 0,-6"/>
<text text-anchor="middle" x="61.5" y="-13" font-family="Helvetica,sans-Serif" font-size="10.00">source/pdes/stokes.cc</text>
</a>
</g>
</g>
<!-- Node1&#45;&gt;Node15 -->
<g id="edge34" class="edge">
<title>Node1&#45;&gt;Node15</title>
<path fill="none" stroke="midnightblue" d="M1199.93,-278.29C982,-263.86 308.86,-210.95 126.5,-98 96.5,-79.42 74.49,-41.86 65.7,-25.01"/>
<polygon fill="midnightblue" stroke="midnightblue" points="1199.75,-281.79 1209.96,-278.95 1200.21,-274.8 1199.75,-281.79"/>
</g>
<!-- Node30 -->
<g id="node30" class="node">
<title>Node30</title>
<g id="a_node30"><a xlink:href="boundary__conditions_8cc.html" target="_top" xlink:title=" ">
<polygon fill="none" stroke="black" points="1733,-140 1733,-159 1900,-159 1900,-140 1733,-140"/>
<text text-anchor="middle" x="1816.5" y="-147" font-family="Helvetica,sans-Serif" font-size="10.00">source/boundary_conditions.cc</text>
</a>
</g>
</g>
<!-- Node1&#45;&gt;Node30 -->
<g id="edge31" class="edge">
<title>Node1&#45;&gt;Node30</title>
<path fill="none" stroke="midnightblue" d="M1280.22,-259.58C1291.38,-240.38 1310.08,-214.06 1334.5,-201 1411.05,-160.05 1637.35,-175.69 1723.5,-165 1737.12,-163.31 1751.82,-161.17 1765.42,-159.05"/>
<polygon fill="midnightblue" stroke="midnightblue" points="1277.15,-257.91 1275.36,-268.35 1283.27,-261.3 1277.15,-257.91"/>
</g>
<!-- Node31 -->
<g id="node31" class="node">
<title>Node31</title>
<g id="a_node31"><a xlink:href="components_8cc.html" target="_top" xlink:title=" ">
<polygon fill="none" stroke="black" points="1344,-207 1344,-226 1469,-226 1469,-207 1344,-207"/>
<text text-anchor="middle" x="1406.5" y="-214" font-family="Helvetica,sans-Serif" font-size="10.00">source/components.cc</text>
</a>
</g>
</g>
<!-- Node1&#45;&gt;Node31 -->
<g id="edge32" class="edge">
<title>Node1&#45;&gt;Node31</title>
<path fill="none" stroke="midnightblue" d="M1307.5,-264.13C1334.06,-251.62 1367.99,-235.64 1388.44,-226.01"/>
<polygon fill="midnightblue" stroke="midnightblue" points="1306,-260.97 1298.44,-268.4 1308.98,-267.3 1306,-260.97"/>
</g>
<!-- Node32 -->
<g id="node32" class="node">
<title>Node32</title>
<g id="a_node32"><a xlink:href="dof__plotter_8cc.html" target="_top" xlink:title="Degrees of freedom plotter.">
<polygon fill="none" stroke="black" points="1487.5,-207 1487.5,-226 1597.5,-226 1597.5,-207 1487.5,-207"/>
<text text-anchor="middle" x="1542.5" y="-214" font-family="Helvetica,sans-Serif" font-size="10.00">apps/dof_plotter.cc</text>
</a>
</g>
</g>
<!-- Node1&#45;&gt;Node32 -->
<g id="edge35" class="edge">
<title>Node1&#45;&gt;Node32</title>
<path fill="none" stroke="midnightblue" d="M1337.09,-266.23C1390.85,-253.48 1463.52,-236.24 1506.46,-226.05"/>
<polygon fill="midnightblue" stroke="midnightblue" points="1336.2,-262.84 1327.28,-268.56 1337.82,-269.65 1336.2,-262.84"/>
</g>
<!-- Node3 -->
<g id="node3" class="node">
<title>Node3</title>
<g id="a_node3"><a xlink:href="linear__problem_8h.html" target="_top" xlink:title=" ">
<polygon fill="none" stroke="black" points="600,-134.5 600,-164.5 709,-164.5 709,-134.5 600,-134.5"/>
<text text-anchor="start" x="608" y="-152.5" font-family="Helvetica,sans-Serif" font-size="10.00">include/pdes/linear</text>
<text text-anchor="middle" x="654.5" y="-141.5" font-family="Helvetica,sans-Serif" font-size="10.00">_problem.h</text>
</a>
</g>
</g>
<!-- Node2&#45;&gt;Node3 -->
<g id="edge2" class="edge">
<title>Node2&#45;&gt;Node3</title>
<path fill="none" stroke="midnightblue" d="M1147.12,-206.87C1031.06,-193.59 811.32,-168.45 709.21,-156.76"/>
<polygon fill="midnightblue" stroke="midnightblue" points="1147.01,-210.38 1157.34,-208.04 1147.81,-203.43 1147.01,-210.38"/>
</g>
<!-- Node11 -->
<g id="node11" class="node">
<title>Node11</title>
<g id="a_node11"><a xlink:href="distributed__lagrange_8h.html" target="_top" xlink:title=" ">
<polygon fill="none" stroke="black" points="820,-67.5 820,-97.5 949,-97.5 949,-67.5 820,-67.5"/>
<text text-anchor="start" x="828" y="-85.5" font-family="Helvetica,sans-Serif" font-size="10.00">include/pdes/serial</text>
<text text-anchor="middle" x="884.5" y="-74.5" font-family="Helvetica,sans-Serif" font-size="10.00">/distributed_lagrange.h</text>
</a>
</g>
</g>
<!-- Node2&#45;&gt;Node11 -->
<g id="edge17" class="edge">
<title>Node2&#45;&gt;Node11</title>
<path fill="none" stroke="midnightblue" d="M1173.39,-198.01C1146.96,-188.48 1113.85,-176.35 1084.5,-165 1025.57,-142.22 957.57,-114.12 917.97,-97.57"/>
<polygon fill="midnightblue" stroke="midnightblue" points="1172.21,-201.31 1182.8,-201.4 1174.58,-194.72 1172.21,-201.31"/>
</g>
<!-- Node18 -->
<g id="node18" class="node">
<title>Node18</title>
<g id="a_node18"><a xlink:href="serial_2poisson_8h.html" target="_top" xlink:title=" ">
<polygon fill="none" stroke="black" points="1093.5,-134.5 1093.5,-164.5 1201.5,-164.5 1201.5,-134.5 1093.5,-134.5"/>
<text text-anchor="start" x="1101.5" y="-152.5" font-family="Helvetica,sans-Serif" font-size="10.00">include/pdes/serial</text>
<text text-anchor="middle" x="1147.5" y="-141.5" font-family="Helvetica,sans-Serif" font-size="10.00">/poisson.h</text>
</a>
</g>
</g>
<!-- Node2&#45;&gt;Node18 -->
<g id="edge18" class="edge">
<title>Node2&#45;&gt;Node18</title>
<path fill="none" stroke="midnightblue" d="M1198.38,-194.6C1187.06,-184.78 1173.86,-173.34 1163.74,-164.58"/>
<polygon fill="midnightblue" stroke="midnightblue" points="1196.38,-197.49 1206.23,-201.4 1200.96,-192.2 1196.38,-197.49"/>
</g>
<!-- Node21 -->
<g id="node21" class="node">
<title>Node21</title>
<g id="a_node21"><a xlink:href="poisson__nitsche__interface_8h.html" target="_top" xlink:title=" ">
<polygon fill="none" stroke="black" points="1220,-134.5 1220,-164.5 1375,-164.5 1375,-134.5 1220,-134.5"/>
<text text-anchor="start" x="1228" y="-152.5" font-family="Helvetica,sans-Serif" font-size="10.00">include/pdes/serial</text>
<text text-anchor="middle" x="1297.5" y="-141.5" font-family="Helvetica,sans-Serif" font-size="10.00">/poisson_nitsche_interface.h</text>
</a>
</g>
</g>
<!-- Node2&#45;&gt;Node21 -->
<g id="edge21" class="edge">
<title>Node2&#45;&gt;Node21</title>
<path fill="none" stroke="midnightblue" d="M1246.62,-194.6C1257.94,-184.78 1271.14,-173.34 1281.26,-164.58"/>
<polygon fill="midnightblue" stroke="midnightblue" points="1244.04,-192.2 1238.77,-201.4 1248.62,-197.49 1244.04,-192.2"/>
</g>
<!-- Node24 -->
<g id="node24" class="node">
<title>Node24</title>
<g id="a_node24"><a xlink:href="reduced__lagrange_8h.html" target="_top" xlink:title=" ">
<polygon fill="none" stroke="black" points="1472.5,-134.5 1472.5,-164.5 1588.5,-164.5 1588.5,-134.5 1472.5,-134.5"/>
<text text-anchor="start" x="1480.5" y="-152.5" font-family="Helvetica,sans-Serif" font-size="10.00">include/pdes/serial</text>
<text text-anchor="middle" x="1530.5" y="-141.5" font-family="Helvetica,sans-Serif" font-size="10.00">/reduced_lagrange.h</text>
</a>
</g>
</g>
<!-- Node2&#45;&gt;Node24 -->
<g id="edge24" class="edge">
<title>Node2&#45;&gt;Node24</title>
<path fill="none" stroke="midnightblue" d="M1297.65,-199.64C1351.44,-188.29 1422.81,-173.23 1472.29,-162.78"/>
<polygon fill="midnightblue" stroke="midnightblue" points="1296.88,-196.23 1287.82,-201.72 1298.33,-203.07 1296.88,-196.23"/>
</g>
<!-- Node27 -->
<g id="node27" class="node">
<title>Node27</title>
<g id="a_node27"><a xlink:href="serial_2stokes_8h.html" target="_top" xlink:title=" ">
<polygon fill="none" stroke="black" points="1606.5,-134.5 1606.5,-164.5 1714.5,-164.5 1714.5,-134.5 1606.5,-134.5"/>
<text text-anchor="start" x="1614.5" y="-152.5" font-family="Helvetica,sans-Serif" font-size="10.00">include/pdes/serial</text>
<text text-anchor="middle" x="1660.5" y="-141.5" font-family="Helvetica,sans-Serif" font-size="10.00">/stokes.h</text>
</a>
</g>
</g>
<!-- Node2&#45;&gt;Node27 -->
<g id="edge27" class="edge">
<title>Node2&#45;&gt;Node27</title>
<path fill="none" stroke="midnightblue" d="M1297.63,-201.6C1298.93,-201.39 1300.22,-201.2 1301.5,-201 1432.51,-181.03 1466.97,-187.89 1597.5,-165 1600.37,-164.5 1603.31,-163.94 1606.28,-163.36"/>
<polygon fill="midnightblue" stroke="midnightblue" points="1296.85,-198.18 1287.54,-203.24 1297.98,-205.09 1296.85,-198.18"/>
</g>
<!-- Node2&#45;&gt;Node30 -->
<g id="edge30" class="edge">
<title>Node2&#45;&gt;Node30</title>
<path fill="none" stroke="midnightblue" d="M1297.62,-201.54C1298.92,-201.35 1300.22,-201.17 1301.5,-201 1488.07,-175.98 1536.61,-187.51 1723.5,-165 1737.29,-163.34 1752.18,-161.18 1765.91,-159.04"/>
<polygon fill="midnightblue" stroke="midnightblue" points="1296.89,-198.11 1287.52,-203.05 1297.93,-205.03 1296.89,-198.11"/>
</g>
<!-- Node4 -->
<g id="node4" class="node">
<title>Node4</title>
<g id="a_node4"><a xlink:href="linear__elasticity_8h.html" target="_top" xlink:title=" ">
<polygon fill="none" stroke="black" points="526,-67.5 526,-97.5 635,-97.5 635,-67.5 526,-67.5"/>
<text text-anchor="start" x="534" y="-85.5" font-family="Helvetica,sans-Serif" font-size="10.00">include/pdes/linear</text>
<text text-anchor="middle" x="580.5" y="-74.5" font-family="Helvetica,sans-Serif" font-size="10.00">_elasticity.h</text>
</a>
</g>
</g>
<!-- Node3&#45;&gt;Node4 -->
<g id="edge3" class="edge">
<title>Node3&#45;&gt;Node4</title>
<path fill="none" stroke="midnightblue" d="M630.7,-127.6C619.53,-117.78 606.51,-106.34 596.53,-97.58"/>
<polygon fill="midnightblue" stroke="midnightblue" points="628.62,-130.43 638.44,-134.4 633.24,-125.17 628.62,-130.43"/>
</g>
<!-- Node8 -->
<g id="node8" class="node">
<title>Node8</title>
<g id="a_node8"><a xlink:href="mpi_2poisson_8h.html" target="_top" xlink:title=" ">
<polygon fill="none" stroke="black" points="653,-73 653,-92 802,-92 802,-73 653,-73"/>
<text text-anchor="middle" x="727.5" y="-80" font-family="Helvetica,sans-Serif" font-size="10.00">include/pdes/mpi/poisson.h</text>
</a>
</g>
</g>
<!-- Node3&#45;&gt;Node8 -->
<g id="edge7" class="edge">
<title>Node3&#45;&gt;Node8</title>
<path fill="none" stroke="midnightblue" d="M677.89,-127.67C691.37,-115.67 707.6,-101.22 717.74,-92.19"/>
<polygon fill="midnightblue" stroke="midnightblue" points="675.48,-125.13 670.34,-134.4 680.14,-130.36 675.48,-125.13"/>
</g>
<!-- Node3&#45;&gt;Node11 -->
<g id="edge10" class="edge">
<title>Node3&#45;&gt;Node11</title>
<path fill="none" stroke="midnightblue" d="M713.89,-131.71C751.32,-121.14 799.1,-107.63 834.57,-97.61"/>
<polygon fill="midnightblue" stroke="midnightblue" points="712.79,-128.39 704.12,-134.48 714.7,-135.12 712.79,-128.39"/>
</g>
<!-- Node14 -->
<g id="node14" class="node">
<title>Node14</title>
<g id="a_node14"><a xlink:href="stokes_8h.html" target="_top" xlink:title=" ">
<polygon fill="none" stroke="black" points="135.5,-73 135.5,-92 257.5,-92 257.5,-73 135.5,-73"/>
<text text-anchor="middle" x="196.5" y="-80" font-family="Helvetica,sans-Serif" font-size="10.00">include/pdes/stokes.h</text>
</a>
</g>
</g>
<!-- Node3&#45;&gt;Node14 -->
<g id="edge13" class="edge">
<title>Node3&#45;&gt;Node14</title>
<path fill="none" stroke="midnightblue" d="M589.76,-139.31C500.97,-126.71 342.63,-104.24 256.43,-92.01"/>
<polygon fill="midnightblue" stroke="midnightblue" points="589.32,-142.78 599.71,-140.72 590.3,-135.85 589.32,-142.78"/>
</g>
<!-- Node17 -->
<g id="node17" class="node">
<title>Node17</title>
<g id="a_node17"><a xlink:href="linear__problem_8cc.html" target="_top" xlink:title=" ">
<polygon fill="none" stroke="black" points="401.5,-67.5 401.5,-97.5 507.5,-97.5 507.5,-67.5 401.5,-67.5"/>
<text text-anchor="start" x="409.5" y="-85.5" font-family="Helvetica,sans-Serif" font-size="10.00">source/pdes/linear</text>
<text text-anchor="middle" x="454.5" y="-74.5" font-family="Helvetica,sans-Serif" font-size="10.00">_problem.cc</text>
</a>
</g>
</g>
<!-- Node3&#45;&gt;Node17 -->
<g id="edge16" class="edge">
<title>Node3&#45;&gt;Node17</title>
<path fill="none" stroke="midnightblue" d="M601.35,-131.23C569,-120.71 528.19,-107.45 497.81,-97.58"/>
<polygon fill="midnightblue" stroke="midnightblue" points="600.51,-134.63 611.1,-134.4 602.67,-127.98 600.51,-134.63"/>
</g>
<!-- Node4&#45;&gt;Node5 -->
<g id="edge4" class="edge">
<title>Node4&#45;&gt;Node5</title>
<path fill="none" stroke="midnightblue" d="M515.93,-65.23C472.71,-54.34 416.49,-40.18 375.81,-29.93"/>
<polygon fill="midnightblue" stroke="midnightblue" points="515.23,-68.67 525.78,-67.72 516.94,-61.88 515.23,-68.67"/>
</g>
<!-- Node6 -->
<g id="node6" class="node">
<title>Node6</title>
<g id="a_node6"><a xlink:href="apps_2mpi_2linear__elasticity_8cc.html" target="_top" xlink:title=" ">
<polygon fill="none" stroke="black" points="394,-6 394,-25 549,-25 549,-6 394,-6"/>
<text text-anchor="middle" x="471.5" y="-13" font-family="Helvetica,sans-Serif" font-size="10.00">apps/mpi/linear_elasticity.cc</text>
</a>
</g>
</g>
<!-- Node4&#45;&gt;Node6 -->
<g id="edge5" class="edge">
<title>Node4&#45;&gt;Node6</title>
<path fill="none" stroke="midnightblue" d="M548.04,-62.14C527.32,-49.79 501.5,-34.39 485.77,-25.01"/>
<polygon fill="midnightblue" stroke="midnightblue" points="546.47,-65.28 556.85,-67.4 550.05,-59.27 546.47,-65.28"/>
</g>
<!-- Node7 -->
<g id="node7" class="node">
<title>Node7</title>
<g id="a_node7"><a xlink:href="apps_2serial_2linear__elasticity_8cc.html" target="_top" xlink:title=" ">
<polygon fill="none" stroke="black" points="567,-0.5 567,-30.5 668,-30.5 668,-0.5 567,-0.5"/>
<text text-anchor="start" x="575" y="-18.5" font-family="Helvetica,sans-Serif" font-size="10.00">apps/serial/linear</text>
<text text-anchor="middle" x="617.5" y="-7.5" font-family="Helvetica,sans-Serif" font-size="10.00">_elasticity.cc</text>
</a>
</g>
</g>
<!-- Node4&#45;&gt;Node7 -->
<g id="edge6" class="edge">
<title>Node4&#45;&gt;Node7</title>
<path fill="none" stroke="midnightblue" d="M593.55,-58.58C598.86,-49.24 604.84,-38.75 609.49,-30.58"/>
<polygon fill="midnightblue" stroke="midnightblue" points="590.43,-56.97 588.53,-67.4 596.52,-60.44 590.43,-56.97"/>
</g>
<!-- Node9 -->
<g id="node9" class="node">
<title>Node9</title>
<g id="a_node9"><a xlink:href="source_2pdes_2mpi_2poisson_8cc.html" target="_top" xlink:title=" ">
<polygon fill="none" stroke="black" points="821,-6 821,-25 972,-25 972,-6 821,-6"/>
<text text-anchor="middle" x="896.5" y="-13" font-family="Helvetica,sans-Serif" font-size="10.00">source/pdes/mpi/poisson.cc</text>
</a>
</g>
</g>
<!-- Node8&#45;&gt;Node9 -->
<g id="edge8" class="edge">
<title>Node8&#45;&gt;Node9</title>
<path fill="none" stroke="midnightblue" d="M759.3,-69.27C792.84,-56.37 844.82,-36.38 874.23,-25.06"/>
<polygon fill="midnightblue" stroke="midnightblue" points="758.02,-66.01 749.94,-72.87 760.53,-72.55 758.02,-66.01"/>
</g>
<!-- Node10 -->
<g id="node10" class="node">
<title>Node10</title>
<g id="a_node10"><a xlink:href="apps_2mpi_2poisson_8cc.html" target="_top" xlink:title=" ">
<polygon fill="none" stroke="black" points="686.5,-6 686.5,-25 802.5,-25 802.5,-6 686.5,-6"/>
<text text-anchor="middle" x="744.5" y="-13" font-family="Helvetica,sans-Serif" font-size="10.00">apps/mpi/poisson.cc</text>
</a>
</g>
</g>
<!-- Node8&#45;&gt;Node10 -->
<g id="edge9" class="edge">
<title>Node8&#45;&gt;Node10</title>
<path fill="none" stroke="midnightblue" d="M732.36,-62.91C735.61,-50.49 739.74,-34.72 742.24,-25.13"/>
<polygon fill="midnightblue" stroke="midnightblue" points="728.94,-62.17 729.79,-72.73 735.71,-63.94 728.94,-62.17"/>
</g>
<!-- Node12 -->
<g id="node12" class="node">
<title>Node12</title>
<g id="a_node12"><a xlink:href="source_2pdes_2serial_2distributed__lagrange_8cc.html" target="_top" xlink:title=" ">
<polygon fill="none" stroke="black" points="990.5,-0.5 990.5,-30.5 1124.5,-30.5 1124.5,-0.5 990.5,-0.5"/>
<text text-anchor="start" x="998.5" y="-18.5" font-family="Helvetica,sans-Serif" font-size="10.00">source/pdes/serial</text>
<text text-anchor="middle" x="1057.5" y="-7.5" font-family="Helvetica,sans-Serif" font-size="10.00">/distributed_lagrange.cc</text>
</a>
</g>
</g>
<!-- Node11&#45;&gt;Node12 -->
<g id="edge11" class="edge">
<title>Node11&#45;&gt;Node12</title>
<path fill="none" stroke="midnightblue" d="M931.56,-63.82C959.37,-53.37 994.09,-40.32 1020.03,-30.58"/>
<polygon fill="midnightblue" stroke="midnightblue" points="930.17,-60.6 922.04,-67.4 932.63,-67.16 930.17,-60.6"/>
</g>
<!-- Node13 -->
<g id="node13" class="node">
<title>Node13</title>
<g id="a_node13"><a xlink:href="apps_2serial_2distributed__lagrange_8cc.html" target="_top" xlink:title=" ">
<polygon fill="none" stroke="black" points="1143,-0.5 1143,-30.5 1268,-30.5 1268,-0.5 1143,-0.5"/>
<text text-anchor="start" x="1151" y="-18.5" font-family="Helvetica,sans-Serif" font-size="10.00">apps/serial/distributed</text>
<text text-anchor="middle" x="1205.5" y="-7.5" font-family="Helvetica,sans-Serif" font-size="10.00">_lagrange.cc</text>
</a>
</g>
</g>
<!-- Node11&#45;&gt;Node13 -->
<g id="edge12" class="edge">
<title>Node11&#45;&gt;Node13</title>
<path fill="none" stroke="midnightblue" d="M958.9,-66.43C1014.71,-55.13 1090.23,-39.84 1142.94,-29.17"/>
<polygon fill="midnightblue" stroke="midnightblue" points="958.18,-63.01 949.07,-68.42 959.57,-69.87 958.18,-63.01"/>
</g>
<!-- Node14&#45;&gt;Node15 -->
<g id="edge14" class="edge">
<title>Node14&#45;&gt;Node15</title>
<path fill="none" stroke="midnightblue" d="M169.38,-68.44C142.64,-55.57 102.53,-36.26 79.5,-25.17"/>
<polygon fill="midnightblue" stroke="midnightblue" points="168.04,-71.68 178.57,-72.87 171.08,-65.38 168.04,-71.68"/>
</g>
<!-- Node16 -->
<g id="node16" class="node">
<title>Node16</title>
<g id="a_node16"><a xlink:href="apps_2mpi_2stokes_8cc.html" target="_top" xlink:title=" ">
<polygon fill="none" stroke="black" points="141.5,-6 141.5,-25 251.5,-25 251.5,-6 141.5,-6"/>
<text text-anchor="middle" x="196.5" y="-13" font-family="Helvetica,sans-Serif" font-size="10.00">apps/mpi/stokes.cc</text>
</a>
</g>
</g>
<!-- Node14&#45;&gt;Node16 -->
<g id="edge15" class="edge">
<title>Node14&#45;&gt;Node16</title>
<path fill="none" stroke="midnightblue" d="M196.5,-62.54C196.5,-50.17 196.5,-34.62 196.5,-25.13"/>
<polygon fill="midnightblue" stroke="midnightblue" points="193,-62.73 196.5,-72.73 200,-62.73 193,-62.73"/>
</g>
<!-- Node19 -->
<g id="node19" class="node">
<title>Node19</title>
<g id="a_node19"><a xlink:href="source_2pdes_2serial_2poisson_8cc.html" target="_top" xlink:title=" ">
<polygon fill="none" stroke="black" points="967,-67.5 967,-97.5 1072,-97.5 1072,-67.5 967,-67.5"/>
<text text-anchor="start" x="975" y="-85.5" font-family="Helvetica,sans-Serif" font-size="10.00">source/pdes/serial</text>
<text text-anchor="middle" x="1019.5" y="-74.5" font-family="Helvetica,sans-Serif" font-size="10.00">/poisson.cc</text>
</a>
</g>
</g>
<!-- Node18&#45;&gt;Node19 -->
<g id="edge19" class="edge">
<title>Node18&#45;&gt;Node19</title>
<path fill="none" stroke="midnightblue" d="M1110.78,-129.85C1090.54,-119.58 1065.83,-107.03 1047.22,-97.58"/>
<polygon fill="midnightblue" stroke="midnightblue" points="1109.22,-132.99 1119.73,-134.4 1112.39,-126.75 1109.22,-132.99"/>
</g>
<!-- Node20 -->
<g id="node20" class="node">
<title>Node20</title>
<g id="a_node20"><a xlink:href="apps_2serial_2poisson_8cc.html" target="_top" xlink:title=" ">
<polygon fill="none" stroke="black" points="1090.5,-73 1090.5,-92 1214.5,-92 1214.5,-73 1090.5,-73"/>
<text text-anchor="middle" x="1152.5" y="-80" font-family="Helvetica,sans-Serif" font-size="10.00">apps/serial/poisson.cc</text>
</a>
</g>
</g>
<!-- Node18&#45;&gt;Node20 -->
<g id="edge20" class="edge">
<title>Node18&#45;&gt;Node20</title>
<path fill="none" stroke="midnightblue" d="M1149.37,-124.25C1150.23,-113.02 1151.2,-100.38 1151.83,-92.19"/>
<polygon fill="midnightblue" stroke="midnightblue" points="1145.86,-124.16 1148.58,-134.4 1152.84,-124.69 1145.86,-124.16"/>
</g>
<!-- Node22 -->
<g id="node22" class="node">
<title>Node22</title>
<g id="a_node22"><a xlink:href="source_2pdes_2serial_2poisson__nitsche__interface_8cc.html" target="_top" xlink:title=" ">
<polygon fill="none" stroke="black" points="1370.5,-67.5 1370.5,-97.5 1530.5,-97.5 1530.5,-67.5 1370.5,-67.5"/>
<text text-anchor="start" x="1378.5" y="-85.5" font-family="Helvetica,sans-Serif" font-size="10.00">source/pdes/serial</text>
<text text-anchor="middle" x="1450.5" y="-74.5" font-family="Helvetica,sans-Serif" font-size="10.00">/poisson_nitsche_interface.cc</text>
</a>
</g>
</g>
<!-- Node21&#45;&gt;Node22 -->
<g id="edge22" class="edge">
<title>Node21&#45;&gt;Node22</title>
<path fill="none" stroke="midnightblue" d="M1340.09,-130.41C1364.52,-120.03 1394.72,-107.2 1417.37,-97.58"/>
<polygon fill="midnightblue" stroke="midnightblue" points="1338.53,-127.26 1330.7,-134.4 1341.27,-133.71 1338.53,-127.26"/>
</g>
<!-- Node23 -->
<g id="node23" class="node">
<title>Node23</title>
<g id="a_node23"><a xlink:href="apps_2serial_2poisson__nitsche__interface_8cc.html" target="_top" xlink:title=" ">
<polygon fill="none" stroke="black" points="1233,-67.5 1233,-97.5 1352,-97.5 1352,-67.5 1233,-67.5"/>
<text text-anchor="start" x="1241" y="-85.5" font-family="Helvetica,sans-Serif" font-size="10.00">apps/serial/poisson</text>
<text text-anchor="middle" x="1292.5" y="-74.5" font-family="Helvetica,sans-Serif" font-size="10.00">_nitsche_interface.cc</text>
</a>
</g>
</g>
<!-- Node21&#45;&gt;Node23 -->
<g id="edge23" class="edge">
<title>Node21&#45;&gt;Node23</title>
<path fill="none" stroke="midnightblue" d="M1295.65,-124.4C1294.95,-115.37 1294.19,-105.41 1293.58,-97.58"/>
<polygon fill="midnightblue" stroke="midnightblue" points="1292.16,-124.69 1296.42,-134.4 1299.14,-124.16 1292.16,-124.69"/>
</g>
<!-- Node25 -->
<g id="node25" class="node">
<title>Node25</title>
<g id="a_node25"><a xlink:href="source_2pdes_2serial_2reduced__lagrange_8cc.html" target="_top" xlink:title=" ">
<polygon fill="none" stroke="black" points="1678.5,-67.5 1678.5,-97.5 1798.5,-97.5 1798.5,-67.5 1678.5,-67.5"/>
<text text-anchor="start" x="1686.5" y="-85.5" font-family="Helvetica,sans-Serif" font-size="10.00">source/pdes/serial</text>
<text text-anchor="middle" x="1738.5" y="-74.5" font-family="Helvetica,sans-Serif" font-size="10.00">/reduced_lagrange.cc</text>
</a>
</g>
</g>
<!-- Node24&#45;&gt;Node25 -->
<g id="edge25" class="edge">
<title>Node24&#45;&gt;Node25</title>
<path fill="none" stroke="midnightblue" d="M1585.08,-131.44C1618.8,-120.91 1661.54,-107.55 1693.35,-97.61"/>
<polygon fill="midnightblue" stroke="midnightblue" points="1583.88,-128.15 1575.38,-134.48 1585.97,-134.83 1583.88,-128.15"/>
</g>
<!-- Node26 -->
<g id="node26" class="node">
<title>Node26</title>
<g id="a_node26"><a xlink:href="apps_2serial_2reduced__lagrange_8cc.html" target="_top" xlink:title=" ">
<polygon fill="none" stroke="black" points="1548.5,-67.5 1548.5,-97.5 1660.5,-97.5 1660.5,-67.5 1548.5,-67.5"/>
<text text-anchor="start" x="1556.5" y="-85.5" font-family="Helvetica,sans-Serif" font-size="10.00">apps/serial/reduced</text>
<text text-anchor="middle" x="1604.5" y="-74.5" font-family="Helvetica,sans-Serif" font-size="10.00">_lagrange.cc</text>
</a>
</g>
</g>
<!-- Node24&#45;&gt;Node26 -->
<g id="edge26" class="edge">
<title>Node24&#45;&gt;Node26</title>
<path fill="none" stroke="midnightblue" d="M1554.3,-127.6C1565.47,-117.78 1578.49,-106.34 1588.47,-97.58"/>
<polygon fill="midnightblue" stroke="midnightblue" points="1551.76,-125.17 1546.56,-134.4 1556.38,-130.43 1551.76,-125.17"/>
</g>
<!-- Node28 -->
<g id="node28" class="node">
<title>Node28</title>
<g id="a_node28"><a xlink:href="source_2pdes_2serial_2stokes_8cc.html" target="_top" xlink:title=" ">
<polygon fill="none" stroke="black" points="1953,-67.5 1953,-97.5 2058,-97.5 2058,-67.5 1953,-67.5"/>
<text text-anchor="start" x="1961" y="-85.5" font-family="Helvetica,sans-Serif" font-size="10.00">source/pdes/serial</text>
<text text-anchor="middle" x="2005.5" y="-74.5" font-family="Helvetica,sans-Serif" font-size="10.00">/stokes.cc</text>
</a>
</g>
</g>
<!-- Node27&#45;&gt;Node28 -->
<g id="edge28" class="edge">
<title>Node27&#45;&gt;Node28</title>
<path fill="none" stroke="midnightblue" d="M1724.2,-134.06C1724.3,-134.04 1724.4,-134.02 1724.5,-134 1821.31,-115.09 1846.76,-117.24 1943.5,-98 1946.54,-97.4 1949.65,-96.75 1952.79,-96.08"/>
<polygon fill="midnightblue" stroke="midnightblue" points="1723.68,-130.59 1714.57,-136.01 1725.07,-137.45 1723.68,-130.59"/>
</g>
<!-- Node29 -->
<g id="node29" class="node">
<title>Node29</title>
<g id="a_node29"><a xlink:href="apps_2serial_2stokes_8cc.html" target="_top" xlink:title=" ">
<polygon fill="none" stroke="black" points="1816.5,-73 1816.5,-92 1934.5,-92 1934.5,-73 1816.5,-73"/>
<text text-anchor="middle" x="1875.5" y="-80" font-family="Helvetica,sans-Serif" font-size="10.00">apps/serial/stokes.cc</text>
</a>
</g>
</g>
<!-- Node27&#45;&gt;Node29 -->
<g id="edge29" class="edge">
<title>Node27&#45;&gt;Node29</title>
<path fill="none" stroke="midnightblue" d="M1716.7,-131.51C1758.66,-118.83 1814.24,-102.02 1847.29,-92.03"/>
<polygon fill="midnightblue" stroke="midnightblue" points="1715.45,-128.23 1706.89,-134.48 1717.47,-134.93 1715.45,-128.23"/>
</g>
</g>
</svg>
