<?xml version="1.0" encoding="UTF-8" standalone="no"?>
<!DOCTYPE svg PUBLIC "-//W3C//DTD SVG 1.1//EN"
 "http://www.w3.org/Graphics/SVG/1.1/DTD/svg11.dtd">
<!-- Generated by graphviz version 2.43.0 (0)
 -->
<!-- Title: include/parsed_tools/components.h Pages: 1 -->
<svg width="1627pt" height="173pt"
 viewBox="0.00 0.00 1626.50 173.00" xmlns="http://www.w3.org/2000/svg" xmlns:xlink="http://www.w3.org/1999/xlink">
<g id="graph0" class="graph" transform="scale(1 1) rotate(0) translate(4 169)">
<title>include/parsed_tools/components.h</title>
<!-- Node1 -->
<g id="node1" class="node">
<title>Node1</title>
<g id="a_node1"><a xlink:title=" ">
<polygon fill="#bfbfbf" stroke="black" points="707,-134.5 707,-164.5 824,-164.5 824,-134.5 707,-134.5"/>
<text text-anchor="start" x="715" y="-152.5" font-family="Helvetica,sans-Serif" font-size="10.00">include/parsed_tools</text>
<text text-anchor="middle" x="765.5" y="-141.5" font-family="Helvetica,sans-Serif" font-size="10.00">/components.h</text>
</a>
</g>
</g>
<!-- Node2 -->
<g id="node2" class="node">
<title>Node2</title>
<g id="a_node2"><a xlink:href="http://www.dealii.org/developer/doxygen/deal.II/config_8h.html.html" xlink:title=" ">
<polygon fill="none" stroke="black" points="0,-73 0,-92 115,-92 115,-73 0,-73"/>
<text text-anchor="middle" x="57.5" y="-80" font-family="Helvetica,sans-Serif" font-size="10.00">deal.II/base/config.h</text>
</a>
</g>
</g>
<!-- Node1&#45;&gt;Node2 -->
<g id="edge1" class="edge">
<title>Node1&#45;&gt;Node2</title>
<path fill="none" stroke="midnightblue" d="M706.87,-146.52C593.74,-142.12 337.66,-129.32 124.5,-98 117.54,-96.98 110.22,-95.65 103.08,-94.22"/>
<polygon fill="midnightblue" stroke="midnightblue" points="103.31,-90.7 92.8,-92.07 101.87,-97.55 103.31,-90.7"/>
</g>
<!-- Node3 -->
<g id="node3" class="node">
<title>Node3</title>
<g id="a_node3"><a xlink:href="http://www.dealii.org/developer/doxygen/deal.II/include_2deal_8II_2base_2quadrature_8h.html.html" xlink:title=" ">
<polygon fill="none" stroke="black" points="133.5,-73 133.5,-92 271.5,-92 271.5,-73 133.5,-73"/>
<text text-anchor="middle" x="202.5" y="-80" font-family="Helvetica,sans-Serif" font-size="10.00">deal.II/base/quadrature.h</text>
</a>
</g>
</g>
<!-- Node1&#45;&gt;Node3 -->
<g id="edge2" class="edge">
<title>Node1&#45;&gt;Node3</title>
<path fill="none" stroke="midnightblue" d="M706.71,-143.91C615.28,-136.42 433.61,-120.17 280.5,-98 272.17,-96.79 263.38,-95.34 254.81,-93.82"/>
<polygon fill="midnightblue" stroke="midnightblue" points="255.37,-90.36 244.9,-92.02 254.12,-97.25 255.37,-90.36"/>
</g>
<!-- Node4 -->
<g id="node4" class="node">
<title>Node4</title>
<g id="a_node4"><a xlink:href="http://www.dealii.org/developer/doxygen/deal.II/quadrature__lib_8h.html.html" xlink:title=" ">
<polygon fill="none" stroke="black" points="290,-67.5 290,-97.5 419,-97.5 419,-67.5 290,-67.5"/>
<text text-anchor="start" x="298" y="-85.5" font-family="Helvetica,sans-Serif" font-size="10.00">deal.II/base/quadrature</text>
<text text-anchor="middle" x="354.5" y="-74.5" font-family="Helvetica,sans-Serif" font-size="10.00">_lib.h</text>
</a>
</g>
</g>
<!-- Node1&#45;&gt;Node4 -->
<g id="edge3" class="edge">
<title>Node1&#45;&gt;Node4</title>
<path fill="none" stroke="midnightblue" d="M706.93,-140.53C641.71,-131.48 532.92,-115.84 429.07,-98.05"/>
<polygon fill="midnightblue" stroke="midnightblue" points="429.49,-94.57 419.04,-96.32 428.3,-101.47 429.49,-94.57"/>
</g>
<!-- Node5 -->
<g id="node5" class="node">
<title>Node5</title>
<g id="a_node5"><a xlink:href="http://www.dealii.org/developer/doxygen/deal.II/include_2deal_8II_2base_2utilities_8h.html.html" xlink:title=" ">
<polygon fill="none" stroke="black" points="437.5,-73 437.5,-92 559.5,-92 559.5,-73 437.5,-73"/>
<text text-anchor="middle" x="498.5" y="-80" font-family="Helvetica,sans-Serif" font-size="10.00">deal.II/base/utilities.h</text>
</a>
</g>
</g>
<!-- Node1&#45;&gt;Node5 -->
<g id="edge4" class="edge">
<title>Node1&#45;&gt;Node5</title>
<path fill="none" stroke="midnightblue" d="M707.89,-134.48C658.58,-122.47 588.58,-105.43 543.35,-94.42"/>
<polygon fill="midnightblue" stroke="midnightblue" points="544.08,-90.99 533.53,-92.03 542.42,-97.79 544.08,-90.99"/>
</g>
<!-- Node6 -->
<g id="node6" class="node">
<title>Node6</title>
<g id="a_node6"><a xlink:href="http://www.dealii.org/developer/doxygen/deal.II/component__mask_8h.html.html" xlink:title=" ">
<polygon fill="none" stroke="black" points="578,-67.5 578,-97.5 695,-97.5 695,-67.5 578,-67.5"/>
<text text-anchor="start" x="586" y="-85.5" font-family="Helvetica,sans-Serif" font-size="10.00">deal.II/fe/component</text>
<text text-anchor="middle" x="636.5" y="-74.5" font-family="Helvetica,sans-Serif" font-size="10.00">_mask.h</text>
</a>
</g>
</g>
<!-- Node1&#45;&gt;Node6 -->
<g id="edge5" class="edge">
<title>Node1&#45;&gt;Node6</title>
<path fill="none" stroke="midnightblue" d="M737.51,-134.4C718.75,-124.94 693.83,-112.39 673.45,-102.12"/>
<polygon fill="midnightblue" stroke="midnightblue" points="674.94,-98.95 664.44,-97.58 671.79,-105.2 674.94,-98.95"/>
</g>
<!-- Node7 -->
<g id="node7" class="node">
<title>Node7</title>
<g id="a_node7"><a xlink:href="http://www.dealii.org/developer/doxygen/deal.II/fe__dgq_8h.html.html" xlink:title=" ">
<polygon fill="none" stroke="black" points="713.5,-73 713.5,-92 817.5,-92 817.5,-73 713.5,-73"/>
<text text-anchor="middle" x="765.5" y="-80" font-family="Helvetica,sans-Serif" font-size="10.00">deal.II/fe/fe_dgq.h</text>
</a>
</g>
</g>
<!-- Node1&#45;&gt;Node7 -->
<g id="edge6" class="edge">
<title>Node1&#45;&gt;Node7</title>
<path fill="none" stroke="midnightblue" d="M765.5,-134.4C765.5,-125.06 765.5,-112.71 765.5,-102.52"/>
<polygon fill="midnightblue" stroke="midnightblue" points="769,-102.19 765.5,-92.19 762,-102.19 769,-102.19"/>
</g>
<!-- Node8 -->
<g id="node8" class="node">
<title>Node8</title>
<g id="a_node8"><a xlink:href="http://www.dealii.org/developer/doxygen/deal.II/fe__q_8h.html.html" xlink:title=" ">
<polygon fill="none" stroke="black" points="835.5,-73 835.5,-92 927.5,-92 927.5,-73 835.5,-73"/>
<text text-anchor="middle" x="881.5" y="-80" font-family="Helvetica,sans-Serif" font-size="10.00">deal.II/fe/fe_q.h</text>
</a>
</g>
</g>
<!-- Node1&#45;&gt;Node8 -->
<g id="edge7" class="edge">
<title>Node1&#45;&gt;Node8</title>
<path fill="none" stroke="midnightblue" d="M790.67,-134.4C810.48,-123.29 837.92,-107.92 857.44,-96.98"/>
<polygon fill="midnightblue" stroke="midnightblue" points="859.31,-99.95 866.32,-92.01 855.88,-93.84 859.31,-99.95"/>
</g>
<!-- Node9 -->
<g id="node9" class="node">
<title>Node9</title>
<g id="a_node9"><a xlink:href="http://www.dealii.org/developer/doxygen/deal.II/fe__simplex__p_8h.html.html" xlink:title=" ">
<polygon fill="none" stroke="black" points="946,-73 946,-92 1083,-92 1083,-73 946,-73"/>
<text text-anchor="middle" x="1014.5" y="-80" font-family="Helvetica,sans-Serif" font-size="10.00">deal.II/fe/fe_simplex_p.h</text>
</a>
</g>
</g>
<!-- Node1&#45;&gt;Node9 -->
<g id="edge8" class="edge">
<title>Node1&#45;&gt;Node9</title>
<path fill="none" stroke="midnightblue" d="M819.22,-134.48C865.02,-122.52 929.94,-105.57 972.14,-94.56"/>
<polygon fill="midnightblue" stroke="midnightblue" points="973.04,-97.94 981.83,-92.03 971.27,-91.17 973.04,-97.94"/>
</g>
<!-- Node10 -->
<g id="node10" class="node">
<title>Node10</title>
<g id="a_node10"><a xlink:href="http://www.dealii.org/developer/doxygen/deal.II/fe__system_8h.html.html" xlink:title=" ">
<polygon fill="none" stroke="black" points="1101.5,-73 1101.5,-92 1223.5,-92 1223.5,-73 1101.5,-73"/>
<text text-anchor="middle" x="1162.5" y="-80" font-family="Helvetica,sans-Serif" font-size="10.00">deal.II/fe/fe_system.h</text>
</a>
</g>
</g>
<!-- Node1&#45;&gt;Node10 -->
<g id="edge9" class="edge">
<title>Node1&#45;&gt;Node10</title>
<path fill="none" stroke="midnightblue" d="M824.24,-140.26C889.62,-130.89 998.35,-114.72 1091.5,-98 1098.24,-96.79 1105.32,-95.44 1112.3,-94.06"/>
<polygon fill="midnightblue" stroke="midnightblue" points="1113.27,-97.44 1122.39,-92.04 1111.89,-90.57 1113.27,-97.44"/>
</g>
<!-- Node11 -->
<g id="node11" class="node">
<title>Node11</title>
<g id="a_node11"><a xlink:href="http://www.dealii.org/developer/doxygen/deal.II/grid_2tria_8h.html.html" xlink:title=" ">
<polygon fill="none" stroke="black" points="1242,-73 1242,-92 1339,-92 1339,-73 1242,-73"/>
<text text-anchor="middle" x="1290.5" y="-80" font-family="Helvetica,sans-Serif" font-size="10.00">deal.II/grid/tria.h</text>
</a>
</g>
</g>
<!-- Node1&#45;&gt;Node11 -->
<g id="edge10" class="edge">
<title>Node1&#45;&gt;Node11</title>
<path fill="none" stroke="midnightblue" d="M824.11,-144.76C912.95,-138.5 1086.78,-123.97 1232.5,-98 1238.06,-97.01 1243.87,-95.79 1249.58,-94.47"/>
<polygon fill="midnightblue" stroke="midnightblue" points="1250.76,-97.79 1259.67,-92.04 1249.12,-90.98 1250.76,-97.79"/>
</g>
<!-- Node12 -->
<g id="node12" class="node">
<title>Node12</title>
<g id="a_node12"><a xlink:href="enum_8h.html" target="_top" xlink:title=" ">
<polygon fill="none" stroke="black" points="1357,-73 1357,-92 1476,-92 1476,-73 1357,-73"/>
<text text-anchor="middle" x="1416.5" y="-80" font-family="Helvetica,sans-Serif" font-size="10.00">parsed_tools/enum.h</text>
</a>
</g>
</g>
<!-- Node1&#45;&gt;Node12 -->
<g id="edge11" class="edge">
<title>Node1&#45;&gt;Node12</title>
<path fill="none" stroke="midnightblue" d="M824.12,-145.83C929.52,-140.48 1157.84,-126.47 1348.5,-98 1355.72,-96.92 1363.33,-95.54 1370.74,-94.07"/>
<polygon fill="midnightblue" stroke="midnightblue" points="1371.57,-97.47 1380.65,-92.01 1370.15,-90.61 1371.57,-97.47"/>
</g>
<!-- Node13 -->
<g id="node13" class="node">
<title>Node13</title>
<g id="a_node13"><a xlink:href="http://www.dealii.org/developer/doxygen/deal.II/patterns_8h.html.html" xlink:title=" ">
<polygon fill="none" stroke="black" points="1202,-6 1202,-25 1327,-25 1327,-6 1202,-6"/>
<text text-anchor="middle" x="1264.5" y="-13" font-family="Helvetica,sans-Serif" font-size="10.00">deal.II/base/patterns.h</text>
</a>
</g>
</g>
<!-- Node12&#45;&gt;Node13 -->
<g id="edge12" class="edge">
<title>Node12&#45;&gt;Node13</title>
<path fill="none" stroke="midnightblue" d="M1396.32,-72.87C1370.2,-61.7 1324.47,-42.15 1294.34,-29.26"/>
<polygon fill="midnightblue" stroke="midnightblue" points="1295.34,-25.88 1284.77,-25.17 1292.59,-32.32 1295.34,-25.88"/>
</g>
<!-- Node14 -->
<g id="node14" class="node">
<title>Node14</title>
<g id="a_node14"><a xlink:href="http://www.dealii.org/developer/doxygen/deal.II/sd_8h.html.html" xlink:title=" ">
<polygon fill="none" stroke="black" points="1345,-6 1345,-25 1488,-25 1488,-6 1345,-6"/>
<text text-anchor="middle" x="1416.5" y="-13" font-family="Helvetica,sans-Serif" font-size="10.00">deal.II/differentiation/sd.h</text>
</a>
</g>
</g>
<!-- Node12&#45;&gt;Node14 -->
<g id="edge13" class="edge">
<title>Node12&#45;&gt;Node14</title>
<path fill="none" stroke="midnightblue" d="M1416.5,-72.73C1416.5,-63.18 1416.5,-47.62 1416.5,-35.28"/>
<polygon fill="midnightblue" stroke="midnightblue" points="1420,-35.13 1416.5,-25.13 1413,-35.13 1420,-35.13"/>
</g>
<!-- Node15 -->
<g id="node15" class="node">
<title>Node15</title>
<g id="a_node15"><a xlink:title=" ">
<polygon fill="none" stroke="#bfbfbf" points="1506.5,-0.5 1506.5,-30.5 1618.5,-30.5 1618.5,-0.5 1506.5,-0.5"/>
<text text-anchor="start" x="1514.5" y="-18.5" font-family="Helvetica,sans-Serif" font-size="10.00">parsed_tools/magic</text>
<text text-anchor="middle" x="1562.5" y="-7.5" font-family="Helvetica,sans-Serif" font-size="10.00">_enum.hpp</text>
</a>
</g>
</g>
<!-- Node12&#45;&gt;Node15 -->
<g id="edge14" class="edge">
<title>Node12&#45;&gt;Node15</title>
<path fill="none" stroke="midnightblue" d="M1435.89,-72.87C1457.7,-63.16 1493.75,-47.11 1521.81,-34.61"/>
<polygon fill="midnightblue" stroke="midnightblue" points="1523.28,-37.79 1530.99,-30.53 1520.43,-31.4 1523.28,-37.79"/>
</g>
</g>
</svg>
