<?xml version="1.0" encoding="UTF-8" standalone="no"?>
<!DOCTYPE svg PUBLIC "-//W3C//DTD SVG 1.1//EN"
 "http://www.w3.org/Graphics/SVG/1.1/DTD/svg11.dtd">
<!-- Generated by graphviz version 2.43.0 (0)
 -->
<!-- Title: include/parsed_tools/components.h Pages: 1 -->
<svg width="2069pt" height="307pt"
 viewBox="0.00 0.00 2068.50 307.00" xmlns="http://www.w3.org/2000/svg" xmlns:xlink="http://www.w3.org/1999/xlink">
<g id="graph0" class="graph" transform="scale(1 1) rotate(0) translate(4 303)">
<title>include/parsed_tools/components.h</title>
<!-- Node1 -->
<g id="node1" class="node">
<title>Node1</title>
<g id="a_node1"><a xlink:title=" ">
<polygon fill="#bfbfbf" stroke="black" points="1692,-268.5 1692,-298.5 1809,-298.5 1809,-268.5 1692,-268.5"/>
<text text-anchor="start" x="1700" y="-286.5" font-family="Helvetica,sans-Serif" font-size="10.00">include/parsed_tools</text>
<text text-anchor="middle" x="1750.5" y="-275.5" font-family="Helvetica,sans-Serif" font-size="10.00">/components.h</text>
</a>
</g>
</g>
<!-- Node2 -->
<g id="node2" class="node">
<title>Node2</title>
<g id="a_node2"><a xlink:href="boundary__conditions_8h.html" target="_top" xlink:title=" ">
<polygon fill="none" stroke="black" points="1275.5,-201.5 1275.5,-231.5 1405.5,-231.5 1405.5,-201.5 1275.5,-201.5"/>
<text text-anchor="start" x="1283.5" y="-219.5" font-family="Helvetica,sans-Serif" font-size="10.00">include/parsed_tools</text>
<text text-anchor="middle" x="1340.5" y="-208.5" font-family="Helvetica,sans-Serif" font-size="10.00">/boundary_conditions.h</text>
</a>
</g>
</g>
<!-- Node1&#45;&gt;Node2 -->
<g id="edge1" class="edge">
<title>Node1&#45;&gt;Node2</title>
<path fill="none" stroke="midnightblue" d="M1681.68,-271.59C1604.71,-259.39 1480.98,-239.77 1405.57,-227.82"/>
<polygon fill="midnightblue" stroke="midnightblue" points="1681.33,-275.08 1691.76,-273.19 1682.43,-268.16 1681.33,-275.08"/>
</g>
<!-- Node5 -->
<g id="node5" class="node">
<title>Node5</title>
<g id="a_node5"><a xlink:href="source_2pdes_2linear__elasticity_8cc.html" target="_top" xlink:title=" ">
<polygon fill="none" stroke="black" points="143.5,-0.5 143.5,-30.5 249.5,-30.5 249.5,-0.5 143.5,-0.5"/>
<text text-anchor="start" x="151.5" y="-18.5" font-family="Helvetica,sans-Serif" font-size="10.00">source/pdes/linear</text>
<text text-anchor="middle" x="196.5" y="-7.5" font-family="Helvetica,sans-Serif" font-size="10.00">_elasticity.cc</text>
</a>
</g>
</g>
<!-- Node1&#45;&gt;Node5 -->
<g id="edge30" class="edge">
<title>Node1&#45;&gt;Node5</title>
<path fill="none" stroke="midnightblue" d="M1681.6,-280.54C1491.13,-274.15 942.01,-249.24 494.5,-165 388.19,-144.99 350.27,-158.36 260.5,-98 234.37,-80.43 214.06,-48.8 203.82,-30.54"/>
<polygon fill="midnightblue" stroke="midnightblue" points="1681.63,-284.04 1691.74,-280.87 1681.86,-277.04 1681.63,-284.04"/>
</g>
<!-- Node15 -->
<g id="node15" class="node">
<title>Node15</title>
<g id="a_node15"><a xlink:href="source_2pdes_2stokes_8cc.html" target="_top" xlink:title=" ">
<polygon fill="none" stroke="black" points="1431,-6 1431,-25 1554,-25 1554,-6 1431,-6"/>
<text text-anchor="middle" x="1492.5" y="-13" font-family="Helvetica,sans-Serif" font-size="10.00">source/pdes/stokes.cc</text>
</a>
</g>
</g>
<!-- Node1&#45;&gt;Node15 -->
<g id="edge31" class="edge">
<title>Node1&#45;&gt;Node15</title>
<path fill="none" stroke="midnightblue" d="M1760.6,-258.96C1777.48,-215.55 1805.28,-122.26 1759.5,-67 1733.95,-36.17 1624.89,-24.02 1554.3,-19.34"/>
<polygon fill="midnightblue" stroke="midnightblue" points="1757.29,-257.81 1756.8,-268.4 1763.78,-260.43 1757.29,-257.81"/>
</g>
<!-- Node27 -->
<g id="node27" class="node">
<title>Node27</title>
<g id="a_node27"><a xlink:href="boundary__conditions_8cc.html" target="_top" xlink:title=" ">
<polygon fill="none" stroke="black" points="1584,-140 1584,-159 1751,-159 1751,-140 1584,-140"/>
<text text-anchor="middle" x="1667.5" y="-147" font-family="Helvetica,sans-Serif" font-size="10.00">source/boundary_conditions.cc</text>
</a>
</g>
</g>
<!-- Node1&#45;&gt;Node27 -->
<g id="edge28" class="edge">
<title>Node1&#45;&gt;Node27</title>
<path fill="none" stroke="midnightblue" d="M1736.27,-259.87C1717.56,-230.12 1685.58,-179.26 1672.91,-159.1"/>
<polygon fill="midnightblue" stroke="midnightblue" points="1733.33,-261.77 1741.62,-268.37 1739.26,-258.05 1733.33,-261.77"/>
</g>
<!-- Node28 -->
<g id="node28" class="node">
<title>Node28</title>
<g id="a_node28"><a xlink:href="components_8cc.html" target="_top" xlink:title=" ">
<polygon fill="none" stroke="black" points="1807,-207 1807,-226 1932,-226 1932,-207 1807,-207"/>
<text text-anchor="middle" x="1869.5" y="-214" font-family="Helvetica,sans-Serif" font-size="10.00">source/components.cc</text>
</a>
</g>
</g>
<!-- Node1&#45;&gt;Node28 -->
<g id="edge29" class="edge">
<title>Node1&#45;&gt;Node28</title>
<path fill="none" stroke="midnightblue" d="M1785.33,-263.47C1808.05,-251.06 1836.6,-235.47 1853.93,-226.01"/>
<polygon fill="midnightblue" stroke="midnightblue" points="1783.42,-260.53 1776.32,-268.4 1786.78,-266.67 1783.42,-260.53"/>
</g>
<!-- Node29 -->
<g id="node29" class="node">
<title>Node29</title>
<g id="a_node29"><a xlink:href="dof__plotter_8cc.html" target="_top" xlink:title="Degrees of freedom plotter.">
<polygon fill="none" stroke="black" points="1950.5,-207 1950.5,-226 2060.5,-226 2060.5,-207 1950.5,-207"/>
<text text-anchor="middle" x="2005.5" y="-214" font-family="Helvetica,sans-Serif" font-size="10.00">apps/dof_plotter.cc</text>
</a>
</g>
</g>
<!-- Node1&#45;&gt;Node29 -->
<g id="edge32" class="edge">
<title>Node1&#45;&gt;Node29</title>
<path fill="none" stroke="midnightblue" d="M1815.27,-265.99C1865.24,-253.25 1932.34,-236.15 1972.04,-226.03"/>
<polygon fill="midnightblue" stroke="midnightblue" points="1814.34,-262.61 1805.52,-268.48 1816.07,-269.4 1814.34,-262.61"/>
</g>
<!-- Node3 -->
<g id="node3" class="node">
<title>Node3</title>
<g id="a_node3"><a xlink:href="linear__problem_8h.html" target="_top" xlink:title=" ">
<polygon fill="none" stroke="black" points="637,-134.5 637,-164.5 746,-164.5 746,-134.5 637,-134.5"/>
<text text-anchor="start" x="645" y="-152.5" font-family="Helvetica,sans-Serif" font-size="10.00">include/pdes/linear</text>
<text text-anchor="middle" x="691.5" y="-141.5" font-family="Helvetica,sans-Serif" font-size="10.00">_problem.h</text>
</a>
</g>
</g>
<!-- Node2&#45;&gt;Node3 -->
<g id="edge2" class="edge">
<title>Node2&#45;&gt;Node3</title>
<path fill="none" stroke="midnightblue" d="M1265.26,-207.96C1133.16,-194.73 862.54,-167.63 746.41,-156"/>
<polygon fill="midnightblue" stroke="midnightblue" points="1265,-211.46 1275.3,-208.97 1265.7,-204.49 1265,-211.46"/>
</g>
<!-- Node11 -->
<g id="node11" class="node">
<title>Node11</title>
<g id="a_node11"><a xlink:href="distributed__lagrange_8h.html" target="_top" xlink:title=" ">
<polygon fill="none" stroke="black" points="270,-67.5 270,-97.5 399,-97.5 399,-67.5 270,-67.5"/>
<text text-anchor="start" x="278" y="-85.5" font-family="Helvetica,sans-Serif" font-size="10.00">include/pdes/serial</text>
<text text-anchor="middle" x="334.5" y="-74.5" font-family="Helvetica,sans-Serif" font-size="10.00">/distributed_lagrange.h</text>
</a>
</g>
</g>
<!-- Node2&#45;&gt;Node11 -->
<g id="edge17" class="edge">
<title>Node2&#45;&gt;Node11</title>
<path fill="none" stroke="midnightblue" d="M1264.78,-215.1C1133.9,-213.32 857.29,-204.68 627.5,-165 535.67,-149.14 431.19,-116.41 375.15,-97.61"/>
<polygon fill="midnightblue" stroke="midnightblue" points="1265.05,-218.61 1275.09,-215.24 1265.14,-211.61 1265.05,-218.61"/>
</g>
<!-- Node18 -->
<g id="node18" class="node">
<title>Node18</title>
<g id="a_node18"><a xlink:href="serial_2poisson_8h.html" target="_top" xlink:title=" ">
<polygon fill="none" stroke="black" points="1106.5,-134.5 1106.5,-164.5 1214.5,-164.5 1214.5,-134.5 1106.5,-134.5"/>
<text text-anchor="start" x="1114.5" y="-152.5" font-family="Helvetica,sans-Serif" font-size="10.00">include/pdes/serial</text>
<text text-anchor="middle" x="1160.5" y="-141.5" font-family="Helvetica,sans-Serif" font-size="10.00">/poisson.h</text>
</a>
</g>
</g>
<!-- Node2&#45;&gt;Node18 -->
<g id="edge18" class="edge">
<title>Node2&#45;&gt;Node18</title>
<path fill="none" stroke="midnightblue" d="M1291.91,-197.96C1262.92,-187.48 1226.59,-174.37 1199.48,-164.58"/>
<polygon fill="midnightblue" stroke="midnightblue" points="1290.85,-201.29 1301.44,-201.4 1293.23,-194.71 1290.85,-201.29"/>
</g>
<!-- Node21 -->
<g id="node21" class="node">
<title>Node21</title>
<g id="a_node21"><a xlink:href="reduced__lagrange_8h.html" target="_top" xlink:title=" ">
<polygon fill="none" stroke="black" points="1282.5,-134.5 1282.5,-164.5 1398.5,-164.5 1398.5,-134.5 1282.5,-134.5"/>
<text text-anchor="start" x="1290.5" y="-152.5" font-family="Helvetica,sans-Serif" font-size="10.00">include/pdes/serial</text>
<text text-anchor="middle" x="1340.5" y="-141.5" font-family="Helvetica,sans-Serif" font-size="10.00">/reduced_lagrange.h</text>
</a>
</g>
</g>
<!-- Node2&#45;&gt;Node21 -->
<g id="edge21" class="edge">
<title>Node2&#45;&gt;Node21</title>
<path fill="none" stroke="midnightblue" d="M1340.5,-191.11C1340.5,-182.15 1340.5,-172.32 1340.5,-164.58"/>
<polygon fill="midnightblue" stroke="midnightblue" points="1337,-191.4 1340.5,-201.4 1344,-191.4 1337,-191.4"/>
</g>
<!-- Node24 -->
<g id="node24" class="node">
<title>Node24</title>
<g id="a_node24"><a xlink:href="serial_2stokes_8h.html" target="_top" xlink:title=" ">
<polygon fill="none" stroke="black" points="1457.5,-134.5 1457.5,-164.5 1565.5,-164.5 1565.5,-134.5 1457.5,-134.5"/>
<text text-anchor="start" x="1465.5" y="-152.5" font-family="Helvetica,sans-Serif" font-size="10.00">include/pdes/serial</text>
<text text-anchor="middle" x="1511.5" y="-141.5" font-family="Helvetica,sans-Serif" font-size="10.00">/stokes.h</text>
</a>
</g>
</g>
<!-- Node2&#45;&gt;Node24 -->
<g id="edge24" class="edge">
<title>Node2&#45;&gt;Node24</title>
<path fill="none" stroke="midnightblue" d="M1387.02,-197.82C1414.5,-187.37 1448.83,-174.32 1474.47,-164.58"/>
<polygon fill="midnightblue" stroke="midnightblue" points="1385.71,-194.57 1377.6,-201.4 1388.2,-201.11 1385.71,-194.57"/>
</g>
<!-- Node2&#45;&gt;Node27 -->
<g id="edge27" class="edge">
<title>Node2&#45;&gt;Node27</title>
<path fill="none" stroke="midnightblue" d="M1416.04,-200.48C1480.77,-187.62 1571.69,-169.54 1624.62,-159.02"/>
<polygon fill="midnightblue" stroke="midnightblue" points="1415.01,-197.12 1405.89,-202.5 1416.38,-203.99 1415.01,-197.12"/>
</g>
<!-- Node4 -->
<g id="node4" class="node">
<title>Node4</title>
<g id="a_node4"><a xlink:href="linear__elasticity_8h.html" target="_top" xlink:title=" ">
<polygon fill="none" stroke="black" points="417,-67.5 417,-97.5 526,-97.5 526,-67.5 417,-67.5"/>
<text text-anchor="start" x="425" y="-85.5" font-family="Helvetica,sans-Serif" font-size="10.00">include/pdes/linear</text>
<text text-anchor="middle" x="471.5" y="-74.5" font-family="Helvetica,sans-Serif" font-size="10.00">_elasticity.h</text>
</a>
</g>
</g>
<!-- Node3&#45;&gt;Node4 -->
<g id="edge3" class="edge">
<title>Node3&#45;&gt;Node4</title>
<path fill="none" stroke="midnightblue" d="M634.23,-131.58C598.5,-121.02 553.04,-107.59 519.26,-97.61"/>
<polygon fill="midnightblue" stroke="midnightblue" points="633.45,-135 644.03,-134.48 635.44,-128.29 633.45,-135"/>
</g>
<!-- Node8 -->
<g id="node8" class="node">
<title>Node8</title>
<g id="a_node8"><a xlink:href="mpi_2poisson_8h.html" target="_top" xlink:title=" ">
<polygon fill="none" stroke="black" points="544,-73 544,-92 693,-92 693,-73 544,-73"/>
<text text-anchor="middle" x="618.5" y="-80" font-family="Helvetica,sans-Serif" font-size="10.00">include/pdes/mpi/poisson.h</text>
</a>
</g>
</g>
<!-- Node3&#45;&gt;Node8 -->
<g id="edge7" class="edge">
<title>Node3&#45;&gt;Node8</title>
<path fill="none" stroke="midnightblue" d="M668.11,-127.67C654.63,-115.67 638.4,-101.22 628.26,-92.19"/>
<polygon fill="midnightblue" stroke="midnightblue" points="665.86,-130.36 675.66,-134.4 670.52,-125.13 665.86,-130.36"/>
</g>
<!-- Node3&#45;&gt;Node11 -->
<g id="edge10" class="edge">
<title>Node3&#45;&gt;Node11</title>
<path fill="none" stroke="midnightblue" d="M626.94,-137.4C569.34,-127.41 482.71,-112.16 407.5,-98 404.83,-97.5 402.11,-96.98 399.37,-96.45"/>
<polygon fill="midnightblue" stroke="midnightblue" points="626.55,-140.88 637,-139.14 627.74,-133.99 626.55,-140.88"/>
</g>
<!-- Node14 -->
<g id="node14" class="node">
<title>Node14</title>
<g id="a_node14"><a xlink:href="stokes_8h.html" target="_top" xlink:title=" ">
<polygon fill="none" stroke="black" points="834.5,-73 834.5,-92 956.5,-92 956.5,-73 834.5,-73"/>
<text text-anchor="middle" x="895.5" y="-80" font-family="Helvetica,sans-Serif" font-size="10.00">include/pdes/stokes.h</text>
</a>
</g>
</g>
<!-- Node3&#45;&gt;Node14 -->
<g id="edge13" class="edge">
<title>Node3&#45;&gt;Node14</title>
<path fill="none" stroke="midnightblue" d="M745.07,-131.43C784.86,-118.75 837.44,-102 868.73,-92.03"/>
<polygon fill="midnightblue" stroke="midnightblue" points="743.98,-128.11 735.51,-134.48 746.1,-134.77 743.98,-128.11"/>
</g>
<!-- Node17 -->
<g id="node17" class="node">
<title>Node17</title>
<g id="a_node17"><a xlink:href="linear__problem_8cc.html" target="_top" xlink:title=" ">
<polygon fill="none" stroke="black" points="710.5,-67.5 710.5,-97.5 816.5,-97.5 816.5,-67.5 710.5,-67.5"/>
<text text-anchor="start" x="718.5" y="-85.5" font-family="Helvetica,sans-Serif" font-size="10.00">source/pdes/linear</text>
<text text-anchor="middle" x="763.5" y="-74.5" font-family="Helvetica,sans-Serif" font-size="10.00">_problem.cc</text>
</a>
</g>
</g>
<!-- Node3&#45;&gt;Node17 -->
<g id="edge16" class="edge">
<title>Node3&#45;&gt;Node17</title>
<path fill="none" stroke="midnightblue" d="M714.65,-127.6C725.52,-117.78 738.2,-106.34 747.91,-97.58"/>
<polygon fill="midnightblue" stroke="midnightblue" points="712.2,-125.1 707.12,-134.4 716.89,-130.29 712.2,-125.1"/>
</g>
<!-- Node4&#45;&gt;Node5 -->
<g id="edge4" class="edge">
<title>Node4&#45;&gt;Node5</title>
<path fill="none" stroke="midnightblue" d="M406.89,-66.23C359.01,-54.91 294.56,-39.68 249.65,-29.06"/>
<polygon fill="midnightblue" stroke="midnightblue" points="406.3,-69.69 416.84,-68.58 407.91,-62.87 406.3,-69.69"/>
</g>
<!-- Node6 -->
<g id="node6" class="node">
<title>Node6</title>
<g id="a_node6"><a xlink:href="apps_2mpi_2linear__elasticity_8cc.html" target="_top" xlink:title=" ">
<polygon fill="none" stroke="black" points="539,-6 539,-25 694,-25 694,-6 539,-6"/>
<text text-anchor="middle" x="616.5" y="-13" font-family="Helvetica,sans-Serif" font-size="10.00">apps/mpi/linear_elasticity.cc</text>
</a>
</g>
</g>
<!-- Node4&#45;&gt;Node6 -->
<g id="edge5" class="edge">
<title>Node4&#45;&gt;Node6</title>
<path fill="none" stroke="midnightblue" d="M512.11,-63.3C540.07,-50.76 575.94,-34.68 597.52,-25.01"/>
<polygon fill="midnightblue" stroke="midnightblue" points="510.66,-60.11 502.96,-67.4 513.52,-66.5 510.66,-60.11"/>
</g>
<!-- Node7 -->
<g id="node7" class="node">
<title>Node7</title>
<g id="a_node7"><a xlink:href="apps_2serial_2linear__elasticity_8cc.html" target="_top" xlink:title=" ">
<polygon fill="none" stroke="black" points="420,-0.5 420,-30.5 521,-30.5 521,-0.5 420,-0.5"/>
<text text-anchor="start" x="428" y="-18.5" font-family="Helvetica,sans-Serif" font-size="10.00">apps/serial/linear</text>
<text text-anchor="middle" x="470.5" y="-7.5" font-family="Helvetica,sans-Serif" font-size="10.00">_elasticity.cc</text>
</a>
</g>
</g>
<!-- Node4&#45;&gt;Node7 -->
<g id="edge6" class="edge">
<title>Node4&#45;&gt;Node7</title>
<path fill="none" stroke="midnightblue" d="M471.12,-57.11C470.99,-48.15 470.84,-38.32 470.72,-30.58"/>
<polygon fill="midnightblue" stroke="midnightblue" points="467.63,-57.45 471.28,-67.4 474.63,-57.34 467.63,-57.45"/>
</g>
<!-- Node9 -->
<g id="node9" class="node">
<title>Node9</title>
<g id="a_node9"><a xlink:href="source_2pdes_2mpi_2poisson_8cc.html" target="_top" xlink:title=" ">
<polygon fill="none" stroke="black" points="847,-6 847,-25 998,-25 998,-6 847,-6"/>
<text text-anchor="middle" x="922.5" y="-13" font-family="Helvetica,sans-Serif" font-size="10.00">source/pdes/mpi/poisson.cc</text>
</a>
</g>
</g>
<!-- Node8&#45;&gt;Node9 -->
<g id="edge8" class="edge">
<title>Node8&#45;&gt;Node9</title>
<path fill="none" stroke="midnightblue" d="M668.53,-70.8C728.35,-58.01 827.29,-36.86 882.36,-25.08"/>
<polygon fill="midnightblue" stroke="midnightblue" points="667.6,-67.42 658.56,-72.94 669.07,-74.27 667.6,-67.42"/>
</g>
<!-- Node10 -->
<g id="node10" class="node">
<title>Node10</title>
<g id="a_node10"><a xlink:href="apps_2mpi_2poisson_8cc.html" target="_top" xlink:title=" ">
<polygon fill="none" stroke="black" points="712.5,-6 712.5,-25 828.5,-25 828.5,-6 712.5,-6"/>
<text text-anchor="middle" x="770.5" y="-13" font-family="Helvetica,sans-Serif" font-size="10.00">apps/mpi/poisson.cc</text>
</a>
</g>
</g>
<!-- Node8&#45;&gt;Node10 -->
<g id="edge9" class="edge">
<title>Node8&#45;&gt;Node10</title>
<path fill="none" stroke="midnightblue" d="M648.24,-68.78C678.34,-55.91 724.07,-36.35 750.23,-25.17"/>
<polygon fill="midnightblue" stroke="midnightblue" points="646.5,-65.72 638.68,-72.87 649.26,-72.15 646.5,-65.72"/>
</g>
<!-- Node12 -->
<g id="node12" class="node">
<title>Node12</title>
<g id="a_node12"><a xlink:href="source_2pdes_2serial_2distributed__lagrange_8cc.html" target="_top" xlink:title=" ">
<polygon fill="none" stroke="black" points="267.5,-0.5 267.5,-30.5 401.5,-30.5 401.5,-0.5 267.5,-0.5"/>
<text text-anchor="start" x="275.5" y="-18.5" font-family="Helvetica,sans-Serif" font-size="10.00">source/pdes/serial</text>
<text text-anchor="middle" x="334.5" y="-7.5" font-family="Helvetica,sans-Serif" font-size="10.00">/distributed_lagrange.cc</text>
</a>
</g>
</g>
<!-- Node11&#45;&gt;Node12 -->
<g id="edge11" class="edge">
<title>Node11&#45;&gt;Node12</title>
<path fill="none" stroke="midnightblue" d="M334.5,-57.11C334.5,-48.15 334.5,-38.32 334.5,-30.58"/>
<polygon fill="midnightblue" stroke="midnightblue" points="331,-57.4 334.5,-67.4 338,-57.4 331,-57.4"/>
</g>
<!-- Node13 -->
<g id="node13" class="node">
<title>Node13</title>
<g id="a_node13"><a xlink:href="apps_2serial_2distributed__lagrange_8cc.html" target="_top" xlink:title=" ">
<polygon fill="none" stroke="black" points="0,-0.5 0,-30.5 125,-30.5 125,-0.5 0,-0.5"/>
<text text-anchor="start" x="8" y="-18.5" font-family="Helvetica,sans-Serif" font-size="10.00">apps/serial/distributed</text>
<text text-anchor="middle" x="62.5" y="-7.5" font-family="Helvetica,sans-Serif" font-size="10.00">_lagrange.cc</text>
</a>
</g>
</g>
<!-- Node11&#45;&gt;Node13 -->
<g id="edge12" class="edge">
<title>Node11&#45;&gt;Node13</title>
<path fill="none" stroke="midnightblue" d="M265.95,-65.12C221.44,-54.48 164.03,-40.76 121.55,-30.61"/>
<polygon fill="midnightblue" stroke="midnightblue" points="265.28,-68.56 275.81,-67.48 266.9,-61.75 265.28,-68.56"/>
</g>
<!-- Node14&#45;&gt;Node15 -->
<g id="edge14" class="edge">
<title>Node14&#45;&gt;Node15</title>
<path fill="none" stroke="midnightblue" d="M942.63,-71.01C950.25,-69.52 958.08,-68.12 965.5,-67 1132.95,-41.71 1332.35,-26.66 1430.97,-20.22"/>
<polygon fill="midnightblue" stroke="midnightblue" points="941.89,-67.59 932.78,-72.99 943.28,-74.45 941.89,-67.59"/>
</g>
<!-- Node16 -->
<g id="node16" class="node">
<title>Node16</title>
<g id="a_node16"><a xlink:href="apps_2mpi_2stokes_8cc.html" target="_top" xlink:title=" ">
<polygon fill="none" stroke="black" points="1016.5,-6 1016.5,-25 1126.5,-25 1126.5,-6 1016.5,-6"/>
<text text-anchor="middle" x="1071.5" y="-13" font-family="Helvetica,sans-Serif" font-size="10.00">apps/mpi/stokes.cc</text>
</a>
</g>
</g>
<!-- Node14&#45;&gt;Node16 -->
<g id="edge15" class="edge">
<title>Node14&#45;&gt;Node16</title>
<path fill="none" stroke="midnightblue" d="M928.61,-69.27C963.54,-56.37 1017.68,-36.38 1048.31,-25.06"/>
<polygon fill="midnightblue" stroke="midnightblue" points="927.04,-66.12 918.87,-72.87 929.46,-72.69 927.04,-66.12"/>
</g>
<!-- Node19 -->
<g id="node19" class="node">
<title>Node19</title>
<g id="a_node19"><a xlink:href="source_2pdes_2serial_2poisson_8cc.html" target="_top" xlink:title=" ">
<polygon fill="none" stroke="black" points="975,-67.5 975,-97.5 1080,-97.5 1080,-67.5 975,-67.5"/>
<text text-anchor="start" x="983" y="-85.5" font-family="Helvetica,sans-Serif" font-size="10.00">source/pdes/serial</text>
<text text-anchor="middle" x="1027.5" y="-74.5" font-family="Helvetica,sans-Serif" font-size="10.00">/poisson.cc</text>
</a>
</g>
</g>
<!-- Node18&#45;&gt;Node19 -->
<g id="edge19" class="edge">
<title>Node18&#45;&gt;Node19</title>
<path fill="none" stroke="midnightblue" d="M1122.63,-129.99C1101.55,-119.69 1075.72,-107.07 1056.3,-97.58"/>
<polygon fill="midnightblue" stroke="midnightblue" points="1121.12,-133.15 1131.64,-134.4 1124.19,-126.86 1121.12,-133.15"/>
</g>
<!-- Node20 -->
<g id="node20" class="node">
<title>Node20</title>
<g id="a_node20"><a xlink:href="apps_2serial_2poisson_8cc.html" target="_top" xlink:title=" ">
<polygon fill="none" stroke="black" points="1098.5,-73 1098.5,-92 1222.5,-92 1222.5,-73 1098.5,-73"/>
<text text-anchor="middle" x="1160.5" y="-80" font-family="Helvetica,sans-Serif" font-size="10.00">apps/serial/poisson.cc</text>
</a>
</g>
</g>
<!-- Node18&#45;&gt;Node20 -->
<g id="edge20" class="edge">
<title>Node18&#45;&gt;Node20</title>
<path fill="none" stroke="midnightblue" d="M1160.5,-124.25C1160.5,-113.02 1160.5,-100.38 1160.5,-92.19"/>
<polygon fill="midnightblue" stroke="midnightblue" points="1157,-124.4 1160.5,-134.4 1164,-124.4 1157,-124.4"/>
</g>
<!-- Node22 -->
<g id="node22" class="node">
<title>Node22</title>
<g id="a_node22"><a xlink:href="source_2pdes_2serial_2reduced__lagrange_8cc.html" target="_top" xlink:title=" ">
<polygon fill="none" stroke="black" points="1240.5,-67.5 1240.5,-97.5 1360.5,-97.5 1360.5,-67.5 1240.5,-67.5"/>
<text text-anchor="start" x="1248.5" y="-85.5" font-family="Helvetica,sans-Serif" font-size="10.00">source/pdes/serial</text>
<text text-anchor="middle" x="1300.5" y="-74.5" font-family="Helvetica,sans-Serif" font-size="10.00">/reduced_lagrange.cc</text>
</a>
</g>
</g>
<!-- Node21&#45;&gt;Node22 -->
<g id="edge22" class="edge">
<title>Node21&#45;&gt;Node22</title>
<path fill="none" stroke="midnightblue" d="M1326.57,-125.87C1320.78,-116.46 1314.24,-105.83 1309.16,-97.58"/>
<polygon fill="midnightblue" stroke="midnightblue" points="1323.6,-127.71 1331.82,-134.4 1329.56,-124.05 1323.6,-127.71"/>
</g>
<!-- Node23 -->
<g id="node23" class="node">
<title>Node23</title>
<g id="a_node23"><a xlink:href="apps_2serial_2reduced__lagrange_8cc.html" target="_top" xlink:title=" ">
<polygon fill="none" stroke="black" points="1378.5,-67.5 1378.5,-97.5 1490.5,-97.5 1490.5,-67.5 1378.5,-67.5"/>
<text text-anchor="start" x="1386.5" y="-85.5" font-family="Helvetica,sans-Serif" font-size="10.00">apps/serial/reduced</text>
<text text-anchor="middle" x="1434.5" y="-74.5" font-family="Helvetica,sans-Serif" font-size="10.00">_lagrange.cc</text>
</a>
</g>
</g>
<!-- Node21&#45;&gt;Node23 -->
<g id="edge23" class="edge">
<title>Node21&#45;&gt;Node23</title>
<path fill="none" stroke="midnightblue" d="M1369.49,-128.45C1383.95,-118.45 1401.09,-106.6 1414.14,-97.58"/>
<polygon fill="midnightblue" stroke="midnightblue" points="1367.13,-125.83 1360.9,-134.4 1371.11,-131.59 1367.13,-125.83"/>
</g>
<!-- Node25 -->
<g id="node25" class="node">
<title>Node25</title>
<g id="a_node25"><a xlink:href="source_2pdes_2serial_2stokes_8cc.html" target="_top" xlink:title=" ">
<polygon fill="none" stroke="black" points="1509,-67.5 1509,-97.5 1614,-97.5 1614,-67.5 1509,-67.5"/>
<text text-anchor="start" x="1517" y="-85.5" font-family="Helvetica,sans-Serif" font-size="10.00">source/pdes/serial</text>
<text text-anchor="middle" x="1561.5" y="-74.5" font-family="Helvetica,sans-Serif" font-size="10.00">/stokes.cc</text>
</a>
</g>
</g>
<!-- Node24&#45;&gt;Node25 -->
<g id="edge25" class="edge">
<title>Node24&#45;&gt;Node25</title>
<path fill="none" stroke="midnightblue" d="M1528.46,-126.45C1535.81,-116.9 1544.19,-106 1550.67,-97.58"/>
<polygon fill="midnightblue" stroke="midnightblue" points="1525.67,-124.34 1522.35,-134.4 1531.22,-128.6 1525.67,-124.34"/>
</g>
<!-- Node26 -->
<g id="node26" class="node">
<title>Node26</title>
<g id="a_node26"><a xlink:href="apps_2serial_2stokes_8cc.html" target="_top" xlink:title=" ">
<polygon fill="none" stroke="black" points="1632.5,-73 1632.5,-92 1750.5,-92 1750.5,-73 1632.5,-73"/>
<text text-anchor="middle" x="1691.5" y="-80" font-family="Helvetica,sans-Serif" font-size="10.00">apps/serial/stokes.cc</text>
</a>
</g>
</g>
<!-- Node24&#45;&gt;Node26 -->
<g id="edge26" class="edge">
<title>Node24&#45;&gt;Node26</title>
<path fill="none" stroke="midnightblue" d="M1560.11,-130.95C1595.07,-118.32 1640.68,-101.85 1667.94,-92.01"/>
<polygon fill="midnightblue" stroke="midnightblue" points="1558.77,-127.71 1550.56,-134.4 1561.15,-134.29 1558.77,-127.71"/>
</g>
</g>
</svg>
