<?xml version="1.0" encoding="UTF-8" standalone="no"?>
<!DOCTYPE svg PUBLIC "-//W3C//DTD SVG 1.1//EN"
 "http://www.w3.org/Graphics/SVG/1.1/DTD/svg11.dtd">
<!-- Generated by graphviz version 2.43.0 (0)
 -->
<!-- Title: include/parsed_tools/components.h Pages: 1 -->
<svg width="1059pt" height="240pt"
 viewBox="0.00 0.00 1059.00 240.00" xmlns="http://www.w3.org/2000/svg" xmlns:xlink="http://www.w3.org/1999/xlink">
<g id="graph0" class="graph" transform="scale(1 1) rotate(0) translate(4 236)">
<title>include/parsed_tools/components.h</title>
<!-- Node1 -->
<g id="node1" class="node">
<title>Node1</title>
<g id="a_node1"><a xlink:title=" ">
<polygon fill="#bfbfbf" stroke="black" points="189.5,-201.5 189.5,-231.5 306.5,-231.5 306.5,-201.5 189.5,-201.5"/>
<text text-anchor="start" x="197.5" y="-219.5" font-family="Helvetica,sans-Serif" font-size="10.00">include/parsed_tools</text>
<text text-anchor="middle" x="248" y="-208.5" font-family="Helvetica,sans-Serif" font-size="10.00">/components.h</text>
</a>
</g>
</g>
<!-- Node2 -->
<g id="node2" class="node">
<title>Node2</title>
<g id="a_node2"><a xlink:href="boundary__conditions_8cc.html" target="_top" xlink:title=" ">
<polygon fill="none" stroke="black" points="24.5,-73 24.5,-92 191.5,-92 191.5,-73 24.5,-73"/>
<text text-anchor="middle" x="108" y="-80" font-family="Helvetica,sans-Serif" font-size="10.00">source/boundary_conditions.cc</text>
</a>
</g>
</g>
<!-- Node1&#45;&gt;Node2 -->
<g id="edge1" class="edge">
<title>Node1&#45;&gt;Node2</title>
<path fill="none" stroke="midnightblue" d="M216.12,-195.78C203.09,-187.07 188.24,-176.25 176,-165 150.23,-141.3 125.25,-107.89 114.09,-92.23"/>
<polygon fill="midnightblue" stroke="midnightblue" points="214.51,-198.91 224.79,-201.46 218.34,-193.06 214.51,-198.91"/>
</g>
<!-- Node3 -->
<g id="node3" class="node">
<title>Node3</title>
<g id="a_node3"><a xlink:href="components_8cc.html" target="_top" xlink:title=" ">
<polygon fill="none" stroke="black" points="185.5,-140 185.5,-159 310.5,-159 310.5,-140 185.5,-140"/>
<text text-anchor="middle" x="248" y="-147" font-family="Helvetica,sans-Serif" font-size="10.00">source/components.cc</text>
</a>
</g>
</g>
<!-- Node1&#45;&gt;Node3 -->
<g id="edge2" class="edge">
<title>Node1&#45;&gt;Node3</title>
<path fill="none" stroke="midnightblue" d="M248,-191.25C248,-180.02 248,-167.38 248,-159.19"/>
<polygon fill="midnightblue" stroke="midnightblue" points="244.5,-191.4 248,-201.4 251.5,-191.4 244.5,-191.4"/>
</g>
<!-- Node4 -->
<g id="node4" class="node">
<title>Node4</title>
<g id="a_node4"><a xlink:href="boundary__conditions_8h.html" target="_top" xlink:title=" ">
<polygon fill="none" stroke="black" points="337,-134.5 337,-164.5 467,-164.5 467,-134.5 337,-134.5"/>
<text text-anchor="start" x="345" y="-152.5" font-family="Helvetica,sans-Serif" font-size="10.00">include/parsed_tools</text>
<text text-anchor="middle" x="402" y="-141.5" font-family="Helvetica,sans-Serif" font-size="10.00">/boundary_conditions.h</text>
</a>
</g>
</g>
<!-- Node1&#45;&gt;Node4 -->
<g id="edge3" class="edge">
<title>Node1&#45;&gt;Node4</title>
<path fill="none" stroke="midnightblue" d="M290.87,-197.41C315.45,-187.03 345.86,-174.2 368.65,-164.58"/>
<polygon fill="midnightblue" stroke="midnightblue" points="289.27,-194.28 281.42,-201.4 291.99,-200.73 289.27,-194.28"/>
</g>
<!-- Node4&#45;&gt;Node2 -->
<g id="edge4" class="edge">
<title>Node4&#45;&gt;Node2</title>
<path fill="none" stroke="midnightblue" d="M328.76,-132.31C271,-119.54 192.73,-102.23 146.58,-92.03"/>
<polygon fill="midnightblue" stroke="midnightblue" points="328.05,-135.73 338.57,-134.48 329.56,-128.9 328.05,-135.73"/>
</g>
<!-- Node5 -->
<g id="node5" class="node">
<title>Node5</title>
<g id="a_node5"><a xlink:href="distributed__lagrange_8h.html" target="_top" xlink:title=" ">
<polygon fill="none" stroke="black" points="209.5,-67.5 209.5,-97.5 338.5,-97.5 338.5,-67.5 209.5,-67.5"/>
<text text-anchor="start" x="217.5" y="-85.5" font-family="Helvetica,sans-Serif" font-size="10.00">include/pdes/serial</text>
<text text-anchor="middle" x="274" y="-74.5" font-family="Helvetica,sans-Serif" font-size="10.00">/distributed_lagrange.h</text>
</a>
</g>
</g>
<!-- Node4&#45;&gt;Node5 -->
<g id="edge5" class="edge">
<title>Node4&#45;&gt;Node5</title>
<path fill="none" stroke="midnightblue" d="M365.28,-129.85C345.04,-119.58 320.33,-107.03 301.72,-97.58"/>
<polygon fill="midnightblue" stroke="midnightblue" points="363.72,-132.99 374.23,-134.4 366.89,-126.75 363.72,-132.99"/>
</g>
<!-- Node8 -->
<g id="node8" class="node">
<title>Node8</title>
<g id="a_node8"><a xlink:href="linear__elasticity_8h.html" target="_top" xlink:title=" ">
<polygon fill="none" stroke="black" points="357,-67.5 357,-97.5 465,-97.5 465,-67.5 357,-67.5"/>
<text text-anchor="start" x="365" y="-85.5" font-family="Helvetica,sans-Serif" font-size="10.00">include/pdes/serial</text>
<text text-anchor="middle" x="411" y="-74.5" font-family="Helvetica,sans-Serif" font-size="10.00">/linear_elasticity.h</text>
</a>
</g>
</g>
<!-- Node4&#45;&gt;Node8 -->
<g id="edge8" class="edge">
<title>Node4&#45;&gt;Node8</title>
<path fill="none" stroke="midnightblue" d="M405.34,-124.4C406.59,-115.37 407.97,-105.41 409.05,-97.58"/>
<polygon fill="midnightblue" stroke="midnightblue" points="401.86,-124.01 403.95,-134.4 408.79,-124.97 401.86,-124.01"/>
</g>
<!-- Node11 -->
<g id="node11" class="node">
<title>Node11</title>
<g id="a_node11"><a xlink:href="poisson_8h.html" target="_top" xlink:title=" ">
<polygon fill="none" stroke="black" points="542,-67.5 542,-97.5 650,-97.5 650,-67.5 542,-67.5"/>
<text text-anchor="start" x="550" y="-85.5" font-family="Helvetica,sans-Serif" font-size="10.00">include/pdes/serial</text>
<text text-anchor="middle" x="596" y="-74.5" font-family="Helvetica,sans-Serif" font-size="10.00">/poisson.h</text>
</a>
</g>
</g>
<!-- Node4&#45;&gt;Node11 -->
<g id="edge11" class="edge">
<title>Node4&#45;&gt;Node11</title>
<path fill="none" stroke="midnightblue" d="M453.96,-131.09C485.27,-120.6 524.64,-107.41 553.99,-97.58"/>
<polygon fill="midnightblue" stroke="midnightblue" points="452.47,-127.9 444.1,-134.4 454.69,-134.54 452.47,-127.9"/>
</g>
<!-- Node14 -->
<g id="node14" class="node">
<title>Node14</title>
<g id="a_node14"><a xlink:href="stokes_8h.html" target="_top" xlink:title=" ">
<polygon fill="none" stroke="black" points="808,-67.5 808,-97.5 916,-97.5 916,-67.5 808,-67.5"/>
<text text-anchor="start" x="816" y="-85.5" font-family="Helvetica,sans-Serif" font-size="10.00">include/pdes/serial</text>
<text text-anchor="middle" x="862" y="-74.5" font-family="Helvetica,sans-Serif" font-size="10.00">/stokes.h</text>
</a>
</g>
</g>
<!-- Node4&#45;&gt;Node14 -->
<g id="edge14" class="edge">
<title>Node4&#45;&gt;Node14</title>
<path fill="none" stroke="midnightblue" d="M477.32,-137.86C570.27,-124.72 726.03,-102.71 807.93,-91.14"/>
<polygon fill="midnightblue" stroke="midnightblue" points="476.83,-134.39 467.42,-139.26 477.81,-141.32 476.83,-134.39"/>
</g>
<!-- Node6 -->
<g id="node6" class="node">
<title>Node6</title>
<g id="a_node6"><a xlink:href="source_2pdes_2serial_2distributed__lagrange_8cc.html" target="_top" xlink:title=" ">
<polygon fill="none" stroke="black" points="0,-0.5 0,-30.5 134,-30.5 134,-0.5 0,-0.5"/>
<text text-anchor="start" x="8" y="-18.5" font-family="Helvetica,sans-Serif" font-size="10.00">source/pdes/serial</text>
<text text-anchor="middle" x="67" y="-7.5" font-family="Helvetica,sans-Serif" font-size="10.00">/distributed_lagrange.cc</text>
</a>
</g>
</g>
<!-- Node5&#45;&gt;Node6 -->
<g id="edge6" class="edge">
<title>Node5&#45;&gt;Node6</title>
<path fill="none" stroke="midnightblue" d="M219.68,-64.44C186.13,-53.91 143.59,-40.55 111.94,-30.61"/>
<polygon fill="midnightblue" stroke="midnightblue" points="218.75,-67.82 229.34,-67.48 220.85,-61.14 218.75,-67.82"/>
</g>
<!-- Node7 -->
<g id="node7" class="node">
<title>Node7</title>
<g id="a_node7"><a xlink:href="apps_2serial_2distributed__lagrange_8cc.html" target="_top" xlink:title=" ">
<polygon fill="none" stroke="black" points="152.5,-0.5 152.5,-30.5 277.5,-30.5 277.5,-0.5 152.5,-0.5"/>
<text text-anchor="start" x="160.5" y="-18.5" font-family="Helvetica,sans-Serif" font-size="10.00">apps/serial/distributed</text>
<text text-anchor="middle" x="215" y="-7.5" font-family="Helvetica,sans-Serif" font-size="10.00">_lagrange.cc</text>
</a>
</g>
</g>
<!-- Node5&#45;&gt;Node7 -->
<g id="edge7" class="edge">
<title>Node5&#45;&gt;Node7</title>
<path fill="none" stroke="midnightblue" d="M254.25,-59.74C245.52,-50.12 235.5,-39.09 227.78,-30.58"/>
<polygon fill="midnightblue" stroke="midnightblue" points="251.89,-62.34 261.2,-67.4 257.07,-57.64 251.89,-62.34"/>
</g>
<!-- Node9 -->
<g id="node9" class="node">
<title>Node9</title>
<g id="a_node9"><a xlink:href="source_2pdes_2serial_2linear__elasticity_8cc.html" target="_top" xlink:title=" ">
<polygon fill="none" stroke="black" points="296,-0.5 296,-30.5 406,-30.5 406,-0.5 296,-0.5"/>
<text text-anchor="start" x="304" y="-18.5" font-family="Helvetica,sans-Serif" font-size="10.00">source/pdes/serial</text>
<text text-anchor="middle" x="351" y="-7.5" font-family="Helvetica,sans-Serif" font-size="10.00">/linear_elasticity.cc</text>
</a>
</g>
</g>
<!-- Node8&#45;&gt;Node9 -->
<g id="edge9" class="edge">
<title>Node8&#45;&gt;Node9</title>
<path fill="none" stroke="midnightblue" d="M391.18,-60.02C382.24,-50.34 371.93,-39.17 363.99,-30.58"/>
<polygon fill="midnightblue" stroke="midnightblue" points="388.63,-62.42 397.98,-67.4 393.77,-57.67 388.63,-62.42"/>
</g>
<!-- Node10 -->
<g id="node10" class="node">
<title>Node10</title>
<g id="a_node10"><a xlink:href="apps_2serial_2linear__elasticity_8cc.html" target="_top" xlink:title=" ">
<polygon fill="none" stroke="black" points="424.5,-0.5 424.5,-30.5 525.5,-30.5 525.5,-0.5 424.5,-0.5"/>
<text text-anchor="start" x="432.5" y="-18.5" font-family="Helvetica,sans-Serif" font-size="10.00">apps/serial/linear</text>
<text text-anchor="middle" x="475" y="-7.5" font-family="Helvetica,sans-Serif" font-size="10.00">_elasticity.cc</text>
</a>
</g>
</g>
<!-- Node8&#45;&gt;Node10 -->
<g id="edge10" class="edge">
<title>Node8&#45;&gt;Node10</title>
<path fill="none" stroke="midnightblue" d="M432.15,-60.02C441.68,-50.34 452.67,-39.17 461.14,-30.58"/>
<polygon fill="midnightblue" stroke="midnightblue" points="429.41,-57.81 424.89,-67.4 434.4,-62.73 429.41,-57.81"/>
</g>
<!-- Node12 -->
<g id="node12" class="node">
<title>Node12</title>
<g id="a_node12"><a xlink:href="source_2pdes_2serial_2poisson_8cc.html" target="_top" xlink:title=" ">
<polygon fill="none" stroke="black" points="543.5,-0.5 543.5,-30.5 648.5,-30.5 648.5,-0.5 543.5,-0.5"/>
<text text-anchor="start" x="551.5" y="-18.5" font-family="Helvetica,sans-Serif" font-size="10.00">source/pdes/serial</text>
<text text-anchor="middle" x="596" y="-7.5" font-family="Helvetica,sans-Serif" font-size="10.00">/poisson.cc</text>
</a>
</g>
</g>
<!-- Node11&#45;&gt;Node12 -->
<g id="edge12" class="edge">
<title>Node11&#45;&gt;Node12</title>
<path fill="none" stroke="midnightblue" d="M596,-57.11C596,-48.15 596,-38.32 596,-30.58"/>
<polygon fill="midnightblue" stroke="midnightblue" points="592.5,-57.4 596,-67.4 599.5,-57.4 592.5,-57.4"/>
</g>
<!-- Node13 -->
<g id="node13" class="node">
<title>Node13</title>
<g id="a_node13"><a xlink:href="apps_2serial_2poisson_8cc.html" target="_top" xlink:title=" ">
<polygon fill="none" stroke="black" points="667,-6 667,-25 791,-25 791,-6 667,-6"/>
<text text-anchor="middle" x="729" y="-13" font-family="Helvetica,sans-Serif" font-size="10.00">apps/serial/poisson.cc</text>
</a>
</g>
</g>
<!-- Node11&#45;&gt;Node13 -->
<g id="edge13" class="edge">
<title>Node11&#45;&gt;Node13</title>
<path fill="none" stroke="midnightblue" d="M633.92,-62.97C659.47,-50.48 691.97,-34.6 711.59,-25.01"/>
<polygon fill="midnightblue" stroke="midnightblue" points="632.31,-59.86 624.86,-67.4 635.38,-66.15 632.31,-59.86"/>
</g>
<!-- Node15 -->
<g id="node15" class="node">
<title>Node15</title>
<g id="a_node15"><a xlink:href="source_2pdes_2serial_2stokes_8cc.html" target="_top" xlink:title=" ">
<polygon fill="none" stroke="black" points="809.5,-0.5 809.5,-30.5 914.5,-30.5 914.5,-0.5 809.5,-0.5"/>
<text text-anchor="start" x="817.5" y="-18.5" font-family="Helvetica,sans-Serif" font-size="10.00">source/pdes/serial</text>
<text text-anchor="middle" x="862" y="-7.5" font-family="Helvetica,sans-Serif" font-size="10.00">/stokes.cc</text>
</a>
</g>
</g>
<!-- Node14&#45;&gt;Node15 -->
<g id="edge15" class="edge">
<title>Node14&#45;&gt;Node15</title>
<path fill="none" stroke="midnightblue" d="M862,-57.11C862,-48.15 862,-38.32 862,-30.58"/>
<polygon fill="midnightblue" stroke="midnightblue" points="858.5,-57.4 862,-67.4 865.5,-57.4 858.5,-57.4"/>
</g>
<!-- Node16 -->
<g id="node16" class="node">
<title>Node16</title>
<g id="a_node16"><a xlink:href="apps_2serial_2stokes_8cc.html" target="_top" xlink:title=" ">
<polygon fill="none" stroke="black" points="933,-6 933,-25 1051,-25 1051,-6 933,-6"/>
<text text-anchor="middle" x="992" y="-13" font-family="Helvetica,sans-Serif" font-size="10.00">apps/serial/stokes.cc</text>
</a>
</g>
</g>
<!-- Node14&#45;&gt;Node16 -->
<g id="edge16" class="edge">
<title>Node14&#45;&gt;Node16</title>
<path fill="none" stroke="midnightblue" d="M899.39,-62.8C924.32,-50.34 955.89,-34.56 974.99,-25.01"/>
<polygon fill="midnightblue" stroke="midnightblue" points="897.59,-59.79 890.21,-67.4 900.72,-66.05 897.59,-59.79"/>
</g>
</g>
</svg>
