<?xml version="1.0" encoding="UTF-8" standalone="no"?>
<!DOCTYPE svg PUBLIC "-//W3C//DTD SVG 1.1//EN"
 "http://www.w3.org/Graphics/SVG/1.1/DTD/svg11.dtd">
<!-- Generated by graphviz version 2.43.0 (0)
 -->
<!-- Title: include/parsed_tools/components.h Pages: 1 -->
<svg width="1624pt" height="173pt"
 viewBox="0.00 0.00 1624.00 173.00" xmlns="http://www.w3.org/2000/svg" xmlns:xlink="http://www.w3.org/1999/xlink">
<g id="graph0" class="graph" transform="scale(1 1) rotate(0) translate(4 169)">
<title>include/parsed_tools/components.h</title>
<!-- Node1 -->
<g id="node1" class="node">
<title>Node1</title>
<g id="a_node1"><a xlink:title=" ">
<polygon fill="#bfbfbf" stroke="black" points="705.5,-134.5 705.5,-164.5 822.5,-164.5 822.5,-134.5 705.5,-134.5"/>
<text text-anchor="start" x="713.5" y="-152.5" font-family="Helvetica,sans-Serif" font-size="10.00">include/parsed_tools</text>
<text text-anchor="middle" x="764" y="-141.5" font-family="Helvetica,sans-Serif" font-size="10.00">/components.h</text>
</a>
</g>
</g>
<!-- Node2 -->
<g id="node2" class="node">
<title>Node2</title>
<g id="a_node2"><a target="_parent" xlink:href="http://www.dealii.org/developer/doxygen/deal.II/config_8h.html.html" xlink:title=" ">
<polygon fill="none" stroke="black" points="0,-73 0,-92 114,-92 114,-73 0,-73"/>
<text text-anchor="middle" x="57" y="-80" font-family="Helvetica,sans-Serif" font-size="10.00">deal.II/base/config.h</text>
</a>
</g>
</g>
<!-- Node1&#45;&gt;Node2 -->
<g id="edge1" class="edge">
<title>Node1&#45;&gt;Node2</title>
<path fill="none" stroke="midnightblue" d="M705.36,-146.58C592.22,-142.28 336.11,-129.65 123,-98 116.06,-96.97 108.76,-95.63 101.65,-94.18"/>
<polygon fill="midnightblue" stroke="midnightblue" points="101.94,-90.66 91.43,-92 100.48,-97.51 101.94,-90.66"/>
</g>
<!-- Node3 -->
<g id="node3" class="node">
<title>Node3</title>
<g id="a_node3"><a target="_parent" xlink:href="http://www.dealii.org/developer/doxygen/deal.II/include_2deal_8II_2base_2quadrature_8h.html.html" xlink:title=" ">
<polygon fill="none" stroke="black" points="132,-73 132,-92 270,-92 270,-73 132,-73"/>
<text text-anchor="middle" x="201" y="-80" font-family="Helvetica,sans-Serif" font-size="10.00">deal.II/base/quadrature.h</text>
</a>
</g>
</g>
<!-- Node1&#45;&gt;Node3 -->
<g id="edge2" class="edge">
<title>Node1&#45;&gt;Node3</title>
<path fill="none" stroke="midnightblue" d="M705.21,-143.91C613.78,-136.42 432.11,-120.17 279,-98 270.67,-96.79 261.88,-95.34 253.31,-93.82"/>
<polygon fill="midnightblue" stroke="midnightblue" points="253.87,-90.36 243.4,-92.02 252.62,-97.25 253.87,-90.36"/>
</g>
<!-- Node4 -->
<g id="node4" class="node">
<title>Node4</title>
<g id="a_node4"><a target="_parent" xlink:href="http://www.dealii.org/developer/doxygen/deal.II/quadrature__lib_8h.html.html" xlink:title=" ">
<polygon fill="none" stroke="black" points="288.5,-67.5 288.5,-97.5 417.5,-97.5 417.5,-67.5 288.5,-67.5"/>
<text text-anchor="start" x="296.5" y="-85.5" font-family="Helvetica,sans-Serif" font-size="10.00">deal.II/base/quadrature</text>
<text text-anchor="middle" x="353" y="-74.5" font-family="Helvetica,sans-Serif" font-size="10.00">_lib.h</text>
</a>
</g>
</g>
<!-- Node1&#45;&gt;Node4 -->
<g id="edge3" class="edge">
<title>Node1&#45;&gt;Node4</title>
<path fill="none" stroke="midnightblue" d="M705.43,-140.53C640.21,-131.48 531.42,-115.84 427.57,-98.05"/>
<polygon fill="midnightblue" stroke="midnightblue" points="427.99,-94.57 417.54,-96.32 426.8,-101.47 427.99,-94.57"/>
</g>
<!-- Node5 -->
<g id="node5" class="node">
<title>Node5</title>
<g id="a_node5"><a target="_parent" xlink:href="http://www.dealii.org/developer/doxygen/deal.II/include_2deal_8II_2base_2utilities_8h.html.html" xlink:title=" ">
<polygon fill="none" stroke="black" points="436,-73 436,-92 558,-92 558,-73 436,-73"/>
<text text-anchor="middle" x="497" y="-80" font-family="Helvetica,sans-Serif" font-size="10.00">deal.II/base/utilities.h</text>
</a>
</g>
</g>
<!-- Node1&#45;&gt;Node5 -->
<g id="edge4" class="edge">
<title>Node1&#45;&gt;Node5</title>
<path fill="none" stroke="midnightblue" d="M706.39,-134.48C657.08,-122.47 587.08,-105.43 541.85,-94.42"/>
<polygon fill="midnightblue" stroke="midnightblue" points="542.58,-90.99 532.03,-92.03 540.92,-97.79 542.58,-90.99"/>
</g>
<!-- Node6 -->
<g id="node6" class="node">
<title>Node6</title>
<g id="a_node6"><a target="_parent" xlink:href="http://www.dealii.org/developer/doxygen/deal.II/component__mask_8h.html.html" xlink:title=" ">
<polygon fill="none" stroke="black" points="576.5,-67.5 576.5,-97.5 693.5,-97.5 693.5,-67.5 576.5,-67.5"/>
<text text-anchor="start" x="584.5" y="-85.5" font-family="Helvetica,sans-Serif" font-size="10.00">deal.II/fe/component</text>
<text text-anchor="middle" x="635" y="-74.5" font-family="Helvetica,sans-Serif" font-size="10.00">_mask.h</text>
</a>
</g>
</g>
<!-- Node1&#45;&gt;Node6 -->
<g id="edge5" class="edge">
<title>Node1&#45;&gt;Node6</title>
<path fill="none" stroke="midnightblue" d="M736.01,-134.4C717.25,-124.94 692.33,-112.39 671.95,-102.12"/>
<polygon fill="midnightblue" stroke="midnightblue" points="673.44,-98.95 662.94,-97.58 670.29,-105.2 673.44,-98.95"/>
</g>
<!-- Node7 -->
<g id="node7" class="node">
<title>Node7</title>
<g id="a_node7"><a target="_parent" xlink:href="http://www.dealii.org/developer/doxygen/deal.II/fe__dgq_8h.html.html" xlink:title=" ">
<polygon fill="none" stroke="black" points="712,-73 712,-92 816,-92 816,-73 712,-73"/>
<text text-anchor="middle" x="764" y="-80" font-family="Helvetica,sans-Serif" font-size="10.00">deal.II/fe/fe_dgq.h</text>
</a>
</g>
</g>
<!-- Node1&#45;&gt;Node7 -->
<g id="edge6" class="edge">
<title>Node1&#45;&gt;Node7</title>
<path fill="none" stroke="midnightblue" d="M764,-134.4C764,-125.06 764,-112.71 764,-102.52"/>
<polygon fill="midnightblue" stroke="midnightblue" points="767.5,-102.19 764,-92.19 760.5,-102.19 767.5,-102.19"/>
</g>
<!-- Node8 -->
<g id="node8" class="node">
<title>Node8</title>
<g id="a_node8"><a target="_parent" xlink:href="http://www.dealii.org/developer/doxygen/deal.II/fe__q_8h.html.html" xlink:title=" ">
<polygon fill="none" stroke="black" points="834,-73 834,-92 926,-92 926,-73 834,-73"/>
<text text-anchor="middle" x="880" y="-80" font-family="Helvetica,sans-Serif" font-size="10.00">deal.II/fe/fe_q.h</text>
</a>
</g>
</g>
<!-- Node1&#45;&gt;Node8 -->
<g id="edge7" class="edge">
<title>Node1&#45;&gt;Node8</title>
<path fill="none" stroke="midnightblue" d="M789.17,-134.4C808.98,-123.29 836.42,-107.92 855.94,-96.98"/>
<polygon fill="midnightblue" stroke="midnightblue" points="857.81,-99.95 864.82,-92.01 854.38,-93.84 857.81,-99.95"/>
</g>
<!-- Node9 -->
<g id="node9" class="node">
<title>Node9</title>
<g id="a_node9"><a target="_parent" xlink:href="http://www.dealii.org/developer/doxygen/deal.II/fe__simplex__p_8h.html.html" xlink:title=" ">
<polygon fill="none" stroke="black" points="944.5,-73 944.5,-92 1081.5,-92 1081.5,-73 944.5,-73"/>
<text text-anchor="middle" x="1013" y="-80" font-family="Helvetica,sans-Serif" font-size="10.00">deal.II/fe/fe_simplex_p.h</text>
</a>
</g>
</g>
<!-- Node1&#45;&gt;Node9 -->
<g id="edge8" class="edge">
<title>Node1&#45;&gt;Node9</title>
<path fill="none" stroke="midnightblue" d="M817.72,-134.48C863.52,-122.52 928.44,-105.57 970.64,-94.56"/>
<polygon fill="midnightblue" stroke="midnightblue" points="971.54,-97.94 980.33,-92.03 969.77,-91.17 971.54,-97.94"/>
</g>
<!-- Node10 -->
<g id="node10" class="node">
<title>Node10</title>
<g id="a_node10"><a target="_parent" xlink:href="http://www.dealii.org/developer/doxygen/deal.II/fe__system_8h.html.html" xlink:title=" ">
<polygon fill="none" stroke="black" points="1100,-73 1100,-92 1222,-92 1222,-73 1100,-73"/>
<text text-anchor="middle" x="1161" y="-80" font-family="Helvetica,sans-Serif" font-size="10.00">deal.II/fe/fe_system.h</text>
</a>
</g>
</g>
<!-- Node1&#45;&gt;Node10 -->
<g id="edge9" class="edge">
<title>Node1&#45;&gt;Node10</title>
<path fill="none" stroke="midnightblue" d="M822.74,-140.26C888.12,-130.89 996.85,-114.72 1090,-98 1096.74,-96.79 1103.82,-95.44 1110.8,-94.06"/>
<polygon fill="midnightblue" stroke="midnightblue" points="1111.77,-97.44 1120.89,-92.04 1110.39,-90.57 1111.77,-97.44"/>
</g>
<!-- Node11 -->
<g id="node11" class="node">
<title>Node11</title>
<g id="a_node11"><a target="_parent" xlink:href="http://www.dealii.org/developer/doxygen/deal.II/grid_2tria_8h.html.html" xlink:title=" ">
<polygon fill="none" stroke="black" points="1240.5,-73 1240.5,-92 1337.5,-92 1337.5,-73 1240.5,-73"/>
<text text-anchor="middle" x="1289" y="-80" font-family="Helvetica,sans-Serif" font-size="10.00">deal.II/grid/tria.h</text>
</a>
</g>
</g>
<!-- Node1&#45;&gt;Node11 -->
<g id="edge10" class="edge">
<title>Node1&#45;&gt;Node11</title>
<path fill="none" stroke="midnightblue" d="M822.61,-144.76C911.45,-138.5 1085.28,-123.97 1231,-98 1236.56,-97.01 1242.37,-95.79 1248.08,-94.47"/>
<polygon fill="midnightblue" stroke="midnightblue" points="1249.26,-97.79 1258.17,-92.04 1247.62,-90.98 1249.26,-97.79"/>
</g>
<!-- Node12 -->
<g id="node12" class="node">
<title>Node12</title>
<g id="a_node12"><a xlink:href="enum_8h.html" target="_top" xlink:title=" ">
<polygon fill="none" stroke="black" points="1355.5,-73 1355.5,-92 1474.5,-92 1474.5,-73 1355.5,-73"/>
<text text-anchor="middle" x="1415" y="-80" font-family="Helvetica,sans-Serif" font-size="10.00">parsed_tools/enum.h</text>
</a>
</g>
</g>
<!-- Node1&#45;&gt;Node12 -->
<g id="edge11" class="edge">
<title>Node1&#45;&gt;Node12</title>
<path fill="none" stroke="midnightblue" d="M822.62,-145.83C928.02,-140.48 1156.34,-126.47 1347,-98 1354.22,-96.92 1361.83,-95.54 1369.24,-94.07"/>
<polygon fill="midnightblue" stroke="midnightblue" points="1370.07,-97.47 1379.15,-92.01 1368.65,-90.61 1370.07,-97.47"/>
</g>
<!-- Node13 -->
<g id="node13" class="node">
<title>Node13</title>
<g id="a_node13"><a target="_parent" xlink:href="http://www.dealii.org/developer/doxygen/deal.II/patterns_8h.html.html" xlink:title=" ">
<polygon fill="none" stroke="black" points="1200.5,-6 1200.5,-25 1325.5,-25 1325.5,-6 1200.5,-6"/>
<text text-anchor="middle" x="1263" y="-13" font-family="Helvetica,sans-Serif" font-size="10.00">deal.II/base/patterns.h</text>
</a>
</g>
</g>
<!-- Node12&#45;&gt;Node13 -->
<g id="edge12" class="edge">
<title>Node12&#45;&gt;Node13</title>
<path fill="none" stroke="midnightblue" d="M1394.82,-72.87C1368.7,-61.7 1322.97,-42.15 1292.84,-29.26"/>
<polygon fill="midnightblue" stroke="midnightblue" points="1293.84,-25.88 1283.27,-25.17 1291.09,-32.32 1293.84,-25.88"/>
</g>
<!-- Node14 -->
<g id="node14" class="node">
<title>Node14</title>
<g id="a_node14"><a target="_parent" xlink:href="http://www.dealii.org/developer/doxygen/deal.II/sd_8h.html.html" xlink:title=" ">
<polygon fill="none" stroke="black" points="1344,-6 1344,-25 1486,-25 1486,-6 1344,-6"/>
<text text-anchor="middle" x="1415" y="-13" font-family="Helvetica,sans-Serif" font-size="10.00">deal.II/differentiation/sd.h</text>
</a>
</g>
</g>
<!-- Node12&#45;&gt;Node14 -->
<g id="edge13" class="edge">
<title>Node12&#45;&gt;Node14</title>
<path fill="none" stroke="midnightblue" d="M1415,-72.73C1415,-63.18 1415,-47.62 1415,-35.28"/>
<polygon fill="midnightblue" stroke="midnightblue" points="1418.5,-35.13 1415,-25.13 1411.5,-35.13 1418.5,-35.13"/>
</g>
<!-- Node15 -->
<g id="node15" class="node">
<title>Node15</title>
<g id="a_node15"><a xlink:title=" ">
<polygon fill="none" stroke="#bfbfbf" points="1504,-0.5 1504,-30.5 1616,-30.5 1616,-0.5 1504,-0.5"/>
<text text-anchor="start" x="1512" y="-18.5" font-family="Helvetica,sans-Serif" font-size="10.00">parsed_tools/magic</text>
<text text-anchor="middle" x="1560" y="-7.5" font-family="Helvetica,sans-Serif" font-size="10.00">_enum.hpp</text>
</a>
</g>
</g>
<!-- Node12&#45;&gt;Node15 -->
<g id="edge14" class="edge">
<title>Node12&#45;&gt;Node15</title>
<path fill="none" stroke="midnightblue" d="M1434.25,-72.87C1455.82,-63.2 1491.41,-47.25 1519.23,-34.78"/>
<polygon fill="midnightblue" stroke="midnightblue" points="1521.01,-37.81 1528.71,-30.53 1518.15,-31.42 1521.01,-37.81"/>
</g>
</g>
</svg>
