<?xml version="1.0" encoding="UTF-8" standalone="no"?>
<!DOCTYPE svg PUBLIC "-//W3C//DTD SVG 1.1//EN"
 "http://www.w3.org/Graphics/SVG/1.1/DTD/svg11.dtd">
<!-- Generated by graphviz version 2.43.0 (0)
 -->
<!-- Title: include/compute_intersections.h Pages: 1 -->
<svg width="993pt" height="318pt"
 viewBox="0.00 0.00 992.50 318.00" xmlns="http://www.w3.org/2000/svg" xmlns:xlink="http://www.w3.org/1999/xlink">
<g id="graph0" class="graph" transform="scale(1 1) rotate(0) translate(4 314)">
<title>include/compute_intersections.h</title>
<!-- Node1 -->
<g id="node1" class="node">
<title>Node1</title>
<g id="a_node1"><a xlink:title=" ">
<polygon fill="#bfbfbf" stroke="black" points="428.5,-290.5 428.5,-309.5 603.5,-309.5 603.5,-290.5 428.5,-290.5"/>
<text text-anchor="middle" x="516" y="-297.5" font-family="Helvetica,sans-Serif" font-size="10.00">include/compute_intersections.h</text>
</a>
</g>
</g>
<!-- Node2 -->
<g id="node2" class="node">
<title>Node2</title>
<g id="a_node2"><a xlink:href="assemble__coupling__mass__matrix__with__exact__intersections_8h.html" target="_top" xlink:title=" ">
<polygon fill="none" stroke="black" points="263.5,-212.5 263.5,-253.5 412.5,-253.5 412.5,-212.5 263.5,-212.5"/>
<text text-anchor="start" x="271.5" y="-241.5" font-family="Helvetica,sans-Serif" font-size="10.00">include/assemble_coupling</text>
<text text-anchor="start" x="271.5" y="-230.5" font-family="Helvetica,sans-Serif" font-size="10.00">_mass_matrix_with_exact</text>
<text text-anchor="middle" x="338" y="-219.5" font-family="Helvetica,sans-Serif" font-size="10.00">_intersections.h</text>
</a>
</g>
</g>
<!-- Node1&#45;&gt;Node2 -->
<g id="edge1" class="edge">
<title>Node1&#45;&gt;Node2</title>
<path fill="none" stroke="midnightblue" d="M482.77,-286.86C457.21,-277.53 421.37,-264.44 391.74,-253.63"/>
<polygon fill="midnightblue" stroke="midnightblue" points="481.77,-290.23 492.36,-290.37 484.17,-283.65 481.77,-290.23"/>
</g>
<!-- Node3 -->
<g id="node3" class="node">
<title>Node3</title>
<g id="a_node3"><a xlink:href="non__matching__coupling_8h.html" target="_top" xlink:title=" ">
<polygon fill="none" stroke="black" points="90,-140 90,-170 234,-170 234,-140 90,-140"/>
<text text-anchor="start" x="98" y="-158" font-family="Helvetica,sans-Serif" font-size="10.00">include/parsed_tools</text>
<text text-anchor="middle" x="162" y="-147" font-family="Helvetica,sans-Serif" font-size="10.00">/non_matching_coupling.h</text>
</a>
</g>
</g>
<!-- Node1&#45;&gt;Node3 -->
<g id="edge15" class="edge">
<title>Node1&#45;&gt;Node3</title>
<path fill="none" stroke="midnightblue" d="M418.16,-296.99C366.71,-292.38 304.11,-280.95 254,-254 216.19,-233.66 185.2,-191.93 170.76,-170.07"/>
<polygon fill="midnightblue" stroke="midnightblue" points="418.04,-300.49 428.3,-297.82 418.62,-293.52 418.04,-300.49"/>
</g>
<!-- Node7 -->
<g id="node7" class="node">
<title>Node7</title>
<g id="a_node7"><a xlink:href="non__matching__coupling_8cc.html" target="_top" xlink:title=" ">
<polygon fill="none" stroke="black" points="223.5,-67.5 223.5,-97.5 344.5,-97.5 344.5,-67.5 223.5,-67.5"/>
<text text-anchor="start" x="231.5" y="-85.5" font-family="Helvetica,sans-Serif" font-size="10.00">source/non_matching</text>
<text text-anchor="middle" x="284" y="-74.5" font-family="Helvetica,sans-Serif" font-size="10.00">_coupling.cc</text>
</a>
</g>
</g>
<!-- Node1&#45;&gt;Node7 -->
<g id="edge17" class="edge">
<title>Node1&#45;&gt;Node7</title>
<path fill="none" stroke="midnightblue" d="M501.76,-282.34C495.34,-274.21 488.09,-264.02 483,-254 457.68,-204.12 484.61,-173.5 445,-134 418.45,-107.52 378.2,-94.9 344.59,-88.89"/>
<polygon fill="midnightblue" stroke="midnightblue" points="499.2,-284.74 508.24,-290.27 504.62,-280.31 499.2,-284.74"/>
</g>
<!-- Node9 -->
<g id="node9" class="node">
<title>Node9</title>
<g id="a_node9"><a xlink:href="assemble__nitsche__with__exact__intersections_8h.html" target="_top" xlink:title=" ">
<polygon fill="none" stroke="black" points="492,-218 492,-248 644,-248 644,-218 492,-218"/>
<text text-anchor="start" x="500" y="-236" font-family="Helvetica,sans-Serif" font-size="10.00">include/assemble_nitsche</text>
<text text-anchor="middle" x="568" y="-225" font-family="Helvetica,sans-Serif" font-size="10.00">_with_exact_intersections.h</text>
</a>
</g>
</g>
<!-- Node1&#45;&gt;Node9 -->
<g id="edge9" class="edge">
<title>Node1&#45;&gt;Node9</title>
<path fill="none" stroke="midnightblue" d="M529.46,-282.17C537.92,-271.59 548.72,-258.1 556.73,-248.09"/>
<polygon fill="midnightblue" stroke="midnightblue" points="526.53,-280.24 523.01,-290.23 531.99,-284.61 526.53,-280.24"/>
</g>
<!-- Node13 -->
<g id="node13" class="node">
<title>Node13</title>
<g id="a_node13"><a xlink:href="create__nitsche__rhs__with__exact__intersections_8h.html" target="_top" xlink:title=" ">
<polygon fill="none" stroke="black" points="662.5,-218 662.5,-248 835.5,-248 835.5,-218 662.5,-218"/>
<text text-anchor="start" x="670.5" y="-236" font-family="Helvetica,sans-Serif" font-size="10.00">include/create_nitsche</text>
<text text-anchor="middle" x="749" y="-225" font-family="Helvetica,sans-Serif" font-size="10.00">_rhs_with_exact_intersections.h</text>
</a>
</g>
</g>
<!-- Node1&#45;&gt;Node13 -->
<g id="edge13" class="edge">
<title>Node1&#45;&gt;Node13</title>
<path fill="none" stroke="midnightblue" d="M556.77,-287.63C596.27,-276.61 656.27,-259.87 698.71,-248.03"/>
<polygon fill="midnightblue" stroke="midnightblue" points="555.63,-284.31 546.94,-290.37 557.51,-291.05 555.63,-284.31"/>
</g>
<!-- Node14 -->
<g id="node14" class="node">
<title>Node14</title>
<g id="a_node14"><a xlink:href="create__coupling__sparsity__pattern__with__exact__intersections_8cc.html" target="_top" xlink:title=" ">
<polygon fill="none" stroke="black" points="853.5,-212.5 853.5,-253.5 984.5,-253.5 984.5,-212.5 853.5,-212.5"/>
<text text-anchor="start" x="861.5" y="-241.5" font-family="Helvetica,sans-Serif" font-size="10.00">source/create_coupling</text>
<text text-anchor="start" x="861.5" y="-230.5" font-family="Helvetica,sans-Serif" font-size="10.00">_sparsity_pattern_with</text>
<text text-anchor="middle" x="919" y="-219.5" font-family="Helvetica,sans-Serif" font-size="10.00">_exact_intersections.cc</text>
</a>
</g>
</g>
<!-- Node1&#45;&gt;Node14 -->
<g id="edge16" class="edge">
<title>Node1&#45;&gt;Node14</title>
<path fill="none" stroke="midnightblue" d="M610.32,-289.35C676.39,-281.79 766.54,-269.9 845,-254 847.74,-253.44 850.53,-252.85 853.34,-252.22"/>
<polygon fill="midnightblue" stroke="midnightblue" points="609.88,-285.87 600.34,-290.47 610.67,-292.83 609.88,-285.87"/>
</g>
<!-- Node2&#45;&gt;Node3 -->
<g id="edge2" class="edge">
<title>Node2&#45;&gt;Node3</title>
<path fill="none" stroke="midnightblue" d="M283.45,-208.45C254.37,-195.89 219.55,-180.85 194.67,-170.11"/>
<polygon fill="midnightblue" stroke="midnightblue" points="282.11,-211.68 292.68,-212.43 284.88,-205.25 282.11,-211.68"/>
</g>
<!-- Node2&#45;&gt;Node7 -->
<g id="edge8" class="edge">
<title>Node2&#45;&gt;Node7</title>
<path fill="none" stroke="midnightblue" d="M302.27,-205.45C293.68,-197.08 285.65,-187.08 281,-176 270.12,-150.07 275.52,-116.37 280.02,-97.63"/>
<polygon fill="midnightblue" stroke="midnightblue" points="300.13,-208.24 309.89,-212.38 304.84,-203.06 300.13,-208.24"/>
</g>
<!-- Node8 -->
<g id="node8" class="node">
<title>Node8</title>
<g id="a_node8"><a xlink:href="assemble__coupling__mass__matrix__with__exact__intersections_8cc.html" target="_top" xlink:title=" ">
<polygon fill="none" stroke="black" points="290,-134.5 290,-175.5 436,-175.5 436,-134.5 290,-134.5"/>
<text text-anchor="start" x="298" y="-163.5" font-family="Helvetica,sans-Serif" font-size="10.00">source/assemble_coupling</text>
<text text-anchor="start" x="298" y="-152.5" font-family="Helvetica,sans-Serif" font-size="10.00">_mass_matrix_with_exact</text>
<text text-anchor="middle" x="363" y="-141.5" font-family="Helvetica,sans-Serif" font-size="10.00">_intersections.cc</text>
</a>
</g>
</g>
<!-- Node2&#45;&gt;Node8 -->
<g id="edge7" class="edge">
<title>Node2&#45;&gt;Node8</title>
<path fill="none" stroke="midnightblue" d="M347.58,-202.88C350.59,-193.72 353.85,-183.83 356.58,-175.51"/>
<polygon fill="midnightblue" stroke="midnightblue" points="344.24,-201.84 344.44,-212.43 350.89,-204.02 344.24,-201.84"/>
</g>
<!-- Node4 -->
<g id="node4" class="node">
<title>Node4</title>
<g id="a_node4"><a xlink:href="distributed__lagrange_8h.html" target="_top" xlink:title=" ">
<polygon fill="none" stroke="black" points="76.5,-67.5 76.5,-97.5 205.5,-97.5 205.5,-67.5 76.5,-67.5"/>
<text text-anchor="start" x="84.5" y="-85.5" font-family="Helvetica,sans-Serif" font-size="10.00">include/pdes/serial</text>
<text text-anchor="middle" x="141" y="-74.5" font-family="Helvetica,sans-Serif" font-size="10.00">/distributed_lagrange.h</text>
</a>
</g>
</g>
<!-- Node3&#45;&gt;Node4 -->
<g id="edge3" class="edge">
<title>Node3&#45;&gt;Node4</title>
<path fill="none" stroke="midnightblue" d="M154.87,-130.06C151.67,-119.32 148,-107.01 145.24,-97.75"/>
<polygon fill="midnightblue" stroke="midnightblue" points="151.54,-131.15 157.75,-139.73 158.25,-129.15 151.54,-131.15"/>
</g>
<!-- Node3&#45;&gt;Node7 -->
<g id="edge6" class="edge">
<title>Node3&#45;&gt;Node7</title>
<path fill="none" stroke="midnightblue" d="M195.05,-134.9C215.43,-123.12 241.12,-108.28 259.65,-97.57"/>
<polygon fill="midnightblue" stroke="midnightblue" points="193.3,-131.87 186.4,-139.9 196.8,-137.93 193.3,-131.87"/>
</g>
<!-- Node5 -->
<g id="node5" class="node">
<title>Node5</title>
<g id="a_node5"><a xlink:href="source_2pdes_2serial_2distributed__lagrange_8cc.html" target="_top" xlink:title=" ">
<polygon fill="none" stroke="black" points="0,-0.5 0,-30.5 134,-30.5 134,-0.5 0,-0.5"/>
<text text-anchor="start" x="8" y="-18.5" font-family="Helvetica,sans-Serif" font-size="10.00">source/pdes/serial</text>
<text text-anchor="middle" x="67" y="-7.5" font-family="Helvetica,sans-Serif" font-size="10.00">/distributed_lagrange.cc</text>
</a>
</g>
</g>
<!-- Node4&#45;&gt;Node5 -->
<g id="edge4" class="edge">
<title>Node4&#45;&gt;Node5</title>
<path fill="none" stroke="midnightblue" d="M117.2,-60.6C106.03,-50.78 93.01,-39.34 83.03,-30.58"/>
<polygon fill="midnightblue" stroke="midnightblue" points="115.12,-63.43 124.94,-67.4 119.74,-58.17 115.12,-63.43"/>
</g>
<!-- Node6 -->
<g id="node6" class="node">
<title>Node6</title>
<g id="a_node6"><a xlink:href="apps_2serial_2distributed__lagrange_8cc.html" target="_top" xlink:title=" ">
<polygon fill="none" stroke="black" points="152.5,-0.5 152.5,-30.5 277.5,-30.5 277.5,-0.5 152.5,-0.5"/>
<text text-anchor="start" x="160.5" y="-18.5" font-family="Helvetica,sans-Serif" font-size="10.00">apps/serial/distributed</text>
<text text-anchor="middle" x="215" y="-7.5" font-family="Helvetica,sans-Serif" font-size="10.00">_lagrange.cc</text>
</a>
</g>
</g>
<!-- Node4&#45;&gt;Node6 -->
<g id="edge5" class="edge">
<title>Node4&#45;&gt;Node6</title>
<path fill="none" stroke="midnightblue" d="M164.8,-60.6C175.97,-50.78 188.99,-39.34 198.97,-30.58"/>
<polygon fill="midnightblue" stroke="midnightblue" points="162.26,-58.17 157.06,-67.4 166.88,-63.43 162.26,-58.17"/>
</g>
<!-- Node10 -->
<g id="node10" class="node">
<title>Node10</title>
<g id="a_node10"><a xlink:href="poisson__nitsche__interface_8h.html" target="_top" xlink:title=" ">
<polygon fill="none" stroke="black" points="539.5,-140 539.5,-170 694.5,-170 694.5,-140 539.5,-140"/>
<text text-anchor="start" x="547.5" y="-158" font-family="Helvetica,sans-Serif" font-size="10.00">include/pdes/serial</text>
<text text-anchor="middle" x="617" y="-147" font-family="Helvetica,sans-Serif" font-size="10.00">/poisson_nitsche_interface.h</text>
</a>
</g>
</g>
<!-- Node9&#45;&gt;Node10 -->
<g id="edge10" class="edge">
<title>Node9&#45;&gt;Node10</title>
<path fill="none" stroke="midnightblue" d="M582.78,-209.07C590.93,-196.44 600.79,-181.15 607.82,-170.23"/>
<polygon fill="midnightblue" stroke="midnightblue" points="579.69,-207.4 577.22,-217.7 585.58,-211.2 579.69,-207.4"/>
</g>
<!-- Node11 -->
<g id="node11" class="node">
<title>Node11</title>
<g id="a_node11"><a xlink:href="source_2pdes_2serial_2poisson__nitsche__interface_8cc.html" target="_top" xlink:title=" ">
<polygon fill="none" stroke="black" points="426,-67.5 426,-97.5 586,-97.5 586,-67.5 426,-67.5"/>
<text text-anchor="start" x="434" y="-85.5" font-family="Helvetica,sans-Serif" font-size="10.00">source/pdes/serial</text>
<text text-anchor="middle" x="506" y="-74.5" font-family="Helvetica,sans-Serif" font-size="10.00">/poisson_nitsche_interface.cc</text>
</a>
</g>
</g>
<!-- Node10&#45;&gt;Node11 -->
<g id="edge11" class="edge">
<title>Node10&#45;&gt;Node11</title>
<path fill="none" stroke="midnightblue" d="M586.18,-134.42C567.76,-122.72 544.78,-108.13 528.16,-97.57"/>
<polygon fill="midnightblue" stroke="midnightblue" points="584.49,-137.5 594.8,-139.9 588.24,-131.59 584.49,-137.5"/>
</g>
<!-- Node12 -->
<g id="node12" class="node">
<title>Node12</title>
<g id="a_node12"><a xlink:href="apps_2serial_2poisson__nitsche__interface_8cc.html" target="_top" xlink:title=" ">
<polygon fill="none" stroke="black" points="604.5,-67.5 604.5,-97.5 723.5,-97.5 723.5,-67.5 604.5,-67.5"/>
<text text-anchor="start" x="612.5" y="-85.5" font-family="Helvetica,sans-Serif" font-size="10.00">apps/serial/poisson</text>
<text text-anchor="middle" x="664" y="-74.5" font-family="Helvetica,sans-Serif" font-size="10.00">_nitsche_interface.cc</text>
</a>
</g>
</g>
<!-- Node10&#45;&gt;Node12 -->
<g id="edge12" class="edge">
<title>Node10&#45;&gt;Node12</title>
<path fill="none" stroke="midnightblue" d="M632.08,-131.39C639.44,-120.34 648.07,-107.39 654.5,-97.75"/>
<polygon fill="midnightblue" stroke="midnightblue" points="629.15,-129.47 626.51,-139.73 634.97,-133.35 629.15,-129.47"/>
</g>
<!-- Node13&#45;&gt;Node10 -->
<g id="edge14" class="edge">
<title>Node13&#45;&gt;Node10</title>
<path fill="none" stroke="midnightblue" d="M715.69,-212.82C692.57,-199.51 662.28,-182.07 641.39,-170.04"/>
<polygon fill="midnightblue" stroke="midnightblue" points="714.07,-215.93 724.48,-217.88 717.56,-209.86 714.07,-215.93"/>
</g>
</g>
</svg>
