<?xml version="1.0" encoding="UTF-8" standalone="no"?>
<!DOCTYPE svg PUBLIC "-//W3C//DTD SVG 1.1//EN"
 "http://www.w3.org/Graphics/SVG/1.1/DTD/svg11.dtd">
<!-- Generated by graphviz version 2.43.0 (0)
 -->
<!-- Title: include/parsed_tools/components.h Pages: 1 -->
<svg width="1718pt" height="296pt"
 viewBox="0.00 0.00 1717.50 296.00" xmlns="http://www.w3.org/2000/svg" xmlns:xlink="http://www.w3.org/1999/xlink">
<g id="graph0" class="graph" transform="scale(1 1) rotate(0) translate(4 292)">
<title>include/parsed_tools/components.h</title>
<!-- Node1 -->
<g id="node1" class="node">
<title>Node1</title>
<g id="a_node1"><a xlink:title=" ">
<polygon fill="#bfbfbf" stroke="black" points="1393,-257.5 1393,-287.5 1510,-287.5 1510,-257.5 1393,-257.5"/>
<text text-anchor="start" x="1401" y="-275.5" font-family="Helvetica,sans-Serif" font-size="10.00">include/parsed_tools</text>
<text text-anchor="middle" x="1451.5" y="-264.5" font-family="Helvetica,sans-Serif" font-size="10.00">/components.h</text>
</a>
</g>
</g>
<!-- Node2 -->
<g id="node2" class="node">
<title>Node2</title>
<g id="a_node2"><a xlink:href="boundary__conditions_8h.html" target="_top" xlink:title=" ">
<polygon fill="none" stroke="black" points="1119.5,-190.5 1119.5,-220.5 1249.5,-220.5 1249.5,-190.5 1119.5,-190.5"/>
<text text-anchor="start" x="1127.5" y="-208.5" font-family="Helvetica,sans-Serif" font-size="10.00">include/parsed_tools</text>
<text text-anchor="middle" x="1184.5" y="-197.5" font-family="Helvetica,sans-Serif" font-size="10.00">/boundary_conditions.h</text>
</a>
</g>
</g>
<!-- Node1&#45;&gt;Node2 -->
<g id="edge1" class="edge">
<title>Node1&#45;&gt;Node2</title>
<path fill="none" stroke="midnightblue" d="M1383.93,-255.05C1340.28,-244.43 1284.08,-230.74 1242.46,-220.61"/>
<polygon fill="midnightblue" stroke="midnightblue" points="1383.35,-258.51 1393.89,-257.48 1385.01,-251.71 1383.35,-258.51"/>
</g>
<!-- Node23 -->
<g id="node23" class="node">
<title>Node23</title>
<g id="a_node23"><a xlink:href="boundary__conditions_8cc.html" target="_top" xlink:title=" ">
<polygon fill="none" stroke="black" points="1457,-129 1457,-148 1624,-148 1624,-129 1457,-129"/>
<text text-anchor="middle" x="1540.5" y="-136" font-family="Helvetica,sans-Serif" font-size="10.00">source/boundary_conditions.cc</text>
</a>
</g>
</g>
<!-- Node1&#45;&gt;Node23 -->
<g id="edge23" class="edge">
<title>Node1&#45;&gt;Node23</title>
<path fill="none" stroke="midnightblue" d="M1434.38,-248.91C1423.6,-231.71 1413.74,-208 1425.5,-190 1440.16,-167.54 1467.29,-155.01 1491.51,-148.04"/>
<polygon fill="midnightblue" stroke="midnightblue" points="1431.51,-250.9 1439.99,-257.24 1437.31,-246.99 1431.51,-250.9"/>
</g>
<!-- Node24 -->
<g id="node24" class="node">
<title>Node24</title>
<g id="a_node24"><a xlink:href="components_8cc.html" target="_top" xlink:title=" ">
<polygon fill="none" stroke="black" points="1435,-196 1435,-215 1560,-215 1560,-196 1435,-196"/>
<text text-anchor="middle" x="1497.5" y="-203" font-family="Helvetica,sans-Serif" font-size="10.00">source/components.cc</text>
</a>
</g>
</g>
<!-- Node1&#45;&gt;Node24 -->
<g id="edge24" class="edge">
<title>Node1&#45;&gt;Node24</title>
<path fill="none" stroke="midnightblue" d="M1467.44,-248.97C1475.68,-237.33 1485.26,-223.8 1491.35,-215.19"/>
<polygon fill="midnightblue" stroke="midnightblue" points="1464.4,-247.21 1461.48,-257.4 1470.11,-251.26 1464.4,-247.21"/>
</g>
<!-- Node25 -->
<g id="node25" class="node">
<title>Node25</title>
<g id="a_node25"><a xlink:href="dof__plotter_8cc.html" target="_top" xlink:title="Degrees of freedom plotter.">
<polygon fill="none" stroke="black" points="1578.5,-196 1578.5,-215 1688.5,-215 1688.5,-196 1578.5,-196"/>
<text text-anchor="middle" x="1633.5" y="-203" font-family="Helvetica,sans-Serif" font-size="10.00">apps/dof_plotter.cc</text>
</a>
</g>
</g>
<!-- Node1&#45;&gt;Node25 -->
<g id="edge25" class="edge">
<title>Node1&#45;&gt;Node25</title>
<path fill="none" stroke="midnightblue" d="M1500.65,-253.95C1536,-241.32 1582.12,-224.85 1609.68,-215.01"/>
<polygon fill="midnightblue" stroke="midnightblue" points="1499.23,-250.74 1490.99,-257.4 1501.59,-257.33 1499.23,-250.74"/>
</g>
<!-- Node3 -->
<g id="node3" class="node">
<title>Node3</title>
<g id="a_node3"><a xlink:href="linear__problem_8h.html" target="_top" xlink:title=" ">
<polygon fill="none" stroke="black" points="243,-123.5 243,-153.5 374,-153.5 374,-123.5 243,-123.5"/>
<text text-anchor="start" x="251" y="-141.5" font-family="Helvetica,sans-Serif" font-size="10.00">include/pdes/mpi/linear</text>
<text text-anchor="middle" x="308.5" y="-130.5" font-family="Helvetica,sans-Serif" font-size="10.00">_problem.h</text>
</a>
</g>
</g>
<!-- Node2&#45;&gt;Node3 -->
<g id="edge2" class="edge">
<title>Node2&#45;&gt;Node3</title>
<path fill="none" stroke="midnightblue" d="M1109.33,-198.92C940.47,-186.39 533.43,-156.19 374.06,-144.36"/>
<polygon fill="midnightblue" stroke="midnightblue" points="1109.14,-202.42 1119.37,-199.67 1109.66,-195.44 1109.14,-202.42"/>
</g>
<!-- Node8 -->
<g id="node8" class="node">
<title>Node8</title>
<g id="a_node8"><a xlink:href="distributed__lagrange_8h.html" target="_top" xlink:title=" ">
<polygon fill="none" stroke="black" points="541,-123.5 541,-153.5 670,-153.5 670,-123.5 541,-123.5"/>
<text text-anchor="start" x="549" y="-141.5" font-family="Helvetica,sans-Serif" font-size="10.00">include/pdes/serial</text>
<text text-anchor="middle" x="605.5" y="-130.5" font-family="Helvetica,sans-Serif" font-size="10.00">/distributed_lagrange.h</text>
</a>
</g>
</g>
<!-- Node2&#45;&gt;Node8 -->
<g id="edge7" class="edge">
<title>Node2&#45;&gt;Node8</title>
<path fill="none" stroke="midnightblue" d="M1109.4,-196.07C994.79,-183.2 778.22,-158.89 670.19,-146.76"/>
<polygon fill="midnightblue" stroke="midnightblue" points="1109.16,-199.56 1119.49,-197.2 1109.94,-192.61 1109.16,-199.56"/>
</g>
<!-- Node11 -->
<g id="node11" class="node">
<title>Node11</title>
<g id="a_node11"><a xlink:href="linear__elasticity_8h.html" target="_top" xlink:title=" ">
<polygon fill="none" stroke="black" points="811.5,-123.5 811.5,-153.5 919.5,-153.5 919.5,-123.5 811.5,-123.5"/>
<text text-anchor="start" x="819.5" y="-141.5" font-family="Helvetica,sans-Serif" font-size="10.00">include/pdes/serial</text>
<text text-anchor="middle" x="865.5" y="-130.5" font-family="Helvetica,sans-Serif" font-size="10.00">/linear_elasticity.h</text>
</a>
</g>
</g>
<!-- Node2&#45;&gt;Node11 -->
<g id="edge10" class="edge">
<title>Node2&#45;&gt;Node11</title>
<path fill="none" stroke="midnightblue" d="M1109.29,-189.17C1051.03,-177.3 971.73,-161.15 919.61,-150.53"/>
<polygon fill="midnightblue" stroke="midnightblue" points="1108.68,-192.62 1119.18,-191.19 1110.08,-185.76 1108.68,-192.62"/>
</g>
<!-- Node14 -->
<g id="node14" class="node">
<title>Node14</title>
<g id="a_node14"><a xlink:href="serial_2poisson_8h.html" target="_top" xlink:title=" ">
<polygon fill="none" stroke="black" points="1065.5,-123.5 1065.5,-153.5 1173.5,-153.5 1173.5,-123.5 1065.5,-123.5"/>
<text text-anchor="start" x="1073.5" y="-141.5" font-family="Helvetica,sans-Serif" font-size="10.00">include/pdes/serial</text>
<text text-anchor="middle" x="1119.5" y="-130.5" font-family="Helvetica,sans-Serif" font-size="10.00">/poisson.h</text>
</a>
</g>
</g>
<!-- Node2&#45;&gt;Node14 -->
<g id="edge13" class="edge">
<title>Node2&#45;&gt;Node14</title>
<path fill="none" stroke="midnightblue" d="M1163.31,-183.31C1153.56,-173.56 1142.26,-162.26 1133.58,-153.58"/>
<polygon fill="midnightblue" stroke="midnightblue" points="1160.85,-185.8 1170.4,-190.4 1165.8,-180.85 1160.85,-185.8"/>
</g>
<!-- Node17 -->
<g id="node17" class="node">
<title>Node17</title>
<g id="a_node17"><a xlink:href="reduced__lagrange_8h.html" target="_top" xlink:title=" ">
<polygon fill="none" stroke="black" points="1196.5,-123.5 1196.5,-153.5 1312.5,-153.5 1312.5,-123.5 1196.5,-123.5"/>
<text text-anchor="start" x="1204.5" y="-141.5" font-family="Helvetica,sans-Serif" font-size="10.00">include/pdes/serial</text>
<text text-anchor="middle" x="1254.5" y="-130.5" font-family="Helvetica,sans-Serif" font-size="10.00">/reduced_lagrange.h</text>
</a>
</g>
</g>
<!-- Node2&#45;&gt;Node17 -->
<g id="edge16" class="edge">
<title>Node2&#45;&gt;Node17</title>
<path fill="none" stroke="midnightblue" d="M1207.32,-183.31C1217.82,-173.56 1229.99,-162.26 1239.34,-153.58"/>
<polygon fill="midnightblue" stroke="midnightblue" points="1204.64,-181.03 1199.69,-190.4 1209.4,-186.16 1204.64,-181.03"/>
</g>
<!-- Node20 -->
<g id="node20" class="node">
<title>Node20</title>
<g id="a_node20"><a xlink:href="stokes_8h.html" target="_top" xlink:title=" ">
<polygon fill="none" stroke="black" points="1330.5,-123.5 1330.5,-153.5 1438.5,-153.5 1438.5,-123.5 1330.5,-123.5"/>
<text text-anchor="start" x="1338.5" y="-141.5" font-family="Helvetica,sans-Serif" font-size="10.00">include/pdes/serial</text>
<text text-anchor="middle" x="1384.5" y="-130.5" font-family="Helvetica,sans-Serif" font-size="10.00">/stokes.h</text>
</a>
</g>
</g>
<!-- Node2&#45;&gt;Node20 -->
<g id="edge19" class="edge">
<title>Node2&#45;&gt;Node20</title>
<path fill="none" stroke="midnightblue" d="M1237.65,-187.23C1270,-176.71 1310.81,-163.45 1341.19,-153.58"/>
<polygon fill="midnightblue" stroke="midnightblue" points="1236.33,-183.98 1227.9,-190.4 1238.49,-190.63 1236.33,-183.98"/>
</g>
<!-- Node2&#45;&gt;Node23 -->
<g id="edge22" class="edge">
<title>Node2&#45;&gt;Node23</title>
<path fill="none" stroke="midnightblue" d="M1259.99,-190.72C1330.74,-177.8 1434.29,-158.89 1493.78,-148.03"/>
<polygon fill="midnightblue" stroke="midnightblue" points="1259,-187.34 1249.8,-192.58 1260.26,-194.22 1259,-187.34"/>
</g>
<!-- Node4 -->
<g id="node4" class="node">
<title>Node4</title>
<g id="a_node4"><a xlink:href="mpi_2poisson_8h.html" target="_top" xlink:title=" ">
<polygon fill="none" stroke="black" points="77,-62 77,-81 226,-81 226,-62 77,-62"/>
<text text-anchor="middle" x="151.5" y="-69" font-family="Helvetica,sans-Serif" font-size="10.00">include/pdes/mpi/poisson.h</text>
</a>
</g>
</g>
<!-- Node3&#45;&gt;Node4 -->
<g id="edge3" class="edge">
<title>Node3&#45;&gt;Node4</title>
<path fill="none" stroke="midnightblue" d="M264.92,-119.46C234.59,-106.9 195.52,-90.72 172.05,-81.01"/>
<polygon fill="midnightblue" stroke="midnightblue" points="263.86,-122.8 274.43,-123.4 266.53,-116.34 263.86,-122.8"/>
</g>
<!-- Node7 -->
<g id="node7" class="node">
<title>Node7</title>
<g id="a_node7"><a xlink:href="linear__problem_8cc.html" target="_top" xlink:title=" ">
<polygon fill="none" stroke="black" points="244.5,-56.5 244.5,-86.5 372.5,-86.5 372.5,-56.5 244.5,-56.5"/>
<text text-anchor="start" x="252.5" y="-74.5" font-family="Helvetica,sans-Serif" font-size="10.00">source/pdes/mpi/linear</text>
<text text-anchor="middle" x="308.5" y="-63.5" font-family="Helvetica,sans-Serif" font-size="10.00">_problem.cc</text>
</a>
</g>
</g>
<!-- Node3&#45;&gt;Node7 -->
<g id="edge6" class="edge">
<title>Node3&#45;&gt;Node7</title>
<path fill="none" stroke="midnightblue" d="M308.5,-113.11C308.5,-104.15 308.5,-94.32 308.5,-86.58"/>
<polygon fill="midnightblue" stroke="midnightblue" points="305,-113.4 308.5,-123.4 312,-113.4 305,-113.4"/>
</g>
<!-- Node5 -->
<g id="node5" class="node">
<title>Node5</title>
<g id="a_node5"><a xlink:href="source_2pdes_2mpi_2poisson_8cc.html" target="_top" xlink:title=" ">
<polygon fill="none" stroke="black" points="0,-0.5 0,-19.5 151,-19.5 151,-0.5 0,-0.5"/>
<text text-anchor="middle" x="75.5" y="-7.5" font-family="Helvetica,sans-Serif" font-size="10.00">source/pdes/mpi/poisson.cc</text>
</a>
</g>
</g>
<!-- Node4&#45;&gt;Node5 -->
<g id="edge4" class="edge">
<title>Node4&#45;&gt;Node5</title>
<path fill="none" stroke="midnightblue" d="M132.72,-55.79C118.14,-44.38 98.44,-28.96 86.37,-19.51"/>
<polygon fill="midnightblue" stroke="midnightblue" points="130.58,-58.57 140.61,-61.98 134.89,-53.05 130.58,-58.57"/>
</g>
<!-- Node6 -->
<g id="node6" class="node">
<title>Node6</title>
<g id="a_node6"><a xlink:href="apps_2mpi_2poisson_8cc.html" target="_top" xlink:title=" ">
<polygon fill="none" stroke="black" points="169.5,-0.5 169.5,-19.5 285.5,-19.5 285.5,-0.5 169.5,-0.5"/>
<text text-anchor="middle" x="227.5" y="-7.5" font-family="Helvetica,sans-Serif" font-size="10.00">apps/mpi/poisson.cc</text>
</a>
</g>
</g>
<!-- Node4&#45;&gt;Node6 -->
<g id="edge5" class="edge">
<title>Node4&#45;&gt;Node6</title>
<path fill="none" stroke="midnightblue" d="M170.28,-55.79C184.86,-44.38 204.56,-28.96 216.63,-19.51"/>
<polygon fill="midnightblue" stroke="midnightblue" points="168.11,-53.05 162.39,-61.98 172.42,-58.57 168.11,-53.05"/>
</g>
<!-- Node9 -->
<g id="node9" class="node">
<title>Node9</title>
<g id="a_node9"><a xlink:href="source_2pdes_2serial_2distributed__lagrange_8cc.html" target="_top" xlink:title=" ">
<polygon fill="none" stroke="black" points="390.5,-56.5 390.5,-86.5 524.5,-86.5 524.5,-56.5 390.5,-56.5"/>
<text text-anchor="start" x="398.5" y="-74.5" font-family="Helvetica,sans-Serif" font-size="10.00">source/pdes/serial</text>
<text text-anchor="middle" x="457.5" y="-63.5" font-family="Helvetica,sans-Serif" font-size="10.00">/distributed_lagrange.cc</text>
</a>
</g>
</g>
<!-- Node8&#45;&gt;Node9 -->
<g id="edge8" class="edge">
<title>Node8&#45;&gt;Node9</title>
<path fill="none" stroke="midnightblue" d="M563.99,-119.27C540.42,-108.92 511.36,-96.15 489.55,-86.58"/>
<polygon fill="midnightblue" stroke="midnightblue" points="562.82,-122.58 573.39,-123.4 565.64,-116.17 562.82,-122.58"/>
</g>
<!-- Node10 -->
<g id="node10" class="node">
<title>Node10</title>
<g id="a_node10"><a xlink:href="apps_2serial_2distributed__lagrange_8cc.html" target="_top" xlink:title=" ">
<polygon fill="none" stroke="black" points="543,-56.5 543,-86.5 668,-86.5 668,-56.5 543,-56.5"/>
<text text-anchor="start" x="551" y="-74.5" font-family="Helvetica,sans-Serif" font-size="10.00">apps/serial/distributed</text>
<text text-anchor="middle" x="605.5" y="-63.5" font-family="Helvetica,sans-Serif" font-size="10.00">_lagrange.cc</text>
</a>
</g>
</g>
<!-- Node8&#45;&gt;Node10 -->
<g id="edge9" class="edge">
<title>Node8&#45;&gt;Node10</title>
<path fill="none" stroke="midnightblue" d="M605.5,-113.11C605.5,-104.15 605.5,-94.32 605.5,-86.58"/>
<polygon fill="midnightblue" stroke="midnightblue" points="602,-113.4 605.5,-123.4 609,-113.4 602,-113.4"/>
</g>
<!-- Node12 -->
<g id="node12" class="node">
<title>Node12</title>
<g id="a_node12"><a xlink:href="source_2pdes_2serial_2linear__elasticity_8cc.html" target="_top" xlink:title=" ">
<polygon fill="none" stroke="black" points="686.5,-56.5 686.5,-86.5 796.5,-86.5 796.5,-56.5 686.5,-56.5"/>
<text text-anchor="start" x="694.5" y="-74.5" font-family="Helvetica,sans-Serif" font-size="10.00">source/pdes/serial</text>
<text text-anchor="middle" x="741.5" y="-63.5" font-family="Helvetica,sans-Serif" font-size="10.00">/linear_elasticity.cc</text>
</a>
</g>
</g>
<!-- Node11&#45;&gt;Node12 -->
<g id="edge11" class="edge">
<title>Node11&#45;&gt;Node12</title>
<path fill="none" stroke="midnightblue" d="M829.66,-118.71C810.11,-108.46 786.3,-95.98 768.35,-86.58"/>
<polygon fill="midnightblue" stroke="midnightblue" points="828.11,-121.85 838.59,-123.4 831.36,-115.65 828.11,-121.85"/>
</g>
<!-- Node13 -->
<g id="node13" class="node">
<title>Node13</title>
<g id="a_node13"><a xlink:href="apps_2serial_2linear__elasticity_8cc.html" target="_top" xlink:title=" ">
<polygon fill="none" stroke="black" points="815,-56.5 815,-86.5 916,-86.5 916,-56.5 815,-56.5"/>
<text text-anchor="start" x="823" y="-74.5" font-family="Helvetica,sans-Serif" font-size="10.00">apps/serial/linear</text>
<text text-anchor="middle" x="865.5" y="-63.5" font-family="Helvetica,sans-Serif" font-size="10.00">_elasticity.cc</text>
</a>
</g>
</g>
<!-- Node11&#45;&gt;Node13 -->
<g id="edge12" class="edge">
<title>Node11&#45;&gt;Node13</title>
<path fill="none" stroke="midnightblue" d="M865.5,-113.11C865.5,-104.15 865.5,-94.32 865.5,-86.58"/>
<polygon fill="midnightblue" stroke="midnightblue" points="862,-113.4 865.5,-123.4 869,-113.4 862,-113.4"/>
</g>
<!-- Node15 -->
<g id="node15" class="node">
<title>Node15</title>
<g id="a_node15"><a xlink:href="source_2pdes_2serial_2poisson_8cc.html" target="_top" xlink:title=" ">
<polygon fill="none" stroke="black" points="934,-56.5 934,-86.5 1039,-86.5 1039,-56.5 934,-56.5"/>
<text text-anchor="start" x="942" y="-74.5" font-family="Helvetica,sans-Serif" font-size="10.00">source/pdes/serial</text>
<text text-anchor="middle" x="986.5" y="-63.5" font-family="Helvetica,sans-Serif" font-size="10.00">/poisson.cc</text>
</a>
</g>
</g>
<!-- Node14&#45;&gt;Node15 -->
<g id="edge14" class="edge">
<title>Node14&#45;&gt;Node15</title>
<path fill="none" stroke="midnightblue" d="M1081.63,-118.99C1060.55,-108.69 1034.72,-96.07 1015.3,-86.58"/>
<polygon fill="midnightblue" stroke="midnightblue" points="1080.12,-122.15 1090.64,-123.4 1083.19,-115.86 1080.12,-122.15"/>
</g>
<!-- Node16 -->
<g id="node16" class="node">
<title>Node16</title>
<g id="a_node16"><a xlink:href="apps_2serial_2poisson_8cc.html" target="_top" xlink:title=" ">
<polygon fill="none" stroke="black" points="1057.5,-62 1057.5,-81 1181.5,-81 1181.5,-62 1057.5,-62"/>
<text text-anchor="middle" x="1119.5" y="-69" font-family="Helvetica,sans-Serif" font-size="10.00">apps/serial/poisson.cc</text>
</a>
</g>
</g>
<!-- Node14&#45;&gt;Node16 -->
<g id="edge15" class="edge">
<title>Node14&#45;&gt;Node16</title>
<path fill="none" stroke="midnightblue" d="M1119.5,-113.25C1119.5,-102.02 1119.5,-89.38 1119.5,-81.19"/>
<polygon fill="midnightblue" stroke="midnightblue" points="1116,-113.4 1119.5,-123.4 1123,-113.4 1116,-113.4"/>
</g>
<!-- Node18 -->
<g id="node18" class="node">
<title>Node18</title>
<g id="a_node18"><a xlink:href="source_2pdes_2serial_2reduced__lagrange_8cc.html" target="_top" xlink:title=" ">
<polygon fill="none" stroke="black" points="1199.5,-56.5 1199.5,-86.5 1319.5,-86.5 1319.5,-56.5 1199.5,-56.5"/>
<text text-anchor="start" x="1207.5" y="-74.5" font-family="Helvetica,sans-Serif" font-size="10.00">source/pdes/serial</text>
<text text-anchor="middle" x="1259.5" y="-63.5" font-family="Helvetica,sans-Serif" font-size="10.00">/reduced_lagrange.cc</text>
</a>
</g>
</g>
<!-- Node17&#45;&gt;Node18 -->
<g id="edge17" class="edge">
<title>Node17&#45;&gt;Node18</title>
<path fill="none" stroke="midnightblue" d="M1256.35,-113.4C1257.05,-104.37 1257.81,-94.41 1258.42,-86.58"/>
<polygon fill="midnightblue" stroke="midnightblue" points="1252.86,-113.16 1255.58,-123.4 1259.84,-113.69 1252.86,-113.16"/>
</g>
<!-- Node19 -->
<g id="node19" class="node">
<title>Node19</title>
<g id="a_node19"><a xlink:href="apps_2serial_2reduced__lagrange_8cc.html" target="_top" xlink:title=" ">
<polygon fill="none" stroke="black" points="1337.5,-56.5 1337.5,-86.5 1449.5,-86.5 1449.5,-56.5 1337.5,-56.5"/>
<text text-anchor="start" x="1345.5" y="-74.5" font-family="Helvetica,sans-Serif" font-size="10.00">apps/serial/reduced</text>
<text text-anchor="middle" x="1393.5" y="-63.5" font-family="Helvetica,sans-Serif" font-size="10.00">_lagrange.cc</text>
</a>
</g>
</g>
<!-- Node17&#45;&gt;Node19 -->
<g id="edge18" class="edge">
<title>Node17&#45;&gt;Node19</title>
<path fill="none" stroke="midnightblue" d="M1293.78,-119.13C1315.87,-108.8 1343.01,-96.11 1363.4,-86.58"/>
<polygon fill="midnightblue" stroke="midnightblue" points="1292.24,-115.99 1284.66,-123.4 1295.2,-122.33 1292.24,-115.99"/>
</g>
<!-- Node21 -->
<g id="node21" class="node">
<title>Node21</title>
<g id="a_node21"><a xlink:href="source_2pdes_2serial_2stokes_8cc.html" target="_top" xlink:title=" ">
<polygon fill="none" stroke="black" points="1468,-56.5 1468,-86.5 1573,-86.5 1573,-56.5 1468,-56.5"/>
<text text-anchor="start" x="1476" y="-74.5" font-family="Helvetica,sans-Serif" font-size="10.00">source/pdes/serial</text>
<text text-anchor="middle" x="1520.5" y="-63.5" font-family="Helvetica,sans-Serif" font-size="10.00">/stokes.cc</text>
</a>
</g>
</g>
<!-- Node20&#45;&gt;Node21 -->
<g id="edge20" class="edge">
<title>Node20&#45;&gt;Node21</title>
<path fill="none" stroke="midnightblue" d="M1423.22,-118.99C1444.78,-108.69 1471.19,-96.07 1491.05,-86.58"/>
<polygon fill="midnightblue" stroke="midnightblue" points="1421.52,-115.93 1414.01,-123.4 1424.54,-122.24 1421.52,-115.93"/>
</g>
<!-- Node22 -->
<g id="node22" class="node">
<title>Node22</title>
<g id="a_node22"><a xlink:href="apps_2serial_2stokes_8cc.html" target="_top" xlink:title=" ">
<polygon fill="none" stroke="black" points="1591.5,-62 1591.5,-81 1709.5,-81 1709.5,-62 1591.5,-62"/>
<text text-anchor="middle" x="1650.5" y="-69" font-family="Helvetica,sans-Serif" font-size="10.00">apps/serial/stokes.cc</text>
</a>
</g>
</g>
<!-- Node20&#45;&gt;Node22 -->
<g id="edge21" class="edge">
<title>Node20&#45;&gt;Node22</title>
<path fill="none" stroke="midnightblue" d="M1448.52,-121.85C1500.94,-109.05 1573.12,-91.41 1615.49,-81.06"/>
<polygon fill="midnightblue" stroke="midnightblue" points="1447.53,-118.49 1438.65,-124.27 1449.19,-125.29 1447.53,-118.49"/>
</g>
</g>
</svg>
