<?xml version="1.0" encoding="UTF-8" standalone="no"?>
<!DOCTYPE svg PUBLIC "-//W3C//DTD SVG 1.1//EN"
 "http://www.w3.org/Graphics/SVG/1.1/DTD/svg11.dtd">
<!-- Generated by graphviz version 2.43.0 (0)
 -->
<!-- Title: include/compute_intersections.h Pages: 1 -->
<svg width="1269pt" height="218pt"
 viewBox="0.00 0.00 1269.00 218.00" xmlns="http://www.w3.org/2000/svg" xmlns:xlink="http://www.w3.org/1999/xlink">
<g id="graph0" class="graph" transform="scale(1 1) rotate(0) translate(4 214)">
<title>include/compute_intersections.h</title>
<!-- Node1 -->
<g id="node1" class="node">
<title>Node1</title>
<g id="a_node1"><a xlink:title=" ">
<polygon fill="#bfbfbf" stroke="black" points="682,-190.5 682,-209.5 857,-209.5 857,-190.5 682,-190.5"/>
<text text-anchor="middle" x="769.5" y="-197.5" font-family="Helvetica,sans-Serif" font-size="10.00">include/compute_intersections.h</text>
</a>
</g>
</g>
<!-- Node2 -->
<g id="node2" class="node">
<title>Node2</title>
<g id="a_node2"><a xlink:href="http://www.dealii.org/developer/doxygen/deal.II/config_8h.html.html" xlink:title=" ">
<polygon fill="none" stroke="black" points="0,-129 0,-148 115,-148 115,-129 0,-129"/>
<text text-anchor="middle" x="57.5" y="-136" font-family="Helvetica,sans-Serif" font-size="10.00">deal.II/base/config.h</text>
</a>
</g>
</g>
<!-- Node1&#45;&gt;Node2 -->
<g id="edge1" class="edge">
<title>Node1&#45;&gt;Node2</title>
<path fill="none" stroke="midnightblue" d="M681.97,-196.87C557.53,-192.94 322.59,-182.2 124.5,-154 117.29,-152.97 109.7,-151.61 102.32,-150.13"/>
<polygon fill="midnightblue" stroke="midnightblue" points="102.96,-146.68 92.45,-148.06 101.52,-153.54 102.96,-146.68"/>
</g>
<!-- Node3 -->
<g id="node3" class="node">
<title>Node3</title>
<g id="a_node3"><a xlink:href="http://www.dealii.org/developer/doxygen/deal.II/function__lib_8h.html.html" xlink:title=" ">
<polygon fill="none" stroke="black" points="133.5,-123.5 133.5,-153.5 249.5,-153.5 249.5,-123.5 133.5,-123.5"/>
<text text-anchor="start" x="141.5" y="-141.5" font-family="Helvetica,sans-Serif" font-size="10.00">deal.II/base/function</text>
<text text-anchor="middle" x="191.5" y="-130.5" font-family="Helvetica,sans-Serif" font-size="10.00">_lib.h</text>
</a>
</g>
</g>
<!-- Node1&#45;&gt;Node3 -->
<g id="edge2" class="edge">
<title>Node1&#45;&gt;Node3</title>
<path fill="none" stroke="midnightblue" d="M681.85,-194.63C581.95,-188.89 413.63,-176.93 259.64,-154.05"/>
<polygon fill="midnightblue" stroke="midnightblue" points="259.93,-150.55 249.52,-152.52 258.89,-157.47 259.93,-150.55"/>
</g>
<!-- Node7 -->
<g id="node7" class="node">
<title>Node7</title>
<g id="a_node7"><a xlink:href="http://www.dealii.org/developer/doxygen/deal.II/include_2deal_8II_2base_2quadrature_8h.html.html" xlink:title=" ">
<polygon fill="none" stroke="black" points="267.5,-129 267.5,-148 405.5,-148 405.5,-129 267.5,-129"/>
<text text-anchor="middle" x="336.5" y="-136" font-family="Helvetica,sans-Serif" font-size="10.00">deal.II/base/quadrature.h</text>
</a>
</g>
</g>
<!-- Node1&#45;&gt;Node7 -->
<g id="edge6" class="edge">
<title>Node1&#45;&gt;Node7</title>
<path fill="none" stroke="midnightblue" d="M692.1,-190.49C620.07,-182.27 509.79,-168.88 414.5,-154 406.57,-152.76 398.2,-151.33 390.01,-149.87"/>
<polygon fill="midnightblue" stroke="midnightblue" points="390.62,-146.42 380.15,-148.07 389.36,-153.31 390.62,-146.42"/>
</g>
<!-- Node8 -->
<g id="node8" class="node">
<title>Node8</title>
<g id="a_node8"><a xlink:href="http://www.dealii.org/developer/doxygen/deal.II/mapping_8h.html.html" xlink:title=" ">
<polygon fill="none" stroke="black" points="423.5,-129 423.5,-148 537.5,-148 537.5,-129 423.5,-129"/>
<text text-anchor="middle" x="480.5" y="-136" font-family="Helvetica,sans-Serif" font-size="10.00">deal.II/fe/mapping.h</text>
</a>
</g>
</g>
<!-- Node1&#45;&gt;Node8 -->
<g id="edge7" class="edge">
<title>Node1&#45;&gt;Node8</title>
<path fill="none" stroke="midnightblue" d="M726.49,-190.46C681.74,-181.53 609.66,-167.03 547.5,-154 541.68,-152.78 535.58,-151.48 529.53,-150.19"/>
<polygon fill="midnightblue" stroke="midnightblue" points="529.97,-146.7 519.45,-148.02 528.49,-153.55 529.97,-146.7"/>
</g>
<!-- Node9 -->
<g id="node9" class="node">
<title>Node9</title>
<g id="a_node9"><a xlink:href="http://www.dealii.org/developer/doxygen/deal.II/mapping__q1_8h.html.html" xlink:title=" ">
<polygon fill="none" stroke="black" points="556,-129 556,-148 687,-148 687,-129 556,-129"/>
<text text-anchor="middle" x="621.5" y="-136" font-family="Helvetica,sans-Serif" font-size="10.00">deal.II/fe/mapping_q1.h</text>
</a>
</g>
</g>
<!-- Node1&#45;&gt;Node9 -->
<g id="edge8" class="edge">
<title>Node1&#45;&gt;Node9</title>
<path fill="none" stroke="midnightblue" d="M748.3,-190.48C723.13,-180.36 680.96,-163.4 652.22,-151.85"/>
<polygon fill="midnightblue" stroke="midnightblue" points="653.25,-148.49 642.67,-148.01 650.64,-154.99 653.25,-148.49"/>
</g>
<!-- Node10 -->
<g id="node10" class="node">
<title>Node10</title>
<g id="a_node10"><a xlink:href="http://www.dealii.org/developer/doxygen/deal.II/grid__tools_8h.html.html" xlink:title=" ">
<polygon fill="none" stroke="black" points="705.5,-129 705.5,-148 833.5,-148 833.5,-129 705.5,-129"/>
<text text-anchor="middle" x="769.5" y="-136" font-family="Helvetica,sans-Serif" font-size="10.00">deal.II/grid/grid_tools.h</text>
</a>
</g>
</g>
<!-- Node1&#45;&gt;Node10 -->
<g id="edge9" class="edge">
<title>Node1&#45;&gt;Node10</title>
<path fill="none" stroke="midnightblue" d="M769.5,-190.48C769.5,-182.08 769.5,-168.98 769.5,-158.16"/>
<polygon fill="midnightblue" stroke="midnightblue" points="773,-158.01 769.5,-148.01 766,-158.01 773,-158.01"/>
</g>
<!-- Node11 -->
<g id="node11" class="node">
<title>Node11</title>
<g id="a_node11"><a xlink:href="http://www.dealii.org/developer/doxygen/deal.II/grid__tools__cache_8h.html.html" xlink:title=" ">
<polygon fill="none" stroke="black" points="852,-123.5 852,-153.5 971,-153.5 971,-123.5 852,-123.5"/>
<text text-anchor="start" x="860" y="-141.5" font-family="Helvetica,sans-Serif" font-size="10.00">deal.II/grid/grid_tools</text>
<text text-anchor="middle" x="911.5" y="-130.5" font-family="Helvetica,sans-Serif" font-size="10.00">_cache.h</text>
</a>
</g>
</g>
<!-- Node1&#45;&gt;Node11 -->
<g id="edge10" class="edge">
<title>Node1&#45;&gt;Node11</title>
<path fill="none" stroke="midnightblue" d="M789.85,-190.48C810.34,-181.89 842.57,-168.38 868.71,-157.43"/>
<polygon fill="midnightblue" stroke="midnightblue" points="870.16,-160.62 878.03,-153.52 867.46,-154.16 870.16,-160.62"/>
</g>
<!-- Node12 -->
<g id="node12" class="node">
<title>Node12</title>
<g id="a_node12"><a xlink:href="http://www.dealii.org/developer/doxygen/deal.II/grid_2tria_8h.html.html" xlink:title=" ">
<polygon fill="none" stroke="black" points="989,-129 989,-148 1086,-148 1086,-129 989,-129"/>
<text text-anchor="middle" x="1037.5" y="-136" font-family="Helvetica,sans-Serif" font-size="10.00">deal.II/grid/tria.h</text>
</a>
</g>
</g>
<!-- Node1&#45;&gt;Node12 -->
<g id="edge11" class="edge">
<title>Node1&#45;&gt;Node12</title>
<path fill="none" stroke="midnightblue" d="M812.04,-190.43C854.73,-181.72 922.33,-167.6 980.5,-154 985.22,-152.9 990.16,-151.7 995.06,-150.49"/>
<polygon fill="midnightblue" stroke="midnightblue" points="996.15,-153.83 1005,-148 994.45,-147.04 996.15,-153.83"/>
</g>
<!-- Node13 -->
<g id="node13" class="node">
<title>Node13</title>
<g id="a_node13"><a xlink:title=" ">
<polygon fill="none" stroke="#bfbfbf" points="1104.5,-129 1104.5,-148 1136.5,-148 1136.5,-129 1104.5,-129"/>
<text text-anchor="middle" x="1120.5" y="-136" font-family="Helvetica,sans-Serif" font-size="10.00">set</text>
</a>
</g>
</g>
<!-- Node1&#45;&gt;Node13 -->
<g id="edge12" class="edge">
<title>Node1&#45;&gt;Node13</title>
<path fill="none" stroke="midnightblue" d="M857.08,-196.09C923.95,-191.7 1017.57,-180.81 1095.5,-154 1096.57,-153.63 1097.64,-153.22 1098.71,-152.77"/>
<polygon fill="midnightblue" stroke="midnightblue" points="1100.67,-155.7 1107.98,-148.03 1097.49,-149.46 1100.67,-155.7"/>
</g>
<!-- Node14 -->
<g id="node14" class="node">
<title>Node14</title>
<g id="a_node14"><a xlink:title=" ">
<polygon fill="none" stroke="#bfbfbf" points="1155,-129 1155,-148 1196,-148 1196,-129 1155,-129"/>
<text text-anchor="middle" x="1175.5" y="-136" font-family="Helvetica,sans-Serif" font-size="10.00">tuple</text>
</a>
</g>
</g>
<!-- Node1&#45;&gt;Node14 -->
<g id="edge13" class="edge">
<title>Node1&#45;&gt;Node14</title>
<path fill="none" stroke="midnightblue" d="M857.38,-196.67C934.64,-192.7 1049.43,-182.11 1145.5,-154 1147.37,-153.45 1149.27,-152.8 1151.16,-152.07"/>
<polygon fill="midnightblue" stroke="midnightblue" points="1152.58,-155.27 1160.32,-148.04 1149.76,-148.87 1152.58,-155.27"/>
</g>
<!-- Node15 -->
<g id="node15" class="node">
<title>Node15</title>
<g id="a_node15"><a xlink:title=" ">
<polygon fill="none" stroke="#bfbfbf" points="1214,-129 1214,-148 1261,-148 1261,-129 1214,-129"/>
<text text-anchor="middle" x="1237.5" y="-136" font-family="Helvetica,sans-Serif" font-size="10.00">vector</text>
</a>
</g>
</g>
<!-- Node1&#45;&gt;Node15 -->
<g id="edge14" class="edge">
<title>Node1&#45;&gt;Node15</title>
<path fill="none" stroke="midnightblue" d="M857.04,-198.2C946.16,-195.48 1087.6,-185.89 1205.5,-154 1207.65,-153.42 1209.84,-152.71 1212.02,-151.91"/>
<polygon fill="midnightblue" stroke="midnightblue" points="1213.37,-155.14 1221.27,-148.08 1210.69,-148.67 1213.37,-155.14"/>
</g>
<!-- Node4 -->
<g id="node4" class="node">
<title>Node4</title>
<g id="a_node4"><a xlink:href="function_8h.html" target="_top" xlink:title=" ">
<polygon fill="none" stroke="black" points="129,-67.5 129,-86.5 254,-86.5 254,-67.5 129,-67.5"/>
<text text-anchor="middle" x="191.5" y="-74.5" font-family="Helvetica,sans-Serif" font-size="10.00">deal.II/base/function.h</text>
</a>
</g>
</g>
<!-- Node3&#45;&gt;Node4 -->
<g id="edge3" class="edge">
<title>Node3&#45;&gt;Node4</title>
<path fill="none" stroke="midnightblue" d="M191.5,-123.4C191.5,-115.47 191.5,-105.46 191.5,-96.86"/>
<polygon fill="midnightblue" stroke="midnightblue" points="195,-96.66 191.5,-86.66 188,-96.66 195,-96.66"/>
</g>
<!-- Node5 -->
<g id="node5" class="node">
<title>Node5</title>
<g id="a_node5"><a xlink:href="http://www.dealii.org/developer/doxygen/deal.II/function__parser_8h.html.html" xlink:title=" ">
<polygon fill="none" stroke="black" points="63.5,-0.5 63.5,-30.5 179.5,-30.5 179.5,-0.5 63.5,-0.5"/>
<text text-anchor="start" x="71.5" y="-18.5" font-family="Helvetica,sans-Serif" font-size="10.00">deal.II/base/function</text>
<text text-anchor="middle" x="121.5" y="-7.5" font-family="Helvetica,sans-Serif" font-size="10.00">_parser.h</text>
</a>
</g>
</g>
<!-- Node4&#45;&gt;Node5 -->
<g id="edge4" class="edge">
<title>Node4&#45;&gt;Node5</title>
<path fill="none" stroke="midnightblue" d="M181.47,-67.48C172.17,-59.57 157.95,-47.48 145.7,-37.07"/>
<polygon fill="midnightblue" stroke="midnightblue" points="147.88,-34.33 138,-30.52 143.35,-39.67 147.88,-34.33"/>
</g>
<!-- Node6 -->
<g id="node6" class="node">
<title>Node6</title>
<g id="a_node6"><a xlink:href="http://www.dealii.org/developer/doxygen/deal.II/parameter__acceptor_8h.html.html" xlink:title=" ">
<polygon fill="none" stroke="black" points="198,-0.5 198,-30.5 325,-30.5 325,-0.5 198,-0.5"/>
<text text-anchor="start" x="206" y="-18.5" font-family="Helvetica,sans-Serif" font-size="10.00">deal.II/base/parameter</text>
<text text-anchor="middle" x="261.5" y="-7.5" font-family="Helvetica,sans-Serif" font-size="10.00">_acceptor.h</text>
</a>
</g>
</g>
<!-- Node4&#45;&gt;Node6 -->
<g id="edge5" class="edge">
<title>Node4&#45;&gt;Node6</title>
<path fill="none" stroke="midnightblue" d="M201.53,-67.48C210.83,-59.57 225.05,-47.48 237.3,-37.07"/>
<polygon fill="midnightblue" stroke="midnightblue" points="239.65,-39.67 245,-30.52 235.12,-34.33 239.65,-39.67"/>
</g>
</g>
</svg>
