<?xml version="1.0" encoding="UTF-8" standalone="no"?>
<!DOCTYPE svg PUBLIC "-//W3C//DTD SVG 1.1//EN"
 "http://www.w3.org/Graphics/SVG/1.1/DTD/svg11.dtd">
<!-- Generated by graphviz version 2.43.0 (0)
 -->
<!-- Title: include/parsed_tools/components.h Pages: 1 -->
<svg width="1667pt" height="307pt"
 viewBox="0.00 0.00 1666.80 307.00" xmlns="http://www.w3.org/2000/svg" xmlns:xlink="http://www.w3.org/1999/xlink">
<g id="graph0" class="graph" transform="scale(1 1) rotate(0) translate(4 303)">
<title>include/parsed_tools/components.h</title>
<!-- Node1 -->
<g id="node1" class="node">
<title>Node1</title>
<g id="a_node1"><a xlink:title=" ">
<polygon fill="#bfbfbf" stroke="black" points="800.3,-268.5 800.3,-298.5 917.3,-298.5 917.3,-268.5 800.3,-268.5"/>
<text text-anchor="start" x="808.3" y="-286.5" font-family="Helvetica,sans-Serif" font-size="10.00">include/parsed_tools</text>
<text text-anchor="middle" x="858.8" y="-275.5" font-family="Helvetica,sans-Serif" font-size="10.00">/components.h</text>
</a>
</g>
</g>
<!-- Node2 -->
<g id="node2" class="node">
<title>Node2</title>
<g id="a_node2"><a xlink:href="boundary__conditions_8h.html" target="_top" xlink:title=" ">
<polygon fill="none" stroke="black" points="747.8,-201.5 747.8,-231.5 877.8,-231.5 877.8,-201.5 747.8,-201.5"/>
<text text-anchor="start" x="755.8" y="-219.5" font-family="Helvetica,sans-Serif" font-size="10.00">include/parsed_tools</text>
<text text-anchor="middle" x="812.8" y="-208.5" font-family="Helvetica,sans-Serif" font-size="10.00">/boundary_conditions.h</text>
</a>
</g>
</g>
<!-- Node1&#45;&gt;Node2 -->
<g id="edge1" class="edge">
<title>Node1&#45;&gt;Node2</title>
<path fill="none" stroke="midnightblue" d="M842.99,-260.16C836.28,-250.68 828.66,-239.92 822.76,-231.58"/>
<polygon fill="midnightblue" stroke="midnightblue" points="840.18,-262.26 848.82,-268.4 845.9,-258.21 840.18,-262.26"/>
</g>
<!-- Node5 -->
<g id="node5" class="node">
<title>Node5</title>
<g id="a_node5"><a xlink:href="source_2pdes_2linear__elasticity_8cc.html" target="_top" xlink:title=" ">
<polygon fill="none" stroke="black" points="554.8,-0.5 554.8,-30.5 660.8,-30.5 660.8,-0.5 554.8,-0.5"/>
<text text-anchor="start" x="562.8" y="-18.5" font-family="Helvetica,sans-Serif" font-size="10.00">source/pdes/linear</text>
<text text-anchor="middle" x="607.8" y="-7.5" font-family="Helvetica,sans-Serif" font-size="10.00">_elasticity.cc</text>
</a>
</g>
</g>
<!-- Node1&#45;&gt;Node5 -->
<g id="edge29" class="edge">
<title>Node1&#45;&gt;Node5</title>
<path fill="none" stroke="midnightblue" d="M789.86,-279.36C604.12,-269.16 101.71,-229.66 19.8,-98 12.52,-86.3 10.4,-77.07 19.8,-67 59.78,-24.19 487.87,-39.7 545.8,-31 548.64,-30.57 551.55,-30.08 554.47,-29.55"/>
<polygon fill="midnightblue" stroke="midnightblue" points="789.88,-282.86 800.05,-279.9 790.25,-275.87 789.88,-282.86"/>
</g>
<!-- Node12 -->
<g id="node12" class="node">
<title>Node12</title>
<g id="a_node12"><a xlink:href="source_2pdes_2stokes_8cc.html" target="_top" xlink:title=" ">
<polygon fill="none" stroke="black" points="93.3,-6 93.3,-25 216.3,-25 216.3,-6 93.3,-6"/>
<text text-anchor="middle" x="154.8" y="-13" font-family="Helvetica,sans-Serif" font-size="10.00">source/pdes/stokes.cc</text>
</a>
</g>
</g>
<!-- Node1&#45;&gt;Node12 -->
<g id="edge30" class="edge">
<title>Node1&#45;&gt;Node12</title>
<path fill="none" stroke="midnightblue" d="M789.91,-279.81C647.61,-273.79 325.63,-257.75 218.8,-232 143.45,-213.84 118.46,-213.23 57.8,-165 19.84,-134.82 -18.29,-106.53 9.8,-67 28.71,-40.38 62.73,-27.68 93.06,-21.66"/>
<polygon fill="midnightblue" stroke="midnightblue" points="790.11,-283.32 800.24,-280.24 790.4,-276.32 790.11,-283.32"/>
</g>
<!-- Node27 -->
<g id="node27" class="node">
<title>Node27</title>
<g id="a_node27"><a xlink:href="boundary__conditions_8cc.html" target="_top" xlink:title=" ">
<polygon fill="none" stroke="black" points="1307.3,-140 1307.3,-159 1474.3,-159 1474.3,-140 1307.3,-140"/>
<text text-anchor="middle" x="1390.8" y="-147" font-family="Helvetica,sans-Serif" font-size="10.00">source/boundary_conditions.cc</text>
</a>
</g>
</g>
<!-- Node1&#45;&gt;Node27 -->
<g id="edge27" class="edge">
<title>Node1&#45;&gt;Node27</title>
<path fill="none" stroke="midnightblue" d="M870.8,-259.6C882.19,-240.41 901.21,-214.1 925.8,-201 999.1,-161.94 1215.4,-175.4 1297.8,-165 1311.42,-163.28 1326.11,-161.13 1339.71,-159.01"/>
<polygon fill="midnightblue" stroke="midnightblue" points="867.72,-257.94 865.83,-268.36 873.81,-261.39 867.72,-257.94"/>
</g>
<!-- Node28 -->
<g id="node28" class="node">
<title>Node28</title>
<g id="a_node28"><a xlink:href="components_8cc.html" target="_top" xlink:title=" ">
<polygon fill="none" stroke="black" points="934.3,-207 934.3,-226 1059.3,-226 1059.3,-207 934.3,-207"/>
<text text-anchor="middle" x="996.8" y="-214" font-family="Helvetica,sans-Serif" font-size="10.00">source/components.cc</text>
</a>
</g>
</g>
<!-- Node1&#45;&gt;Node28 -->
<g id="edge28" class="edge">
<title>Node1&#45;&gt;Node28</title>
<path fill="none" stroke="midnightblue" d="M897.8,-264.13C924.36,-251.62 958.29,-235.64 978.74,-226.01"/>
<polygon fill="midnightblue" stroke="midnightblue" points="896.3,-260.97 888.74,-268.4 899.28,-267.3 896.3,-260.97"/>
</g>
<!-- Node29 -->
<g id="node29" class="node">
<title>Node29</title>
<g id="a_node29"><a xlink:href="dof__plotter_8cc.html" target="_top" xlink:title="Degrees of freedom plotter.">
<polygon fill="none" stroke="black" points="1077.8,-207 1077.8,-226 1187.8,-226 1187.8,-207 1077.8,-207"/>
<text text-anchor="middle" x="1132.8" y="-214" font-family="Helvetica,sans-Serif" font-size="10.00">apps/dof_plotter.cc</text>
</a>
</g>
</g>
<!-- Node1&#45;&gt;Node29 -->
<g id="edge31" class="edge">
<title>Node1&#45;&gt;Node29</title>
<path fill="none" stroke="midnightblue" d="M927.39,-266.23C981.15,-253.48 1053.82,-236.24 1096.76,-226.05"/>
<polygon fill="midnightblue" stroke="midnightblue" points="926.5,-262.84 917.58,-268.56 928.12,-269.65 926.5,-262.84"/>
</g>
<!-- Node3 -->
<g id="node3" class="node">
<title>Node3</title>
<g id="a_node3"><a xlink:href="linear__problem_8h.html" target="_top" xlink:title=" ">
<polygon fill="none" stroke="black" points="758.3,-134.5 758.3,-164.5 867.3,-164.5 867.3,-134.5 758.3,-134.5"/>
<text text-anchor="start" x="766.3" y="-152.5" font-family="Helvetica,sans-Serif" font-size="10.00">include/pdes/linear</text>
<text text-anchor="middle" x="812.8" y="-141.5" font-family="Helvetica,sans-Serif" font-size="10.00">_problem.h</text>
</a>
</g>
</g>
<!-- Node2&#45;&gt;Node3 -->
<g id="edge2" class="edge">
<title>Node2&#45;&gt;Node3</title>
<path fill="none" stroke="midnightblue" d="M812.8,-191.11C812.8,-182.15 812.8,-172.32 812.8,-164.58"/>
<polygon fill="midnightblue" stroke="midnightblue" points="809.3,-191.4 812.8,-201.4 816.3,-191.4 809.3,-191.4"/>
</g>
<!-- Node15 -->
<g id="node15" class="node">
<title>Node15</title>
<g id="a_node15"><a xlink:href="distributed__lagrange_8h.html" target="_top" xlink:title=" ">
<polygon fill="none" stroke="black" points="1033.3,-134.5 1033.3,-164.5 1162.3,-164.5 1162.3,-134.5 1033.3,-134.5"/>
<text text-anchor="start" x="1041.3" y="-152.5" font-family="Helvetica,sans-Serif" font-size="10.00">include/pdes/serial</text>
<text text-anchor="middle" x="1097.8" y="-141.5" font-family="Helvetica,sans-Serif" font-size="10.00">/distributed_lagrange.h</text>
</a>
</g>
</g>
<!-- Node2&#45;&gt;Node15 -->
<g id="edge14" class="edge">
<title>Node2&#45;&gt;Node15</title>
<path fill="none" stroke="midnightblue" d="M884.33,-199.19C931.01,-188.54 991.32,-174.78 1035.93,-164.61"/>
<polygon fill="midnightblue" stroke="midnightblue" points="883.26,-195.84 874.29,-201.48 884.82,-202.66 883.26,-195.84"/>
</g>
<!-- Node18 -->
<g id="node18" class="node">
<title>Node18</title>
<g id="a_node18"><a xlink:href="serial_2poisson_8h.html" target="_top" xlink:title=" ">
<polygon fill="none" stroke="black" points="1180.8,-134.5 1180.8,-164.5 1288.8,-164.5 1288.8,-134.5 1180.8,-134.5"/>
<text text-anchor="start" x="1188.8" y="-152.5" font-family="Helvetica,sans-Serif" font-size="10.00">include/pdes/serial</text>
<text text-anchor="middle" x="1234.8" y="-141.5" font-family="Helvetica,sans-Serif" font-size="10.00">/poisson.h</text>
</a>
</g>
</g>
<!-- Node2&#45;&gt;Node18 -->
<g id="edge17" class="edge">
<title>Node2&#45;&gt;Node18</title>
<path fill="none" stroke="midnightblue" d="M887.93,-201.61C889.23,-201.4 890.52,-201.2 891.8,-201 1015.77,-181.67 1048.29,-187.1 1171.8,-165 1174.67,-164.49 1177.61,-163.93 1180.57,-163.34"/>
<polygon fill="midnightblue" stroke="midnightblue" points="887.15,-198.19 877.85,-203.27 888.29,-205.1 887.15,-198.19"/>
</g>
<!-- Node21 -->
<g id="node21" class="node">
<title>Node21</title>
<g id="a_node21"><a xlink:href="reduced__lagrange_8h.html" target="_top" xlink:title=" ">
<polygon fill="none" stroke="black" points="164.8,-134.5 164.8,-164.5 280.8,-164.5 280.8,-134.5 164.8,-134.5"/>
<text text-anchor="start" x="172.8" y="-152.5" font-family="Helvetica,sans-Serif" font-size="10.00">include/pdes/serial</text>
<text text-anchor="middle" x="222.8" y="-141.5" font-family="Helvetica,sans-Serif" font-size="10.00">/reduced_lagrange.h</text>
</a>
</g>
</g>
<!-- Node2&#45;&gt;Node21 -->
<g id="edge20" class="edge">
<title>Node2&#45;&gt;Node21</title>
<path fill="none" stroke="midnightblue" d="M737.55,-207.21C618.37,-194.08 388.66,-168.77 281.07,-156.92"/>
<polygon fill="midnightblue" stroke="midnightblue" points="737.37,-210.71 747.69,-208.33 738.13,-203.75 737.37,-210.71"/>
</g>
<!-- Node24 -->
<g id="node24" class="node">
<title>Node24</title>
<g id="a_node24"><a xlink:href="serial_2stokes_8h.html" target="_top" xlink:title=" ">
<polygon fill="none" stroke="black" points="425.8,-134.5 425.8,-164.5 533.8,-164.5 533.8,-134.5 425.8,-134.5"/>
<text text-anchor="start" x="433.8" y="-152.5" font-family="Helvetica,sans-Serif" font-size="10.00">include/pdes/serial</text>
<text text-anchor="middle" x="479.8" y="-141.5" font-family="Helvetica,sans-Serif" font-size="10.00">/stokes.h</text>
</a>
</g>
</g>
<!-- Node2&#45;&gt;Node24 -->
<g id="edge23" class="edge">
<title>Node2&#45;&gt;Node24</title>
<path fill="none" stroke="midnightblue" d="M737.3,-200.76C675.41,-188.68 589.29,-171.87 534.04,-161.09"/>
<polygon fill="midnightblue" stroke="midnightblue" points="736.92,-204.25 747.41,-202.74 738.26,-197.38 736.92,-204.25"/>
</g>
<!-- Node2&#45;&gt;Node27 -->
<g id="edge26" class="edge">
<title>Node2&#45;&gt;Node27</title>
<path fill="none" stroke="midnightblue" d="M887.92,-201.54C889.22,-201.35 890.52,-201.17 891.8,-201 1071.3,-176.62 1117.98,-186.97 1297.8,-165 1311.59,-163.32 1326.47,-161.15 1340.2,-159.01"/>
<polygon fill="midnightblue" stroke="midnightblue" points="887.18,-198.11 877.82,-203.07 888.23,-205.03 887.18,-198.11"/>
</g>
<!-- Node4 -->
<g id="node4" class="node">
<title>Node4</title>
<g id="a_node4"><a xlink:href="linear__elasticity_8h.html" target="_top" xlink:title=" ">
<polygon fill="none" stroke="black" points="821.3,-67.5 821.3,-97.5 930.3,-97.5 930.3,-67.5 821.3,-67.5"/>
<text text-anchor="start" x="829.3" y="-85.5" font-family="Helvetica,sans-Serif" font-size="10.00">include/pdes/linear</text>
<text text-anchor="middle" x="875.8" y="-74.5" font-family="Helvetica,sans-Serif" font-size="10.00">_elasticity.h</text>
</a>
</g>
</g>
<!-- Node3&#45;&gt;Node4 -->
<g id="edge3" class="edge">
<title>Node3&#45;&gt;Node4</title>
<path fill="none" stroke="midnightblue" d="M833.61,-127.02C843,-117.34 853.82,-106.17 862.16,-97.58"/>
<polygon fill="midnightblue" stroke="midnightblue" points="830.92,-124.78 826.47,-134.4 835.94,-129.65 830.92,-124.78"/>
</g>
<!-- Node8 -->
<g id="node8" class="node">
<title>Node8</title>
<g id="a_node8"><a xlink:href="mpi_2poisson_8h.html" target="_top" xlink:title=" ">
<polygon fill="none" stroke="black" points="948.3,-73 948.3,-92 1097.3,-92 1097.3,-73 948.3,-73"/>
<text text-anchor="middle" x="1022.8" y="-80" font-family="Helvetica,sans-Serif" font-size="10.00">include/pdes/mpi/poisson.h</text>
</a>
</g>
</g>
<!-- Node3&#45;&gt;Node8 -->
<g id="edge7" class="edge">
<title>Node3&#45;&gt;Node8</title>
<path fill="none" stroke="midnightblue" d="M867.69,-131.51C908.67,-118.83 962.96,-102.02 995.25,-92.03"/>
<polygon fill="midnightblue" stroke="midnightblue" points="866.63,-128.18 858.11,-134.48 868.7,-134.86 866.63,-128.18"/>
</g>
<!-- Node11 -->
<g id="node11" class="node">
<title>Node11</title>
<g id="a_node11"><a xlink:href="stokes_8h.html" target="_top" xlink:title=" ">
<polygon fill="none" stroke="black" points="556.8,-73 556.8,-92 678.8,-92 678.8,-73 556.8,-73"/>
<text text-anchor="middle" x="617.8" y="-80" font-family="Helvetica,sans-Serif" font-size="10.00">include/pdes/stokes.h</text>
</a>
</g>
</g>
<!-- Node3&#45;&gt;Node11 -->
<g id="edge10" class="edge">
<title>Node3&#45;&gt;Node11</title>
<path fill="none" stroke="midnightblue" d="M760.62,-131.11C722.69,-118.46 672.98,-101.89 643.32,-92.01"/>
<polygon fill="midnightblue" stroke="midnightblue" points="759.89,-134.55 770.49,-134.4 762.11,-127.91 759.89,-134.55"/>
</g>
<!-- Node14 -->
<g id="node14" class="node">
<title>Node14</title>
<g id="a_node14"><a xlink:href="linear__problem_8cc.html" target="_top" xlink:title=" ">
<polygon fill="none" stroke="black" points="696.8,-67.5 696.8,-97.5 802.8,-97.5 802.8,-67.5 696.8,-67.5"/>
<text text-anchor="start" x="704.8" y="-85.5" font-family="Helvetica,sans-Serif" font-size="10.00">source/pdes/linear</text>
<text text-anchor="middle" x="749.8" y="-74.5" font-family="Helvetica,sans-Serif" font-size="10.00">_problem.cc</text>
</a>
</g>
</g>
<!-- Node3&#45;&gt;Node14 -->
<g id="edge13" class="edge">
<title>Node3&#45;&gt;Node14</title>
<path fill="none" stroke="midnightblue" d="M791.98,-127.02C782.6,-117.34 771.78,-106.17 763.44,-97.58"/>
<polygon fill="midnightblue" stroke="midnightblue" points="789.66,-129.65 799.13,-134.4 794.68,-124.78 789.66,-129.65"/>
</g>
<!-- Node4&#45;&gt;Node5 -->
<g id="edge4" class="edge">
<title>Node4&#45;&gt;Node5</title>
<path fill="none" stroke="midnightblue" d="M811.37,-65.87C765.33,-54.71 704.14,-39.87 660.91,-29.38"/>
<polygon fill="midnightblue" stroke="midnightblue" points="810.7,-69.31 821.24,-68.27 812.35,-62.51 810.7,-69.31"/>
</g>
<!-- Node6 -->
<g id="node6" class="node">
<title>Node6</title>
<g id="a_node6"><a xlink:href="apps_2mpi_2linear__elasticity_8cc.html" target="_top" xlink:title=" ">
<polygon fill="none" stroke="black" points="798.3,-6 798.3,-25 953.3,-25 953.3,-6 798.3,-6"/>
<text text-anchor="middle" x="875.8" y="-13" font-family="Helvetica,sans-Serif" font-size="10.00">apps/mpi/linear_elasticity.cc</text>
</a>
</g>
</g>
<!-- Node4&#45;&gt;Node6 -->
<g id="edge5" class="edge">
<title>Node4&#45;&gt;Node6</title>
<path fill="none" stroke="midnightblue" d="M875.8,-57.25C875.8,-46.02 875.8,-33.38 875.8,-25.19"/>
<polygon fill="midnightblue" stroke="midnightblue" points="872.3,-57.4 875.8,-67.4 879.3,-57.4 872.3,-57.4"/>
</g>
<!-- Node7 -->
<g id="node7" class="node">
<title>Node7</title>
<g id="a_node7"><a xlink:href="apps_2serial_2linear__elasticity_8cc.html" target="_top" xlink:title=" ">
<polygon fill="none" stroke="black" points="679.3,-0.5 679.3,-30.5 780.3,-30.5 780.3,-0.5 679.3,-0.5"/>
<text text-anchor="start" x="687.3" y="-18.5" font-family="Helvetica,sans-Serif" font-size="10.00">apps/serial/linear</text>
<text text-anchor="middle" x="729.8" y="-7.5" font-family="Helvetica,sans-Serif" font-size="10.00">_elasticity.cc</text>
</a>
</g>
</g>
<!-- Node4&#45;&gt;Node7 -->
<g id="edge6" class="edge">
<title>Node4&#45;&gt;Node7</title>
<path fill="none" stroke="midnightblue" d="M834.85,-63.27C811.59,-52.92 782.93,-40.15 761.42,-30.58"/>
<polygon fill="midnightblue" stroke="midnightblue" points="833.56,-66.53 844.12,-67.4 836.41,-60.13 833.56,-66.53"/>
</g>
<!-- Node9 -->
<g id="node9" class="node">
<title>Node9</title>
<g id="a_node9"><a xlink:href="source_2pdes_2mpi_2poisson_8cc.html" target="_top" xlink:title=" ">
<polygon fill="none" stroke="black" points="1106.3,-6 1106.3,-25 1257.3,-25 1257.3,-6 1106.3,-6"/>
<text text-anchor="middle" x="1181.8" y="-13" font-family="Helvetica,sans-Serif" font-size="10.00">source/pdes/mpi/poisson.cc</text>
</a>
</g>
</g>
<!-- Node8&#45;&gt;Node9 -->
<g id="edge8" class="edge">
<title>Node8&#45;&gt;Node9</title>
<path fill="none" stroke="midnightblue" d="M1053.53,-68.94C1085.11,-56.03 1133.42,-36.28 1160.85,-25.06"/>
<polygon fill="midnightblue" stroke="midnightblue" points="1051.85,-65.84 1043.91,-72.87 1054.49,-72.32 1051.85,-65.84"/>
</g>
<!-- Node10 -->
<g id="node10" class="node">
<title>Node10</title>
<g id="a_node10"><a xlink:href="apps_2mpi_2poisson_8cc.html" target="_top" xlink:title=" ">
<polygon fill="none" stroke="black" points="971.8,-6 971.8,-25 1087.8,-25 1087.8,-6 971.8,-6"/>
<text text-anchor="middle" x="1029.8" y="-13" font-family="Helvetica,sans-Serif" font-size="10.00">apps/mpi/poisson.cc</text>
</a>
</g>
</g>
<!-- Node8&#45;&gt;Node10 -->
<g id="edge9" class="edge">
<title>Node8&#45;&gt;Node10</title>
<path fill="none" stroke="midnightblue" d="M1024.84,-62.54C1026.17,-50.17 1027.85,-34.62 1028.87,-25.13"/>
<polygon fill="midnightblue" stroke="midnightblue" points="1021.33,-62.42 1023.74,-72.73 1028.29,-63.17 1021.33,-62.42"/>
</g>
<!-- Node11&#45;&gt;Node12 -->
<g id="edge11" class="edge">
<title>Node11&#45;&gt;Node12</title>
<path fill="none" stroke="midnightblue" d="M569.1,-70.91C561.97,-69.51 554.71,-68.16 547.8,-67 431.28,-47.47 294.21,-31.42 216.62,-22.96"/>
<polygon fill="midnightblue" stroke="midnightblue" points="568.89,-74.44 579.39,-72.99 570.28,-67.58 568.89,-74.44"/>
</g>
<!-- Node13 -->
<g id="node13" class="node">
<title>Node13</title>
<g id="a_node13"><a xlink:href="apps_2mpi_2stokes_8cc.html" target="_top" xlink:title=" ">
<polygon fill="none" stroke="black" points="426.8,-6 426.8,-25 536.8,-25 536.8,-6 426.8,-6"/>
<text text-anchor="middle" x="481.8" y="-13" font-family="Helvetica,sans-Serif" font-size="10.00">apps/mpi/stokes.cc</text>
</a>
</g>
</g>
<!-- Node11&#45;&gt;Node13 -->
<g id="edge12" class="edge">
<title>Node11&#45;&gt;Node13</title>
<path fill="none" stroke="midnightblue" d="M590.48,-68.44C563.54,-55.57 523.14,-36.26 499.93,-25.17"/>
<polygon fill="midnightblue" stroke="midnightblue" points="589.21,-71.71 599.74,-72.87 592.23,-65.4 589.21,-71.71"/>
</g>
<!-- Node16 -->
<g id="node16" class="node">
<title>Node16</title>
<g id="a_node16"><a xlink:href="source_2pdes_2serial_2distributed__lagrange_8cc.html" target="_top" xlink:title=" ">
<polygon fill="none" stroke="black" points="1115.8,-67.5 1115.8,-97.5 1249.8,-97.5 1249.8,-67.5 1115.8,-67.5"/>
<text text-anchor="start" x="1123.8" y="-85.5" font-family="Helvetica,sans-Serif" font-size="10.00">source/pdes/serial</text>
<text text-anchor="middle" x="1182.8" y="-74.5" font-family="Helvetica,sans-Serif" font-size="10.00">/distributed_lagrange.cc</text>
</a>
</g>
</g>
<!-- Node15&#45;&gt;Node16 -->
<g id="edge15" class="edge">
<title>Node15&#45;&gt;Node16</title>
<path fill="none" stroke="midnightblue" d="M1124.39,-128.17C1137.39,-118.23 1152.7,-106.51 1164.39,-97.58"/>
<polygon fill="midnightblue" stroke="midnightblue" points="1122.06,-125.54 1116.24,-134.4 1126.31,-131.1 1122.06,-125.54"/>
</g>
<!-- Node17 -->
<g id="node17" class="node">
<title>Node17</title>
<g id="a_node17"><a xlink:href="apps_2serial_2distributed__lagrange_8cc.html" target="_top" xlink:title=" ">
<polygon fill="none" stroke="black" points="1268.3,-67.5 1268.3,-97.5 1393.3,-97.5 1393.3,-67.5 1268.3,-67.5"/>
<text text-anchor="start" x="1276.3" y="-85.5" font-family="Helvetica,sans-Serif" font-size="10.00">apps/serial/distributed</text>
<text text-anchor="middle" x="1330.8" y="-74.5" font-family="Helvetica,sans-Serif" font-size="10.00">_lagrange.cc</text>
</a>
</g>
</g>
<!-- Node15&#45;&gt;Node17 -->
<g id="edge16" class="edge">
<title>Node15&#45;&gt;Node17</title>
<path fill="none" stroke="midnightblue" d="M1157.97,-131.71C1195.88,-121.14 1244.29,-107.63 1280.22,-97.61"/>
<polygon fill="midnightblue" stroke="midnightblue" points="1156.76,-128.42 1148.07,-134.48 1158.64,-135.16 1156.76,-128.42"/>
</g>
<!-- Node19 -->
<g id="node19" class="node">
<title>Node19</title>
<g id="a_node19"><a xlink:href="source_2pdes_2serial_2poisson_8cc.html" target="_top" xlink:title=" ">
<polygon fill="none" stroke="black" points="1411.3,-67.5 1411.3,-97.5 1516.3,-97.5 1516.3,-67.5 1411.3,-67.5"/>
<text text-anchor="start" x="1419.3" y="-85.5" font-family="Helvetica,sans-Serif" font-size="10.00">source/pdes/serial</text>
<text text-anchor="middle" x="1463.8" y="-74.5" font-family="Helvetica,sans-Serif" font-size="10.00">/poisson.cc</text>
</a>
</g>
</g>
<!-- Node18&#45;&gt;Node19 -->
<g id="edge18" class="edge">
<title>Node18&#45;&gt;Node19</title>
<path fill="none" stroke="midnightblue" d="M1293.93,-131.71C1331.2,-121.14 1378.77,-107.63 1414.09,-97.61"/>
<polygon fill="midnightblue" stroke="midnightblue" points="1292.87,-128.38 1284.21,-134.48 1294.78,-135.11 1292.87,-128.38"/>
</g>
<!-- Node20 -->
<g id="node20" class="node">
<title>Node20</title>
<g id="a_node20"><a xlink:href="apps_2serial_2poisson_8cc.html" target="_top" xlink:title=" ">
<polygon fill="none" stroke="black" points="1534.8,-73 1534.8,-92 1658.8,-92 1658.8,-73 1534.8,-73"/>
<text text-anchor="middle" x="1596.8" y="-80" font-family="Helvetica,sans-Serif" font-size="10.00">apps/serial/poisson.cc</text>
</a>
</g>
</g>
<!-- Node18&#45;&gt;Node20 -->
<g id="edge19" class="edge">
<title>Node18&#45;&gt;Node20</title>
<path fill="none" stroke="midnightblue" d="M1298.49,-134.06C1298.6,-134.04 1298.7,-134.02 1298.8,-134 1399.11,-114.7 1425.29,-116.22 1525.8,-98 1535.83,-96.18 1546.62,-94.06 1556.68,-92.01"/>
<polygon fill="midnightblue" stroke="midnightblue" points="1297.99,-130.59 1288.87,-135.99 1299.36,-137.45 1297.99,-130.59"/>
</g>
<!-- Node22 -->
<g id="node22" class="node">
<title>Node22</title>
<g id="a_node22"><a xlink:href="source_2pdes_2serial_2reduced__lagrange_8cc.html" target="_top" xlink:title=" ">
<polygon fill="none" stroke="black" points="28.8,-67.5 28.8,-97.5 148.8,-97.5 148.8,-67.5 28.8,-67.5"/>
<text text-anchor="start" x="36.8" y="-85.5" font-family="Helvetica,sans-Serif" font-size="10.00">source/pdes/serial</text>
<text text-anchor="middle" x="88.8" y="-74.5" font-family="Helvetica,sans-Serif" font-size="10.00">/reduced_lagrange.cc</text>
</a>
</g>
</g>
<!-- Node21&#45;&gt;Node22 -->
<g id="edge21" class="edge">
<title>Node21&#45;&gt;Node22</title>
<path fill="none" stroke="midnightblue" d="M184.64,-129.99C163.4,-119.69 137.39,-107.07 117.82,-97.58"/>
<polygon fill="midnightblue" stroke="midnightblue" points="183.2,-133.18 193.72,-134.4 186.25,-126.88 183.2,-133.18"/>
</g>
<!-- Node23 -->
<g id="node23" class="node">
<title>Node23</title>
<g id="a_node23"><a xlink:href="apps_2serial_2reduced__lagrange_8cc.html" target="_top" xlink:title=" ">
<polygon fill="none" stroke="black" points="166.8,-67.5 166.8,-97.5 278.8,-97.5 278.8,-67.5 166.8,-67.5"/>
<text text-anchor="start" x="174.8" y="-85.5" font-family="Helvetica,sans-Serif" font-size="10.00">apps/serial/reduced</text>
<text text-anchor="middle" x="222.8" y="-74.5" font-family="Helvetica,sans-Serif" font-size="10.00">_lagrange.cc</text>
</a>
</g>
</g>
<!-- Node21&#45;&gt;Node23 -->
<g id="edge22" class="edge">
<title>Node21&#45;&gt;Node23</title>
<path fill="none" stroke="midnightblue" d="M222.8,-124.11C222.8,-115.15 222.8,-105.32 222.8,-97.58"/>
<polygon fill="midnightblue" stroke="midnightblue" points="219.3,-124.4 222.8,-134.4 226.3,-124.4 219.3,-124.4"/>
</g>
<!-- Node25 -->
<g id="node25" class="node">
<title>Node25</title>
<g id="a_node25"><a xlink:href="source_2pdes_2serial_2stokes_8cc.html" target="_top" xlink:title=" ">
<polygon fill="none" stroke="black" points="297.3,-67.5 297.3,-97.5 402.3,-97.5 402.3,-67.5 297.3,-67.5"/>
<text text-anchor="start" x="305.3" y="-85.5" font-family="Helvetica,sans-Serif" font-size="10.00">source/pdes/serial</text>
<text text-anchor="middle" x="349.8" y="-74.5" font-family="Helvetica,sans-Serif" font-size="10.00">/stokes.cc</text>
</a>
</g>
</g>
<!-- Node24&#45;&gt;Node25 -->
<g id="edge24" class="edge">
<title>Node24&#45;&gt;Node25</title>
<path fill="none" stroke="midnightblue" d="M442.51,-129.85C421.95,-119.58 396.85,-107.03 377.95,-97.58"/>
<polygon fill="midnightblue" stroke="midnightblue" points="441.08,-133.05 451.59,-134.4 444.21,-126.79 441.08,-133.05"/>
</g>
<!-- Node26 -->
<g id="node26" class="node">
<title>Node26</title>
<g id="a_node26"><a xlink:href="apps_2serial_2stokes_8cc.html" target="_top" xlink:title=" ">
<polygon fill="none" stroke="black" points="420.8,-73 420.8,-92 538.8,-92 538.8,-73 420.8,-73"/>
<text text-anchor="middle" x="479.8" y="-80" font-family="Helvetica,sans-Serif" font-size="10.00">apps/serial/stokes.cc</text>
</a>
</g>
</g>
<!-- Node24&#45;&gt;Node26 -->
<g id="edge25" class="edge">
<title>Node24&#45;&gt;Node26</title>
<path fill="none" stroke="midnightblue" d="M479.8,-124.25C479.8,-113.02 479.8,-100.38 479.8,-92.19"/>
<polygon fill="midnightblue" stroke="midnightblue" points="476.3,-124.4 479.8,-134.4 483.3,-124.4 476.3,-124.4"/>
</g>
</g>
</svg>
