<?xml version="1.0" encoding="UTF-8" standalone="no"?>
<!DOCTYPE svg PUBLIC "-//W3C//DTD SVG 1.1//EN"
 "http://www.w3.org/Graphics/SVG/1.1/DTD/svg11.dtd">
<!-- Generated by graphviz version 2.43.0 (0)
 -->
<!-- Title: include/tools/components.h Pages: 1 -->
<svg width="452pt" height="218pt"
 viewBox="0.00 0.00 451.50 218.00" xmlns="http://www.w3.org/2000/svg" xmlns:xlink="http://www.w3.org/1999/xlink">
<g id="graph0" class="graph" transform="scale(1 1) rotate(0) translate(4 214)">
<title>include/tools/components.h</title>
<!-- Node1 -->
<g id="node1" class="node">
<title>Node1</title>
<g id="a_node1"><a xlink:title=" ">
<polygon fill="#bfbfbf" stroke="black" points="78,-190.5 78,-209.5 229,-209.5 229,-190.5 78,-190.5"/>
<text text-anchor="middle" x="153.5" y="-197.5" font-family="Helvetica,sans-Serif" font-size="10.00">include/tools/components.h</text>
</a>
</g>
</g>
<!-- Node2 -->
<g id="node2" class="node">
<title>Node2</title>
<g id="a_node2"><a xlink:href="components_8cc.html" target="_top" xlink:title=" ">
<polygon fill="none" stroke="black" points="0,-129 0,-148 125,-148 125,-129 0,-129"/>
<text text-anchor="middle" x="62.5" y="-136" font-family="Helvetica,sans-Serif" font-size="10.00">source/components.cc</text>
</a>
</g>
</g>
<!-- Node1&#45;&gt;Node2 -->
<g id="edge1" class="edge">
<title>Node1&#45;&gt;Node2</title>
<path fill="none" stroke="midnightblue" d="M131.98,-184.93C114.44,-173.46 90.23,-157.63 75.51,-148.01"/>
<polygon fill="midnightblue" stroke="midnightblue" points="130.18,-187.93 140.46,-190.48 134.01,-182.07 130.18,-187.93"/>
</g>
<!-- Node3 -->
<g id="node3" class="node">
<title>Node3</title>
<g id="a_node3"><a xlink:href="parsed__boundary__conditions_8cc.html" target="_top" xlink:title=" ">
<polygon fill="none" stroke="black" points="85.5,-56.5 85.5,-86.5 221.5,-86.5 221.5,-56.5 85.5,-56.5"/>
<text text-anchor="start" x="93.5" y="-74.5" font-family="Helvetica,sans-Serif" font-size="10.00">source/parsed_boundary</text>
<text text-anchor="middle" x="153.5" y="-63.5" font-family="Helvetica,sans-Serif" font-size="10.00">_conditions.cc</text>
</a>
</g>
</g>
<!-- Node1&#45;&gt;Node3 -->
<g id="edge2" class="edge">
<title>Node1&#45;&gt;Node3</title>
<path fill="none" stroke="midnightblue" d="M153.5,-180.11C153.5,-154.63 153.5,-109.81 153.5,-86.89"/>
<polygon fill="midnightblue" stroke="midnightblue" points="150,-180.31 153.5,-190.31 157,-180.31 150,-180.31"/>
</g>
<!-- Node4 -->
<g id="node4" class="node">
<title>Node4</title>
<g id="a_node4"><a xlink:href="parsed__boundary__conditions_8h.html" target="_top" xlink:title=" ">
<polygon fill="none" stroke="black" points="181.5,-123.5 181.5,-153.5 313.5,-153.5 313.5,-123.5 181.5,-123.5"/>
<text text-anchor="start" x="189.5" y="-141.5" font-family="Helvetica,sans-Serif" font-size="10.00">include/tools/parsed</text>
<text text-anchor="middle" x="247.5" y="-130.5" font-family="Helvetica,sans-Serif" font-size="10.00">_boundary_conditions.h</text>
</a>
</g>
</g>
<!-- Node1&#45;&gt;Node4 -->
<g id="edge3" class="edge">
<title>Node1&#45;&gt;Node4</title>
<path fill="none" stroke="midnightblue" d="M175.6,-185.01C190.6,-175.52 210.34,-163.02 225.35,-153.52"/>
<polygon fill="midnightblue" stroke="midnightblue" points="173.55,-182.17 166.97,-190.48 177.29,-188.08 173.55,-182.17"/>
</g>
<!-- Node4&#45;&gt;Node3 -->
<g id="edge4" class="edge">
<title>Node4&#45;&gt;Node3</title>
<path fill="none" stroke="midnightblue" d="M218.51,-117.45C204.05,-107.45 186.91,-95.6 173.86,-86.58"/>
<polygon fill="midnightblue" stroke="midnightblue" points="216.89,-120.59 227.1,-123.4 220.87,-114.83 216.89,-120.59"/>
</g>
<!-- Node5 -->
<g id="node5" class="node">
<title>Node5</title>
<g id="a_node5"><a xlink:href="serial__poisson_8h.html" target="_top" xlink:title=" ">
<polygon fill="none" stroke="black" points="239.5,-62 239.5,-81 373.5,-81 373.5,-62 239.5,-62"/>
<text text-anchor="middle" x="306.5" y="-69" font-family="Helvetica,sans-Serif" font-size="10.00">include/serial_poisson.h</text>
</a>
</g>
</g>
<!-- Node4&#45;&gt;Node5 -->
<g id="edge5" class="edge">
<title>Node4&#45;&gt;Node5</title>
<path fill="none" stroke="midnightblue" d="M267.33,-115.66C278.03,-103.86 290.65,-89.97 298.61,-81.19"/>
<polygon fill="midnightblue" stroke="midnightblue" points="264.43,-113.64 260.3,-123.4 269.61,-118.34 264.43,-113.64"/>
</g>
<!-- Node6 -->
<g id="node6" class="node">
<title>Node6</title>
<g id="a_node6"><a xlink:href="source_2serial__poisson_8cc.html" target="_top" xlink:title=" ">
<polygon fill="none" stroke="black" points="164,-0.5 164,-19.5 299,-19.5 299,-0.5 164,-0.5"/>
<text text-anchor="middle" x="231.5" y="-7.5" font-family="Helvetica,sans-Serif" font-size="10.00">source/serial_poisson.cc</text>
</a>
</g>
</g>
<!-- Node5&#45;&gt;Node6 -->
<g id="edge6" class="edge">
<title>Node5&#45;&gt;Node6</title>
<path fill="none" stroke="midnightblue" d="M287.56,-55.47C273.21,-44.09 254.02,-28.87 242.23,-19.51"/>
<polygon fill="midnightblue" stroke="midnightblue" points="285.74,-58.5 295.75,-61.98 290.1,-53.02 285.74,-58.5"/>
</g>
<!-- Node7 -->
<g id="node7" class="node">
<title>Node7</title>
<g id="a_node7"><a xlink:href="apps_2serial__poisson_8cc.html" target="_top" xlink:title=" ">
<polygon fill="none" stroke="black" points="317.5,-0.5 317.5,-19.5 443.5,-19.5 443.5,-0.5 317.5,-0.5"/>
<text text-anchor="middle" x="380.5" y="-7.5" font-family="Helvetica,sans-Serif" font-size="10.00">apps/serial_poisson.cc</text>
</a>
</g>
</g>
<!-- Node5&#45;&gt;Node7 -->
<g id="edge7" class="edge">
<title>Node5&#45;&gt;Node7</title>
<path fill="none" stroke="midnightblue" d="M325.19,-55.47C339.34,-44.09 358.28,-28.87 369.92,-19.51"/>
<polygon fill="midnightblue" stroke="midnightblue" points="322.7,-52.98 317.1,-61.98 327.09,-58.44 322.7,-52.98"/>
</g>
</g>
</svg>
