<?xml version="1.0" encoding="UTF-8" standalone="no"?>
<!DOCTYPE svg PUBLIC "-//W3C//DTD SVG 1.1//EN"
 "http://www.w3.org/Graphics/SVG/1.1/DTD/svg11.dtd">
<!-- Generated by graphviz version 2.43.0 (0)
 -->
<!-- Title: include/compute_linear_transformation.h Pages: 1 -->
<svg width="789pt" height="229pt"
 viewBox="0.00 0.00 789.00 229.00" xmlns="http://www.w3.org/2000/svg" xmlns:xlink="http://www.w3.org/1999/xlink">
<g id="graph0" class="graph" transform="scale(1 1) rotate(0) translate(4 225)">
<title>include/compute_linear_transformation.h</title>
<!-- Node1 -->
<g id="node1" class="node">
<title>Node1</title>
<g id="a_node1"><a xlink:title=" ">
<polygon fill="#bfbfbf" stroke="black" points="290,-190.5 290,-220.5 421,-220.5 421,-190.5 290,-190.5"/>
<text text-anchor="start" x="298" y="-208.5" font-family="Helvetica,sans-Serif" font-size="10.00">include/compute_linear</text>
<text text-anchor="middle" x="355.5" y="-197.5" font-family="Helvetica,sans-Serif" font-size="10.00">_transformation.h</text>
</a>
</g>
</g>
<!-- Node2 -->
<g id="node2" class="node">
<title>Node2</title>
<g id="a_node2"><a target="_parent" xlink:href="http://www.dealii.org/developer/doxygen/deal.II/quadrature__lib_8h.html.html" xlink:title=" ">
<polygon fill="none" stroke="black" points="0,-123.5 0,-153.5 129,-153.5 129,-123.5 0,-123.5"/>
<text text-anchor="start" x="8" y="-141.5" font-family="Helvetica,sans-Serif" font-size="10.00">deal.II/base/quadrature</text>
<text text-anchor="middle" x="64.5" y="-130.5" font-family="Helvetica,sans-Serif" font-size="10.00">_lib.h</text>
</a>
</g>
</g>
<!-- Node1&#45;&gt;Node2 -->
<g id="edge1" class="edge">
<title>Node1&#45;&gt;Node2</title>
<path fill="none" stroke="midnightblue" d="M292.72,-190.48C247.09,-180.28 185.21,-166.46 137.4,-155.78"/>
<polygon fill="midnightblue" stroke="midnightblue" points="137.95,-152.32 127.42,-153.55 136.42,-159.15 137.95,-152.32"/>
</g>
<!-- Node3 -->
<g id="node3" class="node">
<title>Node3</title>
<g id="a_node3"><a target="_parent" xlink:href="http://www.dealii.org/developer/doxygen/deal.II/dof__tools_8h.html.html" xlink:title=" ">
<polygon fill="none" stroke="black" points="147.5,-129 147.5,-148 275.5,-148 275.5,-129 147.5,-129"/>
<text text-anchor="middle" x="211.5" y="-136" font-family="Helvetica,sans-Serif" font-size="10.00">deal.II/dofs/dof_tools.h</text>
</a>
</g>
</g>
<!-- Node1&#45;&gt;Node3 -->
<g id="edge2" class="edge">
<title>Node1&#45;&gt;Node3</title>
<path fill="none" stroke="midnightblue" d="M324.25,-190.4C299.1,-179.04 264.05,-163.22 239.73,-152.24"/>
<polygon fill="midnightblue" stroke="midnightblue" points="240.9,-148.93 230.35,-148.01 238.02,-155.31 240.9,-148.93"/>
</g>
<!-- Node4 -->
<g id="node4" class="node">
<title>Node4</title>
<g id="a_node4"><a target="_parent" xlink:href="http://www.dealii.org/developer/doxygen/deal.II/fe__nothing_8h.html.html" xlink:title=" ">
<polygon fill="none" stroke="black" points="294,-129 294,-148 417,-148 417,-129 294,-129"/>
<text text-anchor="middle" x="355.5" y="-136" font-family="Helvetica,sans-Serif" font-size="10.00">deal.II/fe/fe_nothing.h</text>
</a>
</g>
</g>
<!-- Node1&#45;&gt;Node4 -->
<g id="edge3" class="edge">
<title>Node1&#45;&gt;Node4</title>
<path fill="none" stroke="midnightblue" d="M355.5,-190.4C355.5,-181.06 355.5,-168.71 355.5,-158.52"/>
<polygon fill="midnightblue" stroke="midnightblue" points="359,-158.19 355.5,-148.19 352,-158.19 359,-158.19"/>
</g>
<!-- Node5 -->
<g id="node5" class="node">
<title>Node5</title>
<g id="a_node5"><a target="_parent" xlink:href="http://www.dealii.org/developer/doxygen/deal.II/fe_2fe__values_8h.html.html" xlink:title=" ">
<polygon fill="none" stroke="black" points="435,-129 435,-148 554,-148 554,-129 435,-129"/>
<text text-anchor="middle" x="494.5" y="-136" font-family="Helvetica,sans-Serif" font-size="10.00">deal.II/fe/fe_values.h</text>
</a>
</g>
</g>
<!-- Node1&#45;&gt;Node5 -->
<g id="edge4" class="edge">
<title>Node1&#45;&gt;Node5</title>
<path fill="none" stroke="midnightblue" d="M385.66,-190.4C409.94,-179.04 443.78,-163.22 467.25,-152.24"/>
<polygon fill="midnightblue" stroke="midnightblue" points="468.73,-155.41 476.31,-148.01 465.77,-149.07 468.73,-155.41"/>
</g>
<!-- Node6 -->
<g id="node6" class="node">
<title>Node6</title>
<g id="a_node6"><a target="_parent" xlink:href="http://www.dealii.org/developer/doxygen/deal.II/grid__generator_8h.html.html" xlink:title=" ">
<polygon fill="none" stroke="black" points="572,-129 572,-148 723,-148 723,-129 572,-129"/>
<text text-anchor="middle" x="647.5" y="-136" font-family="Helvetica,sans-Serif" font-size="10.00">deal.II/grid/grid_generator.h</text>
</a>
</g>
</g>
<!-- Node1&#45;&gt;Node6 -->
<g id="edge5" class="edge">
<title>Node1&#45;&gt;Node6</title>
<path fill="none" stroke="midnightblue" d="M418.5,-190.48C472.77,-178.4 549.95,-161.21 599.38,-150.21"/>
<polygon fill="midnightblue" stroke="midnightblue" points="600.19,-153.62 609.19,-148.03 598.67,-146.79 600.19,-153.62"/>
</g>
<!-- Node7 -->
<g id="node7" class="node">
<title>Node7</title>
<g id="a_node7"><a xlink:href="function_8h.html" target="_top" xlink:title=" ">
<polygon fill="none" stroke="black" points="585,-67.5 585,-86.5 710,-86.5 710,-67.5 585,-67.5"/>
<text text-anchor="middle" x="647.5" y="-74.5" font-family="Helvetica,sans-Serif" font-size="10.00">deal.II/base/function.h</text>
</a>
</g>
</g>
<!-- Node6&#45;&gt;Node7 -->
<g id="edge6" class="edge">
<title>Node6&#45;&gt;Node7</title>
<path fill="none" stroke="midnightblue" d="M647.5,-128.98C647.5,-120.58 647.5,-107.48 647.5,-96.66"/>
<polygon fill="midnightblue" stroke="midnightblue" points="651,-96.51 647.5,-86.51 644,-96.51 651,-96.51"/>
</g>
<!-- Node8 -->
<g id="node8" class="node">
<title>Node8</title>
<g id="a_node8"><a target="_parent" xlink:href="http://www.dealii.org/developer/doxygen/deal.II/function__parser_8h.html.html" xlink:title=" ">
<polygon fill="none" stroke="black" points="519.5,-0.5 519.5,-30.5 635.5,-30.5 635.5,-0.5 519.5,-0.5"/>
<text text-anchor="start" x="527.5" y="-18.5" font-family="Helvetica,sans-Serif" font-size="10.00">deal.II/base/function</text>
<text text-anchor="middle" x="577.5" y="-7.5" font-family="Helvetica,sans-Serif" font-size="10.00">_parser.h</text>
</a>
</g>
</g>
<!-- Node7&#45;&gt;Node8 -->
<g id="edge7" class="edge">
<title>Node7&#45;&gt;Node8</title>
<path fill="none" stroke="midnightblue" d="M637.47,-67.48C628.17,-59.57 613.95,-47.48 601.7,-37.07"/>
<polygon fill="midnightblue" stroke="midnightblue" points="603.88,-34.33 594,-30.52 599.35,-39.67 603.88,-34.33"/>
</g>
<!-- Node9 -->
<g id="node9" class="node">
<title>Node9</title>
<g id="a_node9"><a target="_parent" xlink:href="http://www.dealii.org/developer/doxygen/deal.II/parameter__acceptor_8h.html.html" xlink:title=" ">
<polygon fill="none" stroke="black" points="654,-0.5 654,-30.5 781,-30.5 781,-0.5 654,-0.5"/>
<text text-anchor="start" x="662" y="-18.5" font-family="Helvetica,sans-Serif" font-size="10.00">deal.II/base/parameter</text>
<text text-anchor="middle" x="717.5" y="-7.5" font-family="Helvetica,sans-Serif" font-size="10.00">_acceptor.h</text>
</a>
</g>
</g>
<!-- Node7&#45;&gt;Node9 -->
<g id="edge8" class="edge">
<title>Node7&#45;&gt;Node9</title>
<path fill="none" stroke="midnightblue" d="M657.53,-67.48C666.83,-59.57 681.05,-47.48 693.3,-37.07"/>
<polygon fill="midnightblue" stroke="midnightblue" points="695.65,-39.67 701,-30.52 691.12,-34.33 695.65,-39.67"/>
</g>
</g>
</svg>
