<?xml version="1.0" encoding="UTF-8" standalone="no"?>
<!DOCTYPE svg PUBLIC "-//W3C//DTD SVG 1.1//EN"
 "http://www.w3.org/Graphics/SVG/1.1/DTD/svg11.dtd">
<!-- Generated by graphviz version 2.43.0 (0)
 -->
<!-- Title: include/parsed_tools/components.h Pages: 1 -->
<svg width="2101pt" height="307pt"
 viewBox="0.00 0.00 2100.50 307.00" xmlns="http://www.w3.org/2000/svg" xmlns:xlink="http://www.w3.org/1999/xlink">
<g id="graph0" class="graph" transform="scale(1 1) rotate(0) translate(4 303)">
<title>include/parsed_tools/components.h</title>
<!-- Node1 -->
<g id="node1" class="node">
<title>Node1</title>
<g id="a_node1"><a xlink:title=" ">
<polygon fill="#bfbfbf" stroke="black" points="1752,-268.5 1752,-298.5 1869,-298.5 1869,-268.5 1752,-268.5"/>
<text text-anchor="start" x="1760" y="-286.5" font-family="Helvetica,sans-Serif" font-size="10.00">include/parsed_tools</text>
<text text-anchor="middle" x="1810.5" y="-275.5" font-family="Helvetica,sans-Serif" font-size="10.00">/components.h</text>
</a>
</g>
</g>
<!-- Node2 -->
<g id="node2" class="node">
<title>Node2</title>
<g id="a_node2"><a xlink:href="boundary__conditions_8h.html" target="_top" xlink:title=" ">
<polygon fill="none" stroke="black" points="1051.5,-201.5 1051.5,-231.5 1181.5,-231.5 1181.5,-201.5 1051.5,-201.5"/>
<text text-anchor="start" x="1059.5" y="-219.5" font-family="Helvetica,sans-Serif" font-size="10.00">include/parsed_tools</text>
<text text-anchor="middle" x="1116.5" y="-208.5" font-family="Helvetica,sans-Serif" font-size="10.00">/boundary_conditions.h</text>
</a>
</g>
</g>
<!-- Node1&#45;&gt;Node2 -->
<g id="edge1" class="edge">
<title>Node1&#45;&gt;Node2</title>
<path fill="none" stroke="midnightblue" d="M1741.78,-276.06C1607.7,-263.51 1312.88,-235.89 1181.68,-223.6"/>
<polygon fill="midnightblue" stroke="midnightblue" points="1741.65,-279.57 1751.93,-277.01 1742.3,-272.6 1741.65,-279.57"/>
</g>
<!-- Node5 -->
<g id="node5" class="node">
<title>Node5</title>
<g id="a_node5"><a xlink:href="source_2pdes_2mpi_2linear__elasticity_8cc.html" target="_top" xlink:title=" ">
<polygon fill="none" stroke="black" points="1637.5,-0.5 1637.5,-30.5 1765.5,-30.5 1765.5,-0.5 1637.5,-0.5"/>
<text text-anchor="start" x="1645.5" y="-18.5" font-family="Helvetica,sans-Serif" font-size="10.00">source/pdes/mpi/linear</text>
<text text-anchor="middle" x="1701.5" y="-7.5" font-family="Helvetica,sans-Serif" font-size="10.00">_elasticity.cc</text>
</a>
</g>
</g>
<!-- Node1&#45;&gt;Node5 -->
<g id="edge28" class="edge">
<title>Node1&#45;&gt;Node5</title>
<path fill="none" stroke="midnightblue" d="M1814.97,-258.54C1821.53,-216.16 1829.14,-126.81 1790.5,-67 1779.7,-50.29 1761.32,-38.53 1744.05,-30.6"/>
<polygon fill="midnightblue" stroke="midnightblue" points="1811.51,-258.05 1813.32,-268.49 1818.41,-259.2 1811.51,-258.05"/>
</g>
<!-- Node26 -->
<g id="node26" class="node">
<title>Node26</title>
<g id="a_node26"><a xlink:href="boundary__conditions_8cc.html" target="_top" xlink:title=" ">
<polygon fill="none" stroke="black" points="1616,-140 1616,-159 1783,-159 1783,-140 1616,-140"/>
<text text-anchor="middle" x="1699.5" y="-147" font-family="Helvetica,sans-Serif" font-size="10.00">source/boundary_conditions.cc</text>
</a>
</g>
</g>
<!-- Node1&#45;&gt;Node26 -->
<g id="edge26" class="edge">
<title>Node1&#45;&gt;Node26</title>
<path fill="none" stroke="midnightblue" d="M1792.12,-260.64C1767.19,-231 1723.83,-179.43 1706.73,-159.1"/>
<polygon fill="midnightblue" stroke="midnightblue" points="1789.51,-262.97 1798.62,-268.37 1794.86,-258.47 1789.51,-262.97"/>
</g>
<!-- Node27 -->
<g id="node27" class="node">
<title>Node27</title>
<g id="a_node27"><a xlink:href="components_8cc.html" target="_top" xlink:title=" ">
<polygon fill="none" stroke="black" points="1839,-207 1839,-226 1964,-226 1964,-207 1839,-207"/>
<text text-anchor="middle" x="1901.5" y="-214" font-family="Helvetica,sans-Serif" font-size="10.00">source/components.cc</text>
</a>
</g>
</g>
<!-- Node1&#45;&gt;Node27 -->
<g id="edge27" class="edge">
<title>Node1&#45;&gt;Node27</title>
<path fill="none" stroke="midnightblue" d="M1838.77,-262.31C1855.86,-250.1 1876.75,-235.18 1889.59,-226.01"/>
<polygon fill="midnightblue" stroke="midnightblue" points="1836.35,-259.74 1830.25,-268.4 1840.42,-265.43 1836.35,-259.74"/>
</g>
<!-- Node28 -->
<g id="node28" class="node">
<title>Node28</title>
<g id="a_node28"><a xlink:href="dof__plotter_8cc.html" target="_top" xlink:title="Degrees of freedom plotter.">
<polygon fill="none" stroke="black" points="1982.5,-207 1982.5,-226 2092.5,-226 2092.5,-207 1982.5,-207"/>
<text text-anchor="middle" x="2037.5" y="-214" font-family="Helvetica,sans-Serif" font-size="10.00">apps/dof_plotter.cc</text>
</a>
</g>
</g>
<!-- Node1&#45;&gt;Node28 -->
<g id="edge29" class="edge">
<title>Node1&#45;&gt;Node28</title>
<path fill="none" stroke="midnightblue" d="M1869.27,-265.67C1913.64,-252.97 1972.67,-236.06 2007.72,-226.03"/>
<polygon fill="midnightblue" stroke="midnightblue" points="1868.13,-262.36 1859.48,-268.48 1870.05,-269.09 1868.13,-262.36"/>
</g>
<!-- Node3 -->
<g id="node3" class="node">
<title>Node3</title>
<g id="a_node3"><a xlink:href="linear__problem_8h.html" target="_top" xlink:title=" ">
<polygon fill="none" stroke="black" points="1120,-134.5 1120,-164.5 1251,-164.5 1251,-134.5 1120,-134.5"/>
<text text-anchor="start" x="1128" y="-152.5" font-family="Helvetica,sans-Serif" font-size="10.00">include/pdes/mpi/linear</text>
<text text-anchor="middle" x="1185.5" y="-141.5" font-family="Helvetica,sans-Serif" font-size="10.00">_problem.h</text>
</a>
</g>
</g>
<!-- Node2&#45;&gt;Node3 -->
<g id="edge2" class="edge">
<title>Node2&#45;&gt;Node3</title>
<path fill="none" stroke="midnightblue" d="M1138.99,-194.31C1149.34,-184.56 1161.34,-173.26 1170.56,-164.58"/>
<polygon fill="midnightblue" stroke="midnightblue" points="1136.35,-191.99 1131.47,-201.4 1141.15,-197.09 1136.35,-191.99"/>
</g>
<!-- Node11 -->
<g id="node11" class="node">
<title>Node11</title>
<g id="a_node11"><a xlink:href="distributed__lagrange_8h.html" target="_top" xlink:title=" ">
<polygon fill="none" stroke="black" points="1469,-134.5 1469,-164.5 1598,-164.5 1598,-134.5 1469,-134.5"/>
<text text-anchor="start" x="1477" y="-152.5" font-family="Helvetica,sans-Serif" font-size="10.00">include/pdes/serial</text>
<text text-anchor="middle" x="1533.5" y="-141.5" font-family="Helvetica,sans-Serif" font-size="10.00">/distributed_lagrange.h</text>
</a>
</g>
</g>
<!-- Node2&#45;&gt;Node11 -->
<g id="edge10" class="edge">
<title>Node2&#45;&gt;Node11</title>
<path fill="none" stroke="midnightblue" d="M1191.55,-203.8C1270.63,-191.48 1393.87,-172.26 1468.8,-160.58"/>
<polygon fill="midnightblue" stroke="midnightblue" points="1191,-200.35 1181.66,-205.34 1192.08,-207.26 1191,-200.35"/>
</g>
<!-- Node14 -->
<g id="node14" class="node">
<title>Node14</title>
<g id="a_node14"><a xlink:href="serial_2linear__elasticity_8h.html" target="_top" xlink:title=" ">
<polygon fill="none" stroke="black" points="120.5,-134.5 120.5,-164.5 228.5,-164.5 228.5,-134.5 120.5,-134.5"/>
<text text-anchor="start" x="128.5" y="-152.5" font-family="Helvetica,sans-Serif" font-size="10.00">include/pdes/serial</text>
<text text-anchor="middle" x="174.5" y="-141.5" font-family="Helvetica,sans-Serif" font-size="10.00">/linear_elasticity.h</text>
</a>
</g>
</g>
<!-- Node2&#45;&gt;Node14 -->
<g id="edge13" class="edge">
<title>Node2&#45;&gt;Node14</title>
<path fill="none" stroke="midnightblue" d="M1041.32,-210.4C908.01,-201.35 621.4,-181.84 379.5,-165 328.42,-161.44 270.2,-157.32 228.88,-154.38"/>
<polygon fill="midnightblue" stroke="midnightblue" points="1041.21,-213.9 1051.43,-211.09 1041.69,-206.92 1041.21,-213.9"/>
</g>
<!-- Node17 -->
<g id="node17" class="node">
<title>Node17</title>
<g id="a_node17"><a xlink:href="serial_2poisson_8h.html" target="_top" xlink:title=" ">
<polygon fill="none" stroke="black" points="388.5,-134.5 388.5,-164.5 496.5,-164.5 496.5,-134.5 388.5,-134.5"/>
<text text-anchor="start" x="396.5" y="-152.5" font-family="Helvetica,sans-Serif" font-size="10.00">include/pdes/serial</text>
<text text-anchor="middle" x="442.5" y="-141.5" font-family="Helvetica,sans-Serif" font-size="10.00">/poisson.h</text>
</a>
</g>
</g>
<!-- Node2&#45;&gt;Node17 -->
<g id="edge16" class="edge">
<title>Node2&#45;&gt;Node17</title>
<path fill="none" stroke="midnightblue" d="M1041.25,-208.24C904.13,-195.02 616.66,-167.3 496.79,-155.74"/>
<polygon fill="midnightblue" stroke="midnightblue" points="1040.97,-211.73 1051.26,-209.21 1041.64,-204.76 1040.97,-211.73"/>
</g>
<!-- Node20 -->
<g id="node20" class="node">
<title>Node20</title>
<g id="a_node20"><a xlink:href="reduced__lagrange_8h.html" target="_top" xlink:title=" ">
<polygon fill="none" stroke="black" points="645.5,-134.5 645.5,-164.5 761.5,-164.5 761.5,-134.5 645.5,-134.5"/>
<text text-anchor="start" x="653.5" y="-152.5" font-family="Helvetica,sans-Serif" font-size="10.00">include/pdes/serial</text>
<text text-anchor="middle" x="703.5" y="-141.5" font-family="Helvetica,sans-Serif" font-size="10.00">/reduced_lagrange.h</text>
</a>
</g>
</g>
<!-- Node2&#45;&gt;Node20 -->
<g id="edge19" class="edge">
<title>Node2&#45;&gt;Node20</title>
<path fill="none" stroke="midnightblue" d="M1040.99,-203.62C960.49,-190.95 834.76,-171.16 761.63,-159.65"/>
<polygon fill="midnightblue" stroke="midnightblue" points="1040.64,-207.1 1051.06,-205.2 1041.72,-200.19 1040.64,-207.1"/>
</g>
<!-- Node23 -->
<g id="node23" class="node">
<title>Node23</title>
<g id="a_node23"><a xlink:href="stokes_8h.html" target="_top" xlink:title=" ">
<polygon fill="none" stroke="black" points="916.5,-134.5 916.5,-164.5 1024.5,-164.5 1024.5,-134.5 916.5,-134.5"/>
<text text-anchor="start" x="924.5" y="-152.5" font-family="Helvetica,sans-Serif" font-size="10.00">include/pdes/serial</text>
<text text-anchor="middle" x="970.5" y="-141.5" font-family="Helvetica,sans-Serif" font-size="10.00">/stokes.h</text>
</a>
</g>
</g>
<!-- Node2&#45;&gt;Node23 -->
<g id="edge22" class="edge">
<title>Node2&#45;&gt;Node23</title>
<path fill="none" stroke="midnightblue" d="M1075.55,-197.27C1052.3,-186.92 1023.63,-174.15 1002.12,-164.58"/>
<polygon fill="midnightblue" stroke="midnightblue" points="1074.26,-200.53 1084.82,-201.4 1077.11,-194.13 1074.26,-200.53"/>
</g>
<!-- Node2&#45;&gt;Node26 -->
<g id="edge25" class="edge">
<title>Node2&#45;&gt;Node26</title>
<path fill="none" stroke="midnightblue" d="M1191.84,-208.96C1288.17,-200.32 1460.02,-183.95 1606.5,-165 1619.95,-163.26 1634.46,-161.12 1647.92,-159.03"/>
<polygon fill="midnightblue" stroke="midnightblue" points="1191.27,-205.5 1181.62,-209.87 1191.89,-212.47 1191.27,-205.5"/>
</g>
<!-- Node4 -->
<g id="node4" class="node">
<title>Node4</title>
<g id="a_node4"><a xlink:href="mpi_2linear__elasticity_8h.html" target="_top" xlink:title=" ">
<polygon fill="none" stroke="black" points="1355,-67.5 1355,-97.5 1486,-97.5 1486,-67.5 1355,-67.5"/>
<text text-anchor="start" x="1363" y="-85.5" font-family="Helvetica,sans-Serif" font-size="10.00">include/pdes/mpi/linear</text>
<text text-anchor="middle" x="1420.5" y="-74.5" font-family="Helvetica,sans-Serif" font-size="10.00">_elasticity.h</text>
</a>
</g>
</g>
<!-- Node3&#45;&gt;Node4 -->
<g id="edge3" class="edge">
<title>Node3&#45;&gt;Node4</title>
<path fill="none" stroke="midnightblue" d="M1246.18,-131.71C1284.43,-121.14 1333.24,-107.63 1369.48,-97.61"/>
<polygon fill="midnightblue" stroke="midnightblue" points="1244.91,-128.44 1236.2,-134.48 1246.77,-135.18 1244.91,-128.44"/>
</g>
<!-- Node7 -->
<g id="node7" class="node">
<title>Node7</title>
<g id="a_node7"><a xlink:href="mpi_2poisson_8h.html" target="_top" xlink:title=" ">
<polygon fill="none" stroke="black" points="1188,-73 1188,-92 1337,-92 1337,-73 1188,-73"/>
<text text-anchor="middle" x="1262.5" y="-80" font-family="Helvetica,sans-Serif" font-size="10.00">include/pdes/mpi/poisson.h</text>
</a>
</g>
</g>
<!-- Node3&#45;&gt;Node7 -->
<g id="edge6" class="edge">
<title>Node3&#45;&gt;Node7</title>
<path fill="none" stroke="midnightblue" d="M1210.17,-127.67C1224.39,-115.67 1241.51,-101.22 1252.2,-92.19"/>
<polygon fill="midnightblue" stroke="midnightblue" points="1207.59,-125.27 1202.21,-134.4 1212.11,-130.62 1207.59,-125.27"/>
</g>
<!-- Node10 -->
<g id="node10" class="node">
<title>Node10</title>
<g id="a_node10"><a xlink:href="linear__problem_8cc.html" target="_top" xlink:title=" ">
<polygon fill="none" stroke="black" points="1041.5,-67.5 1041.5,-97.5 1169.5,-97.5 1169.5,-67.5 1041.5,-67.5"/>
<text text-anchor="start" x="1049.5" y="-85.5" font-family="Helvetica,sans-Serif" font-size="10.00">source/pdes/mpi/linear</text>
<text text-anchor="middle" x="1105.5" y="-74.5" font-family="Helvetica,sans-Serif" font-size="10.00">_problem.cc</text>
</a>
</g>
</g>
<!-- Node3&#45;&gt;Node10 -->
<g id="edge9" class="edge">
<title>Node3&#45;&gt;Node10</title>
<path fill="none" stroke="midnightblue" d="M1160.13,-127.88C1147.97,-118.01 1133.72,-106.43 1122.82,-97.58"/>
<polygon fill="midnightblue" stroke="midnightblue" points="1158.17,-130.81 1168.14,-134.4 1162.59,-125.37 1158.17,-130.81"/>
</g>
<!-- Node4&#45;&gt;Node5 -->
<g id="edge4" class="edge">
<title>Node4&#45;&gt;Node5</title>
<path fill="none" stroke="midnightblue" d="M1491.03,-65.19C1537.05,-54.54 1596.52,-40.78 1640.5,-30.61"/>
<polygon fill="midnightblue" stroke="midnightblue" points="1490.08,-61.81 1481.13,-67.48 1491.66,-68.63 1490.08,-61.81"/>
</g>
<!-- Node6 -->
<g id="node6" class="node">
<title>Node6</title>
<g id="a_node6"><a xlink:href="apps_2mpi_2linear__elasticity_8cc.html" target="_top" xlink:title=" ">
<polygon fill="none" stroke="black" points="1356,-6 1356,-25 1511,-25 1511,-6 1356,-6"/>
<text text-anchor="middle" x="1433.5" y="-13" font-family="Helvetica,sans-Serif" font-size="10.00">apps/mpi/linear_elasticity.cc</text>
</a>
</g>
</g>
<!-- Node4&#45;&gt;Node6 -->
<g id="edge5" class="edge">
<title>Node4&#45;&gt;Node6</title>
<path fill="none" stroke="midnightblue" d="M1425.35,-57.25C1427.6,-46.02 1430.12,-33.38 1431.76,-25.19"/>
<polygon fill="midnightblue" stroke="midnightblue" points="1421.85,-56.9 1423.32,-67.4 1428.71,-58.28 1421.85,-56.9"/>
</g>
<!-- Node8 -->
<g id="node8" class="node">
<title>Node8</title>
<g id="a_node8"><a xlink:href="source_2pdes_2mpi_2poisson_8cc.html" target="_top" xlink:title=" ">
<polygon fill="none" stroke="black" points="1187,-6 1187,-25 1338,-25 1338,-6 1187,-6"/>
<text text-anchor="middle" x="1262.5" y="-13" font-family="Helvetica,sans-Serif" font-size="10.00">source/pdes/mpi/poisson.cc</text>
</a>
</g>
</g>
<!-- Node7&#45;&gt;Node8 -->
<g id="edge7" class="edge">
<title>Node7&#45;&gt;Node8</title>
<path fill="none" stroke="midnightblue" d="M1262.5,-62.54C1262.5,-50.17 1262.5,-34.62 1262.5,-25.13"/>
<polygon fill="midnightblue" stroke="midnightblue" points="1259,-62.73 1262.5,-72.73 1266,-62.73 1259,-62.73"/>
</g>
<!-- Node9 -->
<g id="node9" class="node">
<title>Node9</title>
<g id="a_node9"><a xlink:href="apps_2mpi_2poisson_8cc.html" target="_top" xlink:title=" ">
<polygon fill="none" stroke="black" points="1052.5,-6 1052.5,-25 1168.5,-25 1168.5,-6 1052.5,-6"/>
<text text-anchor="middle" x="1110.5" y="-13" font-family="Helvetica,sans-Serif" font-size="10.00">apps/mpi/poisson.cc</text>
</a>
</g>
</g>
<!-- Node7&#45;&gt;Node9 -->
<g id="edge8" class="edge">
<title>Node7&#45;&gt;Node9</title>
<path fill="none" stroke="midnightblue" d="M1232.76,-68.78C1202.66,-55.91 1156.93,-36.35 1130.77,-25.17"/>
<polygon fill="midnightblue" stroke="midnightblue" points="1231.74,-72.15 1242.32,-72.87 1234.5,-65.72 1231.74,-72.15"/>
</g>
<!-- Node12 -->
<g id="node12" class="node">
<title>Node12</title>
<g id="a_node12"><a xlink:href="source_2pdes_2serial_2distributed__lagrange_8cc.html" target="_top" xlink:title=" ">
<polygon fill="none" stroke="black" points="1504.5,-67.5 1504.5,-97.5 1638.5,-97.5 1638.5,-67.5 1504.5,-67.5"/>
<text text-anchor="start" x="1512.5" y="-85.5" font-family="Helvetica,sans-Serif" font-size="10.00">source/pdes/serial</text>
<text text-anchor="middle" x="1571.5" y="-74.5" font-family="Helvetica,sans-Serif" font-size="10.00">/distributed_lagrange.cc</text>
</a>
</g>
</g>
<!-- Node11&#45;&gt;Node12 -->
<g id="edge11" class="edge">
<title>Node11&#45;&gt;Node12</title>
<path fill="none" stroke="midnightblue" d="M1546.9,-125.58C1552.36,-116.24 1558.49,-105.75 1563.27,-97.58"/>
<polygon fill="midnightblue" stroke="midnightblue" points="1543.77,-124 1541.75,-134.4 1549.81,-127.53 1543.77,-124"/>
</g>
<!-- Node13 -->
<g id="node13" class="node">
<title>Node13</title>
<g id="a_node13"><a xlink:href="apps_2serial_2distributed__lagrange_8cc.html" target="_top" xlink:title=" ">
<polygon fill="none" stroke="black" points="1657,-67.5 1657,-97.5 1782,-97.5 1782,-67.5 1657,-67.5"/>
<text text-anchor="start" x="1665" y="-85.5" font-family="Helvetica,sans-Serif" font-size="10.00">apps/serial/distributed</text>
<text text-anchor="middle" x="1719.5" y="-74.5" font-family="Helvetica,sans-Serif" font-size="10.00">_lagrange.cc</text>
</a>
</g>
</g>
<!-- Node11&#45;&gt;Node13 -->
<g id="edge12" class="edge">
<title>Node11&#45;&gt;Node13</title>
<path fill="none" stroke="midnightblue" d="M1583.31,-131.09C1613.34,-120.6 1651.09,-107.41 1679.22,-97.58"/>
<polygon fill="midnightblue" stroke="midnightblue" points="1582.14,-127.79 1573.86,-134.4 1584.45,-134.4 1582.14,-127.79"/>
</g>
<!-- Node15 -->
<g id="node15" class="node">
<title>Node15</title>
<g id="a_node15"><a xlink:href="source_2pdes_2serial_2linear__elasticity_8cc.html" target="_top" xlink:title=" ">
<polygon fill="none" stroke="black" points="119.5,-67.5 119.5,-97.5 229.5,-97.5 229.5,-67.5 119.5,-67.5"/>
<text text-anchor="start" x="127.5" y="-85.5" font-family="Helvetica,sans-Serif" font-size="10.00">source/pdes/serial</text>
<text text-anchor="middle" x="174.5" y="-74.5" font-family="Helvetica,sans-Serif" font-size="10.00">/linear_elasticity.cc</text>
</a>
</g>
</g>
<!-- Node14&#45;&gt;Node15 -->
<g id="edge14" class="edge">
<title>Node14&#45;&gt;Node15</title>
<path fill="none" stroke="midnightblue" d="M174.5,-124.11C174.5,-115.15 174.5,-105.32 174.5,-97.58"/>
<polygon fill="midnightblue" stroke="midnightblue" points="171,-124.4 174.5,-134.4 178,-124.4 171,-124.4"/>
</g>
<!-- Node16 -->
<g id="node16" class="node">
<title>Node16</title>
<g id="a_node16"><a xlink:href="apps_2serial_2linear__elasticity_8cc.html" target="_top" xlink:title=" ">
<polygon fill="none" stroke="black" points="0,-67.5 0,-97.5 101,-97.5 101,-67.5 0,-67.5"/>
<text text-anchor="start" x="8" y="-85.5" font-family="Helvetica,sans-Serif" font-size="10.00">apps/serial/linear</text>
<text text-anchor="middle" x="50.5" y="-74.5" font-family="Helvetica,sans-Serif" font-size="10.00">_elasticity.cc</text>
</a>
</g>
</g>
<!-- Node14&#45;&gt;Node16 -->
<g id="edge15" class="edge">
<title>Node14&#45;&gt;Node16</title>
<path fill="none" stroke="midnightblue" d="M138.66,-129.71C119.11,-119.46 95.3,-106.98 77.35,-97.58"/>
<polygon fill="midnightblue" stroke="midnightblue" points="137.11,-132.85 147.59,-134.4 140.36,-126.65 137.11,-132.85"/>
</g>
<!-- Node18 -->
<g id="node18" class="node">
<title>Node18</title>
<g id="a_node18"><a xlink:href="source_2pdes_2serial_2poisson_8cc.html" target="_top" xlink:title=" ">
<polygon fill="none" stroke="black" points="390,-67.5 390,-97.5 495,-97.5 495,-67.5 390,-67.5"/>
<text text-anchor="start" x="398" y="-85.5" font-family="Helvetica,sans-Serif" font-size="10.00">source/pdes/serial</text>
<text text-anchor="middle" x="442.5" y="-74.5" font-family="Helvetica,sans-Serif" font-size="10.00">/poisson.cc</text>
</a>
</g>
</g>
<!-- Node17&#45;&gt;Node18 -->
<g id="edge17" class="edge">
<title>Node17&#45;&gt;Node18</title>
<path fill="none" stroke="midnightblue" d="M442.5,-124.11C442.5,-115.15 442.5,-105.32 442.5,-97.58"/>
<polygon fill="midnightblue" stroke="midnightblue" points="439,-124.4 442.5,-134.4 446,-124.4 439,-124.4"/>
</g>
<!-- Node19 -->
<g id="node19" class="node">
<title>Node19</title>
<g id="a_node19"><a xlink:href="apps_2serial_2poisson_8cc.html" target="_top" xlink:title=" ">
<polygon fill="none" stroke="black" points="247.5,-73 247.5,-92 371.5,-92 371.5,-73 247.5,-73"/>
<text text-anchor="middle" x="309.5" y="-80" font-family="Helvetica,sans-Serif" font-size="10.00">apps/serial/poisson.cc</text>
</a>
</g>
</g>
<!-- Node17&#45;&gt;Node19 -->
<g id="edge18" class="edge">
<title>Node17&#45;&gt;Node19</title>
<path fill="none" stroke="midnightblue" d="M404.58,-129.97C379.03,-117.48 346.53,-101.6 326.91,-92.01"/>
<polygon fill="midnightblue" stroke="midnightblue" points="403.12,-133.15 413.64,-134.4 406.19,-126.86 403.12,-133.15"/>
</g>
<!-- Node21 -->
<g id="node21" class="node">
<title>Node21</title>
<g id="a_node21"><a xlink:href="source_2pdes_2serial_2reduced__lagrange_8cc.html" target="_top" xlink:title=" ">
<polygon fill="none" stroke="black" points="643.5,-67.5 643.5,-97.5 763.5,-97.5 763.5,-67.5 643.5,-67.5"/>
<text text-anchor="start" x="651.5" y="-85.5" font-family="Helvetica,sans-Serif" font-size="10.00">source/pdes/serial</text>
<text text-anchor="middle" x="703.5" y="-74.5" font-family="Helvetica,sans-Serif" font-size="10.00">/reduced_lagrange.cc</text>
</a>
</g>
</g>
<!-- Node20&#45;&gt;Node21 -->
<g id="edge20" class="edge">
<title>Node20&#45;&gt;Node21</title>
<path fill="none" stroke="midnightblue" d="M703.5,-124.11C703.5,-115.15 703.5,-105.32 703.5,-97.58"/>
<polygon fill="midnightblue" stroke="midnightblue" points="700,-124.4 703.5,-134.4 707,-124.4 700,-124.4"/>
</g>
<!-- Node22 -->
<g id="node22" class="node">
<title>Node22</title>
<g id="a_node22"><a xlink:href="apps_2serial_2reduced__lagrange_8cc.html" target="_top" xlink:title=" ">
<polygon fill="none" stroke="black" points="513.5,-67.5 513.5,-97.5 625.5,-97.5 625.5,-67.5 513.5,-67.5"/>
<text text-anchor="start" x="521.5" y="-85.5" font-family="Helvetica,sans-Serif" font-size="10.00">apps/serial/reduced</text>
<text text-anchor="middle" x="569.5" y="-74.5" font-family="Helvetica,sans-Serif" font-size="10.00">_lagrange.cc</text>
</a>
</g>
</g>
<!-- Node20&#45;&gt;Node22 -->
<g id="edge21" class="edge">
<title>Node20&#45;&gt;Node22</title>
<path fill="none" stroke="midnightblue" d="M665.35,-129.99C644.11,-119.69 618.09,-107.07 598.52,-97.58"/>
<polygon fill="midnightblue" stroke="midnightblue" points="663.9,-133.18 674.42,-134.4 666.95,-126.88 663.9,-133.18"/>
</g>
<!-- Node24 -->
<g id="node24" class="node">
<title>Node24</title>
<g id="a_node24"><a xlink:href="source_2pdes_2serial_2stokes_8cc.html" target="_top" xlink:title=" ">
<polygon fill="none" stroke="black" points="918,-67.5 918,-97.5 1023,-97.5 1023,-67.5 918,-67.5"/>
<text text-anchor="start" x="926" y="-85.5" font-family="Helvetica,sans-Serif" font-size="10.00">source/pdes/serial</text>
<text text-anchor="middle" x="970.5" y="-74.5" font-family="Helvetica,sans-Serif" font-size="10.00">/stokes.cc</text>
</a>
</g>
</g>
<!-- Node23&#45;&gt;Node24 -->
<g id="edge23" class="edge">
<title>Node23&#45;&gt;Node24</title>
<path fill="none" stroke="midnightblue" d="M970.5,-124.11C970.5,-115.15 970.5,-105.32 970.5,-97.58"/>
<polygon fill="midnightblue" stroke="midnightblue" points="967,-124.4 970.5,-134.4 974,-124.4 967,-124.4"/>
</g>
<!-- Node25 -->
<g id="node25" class="node">
<title>Node25</title>
<g id="a_node25"><a xlink:href="apps_2serial_2stokes_8cc.html" target="_top" xlink:title=" ">
<polygon fill="none" stroke="black" points="781.5,-73 781.5,-92 899.5,-92 899.5,-73 781.5,-73"/>
<text text-anchor="middle" x="840.5" y="-80" font-family="Helvetica,sans-Serif" font-size="10.00">apps/serial/stokes.cc</text>
</a>
</g>
</g>
<!-- Node23&#45;&gt;Node25 -->
<g id="edge24" class="edge">
<title>Node23&#45;&gt;Node25</title>
<path fill="none" stroke="midnightblue" d="M933.11,-129.8C908.18,-117.34 876.61,-101.56 857.51,-92.01"/>
<polygon fill="midnightblue" stroke="midnightblue" points="931.78,-133.05 942.29,-134.4 934.91,-126.79 931.78,-133.05"/>
</g>
</g>
</svg>
