<?xml version="1.0" encoding="UTF-8" standalone="no"?>
<!DOCTYPE svg PUBLIC "-//W3C//DTD SVG 1.1//EN"
 "http://www.w3.org/Graphics/SVG/1.1/DTD/svg11.dtd">
<!-- Generated by graphviz version 2.43.0 (0)
 -->
<!-- Title: source/components.cc Pages: 1 -->
<!--zoomable 799 -->
<svg id="main" version="1.1" xmlns="http://www.w3.org/2000/svg" xmlns:xlink="http://www.w3.org/1999/xlink" xml:space="preserve" onload="init(evt)">
<style type="text/css"><![CDATA[
.edge:hover path { stroke: red; }
.edge:hover polygon { stroke: red; fill: red; }
]]></style>
<script type="text/javascript"><![CDATA[
var edges = document.getElementsByTagName('g');
if (edges && edges.length) {
  for (var i=0;i<edges.length;i++) {
    if (edges[i].id.substr(0,4)=='edge') {
      edges[i].setAttribute('class','edge');
    }
  }
}
]]></script>
        <defs>
                <circle id="rim" cx="0" cy="0" r="7"/>
                <circle id="rim2" cx="0" cy="0" r="3.5"/>
                <g id="zoomPlus">
                        <use xlink:href="#rim" fill="#404040">
                                <set attributeName="fill" to="#808080" begin="zoomplus.mouseover" end="zoomplus.mouseout"/>
                        </use>
                        <path d="M-4,0h8M0,-4v8" fill="none" stroke="white" stroke-width="1.5" pointer-events="none"/>
                </g>
                <g id="zoomMin">
                        <use xlink:href="#rim" fill="#404040">
                                <set attributeName="fill" to="#808080" begin="zoomminus.mouseover" end="zoomminus.mouseout"/>
                        </use>
                        <path d="M-4,0h8" fill="none" stroke="white" stroke-width="1.5" pointer-events="none"/>
                </g>
                <g id="dirArrow">
                        <path fill="none" stroke="white" stroke-width="1.5" d="M0,-3.0v7 M-2.5,-0.5L0,-3.0L2.5,-0.5"/>
                </g>
               <g id="resetDef">
                       <use xlink:href="#rim2" fill="#404040">
                               <set attributeName="fill" to="#808080" begin="reset.mouseover" end="reset.mouseout"/>
                       </use>
               </g>
        </defs>

<script type="text/javascript">
var viewWidth = 1516;
var viewHeight = 799;
var sectionId = 'dynsection-0';
</script>
<script xlink:href="svgpan.js"/>
<svg id="graph" class="graph">
<g id="viewport">
<title>source/components.cc</title>
<!-- Node1 -->
<g id="node1" class="node">
<title>Node1</title>
<g id="a_node1"><a xlink:title=" ">
<polygon fill="#bfbfbf" stroke="black" points="1088.5,-771.5 1088.5,-790.5 1213.5,-790.5 1213.5,-771.5 1088.5,-771.5"/>
<text text-anchor="middle" x="1151" y="-778.5" font-family="Helvetica,sans-Serif" font-size="10.00">source/components.cc</text>
</a>
</g>
</g>
<!-- Node2 -->
<g id="node2" class="node">
<title>Node2</title>
<g id="a_node2"><a xlink:href="components_8h.html" target="_top" xlink:title=" ">
<polygon fill="none" stroke="black" points="1026.5,-715.5 1026.5,-734.5 1139.5,-734.5 1139.5,-715.5 1026.5,-715.5"/>
<text text-anchor="middle" x="1083" y="-722.5" font-family="Helvetica,sans-Serif" font-size="10.00">tools/components.h</text>
</a>
</g>
</g>
<!-- Node1&#45;&gt;Node2 -->
<g id="edge1" class="edge">
<title>Node1&#45;&gt;Node2</title>
<path fill="none" stroke="midnightblue" d="M1140.07,-771.32C1129.83,-763.18 1114.28,-750.84 1102,-741.09"/>
<polygon fill="midnightblue" stroke="midnightblue" points="1104.13,-738.31 1094.12,-734.83 1099.78,-743.79 1104.13,-738.31"/>
</g>
<!-- Node25 -->
<g id="node25" class="node">
<title>Node25</title>
<g id="a_node25"><a xlink:href="http://www.dealii.org/developer/doxygen/deal.II/patterns_8h.html" xlink:title=" ">
<polygon fill="none" stroke="black" points="1169.5,-715.5 1169.5,-734.5 1294.5,-734.5 1294.5,-715.5 1169.5,-715.5"/>
<text text-anchor="middle" x="1232" y="-722.5" font-family="Helvetica,sans-Serif" font-size="10.00">deal.II/base/patterns.h</text>
</a>
</g>
</g>
<!-- Node1&#45;&gt;Node25 -->
<g id="edge68" class="edge">
<title>Node1&#45;&gt;Node25</title>
<path fill="none" stroke="midnightblue" d="M1164.01,-771.32C1176.53,-762.98 1195.68,-750.21 1210.47,-740.35"/>
<polygon fill="midnightblue" stroke="midnightblue" points="1212.64,-743.11 1219.02,-734.65 1208.76,-737.29 1212.64,-743.11"/>
</g>
<!-- Node3 -->
<g id="node3" class="node">
<title>Node3</title>
<g id="a_node3"><a xlink:href="http://www.dealii.org/developer/doxygen/deal.II/config_8h.html" xlink:title=" ">
<polygon fill="none" stroke="black" points="632.5,-525.5 632.5,-544.5 747.5,-544.5 747.5,-525.5 632.5,-525.5"/>
<text text-anchor="middle" x="690" y="-532.5" font-family="Helvetica,sans-Serif" font-size="10.00">deal.II/base/config.h</text>
</a>
</g>
</g>
<!-- Node2&#45;&gt;Node3 -->
<g id="edge2" class="edge">
<title>Node2&#45;&gt;Node3</title>
<path fill="none" stroke="midnightblue" d="M1050.8,-715.42C994.7,-699.71 876.4,-663.17 786,-612 755.52,-594.75 724.51,-568.22 706.27,-551.5"/>
<polygon fill="midnightblue" stroke="midnightblue" points="708.55,-548.84 698.84,-544.58 703.78,-553.96 708.55,-548.84"/>
</g>
<!-- Node17 -->
<g id="node17" class="node">
<title>Node17</title>
<g id="a_node17"><a xlink:href="http://www.dealii.org/developer/doxygen/deal.II/include_2deal_8II_2base_2utilities_8h.html" xlink:title=" ">
<polygon fill="none" stroke="black" points="1168,-207 1168,-226 1290,-226 1290,-207 1168,-207"/>
<text text-anchor="middle" x="1229" y="-214" font-family="Helvetica,sans-Serif" font-size="10.00">deal.II/base/utilities.h</text>
</a>
</g>
</g>
<!-- Node2&#45;&gt;Node17 -->
<g id="edge62" class="edge">
<title>Node2&#45;&gt;Node17</title>
<path fill="none" stroke="midnightblue" d="M1093.64,-715.31C1103.4,-706.87 1117.71,-693.29 1127,-679 1152.55,-639.7 1137.64,-618.33 1166,-581 1206.87,-527.21 1256.99,-549.52 1287,-489 1330.89,-400.5 1267.32,-279.68 1240.23,-235.02"/>
<polygon fill="midnightblue" stroke="midnightblue" points="1243.16,-233.11 1234.91,-226.46 1237.22,-236.8 1243.16,-233.11"/>
</g>
<!-- Node23 -->
<g id="node23" class="node">
<title>Node23</title>
<g id="a_node23"><a xlink:href="http://www.dealii.org/developer/doxygen/deal.II/component__mask_8h.html" xlink:title=" ">
<polygon fill="none" stroke="black" points="1000.5,-648.5 1000.5,-678.5 1117.5,-678.5 1117.5,-648.5 1000.5,-648.5"/>
<text text-anchor="start" x="1008.5" y="-666.5" font-family="Helvetica,sans-Serif" font-size="10.00">deal.II/fe/component</text>
<text text-anchor="middle" x="1059" y="-655.5" font-family="Helvetica,sans-Serif" font-size="10.00">_mask.h</text>
</a>
</g>
</g>
<!-- Node2&#45;&gt;Node23 -->
<g id="edge63" class="edge">
<title>Node2&#45;&gt;Node23</title>
<path fill="none" stroke="midnightblue" d="M1079.56,-715.48C1076.68,-708.32 1072.41,-697.75 1068.51,-688.08"/>
<polygon fill="midnightblue" stroke="midnightblue" points="1071.64,-686.49 1064.66,-678.52 1065.15,-689.11 1071.64,-686.49"/>
</g>
<!-- Node4 -->
<g id="node4" class="node">
<title>Node4</title>
<g id="a_node4"><a xlink:href="http://www.dealii.org/developer/doxygen/deal.II/mpi_8h.html" xlink:title=" ">
<polygon fill="none" stroke="black" points="643,-469.5 643,-488.5 687,-488.5 687,-469.5 643,-469.5"/>
<text text-anchor="middle" x="665" y="-476.5" font-family="Helvetica,sans-Serif" font-size="10.00">mpi.h</text>
</a>
</g>
</g>
<!-- Node3&#45;&gt;Node4 -->
<g id="edge3" class="edge">
<title>Node3&#45;&gt;Node4</title>
<path fill="none" stroke="midnightblue" d="M680.71,-525.08C675.83,-517.85 670.57,-507.41 667.08,-498.4"/>
<polygon fill="midnightblue" stroke="midnightblue" points="670.36,-497.16 663.92,-488.75 663.71,-499.34 670.36,-497.16"/>
</g>
<!-- Node9 -->
<g id="node9" class="node">
<title>Node9</title>
<g id="a_node9"><a xlink:href="http://www.dealii.org/developer/doxygen/deal.II/numbers_8h.html" xlink:title=" ">
<polygon fill="none" stroke="black" points="344,-207 344,-226 472,-226 472,-207 344,-207"/>
<text text-anchor="middle" x="408" y="-214" font-family="Helvetica,sans-Serif" font-size="10.00">deal.II/base/numbers.h</text>
</a>
</g>
</g>
<!-- Node3&#45;&gt;Node9 -->
<g id="edge60" class="edge">
<title>Node3&#45;&gt;Node9</title>
<path fill="none" stroke="midnightblue" d="M632.44,-529.15C564.96,-522.35 458.27,-508.57 424,-489 361.58,-453.36 343.87,-433.44 319,-366 310.76,-343.66 326.36,-272.33 329,-268 338.9,-251.74 356.22,-239.18 372.25,-230.65"/>
<polygon fill="midnightblue" stroke="midnightblue" points="374.06,-233.66 381.48,-226.1 370.96,-227.39 374.06,-233.66"/>
</g>
<!-- Node10 -->
<g id="node10" class="node">
<title>Node10</title>
<g id="a_node10"><a xlink:href="http://www.dealii.org/developer/doxygen/deal.II/types_8h.html" xlink:title=" ">
<polygon fill="none" stroke="black" points="690,-140 690,-159 802,-159 802,-140 690,-140"/>
<text text-anchor="middle" x="746" y="-147" font-family="Helvetica,sans-Serif" font-size="10.00">deal.II/base/types.h</text>
</a>
</g>
</g>
<!-- Node3&#45;&gt;Node10 -->
<g id="edge61" class="edge">
<title>Node3&#45;&gt;Node10</title>
<path fill="none" stroke="midnightblue" d="M689.47,-525.2C693.29,-516.47 701.84,-502.49 706,-489 742.23,-371.57 740.03,-221.19 742.79,-169.18"/>
<polygon fill="midnightblue" stroke="midnightblue" points="746.29,-169.35 743.52,-159.12 739.31,-168.84 746.29,-169.35"/>
</g>
<!-- Node4&#45;&gt;Node3 -->
<g id="edge4" class="edge">
<title>Node4&#45;&gt;Node3</title>
<path fill="none" stroke="midnightblue" d="M674.18,-488.75C679.05,-495.94 684.32,-506.36 687.84,-515.4"/>
<polygon fill="midnightblue" stroke="midnightblue" points="684.58,-516.69 691.04,-525.08 691.22,-514.49 684.58,-516.69"/>
</g>
<!-- Node5 -->
<g id="node5" class="node">
<title>Node5</title>
<g id="a_node5"><a xlink:href="http://www.dealii.org/developer/doxygen/deal.II/array__view_8h.html" xlink:title=" ">
<polygon fill="none" stroke="black" points="437.5,-402.5 437.5,-432.5 538.5,-432.5 538.5,-402.5 437.5,-402.5"/>
<text text-anchor="start" x="445.5" y="-420.5" font-family="Helvetica,sans-Serif" font-size="10.00">deal.II/base/array</text>
<text text-anchor="middle" x="488" y="-409.5" font-family="Helvetica,sans-Serif" font-size="10.00">_view.h</text>
</a>
</g>
</g>
<!-- Node4&#45;&gt;Node5 -->
<g id="edge5" class="edge">
<title>Node4&#45;&gt;Node5</title>
<path fill="none" stroke="midnightblue" d="M642.94,-470.58C617.3,-461.97 574.12,-447.45 539.85,-435.93"/>
<polygon fill="midnightblue" stroke="midnightblue" points="540.58,-432.48 529.99,-432.61 538.35,-439.12 540.58,-432.48"/>
</g>
<!-- Node4&#45;&gt;Node9 -->
<g id="edge59" class="edge">
<title>Node4&#45;&gt;Node9</title>
<path fill="none" stroke="midnightblue" d="M642.79,-477.09C599.63,-474.62 502.2,-465.58 428,-433 382.34,-412.95 360.38,-410.56 338,-366 314.02,-318.25 362.71,-260.79 390.49,-233.45"/>
<polygon fill="midnightblue" stroke="midnightblue" points="393.19,-235.71 398.02,-226.28 388.36,-230.64 393.19,-235.71"/>
</g>
<!-- Node18 -->
<g id="node18" class="node">
<title>Node18</title>
<g id="a_node18"><a xlink:href="http://www.dealii.org/developer/doxygen/deal.II/index__set_8h.html" xlink:title=" ">
<polygon fill="none" stroke="black" points="799.5,-402.5 799.5,-432.5 902.5,-432.5 902.5,-402.5 799.5,-402.5"/>
<text text-anchor="start" x="807.5" y="-420.5" font-family="Helvetica,sans-Serif" font-size="10.00">deal.II/base/index</text>
<text text-anchor="middle" x="851" y="-409.5" font-family="Helvetica,sans-Serif" font-size="10.00">_set.h</text>
</a>
</g>
</g>
<!-- Node4&#45;&gt;Node18 -->
<g id="edge42" class="edge">
<title>Node4&#45;&gt;Node18</title>
<path fill="none" stroke="midnightblue" d="M686.75,-469.48C712.37,-460.66 755.7,-446.67 791.47,-435.57"/>
<polygon fill="midnightblue" stroke="midnightblue" points="792.81,-438.82 801.33,-432.52 790.75,-432.13 792.81,-438.82"/>
</g>
<!-- Node22 -->
<g id="node22" class="node">
<title>Node22</title>
<g id="a_node22"><a xlink:href="http://www.dealii.org/developer/doxygen/deal.II/mpi__tags_8h.html" xlink:title=" ">
<polygon fill="none" stroke="black" points="557,-408 557,-427 687,-427 687,-408 557,-408"/>
<text text-anchor="middle" x="622" y="-415" font-family="Helvetica,sans-Serif" font-size="10.00">deal.II/base/mpi_tags.h</text>
</a>
</g>
</g>
<!-- Node4&#45;&gt;Node22 -->
<g id="edge57" class="edge">
<title>Node4&#45;&gt;Node22</title>
<path fill="none" stroke="midnightblue" d="M658.84,-469.48C652.39,-460.55 642.1,-446.31 634.03,-435.14"/>
<polygon fill="midnightblue" stroke="midnightblue" points="636.84,-433.06 628.15,-427.01 631.17,-437.16 636.84,-433.06"/>
</g>
<!-- Node5&#45;&gt;Node3 -->
<g id="edge6" class="edge">
<title>Node5&#45;&gt;Node3</title>
<path fill="none" stroke="midnightblue" d="M512.56,-432.55C551.53,-454.83 627.07,-498.02 665.81,-520.17"/>
<polygon fill="midnightblue" stroke="midnightblue" points="664.4,-523.39 674.82,-525.32 667.87,-517.32 664.4,-523.39"/>
</g>
<!-- Node6 -->
<g id="node6" class="node">
<title>Node6</title>
<g id="a_node6"><a xlink:href="http://www.dealii.org/developer/doxygen/deal.II/include_2deal_8II_2base_2exceptions_8h.html" xlink:title=" ">
<polygon fill="none" stroke="black" points="1103,-73 1103,-92 1241,-92 1241,-73 1103,-73"/>
<text text-anchor="middle" x="1172" y="-80" font-family="Helvetica,sans-Serif" font-size="10.00">deal.II/base/exceptions.h</text>
</a>
</g>
</g>
<!-- Node5&#45;&gt;Node6 -->
<g id="edge7" class="edge">
<title>Node5&#45;&gt;Node6</title>
<path fill="none" stroke="midnightblue" d="M536.89,-402.47C577.31,-390.45 629.16,-373.85 636,-366 705,-286.81 603.5,-204.89 681,-134 710.73,-106.8 961.85,-92.31 1092.97,-86.53"/>
<polygon fill="midnightblue" stroke="midnightblue" points="1093.13,-90.03 1102.97,-86.1 1092.83,-83.04 1093.13,-90.03"/>
</g>
<!-- Node7 -->
<g id="node7" class="node">
<title>Node7</title>
<g id="a_node7"><a xlink:href="http://www.dealii.org/developer/doxygen/deal.II/memory__space_8h.html" xlink:title=" ">
<polygon fill="none" stroke="black" points="493.5,-335.5 493.5,-365.5 610.5,-365.5 610.5,-335.5 493.5,-335.5"/>
<text text-anchor="start" x="501.5" y="-353.5" font-family="Helvetica,sans-Serif" font-size="10.00">deal.II/base/memory</text>
<text text-anchor="middle" x="552" y="-342.5" font-family="Helvetica,sans-Serif" font-size="10.00">_space.h</text>
</a>
</g>
</g>
<!-- Node5&#45;&gt;Node7 -->
<g id="edge9" class="edge">
<title>Node5&#45;&gt;Node7</title>
<path fill="none" stroke="midnightblue" d="M501.89,-402.4C510.36,-393.79 521.35,-382.63 530.89,-372.94"/>
<polygon fill="midnightblue" stroke="midnightblue" points="533.62,-375.16 538.14,-365.58 528.63,-370.25 533.62,-375.16"/>
</g>
<!-- Node8 -->
<g id="node8" class="node">
<title>Node8</title>
<g id="a_node8"><a xlink:href="http://www.dealii.org/developer/doxygen/deal.II/symmetric__tensor_8h.html" xlink:title=" ">
<polygon fill="none" stroke="black" points="347,-335.5 347,-365.5 475,-365.5 475,-335.5 347,-335.5"/>
<text text-anchor="start" x="355" y="-353.5" font-family="Helvetica,sans-Serif" font-size="10.00">deal.II/base/symmetric</text>
<text text-anchor="middle" x="411" y="-342.5" font-family="Helvetica,sans-Serif" font-size="10.00">_tensor.h</text>
</a>
</g>
</g>
<!-- Node5&#45;&gt;Node8 -->
<g id="edge11" class="edge">
<title>Node5&#45;&gt;Node8</title>
<path fill="none" stroke="midnightblue" d="M471.29,-402.4C460.8,-393.54 447.08,-381.96 435.39,-372.09"/>
<polygon fill="midnightblue" stroke="midnightblue" points="437.57,-369.35 427.68,-365.58 433.06,-374.7 437.57,-369.35"/>
</g>
<!-- Node15 -->
<g id="node15" class="node">
<title>Node15</title>
<g id="a_node15"><a xlink:href="http://www.dealii.org/developer/doxygen/deal.II/tensor_8h.html" xlink:title=" ">
<polygon fill="none" stroke="black" points="518,-274 518,-293 634,-293 634,-274 518,-274"/>
<text text-anchor="middle" x="576" y="-281" font-family="Helvetica,sans-Serif" font-size="10.00">deal.II/base/tensor.h</text>
</a>
</g>
</g>
<!-- Node5&#45;&gt;Node15 -->
<g id="edge41" class="edge">
<title>Node5&#45;&gt;Node15</title>
<path fill="none" stroke="midnightblue" d="M538.75,-403.51C571.7,-393.93 610.26,-380.15 620,-366 634.94,-344.29 612.71,-316.97 594.79,-300.13"/>
<polygon fill="midnightblue" stroke="midnightblue" points="596.8,-297.23 587,-293.18 592.14,-302.45 596.8,-297.23"/>
</g>
<!-- Node6&#45;&gt;Node3 -->
<g id="edge8" class="edge">
<title>Node6&#45;&gt;Node3</title>
<path fill="none" stroke="midnightblue" d="M1190.06,-92.12C1230.48,-112.73 1322.87,-167.95 1299,-232 1257.73,-342.72 1209.86,-350.79 1125,-433 1096.63,-460.48 1092.35,-473.55 1056,-489 1003.81,-511.19 848.56,-524.22 757.89,-530.14"/>
<polygon fill="midnightblue" stroke="midnightblue" points="757.46,-526.66 747.71,-530.79 757.91,-533.65 757.46,-526.66"/>
</g>
<!-- Node7&#45;&gt;Node3 -->
<g id="edge10" class="edge">
<title>Node7&#45;&gt;Node3</title>
<path fill="none" stroke="midnightblue" d="M494.18,-365.58C452.2,-378.76 406.26,-401.21 428,-433 471.21,-496.17 559.97,-519.85 622.16,-528.71"/>
<polygon fill="midnightblue" stroke="midnightblue" points="621.91,-532.21 632.28,-530.06 622.83,-525.27 621.91,-532.21"/>
</g>
<!-- Node8&#45;&gt;Node3 -->
<g id="edge12" class="edge">
<title>Node8&#45;&gt;Node3</title>
<path fill="none" stroke="midnightblue" d="M410.13,-365.58C409.6,-382.26 410.3,-410.6 419,-433 430.27,-462 434.65,-472.46 461,-489 509.37,-519.37 573.91,-529.94 622.15,-533.3"/>
<polygon fill="midnightblue" stroke="midnightblue" points="621.98,-536.8 632.18,-533.92 622.41,-529.81 621.98,-536.8"/>
</g>
<!-- Node8&#45;&gt;Node9 -->
<g id="edge13" class="edge">
<title>Node8&#45;&gt;Node9</title>
<path fill="none" stroke="midnightblue" d="M410.68,-335.37C410.14,-311.5 409.04,-263.18 408.43,-236.41"/>
<polygon fill="midnightblue" stroke="midnightblue" points="411.92,-236.02 408.2,-226.1 404.92,-236.17 411.92,-236.02"/>
</g>
<!-- Node12 -->
<g id="node12" class="node">
<title>Node12</title>
<g id="a_node12"><a xlink:href="http://www.dealii.org/developer/doxygen/deal.II/table__indices_8h.html" xlink:title=" ">
<polygon fill="none" stroke="black" points="382.5,-134.5 382.5,-164.5 483.5,-164.5 483.5,-134.5 382.5,-134.5"/>
<text text-anchor="start" x="390.5" y="-152.5" font-family="Helvetica,sans-Serif" font-size="10.00">deal.II/base/table</text>
<text text-anchor="middle" x="433" y="-141.5" font-family="Helvetica,sans-Serif" font-size="10.00">_indices.h</text>
</a>
</g>
</g>
<!-- Node8&#45;&gt;Node12 -->
<g id="edge19" class="edge">
<title>Node8&#45;&gt;Node12</title>
<path fill="none" stroke="midnightblue" d="M422.85,-335.48C439.66,-314.56 469.66,-273.21 481,-232 484.66,-218.72 486.11,-213.79 481,-201 476.53,-189.82 468.29,-179.7 459.87,-171.5"/>
<polygon fill="midnightblue" stroke="midnightblue" points="461.96,-168.67 452.2,-164.55 457.25,-173.86 461.96,-168.67"/>
</g>
<!-- Node13 -->
<g id="node13" class="node">
<title>Node13</title>
<g id="a_node13"><a xlink:href="http://www.dealii.org/developer/doxygen/deal.II/template__constraints_8h.html" xlink:title=" ">
<polygon fill="none" stroke="black" points="148,-67.5 148,-97.5 268,-97.5 268,-67.5 148,-67.5"/>
<text text-anchor="start" x="156" y="-85.5" font-family="Helvetica,sans-Serif" font-size="10.00">deal.II/base/template</text>
<text text-anchor="middle" x="208" y="-74.5" font-family="Helvetica,sans-Serif" font-size="10.00">_constraints.h</text>
</a>
</g>
</g>
<!-- Node8&#45;&gt;Node13 -->
<g id="edge27" class="edge">
<title>Node8&#45;&gt;Node13</title>
<path fill="none" stroke="midnightblue" d="M362.71,-335.4C310.33,-318.11 226.74,-284.46 171,-232 136.98,-199.98 111.05,-175.24 133,-134 139.94,-120.95 151.92,-110.67 164.3,-102.89"/>
<polygon fill="midnightblue" stroke="midnightblue" points="166.42,-105.7 173.31,-97.66 162.9,-99.65 166.42,-105.7"/>
</g>
<!-- Node8&#45;&gt;Node15 -->
<g id="edge28" class="edge">
<title>Node8&#45;&gt;Node15</title>
<path fill="none" stroke="midnightblue" d="M446.8,-335.4C476.01,-323.89 516.86,-307.8 544.76,-296.81"/>
<polygon fill="midnightblue" stroke="midnightblue" points="546.38,-299.93 554.41,-293.01 543.82,-293.42 546.38,-299.93"/>
</g>
<!-- Node9&#45;&gt;Node3 -->
<g id="edge14" class="edge">
<title>Node9&#45;&gt;Node3</title>
<path fill="none" stroke="midnightblue" d="M395.71,-226.1C381.3,-234.39 358.85,-248.55 347,-268 344.36,-272.33 328.76,-343.66 337,-366 361.87,-433.44 379.58,-453.36 442,-489 472.37,-506.34 559.6,-519.13 622.07,-526.56"/>
<polygon fill="midnightblue" stroke="midnightblue" points="621.92,-530.06 632.26,-527.75 622.73,-523.11 621.92,-530.06"/>
</g>
<!-- Node9&#45;&gt;Node10 -->
<g id="edge15" class="edge">
<title>Node9&#45;&gt;Node10</title>
<path fill="none" stroke="midnightblue" d="M452.54,-206.94C514.17,-195.08 625.38,-173.7 691.78,-160.93"/>
<polygon fill="midnightblue" stroke="midnightblue" points="692.48,-164.36 701.64,-159.03 691.15,-157.48 692.48,-164.36"/>
</g>
<!-- Node11 -->
<g id="node11" class="node">
<title>Node11</title>
<g id="a_node11"><a xlink:href="http://www.dealii.org/developer/doxygen/deal.II/adolc__math_8h.html" xlink:title=" ">
<polygon fill="none" stroke="black" points="142.5,-134.5 142.5,-164.5 261.5,-164.5 261.5,-134.5 142.5,-134.5"/>
<text text-anchor="start" x="150.5" y="-152.5" font-family="Helvetica,sans-Serif" font-size="10.00">deal.II/differentiation</text>
<text text-anchor="middle" x="202" y="-141.5" font-family="Helvetica,sans-Serif" font-size="10.00">/ad/adolc_math.h</text>
</a>
</g>
</g>
<!-- Node9&#45;&gt;Node11 -->
<g id="edge17" class="edge">
<title>Node9&#45;&gt;Node11</title>
<path fill="none" stroke="midnightblue" d="M380.64,-206.87C349,-196.88 296.12,-180.2 256.08,-167.56"/>
<polygon fill="midnightblue" stroke="midnightblue" points="257.05,-164.2 246.46,-164.53 254.94,-170.88 257.05,-164.2"/>
</g>
<!-- Node10&#45;&gt;Node3 -->
<g id="edge16" class="edge">
<title>Node10&#45;&gt;Node3</title>
<path fill="none" stroke="midnightblue" d="M749.47,-159.12C757.48,-198.26 762.97,-362.68 724,-489 720.94,-498.91 715.52,-509.08 709.67,-517.24"/>
<polygon fill="midnightblue" stroke="midnightblue" points="706.8,-515.22 703.24,-525.2 712.25,-519.62 706.8,-515.22"/>
</g>
<!-- Node11&#45;&gt;Node3 -->
<g id="edge18" class="edge">
<title>Node11&#45;&gt;Node3</title>
<path fill="none" stroke="midnightblue" d="M191.1,-164.72C184.23,-174.42 175.78,-187.85 171,-201 148.2,-263.7 149,-282.78 149,-349.5 149,-418.5 149,-418.5 149,-418.5 149,-465.23 184.26,-470.12 227,-489 296.04,-519.49 511.09,-529.45 622.13,-532.6"/>
<polygon fill="midnightblue" stroke="midnightblue" points="622.12,-536.1 632.21,-532.88 622.31,-529.1 622.12,-536.1"/>
</g>
<!-- Node12&#45;&gt;Node3 -->
<g id="edge20" class="edge">
<title>Node12&#45;&gt;Node3</title>
<path fill="none" stroke="midnightblue" d="M383.09,-164.53C364.88,-172.26 346.06,-183.88 335,-201 283.97,-279.99 313.89,-327.73 328,-366 352.87,-433.44 370.58,-453.36 433,-489 464.51,-506.99 557.2,-520.08 622.18,-527.37"/>
<polygon fill="midnightblue" stroke="midnightblue" points="622.03,-530.87 632.36,-528.48 622.8,-523.91 622.03,-530.87"/>
</g>
<!-- Node12&#45;&gt;Node6 -->
<g id="edge21" class="edge">
<title>Node12&#45;&gt;Node6</title>
<path fill="none" stroke="midnightblue" d="M483.5,-144.06C609.82,-132.95 940.2,-103.89 1092.73,-90.47"/>
<polygon fill="midnightblue" stroke="midnightblue" points="1093.3,-93.94 1102.96,-89.57 1092.69,-86.96 1093.3,-93.94"/>
</g>
<!-- Node12&#45;&gt;Node13 -->
<g id="edge22" class="edge">
<title>Node12&#45;&gt;Node13</title>
<path fill="none" stroke="midnightblue" d="M384.46,-134.48C349.97,-124.51 303.49,-111.09 266.89,-100.51"/>
<polygon fill="midnightblue" stroke="midnightblue" points="267.42,-97.02 256.85,-97.61 265.48,-103.75 267.42,-97.02"/>
</g>
<!-- Node13&#45;&gt;Node3 -->
<g id="edge23" class="edge">
<title>Node13&#45;&gt;Node3</title>
<path fill="none" stroke="midnightblue" d="M174.54,-97.59C157.03,-106.19 136.15,-118.52 121,-134 92.06,-163.57 76,-174.12 76,-215.5 76,-418.5 76,-418.5 76,-418.5 76,-473.61 126.16,-470.3 178,-489 257.93,-517.83 502.3,-528.67 622.2,-532.33"/>
<polygon fill="midnightblue" stroke="midnightblue" points="622.26,-535.83 632.36,-532.63 622.47,-528.84 622.26,-535.83"/>
</g>
<!-- Node14 -->
<g id="node14" class="node">
<title>Node14</title>
<g id="a_node14"><a xlink:href="http://www.dealii.org/developer/doxygen/deal.II/complex__overloads_8h.html" xlink:title=" ">
<polygon fill="none" stroke="black" points="149,-0.5 149,-30.5 267,-30.5 267,-0.5 149,-0.5"/>
<text text-anchor="start" x="157" y="-18.5" font-family="Helvetica,sans-Serif" font-size="10.00">deal.II/base/complex</text>
<text text-anchor="middle" x="208" y="-7.5" font-family="Helvetica,sans-Serif" font-size="10.00">_overloads.h</text>
</a>
</g>
</g>
<!-- Node13&#45;&gt;Node14 -->
<g id="edge24" class="edge">
<title>Node13&#45;&gt;Node14</title>
<path fill="none" stroke="midnightblue" d="M202.32,-67.4C201.29,-59.56 201.01,-49.6 201.46,-40.57"/>
<polygon fill="midnightblue" stroke="midnightblue" points="204.95,-40.84 202.33,-30.58 197.97,-40.24 204.95,-40.84"/>
</g>
<!-- Node14&#45;&gt;Node3 -->
<g id="edge25" class="edge">
<title>Node14&#45;&gt;Node3</title>
<path fill="none" stroke="midnightblue" d="M160.65,-30.64C110.34,-48.94 38,-86.1 38,-148.5 38,-418.5 38,-418.5 38,-418.5 38,-462.97 68.57,-470.48 109,-489 198.75,-530.12 489.34,-534.7 622.37,-534.55"/>
<polygon fill="midnightblue" stroke="midnightblue" points="622.45,-538.05 632.44,-534.53 622.43,-531.05 622.45,-538.05"/>
</g>
<!-- Node14&#45;&gt;Node13 -->
<g id="edge26" class="edge">
<title>Node14&#45;&gt;Node13</title>
<path fill="none" stroke="midnightblue" d="M213.67,-30.58C214.7,-38.41 214.99,-48.37 214.55,-57.4"/>
<polygon fill="midnightblue" stroke="midnightblue" points="211.06,-57.13 213.68,-67.4 218.03,-57.74 211.06,-57.13"/>
</g>
<!-- Node15&#45;&gt;Node3 -->
<g id="edge29" class="edge">
<title>Node15&#45;&gt;Node3</title>
<path fill="none" stroke="midnightblue" d="M591,-293.05C618.5,-309.76 676.01,-349.71 696,-402 710.62,-440.25 701.94,-489.33 695.34,-515.55"/>
<polygon fill="midnightblue" stroke="midnightblue" points="691.94,-514.72 692.71,-525.28 698.69,-516.54 691.94,-514.72"/>
</g>
<!-- Node15&#45;&gt;Node6 -->
<g id="edge30" class="edge">
<title>Node15&#45;&gt;Node6</title>
<path fill="none" stroke="midnightblue" d="M577.23,-273.92C581.48,-247.76 598.13,-168.68 648,-134 683.66,-109.2 955.35,-93.38 1092.83,-86.88"/>
<polygon fill="midnightblue" stroke="midnightblue" points="1093.07,-90.38 1102.9,-86.41 1092.74,-83.38 1093.07,-90.38"/>
</g>
<!-- Node15&#45;&gt;Node9 -->
<g id="edge31" class="edge">
<title>Node15&#45;&gt;Node9</title>
<path fill="none" stroke="midnightblue" d="M553.69,-273.87C524.49,-262.57 473.12,-242.7 439.84,-229.82"/>
<polygon fill="midnightblue" stroke="midnightblue" points="440.72,-226.41 430.13,-226.06 438.2,-232.94 440.72,-226.41"/>
</g>
<!-- Node15&#45;&gt;Node12 -->
<g id="edge32" class="edge">
<title>Node15&#45;&gt;Node12</title>
<path fill="none" stroke="midnightblue" d="M570.89,-273.83C561.26,-257.98 539.1,-223.87 514,-201 500.81,-188.98 484.39,-178.14 469.79,-169.61"/>
<polygon fill="midnightblue" stroke="midnightblue" points="471.4,-166.51 460.98,-164.61 467.95,-172.59 471.4,-166.51"/>
</g>
<!-- Node15&#45;&gt;Node13 -->
<g id="edge33" class="edge">
<title>Node15&#45;&gt;Node13</title>
<path fill="none" stroke="midnightblue" d="M574.14,-273.77C567.98,-247.17 545.44,-166.97 492,-134 457.04,-112.43 350.28,-97.77 278.09,-90.02"/>
<polygon fill="midnightblue" stroke="midnightblue" points="278.45,-86.54 268.14,-88.97 277.72,-93.5 278.45,-86.54"/>
</g>
<!-- Node16 -->
<g id="node16" class="node">
<title>Node16</title>
<g id="a_node16"><a xlink:href="http://www.dealii.org/developer/doxygen/deal.II/tensor__accessors_8h.html" xlink:title=" ">
<polygon fill="none" stroke="black" points="180.5,-201.5 180.5,-231.5 287.5,-231.5 287.5,-201.5 180.5,-201.5"/>
<text text-anchor="start" x="188.5" y="-219.5" font-family="Helvetica,sans-Serif" font-size="10.00">deal.II/base/tensor</text>
<text text-anchor="middle" x="234" y="-208.5" font-family="Helvetica,sans-Serif" font-size="10.00">_accessors.h</text>
</a>
</g>
</g>
<!-- Node15&#45;&gt;Node16 -->
<g id="edge34" class="edge">
<title>Node15&#45;&gt;Node16</title>
<path fill="none" stroke="midnightblue" d="M530.94,-273.94C471.24,-262.59 365.6,-242.51 297.75,-229.62"/>
<polygon fill="midnightblue" stroke="midnightblue" points="298.09,-226.12 287.61,-227.69 296.78,-232.99 298.09,-226.12"/>
</g>
<!-- Node15&#45;&gt;Node17 -->
<g id="edge38" class="edge">
<title>Node15&#45;&gt;Node17</title>
<path fill="none" stroke="midnightblue" d="M634.24,-276.7C754,-264.78 1027.56,-237.55 1157.68,-224.6"/>
<polygon fill="midnightblue" stroke="midnightblue" points="1158.33,-228.05 1167.94,-223.58 1157.64,-221.09 1158.33,-228.05"/>
</g>
<!-- Node16&#45;&gt;Node3 -->
<g id="edge35" class="edge">
<title>Node16&#45;&gt;Node3</title>
<path fill="none" stroke="midnightblue" d="M225.38,-231.56C211.81,-255.07 187,-304.25 187,-349.5 187,-418.5 187,-418.5 187,-418.5 187,-506.7 484.48,-527.55 621.89,-532.48"/>
<polygon fill="midnightblue" stroke="midnightblue" points="622.19,-535.99 632.3,-532.83 622.42,-528.99 622.19,-535.99"/>
</g>
<!-- Node16&#45;&gt;Node12 -->
<g id="edge36" class="edge">
<title>Node16&#45;&gt;Node12</title>
<path fill="none" stroke="midnightblue" d="M277.18,-201.4C307.43,-191.52 348.03,-178.25 380.21,-167.74"/>
<polygon fill="midnightblue" stroke="midnightblue" points="381.49,-171.01 389.9,-164.58 379.31,-164.35 381.49,-171.01"/>
</g>
<!-- Node16&#45;&gt;Node13 -->
<g id="edge37" class="edge">
<title>Node16&#45;&gt;Node13</title>
<path fill="none" stroke="midnightblue" d="M248.05,-201.26C262.39,-184.91 281.09,-157.33 270,-134 264.17,-121.73 253.74,-111.46 243.08,-103.46"/>
<polygon fill="midnightblue" stroke="midnightblue" points="244.77,-100.37 234.56,-97.53 240.77,-106.12 244.77,-100.37"/>
</g>
<!-- Node17&#45;&gt;Node3 -->
<g id="edge39" class="edge">
<title>Node17&#45;&gt;Node3</title>
<path fill="none" stroke="midnightblue" d="M1225.7,-226.04C1210.35,-264.45 1141.89,-422.26 1029,-489 984.43,-515.35 843.24,-526.68 757.77,-531.23"/>
<polygon fill="midnightblue" stroke="midnightblue" points="757.44,-527.74 747.64,-531.75 757.8,-534.73 757.44,-527.74"/>
</g>
<!-- Node17&#45;&gt;Node6 -->
<g id="edge40" class="edge">
<title>Node17&#45;&gt;Node6</title>
<path fill="none" stroke="midnightblue" d="M1225.26,-206.84C1216.04,-185.49 1192.07,-129.98 1179.67,-101.27"/>
<polygon fill="midnightblue" stroke="midnightblue" points="1182.86,-99.81 1175.68,-92.02 1176.43,-102.59 1182.86,-99.81"/>
</g>
<!-- Node18&#45;&gt;Node3 -->
<g id="edge43" class="edge">
<title>Node18&#45;&gt;Node3</title>
<path fill="none" stroke="midnightblue" d="M840.38,-432.71C828.31,-448.12 807.35,-472.69 785,-489 766.29,-502.65 742.79,-513.82 723.85,-521.62"/>
<polygon fill="midnightblue" stroke="midnightblue" points="722.4,-518.43 714.4,-525.39 724.99,-524.93 722.4,-518.43"/>
</g>
<!-- Node18&#45;&gt;Node4 -->
<g id="edge56" class="edge">
<title>Node18&#45;&gt;Node4</title>
<path fill="none" stroke="midnightblue" d="M812.89,-432.56C778.62,-443.99 729.03,-459.76 696.82,-469.39"/>
<polygon fill="midnightblue" stroke="midnightblue" points="695.61,-466.1 687.01,-472.29 697.6,-472.81 695.61,-466.1"/>
</g>
<!-- Node18&#45;&gt;Node6 -->
<g id="edge44" class="edge">
<title>Node18&#45;&gt;Node6</title>
<path fill="none" stroke="midnightblue" d="M902.5,-413.44C949.07,-408.71 1018.1,-396.66 1070,-366 1104.42,-345.67 1112.2,-334.79 1130,-299 1147.29,-264.23 1163.66,-148.31 1169.62,-102.43"/>
<polygon fill="midnightblue" stroke="midnightblue" points="1173.11,-102.73 1170.91,-92.37 1166.17,-101.84 1173.11,-102.73"/>
</g>
<!-- Node18&#45;&gt;Node17 -->
<g id="edge55" class="edge">
<title>Node18&#45;&gt;Node17</title>
<path fill="none" stroke="midnightblue" d="M839.8,-402.37C814.49,-369.63 756.55,-289.74 776,-268 800.93,-240.14 1035.94,-225.89 1157.26,-220.34"/>
<polygon fill="midnightblue" stroke="midnightblue" points="1157.74,-223.82 1167.57,-219.88 1157.43,-216.83 1157.74,-223.82"/>
</g>
<!-- Node19 -->
<g id="node19" class="node">
<title>Node19</title>
<g id="a_node19"><a xlink:href="http://www.dealii.org/developer/doxygen/deal.II/thread__management_8h.html" xlink:title=" ">
<polygon fill="none" stroke="black" points="953.5,-335.5 953.5,-365.5 1060.5,-365.5 1060.5,-335.5 953.5,-335.5"/>
<text text-anchor="start" x="961.5" y="-353.5" font-family="Helvetica,sans-Serif" font-size="10.00">deal.II/base/thread</text>
<text text-anchor="middle" x="1007" y="-342.5" font-family="Helvetica,sans-Serif" font-size="10.00">_management.h</text>
</a>
</g>
</g>
<!-- Node18&#45;&gt;Node19 -->
<g id="edge45" class="edge">
<title>Node18&#45;&gt;Node19</title>
<path fill="none" stroke="midnightblue" d="M884.85,-402.4C908.05,-392.73 939.03,-379.82 963.98,-369.43"/>
<polygon fill="midnightblue" stroke="midnightblue" points="965.33,-372.65 973.22,-365.58 962.64,-366.19 965.33,-372.65"/>
</g>
<!-- Node19&#45;&gt;Node3 -->
<g id="edge46" class="edge">
<title>Node19&#45;&gt;Node3</title>
<path fill="none" stroke="midnightblue" d="M1009.31,-365.57C1013.01,-393.46 1016.75,-455.93 983,-489 951.91,-519.46 833.98,-529.32 757.55,-532.49"/>
<polygon fill="midnightblue" stroke="midnightblue" points="757.37,-529 747.51,-532.88 757.64,-535.99 757.37,-529"/>
</g>
<!-- Node19&#45;&gt;Node6 -->
<g id="edge47" class="edge">
<title>Node19&#45;&gt;Node6</title>
<path fill="none" stroke="midnightblue" d="M1058.98,-335.42C1077.7,-327.71 1097.11,-316.12 1109,-299 1151.04,-238.44 1095.89,-201.29 1126,-134 1132.05,-120.47 1143.16,-108.11 1152.95,-99.01"/>
<polygon fill="midnightblue" stroke="midnightblue" points="1155.52,-101.41 1160.71,-92.17 1150.9,-96.15 1155.52,-101.41"/>
</g>
<!-- Node19&#45;&gt;Node13 -->
<g id="edge54" class="edge">
<title>Node19&#45;&gt;Node13</title>
<path fill="none" stroke="midnightblue" d="M992.68,-335.07C982.82,-325.06 969.48,-311.35 958,-299 891.12,-227.07 898.86,-177.89 811,-134 719.31,-88.2 417.1,-82.88 278.54,-82.94"/>
<polygon fill="midnightblue" stroke="midnightblue" points="278.44,-79.44 268.45,-82.95 278.45,-86.44 278.44,-79.44"/>
</g>
<!-- Node20 -->
<g id="node20" class="node">
<title>Node20</title>
<g id="a_node20"><a xlink:href="http://www.dealii.org/developer/doxygen/deal.II/multithread__info_8h.html" xlink:title=" ">
<polygon fill="none" stroke="black" points="966.5,-268.5 966.5,-298.5 1099.5,-298.5 1099.5,-268.5 966.5,-268.5"/>
<text text-anchor="start" x="974.5" y="-286.5" font-family="Helvetica,sans-Serif" font-size="10.00">deal.II/base/multithread</text>
<text text-anchor="middle" x="1033" y="-275.5" font-family="Helvetica,sans-Serif" font-size="10.00">_info.h</text>
</a>
</g>
</g>
<!-- Node19&#45;&gt;Node20 -->
<g id="edge48" class="edge">
<title>Node19&#45;&gt;Node20</title>
<path fill="none" stroke="midnightblue" d="M1012.64,-335.4C1015.84,-327.39 1019.94,-317.16 1023.61,-307.98"/>
<polygon fill="midnightblue" stroke="midnightblue" points="1026.91,-309.16 1027.37,-298.58 1020.41,-306.56 1026.91,-309.16"/>
</g>
<!-- Node21 -->
<g id="node21" class="node">
<title>Node21</title>
<g id="a_node21"><a xlink:href="http://www.dealii.org/developer/doxygen/deal.II/tuple_8h.html" xlink:title=" ">
<polygon fill="none" stroke="black" points="784.5,-268.5 784.5,-298.5 909.5,-298.5 909.5,-268.5 784.5,-268.5"/>
<text text-anchor="start" x="792.5" y="-286.5" font-family="Helvetica,sans-Serif" font-size="10.00">deal.II/base/std_cxx17</text>
<text text-anchor="middle" x="847" y="-275.5" font-family="Helvetica,sans-Serif" font-size="10.00">/tuple.h</text>
</a>
</g>
</g>
<!-- Node19&#45;&gt;Node21 -->
<g id="edge52" class="edge">
<title>Node19&#45;&gt;Node21</title>
<path fill="none" stroke="midnightblue" d="M972.28,-335.4C948.49,-325.73 916.72,-312.82 891.13,-302.43"/>
<polygon fill="midnightblue" stroke="midnightblue" points="892.23,-299.1 881.65,-298.58 889.6,-305.58 892.23,-299.1"/>
</g>
<!-- Node20&#45;&gt;Node3 -->
<g id="edge49" class="edge">
<title>Node20&#45;&gt;Node3</title>
<path fill="none" stroke="midnightblue" d="M1047.11,-298.54C1055.55,-307.97 1065.47,-321.16 1070,-335 1074.28,-348.09 1073.36,-352.64 1070,-366 1054.88,-426.17 1054.84,-453.44 1004,-489 965.32,-516.05 837.65,-527.05 757.51,-531.37"/>
<polygon fill="midnightblue" stroke="midnightblue" points="757.31,-527.87 747.5,-531.89 757.67,-534.86 757.31,-527.87"/>
</g>
<!-- Node20&#45;&gt;Node6 -->
<g id="edge50" class="edge">
<title>Node20&#45;&gt;Node6</title>
<path fill="none" stroke="midnightblue" d="M1035.05,-268.25C1039.78,-239.83 1053.79,-175.28 1088,-134 1101.83,-117.31 1122.7,-104.72 1140.18,-96.29"/>
<polygon fill="midnightblue" stroke="midnightblue" points="1141.84,-99.38 1149.47,-92.03 1138.92,-93.02 1141.84,-99.38"/>
</g>
<!-- Node20&#45;&gt;Node10 -->
<g id="edge51" class="edge">
<title>Node20&#45;&gt;Node10</title>
<path fill="none" stroke="midnightblue" d="M1002.56,-268.5C946.6,-242.76 828.2,-188.3 774.07,-163.41"/>
<polygon fill="midnightblue" stroke="midnightblue" points="775.28,-160.12 764.74,-159.12 772.36,-166.48 775.28,-160.12"/>
</g>
<!-- Node21&#45;&gt;Node3 -->
<g id="edge53" class="edge">
<title>Node21&#45;&gt;Node3</title>
<path fill="none" stroke="midnightblue" d="M861.9,-298.56C888.67,-325.59 939.66,-386.26 912,-433 879.99,-487.09 810.47,-512.41 757.69,-524.14"/>
<polygon fill="midnightblue" stroke="midnightblue" points="756.78,-520.75 747.71,-526.24 758.22,-527.6 756.78,-520.75"/>
</g>
<!-- Node22&#45;&gt;Node3 -->
<g id="edge58" class="edge">
<title>Node22&#45;&gt;Node3</title>
<path fill="none" stroke="midnightblue" d="M621.57,-427.42C621.29,-441.5 622.43,-469.3 634,-489 641.43,-501.64 653.85,-512.16 665.1,-519.85"/>
<polygon fill="midnightblue" stroke="midnightblue" points="663.45,-522.95 673.76,-525.38 667.22,-517.05 663.45,-522.95"/>
</g>
<!-- Node23&#45;&gt;Node3 -->
<g id="edge64" class="edge">
<title>Node23&#45;&gt;Node3</title>
<path fill="none" stroke="midnightblue" d="M1000.47,-649.08C962.82,-639.91 913.05,-626.76 870,-612 814.66,-593.02 752.18,-565.12 717.31,-548.93"/>
<polygon fill="midnightblue" stroke="midnightblue" points="718.36,-545.56 707.82,-544.5 715.4,-551.9 718.36,-545.56"/>
</g>
<!-- Node23&#45;&gt;Node6 -->
<g id="edge65" class="edge">
<title>Node23&#45;&gt;Node6</title>
<path fill="none" stroke="midnightblue" d="M1072.54,-648.47C1120.21,-597.78 1279.31,-417.28 1314,-232 1322.38,-187.23 1316.17,-166.25 1284,-134 1265.5,-115.45 1238.97,-103.08 1216.37,-95.22"/>
<polygon fill="midnightblue" stroke="midnightblue" points="1217.23,-91.82 1206.64,-92.03 1215.05,-98.47 1217.23,-91.82"/>
</g>
<!-- Node24 -->
<g id="node24" class="node">
<title>Node24</title>
<g id="a_node24"><a xlink:href="http://www.dealii.org/developer/doxygen/deal.II/memory__consumption_8h.html" xlink:title=" ">
<polygon fill="none" stroke="black" points="878.5,-581.5 878.5,-611.5 995.5,-611.5 995.5,-581.5 878.5,-581.5"/>
<text text-anchor="start" x="886.5" y="-599.5" font-family="Helvetica,sans-Serif" font-size="10.00">deal.II/base/memory</text>
<text text-anchor="middle" x="937" y="-588.5" font-family="Helvetica,sans-Serif" font-size="10.00">_consumption.h</text>
</a>
</g>
</g>
<!-- Node23&#45;&gt;Node24 -->
<g id="edge66" class="edge">
<title>Node23&#45;&gt;Node24</title>
<path fill="none" stroke="midnightblue" d="M1032.53,-648.4C1014.94,-639.03 991.65,-626.62 972.46,-616.39"/>
<polygon fill="midnightblue" stroke="midnightblue" points="973.89,-613.19 963.42,-611.58 970.6,-619.37 973.89,-613.19"/>
</g>
<!-- Node24&#45;&gt;Node3 -->
<g id="edge67" class="edge">
<title>Node24&#45;&gt;Node3</title>
<path fill="none" stroke="midnightblue" d="M878.78,-581.47C834.86,-570.9 775.49,-556.59 735.14,-546.87"/>
<polygon fill="midnightblue" stroke="midnightblue" points="735.85,-543.45 725.31,-544.51 734.21,-550.25 735.85,-543.45"/>
</g>
<!-- Node25&#45;&gt;Node3 -->
<g id="edge69" class="edge">
<title>Node25&#45;&gt;Node3</title>
<path fill="none" stroke="midnightblue" d="M1220.98,-715.32C1202.19,-700.69 1162.56,-670.51 1127,-648 1074.73,-614.91 1063.68,-600.58 1005,-581 922.68,-553.53 822.77,-542.83 757.86,-538.66"/>
<polygon fill="midnightblue" stroke="midnightblue" points="757.94,-535.16 747.75,-538.05 757.52,-542.15 757.94,-535.16"/>
</g>
<!-- Node25&#45;&gt;Node6 -->
<g id="edge70" class="edge">
<title>Node25&#45;&gt;Node6</title>
<path fill="none" stroke="midnightblue" d="M1294.63,-721.95C1376.06,-715.55 1508,-690.8 1508,-597.5 1508,-597.5 1508,-597.5 1508,-215.5 1508,-162.84 1468.73,-158.27 1422,-134 1368.95,-106.45 1302.33,-93.92 1251.2,-88.22"/>
<polygon fill="midnightblue" stroke="midnightblue" points="1251.5,-84.73 1241.19,-87.17 1250.77,-91.69 1251.5,-84.73"/>
</g>
<!-- Node25&#45;&gt;Node13 -->
<g id="edge78" class="edge">
<title>Node25&#45;&gt;Node13</title>
<path fill="none" stroke="midnightblue" d="M1169.21,-716.09C918.15,-684.28 0,-565.89 0,-536 0,-536 0,-536 0,-215.5 0,-148.65 77.53,-114.23 137.93,-97.55"/>
<polygon fill="midnightblue" stroke="midnightblue" points="139.07,-100.87 147.84,-94.93 137.28,-94.1 139.07,-100.87"/>
</g>
<!-- Node25&#45;&gt;Node17 -->
<g id="edge79" class="edge">
<title>Node25&#45;&gt;Node17</title>
<path fill="none" stroke="midnightblue" d="M1294.53,-717.7C1365.05,-706.73 1470,-677.05 1470,-597.5 1470,-597.5 1470,-597.5 1470,-534 1470,-390.46 1311.16,-271.38 1251.39,-231.65"/>
<polygon fill="midnightblue" stroke="midnightblue" points="1253.28,-228.71 1243,-226.17 1249.45,-234.57 1253.28,-228.71"/>
</g>
<!-- Node25&#45;&gt;Node23 -->
<g id="edge80" class="edge">
<title>Node25&#45;&gt;Node23</title>
<path fill="none" stroke="midnightblue" d="M1207.21,-715.48C1181.81,-706.74 1141.6,-692.91 1109.46,-681.86"/>
<polygon fill="midnightblue" stroke="midnightblue" points="1110.37,-678.47 1099.77,-678.52 1108.09,-685.09 1110.37,-678.47"/>
</g>
<!-- Node26 -->
<g id="node26" class="node">
<title>Node26</title>
<g id="a_node26"><a xlink:href="http://www.dealii.org/developer/doxygen/deal.II/base_2point_8h.html" xlink:title=" ">
<polygon fill="none" stroke="black" points="1332,-587 1332,-606 1442,-606 1442,-587 1332,-587"/>
<text text-anchor="middle" x="1387" y="-594" font-family="Helvetica,sans-Serif" font-size="10.00">deal.II/base/point.h</text>
</a>
</g>
</g>
<!-- Node25&#45;&gt;Node26 -->
<g id="edge71" class="edge">
<title>Node25&#45;&gt;Node26</title>
<path fill="none" stroke="midnightblue" d="M1242.65,-715.31C1268.65,-694.09 1335.58,-639.46 1368.36,-612.72"/>
<polygon fill="midnightblue" stroke="midnightblue" points="1370.74,-615.29 1376.27,-606.26 1366.31,-609.87 1370.74,-615.29"/>
</g>
<!-- Node27 -->
<g id="node27" class="node">
<title>Node27</title>
<g id="a_node27"><a xlink:href="http://www.dealii.org/developer/doxygen/deal.II/subscriptor_8h.html" xlink:title=" ">
<polygon fill="none" stroke="black" points="1174.5,-587 1174.5,-606 1313.5,-606 1313.5,-587 1174.5,-587"/>
<text text-anchor="middle" x="1244" y="-594" font-family="Helvetica,sans-Serif" font-size="10.00">deal.II/base/subscriptor.h</text>
</a>
</g>
</g>
<!-- Node25&#45;&gt;Node27 -->
<g id="edge75" class="edge">
<title>Node25&#45;&gt;Node27</title>
<path fill="none" stroke="midnightblue" d="M1232.82,-715.31C1234.75,-694.99 1239.58,-644.05 1242.22,-616.28"/>
<polygon fill="midnightblue" stroke="midnightblue" points="1245.71,-616.54 1243.17,-606.26 1238.74,-615.88 1245.71,-616.54"/>
</g>
<!-- Node26&#45;&gt;Node3 -->
<g id="edge72" class="edge">
<title>Node26&#45;&gt;Node3</title>
<path fill="none" stroke="midnightblue" d="M1353.63,-586.93C1343.82,-584.69 1333.03,-582.48 1323,-581 1118.82,-550.79 874.48,-540.7 758.1,-537.46"/>
<polygon fill="midnightblue" stroke="midnightblue" points="758.01,-533.95 747.92,-537.18 757.82,-540.95 758.01,-533.95"/>
</g>
<!-- Node26&#45;&gt;Node6 -->
<g id="edge73" class="edge">
<title>Node26&#45;&gt;Node6</title>
<path fill="none" stroke="midnightblue" d="M1392.88,-586.96C1405.08,-568.4 1432,-522.61 1432,-480 1432,-480 1432,-480 1432,-215.5 1432,-175.53 1425.1,-159.1 1394,-134 1371.67,-115.97 1303.24,-102.15 1248.2,-93.56"/>
<polygon fill="midnightblue" stroke="midnightblue" points="1248.5,-90.07 1238.09,-92.02 1247.45,-96.99 1248.5,-90.07"/>
</g>
<!-- Node26&#45;&gt;Node15 -->
<g id="edge74" class="edge">
<title>Node26&#45;&gt;Node15</title>
<path fill="none" stroke="midnightblue" d="M1366.77,-586.83C1301.42,-558.92 1089.82,-469.26 912,-402 803.32,-360.89 673.02,-316.78 611.49,-296.26"/>
<polygon fill="midnightblue" stroke="midnightblue" points="612.47,-292.89 601.87,-293.05 610.26,-299.53 612.47,-292.89"/>
</g>
<!-- Node27&#45;&gt;Node3 -->
<g id="edge76" class="edge">
<title>Node27&#45;&gt;Node3</title>
<path fill="none" stroke="midnightblue" d="M1174.4,-588.02C1067.38,-576.53 863.74,-554.66 757.81,-543.28"/>
<polygon fill="midnightblue" stroke="midnightblue" points="757.88,-539.77 747.56,-542.18 757.13,-546.73 757.88,-539.77"/>
</g>
<!-- Node27&#45;&gt;Node6 -->
<g id="edge77" class="edge">
<title>Node27&#45;&gt;Node6</title>
<path fill="none" stroke="midnightblue" d="M1252.59,-586.97C1269.22,-569.93 1305.89,-529.81 1325,-489 1392.46,-344.97 1467.58,-259.59 1370,-134 1355.06,-114.77 1299.2,-101.64 1250.6,-93.6"/>
<polygon fill="midnightblue" stroke="midnightblue" points="1251.1,-90.14 1240.68,-92.01 1250,-97.05 1251.1,-90.14"/>
</g>
</g>
</svg>
        <g id="navigator" transform="translate(0 0)" fill="#404254">
                <rect fill="#f2f5e9" fill-opacity="0.5" stroke="#606060" stroke-width=".5" x="0" y="0" width="60" height="60"/>
                <use id="zoomplus" xlink:href="#zoomPlus" x="17" y="9" onmousedown="handleZoom(evt,'in')"/>
                <use id="zoomminus" xlink:href="#zoomMin" x="42" y="9" onmousedown="handleZoom(evt,'out')"/>
                <use id="reset" xlink:href="#resetDef" x="30" y="36" onmousedown="handleReset()"/>
                <g id="arrowUp" xlink:href="#dirArrow" transform="translate(30 24)" onmousedown="handlePan(0,-1)">
                  <use xlink:href="#rim" fill="#404040">
                        <set attributeName="fill" to="#808080" begin="arrowUp.mouseover" end="arrowUp.mouseout"/>
                  </use>
                  <path fill="none" stroke="white" stroke-width="1.5" d="M0,-3.0v7 M-2.5,-0.5L0,-3.0L2.5,-0.5"/>
                </g>
                <g id="arrowRight" xlink:href="#dirArrow" transform="rotate(90) translate(36 -43)" onmousedown="handlePan(1,0)">
                  <use xlink:href="#rim" fill="#404040">
                        <set attributeName="fill" to="#808080" begin="arrowRight.mouseover" end="arrowRight.mouseout"/>
                  </use>
                  <path fill="none" stroke="white" stroke-width="1.5" d="M0,-3.0v7 M-2.5,-0.5L0,-3.0L2.5,-0.5"/>
                </g>
                <g id="arrowDown" xlink:href="#dirArrow" transform="rotate(180) translate(-30 -48)" onmousedown="handlePan(0,1)">
                  <use xlink:href="#rim" fill="#404040">
                        <set attributeName="fill" to="#808080" begin="arrowDown.mouseover" end="arrowDown.mouseout"/>
                  </use>
                  <path fill="none" stroke="white" stroke-width="1.5" d="M0,-3.0v7 M-2.5,-0.5L0,-3.0L2.5,-0.5"/>
                </g>
                <g id="arrowLeft" xlink:href="#dirArrow" transform="rotate(270) translate(-36 17)" onmousedown="handlePan(-1,0)">
                  <use xlink:href="#rim" fill="#404040">
                        <set attributeName="fill" to="#808080" begin="arrowLeft.mouseover" end="arrowLeft.mouseout"/>
                  </use>
                  <path fill="none" stroke="white" stroke-width="1.5" d="M0,-3.0v7 M-2.5,-0.5L0,-3.0L2.5,-0.5"/>
                </g>
        </g>
        <svg viewBox="0 0 15 15" width="100%" height="30px" preserveAspectRatio="xMaxYMin meet">
         <g id="arrow_out" transform="scale(0.3 0.3)">
          <a xlink:href="components_8cc__incl_org.svg" target="_base">
           <rect id="button" ry="5" rx="5" y="6" x="6" height="38" width="38"
                fill="#f2f5e9" fill-opacity="0.5" stroke="#606060" stroke-width="1.0"/>
           <path id="arrow"
             d="M 11.500037,31.436501 C 11.940474,20.09759 22.043105,11.32322 32.158766,21.979434 L 37.068811,17.246167 C 37.068811,17.246167 37.088388,32 37.088388,32 L 22.160133,31.978069 C 22.160133,31.978069 26.997745,27.140456 26.997745,27.140456 C 18.528582,18.264221 13.291696,25.230495 11.500037,31.436501 z"
             style="fill:#404040;"/>
          </a>
         </g>
        </svg>
</svg>
