<?xml version="1.0" encoding="UTF-8" standalone="no"?>
<!DOCTYPE svg PUBLIC "-//W3C//DTD SVG 1.1//EN"
 "http://www.w3.org/Graphics/SVG/1.1/DTD/svg11.dtd">
<!-- Generated by graphviz version 2.43.0 (0)
 -->
<!-- Title: include/parsed_tools/components.h Pages: 1 -->
<svg width="2621pt" height="307pt"
 viewBox="0.00 0.00 2621.00 307.00" xmlns="http://www.w3.org/2000/svg" xmlns:xlink="http://www.w3.org/1999/xlink">
<g id="graph0" class="graph" transform="scale(1 1) rotate(0) translate(4 303)">
<title>include/parsed_tools/components.h</title>
<!-- Node1 -->
<g id="node1" class="node">
<title>Node1</title>
<g id="a_node1"><a xlink:title=" ">
<polygon fill="#bfbfbf" stroke="black" points="2072.5,-268.5 2072.5,-298.5 2189.5,-298.5 2189.5,-268.5 2072.5,-268.5"/>
<text text-anchor="start" x="2080.5" y="-286.5" font-family="Helvetica,sans-Serif" font-size="10.00">include/parsed_tools</text>
<text text-anchor="middle" x="2131" y="-275.5" font-family="Helvetica,sans-Serif" font-size="10.00">/components.h</text>
</a>
</g>
</g>
<!-- Node2 -->
<g id="node2" class="node">
<title>Node2</title>
<g id="a_node2"><a xlink:href="boundary__conditions_8h.html" target="_top" xlink:title=" ">
<polygon fill="none" stroke="black" points="1008,-201.5 1008,-231.5 1138,-231.5 1138,-201.5 1008,-201.5"/>
<text text-anchor="start" x="1016" y="-219.5" font-family="Helvetica,sans-Serif" font-size="10.00">include/parsed_tools</text>
<text text-anchor="middle" x="1073" y="-208.5" font-family="Helvetica,sans-Serif" font-size="10.00">/boundary_conditions.h</text>
</a>
</g>
</g>
<!-- Node1&#45;&gt;Node2 -->
<g id="edge1" class="edge">
<title>Node1&#45;&gt;Node2</title>
<path fill="none" stroke="midnightblue" d="M2062.23,-278.27C1869.56,-266.44 1326.3,-233.06 1138.13,-221.5"/>
<polygon fill="midnightblue" stroke="midnightblue" points="2062.03,-281.77 2072.23,-278.89 2062.46,-274.78 2062.03,-281.77"/>
</g>
<!-- Node9 -->
<g id="node9" class="node">
<title>Node9</title>
<g id="a_node9"><a xlink:href="source_2pdes_2linear__elasticity_8cc.html" target="_top" xlink:title=" ">
<polygon fill="none" stroke="black" points="2497,-0.5 2497,-30.5 2603,-30.5 2603,-0.5 2497,-0.5"/>
<text text-anchor="start" x="2505" y="-18.5" font-family="Helvetica,sans-Serif" font-size="10.00">source/pdes/linear</text>
<text text-anchor="middle" x="2550" y="-7.5" font-family="Helvetica,sans-Serif" font-size="10.00">_elasticity.cc</text>
</a>
</g>
</g>
<!-- Node1&#45;&gt;Node9 -->
<g id="edge38" class="edge">
<title>Node1&#45;&gt;Node9</title>
<path fill="none" stroke="midnightblue" d="M2161.94,-262.86C2242.63,-211.63 2458.01,-74.9 2527.82,-30.58"/>
<polygon fill="midnightblue" stroke="midnightblue" points="2159.8,-260.07 2153.23,-268.39 2163.55,-265.98 2159.8,-260.07"/>
</g>
<!-- Node13 -->
<g id="node13" class="node">
<title>Node13</title>
<g id="a_node13"><a xlink:href="source_2pdes_2linear__visco__elasticity_8cc.html" target="_top" xlink:title=" ">
<polygon fill="none" stroke="black" points="2076,-0.5 2076,-30.5 2186,-30.5 2186,-0.5 2076,-0.5"/>
<text text-anchor="start" x="2084" y="-18.5" font-family="Helvetica,sans-Serif" font-size="10.00">source/pdes/linear</text>
<text text-anchor="middle" x="2131" y="-7.5" font-family="Helvetica,sans-Serif" font-size="10.00">_visco_elasticity.cc</text>
</a>
</g>
</g>
<!-- Node1&#45;&gt;Node13 -->
<g id="edge39" class="edge">
<title>Node1&#45;&gt;Node13</title>
<path fill="none" stroke="midnightblue" d="M2131,-258.07C2131,-203.57 2131,-73.52 2131,-30.55"/>
<polygon fill="midnightblue" stroke="midnightblue" points="2127.5,-258.2 2131,-268.2 2134.5,-258.2 2127.5,-258.2"/>
</g>
<!-- Node20 -->
<g id="node20" class="node">
<title>Node20</title>
<g id="a_node20"><a xlink:href="source_2pdes_2stokes_8cc.html" target="_top" xlink:title=" ">
<polygon fill="none" stroke="black" points="1664.5,-6 1664.5,-25 1787.5,-25 1787.5,-6 1664.5,-6"/>
<text text-anchor="middle" x="1726" y="-13" font-family="Helvetica,sans-Serif" font-size="10.00">source/pdes/stokes.cc</text>
</a>
</g>
</g>
<!-- Node1&#45;&gt;Node20 -->
<g id="edge40" class="edge">
<title>Node1&#45;&gt;Node20</title>
<path fill="none" stroke="midnightblue" d="M2100.69,-262.59C2018.78,-208.8 1795.4,-62.08 1739.04,-25.07"/>
<polygon fill="midnightblue" stroke="midnightblue" points="2099.23,-265.82 2109.51,-268.39 2103.07,-259.97 2099.23,-265.82"/>
</g>
<!-- Node35 -->
<g id="node35" class="node">
<title>Node35</title>
<g id="a_node35"><a xlink:href="boundary__conditions_8cc.html" target="_top" xlink:title=" ">
<polygon fill="none" stroke="black" points="1556.5,-140 1556.5,-159 1723.5,-159 1723.5,-140 1556.5,-140"/>
<text text-anchor="middle" x="1640" y="-147" font-family="Helvetica,sans-Serif" font-size="10.00">source/boundary_conditions.cc</text>
</a>
</g>
</g>
<!-- Node1&#45;&gt;Node35 -->
<g id="edge36" class="edge">
<title>Node1&#45;&gt;Node35</title>
<path fill="none" stroke="midnightblue" d="M2062.25,-280.06C1990.75,-275.8 1876.41,-264.11 1783,-232 1730.3,-213.89 1674.92,-176.08 1651.51,-159.09"/>
<polygon fill="midnightblue" stroke="midnightblue" points="2062.3,-283.57 2072.49,-280.64 2062.7,-276.58 2062.3,-283.57"/>
</g>
<!-- Node36 -->
<g id="node36" class="node">
<title>Node36</title>
<g id="a_node36"><a xlink:href="components_8cc.html" target="_top" xlink:title=" ">
<polygon fill="none" stroke="black" points="2359.5,-207 2359.5,-226 2484.5,-226 2484.5,-207 2359.5,-207"/>
<text text-anchor="middle" x="2422" y="-214" font-family="Helvetica,sans-Serif" font-size="10.00">source/components.cc</text>
</a>
</g>
</g>
<!-- Node1&#45;&gt;Node36 -->
<g id="edge37" class="edge">
<title>Node1&#45;&gt;Node36</title>
<path fill="none" stroke="midnightblue" d="M2199.65,-267.17C2257.19,-254.31 2337.23,-236.43 2383.93,-226"/>
<polygon fill="midnightblue" stroke="midnightblue" points="2198.53,-263.83 2189.54,-269.42 2200.06,-270.66 2198.53,-263.83"/>
</g>
<!-- Node37 -->
<g id="node37" class="node">
<title>Node37</title>
<g id="a_node37"><a xlink:href="dof__plotter_8cc.html" target="_top" xlink:title="Degrees of freedom plotter.">
<polygon fill="none" stroke="black" points="2503,-207 2503,-226 2613,-226 2613,-207 2503,-207"/>
<text text-anchor="middle" x="2558" y="-214" font-family="Helvetica,sans-Serif" font-size="10.00">apps/dof_plotter.cc</text>
</a>
</g>
</g>
<!-- Node1&#45;&gt;Node37 -->
<g id="edge41" class="edge">
<title>Node1&#45;&gt;Node37</title>
<path fill="none" stroke="midnightblue" d="M2199.73,-274.69C2272.94,-265.97 2392.07,-250.6 2494,-232 2503.41,-230.28 2513.54,-228.13 2522.9,-226.01"/>
<polygon fill="midnightblue" stroke="midnightblue" points="2199.23,-271.23 2189.71,-275.88 2200.06,-278.18 2199.23,-271.23"/>
</g>
<!-- Node3 -->
<g id="node3" class="node">
<title>Node3</title>
<g id="a_node3"><a xlink:href="distributed__lagrange_8h.html" target="_top" xlink:title=" ">
<polygon fill="none" stroke="black" points="1109,-67.5 1109,-97.5 1243,-97.5 1243,-67.5 1109,-67.5"/>
<text text-anchor="start" x="1117" y="-85.5" font-family="Helvetica,sans-Serif" font-size="10.00">include/pdes/distributed</text>
<text text-anchor="middle" x="1176" y="-74.5" font-family="Helvetica,sans-Serif" font-size="10.00">_lagrange.h</text>
</a>
</g>
</g>
<!-- Node2&#45;&gt;Node3 -->
<g id="edge2" class="edge">
<title>Node2&#45;&gt;Node3</title>
<path fill="none" stroke="midnightblue" d="M1090.41,-193.19C1111.73,-165.86 1147.22,-120.38 1165.06,-97.52"/>
<polygon fill="midnightblue" stroke="midnightblue" points="1087.42,-191.34 1084.02,-201.37 1092.93,-195.64 1087.42,-191.34"/>
</g>
<!-- Node7 -->
<g id="node7" class="node">
<title>Node7</title>
<g id="a_node7"><a xlink:href="linear__problem_8h.html" target="_top" xlink:title=" ">
<polygon fill="none" stroke="black" points="1405.5,-134.5 1405.5,-164.5 1514.5,-164.5 1514.5,-134.5 1405.5,-134.5"/>
<text text-anchor="start" x="1413.5" y="-152.5" font-family="Helvetica,sans-Serif" font-size="10.00">include/pdes/linear</text>
<text text-anchor="middle" x="1460" y="-141.5" font-family="Helvetica,sans-Serif" font-size="10.00">_problem.h</text>
</a>
</g>
</g>
<!-- Node2&#45;&gt;Node7 -->
<g id="edge6" class="edge">
<title>Node2&#45;&gt;Node7</title>
<path fill="none" stroke="midnightblue" d="M1148.14,-202.88C1223.67,-190.19 1338.26,-170.95 1405.48,-159.66"/>
<polygon fill="midnightblue" stroke="midnightblue" points="1147.49,-199.44 1138.21,-204.55 1148.65,-206.34 1147.49,-199.44"/>
</g>
<!-- Node23 -->
<g id="node23" class="node">
<title>Node23</title>
<g id="a_node23"><a xlink:href="serial_2poisson_8h.html" target="_top" xlink:title=" ">
<polygon fill="none" stroke="black" points="409,-134.5 409,-164.5 517,-164.5 517,-134.5 409,-134.5"/>
<text text-anchor="start" x="417" y="-152.5" font-family="Helvetica,sans-Serif" font-size="10.00">include/pdes/serial</text>
<text text-anchor="middle" x="463" y="-141.5" font-family="Helvetica,sans-Serif" font-size="10.00">/poisson.h</text>
</a>
</g>
</g>
<!-- Node2&#45;&gt;Node23 -->
<g id="edge23" class="edge">
<title>Node2&#45;&gt;Node23</title>
<path fill="none" stroke="midnightblue" d="M997.49,-207.45C872.66,-194.15 626.26,-167.9 517.17,-156.27"/>
<polygon fill="midnightblue" stroke="midnightblue" points="997.4,-210.96 1007.72,-208.54 998.15,-204 997.4,-210.96"/>
</g>
<!-- Node26 -->
<g id="node26" class="node">
<title>Node26</title>
<g id="a_node26"><a xlink:href="poisson__nitsche__interface_8h.html" target="_top" xlink:title=" ">
<polygon fill="none" stroke="black" points="673.5,-134.5 673.5,-164.5 828.5,-164.5 828.5,-134.5 673.5,-134.5"/>
<text text-anchor="start" x="681.5" y="-152.5" font-family="Helvetica,sans-Serif" font-size="10.00">include/pdes/serial</text>
<text text-anchor="middle" x="751" y="-141.5" font-family="Helvetica,sans-Serif" font-size="10.00">/poisson_nitsche_interface.h</text>
</a>
</g>
</g>
<!-- Node2&#45;&gt;Node26 -->
<g id="edge26" class="edge">
<title>Node2&#45;&gt;Node26</title>
<path fill="none" stroke="midnightblue" d="M997.72,-200.3C944.16,-189.49 872.73,-175.07 820.52,-164.53"/>
<polygon fill="midnightblue" stroke="midnightblue" points="997.34,-203.8 1007.84,-202.35 998.73,-196.94 997.34,-203.8"/>
</g>
<!-- Node29 -->
<g id="node29" class="node">
<title>Node29</title>
<g id="a_node29"><a xlink:href="reduced__lagrange_8h.html" target="_top" xlink:title=" ">
<polygon fill="none" stroke="black" points="136,-134.5 136,-164.5 252,-164.5 252,-134.5 136,-134.5"/>
<text text-anchor="start" x="144" y="-152.5" font-family="Helvetica,sans-Serif" font-size="10.00">include/pdes/serial</text>
<text text-anchor="middle" x="194" y="-141.5" font-family="Helvetica,sans-Serif" font-size="10.00">/reduced_lagrange.h</text>
</a>
</g>
</g>
<!-- Node2&#45;&gt;Node29 -->
<g id="edge29" class="edge">
<title>Node2&#45;&gt;Node29</title>
<path fill="none" stroke="midnightblue" d="M997.66,-209.93C825.53,-197.2 406.42,-166.21 252.2,-154.8"/>
<polygon fill="midnightblue" stroke="midnightblue" points="997.42,-213.42 1007.65,-210.67 997.94,-206.44 997.42,-213.42"/>
</g>
<!-- Node32 -->
<g id="node32" class="node">
<title>Node32</title>
<g id="a_node32"><a xlink:href="serial_2stokes_8h.html" target="_top" xlink:title=" ">
<polygon fill="none" stroke="black" points="978,-134.5 978,-164.5 1086,-164.5 1086,-134.5 978,-134.5"/>
<text text-anchor="start" x="986" y="-152.5" font-family="Helvetica,sans-Serif" font-size="10.00">include/pdes/serial</text>
<text text-anchor="middle" x="1032" y="-141.5" font-family="Helvetica,sans-Serif" font-size="10.00">/stokes.h</text>
</a>
</g>
</g>
<!-- Node2&#45;&gt;Node32 -->
<g id="edge32" class="edge">
<title>Node2&#45;&gt;Node32</title>
<path fill="none" stroke="midnightblue" d="M1058.72,-192.87C1052.79,-183.46 1046.09,-172.83 1040.88,-164.58"/>
<polygon fill="midnightblue" stroke="midnightblue" points="1055.81,-194.81 1064.1,-201.4 1061.73,-191.07 1055.81,-194.81"/>
</g>
<!-- Node2&#45;&gt;Node35 -->
<g id="edge35" class="edge">
<title>Node2&#45;&gt;Node35</title>
<path fill="none" stroke="midnightblue" d="M1148.28,-207.32C1237.67,-197.55 1391.25,-180.56 1523,-165 1538.96,-163.12 1556.13,-161.02 1572.27,-159.03"/>
<polygon fill="midnightblue" stroke="midnightblue" points="1147.79,-203.85 1138.23,-208.42 1148.55,-210.81 1147.79,-203.85"/>
</g>
<!-- Node4 -->
<g id="node4" class="node">
<title>Node4</title>
<g id="a_node4"><a xlink:href="source_2pdes_2distributed__lagrange_8cc.html" target="_top" xlink:title=" ">
<polygon fill="none" stroke="black" points="948.5,-0.5 948.5,-30.5 1079.5,-30.5 1079.5,-0.5 948.5,-0.5"/>
<text text-anchor="start" x="956.5" y="-18.5" font-family="Helvetica,sans-Serif" font-size="10.00">source/pdes/distributed</text>
<text text-anchor="middle" x="1014" y="-7.5" font-family="Helvetica,sans-Serif" font-size="10.00">_lagrange.cc</text>
</a>
</g>
</g>
<!-- Node3&#45;&gt;Node4 -->
<g id="edge3" class="edge">
<title>Node3&#45;&gt;Node4</title>
<path fill="none" stroke="midnightblue" d="M1131.25,-63.54C1105.33,-53.14 1073.16,-40.24 1049.08,-30.58"/>
<polygon fill="midnightblue" stroke="midnightblue" points="1130.26,-66.92 1140.85,-67.4 1132.87,-60.42 1130.26,-66.92"/>
</g>
<!-- Node5 -->
<g id="node5" class="node">
<title>Node5</title>
<g id="a_node5"><a xlink:href="apps_2mpi_2distributed__lagrange_8cc.html" target="_top" xlink:title=" ">
<polygon fill="none" stroke="black" points="1097.5,-0.5 1097.5,-30.5 1214.5,-30.5 1214.5,-0.5 1097.5,-0.5"/>
<text text-anchor="start" x="1105.5" y="-18.5" font-family="Helvetica,sans-Serif" font-size="10.00">apps/mpi/distributed</text>
<text text-anchor="middle" x="1156" y="-7.5" font-family="Helvetica,sans-Serif" font-size="10.00">_lagrange.cc</text>
</a>
</g>
</g>
<!-- Node3&#45;&gt;Node5 -->
<g id="edge4" class="edge">
<title>Node3&#45;&gt;Node5</title>
<path fill="none" stroke="midnightblue" d="M1168.68,-57.7C1165.87,-48.59 1162.77,-38.49 1160.33,-30.58"/>
<polygon fill="midnightblue" stroke="midnightblue" points="1165.37,-58.87 1171.66,-67.4 1172.06,-56.81 1165.37,-58.87"/>
</g>
<!-- Node6 -->
<g id="node6" class="node">
<title>Node6</title>
<g id="a_node6"><a xlink:href="apps_2serial_2distributed__lagrange_8cc.html" target="_top" xlink:title=" ">
<polygon fill="none" stroke="black" points="805.5,-0.5 805.5,-30.5 930.5,-30.5 930.5,-0.5 805.5,-0.5"/>
<text text-anchor="start" x="813.5" y="-18.5" font-family="Helvetica,sans-Serif" font-size="10.00">apps/serial/distributed</text>
<text text-anchor="middle" x="868" y="-7.5" font-family="Helvetica,sans-Serif" font-size="10.00">_lagrange.cc</text>
</a>
</g>
</g>
<!-- Node3&#45;&gt;Node6 -->
<g id="edge5" class="edge">
<title>Node3&#45;&gt;Node6</title>
<path fill="none" stroke="midnightblue" d="M1099.69,-65.4C1047.64,-54.41 979.53,-40.04 930.66,-29.72"/>
<polygon fill="midnightblue" stroke="midnightblue" points="1099.04,-68.84 1109.55,-67.48 1100.49,-61.99 1099.04,-68.84"/>
</g>
<!-- Node7&#45;&gt;Node3 -->
<g id="edge7" class="edge">
<title>Node7&#45;&gt;Node3</title>
<path fill="none" stroke="midnightblue" d="M1395.38,-133.71C1347.93,-122.85 1283.88,-108.19 1237.24,-97.52"/>
<polygon fill="midnightblue" stroke="midnightblue" points="1394.71,-137.15 1405.24,-135.97 1396.27,-130.32 1394.71,-137.15"/>
</g>
<!-- Node8 -->
<g id="node8" class="node">
<title>Node8</title>
<g id="a_node8"><a xlink:href="linear__elasticity_8h.html" target="_top" xlink:title=" ">
<polygon fill="none" stroke="black" points="2193.5,-67.5 2193.5,-97.5 2302.5,-97.5 2302.5,-67.5 2193.5,-67.5"/>
<text text-anchor="start" x="2201.5" y="-85.5" font-family="Helvetica,sans-Serif" font-size="10.00">include/pdes/linear</text>
<text text-anchor="middle" x="2248" y="-74.5" font-family="Helvetica,sans-Serif" font-size="10.00">_elasticity.h</text>
</a>
</g>
</g>
<!-- Node7&#45;&gt;Node8 -->
<g id="edge8" class="edge">
<title>Node7&#45;&gt;Node8</title>
<path fill="none" stroke="midnightblue" d="M1524.78,-137.02C1532.26,-135.9 1539.79,-134.86 1547,-134 1578.94,-130.2 2033.91,-98.39 2193.31,-87.3"/>
<polygon fill="midnightblue" stroke="midnightblue" points="1524,-133.6 1514.65,-138.59 1525.07,-140.52 1524,-133.6"/>
</g>
<!-- Node12 -->
<g id="node12" class="node">
<title>Node12</title>
<g id="a_node12"><a xlink:href="linear__visco__elasticity_8h.html" target="_top" xlink:title=" ">
<polygon fill="none" stroke="black" points="1918.5,-67.5 1918.5,-97.5 2027.5,-97.5 2027.5,-67.5 1918.5,-67.5"/>
<text text-anchor="start" x="1926.5" y="-85.5" font-family="Helvetica,sans-Serif" font-size="10.00">include/pdes/linear</text>
<text text-anchor="middle" x="1973" y="-74.5" font-family="Helvetica,sans-Serif" font-size="10.00">_visco_elasticity.h</text>
</a>
</g>
</g>
<!-- Node7&#45;&gt;Node12 -->
<g id="edge12" class="edge">
<title>Node7&#45;&gt;Node12</title>
<path fill="none" stroke="midnightblue" d="M1524.83,-137.35C1532.3,-136.17 1539.81,-135.02 1547,-134 1680.08,-115.03 1837.28,-97.71 1918.42,-89.14"/>
<polygon fill="midnightblue" stroke="midnightblue" points="1524.02,-133.93 1514.7,-138.98 1525.13,-140.85 1524.02,-133.93"/>
</g>
<!-- Node16 -->
<g id="node16" class="node">
<title>Node16</title>
<g id="a_node16"><a xlink:href="mpi_2poisson_8h.html" target="_top" xlink:title=" ">
<polygon fill="none" stroke="black" points="1385.5,-73 1385.5,-92 1534.5,-92 1534.5,-73 1385.5,-73"/>
<text text-anchor="middle" x="1460" y="-80" font-family="Helvetica,sans-Serif" font-size="10.00">include/pdes/mpi/poisson.h</text>
</a>
</g>
</g>
<!-- Node7&#45;&gt;Node16 -->
<g id="edge16" class="edge">
<title>Node7&#45;&gt;Node16</title>
<path fill="none" stroke="midnightblue" d="M1460,-124.25C1460,-113.02 1460,-100.38 1460,-92.19"/>
<polygon fill="midnightblue" stroke="midnightblue" points="1456.5,-124.4 1460,-134.4 1463.5,-124.4 1456.5,-124.4"/>
</g>
<!-- Node19 -->
<g id="node19" class="node">
<title>Node19</title>
<g id="a_node19"><a xlink:href="stokes_8h.html" target="_top" xlink:title=" ">
<polygon fill="none" stroke="black" points="1553,-73 1553,-92 1675,-92 1675,-73 1553,-73"/>
<text text-anchor="middle" x="1614" y="-80" font-family="Helvetica,sans-Serif" font-size="10.00">include/pdes/stokes.h</text>
</a>
</g>
</g>
<!-- Node7&#45;&gt;Node19 -->
<g id="edge19" class="edge">
<title>Node7&#45;&gt;Node19</title>
<path fill="none" stroke="midnightblue" d="M1502.74,-130.46C1532.5,-117.9 1570.82,-101.72 1593.84,-92.01"/>
<polygon fill="midnightblue" stroke="midnightblue" points="1501.27,-127.28 1493.42,-134.4 1503.99,-133.73 1501.27,-127.28"/>
</g>
<!-- Node22 -->
<g id="node22" class="node">
<title>Node22</title>
<g id="a_node22"><a xlink:href="linear__problem_8cc.html" target="_top" xlink:title=" ">
<polygon fill="none" stroke="black" points="1261,-67.5 1261,-97.5 1367,-97.5 1367,-67.5 1261,-67.5"/>
<text text-anchor="start" x="1269" y="-85.5" font-family="Helvetica,sans-Serif" font-size="10.00">source/pdes/linear</text>
<text text-anchor="middle" x="1314" y="-74.5" font-family="Helvetica,sans-Serif" font-size="10.00">_problem.cc</text>
</a>
</g>
</g>
<!-- Node7&#45;&gt;Node22 -->
<g id="edge22" class="edge">
<title>Node7&#45;&gt;Node22</title>
<path fill="none" stroke="midnightblue" d="M1419.05,-130.27C1395.8,-119.92 1367.13,-107.15 1345.62,-97.58"/>
<polygon fill="midnightblue" stroke="midnightblue" points="1417.76,-133.53 1428.32,-134.4 1420.61,-127.13 1417.76,-133.53"/>
</g>
<!-- Node8&#45;&gt;Node9 -->
<g id="edge9" class="edge">
<title>Node8&#45;&gt;Node9</title>
<path fill="none" stroke="midnightblue" d="M2312.64,-67.92C2382.23,-53.29 2483.65,-31.97 2488,-31 2490.91,-30.35 2493.9,-29.68 2496.92,-29"/>
<polygon fill="midnightblue" stroke="midnightblue" points="2311.69,-64.54 2302.62,-70.02 2313.13,-71.39 2311.69,-64.54"/>
</g>
<!-- Node10 -->
<g id="node10" class="node">
<title>Node10</title>
<g id="a_node10"><a xlink:href="apps_2mpi_2linear__elasticity_8cc.html" target="_top" xlink:title=" ">
<polygon fill="none" stroke="black" points="2204.5,-6 2204.5,-25 2359.5,-25 2359.5,-6 2204.5,-6"/>
<text text-anchor="middle" x="2282" y="-13" font-family="Helvetica,sans-Serif" font-size="10.00">apps/mpi/linear_elasticity.cc</text>
</a>
</g>
</g>
<!-- Node8&#45;&gt;Node10 -->
<g id="edge10" class="edge">
<title>Node8&#45;&gt;Node10</title>
<path fill="none" stroke="midnightblue" d="M2260.14,-58.29C2266.15,-46.8 2273.04,-33.63 2277.45,-25.19"/>
<polygon fill="midnightblue" stroke="midnightblue" points="2256.91,-56.91 2255.38,-67.4 2263.11,-60.16 2256.91,-56.91"/>
</g>
<!-- Node11 -->
<g id="node11" class="node">
<title>Node11</title>
<g id="a_node11"><a xlink:href="apps_2serial_2linear__elasticity_8cc.html" target="_top" xlink:title=" ">
<polygon fill="none" stroke="black" points="2377.5,-0.5 2377.5,-30.5 2478.5,-30.5 2478.5,-0.5 2377.5,-0.5"/>
<text text-anchor="start" x="2385.5" y="-18.5" font-family="Helvetica,sans-Serif" font-size="10.00">apps/serial/linear</text>
<text text-anchor="middle" x="2428" y="-7.5" font-family="Helvetica,sans-Serif" font-size="10.00">_elasticity.cc</text>
</a>
</g>
</g>
<!-- Node8&#45;&gt;Node11 -->
<g id="edge11" class="edge">
<title>Node8&#45;&gt;Node11</title>
<path fill="none" stroke="midnightblue" d="M2296.59,-63.96C2325.58,-53.48 2361.91,-40.37 2389.02,-30.58"/>
<polygon fill="midnightblue" stroke="midnightblue" points="2295.27,-60.71 2287.06,-67.4 2297.65,-67.29 2295.27,-60.71"/>
</g>
<!-- Node12&#45;&gt;Node13 -->
<g id="edge13" class="edge">
<title>Node12&#45;&gt;Node13</title>
<path fill="none" stroke="midnightblue" d="M2016.65,-63.54C2041.93,-53.14 2073.3,-40.24 2096.78,-30.58"/>
<polygon fill="midnightblue" stroke="midnightblue" points="2015.2,-60.35 2007.28,-67.4 2017.86,-66.83 2015.2,-60.35"/>
</g>
<!-- Node14 -->
<g id="node14" class="node">
<title>Node14</title>
<g id="a_node14"><a xlink:href="apps_2mpi_2linear__visco__elasticity_8cc.html" target="_top" xlink:title=" ">
<polygon fill="none" stroke="black" points="1934.5,-0.5 1934.5,-30.5 2057.5,-30.5 2057.5,-0.5 1934.5,-0.5"/>
<text text-anchor="start" x="1942.5" y="-18.5" font-family="Helvetica,sans-Serif" font-size="10.00">apps/mpi/linear_visco</text>
<text text-anchor="middle" x="1996" y="-7.5" font-family="Helvetica,sans-Serif" font-size="10.00">_elasticity.cc</text>
</a>
</g>
</g>
<!-- Node12&#45;&gt;Node14 -->
<g id="edge14" class="edge">
<title>Node12&#45;&gt;Node14</title>
<path fill="none" stroke="midnightblue" d="M1981.42,-57.7C1984.65,-48.59 1988.22,-38.49 1991.02,-30.58"/>
<polygon fill="midnightblue" stroke="midnightblue" points="1978.03,-56.8 1977.99,-67.4 1984.63,-59.14 1978.03,-56.8"/>
</g>
<!-- Node15 -->
<g id="node15" class="node">
<title>Node15</title>
<g id="a_node15"><a xlink:href="apps_2serial_2linear__visco__elasticity_8cc.html" target="_top" xlink:title=" ">
<polygon fill="none" stroke="black" points="1806,-0.5 1806,-30.5 1916,-30.5 1916,-0.5 1806,-0.5"/>
<text text-anchor="start" x="1814" y="-18.5" font-family="Helvetica,sans-Serif" font-size="10.00">apps/serial/linear</text>
<text text-anchor="middle" x="1861" y="-7.5" font-family="Helvetica,sans-Serif" font-size="10.00">_visco_elasticity.cc</text>
</a>
</g>
</g>
<!-- Node12&#45;&gt;Node15 -->
<g id="edge15" class="edge">
<title>Node12&#45;&gt;Node15</title>
<path fill="none" stroke="midnightblue" d="M1939.91,-62.3C1922.38,-52.12 1901.24,-39.85 1885.25,-30.58"/>
<polygon fill="midnightblue" stroke="midnightblue" points="1938.29,-65.4 1948.7,-67.4 1941.81,-59.35 1938.29,-65.4"/>
</g>
<!-- Node17 -->
<g id="node17" class="node">
<title>Node17</title>
<g id="a_node17"><a xlink:href="source_2pdes_2mpi_2poisson_8cc.html" target="_top" xlink:title=" ">
<polygon fill="none" stroke="black" points="1232.5,-6 1232.5,-25 1383.5,-25 1383.5,-6 1232.5,-6"/>
<text text-anchor="middle" x="1308" y="-13" font-family="Helvetica,sans-Serif" font-size="10.00">source/pdes/mpi/poisson.cc</text>
</a>
</g>
</g>
<!-- Node16&#45;&gt;Node17 -->
<g id="edge17" class="edge">
<title>Node16&#45;&gt;Node17</title>
<path fill="none" stroke="midnightblue" d="M1430.26,-68.78C1400.16,-55.91 1354.43,-36.35 1328.27,-25.17"/>
<polygon fill="midnightblue" stroke="midnightblue" points="1429.24,-72.15 1439.82,-72.87 1432,-65.72 1429.24,-72.15"/>
</g>
<!-- Node18 -->
<g id="node18" class="node">
<title>Node18</title>
<g id="a_node18"><a xlink:href="apps_2mpi_2poisson_8cc.html" target="_top" xlink:title=" ">
<polygon fill="none" stroke="black" points="1402,-6 1402,-25 1518,-25 1518,-6 1402,-6"/>
<text text-anchor="middle" x="1460" y="-13" font-family="Helvetica,sans-Serif" font-size="10.00">apps/mpi/poisson.cc</text>
</a>
</g>
</g>
<!-- Node16&#45;&gt;Node18 -->
<g id="edge18" class="edge">
<title>Node16&#45;&gt;Node18</title>
<path fill="none" stroke="midnightblue" d="M1460,-62.54C1460,-50.17 1460,-34.62 1460,-25.13"/>
<polygon fill="midnightblue" stroke="midnightblue" points="1456.5,-62.73 1460,-72.73 1463.5,-62.73 1456.5,-62.73"/>
</g>
<!-- Node19&#45;&gt;Node20 -->
<g id="edge20" class="edge">
<title>Node19&#45;&gt;Node20</title>
<path fill="none" stroke="midnightblue" d="M1637.92,-67.62C1660.11,-54.74 1692.44,-35.98 1711.13,-25.13"/>
<polygon fill="midnightblue" stroke="midnightblue" points="1636,-64.69 1629.1,-72.73 1639.51,-70.74 1636,-64.69"/>
</g>
<!-- Node21 -->
<g id="node21" class="node">
<title>Node21</title>
<g id="a_node21"><a xlink:href="apps_2mpi_2stokes_8cc.html" target="_top" xlink:title=" ">
<polygon fill="none" stroke="black" points="1536,-6 1536,-25 1646,-25 1646,-6 1536,-6"/>
<text text-anchor="middle" x="1591" y="-13" font-family="Helvetica,sans-Serif" font-size="10.00">apps/mpi/stokes.cc</text>
</a>
</g>
</g>
<!-- Node19&#45;&gt;Node21 -->
<g id="edge21" class="edge">
<title>Node19&#45;&gt;Node21</title>
<path fill="none" stroke="midnightblue" d="M1607.56,-63.29C1603.14,-50.81 1597.48,-34.81 1594.05,-25.13"/>
<polygon fill="midnightblue" stroke="midnightblue" points="1604.26,-64.47 1610.9,-72.73 1610.86,-62.14 1604.26,-64.47"/>
</g>
<!-- Node24 -->
<g id="node24" class="node">
<title>Node24</title>
<g id="a_node24"><a xlink:href="source_2pdes_2serial_2poisson_8cc.html" target="_top" xlink:title=" ">
<polygon fill="none" stroke="black" points="410.5,-67.5 410.5,-97.5 515.5,-97.5 515.5,-67.5 410.5,-67.5"/>
<text text-anchor="start" x="418.5" y="-85.5" font-family="Helvetica,sans-Serif" font-size="10.00">source/pdes/serial</text>
<text text-anchor="middle" x="463" y="-74.5" font-family="Helvetica,sans-Serif" font-size="10.00">/poisson.cc</text>
</a>
</g>
</g>
<!-- Node23&#45;&gt;Node24 -->
<g id="edge24" class="edge">
<title>Node23&#45;&gt;Node24</title>
<path fill="none" stroke="midnightblue" d="M463,-124.11C463,-115.15 463,-105.32 463,-97.58"/>
<polygon fill="midnightblue" stroke="midnightblue" points="459.5,-124.4 463,-134.4 466.5,-124.4 459.5,-124.4"/>
</g>
<!-- Node25 -->
<g id="node25" class="node">
<title>Node25</title>
<g id="a_node25"><a xlink:href="apps_2serial_2poisson_8cc.html" target="_top" xlink:title=" ">
<polygon fill="none" stroke="black" points="268,-73 268,-92 392,-92 392,-73 268,-73"/>
<text text-anchor="middle" x="330" y="-80" font-family="Helvetica,sans-Serif" font-size="10.00">apps/serial/poisson.cc</text>
</a>
</g>
</g>
<!-- Node23&#45;&gt;Node25 -->
<g id="edge25" class="edge">
<title>Node23&#45;&gt;Node25</title>
<path fill="none" stroke="midnightblue" d="M425.08,-129.97C399.53,-117.48 367.03,-101.6 347.41,-92.01"/>
<polygon fill="midnightblue" stroke="midnightblue" points="423.62,-133.15 434.14,-134.4 426.69,-126.86 423.62,-133.15"/>
</g>
<!-- Node27 -->
<g id="node27" class="node">
<title>Node27</title>
<g id="a_node27"><a xlink:href="source_2pdes_2serial_2poisson__nitsche__interface_8cc.html" target="_top" xlink:title=" ">
<polygon fill="none" stroke="black" points="671,-67.5 671,-97.5 831,-97.5 831,-67.5 671,-67.5"/>
<text text-anchor="start" x="679" y="-85.5" font-family="Helvetica,sans-Serif" font-size="10.00">source/pdes/serial</text>
<text text-anchor="middle" x="751" y="-74.5" font-family="Helvetica,sans-Serif" font-size="10.00">/poisson_nitsche_interface.cc</text>
</a>
</g>
</g>
<!-- Node26&#45;&gt;Node27 -->
<g id="edge27" class="edge">
<title>Node26&#45;&gt;Node27</title>
<path fill="none" stroke="midnightblue" d="M751,-124.11C751,-115.15 751,-105.32 751,-97.58"/>
<polygon fill="midnightblue" stroke="midnightblue" points="747.5,-124.4 751,-134.4 754.5,-124.4 747.5,-124.4"/>
</g>
<!-- Node28 -->
<g id="node28" class="node">
<title>Node28</title>
<g id="a_node28"><a xlink:href="apps_2serial_2poisson__nitsche__interface_8cc.html" target="_top" xlink:title=" ">
<polygon fill="none" stroke="black" points="533.5,-67.5 533.5,-97.5 652.5,-97.5 652.5,-67.5 533.5,-67.5"/>
<text text-anchor="start" x="541.5" y="-85.5" font-family="Helvetica,sans-Serif" font-size="10.00">apps/serial/poisson</text>
<text text-anchor="middle" x="593" y="-74.5" font-family="Helvetica,sans-Serif" font-size="10.00">_nitsche_interface.cc</text>
</a>
</g>
</g>
<!-- Node26&#45;&gt;Node28 -->
<g id="edge28" class="edge">
<title>Node26&#45;&gt;Node28</title>
<path fill="none" stroke="midnightblue" d="M707.35,-130.54C682.07,-120.14 650.7,-107.24 627.22,-97.58"/>
<polygon fill="midnightblue" stroke="midnightblue" points="706.14,-133.83 716.72,-134.4 708.8,-127.35 706.14,-133.83"/>
</g>
<!-- Node30 -->
<g id="node30" class="node">
<title>Node30</title>
<g id="a_node30"><a xlink:href="source_2pdes_2serial_2reduced__lagrange_8cc.html" target="_top" xlink:title=" ">
<polygon fill="none" stroke="black" points="0,-67.5 0,-97.5 120,-97.5 120,-67.5 0,-67.5"/>
<text text-anchor="start" x="8" y="-85.5" font-family="Helvetica,sans-Serif" font-size="10.00">source/pdes/serial</text>
<text text-anchor="middle" x="60" y="-74.5" font-family="Helvetica,sans-Serif" font-size="10.00">/reduced_lagrange.cc</text>
</a>
</g>
</g>
<!-- Node29&#45;&gt;Node30 -->
<g id="edge30" class="edge">
<title>Node29&#45;&gt;Node30</title>
<path fill="none" stroke="midnightblue" d="M155.85,-129.99C134.61,-119.69 108.59,-107.07 89.02,-97.58"/>
<polygon fill="midnightblue" stroke="midnightblue" points="154.4,-133.18 164.92,-134.4 157.45,-126.88 154.4,-133.18"/>
</g>
<!-- Node31 -->
<g id="node31" class="node">
<title>Node31</title>
<g id="a_node31"><a xlink:href="apps_2serial_2reduced__lagrange_8cc.html" target="_top" xlink:title=" ">
<polygon fill="none" stroke="black" points="138,-67.5 138,-97.5 250,-97.5 250,-67.5 138,-67.5"/>
<text text-anchor="start" x="146" y="-85.5" font-family="Helvetica,sans-Serif" font-size="10.00">apps/serial/reduced</text>
<text text-anchor="middle" x="194" y="-74.5" font-family="Helvetica,sans-Serif" font-size="10.00">_lagrange.cc</text>
</a>
</g>
</g>
<!-- Node29&#45;&gt;Node31 -->
<g id="edge31" class="edge">
<title>Node29&#45;&gt;Node31</title>
<path fill="none" stroke="midnightblue" d="M194,-124.11C194,-115.15 194,-105.32 194,-97.58"/>
<polygon fill="midnightblue" stroke="midnightblue" points="190.5,-124.4 194,-134.4 197.5,-124.4 190.5,-124.4"/>
</g>
<!-- Node33 -->
<g id="node33" class="node">
<title>Node33</title>
<g id="a_node33"><a xlink:href="source_2pdes_2serial_2stokes_8cc.html" target="_top" xlink:title=" ">
<polygon fill="none" stroke="black" points="849.5,-67.5 849.5,-97.5 954.5,-97.5 954.5,-67.5 849.5,-67.5"/>
<text text-anchor="start" x="857.5" y="-85.5" font-family="Helvetica,sans-Serif" font-size="10.00">source/pdes/serial</text>
<text text-anchor="middle" x="902" y="-74.5" font-family="Helvetica,sans-Serif" font-size="10.00">/stokes.cc</text>
</a>
</g>
</g>
<!-- Node32&#45;&gt;Node33 -->
<g id="edge33" class="edge">
<title>Node32&#45;&gt;Node33</title>
<path fill="none" stroke="midnightblue" d="M994.71,-129.85C974.15,-119.58 949.05,-107.03 930.15,-97.58"/>
<polygon fill="midnightblue" stroke="midnightblue" points="993.28,-133.05 1003.79,-134.4 996.41,-126.79 993.28,-133.05"/>
</g>
<!-- Node34 -->
<g id="node34" class="node">
<title>Node34</title>
<g id="a_node34"><a xlink:href="apps_2serial_2stokes_8cc.html" target="_top" xlink:title=" ">
<polygon fill="none" stroke="black" points="973,-73 973,-92 1091,-92 1091,-73 973,-73"/>
<text text-anchor="middle" x="1032" y="-80" font-family="Helvetica,sans-Serif" font-size="10.00">apps/serial/stokes.cc</text>
</a>
</g>
</g>
<!-- Node32&#45;&gt;Node34 -->
<g id="edge34" class="edge">
<title>Node32&#45;&gt;Node34</title>
<path fill="none" stroke="midnightblue" d="M1032,-124.25C1032,-113.02 1032,-100.38 1032,-92.19"/>
<polygon fill="midnightblue" stroke="midnightblue" points="1028.5,-124.4 1032,-134.4 1035.5,-124.4 1028.5,-124.4"/>
</g>
</g>
</svg>
