<?xml version="1.0" encoding="UTF-8" standalone="no"?>
<!DOCTYPE svg PUBLIC "-//W3C//DTD SVG 1.1//EN"
 "http://www.w3.org/Graphics/SVG/1.1/DTD/svg11.dtd">
<!-- Generated by graphviz version 2.43.0 (0)
 -->
<!-- Title: include/parsed_tools/constants.h Pages: 1 -->
<svg width="1957pt" height="240pt"
 viewBox="0.00 0.00 1957.00 240.00" xmlns="http://www.w3.org/2000/svg" xmlns:xlink="http://www.w3.org/1999/xlink">
<g id="graph0" class="graph" transform="scale(1 1) rotate(0) translate(4 236)">
<title>include/parsed_tools/constants.h</title>
<!-- Node1 -->
<g id="node1" class="node">
<title>Node1</title>
<g id="a_node1"><a xlink:title=" ">
<polygon fill="#bfbfbf" stroke="black" points="1106.5,-201.5 1106.5,-231.5 1223.5,-231.5 1223.5,-201.5 1106.5,-201.5"/>
<text text-anchor="start" x="1114.5" y="-219.5" font-family="Helvetica,sans-Serif" font-size="10.00">include/parsed_tools</text>
<text text-anchor="middle" x="1165" y="-208.5" font-family="Helvetica,sans-Serif" font-size="10.00">/constants.h</text>
</a>
</g>
</g>
<!-- Node2 -->
<g id="node2" class="node">
<title>Node2</title>
<g id="a_node2"><a xlink:href="mpi_2linear__elasticity_8h.html" target="_top" xlink:title=" ">
<polygon fill="none" stroke="black" points="164.5,-67.5 164.5,-97.5 295.5,-97.5 295.5,-67.5 164.5,-67.5"/>
<text text-anchor="start" x="172.5" y="-85.5" font-family="Helvetica,sans-Serif" font-size="10.00">include/pdes/mpi/linear</text>
<text text-anchor="middle" x="230" y="-74.5" font-family="Helvetica,sans-Serif" font-size="10.00">_elasticity.h</text>
</a>
</g>
</g>
<!-- Node1&#45;&gt;Node2 -->
<g id="edge1" class="edge">
<title>Node1&#45;&gt;Node2</title>
<path fill="none" stroke="midnightblue" d="M1096.3,-213.89C936.53,-209.66 543.9,-196.32 416,-165 355.22,-150.12 289.3,-116.69 254.6,-97.59"/>
<polygon fill="midnightblue" stroke="midnightblue" points="1096.39,-217.39 1106.48,-214.16 1096.57,-210.4 1096.39,-217.39"/>
</g>
<!-- Node5 -->
<g id="node5" class="node">
<title>Node5</title>
<g id="a_node5"><a xlink:href="linear__problem_8h.html" target="_top" xlink:title=" ">
<polygon fill="none" stroke="black" points="425.5,-134.5 425.5,-164.5 556.5,-164.5 556.5,-134.5 425.5,-134.5"/>
<text text-anchor="start" x="433.5" y="-152.5" font-family="Helvetica,sans-Serif" font-size="10.00">include/pdes/mpi/linear</text>
<text text-anchor="middle" x="491" y="-141.5" font-family="Helvetica,sans-Serif" font-size="10.00">_problem.h</text>
</a>
</g>
</g>
<!-- Node1&#45;&gt;Node5 -->
<g id="edge4" class="edge">
<title>Node1&#45;&gt;Node5</title>
<path fill="none" stroke="midnightblue" d="M1096.11,-208.86C965.71,-196.28 684.46,-169.16 556.63,-156.83"/>
<polygon fill="midnightblue" stroke="midnightblue" points="1096.08,-212.37 1106.37,-209.85 1096.75,-205.4 1096.08,-212.37"/>
</g>
<!-- Node10 -->
<g id="node10" class="node">
<title>Node10</title>
<g id="a_node10"><a xlink:href="distributed__lagrange_8h.html" target="_top" xlink:title=" ">
<polygon fill="none" stroke="black" points="780.5,-134.5 780.5,-164.5 909.5,-164.5 909.5,-134.5 780.5,-134.5"/>
<text text-anchor="start" x="788.5" y="-152.5" font-family="Helvetica,sans-Serif" font-size="10.00">include/pdes/serial</text>
<text text-anchor="middle" x="845" y="-141.5" font-family="Helvetica,sans-Serif" font-size="10.00">/distributed_lagrange.h</text>
</a>
</g>
</g>
<!-- Node1&#45;&gt;Node10 -->
<g id="edge10" class="edge">
<title>Node1&#45;&gt;Node10</title>
<path fill="none" stroke="midnightblue" d="M1096.25,-201.53C1040.95,-190.3 963.82,-174.64 909.65,-163.63"/>
<polygon fill="midnightblue" stroke="midnightblue" points="1095.81,-205.02 1106.31,-203.58 1097.2,-198.16 1095.81,-205.02"/>
</g>
<!-- Node13 -->
<g id="node13" class="node">
<title>Node13</title>
<g id="a_node13"><a xlink:href="serial_2linear__elasticity_8h.html" target="_top" xlink:title=" ">
<polygon fill="none" stroke="black" points="1048,-134.5 1048,-164.5 1156,-164.5 1156,-134.5 1048,-134.5"/>
<text text-anchor="start" x="1056" y="-152.5" font-family="Helvetica,sans-Serif" font-size="10.00">include/pdes/serial</text>
<text text-anchor="middle" x="1102" y="-141.5" font-family="Helvetica,sans-Serif" font-size="10.00">/linear_elasticity.h</text>
</a>
</g>
</g>
<!-- Node1&#45;&gt;Node13 -->
<g id="edge13" class="edge">
<title>Node1&#45;&gt;Node13</title>
<path fill="none" stroke="midnightblue" d="M1144.19,-194.02C1134.8,-184.34 1123.98,-173.17 1115.64,-164.58"/>
<polygon fill="midnightblue" stroke="midnightblue" points="1141.86,-196.65 1151.33,-201.4 1146.88,-191.78 1141.86,-196.65"/>
</g>
<!-- Node16 -->
<g id="node16" class="node">
<title>Node16</title>
<g id="a_node16"><a xlink:href="serial_2poisson_8h.html" target="_top" xlink:title=" ">
<polygon fill="none" stroke="black" points="1174,-134.5 1174,-164.5 1282,-164.5 1282,-134.5 1174,-134.5"/>
<text text-anchor="start" x="1182" y="-152.5" font-family="Helvetica,sans-Serif" font-size="10.00">include/pdes/serial</text>
<text text-anchor="middle" x="1228" y="-141.5" font-family="Helvetica,sans-Serif" font-size="10.00">/poisson.h</text>
</a>
</g>
</g>
<!-- Node1&#45;&gt;Node16 -->
<g id="edge16" class="edge">
<title>Node1&#45;&gt;Node16</title>
<path fill="none" stroke="midnightblue" d="M1185.81,-194.02C1195.2,-184.34 1206.02,-173.17 1214.36,-164.58"/>
<polygon fill="midnightblue" stroke="midnightblue" points="1183.12,-191.78 1178.67,-201.4 1188.14,-196.65 1183.12,-191.78"/>
</g>
<!-- Node19 -->
<g id="node19" class="node">
<title>Node19</title>
<g id="a_node19"><a xlink:href="reduced__lagrange_8h.html" target="_top" xlink:title=" ">
<polygon fill="none" stroke="black" points="1441,-134.5 1441,-164.5 1557,-164.5 1557,-134.5 1441,-134.5"/>
<text text-anchor="start" x="1449" y="-152.5" font-family="Helvetica,sans-Serif" font-size="10.00">include/pdes/serial</text>
<text text-anchor="middle" x="1499" y="-141.5" font-family="Helvetica,sans-Serif" font-size="10.00">/reduced_lagrange.h</text>
</a>
</g>
</g>
<!-- Node1&#45;&gt;Node19 -->
<g id="edge19" class="edge">
<title>Node1&#45;&gt;Node19</title>
<path fill="none" stroke="midnightblue" d="M1233.5,-202.17C1294.59,-190.28 1383.05,-173.07 1440.79,-161.83"/>
<polygon fill="midnightblue" stroke="midnightblue" points="1232.71,-198.76 1223.56,-204.1 1234.05,-205.63 1232.71,-198.76"/>
</g>
<!-- Node22 -->
<g id="node22" class="node">
<title>Node22</title>
<g id="a_node22"><a xlink:href="stokes_8h.html" target="_top" xlink:title=" ">
<polygon fill="none" stroke="black" points="1640,-134.5 1640,-164.5 1748,-164.5 1748,-134.5 1640,-134.5"/>
<text text-anchor="start" x="1648" y="-152.5" font-family="Helvetica,sans-Serif" font-size="10.00">include/pdes/serial</text>
<text text-anchor="middle" x="1694" y="-141.5" font-family="Helvetica,sans-Serif" font-size="10.00">/stokes.h</text>
</a>
</g>
</g>
<!-- Node1&#45;&gt;Node22 -->
<g id="edge22" class="edge">
<title>Node1&#45;&gt;Node22</title>
<path fill="none" stroke="midnightblue" d="M1233.63,-207.07C1340.13,-193.98 1542.99,-169.06 1639.87,-157.15"/>
<polygon fill="midnightblue" stroke="midnightblue" points="1233.13,-203.6 1223.63,-208.3 1233.99,-210.55 1233.13,-203.6"/>
</g>
<!-- Node25 -->
<g id="node25" class="node">
<title>Node25</title>
<g id="a_node25"><a xlink:href="constants_8cc.html" target="_top" xlink:title=" ">
<polygon fill="none" stroke="black" points="1766.5,-140 1766.5,-159 1879.5,-159 1879.5,-140 1766.5,-140"/>
<text text-anchor="middle" x="1823" y="-147" font-family="Helvetica,sans-Serif" font-size="10.00">source/constants.cc</text>
</a>
</g>
</g>
<!-- Node1&#45;&gt;Node25 -->
<g id="edge25" class="edge">
<title>Node1&#45;&gt;Node25</title>
<path fill="none" stroke="midnightblue" d="M1233.73,-212.57C1344.43,-207.19 1568.85,-193.57 1757,-165 1767.21,-163.45 1778.2,-161.25 1788.22,-159.04"/>
<polygon fill="midnightblue" stroke="midnightblue" points="1233.52,-209.07 1223.7,-213.05 1233.85,-216.07 1233.52,-209.07"/>
</g>
<!-- Node3 -->
<g id="node3" class="node">
<title>Node3</title>
<g id="a_node3"><a xlink:href="source_2pdes_2mpi_2linear__elasticity_8cc.html" target="_top" xlink:title=" ">
<polygon fill="none" stroke="black" points="0,-0.5 0,-30.5 128,-30.5 128,-0.5 0,-0.5"/>
<text text-anchor="start" x="8" y="-18.5" font-family="Helvetica,sans-Serif" font-size="10.00">source/pdes/mpi/linear</text>
<text text-anchor="middle" x="64" y="-7.5" font-family="Helvetica,sans-Serif" font-size="10.00">_elasticity.cc</text>
</a>
</g>
</g>
<!-- Node2&#45;&gt;Node3 -->
<g id="edge2" class="edge">
<title>Node2&#45;&gt;Node3</title>
<path fill="none" stroke="midnightblue" d="M184.49,-63.68C157.87,-53.26 124.73,-40.28 99.95,-30.58"/>
<polygon fill="midnightblue" stroke="midnightblue" points="183.39,-67.01 193.98,-67.4 185.95,-60.49 183.39,-67.01"/>
</g>
<!-- Node4 -->
<g id="node4" class="node">
<title>Node4</title>
<g id="a_node4"><a xlink:href="apps_2mpi_2linear__elasticity_8cc.html" target="_top" xlink:title=" ">
<polygon fill="none" stroke="black" points="146.5,-6 146.5,-25 301.5,-25 301.5,-6 146.5,-6"/>
<text text-anchor="middle" x="224" y="-13" font-family="Helvetica,sans-Serif" font-size="10.00">apps/mpi/linear_elasticity.cc</text>
</a>
</g>
</g>
<!-- Node2&#45;&gt;Node4 -->
<g id="edge3" class="edge">
<title>Node2&#45;&gt;Node4</title>
<path fill="none" stroke="midnightblue" d="M227.76,-57.25C226.72,-46.02 225.56,-33.38 224.8,-25.19"/>
<polygon fill="midnightblue" stroke="midnightblue" points="224.29,-57.76 228.7,-67.4 231.26,-57.12 224.29,-57.76"/>
</g>
<!-- Node5&#45;&gt;Node2 -->
<g id="edge5" class="edge">
<title>Node5&#45;&gt;Node2</title>
<path fill="none" stroke="midnightblue" d="M424.95,-132.05C382.28,-121.43 327.34,-107.74 286.66,-97.61"/>
<polygon fill="midnightblue" stroke="midnightblue" points="424.14,-135.46 434.69,-134.48 425.83,-128.66 424.14,-135.46"/>
</g>
<!-- Node6 -->
<g id="node6" class="node">
<title>Node6</title>
<g id="a_node6"><a xlink:href="mpi_2poisson_8h.html" target="_top" xlink:title=" ">
<polygon fill="none" stroke="black" points="316.5,-73 316.5,-92 465.5,-92 465.5,-73 316.5,-73"/>
<text text-anchor="middle" x="391" y="-80" font-family="Helvetica,sans-Serif" font-size="10.00">include/pdes/mpi/poisson.h</text>
</a>
</g>
</g>
<!-- Node5&#45;&gt;Node6 -->
<g id="edge6" class="edge">
<title>Node5&#45;&gt;Node6</title>
<path fill="none" stroke="midnightblue" d="M460.7,-128.81C441.79,-116.51 418.39,-101.3 404.09,-92.01"/>
<polygon fill="midnightblue" stroke="midnightblue" points="459.01,-131.88 469.3,-134.4 462.82,-126.01 459.01,-131.88"/>
</g>
<!-- Node9 -->
<g id="node9" class="node">
<title>Node9</title>
<g id="a_node9"><a xlink:href="linear__problem_8cc.html" target="_top" xlink:title=" ">
<polygon fill="none" stroke="black" points="484,-67.5 484,-97.5 612,-97.5 612,-67.5 484,-67.5"/>
<text text-anchor="start" x="492" y="-85.5" font-family="Helvetica,sans-Serif" font-size="10.00">source/pdes/mpi/linear</text>
<text text-anchor="middle" x="548" y="-74.5" font-family="Helvetica,sans-Serif" font-size="10.00">_problem.cc</text>
</a>
</g>
</g>
<!-- Node5&#45;&gt;Node9 -->
<g id="edge9" class="edge">
<title>Node5&#45;&gt;Node9</title>
<path fill="none" stroke="midnightblue" d="M510.09,-126.74C518.52,-117.12 528.19,-106.09 535.66,-97.58"/>
<polygon fill="midnightblue" stroke="midnightblue" points="507.33,-124.57 503.37,-134.4 512.59,-129.18 507.33,-124.57"/>
</g>
<!-- Node7 -->
<g id="node7" class="node">
<title>Node7</title>
<g id="a_node7"><a xlink:href="source_2pdes_2mpi_2poisson_8cc.html" target="_top" xlink:title=" ">
<polygon fill="none" stroke="black" points="319.5,-6 319.5,-25 470.5,-25 470.5,-6 319.5,-6"/>
<text text-anchor="middle" x="395" y="-13" font-family="Helvetica,sans-Serif" font-size="10.00">source/pdes/mpi/poisson.cc</text>
</a>
</g>
</g>
<!-- Node6&#45;&gt;Node7 -->
<g id="edge7" class="edge">
<title>Node6&#45;&gt;Node7</title>
<path fill="none" stroke="midnightblue" d="M392.17,-62.54C392.93,-50.17 393.88,-34.62 394.47,-25.13"/>
<polygon fill="midnightblue" stroke="midnightblue" points="388.66,-62.54 391.54,-72.73 395.65,-62.97 388.66,-62.54"/>
</g>
<!-- Node8 -->
<g id="node8" class="node">
<title>Node8</title>
<g id="a_node8"><a xlink:href="apps_2mpi_2poisson_8cc.html" target="_top" xlink:title=" ">
<polygon fill="none" stroke="black" points="489,-6 489,-25 605,-25 605,-6 489,-6"/>
<text text-anchor="middle" x="547" y="-13" font-family="Helvetica,sans-Serif" font-size="10.00">apps/mpi/poisson.cc</text>
</a>
</g>
</g>
<!-- Node6&#45;&gt;Node8 -->
<g id="edge8" class="edge">
<title>Node6&#45;&gt;Node8</title>
<path fill="none" stroke="midnightblue" d="M421.12,-68.95C452.01,-56.08 499.23,-36.4 526.2,-25.17"/>
<polygon fill="midnightblue" stroke="midnightblue" points="419.6,-65.79 411.72,-72.87 422.29,-72.25 419.6,-65.79"/>
</g>
<!-- Node11 -->
<g id="node11" class="node">
<title>Node11</title>
<g id="a_node11"><a xlink:href="source_2pdes_2serial_2distributed__lagrange_8cc.html" target="_top" xlink:title=" ">
<polygon fill="none" stroke="black" points="630,-67.5 630,-97.5 764,-97.5 764,-67.5 630,-67.5"/>
<text text-anchor="start" x="638" y="-85.5" font-family="Helvetica,sans-Serif" font-size="10.00">source/pdes/serial</text>
<text text-anchor="middle" x="697" y="-74.5" font-family="Helvetica,sans-Serif" font-size="10.00">/distributed_lagrange.cc</text>
</a>
</g>
</g>
<!-- Node10&#45;&gt;Node11 -->
<g id="edge11" class="edge">
<title>Node10&#45;&gt;Node11</title>
<path fill="none" stroke="midnightblue" d="M803.49,-130.27C779.92,-119.92 750.86,-107.15 729.05,-97.58"/>
<polygon fill="midnightblue" stroke="midnightblue" points="802.32,-133.58 812.89,-134.4 805.14,-127.17 802.32,-133.58"/>
</g>
<!-- Node12 -->
<g id="node12" class="node">
<title>Node12</title>
<g id="a_node12"><a xlink:href="apps_2serial_2distributed__lagrange_8cc.html" target="_top" xlink:title=" ">
<polygon fill="none" stroke="black" points="782.5,-67.5 782.5,-97.5 907.5,-97.5 907.5,-67.5 782.5,-67.5"/>
<text text-anchor="start" x="790.5" y="-85.5" font-family="Helvetica,sans-Serif" font-size="10.00">apps/serial/distributed</text>
<text text-anchor="middle" x="845" y="-74.5" font-family="Helvetica,sans-Serif" font-size="10.00">_lagrange.cc</text>
</a>
</g>
</g>
<!-- Node10&#45;&gt;Node12 -->
<g id="edge12" class="edge">
<title>Node10&#45;&gt;Node12</title>
<path fill="none" stroke="midnightblue" d="M845,-124.11C845,-115.15 845,-105.32 845,-97.58"/>
<polygon fill="midnightblue" stroke="midnightblue" points="841.5,-124.4 845,-134.4 848.5,-124.4 841.5,-124.4"/>
</g>
<!-- Node14 -->
<g id="node14" class="node">
<title>Node14</title>
<g id="a_node14"><a xlink:href="source_2pdes_2serial_2linear__elasticity_8cc.html" target="_top" xlink:title=" ">
<polygon fill="none" stroke="black" points="926,-67.5 926,-97.5 1036,-97.5 1036,-67.5 926,-67.5"/>
<text text-anchor="start" x="934" y="-85.5" font-family="Helvetica,sans-Serif" font-size="10.00">source/pdes/serial</text>
<text text-anchor="middle" x="981" y="-74.5" font-family="Helvetica,sans-Serif" font-size="10.00">/linear_elasticity.cc</text>
</a>
</g>
</g>
<!-- Node13&#45;&gt;Node14 -->
<g id="edge14" class="edge">
<title>Node13&#45;&gt;Node14</title>
<path fill="none" stroke="midnightblue" d="M1066.77,-129.57C1047.74,-119.35 1024.63,-106.94 1007.2,-97.58"/>
<polygon fill="midnightblue" stroke="midnightblue" points="1065.28,-132.75 1075.74,-134.4 1068.59,-126.58 1065.28,-132.75"/>
</g>
<!-- Node15 -->
<g id="node15" class="node">
<title>Node15</title>
<g id="a_node15"><a xlink:href="apps_2serial_2linear__elasticity_8cc.html" target="_top" xlink:title=" ">
<polygon fill="none" stroke="black" points="1054.5,-67.5 1054.5,-97.5 1155.5,-97.5 1155.5,-67.5 1054.5,-67.5"/>
<text text-anchor="start" x="1062.5" y="-85.5" font-family="Helvetica,sans-Serif" font-size="10.00">apps/serial/linear</text>
<text text-anchor="middle" x="1105" y="-74.5" font-family="Helvetica,sans-Serif" font-size="10.00">_elasticity.cc</text>
</a>
</g>
</g>
<!-- Node13&#45;&gt;Node15 -->
<g id="edge15" class="edge">
<title>Node13&#45;&gt;Node15</title>
<path fill="none" stroke="midnightblue" d="M1103.11,-124.4C1103.53,-115.37 1103.99,-105.41 1104.35,-97.58"/>
<polygon fill="midnightblue" stroke="midnightblue" points="1099.62,-124.25 1102.65,-134.4 1106.61,-124.57 1099.62,-124.25"/>
</g>
<!-- Node17 -->
<g id="node17" class="node">
<title>Node17</title>
<g id="a_node17"><a xlink:href="source_2pdes_2serial_2poisson_8cc.html" target="_top" xlink:title=" ">
<polygon fill="none" stroke="black" points="1173.5,-67.5 1173.5,-97.5 1278.5,-97.5 1278.5,-67.5 1173.5,-67.5"/>
<text text-anchor="start" x="1181.5" y="-85.5" font-family="Helvetica,sans-Serif" font-size="10.00">source/pdes/serial</text>
<text text-anchor="middle" x="1226" y="-74.5" font-family="Helvetica,sans-Serif" font-size="10.00">/poisson.cc</text>
</a>
</g>
</g>
<!-- Node16&#45;&gt;Node17 -->
<g id="edge17" class="edge">
<title>Node16&#45;&gt;Node17</title>
<path fill="none" stroke="midnightblue" d="M1227.25,-124.11C1226.97,-115.15 1226.67,-105.32 1226.43,-97.58"/>
<polygon fill="midnightblue" stroke="midnightblue" points="1223.76,-124.51 1227.57,-134.4 1230.76,-124.29 1223.76,-124.51"/>
</g>
<!-- Node18 -->
<g id="node18" class="node">
<title>Node18</title>
<g id="a_node18"><a xlink:href="apps_2serial_2poisson_8cc.html" target="_top" xlink:title=" ">
<polygon fill="none" stroke="black" points="1297,-73 1297,-92 1421,-92 1421,-73 1297,-73"/>
<text text-anchor="middle" x="1359" y="-80" font-family="Helvetica,sans-Serif" font-size="10.00">apps/serial/poisson.cc</text>
</a>
</g>
</g>
<!-- Node16&#45;&gt;Node18 -->
<g id="edge18" class="edge">
<title>Node16&#45;&gt;Node18</title>
<path fill="none" stroke="midnightblue" d="M1265.68,-129.8C1290.8,-117.34 1322.61,-101.56 1341.86,-92.01"/>
<polygon fill="midnightblue" stroke="midnightblue" points="1263.83,-126.82 1256.43,-134.4 1266.94,-133.09 1263.83,-126.82"/>
</g>
<!-- Node20 -->
<g id="node20" class="node">
<title>Node20</title>
<g id="a_node20"><a xlink:href="source_2pdes_2serial_2reduced__lagrange_8cc.html" target="_top" xlink:title=" ">
<polygon fill="none" stroke="black" points="1439,-67.5 1439,-97.5 1559,-97.5 1559,-67.5 1439,-67.5"/>
<text text-anchor="start" x="1447" y="-85.5" font-family="Helvetica,sans-Serif" font-size="10.00">source/pdes/serial</text>
<text text-anchor="middle" x="1499" y="-74.5" font-family="Helvetica,sans-Serif" font-size="10.00">/reduced_lagrange.cc</text>
</a>
</g>
</g>
<!-- Node19&#45;&gt;Node20 -->
<g id="edge20" class="edge">
<title>Node19&#45;&gt;Node20</title>
<path fill="none" stroke="midnightblue" d="M1499,-124.11C1499,-115.15 1499,-105.32 1499,-97.58"/>
<polygon fill="midnightblue" stroke="midnightblue" points="1495.5,-124.4 1499,-134.4 1502.5,-124.4 1495.5,-124.4"/>
</g>
<!-- Node21 -->
<g id="node21" class="node">
<title>Node21</title>
<g id="a_node21"><a xlink:href="apps_2serial_2reduced__lagrange_8cc.html" target="_top" xlink:title=" ">
<polygon fill="none" stroke="black" points="1577,-67.5 1577,-97.5 1689,-97.5 1689,-67.5 1577,-67.5"/>
<text text-anchor="start" x="1585" y="-85.5" font-family="Helvetica,sans-Serif" font-size="10.00">apps/serial/reduced</text>
<text text-anchor="middle" x="1633" y="-74.5" font-family="Helvetica,sans-Serif" font-size="10.00">_lagrange.cc</text>
</a>
</g>
</g>
<!-- Node19&#45;&gt;Node21 -->
<g id="edge21" class="edge">
<title>Node19&#45;&gt;Node21</title>
<path fill="none" stroke="midnightblue" d="M1537.15,-129.99C1558.39,-119.69 1584.41,-107.07 1603.98,-97.58"/>
<polygon fill="midnightblue" stroke="midnightblue" points="1535.55,-126.88 1528.08,-134.4 1538.6,-133.18 1535.55,-126.88"/>
</g>
<!-- Node23 -->
<g id="node23" class="node">
<title>Node23</title>
<g id="a_node23"><a xlink:href="source_2pdes_2serial_2stokes_8cc.html" target="_top" xlink:title=" ">
<polygon fill="none" stroke="black" points="1707.5,-67.5 1707.5,-97.5 1812.5,-97.5 1812.5,-67.5 1707.5,-67.5"/>
<text text-anchor="start" x="1715.5" y="-85.5" font-family="Helvetica,sans-Serif" font-size="10.00">source/pdes/serial</text>
<text text-anchor="middle" x="1760" y="-74.5" font-family="Helvetica,sans-Serif" font-size="10.00">/stokes.cc</text>
</a>
</g>
</g>
<!-- Node22&#45;&gt;Node23 -->
<g id="edge23" class="edge">
<title>Node22&#45;&gt;Node23</title>
<path fill="none" stroke="midnightblue" d="M1715.51,-127.31C1725.41,-117.56 1736.89,-106.26 1745.71,-97.58"/>
<polygon fill="midnightblue" stroke="midnightblue" points="1712.99,-124.89 1708.32,-134.4 1717.9,-129.87 1712.99,-124.89"/>
</g>
<!-- Node24 -->
<g id="node24" class="node">
<title>Node24</title>
<g id="a_node24"><a xlink:href="apps_2serial_2stokes_8cc.html" target="_top" xlink:title=" ">
<polygon fill="none" stroke="black" points="1831,-73 1831,-92 1949,-92 1949,-73 1831,-73"/>
<text text-anchor="middle" x="1890" y="-80" font-family="Helvetica,sans-Serif" font-size="10.00">apps/serial/stokes.cc</text>
</a>
</g>
</g>
<!-- Node22&#45;&gt;Node24 -->
<g id="edge24" class="edge">
<title>Node22&#45;&gt;Node24</title>
<path fill="none" stroke="midnightblue" d="M1746.44,-131.11C1784.58,-118.46 1834.54,-101.89 1864.35,-92.01"/>
<polygon fill="midnightblue" stroke="midnightblue" points="1744.92,-127.93 1736.53,-134.4 1747.12,-134.57 1744.92,-127.93"/>
</g>
</g>
</svg>
