<?xml version="1.0" encoding="UTF-8" standalone="no"?>
<!DOCTYPE svg PUBLIC "-//W3C//DTD SVG 1.1//EN"
 "http://www.w3.org/Graphics/SVG/1.1/DTD/svg11.dtd">
<!-- Generated by graphviz version 2.43.0 (0)
 -->
<!-- Title: include/parsed_tools/constants.h Pages: 1 -->
<svg width="2502pt" height="240pt"
 viewBox="0.00 0.00 2502.00 240.00" xmlns="http://www.w3.org/2000/svg" xmlns:xlink="http://www.w3.org/1999/xlink">
<g id="graph0" class="graph" transform="scale(1 1) rotate(0) translate(4 236)">
<title>include/parsed_tools/constants.h</title>
<!-- Node1 -->
<g id="node1" class="node">
<title>Node1</title>
<g id="a_node1"><a xlink:title=" ">
<polygon fill="#bfbfbf" stroke="black" points="1355.5,-201.5 1355.5,-231.5 1472.5,-231.5 1472.5,-201.5 1355.5,-201.5"/>
<text text-anchor="start" x="1363.5" y="-219.5" font-family="Helvetica,sans-Serif" font-size="10.00">include/parsed_tools</text>
<text text-anchor="middle" x="1414" y="-208.5" font-family="Helvetica,sans-Serif" font-size="10.00">/constants.h</text>
</a>
</g>
</g>
<!-- Node2 -->
<g id="node2" class="node">
<title>Node2</title>
<g id="a_node2"><a xlink:href="linear__elasticity_8h.html" target="_top" xlink:title=" ">
<polygon fill="none" stroke="black" points="293.5,-67.5 293.5,-97.5 402.5,-97.5 402.5,-67.5 293.5,-67.5"/>
<text text-anchor="start" x="301.5" y="-85.5" font-family="Helvetica,sans-Serif" font-size="10.00">include/pdes/linear</text>
<text text-anchor="middle" x="348" y="-74.5" font-family="Helvetica,sans-Serif" font-size="10.00">_elasticity.h</text>
</a>
</g>
</g>
<!-- Node1&#45;&gt;Node2 -->
<g id="edge1" class="edge">
<title>Node1&#45;&gt;Node2</title>
<path fill="none" stroke="midnightblue" d="M1345.11,-210.49C1241.71,-202.65 1040.34,-186.18 870,-165 698.88,-143.72 497.57,-109.74 402.7,-93.19"/>
<polygon fill="midnightblue" stroke="midnightblue" points="1344.87,-213.98 1355.1,-211.24 1345.4,-207 1344.87,-213.98"/>
</g>
<!-- Node6 -->
<g id="node6" class="node">
<title>Node6</title>
<g id="a_node6"><a xlink:href="linear__problem_8h.html" target="_top" xlink:title=" ">
<polygon fill="none" stroke="black" points="988.5,-134.5 988.5,-164.5 1097.5,-164.5 1097.5,-134.5 988.5,-134.5"/>
<text text-anchor="start" x="996.5" y="-152.5" font-family="Helvetica,sans-Serif" font-size="10.00">include/pdes/linear</text>
<text text-anchor="middle" x="1043" y="-141.5" font-family="Helvetica,sans-Serif" font-size="10.00">_problem.h</text>
</a>
</g>
</g>
<!-- Node1&#45;&gt;Node6 -->
<g id="edge5" class="edge">
<title>Node1&#45;&gt;Node6</title>
<path fill="none" stroke="midnightblue" d="M1344.96,-203.4C1273.47,-190.88 1163.22,-171.56 1097.58,-160.06"/>
<polygon fill="midnightblue" stroke="midnightblue" points="1344.76,-206.92 1355.21,-205.2 1345.97,-200.03 1344.76,-206.92"/>
</g>
<!-- Node7 -->
<g id="node7" class="node">
<title>Node7</title>
<g id="a_node7"><a xlink:href="linear__visco__elasticity_8h.html" target="_top" xlink:title=" ">
<polygon fill="none" stroke="black" points="687.5,-67.5 687.5,-97.5 796.5,-97.5 796.5,-67.5 687.5,-67.5"/>
<text text-anchor="start" x="695.5" y="-85.5" font-family="Helvetica,sans-Serif" font-size="10.00">include/pdes/linear</text>
<text text-anchor="middle" x="742" y="-74.5" font-family="Helvetica,sans-Serif" font-size="10.00">_visco_elasticity.h</text>
</a>
</g>
</g>
<!-- Node1&#45;&gt;Node7 -->
<g id="edge21" class="edge">
<title>Node1&#45;&gt;Node7</title>
<path fill="none" stroke="midnightblue" d="M1345.07,-212.09C1258.64,-206.77 1106.35,-193.93 979,-165 904.54,-148.08 820.79,-116.06 775.48,-97.59"/>
<polygon fill="midnightblue" stroke="midnightblue" points="1345.09,-215.6 1355.28,-212.7 1345.5,-208.61 1345.09,-215.6"/>
</g>
<!-- Node14 -->
<g id="node14" class="node">
<title>Node14</title>
<g id="a_node14"><a xlink:href="distributed__lagrange_8h.html" target="_top" xlink:title=" ">
<polygon fill="none" stroke="black" points="1114.5,-67.5 1114.5,-97.5 1243.5,-97.5 1243.5,-67.5 1114.5,-67.5"/>
<text text-anchor="start" x="1122.5" y="-85.5" font-family="Helvetica,sans-Serif" font-size="10.00">include/pdes/serial</text>
<text text-anchor="middle" x="1179" y="-74.5" font-family="Helvetica,sans-Serif" font-size="10.00">/distributed_lagrange.h</text>
</a>
</g>
</g>
<!-- Node1&#45;&gt;Node14 -->
<g id="edge22" class="edge">
<title>Node1&#45;&gt;Node14</title>
<path fill="none" stroke="midnightblue" d="M1380.11,-196.47C1332.35,-169.64 1246.34,-121.32 1203.97,-97.52"/>
<polygon fill="midnightblue" stroke="midnightblue" points="1378.42,-199.53 1388.85,-201.37 1381.85,-193.42 1378.42,-199.53"/>
</g>
<!-- Node17 -->
<g id="node17" class="node">
<title>Node17</title>
<g id="a_node17"><a xlink:href="stokes_8h.html" target="_top" xlink:title=" ">
<polygon fill="none" stroke="black" points="1262,-73 1262,-92 1384,-92 1384,-73 1262,-73"/>
<text text-anchor="middle" x="1323" y="-80" font-family="Helvetica,sans-Serif" font-size="10.00">include/pdes/stokes.h</text>
</a>
</g>
</g>
<!-- Node1&#45;&gt;Node17 -->
<g id="edge35" class="edge">
<title>Node1&#45;&gt;Node17</title>
<path fill="none" stroke="midnightblue" d="M1398.4,-192.87C1377.89,-163.12 1342.83,-112.26 1328.93,-92.1"/>
<polygon fill="midnightblue" stroke="midnightblue" points="1395.7,-195.13 1404.26,-201.37 1401.47,-191.15 1395.7,-195.13"/>
</g>
<!-- Node21 -->
<g id="node21" class="node">
<title>Node21</title>
<g id="a_node21"><a xlink:href="serial_2poisson_8h.html" target="_top" xlink:title=" ">
<polygon fill="none" stroke="black" points="1401,-134.5 1401,-164.5 1509,-164.5 1509,-134.5 1401,-134.5"/>
<text text-anchor="start" x="1409" y="-152.5" font-family="Helvetica,sans-Serif" font-size="10.00">include/pdes/serial</text>
<text text-anchor="middle" x="1455" y="-141.5" font-family="Helvetica,sans-Serif" font-size="10.00">/poisson.h</text>
</a>
</g>
</g>
<!-- Node1&#45;&gt;Node21 -->
<g id="edge23" class="edge">
<title>Node1&#45;&gt;Node21</title>
<path fill="none" stroke="midnightblue" d="M1428.28,-192.87C1434.21,-183.46 1440.91,-172.83 1446.12,-164.58"/>
<polygon fill="midnightblue" stroke="midnightblue" points="1425.27,-191.07 1422.9,-201.4 1431.19,-194.81 1425.27,-191.07"/>
</g>
<!-- Node24 -->
<g id="node24" class="node">
<title>Node24</title>
<g id="a_node24"><a xlink:href="poisson__nitsche__interface_8h.html" target="_top" xlink:title=" ">
<polygon fill="none" stroke="black" points="1670.5,-134.5 1670.5,-164.5 1825.5,-164.5 1825.5,-134.5 1670.5,-134.5"/>
<text text-anchor="start" x="1678.5" y="-152.5" font-family="Helvetica,sans-Serif" font-size="10.00">include/pdes/serial</text>
<text text-anchor="middle" x="1748" y="-141.5" font-family="Helvetica,sans-Serif" font-size="10.00">/poisson_nitsche_interface.h</text>
</a>
</g>
</g>
<!-- Node1&#45;&gt;Node24 -->
<g id="edge26" class="edge">
<title>Node1&#45;&gt;Node24</title>
<path fill="none" stroke="midnightblue" d="M1482.45,-202.18C1538.8,-191.21 1618.47,-175.71 1675.82,-164.55"/>
<polygon fill="midnightblue" stroke="midnightblue" points="1481.71,-198.76 1472.56,-204.1 1483.05,-205.63 1481.71,-198.76"/>
</g>
<!-- Node27 -->
<g id="node27" class="node">
<title>Node27</title>
<g id="a_node27"><a xlink:href="reduced__lagrange_8h.html" target="_top" xlink:title=" ">
<polygon fill="none" stroke="black" points="1986,-134.5 1986,-164.5 2102,-164.5 2102,-134.5 1986,-134.5"/>
<text text-anchor="start" x="1994" y="-152.5" font-family="Helvetica,sans-Serif" font-size="10.00">include/pdes/serial</text>
<text text-anchor="middle" x="2044" y="-141.5" font-family="Helvetica,sans-Serif" font-size="10.00">/reduced_lagrange.h</text>
</a>
</g>
</g>
<!-- Node1&#45;&gt;Node27 -->
<g id="edge29" class="edge">
<title>Node1&#45;&gt;Node27</title>
<path fill="none" stroke="midnightblue" d="M1482.9,-208.39C1607.71,-195.51 1869.07,-168.55 1985.67,-156.52"/>
<polygon fill="midnightblue" stroke="midnightblue" points="1482.29,-204.94 1472.7,-209.44 1483.01,-211.9 1482.29,-204.94"/>
</g>
<!-- Node30 -->
<g id="node30" class="node">
<title>Node30</title>
<g id="a_node30"><a xlink:href="serial_2stokes_8h.html" target="_top" xlink:title=" ">
<polygon fill="none" stroke="black" points="2185,-134.5 2185,-164.5 2293,-164.5 2293,-134.5 2185,-134.5"/>
<text text-anchor="start" x="2193" y="-152.5" font-family="Helvetica,sans-Serif" font-size="10.00">include/pdes/serial</text>
<text text-anchor="middle" x="2239" y="-141.5" font-family="Helvetica,sans-Serif" font-size="10.00">/stokes.h</text>
</a>
</g>
</g>
<!-- Node1&#45;&gt;Node30 -->
<g id="edge32" class="edge">
<title>Node1&#45;&gt;Node30</title>
<path fill="none" stroke="midnightblue" d="M1483.02,-211.43C1608.27,-203.83 1881.28,-186.32 2111,-165 2135.27,-162.75 2162.08,-159.78 2184.86,-157.12"/>
<polygon fill="midnightblue" stroke="midnightblue" points="1482.58,-207.95 1472.81,-212.05 1483.01,-214.94 1482.58,-207.95"/>
</g>
<!-- Node33 -->
<g id="node33" class="node">
<title>Node33</title>
<g id="a_node33"><a xlink:href="constants_8cc.html" target="_top" xlink:title=" ">
<polygon fill="none" stroke="black" points="2311.5,-140 2311.5,-159 2424.5,-159 2424.5,-140 2311.5,-140"/>
<text text-anchor="middle" x="2368" y="-147" font-family="Helvetica,sans-Serif" font-size="10.00">source/constants.cc</text>
</a>
</g>
</g>
<!-- Node1&#45;&gt;Node33 -->
<g id="edge36" class="edge">
<title>Node1&#45;&gt;Node33</title>
<path fill="none" stroke="midnightblue" d="M1483.17,-215.31C1633.1,-214.08 1998.92,-206.64 2302,-165 2312.46,-163.56 2323.72,-161.34 2333.93,-159.07"/>
<polygon fill="midnightblue" stroke="midnightblue" points="1482.73,-211.81 1472.76,-215.39 1482.78,-218.81 1482.73,-211.81"/>
</g>
<!-- Node3 -->
<g id="node3" class="node">
<title>Node3</title>
<g id="a_node3"><a xlink:href="source_2pdes_2linear__elasticity_8cc.html" target="_top" xlink:title=" ">
<polygon fill="none" stroke="black" points="0,-0.5 0,-30.5 106,-30.5 106,-0.5 0,-0.5"/>
<text text-anchor="start" x="8" y="-18.5" font-family="Helvetica,sans-Serif" font-size="10.00">source/pdes/linear</text>
<text text-anchor="middle" x="53" y="-7.5" font-family="Helvetica,sans-Serif" font-size="10.00">_elasticity.cc</text>
</a>
</g>
</g>
<!-- Node2&#45;&gt;Node3 -->
<g id="edge2" class="edge">
<title>Node2&#45;&gt;Node3</title>
<path fill="none" stroke="midnightblue" d="M283.33,-67.78C236.54,-57.78 171.8,-43.8 115,-31 112.09,-30.34 109.1,-29.67 106.09,-28.98"/>
<polygon fill="midnightblue" stroke="midnightblue" points="282.82,-71.25 293.33,-69.91 284.28,-64.4 282.82,-71.25"/>
</g>
<!-- Node4 -->
<g id="node4" class="node">
<title>Node4</title>
<g id="a_node4"><a xlink:href="apps_2mpi_2linear__elasticity_8cc.html" target="_top" xlink:title=" ">
<polygon fill="none" stroke="black" points="124.5,-6 124.5,-25 279.5,-25 279.5,-6 124.5,-6"/>
<text text-anchor="middle" x="202" y="-13" font-family="Helvetica,sans-Serif" font-size="10.00">apps/mpi/linear_elasticity.cc</text>
</a>
</g>
</g>
<!-- Node2&#45;&gt;Node4 -->
<g id="edge3" class="edge">
<title>Node2&#45;&gt;Node4</title>
<path fill="none" stroke="midnightblue" d="M307.11,-63.3C278.95,-50.76 242.84,-34.68 221.11,-25.01"/>
<polygon fill="midnightblue" stroke="midnightblue" points="305.76,-66.53 316.32,-67.4 308.61,-60.13 305.76,-66.53"/>
</g>
<!-- Node5 -->
<g id="node5" class="node">
<title>Node5</title>
<g id="a_node5"><a xlink:href="apps_2serial_2linear__elasticity_8cc.html" target="_top" xlink:title=" ">
<polygon fill="none" stroke="black" points="297.5,-0.5 297.5,-30.5 398.5,-30.5 398.5,-0.5 297.5,-0.5"/>
<text text-anchor="start" x="305.5" y="-18.5" font-family="Helvetica,sans-Serif" font-size="10.00">apps/serial/linear</text>
<text text-anchor="middle" x="348" y="-7.5" font-family="Helvetica,sans-Serif" font-size="10.00">_elasticity.cc</text>
</a>
</g>
</g>
<!-- Node2&#45;&gt;Node5 -->
<g id="edge4" class="edge">
<title>Node2&#45;&gt;Node5</title>
<path fill="none" stroke="midnightblue" d="M348,-57.11C348,-48.15 348,-38.32 348,-30.58"/>
<polygon fill="midnightblue" stroke="midnightblue" points="344.5,-57.4 348,-67.4 351.5,-57.4 344.5,-57.4"/>
</g>
<!-- Node6&#45;&gt;Node2 -->
<g id="edge6" class="edge">
<title>Node6&#45;&gt;Node2</title>
<path fill="none" stroke="midnightblue" d="M978.21,-142.44C842.28,-129.73 529.45,-100.47 402.76,-88.62"/>
<polygon fill="midnightblue" stroke="midnightblue" points="978.18,-145.95 988.46,-143.4 978.83,-138.98 978.18,-145.95"/>
</g>
<!-- Node6&#45;&gt;Node7 -->
<g id="edge7" class="edge">
<title>Node6&#45;&gt;Node7</title>
<path fill="none" stroke="midnightblue" d="M978.65,-134.6C924.47,-122.9 847.84,-106.36 796.61,-95.29"/>
<polygon fill="midnightblue" stroke="midnightblue" points="977.98,-138.04 988.49,-136.73 979.46,-131.2 977.98,-138.04"/>
</g>
<!-- Node11 -->
<g id="node11" class="node">
<title>Node11</title>
<g id="a_node11"><a xlink:href="mpi_2poisson_8h.html" target="_top" xlink:title=" ">
<polygon fill="none" stroke="black" points="823.5,-73 823.5,-92 972.5,-92 972.5,-73 823.5,-73"/>
<text text-anchor="middle" x="898" y="-80" font-family="Helvetica,sans-Serif" font-size="10.00">include/pdes/mpi/poisson.h</text>
</a>
</g>
</g>
<!-- Node6&#45;&gt;Node11 -->
<g id="edge11" class="edge">
<title>Node6&#45;&gt;Node11</title>
<path fill="none" stroke="midnightblue" d="M1002.39,-130.3C974.43,-117.76 938.56,-101.68 916.98,-92.01"/>
<polygon fill="midnightblue" stroke="midnightblue" points="1000.98,-133.5 1011.54,-134.4 1003.84,-127.11 1000.98,-133.5"/>
</g>
<!-- Node6&#45;&gt;Node14 -->
<g id="edge14" class="edge">
<title>Node6&#45;&gt;Node14</title>
<path fill="none" stroke="midnightblue" d="M1081.72,-129.99C1103.28,-119.69 1129.69,-107.07 1149.55,-97.58"/>
<polygon fill="midnightblue" stroke="midnightblue" points="1080.02,-126.93 1072.51,-134.4 1083.04,-133.24 1080.02,-126.93"/>
</g>
<!-- Node6&#45;&gt;Node17 -->
<g id="edge17" class="edge">
<title>Node6&#45;&gt;Node17</title>
<path fill="none" stroke="midnightblue" d="M1107.73,-133.47C1163.17,-120.6 1241.03,-102.53 1286.33,-92.01"/>
<polygon fill="midnightblue" stroke="midnightblue" points="1106.6,-130.14 1097.65,-135.81 1108.18,-136.96 1106.6,-130.14"/>
</g>
<!-- Node20 -->
<g id="node20" class="node">
<title>Node20</title>
<g id="a_node20"><a xlink:href="linear__problem_8cc.html" target="_top" xlink:title=" ">
<polygon fill="none" stroke="black" points="990,-67.5 990,-97.5 1096,-97.5 1096,-67.5 990,-67.5"/>
<text text-anchor="start" x="998" y="-85.5" font-family="Helvetica,sans-Serif" font-size="10.00">source/pdes/linear</text>
<text text-anchor="middle" x="1043" y="-74.5" font-family="Helvetica,sans-Serif" font-size="10.00">_problem.cc</text>
</a>
</g>
</g>
<!-- Node6&#45;&gt;Node20 -->
<g id="edge20" class="edge">
<title>Node6&#45;&gt;Node20</title>
<path fill="none" stroke="midnightblue" d="M1043,-124.11C1043,-115.15 1043,-105.32 1043,-97.58"/>
<polygon fill="midnightblue" stroke="midnightblue" points="1039.5,-124.4 1043,-134.4 1046.5,-124.4 1039.5,-124.4"/>
</g>
<!-- Node8 -->
<g id="node8" class="node">
<title>Node8</title>
<g id="a_node8"><a xlink:href="source_2pdes_2linear__visco__elasticity_8cc.html" target="_top" xlink:title=" ">
<polygon fill="none" stroke="black" points="417,-0.5 417,-30.5 527,-30.5 527,-0.5 417,-0.5"/>
<text text-anchor="start" x="425" y="-18.5" font-family="Helvetica,sans-Serif" font-size="10.00">source/pdes/linear</text>
<text text-anchor="middle" x="472" y="-7.5" font-family="Helvetica,sans-Serif" font-size="10.00">_visco_elasticity.cc</text>
</a>
</g>
</g>
<!-- Node7&#45;&gt;Node8 -->
<g id="edge8" class="edge">
<title>Node7&#45;&gt;Node8</title>
<path fill="none" stroke="midnightblue" d="M677.52,-65.98C631.63,-54.93 570.62,-40.24 527.02,-29.75"/>
<polygon fill="midnightblue" stroke="midnightblue" points="676.82,-69.41 687.36,-68.35 678.46,-62.6 676.82,-69.41"/>
</g>
<!-- Node9 -->
<g id="node9" class="node">
<title>Node9</title>
<g id="a_node9"><a xlink:href="apps_2mpi_2linear__visco__elasticity_8cc.html" target="_top" xlink:title=" ">
<polygon fill="none" stroke="black" points="545.5,-0.5 545.5,-30.5 668.5,-30.5 668.5,-0.5 545.5,-0.5"/>
<text text-anchor="start" x="553.5" y="-18.5" font-family="Helvetica,sans-Serif" font-size="10.00">apps/mpi/linear_visco</text>
<text text-anchor="middle" x="607" y="-7.5" font-family="Helvetica,sans-Serif" font-size="10.00">_elasticity.cc</text>
</a>
</g>
</g>
<!-- Node7&#45;&gt;Node9 -->
<g id="edge9" class="edge">
<title>Node7&#45;&gt;Node9</title>
<path fill="none" stroke="midnightblue" d="M703.56,-62.99C682.16,-52.69 655.95,-40.07 636.24,-30.58"/>
<polygon fill="midnightblue" stroke="midnightblue" points="702.18,-66.21 712.71,-67.4 705.22,-59.9 702.18,-66.21"/>
</g>
<!-- Node10 -->
<g id="node10" class="node">
<title>Node10</title>
<g id="a_node10"><a xlink:href="apps_2serial_2linear__visco__elasticity_8cc.html" target="_top" xlink:title=" ">
<polygon fill="none" stroke="black" points="687,-0.5 687,-30.5 797,-30.5 797,-0.5 687,-0.5"/>
<text text-anchor="start" x="695" y="-18.5" font-family="Helvetica,sans-Serif" font-size="10.00">apps/serial/linear</text>
<text text-anchor="middle" x="742" y="-7.5" font-family="Helvetica,sans-Serif" font-size="10.00">_visco_elasticity.cc</text>
</a>
</g>
</g>
<!-- Node7&#45;&gt;Node10 -->
<g id="edge10" class="edge">
<title>Node7&#45;&gt;Node10</title>
<path fill="none" stroke="midnightblue" d="M742,-57.11C742,-48.15 742,-38.32 742,-30.58"/>
<polygon fill="midnightblue" stroke="midnightblue" points="738.5,-57.4 742,-67.4 745.5,-57.4 738.5,-57.4"/>
</g>
<!-- Node12 -->
<g id="node12" class="node">
<title>Node12</title>
<g id="a_node12"><a xlink:href="source_2pdes_2mpi_2poisson_8cc.html" target="_top" xlink:title=" ">
<polygon fill="none" stroke="black" points="815.5,-6 815.5,-25 966.5,-25 966.5,-6 815.5,-6"/>
<text text-anchor="middle" x="891" y="-13" font-family="Helvetica,sans-Serif" font-size="10.00">source/pdes/mpi/poisson.cc</text>
</a>
</g>
</g>
<!-- Node11&#45;&gt;Node12 -->
<g id="edge12" class="edge">
<title>Node11&#45;&gt;Node12</title>
<path fill="none" stroke="midnightblue" d="M895.96,-62.54C894.63,-50.17 892.95,-34.62 891.93,-25.13"/>
<polygon fill="midnightblue" stroke="midnightblue" points="892.51,-63.17 897.06,-72.73 899.47,-62.42 892.51,-63.17"/>
</g>
<!-- Node13 -->
<g id="node13" class="node">
<title>Node13</title>
<g id="a_node13"><a xlink:href="apps_2mpi_2poisson_8cc.html" target="_top" xlink:title=" ">
<polygon fill="none" stroke="black" points="985,-6 985,-25 1101,-25 1101,-6 985,-6"/>
<text text-anchor="middle" x="1043" y="-13" font-family="Helvetica,sans-Serif" font-size="10.00">apps/mpi/poisson.cc</text>
</a>
</g>
</g>
<!-- Node11&#45;&gt;Node13 -->
<g id="edge13" class="edge">
<title>Node11&#45;&gt;Node13</title>
<path fill="none" stroke="midnightblue" d="M926.75,-68.61C955.47,-55.74 998.82,-36.31 1023.67,-25.17"/>
<polygon fill="midnightblue" stroke="midnightblue" points="924.95,-65.58 917.25,-72.87 927.81,-71.97 924.95,-65.58"/>
</g>
<!-- Node15 -->
<g id="node15" class="node">
<title>Node15</title>
<g id="a_node15"><a xlink:href="source_2pdes_2serial_2distributed__lagrange_8cc.html" target="_top" xlink:title=" ">
<polygon fill="none" stroke="black" points="1119,-0.5 1119,-30.5 1253,-30.5 1253,-0.5 1119,-0.5"/>
<text text-anchor="start" x="1127" y="-18.5" font-family="Helvetica,sans-Serif" font-size="10.00">source/pdes/serial</text>
<text text-anchor="middle" x="1186" y="-7.5" font-family="Helvetica,sans-Serif" font-size="10.00">/distributed_lagrange.cc</text>
</a>
</g>
</g>
<!-- Node14&#45;&gt;Node15 -->
<g id="edge15" class="edge">
<title>Node14&#45;&gt;Node15</title>
<path fill="none" stroke="midnightblue" d="M1181.6,-57.4C1182.57,-48.37 1183.64,-38.41 1184.48,-30.58"/>
<polygon fill="midnightblue" stroke="midnightblue" points="1178.11,-57.08 1180.52,-67.4 1185.07,-57.83 1178.11,-57.08"/>
</g>
<!-- Node16 -->
<g id="node16" class="node">
<title>Node16</title>
<g id="a_node16"><a xlink:href="apps_2serial_2distributed__lagrange_8cc.html" target="_top" xlink:title=" ">
<polygon fill="none" stroke="black" points="1271.5,-0.5 1271.5,-30.5 1396.5,-30.5 1396.5,-0.5 1271.5,-0.5"/>
<text text-anchor="start" x="1279.5" y="-18.5" font-family="Helvetica,sans-Serif" font-size="10.00">apps/serial/distributed</text>
<text text-anchor="middle" x="1334" y="-7.5" font-family="Helvetica,sans-Serif" font-size="10.00">_lagrange.cc</text>
</a>
</g>
</g>
<!-- Node14&#45;&gt;Node16 -->
<g id="edge16" class="edge">
<title>Node14&#45;&gt;Node16</title>
<path fill="none" stroke="midnightblue" d="M1222.15,-63.41C1246.89,-53.03 1277.5,-40.2 1300.43,-30.58"/>
<polygon fill="midnightblue" stroke="midnightblue" points="1220.5,-60.3 1212.63,-67.4 1223.21,-66.76 1220.5,-60.3"/>
</g>
<!-- Node18 -->
<g id="node18" class="node">
<title>Node18</title>
<g id="a_node18"><a xlink:href="source_2pdes_2stokes_8cc.html" target="_top" xlink:title=" ">
<polygon fill="none" stroke="black" points="1414.5,-6 1414.5,-25 1537.5,-25 1537.5,-6 1414.5,-6"/>
<text text-anchor="middle" x="1476" y="-13" font-family="Helvetica,sans-Serif" font-size="10.00">source/pdes/stokes.cc</text>
</a>
</g>
</g>
<!-- Node17&#45;&gt;Node18 -->
<g id="edge18" class="edge">
<title>Node17&#45;&gt;Node18</title>
<path fill="none" stroke="midnightblue" d="M1352.54,-68.95C1382.84,-56.08 1429.15,-36.4 1455.6,-25.17"/>
<polygon fill="midnightblue" stroke="midnightblue" points="1351.15,-65.74 1343.32,-72.87 1353.89,-72.18 1351.15,-65.74"/>
</g>
<!-- Node19 -->
<g id="node19" class="node">
<title>Node19</title>
<g id="a_node19"><a xlink:href="apps_2mpi_2stokes_8cc.html" target="_top" xlink:title=" ">
<polygon fill="none" stroke="black" points="1556,-6 1556,-25 1666,-25 1666,-6 1556,-6"/>
<text text-anchor="middle" x="1611" y="-13" font-family="Helvetica,sans-Serif" font-size="10.00">apps/mpi/stokes.cc</text>
</a>
</g>
</g>
<!-- Node17&#45;&gt;Node19 -->
<g id="edge19" class="edge">
<title>Node17&#45;&gt;Node19</title>
<path fill="none" stroke="midnightblue" d="M1370.75,-70.72C1427.46,-57.92 1520.91,-36.83 1572.97,-25.08"/>
<polygon fill="midnightblue" stroke="midnightblue" points="1369.93,-67.32 1360.95,-72.94 1371.47,-74.15 1369.93,-67.32"/>
</g>
<!-- Node22 -->
<g id="node22" class="node">
<title>Node22</title>
<g id="a_node22"><a xlink:href="source_2pdes_2serial_2poisson_8cc.html" target="_top" xlink:title=" ">
<polygon fill="none" stroke="black" points="1402.5,-67.5 1402.5,-97.5 1507.5,-97.5 1507.5,-67.5 1402.5,-67.5"/>
<text text-anchor="start" x="1410.5" y="-85.5" font-family="Helvetica,sans-Serif" font-size="10.00">source/pdes/serial</text>
<text text-anchor="middle" x="1455" y="-74.5" font-family="Helvetica,sans-Serif" font-size="10.00">/poisson.cc</text>
</a>
</g>
</g>
<!-- Node21&#45;&gt;Node22 -->
<g id="edge24" class="edge">
<title>Node21&#45;&gt;Node22</title>
<path fill="none" stroke="midnightblue" d="M1455,-124.11C1455,-115.15 1455,-105.32 1455,-97.58"/>
<polygon fill="midnightblue" stroke="midnightblue" points="1451.5,-124.4 1455,-134.4 1458.5,-124.4 1451.5,-124.4"/>
</g>
<!-- Node23 -->
<g id="node23" class="node">
<title>Node23</title>
<g id="a_node23"><a xlink:href="apps_2serial_2poisson_8cc.html" target="_top" xlink:title=" ">
<polygon fill="none" stroke="black" points="1526,-73 1526,-92 1650,-92 1650,-73 1526,-73"/>
<text text-anchor="middle" x="1588" y="-80" font-family="Helvetica,sans-Serif" font-size="10.00">apps/serial/poisson.cc</text>
</a>
</g>
</g>
<!-- Node21&#45;&gt;Node23 -->
<g id="edge25" class="edge">
<title>Node21&#45;&gt;Node23</title>
<path fill="none" stroke="midnightblue" d="M1492.92,-129.97C1518.47,-117.48 1550.97,-101.6 1570.59,-92.01"/>
<polygon fill="midnightblue" stroke="midnightblue" points="1491.31,-126.86 1483.86,-134.4 1494.38,-133.15 1491.31,-126.86"/>
</g>
<!-- Node25 -->
<g id="node25" class="node">
<title>Node25</title>
<g id="a_node25"><a xlink:href="source_2pdes_2serial_2poisson__nitsche__interface_8cc.html" target="_top" xlink:title=" ">
<polygon fill="none" stroke="black" points="1668,-67.5 1668,-97.5 1828,-97.5 1828,-67.5 1668,-67.5"/>
<text text-anchor="start" x="1676" y="-85.5" font-family="Helvetica,sans-Serif" font-size="10.00">source/pdes/serial</text>
<text text-anchor="middle" x="1748" y="-74.5" font-family="Helvetica,sans-Serif" font-size="10.00">/poisson_nitsche_interface.cc</text>
</a>
</g>
</g>
<!-- Node24&#45;&gt;Node25 -->
<g id="edge27" class="edge">
<title>Node24&#45;&gt;Node25</title>
<path fill="none" stroke="midnightblue" d="M1748,-124.11C1748,-115.15 1748,-105.32 1748,-97.58"/>
<polygon fill="midnightblue" stroke="midnightblue" points="1744.5,-124.4 1748,-134.4 1751.5,-124.4 1744.5,-124.4"/>
</g>
<!-- Node26 -->
<g id="node26" class="node">
<title>Node26</title>
<g id="a_node26"><a xlink:href="apps_2serial_2poisson__nitsche__interface_8cc.html" target="_top" xlink:title=" ">
<polygon fill="none" stroke="black" points="1846.5,-67.5 1846.5,-97.5 1965.5,-97.5 1965.5,-67.5 1846.5,-67.5"/>
<text text-anchor="start" x="1854.5" y="-85.5" font-family="Helvetica,sans-Serif" font-size="10.00">apps/serial/poisson</text>
<text text-anchor="middle" x="1906" y="-74.5" font-family="Helvetica,sans-Serif" font-size="10.00">_nitsche_interface.cc</text>
</a>
</g>
</g>
<!-- Node24&#45;&gt;Node26 -->
<g id="edge28" class="edge">
<title>Node24&#45;&gt;Node26</title>
<path fill="none" stroke="midnightblue" d="M1791.65,-130.54C1816.93,-120.14 1848.3,-107.24 1871.78,-97.58"/>
<polygon fill="midnightblue" stroke="midnightblue" points="1790.2,-127.35 1782.28,-134.4 1792.86,-133.83 1790.2,-127.35"/>
</g>
<!-- Node28 -->
<g id="node28" class="node">
<title>Node28</title>
<g id="a_node28"><a xlink:href="source_2pdes_2serial_2reduced__lagrange_8cc.html" target="_top" xlink:title=" ">
<polygon fill="none" stroke="black" points="1984,-67.5 1984,-97.5 2104,-97.5 2104,-67.5 1984,-67.5"/>
<text text-anchor="start" x="1992" y="-85.5" font-family="Helvetica,sans-Serif" font-size="10.00">source/pdes/serial</text>
<text text-anchor="middle" x="2044" y="-74.5" font-family="Helvetica,sans-Serif" font-size="10.00">/reduced_lagrange.cc</text>
</a>
</g>
</g>
<!-- Node27&#45;&gt;Node28 -->
<g id="edge30" class="edge">
<title>Node27&#45;&gt;Node28</title>
<path fill="none" stroke="midnightblue" d="M2044,-124.11C2044,-115.15 2044,-105.32 2044,-97.58"/>
<polygon fill="midnightblue" stroke="midnightblue" points="2040.5,-124.4 2044,-134.4 2047.5,-124.4 2040.5,-124.4"/>
</g>
<!-- Node29 -->
<g id="node29" class="node">
<title>Node29</title>
<g id="a_node29"><a xlink:href="apps_2serial_2reduced__lagrange_8cc.html" target="_top" xlink:title=" ">
<polygon fill="none" stroke="black" points="2122,-67.5 2122,-97.5 2234,-97.5 2234,-67.5 2122,-67.5"/>
<text text-anchor="start" x="2130" y="-85.5" font-family="Helvetica,sans-Serif" font-size="10.00">apps/serial/reduced</text>
<text text-anchor="middle" x="2178" y="-74.5" font-family="Helvetica,sans-Serif" font-size="10.00">_lagrange.cc</text>
</a>
</g>
</g>
<!-- Node27&#45;&gt;Node29 -->
<g id="edge31" class="edge">
<title>Node27&#45;&gt;Node29</title>
<path fill="none" stroke="midnightblue" d="M2082.15,-129.99C2103.39,-119.69 2129.41,-107.07 2148.98,-97.58"/>
<polygon fill="midnightblue" stroke="midnightblue" points="2080.55,-126.88 2073.08,-134.4 2083.6,-133.18 2080.55,-126.88"/>
</g>
<!-- Node31 -->
<g id="node31" class="node">
<title>Node31</title>
<g id="a_node31"><a xlink:href="source_2pdes_2serial_2stokes_8cc.html" target="_top" xlink:title=" ">
<polygon fill="none" stroke="black" points="2252.5,-67.5 2252.5,-97.5 2357.5,-97.5 2357.5,-67.5 2252.5,-67.5"/>
<text text-anchor="start" x="2260.5" y="-85.5" font-family="Helvetica,sans-Serif" font-size="10.00">source/pdes/serial</text>
<text text-anchor="middle" x="2305" y="-74.5" font-family="Helvetica,sans-Serif" font-size="10.00">/stokes.cc</text>
</a>
</g>
</g>
<!-- Node30&#45;&gt;Node31 -->
<g id="edge33" class="edge">
<title>Node30&#45;&gt;Node31</title>
<path fill="none" stroke="midnightblue" d="M2260.51,-127.31C2270.41,-117.56 2281.89,-106.26 2290.71,-97.58"/>
<polygon fill="midnightblue" stroke="midnightblue" points="2257.99,-124.89 2253.32,-134.4 2262.9,-129.87 2257.99,-124.89"/>
</g>
<!-- Node32 -->
<g id="node32" class="node">
<title>Node32</title>
<g id="a_node32"><a xlink:href="apps_2serial_2stokes_8cc.html" target="_top" xlink:title=" ">
<polygon fill="none" stroke="black" points="2376,-73 2376,-92 2494,-92 2494,-73 2376,-73"/>
<text text-anchor="middle" x="2435" y="-80" font-family="Helvetica,sans-Serif" font-size="10.00">apps/serial/stokes.cc</text>
</a>
</g>
</g>
<!-- Node30&#45;&gt;Node32 -->
<g id="edge34" class="edge">
<title>Node30&#45;&gt;Node32</title>
<path fill="none" stroke="midnightblue" d="M2291.44,-131.11C2329.58,-118.46 2379.54,-101.89 2409.35,-92.01"/>
<polygon fill="midnightblue" stroke="midnightblue" points="2289.92,-127.93 2281.53,-134.4 2292.12,-134.57 2289.92,-127.93"/>
</g>
</g>
</svg>
