<?xml version="1.0" encoding="UTF-8" standalone="no"?>
<!DOCTYPE svg PUBLIC "-//W3C//DTD SVG 1.1//EN"
 "http://www.w3.org/Graphics/SVG/1.1/DTD/svg11.dtd">
<!-- Generated by graphviz version 2.43.0 (0)
 -->
<!-- Title: include/parsed_tools/constants.h Pages: 1 -->
<svg width="2105pt" height="240pt"
 viewBox="0.00 0.00 2104.50 240.00" xmlns="http://www.w3.org/2000/svg" xmlns:xlink="http://www.w3.org/1999/xlink">
<g id="graph0" class="graph" transform="scale(1 1) rotate(0) translate(4 236)">
<title>include/parsed_tools/constants.h</title>
<!-- Node1 -->
<g id="node1" class="node">
<title>Node1</title>
<g id="a_node1"><a xlink:title=" ">
<polygon fill="#bfbfbf" stroke="black" points="1065.5,-201.5 1065.5,-231.5 1182.5,-231.5 1182.5,-201.5 1065.5,-201.5"/>
<text text-anchor="start" x="1073.5" y="-219.5" font-family="Helvetica,sans-Serif" font-size="10.00">include/parsed_tools</text>
<text text-anchor="middle" x="1124" y="-208.5" font-family="Helvetica,sans-Serif" font-size="10.00">/constants.h</text>
</a>
</g>
</g>
<!-- Node2 -->
<g id="node2" class="node">
<title>Node2</title>
<g id="a_node2"><a xlink:href="linear__elasticity_8h.html" target="_top" xlink:title=" ">
<polygon fill="none" stroke="black" points="293.5,-67.5 293.5,-97.5 402.5,-97.5 402.5,-67.5 293.5,-67.5"/>
<text text-anchor="start" x="301.5" y="-85.5" font-family="Helvetica,sans-Serif" font-size="10.00">include/pdes/linear</text>
<text text-anchor="middle" x="348" y="-74.5" font-family="Helvetica,sans-Serif" font-size="10.00">_elasticity.h</text>
</a>
</g>
</g>
<!-- Node1&#45;&gt;Node2 -->
<g id="edge1" class="edge">
<title>Node1&#45;&gt;Node2</title>
<path fill="none" stroke="midnightblue" d="M1054.92,-211.92C960.7,-206.2 786.9,-192.72 641,-165 550.22,-147.76 446.64,-116 390.17,-97.64"/>
<polygon fill="midnightblue" stroke="midnightblue" points="1054.99,-215.43 1065.18,-212.53 1055.4,-208.44 1054.99,-215.43"/>
</g>
<!-- Node6 -->
<g id="node6" class="node">
<title>Node6</title>
<g id="a_node6"><a xlink:href="linear__problem_8h.html" target="_top" xlink:title=" ">
<polygon fill="none" stroke="black" points="650.5,-134.5 650.5,-164.5 759.5,-164.5 759.5,-134.5 650.5,-134.5"/>
<text text-anchor="start" x="658.5" y="-152.5" font-family="Helvetica,sans-Serif" font-size="10.00">include/pdes/linear</text>
<text text-anchor="middle" x="705" y="-141.5" font-family="Helvetica,sans-Serif" font-size="10.00">_problem.h</text>
</a>
</g>
</g>
<!-- Node1&#45;&gt;Node6 -->
<g id="edge5" class="edge">
<title>Node1&#45;&gt;Node6</title>
<path fill="none" stroke="midnightblue" d="M1055.25,-204.83C972.56,-192.01 835.46,-170.74 759.64,-158.98"/>
<polygon fill="midnightblue" stroke="midnightblue" points="1054.88,-208.32 1065.3,-206.39 1055.95,-201.4 1054.88,-208.32"/>
</g>
<!-- Node10 -->
<g id="node10" class="node">
<title>Node10</title>
<g id="a_node10"><a xlink:href="distributed__lagrange_8h.html" target="_top" xlink:title=" ">
<polygon fill="none" stroke="black" points="718.5,-67.5 718.5,-97.5 847.5,-97.5 847.5,-67.5 718.5,-67.5"/>
<text text-anchor="start" x="726.5" y="-85.5" font-family="Helvetica,sans-Serif" font-size="10.00">include/pdes/serial</text>
<text text-anchor="middle" x="783" y="-74.5" font-family="Helvetica,sans-Serif" font-size="10.00">/distributed_lagrange.h</text>
</a>
</g>
</g>
<!-- Node1&#45;&gt;Node10 -->
<g id="edge17" class="edge">
<title>Node1&#45;&gt;Node10</title>
<path fill="none" stroke="midnightblue" d="M1078.16,-197.76C1009.62,-171.23 881.82,-121.75 819.31,-97.56"/>
<polygon fill="midnightblue" stroke="midnightblue" points="1077.24,-201.15 1087.83,-201.5 1079.77,-194.62 1077.24,-201.15"/>
</g>
<!-- Node13 -->
<g id="node13" class="node">
<title>Node13</title>
<g id="a_node13"><a xlink:href="stokes_8h.html" target="_top" xlink:title=" ">
<polygon fill="none" stroke="black" points="866,-73 866,-92 988,-92 988,-73 866,-73"/>
<text text-anchor="middle" x="927" y="-80" font-family="Helvetica,sans-Serif" font-size="10.00">include/pdes/stokes.h</text>
</a>
</g>
</g>
<!-- Node1&#45;&gt;Node13 -->
<g id="edge30" class="edge">
<title>Node1&#45;&gt;Node13</title>
<path fill="none" stroke="midnightblue" d="M1094.44,-195.69C1050.78,-166.44 970.89,-112.91 939.83,-92.1"/>
<polygon fill="midnightblue" stroke="midnightblue" points="1092.66,-198.71 1102.92,-201.37 1096.56,-192.9 1092.66,-198.71"/>
</g>
<!-- Node17 -->
<g id="node17" class="node">
<title>Node17</title>
<g id="a_node17"><a xlink:href="serial_2poisson_8h.html" target="_top" xlink:title=" ">
<polygon fill="none" stroke="black" points="1070,-134.5 1070,-164.5 1178,-164.5 1178,-134.5 1070,-134.5"/>
<text text-anchor="start" x="1078" y="-152.5" font-family="Helvetica,sans-Serif" font-size="10.00">include/pdes/serial</text>
<text text-anchor="middle" x="1124" y="-141.5" font-family="Helvetica,sans-Serif" font-size="10.00">/poisson.h</text>
</a>
</g>
</g>
<!-- Node1&#45;&gt;Node17 -->
<g id="edge18" class="edge">
<title>Node1&#45;&gt;Node17</title>
<path fill="none" stroke="midnightblue" d="M1124,-191.11C1124,-182.15 1124,-172.32 1124,-164.58"/>
<polygon fill="midnightblue" stroke="midnightblue" points="1120.5,-191.4 1124,-201.4 1127.5,-191.4 1120.5,-191.4"/>
</g>
<!-- Node20 -->
<g id="node20" class="node">
<title>Node20</title>
<g id="a_node20"><a xlink:href="poisson__nitsche__interface_8h.html" target="_top" xlink:title=" ">
<polygon fill="none" stroke="black" points="1253.5,-134.5 1253.5,-164.5 1408.5,-164.5 1408.5,-134.5 1253.5,-134.5"/>
<text text-anchor="start" x="1261.5" y="-152.5" font-family="Helvetica,sans-Serif" font-size="10.00">include/pdes/serial</text>
<text text-anchor="middle" x="1331" y="-141.5" font-family="Helvetica,sans-Serif" font-size="10.00">/poisson_nitsche_interface.h</text>
</a>
</g>
</g>
<!-- Node1&#45;&gt;Node20 -->
<g id="edge21" class="edge">
<title>Node1&#45;&gt;Node20</title>
<path fill="none" stroke="midnightblue" d="M1178.32,-198.44C1211.87,-187.91 1254.41,-174.55 1286.06,-164.61"/>
<polygon fill="midnightblue" stroke="midnightblue" points="1177.15,-195.14 1168.66,-201.48 1179.25,-201.82 1177.15,-195.14"/>
</g>
<!-- Node23 -->
<g id="node23" class="node">
<title>Node23</title>
<g id="a_node23"><a xlink:href="reduced__lagrange_8h.html" target="_top" xlink:title=" ">
<polygon fill="none" stroke="black" points="1585,-134.5 1585,-164.5 1701,-164.5 1701,-134.5 1585,-134.5"/>
<text text-anchor="start" x="1593" y="-152.5" font-family="Helvetica,sans-Serif" font-size="10.00">include/pdes/serial</text>
<text text-anchor="middle" x="1643" y="-141.5" font-family="Helvetica,sans-Serif" font-size="10.00">/reduced_lagrange.h</text>
</a>
</g>
</g>
<!-- Node1&#45;&gt;Node23 -->
<g id="edge24" class="edge">
<title>Node1&#45;&gt;Node23</title>
<path fill="none" stroke="midnightblue" d="M1192.5,-206.92C1295.41,-194.03 1488.11,-169.9 1584.69,-157.8"/>
<polygon fill="midnightblue" stroke="midnightblue" points="1192.01,-203.45 1182.53,-208.17 1192.88,-210.4 1192.01,-203.45"/>
</g>
<!-- Node26 -->
<g id="node26" class="node">
<title>Node26</title>
<g id="a_node26"><a xlink:href="serial_2stokes_8h.html" target="_top" xlink:title=" ">
<polygon fill="none" stroke="black" points="1789,-134.5 1789,-164.5 1897,-164.5 1897,-134.5 1789,-134.5"/>
<text text-anchor="start" x="1797" y="-152.5" font-family="Helvetica,sans-Serif" font-size="10.00">include/pdes/serial</text>
<text text-anchor="middle" x="1843" y="-141.5" font-family="Helvetica,sans-Serif" font-size="10.00">/stokes.h</text>
</a>
</g>
</g>
<!-- Node1&#45;&gt;Node26 -->
<g id="edge27" class="edge">
<title>Node1&#45;&gt;Node26</title>
<path fill="none" stroke="midnightblue" d="M1192.93,-210.07C1302.52,-201.32 1523.18,-183.23 1710,-165 1736.01,-162.46 1764.84,-159.35 1789,-156.67"/>
<polygon fill="midnightblue" stroke="midnightblue" points="1192.37,-206.6 1182.68,-210.89 1192.93,-213.58 1192.37,-206.6"/>
</g>
<!-- Node29 -->
<g id="node29" class="node">
<title>Node29</title>
<g id="a_node29"><a xlink:href="constants_8cc.html" target="_top" xlink:title=" ">
<polygon fill="none" stroke="black" points="1915.5,-140 1915.5,-159 2028.5,-159 2028.5,-140 1915.5,-140"/>
<text text-anchor="middle" x="1972" y="-147" font-family="Helvetica,sans-Serif" font-size="10.00">source/constants.cc</text>
</a>
</g>
</g>
<!-- Node1&#45;&gt;Node29 -->
<g id="edge31" class="edge">
<title>Node1&#45;&gt;Node29</title>
<path fill="none" stroke="midnightblue" d="M1193,-214.55C1329.71,-211.91 1644.41,-201.96 1906,-165 1916.45,-163.52 1927.72,-161.29 1937.92,-159.02"/>
<polygon fill="midnightblue" stroke="midnightblue" points="1192.61,-211.06 1182.68,-214.75 1192.74,-218.06 1192.61,-211.06"/>
</g>
<!-- Node3 -->
<g id="node3" class="node">
<title>Node3</title>
<g id="a_node3"><a xlink:href="source_2pdes_2linear__elasticity_8cc.html" target="_top" xlink:title=" ">
<polygon fill="none" stroke="black" points="0,-0.5 0,-30.5 106,-30.5 106,-0.5 0,-0.5"/>
<text text-anchor="start" x="8" y="-18.5" font-family="Helvetica,sans-Serif" font-size="10.00">source/pdes/linear</text>
<text text-anchor="middle" x="53" y="-7.5" font-family="Helvetica,sans-Serif" font-size="10.00">_elasticity.cc</text>
</a>
</g>
</g>
<!-- Node2&#45;&gt;Node3 -->
<g id="edge2" class="edge">
<title>Node2&#45;&gt;Node3</title>
<path fill="none" stroke="midnightblue" d="M283.33,-67.78C236.54,-57.78 171.8,-43.8 115,-31 112.09,-30.34 109.1,-29.67 106.09,-28.98"/>
<polygon fill="midnightblue" stroke="midnightblue" points="282.82,-71.25 293.33,-69.91 284.28,-64.4 282.82,-71.25"/>
</g>
<!-- Node4 -->
<g id="node4" class="node">
<title>Node4</title>
<g id="a_node4"><a xlink:href="apps_2mpi_2linear__elasticity_8cc.html" target="_top" xlink:title=" ">
<polygon fill="none" stroke="black" points="124.5,-6 124.5,-25 279.5,-25 279.5,-6 124.5,-6"/>
<text text-anchor="middle" x="202" y="-13" font-family="Helvetica,sans-Serif" font-size="10.00">apps/mpi/linear_elasticity.cc</text>
</a>
</g>
</g>
<!-- Node2&#45;&gt;Node4 -->
<g id="edge3" class="edge">
<title>Node2&#45;&gt;Node4</title>
<path fill="none" stroke="midnightblue" d="M307.11,-63.3C278.95,-50.76 242.84,-34.68 221.11,-25.01"/>
<polygon fill="midnightblue" stroke="midnightblue" points="305.76,-66.53 316.32,-67.4 308.61,-60.13 305.76,-66.53"/>
</g>
<!-- Node5 -->
<g id="node5" class="node">
<title>Node5</title>
<g id="a_node5"><a xlink:href="apps_2serial_2linear__elasticity_8cc.html" target="_top" xlink:title=" ">
<polygon fill="none" stroke="black" points="297.5,-0.5 297.5,-30.5 398.5,-30.5 398.5,-0.5 297.5,-0.5"/>
<text text-anchor="start" x="305.5" y="-18.5" font-family="Helvetica,sans-Serif" font-size="10.00">apps/serial/linear</text>
<text text-anchor="middle" x="348" y="-7.5" font-family="Helvetica,sans-Serif" font-size="10.00">_elasticity.cc</text>
</a>
</g>
</g>
<!-- Node2&#45;&gt;Node5 -->
<g id="edge4" class="edge">
<title>Node2&#45;&gt;Node5</title>
<path fill="none" stroke="midnightblue" d="M348,-57.11C348,-48.15 348,-38.32 348,-30.58"/>
<polygon fill="midnightblue" stroke="midnightblue" points="344.5,-57.4 348,-67.4 351.5,-57.4 344.5,-57.4"/>
</g>
<!-- Node6&#45;&gt;Node2 -->
<g id="edge6" class="edge">
<title>Node6&#45;&gt;Node2</title>
<path fill="none" stroke="midnightblue" d="M640.26,-137.68C582.03,-127.81 494.17,-112.59 418,-98 413,-97.04 407.81,-96.02 402.61,-94.98"/>
<polygon fill="midnightblue" stroke="midnightblue" points="639.98,-141.18 650.42,-139.4 641.15,-134.28 639.98,-141.18"/>
</g>
<!-- Node7 -->
<g id="node7" class="node">
<title>Node7</title>
<g id="a_node7"><a xlink:href="mpi_2poisson_8h.html" target="_top" xlink:title=" ">
<polygon fill="none" stroke="black" points="551.5,-73 551.5,-92 700.5,-92 700.5,-73 551.5,-73"/>
<text text-anchor="middle" x="626" y="-80" font-family="Helvetica,sans-Serif" font-size="10.00">include/pdes/mpi/poisson.h</text>
</a>
</g>
</g>
<!-- Node6&#45;&gt;Node7 -->
<g id="edge7" class="edge">
<title>Node6&#45;&gt;Node7</title>
<path fill="none" stroke="midnightblue" d="M680.09,-128.01C665.43,-115.94 647.64,-101.3 636.57,-92.19"/>
<polygon fill="midnightblue" stroke="midnightblue" points="677.91,-130.75 687.86,-134.4 682.36,-125.34 677.91,-130.75"/>
</g>
<!-- Node6&#45;&gt;Node10 -->
<g id="edge10" class="edge">
<title>Node6&#45;&gt;Node10</title>
<path fill="none" stroke="midnightblue" d="M729.74,-127.88C741.59,-118.01 755.48,-106.43 766.11,-97.58"/>
<polygon fill="midnightblue" stroke="midnightblue" points="727.37,-125.31 721.92,-134.4 731.85,-130.68 727.37,-125.31"/>
</g>
<!-- Node6&#45;&gt;Node13 -->
<g id="edge13" class="edge">
<title>Node6&#45;&gt;Node13</title>
<path fill="none" stroke="midnightblue" d="M762.75,-131.59C806.11,-118.9 863.67,-102.04 897.87,-92.03"/>
<polygon fill="midnightblue" stroke="midnightblue" points="761.51,-128.31 752.9,-134.48 763.48,-135.02 761.51,-128.31"/>
</g>
<!-- Node16 -->
<g id="node16" class="node">
<title>Node16</title>
<g id="a_node16"><a xlink:href="linear__problem_8cc.html" target="_top" xlink:title=" ">
<polygon fill="none" stroke="black" points="427,-67.5 427,-97.5 533,-97.5 533,-67.5 427,-67.5"/>
<text text-anchor="start" x="435" y="-85.5" font-family="Helvetica,sans-Serif" font-size="10.00">source/pdes/linear</text>
<text text-anchor="middle" x="480" y="-74.5" font-family="Helvetica,sans-Serif" font-size="10.00">_problem.cc</text>
</a>
</g>
</g>
<!-- Node6&#45;&gt;Node16 -->
<g id="edge16" class="edge">
<title>Node6&#45;&gt;Node16</title>
<path fill="none" stroke="midnightblue" d="M646.43,-131.58C609.89,-121.02 563.4,-107.59 528.85,-97.61"/>
<polygon fill="midnightblue" stroke="midnightblue" points="645.88,-135.06 656.46,-134.48 647.82,-128.34 645.88,-135.06"/>
</g>
<!-- Node8 -->
<g id="node8" class="node">
<title>Node8</title>
<g id="a_node8"><a xlink:href="source_2pdes_2mpi_2poisson_8cc.html" target="_top" xlink:title=" ">
<polygon fill="none" stroke="black" points="551.5,-6 551.5,-25 702.5,-25 702.5,-6 551.5,-6"/>
<text text-anchor="middle" x="627" y="-13" font-family="Helvetica,sans-Serif" font-size="10.00">source/pdes/mpi/poisson.cc</text>
</a>
</g>
</g>
<!-- Node7&#45;&gt;Node8 -->
<g id="edge8" class="edge">
<title>Node7&#45;&gt;Node8</title>
<path fill="none" stroke="midnightblue" d="M626.29,-62.54C626.48,-50.17 626.72,-34.62 626.87,-25.13"/>
<polygon fill="midnightblue" stroke="midnightblue" points="622.79,-62.68 626.13,-72.73 629.79,-62.79 622.79,-62.68"/>
</g>
<!-- Node9 -->
<g id="node9" class="node">
<title>Node9</title>
<g id="a_node9"><a xlink:href="apps_2mpi_2poisson_8cc.html" target="_top" xlink:title=" ">
<polygon fill="none" stroke="black" points="417,-6 417,-25 533,-25 533,-6 417,-6"/>
<text text-anchor="middle" x="475" y="-13" font-family="Helvetica,sans-Serif" font-size="10.00">apps/mpi/poisson.cc</text>
</a>
</g>
</g>
<!-- Node7&#45;&gt;Node9 -->
<g id="edge9" class="edge">
<title>Node7&#45;&gt;Node9</title>
<path fill="none" stroke="midnightblue" d="M596.45,-68.78C566.55,-55.91 521.12,-36.35 495.13,-25.17"/>
<polygon fill="midnightblue" stroke="midnightblue" points="595.38,-72.13 605.95,-72.87 598.15,-65.7 595.38,-72.13"/>
</g>
<!-- Node11 -->
<g id="node11" class="node">
<title>Node11</title>
<g id="a_node11"><a xlink:href="source_2pdes_2serial_2distributed__lagrange_8cc.html" target="_top" xlink:title=" ">
<polygon fill="none" stroke="black" points="864,-0.5 864,-30.5 998,-30.5 998,-0.5 864,-0.5"/>
<text text-anchor="start" x="872" y="-18.5" font-family="Helvetica,sans-Serif" font-size="10.00">source/pdes/serial</text>
<text text-anchor="middle" x="931" y="-7.5" font-family="Helvetica,sans-Serif" font-size="10.00">/distributed_lagrange.cc</text>
</a>
</g>
</g>
<!-- Node10&#45;&gt;Node11 -->
<g id="edge11" class="edge">
<title>Node10&#45;&gt;Node11</title>
<path fill="none" stroke="midnightblue" d="M824.51,-63.27C848.08,-52.92 877.14,-40.15 898.95,-30.58"/>
<polygon fill="midnightblue" stroke="midnightblue" points="822.86,-60.17 815.11,-67.4 825.68,-66.58 822.86,-60.17"/>
</g>
<!-- Node12 -->
<g id="node12" class="node">
<title>Node12</title>
<g id="a_node12"><a xlink:href="apps_2serial_2distributed__lagrange_8cc.html" target="_top" xlink:title=" ">
<polygon fill="none" stroke="black" points="720.5,-0.5 720.5,-30.5 845.5,-30.5 845.5,-0.5 720.5,-0.5"/>
<text text-anchor="start" x="728.5" y="-18.5" font-family="Helvetica,sans-Serif" font-size="10.00">apps/serial/distributed</text>
<text text-anchor="middle" x="783" y="-7.5" font-family="Helvetica,sans-Serif" font-size="10.00">_lagrange.cc</text>
</a>
</g>
</g>
<!-- Node10&#45;&gt;Node12 -->
<g id="edge12" class="edge">
<title>Node10&#45;&gt;Node12</title>
<path fill="none" stroke="midnightblue" d="M783,-57.11C783,-48.15 783,-38.32 783,-30.58"/>
<polygon fill="midnightblue" stroke="midnightblue" points="779.5,-57.4 783,-67.4 786.5,-57.4 779.5,-57.4"/>
</g>
<!-- Node14 -->
<g id="node14" class="node">
<title>Node14</title>
<g id="a_node14"><a xlink:href="source_2pdes_2stokes_8cc.html" target="_top" xlink:title=" ">
<polygon fill="none" stroke="black" points="1144.5,-6 1144.5,-25 1267.5,-25 1267.5,-6 1144.5,-6"/>
<text text-anchor="middle" x="1206" y="-13" font-family="Helvetica,sans-Serif" font-size="10.00">source/pdes/stokes.cc</text>
</a>
</g>
</g>
<!-- Node13&#45;&gt;Node14 -->
<g id="edge14" class="edge">
<title>Node13&#45;&gt;Node14</title>
<path fill="none" stroke="midnightblue" d="M973.6,-70.64C1028.57,-57.84 1118.83,-36.81 1169.16,-25.08"/>
<polygon fill="midnightblue" stroke="midnightblue" points="972.71,-67.26 963.76,-72.94 974.29,-74.08 972.71,-67.26"/>
</g>
<!-- Node15 -->
<g id="node15" class="node">
<title>Node15</title>
<g id="a_node15"><a xlink:href="apps_2mpi_2stokes_8cc.html" target="_top" xlink:title=" ">
<polygon fill="none" stroke="black" points="1016,-6 1016,-25 1126,-25 1126,-6 1016,-6"/>
<text text-anchor="middle" x="1071" y="-13" font-family="Helvetica,sans-Serif" font-size="10.00">apps/mpi/stokes.cc</text>
</a>
</g>
</g>
<!-- Node13&#45;&gt;Node15 -->
<g id="edge15" class="edge">
<title>Node13&#45;&gt;Node15</title>
<path fill="none" stroke="midnightblue" d="M955.55,-68.61C984.07,-55.74 1027.12,-36.31 1051.8,-25.17"/>
<polygon fill="midnightblue" stroke="midnightblue" points="953.8,-65.56 946.12,-72.87 956.68,-71.94 953.8,-65.56"/>
</g>
<!-- Node18 -->
<g id="node18" class="node">
<title>Node18</title>
<g id="a_node18"><a xlink:href="source_2pdes_2serial_2poisson_8cc.html" target="_top" xlink:title=" ">
<polygon fill="none" stroke="black" points="1148.5,-67.5 1148.5,-97.5 1253.5,-97.5 1253.5,-67.5 1148.5,-67.5"/>
<text text-anchor="start" x="1156.5" y="-85.5" font-family="Helvetica,sans-Serif" font-size="10.00">source/pdes/serial</text>
<text text-anchor="middle" x="1201" y="-74.5" font-family="Helvetica,sans-Serif" font-size="10.00">/poisson.cc</text>
</a>
</g>
</g>
<!-- Node17&#45;&gt;Node18 -->
<g id="edge19" class="edge">
<title>Node17&#45;&gt;Node18</title>
<path fill="none" stroke="midnightblue" d="M1148.42,-127.88C1160.12,-118.01 1173.84,-106.43 1184.32,-97.58"/>
<polygon fill="midnightblue" stroke="midnightblue" points="1146.09,-125.27 1140.71,-134.4 1150.61,-130.62 1146.09,-125.27"/>
</g>
<!-- Node19 -->
<g id="node19" class="node">
<title>Node19</title>
<g id="a_node19"><a xlink:href="apps_2serial_2poisson_8cc.html" target="_top" xlink:title=" ">
<polygon fill="none" stroke="black" points="1006,-73 1006,-92 1130,-92 1130,-73 1006,-73"/>
<text text-anchor="middle" x="1068" y="-80" font-family="Helvetica,sans-Serif" font-size="10.00">apps/serial/poisson.cc</text>
</a>
</g>
</g>
<!-- Node17&#45;&gt;Node19 -->
<g id="edge20" class="edge">
<title>Node17&#45;&gt;Node19</title>
<path fill="none" stroke="midnightblue" d="M1105.18,-126.66C1095.02,-114.86 1083.05,-100.97 1075.49,-92.19"/>
<polygon fill="midnightblue" stroke="midnightblue" points="1102.67,-129.1 1111.85,-134.4 1107.97,-124.54 1102.67,-129.1"/>
</g>
<!-- Node21 -->
<g id="node21" class="node">
<title>Node21</title>
<g id="a_node21"><a xlink:href="source_2pdes_2serial_2poisson__nitsche__interface_8cc.html" target="_top" xlink:title=" ">
<polygon fill="none" stroke="black" points="1409,-67.5 1409,-97.5 1569,-97.5 1569,-67.5 1409,-67.5"/>
<text text-anchor="start" x="1417" y="-85.5" font-family="Helvetica,sans-Serif" font-size="10.00">source/pdes/serial</text>
<text text-anchor="middle" x="1489" y="-74.5" font-family="Helvetica,sans-Serif" font-size="10.00">/poisson_nitsche_interface.cc</text>
</a>
</g>
</g>
<!-- Node20&#45;&gt;Node21 -->
<g id="edge22" class="edge">
<title>Node20&#45;&gt;Node21</title>
<path fill="none" stroke="midnightblue" d="M1374.65,-130.54C1399.93,-120.14 1431.3,-107.24 1454.78,-97.58"/>
<polygon fill="midnightblue" stroke="midnightblue" points="1373.2,-127.35 1365.28,-134.4 1375.86,-133.83 1373.2,-127.35"/>
</g>
<!-- Node22 -->
<g id="node22" class="node">
<title>Node22</title>
<g id="a_node22"><a xlink:href="apps_2serial_2poisson__nitsche__interface_8cc.html" target="_top" xlink:title=" ">
<polygon fill="none" stroke="black" points="1271.5,-67.5 1271.5,-97.5 1390.5,-97.5 1390.5,-67.5 1271.5,-67.5"/>
<text text-anchor="start" x="1279.5" y="-85.5" font-family="Helvetica,sans-Serif" font-size="10.00">apps/serial/poisson</text>
<text text-anchor="middle" x="1331" y="-74.5" font-family="Helvetica,sans-Serif" font-size="10.00">_nitsche_interface.cc</text>
</a>
</g>
</g>
<!-- Node20&#45;&gt;Node22 -->
<g id="edge23" class="edge">
<title>Node20&#45;&gt;Node22</title>
<path fill="none" stroke="midnightblue" d="M1331,-124.11C1331,-115.15 1331,-105.32 1331,-97.58"/>
<polygon fill="midnightblue" stroke="midnightblue" points="1327.5,-124.4 1331,-134.4 1334.5,-124.4 1327.5,-124.4"/>
</g>
<!-- Node24 -->
<g id="node24" class="node">
<title>Node24</title>
<g id="a_node24"><a xlink:href="source_2pdes_2serial_2reduced__lagrange_8cc.html" target="_top" xlink:title=" ">
<polygon fill="none" stroke="black" points="1717,-67.5 1717,-97.5 1837,-97.5 1837,-67.5 1717,-67.5"/>
<text text-anchor="start" x="1725" y="-85.5" font-family="Helvetica,sans-Serif" font-size="10.00">source/pdes/serial</text>
<text text-anchor="middle" x="1777" y="-74.5" font-family="Helvetica,sans-Serif" font-size="10.00">/reduced_lagrange.cc</text>
</a>
</g>
</g>
<!-- Node23&#45;&gt;Node24 -->
<g id="edge25" class="edge">
<title>Node23&#45;&gt;Node24</title>
<path fill="none" stroke="midnightblue" d="M1681.15,-129.99C1702.39,-119.69 1728.41,-107.07 1747.98,-97.58"/>
<polygon fill="midnightblue" stroke="midnightblue" points="1679.55,-126.88 1672.08,-134.4 1682.6,-133.18 1679.55,-126.88"/>
</g>
<!-- Node25 -->
<g id="node25" class="node">
<title>Node25</title>
<g id="a_node25"><a xlink:href="apps_2serial_2reduced__lagrange_8cc.html" target="_top" xlink:title=" ">
<polygon fill="none" stroke="black" points="1587,-67.5 1587,-97.5 1699,-97.5 1699,-67.5 1587,-67.5"/>
<text text-anchor="start" x="1595" y="-85.5" font-family="Helvetica,sans-Serif" font-size="10.00">apps/serial/reduced</text>
<text text-anchor="middle" x="1643" y="-74.5" font-family="Helvetica,sans-Serif" font-size="10.00">_lagrange.cc</text>
</a>
</g>
</g>
<!-- Node23&#45;&gt;Node25 -->
<g id="edge26" class="edge">
<title>Node23&#45;&gt;Node25</title>
<path fill="none" stroke="midnightblue" d="M1643,-124.11C1643,-115.15 1643,-105.32 1643,-97.58"/>
<polygon fill="midnightblue" stroke="midnightblue" points="1639.5,-124.4 1643,-134.4 1646.5,-124.4 1639.5,-124.4"/>
</g>
<!-- Node27 -->
<g id="node27" class="node">
<title>Node27</title>
<g id="a_node27"><a xlink:href="source_2pdes_2serial_2stokes_8cc.html" target="_top" xlink:title=" ">
<polygon fill="none" stroke="black" points="1991.5,-67.5 1991.5,-97.5 2096.5,-97.5 2096.5,-67.5 1991.5,-67.5"/>
<text text-anchor="start" x="1999.5" y="-85.5" font-family="Helvetica,sans-Serif" font-size="10.00">source/pdes/serial</text>
<text text-anchor="middle" x="2044" y="-74.5" font-family="Helvetica,sans-Serif" font-size="10.00">/stokes.cc</text>
</a>
</g>
</g>
<!-- Node26&#45;&gt;Node27 -->
<g id="edge28" class="edge">
<title>Node26&#45;&gt;Node27</title>
<path fill="none" stroke="midnightblue" d="M1896.41,-131.23C1928.93,-120.71 1969.94,-107.45 2000.47,-97.58"/>
<polygon fill="midnightblue" stroke="midnightblue" points="1895.05,-127.99 1886.61,-134.4 1897.21,-134.65 1895.05,-127.99"/>
</g>
<!-- Node28 -->
<g id="node28" class="node">
<title>Node28</title>
<g id="a_node28"><a xlink:href="apps_2serial_2stokes_8cc.html" target="_top" xlink:title=" ">
<polygon fill="none" stroke="black" points="1855,-73 1855,-92 1973,-92 1973,-73 1855,-73"/>
<text text-anchor="middle" x="1914" y="-80" font-family="Helvetica,sans-Serif" font-size="10.00">apps/serial/stokes.cc</text>
</a>
</g>
</g>
<!-- Node26&#45;&gt;Node28 -->
<g id="edge29" class="edge">
<title>Node26&#45;&gt;Node28</title>
<path fill="none" stroke="midnightblue" d="M1866.12,-127.34C1879.15,-115.4 1894.74,-101.14 1904.5,-92.19"/>
<polygon fill="midnightblue" stroke="midnightblue" points="1863.42,-125.06 1858.41,-134.4 1868.15,-130.22 1863.42,-125.06"/>
</g>
</g>
</svg>
