<?xml version="1.0" encoding="UTF-8" standalone="no"?>
<!DOCTYPE svg PUBLIC "-//W3C//DTD SVG 1.1//EN"
 "http://www.w3.org/Graphics/SVG/1.1/DTD/svg11.dtd">
<!-- Generated by graphviz version 2.43.0 (0)
 -->
<!-- Title: include/parsed_tools/constants.h Pages: 1 -->
<svg width="2638pt" height="240pt"
 viewBox="0.00 0.00 2637.50 240.00" xmlns="http://www.w3.org/2000/svg" xmlns:xlink="http://www.w3.org/1999/xlink">
<g id="graph0" class="graph" transform="scale(1 1) rotate(0) translate(4 236)">
<title>include/parsed_tools/constants.h</title>
<!-- Node1 -->
<g id="node1" class="node">
<title>Node1</title>
<g id="a_node1"><a xlink:title=" ">
<polygon fill="#bfbfbf" stroke="black" points="1491,-201.5 1491,-231.5 1608,-231.5 1608,-201.5 1491,-201.5"/>
<text text-anchor="start" x="1499" y="-219.5" font-family="Helvetica,sans-Serif" font-size="10.00">include/parsed_tools</text>
<text text-anchor="middle" x="1549.5" y="-208.5" font-family="Helvetica,sans-Serif" font-size="10.00">/constants.h</text>
</a>
</g>
</g>
<!-- Node2 -->
<g id="node2" class="node">
<title>Node2</title>
<g id="a_node2"><a xlink:href="distributed__lagrange_8h.html" target="_top" xlink:title=" ">
<polygon fill="none" stroke="black" points="279.5,-67.5 279.5,-97.5 413.5,-97.5 413.5,-67.5 279.5,-67.5"/>
<text text-anchor="start" x="287.5" y="-85.5" font-family="Helvetica,sans-Serif" font-size="10.00">include/pdes/distributed</text>
<text text-anchor="middle" x="346.5" y="-74.5" font-family="Helvetica,sans-Serif" font-size="10.00">_lagrange.h</text>
</a>
</g>
</g>
<!-- Node1&#45;&gt;Node2 -->
<g id="edge1" class="edge">
<title>Node1&#45;&gt;Node2</title>
<path fill="none" stroke="midnightblue" d="M1480.59,-211.03C1367.31,-203.41 1134.72,-186.6 938.5,-165 747.72,-144 523.52,-110.79 413.83,-93.98"/>
<polygon fill="midnightblue" stroke="midnightblue" points="1480.63,-214.54 1490.84,-211.72 1481.1,-207.56 1480.63,-214.54"/>
</g>
<!-- Node6 -->
<g id="node6" class="node">
<title>Node6</title>
<g id="a_node6"><a xlink:href="linear__elasticity_8h.html" target="_top" xlink:title=" ">
<polygon fill="none" stroke="black" points="721,-67.5 721,-97.5 830,-97.5 830,-67.5 721,-67.5"/>
<text text-anchor="start" x="729" y="-85.5" font-family="Helvetica,sans-Serif" font-size="10.00">include/pdes/linear</text>
<text text-anchor="middle" x="775.5" y="-74.5" font-family="Helvetica,sans-Serif" font-size="10.00">_elasticity.h</text>
</a>
</g>
</g>
<!-- Node1&#45;&gt;Node6 -->
<g id="edge5" class="edge">
<title>Node1&#45;&gt;Node6</title>
<path fill="none" stroke="midnightblue" d="M1480.68,-211.69C1387.66,-205.75 1216.96,-192.04 1073.5,-165 981.26,-147.61 875.87,-115.91 818.42,-97.59"/>
<polygon fill="midnightblue" stroke="midnightblue" points="1480.6,-215.19 1490.8,-212.33 1481.04,-208.21 1480.6,-215.19"/>
</g>
<!-- Node10 -->
<g id="node10" class="node">
<title>Node10</title>
<g id="a_node10"><a xlink:href="linear__problem_8h.html" target="_top" xlink:title=" ">
<polygon fill="none" stroke="black" points="1127,-134.5 1127,-164.5 1236,-164.5 1236,-134.5 1127,-134.5"/>
<text text-anchor="start" x="1135" y="-152.5" font-family="Helvetica,sans-Serif" font-size="10.00">include/pdes/linear</text>
<text text-anchor="middle" x="1181.5" y="-141.5" font-family="Helvetica,sans-Serif" font-size="10.00">_problem.h</text>
</a>
</g>
</g>
<!-- Node1&#45;&gt;Node10 -->
<g id="edge9" class="edge">
<title>Node1&#45;&gt;Node10</title>
<path fill="none" stroke="midnightblue" d="M1480.63,-203.34C1409.87,-190.84 1301.15,-171.63 1236.11,-160.15"/>
<polygon fill="midnightblue" stroke="midnightblue" points="1480.33,-206.84 1490.78,-205.13 1481.54,-199.94 1480.33,-206.84"/>
</g>
<!-- Node11 -->
<g id="node11" class="node">
<title>Node11</title>
<g id="a_node11"><a xlink:href="linear__visco__elasticity_8h.html" target="_top" xlink:title=" ">
<polygon fill="none" stroke="black" points="980,-67.5 980,-97.5 1089,-97.5 1089,-67.5 980,-67.5"/>
<text text-anchor="start" x="988" y="-85.5" font-family="Helvetica,sans-Serif" font-size="10.00">include/pdes/linear</text>
<text text-anchor="middle" x="1034.5" y="-74.5" font-family="Helvetica,sans-Serif" font-size="10.00">_visco_elasticity.h</text>
</a>
</g>
</g>
<!-- Node1&#45;&gt;Node11 -->
<g id="edge23" class="edge">
<title>Node1&#45;&gt;Node11</title>
<path fill="none" stroke="midnightblue" d="M1480.45,-212.85C1375.14,-207.9 1180.04,-194.93 1117.5,-165 1085.26,-149.57 1057.92,-116.52 1044.12,-97.59"/>
<polygon fill="midnightblue" stroke="midnightblue" points="1480.51,-216.36 1490.66,-213.32 1480.83,-209.36 1480.51,-216.36"/>
</g>
<!-- Node18 -->
<g id="node18" class="node">
<title>Node18</title>
<g id="a_node18"><a xlink:href="stokes_8h.html" target="_top" xlink:title=" ">
<polygon fill="none" stroke="black" points="1397.5,-73 1397.5,-92 1519.5,-92 1519.5,-73 1397.5,-73"/>
<text text-anchor="middle" x="1458.5" y="-80" font-family="Helvetica,sans-Serif" font-size="10.00">include/pdes/stokes.h</text>
</a>
</g>
</g>
<!-- Node1&#45;&gt;Node18 -->
<g id="edge36" class="edge">
<title>Node1&#45;&gt;Node18</title>
<path fill="none" stroke="midnightblue" d="M1533.9,-192.87C1513.39,-163.12 1478.33,-112.26 1464.43,-92.1"/>
<polygon fill="midnightblue" stroke="midnightblue" points="1531.2,-195.13 1539.76,-201.37 1536.97,-191.15 1531.2,-195.13"/>
</g>
<!-- Node22 -->
<g id="node22" class="node">
<title>Node22</title>
<g id="a_node22"><a xlink:href="serial_2poisson_8h.html" target="_top" xlink:title=" ">
<polygon fill="none" stroke="black" points="1536.5,-134.5 1536.5,-164.5 1644.5,-164.5 1644.5,-134.5 1536.5,-134.5"/>
<text text-anchor="start" x="1544.5" y="-152.5" font-family="Helvetica,sans-Serif" font-size="10.00">include/pdes/serial</text>
<text text-anchor="middle" x="1590.5" y="-141.5" font-family="Helvetica,sans-Serif" font-size="10.00">/poisson.h</text>
</a>
</g>
</g>
<!-- Node1&#45;&gt;Node22 -->
<g id="edge24" class="edge">
<title>Node1&#45;&gt;Node22</title>
<path fill="none" stroke="midnightblue" d="M1563.78,-192.87C1569.71,-183.46 1576.41,-172.83 1581.62,-164.58"/>
<polygon fill="midnightblue" stroke="midnightblue" points="1560.77,-191.07 1558.4,-201.4 1566.69,-194.81 1560.77,-191.07"/>
</g>
<!-- Node25 -->
<g id="node25" class="node">
<title>Node25</title>
<g id="a_node25"><a xlink:href="poisson__nitsche__interface_8h.html" target="_top" xlink:title=" ">
<polygon fill="none" stroke="black" points="1806,-134.5 1806,-164.5 1961,-164.5 1961,-134.5 1806,-134.5"/>
<text text-anchor="start" x="1814" y="-152.5" font-family="Helvetica,sans-Serif" font-size="10.00">include/pdes/serial</text>
<text text-anchor="middle" x="1883.5" y="-141.5" font-family="Helvetica,sans-Serif" font-size="10.00">/poisson_nitsche_interface.h</text>
</a>
</g>
</g>
<!-- Node1&#45;&gt;Node25 -->
<g id="edge27" class="edge">
<title>Node1&#45;&gt;Node25</title>
<path fill="none" stroke="midnightblue" d="M1617.95,-202.18C1674.3,-191.21 1753.97,-175.71 1811.32,-164.55"/>
<polygon fill="midnightblue" stroke="midnightblue" points="1617.21,-198.76 1608.06,-204.1 1618.55,-205.63 1617.21,-198.76"/>
</g>
<!-- Node28 -->
<g id="node28" class="node">
<title>Node28</title>
<g id="a_node28"><a xlink:href="reduced__lagrange_8h.html" target="_top" xlink:title=" ">
<polygon fill="none" stroke="black" points="2121.5,-134.5 2121.5,-164.5 2237.5,-164.5 2237.5,-134.5 2121.5,-134.5"/>
<text text-anchor="start" x="2129.5" y="-152.5" font-family="Helvetica,sans-Serif" font-size="10.00">include/pdes/serial</text>
<text text-anchor="middle" x="2179.5" y="-141.5" font-family="Helvetica,sans-Serif" font-size="10.00">/reduced_lagrange.h</text>
</a>
</g>
</g>
<!-- Node1&#45;&gt;Node28 -->
<g id="edge30" class="edge">
<title>Node1&#45;&gt;Node28</title>
<path fill="none" stroke="midnightblue" d="M1618.4,-208.39C1743.21,-195.51 2004.57,-168.55 2121.17,-156.52"/>
<polygon fill="midnightblue" stroke="midnightblue" points="1617.79,-204.94 1608.2,-209.44 1618.51,-211.9 1617.79,-204.94"/>
</g>
<!-- Node31 -->
<g id="node31" class="node">
<title>Node31</title>
<g id="a_node31"><a xlink:href="serial_2stokes_8h.html" target="_top" xlink:title=" ">
<polygon fill="none" stroke="black" points="2320.5,-134.5 2320.5,-164.5 2428.5,-164.5 2428.5,-134.5 2320.5,-134.5"/>
<text text-anchor="start" x="2328.5" y="-152.5" font-family="Helvetica,sans-Serif" font-size="10.00">include/pdes/serial</text>
<text text-anchor="middle" x="2374.5" y="-141.5" font-family="Helvetica,sans-Serif" font-size="10.00">/stokes.h</text>
</a>
</g>
</g>
<!-- Node1&#45;&gt;Node31 -->
<g id="edge33" class="edge">
<title>Node1&#45;&gt;Node31</title>
<path fill="none" stroke="midnightblue" d="M1618.52,-211.43C1743.77,-203.83 2016.78,-186.32 2246.5,-165 2270.77,-162.75 2297.58,-159.78 2320.36,-157.12"/>
<polygon fill="midnightblue" stroke="midnightblue" points="1618.08,-207.95 1608.31,-212.05 1618.51,-214.94 1618.08,-207.95"/>
</g>
<!-- Node34 -->
<g id="node34" class="node">
<title>Node34</title>
<g id="a_node34"><a xlink:href="constants_8cc.html" target="_top" xlink:title=" ">
<polygon fill="none" stroke="black" points="2447,-140 2447,-159 2560,-159 2560,-140 2447,-140"/>
<text text-anchor="middle" x="2503.5" y="-147" font-family="Helvetica,sans-Serif" font-size="10.00">source/constants.cc</text>
</a>
</g>
</g>
<!-- Node1&#45;&gt;Node34 -->
<g id="edge37" class="edge">
<title>Node1&#45;&gt;Node34</title>
<path fill="none" stroke="midnightblue" d="M1618.67,-215.31C1768.6,-214.08 2134.42,-206.64 2437.5,-165 2447.96,-163.56 2459.22,-161.34 2469.43,-159.07"/>
<polygon fill="midnightblue" stroke="midnightblue" points="1618.23,-211.81 1608.26,-215.39 1618.28,-218.81 1618.23,-211.81"/>
</g>
<!-- Node3 -->
<g id="node3" class="node">
<title>Node3</title>
<g id="a_node3"><a xlink:href="source_2pdes_2distributed__lagrange_8cc.html" target="_top" xlink:title=" ">
<polygon fill="none" stroke="black" points="0,-0.5 0,-30.5 131,-30.5 131,-0.5 0,-0.5"/>
<text text-anchor="start" x="8" y="-18.5" font-family="Helvetica,sans-Serif" font-size="10.00">source/pdes/distributed</text>
<text text-anchor="middle" x="65.5" y="-7.5" font-family="Helvetica,sans-Serif" font-size="10.00">_lagrange.cc</text>
</a>
</g>
</g>
<!-- Node2&#45;&gt;Node3 -->
<g id="edge2" class="edge">
<title>Node2&#45;&gt;Node3</title>
<path fill="none" stroke="midnightblue" d="M275.97,-65.19C229.95,-54.54 170.48,-40.78 126.5,-30.61"/>
<polygon fill="midnightblue" stroke="midnightblue" points="275.34,-68.63 285.87,-67.48 276.92,-61.81 275.34,-68.63"/>
</g>
<!-- Node4 -->
<g id="node4" class="node">
<title>Node4</title>
<g id="a_node4"><a xlink:href="apps_2mpi_2distributed__lagrange_8cc.html" target="_top" xlink:title=" ">
<polygon fill="none" stroke="black" points="149,-0.5 149,-30.5 266,-30.5 266,-0.5 149,-0.5"/>
<text text-anchor="start" x="157" y="-18.5" font-family="Helvetica,sans-Serif" font-size="10.00">apps/mpi/distributed</text>
<text text-anchor="middle" x="207.5" y="-7.5" font-family="Helvetica,sans-Serif" font-size="10.00">_lagrange.cc</text>
</a>
</g>
</g>
<!-- Node2&#45;&gt;Node4 -->
<g id="edge3" class="edge">
<title>Node2&#45;&gt;Node4</title>
<path fill="none" stroke="midnightblue" d="M307.22,-63.13C285.13,-52.8 257.99,-40.11 237.6,-30.58"/>
<polygon fill="midnightblue" stroke="midnightblue" points="305.8,-66.33 316.34,-67.4 308.76,-59.99 305.8,-66.33"/>
</g>
<!-- Node5 -->
<g id="node5" class="node">
<title>Node5</title>
<g id="a_node5"><a xlink:href="apps_2serial_2distributed__lagrange_8cc.html" target="_top" xlink:title=" ">
<polygon fill="none" stroke="black" points="284,-0.5 284,-30.5 409,-30.5 409,-0.5 284,-0.5"/>
<text text-anchor="start" x="292" y="-18.5" font-family="Helvetica,sans-Serif" font-size="10.00">apps/serial/distributed</text>
<text text-anchor="middle" x="346.5" y="-7.5" font-family="Helvetica,sans-Serif" font-size="10.00">_lagrange.cc</text>
</a>
</g>
</g>
<!-- Node2&#45;&gt;Node5 -->
<g id="edge4" class="edge">
<title>Node2&#45;&gt;Node5</title>
<path fill="none" stroke="midnightblue" d="M346.5,-57.11C346.5,-48.15 346.5,-38.32 346.5,-30.58"/>
<polygon fill="midnightblue" stroke="midnightblue" points="343,-57.4 346.5,-67.4 350,-57.4 343,-57.4"/>
</g>
<!-- Node7 -->
<g id="node7" class="node">
<title>Node7</title>
<g id="a_node7"><a xlink:href="source_2pdes_2linear__elasticity_8cc.html" target="_top" xlink:title=" ">
<polygon fill="none" stroke="black" points="427.5,-0.5 427.5,-30.5 533.5,-30.5 533.5,-0.5 427.5,-0.5"/>
<text text-anchor="start" x="435.5" y="-18.5" font-family="Helvetica,sans-Serif" font-size="10.00">source/pdes/linear</text>
<text text-anchor="middle" x="480.5" y="-7.5" font-family="Helvetica,sans-Serif" font-size="10.00">_elasticity.cc</text>
</a>
</g>
</g>
<!-- Node6&#45;&gt;Node7 -->
<g id="edge6" class="edge">
<title>Node6&#45;&gt;Node7</title>
<path fill="none" stroke="midnightblue" d="M710.83,-67.78C664.04,-57.78 599.3,-43.8 542.5,-31 539.59,-30.34 536.6,-29.67 533.59,-28.98"/>
<polygon fill="midnightblue" stroke="midnightblue" points="710.32,-71.25 720.83,-69.91 711.78,-64.4 710.32,-71.25"/>
</g>
<!-- Node8 -->
<g id="node8" class="node">
<title>Node8</title>
<g id="a_node8"><a xlink:href="apps_2mpi_2linear__elasticity_8cc.html" target="_top" xlink:title=" ">
<polygon fill="none" stroke="black" points="552,-6 552,-25 707,-25 707,-6 552,-6"/>
<text text-anchor="middle" x="629.5" y="-13" font-family="Helvetica,sans-Serif" font-size="10.00">apps/mpi/linear_elasticity.cc</text>
</a>
</g>
</g>
<!-- Node6&#45;&gt;Node8 -->
<g id="edge7" class="edge">
<title>Node6&#45;&gt;Node8</title>
<path fill="none" stroke="midnightblue" d="M734.61,-63.3C706.45,-50.76 670.34,-34.68 648.61,-25.01"/>
<polygon fill="midnightblue" stroke="midnightblue" points="733.26,-66.53 743.82,-67.4 736.11,-60.13 733.26,-66.53"/>
</g>
<!-- Node9 -->
<g id="node9" class="node">
<title>Node9</title>
<g id="a_node9"><a xlink:href="apps_2serial_2linear__elasticity_8cc.html" target="_top" xlink:title=" ">
<polygon fill="none" stroke="black" points="725,-0.5 725,-30.5 826,-30.5 826,-0.5 725,-0.5"/>
<text text-anchor="start" x="733" y="-18.5" font-family="Helvetica,sans-Serif" font-size="10.00">apps/serial/linear</text>
<text text-anchor="middle" x="775.5" y="-7.5" font-family="Helvetica,sans-Serif" font-size="10.00">_elasticity.cc</text>
</a>
</g>
</g>
<!-- Node6&#45;&gt;Node9 -->
<g id="edge8" class="edge">
<title>Node6&#45;&gt;Node9</title>
<path fill="none" stroke="midnightblue" d="M775.5,-57.11C775.5,-48.15 775.5,-38.32 775.5,-30.58"/>
<polygon fill="midnightblue" stroke="midnightblue" points="772,-57.4 775.5,-67.4 779,-57.4 772,-57.4"/>
</g>
<!-- Node10&#45;&gt;Node2 -->
<g id="edge10" class="edge">
<title>Node10&#45;&gt;Node2</title>
<path fill="none" stroke="midnightblue" d="M1116.4,-143.43C961.26,-131.36 571.01,-100.98 413.74,-88.73"/>
<polygon fill="midnightblue" stroke="midnightblue" points="1116.47,-146.95 1126.71,-144.24 1117.02,-139.97 1116.47,-146.95"/>
</g>
<!-- Node10&#45;&gt;Node6 -->
<g id="edge11" class="edge">
<title>Node10&#45;&gt;Node6</title>
<path fill="none" stroke="midnightblue" d="M1116.39,-138.08C1037.01,-125.37 904.28,-104.12 830.03,-92.23"/>
<polygon fill="midnightblue" stroke="midnightblue" points="1116.32,-141.61 1126.75,-139.73 1117.42,-134.7 1116.32,-141.61"/>
</g>
<!-- Node10&#45;&gt;Node11 -->
<g id="edge12" class="edge">
<title>Node10&#45;&gt;Node11</title>
<path fill="none" stroke="midnightblue" d="M1140.27,-130.27C1116.86,-119.92 1087.99,-107.15 1066.33,-97.58"/>
<polygon fill="midnightblue" stroke="midnightblue" points="1139.04,-133.55 1149.6,-134.4 1141.87,-127.15 1139.04,-133.55"/>
</g>
<!-- Node15 -->
<g id="node15" class="node">
<title>Node15</title>
<g id="a_node15"><a xlink:href="mpi_2poisson_8h.html" target="_top" xlink:title=" ">
<polygon fill="none" stroke="black" points="1107,-73 1107,-92 1256,-92 1256,-73 1107,-73"/>
<text text-anchor="middle" x="1181.5" y="-80" font-family="Helvetica,sans-Serif" font-size="10.00">include/pdes/mpi/poisson.h</text>
</a>
</g>
</g>
<!-- Node10&#45;&gt;Node15 -->
<g id="edge16" class="edge">
<title>Node10&#45;&gt;Node15</title>
<path fill="none" stroke="midnightblue" d="M1181.5,-124.25C1181.5,-113.02 1181.5,-100.38 1181.5,-92.19"/>
<polygon fill="midnightblue" stroke="midnightblue" points="1178,-124.4 1181.5,-134.4 1185,-124.4 1178,-124.4"/>
</g>
<!-- Node10&#45;&gt;Node18 -->
<g id="edge19" class="edge">
<title>Node10&#45;&gt;Node18</title>
<path fill="none" stroke="midnightblue" d="M1246.18,-133.32C1300.89,-120.48 1377.32,-102.55 1421.99,-92.07"/>
<polygon fill="midnightblue" stroke="midnightblue" points="1245.16,-129.97 1236.23,-135.66 1246.76,-136.78 1245.16,-129.97"/>
</g>
<!-- Node21 -->
<g id="node21" class="node">
<title>Node21</title>
<g id="a_node21"><a xlink:href="linear__problem_8cc.html" target="_top" xlink:title=" ">
<polygon fill="none" stroke="black" points="1273.5,-67.5 1273.5,-97.5 1379.5,-97.5 1379.5,-67.5 1273.5,-67.5"/>
<text text-anchor="start" x="1281.5" y="-85.5" font-family="Helvetica,sans-Serif" font-size="10.00">source/pdes/linear</text>
<text text-anchor="middle" x="1326.5" y="-74.5" font-family="Helvetica,sans-Serif" font-size="10.00">_problem.cc</text>
</a>
</g>
</g>
<!-- Node10&#45;&gt;Node21 -->
<g id="edge22" class="edge">
<title>Node10&#45;&gt;Node21</title>
<path fill="none" stroke="midnightblue" d="M1222.17,-130.27C1245.26,-119.92 1273.74,-107.15 1295.1,-97.58"/>
<polygon fill="midnightblue" stroke="midnightblue" points="1220.66,-127.11 1212.96,-134.4 1223.52,-133.5 1220.66,-127.11"/>
</g>
<!-- Node12 -->
<g id="node12" class="node">
<title>Node12</title>
<g id="a_node12"><a xlink:href="source_2pdes_2linear__visco__elasticity_8cc.html" target="_top" xlink:title=" ">
<polygon fill="none" stroke="black" points="844.5,-0.5 844.5,-30.5 954.5,-30.5 954.5,-0.5 844.5,-0.5"/>
<text text-anchor="start" x="852.5" y="-18.5" font-family="Helvetica,sans-Serif" font-size="10.00">source/pdes/linear</text>
<text text-anchor="middle" x="899.5" y="-7.5" font-family="Helvetica,sans-Serif" font-size="10.00">_visco_elasticity.cc</text>
</a>
</g>
</g>
<!-- Node11&#45;&gt;Node12 -->
<g id="edge13" class="edge">
<title>Node11&#45;&gt;Node12</title>
<path fill="none" stroke="midnightblue" d="M996.06,-62.99C974.66,-52.69 948.45,-40.07 928.74,-30.58"/>
<polygon fill="midnightblue" stroke="midnightblue" points="994.68,-66.21 1005.21,-67.4 997.72,-59.9 994.68,-66.21"/>
</g>
<!-- Node13 -->
<g id="node13" class="node">
<title>Node13</title>
<g id="a_node13"><a xlink:href="apps_2mpi_2linear__visco__elasticity_8cc.html" target="_top" xlink:title=" ">
<polygon fill="none" stroke="black" points="973,-0.5 973,-30.5 1096,-30.5 1096,-0.5 973,-0.5"/>
<text text-anchor="start" x="981" y="-18.5" font-family="Helvetica,sans-Serif" font-size="10.00">apps/mpi/linear_visco</text>
<text text-anchor="middle" x="1034.5" y="-7.5" font-family="Helvetica,sans-Serif" font-size="10.00">_elasticity.cc</text>
</a>
</g>
</g>
<!-- Node11&#45;&gt;Node13 -->
<g id="edge14" class="edge">
<title>Node11&#45;&gt;Node13</title>
<path fill="none" stroke="midnightblue" d="M1034.5,-57.11C1034.5,-48.15 1034.5,-38.32 1034.5,-30.58"/>
<polygon fill="midnightblue" stroke="midnightblue" points="1031,-57.4 1034.5,-67.4 1038,-57.4 1031,-57.4"/>
</g>
<!-- Node14 -->
<g id="node14" class="node">
<title>Node14</title>
<g id="a_node14"><a xlink:href="apps_2serial_2linear__visco__elasticity_8cc.html" target="_top" xlink:title=" ">
<polygon fill="none" stroke="black" points="1114.5,-0.5 1114.5,-30.5 1224.5,-30.5 1224.5,-0.5 1114.5,-0.5"/>
<text text-anchor="start" x="1122.5" y="-18.5" font-family="Helvetica,sans-Serif" font-size="10.00">apps/serial/linear</text>
<text text-anchor="middle" x="1169.5" y="-7.5" font-family="Helvetica,sans-Serif" font-size="10.00">_visco_elasticity.cc</text>
</a>
</g>
</g>
<!-- Node11&#45;&gt;Node14 -->
<g id="edge15" class="edge">
<title>Node11&#45;&gt;Node14</title>
<path fill="none" stroke="midnightblue" d="M1072.94,-62.99C1094.34,-52.69 1120.55,-40.07 1140.26,-30.58"/>
<polygon fill="midnightblue" stroke="midnightblue" points="1071.28,-59.9 1063.79,-67.4 1074.32,-66.21 1071.28,-59.9"/>
</g>
<!-- Node16 -->
<g id="node16" class="node">
<title>Node16</title>
<g id="a_node16"><a xlink:href="source_2pdes_2mpi_2poisson_8cc.html" target="_top" xlink:title=" ">
<polygon fill="none" stroke="black" points="1377,-6 1377,-25 1528,-25 1528,-6 1377,-6"/>
<text text-anchor="middle" x="1452.5" y="-13" font-family="Helvetica,sans-Serif" font-size="10.00">source/pdes/mpi/poisson.cc</text>
</a>
</g>
</g>
<!-- Node15&#45;&gt;Node16 -->
<g id="edge17" class="edge">
<title>Node15&#45;&gt;Node16</title>
<path fill="none" stroke="midnightblue" d="M1227.09,-70.56C1280.52,-57.75 1367.93,-36.78 1416.71,-25.08"/>
<polygon fill="midnightblue" stroke="midnightblue" points="1226.12,-67.2 1217.21,-72.94 1227.75,-74.01 1226.12,-67.2"/>
</g>
<!-- Node17 -->
<g id="node17" class="node">
<title>Node17</title>
<g id="a_node17"><a xlink:href="apps_2mpi_2poisson_8cc.html" target="_top" xlink:title=" ">
<polygon fill="none" stroke="black" points="1242.5,-6 1242.5,-25 1358.5,-25 1358.5,-6 1242.5,-6"/>
<text text-anchor="middle" x="1300.5" y="-13" font-family="Helvetica,sans-Serif" font-size="10.00">apps/mpi/poisson.cc</text>
</a>
</g>
</g>
<!-- Node15&#45;&gt;Node17 -->
<g id="edge18" class="edge">
<title>Node15&#45;&gt;Node17</title>
<path fill="none" stroke="midnightblue" d="M1206.61,-67.79C1230.19,-54.9 1264.76,-36.02 1284.71,-25.13"/>
<polygon fill="midnightblue" stroke="midnightblue" points="1204.65,-64.87 1197.55,-72.73 1208,-71.01 1204.65,-64.87"/>
</g>
<!-- Node19 -->
<g id="node19" class="node">
<title>Node19</title>
<g id="a_node19"><a xlink:href="source_2pdes_2stokes_8cc.html" target="_top" xlink:title=" ">
<polygon fill="none" stroke="black" points="1675,-6 1675,-25 1798,-25 1798,-6 1675,-6"/>
<text text-anchor="middle" x="1736.5" y="-13" font-family="Helvetica,sans-Serif" font-size="10.00">source/pdes/stokes.cc</text>
</a>
</g>
</g>
<!-- Node18&#45;&gt;Node19 -->
<g id="edge20" class="edge">
<title>Node18&#45;&gt;Node19</title>
<path fill="none" stroke="midnightblue" d="M1504.93,-70.64C1559.7,-57.84 1649.64,-36.81 1699.79,-25.08"/>
<polygon fill="midnightblue" stroke="midnightblue" points="1504.07,-67.25 1495.13,-72.94 1505.66,-74.07 1504.07,-67.25"/>
</g>
<!-- Node20 -->
<g id="node20" class="node">
<title>Node20</title>
<g id="a_node20"><a xlink:href="apps_2mpi_2stokes_8cc.html" target="_top" xlink:title=" ">
<polygon fill="none" stroke="black" points="1546.5,-6 1546.5,-25 1656.5,-25 1656.5,-6 1546.5,-6"/>
<text text-anchor="middle" x="1601.5" y="-13" font-family="Helvetica,sans-Serif" font-size="10.00">apps/mpi/stokes.cc</text>
</a>
</g>
</g>
<!-- Node18&#45;&gt;Node20 -->
<g id="edge21" class="edge">
<title>Node18&#45;&gt;Node20</title>
<path fill="none" stroke="midnightblue" d="M1486.85,-68.61C1515.17,-55.74 1557.93,-36.31 1582.43,-25.17"/>
<polygon fill="midnightblue" stroke="midnightblue" points="1485.14,-65.54 1477.49,-72.87 1488.04,-71.92 1485.14,-65.54"/>
</g>
<!-- Node23 -->
<g id="node23" class="node">
<title>Node23</title>
<g id="a_node23"><a xlink:href="source_2pdes_2serial_2poisson_8cc.html" target="_top" xlink:title=" ">
<polygon fill="none" stroke="black" points="1538,-67.5 1538,-97.5 1643,-97.5 1643,-67.5 1538,-67.5"/>
<text text-anchor="start" x="1546" y="-85.5" font-family="Helvetica,sans-Serif" font-size="10.00">source/pdes/serial</text>
<text text-anchor="middle" x="1590.5" y="-74.5" font-family="Helvetica,sans-Serif" font-size="10.00">/poisson.cc</text>
</a>
</g>
</g>
<!-- Node22&#45;&gt;Node23 -->
<g id="edge25" class="edge">
<title>Node22&#45;&gt;Node23</title>
<path fill="none" stroke="midnightblue" d="M1590.5,-124.11C1590.5,-115.15 1590.5,-105.32 1590.5,-97.58"/>
<polygon fill="midnightblue" stroke="midnightblue" points="1587,-124.4 1590.5,-134.4 1594,-124.4 1587,-124.4"/>
</g>
<!-- Node24 -->
<g id="node24" class="node">
<title>Node24</title>
<g id="a_node24"><a xlink:href="apps_2serial_2poisson_8cc.html" target="_top" xlink:title=" ">
<polygon fill="none" stroke="black" points="1661.5,-73 1661.5,-92 1785.5,-92 1785.5,-73 1661.5,-73"/>
<text text-anchor="middle" x="1723.5" y="-80" font-family="Helvetica,sans-Serif" font-size="10.00">apps/serial/poisson.cc</text>
</a>
</g>
</g>
<!-- Node22&#45;&gt;Node24 -->
<g id="edge26" class="edge">
<title>Node22&#45;&gt;Node24</title>
<path fill="none" stroke="midnightblue" d="M1628.42,-129.97C1653.97,-117.48 1686.47,-101.6 1706.09,-92.01"/>
<polygon fill="midnightblue" stroke="midnightblue" points="1626.81,-126.86 1619.36,-134.4 1629.88,-133.15 1626.81,-126.86"/>
</g>
<!-- Node26 -->
<g id="node26" class="node">
<title>Node26</title>
<g id="a_node26"><a xlink:href="source_2pdes_2serial_2poisson__nitsche__interface_8cc.html" target="_top" xlink:title=" ">
<polygon fill="none" stroke="black" points="1803.5,-67.5 1803.5,-97.5 1963.5,-97.5 1963.5,-67.5 1803.5,-67.5"/>
<text text-anchor="start" x="1811.5" y="-85.5" font-family="Helvetica,sans-Serif" font-size="10.00">source/pdes/serial</text>
<text text-anchor="middle" x="1883.5" y="-74.5" font-family="Helvetica,sans-Serif" font-size="10.00">/poisson_nitsche_interface.cc</text>
</a>
</g>
</g>
<!-- Node25&#45;&gt;Node26 -->
<g id="edge28" class="edge">
<title>Node25&#45;&gt;Node26</title>
<path fill="none" stroke="midnightblue" d="M1883.5,-124.11C1883.5,-115.15 1883.5,-105.32 1883.5,-97.58"/>
<polygon fill="midnightblue" stroke="midnightblue" points="1880,-124.4 1883.5,-134.4 1887,-124.4 1880,-124.4"/>
</g>
<!-- Node27 -->
<g id="node27" class="node">
<title>Node27</title>
<g id="a_node27"><a xlink:href="apps_2serial_2poisson__nitsche__interface_8cc.html" target="_top" xlink:title=" ">
<polygon fill="none" stroke="black" points="1982,-67.5 1982,-97.5 2101,-97.5 2101,-67.5 1982,-67.5"/>
<text text-anchor="start" x="1990" y="-85.5" font-family="Helvetica,sans-Serif" font-size="10.00">apps/serial/poisson</text>
<text text-anchor="middle" x="2041.5" y="-74.5" font-family="Helvetica,sans-Serif" font-size="10.00">_nitsche_interface.cc</text>
</a>
</g>
</g>
<!-- Node25&#45;&gt;Node27 -->
<g id="edge29" class="edge">
<title>Node25&#45;&gt;Node27</title>
<path fill="none" stroke="midnightblue" d="M1927.15,-130.54C1952.43,-120.14 1983.8,-107.24 2007.28,-97.58"/>
<polygon fill="midnightblue" stroke="midnightblue" points="1925.7,-127.35 1917.78,-134.4 1928.36,-133.83 1925.7,-127.35"/>
</g>
<!-- Node29 -->
<g id="node29" class="node">
<title>Node29</title>
<g id="a_node29"><a xlink:href="source_2pdes_2serial_2reduced__lagrange_8cc.html" target="_top" xlink:title=" ">
<polygon fill="none" stroke="black" points="2119.5,-67.5 2119.5,-97.5 2239.5,-97.5 2239.5,-67.5 2119.5,-67.5"/>
<text text-anchor="start" x="2127.5" y="-85.5" font-family="Helvetica,sans-Serif" font-size="10.00">source/pdes/serial</text>
<text text-anchor="middle" x="2179.5" y="-74.5" font-family="Helvetica,sans-Serif" font-size="10.00">/reduced_lagrange.cc</text>
</a>
</g>
</g>
<!-- Node28&#45;&gt;Node29 -->
<g id="edge31" class="edge">
<title>Node28&#45;&gt;Node29</title>
<path fill="none" stroke="midnightblue" d="M2179.5,-124.11C2179.5,-115.15 2179.5,-105.32 2179.5,-97.58"/>
<polygon fill="midnightblue" stroke="midnightblue" points="2176,-124.4 2179.5,-134.4 2183,-124.4 2176,-124.4"/>
</g>
<!-- Node30 -->
<g id="node30" class="node">
<title>Node30</title>
<g id="a_node30"><a xlink:href="apps_2serial_2reduced__lagrange_8cc.html" target="_top" xlink:title=" ">
<polygon fill="none" stroke="black" points="2257.5,-67.5 2257.5,-97.5 2369.5,-97.5 2369.5,-67.5 2257.5,-67.5"/>
<text text-anchor="start" x="2265.5" y="-85.5" font-family="Helvetica,sans-Serif" font-size="10.00">apps/serial/reduced</text>
<text text-anchor="middle" x="2313.5" y="-74.5" font-family="Helvetica,sans-Serif" font-size="10.00">_lagrange.cc</text>
</a>
</g>
</g>
<!-- Node28&#45;&gt;Node30 -->
<g id="edge32" class="edge">
<title>Node28&#45;&gt;Node30</title>
<path fill="none" stroke="midnightblue" d="M2217.65,-129.99C2238.89,-119.69 2264.91,-107.07 2284.48,-97.58"/>
<polygon fill="midnightblue" stroke="midnightblue" points="2216.05,-126.88 2208.58,-134.4 2219.1,-133.18 2216.05,-126.88"/>
</g>
<!-- Node32 -->
<g id="node32" class="node">
<title>Node32</title>
<g id="a_node32"><a xlink:href="source_2pdes_2serial_2stokes_8cc.html" target="_top" xlink:title=" ">
<polygon fill="none" stroke="black" points="2388,-67.5 2388,-97.5 2493,-97.5 2493,-67.5 2388,-67.5"/>
<text text-anchor="start" x="2396" y="-85.5" font-family="Helvetica,sans-Serif" font-size="10.00">source/pdes/serial</text>
<text text-anchor="middle" x="2440.5" y="-74.5" font-family="Helvetica,sans-Serif" font-size="10.00">/stokes.cc</text>
</a>
</g>
</g>
<!-- Node31&#45;&gt;Node32 -->
<g id="edge34" class="edge">
<title>Node31&#45;&gt;Node32</title>
<path fill="none" stroke="midnightblue" d="M2396.01,-127.31C2405.91,-117.56 2417.39,-106.26 2426.21,-97.58"/>
<polygon fill="midnightblue" stroke="midnightblue" points="2393.49,-124.89 2388.82,-134.4 2398.4,-129.87 2393.49,-124.89"/>
</g>
<!-- Node33 -->
<g id="node33" class="node">
<title>Node33</title>
<g id="a_node33"><a xlink:href="apps_2serial_2stokes_8cc.html" target="_top" xlink:title=" ">
<polygon fill="none" stroke="black" points="2511.5,-73 2511.5,-92 2629.5,-92 2629.5,-73 2511.5,-73"/>
<text text-anchor="middle" x="2570.5" y="-80" font-family="Helvetica,sans-Serif" font-size="10.00">apps/serial/stokes.cc</text>
</a>
</g>
</g>
<!-- Node31&#45;&gt;Node33 -->
<g id="edge35" class="edge">
<title>Node31&#45;&gt;Node33</title>
<path fill="none" stroke="midnightblue" d="M2426.94,-131.11C2465.08,-118.46 2515.04,-101.89 2544.85,-92.01"/>
<polygon fill="midnightblue" stroke="midnightblue" points="2425.42,-127.93 2417.03,-134.4 2427.62,-134.57 2425.42,-127.93"/>
</g>
</g>
</svg>
