<?xml version="1.0" encoding="UTF-8" standalone="no"?>
<!DOCTYPE svg PUBLIC "-//W3C//DTD SVG 1.1//EN"
 "http://www.w3.org/Graphics/SVG/1.1/DTD/svg11.dtd">
<!-- Generated by graphviz version 2.43.0 (0)
 -->
<!-- Title: include/parsed_tools/constants.h Pages: 1 -->
<svg width="513pt" height="173pt"
 viewBox="0.00 0.00 512.50 173.00" xmlns="http://www.w3.org/2000/svg" xmlns:xlink="http://www.w3.org/1999/xlink">
<g id="graph0" class="graph" transform="scale(1 1) rotate(0) translate(4 169)">
<title>include/parsed_tools/constants.h</title>
<!-- Node1 -->
<g id="node1" class="node">
<title>Node1</title>
<g id="a_node1"><a xlink:title=" ">
<polygon fill="#bfbfbf" stroke="black" points="127,-134.5 127,-164.5 244,-164.5 244,-134.5 127,-134.5"/>
<text text-anchor="start" x="135" y="-152.5" font-family="Helvetica,sans-Serif" font-size="10.00">include/parsed_tools</text>
<text text-anchor="middle" x="185.5" y="-141.5" font-family="Helvetica,sans-Serif" font-size="10.00">/constants.h</text>
</a>
</g>
</g>
<!-- Node2 -->
<g id="node2" class="node">
<title>Node2</title>
<g id="a_node2"><a xlink:href="constants_8cc.html" target="_top" xlink:title=" ">
<polygon fill="none" stroke="black" points="0,-73 0,-92 113,-92 113,-73 0,-73"/>
<text text-anchor="middle" x="56.5" y="-80" font-family="Helvetica,sans-Serif" font-size="10.00">source/constants.cc</text>
</a>
</g>
</g>
<!-- Node1&#45;&gt;Node2 -->
<g id="edge1" class="edge">
<title>Node1&#45;&gt;Node2</title>
<path fill="none" stroke="midnightblue" d="M148.39,-129.8C123.66,-117.34 92.33,-101.56 73.38,-92.01"/>
<polygon fill="midnightblue" stroke="midnightblue" points="147,-133.02 157.51,-134.4 150.15,-126.77 147,-133.02"/>
</g>
<!-- Node3 -->
<g id="node3" class="node">
<title>Node3</title>
<g id="a_node3"><a xlink:href="linear__elasticity_8h.html" target="_top" xlink:title=" ">
<polygon fill="none" stroke="black" points="131.5,-67.5 131.5,-97.5 239.5,-97.5 239.5,-67.5 131.5,-67.5"/>
<text text-anchor="start" x="139.5" y="-85.5" font-family="Helvetica,sans-Serif" font-size="10.00">include/pdes/serial</text>
<text text-anchor="middle" x="185.5" y="-74.5" font-family="Helvetica,sans-Serif" font-size="10.00">/linear_elasticity.h</text>
</a>
</g>
</g>
<!-- Node1&#45;&gt;Node3 -->
<g id="edge2" class="edge">
<title>Node1&#45;&gt;Node3</title>
<path fill="none" stroke="midnightblue" d="M185.5,-124.11C185.5,-115.15 185.5,-105.32 185.5,-97.58"/>
<polygon fill="midnightblue" stroke="midnightblue" points="182,-124.4 185.5,-134.4 189,-124.4 182,-124.4"/>
</g>
<!-- Node6 -->
<g id="node6" class="node">
<title>Node6</title>
<g id="a_node6"><a xlink:href="poisson_8h.html" target="_top" xlink:title=" ">
<polygon fill="none" stroke="black" points="257.5,-67.5 257.5,-97.5 365.5,-97.5 365.5,-67.5 257.5,-67.5"/>
<text text-anchor="start" x="265.5" y="-85.5" font-family="Helvetica,sans-Serif" font-size="10.00">include/pdes/serial</text>
<text text-anchor="middle" x="311.5" y="-74.5" font-family="Helvetica,sans-Serif" font-size="10.00">/poisson.h</text>
</a>
</g>
</g>
<!-- Node1&#45;&gt;Node6 -->
<g id="edge5" class="edge">
<title>Node1&#45;&gt;Node6</title>
<path fill="none" stroke="midnightblue" d="M221.92,-129.71C241.79,-119.46 265.98,-106.98 284.21,-97.58"/>
<polygon fill="midnightblue" stroke="midnightblue" points="220.12,-126.7 212.84,-134.4 223.33,-132.92 220.12,-126.7"/>
</g>
<!-- Node4 -->
<g id="node4" class="node">
<title>Node4</title>
<g id="a_node4"><a xlink:href="source_2pdes_2serial_2linear__elasticity_8cc.html" target="_top" xlink:title=" ">
<polygon fill="none" stroke="black" points="7.5,-0.5 7.5,-30.5 117.5,-30.5 117.5,-0.5 7.5,-0.5"/>
<text text-anchor="start" x="15.5" y="-18.5" font-family="Helvetica,sans-Serif" font-size="10.00">source/pdes/serial</text>
<text text-anchor="middle" x="62.5" y="-7.5" font-family="Helvetica,sans-Serif" font-size="10.00">/linear_elasticity.cc</text>
</a>
</g>
</g>
<!-- Node3&#45;&gt;Node4 -->
<g id="edge3" class="edge">
<title>Node3&#45;&gt;Node4</title>
<path fill="none" stroke="midnightblue" d="M149.95,-62.71C130.55,-52.46 106.94,-39.98 89.14,-30.58"/>
<polygon fill="midnightblue" stroke="midnightblue" points="148.33,-65.82 158.81,-67.4 151.6,-59.63 148.33,-65.82"/>
</g>
<!-- Node5 -->
<g id="node5" class="node">
<title>Node5</title>
<g id="a_node5"><a xlink:href="apps_2serial_2linear__elasticity_8cc.html" target="_top" xlink:title=" ">
<polygon fill="none" stroke="black" points="136,-0.5 136,-30.5 237,-30.5 237,-0.5 136,-0.5"/>
<text text-anchor="start" x="144" y="-18.5" font-family="Helvetica,sans-Serif" font-size="10.00">apps/serial/linear</text>
<text text-anchor="middle" x="186.5" y="-7.5" font-family="Helvetica,sans-Serif" font-size="10.00">_elasticity.cc</text>
</a>
</g>
</g>
<!-- Node3&#45;&gt;Node5 -->
<g id="edge4" class="edge">
<title>Node3&#45;&gt;Node5</title>
<path fill="none" stroke="midnightblue" d="M185.88,-57.11C186.01,-48.15 186.16,-38.32 186.28,-30.58"/>
<polygon fill="midnightblue" stroke="midnightblue" points="182.37,-57.34 185.72,-67.4 189.37,-57.45 182.37,-57.34"/>
</g>
<!-- Node7 -->
<g id="node7" class="node">
<title>Node7</title>
<g id="a_node7"><a xlink:href="source_2pdes_2serial_2poisson_8cc.html" target="_top" xlink:title=" ">
<polygon fill="none" stroke="black" points="257,-0.5 257,-30.5 362,-30.5 362,-0.5 257,-0.5"/>
<text text-anchor="start" x="265" y="-18.5" font-family="Helvetica,sans-Serif" font-size="10.00">source/pdes/serial</text>
<text text-anchor="middle" x="309.5" y="-7.5" font-family="Helvetica,sans-Serif" font-size="10.00">/poisson.cc</text>
</a>
</g>
</g>
<!-- Node6&#45;&gt;Node7 -->
<g id="edge6" class="edge">
<title>Node6&#45;&gt;Node7</title>
<path fill="none" stroke="midnightblue" d="M310.75,-57.11C310.47,-48.15 310.17,-38.32 309.93,-30.58"/>
<polygon fill="midnightblue" stroke="midnightblue" points="307.26,-57.51 311.07,-67.4 314.26,-57.29 307.26,-57.51"/>
</g>
<!-- Node8 -->
<g id="node8" class="node">
<title>Node8</title>
<g id="a_node8"><a xlink:href="apps_2serial_2poisson_8cc.html" target="_top" xlink:title=" ">
<polygon fill="none" stroke="black" points="380.5,-6 380.5,-25 504.5,-25 504.5,-6 380.5,-6"/>
<text text-anchor="middle" x="442.5" y="-13" font-family="Helvetica,sans-Serif" font-size="10.00">apps/serial/poisson.cc</text>
</a>
</g>
</g>
<!-- Node6&#45;&gt;Node8 -->
<g id="edge7" class="edge">
<title>Node6&#45;&gt;Node8</title>
<path fill="none" stroke="midnightblue" d="M349.18,-62.8C374.3,-50.34 406.11,-34.56 425.36,-25.01"/>
<polygon fill="midnightblue" stroke="midnightblue" points="347.33,-59.82 339.93,-67.4 350.44,-66.09 347.33,-59.82"/>
</g>
</g>
</svg>
