<?xml version="1.0" encoding="UTF-8" standalone="no"?>
<!DOCTYPE svg PUBLIC "-//W3C//DTD SVG 1.1//EN"
 "http://www.w3.org/Graphics/SVG/1.1/DTD/svg11.dtd">
<!-- Generated by graphviz version 2.43.0 (0)
 -->
<!-- Title: include/parsed_tools/constants.h Pages: 1 -->
<svg width="2120pt" height="240pt"
 viewBox="0.00 0.00 2120.00 240.00" xmlns="http://www.w3.org/2000/svg" xmlns:xlink="http://www.w3.org/1999/xlink">
<g id="graph0" class="graph" transform="scale(1 1) rotate(0) translate(4 236)">
<title>include/parsed_tools/constants.h</title>
<!-- Node1 -->
<g id="node1" class="node">
<title>Node1</title>
<g id="a_node1"><a xlink:title=" ">
<polygon fill="#bfbfbf" stroke="black" points="1145.5,-201.5 1145.5,-231.5 1262.5,-231.5 1262.5,-201.5 1145.5,-201.5"/>
<text text-anchor="start" x="1153.5" y="-219.5" font-family="Helvetica,sans-Serif" font-size="10.00">include/parsed_tools</text>
<text text-anchor="middle" x="1204" y="-208.5" font-family="Helvetica,sans-Serif" font-size="10.00">/constants.h</text>
</a>
</g>
</g>
<!-- Node2 -->
<g id="node2" class="node">
<title>Node2</title>
<g id="a_node2"><a xlink:href="mpi_2linear__elasticity_8h.html" target="_top" xlink:title=" ">
<polygon fill="none" stroke="black" points="164.5,-67.5 164.5,-97.5 295.5,-97.5 295.5,-67.5 164.5,-67.5"/>
<text text-anchor="start" x="172.5" y="-85.5" font-family="Helvetica,sans-Serif" font-size="10.00">include/pdes/mpi/linear</text>
<text text-anchor="middle" x="230" y="-74.5" font-family="Helvetica,sans-Serif" font-size="10.00">_elasticity.h</text>
</a>
</g>
</g>
<!-- Node1&#45;&gt;Node2 -->
<g id="edge1" class="edge">
<title>Node1&#45;&gt;Node2</title>
<path fill="none" stroke="midnightblue" d="M1135.04,-212.96C978.32,-206.82 599.32,-189.84 474,-165 396.46,-149.63 309.5,-116.55 263.21,-97.6"/>
<polygon fill="midnightblue" stroke="midnightblue" points="1135.35,-216.47 1145.48,-213.36 1135.62,-209.48 1135.35,-216.47"/>
</g>
<!-- Node5 -->
<g id="node5" class="node">
<title>Node5</title>
<g id="a_node5"><a xlink:href="linear__problem_8h.html" target="_top" xlink:title=" ">
<polygon fill="none" stroke="black" points="483.5,-134.5 483.5,-164.5 614.5,-164.5 614.5,-134.5 483.5,-134.5"/>
<text text-anchor="start" x="491.5" y="-152.5" font-family="Helvetica,sans-Serif" font-size="10.00">include/pdes/mpi/linear</text>
<text text-anchor="middle" x="549" y="-141.5" font-family="Helvetica,sans-Serif" font-size="10.00">_problem.h</text>
</a>
</g>
</g>
<!-- Node1&#45;&gt;Node5 -->
<g id="edge4" class="edge">
<title>Node1&#45;&gt;Node5</title>
<path fill="none" stroke="midnightblue" d="M1135.31,-208.68C1008.45,-196.09 739.03,-169.36 614.56,-157.01"/>
<polygon fill="midnightblue" stroke="midnightblue" points="1135,-212.17 1145.3,-209.67 1135.69,-205.2 1135,-212.17"/>
</g>
<!-- Node9 -->
<g id="node9" class="node">
<title>Node9</title>
<g id="a_node9"><a xlink:href="mpi_2stokes_8h.html" target="_top" xlink:title=" ">
<polygon fill="none" stroke="black" points="631.5,-73 631.5,-92 774.5,-92 774.5,-73 631.5,-73"/>
<text text-anchor="middle" x="703" y="-80" font-family="Helvetica,sans-Serif" font-size="10.00">include/pdes/mpi/stokes.h</text>
</a>
</g>
</g>
<!-- Node1&#45;&gt;Node9 -->
<g id="edge13" class="edge">
<title>Node1&#45;&gt;Node9</title>
<path fill="none" stroke="midnightblue" d="M1135.5,-205.68C1080.53,-197.09 1001.64,-183.14 934,-165 854.72,-143.74 763.69,-108.21 723.68,-92.02"/>
<polygon fill="midnightblue" stroke="midnightblue" points="1135.06,-209.16 1145.48,-207.22 1136.13,-202.24 1135.06,-209.16"/>
</g>
<!-- Node13 -->
<g id="node13" class="node">
<title>Node13</title>
<g id="a_node13"><a xlink:href="distributed__lagrange_8h.html" target="_top" xlink:title=" ">
<polygon fill="none" stroke="black" points="943.5,-134.5 943.5,-164.5 1072.5,-164.5 1072.5,-134.5 943.5,-134.5"/>
<text text-anchor="start" x="951.5" y="-152.5" font-family="Helvetica,sans-Serif" font-size="10.00">include/pdes/serial</text>
<text text-anchor="middle" x="1008" y="-141.5" font-family="Helvetica,sans-Serif" font-size="10.00">/distributed_lagrange.h</text>
</a>
</g>
</g>
<!-- Node1&#45;&gt;Node13 -->
<g id="edge14" class="edge">
<title>Node1&#45;&gt;Node13</title>
<path fill="none" stroke="midnightblue" d="M1151.92,-198.23C1120.21,-187.71 1080.22,-174.45 1050.45,-164.58"/>
<polygon fill="midnightblue" stroke="midnightblue" points="1150.88,-201.57 1161.47,-201.4 1153.08,-194.93 1150.88,-201.57"/>
</g>
<!-- Node16 -->
<g id="node16" class="node">
<title>Node16</title>
<g id="a_node16"><a xlink:href="serial_2linear__elasticity_8h.html" target="_top" xlink:title=" ">
<polygon fill="none" stroke="black" points="1150,-134.5 1150,-164.5 1258,-164.5 1258,-134.5 1150,-134.5"/>
<text text-anchor="start" x="1158" y="-152.5" font-family="Helvetica,sans-Serif" font-size="10.00">include/pdes/serial</text>
<text text-anchor="middle" x="1204" y="-141.5" font-family="Helvetica,sans-Serif" font-size="10.00">/linear_elasticity.h</text>
</a>
</g>
</g>
<!-- Node1&#45;&gt;Node16 -->
<g id="edge17" class="edge">
<title>Node1&#45;&gt;Node16</title>
<path fill="none" stroke="midnightblue" d="M1204,-191.11C1204,-182.15 1204,-172.32 1204,-164.58"/>
<polygon fill="midnightblue" stroke="midnightblue" points="1200.5,-191.4 1204,-201.4 1207.5,-191.4 1200.5,-191.4"/>
</g>
<!-- Node19 -->
<g id="node19" class="node">
<title>Node19</title>
<g id="a_node19"><a xlink:href="serial_2poisson_8h.html" target="_top" xlink:title=" ">
<polygon fill="none" stroke="black" points="1335,-134.5 1335,-164.5 1443,-164.5 1443,-134.5 1335,-134.5"/>
<text text-anchor="start" x="1343" y="-152.5" font-family="Helvetica,sans-Serif" font-size="10.00">include/pdes/serial</text>
<text text-anchor="middle" x="1389" y="-141.5" font-family="Helvetica,sans-Serif" font-size="10.00">/poisson.h</text>
</a>
</g>
</g>
<!-- Node1&#45;&gt;Node19 -->
<g id="edge20" class="edge">
<title>Node1&#45;&gt;Node19</title>
<path fill="none" stroke="midnightblue" d="M1253.94,-197.96C1283.74,-187.48 1321.07,-174.37 1348.94,-164.58"/>
<polygon fill="midnightblue" stroke="midnightblue" points="1252.42,-194.78 1244.14,-201.4 1254.74,-201.38 1252.42,-194.78"/>
</g>
<!-- Node22 -->
<g id="node22" class="node">
<title>Node22</title>
<g id="a_node22"><a xlink:href="reduced__lagrange_8h.html" target="_top" xlink:title=" ">
<polygon fill="none" stroke="black" points="1604,-134.5 1604,-164.5 1720,-164.5 1720,-134.5 1604,-134.5"/>
<text text-anchor="start" x="1612" y="-152.5" font-family="Helvetica,sans-Serif" font-size="10.00">include/pdes/serial</text>
<text text-anchor="middle" x="1662" y="-141.5" font-family="Helvetica,sans-Serif" font-size="10.00">/reduced_lagrange.h</text>
</a>
</g>
</g>
<!-- Node1&#45;&gt;Node22 -->
<g id="edge23" class="edge">
<title>Node1&#45;&gt;Node22</title>
<path fill="none" stroke="midnightblue" d="M1273.05,-205.7C1363.14,-192.92 1519.19,-170.77 1603.65,-158.78"/>
<polygon fill="midnightblue" stroke="midnightblue" points="1272.35,-202.26 1262.94,-207.14 1273.33,-209.2 1272.35,-202.26"/>
</g>
<!-- Node25 -->
<g id="node25" class="node">
<title>Node25</title>
<g id="a_node25"><a xlink:href="serial_2stokes_8h.html" target="_top" xlink:title=" ">
<polygon fill="none" stroke="black" points="1803,-134.5 1803,-164.5 1911,-164.5 1911,-134.5 1803,-134.5"/>
<text text-anchor="start" x="1811" y="-152.5" font-family="Helvetica,sans-Serif" font-size="10.00">include/pdes/serial</text>
<text text-anchor="middle" x="1857" y="-141.5" font-family="Helvetica,sans-Serif" font-size="10.00">/stokes.h</text>
</a>
</g>
</g>
<!-- Node1&#45;&gt;Node25 -->
<g id="edge26" class="edge">
<title>Node1&#45;&gt;Node25</title>
<path fill="none" stroke="midnightblue" d="M1272.7,-209.27C1373.01,-200.08 1565.46,-182.13 1729,-165 1753.24,-162.46 1780.05,-159.46 1802.84,-156.84"/>
<polygon fill="midnightblue" stroke="midnightblue" points="1272.33,-205.78 1262.69,-210.18 1272.97,-212.76 1272.33,-205.78"/>
</g>
<!-- Node28 -->
<g id="node28" class="node">
<title>Node28</title>
<g id="a_node28"><a xlink:href="constants_8cc.html" target="_top" xlink:title=" ">
<polygon fill="none" stroke="black" points="1929.5,-140 1929.5,-159 2042.5,-159 2042.5,-140 1929.5,-140"/>
<text text-anchor="middle" x="1986" y="-147" font-family="Helvetica,sans-Serif" font-size="10.00">source/constants.cc</text>
</a>
</g>
</g>
<!-- Node1&#45;&gt;Node28 -->
<g id="edge29" class="edge">
<title>Node1&#45;&gt;Node28</title>
<path fill="none" stroke="midnightblue" d="M1272.84,-213.98C1400.86,-210.41 1684.03,-199.06 1920,-165 1930.33,-163.51 1941.46,-161.3 1951.58,-159.06"/>
<polygon fill="midnightblue" stroke="midnightblue" points="1272.68,-210.48 1262.78,-214.25 1272.87,-217.48 1272.68,-210.48"/>
</g>
<!-- Node3 -->
<g id="node3" class="node">
<title>Node3</title>
<g id="a_node3"><a xlink:href="source_2pdes_2mpi_2linear__elasticity_8cc.html" target="_top" xlink:title=" ">
<polygon fill="none" stroke="black" points="0,-0.5 0,-30.5 128,-30.5 128,-0.5 0,-0.5"/>
<text text-anchor="start" x="8" y="-18.5" font-family="Helvetica,sans-Serif" font-size="10.00">source/pdes/mpi/linear</text>
<text text-anchor="middle" x="64" y="-7.5" font-family="Helvetica,sans-Serif" font-size="10.00">_elasticity.cc</text>
</a>
</g>
</g>
<!-- Node2&#45;&gt;Node3 -->
<g id="edge2" class="edge">
<title>Node2&#45;&gt;Node3</title>
<path fill="none" stroke="midnightblue" d="M184.49,-63.68C157.87,-53.26 124.73,-40.28 99.95,-30.58"/>
<polygon fill="midnightblue" stroke="midnightblue" points="183.39,-67.01 193.98,-67.4 185.95,-60.49 183.39,-67.01"/>
</g>
<!-- Node4 -->
<g id="node4" class="node">
<title>Node4</title>
<g id="a_node4"><a xlink:href="apps_2mpi_2linear__elasticity_8cc.html" target="_top" xlink:title=" ">
<polygon fill="none" stroke="black" points="146.5,-6 146.5,-25 301.5,-25 301.5,-6 146.5,-6"/>
<text text-anchor="middle" x="224" y="-13" font-family="Helvetica,sans-Serif" font-size="10.00">apps/mpi/linear_elasticity.cc</text>
</a>
</g>
</g>
<!-- Node2&#45;&gt;Node4 -->
<g id="edge3" class="edge">
<title>Node2&#45;&gt;Node4</title>
<path fill="none" stroke="midnightblue" d="M227.76,-57.25C226.72,-46.02 225.56,-33.38 224.8,-25.19"/>
<polygon fill="midnightblue" stroke="midnightblue" points="224.29,-57.76 228.7,-67.4 231.26,-57.12 224.29,-57.76"/>
</g>
<!-- Node5&#45;&gt;Node2 -->
<g id="edge5" class="edge">
<title>Node5&#45;&gt;Node2</title>
<path fill="none" stroke="midnightblue" d="M473.41,-133.1C419.34,-122.08 347.28,-107.4 295.62,-96.87"/>
<polygon fill="midnightblue" stroke="midnightblue" points="472.79,-136.54 483.29,-135.11 474.19,-129.68 472.79,-136.54"/>
</g>
<!-- Node6 -->
<g id="node6" class="node">
<title>Node6</title>
<g id="a_node6"><a xlink:href="mpi_2poisson_8h.html" target="_top" xlink:title=" ">
<polygon fill="none" stroke="black" points="317.5,-73 317.5,-92 466.5,-92 466.5,-73 317.5,-73"/>
<text text-anchor="middle" x="392" y="-80" font-family="Helvetica,sans-Serif" font-size="10.00">include/pdes/mpi/poisson.h</text>
</a>
</g>
</g>
<!-- Node5&#45;&gt;Node6 -->
<g id="edge6" class="edge">
<title>Node5&#45;&gt;Node6</title>
<path fill="none" stroke="midnightblue" d="M505.42,-130.46C475.09,-117.9 436.02,-101.72 412.55,-92.01"/>
<polygon fill="midnightblue" stroke="midnightblue" points="504.36,-133.8 514.93,-134.4 507.03,-127.34 504.36,-133.8"/>
</g>
<!-- Node5&#45;&gt;Node9 -->
<g id="edge9" class="edge">
<title>Node5&#45;&gt;Node9</title>
<path fill="none" stroke="midnightblue" d="M591.74,-130.46C621.5,-117.9 659.82,-101.72 682.84,-92.01"/>
<polygon fill="midnightblue" stroke="midnightblue" points="590.27,-127.28 582.42,-134.4 592.99,-133.73 590.27,-127.28"/>
</g>
<!-- Node12 -->
<g id="node12" class="node">
<title>Node12</title>
<g id="a_node12"><a xlink:href="linear__problem_8cc.html" target="_top" xlink:title=" ">
<polygon fill="none" stroke="black" points="485,-67.5 485,-97.5 613,-97.5 613,-67.5 485,-67.5"/>
<text text-anchor="start" x="493" y="-85.5" font-family="Helvetica,sans-Serif" font-size="10.00">source/pdes/mpi/linear</text>
<text text-anchor="middle" x="549" y="-74.5" font-family="Helvetica,sans-Serif" font-size="10.00">_problem.cc</text>
</a>
</g>
</g>
<!-- Node5&#45;&gt;Node12 -->
<g id="edge12" class="edge">
<title>Node5&#45;&gt;Node12</title>
<path fill="none" stroke="midnightblue" d="M549,-124.11C549,-115.15 549,-105.32 549,-97.58"/>
<polygon fill="midnightblue" stroke="midnightblue" points="545.5,-124.4 549,-134.4 552.5,-124.4 545.5,-124.4"/>
</g>
<!-- Node7 -->
<g id="node7" class="node">
<title>Node7</title>
<g id="a_node7"><a xlink:href="source_2pdes_2mpi_2poisson_8cc.html" target="_top" xlink:title=" ">
<polygon fill="none" stroke="black" points="319.5,-6 319.5,-25 470.5,-25 470.5,-6 319.5,-6"/>
<text text-anchor="middle" x="395" y="-13" font-family="Helvetica,sans-Serif" font-size="10.00">source/pdes/mpi/poisson.cc</text>
</a>
</g>
</g>
<!-- Node6&#45;&gt;Node7 -->
<g id="edge7" class="edge">
<title>Node6&#45;&gt;Node7</title>
<path fill="none" stroke="midnightblue" d="M392.88,-62.54C393.45,-50.17 394.16,-34.62 394.6,-25.13"/>
<polygon fill="midnightblue" stroke="midnightblue" points="389.37,-62.58 392.4,-72.73 396.36,-62.91 389.37,-62.58"/>
</g>
<!-- Node8 -->
<g id="node8" class="node">
<title>Node8</title>
<g id="a_node8"><a xlink:href="apps_2mpi_2poisson_8cc.html" target="_top" xlink:title=" ">
<polygon fill="none" stroke="black" points="489,-6 489,-25 605,-25 605,-6 489,-6"/>
<text text-anchor="middle" x="547" y="-13" font-family="Helvetica,sans-Serif" font-size="10.00">apps/mpi/poisson.cc</text>
</a>
</g>
</g>
<!-- Node6&#45;&gt;Node8 -->
<g id="edge8" class="edge">
<title>Node6&#45;&gt;Node8</title>
<path fill="none" stroke="midnightblue" d="M421.93,-68.95C452.62,-56.08 499.54,-36.4 526.33,-25.17"/>
<polygon fill="midnightblue" stroke="midnightblue" points="420.45,-65.77 412.58,-72.87 423.16,-72.23 420.45,-65.77"/>
</g>
<!-- Node10 -->
<g id="node10" class="node">
<title>Node10</title>
<g id="a_node10"><a xlink:href="source_2pdes_2mpi_2stokes_8cc.html" target="_top" xlink:title=" ">
<polygon fill="none" stroke="black" points="628.5,-6 628.5,-25 773.5,-25 773.5,-6 628.5,-6"/>
<text text-anchor="middle" x="701" y="-13" font-family="Helvetica,sans-Serif" font-size="10.00">source/pdes/mpi/stokes.cc</text>
</a>
</g>
</g>
<!-- Node9&#45;&gt;Node10 -->
<g id="edge10" class="edge">
<title>Node9&#45;&gt;Node10</title>
<path fill="none" stroke="midnightblue" d="M702.42,-62.54C702.04,-50.17 701.56,-34.62 701.27,-25.13"/>
<polygon fill="midnightblue" stroke="midnightblue" points="698.92,-62.85 702.73,-72.73 705.92,-62.63 698.92,-62.85"/>
</g>
<!-- Node11 -->
<g id="node11" class="node">
<title>Node11</title>
<g id="a_node11"><a xlink:href="apps_2mpi_2stokes_8cc.html" target="_top" xlink:title=" ">
<polygon fill="none" stroke="black" points="792,-6 792,-25 902,-25 902,-6 792,-6"/>
<text text-anchor="middle" x="847" y="-13" font-family="Helvetica,sans-Serif" font-size="10.00">apps/mpi/stokes.cc</text>
</a>
</g>
</g>
<!-- Node9&#45;&gt;Node11 -->
<g id="edge11" class="edge">
<title>Node9&#45;&gt;Node11</title>
<path fill="none" stroke="midnightblue" d="M731.55,-68.61C760.07,-55.74 803.12,-36.31 827.8,-25.17"/>
<polygon fill="midnightblue" stroke="midnightblue" points="729.8,-65.56 722.12,-72.87 732.68,-71.94 729.8,-65.56"/>
</g>
<!-- Node14 -->
<g id="node14" class="node">
<title>Node14</title>
<g id="a_node14"><a xlink:href="source_2pdes_2serial_2distributed__lagrange_8cc.html" target="_top" xlink:title=" ">
<polygon fill="none" stroke="black" points="793,-67.5 793,-97.5 927,-97.5 927,-67.5 793,-67.5"/>
<text text-anchor="start" x="801" y="-85.5" font-family="Helvetica,sans-Serif" font-size="10.00">source/pdes/serial</text>
<text text-anchor="middle" x="860" y="-74.5" font-family="Helvetica,sans-Serif" font-size="10.00">/distributed_lagrange.cc</text>
</a>
</g>
</g>
<!-- Node13&#45;&gt;Node14 -->
<g id="edge15" class="edge">
<title>Node13&#45;&gt;Node14</title>
<path fill="none" stroke="midnightblue" d="M966.49,-130.27C942.92,-119.92 913.86,-107.15 892.05,-97.58"/>
<polygon fill="midnightblue" stroke="midnightblue" points="965.32,-133.58 975.89,-134.4 968.14,-127.17 965.32,-133.58"/>
</g>
<!-- Node15 -->
<g id="node15" class="node">
<title>Node15</title>
<g id="a_node15"><a xlink:href="apps_2serial_2distributed__lagrange_8cc.html" target="_top" xlink:title=" ">
<polygon fill="none" stroke="black" points="945.5,-67.5 945.5,-97.5 1070.5,-97.5 1070.5,-67.5 945.5,-67.5"/>
<text text-anchor="start" x="953.5" y="-85.5" font-family="Helvetica,sans-Serif" font-size="10.00">apps/serial/distributed</text>
<text text-anchor="middle" x="1008" y="-74.5" font-family="Helvetica,sans-Serif" font-size="10.00">_lagrange.cc</text>
</a>
</g>
</g>
<!-- Node13&#45;&gt;Node15 -->
<g id="edge16" class="edge">
<title>Node13&#45;&gt;Node15</title>
<path fill="none" stroke="midnightblue" d="M1008,-124.11C1008,-115.15 1008,-105.32 1008,-97.58"/>
<polygon fill="midnightblue" stroke="midnightblue" points="1004.5,-124.4 1008,-134.4 1011.5,-124.4 1004.5,-124.4"/>
</g>
<!-- Node17 -->
<g id="node17" class="node">
<title>Node17</title>
<g id="a_node17"><a xlink:href="source_2pdes_2serial_2linear__elasticity_8cc.html" target="_top" xlink:title=" ">
<polygon fill="none" stroke="black" points="1089,-67.5 1089,-97.5 1199,-97.5 1199,-67.5 1089,-67.5"/>
<text text-anchor="start" x="1097" y="-85.5" font-family="Helvetica,sans-Serif" font-size="10.00">source/pdes/serial</text>
<text text-anchor="middle" x="1144" y="-74.5" font-family="Helvetica,sans-Serif" font-size="10.00">/linear_elasticity.cc</text>
</a>
</g>
</g>
<!-- Node16&#45;&gt;Node17 -->
<g id="edge18" class="edge">
<title>Node16&#45;&gt;Node17</title>
<path fill="none" stroke="midnightblue" d="M1184.18,-127.02C1175.24,-117.34 1164.93,-106.17 1156.99,-97.58"/>
<polygon fill="midnightblue" stroke="midnightblue" points="1181.63,-129.42 1190.98,-134.4 1186.77,-124.67 1181.63,-129.42"/>
</g>
<!-- Node18 -->
<g id="node18" class="node">
<title>Node18</title>
<g id="a_node18"><a xlink:href="apps_2serial_2linear__elasticity_8cc.html" target="_top" xlink:title=" ">
<polygon fill="none" stroke="black" points="1217.5,-67.5 1217.5,-97.5 1318.5,-97.5 1318.5,-67.5 1217.5,-67.5"/>
<text text-anchor="start" x="1225.5" y="-85.5" font-family="Helvetica,sans-Serif" font-size="10.00">apps/serial/linear</text>
<text text-anchor="middle" x="1268" y="-74.5" font-family="Helvetica,sans-Serif" font-size="10.00">_elasticity.cc</text>
</a>
</g>
</g>
<!-- Node16&#45;&gt;Node18 -->
<g id="edge19" class="edge">
<title>Node16&#45;&gt;Node18</title>
<path fill="none" stroke="midnightblue" d="M1225.15,-127.02C1234.68,-117.34 1245.67,-106.17 1254.14,-97.58"/>
<polygon fill="midnightblue" stroke="midnightblue" points="1222.41,-124.81 1217.89,-134.4 1227.4,-129.73 1222.41,-124.81"/>
</g>
<!-- Node20 -->
<g id="node20" class="node">
<title>Node20</title>
<g id="a_node20"><a xlink:href="source_2pdes_2serial_2poisson_8cc.html" target="_top" xlink:title=" ">
<polygon fill="none" stroke="black" points="1336.5,-67.5 1336.5,-97.5 1441.5,-97.5 1441.5,-67.5 1336.5,-67.5"/>
<text text-anchor="start" x="1344.5" y="-85.5" font-family="Helvetica,sans-Serif" font-size="10.00">source/pdes/serial</text>
<text text-anchor="middle" x="1389" y="-74.5" font-family="Helvetica,sans-Serif" font-size="10.00">/poisson.cc</text>
</a>
</g>
</g>
<!-- Node19&#45;&gt;Node20 -->
<g id="edge21" class="edge">
<title>Node19&#45;&gt;Node20</title>
<path fill="none" stroke="midnightblue" d="M1389,-124.11C1389,-115.15 1389,-105.32 1389,-97.58"/>
<polygon fill="midnightblue" stroke="midnightblue" points="1385.5,-124.4 1389,-134.4 1392.5,-124.4 1385.5,-124.4"/>
</g>
<!-- Node21 -->
<g id="node21" class="node">
<title>Node21</title>
<g id="a_node21"><a xlink:href="apps_2serial_2poisson_8cc.html" target="_top" xlink:title=" ">
<polygon fill="none" stroke="black" points="1460,-73 1460,-92 1584,-92 1584,-73 1460,-73"/>
<text text-anchor="middle" x="1522" y="-80" font-family="Helvetica,sans-Serif" font-size="10.00">apps/serial/poisson.cc</text>
</a>
</g>
</g>
<!-- Node19&#45;&gt;Node21 -->
<g id="edge22" class="edge">
<title>Node19&#45;&gt;Node21</title>
<path fill="none" stroke="midnightblue" d="M1426.92,-129.97C1452.47,-117.48 1484.97,-101.6 1504.59,-92.01"/>
<polygon fill="midnightblue" stroke="midnightblue" points="1425.31,-126.86 1417.86,-134.4 1428.38,-133.15 1425.31,-126.86"/>
</g>
<!-- Node23 -->
<g id="node23" class="node">
<title>Node23</title>
<g id="a_node23"><a xlink:href="source_2pdes_2serial_2reduced__lagrange_8cc.html" target="_top" xlink:title=" ">
<polygon fill="none" stroke="black" points="1602,-67.5 1602,-97.5 1722,-97.5 1722,-67.5 1602,-67.5"/>
<text text-anchor="start" x="1610" y="-85.5" font-family="Helvetica,sans-Serif" font-size="10.00">source/pdes/serial</text>
<text text-anchor="middle" x="1662" y="-74.5" font-family="Helvetica,sans-Serif" font-size="10.00">/reduced_lagrange.cc</text>
</a>
</g>
</g>
<!-- Node22&#45;&gt;Node23 -->
<g id="edge24" class="edge">
<title>Node22&#45;&gt;Node23</title>
<path fill="none" stroke="midnightblue" d="M1662,-124.11C1662,-115.15 1662,-105.32 1662,-97.58"/>
<polygon fill="midnightblue" stroke="midnightblue" points="1658.5,-124.4 1662,-134.4 1665.5,-124.4 1658.5,-124.4"/>
</g>
<!-- Node24 -->
<g id="node24" class="node">
<title>Node24</title>
<g id="a_node24"><a xlink:href="apps_2serial_2reduced__lagrange_8cc.html" target="_top" xlink:title=" ">
<polygon fill="none" stroke="black" points="1740,-67.5 1740,-97.5 1852,-97.5 1852,-67.5 1740,-67.5"/>
<text text-anchor="start" x="1748" y="-85.5" font-family="Helvetica,sans-Serif" font-size="10.00">apps/serial/reduced</text>
<text text-anchor="middle" x="1796" y="-74.5" font-family="Helvetica,sans-Serif" font-size="10.00">_lagrange.cc</text>
</a>
</g>
</g>
<!-- Node22&#45;&gt;Node24 -->
<g id="edge25" class="edge">
<title>Node22&#45;&gt;Node24</title>
<path fill="none" stroke="midnightblue" d="M1700.15,-129.99C1721.39,-119.69 1747.41,-107.07 1766.98,-97.58"/>
<polygon fill="midnightblue" stroke="midnightblue" points="1698.55,-126.88 1691.08,-134.4 1701.6,-133.18 1698.55,-126.88"/>
</g>
<!-- Node26 -->
<g id="node26" class="node">
<title>Node26</title>
<g id="a_node26"><a xlink:href="source_2pdes_2serial_2stokes_8cc.html" target="_top" xlink:title=" ">
<polygon fill="none" stroke="black" points="1870.5,-67.5 1870.5,-97.5 1975.5,-97.5 1975.5,-67.5 1870.5,-67.5"/>
<text text-anchor="start" x="1878.5" y="-85.5" font-family="Helvetica,sans-Serif" font-size="10.00">source/pdes/serial</text>
<text text-anchor="middle" x="1923" y="-74.5" font-family="Helvetica,sans-Serif" font-size="10.00">/stokes.cc</text>
</a>
</g>
</g>
<!-- Node25&#45;&gt;Node26 -->
<g id="edge27" class="edge">
<title>Node25&#45;&gt;Node26</title>
<path fill="none" stroke="midnightblue" d="M1878.51,-127.31C1888.41,-117.56 1899.89,-106.26 1908.71,-97.58"/>
<polygon fill="midnightblue" stroke="midnightblue" points="1875.99,-124.89 1871.32,-134.4 1880.9,-129.87 1875.99,-124.89"/>
</g>
<!-- Node27 -->
<g id="node27" class="node">
<title>Node27</title>
<g id="a_node27"><a xlink:href="apps_2serial_2stokes_8cc.html" target="_top" xlink:title=" ">
<polygon fill="none" stroke="black" points="1994,-73 1994,-92 2112,-92 2112,-73 1994,-73"/>
<text text-anchor="middle" x="2053" y="-80" font-family="Helvetica,sans-Serif" font-size="10.00">apps/serial/stokes.cc</text>
</a>
</g>
</g>
<!-- Node25&#45;&gt;Node27 -->
<g id="edge28" class="edge">
<title>Node25&#45;&gt;Node27</title>
<path fill="none" stroke="midnightblue" d="M1909.44,-131.11C1947.58,-118.46 1997.54,-101.89 2027.35,-92.01"/>
<polygon fill="midnightblue" stroke="midnightblue" points="1907.92,-127.93 1899.53,-134.4 1910.12,-134.57 1907.92,-127.93"/>
</g>
</g>
</svg>
