<?xml version="1.0" encoding="UTF-8" standalone="no"?>
<!DOCTYPE svg PUBLIC "-//W3C//DTD SVG 1.1//EN"
 "http://www.w3.org/Graphics/SVG/1.1/DTD/svg11.dtd">
<!-- Generated by graphviz version 2.43.0 (0)
 -->
<!-- Title: include/parsed_tools/constants.h Pages: 1 -->
<svg width="1790pt" height="240pt"
 viewBox="0.00 0.00 1789.50 240.00" xmlns="http://www.w3.org/2000/svg" xmlns:xlink="http://www.w3.org/1999/xlink">
<g id="graph0" class="graph" transform="scale(1 1) rotate(0) translate(4 236)">
<title>include/parsed_tools/constants.h</title>
<!-- Node1 -->
<g id="node1" class="node">
<title>Node1</title>
<g id="a_node1"><a xlink:title=" ">
<polygon fill="#bfbfbf" stroke="black" points="967.5,-201.5 967.5,-231.5 1084.5,-231.5 1084.5,-201.5 967.5,-201.5"/>
<text text-anchor="start" x="975.5" y="-219.5" font-family="Helvetica,sans-Serif" font-size="10.00">include/parsed_tools</text>
<text text-anchor="middle" x="1026" y="-208.5" font-family="Helvetica,sans-Serif" font-size="10.00">/constants.h</text>
</a>
</g>
</g>
<!-- Node2 -->
<g id="node2" class="node">
<title>Node2</title>
<g id="a_node2"><a xlink:href="linear__elasticity_8h.html" target="_top" xlink:title=" ">
<polygon fill="none" stroke="black" points="293.5,-67.5 293.5,-97.5 402.5,-97.5 402.5,-67.5 293.5,-67.5"/>
<text text-anchor="start" x="301.5" y="-85.5" font-family="Helvetica,sans-Serif" font-size="10.00">include/pdes/linear</text>
<text text-anchor="middle" x="348" y="-74.5" font-family="Helvetica,sans-Serif" font-size="10.00">_elasticity.h</text>
</a>
</g>
</g>
<!-- Node1&#45;&gt;Node2 -->
<g id="edge1" class="edge">
<title>Node1&#45;&gt;Node2</title>
<path fill="none" stroke="midnightblue" d="M957.09,-209.42C879.68,-201.9 750.53,-187.3 641,-165 550.98,-146.67 447.97,-115.61 391.22,-97.59"/>
<polygon fill="midnightblue" stroke="midnightblue" points="956.91,-212.91 967.2,-210.39 957.58,-205.95 956.91,-212.91"/>
</g>
<!-- Node6 -->
<g id="node6" class="node">
<title>Node6</title>
<g id="a_node6"><a xlink:href="linear__problem_8h.html" target="_top" xlink:title=" ">
<polygon fill="none" stroke="black" points="650.5,-134.5 650.5,-164.5 759.5,-164.5 759.5,-134.5 650.5,-134.5"/>
<text text-anchor="start" x="658.5" y="-152.5" font-family="Helvetica,sans-Serif" font-size="10.00">include/pdes/linear</text>
<text text-anchor="middle" x="705" y="-141.5" font-family="Helvetica,sans-Serif" font-size="10.00">_problem.h</text>
</a>
</g>
</g>
<!-- Node1&#45;&gt;Node6 -->
<g id="edge5" class="edge">
<title>Node1&#45;&gt;Node6</title>
<path fill="none" stroke="midnightblue" d="M957.51,-201.63C898.43,-189.67 814.25,-172.62 759.62,-161.56"/>
<polygon fill="midnightblue" stroke="midnightblue" points="957,-205.1 967.5,-203.65 958.39,-198.24 957,-205.1"/>
</g>
<!-- Node10 -->
<g id="node10" class="node">
<title>Node10</title>
<g id="a_node10"><a xlink:href="distributed__lagrange_8h.html" target="_top" xlink:title=" ">
<polygon fill="none" stroke="black" points="718.5,-67.5 718.5,-97.5 847.5,-97.5 847.5,-67.5 718.5,-67.5"/>
<text text-anchor="start" x="726.5" y="-85.5" font-family="Helvetica,sans-Serif" font-size="10.00">include/pdes/serial</text>
<text text-anchor="middle" x="783" y="-74.5" font-family="Helvetica,sans-Serif" font-size="10.00">/distributed_lagrange.h</text>
</a>
</g>
</g>
<!-- Node1&#45;&gt;Node10 -->
<g id="edge17" class="edge">
<title>Node1&#45;&gt;Node10</title>
<path fill="none" stroke="midnightblue" d="M990.96,-196.47C941.57,-169.64 852.63,-121.32 808.82,-97.52"/>
<polygon fill="midnightblue" stroke="midnightblue" points="989.54,-199.68 999.99,-201.37 992.88,-193.52 989.54,-199.68"/>
</g>
<!-- Node13 -->
<g id="node13" class="node">
<title>Node13</title>
<g id="a_node13"><a xlink:href="stokes_8h.html" target="_top" xlink:title=" ">
<polygon fill="none" stroke="black" points="866,-73 866,-92 988,-92 988,-73 866,-73"/>
<text text-anchor="middle" x="927" y="-80" font-family="Helvetica,sans-Serif" font-size="10.00">include/pdes/stokes.h</text>
</a>
</g>
</g>
<!-- Node1&#45;&gt;Node13 -->
<g id="edge27" class="edge">
<title>Node1&#45;&gt;Node13</title>
<path fill="none" stroke="midnightblue" d="M1009.32,-193.26C987.04,-163.56 948.63,-112.35 933.45,-92.1"/>
<polygon fill="midnightblue" stroke="midnightblue" points="1006.61,-195.47 1015.41,-201.37 1012.21,-191.27 1006.61,-195.47"/>
</g>
<!-- Node17 -->
<g id="node17" class="node">
<title>Node17</title>
<g id="a_node17"><a xlink:href="serial_2poisson_8h.html" target="_top" xlink:title=" ">
<polygon fill="none" stroke="black" points="1014,-134.5 1014,-164.5 1122,-164.5 1122,-134.5 1014,-134.5"/>
<text text-anchor="start" x="1022" y="-152.5" font-family="Helvetica,sans-Serif" font-size="10.00">include/pdes/serial</text>
<text text-anchor="middle" x="1068" y="-141.5" font-family="Helvetica,sans-Serif" font-size="10.00">/poisson.h</text>
</a>
</g>
</g>
<!-- Node1&#45;&gt;Node17 -->
<g id="edge18" class="edge">
<title>Node1&#45;&gt;Node17</title>
<path fill="none" stroke="midnightblue" d="M1040.62,-192.87C1046.7,-183.46 1053.57,-172.83 1058.9,-164.58"/>
<polygon fill="midnightblue" stroke="midnightblue" points="1037.6,-191.1 1035.11,-201.4 1043.48,-194.9 1037.6,-191.1"/>
</g>
<!-- Node20 -->
<g id="node20" class="node">
<title>Node20</title>
<g id="a_node20"><a xlink:href="reduced__lagrange_8h.html" target="_top" xlink:title=" ">
<polygon fill="none" stroke="black" points="1270,-134.5 1270,-164.5 1386,-164.5 1386,-134.5 1270,-134.5"/>
<text text-anchor="start" x="1278" y="-152.5" font-family="Helvetica,sans-Serif" font-size="10.00">include/pdes/serial</text>
<text text-anchor="middle" x="1328" y="-141.5" font-family="Helvetica,sans-Serif" font-size="10.00">/reduced_lagrange.h</text>
</a>
</g>
</g>
<!-- Node1&#45;&gt;Node20 -->
<g id="edge21" class="edge">
<title>Node1&#45;&gt;Node20</title>
<path fill="none" stroke="midnightblue" d="M1094.56,-200.74C1147.43,-189.36 1219.76,-173.8 1269.83,-163.02"/>
<polygon fill="midnightblue" stroke="midnightblue" points="1093.63,-197.36 1084.59,-202.89 1095.1,-204.21 1093.63,-197.36"/>
</g>
<!-- Node23 -->
<g id="node23" class="node">
<title>Node23</title>
<g id="a_node23"><a xlink:href="serial_2stokes_8h.html" target="_top" xlink:title=" ">
<polygon fill="none" stroke="black" points="1474,-134.5 1474,-164.5 1582,-164.5 1582,-134.5 1474,-134.5"/>
<text text-anchor="start" x="1482" y="-152.5" font-family="Helvetica,sans-Serif" font-size="10.00">include/pdes/serial</text>
<text text-anchor="middle" x="1528" y="-141.5" font-family="Helvetica,sans-Serif" font-size="10.00">/stokes.h</text>
</a>
</g>
</g>
<!-- Node1&#45;&gt;Node23 -->
<g id="edge24" class="edge">
<title>Node1&#45;&gt;Node23</title>
<path fill="none" stroke="midnightblue" d="M1094.66,-206.61C1195.64,-193.53 1382.14,-169.39 1474,-157.49"/>
<polygon fill="midnightblue" stroke="midnightblue" points="1094.04,-203.16 1084.57,-207.92 1094.93,-210.1 1094.04,-203.16"/>
</g>
<!-- Node26 -->
<g id="node26" class="node">
<title>Node26</title>
<g id="a_node26"><a xlink:href="constants_8cc.html" target="_top" xlink:title=" ">
<polygon fill="none" stroke="black" points="1600.5,-140 1600.5,-159 1713.5,-159 1713.5,-140 1600.5,-140"/>
<text text-anchor="middle" x="1657" y="-147" font-family="Helvetica,sans-Serif" font-size="10.00">source/constants.cc</text>
</a>
</g>
</g>
<!-- Node1&#45;&gt;Node26 -->
<g id="edge28" class="edge">
<title>Node1&#45;&gt;Node26</title>
<path fill="none" stroke="midnightblue" d="M1094.86,-212.17C1201.6,-206.38 1413.26,-192.35 1591,-165 1601.2,-163.43 1612.19,-161.23 1622.22,-159.01"/>
<polygon fill="midnightblue" stroke="midnightblue" points="1094.66,-208.68 1084.86,-212.71 1095.03,-215.67 1094.66,-208.68"/>
</g>
<!-- Node3 -->
<g id="node3" class="node">
<title>Node3</title>
<g id="a_node3"><a xlink:href="source_2pdes_2linear__elasticity_8cc.html" target="_top" xlink:title=" ">
<polygon fill="none" stroke="black" points="0,-0.5 0,-30.5 106,-30.5 106,-0.5 0,-0.5"/>
<text text-anchor="start" x="8" y="-18.5" font-family="Helvetica,sans-Serif" font-size="10.00">source/pdes/linear</text>
<text text-anchor="middle" x="53" y="-7.5" font-family="Helvetica,sans-Serif" font-size="10.00">_elasticity.cc</text>
</a>
</g>
</g>
<!-- Node2&#45;&gt;Node3 -->
<g id="edge2" class="edge">
<title>Node2&#45;&gt;Node3</title>
<path fill="none" stroke="midnightblue" d="M283.33,-67.78C236.54,-57.78 171.8,-43.8 115,-31 112.09,-30.34 109.1,-29.67 106.09,-28.98"/>
<polygon fill="midnightblue" stroke="midnightblue" points="282.82,-71.25 293.33,-69.91 284.28,-64.4 282.82,-71.25"/>
</g>
<!-- Node4 -->
<g id="node4" class="node">
<title>Node4</title>
<g id="a_node4"><a xlink:href="apps_2mpi_2linear__elasticity_8cc.html" target="_top" xlink:title=" ">
<polygon fill="none" stroke="black" points="124.5,-6 124.5,-25 279.5,-25 279.5,-6 124.5,-6"/>
<text text-anchor="middle" x="202" y="-13" font-family="Helvetica,sans-Serif" font-size="10.00">apps/mpi/linear_elasticity.cc</text>
</a>
</g>
</g>
<!-- Node2&#45;&gt;Node4 -->
<g id="edge3" class="edge">
<title>Node2&#45;&gt;Node4</title>
<path fill="none" stroke="midnightblue" d="M307.11,-63.3C278.95,-50.76 242.84,-34.68 221.11,-25.01"/>
<polygon fill="midnightblue" stroke="midnightblue" points="305.76,-66.53 316.32,-67.4 308.61,-60.13 305.76,-66.53"/>
</g>
<!-- Node5 -->
<g id="node5" class="node">
<title>Node5</title>
<g id="a_node5"><a xlink:href="apps_2serial_2linear__elasticity_8cc.html" target="_top" xlink:title=" ">
<polygon fill="none" stroke="black" points="297.5,-0.5 297.5,-30.5 398.5,-30.5 398.5,-0.5 297.5,-0.5"/>
<text text-anchor="start" x="305.5" y="-18.5" font-family="Helvetica,sans-Serif" font-size="10.00">apps/serial/linear</text>
<text text-anchor="middle" x="348" y="-7.5" font-family="Helvetica,sans-Serif" font-size="10.00">_elasticity.cc</text>
</a>
</g>
</g>
<!-- Node2&#45;&gt;Node5 -->
<g id="edge4" class="edge">
<title>Node2&#45;&gt;Node5</title>
<path fill="none" stroke="midnightblue" d="M348,-57.11C348,-48.15 348,-38.32 348,-30.58"/>
<polygon fill="midnightblue" stroke="midnightblue" points="344.5,-57.4 348,-67.4 351.5,-57.4 344.5,-57.4"/>
</g>
<!-- Node6&#45;&gt;Node2 -->
<g id="edge6" class="edge">
<title>Node6&#45;&gt;Node2</title>
<path fill="none" stroke="midnightblue" d="M640.26,-137.68C582.03,-127.81 494.17,-112.59 418,-98 413,-97.04 407.81,-96.02 402.61,-94.98"/>
<polygon fill="midnightblue" stroke="midnightblue" points="639.98,-141.18 650.42,-139.4 641.15,-134.28 639.98,-141.18"/>
</g>
<!-- Node7 -->
<g id="node7" class="node">
<title>Node7</title>
<g id="a_node7"><a xlink:href="mpi_2poisson_8h.html" target="_top" xlink:title=" ">
<polygon fill="none" stroke="black" points="551.5,-73 551.5,-92 700.5,-92 700.5,-73 551.5,-73"/>
<text text-anchor="middle" x="626" y="-80" font-family="Helvetica,sans-Serif" font-size="10.00">include/pdes/mpi/poisson.h</text>
</a>
</g>
</g>
<!-- Node6&#45;&gt;Node7 -->
<g id="edge7" class="edge">
<title>Node6&#45;&gt;Node7</title>
<path fill="none" stroke="midnightblue" d="M680.09,-128.01C665.43,-115.94 647.64,-101.3 636.57,-92.19"/>
<polygon fill="midnightblue" stroke="midnightblue" points="677.91,-130.75 687.86,-134.4 682.36,-125.34 677.91,-130.75"/>
</g>
<!-- Node6&#45;&gt;Node10 -->
<g id="edge10" class="edge">
<title>Node6&#45;&gt;Node10</title>
<path fill="none" stroke="midnightblue" d="M729.74,-127.88C741.59,-118.01 755.48,-106.43 766.11,-97.58"/>
<polygon fill="midnightblue" stroke="midnightblue" points="727.37,-125.31 721.92,-134.4 731.85,-130.68 727.37,-125.31"/>
</g>
<!-- Node6&#45;&gt;Node13 -->
<g id="edge13" class="edge">
<title>Node6&#45;&gt;Node13</title>
<path fill="none" stroke="midnightblue" d="M762.75,-131.59C806.11,-118.9 863.67,-102.04 897.87,-92.03"/>
<polygon fill="midnightblue" stroke="midnightblue" points="761.51,-128.31 752.9,-134.48 763.48,-135.02 761.51,-128.31"/>
</g>
<!-- Node16 -->
<g id="node16" class="node">
<title>Node16</title>
<g id="a_node16"><a xlink:href="linear__problem_8cc.html" target="_top" xlink:title=" ">
<polygon fill="none" stroke="black" points="427,-67.5 427,-97.5 533,-97.5 533,-67.5 427,-67.5"/>
<text text-anchor="start" x="435" y="-85.5" font-family="Helvetica,sans-Serif" font-size="10.00">source/pdes/linear</text>
<text text-anchor="middle" x="480" y="-74.5" font-family="Helvetica,sans-Serif" font-size="10.00">_problem.cc</text>
</a>
</g>
</g>
<!-- Node6&#45;&gt;Node16 -->
<g id="edge16" class="edge">
<title>Node6&#45;&gt;Node16</title>
<path fill="none" stroke="midnightblue" d="M646.43,-131.58C609.89,-121.02 563.4,-107.59 528.85,-97.61"/>
<polygon fill="midnightblue" stroke="midnightblue" points="645.88,-135.06 656.46,-134.48 647.82,-128.34 645.88,-135.06"/>
</g>
<!-- Node8 -->
<g id="node8" class="node">
<title>Node8</title>
<g id="a_node8"><a xlink:href="source_2pdes_2mpi_2poisson_8cc.html" target="_top" xlink:title=" ">
<polygon fill="none" stroke="black" points="551.5,-6 551.5,-25 702.5,-25 702.5,-6 551.5,-6"/>
<text text-anchor="middle" x="627" y="-13" font-family="Helvetica,sans-Serif" font-size="10.00">source/pdes/mpi/poisson.cc</text>
</a>
</g>
</g>
<!-- Node7&#45;&gt;Node8 -->
<g id="edge8" class="edge">
<title>Node7&#45;&gt;Node8</title>
<path fill="none" stroke="midnightblue" d="M626.29,-62.54C626.48,-50.17 626.72,-34.62 626.87,-25.13"/>
<polygon fill="midnightblue" stroke="midnightblue" points="622.79,-62.68 626.13,-72.73 629.79,-62.79 622.79,-62.68"/>
</g>
<!-- Node9 -->
<g id="node9" class="node">
<title>Node9</title>
<g id="a_node9"><a xlink:href="apps_2mpi_2poisson_8cc.html" target="_top" xlink:title=" ">
<polygon fill="none" stroke="black" points="417,-6 417,-25 533,-25 533,-6 417,-6"/>
<text text-anchor="middle" x="475" y="-13" font-family="Helvetica,sans-Serif" font-size="10.00">apps/mpi/poisson.cc</text>
</a>
</g>
</g>
<!-- Node7&#45;&gt;Node9 -->
<g id="edge9" class="edge">
<title>Node7&#45;&gt;Node9</title>
<path fill="none" stroke="midnightblue" d="M596.45,-68.78C566.55,-55.91 521.12,-36.35 495.13,-25.17"/>
<polygon fill="midnightblue" stroke="midnightblue" points="595.38,-72.13 605.95,-72.87 598.15,-65.7 595.38,-72.13"/>
</g>
<!-- Node11 -->
<g id="node11" class="node">
<title>Node11</title>
<g id="a_node11"><a xlink:href="source_2pdes_2serial_2distributed__lagrange_8cc.html" target="_top" xlink:title=" ">
<polygon fill="none" stroke="black" points="864,-0.5 864,-30.5 998,-30.5 998,-0.5 864,-0.5"/>
<text text-anchor="start" x="872" y="-18.5" font-family="Helvetica,sans-Serif" font-size="10.00">source/pdes/serial</text>
<text text-anchor="middle" x="931" y="-7.5" font-family="Helvetica,sans-Serif" font-size="10.00">/distributed_lagrange.cc</text>
</a>
</g>
</g>
<!-- Node10&#45;&gt;Node11 -->
<g id="edge11" class="edge">
<title>Node10&#45;&gt;Node11</title>
<path fill="none" stroke="midnightblue" d="M824.51,-63.27C848.08,-52.92 877.14,-40.15 898.95,-30.58"/>
<polygon fill="midnightblue" stroke="midnightblue" points="822.86,-60.17 815.11,-67.4 825.68,-66.58 822.86,-60.17"/>
</g>
<!-- Node12 -->
<g id="node12" class="node">
<title>Node12</title>
<g id="a_node12"><a xlink:href="apps_2serial_2distributed__lagrange_8cc.html" target="_top" xlink:title=" ">
<polygon fill="none" stroke="black" points="720.5,-0.5 720.5,-30.5 845.5,-30.5 845.5,-0.5 720.5,-0.5"/>
<text text-anchor="start" x="728.5" y="-18.5" font-family="Helvetica,sans-Serif" font-size="10.00">apps/serial/distributed</text>
<text text-anchor="middle" x="783" y="-7.5" font-family="Helvetica,sans-Serif" font-size="10.00">_lagrange.cc</text>
</a>
</g>
</g>
<!-- Node10&#45;&gt;Node12 -->
<g id="edge12" class="edge">
<title>Node10&#45;&gt;Node12</title>
<path fill="none" stroke="midnightblue" d="M783,-57.11C783,-48.15 783,-38.32 783,-30.58"/>
<polygon fill="midnightblue" stroke="midnightblue" points="779.5,-57.4 783,-67.4 786.5,-57.4 779.5,-57.4"/>
</g>
<!-- Node14 -->
<g id="node14" class="node">
<title>Node14</title>
<g id="a_node14"><a xlink:href="source_2pdes_2stokes_8cc.html" target="_top" xlink:title=" ">
<polygon fill="none" stroke="black" points="1144.5,-6 1144.5,-25 1267.5,-25 1267.5,-6 1144.5,-6"/>
<text text-anchor="middle" x="1206" y="-13" font-family="Helvetica,sans-Serif" font-size="10.00">source/pdes/stokes.cc</text>
</a>
</g>
</g>
<!-- Node13&#45;&gt;Node14 -->
<g id="edge14" class="edge">
<title>Node13&#45;&gt;Node14</title>
<path fill="none" stroke="midnightblue" d="M973.6,-70.64C1028.57,-57.84 1118.83,-36.81 1169.16,-25.08"/>
<polygon fill="midnightblue" stroke="midnightblue" points="972.71,-67.26 963.76,-72.94 974.29,-74.08 972.71,-67.26"/>
</g>
<!-- Node15 -->
<g id="node15" class="node">
<title>Node15</title>
<g id="a_node15"><a xlink:href="apps_2mpi_2stokes_8cc.html" target="_top" xlink:title=" ">
<polygon fill="none" stroke="black" points="1016,-6 1016,-25 1126,-25 1126,-6 1016,-6"/>
<text text-anchor="middle" x="1071" y="-13" font-family="Helvetica,sans-Serif" font-size="10.00">apps/mpi/stokes.cc</text>
</a>
</g>
</g>
<!-- Node13&#45;&gt;Node15 -->
<g id="edge15" class="edge">
<title>Node13&#45;&gt;Node15</title>
<path fill="none" stroke="midnightblue" d="M955.55,-68.61C984.07,-55.74 1027.12,-36.31 1051.8,-25.17"/>
<polygon fill="midnightblue" stroke="midnightblue" points="953.8,-65.56 946.12,-72.87 956.68,-71.94 953.8,-65.56"/>
</g>
<!-- Node18 -->
<g id="node18" class="node">
<title>Node18</title>
<g id="a_node18"><a xlink:href="source_2pdes_2serial_2poisson_8cc.html" target="_top" xlink:title=" ">
<polygon fill="none" stroke="black" points="1148.5,-67.5 1148.5,-97.5 1253.5,-97.5 1253.5,-67.5 1148.5,-67.5"/>
<text text-anchor="start" x="1156.5" y="-85.5" font-family="Helvetica,sans-Serif" font-size="10.00">source/pdes/serial</text>
<text text-anchor="middle" x="1201" y="-74.5" font-family="Helvetica,sans-Serif" font-size="10.00">/poisson.cc</text>
</a>
</g>
</g>
<!-- Node17&#45;&gt;Node18 -->
<g id="edge19" class="edge">
<title>Node17&#45;&gt;Node18</title>
<path fill="none" stroke="midnightblue" d="M1105.87,-129.99C1126.95,-119.69 1152.78,-107.07 1172.2,-97.58"/>
<polygon fill="midnightblue" stroke="midnightblue" points="1104.31,-126.86 1096.86,-134.4 1107.38,-133.15 1104.31,-126.86"/>
</g>
<!-- Node19 -->
<g id="node19" class="node">
<title>Node19</title>
<g id="a_node19"><a xlink:href="apps_2serial_2poisson_8cc.html" target="_top" xlink:title=" ">
<polygon fill="none" stroke="black" points="1006,-73 1006,-92 1130,-92 1130,-73 1006,-73"/>
<text text-anchor="middle" x="1068" y="-80" font-family="Helvetica,sans-Serif" font-size="10.00">apps/serial/poisson.cc</text>
</a>
</g>
</g>
<!-- Node17&#45;&gt;Node19 -->
<g id="edge20" class="edge">
<title>Node17&#45;&gt;Node19</title>
<path fill="none" stroke="midnightblue" d="M1068,-124.25C1068,-113.02 1068,-100.38 1068,-92.19"/>
<polygon fill="midnightblue" stroke="midnightblue" points="1064.5,-124.4 1068,-134.4 1071.5,-124.4 1064.5,-124.4"/>
</g>
<!-- Node21 -->
<g id="node21" class="node">
<title>Node21</title>
<g id="a_node21"><a xlink:href="source_2pdes_2serial_2reduced__lagrange_8cc.html" target="_top" xlink:title=" ">
<polygon fill="none" stroke="black" points="1402,-67.5 1402,-97.5 1522,-97.5 1522,-67.5 1402,-67.5"/>
<text text-anchor="start" x="1410" y="-85.5" font-family="Helvetica,sans-Serif" font-size="10.00">source/pdes/serial</text>
<text text-anchor="middle" x="1462" y="-74.5" font-family="Helvetica,sans-Serif" font-size="10.00">/reduced_lagrange.cc</text>
</a>
</g>
</g>
<!-- Node20&#45;&gt;Node21 -->
<g id="edge22" class="edge">
<title>Node20&#45;&gt;Node21</title>
<path fill="none" stroke="midnightblue" d="M1366.15,-129.99C1387.39,-119.69 1413.41,-107.07 1432.98,-97.58"/>
<polygon fill="midnightblue" stroke="midnightblue" points="1364.55,-126.88 1357.08,-134.4 1367.6,-133.18 1364.55,-126.88"/>
</g>
<!-- Node22 -->
<g id="node22" class="node">
<title>Node22</title>
<g id="a_node22"><a xlink:href="apps_2serial_2reduced__lagrange_8cc.html" target="_top" xlink:title=" ">
<polygon fill="none" stroke="black" points="1272,-67.5 1272,-97.5 1384,-97.5 1384,-67.5 1272,-67.5"/>
<text text-anchor="start" x="1280" y="-85.5" font-family="Helvetica,sans-Serif" font-size="10.00">apps/serial/reduced</text>
<text text-anchor="middle" x="1328" y="-74.5" font-family="Helvetica,sans-Serif" font-size="10.00">_lagrange.cc</text>
</a>
</g>
</g>
<!-- Node20&#45;&gt;Node22 -->
<g id="edge23" class="edge">
<title>Node20&#45;&gt;Node22</title>
<path fill="none" stroke="midnightblue" d="M1328,-124.11C1328,-115.15 1328,-105.32 1328,-97.58"/>
<polygon fill="midnightblue" stroke="midnightblue" points="1324.5,-124.4 1328,-134.4 1331.5,-124.4 1324.5,-124.4"/>
</g>
<!-- Node24 -->
<g id="node24" class="node">
<title>Node24</title>
<g id="a_node24"><a xlink:href="source_2pdes_2serial_2stokes_8cc.html" target="_top" xlink:title=" ">
<polygon fill="none" stroke="black" points="1676.5,-67.5 1676.5,-97.5 1781.5,-97.5 1781.5,-67.5 1676.5,-67.5"/>
<text text-anchor="start" x="1684.5" y="-85.5" font-family="Helvetica,sans-Serif" font-size="10.00">source/pdes/serial</text>
<text text-anchor="middle" x="1729" y="-74.5" font-family="Helvetica,sans-Serif" font-size="10.00">/stokes.cc</text>
</a>
</g>
</g>
<!-- Node23&#45;&gt;Node24 -->
<g id="edge25" class="edge">
<title>Node23&#45;&gt;Node24</title>
<path fill="none" stroke="midnightblue" d="M1581.41,-131.23C1613.93,-120.71 1654.94,-107.45 1685.47,-97.58"/>
<polygon fill="midnightblue" stroke="midnightblue" points="1580.05,-127.99 1571.61,-134.4 1582.21,-134.65 1580.05,-127.99"/>
</g>
<!-- Node25 -->
<g id="node25" class="node">
<title>Node25</title>
<g id="a_node25"><a xlink:href="apps_2serial_2stokes_8cc.html" target="_top" xlink:title=" ">
<polygon fill="none" stroke="black" points="1540,-73 1540,-92 1658,-92 1658,-73 1540,-73"/>
<text text-anchor="middle" x="1599" y="-80" font-family="Helvetica,sans-Serif" font-size="10.00">apps/serial/stokes.cc</text>
</a>
</g>
</g>
<!-- Node23&#45;&gt;Node25 -->
<g id="edge26" class="edge">
<title>Node23&#45;&gt;Node25</title>
<path fill="none" stroke="midnightblue" d="M1551.12,-127.34C1564.15,-115.4 1579.74,-101.14 1589.5,-92.19"/>
<polygon fill="midnightblue" stroke="midnightblue" points="1548.42,-125.06 1543.41,-134.4 1553.15,-130.22 1548.42,-125.06"/>
</g>
</g>
</svg>
