<?xml version="1.0" encoding="UTF-8" standalone="no"?>
<!DOCTYPE svg PUBLIC "-//W3C//DTD SVG 1.1//EN"
 "http://www.w3.org/Graphics/SVG/1.1/DTD/svg11.dtd">
<!-- Generated by graphviz version 2.43.0 (0)
 -->
<!-- Title: include/parsed_tools/convergence_table.h Pages: 1 -->
<svg width="339pt" height="285pt"
 viewBox="0.00 0.00 339.38 285.00" xmlns="http://www.w3.org/2000/svg" xmlns:xlink="http://www.w3.org/1999/xlink">
<g id="graph0" class="graph" transform="scale(1 1) rotate(0) translate(4 281)">
<title>include/parsed_tools/convergence_table.h</title>
<!-- Node1 -->
<g id="node1" class="node">
<title>Node1</title>
<g id="a_node1"><a xlink:title=" ">
<polygon fill="#bfbfbf" stroke="black" points="92.88,-246.5 92.88,-276.5 213.88,-276.5 213.88,-246.5 92.88,-246.5"/>
<text text-anchor="start" x="100.88" y="-264.5" font-family="Helvetica,sans-Serif" font-size="10.00">include/parsed_tools</text>
<text text-anchor="middle" x="153.38" y="-253.5" font-family="Helvetica,sans-Serif" font-size="10.00">/convergence_table.h</text>
</a>
</g>
</g>
<!-- Node2 -->
<g id="node2" class="node">
<title>Node2</title>
<g id="a_node2"><a target="_parent" xlink:href="http://www.dealii.org/developer/doxygen/deal.II/config_8h.html.html" xlink:title=" ">
<polygon fill="none" stroke="black" points="14.38,-129 14.38,-148 128.38,-148 128.38,-129 14.38,-129"/>
<text text-anchor="middle" x="71.38" y="-136" font-family="Helvetica,sans-Serif" font-size="10.00">deal.II/base/config.h</text>
</a>
</g>
</g>
<!-- Node1&#45;&gt;Node2 -->
<g id="edge1" class="edge">
<title>Node1&#45;&gt;Node2</title>
<path fill="none" stroke="midnightblue" d="M125.56,-246.36C111.39,-237.74 95.13,-225.41 85.38,-210 75.49,-194.37 72.36,-173.21 71.48,-158.16"/>
<polygon fill="midnightblue" stroke="midnightblue" points="74.97,-157.92 71.16,-148.03 67.97,-158.13 74.97,-157.92"/>
</g>
<!-- Node3 -->
<g id="node3" class="node">
<title>Node3</title>
<g id="a_node3"><a target="_parent" xlink:href="http://www.dealii.org/developer/doxygen/deal.II/parameter__acceptor_8h.html.html" xlink:title=" ">
<polygon fill="none" stroke="black" points="69.88,-0.5 69.88,-30.5 196.88,-30.5 196.88,-0.5 69.88,-0.5"/>
<text text-anchor="start" x="77.88" y="-18.5" font-family="Helvetica,sans-Serif" font-size="10.00">deal.II/base/parameter</text>
<text text-anchor="middle" x="133.38" y="-7.5" font-family="Helvetica,sans-Serif" font-size="10.00">_acceptor.h</text>
</a>
</g>
</g>
<!-- Node1&#45;&gt;Node3 -->
<g id="edge2" class="edge">
<title>Node1&#45;&gt;Node3</title>
<path fill="none" stroke="midnightblue" d="M116.35,-246.43C80.06,-230.33 27.13,-200.09 5.38,-154 -18.39,-103.64 46.48,-59.29 92.33,-35.34"/>
<polygon fill="midnightblue" stroke="midnightblue" points="94.17,-38.33 101.5,-30.68 91,-32.09 94.17,-38.33"/>
</g>
<!-- Node4 -->
<g id="node4" class="node">
<title>Node4</title>
<g id="a_node4"><a target="_parent" xlink:href="http://www.dealii.org/developer/doxygen/deal.II/parsed__convergence__table_8h.html.html" xlink:title=" ">
<polygon fill="none" stroke="black" points="187.88,-123.5 187.88,-153.5 310.88,-153.5 310.88,-123.5 187.88,-123.5"/>
<text text-anchor="start" x="195.88" y="-141.5" font-family="Helvetica,sans-Serif" font-size="10.00">deal.II/base/parsed</text>
<text text-anchor="middle" x="249.38" y="-130.5" font-family="Helvetica,sans-Serif" font-size="10.00">_convergence_table.h</text>
</a>
</g>
</g>
<!-- Node1&#45;&gt;Node4 -->
<g id="edge3" class="edge">
<title>Node1&#45;&gt;Node4</title>
<path fill="none" stroke="midnightblue" d="M170.9,-246.44C183.91,-237.55 200.91,-224.93 212.38,-210 223.07,-196.08 230.22,-177.55 235.88,-162.98"/>
<polygon fill="midnightblue" stroke="midnightblue" points="239.16,-164.22 239.59,-153.63 232.65,-161.64 239.16,-164.22"/>
</g>
<!-- Node7 -->
<g id="node7" class="node">
<title>Node7</title>
<g id="a_node7"><a xlink:href="proxy_8h.html" target="_top" xlink:title=" ">
<polygon fill="none" stroke="black" points="94.88,-190.5 94.88,-209.5 211.88,-209.5 211.88,-190.5 94.88,-190.5"/>
<text text-anchor="middle" x="153.38" y="-197.5" font-family="Helvetica,sans-Serif" font-size="10.00">parsed_tools/proxy.h</text>
</a>
</g>
</g>
<!-- Node1&#45;&gt;Node7 -->
<g id="edge8" class="edge">
<title>Node1&#45;&gt;Node7</title>
<path fill="none" stroke="midnightblue" d="M153.38,-246.4C153.38,-238.47 153.38,-228.46 153.38,-219.86"/>
<polygon fill="midnightblue" stroke="midnightblue" points="156.88,-219.66 153.38,-209.66 149.88,-219.66 156.88,-219.66"/>
</g>
<!-- Node4&#45;&gt;Node1 -->
<g id="edge4" class="edge">
<title>Node4&#45;&gt;Node1</title>
<path fill="none" stroke="midnightblue" d="M252.86,-153.63C251.33,-168.76 243.54,-192.87 230.38,-210 221.06,-222.13 208.09,-232.74 195.37,-241.06"/>
<polygon fill="midnightblue" stroke="midnightblue" points="193.32,-238.21 186.65,-246.44 197,-244.17 193.32,-238.21"/>
</g>
<!-- Node5 -->
<g id="node5" class="node">
<title>Node5</title>
<g id="a_node5"><a xlink:href="function_8h.html" target="_top" xlink:title=" ">
<polygon fill="none" stroke="black" points="186.88,-67.5 186.88,-86.5 311.88,-86.5 311.88,-67.5 186.88,-67.5"/>
<text text-anchor="middle" x="249.38" y="-74.5" font-family="Helvetica,sans-Serif" font-size="10.00">deal.II/base/function.h</text>
</a>
</g>
</g>
<!-- Node4&#45;&gt;Node5 -->
<g id="edge5" class="edge">
<title>Node4&#45;&gt;Node5</title>
<path fill="none" stroke="midnightblue" d="M249.38,-123.4C249.38,-115.47 249.38,-105.46 249.38,-96.86"/>
<polygon fill="midnightblue" stroke="midnightblue" points="252.88,-96.66 249.38,-86.66 245.88,-96.66 252.88,-96.66"/>
</g>
<!-- Node5&#45;&gt;Node3 -->
<g id="edge7" class="edge">
<title>Node5&#45;&gt;Node3</title>
<path fill="none" stroke="midnightblue" d="M232.76,-67.48C216.39,-59.08 190.84,-45.97 169.74,-35.15"/>
<polygon fill="midnightblue" stroke="midnightblue" points="171.21,-31.97 160.72,-30.52 168.02,-38.2 171.21,-31.97"/>
</g>
<!-- Node6 -->
<g id="node6" class="node">
<title>Node6</title>
<g id="a_node6"><a target="_parent" xlink:href="http://www.dealii.org/developer/doxygen/deal.II/function__parser_8h.html.html" xlink:title=" ">
<polygon fill="none" stroke="black" points="215.38,-0.5 215.38,-30.5 331.38,-30.5 331.38,-0.5 215.38,-0.5"/>
<text text-anchor="start" x="223.38" y="-18.5" font-family="Helvetica,sans-Serif" font-size="10.00">deal.II/base/function</text>
<text text-anchor="middle" x="273.38" y="-7.5" font-family="Helvetica,sans-Serif" font-size="10.00">_parser.h</text>
</a>
</g>
</g>
<!-- Node5&#45;&gt;Node6 -->
<g id="edge6" class="edge">
<title>Node5&#45;&gt;Node6</title>
<path fill="none" stroke="midnightblue" d="M252.82,-67.48C255.7,-60.32 259.97,-49.75 263.87,-40.08"/>
<polygon fill="midnightblue" stroke="midnightblue" points="267.23,-41.11 267.72,-30.52 260.74,-38.49 267.23,-41.11"/>
</g>
<!-- Node7&#45;&gt;Node2 -->
<g id="edge9" class="edge">
<title>Node7&#45;&gt;Node2</title>
<path fill="none" stroke="midnightblue" d="M141.63,-190.48C128.6,-181.02 107.34,-165.6 91.62,-154.19"/>
<polygon fill="midnightblue" stroke="midnightblue" points="93.25,-151.05 83.11,-148.01 89.14,-156.71 93.25,-151.05"/>
</g>
<!-- Node7&#45;&gt;Node3 -->
<g id="edge10" class="edge">
<title>Node7&#45;&gt;Node3</title>
<path fill="none" stroke="midnightblue" d="M152.41,-190.2C149.47,-163.33 140.53,-81.74 136.03,-40.67"/>
<polygon fill="midnightblue" stroke="midnightblue" points="139.5,-40.25 134.93,-30.69 132.54,-41.02 139.5,-40.25"/>
</g>
<!-- Node7&#45;&gt;Node4 -->
<g id="edge11" class="edge">
<title>Node7&#45;&gt;Node4</title>
<path fill="none" stroke="midnightblue" d="M167.13,-190.48C180.38,-182.27 200.88,-169.56 218.1,-158.88"/>
<polygon fill="midnightblue" stroke="midnightblue" points="220.1,-161.77 226.75,-153.52 216.41,-155.82 220.1,-161.77"/>
</g>
</g>
</svg>
