<?xml version="1.0" encoding="UTF-8" standalone="no"?>
<!DOCTYPE svg PUBLIC "-//W3C//DTD SVG 1.1//EN"
 "http://www.w3.org/Graphics/SVG/1.1/DTD/svg11.dtd">
<!-- Generated by graphviz version 2.43.0 (0)
 -->
<!-- Title: include/parsed_tools/convergence_table.h Pages: 1 -->
<svg width="2380pt" height="240pt"
 viewBox="0.00 0.00 2380.00 240.00" xmlns="http://www.w3.org/2000/svg" xmlns:xlink="http://www.w3.org/1999/xlink">
<g id="graph0" class="graph" transform="scale(1 1) rotate(0) translate(4 236)">
<title>include/parsed_tools/convergence_table.h</title>
<!-- Node1 -->
<g id="node1" class="node">
<title>Node1</title>
<g id="a_node1"><a xlink:title=" ">
<polygon fill="#bfbfbf" stroke="black" points="1745.5,-201.5 1745.5,-231.5 1866.5,-231.5 1866.5,-201.5 1745.5,-201.5"/>
<text text-anchor="start" x="1753.5" y="-219.5" font-family="Helvetica,sans-Serif" font-size="10.00">include/parsed_tools</text>
<text text-anchor="middle" x="1806" y="-208.5" font-family="Helvetica,sans-Serif" font-size="10.00">/convergence_table.h</text>
</a>
</g>
</g>
<!-- Node2 -->
<g id="node2" class="node">
<title>Node2</title>
<g id="a_node2"><a xlink:href="linear__problem_8h.html" target="_top" xlink:title=" ">
<polygon fill="none" stroke="black" points="1138.5,-134.5 1138.5,-164.5 1247.5,-164.5 1247.5,-134.5 1138.5,-134.5"/>
<text text-anchor="start" x="1146.5" y="-152.5" font-family="Helvetica,sans-Serif" font-size="10.00">include/pdes/linear</text>
<text text-anchor="middle" x="1193" y="-141.5" font-family="Helvetica,sans-Serif" font-size="10.00">_problem.h</text>
</a>
</g>
</g>
<!-- Node1&#45;&gt;Node2 -->
<g id="edge1" class="edge">
<title>Node1&#45;&gt;Node2</title>
<path fill="none" stroke="midnightblue" d="M1735.15,-207.99C1611.48,-194.87 1358.84,-168.08 1247.62,-156.29"/>
<polygon fill="midnightblue" stroke="midnightblue" points="1734.95,-211.49 1745.26,-209.06 1735.69,-204.52 1734.95,-211.49"/>
</g>
<!-- Node21 -->
<g id="node21" class="node">
<title>Node21</title>
<g id="a_node21"><a xlink:href="serial_2poisson_8h.html" target="_top" xlink:title=" ">
<polygon fill="none" stroke="black" points="1672,-134.5 1672,-164.5 1780,-164.5 1780,-134.5 1672,-134.5"/>
<text text-anchor="start" x="1680" y="-152.5" font-family="Helvetica,sans-Serif" font-size="10.00">include/pdes/serial</text>
<text text-anchor="middle" x="1726" y="-141.5" font-family="Helvetica,sans-Serif" font-size="10.00">/poisson.h</text>
</a>
</g>
</g>
<!-- Node1&#45;&gt;Node21 -->
<g id="edge20" class="edge">
<title>Node1&#45;&gt;Node21</title>
<path fill="none" stroke="midnightblue" d="M1780.63,-194.88C1768.47,-185.01 1754.22,-173.43 1743.32,-164.58"/>
<polygon fill="midnightblue" stroke="midnightblue" points="1778.67,-197.81 1788.64,-201.4 1783.09,-192.37 1778.67,-197.81"/>
</g>
<!-- Node24 -->
<g id="node24" class="node">
<title>Node24</title>
<g id="a_node24"><a xlink:href="poisson__nitsche__interface_8h.html" target="_top" xlink:title=" ">
<polygon fill="none" stroke="black" points="1808.5,-134.5 1808.5,-164.5 1963.5,-164.5 1963.5,-134.5 1808.5,-134.5"/>
<text text-anchor="start" x="1816.5" y="-152.5" font-family="Helvetica,sans-Serif" font-size="10.00">include/pdes/serial</text>
<text text-anchor="middle" x="1886" y="-141.5" font-family="Helvetica,sans-Serif" font-size="10.00">/poisson_nitsche_interface.h</text>
</a>
</g>
</g>
<!-- Node1&#45;&gt;Node24 -->
<g id="edge23" class="edge">
<title>Node1&#45;&gt;Node24</title>
<path fill="none" stroke="midnightblue" d="M1831.37,-194.88C1843.53,-185.01 1857.78,-173.43 1868.68,-164.58"/>
<polygon fill="midnightblue" stroke="midnightblue" points="1828.91,-192.37 1823.36,-201.4 1833.33,-197.81 1828.91,-192.37"/>
</g>
<!-- Node27 -->
<g id="node27" class="node">
<title>Node27</title>
<g id="a_node27"><a xlink:href="reduced__lagrange_8h.html" target="_top" xlink:title=" ">
<polygon fill="none" stroke="black" points="2124,-134.5 2124,-164.5 2240,-164.5 2240,-134.5 2124,-134.5"/>
<text text-anchor="start" x="2132" y="-152.5" font-family="Helvetica,sans-Serif" font-size="10.00">include/pdes/serial</text>
<text text-anchor="middle" x="2182" y="-141.5" font-family="Helvetica,sans-Serif" font-size="10.00">/reduced_lagrange.h</text>
</a>
</g>
</g>
<!-- Node1&#45;&gt;Node27 -->
<g id="edge26" class="edge">
<title>Node1&#45;&gt;Node27</title>
<path fill="none" stroke="midnightblue" d="M1877.09,-203.21C1948.5,-190.87 2057.24,-172.07 2123.73,-160.57"/>
<polygon fill="midnightblue" stroke="midnightblue" points="1876.09,-199.83 1866.83,-204.98 1877.28,-206.73 1876.09,-199.83"/>
</g>
<!-- Node3 -->
<g id="node3" class="node">
<title>Node3</title>
<g id="a_node3"><a xlink:href="linear__elasticity_8h.html" target="_top" xlink:title=" ">
<polygon fill="none" stroke="black" points="220.5,-67.5 220.5,-97.5 329.5,-97.5 329.5,-67.5 220.5,-67.5"/>
<text text-anchor="start" x="228.5" y="-85.5" font-family="Helvetica,sans-Serif" font-size="10.00">include/pdes/linear</text>
<text text-anchor="middle" x="275" y="-74.5" font-family="Helvetica,sans-Serif" font-size="10.00">_elasticity.h</text>
</a>
</g>
</g>
<!-- Node2&#45;&gt;Node3 -->
<g id="edge2" class="edge">
<title>Node2&#45;&gt;Node3</title>
<path fill="none" stroke="midnightblue" d="M1128.15,-143.91C955.96,-131.72 489.59,-98.69 329.68,-87.37"/>
<polygon fill="midnightblue" stroke="midnightblue" points="1128.1,-147.41 1138.32,-144.63 1128.6,-140.43 1128.1,-147.41"/>
</g>
<!-- Node7 -->
<g id="node7" class="node">
<title>Node7</title>
<g id="a_node7"><a xlink:href="linear__visco__elasticity_8h.html" target="_top" xlink:title=" ">
<polygon fill="none" stroke="black" points="619.5,-67.5 619.5,-97.5 728.5,-97.5 728.5,-67.5 619.5,-67.5"/>
<text text-anchor="start" x="627.5" y="-85.5" font-family="Helvetica,sans-Serif" font-size="10.00">include/pdes/linear</text>
<text text-anchor="middle" x="674" y="-74.5" font-family="Helvetica,sans-Serif" font-size="10.00">_visco_elasticity.h</text>
</a>
</g>
</g>
<!-- Node2&#45;&gt;Node7 -->
<g id="edge6" class="edge">
<title>Node2&#45;&gt;Node7</title>
<path fill="none" stroke="midnightblue" d="M1128.46,-140.42C1025.31,-127.5 825.11,-102.43 728.61,-90.34"/>
<polygon fill="midnightblue" stroke="midnightblue" points="1128.08,-143.9 1138.44,-141.67 1128.95,-136.95 1128.08,-143.9"/>
</g>
<!-- Node11 -->
<g id="node11" class="node">
<title>Node11</title>
<g id="a_node11"><a xlink:href="mpi_2poisson_8h.html" target="_top" xlink:title=" ">
<polygon fill="none" stroke="black" points="961.5,-73 961.5,-92 1110.5,-92 1110.5,-73 961.5,-73"/>
<text text-anchor="middle" x="1036" y="-80" font-family="Helvetica,sans-Serif" font-size="10.00">include/pdes/mpi/poisson.h</text>
</a>
</g>
</g>
<!-- Node2&#45;&gt;Node11 -->
<g id="edge10" class="edge">
<title>Node2&#45;&gt;Node11</title>
<path fill="none" stroke="midnightblue" d="M1149.42,-130.46C1119.09,-117.9 1080.02,-101.72 1056.55,-92.01"/>
<polygon fill="midnightblue" stroke="midnightblue" points="1148.36,-133.8 1158.93,-134.4 1151.03,-127.34 1148.36,-133.8"/>
</g>
<!-- Node14 -->
<g id="node14" class="node">
<title>Node14</title>
<g id="a_node14"><a xlink:href="distributed__lagrange_8h.html" target="_top" xlink:title=" ">
<polygon fill="none" stroke="black" points="1128.5,-67.5 1128.5,-97.5 1257.5,-97.5 1257.5,-67.5 1128.5,-67.5"/>
<text text-anchor="start" x="1136.5" y="-85.5" font-family="Helvetica,sans-Serif" font-size="10.00">include/pdes/serial</text>
<text text-anchor="middle" x="1193" y="-74.5" font-family="Helvetica,sans-Serif" font-size="10.00">/distributed_lagrange.h</text>
</a>
</g>
</g>
<!-- Node2&#45;&gt;Node14 -->
<g id="edge13" class="edge">
<title>Node2&#45;&gt;Node14</title>
<path fill="none" stroke="midnightblue" d="M1193,-124.11C1193,-115.15 1193,-105.32 1193,-97.58"/>
<polygon fill="midnightblue" stroke="midnightblue" points="1189.5,-124.4 1193,-134.4 1196.5,-124.4 1189.5,-124.4"/>
</g>
<!-- Node17 -->
<g id="node17" class="node">
<title>Node17</title>
<g id="a_node17"><a xlink:href="stokes_8h.html" target="_top" xlink:title=" ">
<polygon fill="none" stroke="black" points="1276,-73 1276,-92 1398,-92 1398,-73 1276,-73"/>
<text text-anchor="middle" x="1337" y="-80" font-family="Helvetica,sans-Serif" font-size="10.00">include/pdes/stokes.h</text>
</a>
</g>
</g>
<!-- Node2&#45;&gt;Node17 -->
<g id="edge16" class="edge">
<title>Node2&#45;&gt;Node17</title>
<path fill="none" stroke="midnightblue" d="M1233.69,-130.13C1261.41,-117.62 1296.81,-101.64 1318.15,-92.01"/>
<polygon fill="midnightblue" stroke="midnightblue" points="1231.92,-127.09 1224.25,-134.4 1234.8,-133.47 1231.92,-127.09"/>
</g>
<!-- Node20 -->
<g id="node20" class="node">
<title>Node20</title>
<g id="a_node20"><a xlink:href="linear__problem_8cc.html" target="_top" xlink:title=" ">
<polygon fill="none" stroke="black" points="1416,-67.5 1416,-97.5 1522,-97.5 1522,-67.5 1416,-67.5"/>
<text text-anchor="start" x="1424" y="-85.5" font-family="Helvetica,sans-Serif" font-size="10.00">source/pdes/linear</text>
<text text-anchor="middle" x="1469" y="-74.5" font-family="Helvetica,sans-Serif" font-size="10.00">_problem.cc</text>
</a>
</g>
</g>
<!-- Node2&#45;&gt;Node20 -->
<g id="edge19" class="edge">
<title>Node2&#45;&gt;Node20</title>
<path fill="none" stroke="midnightblue" d="M1257.54,-133.3C1305.74,-121.95 1370.82,-106.62 1415.99,-95.98"/>
<polygon fill="midnightblue" stroke="midnightblue" points="1256.46,-129.96 1247.53,-135.66 1258.06,-136.77 1256.46,-129.96"/>
</g>
<!-- Node4 -->
<g id="node4" class="node">
<title>Node4</title>
<g id="a_node4"><a xlink:href="source_2pdes_2linear__elasticity_8cc.html" target="_top" xlink:title=" ">
<polygon fill="none" stroke="black" points="0,-0.5 0,-30.5 106,-30.5 106,-0.5 0,-0.5"/>
<text text-anchor="start" x="8" y="-18.5" font-family="Helvetica,sans-Serif" font-size="10.00">source/pdes/linear</text>
<text text-anchor="middle" x="53" y="-7.5" font-family="Helvetica,sans-Serif" font-size="10.00">_elasticity.cc</text>
</a>
</g>
</g>
<!-- Node3&#45;&gt;Node4 -->
<g id="edge3" class="edge">
<title>Node3&#45;&gt;Node4</title>
<path fill="none" stroke="midnightblue" d="M217.21,-64.58C181.15,-54.02 135.28,-40.59 101.19,-30.61"/>
<polygon fill="midnightblue" stroke="midnightblue" points="216.52,-68.02 227.1,-67.48 218.49,-61.31 216.52,-68.02"/>
</g>
<!-- Node5 -->
<g id="node5" class="node">
<title>Node5</title>
<g id="a_node5"><a xlink:href="apps_2mpi_2linear__elasticity_8cc.html" target="_top" xlink:title=" ">
<polygon fill="none" stroke="black" points="124.5,-6 124.5,-25 279.5,-25 279.5,-6 124.5,-6"/>
<text text-anchor="middle" x="202" y="-13" font-family="Helvetica,sans-Serif" font-size="10.00">apps/mpi/linear_elasticity.cc</text>
</a>
</g>
</g>
<!-- Node3&#45;&gt;Node5 -->
<g id="edge4" class="edge">
<title>Node3&#45;&gt;Node5</title>
<path fill="none" stroke="midnightblue" d="M251.61,-60.67C238.13,-48.67 221.9,-34.22 211.76,-25.19"/>
<polygon fill="midnightblue" stroke="midnightblue" points="249.36,-63.36 259.16,-67.4 254.02,-58.13 249.36,-63.36"/>
</g>
<!-- Node6 -->
<g id="node6" class="node">
<title>Node6</title>
<g id="a_node6"><a xlink:href="apps_2serial_2linear__elasticity_8cc.html" target="_top" xlink:title=" ">
<polygon fill="none" stroke="black" points="297.5,-0.5 297.5,-30.5 398.5,-30.5 398.5,-0.5 297.5,-0.5"/>
<text text-anchor="start" x="305.5" y="-18.5" font-family="Helvetica,sans-Serif" font-size="10.00">apps/serial/linear</text>
<text text-anchor="middle" x="348" y="-7.5" font-family="Helvetica,sans-Serif" font-size="10.00">_elasticity.cc</text>
</a>
</g>
</g>
<!-- Node3&#45;&gt;Node6 -->
<g id="edge5" class="edge">
<title>Node3&#45;&gt;Node6</title>
<path fill="none" stroke="midnightblue" d="M298.47,-60.6C309.5,-50.78 322.34,-39.34 332.19,-30.58"/>
<polygon fill="midnightblue" stroke="midnightblue" points="295.98,-58.13 290.84,-67.4 300.64,-63.36 295.98,-58.13"/>
</g>
<!-- Node8 -->
<g id="node8" class="node">
<title>Node8</title>
<g id="a_node8"><a xlink:href="source_2pdes_2linear__visco__elasticity_8cc.html" target="_top" xlink:title=" ">
<polygon fill="none" stroke="black" points="417,-0.5 417,-30.5 527,-30.5 527,-0.5 417,-0.5"/>
<text text-anchor="start" x="425" y="-18.5" font-family="Helvetica,sans-Serif" font-size="10.00">source/pdes/linear</text>
<text text-anchor="middle" x="472" y="-7.5" font-family="Helvetica,sans-Serif" font-size="10.00">_visco_elasticity.cc</text>
</a>
</g>
</g>
<!-- Node7&#45;&gt;Node8 -->
<g id="edge7" class="edge">
<title>Node7&#45;&gt;Node8</title>
<path fill="none" stroke="midnightblue" d="M620.32,-64.23C587.65,-53.71 546.43,-40.45 515.75,-30.58"/>
<polygon fill="midnightblue" stroke="midnightblue" points="619.58,-67.66 630.17,-67.4 621.72,-61 619.58,-67.66"/>
</g>
<!-- Node9 -->
<g id="node9" class="node">
<title>Node9</title>
<g id="a_node9"><a xlink:href="apps_2mpi_2linear__visco__elasticity_8cc.html" target="_top" xlink:title=" ">
<polygon fill="none" stroke="black" points="545.5,-0.5 545.5,-30.5 668.5,-30.5 668.5,-0.5 545.5,-0.5"/>
<text text-anchor="start" x="553.5" y="-18.5" font-family="Helvetica,sans-Serif" font-size="10.00">apps/mpi/linear_visco</text>
<text text-anchor="middle" x="607" y="-7.5" font-family="Helvetica,sans-Serif" font-size="10.00">_elasticity.cc</text>
</a>
</g>
</g>
<!-- Node7&#45;&gt;Node9 -->
<g id="edge8" class="edge">
<title>Node7&#45;&gt;Node9</title>
<path fill="none" stroke="midnightblue" d="M652.16,-60.31C642.11,-50.56 630.46,-39.26 621.51,-30.58"/>
<polygon fill="midnightblue" stroke="midnightblue" points="649.85,-62.94 659.46,-67.4 654.72,-57.92 649.85,-62.94"/>
</g>
<!-- Node10 -->
<g id="node10" class="node">
<title>Node10</title>
<g id="a_node10"><a xlink:href="apps_2serial_2linear__visco__elasticity_8cc.html" target="_top" xlink:title=" ">
<polygon fill="none" stroke="black" points="687,-0.5 687,-30.5 797,-30.5 797,-0.5 687,-0.5"/>
<text text-anchor="start" x="695" y="-18.5" font-family="Helvetica,sans-Serif" font-size="10.00">apps/serial/linear</text>
<text text-anchor="middle" x="742" y="-7.5" font-family="Helvetica,sans-Serif" font-size="10.00">_visco_elasticity.cc</text>
</a>
</g>
</g>
<!-- Node7&#45;&gt;Node10 -->
<g id="edge9" class="edge">
<title>Node7&#45;&gt;Node10</title>
<path fill="none" stroke="midnightblue" d="M696.17,-60.31C706.37,-50.56 718.19,-39.26 727.27,-30.58"/>
<polygon fill="midnightblue" stroke="midnightblue" points="693.57,-57.96 688.75,-67.4 698.4,-63.02 693.57,-57.96"/>
</g>
<!-- Node12 -->
<g id="node12" class="node">
<title>Node12</title>
<g id="a_node12"><a xlink:href="source_2pdes_2mpi_2poisson_8cc.html" target="_top" xlink:title=" ">
<polygon fill="none" stroke="black" points="815.5,-6 815.5,-25 966.5,-25 966.5,-6 815.5,-6"/>
<text text-anchor="middle" x="891" y="-13" font-family="Helvetica,sans-Serif" font-size="10.00">source/pdes/mpi/poisson.cc</text>
</a>
</g>
</g>
<!-- Node11&#45;&gt;Node12 -->
<g id="edge11" class="edge">
<title>Node11&#45;&gt;Node12</title>
<path fill="none" stroke="midnightblue" d="M1007.25,-68.61C978.53,-55.74 935.18,-36.31 910.33,-25.17"/>
<polygon fill="midnightblue" stroke="midnightblue" points="1006.19,-71.97 1016.75,-72.87 1009.05,-65.58 1006.19,-71.97"/>
</g>
<!-- Node13 -->
<g id="node13" class="node">
<title>Node13</title>
<g id="a_node13"><a xlink:href="apps_2mpi_2poisson_8cc.html" target="_top" xlink:title=" ">
<polygon fill="none" stroke="black" points="985,-6 985,-25 1101,-25 1101,-6 985,-6"/>
<text text-anchor="middle" x="1043" y="-13" font-family="Helvetica,sans-Serif" font-size="10.00">apps/mpi/poisson.cc</text>
</a>
</g>
</g>
<!-- Node11&#45;&gt;Node13 -->
<g id="edge12" class="edge">
<title>Node11&#45;&gt;Node13</title>
<path fill="none" stroke="midnightblue" d="M1038.04,-62.54C1039.37,-50.17 1041.05,-34.62 1042.07,-25.13"/>
<polygon fill="midnightblue" stroke="midnightblue" points="1034.53,-62.42 1036.94,-72.73 1041.49,-63.17 1034.53,-62.42"/>
</g>
<!-- Node15 -->
<g id="node15" class="node">
<title>Node15</title>
<g id="a_node15"><a xlink:href="source_2pdes_2serial_2distributed__lagrange_8cc.html" target="_top" xlink:title=" ">
<polygon fill="none" stroke="black" points="1119,-0.5 1119,-30.5 1253,-30.5 1253,-0.5 1119,-0.5"/>
<text text-anchor="start" x="1127" y="-18.5" font-family="Helvetica,sans-Serif" font-size="10.00">source/pdes/serial</text>
<text text-anchor="middle" x="1186" y="-7.5" font-family="Helvetica,sans-Serif" font-size="10.00">/distributed_lagrange.cc</text>
</a>
</g>
</g>
<!-- Node14&#45;&gt;Node15 -->
<g id="edge14" class="edge">
<title>Node14&#45;&gt;Node15</title>
<path fill="none" stroke="midnightblue" d="M1190.4,-57.4C1189.43,-48.37 1188.36,-38.41 1187.52,-30.58"/>
<polygon fill="midnightblue" stroke="midnightblue" points="1186.93,-57.83 1191.48,-67.4 1193.89,-57.08 1186.93,-57.83"/>
</g>
<!-- Node16 -->
<g id="node16" class="node">
<title>Node16</title>
<g id="a_node16"><a xlink:href="apps_2serial_2distributed__lagrange_8cc.html" target="_top" xlink:title=" ">
<polygon fill="none" stroke="black" points="1271.5,-0.5 1271.5,-30.5 1396.5,-30.5 1396.5,-0.5 1271.5,-0.5"/>
<text text-anchor="start" x="1279.5" y="-18.5" font-family="Helvetica,sans-Serif" font-size="10.00">apps/serial/distributed</text>
<text text-anchor="middle" x="1334" y="-7.5" font-family="Helvetica,sans-Serif" font-size="10.00">_lagrange.cc</text>
</a>
</g>
</g>
<!-- Node14&#45;&gt;Node16 -->
<g id="edge15" class="edge">
<title>Node14&#45;&gt;Node16</title>
<path fill="none" stroke="midnightblue" d="M1232.85,-63.13C1255.25,-52.8 1282.78,-40.11 1303.46,-30.58"/>
<polygon fill="midnightblue" stroke="midnightblue" points="1231.21,-60.03 1223.59,-67.4 1234.14,-66.39 1231.21,-60.03"/>
</g>
<!-- Node18 -->
<g id="node18" class="node">
<title>Node18</title>
<g id="a_node18"><a xlink:href="source_2pdes_2stokes_8cc.html" target="_top" xlink:title=" ">
<polygon fill="none" stroke="black" points="1414.5,-6 1414.5,-25 1537.5,-25 1537.5,-6 1414.5,-6"/>
<text text-anchor="middle" x="1476" y="-13" font-family="Helvetica,sans-Serif" font-size="10.00">source/pdes/stokes.cc</text>
</a>
</g>
</g>
<!-- Node17&#45;&gt;Node18 -->
<g id="edge17" class="edge">
<title>Node17&#45;&gt;Node18</title>
<path fill="none" stroke="midnightblue" d="M1364.56,-68.61C1392.09,-55.74 1433.65,-36.31 1457.47,-25.17"/>
<polygon fill="midnightblue" stroke="midnightblue" points="1363.03,-65.46 1355.46,-72.87 1366,-71.8 1363.03,-65.46"/>
</g>
<!-- Node19 -->
<g id="node19" class="node">
<title>Node19</title>
<g id="a_node19"><a xlink:href="apps_2mpi_2stokes_8cc.html" target="_top" xlink:title=" ">
<polygon fill="none" stroke="black" points="1556,-6 1556,-25 1666,-25 1666,-6 1556,-6"/>
<text text-anchor="middle" x="1611" y="-13" font-family="Helvetica,sans-Serif" font-size="10.00">apps/mpi/stokes.cc</text>
</a>
</g>
</g>
<!-- Node17&#45;&gt;Node19 -->
<g id="edge18" class="edge">
<title>Node17&#45;&gt;Node19</title>
<path fill="none" stroke="midnightblue" d="M1383.1,-70.56C1437.12,-57.75 1525.49,-36.78 1574.82,-25.08"/>
<polygon fill="midnightblue" stroke="midnightblue" points="1382.02,-67.22 1373.1,-72.94 1383.64,-74.03 1382.02,-67.22"/>
</g>
<!-- Node22 -->
<g id="node22" class="node">
<title>Node22</title>
<g id="a_node22"><a xlink:href="source_2pdes_2serial_2poisson_8cc.html" target="_top" xlink:title=" ">
<polygon fill="none" stroke="black" points="1540.5,-67.5 1540.5,-97.5 1645.5,-97.5 1645.5,-67.5 1540.5,-67.5"/>
<text text-anchor="start" x="1548.5" y="-85.5" font-family="Helvetica,sans-Serif" font-size="10.00">source/pdes/serial</text>
<text text-anchor="middle" x="1593" y="-74.5" font-family="Helvetica,sans-Serif" font-size="10.00">/poisson.cc</text>
</a>
</g>
</g>
<!-- Node21&#45;&gt;Node22 -->
<g id="edge21" class="edge">
<title>Node21&#45;&gt;Node22</title>
<path fill="none" stroke="midnightblue" d="M1688.13,-129.99C1667.05,-119.69 1641.22,-107.07 1621.8,-97.58"/>
<polygon fill="midnightblue" stroke="midnightblue" points="1686.62,-133.15 1697.14,-134.4 1689.69,-126.86 1686.62,-133.15"/>
</g>
<!-- Node23 -->
<g id="node23" class="node">
<title>Node23</title>
<g id="a_node23"><a xlink:href="apps_2serial_2poisson_8cc.html" target="_top" xlink:title=" ">
<polygon fill="none" stroke="black" points="1664,-73 1664,-92 1788,-92 1788,-73 1664,-73"/>
<text text-anchor="middle" x="1726" y="-80" font-family="Helvetica,sans-Serif" font-size="10.00">apps/serial/poisson.cc</text>
</a>
</g>
</g>
<!-- Node21&#45;&gt;Node23 -->
<g id="edge22" class="edge">
<title>Node21&#45;&gt;Node23</title>
<path fill="none" stroke="midnightblue" d="M1726,-124.25C1726,-113.02 1726,-100.38 1726,-92.19"/>
<polygon fill="midnightblue" stroke="midnightblue" points="1722.5,-124.4 1726,-134.4 1729.5,-124.4 1722.5,-124.4"/>
</g>
<!-- Node25 -->
<g id="node25" class="node">
<title>Node25</title>
<g id="a_node25"><a xlink:href="source_2pdes_2serial_2poisson__nitsche__interface_8cc.html" target="_top" xlink:title=" ">
<polygon fill="none" stroke="black" points="1806,-67.5 1806,-97.5 1966,-97.5 1966,-67.5 1806,-67.5"/>
<text text-anchor="start" x="1814" y="-85.5" font-family="Helvetica,sans-Serif" font-size="10.00">source/pdes/serial</text>
<text text-anchor="middle" x="1886" y="-74.5" font-family="Helvetica,sans-Serif" font-size="10.00">/poisson_nitsche_interface.cc</text>
</a>
</g>
</g>
<!-- Node24&#45;&gt;Node25 -->
<g id="edge24" class="edge">
<title>Node24&#45;&gt;Node25</title>
<path fill="none" stroke="midnightblue" d="M1886,-124.11C1886,-115.15 1886,-105.32 1886,-97.58"/>
<polygon fill="midnightblue" stroke="midnightblue" points="1882.5,-124.4 1886,-134.4 1889.5,-124.4 1882.5,-124.4"/>
</g>
<!-- Node26 -->
<g id="node26" class="node">
<title>Node26</title>
<g id="a_node26"><a xlink:href="apps_2serial_2poisson__nitsche__interface_8cc.html" target="_top" xlink:title=" ">
<polygon fill="none" stroke="black" points="1984.5,-67.5 1984.5,-97.5 2103.5,-97.5 2103.5,-67.5 1984.5,-67.5"/>
<text text-anchor="start" x="1992.5" y="-85.5" font-family="Helvetica,sans-Serif" font-size="10.00">apps/serial/poisson</text>
<text text-anchor="middle" x="2044" y="-74.5" font-family="Helvetica,sans-Serif" font-size="10.00">_nitsche_interface.cc</text>
</a>
</g>
</g>
<!-- Node24&#45;&gt;Node26 -->
<g id="edge25" class="edge">
<title>Node24&#45;&gt;Node26</title>
<path fill="none" stroke="midnightblue" d="M1929.65,-130.54C1954.93,-120.14 1986.3,-107.24 2009.78,-97.58"/>
<polygon fill="midnightblue" stroke="midnightblue" points="1928.2,-127.35 1920.28,-134.4 1930.86,-133.83 1928.2,-127.35"/>
</g>
<!-- Node28 -->
<g id="node28" class="node">
<title>Node28</title>
<g id="a_node28"><a xlink:href="source_2pdes_2serial_2reduced__lagrange_8cc.html" target="_top" xlink:title=" ">
<polygon fill="none" stroke="black" points="2122,-67.5 2122,-97.5 2242,-97.5 2242,-67.5 2122,-67.5"/>
<text text-anchor="start" x="2130" y="-85.5" font-family="Helvetica,sans-Serif" font-size="10.00">source/pdes/serial</text>
<text text-anchor="middle" x="2182" y="-74.5" font-family="Helvetica,sans-Serif" font-size="10.00">/reduced_lagrange.cc</text>
</a>
</g>
</g>
<!-- Node27&#45;&gt;Node28 -->
<g id="edge27" class="edge">
<title>Node27&#45;&gt;Node28</title>
<path fill="none" stroke="midnightblue" d="M2182,-124.11C2182,-115.15 2182,-105.32 2182,-97.58"/>
<polygon fill="midnightblue" stroke="midnightblue" points="2178.5,-124.4 2182,-134.4 2185.5,-124.4 2178.5,-124.4"/>
</g>
<!-- Node29 -->
<g id="node29" class="node">
<title>Node29</title>
<g id="a_node29"><a xlink:href="apps_2serial_2reduced__lagrange_8cc.html" target="_top" xlink:title=" ">
<polygon fill="none" stroke="black" points="2260,-67.5 2260,-97.5 2372,-97.5 2372,-67.5 2260,-67.5"/>
<text text-anchor="start" x="2268" y="-85.5" font-family="Helvetica,sans-Serif" font-size="10.00">apps/serial/reduced</text>
<text text-anchor="middle" x="2316" y="-74.5" font-family="Helvetica,sans-Serif" font-size="10.00">_lagrange.cc</text>
</a>
</g>
</g>
<!-- Node27&#45;&gt;Node29 -->
<g id="edge28" class="edge">
<title>Node27&#45;&gt;Node29</title>
<path fill="none" stroke="midnightblue" d="M2220.15,-129.99C2241.39,-119.69 2267.41,-107.07 2286.98,-97.58"/>
<polygon fill="midnightblue" stroke="midnightblue" points="2218.55,-126.88 2211.08,-134.4 2221.6,-133.18 2218.55,-126.88"/>
</g>
</g>
</svg>
