<?xml version="1.0" encoding="UTF-8" standalone="no"?>
<!DOCTYPE svg PUBLIC "-//W3C//DTD SVG 1.1//EN"
 "http://www.w3.org/Graphics/SVG/1.1/DTD/svg11.dtd">
<!-- Generated by graphviz version 2.43.0 (0)
 -->
<!-- Title: include/parsed_tools/convergence_table.h Pages: 1 -->
<svg width="342pt" height="285pt"
 viewBox="0.00 0.00 341.53 285.00" xmlns="http://www.w3.org/2000/svg" xmlns:xlink="http://www.w3.org/1999/xlink">
<g id="graph0" class="graph" transform="scale(1 1) rotate(0) translate(4 281)">
<title>include/parsed_tools/convergence_table.h</title>
<!-- Node1 -->
<g id="node1" class="node">
<title>Node1</title>
<g id="a_node1"><a xlink:title=" ">
<polygon fill="#bfbfbf" stroke="black" points="95.03,-246.5 95.03,-276.5 216.03,-276.5 216.03,-246.5 95.03,-246.5"/>
<text text-anchor="start" x="103.03" y="-264.5" font-family="Helvetica,sans-Serif" font-size="10.00">include/parsed_tools</text>
<text text-anchor="middle" x="155.53" y="-253.5" font-family="Helvetica,sans-Serif" font-size="10.00">/convergence_table.h</text>
</a>
</g>
</g>
<!-- Node2 -->
<g id="node2" class="node">
<title>Node2</title>
<g id="a_node2"><a xlink:href="http://www.dealii.org/developer/doxygen/deal.II/config_8h.html.html" xlink:title=" ">
<polygon fill="none" stroke="black" points="15.03,-129 15.03,-148 130.03,-148 130.03,-129 15.03,-129"/>
<text text-anchor="middle" x="72.53" y="-136" font-family="Helvetica,sans-Serif" font-size="10.00">deal.II/base/config.h</text>
</a>
</g>
</g>
<!-- Node1&#45;&gt;Node2 -->
<g id="edge1" class="edge">
<title>Node1&#45;&gt;Node2</title>
<path fill="none" stroke="midnightblue" d="M127.79,-246.3C113.64,-237.67 97.38,-225.34 87.53,-210 77.5,-194.39 74.06,-173.23 72.93,-158.17"/>
<polygon fill="midnightblue" stroke="midnightblue" points="76.42,-157.86 72.46,-148.04 69.43,-158.19 76.42,-157.86"/>
</g>
<!-- Node3 -->
<g id="node3" class="node">
<title>Node3</title>
<g id="a_node3"><a xlink:href="http://www.dealii.org/developer/doxygen/deal.II/parameter__acceptor_8h.html.html" xlink:title=" ">
<polygon fill="none" stroke="black" points="72.03,-0.5 72.03,-30.5 199.03,-30.5 199.03,-0.5 72.03,-0.5"/>
<text text-anchor="start" x="80.03" y="-18.5" font-family="Helvetica,sans-Serif" font-size="10.00">deal.II/base/parameter</text>
<text text-anchor="middle" x="135.53" y="-7.5" font-family="Helvetica,sans-Serif" font-size="10.00">_acceptor.h</text>
</a>
</g>
</g>
<!-- Node1&#45;&gt;Node3 -->
<g id="edge2" class="edge">
<title>Node1&#45;&gt;Node3</title>
<path fill="none" stroke="midnightblue" d="M117.75,-246.38C81.05,-230.33 27.73,-200.2 5.53,-154 -18.82,-103.34 47.44,-58.98 94.08,-35.12"/>
<polygon fill="midnightblue" stroke="midnightblue" points="95.71,-38.22 103.11,-30.63 92.6,-31.95 95.71,-38.22"/>
</g>
<!-- Node4 -->
<g id="node4" class="node">
<title>Node4</title>
<g id="a_node4"><a xlink:href="http://www.dealii.org/developer/doxygen/deal.II/parsed__convergence__table_8h.html.html" xlink:title=" ">
<polygon fill="none" stroke="black" points="190.03,-123.5 190.03,-153.5 313.03,-153.5 313.03,-123.5 190.03,-123.5"/>
<text text-anchor="start" x="198.03" y="-141.5" font-family="Helvetica,sans-Serif" font-size="10.00">deal.II/base/parsed</text>
<text text-anchor="middle" x="251.53" y="-130.5" font-family="Helvetica,sans-Serif" font-size="10.00">_convergence_table.h</text>
</a>
</g>
</g>
<!-- Node1&#45;&gt;Node4 -->
<g id="edge3" class="edge">
<title>Node1&#45;&gt;Node4</title>
<path fill="none" stroke="midnightblue" d="M173.05,-246.44C186.06,-237.55 203.06,-224.93 214.53,-210 225.22,-196.08 232.36,-177.55 238.03,-162.98"/>
<polygon fill="midnightblue" stroke="midnightblue" points="241.3,-164.22 241.74,-153.63 234.8,-161.64 241.3,-164.22"/>
</g>
<!-- Node7 -->
<g id="node7" class="node">
<title>Node7</title>
<g id="a_node7"><a xlink:href="proxy_8h.html" target="_top" xlink:title=" ">
<polygon fill="none" stroke="black" points="97.03,-190.5 97.03,-209.5 214.03,-209.5 214.03,-190.5 97.03,-190.5"/>
<text text-anchor="middle" x="155.53" y="-197.5" font-family="Helvetica,sans-Serif" font-size="10.00">parsed_tools/proxy.h</text>
</a>
</g>
</g>
<!-- Node1&#45;&gt;Node7 -->
<g id="edge8" class="edge">
<title>Node1&#45;&gt;Node7</title>
<path fill="none" stroke="midnightblue" d="M155.53,-246.4C155.53,-238.47 155.53,-228.46 155.53,-219.86"/>
<polygon fill="midnightblue" stroke="midnightblue" points="159.03,-219.66 155.53,-209.66 152.03,-219.66 159.03,-219.66"/>
</g>
<!-- Node4&#45;&gt;Node1 -->
<g id="edge4" class="edge">
<title>Node4&#45;&gt;Node1</title>
<path fill="none" stroke="midnightblue" d="M255.01,-153.63C253.47,-168.76 245.68,-192.87 232.53,-210 223.21,-222.13 210.24,-232.74 197.52,-241.06"/>
<polygon fill="midnightblue" stroke="midnightblue" points="195.47,-238.21 188.8,-246.44 199.15,-244.17 195.47,-238.21"/>
</g>
<!-- Node5 -->
<g id="node5" class="node">
<title>Node5</title>
<g id="a_node5"><a xlink:href="function_8h.html" target="_top" xlink:title=" ">
<polygon fill="none" stroke="black" points="189.03,-67.5 189.03,-86.5 314.03,-86.5 314.03,-67.5 189.03,-67.5"/>
<text text-anchor="middle" x="251.53" y="-74.5" font-family="Helvetica,sans-Serif" font-size="10.00">deal.II/base/function.h</text>
</a>
</g>
</g>
<!-- Node4&#45;&gt;Node5 -->
<g id="edge5" class="edge">
<title>Node4&#45;&gt;Node5</title>
<path fill="none" stroke="midnightblue" d="M251.53,-123.4C251.53,-115.47 251.53,-105.46 251.53,-96.86"/>
<polygon fill="midnightblue" stroke="midnightblue" points="255.03,-96.66 251.53,-86.66 248.03,-96.66 255.03,-96.66"/>
</g>
<!-- Node5&#45;&gt;Node3 -->
<g id="edge7" class="edge">
<title>Node5&#45;&gt;Node3</title>
<path fill="none" stroke="midnightblue" d="M234.91,-67.48C218.53,-59.08 192.99,-45.97 171.89,-35.15"/>
<polygon fill="midnightblue" stroke="midnightblue" points="173.36,-31.97 162.86,-30.52 170.16,-38.2 173.36,-31.97"/>
</g>
<!-- Node6 -->
<g id="node6" class="node">
<title>Node6</title>
<g id="a_node6"><a xlink:href="http://www.dealii.org/developer/doxygen/deal.II/function__parser_8h.html.html" xlink:title=" ">
<polygon fill="none" stroke="black" points="217.53,-0.5 217.53,-30.5 333.53,-30.5 333.53,-0.5 217.53,-0.5"/>
<text text-anchor="start" x="225.53" y="-18.5" font-family="Helvetica,sans-Serif" font-size="10.00">deal.II/base/function</text>
<text text-anchor="middle" x="275.53" y="-7.5" font-family="Helvetica,sans-Serif" font-size="10.00">_parser.h</text>
</a>
</g>
</g>
<!-- Node5&#45;&gt;Node6 -->
<g id="edge6" class="edge">
<title>Node5&#45;&gt;Node6</title>
<path fill="none" stroke="midnightblue" d="M254.96,-67.48C257.85,-60.32 262.11,-49.75 266.01,-40.08"/>
<polygon fill="midnightblue" stroke="midnightblue" points="269.37,-41.11 269.87,-30.52 262.88,-38.49 269.37,-41.11"/>
</g>
<!-- Node7&#45;&gt;Node2 -->
<g id="edge9" class="edge">
<title>Node7&#45;&gt;Node2</title>
<path fill="none" stroke="midnightblue" d="M143.63,-190.48C130.32,-180.93 108.53,-165.31 92.57,-153.87"/>
<polygon fill="midnightblue" stroke="midnightblue" points="94.56,-150.99 84.4,-148.01 90.48,-156.68 94.56,-150.99"/>
</g>
<!-- Node7&#45;&gt;Node3 -->
<g id="edge10" class="edge">
<title>Node7&#45;&gt;Node3</title>
<path fill="none" stroke="midnightblue" d="M154.56,-190.2C151.62,-163.33 142.68,-81.74 138.17,-40.67"/>
<polygon fill="midnightblue" stroke="midnightblue" points="141.65,-40.25 137.08,-30.69 134.69,-41.02 141.65,-40.25"/>
</g>
<!-- Node7&#45;&gt;Node4 -->
<g id="edge11" class="edge">
<title>Node7&#45;&gt;Node4</title>
<path fill="none" stroke="midnightblue" d="M169.28,-190.48C182.52,-182.27 203.03,-169.56 220.25,-158.88"/>
<polygon fill="midnightblue" stroke="midnightblue" points="222.24,-161.77 228.9,-153.52 218.56,-155.82 222.24,-161.77"/>
</g>
</g>
</svg>
