<?xml version="1.0" encoding="UTF-8" standalone="no"?>
<!DOCTYPE svg PUBLIC "-//W3C//DTD SVG 1.1//EN"
 "http://www.w3.org/Graphics/SVG/1.1/DTD/svg11.dtd">
<!-- Generated by graphviz version 2.43.0 (0)
 -->
<!-- Title: include/parsed_tools/convergence_table.h Pages: 1 -->
<svg width="1158pt" height="240pt"
 viewBox="0.00 0.00 1158.00 240.00" xmlns="http://www.w3.org/2000/svg" xmlns:xlink="http://www.w3.org/1999/xlink">
<g id="graph0" class="graph" transform="scale(1 1) rotate(0) translate(4 236)">
<title>include/parsed_tools/convergence_table.h</title>
<!-- Node1 -->
<g id="node1" class="node">
<title>Node1</title>
<g id="a_node1"><a xlink:title=" ">
<polygon fill="#bfbfbf" stroke="black" points="666.5,-201.5 666.5,-231.5 787.5,-231.5 787.5,-201.5 666.5,-201.5"/>
<text text-anchor="start" x="674.5" y="-219.5" font-family="Helvetica,sans-Serif" font-size="10.00">include/parsed_tools</text>
<text text-anchor="middle" x="727" y="-208.5" font-family="Helvetica,sans-Serif" font-size="10.00">/convergence_table.h</text>
</a>
</g>
</g>
<!-- Node2 -->
<g id="node2" class="node">
<title>Node2</title>
<g id="a_node2"><a xlink:href="linear__problem_8h.html" target="_top" xlink:title=" ">
<polygon fill="none" stroke="black" points="446.5,-134.5 446.5,-164.5 577.5,-164.5 577.5,-134.5 446.5,-134.5"/>
<text text-anchor="start" x="454.5" y="-152.5" font-family="Helvetica,sans-Serif" font-size="10.00">include/pdes/mpi/linear</text>
<text text-anchor="middle" x="512" y="-141.5" font-family="Helvetica,sans-Serif" font-size="10.00">_problem.h</text>
</a>
</g>
</g>
<!-- Node1&#45;&gt;Node2 -->
<g id="edge1" class="edge">
<title>Node1&#45;&gt;Node2</title>
<path fill="none" stroke="midnightblue" d="M671.03,-198.58C636.11,-188.02 591.69,-174.59 558.67,-164.61"/>
<polygon fill="midnightblue" stroke="midnightblue" points="670.03,-201.93 680.61,-201.48 672.05,-195.23 670.03,-201.93"/>
</g>
<!-- Node10 -->
<g id="node10" class="node">
<title>Node10</title>
<g id="a_node10"><a xlink:href="serial_2poisson_8h.html" target="_top" xlink:title=" ">
<polygon fill="none" stroke="black" points="673,-134.5 673,-164.5 781,-164.5 781,-134.5 673,-134.5"/>
<text text-anchor="start" x="681" y="-152.5" font-family="Helvetica,sans-Serif" font-size="10.00">include/pdes/serial</text>
<text text-anchor="middle" x="727" y="-141.5" font-family="Helvetica,sans-Serif" font-size="10.00">/poisson.h</text>
</a>
</g>
</g>
<!-- Node1&#45;&gt;Node10 -->
<g id="edge9" class="edge">
<title>Node1&#45;&gt;Node10</title>
<path fill="none" stroke="midnightblue" d="M727,-191.11C727,-182.15 727,-172.32 727,-164.58"/>
<polygon fill="midnightblue" stroke="midnightblue" points="723.5,-191.4 727,-201.4 730.5,-191.4 723.5,-191.4"/>
</g>
<!-- Node13 -->
<g id="node13" class="node">
<title>Node13</title>
<g id="a_node13"><a xlink:href="reduced__lagrange_8h.html" target="_top" xlink:title=" ">
<polygon fill="none" stroke="black" points="902,-134.5 902,-164.5 1018,-164.5 1018,-134.5 902,-134.5"/>
<text text-anchor="start" x="910" y="-152.5" font-family="Helvetica,sans-Serif" font-size="10.00">include/pdes/serial</text>
<text text-anchor="middle" x="960" y="-141.5" font-family="Helvetica,sans-Serif" font-size="10.00">/reduced_lagrange.h</text>
</a>
</g>
</g>
<!-- Node1&#45;&gt;Node13 -->
<g id="edge12" class="edge">
<title>Node1&#45;&gt;Node13</title>
<path fill="none" stroke="midnightblue" d="M787.17,-198.71C825.08,-188.14 873.49,-174.63 909.42,-164.61"/>
<polygon fill="midnightblue" stroke="midnightblue" points="785.96,-195.42 777.27,-201.48 787.84,-202.16 785.96,-195.42"/>
</g>
<!-- Node3 -->
<g id="node3" class="node">
<title>Node3</title>
<g id="a_node3"><a xlink:href="mpi_2linear__elasticity_8h.html" target="_top" xlink:title=" ">
<polygon fill="none" stroke="black" points="158.5,-67.5 158.5,-97.5 289.5,-97.5 289.5,-67.5 158.5,-67.5"/>
<text text-anchor="start" x="166.5" y="-85.5" font-family="Helvetica,sans-Serif" font-size="10.00">include/pdes/mpi/linear</text>
<text text-anchor="middle" x="224" y="-74.5" font-family="Helvetica,sans-Serif" font-size="10.00">_elasticity.h</text>
</a>
</g>
</g>
<!-- Node2&#45;&gt;Node3 -->
<g id="edge2" class="edge">
<title>Node2&#45;&gt;Node3</title>
<path fill="none" stroke="midnightblue" d="M440.01,-132.25C392.8,-121.6 331.69,-107.81 286.52,-97.61"/>
<polygon fill="midnightblue" stroke="midnightblue" points="439.34,-135.69 449.86,-134.48 440.88,-128.86 439.34,-135.69"/>
</g>
<!-- Node6 -->
<g id="node6" class="node">
<title>Node6</title>
<g id="a_node6"><a xlink:href="mpi_2poisson_8h.html" target="_top" xlink:title=" ">
<polygon fill="none" stroke="black" points="320.5,-73 320.5,-92 469.5,-92 469.5,-73 320.5,-73"/>
<text text-anchor="middle" x="395" y="-80" font-family="Helvetica,sans-Serif" font-size="10.00">include/pdes/mpi/poisson.h</text>
</a>
</g>
</g>
<!-- Node2&#45;&gt;Node6 -->
<g id="edge5" class="edge">
<title>Node2&#45;&gt;Node6</title>
<path fill="none" stroke="midnightblue" d="M477.75,-129.47C455.42,-117.06 427.35,-101.47 410.31,-92.01"/>
<polygon fill="midnightblue" stroke="midnightblue" points="476.17,-132.6 486.61,-134.4 479.57,-126.48 476.17,-132.6"/>
</g>
<!-- Node9 -->
<g id="node9" class="node">
<title>Node9</title>
<g id="a_node9"><a xlink:href="linear__problem_8cc.html" target="_top" xlink:title=" ">
<polygon fill="none" stroke="black" points="488,-67.5 488,-97.5 616,-97.5 616,-67.5 488,-67.5"/>
<text text-anchor="start" x="496" y="-85.5" font-family="Helvetica,sans-Serif" font-size="10.00">source/pdes/mpi/linear</text>
<text text-anchor="middle" x="552" y="-74.5" font-family="Helvetica,sans-Serif" font-size="10.00">_problem.cc</text>
</a>
</g>
</g>
<!-- Node2&#45;&gt;Node9 -->
<g id="edge8" class="edge">
<title>Node2&#45;&gt;Node9</title>
<path fill="none" stroke="midnightblue" d="M525.93,-125.87C531.72,-116.46 538.26,-105.83 543.34,-97.58"/>
<polygon fill="midnightblue" stroke="midnightblue" points="522.94,-124.05 520.68,-134.4 528.9,-127.71 522.94,-124.05"/>
</g>
<!-- Node4 -->
<g id="node4" class="node">
<title>Node4</title>
<g id="a_node4"><a xlink:href="source_2pdes_2mpi_2linear__elasticity_8cc.html" target="_top" xlink:title=" ">
<polygon fill="none" stroke="black" points="0,-0.5 0,-30.5 128,-30.5 128,-0.5 0,-0.5"/>
<text text-anchor="start" x="8" y="-18.5" font-family="Helvetica,sans-Serif" font-size="10.00">source/pdes/mpi/linear</text>
<text text-anchor="middle" x="64" y="-7.5" font-family="Helvetica,sans-Serif" font-size="10.00">_elasticity.cc</text>
</a>
</g>
</g>
<!-- Node3&#45;&gt;Node4 -->
<g id="edge3" class="edge">
<title>Node3&#45;&gt;Node4</title>
<path fill="none" stroke="midnightblue" d="M179.8,-63.54C154.2,-53.14 122.43,-40.24 98.65,-30.58"/>
<polygon fill="midnightblue" stroke="midnightblue" points="178.7,-66.87 189.28,-67.4 181.34,-60.39 178.7,-66.87"/>
</g>
<!-- Node5 -->
<g id="node5" class="node">
<title>Node5</title>
<g id="a_node5"><a xlink:href="apps_2mpi_2linear__elasticity_8cc.html" target="_top" xlink:title=" ">
<polygon fill="none" stroke="black" points="146.5,-6 146.5,-25 301.5,-25 301.5,-6 146.5,-6"/>
<text text-anchor="middle" x="224" y="-13" font-family="Helvetica,sans-Serif" font-size="10.00">apps/mpi/linear_elasticity.cc</text>
</a>
</g>
</g>
<!-- Node3&#45;&gt;Node5 -->
<g id="edge4" class="edge">
<title>Node3&#45;&gt;Node5</title>
<path fill="none" stroke="midnightblue" d="M224,-57.25C224,-46.02 224,-33.38 224,-25.19"/>
<polygon fill="midnightblue" stroke="midnightblue" points="220.5,-57.4 224,-67.4 227.5,-57.4 220.5,-57.4"/>
</g>
<!-- Node7 -->
<g id="node7" class="node">
<title>Node7</title>
<g id="a_node7"><a xlink:href="source_2pdes_2mpi_2poisson_8cc.html" target="_top" xlink:title=" ">
<polygon fill="none" stroke="black" points="319.5,-6 319.5,-25 470.5,-25 470.5,-6 319.5,-6"/>
<text text-anchor="middle" x="395" y="-13" font-family="Helvetica,sans-Serif" font-size="10.00">source/pdes/mpi/poisson.cc</text>
</a>
</g>
</g>
<!-- Node6&#45;&gt;Node7 -->
<g id="edge6" class="edge">
<title>Node6&#45;&gt;Node7</title>
<path fill="none" stroke="midnightblue" d="M395,-62.54C395,-50.17 395,-34.62 395,-25.13"/>
<polygon fill="midnightblue" stroke="midnightblue" points="391.5,-62.73 395,-72.73 398.5,-62.73 391.5,-62.73"/>
</g>
<!-- Node8 -->
<g id="node8" class="node">
<title>Node8</title>
<g id="a_node8"><a xlink:href="apps_2mpi_2poisson_8cc.html" target="_top" xlink:title=" ">
<polygon fill="none" stroke="black" points="489,-6 489,-25 605,-25 605,-6 489,-6"/>
<text text-anchor="middle" x="547" y="-13" font-family="Helvetica,sans-Serif" font-size="10.00">apps/mpi/poisson.cc</text>
</a>
</g>
</g>
<!-- Node6&#45;&gt;Node8 -->
<g id="edge7" class="edge">
<title>Node6&#45;&gt;Node8</title>
<path fill="none" stroke="midnightblue" d="M424.74,-68.78C454.84,-55.91 500.57,-36.35 526.73,-25.17"/>
<polygon fill="midnightblue" stroke="midnightblue" points="423,-65.72 415.18,-72.87 425.76,-72.15 423,-65.72"/>
</g>
<!-- Node11 -->
<g id="node11" class="node">
<title>Node11</title>
<g id="a_node11"><a xlink:href="source_2pdes_2serial_2poisson_8cc.html" target="_top" xlink:title=" ">
<polygon fill="none" stroke="black" points="634.5,-67.5 634.5,-97.5 739.5,-97.5 739.5,-67.5 634.5,-67.5"/>
<text text-anchor="start" x="642.5" y="-85.5" font-family="Helvetica,sans-Serif" font-size="10.00">source/pdes/serial</text>
<text text-anchor="middle" x="687" y="-74.5" font-family="Helvetica,sans-Serif" font-size="10.00">/poisson.cc</text>
</a>
</g>
</g>
<!-- Node10&#45;&gt;Node11 -->
<g id="edge10" class="edge">
<title>Node10&#45;&gt;Node11</title>
<path fill="none" stroke="midnightblue" d="M713.07,-125.87C707.28,-116.46 700.74,-105.83 695.66,-97.58"/>
<polygon fill="midnightblue" stroke="midnightblue" points="710.1,-127.71 718.32,-134.4 716.06,-124.05 710.1,-127.71"/>
</g>
<!-- Node12 -->
<g id="node12" class="node">
<title>Node12</title>
<g id="a_node12"><a xlink:href="apps_2serial_2poisson_8cc.html" target="_top" xlink:title=" ">
<polygon fill="none" stroke="black" points="758,-73 758,-92 882,-92 882,-73 758,-73"/>
<text text-anchor="middle" x="820" y="-80" font-family="Helvetica,sans-Serif" font-size="10.00">apps/serial/poisson.cc</text>
</a>
</g>
</g>
<!-- Node10&#45;&gt;Node12 -->
<g id="edge11" class="edge">
<title>Node10&#45;&gt;Node12</title>
<path fill="none" stroke="midnightblue" d="M755.41,-128.64C772.96,-116.37 794.59,-101.26 807.83,-92.01"/>
<polygon fill="midnightblue" stroke="midnightblue" points="753.37,-125.8 747.18,-134.4 757.38,-131.54 753.37,-125.8"/>
</g>
<!-- Node14 -->
<g id="node14" class="node">
<title>Node14</title>
<g id="a_node14"><a xlink:href="source_2pdes_2serial_2reduced__lagrange_8cc.html" target="_top" xlink:title=" ">
<polygon fill="none" stroke="black" points="900,-67.5 900,-97.5 1020,-97.5 1020,-67.5 900,-67.5"/>
<text text-anchor="start" x="908" y="-85.5" font-family="Helvetica,sans-Serif" font-size="10.00">source/pdes/serial</text>
<text text-anchor="middle" x="960" y="-74.5" font-family="Helvetica,sans-Serif" font-size="10.00">/reduced_lagrange.cc</text>
</a>
</g>
</g>
<!-- Node13&#45;&gt;Node14 -->
<g id="edge13" class="edge">
<title>Node13&#45;&gt;Node14</title>
<path fill="none" stroke="midnightblue" d="M960,-124.11C960,-115.15 960,-105.32 960,-97.58"/>
<polygon fill="midnightblue" stroke="midnightblue" points="956.5,-124.4 960,-134.4 963.5,-124.4 956.5,-124.4"/>
</g>
<!-- Node15 -->
<g id="node15" class="node">
<title>Node15</title>
<g id="a_node15"><a xlink:href="apps_2serial_2reduced__lagrange_8cc.html" target="_top" xlink:title=" ">
<polygon fill="none" stroke="black" points="1038,-67.5 1038,-97.5 1150,-97.5 1150,-67.5 1038,-67.5"/>
<text text-anchor="start" x="1046" y="-85.5" font-family="Helvetica,sans-Serif" font-size="10.00">apps/serial/reduced</text>
<text text-anchor="middle" x="1094" y="-74.5" font-family="Helvetica,sans-Serif" font-size="10.00">_lagrange.cc</text>
</a>
</g>
</g>
<!-- Node13&#45;&gt;Node15 -->
<g id="edge14" class="edge">
<title>Node13&#45;&gt;Node15</title>
<path fill="none" stroke="midnightblue" d="M998.15,-129.99C1019.39,-119.69 1045.41,-107.07 1064.98,-97.58"/>
<polygon fill="midnightblue" stroke="midnightblue" points="996.55,-126.88 989.08,-134.4 999.6,-133.18 996.55,-126.88"/>
</g>
</g>
</svg>
