<?xml version="1.0" encoding="UTF-8" standalone="no"?>
<!DOCTYPE svg PUBLIC "-//W3C//DTD SVG 1.1//EN"
 "http://www.w3.org/Graphics/SVG/1.1/DTD/svg11.dtd">
<!-- Generated by graphviz version 2.43.0 (0)
 -->
<!-- Title: include/parsed_tools/convergence_table.h Pages: 1 -->
<svg width="1509pt" height="240pt"
 viewBox="0.00 0.00 1509.00 240.00" xmlns="http://www.w3.org/2000/svg" xmlns:xlink="http://www.w3.org/1999/xlink">
<g id="graph0" class="graph" transform="scale(1 1) rotate(0) translate(4 236)">
<title>include/parsed_tools/convergence_table.h</title>
<!-- Node1 -->
<g id="node1" class="node">
<title>Node1</title>
<g id="a_node1"><a xlink:title=" ">
<polygon fill="#bfbfbf" stroke="black" points="1043.5,-201.5 1043.5,-231.5 1164.5,-231.5 1164.5,-201.5 1043.5,-201.5"/>
<text text-anchor="start" x="1051.5" y="-219.5" font-family="Helvetica,sans-Serif" font-size="10.00">include/parsed_tools</text>
<text text-anchor="middle" x="1104" y="-208.5" font-family="Helvetica,sans-Serif" font-size="10.00">/convergence_table.h</text>
</a>
</g>
</g>
<!-- Node2 -->
<g id="node2" class="node">
<title>Node2</title>
<g id="a_node2"><a xlink:href="linear__problem_8h.html" target="_top" xlink:title=" ">
<polygon fill="none" stroke="black" points="727.5,-134.5 727.5,-164.5 836.5,-164.5 836.5,-134.5 727.5,-134.5"/>
<text text-anchor="start" x="735.5" y="-152.5" font-family="Helvetica,sans-Serif" font-size="10.00">include/pdes/linear</text>
<text text-anchor="middle" x="782" y="-141.5" font-family="Helvetica,sans-Serif" font-size="10.00">_problem.h</text>
</a>
</g>
</g>
<!-- Node1&#45;&gt;Node2 -->
<g id="edge1" class="edge">
<title>Node1&#45;&gt;Node2</title>
<path fill="none" stroke="midnightblue" d="M1033.41,-201.25C974.21,-189.3 890.88,-172.48 836.66,-161.53"/>
<polygon fill="midnightblue" stroke="midnightblue" points="1032.94,-204.73 1043.43,-203.27 1034.32,-197.86 1032.94,-204.73"/>
</g>
<!-- Node14 -->
<g id="node14" class="node">
<title>Node14</title>
<g id="a_node14"><a xlink:href="serial_2poisson_8h.html" target="_top" xlink:title=" ">
<polygon fill="none" stroke="black" points="1050,-134.5 1050,-164.5 1158,-164.5 1158,-134.5 1050,-134.5"/>
<text text-anchor="start" x="1058" y="-152.5" font-family="Helvetica,sans-Serif" font-size="10.00">include/pdes/serial</text>
<text text-anchor="middle" x="1104" y="-141.5" font-family="Helvetica,sans-Serif" font-size="10.00">/poisson.h</text>
</a>
</g>
</g>
<!-- Node1&#45;&gt;Node14 -->
<g id="edge13" class="edge">
<title>Node1&#45;&gt;Node14</title>
<path fill="none" stroke="midnightblue" d="M1104,-191.11C1104,-182.15 1104,-172.32 1104,-164.58"/>
<polygon fill="midnightblue" stroke="midnightblue" points="1100.5,-191.4 1104,-201.4 1107.5,-191.4 1100.5,-191.4"/>
</g>
<!-- Node17 -->
<g id="node17" class="node">
<title>Node17</title>
<g id="a_node17"><a xlink:href="reduced__lagrange_8h.html" target="_top" xlink:title=" ">
<polygon fill="none" stroke="black" points="1253,-134.5 1253,-164.5 1369,-164.5 1369,-134.5 1253,-134.5"/>
<text text-anchor="start" x="1261" y="-152.5" font-family="Helvetica,sans-Serif" font-size="10.00">include/pdes/serial</text>
<text text-anchor="middle" x="1311" y="-141.5" font-family="Helvetica,sans-Serif" font-size="10.00">/reduced_lagrange.h</text>
</a>
</g>
</g>
<!-- Node1&#45;&gt;Node17 -->
<g id="edge16" class="edge">
<title>Node1&#45;&gt;Node17</title>
<path fill="none" stroke="midnightblue" d="M1158.32,-198.44C1191.87,-187.91 1234.41,-174.55 1266.06,-164.61"/>
<polygon fill="midnightblue" stroke="midnightblue" points="1157.15,-195.14 1148.66,-201.48 1159.25,-201.82 1157.15,-195.14"/>
</g>
<!-- Node3 -->
<g id="node3" class="node">
<title>Node3</title>
<g id="a_node3"><a xlink:href="linear__elasticity_8h.html" target="_top" xlink:title=" ">
<polygon fill="none" stroke="black" points="220.5,-67.5 220.5,-97.5 329.5,-97.5 329.5,-67.5 220.5,-67.5"/>
<text text-anchor="start" x="228.5" y="-85.5" font-family="Helvetica,sans-Serif" font-size="10.00">include/pdes/linear</text>
<text text-anchor="middle" x="275" y="-74.5" font-family="Helvetica,sans-Serif" font-size="10.00">_elasticity.h</text>
</a>
</g>
</g>
<!-- Node2&#45;&gt;Node3 -->
<g id="edge2" class="edge">
<title>Node2&#45;&gt;Node3</title>
<path fill="none" stroke="midnightblue" d="M717.2,-140.19C616.35,-127.26 423.67,-102.56 329.51,-90.49"/>
<polygon fill="midnightblue" stroke="midnightblue" points="716.9,-143.68 727.26,-141.48 717.79,-136.74 716.9,-143.68"/>
</g>
<!-- Node7 -->
<g id="node7" class="node">
<title>Node7</title>
<g id="a_node7"><a xlink:href="mpi_2poisson_8h.html" target="_top" xlink:title=" ">
<polygon fill="none" stroke="black" points="553.5,-73 553.5,-92 702.5,-92 702.5,-73 553.5,-73"/>
<text text-anchor="middle" x="628" y="-80" font-family="Helvetica,sans-Serif" font-size="10.00">include/pdes/mpi/poisson.h</text>
</a>
</g>
</g>
<!-- Node2&#45;&gt;Node7 -->
<g id="edge6" class="edge">
<title>Node2&#45;&gt;Node7</title>
<path fill="none" stroke="midnightblue" d="M739.26,-130.46C709.5,-117.9 671.18,-101.72 648.16,-92.01"/>
<polygon fill="midnightblue" stroke="midnightblue" points="738.01,-133.73 748.58,-134.4 740.73,-127.28 738.01,-133.73"/>
</g>
<!-- Node10 -->
<g id="node10" class="node">
<title>Node10</title>
<g id="a_node10"><a xlink:href="stokes_8h.html" target="_top" xlink:title=" ">
<polygon fill="none" stroke="black" points="721,-73 721,-92 843,-92 843,-73 721,-73"/>
<text text-anchor="middle" x="782" y="-80" font-family="Helvetica,sans-Serif" font-size="10.00">include/pdes/stokes.h</text>
</a>
</g>
</g>
<!-- Node2&#45;&gt;Node10 -->
<g id="edge9" class="edge">
<title>Node2&#45;&gt;Node10</title>
<path fill="none" stroke="midnightblue" d="M782,-124.25C782,-113.02 782,-100.38 782,-92.19"/>
<polygon fill="midnightblue" stroke="midnightblue" points="778.5,-124.4 782,-134.4 785.5,-124.4 778.5,-124.4"/>
</g>
<!-- Node13 -->
<g id="node13" class="node">
<title>Node13</title>
<g id="a_node13"><a xlink:href="linear__problem_8cc.html" target="_top" xlink:title=" ">
<polygon fill="none" stroke="black" points="861,-67.5 861,-97.5 967,-97.5 967,-67.5 861,-67.5"/>
<text text-anchor="start" x="869" y="-85.5" font-family="Helvetica,sans-Serif" font-size="10.00">source/pdes/linear</text>
<text text-anchor="middle" x="914" y="-74.5" font-family="Helvetica,sans-Serif" font-size="10.00">_problem.cc</text>
</a>
</g>
</g>
<!-- Node2&#45;&gt;Node13 -->
<g id="edge12" class="edge">
<title>Node2&#45;&gt;Node13</title>
<path fill="none" stroke="midnightblue" d="M819.87,-129.85C840.74,-119.58 866.23,-107.03 885.41,-97.58"/>
<polygon fill="midnightblue" stroke="midnightblue" points="818.07,-126.84 810.64,-134.4 821.16,-133.12 818.07,-126.84"/>
</g>
<!-- Node4 -->
<g id="node4" class="node">
<title>Node4</title>
<g id="a_node4"><a xlink:href="source_2pdes_2linear__elasticity_8cc.html" target="_top" xlink:title=" ">
<polygon fill="none" stroke="black" points="0,-0.5 0,-30.5 106,-30.5 106,-0.5 0,-0.5"/>
<text text-anchor="start" x="8" y="-18.5" font-family="Helvetica,sans-Serif" font-size="10.00">source/pdes/linear</text>
<text text-anchor="middle" x="53" y="-7.5" font-family="Helvetica,sans-Serif" font-size="10.00">_elasticity.cc</text>
</a>
</g>
</g>
<!-- Node3&#45;&gt;Node4 -->
<g id="edge3" class="edge">
<title>Node3&#45;&gt;Node4</title>
<path fill="none" stroke="midnightblue" d="M217.21,-64.58C181.15,-54.02 135.28,-40.59 101.19,-30.61"/>
<polygon fill="midnightblue" stroke="midnightblue" points="216.52,-68.02 227.1,-67.48 218.49,-61.31 216.52,-68.02"/>
</g>
<!-- Node5 -->
<g id="node5" class="node">
<title>Node5</title>
<g id="a_node5"><a xlink:href="apps_2mpi_2linear__elasticity_8cc.html" target="_top" xlink:title=" ">
<polygon fill="none" stroke="black" points="124.5,-6 124.5,-25 279.5,-25 279.5,-6 124.5,-6"/>
<text text-anchor="middle" x="202" y="-13" font-family="Helvetica,sans-Serif" font-size="10.00">apps/mpi/linear_elasticity.cc</text>
</a>
</g>
</g>
<!-- Node3&#45;&gt;Node5 -->
<g id="edge4" class="edge">
<title>Node3&#45;&gt;Node5</title>
<path fill="none" stroke="midnightblue" d="M251.61,-60.67C238.13,-48.67 221.9,-34.22 211.76,-25.19"/>
<polygon fill="midnightblue" stroke="midnightblue" points="249.36,-63.36 259.16,-67.4 254.02,-58.13 249.36,-63.36"/>
</g>
<!-- Node6 -->
<g id="node6" class="node">
<title>Node6</title>
<g id="a_node6"><a xlink:href="apps_2serial_2linear__elasticity_8cc.html" target="_top" xlink:title=" ">
<polygon fill="none" stroke="black" points="297.5,-0.5 297.5,-30.5 398.5,-30.5 398.5,-0.5 297.5,-0.5"/>
<text text-anchor="start" x="305.5" y="-18.5" font-family="Helvetica,sans-Serif" font-size="10.00">apps/serial/linear</text>
<text text-anchor="middle" x="348" y="-7.5" font-family="Helvetica,sans-Serif" font-size="10.00">_elasticity.cc</text>
</a>
</g>
</g>
<!-- Node3&#45;&gt;Node6 -->
<g id="edge5" class="edge">
<title>Node3&#45;&gt;Node6</title>
<path fill="none" stroke="midnightblue" d="M298.47,-60.6C309.5,-50.78 322.34,-39.34 332.19,-30.58"/>
<polygon fill="midnightblue" stroke="midnightblue" points="295.98,-58.13 290.84,-67.4 300.64,-63.36 295.98,-58.13"/>
</g>
<!-- Node8 -->
<g id="node8" class="node">
<title>Node8</title>
<g id="a_node8"><a xlink:href="source_2pdes_2mpi_2poisson_8cc.html" target="_top" xlink:title=" ">
<polygon fill="none" stroke="black" points="416.5,-6 416.5,-25 567.5,-25 567.5,-6 416.5,-6"/>
<text text-anchor="middle" x="492" y="-13" font-family="Helvetica,sans-Serif" font-size="10.00">source/pdes/mpi/poisson.cc</text>
</a>
</g>
</g>
<!-- Node7&#45;&gt;Node8 -->
<g id="edge7" class="edge">
<title>Node7&#45;&gt;Node8</title>
<path fill="none" stroke="midnightblue" d="M600.68,-68.44C573.74,-55.57 533.34,-36.26 510.13,-25.17"/>
<polygon fill="midnightblue" stroke="midnightblue" points="599.41,-71.71 609.94,-72.87 602.43,-65.4 599.41,-71.71"/>
</g>
<!-- Node9 -->
<g id="node9" class="node">
<title>Node9</title>
<g id="a_node9"><a xlink:href="apps_2mpi_2poisson_8cc.html" target="_top" xlink:title=" ">
<polygon fill="none" stroke="black" points="586,-6 586,-25 702,-25 702,-6 586,-6"/>
<text text-anchor="middle" x="644" y="-13" font-family="Helvetica,sans-Serif" font-size="10.00">apps/mpi/poisson.cc</text>
</a>
</g>
</g>
<!-- Node7&#45;&gt;Node9 -->
<g id="edge8" class="edge">
<title>Node7&#45;&gt;Node9</title>
<path fill="none" stroke="midnightblue" d="M632.57,-62.91C635.63,-50.49 639.52,-34.72 641.88,-25.13"/>
<polygon fill="midnightblue" stroke="midnightblue" points="629.15,-62.19 630.16,-72.73 635.95,-63.86 629.15,-62.19"/>
</g>
<!-- Node11 -->
<g id="node11" class="node">
<title>Node11</title>
<g id="a_node11"><a xlink:href="source_2pdes_2stokes_8cc.html" target="_top" xlink:title=" ">
<polygon fill="none" stroke="black" points="720.5,-6 720.5,-25 843.5,-25 843.5,-6 720.5,-6"/>
<text text-anchor="middle" x="782" y="-13" font-family="Helvetica,sans-Serif" font-size="10.00">source/pdes/stokes.cc</text>
</a>
</g>
</g>
<!-- Node10&#45;&gt;Node11 -->
<g id="edge10" class="edge">
<title>Node10&#45;&gt;Node11</title>
<path fill="none" stroke="midnightblue" d="M782,-62.54C782,-50.17 782,-34.62 782,-25.13"/>
<polygon fill="midnightblue" stroke="midnightblue" points="778.5,-62.73 782,-72.73 785.5,-62.73 778.5,-62.73"/>
</g>
<!-- Node12 -->
<g id="node12" class="node">
<title>Node12</title>
<g id="a_node12"><a xlink:href="apps_2mpi_2stokes_8cc.html" target="_top" xlink:title=" ">
<polygon fill="none" stroke="black" points="862,-6 862,-25 972,-25 972,-6 862,-6"/>
<text text-anchor="middle" x="917" y="-13" font-family="Helvetica,sans-Serif" font-size="10.00">apps/mpi/stokes.cc</text>
</a>
</g>
</g>
<!-- Node10&#45;&gt;Node12 -->
<g id="edge11" class="edge">
<title>Node10&#45;&gt;Node12</title>
<path fill="none" stroke="midnightblue" d="M809.12,-68.44C835.86,-55.57 875.97,-36.26 899,-25.17"/>
<polygon fill="midnightblue" stroke="midnightblue" points="807.42,-65.38 799.93,-72.87 810.46,-71.68 807.42,-65.38"/>
</g>
<!-- Node15 -->
<g id="node15" class="node">
<title>Node15</title>
<g id="a_node15"><a xlink:href="source_2pdes_2serial_2poisson_8cc.html" target="_top" xlink:title=" ">
<polygon fill="none" stroke="black" points="985.5,-67.5 985.5,-97.5 1090.5,-97.5 1090.5,-67.5 985.5,-67.5"/>
<text text-anchor="start" x="993.5" y="-85.5" font-family="Helvetica,sans-Serif" font-size="10.00">source/pdes/serial</text>
<text text-anchor="middle" x="1038" y="-74.5" font-family="Helvetica,sans-Serif" font-size="10.00">/poisson.cc</text>
</a>
</g>
</g>
<!-- Node14&#45;&gt;Node15 -->
<g id="edge14" class="edge">
<title>Node14&#45;&gt;Node15</title>
<path fill="none" stroke="midnightblue" d="M1082.49,-127.31C1072.59,-117.56 1061.11,-106.26 1052.29,-97.58"/>
<polygon fill="midnightblue" stroke="midnightblue" points="1080.1,-129.87 1089.68,-134.4 1085.01,-124.89 1080.1,-129.87"/>
</g>
<!-- Node16 -->
<g id="node16" class="node">
<title>Node16</title>
<g id="a_node16"><a xlink:href="apps_2serial_2poisson_8cc.html" target="_top" xlink:title=" ">
<polygon fill="none" stroke="black" points="1109,-73 1109,-92 1233,-92 1233,-73 1109,-73"/>
<text text-anchor="middle" x="1171" y="-80" font-family="Helvetica,sans-Serif" font-size="10.00">apps/serial/poisson.cc</text>
</a>
</g>
</g>
<!-- Node14&#45;&gt;Node16 -->
<g id="edge15" class="edge">
<title>Node14&#45;&gt;Node16</title>
<path fill="none" stroke="midnightblue" d="M1125.82,-127.34C1138.12,-115.4 1152.82,-101.14 1162.04,-92.19"/>
<polygon fill="midnightblue" stroke="midnightblue" points="1123.28,-124.92 1118.54,-134.4 1128.15,-129.94 1123.28,-124.92"/>
</g>
<!-- Node18 -->
<g id="node18" class="node">
<title>Node18</title>
<g id="a_node18"><a xlink:href="source_2pdes_2serial_2reduced__lagrange_8cc.html" target="_top" xlink:title=" ">
<polygon fill="none" stroke="black" points="1251,-67.5 1251,-97.5 1371,-97.5 1371,-67.5 1251,-67.5"/>
<text text-anchor="start" x="1259" y="-85.5" font-family="Helvetica,sans-Serif" font-size="10.00">source/pdes/serial</text>
<text text-anchor="middle" x="1311" y="-74.5" font-family="Helvetica,sans-Serif" font-size="10.00">/reduced_lagrange.cc</text>
</a>
</g>
</g>
<!-- Node17&#45;&gt;Node18 -->
<g id="edge17" class="edge">
<title>Node17&#45;&gt;Node18</title>
<path fill="none" stroke="midnightblue" d="M1311,-124.11C1311,-115.15 1311,-105.32 1311,-97.58"/>
<polygon fill="midnightblue" stroke="midnightblue" points="1307.5,-124.4 1311,-134.4 1314.5,-124.4 1307.5,-124.4"/>
</g>
<!-- Node19 -->
<g id="node19" class="node">
<title>Node19</title>
<g id="a_node19"><a xlink:href="apps_2serial_2reduced__lagrange_8cc.html" target="_top" xlink:title=" ">
<polygon fill="none" stroke="black" points="1389,-67.5 1389,-97.5 1501,-97.5 1501,-67.5 1389,-67.5"/>
<text text-anchor="start" x="1397" y="-85.5" font-family="Helvetica,sans-Serif" font-size="10.00">apps/serial/reduced</text>
<text text-anchor="middle" x="1445" y="-74.5" font-family="Helvetica,sans-Serif" font-size="10.00">_lagrange.cc</text>
</a>
</g>
</g>
<!-- Node17&#45;&gt;Node19 -->
<g id="edge18" class="edge">
<title>Node17&#45;&gt;Node19</title>
<path fill="none" stroke="midnightblue" d="M1349.15,-129.99C1370.39,-119.69 1396.41,-107.07 1415.98,-97.58"/>
<polygon fill="midnightblue" stroke="midnightblue" points="1347.55,-126.88 1340.08,-134.4 1350.6,-133.18 1347.55,-126.88"/>
</g>
</g>
</svg>
