<?xml version="1.0" encoding="UTF-8" standalone="no"?>
<!DOCTYPE svg PUBLIC "-//W3C//DTD SVG 1.1//EN"
 "http://www.w3.org/Graphics/SVG/1.1/DTD/svg11.dtd">
<!-- Generated by graphviz version 2.43.0 (0)
 -->
<!-- Title: include/create_nitsche_rhs_with_exact_intersections.h Pages: 1 -->
<svg width="1352pt" height="285pt"
 viewBox="0.00 0.00 1351.50 285.00" xmlns="http://www.w3.org/2000/svg" xmlns:xlink="http://www.w3.org/1999/xlink">
<g id="graph0" class="graph" transform="scale(1 1) rotate(0) translate(4 281)">
<title>include/create_nitsche_rhs_with_exact_intersections.h</title>
<!-- Node1 -->
<g id="node1" class="node">
<title>Node1</title>
<g id="a_node1"><a xlink:title=" ">
<polygon fill="#bfbfbf" stroke="black" points="729.5,-246.5 729.5,-276.5 902.5,-276.5 902.5,-246.5 729.5,-246.5"/>
<text text-anchor="start" x="737.5" y="-264.5" font-family="Helvetica,sans-Serif" font-size="10.00">include/create_nitsche</text>
<text text-anchor="middle" x="816" y="-253.5" font-family="Helvetica,sans-Serif" font-size="10.00">_rhs_with_exact_intersections.h</text>
</a>
</g>
</g>
<!-- Node2 -->
<g id="node2" class="node">
<title>Node2</title>
<g id="a_node2"><a xlink:href="http://www.dealii.org/developer/doxygen/deal.II/config_8h.html.html" xlink:title=" ">
<polygon fill="none" stroke="black" points="46.5,-129 46.5,-148 161.5,-148 161.5,-129 46.5,-129"/>
<text text-anchor="middle" x="104" y="-136" font-family="Helvetica,sans-Serif" font-size="10.00">deal.II/base/config.h</text>
</a>
</g>
</g>
<!-- Node1&#45;&gt;Node2 -->
<g id="edge1" class="edge">
<title>Node1&#45;&gt;Node2</title>
<path fill="none" stroke="midnightblue" d="M729.33,-248.52C660.33,-238.78 561.34,-224.34 475,-210 339.47,-187.49 305.71,-180.98 171,-154 165.09,-152.82 158.9,-151.54 152.77,-150.24"/>
<polygon fill="midnightblue" stroke="midnightblue" points="153.09,-146.73 142.58,-148.06 151.62,-153.57 153.09,-146.73"/>
</g>
<!-- Node3 -->
<g id="node3" class="node">
<title>Node3</title>
<g id="a_node3"><a xlink:href="http://www.dealii.org/developer/doxygen/deal.II/function_8h.html.html" xlink:title=" ">
<polygon fill="none" stroke="black" points="1093.5,-190.5 1093.5,-209.5 1218.5,-209.5 1218.5,-190.5 1093.5,-190.5"/>
<text text-anchor="middle" x="1156" y="-197.5" font-family="Helvetica,sans-Serif" font-size="10.00">deal.II/base/function.h</text>
</a>
</g>
</g>
<!-- Node1&#45;&gt;Node3 -->
<g id="edge2" class="edge">
<title>Node1&#45;&gt;Node3</title>
<path fill="none" stroke="midnightblue" d="M896.14,-246.47C957.88,-235.67 1041.79,-220.99 1097.36,-211.26"/>
<polygon fill="midnightblue" stroke="midnightblue" points="1098.15,-214.68 1107.39,-209.51 1096.94,-207.78 1098.15,-214.68"/>
</g>
<!-- Node4 -->
<g id="node4" class="node">
<title>Node4</title>
<g id="a_node4"><a xlink:href="http://www.dealii.org/developer/doxygen/deal.II/function__lib_8h.html.html" xlink:title=" ">
<polygon fill="none" stroke="black" points="180,-123.5 180,-153.5 296,-153.5 296,-123.5 180,-123.5"/>
<text text-anchor="start" x="188" y="-141.5" font-family="Helvetica,sans-Serif" font-size="10.00">deal.II/base/function</text>
<text text-anchor="middle" x="238" y="-130.5" font-family="Helvetica,sans-Serif" font-size="10.00">_lib.h</text>
</a>
</g>
</g>
<!-- Node1&#45;&gt;Node4 -->
<g id="edge3" class="edge">
<title>Node1&#45;&gt;Node4</title>
<path fill="none" stroke="midnightblue" d="M747.05,-246.46C697.73,-236.38 629.76,-222.45 570,-210 455.26,-186.1 424.33,-179.52 305.92,-154.19"/>
<polygon fill="midnightblue" stroke="midnightblue" points="306.61,-150.76 296.1,-152.09 305.15,-157.61 306.61,-150.76"/>
</g>
<!-- Node8 -->
<g id="node8" class="node">
<title>Node8</title>
<g id="a_node8"><a xlink:href="http://www.dealii.org/developer/doxygen/deal.II/include_2deal_8II_2base_2quadrature_8h.html.html" xlink:title=" ">
<polygon fill="none" stroke="black" points="314,-129 314,-148 452,-148 452,-129 314,-129"/>
<text text-anchor="middle" x="383" y="-136" font-family="Helvetica,sans-Serif" font-size="10.00">deal.II/base/quadrature.h</text>
</a>
</g>
</g>
<!-- Node1&#45;&gt;Node8 -->
<g id="edge7" class="edge">
<title>Node1&#45;&gt;Node8</title>
<path fill="none" stroke="midnightblue" d="M765.48,-246.38C678.69,-222.13 502.97,-173.03 423.57,-150.84"/>
<polygon fill="midnightblue" stroke="midnightblue" points="424.05,-147.34 413.48,-148.02 422.16,-154.08 424.05,-147.34"/>
</g>
<!-- Node9 -->
<g id="node9" class="node">
<title>Node9</title>
<g id="a_node9"><a xlink:href="http://www.dealii.org/developer/doxygen/deal.II/dof__handler_8h.html.html" xlink:title=" ">
<polygon fill="none" stroke="black" points="25,-190.5 25,-209.5 165,-209.5 165,-190.5 25,-190.5"/>
<text text-anchor="middle" x="95" y="-197.5" font-family="Helvetica,sans-Serif" font-size="10.00">deal.II/dofs/dof_handler.h</text>
</a>
</g>
</g>
<!-- Node1&#45;&gt;Node9 -->
<g id="edge8" class="edge">
<title>Node1&#45;&gt;Node9</title>
<path fill="none" stroke="midnightblue" d="M729.39,-253.35C588.49,-241.72 311.67,-218.88 175.1,-207.61"/>
<polygon fill="midnightblue" stroke="midnightblue" points="175.36,-204.12 165.11,-206.79 174.79,-211.1 175.36,-204.12"/>
</g>
<!-- Node10 -->
<g id="node10" class="node">
<title>Node10</title>
<g id="a_node10"><a xlink:href="http://www.dealii.org/developer/doxygen/deal.II/mapping_8h.html.html" xlink:title=" ">
<polygon fill="none" stroke="black" points="470,-129 470,-148 584,-148 584,-129 470,-129"/>
<text text-anchor="middle" x="527" y="-136" font-family="Helvetica,sans-Serif" font-size="10.00">deal.II/fe/mapping.h</text>
</a>
</g>
</g>
<!-- Node1&#45;&gt;Node10 -->
<g id="edge10" class="edge">
<title>Node1&#45;&gt;Node10</title>
<path fill="none" stroke="midnightblue" d="M782.28,-246.38C725.37,-222.56 611.17,-174.74 556.93,-152.03"/>
<polygon fill="midnightblue" stroke="midnightblue" points="558.1,-148.73 547.52,-148.09 555.39,-155.18 558.1,-148.73"/>
</g>
<!-- Node11 -->
<g id="node11" class="node">
<title>Node11</title>
<g id="a_node11"><a xlink:href="http://www.dealii.org/developer/doxygen/deal.II/mapping__q1_8h.html.html" xlink:title=" ">
<polygon fill="none" stroke="black" points="602.5,-129 602.5,-148 733.5,-148 733.5,-129 602.5,-129"/>
<text text-anchor="middle" x="668" y="-136" font-family="Helvetica,sans-Serif" font-size="10.00">deal.II/fe/mapping_q1.h</text>
</a>
</g>
</g>
<!-- Node1&#45;&gt;Node11 -->
<g id="edge11" class="edge">
<title>Node1&#45;&gt;Node11</title>
<path fill="none" stroke="midnightblue" d="M787.41,-246.36C770.21,-237.18 748.36,-224.29 731,-210 711.3,-193.78 692.29,-171.25 680.4,-156.07"/>
<polygon fill="midnightblue" stroke="midnightblue" points="683.13,-153.88 674.27,-148.08 677.58,-158.14 683.13,-153.88"/>
</g>
<!-- Node12 -->
<g id="node12" class="node">
<title>Node12</title>
<g id="a_node12"><a xlink:href="http://www.dealii.org/developer/doxygen/deal.II/grid__tools_8h.html.html" xlink:title=" ">
<polygon fill="none" stroke="black" points="752,-129 752,-148 880,-148 880,-129 752,-129"/>
<text text-anchor="middle" x="816" y="-136" font-family="Helvetica,sans-Serif" font-size="10.00">deal.II/grid/grid_tools.h</text>
</a>
</g>
</g>
<!-- Node1&#45;&gt;Node12 -->
<g id="edge12" class="edge">
<title>Node1&#45;&gt;Node12</title>
<path fill="none" stroke="midnightblue" d="M779.55,-246.46C763.79,-238.35 746.94,-226.44 738,-210 724.5,-185.18 755.83,-164.61 782.72,-152.21"/>
<polygon fill="midnightblue" stroke="midnightblue" points="784.2,-155.39 791.96,-148.18 781.4,-148.97 784.2,-155.39"/>
</g>
<!-- Node13 -->
<g id="node13" class="node">
<title>Node13</title>
<g id="a_node13"><a xlink:href="http://www.dealii.org/developer/doxygen/deal.II/grid__tools__cache_8h.html.html" xlink:title=" ">
<polygon fill="none" stroke="black" points="898.5,-123.5 898.5,-153.5 1017.5,-153.5 1017.5,-123.5 898.5,-123.5"/>
<text text-anchor="start" x="906.5" y="-141.5" font-family="Helvetica,sans-Serif" font-size="10.00">deal.II/grid/grid_tools</text>
<text text-anchor="middle" x="958" y="-130.5" font-family="Helvetica,sans-Serif" font-size="10.00">_cache.h</text>
</a>
</g>
</g>
<!-- Node1&#45;&gt;Node13 -->
<g id="edge13" class="edge">
<title>Node1&#45;&gt;Node13</title>
<path fill="none" stroke="midnightblue" d="M840.66,-246.46C856.33,-237.04 876.66,-223.85 893,-210 910.3,-195.33 927.6,-176.3 940,-161.72"/>
<polygon fill="midnightblue" stroke="midnightblue" points="942.97,-163.62 946.69,-153.7 937.59,-159.13 942.97,-163.62"/>
</g>
<!-- Node14 -->
<g id="node14" class="node">
<title>Node14</title>
<g id="a_node14"><a xlink:href="http://www.dealii.org/developer/doxygen/deal.II/grid_2tria_8h.html.html" xlink:title=" ">
<polygon fill="none" stroke="black" points="1035.5,-129 1035.5,-148 1132.5,-148 1132.5,-129 1035.5,-129"/>
<text text-anchor="middle" x="1084" y="-136" font-family="Helvetica,sans-Serif" font-size="10.00">deal.II/grid/tria.h</text>
</a>
</g>
</g>
<!-- Node1&#45;&gt;Node14 -->
<g id="edge14" class="edge">
<title>Node1&#45;&gt;Node14</title>
<path fill="none" stroke="midnightblue" d="M847.27,-246.38C899.82,-222.65 1005.07,-175.14 1055.62,-152.31"/>
<polygon fill="midnightblue" stroke="midnightblue" points="1057.3,-155.4 1064.97,-148.09 1054.42,-149.02 1057.3,-155.4"/>
</g>
<!-- Node15 -->
<g id="node15" class="node">
<title>Node15</title>
<g id="a_node15"><a xlink:href="http://www.dealii.org/developer/doxygen/deal.II/vector_8h.html.html" xlink:title=" ">
<polygon fill="none" stroke="black" points="1236.5,-190.5 1236.5,-209.5 1343.5,-209.5 1343.5,-190.5 1236.5,-190.5"/>
<text text-anchor="middle" x="1290" y="-197.5" font-family="Helvetica,sans-Serif" font-size="10.00">deal.II/lac/vector.h</text>
</a>
</g>
</g>
<!-- Node1&#45;&gt;Node15 -->
<g id="edge15" class="edge">
<title>Node1&#45;&gt;Node15</title>
<path fill="none" stroke="midnightblue" d="M902.88,-250.42C983.95,-240.88 1108.56,-225.89 1225.99,-210.25"/>
<polygon fill="midnightblue" stroke="midnightblue" points="1226.79,-213.67 1236.24,-208.88 1225.87,-206.73 1226.79,-213.67"/>
</g>
<!-- Node16 -->
<g id="node16" class="node">
<title>Node16</title>
<g id="a_node16"><a xlink:title=" ">
<polygon fill="none" stroke="#bfbfbf" points="1151,-129 1151,-148 1183,-148 1183,-129 1151,-129"/>
<text text-anchor="middle" x="1167" y="-136" font-family="Helvetica,sans-Serif" font-size="10.00">set</text>
</a>
</g>
</g>
<!-- Node1&#45;&gt;Node16 -->
<g id="edge16" class="edge">
<title>Node1&#45;&gt;Node16</title>
<path fill="none" stroke="midnightblue" d="M859.3,-246.47C888.94,-236.68 929.04,-223.09 964,-210 986.03,-201.75 990.75,-197.62 1013,-190 1069.32,-170.72 1087.15,-177.12 1142,-154 1142.85,-153.64 1143.71,-153.26 1144.56,-152.86"/>
<polygon fill="midnightblue" stroke="midnightblue" points="1146.35,-155.88 1153.57,-148.12 1143.09,-149.68 1146.35,-155.88"/>
</g>
<!-- Node17 -->
<g id="node17" class="node">
<title>Node17</title>
<g id="a_node17"><a xlink:title=" ">
<polygon fill="none" stroke="#bfbfbf" points="1201.5,-129 1201.5,-148 1242.5,-148 1242.5,-129 1201.5,-129"/>
<text text-anchor="middle" x="1222" y="-136" font-family="Helvetica,sans-Serif" font-size="10.00">tuple</text>
</a>
</g>
</g>
<!-- Node1&#45;&gt;Node17 -->
<g id="edge17" class="edge">
<title>Node1&#45;&gt;Node17</title>
<path fill="none" stroke="midnightblue" d="M875.97,-246.43C912.96,-237.23 961.15,-224.3 1003,-210 1024.87,-202.53 1029.08,-197.32 1051,-190 1112.34,-169.51 1131.25,-176.18 1192,-154 1193.43,-153.48 1194.88,-152.91 1196.33,-152.32"/>
<polygon fill="midnightblue" stroke="midnightblue" points="1198.06,-155.37 1205.75,-148.08 1195.2,-148.99 1198.06,-155.37"/>
</g>
<!-- Node18 -->
<g id="node18" class="node">
<title>Node18</title>
<g id="a_node18"><a xlink:title=" ">
<polygon fill="none" stroke="#bfbfbf" points="1260.5,-129 1260.5,-148 1307.5,-148 1307.5,-129 1260.5,-129"/>
<text text-anchor="middle" x="1284" y="-136" font-family="Helvetica,sans-Serif" font-size="10.00">vector</text>
</a>
</g>
</g>
<!-- Node1&#45;&gt;Node18 -->
<g id="edge18" class="edge">
<title>Node1&#45;&gt;Node18</title>
<path fill="none" stroke="midnightblue" d="M897.29,-246.45C940.55,-237.93 994.32,-225.66 1041,-210 1061.37,-203.17 1064.61,-196.75 1085,-190 1157.09,-166.15 1179.9,-177.8 1252,-154 1253.87,-153.38 1255.77,-152.69 1257.68,-151.95"/>
<polygon fill="midnightblue" stroke="midnightblue" points="1259.15,-155.13 1267,-148.01 1256.42,-148.68 1259.15,-155.13"/>
</g>
<!-- Node19 -->
<g id="node19" class="node">
<title>Node19</title>
<g id="a_node19"><a xlink:href="compute__intersections_8h.html" target="_top" xlink:title=" ">
<polygon fill="none" stroke="black" points="747.5,-190.5 747.5,-209.5 884.5,-209.5 884.5,-190.5 747.5,-190.5"/>
<text text-anchor="middle" x="816" y="-197.5" font-family="Helvetica,sans-Serif" font-size="10.00">compute_intersections.h</text>
</a>
</g>
</g>
<!-- Node1&#45;&gt;Node19 -->
<g id="edge19" class="edge">
<title>Node1&#45;&gt;Node19</title>
<path fill="none" stroke="midnightblue" d="M816,-246.4C816,-238.47 816,-228.46 816,-219.86"/>
<polygon fill="midnightblue" stroke="midnightblue" points="819.5,-219.66 816,-209.66 812.5,-219.66 819.5,-219.66"/>
</g>
<!-- Node5 -->
<g id="node5" class="node">
<title>Node5</title>
<g id="a_node5"><a xlink:href="function_8h.html" target="_top" xlink:title=" ">
<polygon fill="none" stroke="black" points="65.5,-67.5 65.5,-86.5 190.5,-86.5 190.5,-67.5 65.5,-67.5"/>
<text text-anchor="middle" x="128" y="-74.5" font-family="Helvetica,sans-Serif" font-size="10.00">deal.II/base/function.h</text>
</a>
</g>
</g>
<!-- Node4&#45;&gt;Node5 -->
<g id="edge4" class="edge">
<title>Node4&#45;&gt;Node5</title>
<path fill="none" stroke="midnightblue" d="M211.93,-123.4C194.13,-113.77 170.69,-101.09 153.1,-91.58"/>
<polygon fill="midnightblue" stroke="midnightblue" points="154.47,-88.34 144.01,-86.66 151.14,-94.49 154.47,-88.34"/>
</g>
<!-- Node6 -->
<g id="node6" class="node">
<title>Node6</title>
<g id="a_node6"><a xlink:href="http://www.dealii.org/developer/doxygen/deal.II/function__parser_8h.html.html" xlink:title=" ">
<polygon fill="none" stroke="black" points="0,-0.5 0,-30.5 116,-30.5 116,-0.5 0,-0.5"/>
<text text-anchor="start" x="8" y="-18.5" font-family="Helvetica,sans-Serif" font-size="10.00">deal.II/base/function</text>
<text text-anchor="middle" x="58" y="-7.5" font-family="Helvetica,sans-Serif" font-size="10.00">_parser.h</text>
</a>
</g>
</g>
<!-- Node5&#45;&gt;Node6 -->
<g id="edge5" class="edge">
<title>Node5&#45;&gt;Node6</title>
<path fill="none" stroke="midnightblue" d="M117.97,-67.48C108.67,-59.57 94.45,-47.48 82.2,-37.07"/>
<polygon fill="midnightblue" stroke="midnightblue" points="84.38,-34.33 74.5,-30.52 79.85,-39.67 84.38,-34.33"/>
</g>
<!-- Node7 -->
<g id="node7" class="node">
<title>Node7</title>
<g id="a_node7"><a xlink:href="http://www.dealii.org/developer/doxygen/deal.II/parameter__acceptor_8h.html.html" xlink:title=" ">
<polygon fill="none" stroke="black" points="134.5,-0.5 134.5,-30.5 261.5,-30.5 261.5,-0.5 134.5,-0.5"/>
<text text-anchor="start" x="142.5" y="-18.5" font-family="Helvetica,sans-Serif" font-size="10.00">deal.II/base/parameter</text>
<text text-anchor="middle" x="198" y="-7.5" font-family="Helvetica,sans-Serif" font-size="10.00">_acceptor.h</text>
</a>
</g>
</g>
<!-- Node5&#45;&gt;Node7 -->
<g id="edge6" class="edge">
<title>Node5&#45;&gt;Node7</title>
<path fill="none" stroke="midnightblue" d="M138.03,-67.48C147.33,-59.57 161.55,-47.48 173.8,-37.07"/>
<polygon fill="midnightblue" stroke="midnightblue" points="176.15,-39.67 181.5,-30.52 171.62,-34.33 176.15,-39.67"/>
</g>
<!-- Node9&#45;&gt;Node5 -->
<g id="edge9" class="edge">
<title>Node9&#45;&gt;Node5</title>
<path fill="none" stroke="midnightblue" d="M76.61,-190.47C62.9,-183 45.19,-170.71 37,-154 30.94,-141.63 29.73,-134.7 37,-123 46.72,-107.36 63.66,-96.98 80.32,-90.19"/>
<polygon fill="midnightblue" stroke="midnightblue" points="81.87,-93.35 90.03,-86.59 79.44,-86.78 81.87,-93.35"/>
</g>
<!-- Node19&#45;&gt;Node2 -->
<g id="edge20" class="edge">
<title>Node19&#45;&gt;Node2</title>
<path fill="none" stroke="midnightblue" d="M747.4,-197.44C629.18,-194.04 379.65,-183.7 171,-154 163.79,-152.97 156.2,-151.61 148.82,-150.13"/>
<polygon fill="midnightblue" stroke="midnightblue" points="149.46,-146.68 138.95,-148.06 148.02,-153.54 149.46,-146.68"/>
</g>
<!-- Node19&#45;&gt;Node4 -->
<g id="edge21" class="edge">
<title>Node19&#45;&gt;Node4</title>
<path fill="none" stroke="midnightblue" d="M747.49,-195.7C651.14,-190.45 470.01,-178.37 306.28,-154.07"/>
<polygon fill="midnightblue" stroke="midnightblue" points="306.43,-150.55 296.02,-152.52 305.39,-157.47 306.43,-150.55"/>
</g>
<!-- Node19&#45;&gt;Node8 -->
<g id="edge22" class="edge">
<title>Node19&#45;&gt;Node8</title>
<path fill="none" stroke="midnightblue" d="M747.45,-191.5C675.83,-183.38 560.28,-169.51 461,-154 453.07,-152.76 444.7,-151.33 436.51,-149.87"/>
<polygon fill="midnightblue" stroke="midnightblue" points="437.12,-146.42 426.65,-148.07 435.86,-153.31 437.12,-146.42"/>
</g>
<!-- Node19&#45;&gt;Node10 -->
<g id="edge23" class="edge">
<title>Node19&#45;&gt;Node10</title>
<path fill="none" stroke="midnightblue" d="M772.37,-190.43C727.38,-181.53 655.22,-167.11 593,-154 587.26,-152.79 581.25,-151.5 575.29,-150.21"/>
<polygon fill="midnightblue" stroke="midnightblue" points="575.88,-146.76 565.37,-148.05 574.39,-153.6 575.88,-146.76"/>
</g>
<!-- Node19&#45;&gt;Node11 -->
<g id="edge24" class="edge">
<title>Node19&#45;&gt;Node11</title>
<path fill="none" stroke="midnightblue" d="M794.8,-190.48C769.63,-180.36 727.46,-163.4 698.72,-151.85"/>
<polygon fill="midnightblue" stroke="midnightblue" points="699.75,-148.49 689.17,-148.01 697.14,-154.99 699.75,-148.49"/>
</g>
<!-- Node19&#45;&gt;Node12 -->
<g id="edge25" class="edge">
<title>Node19&#45;&gt;Node12</title>
<path fill="none" stroke="midnightblue" d="M816,-190.48C816,-182.08 816,-168.98 816,-158.16"/>
<polygon fill="midnightblue" stroke="midnightblue" points="819.5,-158.01 816,-148.01 812.5,-158.01 819.5,-158.01"/>
</g>
<!-- Node19&#45;&gt;Node13 -->
<g id="edge26" class="edge">
<title>Node19&#45;&gt;Node13</title>
<path fill="none" stroke="midnightblue" d="M836.35,-190.48C856.84,-181.89 889.07,-168.38 915.21,-157.43"/>
<polygon fill="midnightblue" stroke="midnightblue" points="916.66,-160.62 924.53,-153.52 913.96,-154.16 916.66,-160.62"/>
</g>
<!-- Node19&#45;&gt;Node14 -->
<g id="edge27" class="edge">
<title>Node19&#45;&gt;Node14</title>
<path fill="none" stroke="midnightblue" d="M858.54,-190.43C901.23,-181.72 968.83,-167.6 1027,-154 1031.72,-152.9 1036.66,-151.7 1041.56,-150.49"/>
<polygon fill="midnightblue" stroke="midnightblue" points="1042.65,-153.83 1051.5,-148 1040.95,-147.04 1042.65,-153.83"/>
</g>
<!-- Node19&#45;&gt;Node16 -->
<g id="edge28" class="edge">
<title>Node19&#45;&gt;Node16</title>
<path fill="none" stroke="midnightblue" d="M884.58,-197.21C951.81,-193.69 1056.37,-183.46 1142,-154 1143.07,-153.63 1144.14,-153.22 1145.21,-152.77"/>
<polygon fill="midnightblue" stroke="midnightblue" points="1147.17,-155.7 1154.48,-148.03 1143.99,-149.46 1147.17,-155.7"/>
</g>
<!-- Node19&#45;&gt;Node17 -->
<g id="edge29" class="edge">
<title>Node19&#45;&gt;Node17</title>
<path fill="none" stroke="midnightblue" d="M884.59,-197.56C961.02,-194.41 1087.57,-184.56 1192,-154 1193.87,-153.45 1195.77,-152.8 1197.66,-152.07"/>
<polygon fill="midnightblue" stroke="midnightblue" points="1199.08,-155.27 1206.82,-148.04 1196.26,-148.87 1199.08,-155.27"/>
</g>
<!-- Node19&#45;&gt;Node18 -->
<g id="edge30" class="edge">
<title>Node19&#45;&gt;Node18</title>
<path fill="none" stroke="midnightblue" d="M884.83,-198.69C971.82,-196.76 1125.47,-188.22 1252,-154 1254.15,-153.42 1256.34,-152.71 1258.52,-151.91"/>
<polygon fill="midnightblue" stroke="midnightblue" points="1259.87,-155.14 1267.77,-148.08 1257.19,-148.67 1259.87,-155.14"/>
</g>
</g>
</svg>
