<?xml version="1.0" encoding="UTF-8" standalone="no"?>
<!DOCTYPE svg PUBLIC "-//W3C//DTD SVG 1.1//EN"
 "http://www.w3.org/Graphics/SVG/1.1/DTD/svg11.dtd">
<!-- Generated by graphviz version 2.43.0 (0)
 -->
<!-- Title: include/create_nitsche_rhs_with_exact_intersections.h Pages: 1 -->
<svg width="306pt" height="173pt"
 viewBox="0.00 0.00 305.50 173.00" xmlns="http://www.w3.org/2000/svg" xmlns:xlink="http://www.w3.org/1999/xlink">
<g id="graph0" class="graph" transform="scale(1 1) rotate(0) translate(4 169)">
<title>include/create_nitsche_rhs_with_exact_intersections.h</title>
<!-- Node1 -->
<g id="node1" class="node">
<title>Node1</title>
<g id="a_node1"><a xlink:title=" ">
<polygon fill="#bfbfbf" stroke="black" points="72.5,-134.5 72.5,-164.5 245.5,-164.5 245.5,-134.5 72.5,-134.5"/>
<text text-anchor="start" x="80.5" y="-152.5" font-family="Helvetica,sans-Serif" font-size="10.00">include/create_nitsche</text>
<text text-anchor="middle" x="159" y="-141.5" font-family="Helvetica,sans-Serif" font-size="10.00">_rhs_with_exact_intersections.h</text>
</a>
</g>
</g>
<!-- Node2 -->
<g id="node2" class="node">
<title>Node2</title>
<g id="a_node2"><a xlink:href="poisson__nitsche__interface_8h.html" target="_top" xlink:title=" ">
<polygon fill="none" stroke="black" points="81.5,-67.5 81.5,-97.5 236.5,-97.5 236.5,-67.5 81.5,-67.5"/>
<text text-anchor="start" x="89.5" y="-85.5" font-family="Helvetica,sans-Serif" font-size="10.00">include/pdes/serial</text>
<text text-anchor="middle" x="159" y="-74.5" font-family="Helvetica,sans-Serif" font-size="10.00">/poisson_nitsche_interface.h</text>
</a>
</g>
</g>
<!-- Node1&#45;&gt;Node2 -->
<g id="edge1" class="edge">
<title>Node1&#45;&gt;Node2</title>
<path fill="none" stroke="midnightblue" d="M159,-124.11C159,-115.15 159,-105.32 159,-97.58"/>
<polygon fill="midnightblue" stroke="midnightblue" points="155.5,-124.4 159,-134.4 162.5,-124.4 155.5,-124.4"/>
</g>
<!-- Node3 -->
<g id="node3" class="node">
<title>Node3</title>
<g id="a_node3"><a xlink:href="source_2pdes_2serial_2poisson__nitsche__interface_8cc.html" target="_top" xlink:title=" ">
<polygon fill="none" stroke="black" points="0,-0.5 0,-30.5 160,-30.5 160,-0.5 0,-0.5"/>
<text text-anchor="start" x="8" y="-18.5" font-family="Helvetica,sans-Serif" font-size="10.00">source/pdes/serial</text>
<text text-anchor="middle" x="80" y="-7.5" font-family="Helvetica,sans-Serif" font-size="10.00">/poisson_nitsche_interface.cc</text>
</a>
</g>
</g>
<!-- Node2&#45;&gt;Node3 -->
<g id="edge2" class="edge">
<title>Node2&#45;&gt;Node3</title>
<path fill="none" stroke="midnightblue" d="M133.94,-60.88C121.94,-51.01 107.87,-39.43 97.11,-30.58"/>
<polygon fill="midnightblue" stroke="midnightblue" points="131.91,-63.75 141.86,-67.4 136.36,-58.34 131.91,-63.75"/>
</g>
<!-- Node4 -->
<g id="node4" class="node">
<title>Node4</title>
<g id="a_node4"><a xlink:href="apps_2serial_2poisson__nitsche__interface_8cc.html" target="_top" xlink:title=" ">
<polygon fill="none" stroke="black" points="178.5,-0.5 178.5,-30.5 297.5,-30.5 297.5,-0.5 178.5,-0.5"/>
<text text-anchor="start" x="186.5" y="-18.5" font-family="Helvetica,sans-Serif" font-size="10.00">apps/serial/poisson</text>
<text text-anchor="middle" x="238" y="-7.5" font-family="Helvetica,sans-Serif" font-size="10.00">_nitsche_interface.cc</text>
</a>
</g>
</g>
<!-- Node2&#45;&gt;Node4 -->
<g id="edge3" class="edge">
<title>Node2&#45;&gt;Node4</title>
<path fill="none" stroke="midnightblue" d="M184.06,-60.88C196.06,-51.01 210.13,-39.43 220.89,-30.58"/>
<polygon fill="midnightblue" stroke="midnightblue" points="181.64,-58.34 176.14,-67.4 186.09,-63.75 181.64,-58.34"/>
</g>
</g>
</svg>
