<?xml version="1.0" encoding="UTF-8" standalone="no"?>
<!DOCTYPE svg PUBLIC "-//W3C//DTD SVG 1.1//EN"
 "http://www.w3.org/Graphics/SVG/1.1/DTD/svg11.dtd">
<!-- Generated by graphviz version 2.43.0 (0)
 -->
<!-- Title: include/create_coupling_sparsity_pattern_with_exact_intersections.h Pages: 1 -->
<svg width="2398pt" height="240pt"
 viewBox="0.00 0.00 2397.50 240.00" xmlns="http://www.w3.org/2000/svg" xmlns:xlink="http://www.w3.org/1999/xlink">
<g id="graph0" class="graph" transform="scale(1 1) rotate(0) translate(4 236)">
<title>include/create_coupling_sparsity_pattern_with_exact_intersections.h</title>
<!-- Node1 -->
<g id="node1" class="node">
<title>Node1</title>
<g id="a_node1"><a xlink:title=" ">
<polygon fill="#bfbfbf" stroke="black" points="1146,-190.5 1146,-231.5 1278,-231.5 1278,-190.5 1146,-190.5"/>
<text text-anchor="start" x="1154" y="-219.5" font-family="Helvetica,sans-Serif" font-size="10.00">include/create_coupling</text>
<text text-anchor="start" x="1154" y="-208.5" font-family="Helvetica,sans-Serif" font-size="10.00">_sparsity_pattern_with</text>
<text text-anchor="middle" x="1212" y="-197.5" font-family="Helvetica,sans-Serif" font-size="10.00">_exact_intersections.h</text>
</a>
</g>
</g>
<!-- Node2 -->
<g id="node2" class="node">
<title>Node2</title>
<g id="a_node2"><a target="_parent" xlink:href="http://www.dealii.org/developer/doxygen/deal.II/config_8h.html.html" xlink:title=" ">
<polygon fill="none" stroke="black" points="0,-129 0,-148 114,-148 114,-129 0,-129"/>
<text text-anchor="middle" x="57" y="-136" font-family="Helvetica,sans-Serif" font-size="10.00">deal.II/base/config.h</text>
</a>
</g>
</g>
<!-- Node1&#45;&gt;Node2 -->
<g id="edge1" class="edge">
<title>Node1&#45;&gt;Node2</title>
<path fill="none" stroke="midnightblue" d="M1145.98,-210.38C975.71,-210.55 508.09,-205.84 123,-154 115.73,-153.02 108.07,-151.65 100.64,-150.15"/>
<polygon fill="midnightblue" stroke="midnightblue" points="101.23,-146.7 90.72,-148.03 99.77,-153.54 101.23,-146.7"/>
</g>
<!-- Node3 -->
<g id="node3" class="node">
<title>Node3</title>
<g id="a_node3"><a target="_parent" xlink:href="http://www.dealii.org/developer/doxygen/deal.II/include_2deal_8II_2base_2exceptions_8h.html.html" xlink:title=" ">
<polygon fill="none" stroke="black" points="132,-129 132,-148 270,-148 270,-129 132,-129"/>
<text text-anchor="middle" x="201" y="-136" font-family="Helvetica,sans-Serif" font-size="10.00">deal.II/base/exceptions.h</text>
</a>
</g>
</g>
<!-- Node1&#45;&gt;Node3 -->
<g id="edge2" class="edge">
<title>Node1&#45;&gt;Node3</title>
<path fill="none" stroke="midnightblue" d="M1145.85,-208.84C992.79,-205.55 602.54,-193.63 279,-154 270.16,-152.92 260.81,-151.46 251.77,-149.88"/>
<polygon fill="midnightblue" stroke="midnightblue" points="252.2,-146.4 241.74,-148.06 250.95,-153.29 252.2,-146.4"/>
</g>
<!-- Node4 -->
<g id="node4" class="node">
<title>Node4</title>
<g id="a_node4"><a target="_parent" xlink:href="http://www.dealii.org/developer/doxygen/deal.II/function__lib_8h.html.html" xlink:title=" ">
<polygon fill="none" stroke="black" points="288,-123.5 288,-153.5 404,-153.5 404,-123.5 288,-123.5"/>
<text text-anchor="start" x="296" y="-141.5" font-family="Helvetica,sans-Serif" font-size="10.00">deal.II/base/function</text>
<text text-anchor="middle" x="346" y="-130.5" font-family="Helvetica,sans-Serif" font-size="10.00">_lib.h</text>
</a>
</g>
</g>
<!-- Node1&#45;&gt;Node4 -->
<g id="edge3" class="edge">
<title>Node1&#45;&gt;Node4</title>
<path fill="none" stroke="midnightblue" d="M1145.89,-208.56C1010.34,-204.93 691.09,-192.8 414.26,-154.04"/>
<polygon fill="midnightblue" stroke="midnightblue" points="414.4,-150.52 404.01,-152.59 413.42,-157.45 414.4,-150.52"/>
</g>
<!-- Node8 -->
<g id="node8" class="node">
<title>Node8</title>
<g id="a_node8"><a target="_parent" xlink:href="http://www.dealii.org/developer/doxygen/deal.II/include_2deal_8II_2base_2quadrature_8h.html.html" xlink:title=" ">
<polygon fill="none" stroke="black" points="422,-129 422,-148 560,-148 560,-129 422,-129"/>
<text text-anchor="middle" x="491" y="-136" font-family="Helvetica,sans-Serif" font-size="10.00">deal.II/base/quadrature.h</text>
</a>
</g>
</g>
<!-- Node1&#45;&gt;Node8 -->
<g id="edge7" class="edge">
<title>Node1&#45;&gt;Node8</title>
<path fill="none" stroke="midnightblue" d="M1145.58,-206.34C1028.65,-199.44 778.57,-182.54 569,-154 560.47,-152.84 551.45,-151.38 542.69,-149.84"/>
<polygon fill="midnightblue" stroke="midnightblue" points="543.04,-146.34 532.57,-148 541.79,-153.23 543.04,-146.34"/>
</g>
<!-- Node9 -->
<g id="node9" class="node">
<title>Node9</title>
<g id="a_node9"><a target="_parent" xlink:href="http://www.dealii.org/developer/doxygen/deal.II/shared__tria_8h.html.html" xlink:title=" ">
<polygon fill="none" stroke="black" points="578,-123.5 578,-153.5 680,-153.5 680,-123.5 578,-123.5"/>
<text text-anchor="start" x="586" y="-141.5" font-family="Helvetica,sans-Serif" font-size="10.00">deal.II/distributed</text>
<text text-anchor="middle" x="629" y="-130.5" font-family="Helvetica,sans-Serif" font-size="10.00">/shared_tria.h</text>
</a>
</g>
</g>
<!-- Node1&#45;&gt;Node9 -->
<g id="edge8" class="edge">
<title>Node1&#45;&gt;Node9</title>
<path fill="none" stroke="midnightblue" d="M1145.98,-205.71C1048.34,-198.74 859.63,-182.94 690.39,-154.1"/>
<polygon fill="midnightblue" stroke="midnightblue" points="690.74,-150.61 680.29,-152.36 689.56,-157.51 690.74,-150.61"/>
</g>
<!-- Node10 -->
<g id="node10" class="node">
<title>Node10</title>
<g id="a_node10"><a target="_parent" xlink:href="http://www.dealii.org/developer/doxygen/deal.II/distributed_2tria_8h.html.html" xlink:title=" ">
<polygon fill="none" stroke="black" points="698,-123.5 698,-153.5 800,-153.5 800,-123.5 698,-123.5"/>
<text text-anchor="start" x="706" y="-141.5" font-family="Helvetica,sans-Serif" font-size="10.00">deal.II/distributed</text>
<text text-anchor="middle" x="749" y="-130.5" font-family="Helvetica,sans-Serif" font-size="10.00">/tria.h</text>
</a>
</g>
</g>
<!-- Node1&#45;&gt;Node10 -->
<g id="edge9" class="edge">
<title>Node1&#45;&gt;Node10</title>
<path fill="none" stroke="midnightblue" d="M1145.71,-202.83C1067.68,-193.93 934.08,-177.27 810.34,-154.15"/>
<polygon fill="midnightblue" stroke="midnightblue" points="810.79,-150.67 800.31,-152.25 809.49,-157.55 810.79,-150.67"/>
</g>
<!-- Node11 -->
<g id="node11" class="node">
<title>Node11</title>
<g id="a_node11"><a target="_parent" xlink:href="http://www.dealii.org/developer/doxygen/deal.II/dof__handler_8h.html.html" xlink:title=" ">
<polygon fill="none" stroke="black" points="818,-129 818,-148 958,-148 958,-129 818,-129"/>
<text text-anchor="middle" x="888" y="-136" font-family="Helvetica,sans-Serif" font-size="10.00">deal.II/dofs/dof_handler.h</text>
</a>
</g>
</g>
<!-- Node1&#45;&gt;Node11 -->
<g id="edge10" class="edge">
<title>Node1&#45;&gt;Node11</title>
<path fill="none" stroke="midnightblue" d="M1145.65,-195.56C1083.78,-182.1 992.9,-162.33 937.25,-150.22"/>
<polygon fill="midnightblue" stroke="midnightblue" points="937.8,-146.75 927.28,-148.05 936.31,-153.59 937.8,-146.75"/>
</g>
<!-- Node12 -->
<g id="node12" class="node">
<title>Node12</title>
<g id="a_node12"><a target="_parent" xlink:href="http://www.dealii.org/developer/doxygen/deal.II/component__mask_8h.html.html" xlink:title=" ">
<polygon fill="none" stroke="black" points="976.5,-123.5 976.5,-153.5 1093.5,-153.5 1093.5,-123.5 976.5,-123.5"/>
<text text-anchor="start" x="984.5" y="-141.5" font-family="Helvetica,sans-Serif" font-size="10.00">deal.II/fe/component</text>
<text text-anchor="middle" x="1035" y="-130.5" font-family="Helvetica,sans-Serif" font-size="10.00">_mask.h</text>
</a>
</g>
</g>
<!-- Node1&#45;&gt;Node12 -->
<g id="edge12" class="edge">
<title>Node1&#45;&gt;Node12</title>
<path fill="none" stroke="midnightblue" d="M1162.7,-190.36C1136.66,-179.99 1104.96,-167.37 1079.66,-157.29"/>
<polygon fill="midnightblue" stroke="midnightblue" points="1080.88,-154.01 1070.3,-153.56 1078.29,-160.51 1080.88,-154.01"/>
</g>
<!-- Node13 -->
<g id="node13" class="node">
<title>Node13</title>
<g id="a_node13"><a target="_parent" xlink:href="http://www.dealii.org/developer/doxygen/deal.II/include_2deal_8II_2fe_2fe_8h.html.html" xlink:title=" ">
<polygon fill="none" stroke="black" points="1111.5,-129 1111.5,-148 1192.5,-148 1192.5,-129 1111.5,-129"/>
<text text-anchor="middle" x="1152" y="-136" font-family="Helvetica,sans-Serif" font-size="10.00">deal.II/fe/fe.h</text>
</a>
</g>
</g>
<!-- Node1&#45;&gt;Node13 -->
<g id="edge13" class="edge">
<title>Node1&#45;&gt;Node13</title>
<path fill="none" stroke="midnightblue" d="M1195.29,-190.36C1186.08,-179.54 1174.77,-166.26 1166.03,-155.98"/>
<polygon fill="midnightblue" stroke="midnightblue" points="1168.53,-153.52 1159.38,-148.17 1163.2,-158.06 1168.53,-153.52"/>
</g>
<!-- Node14 -->
<g id="node14" class="node">
<title>Node14</title>
<g id="a_node14"><a target="_parent" xlink:href="http://www.dealii.org/developer/doxygen/deal.II/fe__system_8h.html.html" xlink:title=" ">
<polygon fill="none" stroke="black" points="1211,-129 1211,-148 1333,-148 1333,-129 1211,-129"/>
<text text-anchor="middle" x="1272" y="-136" font-family="Helvetica,sans-Serif" font-size="10.00">deal.II/fe/fe_system.h</text>
</a>
</g>
</g>
<!-- Node1&#45;&gt;Node14 -->
<g id="edge14" class="edge">
<title>Node1&#45;&gt;Node14</title>
<path fill="none" stroke="midnightblue" d="M1228.71,-190.36C1237.92,-179.54 1249.23,-166.26 1257.97,-155.98"/>
<polygon fill="midnightblue" stroke="midnightblue" points="1260.8,-158.06 1264.62,-148.17 1255.47,-153.52 1260.8,-158.06"/>
</g>
<!-- Node15 -->
<g id="node15" class="node">
<title>Node15</title>
<g id="a_node15"><a target="_parent" xlink:href="http://www.dealii.org/developer/doxygen/deal.II/fe_2fe__values_8h.html.html" xlink:title=" ">
<polygon fill="none" stroke="black" points="1351.5,-129 1351.5,-148 1470.5,-148 1470.5,-129 1351.5,-129"/>
<text text-anchor="middle" x="1411" y="-136" font-family="Helvetica,sans-Serif" font-size="10.00">deal.II/fe/fe_values.h</text>
</a>
</g>
</g>
<!-- Node1&#45;&gt;Node15 -->
<g id="edge15" class="edge">
<title>Node1&#45;&gt;Node15</title>
<path fill="none" stroke="midnightblue" d="M1267.17,-190.46C1302.51,-177.93 1347.24,-162.09 1377.35,-151.42"/>
<polygon fill="midnightblue" stroke="midnightblue" points="1378.71,-154.65 1386.97,-148.01 1376.38,-148.05 1378.71,-154.65"/>
</g>
<!-- Node16 -->
<g id="node16" class="node">
<title>Node16</title>
<g id="a_node16"><a target="_parent" xlink:href="http://www.dealii.org/developer/doxygen/deal.II/mapping__q1_8h.html.html" xlink:title=" ">
<polygon fill="none" stroke="black" points="1488.5,-129 1488.5,-148 1619.5,-148 1619.5,-129 1488.5,-129"/>
<text text-anchor="middle" x="1554" y="-136" font-family="Helvetica,sans-Serif" font-size="10.00">deal.II/fe/mapping_q1.h</text>
</a>
</g>
</g>
<!-- Node1&#45;&gt;Node16 -->
<g id="edge16" class="edge">
<title>Node1&#45;&gt;Node16</title>
<path fill="none" stroke="midnightblue" d="M1278.35,-196.32C1343.9,-182.81 1442.8,-162.42 1502.6,-150.1"/>
<polygon fill="midnightblue" stroke="midnightblue" points="1503.49,-153.49 1512.57,-148.04 1502.07,-146.63 1503.49,-153.49"/>
</g>
<!-- Node17 -->
<g id="node17" class="node">
<title>Node17</title>
<g id="a_node17"><a target="_parent" xlink:href="http://www.dealii.org/developer/doxygen/deal.II/grid__tools_8h.html.html" xlink:title=" ">
<polygon fill="none" stroke="black" points="1638,-129 1638,-148 1766,-148 1766,-129 1638,-129"/>
<text text-anchor="middle" x="1702" y="-136" font-family="Helvetica,sans-Serif" font-size="10.00">deal.II/grid/grid_tools.h</text>
</a>
</g>
</g>
<!-- Node1&#45;&gt;Node17 -->
<g id="edge17" class="edge">
<title>Node1&#45;&gt;Node17</title>
<path fill="none" stroke="midnightblue" d="M1278.27,-202.4C1360.7,-192.65 1505.6,-174.52 1629,-154 1636.36,-152.78 1644.11,-151.37 1651.7,-149.92"/>
<polygon fill="midnightblue" stroke="midnightblue" points="1652.39,-153.35 1661.54,-148.01 1651.05,-146.48 1652.39,-153.35"/>
</g>
<!-- Node18 -->
<g id="node18" class="node">
<title>Node18</title>
<g id="a_node18"><a target="_parent" xlink:href="http://www.dealii.org/developer/doxygen/deal.II/grid__tools__cache_8h.html.html" xlink:title=" ">
<polygon fill="none" stroke="black" points="1784.5,-123.5 1784.5,-153.5 1903.5,-153.5 1903.5,-123.5 1784.5,-123.5"/>
<text text-anchor="start" x="1792.5" y="-141.5" font-family="Helvetica,sans-Serif" font-size="10.00">deal.II/grid/grid_tools</text>
<text text-anchor="middle" x="1844" y="-130.5" font-family="Helvetica,sans-Serif" font-size="10.00">_cache.h</text>
</a>
</g>
</g>
<!-- Node1&#45;&gt;Node18 -->
<g id="edge18" class="edge">
<title>Node1&#45;&gt;Node18</title>
<path fill="none" stroke="midnightblue" d="M1278.16,-205.74C1381.82,-198.57 1588.94,-182.16 1774.3,-154"/>
<polygon fill="midnightblue" stroke="midnightblue" points="1774.88,-157.45 1784.23,-152.47 1773.82,-150.53 1774.88,-157.45"/>
</g>
<!-- Node19 -->
<g id="node19" class="node">
<title>Node19</title>
<g id="a_node19"><a target="_parent" xlink:href="http://www.dealii.org/developer/doxygen/deal.II/affine__constraints_8h.html.html" xlink:title=" ">
<polygon fill="none" stroke="black" points="1921.5,-123.5 1921.5,-153.5 2016.5,-153.5 2016.5,-123.5 1921.5,-123.5"/>
<text text-anchor="start" x="1929.5" y="-141.5" font-family="Helvetica,sans-Serif" font-size="10.00">deal.II/lac/affine</text>
<text text-anchor="middle" x="1969" y="-130.5" font-family="Helvetica,sans-Serif" font-size="10.00">_constraints.h</text>
</a>
</g>
</g>
<!-- Node1&#45;&gt;Node19 -->
<g id="edge19" class="edge">
<title>Node1&#45;&gt;Node19</title>
<path fill="none" stroke="midnightblue" d="M1278.19,-208.54C1401.33,-204.98 1673.97,-193.2 1911.26,-154.11"/>
<polygon fill="midnightblue" stroke="midnightblue" points="1912.17,-157.51 1921.46,-152.41 1911.02,-150.6 1912.17,-157.51"/>
</g>
<!-- Node20 -->
<g id="node20" class="node">
<title>Node20</title>
<g id="a_node20"><a target="_parent" xlink:href="http://www.dealii.org/developer/doxygen/deal.II/sparse__matrix_8h.html.html" xlink:title=" ">
<polygon fill="none" stroke="black" points="2034.5,-123.5 2034.5,-153.5 2133.5,-153.5 2133.5,-123.5 2034.5,-123.5"/>
<text text-anchor="start" x="2042.5" y="-141.5" font-family="Helvetica,sans-Serif" font-size="10.00">deal.II/lac/sparse</text>
<text text-anchor="middle" x="2084" y="-130.5" font-family="Helvetica,sans-Serif" font-size="10.00">_matrix.h</text>
</a>
</g>
</g>
<!-- Node1&#45;&gt;Node20 -->
<g id="edge20" class="edge">
<title>Node1&#45;&gt;Node20</title>
<path fill="none" stroke="midnightblue" d="M1278.12,-209.39C1415.71,-207.27 1742.76,-197.78 2024.44,-154.07"/>
<polygon fill="midnightblue" stroke="midnightblue" points="2025.11,-157.51 2034.44,-152.5 2024.02,-150.59 2025.11,-157.51"/>
</g>
<!-- Node21 -->
<g id="node21" class="node">
<title>Node21</title>
<g id="a_node21"><a target="_parent" xlink:href="http://www.dealii.org/developer/doxygen/deal.II/sparsity__pattern_8h.html.html" xlink:title=" ">
<polygon fill="none" stroke="black" points="2152,-123.5 2152,-153.5 2258,-153.5 2258,-123.5 2152,-123.5"/>
<text text-anchor="start" x="2160" y="-141.5" font-family="Helvetica,sans-Serif" font-size="10.00">deal.II/lac/sparsity</text>
<text text-anchor="middle" x="2205" y="-130.5" font-family="Helvetica,sans-Serif" font-size="10.00">_pattern.h</text>
</a>
</g>
</g>
<!-- Node1&#45;&gt;Node21 -->
<g id="edge21" class="edge">
<title>Node1&#45;&gt;Node21</title>
<path fill="none" stroke="midnightblue" d="M1278.14,-209.86C1429.6,-208.72 1813.17,-201.13 2141.49,-154.05"/>
<polygon fill="midnightblue" stroke="midnightblue" points="2142.28,-157.47 2151.68,-152.58 2141.28,-150.55 2142.28,-157.47"/>
</g>
<!-- Node22 -->
<g id="node22" class="node">
<title>Node22</title>
<g id="a_node22"><a xlink:title=" ">
<polygon fill="none" stroke="#bfbfbf" points="2276.5,-129 2276.5,-148 2389.5,-148 2389.5,-129 2276.5,-129"/>
<text text-anchor="middle" x="2333" y="-136" font-family="Helvetica,sans-Serif" font-size="10.00">boost/geometry.hpp</text>
</a>
</g>
</g>
<!-- Node1&#45;&gt;Node22 -->
<g id="edge22" class="edge">
<title>Node1&#45;&gt;Node22</title>
<path fill="none" stroke="midnightblue" d="M1278.09,-210.23C1444.78,-209.99 1895.53,-204.32 2267,-154 2274.27,-153.01 2281.93,-151.65 2289.36,-150.14"/>
<polygon fill="midnightblue" stroke="midnightblue" points="2290.23,-153.53 2299.27,-148.02 2288.76,-146.69 2290.23,-153.53"/>
</g>
<!-- Node5 -->
<g id="node5" class="node">
<title>Node5</title>
<g id="a_node5"><a xlink:href="function_8h.html" target="_top" xlink:title=" ">
<polygon fill="none" stroke="black" points="554.5,-67.5 554.5,-86.5 679.5,-86.5 679.5,-67.5 554.5,-67.5"/>
<text text-anchor="middle" x="617" y="-74.5" font-family="Helvetica,sans-Serif" font-size="10.00">deal.II/base/function.h</text>
</a>
</g>
</g>
<!-- Node4&#45;&gt;Node5 -->
<g id="edge4" class="edge">
<title>Node4&#45;&gt;Node5</title>
<path fill="none" stroke="midnightblue" d="M404.14,-124.74C453.01,-114.01 522.07,-98.84 568.13,-88.73"/>
<polygon fill="midnightblue" stroke="midnightblue" points="569.15,-92.09 578.17,-86.53 567.65,-85.25 569.15,-92.09"/>
</g>
<!-- Node6 -->
<g id="node6" class="node">
<title>Node6</title>
<g id="a_node6"><a target="_parent" xlink:href="http://www.dealii.org/developer/doxygen/deal.II/function__parser_8h.html.html" xlink:title=" ">
<polygon fill="none" stroke="black" points="489,-0.5 489,-30.5 605,-30.5 605,-0.5 489,-0.5"/>
<text text-anchor="start" x="497" y="-18.5" font-family="Helvetica,sans-Serif" font-size="10.00">deal.II/base/function</text>
<text text-anchor="middle" x="547" y="-7.5" font-family="Helvetica,sans-Serif" font-size="10.00">_parser.h</text>
</a>
</g>
</g>
<!-- Node5&#45;&gt;Node6 -->
<g id="edge5" class="edge">
<title>Node5&#45;&gt;Node6</title>
<path fill="none" stroke="midnightblue" d="M606.97,-67.48C597.67,-59.57 583.45,-47.48 571.2,-37.07"/>
<polygon fill="midnightblue" stroke="midnightblue" points="573.38,-34.33 563.5,-30.52 568.85,-39.67 573.38,-34.33"/>
</g>
<!-- Node7 -->
<g id="node7" class="node">
<title>Node7</title>
<g id="a_node7"><a target="_parent" xlink:href="http://www.dealii.org/developer/doxygen/deal.II/parameter__acceptor_8h.html.html" xlink:title=" ">
<polygon fill="none" stroke="black" points="623.5,-0.5 623.5,-30.5 750.5,-30.5 750.5,-0.5 623.5,-0.5"/>
<text text-anchor="start" x="631.5" y="-18.5" font-family="Helvetica,sans-Serif" font-size="10.00">deal.II/base/parameter</text>
<text text-anchor="middle" x="687" y="-7.5" font-family="Helvetica,sans-Serif" font-size="10.00">_acceptor.h</text>
</a>
</g>
</g>
<!-- Node5&#45;&gt;Node7 -->
<g id="edge6" class="edge">
<title>Node5&#45;&gt;Node7</title>
<path fill="none" stroke="midnightblue" d="M627.03,-67.48C636.33,-59.57 650.55,-47.48 662.8,-37.07"/>
<polygon fill="midnightblue" stroke="midnightblue" points="665.15,-39.67 670.5,-30.52 660.62,-34.33 665.15,-39.67"/>
</g>
<!-- Node11&#45;&gt;Node5 -->
<g id="edge11" class="edge">
<title>Node11&#45;&gt;Node5</title>
<path fill="none" stroke="midnightblue" d="M849.17,-128.98C800.88,-118.37 718.39,-100.26 665.85,-88.72"/>
<polygon fill="midnightblue" stroke="midnightblue" points="666.27,-85.24 655.76,-86.51 664.77,-92.07 666.27,-85.24"/>
</g>
</g>
</svg>
