<?xml version="1.0" encoding="UTF-8" standalone="no"?>
<!DOCTYPE svg PUBLIC "-//W3C//DTD SVG 1.1//EN"
 "http://www.w3.org/Graphics/SVG/1.1/DTD/svg11.dtd">
<!-- Generated by graphviz version 2.43.0 (0)
 -->
<!-- Title: include/create_coupling_sparsity_pattern_with_exact_intersections.h Pages: 1 -->
<svg width="2399pt" height="240pt"
 viewBox="0.00 0.00 2399.00 240.00" xmlns="http://www.w3.org/2000/svg" xmlns:xlink="http://www.w3.org/1999/xlink">
<g id="graph0" class="graph" transform="scale(1 1) rotate(0) translate(4 236)">
<title>include/create_coupling_sparsity_pattern_with_exact_intersections.h</title>
<!-- Node1 -->
<g id="node1" class="node">
<title>Node1</title>
<g id="a_node1"><a xlink:title=" ">
<polygon fill="#bfbfbf" stroke="black" points="1147.5,-190.5 1147.5,-231.5 1279.5,-231.5 1279.5,-190.5 1147.5,-190.5"/>
<text text-anchor="start" x="1155.5" y="-219.5" font-family="Helvetica,sans-Serif" font-size="10.00">include/create_coupling</text>
<text text-anchor="start" x="1155.5" y="-208.5" font-family="Helvetica,sans-Serif" font-size="10.00">_sparsity_pattern_with</text>
<text text-anchor="middle" x="1213.5" y="-197.5" font-family="Helvetica,sans-Serif" font-size="10.00">_exact_intersections.h</text>
</a>
</g>
</g>
<!-- Node2 -->
<g id="node2" class="node">
<title>Node2</title>
<g id="a_node2"><a xlink:href="http://www.dealii.org/developer/doxygen/deal.II/config_8h.html.html" xlink:title=" ">
<polygon fill="none" stroke="black" points="0,-129 0,-148 115,-148 115,-129 0,-129"/>
<text text-anchor="middle" x="57.5" y="-136" font-family="Helvetica,sans-Serif" font-size="10.00">deal.II/base/config.h</text>
</a>
</g>
</g>
<!-- Node1&#45;&gt;Node2 -->
<g id="edge1" class="edge">
<title>Node1&#45;&gt;Node2</title>
<path fill="none" stroke="midnightblue" d="M1147.49,-210.31C977.24,-210.31 509.67,-205.24 124.5,-154 117.04,-153.01 109.17,-151.62 101.55,-150.09"/>
<polygon fill="midnightblue" stroke="midnightblue" points="102.25,-146.66 91.74,-148.03 100.81,-153.51 102.25,-146.66"/>
</g>
<!-- Node3 -->
<g id="node3" class="node">
<title>Node3</title>
<g id="a_node3"><a xlink:href="http://www.dealii.org/developer/doxygen/deal.II/include_2deal_8II_2base_2exceptions_8h.html.html" xlink:title=" ">
<polygon fill="none" stroke="black" points="133.5,-129 133.5,-148 271.5,-148 271.5,-129 133.5,-129"/>
<text text-anchor="middle" x="202.5" y="-136" font-family="Helvetica,sans-Serif" font-size="10.00">deal.II/base/exceptions.h</text>
</a>
</g>
</g>
<!-- Node1&#45;&gt;Node3 -->
<g id="edge2" class="edge">
<title>Node1&#45;&gt;Node3</title>
<path fill="none" stroke="midnightblue" d="M1147.35,-208.84C994.29,-205.55 604.04,-193.63 280.5,-154 271.66,-152.92 262.31,-151.46 253.27,-149.88"/>
<polygon fill="midnightblue" stroke="midnightblue" points="253.7,-146.4 243.24,-148.06 252.45,-153.29 253.7,-146.4"/>
</g>
<!-- Node4 -->
<g id="node4" class="node">
<title>Node4</title>
<g id="a_node4"><a xlink:href="http://www.dealii.org/developer/doxygen/deal.II/function__lib_8h.html.html" xlink:title=" ">
<polygon fill="none" stroke="black" points="289.5,-123.5 289.5,-153.5 405.5,-153.5 405.5,-123.5 289.5,-123.5"/>
<text text-anchor="start" x="297.5" y="-141.5" font-family="Helvetica,sans-Serif" font-size="10.00">deal.II/base/function</text>
<text text-anchor="middle" x="347.5" y="-130.5" font-family="Helvetica,sans-Serif" font-size="10.00">_lib.h</text>
</a>
</g>
</g>
<!-- Node1&#45;&gt;Node4 -->
<g id="edge3" class="edge">
<title>Node1&#45;&gt;Node4</title>
<path fill="none" stroke="midnightblue" d="M1147.39,-208.56C1011.84,-204.93 692.59,-192.8 415.76,-154.04"/>
<polygon fill="midnightblue" stroke="midnightblue" points="415.9,-150.52 405.51,-152.59 414.92,-157.45 415.9,-150.52"/>
</g>
<!-- Node8 -->
<g id="node8" class="node">
<title>Node8</title>
<g id="a_node8"><a xlink:href="http://www.dealii.org/developer/doxygen/deal.II/include_2deal_8II_2base_2quadrature_8h.html.html" xlink:title=" ">
<polygon fill="none" stroke="black" points="423.5,-129 423.5,-148 561.5,-148 561.5,-129 423.5,-129"/>
<text text-anchor="middle" x="492.5" y="-136" font-family="Helvetica,sans-Serif" font-size="10.00">deal.II/base/quadrature.h</text>
</a>
</g>
</g>
<!-- Node1&#45;&gt;Node8 -->
<g id="edge7" class="edge">
<title>Node1&#45;&gt;Node8</title>
<path fill="none" stroke="midnightblue" d="M1147.08,-206.34C1030.15,-199.44 780.07,-182.54 570.5,-154 561.97,-152.84 552.95,-151.38 544.19,-149.84"/>
<polygon fill="midnightblue" stroke="midnightblue" points="544.54,-146.34 534.07,-148 543.29,-153.23 544.54,-146.34"/>
</g>
<!-- Node9 -->
<g id="node9" class="node">
<title>Node9</title>
<g id="a_node9"><a xlink:href="http://www.dealii.org/developer/doxygen/deal.II/shared__tria_8h.html.html" xlink:title=" ">
<polygon fill="none" stroke="black" points="579.5,-123.5 579.5,-153.5 681.5,-153.5 681.5,-123.5 579.5,-123.5"/>
<text text-anchor="start" x="587.5" y="-141.5" font-family="Helvetica,sans-Serif" font-size="10.00">deal.II/distributed</text>
<text text-anchor="middle" x="630.5" y="-130.5" font-family="Helvetica,sans-Serif" font-size="10.00">/shared_tria.h</text>
</a>
</g>
</g>
<!-- Node1&#45;&gt;Node9 -->
<g id="edge8" class="edge">
<title>Node1&#45;&gt;Node9</title>
<path fill="none" stroke="midnightblue" d="M1147.48,-205.71C1049.84,-198.74 861.13,-182.94 691.89,-154.1"/>
<polygon fill="midnightblue" stroke="midnightblue" points="692.24,-150.61 681.79,-152.36 691.06,-157.51 692.24,-150.61"/>
</g>
<!-- Node10 -->
<g id="node10" class="node">
<title>Node10</title>
<g id="a_node10"><a xlink:href="http://www.dealii.org/developer/doxygen/deal.II/distributed_2tria_8h.html.html" xlink:title=" ">
<polygon fill="none" stroke="black" points="699.5,-123.5 699.5,-153.5 801.5,-153.5 801.5,-123.5 699.5,-123.5"/>
<text text-anchor="start" x="707.5" y="-141.5" font-family="Helvetica,sans-Serif" font-size="10.00">deal.II/distributed</text>
<text text-anchor="middle" x="750.5" y="-130.5" font-family="Helvetica,sans-Serif" font-size="10.00">/tria.h</text>
</a>
</g>
</g>
<!-- Node1&#45;&gt;Node10 -->
<g id="edge9" class="edge">
<title>Node1&#45;&gt;Node10</title>
<path fill="none" stroke="midnightblue" d="M1147.21,-202.83C1069.18,-193.93 935.58,-177.27 811.84,-154.15"/>
<polygon fill="midnightblue" stroke="midnightblue" points="812.29,-150.67 801.81,-152.25 810.99,-157.55 812.29,-150.67"/>
</g>
<!-- Node11 -->
<g id="node11" class="node">
<title>Node11</title>
<g id="a_node11"><a xlink:href="http://www.dealii.org/developer/doxygen/deal.II/dof__handler_8h.html.html" xlink:title=" ">
<polygon fill="none" stroke="black" points="819.5,-129 819.5,-148 959.5,-148 959.5,-129 819.5,-129"/>
<text text-anchor="middle" x="889.5" y="-136" font-family="Helvetica,sans-Serif" font-size="10.00">deal.II/dofs/dof_handler.h</text>
</a>
</g>
</g>
<!-- Node1&#45;&gt;Node11 -->
<g id="edge10" class="edge">
<title>Node1&#45;&gt;Node11</title>
<path fill="none" stroke="midnightblue" d="M1147.15,-195.56C1085.28,-182.1 994.4,-162.33 938.75,-150.22"/>
<polygon fill="midnightblue" stroke="midnightblue" points="939.3,-146.75 928.78,-148.05 937.81,-153.59 939.3,-146.75"/>
</g>
<!-- Node12 -->
<g id="node12" class="node">
<title>Node12</title>
<g id="a_node12"><a xlink:href="http://www.dealii.org/developer/doxygen/deal.II/component__mask_8h.html.html" xlink:title=" ">
<polygon fill="none" stroke="black" points="978,-123.5 978,-153.5 1095,-153.5 1095,-123.5 978,-123.5"/>
<text text-anchor="start" x="986" y="-141.5" font-family="Helvetica,sans-Serif" font-size="10.00">deal.II/fe/component</text>
<text text-anchor="middle" x="1036.5" y="-130.5" font-family="Helvetica,sans-Serif" font-size="10.00">_mask.h</text>
</a>
</g>
</g>
<!-- Node1&#45;&gt;Node12 -->
<g id="edge12" class="edge">
<title>Node1&#45;&gt;Node12</title>
<path fill="none" stroke="midnightblue" d="M1164.2,-190.36C1138.16,-179.99 1106.46,-167.37 1081.16,-157.29"/>
<polygon fill="midnightblue" stroke="midnightblue" points="1082.38,-154.01 1071.8,-153.56 1079.79,-160.51 1082.38,-154.01"/>
</g>
<!-- Node13 -->
<g id="node13" class="node">
<title>Node13</title>
<g id="a_node13"><a xlink:href="http://www.dealii.org/developer/doxygen/deal.II/include_2deal_8II_2fe_2fe_8h.html.html" xlink:title=" ">
<polygon fill="none" stroke="black" points="1113,-129 1113,-148 1194,-148 1194,-129 1113,-129"/>
<text text-anchor="middle" x="1153.5" y="-136" font-family="Helvetica,sans-Serif" font-size="10.00">deal.II/fe/fe.h</text>
</a>
</g>
</g>
<!-- Node1&#45;&gt;Node13 -->
<g id="edge13" class="edge">
<title>Node1&#45;&gt;Node13</title>
<path fill="none" stroke="midnightblue" d="M1196.79,-190.36C1187.58,-179.54 1176.27,-166.26 1167.53,-155.98"/>
<polygon fill="midnightblue" stroke="midnightblue" points="1170.03,-153.52 1160.88,-148.17 1164.7,-158.06 1170.03,-153.52"/>
</g>
<!-- Node14 -->
<g id="node14" class="node">
<title>Node14</title>
<g id="a_node14"><a xlink:href="http://www.dealii.org/developer/doxygen/deal.II/fe__system_8h.html.html" xlink:title=" ">
<polygon fill="none" stroke="black" points="1212.5,-129 1212.5,-148 1334.5,-148 1334.5,-129 1212.5,-129"/>
<text text-anchor="middle" x="1273.5" y="-136" font-family="Helvetica,sans-Serif" font-size="10.00">deal.II/fe/fe_system.h</text>
</a>
</g>
</g>
<!-- Node1&#45;&gt;Node14 -->
<g id="edge14" class="edge">
<title>Node1&#45;&gt;Node14</title>
<path fill="none" stroke="midnightblue" d="M1230.21,-190.36C1239.42,-179.54 1250.73,-166.26 1259.47,-155.98"/>
<polygon fill="midnightblue" stroke="midnightblue" points="1262.3,-158.06 1266.12,-148.17 1256.97,-153.52 1262.3,-158.06"/>
</g>
<!-- Node15 -->
<g id="node15" class="node">
<title>Node15</title>
<g id="a_node15"><a xlink:href="http://www.dealii.org/developer/doxygen/deal.II/fe_2fe__values_8h.html.html" xlink:title=" ">
<polygon fill="none" stroke="black" points="1353,-129 1353,-148 1472,-148 1472,-129 1353,-129"/>
<text text-anchor="middle" x="1412.5" y="-136" font-family="Helvetica,sans-Serif" font-size="10.00">deal.II/fe/fe_values.h</text>
</a>
</g>
</g>
<!-- Node1&#45;&gt;Node15 -->
<g id="edge15" class="edge">
<title>Node1&#45;&gt;Node15</title>
<path fill="none" stroke="midnightblue" d="M1268.67,-190.46C1304.01,-177.93 1348.74,-162.09 1378.85,-151.42"/>
<polygon fill="midnightblue" stroke="midnightblue" points="1380.21,-154.65 1388.47,-148.01 1377.88,-148.05 1380.21,-154.65"/>
</g>
<!-- Node16 -->
<g id="node16" class="node">
<title>Node16</title>
<g id="a_node16"><a xlink:href="http://www.dealii.org/developer/doxygen/deal.II/mapping__q1_8h.html.html" xlink:title=" ">
<polygon fill="none" stroke="black" points="1490,-129 1490,-148 1621,-148 1621,-129 1490,-129"/>
<text text-anchor="middle" x="1555.5" y="-136" font-family="Helvetica,sans-Serif" font-size="10.00">deal.II/fe/mapping_q1.h</text>
</a>
</g>
</g>
<!-- Node1&#45;&gt;Node16 -->
<g id="edge16" class="edge">
<title>Node1&#45;&gt;Node16</title>
<path fill="none" stroke="midnightblue" d="M1279.85,-196.32C1345.4,-182.81 1444.3,-162.42 1504.1,-150.1"/>
<polygon fill="midnightblue" stroke="midnightblue" points="1504.99,-153.49 1514.07,-148.04 1503.57,-146.63 1504.99,-153.49"/>
</g>
<!-- Node17 -->
<g id="node17" class="node">
<title>Node17</title>
<g id="a_node17"><a xlink:href="http://www.dealii.org/developer/doxygen/deal.II/grid__tools_8h.html.html" xlink:title=" ">
<polygon fill="none" stroke="black" points="1639.5,-129 1639.5,-148 1767.5,-148 1767.5,-129 1639.5,-129"/>
<text text-anchor="middle" x="1703.5" y="-136" font-family="Helvetica,sans-Serif" font-size="10.00">deal.II/grid/grid_tools.h</text>
</a>
</g>
</g>
<!-- Node1&#45;&gt;Node17 -->
<g id="edge17" class="edge">
<title>Node1&#45;&gt;Node17</title>
<path fill="none" stroke="midnightblue" d="M1279.77,-202.4C1362.2,-192.65 1507.1,-174.52 1630.5,-154 1637.86,-152.78 1645.61,-151.37 1653.2,-149.92"/>
<polygon fill="midnightblue" stroke="midnightblue" points="1653.89,-153.35 1663.04,-148.01 1652.55,-146.48 1653.89,-153.35"/>
</g>
<!-- Node18 -->
<g id="node18" class="node">
<title>Node18</title>
<g id="a_node18"><a xlink:href="http://www.dealii.org/developer/doxygen/deal.II/grid__tools__cache_8h.html.html" xlink:title=" ">
<polygon fill="none" stroke="black" points="1786,-123.5 1786,-153.5 1905,-153.5 1905,-123.5 1786,-123.5"/>
<text text-anchor="start" x="1794" y="-141.5" font-family="Helvetica,sans-Serif" font-size="10.00">deal.II/grid/grid_tools</text>
<text text-anchor="middle" x="1845.5" y="-130.5" font-family="Helvetica,sans-Serif" font-size="10.00">_cache.h</text>
</a>
</g>
</g>
<!-- Node1&#45;&gt;Node18 -->
<g id="edge18" class="edge">
<title>Node1&#45;&gt;Node18</title>
<path fill="none" stroke="midnightblue" d="M1279.66,-205.74C1383.32,-198.57 1590.44,-182.16 1775.8,-154"/>
<polygon fill="midnightblue" stroke="midnightblue" points="1776.38,-157.45 1785.73,-152.47 1775.32,-150.53 1776.38,-157.45"/>
</g>
<!-- Node19 -->
<g id="node19" class="node">
<title>Node19</title>
<g id="a_node19"><a xlink:href="http://www.dealii.org/developer/doxygen/deal.II/affine__constraints_8h.html.html" xlink:title=" ">
<polygon fill="none" stroke="black" points="1923,-123.5 1923,-153.5 2018,-153.5 2018,-123.5 1923,-123.5"/>
<text text-anchor="start" x="1931" y="-141.5" font-family="Helvetica,sans-Serif" font-size="10.00">deal.II/lac/affine</text>
<text text-anchor="middle" x="1970.5" y="-130.5" font-family="Helvetica,sans-Serif" font-size="10.00">_constraints.h</text>
</a>
</g>
</g>
<!-- Node1&#45;&gt;Node19 -->
<g id="edge19" class="edge">
<title>Node1&#45;&gt;Node19</title>
<path fill="none" stroke="midnightblue" d="M1279.69,-208.54C1402.83,-204.98 1675.47,-193.2 1912.76,-154.11"/>
<polygon fill="midnightblue" stroke="midnightblue" points="1913.67,-157.51 1922.96,-152.41 1912.52,-150.6 1913.67,-157.51"/>
</g>
<!-- Node20 -->
<g id="node20" class="node">
<title>Node20</title>
<g id="a_node20"><a xlink:href="http://www.dealii.org/developer/doxygen/deal.II/sparse__matrix_8h.html.html" xlink:title=" ">
<polygon fill="none" stroke="black" points="2036,-123.5 2036,-153.5 2135,-153.5 2135,-123.5 2036,-123.5"/>
<text text-anchor="start" x="2044" y="-141.5" font-family="Helvetica,sans-Serif" font-size="10.00">deal.II/lac/sparse</text>
<text text-anchor="middle" x="2085.5" y="-130.5" font-family="Helvetica,sans-Serif" font-size="10.00">_matrix.h</text>
</a>
</g>
</g>
<!-- Node1&#45;&gt;Node20 -->
<g id="edge20" class="edge">
<title>Node1&#45;&gt;Node20</title>
<path fill="none" stroke="midnightblue" d="M1279.62,-209.39C1417.21,-207.27 1744.26,-197.78 2025.94,-154.07"/>
<polygon fill="midnightblue" stroke="midnightblue" points="2026.61,-157.51 2035.94,-152.5 2025.52,-150.59 2026.61,-157.51"/>
</g>
<!-- Node21 -->
<g id="node21" class="node">
<title>Node21</title>
<g id="a_node21"><a xlink:href="http://www.dealii.org/developer/doxygen/deal.II/sparsity__pattern_8h.html.html" xlink:title=" ">
<polygon fill="none" stroke="black" points="2153.5,-123.5 2153.5,-153.5 2259.5,-153.5 2259.5,-123.5 2153.5,-123.5"/>
<text text-anchor="start" x="2161.5" y="-141.5" font-family="Helvetica,sans-Serif" font-size="10.00">deal.II/lac/sparsity</text>
<text text-anchor="middle" x="2206.5" y="-130.5" font-family="Helvetica,sans-Serif" font-size="10.00">_pattern.h</text>
</a>
</g>
</g>
<!-- Node1&#45;&gt;Node21 -->
<g id="edge21" class="edge">
<title>Node1&#45;&gt;Node21</title>
<path fill="none" stroke="midnightblue" d="M1279.64,-209.86C1431.1,-208.72 1814.67,-201.13 2142.99,-154.05"/>
<polygon fill="midnightblue" stroke="midnightblue" points="2143.78,-157.47 2153.18,-152.58 2142.78,-150.55 2143.78,-157.47"/>
</g>
<!-- Node22 -->
<g id="node22" class="node">
<title>Node22</title>
<g id="a_node22"><a xlink:title=" ">
<polygon fill="none" stroke="#bfbfbf" points="2278,-129 2278,-148 2391,-148 2391,-129 2278,-129"/>
<text text-anchor="middle" x="2334.5" y="-136" font-family="Helvetica,sans-Serif" font-size="10.00">boost/geometry.hpp</text>
</a>
</g>
</g>
<!-- Node1&#45;&gt;Node22 -->
<g id="edge22" class="edge">
<title>Node1&#45;&gt;Node22</title>
<path fill="none" stroke="midnightblue" d="M1279.59,-210.23C1446.28,-209.99 1897.03,-204.32 2268.5,-154 2275.77,-153.01 2283.43,-151.65 2290.86,-150.14"/>
<polygon fill="midnightblue" stroke="midnightblue" points="2291.73,-153.53 2300.77,-148.02 2290.26,-146.69 2291.73,-153.53"/>
</g>
<!-- Node5 -->
<g id="node5" class="node">
<title>Node5</title>
<g id="a_node5"><a xlink:href="function_8h.html" target="_top" xlink:title=" ">
<polygon fill="none" stroke="black" points="556,-67.5 556,-86.5 681,-86.5 681,-67.5 556,-67.5"/>
<text text-anchor="middle" x="618.5" y="-74.5" font-family="Helvetica,sans-Serif" font-size="10.00">deal.II/base/function.h</text>
</a>
</g>
</g>
<!-- Node4&#45;&gt;Node5 -->
<g id="edge4" class="edge">
<title>Node4&#45;&gt;Node5</title>
<path fill="none" stroke="midnightblue" d="M405.64,-124.74C454.51,-114.01 523.57,-98.84 569.63,-88.73"/>
<polygon fill="midnightblue" stroke="midnightblue" points="570.65,-92.09 579.67,-86.53 569.15,-85.25 570.65,-92.09"/>
</g>
<!-- Node6 -->
<g id="node6" class="node">
<title>Node6</title>
<g id="a_node6"><a xlink:href="http://www.dealii.org/developer/doxygen/deal.II/function__parser_8h.html.html" xlink:title=" ">
<polygon fill="none" stroke="black" points="490.5,-0.5 490.5,-30.5 606.5,-30.5 606.5,-0.5 490.5,-0.5"/>
<text text-anchor="start" x="498.5" y="-18.5" font-family="Helvetica,sans-Serif" font-size="10.00">deal.II/base/function</text>
<text text-anchor="middle" x="548.5" y="-7.5" font-family="Helvetica,sans-Serif" font-size="10.00">_parser.h</text>
</a>
</g>
</g>
<!-- Node5&#45;&gt;Node6 -->
<g id="edge5" class="edge">
<title>Node5&#45;&gt;Node6</title>
<path fill="none" stroke="midnightblue" d="M608.47,-67.48C599.17,-59.57 584.95,-47.48 572.7,-37.07"/>
<polygon fill="midnightblue" stroke="midnightblue" points="574.88,-34.33 565,-30.52 570.35,-39.67 574.88,-34.33"/>
</g>
<!-- Node7 -->
<g id="node7" class="node">
<title>Node7</title>
<g id="a_node7"><a xlink:href="http://www.dealii.org/developer/doxygen/deal.II/parameter__acceptor_8h.html.html" xlink:title=" ">
<polygon fill="none" stroke="black" points="625,-0.5 625,-30.5 752,-30.5 752,-0.5 625,-0.5"/>
<text text-anchor="start" x="633" y="-18.5" font-family="Helvetica,sans-Serif" font-size="10.00">deal.II/base/parameter</text>
<text text-anchor="middle" x="688.5" y="-7.5" font-family="Helvetica,sans-Serif" font-size="10.00">_acceptor.h</text>
</a>
</g>
</g>
<!-- Node5&#45;&gt;Node7 -->
<g id="edge6" class="edge">
<title>Node5&#45;&gt;Node7</title>
<path fill="none" stroke="midnightblue" d="M628.53,-67.48C637.83,-59.57 652.05,-47.48 664.3,-37.07"/>
<polygon fill="midnightblue" stroke="midnightblue" points="666.65,-39.67 672,-30.52 662.12,-34.33 666.65,-39.67"/>
</g>
<!-- Node11&#45;&gt;Node5 -->
<g id="edge11" class="edge">
<title>Node11&#45;&gt;Node5</title>
<path fill="none" stroke="midnightblue" d="M850.67,-128.98C802.38,-118.37 719.89,-100.26 667.35,-88.72"/>
<polygon fill="midnightblue" stroke="midnightblue" points="667.77,-85.24 657.26,-86.51 666.27,-92.07 667.77,-85.24"/>
</g>
</g>
</svg>
