<?xml version="1.0" encoding="UTF-8" standalone="no"?>
<!DOCTYPE svg PUBLIC "-//W3C//DTD SVG 1.1//EN"
 "http://www.w3.org/Graphics/SVG/1.1/DTD/svg11.dtd">
<!-- Generated by graphviz version 2.43.0 (0)
 -->
<!-- Title: source/create_coupling_sparsity_pattern_with_exact_intersections.cc Pages: 1 -->
<svg width="2824pt" height="307pt"
 viewBox="0.00 0.00 2824.00 307.00" xmlns="http://www.w3.org/2000/svg" xmlns:xlink="http://www.w3.org/1999/xlink">
<g id="graph0" class="graph" transform="scale(1 1) rotate(0) translate(4 303)">
<title>source/create_coupling_sparsity_pattern_with_exact_intersections.cc</title>
<!-- Node1 -->
<g id="node1" class="node">
<title>Node1</title>
<g id="a_node1"><a xlink:title=" ">
<polygon fill="#bfbfbf" stroke="black" points="983,-257.5 983,-298.5 1114,-298.5 1114,-257.5 983,-257.5"/>
<text text-anchor="start" x="991" y="-286.5" font-family="Helvetica,sans-Serif" font-size="10.00">source/create_coupling</text>
<text text-anchor="start" x="991" y="-275.5" font-family="Helvetica,sans-Serif" font-size="10.00">_sparsity_pattern_with</text>
<text text-anchor="middle" x="1048.5" y="-264.5" font-family="Helvetica,sans-Serif" font-size="10.00">_exact_intersections.cc</text>
</a>
</g>
</g>
<!-- Node2 -->
<g id="node2" class="node">
<title>Node2</title>
<g id="a_node2"><a xlink:href="create__coupling__sparsity__pattern__with__exact__intersections_8h.html" target="_top" xlink:title=" ">
<polygon fill="none" stroke="black" points="1513,-190.5 1513,-220.5 1706,-220.5 1706,-190.5 1513,-190.5"/>
<text text-anchor="start" x="1521" y="-208.5" font-family="Helvetica,sans-Serif" font-size="10.00">create_coupling_sparsity</text>
<text text-anchor="middle" x="1609.5" y="-197.5" font-family="Helvetica,sans-Serif" font-size="10.00">_pattern_with_exact_intersections.h</text>
</a>
</g>
</g>
<!-- Node1&#45;&gt;Node2 -->
<g id="edge1" class="edge">
<title>Node1&#45;&gt;Node2</title>
<path fill="none" stroke="midnightblue" d="M1114.23,-268.74C1209.79,-256.73 1388.16,-234.32 1502.73,-219.92"/>
<polygon fill="midnightblue" stroke="midnightblue" points="1503.44,-223.36 1512.93,-218.64 1502.57,-216.41 1503.44,-223.36"/>
</g>
<!-- Node24 -->
<g id="node24" class="node">
<title>Node24</title>
<g id="a_node24"><a xlink:href="compute__intersections_8h.html" target="_top" xlink:title=" ">
<polygon fill="none" stroke="black" points="490,-196 490,-215 627,-215 627,-196 490,-196"/>
<text text-anchor="middle" x="558.5" y="-203" font-family="Helvetica,sans-Serif" font-size="10.00">compute_intersections.h</text>
</a>
</g>
</g>
<!-- Node1&#45;&gt;Node24 -->
<g id="edge24" class="edge">
<title>Node1&#45;&gt;Node24</title>
<path fill="none" stroke="midnightblue" d="M982.92,-267.57C890.46,-254.26 722.51,-230.1 627.97,-216.5"/>
<polygon fill="midnightblue" stroke="midnightblue" points="628.33,-213.01 617.94,-215.05 627.34,-219.94 628.33,-213.01"/>
</g>
<!-- Node3 -->
<g id="node3" class="node">
<title>Node3</title>
<g id="a_node3"><a xlink:href="http://www.dealii.org/developer/doxygen/deal.II/config_8h.html.html" xlink:title=" ">
<polygon fill="none" stroke="black" points="707,-129 707,-148 822,-148 822,-129 707,-129"/>
<text text-anchor="middle" x="764.5" y="-136" font-family="Helvetica,sans-Serif" font-size="10.00">deal.II/base/config.h</text>
</a>
</g>
</g>
<!-- Node2&#45;&gt;Node3 -->
<g id="edge2" class="edge">
<title>Node2&#45;&gt;Node3</title>
<path fill="none" stroke="midnightblue" d="M1512.91,-202.83C1365.37,-199.24 1075.3,-188.1 831.5,-154 824.21,-152.98 816.53,-151.61 809.07,-150.11"/>
<polygon fill="midnightblue" stroke="midnightblue" points="809.61,-146.64 799.1,-148.01 808.16,-153.49 809.61,-146.64"/>
</g>
<!-- Node4 -->
<g id="node4" class="node">
<title>Node4</title>
<g id="a_node4"><a xlink:href="http://www.dealii.org/developer/doxygen/deal.II/include_2deal_8II_2base_2exceptions_8h.html.html" xlink:title=" ">
<polygon fill="none" stroke="black" points="1812.5,-129 1812.5,-148 1950.5,-148 1950.5,-129 1812.5,-129"/>
<text text-anchor="middle" x="1881.5" y="-136" font-family="Helvetica,sans-Serif" font-size="10.00">deal.II/base/exceptions.h</text>
</a>
</g>
</g>
<!-- Node2&#45;&gt;Node4 -->
<g id="edge3" class="edge">
<title>Node2&#45;&gt;Node4</title>
<path fill="none" stroke="midnightblue" d="M1668.19,-190.48C1718.42,-178.47 1789.73,-161.43 1835.81,-150.42"/>
<polygon fill="midnightblue" stroke="midnightblue" points="1836.9,-153.76 1845.81,-148.03 1835.27,-146.95 1836.9,-153.76"/>
</g>
<!-- Node5 -->
<g id="node5" class="node">
<title>Node5</title>
<g id="a_node5"><a xlink:href="http://www.dealii.org/developer/doxygen/deal.II/function__lib_8h.html.html" xlink:title=" ">
<polygon fill="none" stroke="black" points="840.5,-123.5 840.5,-153.5 956.5,-153.5 956.5,-123.5 840.5,-123.5"/>
<text text-anchor="start" x="848.5" y="-141.5" font-family="Helvetica,sans-Serif" font-size="10.00">deal.II/base/function</text>
<text text-anchor="middle" x="898.5" y="-130.5" font-family="Helvetica,sans-Serif" font-size="10.00">_lib.h</text>
</a>
</g>
</g>
<!-- Node2&#45;&gt;Node5 -->
<g id="edge4" class="edge">
<title>Node2&#45;&gt;Node5</title>
<path fill="none" stroke="midnightblue" d="M1512.76,-200.98C1388.47,-195.55 1165.97,-182.74 966.59,-154.03"/>
<polygon fill="midnightblue" stroke="midnightblue" points="966.92,-150.54 956.52,-152.56 965.91,-157.46 966.92,-150.54"/>
</g>
<!-- Node9 -->
<g id="node9" class="node">
<title>Node9</title>
<g id="a_node9"><a xlink:href="http://www.dealii.org/developer/doxygen/deal.II/include_2deal_8II_2base_2quadrature_8h.html.html" xlink:title=" ">
<polygon fill="none" stroke="black" points="974.5,-129 974.5,-148 1112.5,-148 1112.5,-129 974.5,-129"/>
<text text-anchor="middle" x="1043.5" y="-136" font-family="Helvetica,sans-Serif" font-size="10.00">deal.II/base/quadrature.h</text>
</a>
</g>
</g>
<!-- Node2&#45;&gt;Node9 -->
<g id="edge8" class="edge">
<title>Node2&#45;&gt;Node9</title>
<path fill="none" stroke="midnightblue" d="M1512.67,-196.71C1414.19,-188.25 1257.34,-173.34 1122.5,-154 1114.07,-152.79 1105.16,-151.33 1096.49,-149.81"/>
<polygon fill="midnightblue" stroke="midnightblue" points="1096.91,-146.33 1086.45,-148.01 1095.68,-153.22 1096.91,-146.33"/>
</g>
<!-- Node10 -->
<g id="node10" class="node">
<title>Node10</title>
<g id="a_node10"><a xlink:href="http://www.dealii.org/developer/doxygen/deal.II/shared__tria_8h.html.html" xlink:title=" ">
<polygon fill="none" stroke="black" points="1968.5,-123.5 1968.5,-153.5 2070.5,-153.5 2070.5,-123.5 1968.5,-123.5"/>
<text text-anchor="start" x="1976.5" y="-141.5" font-family="Helvetica,sans-Serif" font-size="10.00">deal.II/distributed</text>
<text text-anchor="middle" x="2019.5" y="-130.5" font-family="Helvetica,sans-Serif" font-size="10.00">/shared_tria.h</text>
</a>
</g>
</g>
<!-- Node2&#45;&gt;Node10 -->
<g id="edge9" class="edge">
<title>Node2&#45;&gt;Node10</title>
<path fill="none" stroke="midnightblue" d="M1706.1,-193.04C1774.13,-184.39 1867.51,-171.35 1958.27,-154.14"/>
<polygon fill="midnightblue" stroke="midnightblue" points="1959.02,-157.56 1968.18,-152.24 1957.7,-150.68 1959.02,-157.56"/>
</g>
<!-- Node11 -->
<g id="node11" class="node">
<title>Node11</title>
<g id="a_node11"><a xlink:href="http://www.dealii.org/developer/doxygen/deal.II/distributed_2tria_8h.html.html" xlink:title=" ">
<polygon fill="none" stroke="black" points="2088.5,-123.5 2088.5,-153.5 2190.5,-153.5 2190.5,-123.5 2088.5,-123.5"/>
<text text-anchor="start" x="2096.5" y="-141.5" font-family="Helvetica,sans-Serif" font-size="10.00">deal.II/distributed</text>
<text text-anchor="middle" x="2139.5" y="-130.5" font-family="Helvetica,sans-Serif" font-size="10.00">/tria.h</text>
</a>
</g>
</g>
<!-- Node2&#45;&gt;Node11 -->
<g id="edge10" class="edge">
<title>Node2&#45;&gt;Node11</title>
<path fill="none" stroke="midnightblue" d="M1706.33,-197.8C1799.39,-190.51 1944.07,-176.96 2078.16,-154.09"/>
<polygon fill="midnightblue" stroke="midnightblue" points="2078.95,-157.51 2088.2,-152.36 2077.76,-150.61 2078.95,-157.51"/>
</g>
<!-- Node12 -->
<g id="node12" class="node">
<title>Node12</title>
<g id="a_node12"><a xlink:href="http://www.dealii.org/developer/doxygen/deal.II/dof__handler_8h.html.html" xlink:title=" ">
<polygon fill="none" stroke="black" points="1280.5,-129 1280.5,-148 1420.5,-148 1420.5,-129 1280.5,-129"/>
<text text-anchor="middle" x="1350.5" y="-136" font-family="Helvetica,sans-Serif" font-size="10.00">deal.II/dofs/dof_handler.h</text>
</a>
</g>
</g>
<!-- Node2&#45;&gt;Node12 -->
<g id="edge11" class="edge">
<title>Node2&#45;&gt;Node12</title>
<path fill="none" stroke="midnightblue" d="M1553.62,-190.48C1505.88,-178.5 1438.17,-161.5 1394.28,-150.49"/>
<polygon fill="midnightblue" stroke="midnightblue" points="1395.03,-147.07 1384.48,-148.03 1393.33,-153.86 1395.03,-147.07"/>
</g>
<!-- Node13 -->
<g id="node13" class="node">
<title>Node13</title>
<g id="a_node13"><a xlink:href="http://www.dealii.org/developer/doxygen/deal.II/component__mask_8h.html.html" xlink:title=" ">
<polygon fill="none" stroke="black" points="2209,-123.5 2209,-153.5 2326,-153.5 2326,-123.5 2209,-123.5"/>
<text text-anchor="start" x="2217" y="-141.5" font-family="Helvetica,sans-Serif" font-size="10.00">deal.II/fe/component</text>
<text text-anchor="middle" x="2267.5" y="-130.5" font-family="Helvetica,sans-Serif" font-size="10.00">_mask.h</text>
</a>
</g>
</g>
<!-- Node2&#45;&gt;Node13 -->
<g id="edge13" class="edge">
<title>Node2&#45;&gt;Node13</title>
<path fill="none" stroke="midnightblue" d="M1706.25,-199.93C1821.36,-193.65 2019.45,-180.2 2199.08,-153.93"/>
<polygon fill="midnightblue" stroke="midnightblue" points="2199.6,-157.39 2208.98,-152.46 2198.57,-150.46 2199.6,-157.39"/>
</g>
<!-- Node14 -->
<g id="node14" class="node">
<title>Node14</title>
<g id="a_node14"><a xlink:href="http://www.dealii.org/developer/doxygen/deal.II/include_2deal_8II_2fe_2fe_8h.html.html" xlink:title=" ">
<polygon fill="none" stroke="black" points="2344,-129 2344,-148 2425,-148 2425,-129 2344,-129"/>
<text text-anchor="middle" x="2384.5" y="-136" font-family="Helvetica,sans-Serif" font-size="10.00">deal.II/fe/fe.h</text>
</a>
</g>
</g>
<!-- Node2&#45;&gt;Node14 -->
<g id="edge14" class="edge">
<title>Node2&#45;&gt;Node14</title>
<path fill="none" stroke="midnightblue" d="M1706.04,-204.45C1845.92,-202.88 2112.63,-194.23 2335.5,-154 2340.22,-153.15 2345.13,-152.01 2349.94,-150.74"/>
<polygon fill="midnightblue" stroke="midnightblue" points="2350.9,-154.11 2359.57,-148.02 2349,-147.37 2350.9,-154.11"/>
</g>
<!-- Node15 -->
<g id="node15" class="node">
<title>Node15</title>
<g id="a_node15"><a xlink:href="http://www.dealii.org/developer/doxygen/deal.II/fe__system_8h.html.html" xlink:title=" ">
<polygon fill="none" stroke="black" points="2443.5,-129 2443.5,-148 2565.5,-148 2565.5,-129 2443.5,-129"/>
<text text-anchor="middle" x="2504.5" y="-136" font-family="Helvetica,sans-Serif" font-size="10.00">deal.II/fe/fe_system.h</text>
</a>
</g>
</g>
<!-- Node2&#45;&gt;Node15 -->
<g id="edge15" class="edge">
<title>Node2&#45;&gt;Node15</title>
<path fill="none" stroke="midnightblue" d="M1706.15,-203.06C1860.67,-199.75 2172.61,-188.96 2434.5,-154 2442.28,-152.96 2450.5,-151.55 2458.45,-150.01"/>
<polygon fill="midnightblue" stroke="midnightblue" points="2459.23,-153.43 2468.34,-148.02 2457.84,-146.57 2459.23,-153.43"/>
</g>
<!-- Node16 -->
<g id="node16" class="node">
<title>Node16</title>
<g id="a_node16"><a xlink:href="http://www.dealii.org/developer/doxygen/deal.II/fe_2fe__values_8h.html.html" xlink:title=" ">
<polygon fill="none" stroke="black" points="2584,-129 2584,-148 2703,-148 2703,-129 2584,-129"/>
<text text-anchor="middle" x="2643.5" y="-136" font-family="Helvetica,sans-Serif" font-size="10.00">deal.II/fe/fe_values.h</text>
</a>
</g>
</g>
<!-- Node2&#45;&gt;Node16 -->
<g id="edge16" class="edge">
<title>Node2&#45;&gt;Node16</title>
<path fill="none" stroke="midnightblue" d="M1706.17,-204.38C1880.46,-203.07 2258.63,-195.2 2574.5,-154 2582.27,-152.99 2590.46,-151.57 2598.38,-150.03"/>
<polygon fill="midnightblue" stroke="midnightblue" points="2599.13,-153.45 2608.22,-148.01 2597.72,-146.59 2599.13,-153.45"/>
</g>
<!-- Node17 -->
<g id="node17" class="node">
<title>Node17</title>
<g id="a_node17"><a xlink:href="http://www.dealii.org/developer/doxygen/deal.II/mapping__q1_8h.html.html" xlink:title=" ">
<polygon fill="none" stroke="black" points="1131,-129 1131,-148 1262,-148 1262,-129 1131,-129"/>
<text text-anchor="middle" x="1196.5" y="-136" font-family="Helvetica,sans-Serif" font-size="10.00">deal.II/fe/mapping_q1.h</text>
</a>
</g>
</g>
<!-- Node2&#45;&gt;Node17 -->
<g id="edge17" class="edge">
<title>Node2&#45;&gt;Node17</title>
<path fill="none" stroke="midnightblue" d="M1512.8,-191.17C1445.12,-181.57 1352.64,-167.9 1271.5,-154 1264.14,-152.74 1256.39,-151.33 1248.77,-149.9"/>
<polygon fill="midnightblue" stroke="midnightblue" points="1249.36,-146.45 1238.88,-148.02 1248.05,-153.33 1249.36,-146.45"/>
</g>
<!-- Node18 -->
<g id="node18" class="node">
<title>Node18</title>
<g id="a_node18"><a xlink:href="http://www.dealii.org/developer/doxygen/deal.II/grid__tools_8h.html.html" xlink:title=" ">
<polygon fill="none" stroke="black" points="423.5,-129 423.5,-148 551.5,-148 551.5,-129 423.5,-129"/>
<text text-anchor="middle" x="487.5" y="-136" font-family="Helvetica,sans-Serif" font-size="10.00">deal.II/grid/grid_tools.h</text>
</a>
</g>
</g>
<!-- Node2&#45;&gt;Node18 -->
<g id="edge18" class="edge">
<title>Node2&#45;&gt;Node18</title>
<path fill="none" stroke="midnightblue" d="M1512.66,-204.52C1327.3,-203.53 909.82,-196.29 561.5,-154 553,-152.97 544.01,-151.52 535.34,-149.93"/>
<polygon fill="midnightblue" stroke="midnightblue" points="535.84,-146.46 525.36,-148.02 534.52,-153.33 535.84,-146.46"/>
</g>
<!-- Node19 -->
<g id="node19" class="node">
<title>Node19</title>
<g id="a_node19"><a xlink:href="http://www.dealii.org/developer/doxygen/deal.II/grid__tools__cache_8h.html.html" xlink:title=" ">
<polygon fill="none" stroke="black" points="570,-123.5 570,-153.5 689,-153.5 689,-123.5 570,-123.5"/>
<text text-anchor="start" x="578" y="-141.5" font-family="Helvetica,sans-Serif" font-size="10.00">deal.II/grid/grid_tools</text>
<text text-anchor="middle" x="629.5" y="-130.5" font-family="Helvetica,sans-Serif" font-size="10.00">_cache.h</text>
</a>
</g>
</g>
<!-- Node2&#45;&gt;Node19 -->
<g id="edge19" class="edge">
<title>Node2&#45;&gt;Node19</title>
<path fill="none" stroke="midnightblue" d="M1512.98,-203.95C1348.06,-201.95 1001.44,-193.15 699.51,-153.98"/>
<polygon fill="midnightblue" stroke="midnightblue" points="699.61,-150.46 689.24,-152.63 698.7,-157.4 699.61,-150.46"/>
</g>
<!-- Node20 -->
<g id="node20" class="node">
<title>Node20</title>
<g id="a_node20"><a xlink:href="http://www.dealii.org/developer/doxygen/deal.II/affine__constraints_8h.html.html" xlink:title=" ">
<polygon fill="none" stroke="black" points="2721,-123.5 2721,-153.5 2816,-153.5 2816,-123.5 2721,-123.5"/>
<text text-anchor="start" x="2729" y="-141.5" font-family="Helvetica,sans-Serif" font-size="10.00">deal.II/lac/affine</text>
<text text-anchor="middle" x="2768.5" y="-130.5" font-family="Helvetica,sans-Serif" font-size="10.00">_constraints.h</text>
</a>
</g>
</g>
<!-- Node2&#45;&gt;Node20 -->
<g id="edge20" class="edge">
<title>Node2&#45;&gt;Node20</title>
<path fill="none" stroke="midnightblue" d="M1706.16,-202.65C1934.11,-197.87 2501.2,-183.5 2710.96,-153.98"/>
<polygon fill="midnightblue" stroke="midnightblue" points="2711.59,-157.43 2720.98,-152.52 2710.58,-150.5 2711.59,-157.43"/>
</g>
<!-- Node21 -->
<g id="node21" class="node">
<title>Node21</title>
<g id="a_node21"><a xlink:href="http://www.dealii.org/developer/doxygen/deal.II/sparse__matrix_8h.html.html" xlink:title=" ">
<polygon fill="none" stroke="black" points="1439,-123.5 1439,-153.5 1538,-153.5 1538,-123.5 1439,-123.5"/>
<text text-anchor="start" x="1447" y="-141.5" font-family="Helvetica,sans-Serif" font-size="10.00">deal.II/lac/sparse</text>
<text text-anchor="middle" x="1488.5" y="-130.5" font-family="Helvetica,sans-Serif" font-size="10.00">_matrix.h</text>
</a>
</g>
</g>
<!-- Node2&#45;&gt;Node21 -->
<g id="edge21" class="edge">
<title>Node2&#45;&gt;Node21</title>
<path fill="none" stroke="midnightblue" d="M1583.24,-190.4C1565.8,-181.03 1542.7,-168.62 1523.67,-158.39"/>
<polygon fill="midnightblue" stroke="midnightblue" points="1525.17,-155.23 1514.7,-153.58 1521.86,-161.39 1525.17,-155.23"/>
</g>
<!-- Node22 -->
<g id="node22" class="node">
<title>Node22</title>
<g id="a_node22"><a xlink:href="http://www.dealii.org/developer/doxygen/deal.II/sparsity__pattern_8h.html.html" xlink:title=" ">
<polygon fill="none" stroke="black" points="1556.5,-123.5 1556.5,-153.5 1662.5,-153.5 1662.5,-123.5 1556.5,-123.5"/>
<text text-anchor="start" x="1564.5" y="-141.5" font-family="Helvetica,sans-Serif" font-size="10.00">deal.II/lac/sparsity</text>
<text text-anchor="middle" x="1609.5" y="-130.5" font-family="Helvetica,sans-Serif" font-size="10.00">_pattern.h</text>
</a>
</g>
</g>
<!-- Node2&#45;&gt;Node22 -->
<g id="edge22" class="edge">
<title>Node2&#45;&gt;Node22</title>
<path fill="none" stroke="midnightblue" d="M1609.5,-190.4C1609.5,-182.64 1609.5,-172.81 1609.5,-163.86"/>
<polygon fill="midnightblue" stroke="midnightblue" points="1613,-163.58 1609.5,-153.58 1606,-163.58 1613,-163.58"/>
</g>
<!-- Node23 -->
<g id="node23" class="node">
<title>Node23</title>
<g id="a_node23"><a xlink:title=" ">
<polygon fill="none" stroke="#bfbfbf" points="1681,-129 1681,-148 1794,-148 1794,-129 1681,-129"/>
<text text-anchor="middle" x="1737.5" y="-136" font-family="Helvetica,sans-Serif" font-size="10.00">boost/geometry.hpp</text>
</a>
</g>
</g>
<!-- Node2&#45;&gt;Node23 -->
<g id="edge23" class="edge">
<title>Node2&#45;&gt;Node23</title>
<path fill="none" stroke="midnightblue" d="M1637.27,-190.4C1659.44,-179.14 1690.24,-163.5 1711.83,-152.54"/>
<polygon fill="midnightblue" stroke="midnightblue" points="1713.42,-155.66 1720.75,-148.01 1710.25,-149.41 1713.42,-155.66"/>
</g>
<!-- Node6 -->
<g id="node6" class="node">
<title>Node6</title>
<g id="a_node6"><a xlink:href="function_8h.html" target="_top" xlink:title=" ">
<polygon fill="none" stroke="black" points="1062,-67.5 1062,-86.5 1187,-86.5 1187,-67.5 1062,-67.5"/>
<text text-anchor="middle" x="1124.5" y="-74.5" font-family="Helvetica,sans-Serif" font-size="10.00">deal.II/base/function.h</text>
</a>
</g>
</g>
<!-- Node5&#45;&gt;Node6 -->
<g id="edge5" class="edge">
<title>Node5&#45;&gt;Node6</title>
<path fill="none" stroke="midnightblue" d="M951.77,-123.47C991.61,-112.99 1045.36,-98.84 1082.25,-89.12"/>
<polygon fill="midnightblue" stroke="midnightblue" points="1083.41,-92.44 1092.19,-86.51 1081.63,-85.67 1083.41,-92.44"/>
</g>
<!-- Node7 -->
<g id="node7" class="node">
<title>Node7</title>
<g id="a_node7"><a xlink:href="http://www.dealii.org/developer/doxygen/deal.II/function__parser_8h.html.html" xlink:title=" ">
<polygon fill="none" stroke="black" points="996.5,-0.5 996.5,-30.5 1112.5,-30.5 1112.5,-0.5 996.5,-0.5"/>
<text text-anchor="start" x="1004.5" y="-18.5" font-family="Helvetica,sans-Serif" font-size="10.00">deal.II/base/function</text>
<text text-anchor="middle" x="1054.5" y="-7.5" font-family="Helvetica,sans-Serif" font-size="10.00">_parser.h</text>
</a>
</g>
</g>
<!-- Node6&#45;&gt;Node7 -->
<g id="edge6" class="edge">
<title>Node6&#45;&gt;Node7</title>
<path fill="none" stroke="midnightblue" d="M1114.47,-67.48C1105.17,-59.57 1090.95,-47.48 1078.7,-37.07"/>
<polygon fill="midnightblue" stroke="midnightblue" points="1080.88,-34.33 1071,-30.52 1076.35,-39.67 1080.88,-34.33"/>
</g>
<!-- Node8 -->
<g id="node8" class="node">
<title>Node8</title>
<g id="a_node8"><a xlink:href="http://www.dealii.org/developer/doxygen/deal.II/parameter__acceptor_8h.html.html" xlink:title=" ">
<polygon fill="none" stroke="black" points="1131,-0.5 1131,-30.5 1258,-30.5 1258,-0.5 1131,-0.5"/>
<text text-anchor="start" x="1139" y="-18.5" font-family="Helvetica,sans-Serif" font-size="10.00">deal.II/base/parameter</text>
<text text-anchor="middle" x="1194.5" y="-7.5" font-family="Helvetica,sans-Serif" font-size="10.00">_acceptor.h</text>
</a>
</g>
</g>
<!-- Node6&#45;&gt;Node8 -->
<g id="edge7" class="edge">
<title>Node6&#45;&gt;Node8</title>
<path fill="none" stroke="midnightblue" d="M1134.53,-67.48C1143.83,-59.57 1158.05,-47.48 1170.3,-37.07"/>
<polygon fill="midnightblue" stroke="midnightblue" points="1172.65,-39.67 1178,-30.52 1168.12,-34.33 1172.65,-39.67"/>
</g>
<!-- Node12&#45;&gt;Node6 -->
<g id="edge12" class="edge">
<title>Node12&#45;&gt;Node6</title>
<path fill="none" stroke="midnightblue" d="M1318.12,-128.98C1278.26,-118.48 1210.48,-100.64 1166.61,-89.09"/>
<polygon fill="midnightblue" stroke="midnightblue" points="1167.38,-85.67 1156.82,-86.51 1165.6,-92.44 1167.38,-85.67"/>
</g>
<!-- Node24&#45;&gt;Node3 -->
<g id="edge25" class="edge">
<title>Node24&#45;&gt;Node3</title>
<path fill="none" stroke="midnightblue" d="M585.86,-195.87C622.36,-184.35 687.1,-163.92 727.81,-151.08"/>
<polygon fill="midnightblue" stroke="midnightblue" points="728.88,-154.41 737.36,-148.06 726.77,-147.74 728.88,-154.41"/>
</g>
<!-- Node24&#45;&gt;Node5 -->
<g id="edge26" class="edge">
<title>Node24&#45;&gt;Node5</title>
<path fill="none" stroke="midnightblue" d="M607.41,-195.91C660.02,-186.57 746.4,-170.94 830.45,-154.18"/>
<polygon fill="midnightblue" stroke="midnightblue" points="831.3,-157.58 840.42,-152.18 829.93,-150.71 831.3,-157.58"/>
</g>
<!-- Node24&#45;&gt;Node9 -->
<g id="edge27" class="edge">
<title>Node24&#45;&gt;Node9</title>
<path fill="none" stroke="midnightblue" d="M627.09,-197.27C708.13,-188.43 846.94,-172.36 965.5,-154 973.53,-152.76 982.01,-151.32 990.29,-149.83"/>
<polygon fill="midnightblue" stroke="midnightblue" points="991.05,-153.25 1000.26,-148.02 989.79,-146.37 991.05,-153.25"/>
</g>
<!-- Node24&#45;&gt;Node17 -->
<g id="edge29" class="edge">
<title>Node24&#45;&gt;Node17</title>
<path fill="none" stroke="midnightblue" d="M627.22,-200.59C733.54,-194.04 944.16,-179.03 1121.5,-154 1129.62,-152.85 1138.2,-151.41 1146.53,-149.89"/>
<polygon fill="midnightblue" stroke="midnightblue" points="1147.36,-153.3 1156.54,-148.01 1146.06,-146.42 1147.36,-153.3"/>
</g>
<!-- Node24&#45;&gt;Node18 -->
<g id="edge30" class="edge">
<title>Node24&#45;&gt;Node18</title>
<path fill="none" stroke="midnightblue" d="M548.92,-195.73C537.53,-185.31 518.31,-167.71 504.4,-154.97"/>
<polygon fill="midnightblue" stroke="midnightblue" points="506.66,-152.3 496.92,-148.13 501.94,-157.46 506.66,-152.3"/>
</g>
<!-- Node24&#45;&gt;Node19 -->
<g id="edge31" class="edge">
<title>Node24&#45;&gt;Node19</title>
<path fill="none" stroke="midnightblue" d="M568.08,-195.73C577.86,-186.78 593.41,-172.54 606.41,-160.63"/>
<polygon fill="midnightblue" stroke="midnightblue" points="609.1,-162.92 614.11,-153.59 604.37,-157.76 609.1,-162.92"/>
</g>
<!-- Node25 -->
<g id="node25" class="node">
<title>Node25</title>
<g id="a_node25"><a xlink:href="http://www.dealii.org/developer/doxygen/deal.II/mapping_8h.html.html" xlink:title=" ">
<polygon fill="none" stroke="black" points="65.5,-129 65.5,-148 179.5,-148 179.5,-129 65.5,-129"/>
<text text-anchor="middle" x="122.5" y="-136" font-family="Helvetica,sans-Serif" font-size="10.00">deal.II/fe/mapping.h</text>
</a>
</g>
</g>
<!-- Node24&#45;&gt;Node25 -->
<g id="edge28" class="edge">
<title>Node24&#45;&gt;Node25</title>
<path fill="none" stroke="midnightblue" d="M489.91,-196.72C415.62,-187.92 293.77,-172.39 189.5,-154 183.12,-152.87 176.42,-151.57 169.82,-150.22"/>
<polygon fill="midnightblue" stroke="midnightblue" points="170.12,-146.7 159.61,-148.07 168.67,-153.55 170.12,-146.7"/>
</g>
<!-- Node26 -->
<g id="node26" class="node">
<title>Node26</title>
<g id="a_node26"><a xlink:href="http://www.dealii.org/developer/doxygen/deal.II/grid_2tria_8h.html.html" xlink:title=" ">
<polygon fill="none" stroke="black" points="198,-129 198,-148 295,-148 295,-129 198,-129"/>
<text text-anchor="middle" x="246.5" y="-136" font-family="Helvetica,sans-Serif" font-size="10.00">deal.II/grid/tria.h</text>
</a>
</g>
</g>
<!-- Node24&#45;&gt;Node26 -->
<g id="edge32" class="edge">
<title>Node24&#45;&gt;Node26</title>
<path fill="none" stroke="midnightblue" d="M512.01,-195.96C460.97,-186.42 376.67,-170.18 304.5,-154 299.56,-152.89 294.4,-151.68 289.28,-150.45"/>
<polygon fill="midnightblue" stroke="midnightblue" points="290.11,-147.04 279.56,-148.06 288.44,-153.84 290.11,-147.04"/>
</g>
<!-- Node27 -->
<g id="node27" class="node">
<title>Node27</title>
<g id="a_node27"><a xlink:title=" ">
<polygon fill="none" stroke="#bfbfbf" points="313.5,-129 313.5,-148 345.5,-148 345.5,-129 313.5,-129"/>
<text text-anchor="middle" x="329.5" y="-136" font-family="Helvetica,sans-Serif" font-size="10.00">set</text>
</a>
</g>
</g>
<!-- Node24&#45;&gt;Node27 -->
<g id="edge33" class="edge">
<title>Node24&#45;&gt;Node27</title>
<path fill="none" stroke="midnightblue" d="M508.97,-195.99C467.15,-187.91 406.16,-174.02 355.5,-154 354.47,-153.59 353.42,-153.15 352.38,-152.68"/>
<polygon fill="midnightblue" stroke="midnightblue" points="353.7,-149.43 343.2,-148.03 350.54,-155.67 353.7,-149.43"/>
</g>
<!-- Node28 -->
<g id="node28" class="node">
<title>Node28</title>
<g id="a_node28"><a xlink:title=" ">
<polygon fill="none" stroke="#bfbfbf" points="364,-129 364,-148 405,-148 405,-129 364,-129"/>
<text text-anchor="middle" x="384.5" y="-136" font-family="Helvetica,sans-Serif" font-size="10.00">tuple</text>
</a>
</g>
</g>
<!-- Node24&#45;&gt;Node28 -->
<g id="edge34" class="edge">
<title>Node24&#45;&gt;Node28</title>
<path fill="none" stroke="midnightblue" d="M531.35,-195.99C502.14,-186.61 454.5,-170.62 414.5,-154 413.3,-153.5 412.08,-152.98 410.85,-152.44"/>
<polygon fill="midnightblue" stroke="midnightblue" points="412.03,-149.13 401.48,-148.12 409.1,-155.49 412.03,-149.13"/>
</g>
<!-- Node29 -->
<g id="node29" class="node">
<title>Node29</title>
<g id="a_node29"><a xlink:title=" ">
<polygon fill="none" stroke="#bfbfbf" points="0,-129 0,-148 47,-148 47,-129 0,-129"/>
<text text-anchor="middle" x="23.5" y="-136" font-family="Helvetica,sans-Serif" font-size="10.00">vector</text>
</a>
</g>
</g>
<!-- Node24&#45;&gt;Node29 -->
<g id="edge35" class="edge">
<title>Node24&#45;&gt;Node29</title>
<path fill="none" stroke="midnightblue" d="M489.91,-204.35C392.12,-202.63 207.71,-193.76 56.5,-154 54.2,-153.4 51.86,-152.65 49.54,-151.82"/>
<polygon fill="midnightblue" stroke="midnightblue" points="50.84,-148.58 40.26,-148.08 48.22,-155.07 50.84,-148.58"/>
</g>
</g>
</svg>
