<?xml version="1.0" encoding="UTF-8" standalone="no"?>
<!DOCTYPE svg PUBLIC "-//W3C//DTD SVG 1.1//EN"
 "http://www.w3.org/Graphics/SVG/1.1/DTD/svg11.dtd">
<!-- Generated by graphviz version 2.43.0 (0)
 -->
<!-- Title: include/parsed_tools/data_out.h Pages: 1 -->
<svg width="1107pt" height="173pt"
 viewBox="0.00 0.00 1107.00 173.00" xmlns="http://www.w3.org/2000/svg" xmlns:xlink="http://www.w3.org/1999/xlink">
<g id="graph0" class="graph" transform="scale(1 1) rotate(0) translate(4 169)">
<title>include/parsed_tools/data_out.h</title>
<!-- Node1 -->
<g id="node1" class="node">
<title>Node1</title>
<g id="a_node1"><a xlink:title=" ">
<polygon fill="#bfbfbf" stroke="black" points="669.5,-134.5 669.5,-164.5 786.5,-164.5 786.5,-134.5 669.5,-134.5"/>
<text text-anchor="start" x="677.5" y="-152.5" font-family="Helvetica,sans-Serif" font-size="10.00">include/parsed_tools</text>
<text text-anchor="middle" x="728" y="-141.5" font-family="Helvetica,sans-Serif" font-size="10.00">/data_out.h</text>
</a>
</g>
</g>
<!-- Node2 -->
<g id="node2" class="node">
<title>Node2</title>
<g id="a_node2"><a xlink:href="distributed__lagrange_8h.html" target="_top" xlink:title=" ">
<polygon fill="none" stroke="black" points="150.5,-67.5 150.5,-97.5 279.5,-97.5 279.5,-67.5 150.5,-67.5"/>
<text text-anchor="start" x="158.5" y="-85.5" font-family="Helvetica,sans-Serif" font-size="10.00">include/pdes/serial</text>
<text text-anchor="middle" x="215" y="-74.5" font-family="Helvetica,sans-Serif" font-size="10.00">/distributed_lagrange.h</text>
</a>
</g>
</g>
<!-- Node1&#45;&gt;Node2 -->
<g id="edge1" class="edge">
<title>Node1&#45;&gt;Node2</title>
<path fill="none" stroke="midnightblue" d="M659.2,-139.78C559.64,-127.17 376.72,-103.99 279.58,-91.68"/>
<polygon fill="midnightblue" stroke="midnightblue" points="658.79,-143.26 669.15,-141.04 659.67,-136.31 658.79,-143.26"/>
</g>
<!-- Node5 -->
<g id="node5" class="node">
<title>Node5</title>
<g id="a_node5"><a xlink:href="linear__elasticity_8h.html" target="_top" xlink:title=" ">
<polygon fill="none" stroke="black" points="421,-67.5 421,-97.5 529,-97.5 529,-67.5 421,-67.5"/>
<text text-anchor="start" x="429" y="-85.5" font-family="Helvetica,sans-Serif" font-size="10.00">include/pdes/serial</text>
<text text-anchor="middle" x="475" y="-74.5" font-family="Helvetica,sans-Serif" font-size="10.00">/linear_elasticity.h</text>
</a>
</g>
</g>
<!-- Node1&#45;&gt;Node5 -->
<g id="edge4" class="edge">
<title>Node1&#45;&gt;Node5</title>
<path fill="none" stroke="midnightblue" d="M663.65,-131.97C622.03,-121.27 568.46,-107.51 529.05,-97.39"/>
<polygon fill="midnightblue" stroke="midnightblue" points="662.86,-135.38 673.41,-134.48 664.6,-128.6 662.86,-135.38"/>
</g>
<!-- Node8 -->
<g id="node8" class="node">
<title>Node8</title>
<g id="a_node8"><a xlink:href="poisson_8h.html" target="_top" xlink:title=" ">
<polygon fill="none" stroke="black" points="611,-67.5 611,-97.5 719,-97.5 719,-67.5 611,-67.5"/>
<text text-anchor="start" x="619" y="-85.5" font-family="Helvetica,sans-Serif" font-size="10.00">include/pdes/serial</text>
<text text-anchor="middle" x="665" y="-74.5" font-family="Helvetica,sans-Serif" font-size="10.00">/poisson.h</text>
</a>
</g>
</g>
<!-- Node1&#45;&gt;Node8 -->
<g id="edge7" class="edge">
<title>Node1&#45;&gt;Node8</title>
<path fill="none" stroke="midnightblue" d="M707.19,-127.02C697.8,-117.34 686.98,-106.17 678.64,-97.58"/>
<polygon fill="midnightblue" stroke="midnightblue" points="704.86,-129.65 714.33,-134.4 709.88,-124.78 704.86,-129.65"/>
</g>
<!-- Node11 -->
<g id="node11" class="node">
<title>Node11</title>
<g id="a_node11"><a xlink:href="stokes_8h.html" target="_top" xlink:title=" ">
<polygon fill="none" stroke="black" points="737,-67.5 737,-97.5 845,-97.5 845,-67.5 737,-67.5"/>
<text text-anchor="start" x="745" y="-85.5" font-family="Helvetica,sans-Serif" font-size="10.00">include/pdes/serial</text>
<text text-anchor="middle" x="791" y="-74.5" font-family="Helvetica,sans-Serif" font-size="10.00">/stokes.h</text>
</a>
</g>
</g>
<!-- Node1&#45;&gt;Node11 -->
<g id="edge10" class="edge">
<title>Node1&#45;&gt;Node11</title>
<path fill="none" stroke="midnightblue" d="M748.81,-127.02C758.2,-117.34 769.02,-106.17 777.36,-97.58"/>
<polygon fill="midnightblue" stroke="midnightblue" points="746.12,-124.78 741.67,-134.4 751.14,-129.65 746.12,-124.78"/>
</g>
<!-- Node14 -->
<g id="node14" class="node">
<title>Node14</title>
<g id="a_node14"><a xlink:href="data__out_8cc.html" target="_top" xlink:title=" ">
<polygon fill="none" stroke="black" points="863,-73 863,-92 971,-92 971,-73 863,-73"/>
<text text-anchor="middle" x="917" y="-80" font-family="Helvetica,sans-Serif" font-size="10.00">source/data_out.cc</text>
</a>
</g>
</g>
<!-- Node1&#45;&gt;Node14 -->
<g id="edge13" class="edge">
<title>Node1&#45;&gt;Node14</title>
<path fill="none" stroke="midnightblue" d="M778.57,-131.11C815.34,-118.46 863.52,-101.89 892.26,-92.01"/>
<polygon fill="midnightblue" stroke="midnightblue" points="777.33,-127.83 769.01,-134.4 779.6,-134.45 777.33,-127.83"/>
</g>
<!-- Node15 -->
<g id="node15" class="node">
<title>Node15</title>
<g id="a_node15"><a xlink:href="dof__plotter_8cc.html" target="_top" xlink:title=" ">
<polygon fill="none" stroke="black" points="989,-73 989,-92 1099,-92 1099,-73 989,-73"/>
<text text-anchor="middle" x="1044" y="-80" font-family="Helvetica,sans-Serif" font-size="10.00">apps/dof_plotter.cc</text>
</a>
</g>
</g>
<!-- Node1&#45;&gt;Node15 -->
<g id="edge14" class="edge">
<title>Node1&#45;&gt;Node15</title>
<path fill="none" stroke="midnightblue" d="M796.51,-135.25C847.25,-125.32 918.02,-111.23 980,-98 988.8,-96.12 998.27,-94.02 1007.15,-92.02"/>
<polygon fill="midnightblue" stroke="midnightblue" points="795.79,-131.83 786.64,-137.18 797.13,-138.7 795.79,-131.83"/>
</g>
<!-- Node3 -->
<g id="node3" class="node">
<title>Node3</title>
<g id="a_node3"><a xlink:href="source_2pdes_2serial_2distributed__lagrange_8cc.html" target="_top" xlink:title=" ">
<polygon fill="none" stroke="black" points="0,-0.5 0,-30.5 134,-30.5 134,-0.5 0,-0.5"/>
<text text-anchor="start" x="8" y="-18.5" font-family="Helvetica,sans-Serif" font-size="10.00">source/pdes/serial</text>
<text text-anchor="middle" x="67" y="-7.5" font-family="Helvetica,sans-Serif" font-size="10.00">/distributed_lagrange.cc</text>
</a>
</g>
</g>
<!-- Node2&#45;&gt;Node3 -->
<g id="edge2" class="edge">
<title>Node2&#45;&gt;Node3</title>
<path fill="none" stroke="midnightblue" d="M173.49,-63.27C149.92,-52.92 120.86,-40.15 99.05,-30.58"/>
<polygon fill="midnightblue" stroke="midnightblue" points="172.32,-66.58 182.89,-67.4 175.14,-60.17 172.32,-66.58"/>
</g>
<!-- Node4 -->
<g id="node4" class="node">
<title>Node4</title>
<g id="a_node4"><a xlink:href="apps_2serial_2distributed__lagrange_8cc.html" target="_top" xlink:title=" ">
<polygon fill="none" stroke="black" points="152.5,-0.5 152.5,-30.5 277.5,-30.5 277.5,-0.5 152.5,-0.5"/>
<text text-anchor="start" x="160.5" y="-18.5" font-family="Helvetica,sans-Serif" font-size="10.00">apps/serial/distributed</text>
<text text-anchor="middle" x="215" y="-7.5" font-family="Helvetica,sans-Serif" font-size="10.00">_lagrange.cc</text>
</a>
</g>
</g>
<!-- Node2&#45;&gt;Node4 -->
<g id="edge3" class="edge">
<title>Node2&#45;&gt;Node4</title>
<path fill="none" stroke="midnightblue" d="M215,-57.11C215,-48.15 215,-38.32 215,-30.58"/>
<polygon fill="midnightblue" stroke="midnightblue" points="211.5,-57.4 215,-67.4 218.5,-57.4 211.5,-57.4"/>
</g>
<!-- Node6 -->
<g id="node6" class="node">
<title>Node6</title>
<g id="a_node6"><a xlink:href="source_2pdes_2serial_2linear__elasticity_8cc.html" target="_top" xlink:title=" ">
<polygon fill="none" stroke="black" points="296,-0.5 296,-30.5 406,-30.5 406,-0.5 296,-0.5"/>
<text text-anchor="start" x="304" y="-18.5" font-family="Helvetica,sans-Serif" font-size="10.00">source/pdes/serial</text>
<text text-anchor="middle" x="351" y="-7.5" font-family="Helvetica,sans-Serif" font-size="10.00">/linear_elasticity.cc</text>
</a>
</g>
</g>
<!-- Node5&#45;&gt;Node6 -->
<g id="edge5" class="edge">
<title>Node5&#45;&gt;Node6</title>
<path fill="none" stroke="midnightblue" d="M439.16,-62.71C419.61,-52.46 395.8,-39.98 377.85,-30.58"/>
<polygon fill="midnightblue" stroke="midnightblue" points="437.61,-65.85 448.09,-67.4 440.86,-59.65 437.61,-65.85"/>
</g>
<!-- Node7 -->
<g id="node7" class="node">
<title>Node7</title>
<g id="a_node7"><a xlink:href="apps_2serial_2linear__elasticity_8cc.html" target="_top" xlink:title=" ">
<polygon fill="none" stroke="black" points="424.5,-0.5 424.5,-30.5 525.5,-30.5 525.5,-0.5 424.5,-0.5"/>
<text text-anchor="start" x="432.5" y="-18.5" font-family="Helvetica,sans-Serif" font-size="10.00">apps/serial/linear</text>
<text text-anchor="middle" x="475" y="-7.5" font-family="Helvetica,sans-Serif" font-size="10.00">_elasticity.cc</text>
</a>
</g>
</g>
<!-- Node5&#45;&gt;Node7 -->
<g id="edge6" class="edge">
<title>Node5&#45;&gt;Node7</title>
<path fill="none" stroke="midnightblue" d="M475,-57.11C475,-48.15 475,-38.32 475,-30.58"/>
<polygon fill="midnightblue" stroke="midnightblue" points="471.5,-57.4 475,-67.4 478.5,-57.4 471.5,-57.4"/>
</g>
<!-- Node9 -->
<g id="node9" class="node">
<title>Node9</title>
<g id="a_node9"><a xlink:href="source_2pdes_2serial_2poisson_8cc.html" target="_top" xlink:title=" ">
<polygon fill="none" stroke="black" points="543.5,-0.5 543.5,-30.5 648.5,-30.5 648.5,-0.5 543.5,-0.5"/>
<text text-anchor="start" x="551.5" y="-18.5" font-family="Helvetica,sans-Serif" font-size="10.00">source/pdes/serial</text>
<text text-anchor="middle" x="596" y="-7.5" font-family="Helvetica,sans-Serif" font-size="10.00">/poisson.cc</text>
</a>
</g>
</g>
<!-- Node8&#45;&gt;Node9 -->
<g id="edge8" class="edge">
<title>Node8&#45;&gt;Node9</title>
<path fill="none" stroke="midnightblue" d="M642.51,-60.31C632.16,-50.56 620.16,-39.26 610.94,-30.58"/>
<polygon fill="midnightblue" stroke="midnightblue" points="640.35,-63.09 650.03,-67.4 645.15,-57.99 640.35,-63.09"/>
</g>
<!-- Node10 -->
<g id="node10" class="node">
<title>Node10</title>
<g id="a_node10"><a xlink:href="apps_2serial_2poisson_8cc.html" target="_top" xlink:title=" ">
<polygon fill="none" stroke="black" points="667,-6 667,-25 791,-25 791,-6 667,-6"/>
<text text-anchor="middle" x="729" y="-13" font-family="Helvetica,sans-Serif" font-size="10.00">apps/serial/poisson.cc</text>
</a>
</g>
</g>
<!-- Node8&#45;&gt;Node10 -->
<g id="edge9" class="edge">
<title>Node8&#45;&gt;Node10</title>
<path fill="none" stroke="midnightblue" d="M686.17,-60C697.85,-48.13 711.72,-34.05 720.44,-25.19"/>
<polygon fill="midnightblue" stroke="midnightblue" points="683.41,-57.81 678.89,-67.4 688.4,-62.73 683.41,-57.81"/>
</g>
<!-- Node12 -->
<g id="node12" class="node">
<title>Node12</title>
<g id="a_node12"><a xlink:href="source_2pdes_2serial_2stokes_8cc.html" target="_top" xlink:title=" ">
<polygon fill="none" stroke="black" points="809.5,-0.5 809.5,-30.5 914.5,-30.5 914.5,-0.5 809.5,-0.5"/>
<text text-anchor="start" x="817.5" y="-18.5" font-family="Helvetica,sans-Serif" font-size="10.00">source/pdes/serial</text>
<text text-anchor="middle" x="862" y="-7.5" font-family="Helvetica,sans-Serif" font-size="10.00">/stokes.cc</text>
</a>
</g>
</g>
<!-- Node11&#45;&gt;Node12 -->
<g id="edge11" class="edge">
<title>Node11&#45;&gt;Node12</title>
<path fill="none" stroke="midnightblue" d="M813.83,-60.6C824.55,-50.78 837.05,-39.34 846.62,-30.58"/>
<polygon fill="midnightblue" stroke="midnightblue" points="811.42,-58.06 806.41,-67.4 816.15,-63.22 811.42,-58.06"/>
</g>
<!-- Node13 -->
<g id="node13" class="node">
<title>Node13</title>
<g id="a_node13"><a xlink:href="apps_2serial_2stokes_8cc.html" target="_top" xlink:title=" ">
<polygon fill="none" stroke="black" points="933,-6 933,-25 1051,-25 1051,-6 933,-6"/>
<text text-anchor="middle" x="992" y="-13" font-family="Helvetica,sans-Serif" font-size="10.00">apps/serial/stokes.cc</text>
</a>
</g>
</g>
<!-- Node11&#45;&gt;Node13 -->
<g id="edge12" class="edge">
<title>Node11&#45;&gt;Node13</title>
<path fill="none" stroke="midnightblue" d="M844.28,-64.27C883.45,-51.6 935,-34.93 965.69,-25.01"/>
<polygon fill="midnightblue" stroke="midnightblue" points="843.05,-60.99 834.61,-67.4 845.21,-67.65 843.05,-60.99"/>
</g>
</g>
</svg>
