<?xml version="1.0" encoding="UTF-8" standalone="no"?>
<!DOCTYPE svg PUBLIC "-//W3C//DTD SVG 1.1//EN"
 "http://www.w3.org/Graphics/SVG/1.1/DTD/svg11.dtd">
<!-- Generated by graphviz version 2.43.0 (0)
 -->
<!-- Title: include/parsed_tools/data_out.h Pages: 1 -->
<svg width="1432pt" height="240pt"
 viewBox="0.00 0.00 1432.00 240.00" xmlns="http://www.w3.org/2000/svg" xmlns:xlink="http://www.w3.org/1999/xlink">
<g id="graph0" class="graph" transform="scale(1 1) rotate(0) translate(4 236)">
<title>include/parsed_tools/data_out.h</title>
<!-- Node1 -->
<g id="node1" class="node">
<title>Node1</title>
<g id="a_node1"><a xlink:title=" ">
<polygon fill="#bfbfbf" stroke="black" points="609.5,-201.5 609.5,-231.5 726.5,-231.5 726.5,-201.5 609.5,-201.5"/>
<text text-anchor="start" x="617.5" y="-219.5" font-family="Helvetica,sans-Serif" font-size="10.00">include/parsed_tools</text>
<text text-anchor="middle" x="668" y="-208.5" font-family="Helvetica,sans-Serif" font-size="10.00">/data_out.h</text>
</a>
</g>
</g>
<!-- Node2 -->
<g id="node2" class="node">
<title>Node2</title>
<g id="a_node2"><a target="_parent" xlink:href="http://www.dealii.org/developer/doxygen/deal.II/config_8h.html.html" xlink:title=" ">
<polygon fill="none" stroke="black" points="0,-140 0,-159 114,-159 114,-140 0,-140"/>
<text text-anchor="middle" x="57" y="-147" font-family="Helvetica,sans-Serif" font-size="10.00">deal.II/base/config.h</text>
</a>
</g>
</g>
<!-- Node1&#45;&gt;Node2 -->
<g id="edge1" class="edge">
<title>Node1&#45;&gt;Node2</title>
<path fill="none" stroke="midnightblue" d="M609.23,-212.45C509.01,-206.71 298.82,-192.35 123,-165 116.22,-163.95 109.1,-162.62 102.14,-161.19"/>
<polygon fill="midnightblue" stroke="midnightblue" points="102.64,-157.72 92.13,-159.06 101.18,-164.57 102.64,-157.72"/>
</g>
<!-- Node3 -->
<g id="node3" class="node">
<title>Node3</title>
<g id="a_node3"><a target="_parent" xlink:href="http://www.dealii.org/developer/doxygen/deal.II/logstream_8h.html.html" xlink:title=" ">
<polygon fill="none" stroke="black" points="132,-140 132,-159 266,-159 266,-140 132,-140"/>
<text text-anchor="middle" x="199" y="-147" font-family="Helvetica,sans-Serif" font-size="10.00">deal.II/base/logstream.h</text>
</a>
</g>
</g>
<!-- Node1&#45;&gt;Node3 -->
<g id="edge2" class="edge">
<title>Node1&#45;&gt;Node3</title>
<path fill="none" stroke="midnightblue" d="M609.25,-209.08C532.28,-200.41 393.2,-183.85 275,-165 267.26,-163.77 259.1,-162.34 251.11,-160.88"/>
<polygon fill="midnightblue" stroke="midnightblue" points="251.6,-157.41 241.13,-159.01 250.32,-164.29 251.6,-157.41"/>
</g>
<!-- Node4 -->
<g id="node4" class="node">
<title>Node4</title>
<g id="a_node4"><a target="_parent" xlink:href="http://www.dealii.org/developer/doxygen/deal.II/mpi_8h.html.html" xlink:title=" ">
<polygon fill="none" stroke="black" points="284,-140 284,-159 388,-159 388,-140 284,-140"/>
<text text-anchor="middle" x="336" y="-147" font-family="Helvetica,sans-Serif" font-size="10.00">deal.II/base/mpi.h</text>
</a>
</g>
</g>
<!-- Node1&#45;&gt;Node4 -->
<g id="edge3" class="edge">
<title>Node1&#45;&gt;Node4</title>
<path fill="none" stroke="midnightblue" d="M609.27,-204.85C555.3,-194.94 473.15,-179.57 402,-165 396.18,-163.81 390.09,-162.52 384.05,-161.22"/>
<polygon fill="midnightblue" stroke="midnightblue" points="384.52,-157.74 374,-159.04 383.03,-164.59 384.52,-157.74"/>
</g>
<!-- Node5 -->
<g id="node5" class="node">
<title>Node5</title>
<g id="a_node5"><a target="_parent" xlink:href="http://www.dealii.org/developer/doxygen/deal.II/parameter__acceptor_8h.html.html" xlink:title=" ">
<polygon fill="none" stroke="black" points="352.5,-0.5 352.5,-30.5 479.5,-30.5 479.5,-0.5 352.5,-0.5"/>
<text text-anchor="start" x="360.5" y="-18.5" font-family="Helvetica,sans-Serif" font-size="10.00">deal.II/base/parameter</text>
<text text-anchor="middle" x="416" y="-7.5" font-family="Helvetica,sans-Serif" font-size="10.00">_acceptor.h</text>
</a>
</g>
</g>
<!-- Node1&#45;&gt;Node5 -->
<g id="edge4" class="edge">
<title>Node1&#45;&gt;Node5</title>
<path fill="none" stroke="midnightblue" d="M609.36,-210.43C548.2,-203.87 458.08,-190.16 435,-165 403.9,-131.1 406.72,-73.09 411.43,-40.52"/>
<polygon fill="midnightblue" stroke="midnightblue" points="414.9,-40.95 413.05,-30.51 407.99,-39.83 414.9,-40.95"/>
</g>
<!-- Node6 -->
<g id="node6" class="node">
<title>Node6</title>
<g id="a_node6"><a target="_parent" xlink:href="http://www.dealii.org/developer/doxygen/deal.II/dof__handler_8h.html.html" xlink:title=" ">
<polygon fill="none" stroke="black" points="444,-140 444,-159 584,-159 584,-140 444,-140"/>
<text text-anchor="middle" x="514" y="-147" font-family="Helvetica,sans-Serif" font-size="10.00">deal.II/dofs/dof_handler.h</text>
</a>
</g>
</g>
<!-- Node1&#45;&gt;Node6 -->
<g id="edge5" class="edge">
<title>Node1&#45;&gt;Node6</title>
<path fill="none" stroke="midnightblue" d="M634.58,-201.4C607.44,-189.94 569.53,-173.94 543.5,-162.95"/>
<polygon fill="midnightblue" stroke="midnightblue" points="544.73,-159.67 534.16,-159.01 542.01,-166.12 544.73,-159.67"/>
</g>
<!-- Node9 -->
<g id="node9" class="node">
<title>Node9</title>
<g id="a_node9"><a target="_parent" xlink:href="http://www.dealii.org/developer/doxygen/deal.II/mapping__q1_8h.html.html" xlink:title=" ">
<polygon fill="none" stroke="black" points="602.5,-140 602.5,-159 733.5,-159 733.5,-140 602.5,-140"/>
<text text-anchor="middle" x="668" y="-147" font-family="Helvetica,sans-Serif" font-size="10.00">deal.II/fe/mapping_q1.h</text>
</a>
</g>
</g>
<!-- Node1&#45;&gt;Node9 -->
<g id="edge9" class="edge">
<title>Node1&#45;&gt;Node9</title>
<path fill="none" stroke="midnightblue" d="M668,-201.4C668,-192.06 668,-179.71 668,-169.52"/>
<polygon fill="midnightblue" stroke="midnightblue" points="671.5,-169.19 668,-159.19 664.5,-169.19 671.5,-169.19"/>
</g>
<!-- Node10 -->
<g id="node10" class="node">
<title>Node10</title>
<g id="a_node10"><a target="_parent" xlink:href="http://www.dealii.org/developer/doxygen/deal.II/grid_2tria_8h.html.html" xlink:title=" ">
<polygon fill="none" stroke="black" points="751.5,-140 751.5,-159 848.5,-159 848.5,-140 751.5,-140"/>
<text text-anchor="middle" x="800" y="-147" font-family="Helvetica,sans-Serif" font-size="10.00">deal.II/grid/tria.h</text>
</a>
</g>
</g>
<!-- Node1&#45;&gt;Node10 -->
<g id="edge10" class="edge">
<title>Node1&#45;&gt;Node10</title>
<path fill="none" stroke="midnightblue" d="M696.64,-201.4C719.5,-190.14 751.26,-174.5 773.52,-163.54"/>
<polygon fill="midnightblue" stroke="midnightblue" points="775.3,-166.56 782.72,-159.01 772.21,-160.28 775.3,-166.56"/>
</g>
<!-- Node11 -->
<g id="node11" class="node">
<title>Node11</title>
<g id="a_node11"><a target="_parent" xlink:href="http://www.dealii.org/developer/doxygen/deal.II/numerics_2data__out_8h.html.html" xlink:title=" ">
<polygon fill="none" stroke="black" points="866.5,-134.5 866.5,-164.5 985.5,-164.5 985.5,-134.5 866.5,-134.5"/>
<text text-anchor="start" x="874.5" y="-152.5" font-family="Helvetica,sans-Serif" font-size="10.00">deal.II/numerics/data</text>
<text text-anchor="middle" x="926" y="-141.5" font-family="Helvetica,sans-Serif" font-size="10.00">_out.h</text>
</a>
</g>
</g>
<!-- Node1&#45;&gt;Node11 -->
<g id="edge11" class="edge">
<title>Node1&#45;&gt;Node11</title>
<path fill="none" stroke="midnightblue" d="M723.66,-201.48C763.71,-191.39 817.87,-177.74 860.08,-167.11"/>
<polygon fill="midnightblue" stroke="midnightblue" points="861.15,-170.45 869.99,-164.61 859.44,-163.66 861.15,-170.45"/>
</g>
<!-- Node12 -->
<g id="node12" class="node">
<title>Node12</title>
<g id="a_node12"><a xlink:title=" ">
<polygon fill="none" stroke="#bfbfbf" points="1004,-140 1004,-159 1072,-159 1072,-140 1004,-140"/>
<text text-anchor="middle" x="1038" y="-147" font-family="Helvetica,sans-Serif" font-size="10.00">filesystem</text>
</a>
</g>
</g>
<!-- Node1&#45;&gt;Node12 -->
<g id="edge12" class="edge">
<title>Node1&#45;&gt;Node12</title>
<path fill="none" stroke="midnightblue" d="M726.57,-209.37C792.26,-201.82 901.7,-187.2 994,-165 997.47,-164.17 1001.05,-163.19 1004.61,-162.14"/>
<polygon fill="midnightblue" stroke="midnightblue" points="1005.96,-165.38 1014.46,-159.05 1003.87,-158.7 1005.96,-165.38"/>
</g>
<!-- Node13 -->
<g id="node13" class="node">
<title>Node13</title>
<g id="a_node13"><a xlink:title=" ">
<polygon fill="none" stroke="#bfbfbf" points="1090.5,-140 1090.5,-159 1145.5,-159 1145.5,-140 1090.5,-140"/>
<text text-anchor="middle" x="1118" y="-147" font-family="Helvetica,sans-Serif" font-size="10.00">fstream</text>
</a>
</g>
</g>
<!-- Node1&#45;&gt;Node13 -->
<g id="edge13" class="edge">
<title>Node1&#45;&gt;Node13</title>
<path fill="none" stroke="midnightblue" d="M726.65,-212.97C807.49,-208.45 957.22,-196.29 1081,-165 1083.67,-164.33 1086.4,-163.51 1089.12,-162.61"/>
<polygon fill="midnightblue" stroke="midnightblue" points="1090.52,-165.83 1098.72,-159.12 1088.12,-159.25 1090.52,-165.83"/>
</g>
<!-- Node14 -->
<g id="node14" class="node">
<title>Node14</title>
<g id="a_node14"><a xlink:href="enum_8h.html" target="_top" xlink:title=" ">
<polygon fill="none" stroke="black" points="1163.5,-140 1163.5,-159 1282.5,-159 1282.5,-140 1163.5,-140"/>
<text text-anchor="middle" x="1223" y="-147" font-family="Helvetica,sans-Serif" font-size="10.00">parsed_tools/enum.h</text>
</a>
</g>
</g>
<!-- Node1&#45;&gt;Node14 -->
<g id="edge14" class="edge">
<title>Node1&#45;&gt;Node14</title>
<path fill="none" stroke="midnightblue" d="M726.73,-211.44C818.52,-204.65 1001.35,-189.28 1155,-165 1161.89,-163.91 1169.13,-162.58 1176.22,-161.16"/>
<polygon fill="midnightblue" stroke="midnightblue" points="1177.35,-164.5 1186.43,-159.05 1175.93,-157.65 1177.35,-164.5"/>
</g>
<!-- Node7 -->
<g id="node7" class="node">
<title>Node7</title>
<g id="a_node7"><a xlink:href="function_8h.html" target="_top" xlink:title=" ">
<polygon fill="none" stroke="black" points="451.5,-73 451.5,-92 576.5,-92 576.5,-73 451.5,-73"/>
<text text-anchor="middle" x="514" y="-80" font-family="Helvetica,sans-Serif" font-size="10.00">deal.II/base/function.h</text>
</a>
</g>
</g>
<!-- Node6&#45;&gt;Node7 -->
<g id="edge6" class="edge">
<title>Node6&#45;&gt;Node7</title>
<path fill="none" stroke="midnightblue" d="M514,-139.73C514,-130.18 514,-114.62 514,-102.28"/>
<polygon fill="midnightblue" stroke="midnightblue" points="517.5,-102.13 514,-92.13 510.5,-102.13 517.5,-102.13"/>
</g>
<!-- Node7&#45;&gt;Node5 -->
<g id="edge8" class="edge">
<title>Node7&#45;&gt;Node5</title>
<path fill="none" stroke="midnightblue" d="M500.78,-72.73C486.77,-63.44 464.19,-48.46 445.85,-36.3"/>
<polygon fill="midnightblue" stroke="midnightblue" points="447.51,-33.2 437.24,-30.59 443.64,-39.03 447.51,-33.2"/>
</g>
<!-- Node8 -->
<g id="node8" class="node">
<title>Node8</title>
<g id="a_node8"><a target="_parent" xlink:href="http://www.dealii.org/developer/doxygen/deal.II/function__parser_8h.html.html" xlink:title=" ">
<polygon fill="none" stroke="black" points="498,-0.5 498,-30.5 614,-30.5 614,-0.5 498,-0.5"/>
<text text-anchor="start" x="506" y="-18.5" font-family="Helvetica,sans-Serif" font-size="10.00">deal.II/base/function</text>
<text text-anchor="middle" x="556" y="-7.5" font-family="Helvetica,sans-Serif" font-size="10.00">_parser.h</text>
</a>
</g>
</g>
<!-- Node7&#45;&gt;Node8 -->
<g id="edge7" class="edge">
<title>Node7&#45;&gt;Node8</title>
<path fill="none" stroke="midnightblue" d="M519.66,-72.73C525.23,-64.12 533.96,-50.61 541.47,-38.99"/>
<polygon fill="midnightblue" stroke="midnightblue" points="544.41,-40.89 546.9,-30.59 538.53,-37.09 544.41,-40.89"/>
</g>
<!-- Node15 -->
<g id="node15" class="node">
<title>Node15</title>
<g id="a_node15"><a target="_parent" xlink:href="http://www.dealii.org/developer/doxygen/deal.II/patterns_8h.html.html" xlink:title=" ">
<polygon fill="none" stroke="black" points="1008.5,-73 1008.5,-92 1133.5,-92 1133.5,-73 1008.5,-73"/>
<text text-anchor="middle" x="1071" y="-80" font-family="Helvetica,sans-Serif" font-size="10.00">deal.II/base/patterns.h</text>
</a>
</g>
</g>
<!-- Node14&#45;&gt;Node15 -->
<g id="edge15" class="edge">
<title>Node14&#45;&gt;Node15</title>
<path fill="none" stroke="midnightblue" d="M1202.82,-139.87C1176.7,-128.7 1130.97,-109.15 1100.84,-96.26"/>
<polygon fill="midnightblue" stroke="midnightblue" points="1101.84,-92.88 1091.27,-92.17 1099.09,-99.32 1101.84,-92.88"/>
</g>
<!-- Node16 -->
<g id="node16" class="node">
<title>Node16</title>
<g id="a_node16"><a target="_parent" xlink:href="http://www.dealii.org/developer/doxygen/deal.II/sd_8h.html.html" xlink:title=" ">
<polygon fill="none" stroke="black" points="1152,-73 1152,-92 1294,-92 1294,-73 1152,-73"/>
<text text-anchor="middle" x="1223" y="-80" font-family="Helvetica,sans-Serif" font-size="10.00">deal.II/differentiation/sd.h</text>
</a>
</g>
</g>
<!-- Node14&#45;&gt;Node16 -->
<g id="edge16" class="edge">
<title>Node14&#45;&gt;Node16</title>
<path fill="none" stroke="midnightblue" d="M1223,-139.73C1223,-130.18 1223,-114.62 1223,-102.28"/>
<polygon fill="midnightblue" stroke="midnightblue" points="1226.5,-102.13 1223,-92.13 1219.5,-102.13 1226.5,-102.13"/>
</g>
<!-- Node17 -->
<g id="node17" class="node">
<title>Node17</title>
<g id="a_node17"><a xlink:title=" ">
<polygon fill="none" stroke="#bfbfbf" points="1312,-67.5 1312,-97.5 1424,-97.5 1424,-67.5 1312,-67.5"/>
<text text-anchor="start" x="1320" y="-85.5" font-family="Helvetica,sans-Serif" font-size="10.00">parsed_tools/magic</text>
<text text-anchor="middle" x="1368" y="-74.5" font-family="Helvetica,sans-Serif" font-size="10.00">_enum.hpp</text>
</a>
</g>
</g>
<!-- Node14&#45;&gt;Node17 -->
<g id="edge17" class="edge">
<title>Node14&#45;&gt;Node17</title>
<path fill="none" stroke="midnightblue" d="M1242.25,-139.87C1263.82,-130.2 1299.41,-114.25 1327.23,-101.78"/>
<polygon fill="midnightblue" stroke="midnightblue" points="1329.01,-104.81 1336.71,-97.53 1326.15,-98.42 1329.01,-104.81"/>
</g>
</g>
</svg>
