<?xml version="1.0" encoding="UTF-8" standalone="no"?>
<!DOCTYPE svg PUBLIC "-//W3C//DTD SVG 1.1//EN"
 "http://www.w3.org/Graphics/SVG/1.1/DTD/svg11.dtd">
<!-- Generated by graphviz version 2.43.0 (0)
 -->
<!-- Title: include/parsed_tools/data_out.h Pages: 1 -->
<svg width="2231pt" height="240pt"
 viewBox="0.00 0.00 2231.00 240.00" xmlns="http://www.w3.org/2000/svg" xmlns:xlink="http://www.w3.org/1999/xlink">
<g id="graph0" class="graph" transform="scale(1 1) rotate(0) translate(4 236)">
<title>include/parsed_tools/data_out.h</title>
<!-- Node1 -->
<g id="node1" class="node">
<title>Node1</title>
<g id="a_node1"><a xlink:title=" ">
<polygon fill="#bfbfbf" stroke="black" points="1634,-201.5 1634,-231.5 1751,-231.5 1751,-201.5 1634,-201.5"/>
<text text-anchor="start" x="1642" y="-219.5" font-family="Helvetica,sans-Serif" font-size="10.00">include/parsed_tools</text>
<text text-anchor="middle" x="1692.5" y="-208.5" font-family="Helvetica,sans-Serif" font-size="10.00">/data_out.h</text>
</a>
</g>
</g>
<!-- Node2 -->
<g id="node2" class="node">
<title>Node2</title>
<g id="a_node2"><a xlink:href="linear__problem_8h.html" target="_top" xlink:title=" ">
<polygon fill="none" stroke="black" points="789,-134.5 789,-164.5 898,-164.5 898,-134.5 789,-134.5"/>
<text text-anchor="start" x="797" y="-152.5" font-family="Helvetica,sans-Serif" font-size="10.00">include/pdes/linear</text>
<text text-anchor="middle" x="843.5" y="-141.5" font-family="Helvetica,sans-Serif" font-size="10.00">_problem.h</text>
</a>
</g>
</g>
<!-- Node1&#45;&gt;Node2 -->
<g id="edge1" class="edge">
<title>Node1&#45;&gt;Node2</title>
<path fill="none" stroke="midnightblue" d="M1623.83,-210.24C1459.61,-197.67 1046.84,-166.07 898.04,-154.68"/>
<polygon fill="midnightblue" stroke="midnightblue" points="1623.57,-213.73 1633.81,-211.01 1624.11,-206.75 1623.57,-213.73"/>
</g>
<!-- Node10 -->
<g id="node10" class="node">
<title>Node10</title>
<g id="a_node10"><a xlink:href="distributed__lagrange_8h.html" target="_top" xlink:title=" ">
<polygon fill="none" stroke="black" points="985,-67.5 985,-97.5 1114,-97.5 1114,-67.5 985,-67.5"/>
<text text-anchor="start" x="993" y="-85.5" font-family="Helvetica,sans-Serif" font-size="10.00">include/pdes/serial</text>
<text text-anchor="middle" x="1049.5" y="-74.5" font-family="Helvetica,sans-Serif" font-size="10.00">/distributed_lagrange.h</text>
</a>
</g>
</g>
<!-- Node1&#45;&gt;Node10 -->
<g id="edge16" class="edge">
<title>Node1&#45;&gt;Node10</title>
<path fill="none" stroke="midnightblue" d="M1623.81,-212.57C1538.5,-207.76 1388.99,-195.45 1264.5,-165 1196.26,-148.31 1120.23,-116.05 1079.37,-97.51"/>
<polygon fill="midnightblue" stroke="midnightblue" points="1623.72,-216.07 1633.89,-213.12 1624.1,-209.08 1623.72,-216.07"/>
</g>
<!-- Node17 -->
<g id="node17" class="node">
<title>Node17</title>
<g id="a_node17"><a xlink:href="serial_2poisson_8h.html" target="_top" xlink:title=" ">
<polygon fill="none" stroke="black" points="1273.5,-134.5 1273.5,-164.5 1381.5,-164.5 1381.5,-134.5 1273.5,-134.5"/>
<text text-anchor="start" x="1281.5" y="-152.5" font-family="Helvetica,sans-Serif" font-size="10.00">include/pdes/serial</text>
<text text-anchor="middle" x="1327.5" y="-141.5" font-family="Helvetica,sans-Serif" font-size="10.00">/poisson.h</text>
</a>
</g>
</g>
<!-- Node1&#45;&gt;Node17 -->
<g id="edge17" class="edge">
<title>Node1&#45;&gt;Node17</title>
<path fill="none" stroke="midnightblue" d="M1623.77,-203.26C1553.54,-190.75 1445.9,-171.59 1381.53,-160.12"/>
<polygon fill="midnightblue" stroke="midnightblue" points="1623.4,-206.75 1633.86,-205.06 1624.62,-199.86 1623.4,-206.75"/>
</g>
<!-- Node20 -->
<g id="node20" class="node">
<title>Node20</title>
<g id="a_node20"><a xlink:href="poisson__nitsche__interface_8h.html" target="_top" xlink:title=" ">
<polygon fill="none" stroke="black" points="1538,-134.5 1538,-164.5 1693,-164.5 1693,-134.5 1538,-134.5"/>
<text text-anchor="start" x="1546" y="-152.5" font-family="Helvetica,sans-Serif" font-size="10.00">include/pdes/serial</text>
<text text-anchor="middle" x="1615.5" y="-141.5" font-family="Helvetica,sans-Serif" font-size="10.00">/poisson_nitsche_interface.h</text>
</a>
</g>
</g>
<!-- Node1&#45;&gt;Node20 -->
<g id="edge20" class="edge">
<title>Node1&#45;&gt;Node20</title>
<path fill="none" stroke="midnightblue" d="M1668.08,-194.88C1656.38,-185.01 1642.66,-173.43 1632.18,-164.58"/>
<polygon fill="midnightblue" stroke="midnightblue" points="1665.89,-197.62 1675.79,-201.4 1670.41,-192.27 1665.89,-197.62"/>
</g>
<!-- Node23 -->
<g id="node23" class="node">
<title>Node23</title>
<g id="a_node23"><a xlink:href="reduced__lagrange_8h.html" target="_top" xlink:title=" ">
<polygon fill="none" stroke="black" points="1711.5,-134.5 1711.5,-164.5 1827.5,-164.5 1827.5,-134.5 1711.5,-134.5"/>
<text text-anchor="start" x="1719.5" y="-152.5" font-family="Helvetica,sans-Serif" font-size="10.00">include/pdes/serial</text>
<text text-anchor="middle" x="1769.5" y="-141.5" font-family="Helvetica,sans-Serif" font-size="10.00">/reduced_lagrange.h</text>
</a>
</g>
</g>
<!-- Node1&#45;&gt;Node23 -->
<g id="edge23" class="edge">
<title>Node1&#45;&gt;Node23</title>
<path fill="none" stroke="midnightblue" d="M1716.92,-194.88C1728.62,-185.01 1742.34,-173.43 1752.82,-164.58"/>
<polygon fill="midnightblue" stroke="midnightblue" points="1714.59,-192.27 1709.21,-201.4 1719.11,-197.62 1714.59,-192.27"/>
</g>
<!-- Node26 -->
<g id="node26" class="node">
<title>Node26</title>
<g id="a_node26"><a xlink:href="serial_2stokes_8h.html" target="_top" xlink:title=" ">
<polygon fill="none" stroke="black" points="1845.5,-134.5 1845.5,-164.5 1953.5,-164.5 1953.5,-134.5 1845.5,-134.5"/>
<text text-anchor="start" x="1853.5" y="-152.5" font-family="Helvetica,sans-Serif" font-size="10.00">include/pdes/serial</text>
<text text-anchor="middle" x="1899.5" y="-141.5" font-family="Helvetica,sans-Serif" font-size="10.00">/stokes.h</text>
</a>
</g>
</g>
<!-- Node1&#45;&gt;Node26 -->
<g id="edge26" class="edge">
<title>Node1&#45;&gt;Node26</title>
<path fill="none" stroke="midnightblue" d="M1746.82,-198.44C1780.37,-187.91 1822.91,-174.55 1854.56,-164.61"/>
<polygon fill="midnightblue" stroke="midnightblue" points="1745.65,-195.14 1737.16,-201.48 1747.75,-201.82 1745.65,-195.14"/>
</g>
<!-- Node29 -->
<g id="node29" class="node">
<title>Node29</title>
<g id="a_node29"><a xlink:href="data__out_8cc.html" target="_top" xlink:title=" ">
<polygon fill="none" stroke="black" points="1971.5,-140 1971.5,-159 2079.5,-159 2079.5,-140 1971.5,-140"/>
<text text-anchor="middle" x="2025.5" y="-147" font-family="Helvetica,sans-Serif" font-size="10.00">source/data_out.cc</text>
</a>
</g>
</g>
<!-- Node1&#45;&gt;Node29 -->
<g id="edge29" class="edge">
<title>Node1&#45;&gt;Node29</title>
<path fill="none" stroke="midnightblue" d="M1761.02,-203.49C1815.69,-193.72 1894.16,-179.25 1962.5,-165 1971.29,-163.17 1980.74,-161.06 1989.58,-159.04"/>
<polygon fill="midnightblue" stroke="midnightblue" points="1760.33,-200.06 1751.1,-205.26 1761.56,-206.95 1760.33,-200.06"/>
</g>
<!-- Node30 -->
<g id="node30" class="node">
<title>Node30</title>
<g id="a_node30"><a xlink:href="dof__plotter_8cc.html" target="_top" xlink:title="Degrees of freedom plotter.">
<polygon fill="none" stroke="black" points="2097.5,-140 2097.5,-159 2207.5,-159 2207.5,-140 2097.5,-140"/>
<text text-anchor="middle" x="2152.5" y="-147" font-family="Helvetica,sans-Serif" font-size="10.00">apps/dof_plotter.cc</text>
</a>
</g>
</g>
<!-- Node1&#45;&gt;Node30 -->
<g id="edge30" class="edge">
<title>Node1&#45;&gt;Node30</title>
<path fill="none" stroke="midnightblue" d="M1761.48,-208.73C1840.73,-200.49 1974.52,-185.13 2088.5,-165 2098.04,-163.32 2108.3,-161.15 2117.75,-159.01"/>
<polygon fill="midnightblue" stroke="midnightblue" points="1760.73,-205.29 1751.14,-209.8 1761.45,-212.25 1760.73,-205.29"/>
</g>
<!-- Node3 -->
<g id="node3" class="node">
<title>Node3</title>
<g id="a_node3"><a xlink:href="linear__elasticity_8h.html" target="_top" xlink:title=" ">
<polygon fill="none" stroke="black" points="519,-67.5 519,-97.5 628,-97.5 628,-67.5 519,-67.5"/>
<text text-anchor="start" x="527" y="-85.5" font-family="Helvetica,sans-Serif" font-size="10.00">include/pdes/linear</text>
<text text-anchor="middle" x="573.5" y="-74.5" font-family="Helvetica,sans-Serif" font-size="10.00">_elasticity.h</text>
</a>
</g>
</g>
<!-- Node2&#45;&gt;Node3 -->
<g id="edge2" class="edge">
<title>Node2&#45;&gt;Node3</title>
<path fill="none" stroke="midnightblue" d="M778.98,-132.97C732.93,-121.88 671.68,-107.14 628.06,-96.63"/>
<polygon fill="midnightblue" stroke="midnightblue" points="778.32,-136.41 788.86,-135.35 779.96,-129.6 778.32,-136.41"/>
</g>
<!-- Node7 -->
<g id="node7" class="node">
<title>Node7</title>
<g id="a_node7"><a xlink:href="mpi_2poisson_8h.html" target="_top" xlink:title=" ">
<polygon fill="none" stroke="black" points="153,-73 153,-92 302,-92 302,-73 153,-73"/>
<text text-anchor="middle" x="227.5" y="-80" font-family="Helvetica,sans-Serif" font-size="10.00">include/pdes/mpi/poisson.h</text>
</a>
</g>
</g>
<!-- Node2&#45;&gt;Node7 -->
<g id="edge6" class="edge">
<title>Node2&#45;&gt;Node7</title>
<path fill="none" stroke="midnightblue" d="M778.76,-141.67C663.62,-129.52 423.94,-104.23 302.09,-91.37"/>
<polygon fill="midnightblue" stroke="midnightblue" points="778.52,-145.16 788.83,-142.73 779.26,-138.2 778.52,-145.16"/>
</g>
<!-- Node2&#45;&gt;Node10 -->
<g id="edge9" class="edge">
<title>Node2&#45;&gt;Node10</title>
<path fill="none" stroke="midnightblue" d="M897.55,-131.44C930.95,-120.91 973.28,-107.55 1004.78,-97.61"/>
<polygon fill="midnightblue" stroke="midnightblue" points="896.43,-128.13 887.95,-134.48 898.54,-134.8 896.43,-128.13"/>
</g>
<!-- Node13 -->
<g id="node13" class="node">
<title>Node13</title>
<g id="a_node13"><a xlink:href="stokes_8h.html" target="_top" xlink:title=" ">
<polygon fill="none" stroke="black" points="716.5,-73 716.5,-92 838.5,-92 838.5,-73 716.5,-73"/>
<text text-anchor="middle" x="777.5" y="-80" font-family="Helvetica,sans-Serif" font-size="10.00">include/pdes/stokes.h</text>
</a>
</g>
</g>
<!-- Node2&#45;&gt;Node13 -->
<g id="edge12" class="edge">
<title>Node2&#45;&gt;Node13</title>
<path fill="none" stroke="midnightblue" d="M822.01,-127.34C809.89,-115.4 795.41,-101.14 786.33,-92.19"/>
<polygon fill="midnightblue" stroke="midnightblue" points="819.6,-129.87 829.18,-134.4 824.51,-124.89 819.6,-129.87"/>
</g>
<!-- Node16 -->
<g id="node16" class="node">
<title>Node16</title>
<g id="a_node16"><a xlink:href="linear__problem_8cc.html" target="_top" xlink:title=" ">
<polygon fill="none" stroke="black" points="856.5,-67.5 856.5,-97.5 962.5,-97.5 962.5,-67.5 856.5,-67.5"/>
<text text-anchor="start" x="864.5" y="-85.5" font-family="Helvetica,sans-Serif" font-size="10.00">source/pdes/linear</text>
<text text-anchor="middle" x="909.5" y="-74.5" font-family="Helvetica,sans-Serif" font-size="10.00">_problem.cc</text>
</a>
</g>
</g>
<!-- Node2&#45;&gt;Node16 -->
<g id="edge15" class="edge">
<title>Node2&#45;&gt;Node16</title>
<path fill="none" stroke="midnightblue" d="M865.01,-127.31C874.91,-117.56 886.39,-106.26 895.21,-97.58"/>
<polygon fill="midnightblue" stroke="midnightblue" points="862.49,-124.89 857.82,-134.4 867.4,-129.87 862.49,-124.89"/>
</g>
<!-- Node4 -->
<g id="node4" class="node">
<title>Node4</title>
<g id="a_node4"><a xlink:href="source_2pdes_2linear__elasticity_8cc.html" target="_top" xlink:title=" ">
<polygon fill="none" stroke="black" points="303.5,-0.5 303.5,-30.5 409.5,-30.5 409.5,-0.5 303.5,-0.5"/>
<text text-anchor="start" x="311.5" y="-18.5" font-family="Helvetica,sans-Serif" font-size="10.00">source/pdes/linear</text>
<text text-anchor="middle" x="356.5" y="-7.5" font-family="Helvetica,sans-Serif" font-size="10.00">_elasticity.cc</text>
</a>
</g>
</g>
<!-- Node3&#45;&gt;Node4 -->
<g id="edge3" class="edge">
<title>Node3&#45;&gt;Node4</title>
<path fill="none" stroke="midnightblue" d="M517.01,-64.58C481.77,-54.02 436.93,-40.59 403.61,-30.61"/>
<polygon fill="midnightblue" stroke="midnightblue" points="516.1,-67.96 526.68,-67.48 518.11,-61.25 516.1,-67.96"/>
</g>
<!-- Node5 -->
<g id="node5" class="node">
<title>Node5</title>
<g id="a_node5"><a xlink:href="apps_2mpi_2linear__elasticity_8cc.html" target="_top" xlink:title=" ">
<polygon fill="none" stroke="black" points="428,-6 428,-25 583,-25 583,-6 428,-6"/>
<text text-anchor="middle" x="505.5" y="-13" font-family="Helvetica,sans-Serif" font-size="10.00">apps/mpi/linear_elasticity.cc</text>
</a>
</g>
</g>
<!-- Node3&#45;&gt;Node5 -->
<g id="edge4" class="edge">
<title>Node3&#45;&gt;Node5</title>
<path fill="none" stroke="midnightblue" d="M551.36,-60.34C538.87,-48.4 523.95,-34.14 514.6,-25.19"/>
<polygon fill="midnightblue" stroke="midnightblue" points="549.1,-63.02 558.75,-67.4 553.93,-57.96 549.1,-63.02"/>
</g>
<!-- Node6 -->
<g id="node6" class="node">
<title>Node6</title>
<g id="a_node6"><a xlink:href="apps_2serial_2linear__elasticity_8cc.html" target="_top" xlink:title=" ">
<polygon fill="none" stroke="black" points="601,-0.5 601,-30.5 702,-30.5 702,-0.5 601,-0.5"/>
<text text-anchor="start" x="609" y="-18.5" font-family="Helvetica,sans-Serif" font-size="10.00">apps/serial/linear</text>
<text text-anchor="middle" x="651.5" y="-7.5" font-family="Helvetica,sans-Serif" font-size="10.00">_elasticity.cc</text>
</a>
</g>
</g>
<!-- Node3&#45;&gt;Node6 -->
<g id="edge5" class="edge">
<title>Node3&#45;&gt;Node6</title>
<path fill="none" stroke="midnightblue" d="M598.24,-60.88C610.09,-51.01 623.98,-39.43 634.61,-30.58"/>
<polygon fill="midnightblue" stroke="midnightblue" points="595.87,-58.31 590.42,-67.4 600.35,-63.68 595.87,-58.31"/>
</g>
<!-- Node8 -->
<g id="node8" class="node">
<title>Node8</title>
<g id="a_node8"><a xlink:href="source_2pdes_2mpi_2poisson_8cc.html" target="_top" xlink:title=" ">
<polygon fill="none" stroke="black" points="0,-6 0,-25 151,-25 151,-6 0,-6"/>
<text text-anchor="middle" x="75.5" y="-13" font-family="Helvetica,sans-Serif" font-size="10.00">source/pdes/mpi/poisson.cc</text>
</a>
</g>
</g>
<!-- Node7&#45;&gt;Node8 -->
<g id="edge7" class="edge">
<title>Node7&#45;&gt;Node8</title>
<path fill="none" stroke="midnightblue" d="M197.76,-68.78C167.66,-55.91 121.93,-36.35 95.77,-25.17"/>
<polygon fill="midnightblue" stroke="midnightblue" points="196.74,-72.15 207.32,-72.87 199.5,-65.72 196.74,-72.15"/>
</g>
<!-- Node9 -->
<g id="node9" class="node">
<title>Node9</title>
<g id="a_node9"><a xlink:href="apps_2mpi_2poisson_8cc.html" target="_top" xlink:title=" ">
<polygon fill="none" stroke="black" points="169.5,-6 169.5,-25 285.5,-25 285.5,-6 169.5,-6"/>
<text text-anchor="middle" x="227.5" y="-13" font-family="Helvetica,sans-Serif" font-size="10.00">apps/mpi/poisson.cc</text>
</a>
</g>
</g>
<!-- Node7&#45;&gt;Node9 -->
<g id="edge8" class="edge">
<title>Node7&#45;&gt;Node9</title>
<path fill="none" stroke="midnightblue" d="M227.5,-62.54C227.5,-50.17 227.5,-34.62 227.5,-25.13"/>
<polygon fill="midnightblue" stroke="midnightblue" points="224,-62.73 227.5,-72.73 231,-62.73 224,-62.73"/>
</g>
<!-- Node11 -->
<g id="node11" class="node">
<title>Node11</title>
<g id="a_node11"><a xlink:href="source_2pdes_2serial_2distributed__lagrange_8cc.html" target="_top" xlink:title=" ">
<polygon fill="none" stroke="black" points="1133.5,-0.5 1133.5,-30.5 1267.5,-30.5 1267.5,-0.5 1133.5,-0.5"/>
<text text-anchor="start" x="1141.5" y="-18.5" font-family="Helvetica,sans-Serif" font-size="10.00">source/pdes/serial</text>
<text text-anchor="middle" x="1200.5" y="-7.5" font-family="Helvetica,sans-Serif" font-size="10.00">/distributed_lagrange.cc</text>
</a>
</g>
</g>
<!-- Node10&#45;&gt;Node11 -->
<g id="edge10" class="edge">
<title>Node10&#45;&gt;Node11</title>
<path fill="none" stroke="midnightblue" d="M1091.53,-63.41C1115.64,-53.03 1145.45,-40.2 1167.8,-30.58"/>
<polygon fill="midnightblue" stroke="midnightblue" points="1090.07,-60.23 1082.26,-67.4 1092.83,-66.66 1090.07,-60.23"/>
</g>
<!-- Node12 -->
<g id="node12" class="node">
<title>Node12</title>
<g id="a_node12"><a xlink:href="apps_2serial_2distributed__lagrange_8cc.html" target="_top" xlink:title=" ">
<polygon fill="none" stroke="black" points="990,-0.5 990,-30.5 1115,-30.5 1115,-0.5 990,-0.5"/>
<text text-anchor="start" x="998" y="-18.5" font-family="Helvetica,sans-Serif" font-size="10.00">apps/serial/distributed</text>
<text text-anchor="middle" x="1052.5" y="-7.5" font-family="Helvetica,sans-Serif" font-size="10.00">_lagrange.cc</text>
</a>
</g>
</g>
<!-- Node10&#45;&gt;Node12 -->
<g id="edge11" class="edge">
<title>Node10&#45;&gt;Node12</title>
<path fill="none" stroke="midnightblue" d="M1050.61,-57.4C1051.03,-48.37 1051.49,-38.41 1051.85,-30.58"/>
<polygon fill="midnightblue" stroke="midnightblue" points="1047.12,-57.25 1050.15,-67.4 1054.11,-57.57 1047.12,-57.25"/>
</g>
<!-- Node14 -->
<g id="node14" class="node">
<title>Node14</title>
<g id="a_node14"><a xlink:href="source_2pdes_2stokes_8cc.html" target="_top" xlink:title=" ">
<polygon fill="none" stroke="black" points="849,-6 849,-25 972,-25 972,-6 849,-6"/>
<text text-anchor="middle" x="910.5" y="-13" font-family="Helvetica,sans-Serif" font-size="10.00">source/pdes/stokes.cc</text>
</a>
</g>
</g>
<!-- Node13&#45;&gt;Node14 -->
<g id="edge13" class="edge">
<title>Node13&#45;&gt;Node14</title>
<path fill="none" stroke="midnightblue" d="M804.22,-68.44C830.56,-55.57 870.07,-36.26 892.77,-25.17"/>
<polygon fill="midnightblue" stroke="midnightblue" points="802.61,-65.33 795.16,-72.87 805.68,-71.62 802.61,-65.33"/>
</g>
<!-- Node15 -->
<g id="node15" class="node">
<title>Node15</title>
<g id="a_node15"><a xlink:href="apps_2mpi_2stokes_8cc.html" target="_top" xlink:title=" ">
<polygon fill="none" stroke="black" points="720.5,-6 720.5,-25 830.5,-25 830.5,-6 720.5,-6"/>
<text text-anchor="middle" x="775.5" y="-13" font-family="Helvetica,sans-Serif" font-size="10.00">apps/mpi/stokes.cc</text>
</a>
</g>
</g>
<!-- Node13&#45;&gt;Node15 -->
<g id="edge14" class="edge">
<title>Node13&#45;&gt;Node15</title>
<path fill="none" stroke="midnightblue" d="M776.92,-62.54C776.54,-50.17 776.06,-34.62 775.77,-25.13"/>
<polygon fill="midnightblue" stroke="midnightblue" points="773.42,-62.85 777.23,-72.73 780.42,-62.63 773.42,-62.85"/>
</g>
<!-- Node18 -->
<g id="node18" class="node">
<title>Node18</title>
<g id="a_node18"><a xlink:href="source_2pdes_2serial_2poisson_8cc.html" target="_top" xlink:title=" ">
<polygon fill="none" stroke="black" points="1275,-67.5 1275,-97.5 1380,-97.5 1380,-67.5 1275,-67.5"/>
<text text-anchor="start" x="1283" y="-85.5" font-family="Helvetica,sans-Serif" font-size="10.00">source/pdes/serial</text>
<text text-anchor="middle" x="1327.5" y="-74.5" font-family="Helvetica,sans-Serif" font-size="10.00">/poisson.cc</text>
</a>
</g>
</g>
<!-- Node17&#45;&gt;Node18 -->
<g id="edge18" class="edge">
<title>Node17&#45;&gt;Node18</title>
<path fill="none" stroke="midnightblue" d="M1327.5,-124.11C1327.5,-115.15 1327.5,-105.32 1327.5,-97.58"/>
<polygon fill="midnightblue" stroke="midnightblue" points="1324,-124.4 1327.5,-134.4 1331,-124.4 1324,-124.4"/>
</g>
<!-- Node19 -->
<g id="node19" class="node">
<title>Node19</title>
<g id="a_node19"><a xlink:href="apps_2serial_2poisson_8cc.html" target="_top" xlink:title=" ">
<polygon fill="none" stroke="black" points="1132.5,-73 1132.5,-92 1256.5,-92 1256.5,-73 1132.5,-73"/>
<text text-anchor="middle" x="1194.5" y="-80" font-family="Helvetica,sans-Serif" font-size="10.00">apps/serial/poisson.cc</text>
</a>
</g>
</g>
<!-- Node17&#45;&gt;Node19 -->
<g id="edge19" class="edge">
<title>Node17&#45;&gt;Node19</title>
<path fill="none" stroke="midnightblue" d="M1289.58,-129.97C1264.03,-117.48 1231.53,-101.6 1211.91,-92.01"/>
<polygon fill="midnightblue" stroke="midnightblue" points="1288.12,-133.15 1298.64,-134.4 1291.19,-126.86 1288.12,-133.15"/>
</g>
<!-- Node21 -->
<g id="node21" class="node">
<title>Node21</title>
<g id="a_node21"><a xlink:href="source_2pdes_2serial_2poisson__nitsche__interface_8cc.html" target="_top" xlink:title=" ">
<polygon fill="none" stroke="black" points="1535.5,-67.5 1535.5,-97.5 1695.5,-97.5 1695.5,-67.5 1535.5,-67.5"/>
<text text-anchor="start" x="1543.5" y="-85.5" font-family="Helvetica,sans-Serif" font-size="10.00">source/pdes/serial</text>
<text text-anchor="middle" x="1615.5" y="-74.5" font-family="Helvetica,sans-Serif" font-size="10.00">/poisson_nitsche_interface.cc</text>
</a>
</g>
</g>
<!-- Node20&#45;&gt;Node21 -->
<g id="edge21" class="edge">
<title>Node20&#45;&gt;Node21</title>
<path fill="none" stroke="midnightblue" d="M1615.5,-124.11C1615.5,-115.15 1615.5,-105.32 1615.5,-97.58"/>
<polygon fill="midnightblue" stroke="midnightblue" points="1612,-124.4 1615.5,-134.4 1619,-124.4 1612,-124.4"/>
</g>
<!-- Node22 -->
<g id="node22" class="node">
<title>Node22</title>
<g id="a_node22"><a xlink:href="apps_2serial_2poisson__nitsche__interface_8cc.html" target="_top" xlink:title=" ">
<polygon fill="none" stroke="black" points="1398,-67.5 1398,-97.5 1517,-97.5 1517,-67.5 1398,-67.5"/>
<text text-anchor="start" x="1406" y="-85.5" font-family="Helvetica,sans-Serif" font-size="10.00">apps/serial/poisson</text>
<text text-anchor="middle" x="1457.5" y="-74.5" font-family="Helvetica,sans-Serif" font-size="10.00">_nitsche_interface.cc</text>
</a>
</g>
</g>
<!-- Node20&#45;&gt;Node22 -->
<g id="edge22" class="edge">
<title>Node20&#45;&gt;Node22</title>
<path fill="none" stroke="midnightblue" d="M1571.85,-130.54C1546.57,-120.14 1515.2,-107.24 1491.72,-97.58"/>
<polygon fill="midnightblue" stroke="midnightblue" points="1570.64,-133.83 1581.22,-134.4 1573.3,-127.35 1570.64,-133.83"/>
</g>
<!-- Node24 -->
<g id="node24" class="node">
<title>Node24</title>
<g id="a_node24"><a xlink:href="source_2pdes_2serial_2reduced__lagrange_8cc.html" target="_top" xlink:title=" ">
<polygon fill="none" stroke="black" points="1843.5,-67.5 1843.5,-97.5 1963.5,-97.5 1963.5,-67.5 1843.5,-67.5"/>
<text text-anchor="start" x="1851.5" y="-85.5" font-family="Helvetica,sans-Serif" font-size="10.00">source/pdes/serial</text>
<text text-anchor="middle" x="1903.5" y="-74.5" font-family="Helvetica,sans-Serif" font-size="10.00">/reduced_lagrange.cc</text>
</a>
</g>
</g>
<!-- Node23&#45;&gt;Node24 -->
<g id="edge24" class="edge">
<title>Node23&#45;&gt;Node24</title>
<path fill="none" stroke="midnightblue" d="M1807.65,-129.99C1828.89,-119.69 1854.91,-107.07 1874.48,-97.58"/>
<polygon fill="midnightblue" stroke="midnightblue" points="1806.05,-126.88 1798.58,-134.4 1809.1,-133.18 1806.05,-126.88"/>
</g>
<!-- Node25 -->
<g id="node25" class="node">
<title>Node25</title>
<g id="a_node25"><a xlink:href="apps_2serial_2reduced__lagrange_8cc.html" target="_top" xlink:title=" ">
<polygon fill="none" stroke="black" points="1713.5,-67.5 1713.5,-97.5 1825.5,-97.5 1825.5,-67.5 1713.5,-67.5"/>
<text text-anchor="start" x="1721.5" y="-85.5" font-family="Helvetica,sans-Serif" font-size="10.00">apps/serial/reduced</text>
<text text-anchor="middle" x="1769.5" y="-74.5" font-family="Helvetica,sans-Serif" font-size="10.00">_lagrange.cc</text>
</a>
</g>
</g>
<!-- Node23&#45;&gt;Node25 -->
<g id="edge25" class="edge">
<title>Node23&#45;&gt;Node25</title>
<path fill="none" stroke="midnightblue" d="M1769.5,-124.11C1769.5,-115.15 1769.5,-105.32 1769.5,-97.58"/>
<polygon fill="midnightblue" stroke="midnightblue" points="1766,-124.4 1769.5,-134.4 1773,-124.4 1766,-124.4"/>
</g>
<!-- Node27 -->
<g id="node27" class="node">
<title>Node27</title>
<g id="a_node27"><a xlink:href="source_2pdes_2serial_2stokes_8cc.html" target="_top" xlink:title=" ">
<polygon fill="none" stroke="black" points="2118,-67.5 2118,-97.5 2223,-97.5 2223,-67.5 2118,-67.5"/>
<text text-anchor="start" x="2126" y="-85.5" font-family="Helvetica,sans-Serif" font-size="10.00">source/pdes/serial</text>
<text text-anchor="middle" x="2170.5" y="-74.5" font-family="Helvetica,sans-Serif" font-size="10.00">/stokes.cc</text>
</a>
</g>
</g>
<!-- Node26&#45;&gt;Node27 -->
<g id="edge27" class="edge">
<title>Node26&#45;&gt;Node27</title>
<path fill="none" stroke="midnightblue" d="M1963.47,-133.16C2010.5,-121.88 2073.65,-106.73 2117.79,-96.14"/>
<polygon fill="midnightblue" stroke="midnightblue" points="1962.6,-129.77 1953.69,-135.5 1964.23,-136.57 1962.6,-129.77"/>
</g>
<!-- Node28 -->
<g id="node28" class="node">
<title>Node28</title>
<g id="a_node28"><a xlink:href="apps_2serial_2stokes_8cc.html" target="_top" xlink:title=" ">
<polygon fill="none" stroke="black" points="1981.5,-73 1981.5,-92 2099.5,-92 2099.5,-73 1981.5,-73"/>
<text text-anchor="middle" x="2040.5" y="-80" font-family="Helvetica,sans-Serif" font-size="10.00">apps/serial/stokes.cc</text>
</a>
</g>
</g>
<!-- Node26&#45;&gt;Node28 -->
<g id="edge28" class="edge">
<title>Node26&#45;&gt;Node28</title>
<path fill="none" stroke="midnightblue" d="M1939.35,-130.13C1966.48,-117.62 2001.15,-101.64 2022.05,-92.01"/>
<polygon fill="midnightblue" stroke="midnightblue" points="1937.71,-127.03 1930.09,-134.4 1940.64,-133.39 1937.71,-127.03"/>
</g>
</g>
</svg>
