<?xml version="1.0" encoding="UTF-8" standalone="no"?>
<!DOCTYPE svg PUBLIC "-//W3C//DTD SVG 1.1//EN"
 "http://www.w3.org/Graphics/SVG/1.1/DTD/svg11.dtd">
<!-- Generated by graphviz version 2.43.0 (0)
 -->
<!-- Title: include/parsed_tools/data_out.h Pages: 1 -->
<svg width="2564pt" height="240pt"
 viewBox="0.00 0.00 2563.50 240.00" xmlns="http://www.w3.org/2000/svg" xmlns:xlink="http://www.w3.org/1999/xlink">
<g id="graph0" class="graph" transform="scale(1 1) rotate(0) translate(4 236)">
<title>include/parsed_tools/data_out.h</title>
<!-- Node1 -->
<g id="node1" class="node">
<title>Node1</title>
<g id="a_node1"><a xlink:title=" ">
<polygon fill="#bfbfbf" stroke="black" points="1970,-201.5 1970,-231.5 2087,-231.5 2087,-201.5 1970,-201.5"/>
<text text-anchor="start" x="1978" y="-219.5" font-family="Helvetica,sans-Serif" font-size="10.00">include/parsed_tools</text>
<text text-anchor="middle" x="2028.5" y="-208.5" font-family="Helvetica,sans-Serif" font-size="10.00">/data_out.h</text>
</a>
</g>
</g>
<!-- Node2 -->
<g id="node2" class="node">
<title>Node2</title>
<g id="a_node2"><a xlink:href="linear__problem_8h.html" target="_top" xlink:title=" ">
<polygon fill="none" stroke="black" points="755,-134.5 755,-164.5 864,-164.5 864,-134.5 755,-134.5"/>
<text text-anchor="start" x="763" y="-152.5" font-family="Helvetica,sans-Serif" font-size="10.00">include/pdes/linear</text>
<text text-anchor="middle" x="809.5" y="-141.5" font-family="Helvetica,sans-Serif" font-size="10.00">_problem.h</text>
</a>
</g>
</g>
<!-- Node1&#45;&gt;Node2 -->
<g id="edge1" class="edge">
<title>Node1&#45;&gt;Node2</title>
<path fill="none" stroke="midnightblue" d="M1959.62,-211.83C1740.46,-200.14 1062.08,-163.97 864.2,-153.42"/>
<polygon fill="midnightblue" stroke="midnightblue" points="1959.53,-215.33 1969.71,-212.36 1959.91,-208.34 1959.53,-215.33"/>
</g>
<!-- Node14 -->
<g id="node14" class="node">
<title>Node14</title>
<g id="a_node14"><a xlink:href="distributed__lagrange_8h.html" target="_top" xlink:title=" ">
<polygon fill="none" stroke="black" points="1317,-67.5 1317,-97.5 1446,-97.5 1446,-67.5 1317,-67.5"/>
<text text-anchor="start" x="1325" y="-85.5" font-family="Helvetica,sans-Serif" font-size="10.00">include/pdes/serial</text>
<text text-anchor="middle" x="1381.5" y="-74.5" font-family="Helvetica,sans-Serif" font-size="10.00">/distributed_lagrange.h</text>
</a>
</g>
</g>
<!-- Node1&#45;&gt;Node14 -->
<g id="edge20" class="edge">
<title>Node1&#45;&gt;Node14</title>
<path fill="none" stroke="midnightblue" d="M1959.6,-213.26C1871.78,-209.12 1715.84,-197.49 1586.5,-165 1521.12,-148.58 1448.74,-116.22 1409.89,-97.59"/>
<polygon fill="midnightblue" stroke="midnightblue" points="1959.55,-216.76 1969.7,-213.71 1959.87,-209.77 1959.55,-216.76"/>
</g>
<!-- Node21 -->
<g id="node21" class="node">
<title>Node21</title>
<g id="a_node21"><a xlink:href="serial_2poisson_8h.html" target="_top" xlink:title=" ">
<polygon fill="none" stroke="black" points="1595.5,-134.5 1595.5,-164.5 1703.5,-164.5 1703.5,-134.5 1595.5,-134.5"/>
<text text-anchor="start" x="1603.5" y="-152.5" font-family="Helvetica,sans-Serif" font-size="10.00">include/pdes/serial</text>
<text text-anchor="middle" x="1649.5" y="-141.5" font-family="Helvetica,sans-Serif" font-size="10.00">/poisson.h</text>
</a>
</g>
</g>
<!-- Node1&#45;&gt;Node21 -->
<g id="edge21" class="edge">
<title>Node1&#45;&gt;Node21</title>
<path fill="none" stroke="midnightblue" d="M1959.6,-203.68C1885.99,-191.06 1770.85,-171.31 1703.53,-159.77"/>
<polygon fill="midnightblue" stroke="midnightblue" points="1959.25,-207.17 1969.7,-205.42 1960.43,-200.27 1959.25,-207.17"/>
</g>
<!-- Node24 -->
<g id="node24" class="node">
<title>Node24</title>
<g id="a_node24"><a xlink:href="poisson__nitsche__interface_8h.html" target="_top" xlink:title=" ">
<polygon fill="none" stroke="black" points="1874,-134.5 1874,-164.5 2029,-164.5 2029,-134.5 1874,-134.5"/>
<text text-anchor="start" x="1882" y="-152.5" font-family="Helvetica,sans-Serif" font-size="10.00">include/pdes/serial</text>
<text text-anchor="middle" x="1951.5" y="-141.5" font-family="Helvetica,sans-Serif" font-size="10.00">/poisson_nitsche_interface.h</text>
</a>
</g>
</g>
<!-- Node1&#45;&gt;Node24 -->
<g id="edge24" class="edge">
<title>Node1&#45;&gt;Node24</title>
<path fill="none" stroke="midnightblue" d="M2004.08,-194.88C1992.38,-185.01 1978.66,-173.43 1968.18,-164.58"/>
<polygon fill="midnightblue" stroke="midnightblue" points="2001.89,-197.62 2011.79,-201.4 2006.41,-192.27 2001.89,-197.62"/>
</g>
<!-- Node27 -->
<g id="node27" class="node">
<title>Node27</title>
<g id="a_node27"><a xlink:href="reduced__lagrange_8h.html" target="_top" xlink:title=" ">
<polygon fill="none" stroke="black" points="2047.5,-134.5 2047.5,-164.5 2163.5,-164.5 2163.5,-134.5 2047.5,-134.5"/>
<text text-anchor="start" x="2055.5" y="-152.5" font-family="Helvetica,sans-Serif" font-size="10.00">include/pdes/serial</text>
<text text-anchor="middle" x="2105.5" y="-141.5" font-family="Helvetica,sans-Serif" font-size="10.00">/reduced_lagrange.h</text>
</a>
</g>
</g>
<!-- Node1&#45;&gt;Node27 -->
<g id="edge27" class="edge">
<title>Node1&#45;&gt;Node27</title>
<path fill="none" stroke="midnightblue" d="M2052.92,-194.88C2064.62,-185.01 2078.34,-173.43 2088.82,-164.58"/>
<polygon fill="midnightblue" stroke="midnightblue" points="2050.59,-192.27 2045.21,-201.4 2055.11,-197.62 2050.59,-192.27"/>
</g>
<!-- Node30 -->
<g id="node30" class="node">
<title>Node30</title>
<g id="a_node30"><a xlink:href="serial_2stokes_8h.html" target="_top" xlink:title=" ">
<polygon fill="none" stroke="black" points="2181.5,-134.5 2181.5,-164.5 2289.5,-164.5 2289.5,-134.5 2181.5,-134.5"/>
<text text-anchor="start" x="2189.5" y="-152.5" font-family="Helvetica,sans-Serif" font-size="10.00">include/pdes/serial</text>
<text text-anchor="middle" x="2235.5" y="-141.5" font-family="Helvetica,sans-Serif" font-size="10.00">/stokes.h</text>
</a>
</g>
</g>
<!-- Node1&#45;&gt;Node30 -->
<g id="edge30" class="edge">
<title>Node1&#45;&gt;Node30</title>
<path fill="none" stroke="midnightblue" d="M2082.82,-198.44C2116.37,-187.91 2158.91,-174.55 2190.56,-164.61"/>
<polygon fill="midnightblue" stroke="midnightblue" points="2081.65,-195.14 2073.16,-201.48 2083.75,-201.82 2081.65,-195.14"/>
</g>
<!-- Node33 -->
<g id="node33" class="node">
<title>Node33</title>
<g id="a_node33"><a xlink:href="data__out_8cc.html" target="_top" xlink:title=" ">
<polygon fill="none" stroke="black" points="2307.5,-140 2307.5,-159 2415.5,-159 2415.5,-140 2307.5,-140"/>
<text text-anchor="middle" x="2361.5" y="-147" font-family="Helvetica,sans-Serif" font-size="10.00">source/data_out.cc</text>
</a>
</g>
</g>
<!-- Node1&#45;&gt;Node33 -->
<g id="edge33" class="edge">
<title>Node1&#45;&gt;Node33</title>
<path fill="none" stroke="midnightblue" d="M2097.02,-203.49C2151.69,-193.72 2230.16,-179.25 2298.5,-165 2307.29,-163.17 2316.74,-161.06 2325.58,-159.04"/>
<polygon fill="midnightblue" stroke="midnightblue" points="2096.33,-200.06 2087.1,-205.26 2097.56,-206.95 2096.33,-200.06"/>
</g>
<!-- Node34 -->
<g id="node34" class="node">
<title>Node34</title>
<g id="a_node34"><a xlink:href="dof__plotter_8cc.html" target="_top" xlink:title="Degrees of freedom plotter.">
<polygon fill="none" stroke="black" points="2433.5,-140 2433.5,-159 2543.5,-159 2543.5,-140 2433.5,-140"/>
<text text-anchor="middle" x="2488.5" y="-147" font-family="Helvetica,sans-Serif" font-size="10.00">apps/dof_plotter.cc</text>
</a>
</g>
</g>
<!-- Node1&#45;&gt;Node34 -->
<g id="edge34" class="edge">
<title>Node1&#45;&gt;Node34</title>
<path fill="none" stroke="midnightblue" d="M2097.48,-208.73C2176.73,-200.49 2310.52,-185.13 2424.5,-165 2434.04,-163.32 2444.3,-161.15 2453.75,-159.01"/>
<polygon fill="midnightblue" stroke="midnightblue" points="2096.73,-205.29 2087.14,-209.8 2097.45,-212.25 2096.73,-205.29"/>
</g>
<!-- Node3 -->
<g id="node3" class="node">
<title>Node3</title>
<g id="a_node3"><a xlink:href="linear__elasticity_8h.html" target="_top" xlink:title=" ">
<polygon fill="none" stroke="black" points="1043,-67.5 1043,-97.5 1152,-97.5 1152,-67.5 1043,-67.5"/>
<text text-anchor="start" x="1051" y="-85.5" font-family="Helvetica,sans-Serif" font-size="10.00">include/pdes/linear</text>
<text text-anchor="middle" x="1097.5" y="-74.5" font-family="Helvetica,sans-Serif" font-size="10.00">_elasticity.h</text>
</a>
</g>
</g>
<!-- Node2&#45;&gt;Node3 -->
<g id="edge2" class="edge">
<title>Node2&#45;&gt;Node3</title>
<path fill="none" stroke="midnightblue" d="M873.89,-133.97C924.64,-122.51 994.64,-106.72 1042.72,-95.86"/>
<polygon fill="midnightblue" stroke="midnightblue" points="872.99,-130.58 864.01,-136.2 874.53,-137.41 872.99,-130.58"/>
</g>
<!-- Node7 -->
<g id="node7" class="node">
<title>Node7</title>
<g id="a_node7"><a xlink:href="linear__visco__elasticity_8h.html" target="_top" xlink:title=" ">
<polygon fill="none" stroke="black" points="540,-67.5 540,-97.5 649,-97.5 649,-67.5 540,-67.5"/>
<text text-anchor="start" x="548" y="-85.5" font-family="Helvetica,sans-Serif" font-size="10.00">include/pdes/linear</text>
<text text-anchor="middle" x="594.5" y="-74.5" font-family="Helvetica,sans-Serif" font-size="10.00">_visco_elasticity.h</text>
</a>
</g>
</g>
<!-- Node2&#45;&gt;Node7 -->
<g id="edge6" class="edge">
<title>Node2&#45;&gt;Node7</title>
<path fill="none" stroke="midnightblue" d="M753.53,-131.58C718.61,-121.02 674.19,-107.59 641.17,-97.61"/>
<polygon fill="midnightblue" stroke="midnightblue" points="752.53,-134.93 763.11,-134.48 754.55,-128.23 752.53,-134.93"/>
</g>
<!-- Node11 -->
<g id="node11" class="node">
<title>Node11</title>
<g id="a_node11"><a xlink:href="mpi_2poisson_8h.html" target="_top" xlink:title=" ">
<polygon fill="none" stroke="black" points="735,-73 735,-92 884,-92 884,-73 735,-73"/>
<text text-anchor="middle" x="809.5" y="-80" font-family="Helvetica,sans-Serif" font-size="10.00">include/pdes/mpi/poisson.h</text>
</a>
</g>
</g>
<!-- Node2&#45;&gt;Node11 -->
<g id="edge10" class="edge">
<title>Node2&#45;&gt;Node11</title>
<path fill="none" stroke="midnightblue" d="M809.5,-124.25C809.5,-113.02 809.5,-100.38 809.5,-92.19"/>
<polygon fill="midnightblue" stroke="midnightblue" points="806,-124.4 809.5,-134.4 813,-124.4 806,-124.4"/>
</g>
<!-- Node2&#45;&gt;Node14 -->
<g id="edge13" class="edge">
<title>Node2&#45;&gt;Node14</title>
<path fill="none" stroke="midnightblue" d="M874.05,-141.16C984.07,-128.66 1206.64,-103.37 1316.77,-90.86"/>
<polygon fill="midnightblue" stroke="midnightblue" points="873.63,-137.69 864.09,-142.3 874.42,-144.65 873.63,-137.69"/>
</g>
<!-- Node17 -->
<g id="node17" class="node">
<title>Node17</title>
<g id="a_node17"><a xlink:href="stokes_8h.html" target="_top" xlink:title=" ">
<polygon fill="none" stroke="black" points="135.5,-73 135.5,-92 257.5,-92 257.5,-73 135.5,-73"/>
<text text-anchor="middle" x="196.5" y="-80" font-family="Helvetica,sans-Serif" font-size="10.00">include/pdes/stokes.h</text>
</a>
</g>
</g>
<!-- Node2&#45;&gt;Node17 -->
<g id="edge16" class="edge">
<title>Node2&#45;&gt;Node17</title>
<path fill="none" stroke="midnightblue" d="M744.78,-141.64C625.9,-129.03 374.3,-102.35 257.92,-90.01"/>
<polygon fill="midnightblue" stroke="midnightblue" points="744.52,-145.13 754.83,-142.7 745.26,-138.17 744.52,-145.13"/>
</g>
<!-- Node20 -->
<g id="node20" class="node">
<title>Node20</title>
<g id="a_node20"><a xlink:href="linear__problem_8cc.html" target="_top" xlink:title=" ">
<polygon fill="none" stroke="black" points="415.5,-67.5 415.5,-97.5 521.5,-97.5 521.5,-67.5 415.5,-67.5"/>
<text text-anchor="start" x="423.5" y="-85.5" font-family="Helvetica,sans-Serif" font-size="10.00">source/pdes/linear</text>
<text text-anchor="middle" x="468.5" y="-74.5" font-family="Helvetica,sans-Serif" font-size="10.00">_problem.cc</text>
</a>
</g>
</g>
<!-- Node2&#45;&gt;Node20 -->
<g id="edge19" class="edge">
<title>Node2&#45;&gt;Node20</title>
<path fill="none" stroke="midnightblue" d="M744.92,-137.77C688.25,-128.12 603.71,-113.18 530.5,-98 527.58,-97.39 524.58,-96.75 521.56,-96.1"/>
<polygon fill="midnightblue" stroke="midnightblue" points="744.37,-141.22 754.81,-139.44 745.54,-134.32 744.37,-141.22"/>
</g>
<!-- Node4 -->
<g id="node4" class="node">
<title>Node4</title>
<g id="a_node4"><a xlink:href="source_2pdes_2linear__elasticity_8cc.html" target="_top" xlink:title=" ">
<polygon fill="none" stroke="black" points="971.5,-0.5 971.5,-30.5 1077.5,-30.5 1077.5,-0.5 971.5,-0.5"/>
<text text-anchor="start" x="979.5" y="-18.5" font-family="Helvetica,sans-Serif" font-size="10.00">source/pdes/linear</text>
<text text-anchor="middle" x="1024.5" y="-7.5" font-family="Helvetica,sans-Serif" font-size="10.00">_elasticity.cc</text>
</a>
</g>
</g>
<!-- Node3&#45;&gt;Node4 -->
<g id="edge3" class="edge">
<title>Node3&#45;&gt;Node4</title>
<path fill="none" stroke="midnightblue" d="M1074.03,-60.6C1063,-50.78 1050.16,-39.34 1040.31,-30.58"/>
<polygon fill="midnightblue" stroke="midnightblue" points="1071.86,-63.36 1081.66,-67.4 1076.52,-58.13 1071.86,-63.36"/>
</g>
<!-- Node5 -->
<g id="node5" class="node">
<title>Node5</title>
<g id="a_node5"><a xlink:href="apps_2mpi_2linear__elasticity_8cc.html" target="_top" xlink:title=" ">
<polygon fill="none" stroke="black" points="1096,-6 1096,-25 1251,-25 1251,-6 1096,-6"/>
<text text-anchor="middle" x="1173.5" y="-13" font-family="Helvetica,sans-Serif" font-size="10.00">apps/mpi/linear_elasticity.cc</text>
</a>
</g>
</g>
<!-- Node3&#45;&gt;Node5 -->
<g id="edge4" class="edge">
<title>Node3&#45;&gt;Node5</title>
<path fill="none" stroke="midnightblue" d="M1121.85,-60.67C1135.89,-48.67 1152.78,-34.22 1163.33,-25.19"/>
<polygon fill="midnightblue" stroke="midnightblue" points="1119.32,-58.24 1113.99,-67.4 1123.87,-63.56 1119.32,-58.24"/>
</g>
<!-- Node6 -->
<g id="node6" class="node">
<title>Node6</title>
<g id="a_node6"><a xlink:href="apps_2serial_2linear__elasticity_8cc.html" target="_top" xlink:title=" ">
<polygon fill="none" stroke="black" points="1269,-0.5 1269,-30.5 1370,-30.5 1370,-0.5 1269,-0.5"/>
<text text-anchor="start" x="1277" y="-18.5" font-family="Helvetica,sans-Serif" font-size="10.00">apps/serial/linear</text>
<text text-anchor="middle" x="1319.5" y="-7.5" font-family="Helvetica,sans-Serif" font-size="10.00">_elasticity.cc</text>
</a>
</g>
</g>
<!-- Node3&#45;&gt;Node6 -->
<g id="edge5" class="edge">
<title>Node3&#45;&gt;Node6</title>
<path fill="none" stroke="midnightblue" d="M1155.29,-64.58C1191.35,-54.02 1237.22,-40.59 1271.31,-30.61"/>
<polygon fill="midnightblue" stroke="midnightblue" points="1154.01,-61.31 1145.4,-67.48 1155.98,-68.02 1154.01,-61.31"/>
</g>
<!-- Node8 -->
<g id="node8" class="node">
<title>Node8</title>
<g id="a_node8"><a xlink:href="source_2pdes_2linear__visco__elasticity_8cc.html" target="_top" xlink:title=" ">
<polygon fill="none" stroke="black" points="269.5,-0.5 269.5,-30.5 379.5,-30.5 379.5,-0.5 269.5,-0.5"/>
<text text-anchor="start" x="277.5" y="-18.5" font-family="Helvetica,sans-Serif" font-size="10.00">source/pdes/linear</text>
<text text-anchor="middle" x="324.5" y="-7.5" font-family="Helvetica,sans-Serif" font-size="10.00">_visco_elasticity.cc</text>
</a>
</g>
</g>
<!-- Node7&#45;&gt;Node8 -->
<g id="edge7" class="edge">
<title>Node7&#45;&gt;Node8</title>
<path fill="none" stroke="midnightblue" d="M530.02,-65.98C484.13,-54.93 423.12,-40.24 379.52,-29.75"/>
<polygon fill="midnightblue" stroke="midnightblue" points="529.32,-69.41 539.86,-68.35 530.96,-62.6 529.32,-69.41"/>
</g>
<!-- Node9 -->
<g id="node9" class="node">
<title>Node9</title>
<g id="a_node9"><a xlink:href="apps_2mpi_2linear__visco__elasticity_8cc.html" target="_top" xlink:title=" ">
<polygon fill="none" stroke="black" points="398,-0.5 398,-30.5 521,-30.5 521,-0.5 398,-0.5"/>
<text text-anchor="start" x="406" y="-18.5" font-family="Helvetica,sans-Serif" font-size="10.00">apps/mpi/linear_visco</text>
<text text-anchor="middle" x="459.5" y="-7.5" font-family="Helvetica,sans-Serif" font-size="10.00">_elasticity.cc</text>
</a>
</g>
</g>
<!-- Node7&#45;&gt;Node9 -->
<g id="edge8" class="edge">
<title>Node7&#45;&gt;Node9</title>
<path fill="none" stroke="midnightblue" d="M556.06,-62.99C534.66,-52.69 508.45,-40.07 488.74,-30.58"/>
<polygon fill="midnightblue" stroke="midnightblue" points="554.68,-66.21 565.21,-67.4 557.72,-59.9 554.68,-66.21"/>
</g>
<!-- Node10 -->
<g id="node10" class="node">
<title>Node10</title>
<g id="a_node10"><a xlink:href="apps_2serial_2linear__visco__elasticity_8cc.html" target="_top" xlink:title=" ">
<polygon fill="none" stroke="black" points="539.5,-0.5 539.5,-30.5 649.5,-30.5 649.5,-0.5 539.5,-0.5"/>
<text text-anchor="start" x="547.5" y="-18.5" font-family="Helvetica,sans-Serif" font-size="10.00">apps/serial/linear</text>
<text text-anchor="middle" x="594.5" y="-7.5" font-family="Helvetica,sans-Serif" font-size="10.00">_visco_elasticity.cc</text>
</a>
</g>
</g>
<!-- Node7&#45;&gt;Node10 -->
<g id="edge9" class="edge">
<title>Node7&#45;&gt;Node10</title>
<path fill="none" stroke="midnightblue" d="M594.5,-57.11C594.5,-48.15 594.5,-38.32 594.5,-30.58"/>
<polygon fill="midnightblue" stroke="midnightblue" points="591,-57.4 594.5,-67.4 598,-57.4 591,-57.4"/>
</g>
<!-- Node12 -->
<g id="node12" class="node">
<title>Node12</title>
<g id="a_node12"><a xlink:href="source_2pdes_2mpi_2poisson_8cc.html" target="_top" xlink:title=" ">
<polygon fill="none" stroke="black" points="802,-6 802,-25 953,-25 953,-6 802,-6"/>
<text text-anchor="middle" x="877.5" y="-13" font-family="Helvetica,sans-Serif" font-size="10.00">source/pdes/mpi/poisson.cc</text>
</a>
</g>
</g>
<!-- Node11&#45;&gt;Node12 -->
<g id="edge11" class="edge">
<title>Node11&#45;&gt;Node12</title>
<path fill="none" stroke="midnightblue" d="M826.24,-65.5C839.58,-52.75 857.73,-35.39 868.47,-25.13"/>
<polygon fill="midnightblue" stroke="midnightblue" points="823.48,-63.29 818.67,-72.73 828.32,-68.35 823.48,-63.29"/>
</g>
<!-- Node13 -->
<g id="node13" class="node">
<title>Node13</title>
<g id="a_node13"><a xlink:href="apps_2mpi_2poisson_8cc.html" target="_top" xlink:title=" ">
<polygon fill="none" stroke="black" points="667.5,-6 667.5,-25 783.5,-25 783.5,-6 667.5,-6"/>
<text text-anchor="middle" x="725.5" y="-13" font-family="Helvetica,sans-Serif" font-size="10.00">apps/mpi/poisson.cc</text>
</a>
</g>
</g>
<!-- Node11&#45;&gt;Node13 -->
<g id="edge12" class="edge">
<title>Node11&#45;&gt;Node13</title>
<path fill="none" stroke="midnightblue" d="M790.2,-66.57C773.62,-53.74 750.29,-35.69 736.65,-25.13"/>
<polygon fill="midnightblue" stroke="midnightblue" points="788.12,-69.38 798.17,-72.73 792.4,-63.85 788.12,-69.38"/>
</g>
<!-- Node15 -->
<g id="node15" class="node">
<title>Node15</title>
<g id="a_node15"><a xlink:href="source_2pdes_2serial_2distributed__lagrange_8cc.html" target="_top" xlink:title=" ">
<polygon fill="none" stroke="black" points="1388.5,-0.5 1388.5,-30.5 1522.5,-30.5 1522.5,-0.5 1388.5,-0.5"/>
<text text-anchor="start" x="1396.5" y="-18.5" font-family="Helvetica,sans-Serif" font-size="10.00">source/pdes/serial</text>
<text text-anchor="middle" x="1455.5" y="-7.5" font-family="Helvetica,sans-Serif" font-size="10.00">/distributed_lagrange.cc</text>
</a>
</g>
</g>
<!-- Node14&#45;&gt;Node15 -->
<g id="edge14" class="edge">
<title>Node14&#45;&gt;Node15</title>
<path fill="none" stroke="midnightblue" d="M1405.3,-60.6C1416.47,-50.78 1429.49,-39.34 1439.47,-30.58"/>
<polygon fill="midnightblue" stroke="midnightblue" points="1402.76,-58.17 1397.56,-67.4 1407.38,-63.43 1402.76,-58.17"/>
</g>
<!-- Node16 -->
<g id="node16" class="node">
<title>Node16</title>
<g id="a_node16"><a xlink:href="apps_2serial_2distributed__lagrange_8cc.html" target="_top" xlink:title=" ">
<polygon fill="none" stroke="black" points="1541,-0.5 1541,-30.5 1666,-30.5 1666,-0.5 1541,-0.5"/>
<text text-anchor="start" x="1549" y="-18.5" font-family="Helvetica,sans-Serif" font-size="10.00">apps/serial/distributed</text>
<text text-anchor="middle" x="1603.5" y="-7.5" font-family="Helvetica,sans-Serif" font-size="10.00">_lagrange.cc</text>
</a>
</g>
</g>
<!-- Node14&#45;&gt;Node16 -->
<g id="edge15" class="edge">
<title>Node14&#45;&gt;Node16</title>
<path fill="none" stroke="midnightblue" d="M1439.29,-64.58C1475.35,-54.02 1521.22,-40.59 1555.31,-30.61"/>
<polygon fill="midnightblue" stroke="midnightblue" points="1438.01,-61.31 1429.4,-67.48 1439.98,-68.02 1438.01,-61.31"/>
</g>
<!-- Node18 -->
<g id="node18" class="node">
<title>Node18</title>
<g id="a_node18"><a xlink:href="source_2pdes_2stokes_8cc.html" target="_top" xlink:title=" ">
<polygon fill="none" stroke="black" points="0,-6 0,-25 123,-25 123,-6 0,-6"/>
<text text-anchor="middle" x="61.5" y="-13" font-family="Helvetica,sans-Serif" font-size="10.00">source/pdes/stokes.cc</text>
</a>
</g>
</g>
<!-- Node17&#45;&gt;Node18 -->
<g id="edge17" class="edge">
<title>Node17&#45;&gt;Node18</title>
<path fill="none" stroke="midnightblue" d="M169.38,-68.44C142.64,-55.57 102.53,-36.26 79.5,-25.17"/>
<polygon fill="midnightblue" stroke="midnightblue" points="168.04,-71.68 178.57,-72.87 171.08,-65.38 168.04,-71.68"/>
</g>
<!-- Node19 -->
<g id="node19" class="node">
<title>Node19</title>
<g id="a_node19"><a xlink:href="apps_2mpi_2stokes_8cc.html" target="_top" xlink:title=" ">
<polygon fill="none" stroke="black" points="141.5,-6 141.5,-25 251.5,-25 251.5,-6 141.5,-6"/>
<text text-anchor="middle" x="196.5" y="-13" font-family="Helvetica,sans-Serif" font-size="10.00">apps/mpi/stokes.cc</text>
</a>
</g>
</g>
<!-- Node17&#45;&gt;Node19 -->
<g id="edge18" class="edge">
<title>Node17&#45;&gt;Node19</title>
<path fill="none" stroke="midnightblue" d="M196.5,-62.54C196.5,-50.17 196.5,-34.62 196.5,-25.13"/>
<polygon fill="midnightblue" stroke="midnightblue" points="193,-62.73 196.5,-72.73 200,-62.73 193,-62.73"/>
</g>
<!-- Node22 -->
<g id="node22" class="node">
<title>Node22</title>
<g id="a_node22"><a xlink:href="source_2pdes_2serial_2poisson_8cc.html" target="_top" xlink:title=" ">
<polygon fill="none" stroke="black" points="1464,-67.5 1464,-97.5 1569,-97.5 1569,-67.5 1464,-67.5"/>
<text text-anchor="start" x="1472" y="-85.5" font-family="Helvetica,sans-Serif" font-size="10.00">source/pdes/serial</text>
<text text-anchor="middle" x="1516.5" y="-74.5" font-family="Helvetica,sans-Serif" font-size="10.00">/poisson.cc</text>
</a>
</g>
</g>
<!-- Node21&#45;&gt;Node22 -->
<g id="edge22" class="edge">
<title>Node21&#45;&gt;Node22</title>
<path fill="none" stroke="midnightblue" d="M1611.63,-129.99C1590.55,-119.69 1564.72,-107.07 1545.3,-97.58"/>
<polygon fill="midnightblue" stroke="midnightblue" points="1610.12,-133.15 1620.64,-134.4 1613.19,-126.86 1610.12,-133.15"/>
</g>
<!-- Node23 -->
<g id="node23" class="node">
<title>Node23</title>
<g id="a_node23"><a xlink:href="apps_2serial_2poisson_8cc.html" target="_top" xlink:title=" ">
<polygon fill="none" stroke="black" points="1587.5,-73 1587.5,-92 1711.5,-92 1711.5,-73 1587.5,-73"/>
<text text-anchor="middle" x="1649.5" y="-80" font-family="Helvetica,sans-Serif" font-size="10.00">apps/serial/poisson.cc</text>
</a>
</g>
</g>
<!-- Node21&#45;&gt;Node23 -->
<g id="edge23" class="edge">
<title>Node21&#45;&gt;Node23</title>
<path fill="none" stroke="midnightblue" d="M1649.5,-124.25C1649.5,-113.02 1649.5,-100.38 1649.5,-92.19"/>
<polygon fill="midnightblue" stroke="midnightblue" points="1646,-124.4 1649.5,-134.4 1653,-124.4 1646,-124.4"/>
</g>
<!-- Node25 -->
<g id="node25" class="node">
<title>Node25</title>
<g id="a_node25"><a xlink:href="source_2pdes_2serial_2poisson__nitsche__interface_8cc.html" target="_top" xlink:title=" ">
<polygon fill="none" stroke="black" points="1729.5,-67.5 1729.5,-97.5 1889.5,-97.5 1889.5,-67.5 1729.5,-67.5"/>
<text text-anchor="start" x="1737.5" y="-85.5" font-family="Helvetica,sans-Serif" font-size="10.00">source/pdes/serial</text>
<text text-anchor="middle" x="1809.5" y="-74.5" font-family="Helvetica,sans-Serif" font-size="10.00">/poisson_nitsche_interface.cc</text>
</a>
</g>
</g>
<!-- Node24&#45;&gt;Node25 -->
<g id="edge25" class="edge">
<title>Node24&#45;&gt;Node25</title>
<path fill="none" stroke="midnightblue" d="M1911.37,-130.13C1888.81,-119.8 1861.08,-107.11 1840.25,-97.58"/>
<polygon fill="midnightblue" stroke="midnightblue" points="1910.14,-133.42 1920.69,-134.4 1913.05,-127.05 1910.14,-133.42"/>
</g>
<!-- Node26 -->
<g id="node26" class="node">
<title>Node26</title>
<g id="a_node26"><a xlink:href="apps_2serial_2poisson__nitsche__interface_8cc.html" target="_top" xlink:title=" ">
<polygon fill="none" stroke="black" points="1908,-67.5 1908,-97.5 2027,-97.5 2027,-67.5 1908,-67.5"/>
<text text-anchor="start" x="1916" y="-85.5" font-family="Helvetica,sans-Serif" font-size="10.00">apps/serial/poisson</text>
<text text-anchor="middle" x="1967.5" y="-74.5" font-family="Helvetica,sans-Serif" font-size="10.00">_nitsche_interface.cc</text>
</a>
</g>
</g>
<!-- Node24&#45;&gt;Node26 -->
<g id="edge26" class="edge">
<title>Node24&#45;&gt;Node26</title>
<path fill="none" stroke="midnightblue" d="M1957.43,-124.4C1959.66,-115.37 1962.11,-105.41 1964.04,-97.58"/>
<polygon fill="midnightblue" stroke="midnightblue" points="1953.96,-123.85 1954.97,-134.4 1960.76,-125.52 1953.96,-123.85"/>
</g>
<!-- Node28 -->
<g id="node28" class="node">
<title>Node28</title>
<g id="a_node28"><a xlink:href="source_2pdes_2serial_2reduced__lagrange_8cc.html" target="_top" xlink:title=" ">
<polygon fill="none" stroke="black" points="2045.5,-67.5 2045.5,-97.5 2165.5,-97.5 2165.5,-67.5 2045.5,-67.5"/>
<text text-anchor="start" x="2053.5" y="-85.5" font-family="Helvetica,sans-Serif" font-size="10.00">source/pdes/serial</text>
<text text-anchor="middle" x="2105.5" y="-74.5" font-family="Helvetica,sans-Serif" font-size="10.00">/reduced_lagrange.cc</text>
</a>
</g>
</g>
<!-- Node27&#45;&gt;Node28 -->
<g id="edge28" class="edge">
<title>Node27&#45;&gt;Node28</title>
<path fill="none" stroke="midnightblue" d="M2105.5,-124.11C2105.5,-115.15 2105.5,-105.32 2105.5,-97.58"/>
<polygon fill="midnightblue" stroke="midnightblue" points="2102,-124.4 2105.5,-134.4 2109,-124.4 2102,-124.4"/>
</g>
<!-- Node29 -->
<g id="node29" class="node">
<title>Node29</title>
<g id="a_node29"><a xlink:href="apps_2serial_2reduced__lagrange_8cc.html" target="_top" xlink:title=" ">
<polygon fill="none" stroke="black" points="2183.5,-67.5 2183.5,-97.5 2295.5,-97.5 2295.5,-67.5 2183.5,-67.5"/>
<text text-anchor="start" x="2191.5" y="-85.5" font-family="Helvetica,sans-Serif" font-size="10.00">apps/serial/reduced</text>
<text text-anchor="middle" x="2239.5" y="-74.5" font-family="Helvetica,sans-Serif" font-size="10.00">_lagrange.cc</text>
</a>
</g>
</g>
<!-- Node27&#45;&gt;Node29 -->
<g id="edge29" class="edge">
<title>Node27&#45;&gt;Node29</title>
<path fill="none" stroke="midnightblue" d="M2143.65,-129.99C2164.89,-119.69 2190.91,-107.07 2210.48,-97.58"/>
<polygon fill="midnightblue" stroke="midnightblue" points="2142.05,-126.88 2134.58,-134.4 2145.1,-133.18 2142.05,-126.88"/>
</g>
<!-- Node31 -->
<g id="node31" class="node">
<title>Node31</title>
<g id="a_node31"><a xlink:href="source_2pdes_2serial_2stokes_8cc.html" target="_top" xlink:title=" ">
<polygon fill="none" stroke="black" points="2314,-67.5 2314,-97.5 2419,-97.5 2419,-67.5 2314,-67.5"/>
<text text-anchor="start" x="2322" y="-85.5" font-family="Helvetica,sans-Serif" font-size="10.00">source/pdes/serial</text>
<text text-anchor="middle" x="2366.5" y="-74.5" font-family="Helvetica,sans-Serif" font-size="10.00">/stokes.cc</text>
</a>
</g>
</g>
<!-- Node30&#45;&gt;Node31 -->
<g id="edge31" class="edge">
<title>Node30&#45;&gt;Node31</title>
<path fill="none" stroke="midnightblue" d="M2273.08,-129.85C2293.79,-119.58 2319.09,-107.03 2338.13,-97.58"/>
<polygon fill="midnightblue" stroke="midnightblue" points="2271.33,-126.82 2263.93,-134.4 2274.44,-133.09 2271.33,-126.82"/>
</g>
<!-- Node32 -->
<g id="node32" class="node">
<title>Node32</title>
<g id="a_node32"><a xlink:href="apps_2serial_2stokes_8cc.html" target="_top" xlink:title=" ">
<polygon fill="none" stroke="black" points="2437.5,-73 2437.5,-92 2555.5,-92 2555.5,-73 2437.5,-73"/>
<text text-anchor="middle" x="2496.5" y="-80" font-family="Helvetica,sans-Serif" font-size="10.00">apps/serial/stokes.cc</text>
</a>
</g>
</g>
<!-- Node30&#45;&gt;Node32 -->
<g id="edge32" class="edge">
<title>Node30&#45;&gt;Node32</title>
<path fill="none" stroke="midnightblue" d="M2299.57,-132.54C2350.84,-119.77 2420.77,-102.36 2462.02,-92.09"/>
<polygon fill="midnightblue" stroke="midnightblue" points="2298.44,-129.22 2289.58,-135.03 2300.13,-136.01 2298.44,-129.22"/>
</g>
</g>
</svg>
