<?xml version="1.0" encoding="UTF-8" standalone="no"?>
<!DOCTYPE svg PUBLIC "-//W3C//DTD SVG 1.1//EN"
 "http://www.w3.org/Graphics/SVG/1.1/DTD/svg11.dtd">
<!-- Generated by graphviz version 2.43.0 (0)
 -->
<!-- Title: apps Pages: 1 -->
<svg width="166pt" height="132pt"
 viewBox="0.00 0.00 166.00 132.00" xmlns="http://www.w3.org/2000/svg" xmlns:xlink="http://www.w3.org/1999/xlink">
<g id="graph0" class="graph" transform="scale(1 1) rotate(0) translate(4 128)">
<title>apps</title>
<g id="clust1" class="cluster">
<title>clusterdir_9654b8d08f4bba4e84b362c5fd320bee</title>
<g id="a_clust1"><a xlink:href="dir_9654b8d08f4bba4e84b362c5fd320bee.html" target="_top">
<polygon fill="#eeeeff" stroke="black" points="8,-64 8,-116 150,-116 150,-64 8,-64"/>
</a>
</g>
</g>
<!-- dir_9654b8d08f4bba4e84b362c5fd320bee -->
<g id="node1" class="node">
<title>dir_9654b8d08f4bba4e84b362c5fd320bee</title>
<text text-anchor="middle" x="115" y="-87.5" font-family="Helvetica,sans-Serif" font-size="10.00">apps</text>
</g>
<!-- dir_d44c64559bbebec7f509842c48db8b23 -->
<g id="node3" class="node">
<title>dir_d44c64559bbebec7f509842c48db8b23</title>
<g id="a_node3"><a xlink:href="dir_d44c64559bbebec7f509842c48db8b23.html" target="_top" xlink:title="include">
<polygon fill="none" stroke="red" points="106,-36 52,-36 52,0 106,0 106,-36"/>
<text text-anchor="middle" x="79" y="-15.5" font-family="Helvetica,sans-Serif" font-size="10.00">include</text>
</a>
</g>
</g>
<!-- dir_9654b8d08f4bba4e84b362c5fd320bee&#45;&gt;dir_d44c64559bbebec7f509842c48db8b23 -->
<g id="edge2" class="edge">
<title>dir_9654b8d08f4bba4e84b362c5fd320bee&#45;&gt;dir_d44c64559bbebec7f509842c48db8b23</title>
<path fill="none" stroke="black" d="M106.1,-71.7C102,-63.73 97.05,-54.1 92.51,-45.26"/>
<polygon fill="black" stroke="black" points="95.48,-43.4 87.8,-36.1 89.26,-46.6 95.48,-43.4"/>
<g id="a_edge2&#45;headlabel"><a xlink:href="dir_000000_000002.html" target="_top" xlink:title="9">
<text text-anchor="middle" x="99.65" y="-42.79" font-family="Helvetica,sans-Serif" font-size="10.00">9</text>
</a>
</g>
</g>
<!-- dir_e7245891811a18a2b76d3fc59ab1e2d7 -->
<g id="node2" class="node">
<title>dir_e7245891811a18a2b76d3fc59ab1e2d7</title>
<g id="a_node2"><a xlink:href="dir_e7245891811a18a2b76d3fc59ab1e2d7.html" target="_top" xlink:title="serial">
<polygon fill="white" stroke="black" points="70,-108 16,-108 16,-72 70,-72 70,-108"/>
<text text-anchor="middle" x="43" y="-87.5" font-family="Helvetica,sans-Serif" font-size="10.00">serial</text>
</a>
</g>
</g>
<!-- dir_e7245891811a18a2b76d3fc59ab1e2d7&#45;&gt;dir_d44c64559bbebec7f509842c48db8b23 -->
<g id="edge1" class="edge">
<title>dir_e7245891811a18a2b76d3fc59ab1e2d7&#45;&gt;dir_d44c64559bbebec7f509842c48db8b23</title>
<path fill="none" stroke="black" d="M51.9,-71.7C56,-63.73 60.95,-54.1 65.49,-45.26"/>
<polygon fill="black" stroke="black" points="68.74,-46.6 70.2,-36.1 62.52,-43.4 68.74,-46.6"/>
<g id="a_edge1&#45;headlabel"><a xlink:href="dir_000011_000002.html" target="_top" xlink:title="7">
<text text-anchor="middle" x="69.62" y="-48.59" font-family="Helvetica,sans-Serif" font-size="10.00">7</text>
</a>
</g>
</g>
</g>
</svg>
