<?xml version="1.0" encoding="UTF-8" standalone="no"?>
<!DOCTYPE svg PUBLIC "-//W3C//DTD SVG 1.1//EN"
 "http://www.w3.org/Graphics/SVG/1.1/DTD/svg11.dtd">
<!-- Generated by graphviz version 2.43.0 (0)
 -->
<!-- Title: apps Pages: 1 -->
<svg width="238pt" height="132pt"
 viewBox="0.00 0.00 238.00 132.00" xmlns="http://www.w3.org/2000/svg" xmlns:xlink="http://www.w3.org/1999/xlink">
<g id="graph0" class="graph" transform="scale(1 1) rotate(0) translate(4 128)">
<title>apps</title>
<g id="clust1" class="cluster">
<title>clusterdir_9654b8d08f4bba4e84b362c5fd320bee</title>
<g id="a_clust1"><a xlink:href="dir_9654b8d08f4bba4e84b362c5fd320bee.html" target="_top">
<polygon fill="#eeeeff" stroke="black" points="8,-64 8,-116 222,-116 222,-64 8,-64"/>
</a>
</g>
</g>
<!-- dir_9654b8d08f4bba4e84b362c5fd320bee -->
<g id="node1" class="node">
<title>dir_9654b8d08f4bba4e84b362c5fd320bee</title>
<text text-anchor="middle" x="187" y="-87.5" font-family="Helvetica,sans-Serif" font-size="10.00">apps</text>
</g>
<!-- dir_d44c64559bbebec7f509842c48db8b23 -->
<g id="node4" class="node">
<title>dir_d44c64559bbebec7f509842c48db8b23</title>
<g id="a_node4"><a xlink:href="dir_d44c64559bbebec7f509842c48db8b23.html" target="_top" xlink:title="include">
<polygon fill="none" stroke="red" points="142,-36 88,-36 88,0 142,0 142,-36"/>
<text text-anchor="middle" x="115" y="-15.5" font-family="Helvetica,sans-Serif" font-size="10.00">include</text>
</a>
</g>
</g>
<!-- dir_9654b8d08f4bba4e84b362c5fd320bee&#45;&gt;dir_d44c64559bbebec7f509842c48db8b23 -->
<g id="edge3" class="edge">
<title>dir_9654b8d08f4bba4e84b362c5fd320bee&#45;&gt;dir_d44c64559bbebec7f509842c48db8b23</title>
<path fill="none" stroke="black" d="M169.2,-71.7C160.4,-63.14 149.62,-52.66 140,-43.3"/>
<polygon fill="black" stroke="black" points="142.2,-40.57 132.59,-36.1 137.32,-45.58 142.2,-40.57"/>
<g id="a_edge3&#45;headlabel"><a xlink:href="dir_000000_000002.html" target="_top" xlink:title="23">
<text text-anchor="middle" x="146.76" y="-38.54" font-family="Helvetica,sans-Serif" font-size="10.00">23</text>
</a>
</g>
</g>
<!-- dir_bed2a4a0c7c4050f61e346100395c310 -->
<g id="node2" class="node">
<title>dir_bed2a4a0c7c4050f61e346100395c310</title>
<g id="a_node2"><a xlink:href="dir_bed2a4a0c7c4050f61e346100395c310.html" target="_top" xlink:title="mpi">
<polygon fill="white" stroke="black" points="142,-108 88,-108 88,-72 142,-72 142,-108"/>
<text text-anchor="middle" x="115" y="-87.5" font-family="Helvetica,sans-Serif" font-size="10.00">mpi</text>
</a>
</g>
</g>
<!-- dir_bed2a4a0c7c4050f61e346100395c310&#45;&gt;dir_d44c64559bbebec7f509842c48db8b23 -->
<g id="edge2" class="edge">
<title>dir_bed2a4a0c7c4050f61e346100395c310&#45;&gt;dir_d44c64559bbebec7f509842c48db8b23</title>
<path fill="none" stroke="black" d="M115,-71.7C115,-63.98 115,-54.71 115,-46.11"/>
<polygon fill="black" stroke="black" points="118.5,-46.1 115,-36.1 111.5,-46.1 118.5,-46.1"/>
<g id="a_edge2&#45;headlabel"><a xlink:href="dir_000011_000002.html" target="_top" xlink:title="6">
<text text-anchor="middle" x="121.34" y="-47.2" font-family="Helvetica,sans-Serif" font-size="10.00">6</text>
</a>
</g>
</g>
<!-- dir_e7245891811a18a2b76d3fc59ab1e2d7 -->
<g id="node3" class="node">
<title>dir_e7245891811a18a2b76d3fc59ab1e2d7</title>
<g id="a_node3"><a xlink:href="dir_e7245891811a18a2b76d3fc59ab1e2d7.html" target="_top" xlink:title="serial">
<polygon fill="white" stroke="black" points="70,-108 16,-108 16,-72 70,-72 70,-108"/>
<text text-anchor="middle" x="43" y="-87.5" font-family="Helvetica,sans-Serif" font-size="10.00">serial</text>
</a>
</g>
</g>
<!-- dir_e7245891811a18a2b76d3fc59ab1e2d7&#45;&gt;dir_d44c64559bbebec7f509842c48db8b23 -->
<g id="edge1" class="edge">
<title>dir_e7245891811a18a2b76d3fc59ab1e2d7&#45;&gt;dir_d44c64559bbebec7f509842c48db8b23</title>
<path fill="none" stroke="black" d="M60.8,-71.7C69.6,-63.14 80.38,-52.66 90,-43.3"/>
<polygon fill="black" stroke="black" points="92.68,-45.58 97.41,-36.1 87.8,-40.57 92.68,-45.58"/>
<g id="a_edge1&#45;headlabel"><a xlink:href="dir_000012_000002.html" target="_top" xlink:title="10">
<text text-anchor="middle" x="92.08" y="-47.63" font-family="Helvetica,sans-Serif" font-size="10.00">10</text>
</a>
</g>
</g>
</g>
</svg>
