<?xml version="1.0" encoding="UTF-8" standalone="no"?>
<!DOCTYPE svg PUBLIC "-//W3C//DTD SVG 1.1//EN"
 "http://www.w3.org/Graphics/SVG/1.1/DTD/svg11.dtd">
<!-- Generated by graphviz version 2.43.0 (0)
 -->
<!-- Title: include Pages: 1 -->
<svg width="206pt" height="148pt"
 viewBox="0.00 0.00 206.00 148.00" xmlns="http://www.w3.org/2000/svg" xmlns:xlink="http://www.w3.org/1999/xlink">
<g id="graph0" class="graph" transform="scale(1 1) rotate(0) translate(4 144)">
<title>include</title>
<g id="clust1" class="cluster">
<title>clusterdir_d44c64559bbebec7f509842c48db8b23</title>
<g id="a_clust1"><a xlink:href="dir_d44c64559bbebec7f509842c48db8b23.html" target="_top">
<polygon fill="#eeeeff" stroke="black" points="8,-8 8,-132 190,-132 190,-8 8,-8"/>
</a>
</g>
</g>
<!-- dir_d44c64559bbebec7f509842c48db8b23 -->
<g id="node1" class="node">
<title>dir_d44c64559bbebec7f509842c48db8b23</title>
<text text-anchor="middle" x="143" y="-103.5" font-family="Helvetica,sans-Serif" font-size="10.00">include</text>
</g>
<!-- dir_8e8448d9aef603b86753e7cb911804a9 -->
<g id="node3" class="node">
<title>dir_8e8448d9aef603b86753e7cb911804a9</title>
<g id="a_node3"><a xlink:href="dir_8e8448d9aef603b86753e7cb911804a9.html" target="_top" xlink:title="parsed_tools">
<polygon fill="white" stroke="black" points="182.5,-52 103.5,-52 103.5,-16 182.5,-16 182.5,-52"/>
<text text-anchor="middle" x="143" y="-31.5" font-family="Helvetica,sans-Serif" font-size="10.00">parsed_tools</text>
</a>
</g>
</g>
<!-- dir_d44c64559bbebec7f509842c48db8b23&#45;&gt;dir_8e8448d9aef603b86753e7cb911804a9 -->
<g id="edge3" class="edge">
<title>dir_d44c64559bbebec7f509842c48db8b23&#45;&gt;dir_8e8448d9aef603b86753e7cb911804a9</title>
<path fill="none" stroke="black" d="M143,-87.7C143,-79.98 143,-70.71 143,-62.11"/>
<polygon fill="black" stroke="black" points="146.5,-62.1 143,-52.1 139.5,-62.1 146.5,-62.1"/>
<g id="a_edge3&#45;headlabel"><a xlink:href="dir_000002_000004.html" target="_top" xlink:title="48">
<text text-anchor="middle" x="149.34" y="-63.2" font-family="Helvetica,sans-Serif" font-size="10.00">48</text>
</a>
</g>
</g>
<!-- dir_65593bf93f1e4428cc81baf4bb94349f -->
<g id="node2" class="node">
<title>dir_65593bf93f1e4428cc81baf4bb94349f</title>
<g id="a_node2"><a xlink:href="dir_65593bf93f1e4428cc81baf4bb94349f.html" target="_top" xlink:title="parsed_lac">
<polygon fill="white" stroke="black" points="85.5,-52 16.5,-52 16.5,-16 85.5,-16 85.5,-52"/>
<text text-anchor="middle" x="51" y="-31.5" font-family="Helvetica,sans-Serif" font-size="10.00">parsed_lac</text>
</a>
</g>
</g>
<!-- dir_60faf9a10d52b04582224b9116454383 -->
<g id="node4" class="node">
<title>dir_60faf9a10d52b04582224b9116454383</title>
<g id="a_node4"><a xlink:href="dir_60faf9a10d52b04582224b9116454383.html" target="_top" xlink:title="pdes">
<polygon fill="white" stroke="red" points="88,-124 34,-124 34,-88 88,-88 88,-124"/>
<text text-anchor="middle" x="61" y="-103.5" font-family="Helvetica,sans-Serif" font-size="10.00">pdes</text>
</a>
</g>
</g>
<!-- dir_60faf9a10d52b04582224b9116454383&#45;&gt;dir_65593bf93f1e4428cc81baf4bb94349f -->
<g id="edge2" class="edge">
<title>dir_60faf9a10d52b04582224b9116454383&#45;&gt;dir_65593bf93f1e4428cc81baf4bb94349f</title>
<path fill="none" stroke="black" d="M58.53,-87.7C57.43,-79.98 56.1,-70.71 54.87,-62.11"/>
<polygon fill="black" stroke="black" points="58.32,-61.51 53.44,-52.1 51.39,-62.5 58.32,-61.51"/>
<g id="a_edge2&#45;headlabel"><a xlink:href="dir_000005_000003.html" target="_top" xlink:title="13">
<text text-anchor="middle" x="61.64" y="-62.17" font-family="Helvetica,sans-Serif" font-size="10.00">13</text>
</a>
</g>
</g>
<!-- dir_60faf9a10d52b04582224b9116454383&#45;&gt;dir_8e8448d9aef603b86753e7cb911804a9 -->
<g id="edge1" class="edge">
<title>dir_60faf9a10d52b04582224b9116454383&#45;&gt;dir_8e8448d9aef603b86753e7cb911804a9</title>
<path fill="none" stroke="black" d="M81.27,-87.7C91.5,-78.97 104.06,-68.24 115.18,-58.75"/>
<polygon fill="black" stroke="black" points="117.63,-61.26 122.96,-52.1 113.09,-55.94 117.63,-61.26"/>
<g id="a_edge1&#45;headlabel"><a xlink:href="dir_000005_000004.html" target="_top" xlink:title="46">
<text text-anchor="middle" x="116.74" y="-63.25" font-family="Helvetica,sans-Serif" font-size="10.00">46</text>
</a>
</g>
</g>
</g>
</svg>
