<?xml version="1.0" encoding="UTF-8" standalone="no"?>
<!DOCTYPE svg PUBLIC "-//W3C//DTD SVG 1.1//EN"
 "http://www.w3.org/Graphics/SVG/1.1/DTD/svg11.dtd">
<!-- Generated by graphviz version 2.43.0 (0)
 -->
<!-- Title: include/pdes/serial Pages: 1 -->
<svg width="174pt" height="151pt"
 viewBox="0.00 0.00 174.00 151.00" xmlns="http://www.w3.org/2000/svg" xmlns:xlink="http://www.w3.org/1999/xlink">
<g id="graph0" class="graph" transform="scale(1 1) rotate(0) translate(4 147)">
<title>include/pdes/serial</title>
<g id="clust1" class="cluster">
<title>clusterdir_60faf9a10d52b04582224b9116454383</title>
<g id="a_clust1"><a xlink:href="dir_60faf9a10d52b04582224b9116454383.html" target="_top" xlink:title="pdes">
<polygon fill="#ddddee" stroke="black" points="45.5,-64 45.5,-135 115.5,-135 115.5,-64 45.5,-64"/>
<text text-anchor="middle" x="80.5" y="-123" font-family="Helvetica,sans-Serif" font-size="10.00">pdes</text>
</a>
</g>
</g>
<!-- dir_0d1c0d82d2331d1d942d7c7f0084aeb2 -->
<g id="node1" class="node">
<title>dir_0d1c0d82d2331d1d942d7c7f0084aeb2</title>
<g id="a_node1"><a xlink:href="dir_0d1c0d82d2331d1d942d7c7f0084aeb2.html" target="_top" xlink:title="serial">
<polygon fill="#eeeeff" stroke="black" points="107.5,-108 53.5,-108 53.5,-72 107.5,-72 107.5,-108"/>
<text text-anchor="middle" x="80.5" y="-87.5" font-family="Helvetica,sans-Serif" font-size="10.00">serial</text>
</a>
</g>
</g>
<!-- dir_65593bf93f1e4428cc81baf4bb94349f -->
<g id="node2" class="node">
<title>dir_65593bf93f1e4428cc81baf4bb94349f</title>
<g id="a_node2"><a xlink:href="dir_65593bf93f1e4428cc81baf4bb94349f.html" target="_top" xlink:title="parsed_lac">
<polygon fill="none" stroke="black" points="69,-36 0,-36 0,0 69,0 69,-36"/>
<text text-anchor="middle" x="34.5" y="-15.5" font-family="Helvetica,sans-Serif" font-size="10.00">parsed_lac</text>
</a>
</g>
</g>
<!-- dir_0d1c0d82d2331d1d942d7c7f0084aeb2&#45;&gt;dir_65593bf93f1e4428cc81baf4bb94349f -->
<g id="edge1" class="edge">
<title>dir_0d1c0d82d2331d1d942d7c7f0084aeb2&#45;&gt;dir_65593bf93f1e4428cc81baf4bb94349f</title>
<path fill="none" stroke="black" d="M69.13,-71.7C63.78,-63.56 57.3,-53.69 51.39,-44.7"/>
<polygon fill="black" stroke="black" points="54.16,-42.54 45.74,-36.1 48.31,-46.38 54.16,-42.54"/>
<g id="a_edge1&#45;headlabel"><a xlink:href="dir_000008_000004.html" target="_top" xlink:title="9">
<text text-anchor="middle" x="58.5" y="-41.48" font-family="Helvetica,sans-Serif" font-size="10.00">9</text>
</a>
</g>
</g>
<!-- dir_8e8448d9aef603b86753e7cb911804a9 -->
<g id="node3" class="node">
<title>dir_8e8448d9aef603b86753e7cb911804a9</title>
<g id="a_node3"><a xlink:href="dir_8e8448d9aef603b86753e7cb911804a9.html" target="_top" xlink:title="parsed_tools">
<polygon fill="none" stroke="black" points="166,-36 87,-36 87,0 166,0 166,-36"/>
<text text-anchor="middle" x="126.5" y="-15.5" font-family="Helvetica,sans-Serif" font-size="10.00">parsed_tools</text>
</a>
</g>
</g>
<!-- dir_0d1c0d82d2331d1d942d7c7f0084aeb2&#45;&gt;dir_8e8448d9aef603b86753e7cb911804a9 -->
<g id="edge2" class="edge">
<title>dir_0d1c0d82d2331d1d942d7c7f0084aeb2&#45;&gt;dir_8e8448d9aef603b86753e7cb911804a9</title>
<path fill="none" stroke="black" d="M91.87,-71.7C97.22,-63.56 103.7,-53.69 109.61,-44.7"/>
<polygon fill="black" stroke="black" points="112.69,-46.38 115.26,-36.1 106.84,-42.54 112.69,-46.38"/>
<g id="a_edge2&#45;headlabel"><a xlink:href="dir_000008_000005.html" target="_top" xlink:title="32">
<text text-anchor="middle" x="113.09" y="-48.45" font-family="Helvetica,sans-Serif" font-size="10.00">32</text>
</a>
</g>
</g>
</g>
</svg>
