<?xml version="1.0" encoding="UTF-8" standalone="no"?>
<!DOCTYPE svg PUBLIC "-//W3C//DTD SVG 1.1//EN"
 "http://www.w3.org/Graphics/SVG/1.1/DTD/svg11.dtd">
<!-- Generated by graphviz version 2.43.0 (0)
 -->
<!-- Title: include/pdes Pages: 1 -->
<svg width="254pt" height="159pt"
 viewBox="0.00 0.00 254.00 159.00" xmlns="http://www.w3.org/2000/svg" xmlns:xlink="http://www.w3.org/1999/xlink">
<g id="graph0" class="graph" transform="scale(1 1) rotate(0) translate(4 155)">
<title>include/pdes</title>
<g id="clust1" class="cluster">
<title>clusterdir_d44c64559bbebec7f509842c48db8b23</title>
<g id="a_clust1"><a xlink:href="dir_d44c64559bbebec7f509842c48db8b23.html" target="_top" xlink:title="include">
<polygon fill="#ddddee" stroke="black" points="8,-56 8,-143 238,-143 238,-56 8,-56"/>
<text text-anchor="middle" x="123" y="-131" font-family="Helvetica,sans-Serif" font-size="10.00">include</text>
</a>
</g>
</g>
<g id="clust2" class="cluster">
<title>clusterdir_60faf9a10d52b04582224b9116454383</title>
<g id="a_clust2"><a xlink:href="dir_60faf9a10d52b04582224b9116454383.html" target="_top">
<polygon fill="#eeeeff" stroke="black" points="16,-64 16,-116 230,-116 230,-64 16,-64"/>
</a>
</g>
</g>
<!-- dir_60faf9a10d52b04582224b9116454383 -->
<g id="node1" class="node">
<title>dir_60faf9a10d52b04582224b9116454383</title>
<text text-anchor="middle" x="195" y="-87.5" font-family="Helvetica,sans-Serif" font-size="10.00">pdes</text>
</g>
<!-- dir_8e8448d9aef603b86753e7cb911804a9 -->
<g id="node4" class="node">
<title>dir_8e8448d9aef603b86753e7cb911804a9</title>
<g id="a_node4"><a xlink:href="dir_8e8448d9aef603b86753e7cb911804a9.html" target="_top" xlink:title="parsed_tools">
<polygon fill="none" stroke="black" points="116.5,-36 37.5,-36 37.5,0 116.5,0 116.5,-36"/>
<text text-anchor="middle" x="77" y="-15.5" font-family="Helvetica,sans-Serif" font-size="10.00">parsed_tools</text>
</a>
</g>
</g>
<!-- dir_60faf9a10d52b04582224b9116454383&#45;&gt;dir_8e8448d9aef603b86753e7cb911804a9 -->
<g id="edge1" class="edge">
<title>dir_60faf9a10d52b04582224b9116454383&#45;&gt;dir_8e8448d9aef603b86753e7cb911804a9</title>
<path fill="none" stroke="black" d="M178.35,-71.69C172.56,-66.24 165.8,-60.48 159,-56 148.81,-49.28 137.21,-43.22 126,-38.04"/>
<polygon fill="black" stroke="black" points="127.27,-34.77 116.71,-33.9 124.42,-41.17 127.27,-34.77"/>
<g id="a_edge1&#45;headlabel"><a xlink:href="dir_000006_000005.html" target="_top" xlink:title="53">
<text text-anchor="middle" x="131.71" y="-31.15" font-family="Helvetica,sans-Serif" font-size="10.00">53</text>
</a>
</g>
</g>
<!-- dir_65593bf93f1e4428cc81baf4bb94349f -->
<g id="node5" class="node">
<title>dir_65593bf93f1e4428cc81baf4bb94349f</title>
<g id="a_node5"><a xlink:href="dir_65593bf93f1e4428cc81baf4bb94349f.html" target="_top" xlink:title="parsed_lac">
<polygon fill="none" stroke="black" points="216.5,-36 147.5,-36 147.5,0 216.5,0 216.5,-36"/>
<text text-anchor="middle" x="182" y="-15.5" font-family="Helvetica,sans-Serif" font-size="10.00">parsed_lac</text>
</a>
</g>
</g>
<!-- dir_60faf9a10d52b04582224b9116454383&#45;&gt;dir_65593bf93f1e4428cc81baf4bb94349f -->
<g id="edge2" class="edge">
<title>dir_60faf9a10d52b04582224b9116454383&#45;&gt;dir_65593bf93f1e4428cc81baf4bb94349f</title>
<path fill="none" stroke="black" d="M191.79,-71.7C190.35,-63.98 188.63,-54.71 187.04,-46.11"/>
<polygon fill="black" stroke="black" points="190.44,-45.3 185.18,-36.1 183.56,-46.58 190.44,-45.3"/>
<g id="a_edge2&#45;headlabel"><a xlink:href="dir_000006_000004.html" target="_top" xlink:title="16">
<text text-anchor="middle" x="193.89" y="-45.81" font-family="Helvetica,sans-Serif" font-size="10.00">16</text>
</a>
</g>
</g>
<!-- dir_7ac85db751091b31b06a51e40fc82221 -->
<g id="node2" class="node">
<title>dir_7ac85db751091b31b06a51e40fc82221</title>
<g id="a_node2"><a xlink:href="dir_7ac85db751091b31b06a51e40fc82221.html" target="_top" xlink:title="mpi">
<polygon fill="white" stroke="black" points="150,-108 96,-108 96,-72 150,-72 150,-108"/>
<text text-anchor="middle" x="123" y="-87.5" font-family="Helvetica,sans-Serif" font-size="10.00">mpi</text>
</a>
</g>
</g>
<!-- dir_0d1c0d82d2331d1d942d7c7f0084aeb2 -->
<g id="node3" class="node">
<title>dir_0d1c0d82d2331d1d942d7c7f0084aeb2</title>
<g id="a_node3"><a xlink:href="dir_0d1c0d82d2331d1d942d7c7f0084aeb2.html" target="_top" xlink:title="serial">
<polygon fill="white" stroke="black" points="78,-108 24,-108 24,-72 78,-72 78,-108"/>
<text text-anchor="middle" x="51" y="-87.5" font-family="Helvetica,sans-Serif" font-size="10.00">serial</text>
</a>
</g>
</g>
<!-- dir_0d1c0d82d2331d1d942d7c7f0084aeb2&#45;&gt;dir_8e8448d9aef603b86753e7cb911804a9 -->
<g id="edge3" class="edge">
<title>dir_0d1c0d82d2331d1d942d7c7f0084aeb2&#45;&gt;dir_8e8448d9aef603b86753e7cb911804a9</title>
<path fill="none" stroke="black" d="M57.43,-71.7C60.36,-63.81 63.89,-54.3 67.14,-45.55"/>
<polygon fill="black" stroke="black" points="70.45,-46.7 70.65,-36.1 63.88,-44.26 70.45,-46.7"/>
<g id="a_edge3&#45;headlabel"><a xlink:href="dir_000008_000005.html" target="_top" xlink:title="32">
<text text-anchor="middle" x="71.86" y="-48.56" font-family="Helvetica,sans-Serif" font-size="10.00">32</text>
</a>
</g>
</g>
<!-- dir_0d1c0d82d2331d1d942d7c7f0084aeb2&#45;&gt;dir_65593bf93f1e4428cc81baf4bb94349f -->
<g id="edge4" class="edge">
<title>dir_0d1c0d82d2331d1d942d7c7f0084aeb2&#45;&gt;dir_65593bf93f1e4428cc81baf4bb94349f</title>
<path fill="none" stroke="black" d="M67.15,-71.82C73.02,-66.26 79.95,-60.39 87,-56 102.58,-46.31 121.11,-38.4 137.66,-32.42"/>
<polygon fill="black" stroke="black" points="138.84,-35.71 147.14,-29.12 136.54,-29.1 138.84,-35.71"/>
<g id="a_edge4&#45;headlabel"><a xlink:href="dir_000008_000004.html" target="_top" xlink:title="9">
<text text-anchor="middle" x="136.38" y="-37.07" font-family="Helvetica,sans-Serif" font-size="10.00">9</text>
</a>
</g>
</g>
</g>
</svg>
