<?xml version="1.0" encoding="UTF-8" standalone="no"?>
<!DOCTYPE svg PUBLIC "-//W3C//DTD SVG 1.1//EN"
 "http://www.w3.org/Graphics/SVG/1.1/DTD/svg11.dtd">
<!-- Generated by graphviz version 2.43.0 (0)
 -->
<!-- Title: include/pdes Pages: 1 -->
<svg width="254pt" height="159pt"
 viewBox="0.00 0.00 254.00 159.00" xmlns="http://www.w3.org/2000/svg" xmlns:xlink="http://www.w3.org/1999/xlink">
<g id="graph0" class="graph" transform="scale(1 1) rotate(0) translate(4 155)">
<title>include/pdes</title>
<g id="clust1" class="cluster">
<title>clusterdir_d44c64559bbebec7f509842c48db8b23</title>
<g id="a_clust1"><a xlink:href="dir_d44c64559bbebec7f509842c48db8b23.html" target="_top" xlink:title="include">
<polygon fill="#ddddee" stroke="black" points="8,-56 8,-143 238,-143 238,-56 8,-56"/>
<text text-anchor="middle" x="123" y="-131" font-family="Helvetica,sans-Serif" font-size="10.00">include</text>
</a>
</g>
</g>
<g id="clust2" class="cluster">
<title>clusterdir_60faf9a10d52b04582224b9116454383</title>
<g id="a_clust2"><a xlink:href="dir_60faf9a10d52b04582224b9116454383.html" target="_top">
<polygon fill="#eeeeff" stroke="black" points="16,-64 16,-116 230,-116 230,-64 16,-64"/>
</a>
</g>
</g>
<!-- dir_60faf9a10d52b04582224b9116454383 -->
<g id="node1" class="node">
<title>dir_60faf9a10d52b04582224b9116454383</title>
<text text-anchor="middle" x="195" y="-87.5" font-family="Helvetica,sans-Serif" font-size="10.00">pdes</text>
</g>
<!-- dir_7ac85db751091b31b06a51e40fc82221 -->
<g id="node2" class="node">
<title>dir_7ac85db751091b31b06a51e40fc82221</title>
<g id="a_node2"><a xlink:href="dir_7ac85db751091b31b06a51e40fc82221.html" target="_top" xlink:title="mpi">
<polygon fill="white" stroke="black" points="150,-108 96,-108 96,-72 150,-72 150,-108"/>
<text text-anchor="middle" x="123" y="-87.5" font-family="Helvetica,sans-Serif" font-size="10.00">mpi</text>
</a>
</g>
</g>
<!-- dir_8e8448d9aef603b86753e7cb911804a9 -->
<g id="node4" class="node">
<title>dir_8e8448d9aef603b86753e7cb911804a9</title>
<g id="a_node4"><a xlink:href="dir_8e8448d9aef603b86753e7cb911804a9.html" target="_top" xlink:title="parsed_tools">
<polygon fill="none" stroke="black" points="80.5,-36 1.5,-36 1.5,0 80.5,0 80.5,-36"/>
<text text-anchor="middle" x="41" y="-15.5" font-family="Helvetica,sans-Serif" font-size="10.00">parsed_tools</text>
</a>
</g>
</g>
<!-- dir_7ac85db751091b31b06a51e40fc82221&#45;&gt;dir_8e8448d9aef603b86753e7cb911804a9 -->
<g id="edge1" class="edge">
<title>dir_7ac85db751091b31b06a51e40fc82221&#45;&gt;dir_8e8448d9aef603b86753e7cb911804a9</title>
<path fill="none" stroke="black" d="M104.89,-71.98C99.23,-66.77 92.92,-61.08 87,-56 81.78,-51.51 76.13,-46.83 70.63,-42.37"/>
<polygon fill="black" stroke="black" points="72.75,-39.58 62.77,-36.03 68.36,-45.03 72.75,-39.58"/>
<g id="a_edge1&#45;headlabel"><a xlink:href="dir_000006_000004.html" target="_top" xlink:title="8">
<text text-anchor="middle" x="77.33" y="-37.12" font-family="Helvetica,sans-Serif" font-size="10.00">8</text>
</a>
</g>
</g>
<!-- dir_65593bf93f1e4428cc81baf4bb94349f -->
<g id="node5" class="node">
<title>dir_65593bf93f1e4428cc81baf4bb94349f</title>
<g id="a_node5"><a xlink:href="dir_65593bf93f1e4428cc81baf4bb94349f.html" target="_top" xlink:title="parsed_lac">
<polygon fill="none" stroke="black" points="167.5,-36 98.5,-36 98.5,0 167.5,0 167.5,-36"/>
<text text-anchor="middle" x="133" y="-15.5" font-family="Helvetica,sans-Serif" font-size="10.00">parsed_lac</text>
</a>
</g>
</g>
<!-- dir_7ac85db751091b31b06a51e40fc82221&#45;&gt;dir_65593bf93f1e4428cc81baf4bb94349f -->
<g id="edge2" class="edge">
<title>dir_7ac85db751091b31b06a51e40fc82221&#45;&gt;dir_65593bf93f1e4428cc81baf4bb94349f</title>
<path fill="none" stroke="black" d="M125.47,-71.7C126.57,-63.98 127.9,-54.71 129.13,-46.11"/>
<polygon fill="black" stroke="black" points="132.61,-46.5 130.56,-36.1 125.68,-45.51 132.61,-46.5"/>
<g id="a_edge2&#45;headlabel"><a xlink:href="dir_000006_000003.html" target="_top" xlink:title="2">
<text text-anchor="middle" x="134.91" y="-47.96" font-family="Helvetica,sans-Serif" font-size="10.00">2</text>
</a>
</g>
</g>
<!-- dir_0d1c0d82d2331d1d942d7c7f0084aeb2 -->
<g id="node3" class="node">
<title>dir_0d1c0d82d2331d1d942d7c7f0084aeb2</title>
<g id="a_node3"><a xlink:href="dir_0d1c0d82d2331d1d942d7c7f0084aeb2.html" target="_top" xlink:title="serial">
<polygon fill="white" stroke="black" points="78,-108 24,-108 24,-72 78,-72 78,-108"/>
<text text-anchor="middle" x="51" y="-87.5" font-family="Helvetica,sans-Serif" font-size="10.00">serial</text>
</a>
</g>
</g>
<!-- dir_0d1c0d82d2331d1d942d7c7f0084aeb2&#45;&gt;dir_8e8448d9aef603b86753e7cb911804a9 -->
<g id="edge3" class="edge">
<title>dir_0d1c0d82d2331d1d942d7c7f0084aeb2&#45;&gt;dir_8e8448d9aef603b86753e7cb911804a9</title>
<path fill="none" stroke="black" d="M48.53,-71.7C47.43,-63.98 46.1,-54.71 44.87,-46.11"/>
<polygon fill="black" stroke="black" points="48.32,-45.51 43.44,-36.1 41.39,-46.5 48.32,-45.51"/>
<g id="a_edge3&#45;headlabel"><a xlink:href="dir_000007_000004.html" target="_top" xlink:title="38">
<text text-anchor="middle" x="51.64" y="-46.17" font-family="Helvetica,sans-Serif" font-size="10.00">38</text>
</a>
</g>
</g>
<!-- dir_0d1c0d82d2331d1d942d7c7f0084aeb2&#45;&gt;dir_65593bf93f1e4428cc81baf4bb94349f -->
<g id="edge4" class="edge">
<title>dir_0d1c0d82d2331d1d942d7c7f0084aeb2&#45;&gt;dir_65593bf93f1e4428cc81baf4bb94349f</title>
<path fill="none" stroke="black" d="M69.11,-71.98C74.77,-66.77 81.08,-61.08 87,-56 92.22,-51.51 97.87,-46.83 103.37,-42.37"/>
<polygon fill="black" stroke="black" points="105.64,-45.03 111.23,-36.03 101.25,-39.58 105.64,-45.03"/>
<g id="a_edge4&#45;headlabel"><a xlink:href="dir_000007_000003.html" target="_top" xlink:title="11">
<text text-anchor="middle" x="104.62" y="-47" font-family="Helvetica,sans-Serif" font-size="10.00">11</text>
</a>
</g>
</g>
</g>
</svg>
