<?xml version="1.0" encoding="UTF-8" standalone="no"?>
<!DOCTYPE svg PUBLIC "-//W3C//DTD SVG 1.1//EN"
 "http://www.w3.org/Graphics/SVG/1.1/DTD/svg11.dtd">
<!-- Generated by graphviz version 2.43.0 (0)
 -->
<!-- Title: apps/dof_plotter.cc Pages: 1 -->
<svg width="3656pt" height="296pt"
 viewBox="0.00 0.00 3655.89 296.00" xmlns="http://www.w3.org/2000/svg" xmlns:xlink="http://www.w3.org/1999/xlink">
<g id="graph0" class="graph" transform="scale(1 1) rotate(0) translate(4 292)">
<title>apps/dof_plotter.cc</title>
<!-- Node1 -->
<g id="node1" class="node">
<title>Node1</title>
<g id="a_node1"><a xlink:title="Degrees of freedom plotter.">
<polygon fill="#bfbfbf" stroke="black" points="2473.39,-268.5 2473.39,-287.5 2582.39,-287.5 2582.39,-268.5 2473.39,-268.5"/>
<text text-anchor="middle" x="2527.89" y="-275.5" font-family="Helvetica,sans-Serif" font-size="10.00">apps/dof_plotter.cc</text>
</a>
</g>
</g>
<!-- Node2 -->
<g id="node2" class="node">
<title>Node2</title>
<g id="a_node2"><a target="_parent" xlink:href="http://www.dealii.org/developer/doxygen/deal.II/dof__handler_8h.html.html" xlink:title=" ">
<polygon fill="none" stroke="black" points="744.89,-140 744.89,-159 884.89,-159 884.89,-140 744.89,-140"/>
<text text-anchor="middle" x="814.89" y="-147" font-family="Helvetica,sans-Serif" font-size="10.00">deal.II/dofs/dof_handler.h</text>
</a>
</g>
</g>
<!-- Node1&#45;&gt;Node2 -->
<g id="edge1" class="edge">
<title>Node1&#45;&gt;Node2</title>
<path fill="none" stroke="midnightblue" d="M2473.29,-276.29C2258.75,-273.3 1473.32,-260.62 1225.89,-232 1090.45,-216.33 933.02,-179.92 858.4,-161.54"/>
<polygon fill="midnightblue" stroke="midnightblue" points="858.98,-158.07 848.43,-159.07 857.3,-164.87 858.98,-158.07"/>
</g>
<!-- Node6 -->
<g id="node6" class="node">
<title>Node6</title>
<g id="a_node6"><a target="_parent" xlink:href="http://www.dealii.org/developer/doxygen/deal.II/dof__tools_8h.html.html" xlink:title=" ">
<polygon fill="none" stroke="black" points="2463.89,-207 2463.89,-226 2591.89,-226 2591.89,-207 2463.89,-207"/>
<text text-anchor="middle" x="2527.89" y="-214" font-family="Helvetica,sans-Serif" font-size="10.00">deal.II/dofs/dof_tools.h</text>
</a>
</g>
</g>
<!-- Node1&#45;&gt;Node6 -->
<g id="edge5" class="edge">
<title>Node1&#45;&gt;Node6</title>
<path fill="none" stroke="midnightblue" d="M2527.89,-268.48C2527.89,-260.08 2527.89,-246.98 2527.89,-236.16"/>
<polygon fill="midnightblue" stroke="midnightblue" points="2531.39,-236.01 2527.89,-226.01 2524.39,-236.01 2531.39,-236.01"/>
</g>
<!-- Node7 -->
<g id="node7" class="node">
<title>Node7</title>
<g id="a_node7"><a target="_parent" xlink:href="http://www.dealii.org/developer/doxygen/deal.II/mapping__fe_8h.html.html" xlink:title=" ">
<polygon fill="none" stroke="black" points="2610.39,-207 2610.39,-226 2739.39,-226 2739.39,-207 2610.39,-207"/>
<text text-anchor="middle" x="2674.89" y="-214" font-family="Helvetica,sans-Serif" font-size="10.00">deal.II/fe/mapping_fe.h</text>
</a>
</g>
</g>
<!-- Node1&#45;&gt;Node7 -->
<g id="edge6" class="edge">
<title>Node1&#45;&gt;Node7</title>
<path fill="none" stroke="midnightblue" d="M2548.96,-268.48C2573.95,-258.36 2615.84,-241.4 2644.38,-229.85"/>
<polygon fill="midnightblue" stroke="midnightblue" points="2645.92,-233.01 2653.87,-226.01 2643.29,-226.52 2645.92,-233.01"/>
</g>
<!-- Node8 -->
<g id="node8" class="node">
<title>Node8</title>
<g id="a_node8"><a target="_parent" xlink:href="http://www.dealii.org/developer/doxygen/deal.II/reference__cell_8h.html.html" xlink:title=" ">
<polygon fill="none" stroke="black" points="3177.89,-134.5 3177.89,-164.5 3295.89,-164.5 3295.89,-134.5 3177.89,-134.5"/>
<text text-anchor="start" x="3185.89" y="-152.5" font-family="Helvetica,sans-Serif" font-size="10.00">deal.II/grid/reference</text>
<text text-anchor="middle" x="3236.89" y="-141.5" font-family="Helvetica,sans-Serif" font-size="10.00">_cell.h</text>
</a>
</g>
</g>
<!-- Node1&#45;&gt;Node8 -->
<g id="edge7" class="edge">
<title>Node1&#45;&gt;Node8</title>
<path fill="none" stroke="midnightblue" d="M2501.68,-268.41C2485.04,-261.44 2464.84,-249.81 2454.89,-232 2448.18,-219.97 2445.41,-210.99 2454.89,-201 2481.44,-173.04 3109.56,-169.11 3147.89,-165 3154.23,-164.32 3160.8,-163.49 3167.36,-162.58"/>
<polygon fill="midnightblue" stroke="midnightblue" points="3168.26,-165.98 3177.65,-161.08 3167.25,-159.06 3168.26,-165.98"/>
</g>
<!-- Node9 -->
<g id="node9" class="node">
<title>Node9</title>
<g id="a_node9"><a target="_parent" xlink:href="http://www.dealii.org/developer/doxygen/deal.II/dynamic__sparsity__pattern_8h.html.html" xlink:title=" ">
<polygon fill="none" stroke="black" points="2757.89,-201.5 2757.89,-231.5 2867.89,-231.5 2867.89,-201.5 2757.89,-201.5"/>
<text text-anchor="start" x="2765.89" y="-219.5" font-family="Helvetica,sans-Serif" font-size="10.00">deal.II/lac/dynamic</text>
<text text-anchor="middle" x="2812.89" y="-208.5" font-family="Helvetica,sans-Serif" font-size="10.00">_sparsity_pattern.h</text>
</a>
</g>
</g>
<!-- Node1&#45;&gt;Node9 -->
<g id="edge8" class="edge">
<title>Node1&#45;&gt;Node9</title>
<path fill="none" stroke="midnightblue" d="M2571.15,-268.48C2613.65,-260.05 2680.62,-246.59 2747.84,-232.2"/>
<polygon fill="midnightblue" stroke="midnightblue" points="2748.71,-235.59 2757.75,-230.07 2747.24,-228.75 2748.71,-235.59"/>
</g>
<!-- Node10 -->
<g id="node10" class="node">
<title>Node10</title>
<g id="a_node10"><a target="_parent" xlink:href="http://www.dealii.org/developer/doxygen/deal.II/full__matrix_8h.html.html" xlink:title=" ">
<polygon fill="none" stroke="black" points="2886.39,-207 2886.39,-226 3015.39,-226 3015.39,-207 2886.39,-207"/>
<text text-anchor="middle" x="2950.89" y="-214" font-family="Helvetica,sans-Serif" font-size="10.00">deal.II/lac/full_matrix.h</text>
</a>
</g>
</g>
<!-- Node1&#45;&gt;Node10 -->
<g id="edge9" class="edge">
<title>Node1&#45;&gt;Node10</title>
<path fill="none" stroke="midnightblue" d="M2582.46,-271.08C2651.28,-263.36 2773.17,-248.83 2876.89,-232 2884.35,-230.79 2892.21,-229.39 2899.9,-227.94"/>
<polygon fill="midnightblue" stroke="midnightblue" points="2900.72,-231.35 2909.88,-226.03 2899.4,-224.48 2900.72,-231.35"/>
</g>
<!-- Node11 -->
<g id="node11" class="node">
<title>Node11</title>
<g id="a_node11"><a target="_parent" xlink:href="http://www.dealii.org/developer/doxygen/deal.II/linear__operator__tools_8h.html.html" xlink:title=" ">
<polygon fill="none" stroke="black" points="3033.39,-201.5 3033.39,-231.5 3134.39,-231.5 3134.39,-201.5 3033.39,-201.5"/>
<text text-anchor="start" x="3041.39" y="-219.5" font-family="Helvetica,sans-Serif" font-size="10.00">deal.II/lac/linear</text>
<text text-anchor="middle" x="3083.89" y="-208.5" font-family="Helvetica,sans-Serif" font-size="10.00">_operator_tools.h</text>
</a>
</g>
</g>
<!-- Node1&#45;&gt;Node11 -->
<g id="edge10" class="edge">
<title>Node1&#45;&gt;Node11</title>
<path fill="none" stroke="midnightblue" d="M2582.66,-274.74C2672.7,-270.44 2857.74,-259.12 3022.81,-232.2"/>
<polygon fill="midnightblue" stroke="midnightblue" points="3023.85,-235.57 3033.15,-230.49 3022.71,-228.67 3023.85,-235.57"/>
</g>
<!-- Node12 -->
<g id="node12" class="node">
<title>Node12</title>
<g id="a_node12"><a target="_parent" xlink:href="http://www.dealii.org/developer/doxygen/deal.II/precondition_8h.html.html" xlink:title=" ">
<polygon fill="none" stroke="black" points="3152.39,-207 3152.39,-226 3289.39,-226 3289.39,-207 3152.39,-207"/>
<text text-anchor="middle" x="3220.89" y="-214" font-family="Helvetica,sans-Serif" font-size="10.00">deal.II/lac/precondition.h</text>
</a>
</g>
</g>
<!-- Node1&#45;&gt;Node12 -->
<g id="edge11" class="edge">
<title>Node1&#45;&gt;Node12</title>
<path fill="none" stroke="midnightblue" d="M2582.49,-275.09C2690.22,-270.86 2937.61,-258.87 3143.89,-232 3152.43,-230.89 3161.44,-229.44 3170.18,-227.89"/>
<polygon fill="midnightblue" stroke="midnightblue" points="3171.07,-231.29 3180.27,-226.04 3169.8,-224.4 3171.07,-231.29"/>
</g>
<!-- Node13 -->
<g id="node13" class="node">
<title>Node13</title>
<g id="a_node13"><a target="_parent" xlink:href="http://www.dealii.org/developer/doxygen/deal.II/sparse__direct_8h.html.html" xlink:title=" ">
<polygon fill="none" stroke="black" points="3307.39,-201.5 3307.39,-231.5 3406.39,-231.5 3406.39,-201.5 3307.39,-201.5"/>
<text text-anchor="start" x="3315.39" y="-219.5" font-family="Helvetica,sans-Serif" font-size="10.00">deal.II/lac/sparse</text>
<text text-anchor="middle" x="3356.89" y="-208.5" font-family="Helvetica,sans-Serif" font-size="10.00">_direct.h</text>
</a>
</g>
</g>
<!-- Node1&#45;&gt;Node13 -->
<g id="edge12" class="edge">
<title>Node1&#45;&gt;Node13</title>
<path fill="none" stroke="midnightblue" d="M2582.47,-277.3C2707.58,-277.23 3024.62,-272.82 3297.26,-232.06"/>
<polygon fill="midnightblue" stroke="midnightblue" points="3297.98,-235.49 3307.34,-230.53 3296.93,-228.57 3297.98,-235.49"/>
</g>
<!-- Node14 -->
<g id="node14" class="node">
<title>Node14</title>
<g id="a_node14"><a target="_parent" xlink:href="http://www.dealii.org/developer/doxygen/deal.II/sparse__matrix_8h.html.html" xlink:title=" ">
<polygon fill="none" stroke="black" points="3424.39,-201.5 3424.39,-231.5 3523.39,-231.5 3523.39,-201.5 3424.39,-201.5"/>
<text text-anchor="start" x="3432.39" y="-219.5" font-family="Helvetica,sans-Serif" font-size="10.00">deal.II/lac/sparse</text>
<text text-anchor="middle" x="3473.89" y="-208.5" font-family="Helvetica,sans-Serif" font-size="10.00">_matrix.h</text>
</a>
</g>
</g>
<!-- Node1&#45;&gt;Node14 -->
<g id="edge13" class="edge">
<title>Node1&#45;&gt;Node14</title>
<path fill="none" stroke="midnightblue" d="M2582.64,-275.62C2746.9,-271.26 3234.8,-256.69 3414.25,-232.01"/>
<polygon fill="midnightblue" stroke="midnightblue" points="3414.95,-235.44 3424.35,-230.56 3413.95,-228.52 3414.95,-235.44"/>
</g>
<!-- Node15 -->
<g id="node15" class="node">
<title>Node15</title>
<g id="a_node15"><a target="_parent" xlink:href="http://www.dealii.org/developer/doxygen/deal.II/vector_8h.html.html" xlink:title=" ">
<polygon fill="none" stroke="black" points="3541.89,-207 3541.89,-226 3647.89,-226 3647.89,-207 3541.89,-207"/>
<text text-anchor="middle" x="3594.89" y="-214" font-family="Helvetica,sans-Serif" font-size="10.00">deal.II/lac/vector.h</text>
</a>
</g>
</g>
<!-- Node1&#45;&gt;Node15 -->
<g id="edge14" class="edge">
<title>Node1&#45;&gt;Node15</title>
<path fill="none" stroke="midnightblue" d="M2582.66,-275.88C2764.46,-271.97 3346.91,-257.69 3532.89,-232 3539.66,-231.07 3546.78,-229.74 3553.68,-228.26"/>
<polygon fill="midnightblue" stroke="midnightblue" points="3554.59,-231.64 3563.56,-226.01 3553.04,-224.81 3554.59,-231.64"/>
</g>
<!-- Node16 -->
<g id="node16" class="node">
<title>Node16</title>
<g id="a_node16"><a target="_parent" xlink:href="http://www.dealii.org/developer/doxygen/deal.II/matrix__tools_8h.html.html" xlink:title=" ">
<polygon fill="none" stroke="black" points="89.89,-201.5 89.89,-231.5 219.89,-231.5 219.89,-201.5 89.89,-201.5"/>
<text text-anchor="start" x="97.89" y="-219.5" font-family="Helvetica,sans-Serif" font-size="10.00">deal.II/numerics/matrix</text>
<text text-anchor="middle" x="154.89" y="-208.5" font-family="Helvetica,sans-Serif" font-size="10.00">_tools.h</text>
</a>
</g>
</g>
<!-- Node1&#45;&gt;Node16 -->
<g id="edge15" class="edge">
<title>Node1&#45;&gt;Node16</title>
<path fill="none" stroke="midnightblue" d="M2473.3,-276.43C2232.99,-273.81 1245.3,-261.69 434.89,-232 365.52,-229.46 286.54,-225.25 230.18,-222.02"/>
<polygon fill="midnightblue" stroke="midnightblue" points="230.12,-218.51 219.93,-221.43 229.72,-225.5 230.12,-218.51"/>
</g>
<!-- Node17 -->
<g id="node17" class="node">
<title>Node17</title>
<g id="a_node17"><a xlink:href="components_8h.html" target="_top" xlink:title=" ">
<polygon fill="none" stroke="black" points="2104.39,-207 2104.39,-226 2255.39,-226 2255.39,-207 2104.39,-207"/>
<text text-anchor="middle" x="2179.89" y="-214" font-family="Helvetica,sans-Serif" font-size="10.00">parsed_tools/components.h</text>
</a>
</g>
</g>
<!-- Node1&#45;&gt;Node17 -->
<g id="edge17" class="edge">
<title>Node1&#45;&gt;Node17</title>
<path fill="none" stroke="midnightblue" d="M2478.03,-268.48C2415.11,-257.72 2306.99,-239.23 2239.69,-227.72"/>
<polygon fill="midnightblue" stroke="midnightblue" points="2240.11,-224.24 2229.66,-226.01 2238.93,-231.14 2240.11,-224.24"/>
</g>
<!-- Node32 -->
<g id="node32" class="node">
<title>Node32</title>
<g id="a_node32"><a xlink:href="data__out_8h.html" target="_top" xlink:title=" ">
<polygon fill="none" stroke="black" points="1234.89,-207 1234.89,-226 1368.89,-226 1368.89,-207 1234.89,-207"/>
<text text-anchor="middle" x="1301.89" y="-214" font-family="Helvetica,sans-Serif" font-size="10.00">parsed_tools/data_out.h</text>
</a>
</g>
</g>
<!-- Node1&#45;&gt;Node32 -->
<g id="edge32" class="edge">
<title>Node1&#45;&gt;Node32</title>
<path fill="none" stroke="midnightblue" d="M2473.23,-274.35C2277.02,-264.82 1607.74,-232.34 1379.15,-221.25"/>
<polygon fill="midnightblue" stroke="midnightblue" points="1379.08,-217.74 1368.93,-220.75 1378.74,-224.73 1379.08,-217.74"/>
</g>
<!-- Node39 -->
<g id="node39" class="node">
<title>Node39</title>
<g id="a_node39"><a xlink:href="finite__element_8h.html" target="_top" xlink:title=" ">
<polygon fill="none" stroke="black" points="1919.39,-201.5 1919.39,-231.5 2026.39,-231.5 2026.39,-201.5 1919.39,-201.5"/>
<text text-anchor="start" x="1927.39" y="-219.5" font-family="Helvetica,sans-Serif" font-size="10.00">parsed_tools/finite</text>
<text text-anchor="middle" x="1972.89" y="-208.5" font-family="Helvetica,sans-Serif" font-size="10.00">_element.h</text>
</a>
</g>
</g>
<!-- Node1&#45;&gt;Node39 -->
<g id="edge44" class="edge">
<title>Node1&#45;&gt;Node39</title>
<path fill="none" stroke="midnightblue" d="M2473.31,-271.55C2391.33,-263.32 2231.55,-247.06 2095.89,-232 2076.6,-229.86 2055.62,-227.42 2036.54,-225.17"/>
<polygon fill="midnightblue" stroke="midnightblue" points="2036.8,-221.68 2026.46,-223.97 2035.98,-228.63 2036.8,-221.68"/>
</g>
<!-- Node41 -->
<g id="node41" class="node">
<title>Node41</title>
<g id="a_node41"><a xlink:href="grid__generator_8h.html" target="_top" xlink:title=" ">
<polygon fill="none" stroke="black" points="444.39,-207 444.39,-226 605.39,-226 605.39,-207 444.39,-207"/>
<text text-anchor="middle" x="524.89" y="-214" font-family="Helvetica,sans-Serif" font-size="10.00">parsed_tools/grid_generator.h</text>
</a>
</g>
</g>
<!-- Node1&#45;&gt;Node41 -->
<g id="edge47" class="edge">
<title>Node1&#45;&gt;Node41</title>
<path fill="none" stroke="midnightblue" d="M2473.28,-275.38C2198.07,-267.2 962.75,-230.51 615.79,-220.2"/>
<polygon fill="midnightblue" stroke="midnightblue" points="615.64,-216.69 605.54,-219.9 615.43,-223.69 615.64,-216.69"/>
</g>
<!-- Node46 -->
<g id="node46" class="node">
<title>Node46</title>
<g id="a_node46"><a xlink:href="grid__info_8h.html" target="_top" xlink:title=" ">
<polygon fill="none" stroke="black" points="2273.89,-207 2273.89,-226 2407.89,-226 2407.89,-207 2273.89,-207"/>
<text text-anchor="middle" x="2340.89" y="-214" font-family="Helvetica,sans-Serif" font-size="10.00">parsed_tools/grid_info.h</text>
</a>
</g>
</g>
<!-- Node1&#45;&gt;Node46 -->
<g id="edge56" class="edge">
<title>Node1&#45;&gt;Node46</title>
<path fill="none" stroke="midnightblue" d="M2501.1,-268.48C2468.61,-258.14 2413.69,-240.66 2377.36,-229.1"/>
<polygon fill="midnightblue" stroke="midnightblue" points="2378.23,-225.71 2367.64,-226.01 2376.11,-232.38 2378.23,-225.71"/>
</g>
<!-- Node3 -->
<g id="node3" class="node">
<title>Node3</title>
<g id="a_node3"><a xlink:href="function_8h.html" target="_top" xlink:title=" ">
<polygon fill="none" stroke="black" points="220.39,-73 220.39,-92 345.39,-92 345.39,-73 220.39,-73"/>
<text text-anchor="middle" x="282.89" y="-80" font-family="Helvetica,sans-Serif" font-size="10.00">deal.II/base/function.h</text>
</a>
</g>
</g>
<!-- Node2&#45;&gt;Node3 -->
<g id="edge2" class="edge">
<title>Node2&#45;&gt;Node3</title>
<path fill="none" stroke="midnightblue" d="M771.52,-139.97C759.97,-137.86 747.48,-135.71 735.89,-134 602.28,-114.32 445.48,-98.43 355.79,-90.03"/>
<polygon fill="midnightblue" stroke="midnightblue" points="356.01,-86.54 345.73,-89.09 355.36,-93.51 356.01,-86.54"/>
</g>
<!-- Node4 -->
<g id="node4" class="node">
<title>Node4</title>
<g id="a_node4"><a target="_parent" xlink:href="http://www.dealii.org/developer/doxygen/deal.II/function__parser_8h.html.html" xlink:title=" ">
<polygon fill="none" stroke="black" points="224.89,-0.5 224.89,-30.5 340.89,-30.5 340.89,-0.5 224.89,-0.5"/>
<text text-anchor="start" x="232.89" y="-18.5" font-family="Helvetica,sans-Serif" font-size="10.00">deal.II/base/function</text>
<text text-anchor="middle" x="282.89" y="-7.5" font-family="Helvetica,sans-Serif" font-size="10.00">_parser.h</text>
</a>
</g>
</g>
<!-- Node3&#45;&gt;Node4 -->
<g id="edge3" class="edge">
<title>Node3&#45;&gt;Node4</title>
<path fill="none" stroke="midnightblue" d="M282.89,-72.73C282.89,-64.54 282.89,-51.92 282.89,-40.71"/>
<polygon fill="midnightblue" stroke="midnightblue" points="286.39,-40.59 282.89,-30.59 279.39,-40.59 286.39,-40.59"/>
</g>
<!-- Node5 -->
<g id="node5" class="node">
<title>Node5</title>
<g id="a_node5"><a target="_parent" xlink:href="http://www.dealii.org/developer/doxygen/deal.II/parameter__acceptor_8h.html.html" xlink:title=" ">
<polygon fill="none" stroke="black" points="675.39,-0.5 675.39,-30.5 802.39,-30.5 802.39,-0.5 675.39,-0.5"/>
<text text-anchor="start" x="683.39" y="-18.5" font-family="Helvetica,sans-Serif" font-size="10.00">deal.II/base/parameter</text>
<text text-anchor="middle" x="738.89" y="-7.5" font-family="Helvetica,sans-Serif" font-size="10.00">_acceptor.h</text>
</a>
</g>
</g>
<!-- Node3&#45;&gt;Node5 -->
<g id="edge4" class="edge">
<title>Node3&#45;&gt;Node5</title>
<path fill="none" stroke="midnightblue" d="M342.98,-72.94C425.99,-61.1 575.66,-39.77 665.29,-26.99"/>
<polygon fill="midnightblue" stroke="midnightblue" points="665.97,-30.43 675.38,-25.55 664.98,-23.5 665.97,-30.43"/>
</g>
<!-- Node16&#45;&gt;Node3 -->
<g id="edge16" class="edge">
<title>Node16&#45;&gt;Node3</title>
<path fill="none" stroke="midnightblue" d="M89.78,-203.44C38.17,-191.01 -20.87,-168.53 7.89,-134 33.19,-103.63 137.58,-91.47 210.2,-86.63"/>
<polygon fill="midnightblue" stroke="midnightblue" points="210.46,-90.12 220.22,-86 210.02,-83.14 210.46,-90.12"/>
</g>
<!-- Node18 -->
<g id="node18" class="node">
<title>Node18</title>
<g id="a_node18"><a target="_parent" xlink:href="http://www.dealii.org/developer/doxygen/deal.II/config_8h.html.html" xlink:title=" ">
<polygon fill="none" stroke="black" points="1509.89,-140 1509.89,-159 1623.89,-159 1623.89,-140 1509.89,-140"/>
<text text-anchor="middle" x="1566.89" y="-147" font-family="Helvetica,sans-Serif" font-size="10.00">deal.II/base/config.h</text>
</a>
</g>
</g>
<!-- Node17&#45;&gt;Node18 -->
<g id="edge18" class="edge">
<title>Node17&#45;&gt;Node18</title>
<path fill="none" stroke="midnightblue" d="M2104.04,-207.84C2082.06,-205.62 2058.02,-203.21 2035.89,-201 1874.13,-184.86 1833.33,-184.12 1671.89,-165 1659.64,-163.55 1646.6,-161.86 1634.02,-160.16"/>
<polygon fill="midnightblue" stroke="midnightblue" points="1634.44,-156.69 1624.06,-158.8 1633.5,-163.62 1634.44,-156.69"/>
</g>
<!-- Node19 -->
<g id="node19" class="node">
<title>Node19</title>
<g id="a_node19"><a target="_parent" xlink:href="http://www.dealii.org/developer/doxygen/deal.II/include_2deal_8II_2base_2quadrature_8h.html.html" xlink:title=" ">
<polygon fill="none" stroke="black" points="2171.89,-140 2171.89,-159 2309.89,-159 2309.89,-140 2171.89,-140"/>
<text text-anchor="middle" x="2240.89" y="-147" font-family="Helvetica,sans-Serif" font-size="10.00">deal.II/base/quadrature.h</text>
</a>
</g>
</g>
<!-- Node17&#45;&gt;Node19 -->
<g id="edge19" class="edge">
<title>Node17&#45;&gt;Node19</title>
<path fill="none" stroke="midnightblue" d="M2188.12,-206.73C2197.72,-196.5 2213.81,-179.36 2225.7,-166.69"/>
<polygon fill="midnightblue" stroke="midnightblue" points="2228.51,-168.81 2232.8,-159.13 2223.4,-164.02 2228.51,-168.81"/>
</g>
<!-- Node20 -->
<g id="node20" class="node">
<title>Node20</title>
<g id="a_node20"><a target="_parent" xlink:href="http://www.dealii.org/developer/doxygen/deal.II/quadrature__lib_8h.html.html" xlink:title=" ">
<polygon fill="none" stroke="black" points="2328.39,-134.5 2328.39,-164.5 2457.39,-164.5 2457.39,-134.5 2328.39,-134.5"/>
<text text-anchor="start" x="2336.39" y="-152.5" font-family="Helvetica,sans-Serif" font-size="10.00">deal.II/base/quadrature</text>
<text text-anchor="middle" x="2392.89" y="-141.5" font-family="Helvetica,sans-Serif" font-size="10.00">_lib.h</text>
</a>
</g>
</g>
<!-- Node17&#45;&gt;Node20 -->
<g id="edge20" class="edge">
<title>Node17&#45;&gt;Node20</title>
<path fill="none" stroke="midnightblue" d="M2208.18,-206.87C2240.97,-196.86 2295.81,-180.13 2337.24,-167.48"/>
<polygon fill="midnightblue" stroke="midnightblue" points="2338.38,-170.79 2346.93,-164.53 2336.34,-164.1 2338.38,-170.79"/>
</g>
<!-- Node21 -->
<g id="node21" class="node">
<title>Node21</title>
<g id="a_node21"><a target="_parent" xlink:href="http://www.dealii.org/developer/doxygen/deal.II/include_2deal_8II_2base_2utilities_8h.html.html" xlink:title=" ">
<polygon fill="none" stroke="black" points="2475.89,-140 2475.89,-159 2597.89,-159 2597.89,-140 2475.89,-140"/>
<text text-anchor="middle" x="2536.89" y="-147" font-family="Helvetica,sans-Serif" font-size="10.00">deal.II/base/utilities.h</text>
</a>
</g>
</g>
<!-- Node17&#45;&gt;Node21 -->
<g id="edge21" class="edge">
<title>Node17&#45;&gt;Node21</title>
<path fill="none" stroke="midnightblue" d="M2229.52,-206.95C2299.14,-194.93 2422.3,-173.54 2466.89,-165 2473.21,-163.79 2479.84,-162.48 2486.4,-161.15"/>
<polygon fill="midnightblue" stroke="midnightblue" points="2487.49,-164.5 2496.59,-159.07 2486.09,-157.64 2487.49,-164.5"/>
</g>
<!-- Node22 -->
<g id="node22" class="node">
<title>Node22</title>
<g id="a_node22"><a target="_parent" xlink:href="http://www.dealii.org/developer/doxygen/deal.II/component__mask_8h.html.html" xlink:title=" ">
<polygon fill="none" stroke="black" points="2616.39,-134.5 2616.39,-164.5 2733.39,-164.5 2733.39,-134.5 2616.39,-134.5"/>
<text text-anchor="start" x="2624.39" y="-152.5" font-family="Helvetica,sans-Serif" font-size="10.00">deal.II/fe/component</text>
<text text-anchor="middle" x="2674.89" y="-141.5" font-family="Helvetica,sans-Serif" font-size="10.00">_mask.h</text>
</a>
</g>
</g>
<!-- Node17&#45;&gt;Node22 -->
<g id="edge22" class="edge">
<title>Node17&#45;&gt;Node22</title>
<path fill="none" stroke="midnightblue" d="M2226.58,-206.98C2239,-204.87 2252.44,-202.72 2264.89,-201 2413.05,-180.59 2454.19,-188.6 2606.19,-164.99"/>
<polygon fill="midnightblue" stroke="midnightblue" points="2607.03,-168.4 2616.36,-163.39 2605.94,-161.49 2607.03,-168.4"/>
</g>
<!-- Node23 -->
<g id="node23" class="node">
<title>Node23</title>
<g id="a_node23"><a target="_parent" xlink:href="http://www.dealii.org/developer/doxygen/deal.II/fe__dgq_8h.html.html" xlink:title=" ">
<polygon fill="none" stroke="black" points="2751.89,-140 2751.89,-159 2855.89,-159 2855.89,-140 2751.89,-140"/>
<text text-anchor="middle" x="2803.89" y="-147" font-family="Helvetica,sans-Serif" font-size="10.00">deal.II/fe/fe_dgq.h</text>
</a>
</g>
</g>
<!-- Node17&#45;&gt;Node23 -->
<g id="edge23" class="edge">
<title>Node17&#45;&gt;Node23</title>
<path fill="none" stroke="midnightblue" d="M2225.21,-206.96C2238.01,-204.77 2251.97,-202.59 2264.89,-201 2476.36,-175.06 2532.38,-197.74 2742.89,-165 2749.18,-164.02 2755.77,-162.74 2762.2,-161.33"/>
<polygon fill="midnightblue" stroke="midnightblue" points="2763.14,-164.71 2772.11,-159.06 2761.58,-157.89 2763.14,-164.71"/>
</g>
<!-- Node24 -->
<g id="node24" class="node">
<title>Node24</title>
<g id="a_node24"><a target="_parent" xlink:href="http://www.dealii.org/developer/doxygen/deal.II/fe__q_8h.html.html" xlink:title=" ">
<polygon fill="none" stroke="black" points="2873.89,-140 2873.89,-159 2965.89,-159 2965.89,-140 2873.89,-140"/>
<text text-anchor="middle" x="2919.89" y="-147" font-family="Helvetica,sans-Serif" font-size="10.00">deal.II/fe/fe_q.h</text>
</a>
</g>
</g>
<!-- Node17&#45;&gt;Node24 -->
<g id="edge24" class="edge">
<title>Node17&#45;&gt;Node24</title>
<path fill="none" stroke="midnightblue" d="M2224.32,-206.98C2237.35,-204.74 2251.66,-202.52 2264.89,-201 2530.29,-170.49 2601.11,-207.26 2864.89,-165 2870.44,-164.11 2876.24,-162.9 2881.9,-161.56"/>
<polygon fill="midnightblue" stroke="midnightblue" points="2883.03,-164.88 2891.86,-159.03 2881.31,-158.1 2883.03,-164.88"/>
</g>
<!-- Node25 -->
<g id="node25" class="node">
<title>Node25</title>
<g id="a_node25"><a target="_parent" xlink:href="http://www.dealii.org/developer/doxygen/deal.II/fe__simplex__p_8h.html.html" xlink:title=" ">
<polygon fill="none" stroke="black" points="2984.39,-140 2984.39,-159 3121.39,-159 3121.39,-140 2984.39,-140"/>
<text text-anchor="middle" x="3052.89" y="-147" font-family="Helvetica,sans-Serif" font-size="10.00">deal.II/fe/fe_simplex_p.h</text>
</a>
</g>
</g>
<!-- Node17&#45;&gt;Node25 -->
<g id="edge25" class="edge">
<title>Node17&#45;&gt;Node25</title>
<path fill="none" stroke="midnightblue" d="M2223.87,-206.98C2237.02,-204.71 2251.5,-202.48 2264.89,-201 2578.95,-166.37 2661.1,-201.96 2974.89,-165 2983.84,-163.95 2993.3,-162.49 3002.44,-160.89"/>
<polygon fill="midnightblue" stroke="midnightblue" points="3003.35,-164.28 3012.57,-159.05 3002.1,-157.4 3003.35,-164.28"/>
</g>
<!-- Node26 -->
<g id="node26" class="node">
<title>Node26</title>
<g id="a_node26"><a target="_parent" xlink:href="http://www.dealii.org/developer/doxygen/deal.II/fe__system_8h.html.html" xlink:title=" ">
<polygon fill="none" stroke="black" points="2031.89,-140 2031.89,-159 2153.89,-159 2153.89,-140 2031.89,-140"/>
<text text-anchor="middle" x="2092.89" y="-147" font-family="Helvetica,sans-Serif" font-size="10.00">deal.II/fe/fe_system.h</text>
</a>
</g>
</g>
<!-- Node17&#45;&gt;Node26 -->
<g id="edge26" class="edge">
<title>Node17&#45;&gt;Node26</title>
<path fill="none" stroke="midnightblue" d="M2168.16,-206.73C2153.94,-196.11 2129.77,-178.05 2112.66,-165.26"/>
<polygon fill="midnightblue" stroke="midnightblue" points="2114.55,-162.31 2104.44,-159.13 2110.36,-167.92 2114.55,-162.31"/>
</g>
<!-- Node27 -->
<g id="node27" class="node">
<title>Node27</title>
<g id="a_node27"><a target="_parent" xlink:href="http://www.dealii.org/developer/doxygen/deal.II/grid_2tria_8h.html.html" xlink:title=" ">
<polygon fill="none" stroke="black" points="1817.39,-140 1817.39,-159 1914.39,-159 1914.39,-140 1817.39,-140"/>
<text text-anchor="middle" x="1865.89" y="-147" font-family="Helvetica,sans-Serif" font-size="10.00">deal.II/grid/tria.h</text>
</a>
</g>
</g>
<!-- Node17&#45;&gt;Node27 -->
<g id="edge27" class="edge">
<title>Node17&#45;&gt;Node27</title>
<path fill="none" stroke="midnightblue" d="M2133.03,-206.99C2081.59,-197.47 1996.62,-181.25 1923.89,-165 1918.96,-163.9 1913.8,-162.69 1908.68,-161.45"/>
<polygon fill="midnightblue" stroke="midnightblue" points="1909.5,-158.05 1898.95,-159.07 1907.83,-164.85 1909.5,-158.05"/>
</g>
<!-- Node28 -->
<g id="node28" class="node">
<title>Node28</title>
<g id="a_node28"><a xlink:href="enum_8h.html" target="_top" xlink:title=" ">
<polygon fill="none" stroke="black" points="1680.39,-140 1680.39,-159 1799.39,-159 1799.39,-140 1680.39,-140"/>
<text text-anchor="middle" x="1739.89" y="-147" font-family="Helvetica,sans-Serif" font-size="10.00">parsed_tools/enum.h</text>
</a>
</g>
</g>
<!-- Node17&#45;&gt;Node28 -->
<g id="edge28" class="edge">
<title>Node17&#45;&gt;Node28</title>
<path fill="none" stroke="midnightblue" d="M2105.74,-207C2030.68,-198.02 1911.38,-182.72 1808.89,-165 1802.17,-163.84 1795.1,-162.49 1788.15,-161.1"/>
<polygon fill="midnightblue" stroke="midnightblue" points="1788.62,-157.62 1778.12,-159.04 1787.22,-164.48 1788.62,-157.62"/>
</g>
<!-- Node29 -->
<g id="node29" class="node">
<title>Node29</title>
<g id="a_node29"><a target="_parent" xlink:href="http://www.dealii.org/developer/doxygen/deal.II/patterns_8h.html.html" xlink:title=" ">
<polygon fill="none" stroke="black" points="2528.39,-73 2528.39,-92 2653.39,-92 2653.39,-73 2528.39,-73"/>
<text text-anchor="middle" x="2590.89" y="-80" font-family="Helvetica,sans-Serif" font-size="10.00">deal.II/base/patterns.h</text>
</a>
</g>
</g>
<!-- Node28&#45;&gt;Node29 -->
<g id="edge29" class="edge">
<title>Node28&#45;&gt;Node29</title>
<path fill="none" stroke="midnightblue" d="M1775.54,-140C1786.21,-137.73 1797.98,-135.49 1808.89,-134 2068.28,-98.55 2379.58,-87.86 2518.17,-84.74"/>
<polygon fill="midnightblue" stroke="midnightblue" points="2518.33,-88.24 2528.25,-84.52 2518.18,-81.24 2518.33,-88.24"/>
</g>
<!-- Node30 -->
<g id="node30" class="node">
<title>Node30</title>
<g id="a_node30"><a target="_parent" xlink:href="http://www.dealii.org/developer/doxygen/deal.II/sd_8h.html.html" xlink:title=" ">
<polygon fill="none" stroke="black" points="1679.89,-73 1679.89,-92 1821.89,-92 1821.89,-73 1679.89,-73"/>
<text text-anchor="middle" x="1750.89" y="-80" font-family="Helvetica,sans-Serif" font-size="10.00">deal.II/differentiation/sd.h</text>
</a>
</g>
</g>
<!-- Node28&#45;&gt;Node30 -->
<g id="edge30" class="edge">
<title>Node28&#45;&gt;Node30</title>
<path fill="none" stroke="midnightblue" d="M1741.38,-139.73C1742.99,-130.18 1745.63,-114.62 1747.72,-102.28"/>
<polygon fill="midnightblue" stroke="midnightblue" points="1751.22,-102.57 1749.43,-92.13 1744.31,-101.4 1751.22,-102.57"/>
</g>
<!-- Node31 -->
<g id="node31" class="node">
<title>Node31</title>
<g id="a_node31"><a xlink:title=" ">
<polygon fill="none" stroke="#bfbfbf" points="1839.89,-67.5 1839.89,-97.5 1951.89,-97.5 1951.89,-67.5 1839.89,-67.5"/>
<text text-anchor="start" x="1847.89" y="-85.5" font-family="Helvetica,sans-Serif" font-size="10.00">parsed_tools/magic</text>
<text text-anchor="middle" x="1895.89" y="-74.5" font-family="Helvetica,sans-Serif" font-size="10.00">_enum.hpp</text>
</a>
</g>
</g>
<!-- Node28&#45;&gt;Node31 -->
<g id="edge31" class="edge">
<title>Node28&#45;&gt;Node31</title>
<path fill="none" stroke="midnightblue" d="M1760.61,-139.87C1784.02,-130.12 1822.77,-113.97 1852.81,-101.45"/>
<polygon fill="midnightblue" stroke="midnightblue" points="1854.34,-104.61 1862.23,-97.53 1851.65,-98.14 1854.34,-104.61"/>
</g>
<!-- Node32&#45;&gt;Node2 -->
<g id="edge37" class="edge">
<title>Node32&#45;&gt;Node2</title>
<path fill="none" stroke="midnightblue" d="M1234.74,-208.05C1154.64,-198.94 1016.76,-182.55 898.89,-165 890.17,-163.7 880.96,-162.22 871.96,-160.72"/>
<polygon fill="midnightblue" stroke="midnightblue" points="872.37,-157.24 861.93,-159.01 871.2,-164.14 872.37,-157.24"/>
</g>
<!-- Node32&#45;&gt;Node5 -->
<g id="edge36" class="edge">
<title>Node32&#45;&gt;Node5</title>
<path fill="none" stroke="midnightblue" d="M1234.82,-208.27C1136,-197.32 960.02,-176.59 932.89,-165 912.53,-156.3 911.38,-147.58 893.89,-134 849.52,-99.55 797.36,-60.26 766.28,-36.96"/>
<polygon fill="midnightblue" stroke="midnightblue" points="768.19,-34.02 758.09,-30.83 764,-39.63 768.19,-34.02"/>
</g>
<!-- Node32&#45;&gt;Node18 -->
<g id="edge33" class="edge">
<title>Node32&#45;&gt;Node18</title>
<path fill="none" stroke="midnightblue" d="M1336.81,-206.94C1384.38,-195.27 1469.59,-174.37 1521.9,-161.54"/>
<polygon fill="midnightblue" stroke="midnightblue" points="1523.02,-164.86 1531.9,-159.08 1521.35,-158.07 1523.02,-164.86"/>
</g>
<!-- Node32&#45;&gt;Node27 -->
<g id="edge39" class="edge">
<title>Node32&#45;&gt;Node27</title>
<path fill="none" stroke="midnightblue" d="M1369.17,-212.01C1466.69,-206.24 1652.74,-192.48 1808.89,-165 1814.43,-164.03 1820.21,-162.8 1825.89,-161.48"/>
<polygon fill="midnightblue" stroke="midnightblue" points="1827.02,-164.8 1835.9,-159.03 1825.36,-158.01 1827.02,-164.8"/>
</g>
<!-- Node32&#45;&gt;Node28 -->
<g id="edge43" class="edge">
<title>Node32&#45;&gt;Node28</title>
<path fill="none" stroke="midnightblue" d="M1359.61,-206.94C1440.3,-194.96 1586.55,-173.26 1672.26,-160.54"/>
<polygon fill="midnightblue" stroke="midnightblue" points="1673.03,-163.96 1682.4,-159.03 1672,-157.04 1673.03,-163.96"/>
</g>
<!-- Node33 -->
<g id="node33" class="node">
<title>Node33</title>
<g id="a_node33"><a target="_parent" xlink:href="http://www.dealii.org/developer/doxygen/deal.II/logstream_8h.html.html" xlink:title=" ">
<polygon fill="none" stroke="black" points="592.89,-140 592.89,-159 726.89,-159 726.89,-140 592.89,-140"/>
<text text-anchor="middle" x="659.89" y="-147" font-family="Helvetica,sans-Serif" font-size="10.00">deal.II/base/logstream.h</text>
</a>
</g>
</g>
<!-- Node32&#45;&gt;Node33 -->
<g id="edge34" class="edge">
<title>Node32&#45;&gt;Node33</title>
<path fill="none" stroke="midnightblue" d="M1234.56,-211.67C1128.26,-205.13 915.18,-190.04 735.89,-165 727.58,-163.84 718.79,-162.38 710.25,-160.84"/>
<polygon fill="midnightblue" stroke="midnightblue" points="710.87,-157.39 700.4,-159 709.59,-164.27 710.87,-157.39"/>
</g>
<!-- Node34 -->
<g id="node34" class="node">
<title>Node34</title>
<g id="a_node34"><a target="_parent" xlink:href="http://www.dealii.org/developer/doxygen/deal.II/mpi_8h.html.html" xlink:title=" ">
<polygon fill="none" stroke="black" points="1387.89,-140 1387.89,-159 1491.89,-159 1491.89,-140 1387.89,-140"/>
<text text-anchor="middle" x="1439.89" y="-147" font-family="Helvetica,sans-Serif" font-size="10.00">deal.II/base/mpi.h</text>
</a>
</g>
</g>
<!-- Node32&#45;&gt;Node34 -->
<g id="edge35" class="edge">
<title>Node32&#45;&gt;Node34</title>
<path fill="none" stroke="midnightblue" d="M1320.22,-206.87C1343.83,-195.75 1385.08,-176.32 1412.45,-163.43"/>
<polygon fill="midnightblue" stroke="midnightblue" points="1413.94,-166.59 1421.49,-159.17 1410.96,-160.26 1413.94,-166.59"/>
</g>
<!-- Node35 -->
<g id="node35" class="node">
<title>Node35</title>
<g id="a_node35"><a target="_parent" xlink:href="http://www.dealii.org/developer/doxygen/deal.II/mapping__q1_8h.html.html" xlink:title=" ">
<polygon fill="none" stroke="black" points="941.39,-140 941.39,-159 1072.39,-159 1072.39,-140 941.39,-140"/>
<text text-anchor="middle" x="1006.89" y="-147" font-family="Helvetica,sans-Serif" font-size="10.00">deal.II/fe/mapping_q1.h</text>
</a>
</g>
</g>
<!-- Node32&#45;&gt;Node35 -->
<g id="edge38" class="edge">
<title>Node32&#45;&gt;Node35</title>
<path fill="none" stroke="midnightblue" d="M1263.02,-206.94C1209.74,-195.2 1114.03,-174.11 1055.9,-161.3"/>
<polygon fill="midnightblue" stroke="midnightblue" points="1056.37,-157.82 1045.85,-159.08 1054.86,-164.65 1056.37,-157.82"/>
</g>
<!-- Node36 -->
<g id="node36" class="node">
<title>Node36</title>
<g id="a_node36"><a target="_parent" xlink:href="http://www.dealii.org/developer/doxygen/deal.II/numerics_2data__out_8h.html.html" xlink:title=" ">
<polygon fill="none" stroke="black" points="1090.39,-134.5 1090.39,-164.5 1209.39,-164.5 1209.39,-134.5 1090.39,-134.5"/>
<text text-anchor="start" x="1098.39" y="-152.5" font-family="Helvetica,sans-Serif" font-size="10.00">deal.II/numerics/data</text>
<text text-anchor="middle" x="1149.89" y="-141.5" font-family="Helvetica,sans-Serif" font-size="10.00">_out.h</text>
</a>
</g>
</g>
<!-- Node32&#45;&gt;Node36 -->
<g id="edge40" class="edge">
<title>Node32&#45;&gt;Node36</title>
<path fill="none" stroke="midnightblue" d="M1281.71,-206.87C1259,-197.16 1221.47,-181.11 1192.26,-168.61"/>
<polygon fill="midnightblue" stroke="midnightblue" points="1193.27,-165.24 1182.7,-164.53 1190.52,-171.68 1193.27,-165.24"/>
</g>
<!-- Node37 -->
<g id="node37" class="node">
<title>Node37</title>
<g id="a_node37"><a xlink:title=" ">
<polygon fill="none" stroke="#bfbfbf" points="1227.89,-140 1227.89,-159 1295.89,-159 1295.89,-140 1227.89,-140"/>
<text text-anchor="middle" x="1261.89" y="-147" font-family="Helvetica,sans-Serif" font-size="10.00">filesystem</text>
</a>
</g>
</g>
<!-- Node32&#45;&gt;Node37 -->
<g id="edge41" class="edge">
<title>Node32&#45;&gt;Node37</title>
<path fill="none" stroke="midnightblue" d="M1296.5,-206.73C1290.38,-196.79 1280.26,-180.34 1272.53,-167.79"/>
<polygon fill="midnightblue" stroke="midnightblue" points="1275.43,-165.81 1267.2,-159.13 1269.46,-169.48 1275.43,-165.81"/>
</g>
<!-- Node38 -->
<g id="node38" class="node">
<title>Node38</title>
<g id="a_node38"><a xlink:title=" ">
<polygon fill="none" stroke="#bfbfbf" points="1314.39,-140 1314.39,-159 1369.39,-159 1369.39,-140 1314.39,-140"/>
<text text-anchor="middle" x="1341.89" y="-147" font-family="Helvetica,sans-Serif" font-size="10.00">fstream</text>
</a>
</g>
</g>
<!-- Node32&#45;&gt;Node38 -->
<g id="edge42" class="edge">
<title>Node32&#45;&gt;Node38</title>
<path fill="none" stroke="midnightblue" d="M1307.29,-206.73C1313.41,-196.79 1323.53,-180.34 1331.25,-167.79"/>
<polygon fill="midnightblue" stroke="midnightblue" points="1334.32,-169.48 1336.59,-159.13 1328.36,-165.81 1334.32,-169.48"/>
</g>
<!-- Node39&#45;&gt;Node5 -->
<g id="edge45" class="edge">
<title>Node39&#45;&gt;Node5</title>
<path fill="none" stroke="midnightblue" d="M1919.2,-214.52C1857.12,-211.61 1753.09,-201.16 1671.89,-165 1651.67,-155.99 1653.28,-142.65 1632.89,-134 1484.93,-71.24 999.12,-33.56 812.67,-21.11"/>
<polygon fill="midnightblue" stroke="midnightblue" points="812.89,-17.62 802.68,-20.45 812.43,-24.6 812.89,-17.62"/>
</g>
<!-- Node40 -->
<g id="node40" class="node">
<title>Node40</title>
<g id="a_node40"><a target="_parent" xlink:href="http://www.dealii.org/developer/doxygen/deal.II/include_2deal_8II_2fe_2fe_8h.html.html" xlink:title=" ">
<polygon fill="none" stroke="black" points="1932.39,-140 1932.39,-159 2013.39,-159 2013.39,-140 1932.39,-140"/>
<text text-anchor="middle" x="1972.89" y="-147" font-family="Helvetica,sans-Serif" font-size="10.00">deal.II/fe/fe.h</text>
</a>
</g>
</g>
<!-- Node39&#45;&gt;Node40 -->
<g id="edge46" class="edge">
<title>Node39&#45;&gt;Node40</title>
<path fill="none" stroke="midnightblue" d="M1972.89,-201.4C1972.89,-192.06 1972.89,-179.71 1972.89,-169.52"/>
<polygon fill="midnightblue" stroke="midnightblue" points="1976.39,-169.19 1972.89,-159.19 1969.39,-169.19 1976.39,-169.19"/>
</g>
<!-- Node41&#45;&gt;Node5 -->
<g id="edge49" class="edge">
<title>Node41&#45;&gt;Node5</title>
<path fill="none" stroke="midnightblue" d="M530.01,-206.77C539.43,-191.13 560.69,-157.73 583.89,-134 622.31,-94.72 674.51,-57.91 707.45,-36.29"/>
<polygon fill="midnightblue" stroke="midnightblue" points="709.72,-38.99 716.2,-30.61 705.91,-33.12 709.72,-38.99"/>
</g>
<!-- Node41&#45;&gt;Node27 -->
<g id="edge55" class="edge">
<title>Node41&#45;&gt;Node27</title>
<path fill="none" stroke="midnightblue" d="M605.77,-214.54C849.61,-211.28 1575.15,-198.94 1808.89,-165 1814.85,-164.14 1821.08,-162.9 1827.15,-161.51"/>
<polygon fill="midnightblue" stroke="midnightblue" points="1828.25,-164.84 1837.13,-159.07 1826.59,-158.05 1828.25,-164.84"/>
</g>
<!-- Node41&#45;&gt;Node33 -->
<g id="edge48" class="edge">
<title>Node41&#45;&gt;Node33</title>
<path fill="none" stroke="midnightblue" d="M542.82,-206.87C565.82,-195.8 605.92,-176.49 632.69,-163.6"/>
<polygon fill="midnightblue" stroke="midnightblue" points="634.4,-166.66 641.89,-159.17 631.36,-160.35 634.4,-166.66"/>
</g>
<!-- Node42 -->
<g id="node42" class="node">
<title>Node42</title>
<g id="a_node42"><a target="_parent" xlink:href="http://www.dealii.org/developer/doxygen/deal.II/distributed_2grid__refinement_8h.html.html" xlink:title=" ">
<polygon fill="none" stroke="black" points="186.89,-134.5 186.89,-164.5 292.89,-164.5 292.89,-134.5 186.89,-134.5"/>
<text text-anchor="start" x="194.89" y="-152.5" font-family="Helvetica,sans-Serif" font-size="10.00">deal.II/distributed</text>
<text text-anchor="middle" x="239.89" y="-141.5" font-family="Helvetica,sans-Serif" font-size="10.00">/grid_refinement.h</text>
</a>
</g>
</g>
<!-- Node41&#45;&gt;Node42 -->
<g id="edge50" class="edge">
<title>Node41&#45;&gt;Node42</title>
<path fill="none" stroke="midnightblue" d="M486.6,-206.91C444.16,-197.38 373.41,-181.43 302.93,-165.23"/>
<polygon fill="midnightblue" stroke="midnightblue" points="303.52,-161.77 292.99,-162.94 301.95,-168.6 303.52,-161.77"/>
</g>
<!-- Node43 -->
<g id="node43" class="node">
<title>Node43</title>
<g id="a_node43"><a target="_parent" xlink:href="http://www.dealii.org/developer/doxygen/deal.II/distributed_2tria_8h.html.html" xlink:title=" ">
<polygon fill="none" stroke="black" points="310.89,-134.5 310.89,-164.5 412.89,-164.5 412.89,-134.5 310.89,-134.5"/>
<text text-anchor="start" x="318.89" y="-152.5" font-family="Helvetica,sans-Serif" font-size="10.00">deal.II/distributed</text>
<text text-anchor="middle" x="361.89" y="-141.5" font-family="Helvetica,sans-Serif" font-size="10.00">/tria.h</text>
</a>
</g>
</g>
<!-- Node41&#45;&gt;Node43 -->
<g id="edge51" class="edge">
<title>Node41&#45;&gt;Node43</title>
<path fill="none" stroke="midnightblue" d="M503.25,-206.87C478.68,-197.07 437.95,-180.83 406.51,-168.29"/>
<polygon fill="midnightblue" stroke="midnightblue" points="407.66,-164.98 397.07,-164.53 405.06,-171.48 407.66,-164.98"/>
</g>
<!-- Node44 -->
<g id="node44" class="node">
<title>Node44</title>
<g id="a_node44"><a target="_parent" xlink:href="http://www.dealii.org/developer/doxygen/deal.II/mapping__q__generic_8h.html.html" xlink:title=" ">
<polygon fill="none" stroke="black" points="431.39,-134.5 431.39,-164.5 536.39,-164.5 536.39,-134.5 431.39,-134.5"/>
<text text-anchor="start" x="439.39" y="-152.5" font-family="Helvetica,sans-Serif" font-size="10.00">deal.II/fe/mapping</text>
<text text-anchor="middle" x="483.89" y="-141.5" font-family="Helvetica,sans-Serif" font-size="10.00">_q_generic.h</text>
</a>
</g>
</g>
<!-- Node41&#45;&gt;Node44 -->
<g id="edge52" class="edge">
<title>Node41&#45;&gt;Node44</title>
<path fill="none" stroke="midnightblue" d="M519.36,-206.73C513.98,-198.2 505.58,-184.87 498.3,-173.33"/>
<polygon fill="midnightblue" stroke="midnightblue" points="501.08,-171.18 492.78,-164.59 495.16,-174.91 501.08,-171.18"/>
</g>
<!-- Node45 -->
<g id="node45" class="node">
<title>Node45</title>
<g id="a_node45"><a target="_parent" xlink:href="http://www.dealii.org/developer/doxygen/deal.II/grid__generator_8h.html.html" xlink:title=" ">
<polygon fill="none" stroke="black" points="17.39,-140 17.39,-159 168.39,-159 168.39,-140 17.39,-140"/>
<text text-anchor="middle" x="92.89" y="-147" font-family="Helvetica,sans-Serif" font-size="10.00">deal.II/grid/grid_generator.h</text>
</a>
</g>
</g>
<!-- Node41&#45;&gt;Node45 -->
<g id="edge53" class="edge">
<title>Node41&#45;&gt;Node45</title>
<path fill="none" stroke="midnightblue" d="M463.08,-206.97C393.63,-197.28 277.56,-180.75 177.89,-165 169.5,-163.67 160.65,-162.22 151.95,-160.77"/>
<polygon fill="midnightblue" stroke="midnightblue" points="152.3,-157.27 141.85,-159.06 151.13,-164.18 152.3,-157.27"/>
</g>
<!-- Node45&#45;&gt;Node3 -->
<g id="edge54" class="edge">
<title>Node45&#45;&gt;Node3</title>
<path fill="none" stroke="midnightblue" d="M118.12,-139.87C151.58,-128.42 210.75,-108.18 248.34,-95.32"/>
<polygon fill="midnightblue" stroke="midnightblue" points="249.53,-98.61 257.86,-92.06 247.27,-91.99 249.53,-98.61"/>
</g>
<!-- Node46&#45;&gt;Node8 -->
<g id="edge58" class="edge">
<title>Node46&#45;&gt;Node8</title>
<path fill="none" stroke="midnightblue" d="M2382.78,-206.94C2395.31,-204.67 2409.12,-202.45 2421.89,-201 2749.96,-163.83 2836.19,-205.27 3163.89,-165 3165.16,-164.84 3166.43,-164.68 3167.71,-164.51"/>
<polygon fill="midnightblue" stroke="midnightblue" points="3168.27,-167.96 3177.65,-163.03 3167.24,-161.04 3168.27,-167.96"/>
</g>
<!-- Node46&#45;&gt;Node27 -->
<g id="edge59" class="edge">
<title>Node46&#45;&gt;Node27</title>
<path fill="none" stroke="midnightblue" d="M2299.58,-206.97C2288.36,-204.83 2276.19,-202.67 2264.89,-201 2114.14,-178.7 2073.96,-191.55 1923.89,-165 1918.34,-164.02 1912.52,-162.8 1906.81,-161.49"/>
<polygon fill="midnightblue" stroke="midnightblue" points="1907.27,-158 1896.73,-159.06 1905.63,-164.8 1907.27,-158"/>
</g>
<!-- Node46&#45;&gt;Node29 -->
<g id="edge57" class="edge">
<title>Node46&#45;&gt;Node29</title>
<path fill="none" stroke="midnightblue" d="M2382.79,-206.96C2395.32,-204.69 2409.12,-202.46 2421.89,-201 2461.08,-196.52 3103.72,-193.59 3130.89,-165 3140.39,-155.01 3140.17,-144.19 3130.89,-134 3100.04,-100.13 2803.98,-88.57 2663.8,-84.98"/>
<polygon fill="midnightblue" stroke="midnightblue" points="2663.66,-81.47 2653.57,-84.72 2663.48,-88.47 2663.66,-81.47"/>
</g>
</g>
</svg>
