<?xml version="1.0" encoding="UTF-8" standalone="no"?>
<!DOCTYPE svg PUBLIC "-//W3C//DTD SVG 1.1//EN"
 "http://www.w3.org/Graphics/SVG/1.1/DTD/svg11.dtd">
<!-- Generated by graphviz version 2.43.0 (0)
 -->
<!-- Title: apps/dof_plotter.cc Pages: 1 -->
<svg width="3359pt" height="296pt"
 viewBox="0.00 0.00 3358.50 296.00" xmlns="http://www.w3.org/2000/svg" xmlns:xlink="http://www.w3.org/1999/xlink">
<g id="graph0" class="graph" transform="scale(1 1) rotate(0) translate(4 292)">
<title>apps/dof_plotter.cc</title>
<!-- Node1 -->
<g id="node1" class="node">
<title>Node1</title>
<g id="a_node1"><a xlink:title="Degrees of freedom plotter.">
<polygon fill="#bfbfbf" stroke="black" points="2017,-268.5 2017,-287.5 2126,-287.5 2126,-268.5 2017,-268.5"/>
<text text-anchor="middle" x="2071.5" y="-275.5" font-family="Helvetica,sans-Serif" font-size="10.00">apps/dof_plotter.cc</text>
</a>
</g>
</g>
<!-- Node2 -->
<g id="node2" class="node">
<title>Node2</title>
<g id="a_node2"><a target="_parent" xlink:href="http://www.dealii.org/developer/doxygen/deal.II/dof__handler_8h.html.html" xlink:title=" ">
<polygon fill="none" stroke="black" points="2170.5,-140 2170.5,-159 2310.5,-159 2310.5,-140 2170.5,-140"/>
<text text-anchor="middle" x="2240.5" y="-147" font-family="Helvetica,sans-Serif" font-size="10.00">deal.II/dofs/dof_handler.h</text>
</a>
</g>
</g>
<!-- Node1&#45;&gt;Node2 -->
<g id="edge1" class="edge">
<title>Node1&#45;&gt;Node2</title>
<path fill="none" stroke="midnightblue" d="M2126.3,-276.96C2204.06,-275.62 2340.48,-268.02 2371.5,-232 2400.2,-198.68 2338.2,-174.57 2290.04,-161.57"/>
<polygon fill="midnightblue" stroke="midnightblue" points="2290.87,-158.17 2280.31,-159.04 2289.11,-164.95 2290.87,-158.17"/>
</g>
<!-- Node6 -->
<g id="node6" class="node">
<title>Node6</title>
<g id="a_node6"><a target="_parent" xlink:href="http://www.dealii.org/developer/doxygen/deal.II/dof__tools_8h.html.html" xlink:title=" ">
<polygon fill="none" stroke="black" points="1026.5,-207 1026.5,-226 1154.5,-226 1154.5,-207 1026.5,-207"/>
<text text-anchor="middle" x="1090.5" y="-214" font-family="Helvetica,sans-Serif" font-size="10.00">deal.II/dofs/dof_tools.h</text>
</a>
</g>
</g>
<!-- Node1&#45;&gt;Node6 -->
<g id="edge5" class="edge">
<title>Node1&#45;&gt;Node6</title>
<path fill="none" stroke="midnightblue" d="M2016.76,-277.07C1875.13,-276.67 1485.21,-271.7 1163.5,-232 1155.11,-230.96 1146.25,-229.51 1137.69,-227.92"/>
<polygon fill="midnightblue" stroke="midnightblue" points="1138.33,-224.48 1127.84,-226.01 1136.99,-231.35 1138.33,-224.48"/>
</g>
<!-- Node7 -->
<g id="node7" class="node">
<title>Node7</title>
<g id="a_node7"><a target="_parent" xlink:href="http://www.dealii.org/developer/doxygen/deal.II/mapping__fe_8h.html.html" xlink:title=" ">
<polygon fill="none" stroke="black" points="1173,-207 1173,-226 1302,-226 1302,-207 1173,-207"/>
<text text-anchor="middle" x="1237.5" y="-214" font-family="Helvetica,sans-Serif" font-size="10.00">deal.II/fe/mapping_fe.h</text>
</a>
</g>
</g>
<!-- Node1&#45;&gt;Node7 -->
<g id="edge6" class="edge">
<title>Node1&#45;&gt;Node7</title>
<path fill="none" stroke="midnightblue" d="M2016.9,-276.28C1891.68,-274.08 1574.4,-265.39 1311.5,-232 1303.1,-230.93 1294.22,-229.48 1285.64,-227.9"/>
<polygon fill="midnightblue" stroke="midnightblue" points="1286.23,-224.45 1275.75,-226.01 1284.91,-231.33 1286.23,-224.45"/>
</g>
<!-- Node8 -->
<g id="node8" class="node">
<title>Node8</title>
<g id="a_node8"><a target="_parent" xlink:href="http://www.dealii.org/developer/doxygen/deal.II/reference__cell_8h.html.html" xlink:title=" ">
<polygon fill="none" stroke="black" points="2482.5,-134.5 2482.5,-164.5 2600.5,-164.5 2600.5,-134.5 2482.5,-134.5"/>
<text text-anchor="start" x="2490.5" y="-152.5" font-family="Helvetica,sans-Serif" font-size="10.00">deal.II/grid/reference</text>
<text text-anchor="middle" x="2541.5" y="-141.5" font-family="Helvetica,sans-Serif" font-size="10.00">_cell.h</text>
</a>
</g>
</g>
<!-- Node1&#45;&gt;Node8 -->
<g id="edge7" class="edge">
<title>Node1&#45;&gt;Node8</title>
<path fill="none" stroke="midnightblue" d="M2126.08,-276.04C2247.71,-273.34 2532.6,-263.67 2561.5,-232 2575.97,-216.14 2567.16,-191.55 2557.07,-173.52"/>
<polygon fill="midnightblue" stroke="midnightblue" points="2559.96,-171.53 2551.8,-164.77 2553.97,-175.15 2559.96,-171.53"/>
</g>
<!-- Node9 -->
<g id="node9" class="node">
<title>Node9</title>
<g id="a_node9"><a target="_parent" xlink:href="http://www.dealii.org/developer/doxygen/deal.II/dynamic__sparsity__pattern_8h.html.html" xlink:title=" ">
<polygon fill="none" stroke="black" points="1472.5,-201.5 1472.5,-231.5 1582.5,-231.5 1582.5,-201.5 1472.5,-201.5"/>
<text text-anchor="start" x="1480.5" y="-219.5" font-family="Helvetica,sans-Serif" font-size="10.00">deal.II/lac/dynamic</text>
<text text-anchor="middle" x="1527.5" y="-208.5" font-family="Helvetica,sans-Serif" font-size="10.00">_sparsity_pattern.h</text>
</a>
</g>
</g>
<!-- Node1&#45;&gt;Node9 -->
<g id="edge8" class="edge">
<title>Node1&#45;&gt;Node9</title>
<path fill="none" stroke="midnightblue" d="M2016.86,-274.18C1929.32,-269.17 1752.08,-256.93 1592.57,-232.03"/>
<polygon fill="midnightblue" stroke="midnightblue" points="1592.99,-228.56 1582.57,-230.45 1591.9,-235.47 1592.99,-228.56"/>
</g>
<!-- Node10 -->
<g id="node10" class="node">
<title>Node10</title>
<g id="a_node10"><a target="_parent" xlink:href="http://www.dealii.org/developer/doxygen/deal.II/full__matrix_8h.html.html" xlink:title=" ">
<polygon fill="none" stroke="black" points="1601,-207 1601,-226 1730,-226 1730,-207 1601,-207"/>
<text text-anchor="middle" x="1665.5" y="-214" font-family="Helvetica,sans-Serif" font-size="10.00">deal.II/lac/full_matrix.h</text>
</a>
</g>
</g>
<!-- Node1&#45;&gt;Node10 -->
<g id="edge9" class="edge">
<title>Node1&#45;&gt;Node10</title>
<path fill="none" stroke="midnightblue" d="M2016.84,-270.66C1950.73,-262.76 1836.18,-248.29 1738.5,-232 1731.31,-230.8 1723.75,-229.43 1716.33,-228.01"/>
<polygon fill="midnightblue" stroke="midnightblue" points="1716.83,-224.55 1706.34,-226.08 1715.49,-231.42 1716.83,-224.55"/>
</g>
<!-- Node11 -->
<g id="node11" class="node">
<title>Node11</title>
<g id="a_node11"><a target="_parent" xlink:href="http://www.dealii.org/developer/doxygen/deal.II/linear__operator__tools_8h.html.html" xlink:title=" ">
<polygon fill="none" stroke="black" points="1748,-201.5 1748,-231.5 1849,-231.5 1849,-201.5 1748,-201.5"/>
<text text-anchor="start" x="1756" y="-219.5" font-family="Helvetica,sans-Serif" font-size="10.00">deal.II/lac/linear</text>
<text text-anchor="middle" x="1798.5" y="-208.5" font-family="Helvetica,sans-Serif" font-size="10.00">_operator_tools.h</text>
</a>
</g>
</g>
<!-- Node1&#45;&gt;Node11 -->
<g id="edge10" class="edge">
<title>Node1&#45;&gt;Node11</title>
<path fill="none" stroke="midnightblue" d="M2028.77,-268.46C1987.63,-260.13 1923.38,-246.87 1858.93,-232.29"/>
<polygon fill="midnightblue" stroke="midnightblue" points="1859.53,-228.83 1849,-230.03 1857.98,-235.66 1859.53,-228.83"/>
</g>
<!-- Node12 -->
<g id="node12" class="node">
<title>Node12</title>
<g id="a_node12"><a target="_parent" xlink:href="http://www.dealii.org/developer/doxygen/deal.II/precondition_8h.html.html" xlink:title=" ">
<polygon fill="none" stroke="black" points="1867,-207 1867,-226 2004,-226 2004,-207 1867,-207"/>
<text text-anchor="middle" x="1935.5" y="-214" font-family="Helvetica,sans-Serif" font-size="10.00">deal.II/lac/precondition.h</text>
</a>
</g>
</g>
<!-- Node1&#45;&gt;Node12 -->
<g id="edge11" class="edge">
<title>Node1&#45;&gt;Node12</title>
<path fill="none" stroke="midnightblue" d="M2052.01,-268.48C2029.09,-258.45 1990.81,-241.7 1964.42,-230.15"/>
<polygon fill="midnightblue" stroke="midnightblue" points="1965.51,-226.81 1954.95,-226.01 1962.71,-233.22 1965.51,-226.81"/>
</g>
<!-- Node13 -->
<g id="node13" class="node">
<title>Node13</title>
<g id="a_node13"><a target="_parent" xlink:href="http://www.dealii.org/developer/doxygen/deal.II/sparse__direct_8h.html.html" xlink:title=" ">
<polygon fill="none" stroke="black" points="2022,-201.5 2022,-231.5 2121,-231.5 2121,-201.5 2022,-201.5"/>
<text text-anchor="start" x="2030" y="-219.5" font-family="Helvetica,sans-Serif" font-size="10.00">deal.II/lac/sparse</text>
<text text-anchor="middle" x="2071.5" y="-208.5" font-family="Helvetica,sans-Serif" font-size="10.00">_direct.h</text>
</a>
</g>
</g>
<!-- Node1&#45;&gt;Node13 -->
<g id="edge12" class="edge">
<title>Node1&#45;&gt;Node13</title>
<path fill="none" stroke="midnightblue" d="M2071.5,-268.48C2071.5,-261.47 2071.5,-251.19 2071.5,-241.7"/>
<polygon fill="midnightblue" stroke="midnightblue" points="2075,-241.52 2071.5,-231.52 2068,-241.52 2075,-241.52"/>
</g>
<!-- Node14 -->
<g id="node14" class="node">
<title>Node14</title>
<g id="a_node14"><a target="_parent" xlink:href="http://www.dealii.org/developer/doxygen/deal.II/sparse__matrix_8h.html.html" xlink:title=" ">
<polygon fill="none" stroke="black" points="2139,-201.5 2139,-231.5 2238,-231.5 2238,-201.5 2139,-201.5"/>
<text text-anchor="start" x="2147" y="-219.5" font-family="Helvetica,sans-Serif" font-size="10.00">deal.II/lac/sparse</text>
<text text-anchor="middle" x="2188.5" y="-208.5" font-family="Helvetica,sans-Serif" font-size="10.00">_matrix.h</text>
</a>
</g>
</g>
<!-- Node1&#45;&gt;Node14 -->
<g id="edge13" class="edge">
<title>Node1&#45;&gt;Node14</title>
<path fill="none" stroke="midnightblue" d="M2088.26,-268.48C2104.78,-260.08 2130.55,-246.97 2151.82,-236.15"/>
<polygon fill="midnightblue" stroke="midnightblue" points="2153.6,-239.18 2160.93,-231.52 2150.43,-232.94 2153.6,-239.18"/>
</g>
<!-- Node15 -->
<g id="node15" class="node">
<title>Node15</title>
<g id="a_node15"><a target="_parent" xlink:href="http://www.dealii.org/developer/doxygen/deal.II/vector_8h.html.html" xlink:title=" ">
<polygon fill="none" stroke="black" points="2256.5,-207 2256.5,-226 2362.5,-226 2362.5,-207 2256.5,-207"/>
<text text-anchor="middle" x="2309.5" y="-214" font-family="Helvetica,sans-Serif" font-size="10.00">deal.II/lac/vector.h</text>
</a>
</g>
</g>
<!-- Node1&#45;&gt;Node15 -->
<g id="edge14" class="edge">
<title>Node1&#45;&gt;Node15</title>
<path fill="none" stroke="midnightblue" d="M2105.6,-268.48C2147.75,-257.94 2219.55,-239.99 2265.73,-228.44"/>
<polygon fill="midnightblue" stroke="midnightblue" points="2266.61,-231.83 2275.46,-226.01 2264.91,-225.04 2266.61,-231.83"/>
</g>
<!-- Node16 -->
<g id="node16" class="node">
<title>Node16</title>
<g id="a_node16"><a target="_parent" xlink:href="http://www.dealii.org/developer/doxygen/deal.II/matrix__tools_8h.html.html" xlink:title=" ">
<polygon fill="none" stroke="black" points="2608.5,-201.5 2608.5,-231.5 2738.5,-231.5 2738.5,-201.5 2608.5,-201.5"/>
<text text-anchor="start" x="2616.5" y="-219.5" font-family="Helvetica,sans-Serif" font-size="10.00">deal.II/numerics/matrix</text>
<text text-anchor="middle" x="2673.5" y="-208.5" font-family="Helvetica,sans-Serif" font-size="10.00">_tools.h</text>
</a>
</g>
</g>
<!-- Node1&#45;&gt;Node16 -->
<g id="edge15" class="edge">
<title>Node1&#45;&gt;Node16</title>
<path fill="none" stroke="midnightblue" d="M2126.28,-274.02C2221.7,-268.44 2424.47,-254.87 2594.5,-232 2595.78,-231.83 2597.08,-231.65 2598.38,-231.46"/>
<polygon fill="midnightblue" stroke="midnightblue" points="2599.11,-234.89 2608.48,-229.94 2598.07,-227.97 2599.11,-234.89"/>
</g>
<!-- Node17 -->
<g id="node17" class="node">
<title>Node17</title>
<g id="a_node17"><a xlink:href="components_8h.html" target="_top" xlink:title=" ">
<polygon fill="none" stroke="black" points="723,-207 723,-226 874,-226 874,-207 723,-207"/>
<text text-anchor="middle" x="798.5" y="-214" font-family="Helvetica,sans-Serif" font-size="10.00">parsed_tools/components.h</text>
</a>
</g>
</g>
<!-- Node1&#45;&gt;Node17 -->
<g id="edge17" class="edge">
<title>Node1&#45;&gt;Node17</title>
<path fill="none" stroke="midnightblue" d="M2016.89,-275.12C1860.91,-269.65 1399.95,-252.82 1017.5,-232 973.57,-229.61 924.71,-226.42 884.32,-223.65"/>
<polygon fill="midnightblue" stroke="midnightblue" points="884.45,-220.15 874.23,-222.95 883.97,-227.13 884.45,-220.15"/>
</g>
<!-- Node32 -->
<g id="node32" class="node">
<title>Node32</title>
<g id="a_node32"><a xlink:href="data__out_8h.html" target="_top" xlink:title=" ">
<polygon fill="none" stroke="black" points="1320.5,-207 1320.5,-226 1454.5,-226 1454.5,-207 1320.5,-207"/>
<text text-anchor="middle" x="1387.5" y="-214" font-family="Helvetica,sans-Serif" font-size="10.00">parsed_tools/data_out.h</text>
</a>
</g>
</g>
<!-- Node1&#45;&gt;Node32 -->
<g id="edge32" class="edge">
<title>Node1&#45;&gt;Node32</title>
<path fill="none" stroke="midnightblue" d="M2016.78,-275.05C1910.01,-270.79 1666.55,-258.79 1463.5,-232 1455.08,-230.89 1446.18,-229.44 1437.55,-227.89"/>
<polygon fill="midnightblue" stroke="midnightblue" points="1438.06,-224.43 1427.59,-226.04 1436.78,-231.31 1438.06,-224.43"/>
</g>
<!-- Node39 -->
<g id="node39" class="node">
<title>Node39</title>
<g id="a_node39"><a xlink:href="finite__element_8h.html" target="_top" xlink:title=" ">
<polygon fill="none" stroke="black" points="2757,-201.5 2757,-231.5 2864,-231.5 2864,-201.5 2757,-201.5"/>
<text text-anchor="start" x="2765" y="-219.5" font-family="Helvetica,sans-Serif" font-size="10.00">parsed_tools/finite</text>
<text text-anchor="middle" x="2810.5" y="-208.5" font-family="Helvetica,sans-Serif" font-size="10.00">_element.h</text>
</a>
</g>
</g>
<!-- Node1&#45;&gt;Node39 -->
<g id="edge44" class="edge">
<title>Node1&#45;&gt;Node39</title>
<path fill="none" stroke="midnightblue" d="M2126.14,-276.32C2239.89,-274.25 2510.46,-266.03 2746.83,-231.91"/>
<polygon fill="midnightblue" stroke="midnightblue" points="2747.61,-235.34 2756.99,-230.43 2746.59,-228.41 2747.61,-235.34"/>
</g>
<!-- Node41 -->
<g id="node41" class="node">
<title>Node41</title>
<g id="a_node41"><a xlink:href="grid__generator_8h.html" target="_top" xlink:title=" ">
<polygon fill="none" stroke="black" points="2912,-207 2912,-226 3073,-226 3073,-207 2912,-207"/>
<text text-anchor="middle" x="2992.5" y="-214" font-family="Helvetica,sans-Serif" font-size="10.00">parsed_tools/grid_generator.h</text>
</a>
</g>
</g>
<!-- Node1&#45;&gt;Node41 -->
<g id="edge47" class="edge">
<title>Node1&#45;&gt;Node41</title>
<path fill="none" stroke="midnightblue" d="M2126.04,-275.17C2255.78,-270.54 2592.91,-256.94 2873.5,-232 2888.15,-230.7 2903.79,-229.01 2918.74,-227.25"/>
<polygon fill="midnightblue" stroke="midnightblue" points="2919.46,-230.69 2928.97,-226.02 2918.62,-223.74 2919.46,-230.69"/>
</g>
<!-- Node46 -->
<g id="node46" class="node">
<title>Node46</title>
<g id="a_node46"><a xlink:href="grid__info_8h.html" target="_top" xlink:title=" ">
<polygon fill="none" stroke="black" points="2418.5,-207 2418.5,-226 2552.5,-226 2552.5,-207 2418.5,-207"/>
<text text-anchor="middle" x="2485.5" y="-214" font-family="Helvetica,sans-Serif" font-size="10.00">parsed_tools/grid_info.h</text>
</a>
</g>
</g>
<!-- Node1&#45;&gt;Node46 -->
<g id="edge55" class="edge">
<title>Node1&#45;&gt;Node46</title>
<path fill="none" stroke="midnightblue" d="M2126.11,-270.35C2192.16,-262.14 2306.67,-247.36 2404.5,-232 2412.63,-230.72 2421.2,-229.29 2429.6,-227.83"/>
<polygon fill="midnightblue" stroke="midnightblue" points="2430.48,-231.23 2439.72,-226.05 2429.27,-224.33 2430.48,-231.23"/>
</g>
<!-- Node3 -->
<g id="node3" class="node">
<title>Node3</title>
<g id="a_node3"><a xlink:href="function_8h.html" target="_top" xlink:title=" ">
<polygon fill="none" stroke="black" points="2513,-73 2513,-92 2638,-92 2638,-73 2513,-73"/>
<text text-anchor="middle" x="2575.5" y="-80" font-family="Helvetica,sans-Serif" font-size="10.00">deal.II/base/function.h</text>
</a>
</g>
</g>
<!-- Node2&#45;&gt;Node3 -->
<g id="edge2" class="edge">
<title>Node2&#45;&gt;Node3</title>
<path fill="none" stroke="midnightblue" d="M2284.64,-139.94C2345.61,-128.11 2455.5,-106.78 2521.35,-94.01"/>
<polygon fill="midnightblue" stroke="midnightblue" points="2522.38,-97.37 2531.53,-92.03 2521.05,-90.5 2522.38,-97.37"/>
</g>
<!-- Node4 -->
<g id="node4" class="node">
<title>Node4</title>
<g id="a_node4"><a target="_parent" xlink:href="http://www.dealii.org/developer/doxygen/deal.II/function__parser_8h.html.html" xlink:title=" ">
<polygon fill="none" stroke="black" points="2468.5,-0.5 2468.5,-30.5 2584.5,-30.5 2584.5,-0.5 2468.5,-0.5"/>
<text text-anchor="start" x="2476.5" y="-18.5" font-family="Helvetica,sans-Serif" font-size="10.00">deal.II/base/function</text>
<text text-anchor="middle" x="2526.5" y="-7.5" font-family="Helvetica,sans-Serif" font-size="10.00">_parser.h</text>
</a>
</g>
</g>
<!-- Node3&#45;&gt;Node4 -->
<g id="edge3" class="edge">
<title>Node3&#45;&gt;Node4</title>
<path fill="none" stroke="midnightblue" d="M2568.89,-72.73C2562.33,-64.03 2552.01,-50.34 2543.2,-38.65"/>
<polygon fill="midnightblue" stroke="midnightblue" points="2545.94,-36.47 2537.12,-30.59 2540.35,-40.68 2545.94,-36.47"/>
</g>
<!-- Node5 -->
<g id="node5" class="node">
<title>Node5</title>
<g id="a_node5"><a target="_parent" xlink:href="http://www.dealii.org/developer/doxygen/deal.II/parameter__acceptor_8h.html.html" xlink:title=" ">
<polygon fill="none" stroke="black" points="2603,-0.5 2603,-30.5 2730,-30.5 2730,-0.5 2603,-0.5"/>
<text text-anchor="start" x="2611" y="-18.5" font-family="Helvetica,sans-Serif" font-size="10.00">deal.II/base/parameter</text>
<text text-anchor="middle" x="2666.5" y="-7.5" font-family="Helvetica,sans-Serif" font-size="10.00">_acceptor.h</text>
</a>
</g>
</g>
<!-- Node3&#45;&gt;Node5 -->
<g id="edge4" class="edge">
<title>Node3&#45;&gt;Node5</title>
<path fill="none" stroke="midnightblue" d="M2587.77,-72.73C2600.66,-63.53 2621.37,-48.73 2638.32,-36.63"/>
<polygon fill="midnightblue" stroke="midnightblue" points="2640.67,-39.25 2646.78,-30.59 2636.6,-33.55 2640.67,-39.25"/>
</g>
<!-- Node16&#45;&gt;Node3 -->
<g id="edge16" class="edge">
<title>Node16&#45;&gt;Node3</title>
<path fill="none" stroke="midnightblue" d="M2663.01,-201.37C2644.81,-176.86 2607.47,-126.56 2587.97,-100.3"/>
<polygon fill="midnightblue" stroke="midnightblue" points="2590.65,-98.04 2581.88,-92.1 2585.03,-102.21 2590.65,-98.04"/>
</g>
<!-- Node18 -->
<g id="node18" class="node">
<title>Node18</title>
<g id="a_node18"><a target="_parent" xlink:href="http://www.dealii.org/developer/doxygen/deal.II/config_8h.html.html" xlink:title=" ">
<polygon fill="none" stroke="black" points="1245.5,-140 1245.5,-159 1359.5,-159 1359.5,-140 1245.5,-140"/>
<text text-anchor="middle" x="1302.5" y="-147" font-family="Helvetica,sans-Serif" font-size="10.00">deal.II/base/config.h</text>
</a>
</g>
</g>
<!-- Node17&#45;&gt;Node18 -->
<g id="edge18" class="edge">
<title>Node17&#45;&gt;Node18</title>
<path fill="none" stroke="midnightblue" d="M874.21,-209.02C961.6,-201.02 1109.48,-185.87 1235.5,-165 1242.21,-163.89 1249.25,-162.55 1256.16,-161.15"/>
<polygon fill="midnightblue" stroke="midnightblue" points="1257.05,-164.54 1266.11,-159.05 1255.61,-157.69 1257.05,-164.54"/>
</g>
<!-- Node19 -->
<g id="node19" class="node">
<title>Node19</title>
<g id="a_node19"><a target="_parent" xlink:href="http://www.dealii.org/developer/doxygen/deal.II/include_2deal_8II_2base_2quadrature_8h.html.html" xlink:title=" ">
<polygon fill="none" stroke="black" points="951.5,-140 951.5,-159 1089.5,-159 1089.5,-140 951.5,-140"/>
<text text-anchor="middle" x="1020.5" y="-147" font-family="Helvetica,sans-Serif" font-size="10.00">deal.II/base/quadrature.h</text>
</a>
</g>
</g>
<!-- Node17&#45;&gt;Node19 -->
<g id="edge19" class="edge">
<title>Node17&#45;&gt;Node19</title>
<path fill="none" stroke="midnightblue" d="M827.98,-206.87C867.48,-195.3 937.68,-174.75 981.52,-161.91"/>
<polygon fill="midnightblue" stroke="midnightblue" points="982.64,-165.23 991.25,-159.06 980.67,-158.51 982.64,-165.23"/>
</g>
<!-- Node20 -->
<g id="node20" class="node">
<title>Node20</title>
<g id="a_node20"><a target="_parent" xlink:href="http://www.dealii.org/developer/doxygen/deal.II/quadrature__lib_8h.html.html" xlink:title=" ">
<polygon fill="none" stroke="black" points="0,-134.5 0,-164.5 129,-164.5 129,-134.5 0,-134.5"/>
<text text-anchor="start" x="8" y="-152.5" font-family="Helvetica,sans-Serif" font-size="10.00">deal.II/base/quadrature</text>
<text text-anchor="middle" x="64.5" y="-141.5" font-family="Helvetica,sans-Serif" font-size="10.00">_lib.h</text>
</a>
</g>
</g>
<!-- Node17&#45;&gt;Node20 -->
<g id="edge20" class="edge">
<title>Node17&#45;&gt;Node20</title>
<path fill="none" stroke="midnightblue" d="M722.97,-212.6C601.89,-207.32 356.73,-194.01 139.4,-165.01"/>
<polygon fill="midnightblue" stroke="midnightblue" points="139.78,-161.53 129.4,-163.66 138.84,-168.47 139.78,-161.53"/>
</g>
<!-- Node21 -->
<g id="node21" class="node">
<title>Node21</title>
<g id="a_node21"><a target="_parent" xlink:href="http://www.dealii.org/developer/doxygen/deal.II/include_2deal_8II_2base_2utilities_8h.html.html" xlink:title=" ">
<polygon fill="none" stroke="black" points="147.5,-140 147.5,-159 269.5,-159 269.5,-140 147.5,-140"/>
<text text-anchor="middle" x="208.5" y="-147" font-family="Helvetica,sans-Serif" font-size="10.00">deal.II/base/utilities.h</text>
</a>
</g>
</g>
<!-- Node17&#45;&gt;Node21 -->
<g id="edge21" class="edge">
<title>Node17&#45;&gt;Node21</title>
<path fill="none" stroke="midnightblue" d="M722.84,-210.71C621.34,-203.7 435.66,-188.84 278.5,-165 271.25,-163.9 263.61,-162.53 256.15,-161.08"/>
<polygon fill="midnightblue" stroke="midnightblue" points="256.64,-157.61 246.15,-159.07 255.26,-164.48 256.64,-157.61"/>
</g>
<!-- Node22 -->
<g id="node22" class="node">
<title>Node22</title>
<g id="a_node22"><a target="_parent" xlink:href="http://www.dealii.org/developer/doxygen/deal.II/component__mask_8h.html.html" xlink:title=" ">
<polygon fill="none" stroke="black" points="288,-134.5 288,-164.5 405,-164.5 405,-134.5 288,-134.5"/>
<text text-anchor="start" x="296" y="-152.5" font-family="Helvetica,sans-Serif" font-size="10.00">deal.II/fe/component</text>
<text text-anchor="middle" x="346.5" y="-141.5" font-family="Helvetica,sans-Serif" font-size="10.00">_mask.h</text>
</a>
</g>
</g>
<!-- Node17&#45;&gt;Node22 -->
<g id="edge22" class="edge">
<title>Node17&#45;&gt;Node22</title>
<path fill="none" stroke="midnightblue" d="M722.82,-207.34C647.38,-198.8 528.02,-184.19 414.92,-164.98"/>
<polygon fill="midnightblue" stroke="midnightblue" points="415.5,-161.53 405.05,-163.29 414.31,-168.43 415.5,-161.53"/>
</g>
<!-- Node23 -->
<g id="node23" class="node">
<title>Node23</title>
<g id="a_node23"><a target="_parent" xlink:href="http://www.dealii.org/developer/doxygen/deal.II/fe__dgq_8h.html.html" xlink:title=" ">
<polygon fill="none" stroke="black" points="423.5,-140 423.5,-159 527.5,-159 527.5,-140 423.5,-140"/>
<text text-anchor="middle" x="475.5" y="-147" font-family="Helvetica,sans-Serif" font-size="10.00">deal.II/fe/fe_dgq.h</text>
</a>
</g>
</g>
<!-- Node17&#45;&gt;Node23 -->
<g id="edge23" class="edge">
<title>Node17&#45;&gt;Node23</title>
<path fill="none" stroke="midnightblue" d="M751.04,-206.99C698.46,-197.41 611.22,-181.07 536.5,-165 531.18,-163.86 525.61,-162.6 520.09,-161.33"/>
<polygon fill="midnightblue" stroke="midnightblue" points="520.81,-157.91 510.28,-159.04 519.22,-164.72 520.81,-157.91"/>
</g>
<!-- Node24 -->
<g id="node24" class="node">
<title>Node24</title>
<g id="a_node24"><a target="_parent" xlink:href="http://www.dealii.org/developer/doxygen/deal.II/fe__q_8h.html.html" xlink:title=" ">
<polygon fill="none" stroke="black" points="545.5,-140 545.5,-159 637.5,-159 637.5,-140 545.5,-140"/>
<text text-anchor="middle" x="591.5" y="-147" font-family="Helvetica,sans-Serif" font-size="10.00">deal.II/fe/fe_q.h</text>
</a>
</g>
</g>
<!-- Node17&#45;&gt;Node24 -->
<g id="edge24" class="edge">
<title>Node17&#45;&gt;Node24</title>
<path fill="none" stroke="midnightblue" d="M771.01,-206.87C734.33,-195.35 669.27,-174.92 628.37,-162.08"/>
<polygon fill="midnightblue" stroke="midnightblue" points="629.36,-158.72 618.77,-159.06 627.26,-165.4 629.36,-158.72"/>
</g>
<!-- Node25 -->
<g id="node25" class="node">
<title>Node25</title>
<g id="a_node25"><a target="_parent" xlink:href="http://www.dealii.org/developer/doxygen/deal.II/fe__simplex__p_8h.html.html" xlink:title=" ">
<polygon fill="none" stroke="black" points="656,-140 656,-159 793,-159 793,-140 656,-140"/>
<text text-anchor="middle" x="724.5" y="-147" font-family="Helvetica,sans-Serif" font-size="10.00">deal.II/fe/fe_simplex_p.h</text>
</a>
</g>
</g>
<!-- Node17&#45;&gt;Node25 -->
<g id="edge25" class="edge">
<title>Node17&#45;&gt;Node25</title>
<path fill="none" stroke="midnightblue" d="M788.52,-206.73C776.65,-196.31 756.61,-178.71 742.12,-165.97"/>
<polygon fill="midnightblue" stroke="midnightblue" points="744.14,-163.1 734.32,-159.13 739.53,-168.36 744.14,-163.1"/>
</g>
<!-- Node26 -->
<g id="node26" class="node">
<title>Node26</title>
<g id="a_node26"><a target="_parent" xlink:href="http://www.dealii.org/developer/doxygen/deal.II/fe__system_8h.html.html" xlink:title=" ">
<polygon fill="none" stroke="black" points="811.5,-140 811.5,-159 933.5,-159 933.5,-140 811.5,-140"/>
<text text-anchor="middle" x="872.5" y="-147" font-family="Helvetica,sans-Serif" font-size="10.00">deal.II/fe/fe_system.h</text>
</a>
</g>
</g>
<!-- Node17&#45;&gt;Node26 -->
<g id="edge26" class="edge">
<title>Node17&#45;&gt;Node26</title>
<path fill="none" stroke="midnightblue" d="M808.48,-206.73C820.35,-196.31 840.39,-178.71 854.88,-165.97"/>
<polygon fill="midnightblue" stroke="midnightblue" points="857.47,-168.36 862.68,-159.13 852.86,-163.1 857.47,-168.36"/>
</g>
<!-- Node27 -->
<g id="node27" class="node">
<title>Node27</title>
<g id="a_node27"><a target="_parent" xlink:href="http://www.dealii.org/developer/doxygen/deal.II/grid_2tria_8h.html.html" xlink:title=" ">
<polygon fill="none" stroke="black" points="2329,-140 2329,-159 2426,-159 2426,-140 2329,-140"/>
<text text-anchor="middle" x="2377.5" y="-147" font-family="Helvetica,sans-Serif" font-size="10.00">deal.II/grid/tria.h</text>
</a>
</g>
</g>
<!-- Node17&#45;&gt;Node27 -->
<g id="edge27" class="edge">
<title>Node17&#45;&gt;Node27</title>
<path fill="none" stroke="midnightblue" d="M874.22,-209.77C916.38,-206.76 969.83,-203.24 1017.5,-201 1306.63,-187.44 2032.74,-204.33 2319.5,-165 2325.78,-164.14 2332.36,-162.86 2338.74,-161.42"/>
<polygon fill="midnightblue" stroke="midnightblue" points="2339.64,-164.81 2348.53,-159.05 2337.99,-158 2339.64,-164.81"/>
</g>
<!-- Node28 -->
<g id="node28" class="node">
<title>Node28</title>
<g id="a_node28"><a xlink:href="enum_8h.html" target="_top" xlink:title=" ">
<polygon fill="none" stroke="black" points="1108,-140 1108,-159 1227,-159 1227,-140 1108,-140"/>
<text text-anchor="middle" x="1167.5" y="-147" font-family="Helvetica,sans-Serif" font-size="10.00">parsed_tools/enum.h</text>
</a>
</g>
</g>
<!-- Node17&#45;&gt;Node28 -->
<g id="edge28" class="edge">
<title>Node17&#45;&gt;Node28</title>
<path fill="none" stroke="midnightblue" d="M853.09,-206.99C913.3,-197.44 1013,-181.17 1098.5,-165 1104.81,-163.81 1111.44,-162.49 1117.99,-161.16"/>
<polygon fill="midnightblue" stroke="midnightblue" points="1119.06,-164.51 1128.15,-159.06 1117.65,-157.65 1119.06,-164.51"/>
</g>
<!-- Node29 -->
<g id="node29" class="node">
<title>Node29</title>
<g id="a_node29"><a target="_parent" xlink:href="http://www.dealii.org/developer/doxygen/deal.II/patterns_8h.html.html" xlink:title=" ">
<polygon fill="none" stroke="black" points="1908,-73 1908,-92 2033,-92 2033,-73 1908,-73"/>
<text text-anchor="middle" x="1970.5" y="-80" font-family="Helvetica,sans-Serif" font-size="10.00">deal.II/base/patterns.h</text>
</a>
</g>
</g>
<!-- Node28&#45;&gt;Node29 -->
<g id="edge29" class="edge">
<title>Node28&#45;&gt;Node29</title>
<path fill="none" stroke="midnightblue" d="M1203.5,-139.95C1214.08,-137.71 1225.71,-135.5 1236.5,-134 1477.26,-100.58 1765.65,-88.94 1897.84,-85.17"/>
<polygon fill="midnightblue" stroke="midnightblue" points="1897.95,-88.67 1907.85,-84.89 1897.75,-81.67 1897.95,-88.67"/>
</g>
<!-- Node30 -->
<g id="node30" class="node">
<title>Node30</title>
<g id="a_node30"><a target="_parent" xlink:href="http://www.dealii.org/developer/doxygen/deal.II/sd_8h.html.html" xlink:title=" ">
<polygon fill="none" stroke="black" points="1157.5,-73 1157.5,-92 1299.5,-92 1299.5,-73 1157.5,-73"/>
<text text-anchor="middle" x="1228.5" y="-80" font-family="Helvetica,sans-Serif" font-size="10.00">deal.II/differentiation/sd.h</text>
</a>
</g>
</g>
<!-- Node28&#45;&gt;Node30 -->
<g id="edge30" class="edge">
<title>Node28&#45;&gt;Node30</title>
<path fill="none" stroke="midnightblue" d="M1175.73,-139.73C1185.33,-129.5 1201.41,-112.36 1213.3,-99.69"/>
<polygon fill="midnightblue" stroke="midnightblue" points="1216.11,-101.81 1220.4,-92.13 1211.01,-97.02 1216.11,-101.81"/>
</g>
<!-- Node31 -->
<g id="node31" class="node">
<title>Node31</title>
<g id="a_node31"><a xlink:title=" ">
<polygon fill="none" stroke="#bfbfbf" points="1027.5,-67.5 1027.5,-97.5 1139.5,-97.5 1139.5,-67.5 1027.5,-67.5"/>
<text text-anchor="start" x="1035.5" y="-85.5" font-family="Helvetica,sans-Serif" font-size="10.00">parsed_tools/magic</text>
<text text-anchor="middle" x="1083.5" y="-74.5" font-family="Helvetica,sans-Serif" font-size="10.00">_enum.hpp</text>
</a>
</g>
</g>
<!-- Node28&#45;&gt;Node31 -->
<g id="edge31" class="edge">
<title>Node28&#45;&gt;Node31</title>
<path fill="none" stroke="midnightblue" d="M1156.17,-139.73C1144.38,-130.61 1125.5,-116 1109.94,-103.96"/>
<polygon fill="midnightblue" stroke="midnightblue" points="1111.76,-100.94 1101.71,-97.59 1107.47,-106.48 1111.76,-100.94"/>
</g>
<!-- Node32&#45;&gt;Node2 -->
<g id="edge37" class="edge">
<title>Node32&#45;&gt;Node2</title>
<path fill="none" stroke="midnightblue" d="M1426.79,-206.96C1438.54,-204.69 1451.5,-202.46 1463.5,-201 1756.87,-165.23 1833.18,-191.83 2127.5,-165 2141.37,-163.74 2156.16,-162.07 2170.31,-160.32"/>
<polygon fill="midnightblue" stroke="midnightblue" points="2171,-163.76 2180.48,-159.03 2170.12,-156.82 2171,-163.76"/>
</g>
<!-- Node32&#45;&gt;Node5 -->
<g id="edge36" class="edge">
<title>Node32&#45;&gt;Node5</title>
<path fill="none" stroke="midnightblue" d="M1386.64,-206.81C1385.49,-189.99 1385.66,-152.98 1406.5,-134 1493.78,-54.54 2456.76,-41.2 2592.63,-30.68"/>
<polygon fill="midnightblue" stroke="midnightblue" points="2593.26,-34.13 2602.89,-29.7 2592.6,-27.16 2593.26,-34.13"/>
</g>
<!-- Node32&#45;&gt;Node18 -->
<g id="edge33" class="edge">
<title>Node32&#45;&gt;Node18</title>
<path fill="none" stroke="midnightblue" d="M1376.04,-206.73C1362.14,-196.11 1338.52,-178.05 1321.81,-165.26"/>
<polygon fill="midnightblue" stroke="midnightblue" points="1323.85,-162.42 1313.78,-159.13 1319.6,-167.98 1323.85,-162.42"/>
</g>
<!-- Node32&#45;&gt;Node27 -->
<g id="edge39" class="edge">
<title>Node32&#45;&gt;Node27</title>
<path fill="none" stroke="midnightblue" d="M1426.39,-206.95C1438.24,-204.64 1451.36,-202.41 1463.5,-201 1841.75,-157.2 1942.63,-219.46 2319.5,-165 2325.55,-164.13 2331.9,-162.88 2338.07,-161.49"/>
<polygon fill="midnightblue" stroke="midnightblue" points="2339.32,-164.79 2348.22,-159.05 2337.68,-157.99 2339.32,-164.79"/>
</g>
<!-- Node32&#45;&gt;Node28 -->
<g id="edge43" class="edge">
<title>Node32&#45;&gt;Node28</title>
<path fill="none" stroke="midnightblue" d="M1358.29,-206.87C1319.14,-195.3 1249.57,-174.75 1206.13,-161.91"/>
<polygon fill="midnightblue" stroke="midnightblue" points="1207.07,-158.54 1196.48,-159.06 1205.08,-165.25 1207.07,-158.54"/>
</g>
<!-- Node33 -->
<g id="node33" class="node">
<title>Node33</title>
<g id="a_node33"><a target="_parent" xlink:href="http://www.dealii.org/developer/doxygen/deal.II/logstream_8h.html.html" xlink:title=" ">
<polygon fill="none" stroke="black" points="1862.5,-140 1862.5,-159 1996.5,-159 1996.5,-140 1862.5,-140"/>
<text text-anchor="middle" x="1929.5" y="-147" font-family="Helvetica,sans-Serif" font-size="10.00">deal.II/base/logstream.h</text>
</a>
</g>
</g>
<!-- Node32&#45;&gt;Node33 -->
<g id="edge34" class="edge">
<title>Node32&#45;&gt;Node33</title>
<path fill="none" stroke="midnightblue" d="M1428.4,-206.95C1439.73,-204.78 1452.06,-202.62 1463.5,-201 1635.42,-176.7 1680.55,-189.09 1852.5,-165 1860.83,-163.83 1869.62,-162.38 1878.17,-160.86"/>
<polygon fill="midnightblue" stroke="midnightblue" points="1878.85,-164.29 1888.06,-159.04 1877.59,-157.41 1878.85,-164.29"/>
</g>
<!-- Node34 -->
<g id="node34" class="node">
<title>Node34</title>
<g id="a_node34"><a target="_parent" xlink:href="http://www.dealii.org/developer/doxygen/deal.II/mpi_8h.html.html" xlink:title=" ">
<polygon fill="none" stroke="black" points="2014.5,-140 2014.5,-159 2118.5,-159 2118.5,-140 2014.5,-140"/>
<text text-anchor="middle" x="2066.5" y="-147" font-family="Helvetica,sans-Serif" font-size="10.00">deal.II/base/mpi.h</text>
</a>
</g>
</g>
<!-- Node32&#45;&gt;Node34 -->
<g id="edge35" class="edge">
<title>Node32&#45;&gt;Node34</title>
<path fill="none" stroke="midnightblue" d="M1427.19,-206.98C1438.84,-204.73 1451.64,-202.52 1463.5,-201 1702.96,-170.32 1766.79,-201.04 2005.5,-165 2011.86,-164.04 2018.53,-162.75 2025.03,-161.34"/>
<polygon fill="midnightblue" stroke="midnightblue" points="2026.07,-164.69 2035.04,-159.04 2024.51,-157.87 2026.07,-164.69"/>
</g>
<!-- Node35 -->
<g id="node35" class="node">
<title>Node35</title>
<g id="a_node35"><a target="_parent" xlink:href="http://www.dealii.org/developer/doxygen/deal.II/mapping__q1_8h.html.html" xlink:title=" ">
<polygon fill="none" stroke="black" points="1416,-140 1416,-159 1547,-159 1547,-140 1416,-140"/>
<text text-anchor="middle" x="1481.5" y="-147" font-family="Helvetica,sans-Serif" font-size="10.00">deal.II/fe/mapping_q1.h</text>
</a>
</g>
</g>
<!-- Node32&#45;&gt;Node35 -->
<g id="edge38" class="edge">
<title>Node32&#45;&gt;Node35</title>
<path fill="none" stroke="midnightblue" d="M1400.18,-206.73C1415.68,-196.01 1442.14,-177.72 1460.66,-164.91"/>
<polygon fill="midnightblue" stroke="midnightblue" points="1462.79,-167.69 1469.02,-159.13 1458.81,-161.94 1462.79,-167.69"/>
</g>
<!-- Node36 -->
<g id="node36" class="node">
<title>Node36</title>
<g id="a_node36"><a target="_parent" xlink:href="http://www.dealii.org/developer/doxygen/deal.II/numerics_2data__out_8h.html.html" xlink:title=" ">
<polygon fill="none" stroke="black" points="1565,-134.5 1565,-164.5 1684,-164.5 1684,-134.5 1565,-134.5"/>
<text text-anchor="start" x="1573" y="-152.5" font-family="Helvetica,sans-Serif" font-size="10.00">deal.II/numerics/data</text>
<text text-anchor="middle" x="1624.5" y="-141.5" font-family="Helvetica,sans-Serif" font-size="10.00">_out.h</text>
</a>
</g>
</g>
<!-- Node32&#45;&gt;Node36 -->
<g id="edge40" class="edge">
<title>Node32&#45;&gt;Node36</title>
<path fill="none" stroke="midnightblue" d="M1418.97,-206.87C1455.69,-196.8 1517.25,-179.91 1563.45,-167.24"/>
<polygon fill="midnightblue" stroke="midnightblue" points="1564.63,-170.55 1573.35,-164.53 1562.78,-163.8 1564.63,-170.55"/>
</g>
<!-- Node37 -->
<g id="node37" class="node">
<title>Node37</title>
<g id="a_node37"><a xlink:title=" ">
<polygon fill="none" stroke="#bfbfbf" points="1702.5,-140 1702.5,-159 1770.5,-159 1770.5,-140 1702.5,-140"/>
<text text-anchor="middle" x="1736.5" y="-147" font-family="Helvetica,sans-Serif" font-size="10.00">filesystem</text>
</a>
</g>
</g>
<!-- Node32&#45;&gt;Node37 -->
<g id="edge41" class="edge">
<title>Node32&#45;&gt;Node37</title>
<path fill="none" stroke="midnightblue" d="M1430.86,-206.97C1441.52,-204.95 1452.91,-202.84 1463.5,-201 1565,-183.34 1592.36,-189.2 1692.5,-165 1695.97,-164.16 1699.55,-163.18 1703.11,-162.13"/>
<polygon fill="midnightblue" stroke="midnightblue" points="1704.46,-165.37 1712.96,-159.04 1702.37,-158.69 1704.46,-165.37"/>
</g>
<!-- Node38 -->
<g id="node38" class="node">
<title>Node38</title>
<g id="a_node38"><a xlink:title=" ">
<polygon fill="none" stroke="#bfbfbf" points="1789,-140 1789,-159 1844,-159 1844,-140 1789,-140"/>
<text text-anchor="middle" x="1816.5" y="-147" font-family="Helvetica,sans-Serif" font-size="10.00">fstream</text>
</a>
</g>
</g>
<!-- Node32&#45;&gt;Node38 -->
<g id="edge42" class="edge">
<title>Node32&#45;&gt;Node38</title>
<path fill="none" stroke="midnightblue" d="M1429.22,-206.96C1440.33,-204.84 1452.35,-202.7 1463.5,-201 1603.24,-179.74 1642.32,-199.08 1779.5,-165 1782.17,-164.34 1784.91,-163.53 1787.62,-162.64"/>
<polygon fill="midnightblue" stroke="midnightblue" points="1789.02,-165.85 1797.22,-159.15 1786.63,-159.27 1789.02,-165.85"/>
</g>
<!-- Node39&#45;&gt;Node5 -->
<g id="edge45" class="edge">
<title>Node39&#45;&gt;Node5</title>
<path fill="none" stroke="midnightblue" d="M2762.34,-201.39C2731.84,-191.46 2696.36,-177.73 2686.5,-165 2658.57,-128.94 2659.52,-72.62 2662.89,-40.7"/>
<polygon fill="midnightblue" stroke="midnightblue" points="2666.39,-40.86 2664.14,-30.51 2659.45,-40.01 2666.39,-40.86"/>
</g>
<!-- Node40 -->
<g id="node40" class="node">
<title>Node40</title>
<g id="a_node40"><a target="_parent" xlink:href="http://www.dealii.org/developer/doxygen/deal.II/include_2deal_8II_2fe_2fe_8h.html.html" xlink:title=" ">
<polygon fill="none" stroke="black" points="2695,-140 2695,-159 2776,-159 2776,-140 2695,-140"/>
<text text-anchor="middle" x="2735.5" y="-147" font-family="Helvetica,sans-Serif" font-size="10.00">deal.II/fe/fe.h</text>
</a>
</g>
</g>
<!-- Node39&#45;&gt;Node40 -->
<g id="edge46" class="edge">
<title>Node39&#45;&gt;Node40</title>
<path fill="none" stroke="midnightblue" d="M2794.23,-201.4C2782.18,-190.96 2765.79,-176.75 2753.38,-166"/>
<polygon fill="midnightblue" stroke="midnightblue" points="2755.38,-163.1 2745.53,-159.19 2750.8,-168.39 2755.38,-163.1"/>
</g>
<!-- Node41&#45;&gt;Node5 -->
<g id="edge48" class="edge">
<title>Node41&#45;&gt;Node5</title>
<path fill="none" stroke="midnightblue" d="M3073.03,-210.42C3147.42,-202.62 3240.92,-183.01 3201.5,-134 3144.43,-63.04 2873.34,-32.49 2740.38,-21.6"/>
<polygon fill="midnightblue" stroke="midnightblue" points="2740.53,-18.1 2730.28,-20.79 2739.97,-25.08 2740.53,-18.1"/>
</g>
<!-- Node41&#45;&gt;Node27 -->
<g id="edge54" class="edge">
<title>Node41&#45;&gt;Node27</title>
<path fill="none" stroke="midnightblue" d="M2925.52,-206.96C2908.56,-204.9 2890.37,-202.79 2873.5,-201 2696,-182.2 2650.72,-186.34 2473.5,-165 2461.47,-163.55 2448.63,-161.77 2436.38,-159.97"/>
<polygon fill="midnightblue" stroke="midnightblue" points="2436.67,-156.47 2426.26,-158.45 2435.63,-163.39 2436.67,-156.47"/>
</g>
<!-- Node42 -->
<g id="node42" class="node">
<title>Node42</title>
<g id="a_node42"><a target="_parent" xlink:href="http://www.dealii.org/developer/doxygen/deal.II/distributed_2grid__refinement_8h.html.html" xlink:title=" ">
<polygon fill="none" stroke="black" points="3086.5,-134.5 3086.5,-164.5 3192.5,-164.5 3192.5,-134.5 3086.5,-134.5"/>
<text text-anchor="start" x="3094.5" y="-152.5" font-family="Helvetica,sans-Serif" font-size="10.00">deal.II/distributed</text>
<text text-anchor="middle" x="3139.5" y="-141.5" font-family="Helvetica,sans-Serif" font-size="10.00">/grid_refinement.h</text>
</a>
</g>
</g>
<!-- Node41&#45;&gt;Node42 -->
<g id="edge49" class="edge">
<title>Node41&#45;&gt;Node42</title>
<path fill="none" stroke="midnightblue" d="M3012.02,-206.87C3033.98,-197.16 3070.28,-181.11 3098.53,-168.61"/>
<polygon fill="midnightblue" stroke="midnightblue" points="3100.04,-171.77 3107.77,-164.53 3097.21,-165.37 3100.04,-171.77"/>
</g>
<!-- Node43 -->
<g id="node43" class="node">
<title>Node43</title>
<g id="a_node43"><a target="_parent" xlink:href="http://www.dealii.org/developer/doxygen/deal.II/distributed_2tria_8h.html.html" xlink:title=" ">
<polygon fill="none" stroke="black" points="3248.5,-134.5 3248.5,-164.5 3350.5,-164.5 3350.5,-134.5 3248.5,-134.5"/>
<text text-anchor="start" x="3256.5" y="-152.5" font-family="Helvetica,sans-Serif" font-size="10.00">deal.II/distributed</text>
<text text-anchor="middle" x="3299.5" y="-141.5" font-family="Helvetica,sans-Serif" font-size="10.00">/tria.h</text>
</a>
</g>
</g>
<!-- Node41&#45;&gt;Node43 -->
<g id="edge50" class="edge">
<title>Node41&#45;&gt;Node43</title>
<path fill="none" stroke="midnightblue" d="M3034.51,-206.92C3082.8,-197.01 3164.44,-180.12 3234.5,-165 3235.77,-164.73 3237.06,-164.45 3238.35,-164.17"/>
<polygon fill="midnightblue" stroke="midnightblue" points="3239.4,-167.52 3248.42,-161.96 3237.9,-160.68 3239.4,-167.52"/>
</g>
<!-- Node44 -->
<g id="node44" class="node">
<title>Node44</title>
<g id="a_node44"><a target="_parent" xlink:href="http://www.dealii.org/developer/doxygen/deal.II/mapping__q__generic_8h.html.html" xlink:title=" ">
<polygon fill="none" stroke="black" points="2794,-134.5 2794,-164.5 2899,-164.5 2899,-134.5 2794,-134.5"/>
<text text-anchor="start" x="2802" y="-152.5" font-family="Helvetica,sans-Serif" font-size="10.00">deal.II/fe/mapping</text>
<text text-anchor="middle" x="2846.5" y="-141.5" font-family="Helvetica,sans-Serif" font-size="10.00">_q_generic.h</text>
</a>
</g>
</g>
<!-- Node41&#45;&gt;Node44 -->
<g id="edge51" class="edge">
<title>Node41&#45;&gt;Node44</title>
<path fill="none" stroke="midnightblue" d="M2973.11,-206.87C2951.3,-197.16 2915.25,-181.11 2887.19,-168.61"/>
<polygon fill="midnightblue" stroke="midnightblue" points="2888.57,-165.4 2878.01,-164.53 2885.72,-171.79 2888.57,-165.4"/>
</g>
<!-- Node45 -->
<g id="node45" class="node">
<title>Node45</title>
<g id="a_node45"><a target="_parent" xlink:href="http://www.dealii.org/developer/doxygen/deal.II/grid__generator_8h.html.html" xlink:title=" ">
<polygon fill="none" stroke="black" points="2917,-140 2917,-159 3068,-159 3068,-140 2917,-140"/>
<text text-anchor="middle" x="2992.5" y="-147" font-family="Helvetica,sans-Serif" font-size="10.00">deal.II/grid/grid_generator.h</text>
</a>
</g>
</g>
<!-- Node41&#45;&gt;Node45 -->
<g id="edge52" class="edge">
<title>Node41&#45;&gt;Node45</title>
<path fill="none" stroke="midnightblue" d="M2992.5,-206.73C2992.5,-197.18 2992.5,-181.62 2992.5,-169.28"/>
<polygon fill="midnightblue" stroke="midnightblue" points="2996,-169.13 2992.5,-159.13 2989,-169.13 2996,-169.13"/>
</g>
<!-- Node45&#45;&gt;Node3 -->
<g id="edge53" class="edge">
<title>Node45&#45;&gt;Node3</title>
<path fill="none" stroke="midnightblue" d="M2944.11,-139.97C2932.46,-137.97 2920.04,-135.87 2908.5,-134 2817.23,-119.2 2711.65,-103.42 2644.27,-93.51"/>
<polygon fill="midnightblue" stroke="midnightblue" points="2644.61,-90.02 2634.21,-92.03 2643.59,-96.95 2644.61,-90.02"/>
</g>
<!-- Node46&#45;&gt;Node8 -->
<g id="edge57" class="edge">
<title>Node46&#45;&gt;Node8</title>
<path fill="none" stroke="midnightblue" d="M2493.05,-206.73C2500.62,-197.95 2512.57,-184.08 2522.71,-172.31"/>
<polygon fill="midnightblue" stroke="midnightblue" points="2525.49,-174.45 2529.36,-164.59 2520.18,-169.88 2525.49,-174.45"/>
</g>
<!-- Node46&#45;&gt;Node27 -->
<g id="edge58" class="edge">
<title>Node46&#45;&gt;Node27</title>
<path fill="none" stroke="midnightblue" d="M2470.93,-206.73C2452.88,-195.87 2421.89,-177.22 2400.58,-164.39"/>
<polygon fill="midnightblue" stroke="midnightblue" points="2402.21,-161.29 2391.83,-159.13 2398.6,-167.28 2402.21,-161.29"/>
</g>
<!-- Node46&#45;&gt;Node29 -->
<g id="edge56" class="edge">
<title>Node46&#45;&gt;Node29</title>
<path fill="none" stroke="midnightblue" d="M2482.89,-206.77C2477.23,-189.53 2462.08,-151.29 2434.5,-134 2371.02,-94.2 2157.15,-85.55 2043.27,-83.81"/>
<polygon fill="midnightblue" stroke="midnightblue" points="2043.29,-80.31 2033.24,-83.67 2043.19,-87.31 2043.29,-80.31"/>
</g>
</g>
</svg>
