<?xml version="1.0" encoding="UTF-8" standalone="no"?>
<!DOCTYPE svg PUBLIC "-//W3C//DTD SVG 1.1//EN"
 "http://www.w3.org/Graphics/SVG/1.1/DTD/svg11.dtd">
<!-- Generated by graphviz version 2.43.0 (0)
 -->
<!-- Title: FSISuite Pages: 1 -->
<svg width="1131pt" height="367pt"
 viewBox="0.00 0.00 1131.00 367.00" xmlns="http://www.w3.org/2000/svg" xmlns:xlink="http://www.w3.org/1999/xlink">
<g id="graph0" class="graph" transform="scale(1 1) rotate(0) translate(4 363)">
<title>FSISuite</title>
<polygon fill="white" stroke="transparent" points="-4,4 -4,-363 1127,-363 1127,4 -4,4"/>
<!-- Poisson -->
<g id="node1" class="node">
<title>Poisson</title>
<g id="a_node1"><a xlink:href="class_p_d_es_1_1_serial_1_1_poisson.html" target="_top" xlink:title="Poisson">
<path fill="#5d8aa8" stroke="#5d8aa8" d="M457,-359C457,-359 351,-359 351,-359 345,-359 339,-353 339,-347 339,-347 339,-328 339,-328 339,-322 345,-316 351,-316 351,-316 457,-316 457,-316 463,-316 469,-322 469,-328 469,-328 469,-347 469,-347 469,-353 463,-359 457,-359"/>
<text text-anchor="middle" x="404" y="-333.8" font-family="Times,serif" font-size="14.00">Poisson</text>
</a>
</g>
</g>
<!-- HeatEquation -->
<g id="node2" class="node">
<title>HeatEquation</title>
<path fill="#5d8aa8" stroke="#5d8aa8" d="M727,-359C727,-359 621,-359 621,-359 615,-359 609,-353 609,-347 609,-347 609,-328 609,-328 609,-322 615,-316 621,-316 621,-316 727,-316 727,-316 733,-316 739,-322 739,-328 739,-328 739,-347 739,-347 739,-353 733,-359 727,-359"/>
<text text-anchor="middle" x="674" y="-333.8" font-family="Times,serif" font-size="14.00">HeatEquation</text>
</g>
<!-- Poisson&#45;&gt;HeatEquation -->
<g id="edge13" class="edge">
<title>Poisson&#45;&gt;HeatEquation</title>
<path fill="none" stroke="black" d="M469.13,-337.5C512.31,-337.5 555.5,-337.5 598.68,-337.5"/>
<polygon fill="black" stroke="black" points="598.78,-341 608.78,-337.5 598.78,-334 598.78,-341"/>
</g>
<!-- LinearElasticity -->
<g id="node4" class="node">
<title>LinearElasticity</title>
<g id="a_node4"><a xlink:href="namespace_p_d_es_1_1_serial.html#ae3edccfb3503ad0519ba9e3e5ade92b1" target="_top" xlink:title="LinearElasticity">
<path fill="#5d8aa8" stroke="#5d8aa8" d="M457,-280C457,-280 351,-280 351,-280 345,-280 339,-274 339,-268 339,-268 339,-249 339,-249 339,-243 345,-237 351,-237 351,-237 457,-237 457,-237 463,-237 469,-243 469,-249 469,-249 469,-268 469,-268 469,-274 463,-280 457,-280"/>
<text text-anchor="middle" x="404" y="-254.8" font-family="Times,serif" font-size="14.00">LinearElasticity</text>
</a>
</g>
</g>
<!-- Poisson&#45;&gt;LinearElasticity -->
<g id="edge1" class="edge">
<title>Poisson&#45;&gt;LinearElasticity</title>
<path fill="none" stroke="black" d="M404,-315.87C404,-308.01 404,-298.88 404,-290.29"/>
<polygon fill="black" stroke="black" points="407.5,-290.19 404,-280.19 400.5,-290.19 407.5,-290.19"/>
</g>
<!-- ImmersedInteface -->
<g id="node21" class="node">
<title>ImmersedInteface</title>
<path fill="#5d8aa8" stroke="#5d8aa8" d="M118,-43C118,-43 12,-43 12,-43 6,-43 0,-37 0,-31 0,-31 0,-12 0,-12 0,-6 6,0 12,0 12,0 118,0 118,0 124,0 130,-6 130,-12 130,-12 130,-31 130,-31 130,-37 124,-43 118,-43"/>
<text text-anchor="middle" x="65" y="-17.8" font-family="Times,serif" font-size="14.00">ImmersedInteface</text>
</g>
<!-- Poisson&#45;&gt;ImmersedInteface -->
<g id="edge34" class="edge">
<title>Poisson&#45;&gt;ImmersedInteface</title>
<path fill="none" stroke="black" d="M338.92,-334.62C290.67,-330.03 225.92,-316.75 182,-280 110.51,-220.18 80.71,-107.47 70.08,-53.22"/>
<polygon fill="black" stroke="black" points="73.48,-52.36 68.2,-43.18 66.6,-53.65 73.48,-52.36"/>
</g>
<!-- WaveEquation -->
<g id="node6" class="node">
<title>WaveEquation</title>
<path fill="#5d8aa8" stroke="#5d8aa8" d="M839,-280C839,-280 733,-280 733,-280 727,-280 721,-274 721,-268 721,-268 721,-249 721,-249 721,-243 727,-237 733,-237 733,-237 839,-237 839,-237 845,-237 851,-243 851,-249 851,-249 851,-268 851,-268 851,-274 845,-280 839,-280"/>
<text text-anchor="middle" x="786" y="-254.8" font-family="Times,serif" font-size="14.00">WaveEquation</text>
</g>
<!-- HeatEquation&#45;&gt;WaveEquation -->
<g id="edge6" class="edge">
<title>HeatEquation&#45;&gt;WaveEquation</title>
<path fill="none" stroke="black" d="M704.01,-315.87C717.32,-306.72 733.14,-295.84 747.32,-286.09"/>
<polygon fill="black" stroke="black" points="749.65,-288.74 755.9,-280.19 745.68,-282.97 749.65,-288.74"/>
</g>
<!-- csd -->
<g id="node3" class="node">
<title>csd</title>
<g id="a_node3"><a xlink:href="group__csd.html" target="_top" xlink:title="Compututational\nSolid Dynamics">
<text text-anchor="middle" x="256" y="-262.3" font-family="Times,serif" font-size="14.00">Compututational</text>
<text text-anchor="middle" x="256" y="-247.3" font-family="Times,serif" font-size="14.00">Solid Dynamics</text>
</a>
</g>
</g>
<!-- csd&#45;&gt;LinearElasticity -->
<g id="edge14" class="edge">
<title>csd&#45;&gt;LinearElasticity</title>
<path fill="none" stroke="black" d="M321.04,-258.5C323.64,-258.5 326.24,-258.5 328.84,-258.5"/>
<polygon fill="black" stroke="black" points="328.86,-262 338.86,-258.5 328.86,-255 328.86,-262"/>
</g>
<!-- QuasiStaticLinearElasticity -->
<g id="node5" class="node">
<title>QuasiStaticLinearElasticity</title>
<path fill="#5d8aa8" stroke="#5d8aa8" d="M680,-280C680,-280 574,-280 574,-280 568,-280 562,-274 562,-268 562,-268 562,-249 562,-249 562,-243 568,-237 574,-237 574,-237 680,-237 680,-237 686,-237 692,-243 692,-249 692,-249 692,-268 692,-268 692,-274 686,-280 680,-280"/>
<text text-anchor="middle" x="627" y="-262.3" font-family="Times,serif" font-size="14.00">QuasiStatic</text>
<text text-anchor="middle" x="627" y="-247.3" font-family="Times,serif" font-size="14.00">LinearElasticity</text>
</g>
<!-- LinearElasticity&#45;&gt;QuasiStaticLinearElasticity -->
<g id="edge15" class="edge">
<title>LinearElasticity&#45;&gt;QuasiStaticLinearElasticity</title>
<path fill="none" stroke="black" d="M469.33,-258.5C496.76,-258.5 524.18,-258.5 551.61,-258.5"/>
<polygon fill="black" stroke="black" points="551.72,-262 561.72,-258.5 551.72,-255 551.72,-262"/>
</g>
<!-- Stokes -->
<g id="node9" class="node">
<title>Stokes</title>
<g id="a_node9"><a xlink:href="class_p_d_es_1_1_serial_1_1_stokes.html" target="_top" xlink:title="Stokes">
<path fill="#5d8aa8" stroke="#5d8aa8" d="M439,-201C439,-201 333,-201 333,-201 327,-201 321,-195 321,-189 321,-189 321,-170 321,-170 321,-164 327,-158 333,-158 333,-158 439,-158 439,-158 445,-158 451,-164 451,-170 451,-170 451,-189 451,-189 451,-195 445,-201 439,-201"/>
<text text-anchor="middle" x="386" y="-175.8" font-family="Times,serif" font-size="14.00">Stokes</text>
</a>
</g>
</g>
<!-- LinearElasticity&#45;&gt;Stokes -->
<g id="edge2" class="edge">
<title>LinearElasticity&#45;&gt;Stokes</title>
<path fill="none" stroke="black" d="M399.18,-236.87C397.32,-228.92 395.16,-219.68 393.13,-211"/>
<polygon fill="black" stroke="black" points="396.52,-210.13 390.84,-201.19 389.71,-211.73 396.52,-210.13"/>
</g>
<!-- QuasiStaticLinearElasticity&#45;&gt;WaveEquation -->
<g id="edge16" class="edge">
<title>QuasiStaticLinearElasticity&#45;&gt;WaveEquation</title>
<path fill="none" stroke="black" d="M692.21,-258.5C698.32,-258.5 704.42,-258.5 710.52,-258.5"/>
<polygon fill="black" stroke="black" points="710.79,-262 720.79,-258.5 710.79,-255 710.79,-262"/>
</g>
<!-- QuasiStaticStokes -->
<g id="node10" class="node">
<title>QuasiStaticStokes</title>
<path fill="#5d8aa8" stroke="#5d8aa8" d="M587,-201C587,-201 481,-201 481,-201 475,-201 469,-195 469,-189 469,-189 469,-170 469,-170 469,-164 475,-158 481,-158 481,-158 587,-158 587,-158 593,-158 599,-164 599,-170 599,-170 599,-189 599,-189 599,-195 593,-201 587,-201"/>
<text text-anchor="middle" x="534" y="-183.3" font-family="Times,serif" font-size="14.00">QuasiStatic</text>
<text text-anchor="middle" x="534" y="-168.3" font-family="Times,serif" font-size="14.00">Stokes</text>
</g>
<!-- QuasiStaticLinearElasticity&#45;&gt;QuasiStaticStokes -->
<g id="edge3" class="edge">
<title>QuasiStaticLinearElasticity&#45;&gt;QuasiStaticStokes</title>
<path fill="none" stroke="black" d="M602.08,-236.87C591.24,-227.89 578.38,-217.25 566.78,-207.64"/>
<polygon fill="black" stroke="black" points="568.93,-204.87 558.99,-201.19 564.46,-210.26 568.93,-204.87"/>
</g>
<!-- QuasiStaticLinearFSI -->
<g id="node14" class="node">
<title>QuasiStaticLinearFSI</title>
<path fill="#5d8aa8" stroke="#5d8aa8" d="M625,-122C625,-122 519,-122 519,-122 513,-122 507,-116 507,-110 507,-110 507,-91 507,-91 507,-85 513,-79 519,-79 519,-79 625,-79 625,-79 631,-79 637,-85 637,-91 637,-91 637,-110 637,-110 637,-116 631,-122 625,-122"/>
<text text-anchor="middle" x="572" y="-104.3" font-family="Times,serif" font-size="14.00">QuasiStatic</text>
<text text-anchor="middle" x="572" y="-89.3" font-family="Times,serif" font-size="14.00">LinearFSI</text>
</g>
<!-- QuasiStaticLinearElasticity&#45;&gt;QuasiStaticLinearFSI -->
<g id="edge28" class="edge">
<title>QuasiStaticLinearElasticity&#45;&gt;QuasiStaticLinearFSI</title>
<path fill="none" stroke="black" d="M625.33,-236.66C623.15,-216.08 618.32,-183.99 608,-158 604.27,-148.61 598.93,-139.09 593.5,-130.61"/>
<polygon fill="black" stroke="black" points="596.34,-128.56 587.87,-122.2 590.52,-132.45 596.34,-128.56"/>
</g>
<!-- QuasiStaticLinearIFEM -->
<g id="node18" class="node">
<title>QuasiStaticLinearIFEM</title>
<path fill="#5d8aa8" stroke="#5d8aa8" d="M710,-43C710,-43 604,-43 604,-43 598,-43 592,-37 592,-31 592,-31 592,-12 592,-12 592,-6 598,0 604,0 604,0 710,0 710,0 716,0 722,-6 722,-12 722,-12 722,-31 722,-31 722,-37 716,-43 710,-43"/>
<text text-anchor="middle" x="657" y="-25.3" font-family="Times,serif" font-size="14.00">QuasiStatic</text>
<text text-anchor="middle" x="657" y="-10.3" font-family="Times,serif" font-size="14.00">LinearIFEM</text>
</g>
<!-- QuasiStaticLinearElasticity&#45;&gt;QuasiStaticLinearIFEM -->
<g id="edge29" class="edge">
<title>QuasiStaticLinearElasticity&#45;&gt;QuasiStaticLinearIFEM</title>
<path fill="none" stroke="black" d="M630.08,-236.86C634.01,-210.32 640.89,-162.78 646,-122 648.88,-99.01 651.75,-72.98 653.83,-53.31"/>
<polygon fill="black" stroke="black" points="657.34,-53.41 654.9,-43.1 650.38,-52.68 657.34,-53.41"/>
</g>
<!-- HyperElasticity -->
<g id="node7" class="node">
<title>HyperElasticity</title>
<path fill="#5d8aa8" stroke="#5d8aa8" d="M989,-280C989,-280 883,-280 883,-280 877,-280 871,-274 871,-268 871,-268 871,-249 871,-249 871,-243 877,-237 883,-237 883,-237 989,-237 989,-237 995,-237 1001,-243 1001,-249 1001,-249 1001,-268 1001,-268 1001,-274 995,-280 989,-280"/>
<text text-anchor="middle" x="936" y="-254.8" font-family="Times,serif" font-size="14.00">HyperElasticity</text>
</g>
<!-- WaveEquation&#45;&gt;HyperElasticity -->
<g id="edge17" class="edge">
<title>WaveEquation&#45;&gt;HyperElasticity</title>
<path fill="none" stroke="black" d="M851.04,-258.5C854.25,-258.5 857.47,-258.5 860.68,-258.5"/>
<polygon fill="black" stroke="black" points="860.95,-262 870.95,-258.5 860.95,-255 860.95,-262"/>
</g>
<!-- DynamicStokes -->
<g id="node11" class="node">
<title>DynamicStokes</title>
<path fill="#5d8aa8" stroke="#5d8aa8" d="M849,-201C849,-201 743,-201 743,-201 737,-201 731,-195 731,-189 731,-189 731,-170 731,-170 731,-164 737,-158 743,-158 743,-158 849,-158 849,-158 855,-158 861,-164 861,-170 861,-170 861,-189 861,-189 861,-195 855,-201 849,-201"/>
<text text-anchor="middle" x="796" y="-175.8" font-family="Times,serif" font-size="14.00">DynamicStokes</text>
</g>
<!-- WaveEquation&#45;&gt;DynamicStokes -->
<g id="edge7" class="edge">
<title>WaveEquation&#45;&gt;DynamicStokes</title>
<path fill="none" stroke="black" d="M788.68,-236.87C789.7,-229.01 790.89,-219.88 792,-211.29"/>
<polygon fill="black" stroke="black" points="795.5,-211.56 793.31,-201.19 788.55,-210.66 795.5,-211.56"/>
</g>
<!-- DynamicLinearFSI -->
<g id="node15" class="node">
<title>DynamicLinearFSI</title>
<path fill="#5d8aa8" stroke="#5d8aa8" d="M858,-122C858,-122 752,-122 752,-122 746,-122 740,-116 740,-110 740,-110 740,-91 740,-91 740,-85 746,-79 752,-79 752,-79 858,-79 858,-79 864,-79 870,-85 870,-91 870,-91 870,-110 870,-110 870,-116 864,-122 858,-122"/>
<text text-anchor="middle" x="805" y="-96.8" font-family="Times,serif" font-size="14.00">DynamicLinearFSI</text>
</g>
<!-- WaveEquation&#45;&gt;DynamicLinearFSI -->
<g id="edge30" class="edge">
<title>WaveEquation&#45;&gt;DynamicLinearFSI</title>
<path fill="none" stroke="black" d="M833.24,-236.87C847.7,-228.05 861.9,-216.2 870,-201 878.98,-184.13 877.93,-175.39 870,-158 864.87,-146.73 856.25,-136.84 846.94,-128.62"/>
<polygon fill="black" stroke="black" points="848.97,-125.76 839.03,-122.11 844.53,-131.16 848.97,-125.76"/>
</g>
<!-- DynamicLinearIFEM -->
<g id="node19" class="node">
<title>DynamicLinearIFEM</title>
<path fill="#5d8aa8" stroke="#5d8aa8" d="M858,-43C858,-43 752,-43 752,-43 746,-43 740,-37 740,-31 740,-31 740,-12 740,-12 740,-6 746,0 752,0 752,0 858,0 858,0 864,0 870,-6 870,-12 870,-12 870,-31 870,-31 870,-37 864,-43 858,-43"/>
<text text-anchor="middle" x="805" y="-17.8" font-family="Times,serif" font-size="14.00">DynamicLinearIFEM</text>
</g>
<!-- WaveEquation&#45;&gt;DynamicLinearIFEM -->
<g id="edge31" class="edge">
<title>WaveEquation&#45;&gt;DynamicLinearIFEM</title>
<path fill="none" stroke="black" d="M752.49,-236.79C740.54,-227.47 728.46,-215.32 722,-201 714.14,-183.58 720.92,-177.08 722,-158 724,-122.72 713.56,-109.74 731,-79 737.61,-67.35 747.7,-57.32 758.31,-49.08"/>
<polygon fill="black" stroke="black" points="760.46,-51.85 766.49,-43.14 756.34,-46.19 760.46,-51.85"/>
</g>
<!-- NavierStokes -->
<g id="node12" class="node">
<title>NavierStokes</title>
<path fill="#5d8aa8" stroke="#5d8aa8" d="M1111,-201C1111,-201 1005,-201 1005,-201 999,-201 993,-195 993,-189 993,-189 993,-170 993,-170 993,-164 999,-158 1005,-158 1005,-158 1111,-158 1111,-158 1117,-158 1123,-164 1123,-170 1123,-170 1123,-189 1123,-189 1123,-195 1117,-201 1111,-201"/>
<text text-anchor="middle" x="1058" y="-175.8" font-family="Times,serif" font-size="14.00">NavierStokes</text>
</g>
<!-- HyperElasticity&#45;&gt;NavierStokes -->
<g id="edge10" class="edge">
<title>HyperElasticity&#45;&gt;NavierStokes</title>
<path fill="none" stroke="black" d="M968.69,-236.87C983.46,-227.54 1001.08,-216.43 1016.74,-206.54"/>
<polygon fill="black" stroke="black" points="1018.63,-209.49 1025.22,-201.19 1014.89,-203.57 1018.63,-209.49"/>
</g>
<!-- SemiImplicitALE -->
<g id="node16" class="node">
<title>SemiImplicitALE</title>
<path fill="#5d8aa8" stroke="#5d8aa8" d="M1073,-122C1073,-122 967,-122 967,-122 961,-122 955,-116 955,-110 955,-110 955,-91 955,-91 955,-85 961,-79 967,-79 967,-79 1073,-79 1073,-79 1079,-79 1085,-85 1085,-91 1085,-91 1085,-110 1085,-110 1085,-116 1079,-122 1073,-122"/>
<text text-anchor="middle" x="1020" y="-96.8" font-family="Times,serif" font-size="14.00">SemiImplicitALE</text>
</g>
<!-- HyperElasticity&#45;&gt;SemiImplicitALE -->
<g id="edge32" class="edge">
<title>HyperElasticity&#45;&gt;SemiImplicitALE</title>
<path fill="none" stroke="black" d="M945.06,-236.94C954.23,-216.57 969.16,-184.64 984,-158 989.04,-148.95 994.93,-139.36 1000.47,-130.7"/>
<polygon fill="black" stroke="black" points="1003.56,-132.37 1006.07,-122.07 997.69,-128.56 1003.56,-132.37"/>
</g>
<!-- SemiImplicitIFEM -->
<g id="node20" class="node">
<title>SemiImplicitIFEM</title>
<path fill="#5d8aa8" stroke="#5d8aa8" d="M1006,-43C1006,-43 900,-43 900,-43 894,-43 888,-37 888,-31 888,-31 888,-12 888,-12 888,-6 894,0 900,0 900,0 1006,0 1006,0 1012,0 1018,-6 1018,-12 1018,-12 1018,-31 1018,-31 1018,-37 1012,-43 1006,-43"/>
<text text-anchor="middle" x="953" y="-17.8" font-family="Times,serif" font-size="14.00">SemiImplicitIFEM</text>
</g>
<!-- HyperElasticity&#45;&gt;SemiImplicitIFEM -->
<g id="edge33" class="edge">
<title>HyperElasticity&#45;&gt;SemiImplicitIFEM</title>
<path fill="none" stroke="black" d="M936.71,-236.85C937.94,-203.57 940.88,-136.04 946,-79 946.75,-70.62 947.78,-61.58 948.81,-53.23"/>
<polygon fill="black" stroke="black" points="952.31,-53.49 950.11,-43.13 945.36,-52.6 952.31,-53.49"/>
</g>
<!-- cfd -->
<g id="node8" class="node">
<title>cfd</title>
<g id="a_node8"><a xlink:href="group__cfd.html" target="_top" xlink:title="Compututational\nFluid Dynamics">
<text text-anchor="middle" x="238" y="-183.3" font-family="Times,serif" font-size="14.00">Compututational</text>
<text text-anchor="middle" x="238" y="-168.3" font-family="Times,serif" font-size="14.00">Fluid Dynamics</text>
</a>
</g>
</g>
<!-- cfd&#45;&gt;Stokes -->
<g id="edge18" class="edge">
<title>cfd&#45;&gt;Stokes</title>
<path fill="none" stroke="black" d="M303.04,-179.5C305.64,-179.5 308.24,-179.5 310.84,-179.5"/>
<polygon fill="black" stroke="black" points="310.86,-183 320.86,-179.5 310.86,-176 310.86,-183"/>
</g>
<!-- Stokes&#45;&gt;QuasiStaticStokes -->
<g id="edge19" class="edge">
<title>Stokes&#45;&gt;QuasiStaticStokes</title>
<path fill="none" stroke="black" d="M451.04,-179.5C453.64,-179.5 456.24,-179.5 458.84,-179.5"/>
<polygon fill="black" stroke="black" points="458.86,-183 468.86,-179.5 458.86,-176 458.86,-183"/>
</g>
<!-- QuasiStaticStokes&#45;&gt;DynamicStokes -->
<g id="edge20" class="edge">
<title>QuasiStaticStokes&#45;&gt;DynamicStokes</title>
<path fill="none" stroke="black" d="M599.24,-179.5C639.72,-179.5 680.19,-179.5 720.66,-179.5"/>
<polygon fill="black" stroke="black" points="720.67,-183 730.67,-179.5 720.67,-176 720.67,-183"/>
</g>
<!-- QuasiStaticStokes&#45;&gt;QuasiStaticLinearFSI -->
<g id="edge4" class="edge">
<title>QuasiStaticStokes&#45;&gt;QuasiStaticLinearFSI</title>
<path fill="none" stroke="black" d="M544.18,-157.87C548.19,-149.75 552.86,-140.28 557.22,-131.44"/>
<polygon fill="black" stroke="black" points="560.5,-132.71 561.79,-122.19 554.22,-129.61 560.5,-132.71"/>
</g>
<!-- DynamicStokes&#45;&gt;NavierStokes -->
<g id="edge21" class="edge">
<title>DynamicStokes&#45;&gt;NavierStokes</title>
<path fill="none" stroke="black" d="M861.24,-179.5C901.72,-179.5 942.19,-179.5 982.66,-179.5"/>
<polygon fill="black" stroke="black" points="982.67,-183 992.67,-179.5 982.67,-176 982.67,-183"/>
</g>
<!-- DynamicStokes&#45;&gt;DynamicLinearFSI -->
<g id="edge8" class="edge">
<title>DynamicStokes&#45;&gt;DynamicLinearFSI</title>
<path fill="none" stroke="black" d="M798.41,-157.87C799.33,-150.01 800.4,-140.88 801.4,-132.29"/>
<polygon fill="black" stroke="black" points="804.9,-132.53 802.58,-122.19 797.94,-131.72 804.9,-132.53"/>
</g>
<!-- NavierStokes&#45;&gt;SemiImplicitALE -->
<g id="edge11" class="edge">
<title>NavierStokes&#45;&gt;SemiImplicitALE</title>
<path fill="none" stroke="black" d="M1047.82,-157.87C1043.81,-149.75 1039.14,-140.28 1034.78,-131.44"/>
<polygon fill="black" stroke="black" points="1037.78,-129.61 1030.21,-122.19 1031.5,-132.71 1037.78,-129.61"/>
</g>
<!-- fsi -->
<g id="node13" class="node">
<title>fsi</title>
<text text-anchor="middle" x="424" y="-104.3" font-family="Times,serif" font-size="14.00">Matching Fluid</text>
<text text-anchor="middle" x="424" y="-89.3" font-family="Times,serif" font-size="14.00">Structure Interaction</text>
</g>
<!-- fsi&#45;&gt;QuasiStaticLinearFSI -->
<g id="edge22" class="edge">
<title>fsi&#45;&gt;QuasiStaticLinearFSI</title>
<path fill="none" stroke="black" d="M489.04,-100.5C491.64,-100.5 494.24,-100.5 496.84,-100.5"/>
<polygon fill="black" stroke="black" points="496.86,-104 506.86,-100.5 496.86,-97 496.86,-104"/>
</g>
<!-- QuasiStaticLinearFSI&#45;&gt;DynamicLinearFSI -->
<g id="edge23" class="edge">
<title>QuasiStaticLinearFSI&#45;&gt;DynamicLinearFSI</title>
<path fill="none" stroke="black" d="M637.08,-100.5C667.95,-100.5 698.83,-100.5 729.71,-100.5"/>
<polygon fill="black" stroke="black" points="729.73,-104 739.73,-100.5 729.73,-97 729.73,-104"/>
</g>
<!-- QuasiStaticLinearFSI&#45;&gt;QuasiStaticLinearIFEM -->
<!-- DynamicLinearFSI&#45;&gt;SemiImplicitALE -->
<g id="edge24" class="edge">
<title>DynamicLinearFSI&#45;&gt;SemiImplicitALE</title>
<path fill="none" stroke="black" d="M870.09,-100.5C894.96,-100.5 919.84,-100.5 944.72,-100.5"/>
<polygon fill="black" stroke="black" points="945,-104 955,-100.5 945,-97 945,-104"/>
</g>
<!-- DynamicLinearFSI&#45;&gt;DynamicLinearIFEM -->
<!-- SemiImplicitALE&#45;&gt;SemiImplicitIFEM -->
<!-- nmfsi -->
<g id="node17" class="node">
<title>nmfsi</title>
<text text-anchor="middle" x="509" y="-25.3" font-family="Times,serif" font-size="14.00">Non&#45;matching Fluid</text>
<text text-anchor="middle" x="509" y="-10.3" font-family="Times,serif" font-size="14.00">Structure Interaction</text>
</g>
<!-- nmfsi&#45;&gt;QuasiStaticLinearIFEM -->
<g id="edge25" class="edge">
<title>nmfsi&#45;&gt;QuasiStaticLinearIFEM</title>
<path fill="none" stroke="black" d="M574.04,-21.5C576.64,-21.5 579.24,-21.5 581.84,-21.5"/>
<polygon fill="black" stroke="black" points="581.86,-25 591.86,-21.5 581.86,-18 581.86,-25"/>
</g>
<!-- QuasiStaticLinearIFEM&#45;&gt;DynamicLinearIFEM -->
<g id="edge26" class="edge">
<title>QuasiStaticLinearIFEM&#45;&gt;DynamicLinearIFEM</title>
<path fill="none" stroke="black" d="M722.04,-21.5C724.64,-21.5 727.24,-21.5 729.84,-21.5"/>
<polygon fill="black" stroke="black" points="729.86,-25 739.86,-21.5 729.86,-18 729.86,-25"/>
</g>
<!-- DynamicLinearIFEM&#45;&gt;SemiImplicitIFEM -->
<g id="edge27" class="edge">
<title>DynamicLinearIFEM&#45;&gt;SemiImplicitIFEM</title>
<path fill="none" stroke="black" d="M870.04,-21.5C872.64,-21.5 875.24,-21.5 877.84,-21.5"/>
<polygon fill="black" stroke="black" points="877.86,-25 887.86,-21.5 877.86,-18 877.86,-25"/>
</g>
<!-- FictitiousDomain -->
<g id="node22" class="node">
<title>FictitiousDomain</title>
<path fill="#5d8aa8" stroke="#5d8aa8" d="M266,-43C266,-43 160,-43 160,-43 154,-43 148,-37 148,-31 148,-31 148,-12 148,-12 148,-6 154,0 160,0 160,0 266,0 266,0 272,0 278,-6 278,-12 278,-12 278,-31 278,-31 278,-37 272,-43 266,-43"/>
<text text-anchor="middle" x="213" y="-17.8" font-family="Times,serif" font-size="14.00">FictitiousDomain</text>
</g>
<!-- ImmersedInteface&#45;&gt;FictitiousDomain -->
<g id="edge35" class="edge">
<title>ImmersedInteface&#45;&gt;FictitiousDomain</title>
<path fill="none" stroke="black" d="M130.04,-21.5C132.64,-21.5 135.24,-21.5 137.84,-21.5"/>
<polygon fill="black" stroke="black" points="137.86,-25 147.86,-21.5 137.86,-18 137.86,-25"/>
</g>
<!-- DistributedLagrange -->
<g id="node23" class="node">
<title>DistributedLagrange</title>
<g id="a_node23"><a xlink:href="class_p_d_es_1_1_serial_1_1_distributed_lagrange.html" target="_top" xlink:title="DistributedLagrange">
<path fill="#5d8aa8" stroke="#5d8aa8" d="M414,-43C414,-43 308,-43 308,-43 302,-43 296,-37 296,-31 296,-31 296,-12 296,-12 296,-6 302,0 308,0 308,0 414,0 414,0 420,0 426,-6 426,-12 426,-12 426,-31 426,-31 426,-37 420,-43 414,-43"/>
<text text-anchor="middle" x="361" y="-17.8" font-family="Times,serif" font-size="14.00">DistributedLagrange</text>
</a>
</g>
</g>
<!-- FictitiousDomain&#45;&gt;DistributedLagrange -->
<g id="edge36" class="edge">
<title>FictitiousDomain&#45;&gt;DistributedLagrange</title>
<path fill="none" stroke="black" d="M278.04,-21.5C280.64,-21.5 283.24,-21.5 285.84,-21.5"/>
<polygon fill="black" stroke="black" points="285.86,-25 295.86,-21.5 285.86,-18 285.86,-25"/>
</g>
</g>
</svg>
