<?xml version="1.0" encoding="UTF-8" standalone="no"?>
<!DOCTYPE svg PUBLIC "-//W3C//DTD SVG 1.1//EN"
 "http://www.w3.org/Graphics/SVG/1.1/DTD/svg11.dtd">
<!-- Generated by graphviz version 2.43.0 (0)
 -->
<!-- Title: include/parsed_tools/enum.h Pages: 1 -->
<svg width="2594pt" height="374pt"
 viewBox="0.00 0.00 2593.50 374.00" xmlns="http://www.w3.org/2000/svg" xmlns:xlink="http://www.w3.org/1999/xlink">
<g id="graph0" class="graph" transform="scale(1 1) rotate(0) translate(4 370)">
<title>include/parsed_tools/enum.h</title>
<!-- Node1 -->
<g id="node1" class="node">
<title>Node1</title>
<g id="a_node1"><a xlink:title=" ">
<polygon fill="#bfbfbf" stroke="black" points="1944.5,-335.5 1944.5,-365.5 2061.5,-365.5 2061.5,-335.5 1944.5,-335.5"/>
<text text-anchor="start" x="1952.5" y="-353.5" font-family="Helvetica,sans-Serif" font-size="10.00">include/parsed_tools</text>
<text text-anchor="middle" x="2003" y="-342.5" font-family="Helvetica,sans-Serif" font-size="10.00">/enum.h</text>
</a>
</g>
</g>
<!-- Node2 -->
<g id="node2" class="node">
<title>Node2</title>
<g id="a_node2"><a xlink:href="boundary__conditions_8h.html" target="_top" xlink:title=" ">
<polygon fill="none" stroke="black" points="1454,-201.5 1454,-231.5 1584,-231.5 1584,-201.5 1454,-201.5"/>
<text text-anchor="start" x="1462" y="-219.5" font-family="Helvetica,sans-Serif" font-size="10.00">include/parsed_tools</text>
<text text-anchor="middle" x="1519" y="-208.5" font-family="Helvetica,sans-Serif" font-size="10.00">/boundary_conditions.h</text>
</a>
</g>
</g>
<!-- Node1&#45;&gt;Node2 -->
<g id="edge1" class="edge">
<title>Node1&#45;&gt;Node2</title>
<path fill="none" stroke="midnightblue" d="M1934.27,-333.46C1894.13,-323.9 1842.57,-311.26 1797,-299 1714.68,-276.85 1619.5,-248.31 1564.57,-231.54"/>
<polygon fill="midnightblue" stroke="midnightblue" points="1933.68,-336.92 1944.22,-335.83 1935.3,-330.11 1933.68,-336.92"/>
</g>
<!-- Node30 -->
<g id="node30" class="node">
<title>Node30</title>
<g id="a_node30"><a xlink:href="source_2pdes_2serial_2reduced__lagrange_8cc.html" target="_top" xlink:title=" ">
<polygon fill="none" stroke="black" points="2376,-67.5 2376,-97.5 2496,-97.5 2496,-67.5 2376,-67.5"/>
<text text-anchor="start" x="2384" y="-85.5" font-family="Helvetica,sans-Serif" font-size="10.00">source/pdes/serial</text>
<text text-anchor="middle" x="2436" y="-74.5" font-family="Helvetica,sans-Serif" font-size="10.00">/reduced_lagrange.cc</text>
</a>
</g>
</g>
<!-- Node1&#45;&gt;Node30 -->
<g id="edge64" class="edge">
<title>Node1&#45;&gt;Node30</title>
<path fill="none" stroke="midnightblue" d="M2034.72,-330.01C2117.91,-278.91 2340.86,-141.94 2413.08,-97.58"/>
<polygon fill="midnightblue" stroke="midnightblue" points="2032.66,-327.17 2025.97,-335.39 2036.33,-333.13 2032.66,-327.17"/>
</g>
<!-- Node36 -->
<g id="node36" class="node">
<title>Node36</title>
<g id="a_node36"><a xlink:href="components_8h.html" target="_top" xlink:title=" ">
<polygon fill="none" stroke="black" points="834.5,-268.5 834.5,-298.5 951.5,-298.5 951.5,-268.5 834.5,-268.5"/>
<text text-anchor="start" x="842.5" y="-286.5" font-family="Helvetica,sans-Serif" font-size="10.00">include/parsed_tools</text>
<text text-anchor="middle" x="893" y="-275.5" font-family="Helvetica,sans-Serif" font-size="10.00">/components.h</text>
</a>
</g>
</g>
<!-- Node1&#45;&gt;Node36 -->
<g id="edge36" class="edge">
<title>Node1&#45;&gt;Node36</title>
<path fill="none" stroke="midnightblue" d="M1934.3,-345.48C1731.99,-333.63 1140.8,-299.01 951.82,-287.94"/>
<polygon fill="midnightblue" stroke="midnightblue" points="1934.31,-348.98 1944.5,-346.07 1934.72,-342 1934.31,-348.98"/>
</g>
<!-- Node39 -->
<g id="node39" class="node">
<title>Node39</title>
<g id="a_node39"><a xlink:href="data__out_8h.html" target="_top" xlink:title=" ">
<polygon fill="none" stroke="black" points="1602.5,-201.5 1602.5,-231.5 1719.5,-231.5 1719.5,-201.5 1602.5,-201.5"/>
<text text-anchor="start" x="1610.5" y="-219.5" font-family="Helvetica,sans-Serif" font-size="10.00">include/parsed_tools</text>
<text text-anchor="middle" x="1661" y="-208.5" font-family="Helvetica,sans-Serif" font-size="10.00">/data_out.h</text>
</a>
</g>
</g>
<!-- Node1&#45;&gt;Node39 -->
<g id="edge44" class="edge">
<title>Node1&#45;&gt;Node39</title>
<path fill="none" stroke="midnightblue" d="M1957.03,-331.76C1888.29,-305.23 1760.11,-255.75 1697.42,-231.56"/>
<polygon fill="midnightblue" stroke="midnightblue" points="1956.13,-335.16 1966.72,-335.5 1958.65,-328.63 1956.13,-335.16"/>
</g>
<!-- Node41 -->
<g id="node41" class="node">
<title>Node41</title>
<g id="a_node41"><a xlink:href="grid__refinement_8h.html" target="_top" xlink:title=" ">
<polygon fill="none" stroke="black" points="1872.5,-201.5 1872.5,-231.5 1989.5,-231.5 1989.5,-201.5 1872.5,-201.5"/>
<text text-anchor="start" x="1880.5" y="-219.5" font-family="Helvetica,sans-Serif" font-size="10.00">include/parsed_tools</text>
<text text-anchor="middle" x="1931" y="-208.5" font-family="Helvetica,sans-Serif" font-size="10.00">/grid_refinement.h</text>
</a>
</g>
</g>
<!-- Node1&#45;&gt;Node41 -->
<g id="edge53" class="edge">
<title>Node1&#45;&gt;Node41</title>
<path fill="none" stroke="midnightblue" d="M1990.44,-326.48C1975.49,-299.07 1951.01,-254.19 1938.65,-231.52"/>
<polygon fill="midnightblue" stroke="midnightblue" points="1987.43,-328.27 1995.29,-335.37 1993.58,-324.92 1987.43,-328.27"/>
</g>
<!-- Node43 -->
<g id="node43" class="node">
<title>Node43</title>
<g id="a_node43"><a xlink:href="non__matching__coupling_8cc.html" target="_top" xlink:title=" ">
<polygon fill="none" stroke="black" points="2156.5,-268.5 2156.5,-298.5 2277.5,-298.5 2277.5,-268.5 2156.5,-268.5"/>
<text text-anchor="start" x="2164.5" y="-286.5" font-family="Helvetica,sans-Serif" font-size="10.00">source/non_matching</text>
<text text-anchor="middle" x="2217" y="-275.5" font-family="Helvetica,sans-Serif" font-size="10.00">_coupling.cc</text>
</a>
</g>
</g>
<!-- Node1&#45;&gt;Node43 -->
<g id="edge61" class="edge">
<title>Node1&#45;&gt;Node43</title>
<path fill="none" stroke="midnightblue" d="M2059.15,-332.44C2093.84,-321.91 2137.82,-308.55 2170.54,-298.61"/>
<polygon fill="midnightblue" stroke="midnightblue" points="2057.72,-329.22 2049.17,-335.48 2059.76,-335.92 2057.72,-329.22"/>
</g>
<!-- Node44 -->
<g id="node44" class="node">
<title>Node44</title>
<g id="a_node44"><a xlink:href="amg__petsc_8cc.html" target="_top" xlink:title=" ">
<polygon fill="none" stroke="black" points="2295.5,-268.5 2295.5,-298.5 2424.5,-298.5 2424.5,-268.5 2295.5,-268.5"/>
<text text-anchor="start" x="2303.5" y="-286.5" font-family="Helvetica,sans-Serif" font-size="10.00">source/parsed_lac/amg</text>
<text text-anchor="middle" x="2360" y="-275.5" font-family="Helvetica,sans-Serif" font-size="10.00">_petsc.cc</text>
</a>
</g>
</g>
<!-- Node1&#45;&gt;Node44 -->
<g id="edge62" class="edge">
<title>Node1&#45;&gt;Node44</title>
<path fill="none" stroke="midnightblue" d="M2071.6,-337.7C2129.17,-327.7 2213.53,-312.83 2287,-299 2289.67,-298.5 2292.39,-297.98 2295.13,-297.45"/>
<polygon fill="midnightblue" stroke="midnightblue" points="2070.79,-334.29 2061.53,-339.45 2071.98,-341.19 2070.79,-334.29"/>
</g>
<!-- Node45 -->
<g id="node45" class="node">
<title>Node45</title>
<g id="a_node45"><a xlink:href="inverse__operator_8cc.html" target="_top" xlink:title=" ">
<polygon fill="none" stroke="black" points="2442.5,-268.5 2442.5,-298.5 2585.5,-298.5 2585.5,-268.5 2442.5,-268.5"/>
<text text-anchor="start" x="2450.5" y="-286.5" font-family="Helvetica,sans-Serif" font-size="10.00">source/parsed_lac/inverse</text>
<text text-anchor="middle" x="2514" y="-275.5" font-family="Helvetica,sans-Serif" font-size="10.00">_operator.cc</text>
</a>
</g>
</g>
<!-- Node1&#45;&gt;Node45 -->
<g id="edge63" class="edge">
<title>Node1&#45;&gt;Node45</title>
<path fill="none" stroke="midnightblue" d="M2071.78,-342.78C2157,-334.15 2306.54,-318 2434,-299 2436.65,-298.6 2439.35,-298.19 2442.08,-297.76"/>
<polygon fill="midnightblue" stroke="midnightblue" points="2071.31,-339.31 2061.71,-343.8 2072.01,-346.28 2071.31,-339.31"/>
</g>
<!-- Node3 -->
<g id="node3" class="node">
<title>Node3</title>
<g id="a_node3"><a xlink:href="distributed__lagrange_8h.html" target="_top" xlink:title=" ">
<polygon fill="none" stroke="black" points="1253,-67.5 1253,-97.5 1387,-97.5 1387,-67.5 1253,-67.5"/>
<text text-anchor="start" x="1261" y="-85.5" font-family="Helvetica,sans-Serif" font-size="10.00">include/pdes/distributed</text>
<text text-anchor="middle" x="1320" y="-74.5" font-family="Helvetica,sans-Serif" font-size="10.00">_lagrange.h</text>
</a>
</g>
</g>
<!-- Node2&#45;&gt;Node3 -->
<g id="edge2" class="edge">
<title>Node2&#45;&gt;Node3</title>
<path fill="none" stroke="midnightblue" d="M1443.89,-201.72C1417.83,-194.16 1389.72,-182.58 1368,-165 1345.79,-147.02 1331.6,-115.83 1324.78,-97.69"/>
<polygon fill="midnightblue" stroke="midnightblue" points="1443.2,-205.16 1453.77,-204.43 1445.05,-198.41 1443.2,-205.16"/>
</g>
<!-- Node7 -->
<g id="node7" class="node">
<title>Node7</title>
<g id="a_node7"><a xlink:href="linear__problem_8h.html" target="_top" xlink:title=" ">
<polygon fill="none" stroke="black" points="1206.5,-134.5 1206.5,-164.5 1315.5,-164.5 1315.5,-134.5 1206.5,-134.5"/>
<text text-anchor="start" x="1214.5" y="-152.5" font-family="Helvetica,sans-Serif" font-size="10.00">include/pdes/linear</text>
<text text-anchor="middle" x="1261" y="-141.5" font-family="Helvetica,sans-Serif" font-size="10.00">_problem.h</text>
</a>
</g>
</g>
<!-- Node2&#45;&gt;Node7 -->
<g id="edge6" class="edge">
<title>Node2&#45;&gt;Node7</title>
<path fill="none" stroke="midnightblue" d="M1453.61,-199.03C1410.98,-188.29 1355.98,-174.43 1315.68,-164.28"/>
<polygon fill="midnightblue" stroke="midnightblue" points="1452.78,-202.43 1463.34,-201.48 1454.49,-195.64 1452.78,-202.43"/>
</g>
<!-- Node23 -->
<g id="node23" class="node">
<title>Node23</title>
<g id="a_node23"><a xlink:href="serial_2poisson_8h.html" target="_top" xlink:title=" ">
<polygon fill="none" stroke="black" points="1536,-134.5 1536,-164.5 1644,-164.5 1644,-134.5 1536,-134.5"/>
<text text-anchor="start" x="1544" y="-152.5" font-family="Helvetica,sans-Serif" font-size="10.00">include/pdes/serial</text>
<text text-anchor="middle" x="1590" y="-141.5" font-family="Helvetica,sans-Serif" font-size="10.00">/poisson.h</text>
</a>
</g>
</g>
<!-- Node2&#45;&gt;Node23 -->
<g id="edge23" class="edge">
<title>Node2&#45;&gt;Node23</title>
<path fill="none" stroke="midnightblue" d="M1541.83,-194.6C1552.55,-184.78 1565.05,-173.34 1574.62,-164.58"/>
<polygon fill="midnightblue" stroke="midnightblue" points="1539.42,-192.06 1534.41,-201.4 1544.15,-197.22 1539.42,-192.06"/>
</g>
<!-- Node26 -->
<g id="node26" class="node">
<title>Node26</title>
<g id="a_node26"><a xlink:href="poisson__nitsche__interface_8h.html" target="_top" xlink:title=" ">
<polygon fill="none" stroke="black" points="1662.5,-134.5 1662.5,-164.5 1817.5,-164.5 1817.5,-134.5 1662.5,-134.5"/>
<text text-anchor="start" x="1670.5" y="-152.5" font-family="Helvetica,sans-Serif" font-size="10.00">include/pdes/serial</text>
<text text-anchor="middle" x="1740" y="-141.5" font-family="Helvetica,sans-Serif" font-size="10.00">/poisson_nitsche_interface.h</text>
</a>
</g>
</g>
<!-- Node2&#45;&gt;Node26 -->
<g id="edge26" class="edge">
<title>Node2&#45;&gt;Node26</title>
<path fill="none" stroke="midnightblue" d="M1576.53,-198.58C1612.42,-188.02 1658.09,-174.59 1692.02,-164.61"/>
<polygon fill="midnightblue" stroke="midnightblue" points="1575.29,-195.3 1566.68,-201.48 1577.26,-202.01 1575.29,-195.3"/>
</g>
<!-- Node29 -->
<g id="node29" class="node">
<title>Node29</title>
<g id="a_node29"><a xlink:href="reduced__lagrange_8h.html" target="_top" xlink:title=" ">
<polygon fill="none" stroke="black" points="2000,-134.5 2000,-164.5 2116,-164.5 2116,-134.5 2000,-134.5"/>
<text text-anchor="start" x="2008" y="-152.5" font-family="Helvetica,sans-Serif" font-size="10.00">include/pdes/serial</text>
<text text-anchor="middle" x="2058" y="-141.5" font-family="Helvetica,sans-Serif" font-size="10.00">/reduced_lagrange.h</text>
</a>
</g>
</g>
<!-- Node2&#45;&gt;Node29 -->
<g id="edge29" class="edge">
<title>Node2&#45;&gt;Node29</title>
<path fill="none" stroke="midnightblue" d="M1594.58,-201.01C1754.4,-178 1797.04,-183.58 1953,-165 1968.17,-163.19 1984.54,-161.03 1999.73,-158.94"/>
<polygon fill="midnightblue" stroke="midnightblue" points="1593.78,-197.59 1584.39,-202.5 1594.79,-204.52 1593.78,-197.59"/>
</g>
<!-- Node32 -->
<g id="node32" class="node">
<title>Node32</title>
<g id="a_node32"><a xlink:href="serial_2stokes_8h.html" target="_top" xlink:title=" ">
<polygon fill="none" stroke="black" points="1836,-134.5 1836,-164.5 1944,-164.5 1944,-134.5 1836,-134.5"/>
<text text-anchor="start" x="1844" y="-152.5" font-family="Helvetica,sans-Serif" font-size="10.00">include/pdes/serial</text>
<text text-anchor="middle" x="1890" y="-141.5" font-family="Helvetica,sans-Serif" font-size="10.00">/stokes.h</text>
</a>
</g>
</g>
<!-- Node2&#45;&gt;Node32 -->
<g id="edge32" class="edge">
<title>Node2&#45;&gt;Node32</title>
<path fill="none" stroke="midnightblue" d="M1593.69,-201.05C1593.8,-201.04 1593.9,-201.02 1594,-201 1697.24,-183.05 1724.1,-184.76 1827,-165 1829.87,-164.45 1832.8,-163.86 1835.76,-163.25"/>
<polygon fill="midnightblue" stroke="midnightblue" points="1593.25,-197.58 1584.01,-202.78 1594.47,-204.47 1593.25,-197.58"/>
</g>
<!-- Node35 -->
<g id="node35" class="node">
<title>Node35</title>
<g id="a_node35"><a xlink:href="boundary__conditions_8cc.html" target="_top" xlink:title=" ">
<polygon fill="none" stroke="black" points="892.5,-140 892.5,-159 1059.5,-159 1059.5,-140 892.5,-140"/>
<text text-anchor="middle" x="976" y="-147" font-family="Helvetica,sans-Serif" font-size="10.00">source/boundary_conditions.cc</text>
</a>
</g>
</g>
<!-- Node2&#45;&gt;Node35 -->
<g id="edge35" class="edge">
<title>Node2&#45;&gt;Node35</title>
<path fill="none" stroke="midnightblue" d="M1443.63,-208.04C1354.15,-198.95 1200.49,-182.62 1069,-165 1055.72,-163.22 1041.4,-161.09 1028.08,-159.02"/>
<polygon fill="midnightblue" stroke="midnightblue" points="1443.38,-211.53 1453.69,-209.06 1444.09,-204.57 1443.38,-211.53"/>
</g>
<!-- Node4 -->
<g id="node4" class="node">
<title>Node4</title>
<g id="a_node4"><a xlink:href="source_2pdes_2distributed__lagrange_8cc.html" target="_top" xlink:title=" ">
<polygon fill="none" stroke="black" points="1666.5,-0.5 1666.5,-30.5 1797.5,-30.5 1797.5,-0.5 1666.5,-0.5"/>
<text text-anchor="start" x="1674.5" y="-18.5" font-family="Helvetica,sans-Serif" font-size="10.00">source/pdes/distributed</text>
<text text-anchor="middle" x="1732" y="-7.5" font-family="Helvetica,sans-Serif" font-size="10.00">_lagrange.cc</text>
</a>
</g>
</g>
<!-- Node3&#45;&gt;Node4 -->
<g id="edge3" class="edge">
<title>Node3&#45;&gt;Node4</title>
<path fill="none" stroke="midnightblue" d="M1397.24,-67.02C1514.27,-48.26 1545.66,-49.74 1658,-31 1660.71,-30.55 1663.48,-30.07 1666.27,-29.58"/>
<polygon fill="midnightblue" stroke="midnightblue" points="1396.47,-63.6 1387.16,-68.65 1397.59,-70.51 1396.47,-63.6"/>
</g>
<!-- Node5 -->
<g id="node5" class="node">
<title>Node5</title>
<g id="a_node5"><a xlink:href="apps_2mpi_2distributed__lagrange_8cc.html" target="_top" xlink:title=" ">
<polygon fill="none" stroke="black" points="1388.5,-0.5 1388.5,-30.5 1505.5,-30.5 1505.5,-0.5 1388.5,-0.5"/>
<text text-anchor="start" x="1396.5" y="-18.5" font-family="Helvetica,sans-Serif" font-size="10.00">apps/mpi/distributed</text>
<text text-anchor="middle" x="1447" y="-7.5" font-family="Helvetica,sans-Serif" font-size="10.00">_lagrange.cc</text>
</a>
</g>
</g>
<!-- Node3&#45;&gt;Node5 -->
<g id="edge4" class="edge">
<title>Node3&#45;&gt;Node5</title>
<path fill="none" stroke="midnightblue" d="M1356.7,-62.71C1376.73,-52.46 1401.12,-39.98 1419.5,-30.58"/>
<polygon fill="midnightblue" stroke="midnightblue" points="1354.86,-59.72 1347.56,-67.4 1358.05,-65.96 1354.86,-59.72"/>
</g>
<!-- Node6 -->
<g id="node6" class="node">
<title>Node6</title>
<g id="a_node6"><a xlink:href="apps_2serial_2distributed__lagrange_8cc.html" target="_top" xlink:title=" ">
<polygon fill="none" stroke="black" points="1523.5,-0.5 1523.5,-30.5 1648.5,-30.5 1648.5,-0.5 1523.5,-0.5"/>
<text text-anchor="start" x="1531.5" y="-18.5" font-family="Helvetica,sans-Serif" font-size="10.00">apps/serial/distributed</text>
<text text-anchor="middle" x="1586" y="-7.5" font-family="Helvetica,sans-Serif" font-size="10.00">_lagrange.cc</text>
</a>
</g>
</g>
<!-- Node3&#45;&gt;Node6 -->
<g id="edge5" class="edge">
<title>Node3&#45;&gt;Node6</title>
<path fill="none" stroke="midnightblue" d="M1387.31,-65.05C1430.8,-54.43 1486.8,-40.74 1528.25,-30.61"/>
<polygon fill="midnightblue" stroke="midnightblue" points="1386.27,-61.7 1377.39,-67.48 1387.94,-68.5 1386.27,-61.7"/>
</g>
<!-- Node7&#45;&gt;Node3 -->
<g id="edge7" class="edge">
<title>Node7&#45;&gt;Node3</title>
<path fill="none" stroke="midnightblue" d="M1280.75,-126.74C1289.48,-117.12 1299.5,-106.09 1307.22,-97.58"/>
<polygon fill="midnightblue" stroke="midnightblue" points="1277.93,-124.64 1273.8,-134.4 1283.11,-129.34 1277.93,-124.64"/>
</g>
<!-- Node8 -->
<g id="node8" class="node">
<title>Node8</title>
<g id="a_node8"><a xlink:href="linear__elasticity_8h.html" target="_top" xlink:title=" ">
<polygon fill="none" stroke="black" points="266.5,-67.5 266.5,-97.5 375.5,-97.5 375.5,-67.5 266.5,-67.5"/>
<text text-anchor="start" x="274.5" y="-85.5" font-family="Helvetica,sans-Serif" font-size="10.00">include/pdes/linear</text>
<text text-anchor="middle" x="321" y="-74.5" font-family="Helvetica,sans-Serif" font-size="10.00">_elasticity.h</text>
</a>
</g>
</g>
<!-- Node7&#45;&gt;Node8 -->
<g id="edge8" class="edge">
<title>Node7&#45;&gt;Node8</title>
<path fill="none" stroke="midnightblue" d="M1196.3,-134.08C905.21,-93.99 828.06,-115.52 539,-98 483.34,-94.63 419.72,-90.35 375.64,-87.31"/>
<polygon fill="midnightblue" stroke="midnightblue" points="1195.91,-137.56 1206.3,-135.47 1196.88,-130.63 1195.91,-137.56"/>
</g>
<!-- Node12 -->
<g id="node12" class="node">
<title>Node12</title>
<g id="a_node12"><a xlink:href="linear__visco__elasticity_8h.html" target="_top" xlink:title=" ">
<polygon fill="none" stroke="black" points="1125.5,-67.5 1125.5,-97.5 1234.5,-97.5 1234.5,-67.5 1125.5,-67.5"/>
<text text-anchor="start" x="1133.5" y="-85.5" font-family="Helvetica,sans-Serif" font-size="10.00">include/pdes/linear</text>
<text text-anchor="middle" x="1180" y="-74.5" font-family="Helvetica,sans-Serif" font-size="10.00">_visco_elasticity.h</text>
</a>
</g>
</g>
<!-- Node7&#45;&gt;Node12 -->
<g id="edge12" class="edge">
<title>Node7&#45;&gt;Node12</title>
<path fill="none" stroke="midnightblue" d="M1235.31,-127.88C1223,-118.01 1208.57,-106.43 1197.54,-97.58"/>
<polygon fill="midnightblue" stroke="midnightblue" points="1233.43,-130.87 1243.42,-134.4 1237.82,-125.41 1233.43,-130.87"/>
</g>
<!-- Node16 -->
<g id="node16" class="node">
<title>Node16</title>
<g id="a_node16"><a xlink:href="mpi_2poisson_8h.html" target="_top" xlink:title=" ">
<polygon fill="none" stroke="black" points="688.5,-73 688.5,-92 837.5,-92 837.5,-73 688.5,-73"/>
<text text-anchor="middle" x="763" y="-80" font-family="Helvetica,sans-Serif" font-size="10.00">include/pdes/mpi/poisson.h</text>
</a>
</g>
</g>
<!-- Node7&#45;&gt;Node16 -->
<g id="edge16" class="edge">
<title>Node7&#45;&gt;Node16</title>
<path fill="none" stroke="midnightblue" d="M1196.39,-134.02C1064.61,-111.86 922.49,-97.39 837.84,-89.76"/>
<polygon fill="midnightblue" stroke="midnightblue" points="1195.82,-137.47 1206.26,-135.69 1196.99,-130.57 1195.82,-137.47"/>
</g>
<!-- Node19 -->
<g id="node19" class="node">
<title>Node19</title>
<g id="a_node19"><a xlink:href="stokes_8h.html" target="_top" xlink:title=" ">
<polygon fill="none" stroke="black" points="548,-73 548,-92 670,-92 670,-73 548,-73"/>
<text text-anchor="middle" x="609" y="-80" font-family="Helvetica,sans-Serif" font-size="10.00">include/pdes/stokes.h</text>
</a>
</g>
</g>
<!-- Node7&#45;&gt;Node19 -->
<g id="edge19" class="edge">
<title>Node7&#45;&gt;Node19</title>
<path fill="none" stroke="midnightblue" d="M1196.32,-134.07C967.36,-101.25 904.99,-128.67 680,-98 668.91,-96.49 656.94,-94.27 646.06,-92.03"/>
<polygon fill="midnightblue" stroke="midnightblue" points="1195.89,-137.55 1206.29,-135.53 1196.9,-130.62 1195.89,-137.55"/>
</g>
<!-- Node22 -->
<g id="node22" class="node">
<title>Node22</title>
<g id="a_node22"><a xlink:href="linear__problem_8cc.html" target="_top" xlink:title=" ">
<polygon fill="none" stroke="black" points="1001,-67.5 1001,-97.5 1107,-97.5 1107,-67.5 1001,-67.5"/>
<text text-anchor="start" x="1009" y="-85.5" font-family="Helvetica,sans-Serif" font-size="10.00">source/pdes/linear</text>
<text text-anchor="middle" x="1054" y="-74.5" font-family="Helvetica,sans-Serif" font-size="10.00">_problem.cc</text>
</a>
</g>
</g>
<!-- Node7&#45;&gt;Node22 -->
<g id="edge22" class="edge">
<title>Node7&#45;&gt;Node22</title>
<path fill="none" stroke="midnightblue" d="M1206.68,-131.44C1173.13,-120.91 1130.59,-107.55 1098.94,-97.61"/>
<polygon fill="midnightblue" stroke="midnightblue" points="1205.75,-134.82 1216.34,-134.48 1207.85,-128.14 1205.75,-134.82"/>
</g>
<!-- Node9 -->
<g id="node9" class="node">
<title>Node9</title>
<g id="a_node9"><a xlink:href="source_2pdes_2linear__elasticity_8cc.html" target="_top" xlink:title=" ">
<polygon fill="none" stroke="black" points="0,-0.5 0,-30.5 106,-30.5 106,-0.5 0,-0.5"/>
<text text-anchor="start" x="8" y="-18.5" font-family="Helvetica,sans-Serif" font-size="10.00">source/pdes/linear</text>
<text text-anchor="middle" x="53" y="-7.5" font-family="Helvetica,sans-Serif" font-size="10.00">_elasticity.cc</text>
</a>
</g>
</g>
<!-- Node8&#45;&gt;Node9 -->
<g id="edge9" class="edge">
<title>Node8&#45;&gt;Node9</title>
<path fill="none" stroke="midnightblue" d="M256.57,-65.87C210.53,-54.71 149.35,-39.87 106.11,-29.38"/>
<polygon fill="midnightblue" stroke="midnightblue" points="255.9,-69.31 266.44,-68.27 257.55,-62.51 255.9,-69.31"/>
</g>
<!-- Node10 -->
<g id="node10" class="node">
<title>Node10</title>
<g id="a_node10"><a xlink:href="apps_2mpi_2linear__elasticity_8cc.html" target="_top" xlink:title=" ">
<polygon fill="none" stroke="black" points="243.5,-6 243.5,-25 398.5,-25 398.5,-6 243.5,-6"/>
<text text-anchor="middle" x="321" y="-13" font-family="Helvetica,sans-Serif" font-size="10.00">apps/mpi/linear_elasticity.cc</text>
</a>
</g>
</g>
<!-- Node8&#45;&gt;Node10 -->
<g id="edge10" class="edge">
<title>Node8&#45;&gt;Node10</title>
<path fill="none" stroke="midnightblue" d="M321,-57.25C321,-46.02 321,-33.38 321,-25.19"/>
<polygon fill="midnightblue" stroke="midnightblue" points="317.5,-57.4 321,-67.4 324.5,-57.4 317.5,-57.4"/>
</g>
<!-- Node11 -->
<g id="node11" class="node">
<title>Node11</title>
<g id="a_node11"><a xlink:href="apps_2serial_2linear__elasticity_8cc.html" target="_top" xlink:title=" ">
<polygon fill="none" stroke="black" points="124.5,-0.5 124.5,-30.5 225.5,-30.5 225.5,-0.5 124.5,-0.5"/>
<text text-anchor="start" x="132.5" y="-18.5" font-family="Helvetica,sans-Serif" font-size="10.00">apps/serial/linear</text>
<text text-anchor="middle" x="175" y="-7.5" font-family="Helvetica,sans-Serif" font-size="10.00">_elasticity.cc</text>
</a>
</g>
</g>
<!-- Node8&#45;&gt;Node11 -->
<g id="edge11" class="edge">
<title>Node8&#45;&gt;Node11</title>
<path fill="none" stroke="midnightblue" d="M280.05,-63.27C256.8,-52.92 228.13,-40.15 206.62,-30.58"/>
<polygon fill="midnightblue" stroke="midnightblue" points="278.76,-66.53 289.32,-67.4 281.61,-60.13 278.76,-66.53"/>
</g>
<!-- Node13 -->
<g id="node13" class="node">
<title>Node13</title>
<g id="a_node13"><a xlink:href="source_2pdes_2linear__visco__elasticity_8cc.html" target="_top" xlink:title=" ">
<polygon fill="none" stroke="black" points="990,-0.5 990,-30.5 1100,-30.5 1100,-0.5 990,-0.5"/>
<text text-anchor="start" x="998" y="-18.5" font-family="Helvetica,sans-Serif" font-size="10.00">source/pdes/linear</text>
<text text-anchor="middle" x="1045" y="-7.5" font-family="Helvetica,sans-Serif" font-size="10.00">_visco_elasticity.cc</text>
</a>
</g>
</g>
<!-- Node12&#45;&gt;Node13 -->
<g id="edge13" class="edge">
<title>Node12&#45;&gt;Node13</title>
<path fill="none" stroke="midnightblue" d="M1141.56,-62.99C1120.16,-52.69 1093.95,-40.07 1074.24,-30.58"/>
<polygon fill="midnightblue" stroke="midnightblue" points="1140.18,-66.21 1150.71,-67.4 1143.22,-59.9 1140.18,-66.21"/>
</g>
<!-- Node14 -->
<g id="node14" class="node">
<title>Node14</title>
<g id="a_node14"><a xlink:href="apps_2mpi_2linear__visco__elasticity_8cc.html" target="_top" xlink:title=" ">
<polygon fill="none" stroke="black" points="1118.5,-0.5 1118.5,-30.5 1241.5,-30.5 1241.5,-0.5 1118.5,-0.5"/>
<text text-anchor="start" x="1126.5" y="-18.5" font-family="Helvetica,sans-Serif" font-size="10.00">apps/mpi/linear_visco</text>
<text text-anchor="middle" x="1180" y="-7.5" font-family="Helvetica,sans-Serif" font-size="10.00">_elasticity.cc</text>
</a>
</g>
</g>
<!-- Node12&#45;&gt;Node14 -->
<g id="edge14" class="edge">
<title>Node12&#45;&gt;Node14</title>
<path fill="none" stroke="midnightblue" d="M1180,-57.11C1180,-48.15 1180,-38.32 1180,-30.58"/>
<polygon fill="midnightblue" stroke="midnightblue" points="1176.5,-57.4 1180,-67.4 1183.5,-57.4 1176.5,-57.4"/>
</g>
<!-- Node15 -->
<g id="node15" class="node">
<title>Node15</title>
<g id="a_node15"><a xlink:href="apps_2serial_2linear__visco__elasticity_8cc.html" target="_top" xlink:title=" ">
<polygon fill="none" stroke="black" points="1260,-0.5 1260,-30.5 1370,-30.5 1370,-0.5 1260,-0.5"/>
<text text-anchor="start" x="1268" y="-18.5" font-family="Helvetica,sans-Serif" font-size="10.00">apps/serial/linear</text>
<text text-anchor="middle" x="1315" y="-7.5" font-family="Helvetica,sans-Serif" font-size="10.00">_visco_elasticity.cc</text>
</a>
</g>
</g>
<!-- Node12&#45;&gt;Node15 -->
<g id="edge15" class="edge">
<title>Node12&#45;&gt;Node15</title>
<path fill="none" stroke="midnightblue" d="M1218.44,-62.99C1239.84,-52.69 1266.05,-40.07 1285.76,-30.58"/>
<polygon fill="midnightblue" stroke="midnightblue" points="1216.78,-59.9 1209.29,-67.4 1219.82,-66.21 1216.78,-59.9"/>
</g>
<!-- Node17 -->
<g id="node17" class="node">
<title>Node17</title>
<g id="a_node17"><a xlink:href="source_2pdes_2mpi_2poisson_8cc.html" target="_top" xlink:title=" ">
<polygon fill="none" stroke="black" points="686.5,-6 686.5,-25 837.5,-25 837.5,-6 686.5,-6"/>
<text text-anchor="middle" x="762" y="-13" font-family="Helvetica,sans-Serif" font-size="10.00">source/pdes/mpi/poisson.cc</text>
</a>
</g>
</g>
<!-- Node16&#45;&gt;Node17 -->
<g id="edge17" class="edge">
<title>Node16&#45;&gt;Node17</title>
<path fill="none" stroke="midnightblue" d="M762.71,-62.54C762.52,-50.17 762.28,-34.62 762.13,-25.13"/>
<polygon fill="midnightblue" stroke="midnightblue" points="759.21,-62.79 762.87,-72.73 766.21,-62.68 759.21,-62.79"/>
</g>
<!-- Node18 -->
<g id="node18" class="node">
<title>Node18</title>
<g id="a_node18"><a xlink:href="apps_2mpi_2poisson_8cc.html" target="_top" xlink:title=" ">
<polygon fill="none" stroke="black" points="856,-6 856,-25 972,-25 972,-6 856,-6"/>
<text text-anchor="middle" x="914" y="-13" font-family="Helvetica,sans-Serif" font-size="10.00">apps/mpi/poisson.cc</text>
</a>
</g>
</g>
<!-- Node16&#45;&gt;Node18 -->
<g id="edge18" class="edge">
<title>Node16&#45;&gt;Node18</title>
<path fill="none" stroke="midnightblue" d="M792.55,-68.78C822.45,-55.91 867.88,-36.35 893.87,-25.17"/>
<polygon fill="midnightblue" stroke="midnightblue" points="790.85,-65.7 783.05,-72.87 793.62,-72.13 790.85,-65.7"/>
</g>
<!-- Node20 -->
<g id="node20" class="node">
<title>Node20</title>
<g id="a_node20"><a xlink:href="source_2pdes_2stokes_8cc.html" target="_top" xlink:title=" ">
<polygon fill="none" stroke="black" points="416.5,-6 416.5,-25 539.5,-25 539.5,-6 416.5,-6"/>
<text text-anchor="middle" x="478" y="-13" font-family="Helvetica,sans-Serif" font-size="10.00">source/pdes/stokes.cc</text>
</a>
</g>
</g>
<!-- Node19&#45;&gt;Node20 -->
<g id="edge20" class="edge">
<title>Node19&#45;&gt;Node20</title>
<path fill="none" stroke="midnightblue" d="M582.34,-68.27C556.4,-55.4 517.72,-36.21 495.47,-25.17"/>
<polygon fill="midnightblue" stroke="midnightblue" points="581.09,-71.56 591.6,-72.87 584.2,-65.29 581.09,-71.56"/>
</g>
<!-- Node21 -->
<g id="node21" class="node">
<title>Node21</title>
<g id="a_node21"><a xlink:href="apps_2mpi_2stokes_8cc.html" target="_top" xlink:title=" ">
<polygon fill="none" stroke="black" points="558,-6 558,-25 668,-25 668,-6 558,-6"/>
<text text-anchor="middle" x="613" y="-13" font-family="Helvetica,sans-Serif" font-size="10.00">apps/mpi/stokes.cc</text>
</a>
</g>
</g>
<!-- Node19&#45;&gt;Node21 -->
<g id="edge21" class="edge">
<title>Node19&#45;&gt;Node21</title>
<path fill="none" stroke="midnightblue" d="M610.17,-62.54C610.93,-50.17 611.88,-34.62 612.47,-25.13"/>
<polygon fill="midnightblue" stroke="midnightblue" points="606.66,-62.54 609.54,-72.73 613.65,-62.97 606.66,-62.54"/>
</g>
<!-- Node24 -->
<g id="node24" class="node">
<title>Node24</title>
<g id="a_node24"><a xlink:href="source_2pdes_2serial_2poisson_8cc.html" target="_top" xlink:title=" ">
<polygon fill="none" stroke="black" points="1405.5,-67.5 1405.5,-97.5 1510.5,-97.5 1510.5,-67.5 1405.5,-67.5"/>
<text text-anchor="start" x="1413.5" y="-85.5" font-family="Helvetica,sans-Serif" font-size="10.00">source/pdes/serial</text>
<text text-anchor="middle" x="1458" y="-74.5" font-family="Helvetica,sans-Serif" font-size="10.00">/poisson.cc</text>
</a>
</g>
</g>
<!-- Node23&#45;&gt;Node24 -->
<g id="edge24" class="edge">
<title>Node23&#45;&gt;Node24</title>
<path fill="none" stroke="midnightblue" d="M1552.13,-129.85C1531.26,-119.58 1505.77,-107.03 1486.59,-97.58"/>
<polygon fill="midnightblue" stroke="midnightblue" points="1550.84,-133.12 1561.36,-134.4 1553.93,-126.84 1550.84,-133.12"/>
</g>
<!-- Node25 -->
<g id="node25" class="node">
<title>Node25</title>
<g id="a_node25"><a xlink:href="apps_2serial_2poisson_8cc.html" target="_top" xlink:title=" ">
<polygon fill="none" stroke="black" points="1529,-73 1529,-92 1653,-92 1653,-73 1529,-73"/>
<text text-anchor="middle" x="1591" y="-80" font-family="Helvetica,sans-Serif" font-size="10.00">apps/serial/poisson.cc</text>
</a>
</g>
</g>
<!-- Node23&#45;&gt;Node25 -->
<g id="edge25" class="edge">
<title>Node23&#45;&gt;Node25</title>
<path fill="none" stroke="midnightblue" d="M1590.37,-124.25C1590.55,-113.02 1590.74,-100.38 1590.87,-92.19"/>
<polygon fill="midnightblue" stroke="midnightblue" points="1586.87,-124.34 1590.22,-134.4 1593.87,-124.45 1586.87,-124.34"/>
</g>
<!-- Node27 -->
<g id="node27" class="node">
<title>Node27</title>
<g id="a_node27"><a xlink:href="source_2pdes_2serial_2poisson__nitsche__interface_8cc.html" target="_top" xlink:title=" ">
<polygon fill="none" stroke="black" points="1671,-67.5 1671,-97.5 1831,-97.5 1831,-67.5 1671,-67.5"/>
<text text-anchor="start" x="1679" y="-85.5" font-family="Helvetica,sans-Serif" font-size="10.00">source/pdes/serial</text>
<text text-anchor="middle" x="1751" y="-74.5" font-family="Helvetica,sans-Serif" font-size="10.00">/poisson_nitsche_interface.cc</text>
</a>
</g>
</g>
<!-- Node26&#45;&gt;Node27 -->
<g id="edge27" class="edge">
<title>Node26&#45;&gt;Node27</title>
<path fill="none" stroke="midnightblue" d="M1744.08,-124.4C1745.61,-115.37 1747.29,-105.41 1748.62,-97.58"/>
<polygon fill="midnightblue" stroke="midnightblue" points="1740.6,-123.95 1742.39,-134.4 1747.51,-125.12 1740.6,-123.95"/>
</g>
<!-- Node28 -->
<g id="node28" class="node">
<title>Node28</title>
<g id="a_node28"><a xlink:href="apps_2serial_2poisson__nitsche__interface_8cc.html" target="_top" xlink:title=" ">
<polygon fill="none" stroke="black" points="1849.5,-67.5 1849.5,-97.5 1968.5,-97.5 1968.5,-67.5 1849.5,-67.5"/>
<text text-anchor="start" x="1857.5" y="-85.5" font-family="Helvetica,sans-Serif" font-size="10.00">apps/serial/poisson</text>
<text text-anchor="middle" x="1909" y="-74.5" font-family="Helvetica,sans-Serif" font-size="10.00">_nitsche_interface.cc</text>
</a>
</g>
</g>
<!-- Node26&#45;&gt;Node28 -->
<g id="edge28" class="edge">
<title>Node26&#45;&gt;Node28</title>
<path fill="none" stroke="midnightblue" d="M1786.33,-130.68C1813.43,-120.26 1847.17,-107.28 1872.4,-97.58"/>
<polygon fill="midnightblue" stroke="midnightblue" points="1784.75,-127.54 1776.67,-134.4 1787.26,-134.07 1784.75,-127.54"/>
</g>
<!-- Node29&#45;&gt;Node30 -->
<g id="edge30" class="edge">
<title>Node29&#45;&gt;Node30</title>
<path fill="none" stroke="midnightblue" d="M2126.2,-134.05C2234.26,-114.82 2263.53,-116.58 2367,-98 2369.89,-97.48 2372.85,-96.93 2375.83,-96.36"/>
<polygon fill="midnightblue" stroke="midnightblue" points="2125.41,-130.63 2116.19,-135.84 2126.65,-137.52 2125.41,-130.63"/>
</g>
<!-- Node31 -->
<g id="node31" class="node">
<title>Node31</title>
<g id="a_node31"><a xlink:href="apps_2serial_2reduced__lagrange_8cc.html" target="_top" xlink:title=" ">
<polygon fill="none" stroke="black" points="2246,-67.5 2246,-97.5 2358,-97.5 2358,-67.5 2246,-67.5"/>
<text text-anchor="start" x="2254" y="-85.5" font-family="Helvetica,sans-Serif" font-size="10.00">apps/serial/reduced</text>
<text text-anchor="middle" x="2302" y="-74.5" font-family="Helvetica,sans-Serif" font-size="10.00">_lagrange.cc</text>
</a>
</g>
</g>
<!-- Node29&#45;&gt;Node31 -->
<g id="edge31" class="edge">
<title>Node29&#45;&gt;Node31</title>
<path fill="none" stroke="midnightblue" d="M2120.5,-131.85C2160.28,-121.25 2211.24,-107.68 2249.03,-97.61"/>
<polygon fill="midnightblue" stroke="midnightblue" points="2119.41,-128.52 2110.64,-134.48 2121.21,-135.28 2119.41,-128.52"/>
</g>
<!-- Node33 -->
<g id="node33" class="node">
<title>Node33</title>
<g id="a_node33"><a xlink:href="source_2pdes_2serial_2stokes_8cc.html" target="_top" xlink:title=" ">
<polygon fill="none" stroke="black" points="1986.5,-67.5 1986.5,-97.5 2091.5,-97.5 2091.5,-67.5 1986.5,-67.5"/>
<text text-anchor="start" x="1994.5" y="-85.5" font-family="Helvetica,sans-Serif" font-size="10.00">source/pdes/serial</text>
<text text-anchor="middle" x="2039" y="-74.5" font-family="Helvetica,sans-Serif" font-size="10.00">/stokes.cc</text>
</a>
</g>
</g>
<!-- Node32&#45;&gt;Node33 -->
<g id="edge33" class="edge">
<title>Node32&#45;&gt;Node33</title>
<path fill="none" stroke="midnightblue" d="M1931.79,-130.27C1955.52,-119.92 1984.78,-107.15 2006.73,-97.58"/>
<polygon fill="midnightblue" stroke="midnightblue" points="1930.1,-127.19 1922.33,-134.4 1932.9,-133.61 1930.1,-127.19"/>
</g>
<!-- Node34 -->
<g id="node34" class="node">
<title>Node34</title>
<g id="a_node34"><a xlink:href="apps_2serial_2stokes_8cc.html" target="_top" xlink:title=" ">
<polygon fill="none" stroke="black" points="2110,-73 2110,-92 2228,-92 2228,-73 2110,-73"/>
<text text-anchor="middle" x="2169" y="-80" font-family="Helvetica,sans-Serif" font-size="10.00">apps/serial/stokes.cc</text>
</a>
</g>
</g>
<!-- Node32&#45;&gt;Node34 -->
<g id="edge34" class="edge">
<title>Node32&#45;&gt;Node34</title>
<path fill="none" stroke="midnightblue" d="M1954.16,-133.55C2009.39,-120.69 2087.12,-102.58 2132.37,-92.03"/>
<polygon fill="midnightblue" stroke="midnightblue" points="1953.07,-130.21 1944.12,-135.89 1954.66,-137.03 1953.07,-130.21"/>
</g>
<!-- Node36&#45;&gt;Node2 -->
<g id="edge37" class="edge">
<title>Node36&#45;&gt;Node2</title>
<path fill="none" stroke="midnightblue" d="M961.91,-275.34C1083.53,-262.72 1334.63,-236.64 1453.67,-224.28"/>
<polygon fill="midnightblue" stroke="midnightblue" points="961.2,-271.9 951.61,-276.41 961.92,-278.86 961.2,-271.9"/>
</g>
<!-- Node36&#45;&gt;Node9 -->
<g id="edge40" class="edge">
<title>Node36&#45;&gt;Node9</title>
<path fill="none" stroke="midnightblue" d="M826.23,-265.94C788.49,-256.39 740.49,-243.95 698,-232 500.8,-176.53 450.29,-165.84 257,-98 195.82,-76.53 125.94,-47.63 85.89,-30.64"/>
<polygon fill="midnightblue" stroke="midnightblue" points="825.54,-269.37 836.09,-268.43 827.25,-262.59 825.54,-269.37"/>
</g>
<!-- Node36&#45;&gt;Node13 -->
<g id="edge41" class="edge">
<title>Node36&#45;&gt;Node13</title>
<path fill="none" stroke="midnightblue" d="M884.48,-258.64C875.05,-227.98 863.69,-173.96 884,-134 910.18,-82.48 970.72,-48.18 1009.65,-30.55"/>
<polygon fill="midnightblue" stroke="midnightblue" points="881.25,-260.03 887.68,-268.45 887.9,-257.86 881.25,-260.03"/>
</g>
<!-- Node36&#45;&gt;Node20 -->
<g id="edge42" class="edge">
<title>Node36&#45;&gt;Node20</title>
<path fill="none" stroke="midnightblue" d="M843.54,-264.91C771.06,-237.44 634.27,-178.96 539,-98 513.14,-76.03 491.76,-41.17 482.68,-25.11"/>
<polygon fill="midnightblue" stroke="midnightblue" points="842.32,-268.19 852.91,-268.43 844.77,-261.64 842.32,-268.19"/>
</g>
<!-- Node36&#45;&gt;Node35 -->
<g id="edge38" class="edge">
<title>Node36&#45;&gt;Node35</title>
<path fill="none" stroke="midnightblue" d="M907.23,-259.87C925.94,-230.12 957.92,-179.26 970.59,-159.1"/>
<polygon fill="midnightblue" stroke="midnightblue" points="904.24,-258.05 901.88,-268.37 910.17,-261.77 904.24,-258.05"/>
</g>
<!-- Node37 -->
<g id="node37" class="node">
<title>Node37</title>
<g id="a_node37"><a xlink:href="components_8cc.html" target="_top" xlink:title=" ">
<polygon fill="none" stroke="black" points="84.5,-207 84.5,-226 209.5,-226 209.5,-207 84.5,-207"/>
<text text-anchor="middle" x="147" y="-214" font-family="Helvetica,sans-Serif" font-size="10.00">source/components.cc</text>
</a>
</g>
</g>
<!-- Node36&#45;&gt;Node37 -->
<g id="edge39" class="edge">
<title>Node36&#45;&gt;Node37</title>
<path fill="none" stroke="midnightblue" d="M823.88,-279.81C702.2,-274.51 441.97,-260.66 224,-232 212.13,-230.44 199.32,-228.24 187.63,-226.02"/>
<polygon fill="midnightblue" stroke="midnightblue" points="824.02,-283.32 834.16,-280.25 824.32,-276.33 824.02,-283.32"/>
</g>
<!-- Node38 -->
<g id="node38" class="node">
<title>Node38</title>
<g id="a_node38"><a xlink:href="dof__plotter_8cc.html" target="_top" xlink:title="Degrees of freedom plotter.">
<polygon fill="none" stroke="black" points="1078,-140 1078,-159 1188,-159 1188,-140 1078,-140"/>
<text text-anchor="middle" x="1133" y="-147" font-family="Helvetica,sans-Serif" font-size="10.00">apps/dof_plotter.cc</text>
</a>
</g>
</g>
<!-- Node36&#45;&gt;Node38 -->
<g id="edge43" class="edge">
<title>Node36&#45;&gt;Node38</title>
<path fill="none" stroke="midnightblue" d="M927.69,-263.42C980.57,-234.34 1079.21,-180.08 1117.37,-159.1"/>
<polygon fill="midnightblue" stroke="midnightblue" points="925.76,-260.49 918.68,-268.37 929.13,-266.62 925.76,-260.49"/>
</g>
<!-- Node39&#45;&gt;Node3 -->
<g id="edge45" class="edge">
<title>Node39&#45;&gt;Node3</title>
<path fill="none" stroke="midnightblue" d="M1592.41,-201.01C1505.63,-185.43 1474.96,-204.16 1401,-165 1396.88,-162.82 1355.56,-120.34 1333.58,-97.6"/>
<polygon fill="midnightblue" stroke="midnightblue" points="1591.94,-204.48 1602.41,-202.91 1593.24,-197.6 1591.94,-204.48"/>
</g>
<!-- Node39&#45;&gt;Node7 -->
<g id="edge46" class="edge">
<title>Node39&#45;&gt;Node7</title>
<path fill="none" stroke="midnightblue" d="M1592.41,-200.96C1488.55,-182.21 1379.36,-166.54 1315.51,-157.78"/>
<polygon fill="midnightblue" stroke="midnightblue" points="1591.97,-204.44 1602.44,-202.78 1593.23,-197.55 1591.97,-204.44"/>
</g>
<!-- Node39&#45;&gt;Node23 -->
<g id="edge47" class="edge">
<title>Node39&#45;&gt;Node23</title>
<path fill="none" stroke="midnightblue" d="M1638.17,-194.6C1627.45,-184.78 1614.95,-173.34 1605.38,-164.58"/>
<polygon fill="midnightblue" stroke="midnightblue" points="1635.85,-197.22 1645.59,-201.4 1640.58,-192.06 1635.85,-197.22"/>
</g>
<!-- Node39&#45;&gt;Node26 -->
<g id="edge48" class="edge">
<title>Node39&#45;&gt;Node26</title>
<path fill="none" stroke="midnightblue" d="M1686.06,-194.88C1698.06,-185.01 1712.13,-173.43 1722.89,-164.58"/>
<polygon fill="midnightblue" stroke="midnightblue" points="1683.64,-192.34 1678.14,-201.4 1688.09,-197.75 1683.64,-192.34"/>
</g>
<!-- Node39&#45;&gt;Node29 -->
<g id="edge49" class="edge">
<title>Node39&#45;&gt;Node29</title>
<path fill="none" stroke="midnightblue" d="M1729.58,-204.27C1805.92,-191.77 1927.98,-171.79 1999.83,-160.02"/>
<polygon fill="midnightblue" stroke="midnightblue" points="1728.88,-200.84 1719.58,-205.91 1730.01,-207.75 1728.88,-200.84"/>
</g>
<!-- Node39&#45;&gt;Node32 -->
<g id="edge50" class="edge">
<title>Node39&#45;&gt;Node32</title>
<path fill="none" stroke="midnightblue" d="M1720.14,-198.71C1757.4,-188.14 1804.97,-174.63 1840.29,-164.61"/>
<polygon fill="midnightblue" stroke="midnightblue" points="1719.07,-195.38 1710.41,-201.48 1720.98,-202.11 1719.07,-195.38"/>
</g>
<!-- Node39&#45;&gt;Node38 -->
<g id="edge52" class="edge">
<title>Node39&#45;&gt;Node38</title>
<path fill="none" stroke="midnightblue" d="M1592.39,-201.05C1416.94,-175.21 1368.93,-191.74 1198,-165 1187.95,-163.43 1177.13,-161.22 1167.25,-159.01"/>
<polygon fill="midnightblue" stroke="midnightblue" points="1592.07,-204.54 1602.48,-202.56 1593.1,-197.61 1592.07,-204.54"/>
</g>
<!-- Node40 -->
<g id="node40" class="node">
<title>Node40</title>
<g id="a_node40"><a xlink:href="data__out_8cc.html" target="_top" xlink:title=" ">
<polygon fill="none" stroke="black" points="1410,-140 1410,-159 1518,-159 1518,-140 1410,-140"/>
<text text-anchor="middle" x="1464" y="-147" font-family="Helvetica,sans-Serif" font-size="10.00">source/data_out.cc</text>
</a>
</g>
</g>
<!-- Node39&#45;&gt;Node40 -->
<g id="edge51" class="edge">
<title>Node39&#45;&gt;Node40</title>
<path fill="none" stroke="midnightblue" d="M1608.29,-198.11C1569.96,-185.46 1519.74,-168.89 1489.78,-159.01"/>
<polygon fill="midnightblue" stroke="midnightblue" points="1607.66,-201.59 1618.25,-201.4 1609.85,-194.94 1607.66,-201.59"/>
</g>
<!-- Node41&#45;&gt;Node3 -->
<g id="edge54" class="edge">
<title>Node41&#45;&gt;Node3</title>
<path fill="none" stroke="midnightblue" d="M1947.33,-192.74C1958.14,-174.65 1967.85,-149.84 1953,-134 1910.66,-88.83 1458.42,-105.74 1397,-98 1393.76,-97.59 1390.45,-97.13 1387.12,-96.64"/>
<polygon fill="midnightblue" stroke="midnightblue" points="1944.16,-191.19 1941.69,-201.5 1950.04,-194.98 1944.16,-191.19"/>
</g>
<!-- Node41&#45;&gt;Node7 -->
<g id="edge55" class="edge">
<title>Node41&#45;&gt;Node7</title>
<path fill="none" stroke="midnightblue" d="M1862.08,-209.11C1760.94,-199.7 1566.4,-181.44 1401,-165 1372.79,-162.2 1341.4,-158.96 1315.51,-156.25"/>
<polygon fill="midnightblue" stroke="midnightblue" points="1861.88,-212.61 1872.16,-210.05 1862.53,-205.64 1861.88,-212.61"/>
</g>
<!-- Node41&#45;&gt;Node23 -->
<g id="edge56" class="edge">
<title>Node41&#45;&gt;Node23</title>
<path fill="none" stroke="midnightblue" d="M1862.32,-203.81C1806.17,-194.06 1724.79,-179.46 1654,-165 1650.76,-164.34 1647.44,-163.64 1644.09,-162.92"/>
<polygon fill="midnightblue" stroke="midnightblue" points="1862.05,-207.32 1872.5,-205.58 1863.24,-200.42 1862.05,-207.32"/>
</g>
<!-- Node41&#45;&gt;Node26 -->
<g id="edge57" class="edge">
<title>Node41&#45;&gt;Node26</title>
<path fill="none" stroke="midnightblue" d="M1879.85,-198.09C1849.01,-187.6 1810.25,-174.41 1781.36,-164.58"/>
<polygon fill="midnightblue" stroke="midnightblue" points="1878.96,-201.49 1889.56,-201.4 1881.22,-194.86 1878.96,-201.49"/>
</g>
<!-- Node41&#45;&gt;Node29 -->
<g id="edge58" class="edge">
<title>Node41&#45;&gt;Node29</title>
<path fill="none" stroke="midnightblue" d="M1967.7,-196.71C1987.73,-186.46 2012.12,-173.98 2030.5,-164.58"/>
<polygon fill="midnightblue" stroke="midnightblue" points="1965.86,-193.72 1958.56,-201.4 1969.05,-199.96 1965.86,-193.72"/>
</g>
<!-- Node41&#45;&gt;Node32 -->
<g id="edge59" class="edge">
<title>Node41&#45;&gt;Node32</title>
<path fill="none" stroke="midnightblue" d="M1916.72,-192.87C1910.79,-183.46 1904.09,-172.83 1898.88,-164.58"/>
<polygon fill="midnightblue" stroke="midnightblue" points="1913.81,-194.81 1922.1,-201.4 1919.73,-191.07 1913.81,-194.81"/>
</g>
<!-- Node42 -->
<g id="node42" class="node">
<title>Node42</title>
<g id="a_node42"><a xlink:href="grid__refinement_8cc.html" target="_top" xlink:title=" ">
<polygon fill="none" stroke="black" points="2134.5,-140 2134.5,-159 2277.5,-159 2277.5,-140 2134.5,-140"/>
<text text-anchor="middle" x="2206" y="-147" font-family="Helvetica,sans-Serif" font-size="10.00">source/grid_refinement.cc</text>
</a>
</g>
</g>
<!-- Node41&#45;&gt;Node42 -->
<g id="edge60" class="edge">
<title>Node41&#45;&gt;Node42</title>
<path fill="none" stroke="midnightblue" d="M1999.5,-199.31C2053.45,-186.56 2126.54,-169.28 2169.73,-159.07"/>
<polygon fill="midnightblue" stroke="midnightblue" points="1998.58,-195.93 1989.66,-201.64 2000.19,-202.74 1998.58,-195.93"/>
</g>
</g>
</svg>
