<?xml version="1.0" encoding="UTF-8" standalone="no"?>
<!DOCTYPE svg PUBLIC "-//W3C//DTD SVG 1.1//EN"
 "http://www.w3.org/Graphics/SVG/1.1/DTD/svg11.dtd">
<!-- Generated by graphviz version 2.43.0 (0)
 -->
<!-- Title: include/parsed_tools/enum.h Pages: 1 -->
<svg width="1675pt" height="363pt"
 viewBox="0.00 0.00 1674.50 363.00" xmlns="http://www.w3.org/2000/svg" xmlns:xlink="http://www.w3.org/1999/xlink">
<g id="graph0" class="graph" transform="scale(1 1) rotate(0) translate(4 359)">
<title>include/parsed_tools/enum.h</title>
<!-- Node1 -->
<g id="node1" class="node">
<title>Node1</title>
<g id="a_node1"><a xlink:title=" ">
<polygon fill="#bfbfbf" stroke="black" points="1004,-324.5 1004,-354.5 1121,-354.5 1121,-324.5 1004,-324.5"/>
<text text-anchor="start" x="1012" y="-342.5" font-family="Helvetica,sans-Serif" font-size="10.00">include/parsed_tools</text>
<text text-anchor="middle" x="1062.5" y="-331.5" font-family="Helvetica,sans-Serif" font-size="10.00">/enum.h</text>
</a>
</g>
</g>
<!-- Node2 -->
<g id="node2" class="node">
<title>Node2</title>
<g id="a_node2"><a xlink:href="boundary__conditions_8h.html" target="_top" xlink:title=" ">
<polygon fill="none" stroke="black" points="855.5,-190.5 855.5,-220.5 985.5,-220.5 985.5,-190.5 855.5,-190.5"/>
<text text-anchor="start" x="863.5" y="-208.5" font-family="Helvetica,sans-Serif" font-size="10.00">include/parsed_tools</text>
<text text-anchor="middle" x="920.5" y="-197.5" font-family="Helvetica,sans-Serif" font-size="10.00">/boundary_conditions.h</text>
</a>
</g>
</g>
<!-- Node1&#45;&gt;Node2 -->
<g id="edge1" class="edge">
<title>Node1&#45;&gt;Node2</title>
<path fill="none" stroke="midnightblue" d="M1039.63,-317.25C1010.37,-290.04 960.5,-243.68 935.59,-220.52"/>
<polygon fill="midnightblue" stroke="midnightblue" points="1037.6,-320.13 1047.3,-324.37 1042.36,-315 1037.6,-320.13"/>
</g>
<!-- Node23 -->
<g id="node23" class="node">
<title>Node23</title>
<g id="a_node23"><a xlink:href="components_8h.html" target="_top" xlink:title=" ">
<polygon fill="none" stroke="black" points="1091,-257.5 1091,-287.5 1208,-287.5 1208,-257.5 1091,-257.5"/>
<text text-anchor="start" x="1099" y="-275.5" font-family="Helvetica,sans-Serif" font-size="10.00">include/parsed_tools</text>
<text text-anchor="middle" x="1149.5" y="-264.5" font-family="Helvetica,sans-Serif" font-size="10.00">/components.h</text>
</a>
</g>
</g>
<!-- Node1&#45;&gt;Node23 -->
<g id="edge22" class="edge">
<title>Node1&#45;&gt;Node23</title>
<path fill="none" stroke="midnightblue" d="M1089.71,-318.17C1103.02,-308.23 1118.7,-296.51 1130.66,-287.58"/>
<polygon fill="midnightblue" stroke="midnightblue" points="1087.29,-315.61 1081.38,-324.4 1091.48,-321.21 1087.29,-315.61"/>
</g>
<!-- Node26 -->
<g id="node26" class="node">
<title>Node26</title>
<g id="a_node26"><a xlink:href="data__out_8h.html" target="_top" xlink:title=" ">
<polygon fill="none" stroke="black" points="1004,-190.5 1004,-220.5 1121,-220.5 1121,-190.5 1004,-190.5"/>
<text text-anchor="start" x="1012" y="-208.5" font-family="Helvetica,sans-Serif" font-size="10.00">include/parsed_tools</text>
<text text-anchor="middle" x="1062.5" y="-197.5" font-family="Helvetica,sans-Serif" font-size="10.00">/data_out.h</text>
</a>
</g>
</g>
<!-- Node1&#45;&gt;Node26 -->
<g id="edge27" class="edge">
<title>Node1&#45;&gt;Node26</title>
<path fill="none" stroke="midnightblue" d="M1062.5,-314.02C1062.5,-286.51 1062.5,-242.79 1062.5,-220.52"/>
<polygon fill="midnightblue" stroke="midnightblue" points="1059,-314.37 1062.5,-324.37 1066,-314.37 1059,-314.37"/>
</g>
<!-- Node28 -->
<g id="node28" class="node">
<title>Node28</title>
<g id="a_node28"><a xlink:href="grid__refinement_8h.html" target="_top" xlink:title=" ">
<polygon fill="none" stroke="black" points="720,-190.5 720,-220.5 837,-220.5 837,-190.5 720,-190.5"/>
<text text-anchor="start" x="728" y="-208.5" font-family="Helvetica,sans-Serif" font-size="10.00">include/parsed_tools</text>
<text text-anchor="middle" x="778.5" y="-197.5" font-family="Helvetica,sans-Serif" font-size="10.00">/grid_refinement.h</text>
</a>
</g>
</g>
<!-- Node1&#45;&gt;Node28 -->
<g id="edge36" class="edge">
<title>Node1&#45;&gt;Node28</title>
<path fill="none" stroke="midnightblue" d="M1023.27,-320.26C965.94,-293.62 860.48,-244.6 808.74,-220.56"/>
<polygon fill="midnightblue" stroke="midnightblue" points="1021.83,-323.46 1032.38,-324.5 1024.78,-317.11 1021.83,-323.46"/>
</g>
<!-- Node30 -->
<g id="node30" class="node">
<title>Node30</title>
<g id="a_node30"><a xlink:href="inverse__operator_8cc.html" target="_top" xlink:title=" ">
<polygon fill="none" stroke="black" points="1226,-257.5 1226,-287.5 1369,-287.5 1369,-257.5 1226,-257.5"/>
<text text-anchor="start" x="1234" y="-275.5" font-family="Helvetica,sans-Serif" font-size="10.00">source/parsed_lac/inverse</text>
<text text-anchor="middle" x="1297.5" y="-264.5" font-family="Helvetica,sans-Serif" font-size="10.00">_operator.cc</text>
</a>
</g>
</g>
<!-- Node1&#45;&gt;Node30 -->
<g id="edge44" class="edge">
<title>Node1&#45;&gt;Node30</title>
<path fill="none" stroke="midnightblue" d="M1123.18,-321.71C1161.43,-311.14 1210.24,-297.63 1246.48,-287.61"/>
<polygon fill="midnightblue" stroke="midnightblue" points="1121.91,-318.44 1113.2,-324.48 1123.77,-325.18 1121.91,-318.44"/>
</g>
<!-- Node3 -->
<g id="node3" class="node">
<title>Node3</title>
<g id="a_node3"><a xlink:href="linear__problem_8h.html" target="_top" xlink:title=" ">
<polygon fill="none" stroke="black" points="436,-123.5 436,-153.5 567,-153.5 567,-123.5 436,-123.5"/>
<text text-anchor="start" x="444" y="-141.5" font-family="Helvetica,sans-Serif" font-size="10.00">include/pdes/mpi/linear</text>
<text text-anchor="middle" x="501.5" y="-130.5" font-family="Helvetica,sans-Serif" font-size="10.00">_problem.h</text>
</a>
</g>
</g>
<!-- Node2&#45;&gt;Node3 -->
<g id="edge2" class="edge">
<title>Node2&#45;&gt;Node3</title>
<path fill="none" stroke="midnightblue" d="M845.81,-190.05C845.7,-190.03 845.6,-190.02 845.5,-190 726.02,-170.5 694.96,-173.65 575.5,-154 572.79,-153.55 570.02,-153.08 567.23,-152.6"/>
<polygon fill="midnightblue" stroke="midnightblue" points="845.05,-193.47 855.5,-191.69 846.22,-186.57 845.05,-193.47"/>
</g>
<!-- Node7 -->
<g id="node7" class="node">
<title>Node7</title>
<g id="a_node7"><a xlink:href="distributed__lagrange_8h.html" target="_top" xlink:title=" ">
<polygon fill="none" stroke="black" points="585,-123.5 585,-153.5 714,-153.5 714,-123.5 585,-123.5"/>
<text text-anchor="start" x="593" y="-141.5" font-family="Helvetica,sans-Serif" font-size="10.00">include/pdes/serial</text>
<text text-anchor="middle" x="649.5" y="-130.5" font-family="Helvetica,sans-Serif" font-size="10.00">/distributed_lagrange.h</text>
</a>
</g>
</g>
<!-- Node2&#45;&gt;Node7 -->
<g id="edge6" class="edge">
<title>Node2&#45;&gt;Node7</title>
<path fill="none" stroke="midnightblue" d="M852.2,-188.12C807.86,-177.48 750.66,-163.76 708.33,-153.61"/>
<polygon fill="midnightblue" stroke="midnightblue" points="851.49,-191.55 862.03,-190.48 853.12,-184.74 851.49,-191.55"/>
</g>
<!-- Node10 -->
<g id="node10" class="node">
<title>Node10</title>
<g id="a_node10"><a xlink:href="linear__elasticity_8h.html" target="_top" xlink:title=" ">
<polygon fill="none" stroke="black" points="732.5,-123.5 732.5,-153.5 840.5,-153.5 840.5,-123.5 732.5,-123.5"/>
<text text-anchor="start" x="740.5" y="-141.5" font-family="Helvetica,sans-Serif" font-size="10.00">include/pdes/serial</text>
<text text-anchor="middle" x="786.5" y="-130.5" font-family="Helvetica,sans-Serif" font-size="10.00">/linear_elasticity.h</text>
</a>
</g>
</g>
<!-- Node2&#45;&gt;Node10 -->
<g id="edge9" class="edge">
<title>Node2&#45;&gt;Node10</title>
<path fill="none" stroke="midnightblue" d="M882.35,-185.99C861.11,-175.69 835.09,-163.07 815.52,-153.58"/>
<polygon fill="midnightblue" stroke="midnightblue" points="880.9,-189.18 891.42,-190.4 883.95,-182.88 880.9,-189.18"/>
</g>
<!-- Node13 -->
<g id="node13" class="node">
<title>Node13</title>
<g id="a_node13"><a xlink:href="serial_2poisson_8h.html" target="_top" xlink:title=" ">
<polygon fill="none" stroke="black" points="858.5,-123.5 858.5,-153.5 966.5,-153.5 966.5,-123.5 858.5,-123.5"/>
<text text-anchor="start" x="866.5" y="-141.5" font-family="Helvetica,sans-Serif" font-size="10.00">include/pdes/serial</text>
<text text-anchor="middle" x="912.5" y="-130.5" font-family="Helvetica,sans-Serif" font-size="10.00">/poisson.h</text>
</a>
</g>
</g>
<!-- Node2&#45;&gt;Node13 -->
<g id="edge12" class="edge">
<title>Node2&#45;&gt;Node13</title>
<path fill="none" stroke="midnightblue" d="M917.53,-180.4C916.42,-171.37 915.2,-161.41 914.23,-153.58"/>
<polygon fill="midnightblue" stroke="midnightblue" points="914.07,-180.9 918.76,-190.4 921.02,-180.04 914.07,-180.9"/>
</g>
<!-- Node16 -->
<g id="node16" class="node">
<title>Node16</title>
<g id="a_node16"><a xlink:href="reduced__lagrange_8h.html" target="_top" xlink:title=" ">
<polygon fill="none" stroke="black" points="984.5,-123.5 984.5,-153.5 1100.5,-153.5 1100.5,-123.5 984.5,-123.5"/>
<text text-anchor="start" x="992.5" y="-141.5" font-family="Helvetica,sans-Serif" font-size="10.00">include/pdes/serial</text>
<text text-anchor="middle" x="1042.5" y="-130.5" font-family="Helvetica,sans-Serif" font-size="10.00">/reduced_lagrange.h</text>
</a>
</g>
</g>
<!-- Node2&#45;&gt;Node16 -->
<g id="edge15" class="edge">
<title>Node2&#45;&gt;Node16</title>
<path fill="none" stroke="midnightblue" d="M956.02,-185.57C975.21,-175.35 998.5,-162.94 1016.08,-153.58"/>
<polygon fill="midnightblue" stroke="midnightblue" points="954.15,-182.6 946.97,-190.4 957.44,-188.78 954.15,-182.6"/>
</g>
<!-- Node19 -->
<g id="node19" class="node">
<title>Node19</title>
<g id="a_node19"><a xlink:href="stokes_8h.html" target="_top" xlink:title=" ">
<polygon fill="none" stroke="black" points="1118.5,-123.5 1118.5,-153.5 1226.5,-153.5 1226.5,-123.5 1118.5,-123.5"/>
<text text-anchor="start" x="1126.5" y="-141.5" font-family="Helvetica,sans-Serif" font-size="10.00">include/pdes/serial</text>
<text text-anchor="middle" x="1172.5" y="-130.5" font-family="Helvetica,sans-Serif" font-size="10.00">/stokes.h</text>
</a>
</g>
</g>
<!-- Node2&#45;&gt;Node19 -->
<g id="edge18" class="edge">
<title>Node2&#45;&gt;Node19</title>
<path fill="none" stroke="midnightblue" d="M984.56,-187.98C1025.87,-177.32 1079,-163.62 1118.23,-153.5"/>
<polygon fill="midnightblue" stroke="midnightblue" points="983.68,-184.59 974.87,-190.48 985.43,-191.37 983.68,-184.59"/>
</g>
<!-- Node22 -->
<g id="node22" class="node">
<title>Node22</title>
<g id="a_node22"><a xlink:href="boundary__conditions_8cc.html" target="_top" xlink:title=" ">
<polygon fill="none" stroke="black" points="1245,-129 1245,-148 1412,-148 1412,-129 1245,-129"/>
<text text-anchor="middle" x="1328.5" y="-136" font-family="Helvetica,sans-Serif" font-size="10.00">source/boundary_conditions.cc</text>
</a>
</g>
</g>
<!-- Node2&#45;&gt;Node22 -->
<g id="edge21" class="edge">
<title>Node2&#45;&gt;Node22</title>
<path fill="none" stroke="midnightblue" d="M995.76,-189.82C1102.89,-171.5 1131.58,-169.86 1235.5,-154 1247.94,-152.1 1261.31,-150.03 1273.92,-148.07"/>
<polygon fill="midnightblue" stroke="midnightblue" points="995.1,-186.39 985.84,-191.53 996.29,-193.28 995.1,-186.39"/>
</g>
<!-- Node4 -->
<g id="node4" class="node">
<title>Node4</title>
<g id="a_node4"><a xlink:href="mpi_2poisson_8h.html" target="_top" xlink:title=" ">
<polygon fill="none" stroke="black" points="1,-62 1,-81 150,-81 150,-62 1,-62"/>
<text text-anchor="middle" x="75.5" y="-69" font-family="Helvetica,sans-Serif" font-size="10.00">include/pdes/mpi/poisson.h</text>
</a>
</g>
</g>
<!-- Node3&#45;&gt;Node4 -->
<g id="edge3" class="edge">
<title>Node3&#45;&gt;Node4</title>
<path fill="none" stroke="midnightblue" d="M425.81,-122.95C306.67,-103.7 274.73,-104.71 159.5,-87 147.65,-85.18 134.89,-83.06 122.98,-81.01"/>
<polygon fill="midnightblue" stroke="midnightblue" points="425.26,-126.4 435.69,-124.56 426.38,-119.49 425.26,-126.4"/>
</g>
<!-- Node6 -->
<g id="node6" class="node">
<title>Node6</title>
<g id="a_node6"><a xlink:href="linear__problem_8cc.html" target="_top" xlink:title=" ">
<polygon fill="none" stroke="black" points="168.5,-56.5 168.5,-86.5 296.5,-86.5 296.5,-56.5 168.5,-56.5"/>
<text text-anchor="start" x="176.5" y="-74.5" font-family="Helvetica,sans-Serif" font-size="10.00">source/pdes/mpi/linear</text>
<text text-anchor="middle" x="232.5" y="-63.5" font-family="Helvetica,sans-Serif" font-size="10.00">_problem.cc</text>
</a>
</g>
</g>
<!-- Node3&#45;&gt;Node6 -->
<g id="edge5" class="edge">
<title>Node3&#45;&gt;Node6</title>
<path fill="none" stroke="midnightblue" d="M433.71,-121.12C389.69,-110.48 332.91,-96.76 290.9,-86.61"/>
<polygon fill="midnightblue" stroke="midnightblue" points="432.92,-124.53 443.46,-123.48 434.56,-117.73 432.92,-124.53"/>
</g>
<!-- Node5 -->
<g id="node5" class="node">
<title>Node5</title>
<g id="a_node5"><a xlink:href="source_2pdes_2mpi_2poisson_8cc.html" target="_top" xlink:title=" ">
<polygon fill="none" stroke="black" points="0,-0.5 0,-19.5 151,-19.5 151,-0.5 0,-0.5"/>
<text text-anchor="middle" x="75.5" y="-7.5" font-family="Helvetica,sans-Serif" font-size="10.00">source/pdes/mpi/poisson.cc</text>
</a>
</g>
</g>
<!-- Node4&#45;&gt;Node5 -->
<g id="edge4" class="edge">
<title>Node4&#45;&gt;Node5</title>
<path fill="none" stroke="midnightblue" d="M75.5,-51.82C75.5,-41 75.5,-27.9 75.5,-19.51"/>
<polygon fill="midnightblue" stroke="midnightblue" points="72,-51.98 75.5,-61.98 79,-51.98 72,-51.98"/>
</g>
<!-- Node8 -->
<g id="node8" class="node">
<title>Node8</title>
<g id="a_node8"><a xlink:href="source_2pdes_2serial_2distributed__lagrange_8cc.html" target="_top" xlink:title=" ">
<polygon fill="none" stroke="black" points="314.5,-56.5 314.5,-86.5 448.5,-86.5 448.5,-56.5 314.5,-56.5"/>
<text text-anchor="start" x="322.5" y="-74.5" font-family="Helvetica,sans-Serif" font-size="10.00">source/pdes/serial</text>
<text text-anchor="middle" x="381.5" y="-63.5" font-family="Helvetica,sans-Serif" font-size="10.00">/distributed_lagrange.cc</text>
</a>
</g>
</g>
<!-- Node7&#45;&gt;Node8 -->
<g id="edge7" class="edge">
<title>Node7&#45;&gt;Node8</title>
<path fill="none" stroke="midnightblue" d="M581.96,-121.12C538.11,-110.48 481.54,-96.76 439.68,-86.61"/>
<polygon fill="midnightblue" stroke="midnightblue" points="581.13,-124.52 591.68,-123.48 582.78,-117.72 581.13,-124.52"/>
</g>
<!-- Node9 -->
<g id="node9" class="node">
<title>Node9</title>
<g id="a_node9"><a xlink:href="apps_2serial_2distributed__lagrange_8cc.html" target="_top" xlink:title=" ">
<polygon fill="none" stroke="black" points="467,-56.5 467,-86.5 592,-86.5 592,-56.5 467,-56.5"/>
<text text-anchor="start" x="475" y="-74.5" font-family="Helvetica,sans-Serif" font-size="10.00">apps/serial/distributed</text>
<text text-anchor="middle" x="529.5" y="-63.5" font-family="Helvetica,sans-Serif" font-size="10.00">_lagrange.cc</text>
</a>
</g>
</g>
<!-- Node7&#45;&gt;Node9 -->
<g id="edge8" class="edge">
<title>Node7&#45;&gt;Node9</title>
<path fill="none" stroke="midnightblue" d="M614.56,-118.57C595.68,-108.35 572.77,-95.94 555.49,-86.58"/>
<polygon fill="midnightblue" stroke="midnightblue" points="613,-121.71 623.46,-123.4 616.34,-115.56 613,-121.71"/>
</g>
<!-- Node11 -->
<g id="node11" class="node">
<title>Node11</title>
<g id="a_node11"><a xlink:href="source_2pdes_2serial_2linear__elasticity_8cc.html" target="_top" xlink:title=" ">
<polygon fill="none" stroke="black" points="610.5,-56.5 610.5,-86.5 720.5,-86.5 720.5,-56.5 610.5,-56.5"/>
<text text-anchor="start" x="618.5" y="-74.5" font-family="Helvetica,sans-Serif" font-size="10.00">source/pdes/serial</text>
<text text-anchor="middle" x="665.5" y="-63.5" font-family="Helvetica,sans-Serif" font-size="10.00">/linear_elasticity.cc</text>
</a>
</g>
</g>
<!-- Node10&#45;&gt;Node11 -->
<g id="edge10" class="edge">
<title>Node10&#45;&gt;Node11</title>
<path fill="none" stroke="midnightblue" d="M751.27,-118.57C732.24,-108.35 709.13,-95.94 691.7,-86.58"/>
<polygon fill="midnightblue" stroke="midnightblue" points="749.78,-121.75 760.24,-123.4 753.09,-115.58 749.78,-121.75"/>
</g>
<!-- Node12 -->
<g id="node12" class="node">
<title>Node12</title>
<g id="a_node12"><a xlink:href="apps_2serial_2linear__elasticity_8cc.html" target="_top" xlink:title=" ">
<polygon fill="none" stroke="black" points="739,-56.5 739,-86.5 840,-86.5 840,-56.5 739,-56.5"/>
<text text-anchor="start" x="747" y="-74.5" font-family="Helvetica,sans-Serif" font-size="10.00">apps/serial/linear</text>
<text text-anchor="middle" x="789.5" y="-63.5" font-family="Helvetica,sans-Serif" font-size="10.00">_elasticity.cc</text>
</a>
</g>
</g>
<!-- Node10&#45;&gt;Node12 -->
<g id="edge11" class="edge">
<title>Node10&#45;&gt;Node12</title>
<path fill="none" stroke="midnightblue" d="M787.61,-113.4C788.03,-104.37 788.49,-94.41 788.85,-86.58"/>
<polygon fill="midnightblue" stroke="midnightblue" points="784.12,-113.25 787.15,-123.4 791.11,-113.57 784.12,-113.25"/>
</g>
<!-- Node14 -->
<g id="node14" class="node">
<title>Node14</title>
<g id="a_node14"><a xlink:href="source_2pdes_2serial_2poisson_8cc.html" target="_top" xlink:title=" ">
<polygon fill="none" stroke="black" points="858,-56.5 858,-86.5 963,-86.5 963,-56.5 858,-56.5"/>
<text text-anchor="start" x="866" y="-74.5" font-family="Helvetica,sans-Serif" font-size="10.00">source/pdes/serial</text>
<text text-anchor="middle" x="910.5" y="-63.5" font-family="Helvetica,sans-Serif" font-size="10.00">/poisson.cc</text>
</a>
</g>
</g>
<!-- Node13&#45;&gt;Node14 -->
<g id="edge13" class="edge">
<title>Node13&#45;&gt;Node14</title>
<path fill="none" stroke="midnightblue" d="M911.75,-113.11C911.47,-104.15 911.17,-94.32 910.93,-86.58"/>
<polygon fill="midnightblue" stroke="midnightblue" points="908.26,-113.51 912.07,-123.4 915.26,-113.29 908.26,-113.51"/>
</g>
<!-- Node15 -->
<g id="node15" class="node">
<title>Node15</title>
<g id="a_node15"><a xlink:href="apps_2serial_2poisson_8cc.html" target="_top" xlink:title=" ">
<polygon fill="none" stroke="black" points="981.5,-62 981.5,-81 1105.5,-81 1105.5,-62 981.5,-62"/>
<text text-anchor="middle" x="1043.5" y="-69" font-family="Helvetica,sans-Serif" font-size="10.00">apps/serial/poisson.cc</text>
</a>
</g>
</g>
<!-- Node13&#45;&gt;Node15 -->
<g id="edge14" class="edge">
<title>Node13&#45;&gt;Node15</title>
<path fill="none" stroke="midnightblue" d="M950.18,-118.8C975.3,-106.34 1007.11,-90.56 1026.36,-81.01"/>
<polygon fill="midnightblue" stroke="midnightblue" points="948.33,-115.82 940.93,-123.4 951.44,-122.09 948.33,-115.82"/>
</g>
<!-- Node17 -->
<g id="node17" class="node">
<title>Node17</title>
<g id="a_node17"><a xlink:href="source_2pdes_2serial_2reduced__lagrange_8cc.html" target="_top" xlink:title=" ">
<polygon fill="none" stroke="black" points="1123.5,-56.5 1123.5,-86.5 1243.5,-86.5 1243.5,-56.5 1123.5,-56.5"/>
<text text-anchor="start" x="1131.5" y="-74.5" font-family="Helvetica,sans-Serif" font-size="10.00">source/pdes/serial</text>
<text text-anchor="middle" x="1183.5" y="-63.5" font-family="Helvetica,sans-Serif" font-size="10.00">/reduced_lagrange.cc</text>
</a>
</g>
</g>
<!-- Node16&#45;&gt;Node17 -->
<g id="edge16" class="edge">
<title>Node16&#45;&gt;Node17</title>
<path fill="none" stroke="midnightblue" d="M1082.35,-119.13C1104.75,-108.8 1132.28,-96.11 1152.96,-86.58"/>
<polygon fill="midnightblue" stroke="midnightblue" points="1080.71,-116.03 1073.09,-123.4 1083.64,-122.39 1080.71,-116.03"/>
</g>
<!-- Node18 -->
<g id="node18" class="node">
<title>Node18</title>
<g id="a_node18"><a xlink:href="apps_2serial_2reduced__lagrange_8cc.html" target="_top" xlink:title=" ">
<polygon fill="none" stroke="black" points="1261.5,-56.5 1261.5,-86.5 1373.5,-86.5 1373.5,-56.5 1261.5,-56.5"/>
<text text-anchor="start" x="1269.5" y="-74.5" font-family="Helvetica,sans-Serif" font-size="10.00">apps/serial/reduced</text>
<text text-anchor="middle" x="1317.5" y="-63.5" font-family="Helvetica,sans-Serif" font-size="10.00">_lagrange.cc</text>
</a>
</g>
</g>
<!-- Node16&#45;&gt;Node18 -->
<g id="edge17" class="edge">
<title>Node16&#45;&gt;Node18</title>
<path fill="none" stroke="midnightblue" d="M1110.77,-121.36C1157.09,-110.42 1217.58,-96.12 1261.14,-85.82"/>
<polygon fill="midnightblue" stroke="midnightblue" points="1109.75,-118.01 1100.82,-123.72 1111.36,-124.82 1109.75,-118.01"/>
</g>
<!-- Node20 -->
<g id="node20" class="node">
<title>Node20</title>
<g id="a_node20"><a xlink:href="source_2pdes_2serial_2stokes_8cc.html" target="_top" xlink:title=" ">
<polygon fill="none" stroke="black" points="1392,-56.5 1392,-86.5 1497,-86.5 1497,-56.5 1392,-56.5"/>
<text text-anchor="start" x="1400" y="-74.5" font-family="Helvetica,sans-Serif" font-size="10.00">source/pdes/serial</text>
<text text-anchor="middle" x="1444.5" y="-63.5" font-family="Helvetica,sans-Serif" font-size="10.00">/stokes.cc</text>
</a>
</g>
</g>
<!-- Node19&#45;&gt;Node20 -->
<g id="edge19" class="edge">
<title>Node19&#45;&gt;Node20</title>
<path fill="none" stroke="midnightblue" d="M1236.41,-122.23C1283.76,-110.91 1347.51,-95.68 1391.93,-85.06"/>
<polygon fill="midnightblue" stroke="midnightblue" points="1235.48,-118.85 1226.56,-124.58 1237.1,-125.66 1235.48,-118.85"/>
</g>
<!-- Node21 -->
<g id="node21" class="node">
<title>Node21</title>
<g id="a_node21"><a xlink:href="apps_2serial_2stokes_8cc.html" target="_top" xlink:title=" ">
<polygon fill="none" stroke="black" points="1515.5,-62 1515.5,-81 1633.5,-81 1633.5,-62 1515.5,-62"/>
<text text-anchor="middle" x="1574.5" y="-69" font-family="Helvetica,sans-Serif" font-size="10.00">apps/serial/stokes.cc</text>
</a>
</g>
</g>
<!-- Node19&#45;&gt;Node21 -->
<g id="edge20" class="edge">
<title>Node19&#45;&gt;Node21</title>
<path fill="none" stroke="midnightblue" d="M1236.19,-123.05C1236.3,-123.04 1236.4,-123.02 1236.5,-123 1355.66,-101.6 1387.21,-107.64 1506.5,-87 1516.49,-85.27 1527.25,-83.12 1537.19,-81"/>
<polygon fill="midnightblue" stroke="midnightblue" points="1235.72,-119.58 1226.55,-124.89 1237.03,-126.46 1235.72,-119.58"/>
</g>
<!-- Node23&#45;&gt;Node2 -->
<g id="edge23" class="edge">
<title>Node23&#45;&gt;Node2</title>
<path fill="none" stroke="midnightblue" d="M1090.36,-254.71C1053.1,-244.14 1005.53,-230.63 970.21,-220.61"/>
<polygon fill="midnightblue" stroke="midnightblue" points="1089.52,-258.11 1100.09,-257.48 1091.43,-251.38 1089.52,-258.11"/>
</g>
<!-- Node23&#45;&gt;Node22 -->
<g id="edge24" class="edge">
<title>Node23&#45;&gt;Node22</title>
<path fill="none" stroke="midnightblue" d="M1150.73,-247.39C1152.89,-229.37 1158.62,-205.31 1173.5,-190 1195.39,-167.47 1227.44,-154.98 1256.72,-148.07"/>
<polygon fill="midnightblue" stroke="midnightblue" points="1147.23,-247.16 1149.8,-257.44 1154.2,-247.8 1147.23,-247.16"/>
</g>
<!-- Node24 -->
<g id="node24" class="node">
<title>Node24</title>
<g id="a_node24"><a xlink:href="components_8cc.html" target="_top" xlink:title=" ">
<polygon fill="none" stroke="black" points="1216,-196 1216,-215 1341,-215 1341,-196 1216,-196"/>
<text text-anchor="middle" x="1278.5" y="-203" font-family="Helvetica,sans-Serif" font-size="10.00">source/components.cc</text>
</a>
</g>
</g>
<!-- Node23&#45;&gt;Node24 -->
<g id="edge25" class="edge">
<title>Node23&#45;&gt;Node24</title>
<path fill="none" stroke="midnightblue" d="M1186.61,-252.8C1211.34,-240.34 1242.67,-224.56 1261.62,-215.01"/>
<polygon fill="midnightblue" stroke="midnightblue" points="1184.85,-249.77 1177.49,-257.4 1188,-256.02 1184.85,-249.77"/>
</g>
<!-- Node25 -->
<g id="node25" class="node">
<title>Node25</title>
<g id="a_node25"><a xlink:href="dof__plotter_8cc.html" target="_top" xlink:title="Degrees of freedom plotter.">
<polygon fill="none" stroke="black" points="1556.5,-129 1556.5,-148 1666.5,-148 1666.5,-129 1556.5,-129"/>
<text text-anchor="middle" x="1611.5" y="-136" font-family="Helvetica,sans-Serif" font-size="10.00">apps/dof_plotter.cc</text>
</a>
</g>
</g>
<!-- Node23&#45;&gt;Node25 -->
<g id="edge26" class="edge">
<title>Node23&#45;&gt;Node25</title>
<path fill="none" stroke="midnightblue" d="M1159.12,-248.2C1168.3,-229.13 1184.08,-203.22 1206.5,-190 1272.14,-151.29 1472.32,-166.44 1547.5,-154 1557.17,-152.4 1567.56,-150.24 1577.1,-148.07"/>
<polygon fill="midnightblue" stroke="midnightblue" points="1155.87,-246.89 1154.91,-257.44 1162.24,-249.79 1155.87,-246.89"/>
</g>
<!-- Node26&#45;&gt;Node3 -->
<g id="edge28" class="edge">
<title>Node26&#45;&gt;Node3</title>
<path fill="none" stroke="midnightblue" d="M993.86,-190.05C807.87,-163.06 757.34,-179.55 575.5,-154 572.78,-153.62 570,-153.2 567.21,-152.76"/>
<polygon fill="midnightblue" stroke="midnightblue" points="993.58,-193.54 1003.98,-191.54 994.6,-186.62 993.58,-193.54"/>
</g>
<!-- Node26&#45;&gt;Node7 -->
<g id="edge29" class="edge">
<title>Node26&#45;&gt;Node7</title>
<path fill="none" stroke="midnightblue" d="M993.93,-190C873.06,-169.53 840.23,-173.17 723.5,-154 720.4,-153.49 717.23,-152.95 714.03,-152.39"/>
<polygon fill="midnightblue" stroke="midnightblue" points="993.5,-193.47 1003.95,-191.71 994.69,-186.57 993.5,-193.47"/>
</g>
<!-- Node26&#45;&gt;Node10 -->
<g id="edge30" class="edge">
<title>Node26&#45;&gt;Node10</title>
<path fill="none" stroke="midnightblue" d="M994.1,-188.39C946.77,-177.25 884.65,-162.61 840.73,-152.27"/>
<polygon fill="midnightblue" stroke="midnightblue" points="993.43,-191.83 1003.97,-190.72 995.04,-185.02 993.43,-191.83"/>
</g>
<!-- Node26&#45;&gt;Node13 -->
<g id="edge31" class="edge">
<title>Node26&#45;&gt;Node13</title>
<path fill="none" stroke="midnightblue" d="M1020.75,-186.41C996.8,-176.03 967.18,-163.2 944.98,-153.58"/>
<polygon fill="midnightblue" stroke="midnightblue" points="1019.39,-189.63 1029.95,-190.4 1022.17,-183.21 1019.39,-189.63"/>
</g>
<!-- Node26&#45;&gt;Node16 -->
<g id="edge32" class="edge">
<title>Node26&#45;&gt;Node16</title>
<path fill="none" stroke="midnightblue" d="M1055.18,-180.7C1052.37,-171.59 1049.27,-161.49 1046.83,-153.58"/>
<polygon fill="midnightblue" stroke="midnightblue" points="1051.87,-181.87 1058.16,-190.4 1058.56,-179.81 1051.87,-181.87"/>
</g>
<!-- Node26&#45;&gt;Node19 -->
<g id="edge33" class="edge">
<title>Node26&#45;&gt;Node19</title>
<path fill="none" stroke="midnightblue" d="M1095,-185.3C1112.21,-175.12 1132.98,-162.85 1148.68,-153.58"/>
<polygon fill="midnightblue" stroke="midnightblue" points="1093.2,-182.3 1086.37,-190.4 1096.76,-188.32 1093.2,-182.3"/>
</g>
<!-- Node26&#45;&gt;Node25 -->
<g id="edge35" class="edge">
<title>Node26&#45;&gt;Node25</title>
<path fill="none" stroke="midnightblue" d="M1131.25,-195.15C1145.22,-193.35 1159.83,-191.55 1173.5,-190 1339.43,-171.18 1382.63,-180.5 1547.5,-154 1557.29,-152.43 1567.81,-150.25 1577.45,-148.06"/>
<polygon fill="midnightblue" stroke="midnightblue" points="1130.68,-191.69 1121.21,-196.45 1131.58,-198.64 1130.68,-191.69"/>
</g>
<!-- Node27 -->
<g id="node27" class="node">
<title>Node27</title>
<g id="a_node27"><a xlink:href="data__out_8cc.html" target="_top" xlink:title=" ">
<polygon fill="none" stroke="black" points="1430.5,-129 1430.5,-148 1538.5,-148 1538.5,-129 1430.5,-129"/>
<text text-anchor="middle" x="1484.5" y="-136" font-family="Helvetica,sans-Serif" font-size="10.00">source/data_out.cc</text>
</a>
</g>
</g>
<!-- Node26&#45;&gt;Node27 -->
<g id="edge34" class="edge">
<title>Node26&#45;&gt;Node27</title>
<path fill="none" stroke="midnightblue" d="M1131.38,-195.47C1219.31,-183.83 1366.53,-163.9 1420.5,-154 1429.91,-152.27 1440.04,-150.12 1449.4,-148"/>
<polygon fill="midnightblue" stroke="midnightblue" points="1130.67,-192.04 1121.22,-196.82 1131.59,-198.98 1130.67,-192.04"/>
</g>
<!-- Node28&#45;&gt;Node3 -->
<g id="edge37" class="edge">
<title>Node28&#45;&gt;Node3</title>
<path fill="none" stroke="midnightblue" d="M709.97,-188.42C664.45,-177.74 605.27,-163.85 561.59,-153.6"/>
<polygon fill="midnightblue" stroke="midnightblue" points="709.22,-191.84 719.76,-190.72 710.82,-185.02 709.22,-191.84"/>
</g>
<!-- Node28&#45;&gt;Node7 -->
<g id="edge38" class="edge">
<title>Node28&#45;&gt;Node7</title>
<path fill="none" stroke="midnightblue" d="M741.49,-185.85C721.1,-175.58 696.19,-163.03 677.44,-153.58"/>
<polygon fill="midnightblue" stroke="midnightblue" points="740,-189.02 750.51,-190.4 743.15,-182.77 740,-189.02"/>
</g>
<!-- Node28&#45;&gt;Node10 -->
<g id="edge39" class="edge">
<title>Node28&#45;&gt;Node10</title>
<path fill="none" stroke="midnightblue" d="M781.47,-180.4C782.58,-171.37 783.8,-161.41 784.77,-153.58"/>
<polygon fill="midnightblue" stroke="midnightblue" points="777.98,-180.04 780.24,-190.4 784.93,-180.9 777.98,-180.04"/>
</g>
<!-- Node28&#45;&gt;Node13 -->
<g id="edge40" class="edge">
<title>Node28&#45;&gt;Node13</title>
<path fill="none" stroke="midnightblue" d="M816.65,-185.99C837.89,-175.69 863.91,-163.07 883.48,-153.58"/>
<polygon fill="midnightblue" stroke="midnightblue" points="815.05,-182.88 807.58,-190.4 818.1,-189.18 815.05,-182.88"/>
</g>
<!-- Node28&#45;&gt;Node16 -->
<g id="edge41" class="edge">
<title>Node28&#45;&gt;Node16</title>
<path fill="none" stroke="midnightblue" d="M845.31,-188.05C888.47,-177.43 944.04,-163.74 985.19,-153.61"/>
<polygon fill="midnightblue" stroke="midnightblue" points="844.33,-184.69 835.46,-190.48 846.01,-191.48 844.33,-184.69"/>
</g>
<!-- Node28&#45;&gt;Node19 -->
<g id="edge42" class="edge">
<title>Node28&#45;&gt;Node19</title>
<path fill="none" stroke="midnightblue" d="M847.15,-189.98C964.46,-169.97 996.62,-174.67 1109.5,-154 1112.37,-153.47 1115.31,-152.91 1118.27,-152.31"/>
<polygon fill="midnightblue" stroke="midnightblue" points="846.31,-186.57 837.05,-191.73 847.5,-193.47 846.31,-186.57"/>
</g>
<!-- Node29 -->
<g id="node29" class="node">
<title>Node29</title>
<g id="a_node29"><a xlink:href="grid__refinement_8cc.html" target="_top" xlink:title=" ">
<polygon fill="none" stroke="black" points="275,-129 275,-148 418,-148 418,-129 275,-129"/>
<text text-anchor="middle" x="346.5" y="-136" font-family="Helvetica,sans-Serif" font-size="10.00">source/grid_refinement.cc</text>
</a>
</g>
</g>
<!-- Node28&#45;&gt;Node29 -->
<g id="edge43" class="edge">
<title>Node28&#45;&gt;Node29</title>
<path fill="none" stroke="midnightblue" d="M709.69,-195.39C638.65,-185.81 524.66,-169.93 426.5,-154 415.35,-152.19 403.36,-150.1 392.14,-148.07"/>
<polygon fill="midnightblue" stroke="midnightblue" points="709.48,-198.89 719.85,-196.76 710.41,-191.96 709.48,-198.89"/>
</g>
</g>
</svg>
