<?xml version="1.0" encoding="UTF-8" standalone="no"?>
<!DOCTYPE svg PUBLIC "-//W3C//DTD SVG 1.1//EN"
 "http://www.w3.org/Graphics/SVG/1.1/DTD/svg11.dtd">
<!-- Generated by graphviz version 2.43.0 (0)
 -->
<!-- Title: include/parsed_tools/enum.h Pages: 1 -->
<svg width="1978pt" height="374pt"
 viewBox="0.00 0.00 1978.00 374.00" xmlns="http://www.w3.org/2000/svg" xmlns:xlink="http://www.w3.org/1999/xlink">
<g id="graph0" class="graph" transform="scale(1 1) rotate(0) translate(4 370)">
<title>include/parsed_tools/enum.h</title>
<!-- Node1 -->
<g id="node1" class="node">
<title>Node1</title>
<g id="a_node1"><a xlink:title=" ">
<polygon fill="#bfbfbf" stroke="black" points="1223,-335.5 1223,-365.5 1340,-365.5 1340,-335.5 1223,-335.5"/>
<text text-anchor="start" x="1231" y="-353.5" font-family="Helvetica,sans-Serif" font-size="10.00">include/parsed_tools</text>
<text text-anchor="middle" x="1281.5" y="-342.5" font-family="Helvetica,sans-Serif" font-size="10.00">/enum.h</text>
</a>
</g>
</g>
<!-- Node2 -->
<g id="node2" class="node">
<title>Node2</title>
<g id="a_node2"><a xlink:href="boundary__conditions_8h.html" target="_top" xlink:title=" ">
<polygon fill="none" stroke="black" points="1074.5,-201.5 1074.5,-231.5 1204.5,-231.5 1204.5,-201.5 1074.5,-201.5"/>
<text text-anchor="start" x="1082.5" y="-219.5" font-family="Helvetica,sans-Serif" font-size="10.00">include/parsed_tools</text>
<text text-anchor="middle" x="1139.5" y="-208.5" font-family="Helvetica,sans-Serif" font-size="10.00">/boundary_conditions.h</text>
</a>
</g>
</g>
<!-- Node1&#45;&gt;Node2 -->
<g id="edge1" class="edge">
<title>Node1&#45;&gt;Node2</title>
<path fill="none" stroke="midnightblue" d="M1258.63,-328.25C1229.37,-301.04 1179.5,-254.68 1154.59,-231.52"/>
<polygon fill="midnightblue" stroke="midnightblue" points="1256.6,-331.13 1266.3,-335.37 1261.36,-326 1256.6,-331.13"/>
</g>
<!-- Node22 -->
<g id="node22" class="node">
<title>Node22</title>
<g id="a_node22"><a xlink:href="source_2pdes_2serial_2reduced__lagrange_8cc.html" target="_top" xlink:title=" ">
<polygon fill="none" stroke="black" points="1750.5,-67.5 1750.5,-97.5 1870.5,-97.5 1870.5,-67.5 1750.5,-67.5"/>
<text text-anchor="start" x="1758.5" y="-85.5" font-family="Helvetica,sans-Serif" font-size="10.00">source/pdes/serial</text>
<text text-anchor="middle" x="1810.5" y="-74.5" font-family="Helvetica,sans-Serif" font-size="10.00">/reduced_lagrange.cc</text>
</a>
</g>
</g>
<!-- Node1&#45;&gt;Node22 -->
<g id="edge51" class="edge">
<title>Node1&#45;&gt;Node22</title>
<path fill="none" stroke="midnightblue" d="M1318.73,-330.78C1419.12,-280.3 1693.82,-142.17 1782.5,-97.58"/>
<polygon fill="midnightblue" stroke="midnightblue" points="1316.93,-327.77 1309.57,-335.39 1320.07,-334.02 1316.93,-327.77"/>
</g>
<!-- Node28 -->
<g id="node28" class="node">
<title>Node28</title>
<g id="a_node28"><a xlink:href="components_8h.html" target="_top" xlink:title=" ">
<polygon fill="none" stroke="black" points="375,-268.5 375,-298.5 492,-298.5 492,-268.5 375,-268.5"/>
<text text-anchor="start" x="383" y="-286.5" font-family="Helvetica,sans-Serif" font-size="10.00">include/parsed_tools</text>
<text text-anchor="middle" x="433.5" y="-275.5" font-family="Helvetica,sans-Serif" font-size="10.00">/components.h</text>
</a>
</g>
</g>
<!-- Node1&#45;&gt;Node28 -->
<g id="edge27" class="edge">
<title>Node1&#45;&gt;Node28</title>
<path fill="none" stroke="midnightblue" d="M1212.51,-344.21C1049.73,-331.73 644.01,-300.64 492.13,-288.99"/>
<polygon fill="midnightblue" stroke="midnightblue" points="1212.64,-347.73 1222.88,-345.01 1213.18,-340.75 1212.64,-347.73"/>
</g>
<!-- Node31 -->
<g id="node31" class="node">
<title>Node31</title>
<g id="a_node31"><a xlink:href="data__out_8h.html" target="_top" xlink:title=" ">
<polygon fill="none" stroke="black" points="939,-201.5 939,-231.5 1056,-231.5 1056,-201.5 939,-201.5"/>
<text text-anchor="start" x="947" y="-219.5" font-family="Helvetica,sans-Serif" font-size="10.00">include/parsed_tools</text>
<text text-anchor="middle" x="997.5" y="-208.5" font-family="Helvetica,sans-Serif" font-size="10.00">/data_out.h</text>
</a>
</g>
</g>
<!-- Node1&#45;&gt;Node31 -->
<g id="edge34" class="edge">
<title>Node1&#45;&gt;Node31</title>
<path fill="none" stroke="midnightblue" d="M1242.27,-331.26C1184.94,-304.62 1079.48,-255.6 1027.74,-231.56"/>
<polygon fill="midnightblue" stroke="midnightblue" points="1240.83,-334.46 1251.38,-335.5 1243.78,-328.11 1240.83,-334.46"/>
</g>
<!-- Node33 -->
<g id="node33" class="node">
<title>Node33</title>
<g id="a_node33"><a xlink:href="grid__refinement_8h.html" target="_top" xlink:title=" ">
<polygon fill="none" stroke="black" points="1223,-201.5 1223,-231.5 1340,-231.5 1340,-201.5 1223,-201.5"/>
<text text-anchor="start" x="1231" y="-219.5" font-family="Helvetica,sans-Serif" font-size="10.00">include/parsed_tools</text>
<text text-anchor="middle" x="1281.5" y="-208.5" font-family="Helvetica,sans-Serif" font-size="10.00">/grid_refinement.h</text>
</a>
</g>
</g>
<!-- Node1&#45;&gt;Node33 -->
<g id="edge42" class="edge">
<title>Node1&#45;&gt;Node33</title>
<path fill="none" stroke="midnightblue" d="M1281.5,-325.02C1281.5,-297.51 1281.5,-253.79 1281.5,-231.52"/>
<polygon fill="midnightblue" stroke="midnightblue" points="1278,-325.37 1281.5,-335.37 1285,-325.37 1278,-325.37"/>
</g>
<!-- Node35 -->
<g id="node35" class="node">
<title>Node35</title>
<g id="a_node35"><a xlink:href="amg__petsc_8cc.html" target="_top" xlink:title=" ">
<polygon fill="none" stroke="black" points="1680,-268.5 1680,-298.5 1809,-298.5 1809,-268.5 1680,-268.5"/>
<text text-anchor="start" x="1688" y="-286.5" font-family="Helvetica,sans-Serif" font-size="10.00">source/parsed_lac/amg</text>
<text text-anchor="middle" x="1744.5" y="-275.5" font-family="Helvetica,sans-Serif" font-size="10.00">_petsc.cc</text>
</a>
</g>
</g>
<!-- Node1&#45;&gt;Node35 -->
<g id="edge49" class="edge">
<title>Node1&#45;&gt;Node35</title>
<path fill="none" stroke="midnightblue" d="M1350.23,-341.53C1427.18,-332.35 1555.53,-316.31 1665.5,-299 1670.18,-298.26 1675.02,-297.47 1679.88,-296.64"/>
<polygon fill="midnightblue" stroke="midnightblue" points="1349.7,-338.07 1340.18,-342.72 1350.53,-345.02 1349.7,-338.07"/>
</g>
<!-- Node36 -->
<g id="node36" class="node">
<title>Node36</title>
<g id="a_node36"><a xlink:href="inverse__operator_8cc.html" target="_top" xlink:title=" ">
<polygon fill="none" stroke="black" points="1827,-268.5 1827,-298.5 1970,-298.5 1970,-268.5 1827,-268.5"/>
<text text-anchor="start" x="1835" y="-286.5" font-family="Helvetica,sans-Serif" font-size="10.00">source/parsed_lac/inverse</text>
<text text-anchor="middle" x="1898.5" y="-275.5" font-family="Helvetica,sans-Serif" font-size="10.00">_operator.cc</text>
</a>
</g>
</g>
<!-- Node1&#45;&gt;Node36 -->
<g id="edge50" class="edge">
<title>Node1&#45;&gt;Node36</title>
<path fill="none" stroke="midnightblue" d="M1350.3,-344.92C1452.66,-337.68 1651.01,-322.01 1818.5,-299 1821.16,-298.63 1823.86,-298.24 1826.59,-297.83"/>
<polygon fill="midnightblue" stroke="midnightblue" points="1349.82,-341.45 1340.09,-345.64 1350.31,-348.43 1349.82,-341.45"/>
</g>
<!-- Node3 -->
<g id="node3" class="node">
<title>Node3</title>
<g id="a_node3"><a xlink:href="linear__problem_8h.html" target="_top" xlink:title=" ">
<polygon fill="none" stroke="black" points="819,-134.5 819,-164.5 928,-164.5 928,-134.5 819,-134.5"/>
<text text-anchor="start" x="827" y="-152.5" font-family="Helvetica,sans-Serif" font-size="10.00">include/pdes/linear</text>
<text text-anchor="middle" x="873.5" y="-141.5" font-family="Helvetica,sans-Serif" font-size="10.00">_problem.h</text>
</a>
</g>
</g>
<!-- Node2&#45;&gt;Node3 -->
<g id="edge2" class="edge">
<title>Node2&#45;&gt;Node3</title>
<path fill="none" stroke="midnightblue" d="M1072.23,-199.06C1027.61,-188.16 969.81,-174.04 928.06,-163.83"/>
<polygon fill="midnightblue" stroke="midnightblue" points="1071.56,-202.5 1082.11,-201.48 1073.23,-195.7 1071.56,-202.5"/>
</g>
<!-- Node15 -->
<g id="node15" class="node">
<title>Node15</title>
<g id="a_node15"><a xlink:href="distributed__lagrange_8h.html" target="_top" xlink:title=" ">
<polygon fill="none" stroke="black" points="946,-134.5 946,-164.5 1075,-164.5 1075,-134.5 946,-134.5"/>
<text text-anchor="start" x="954" y="-152.5" font-family="Helvetica,sans-Serif" font-size="10.00">include/pdes/serial</text>
<text text-anchor="middle" x="1010.5" y="-141.5" font-family="Helvetica,sans-Serif" font-size="10.00">/distributed_lagrange.h</text>
</a>
</g>
</g>
<!-- Node2&#45;&gt;Node15 -->
<g id="edge14" class="edge">
<title>Node2&#45;&gt;Node15</title>
<path fill="none" stroke="midnightblue" d="M1102.49,-196.85C1082.1,-186.58 1057.19,-174.03 1038.44,-164.58"/>
<polygon fill="midnightblue" stroke="midnightblue" points="1101,-200.02 1111.51,-201.4 1104.15,-193.77 1101,-200.02"/>
</g>
<!-- Node18 -->
<g id="node18" class="node">
<title>Node18</title>
<g id="a_node18"><a xlink:href="serial_2poisson_8h.html" target="_top" xlink:title=" ">
<polygon fill="none" stroke="black" points="1093.5,-134.5 1093.5,-164.5 1201.5,-164.5 1201.5,-134.5 1093.5,-134.5"/>
<text text-anchor="start" x="1101.5" y="-152.5" font-family="Helvetica,sans-Serif" font-size="10.00">include/pdes/serial</text>
<text text-anchor="middle" x="1147.5" y="-141.5" font-family="Helvetica,sans-Serif" font-size="10.00">/poisson.h</text>
</a>
</g>
</g>
<!-- Node2&#45;&gt;Node18 -->
<g id="edge17" class="edge">
<title>Node2&#45;&gt;Node18</title>
<path fill="none" stroke="midnightblue" d="M1142.47,-191.4C1143.58,-182.37 1144.8,-172.41 1145.77,-164.58"/>
<polygon fill="midnightblue" stroke="midnightblue" points="1138.98,-191.04 1141.24,-201.4 1145.93,-191.9 1138.98,-191.04"/>
</g>
<!-- Node21 -->
<g id="node21" class="node">
<title>Node21</title>
<g id="a_node21"><a xlink:href="reduced__lagrange_8h.html" target="_top" xlink:title=" ">
<polygon fill="none" stroke="black" points="1345.5,-134.5 1345.5,-164.5 1461.5,-164.5 1461.5,-134.5 1345.5,-134.5"/>
<text text-anchor="start" x="1353.5" y="-152.5" font-family="Helvetica,sans-Serif" font-size="10.00">include/pdes/serial</text>
<text text-anchor="middle" x="1403.5" y="-141.5" font-family="Helvetica,sans-Serif" font-size="10.00">/reduced_lagrange.h</text>
</a>
</g>
</g>
<!-- Node2&#45;&gt;Node21 -->
<g id="edge20" class="edge">
<title>Node2&#45;&gt;Node21</title>
<path fill="none" stroke="midnightblue" d="M1206.31,-199.05C1249.47,-188.43 1305.04,-174.74 1346.19,-164.61"/>
<polygon fill="midnightblue" stroke="midnightblue" points="1205.33,-195.69 1196.46,-201.48 1207.01,-202.48 1205.33,-195.69"/>
</g>
<!-- Node24 -->
<g id="node24" class="node">
<title>Node24</title>
<g id="a_node24"><a xlink:href="serial_2stokes_8h.html" target="_top" xlink:title=" ">
<polygon fill="none" stroke="black" points="1219.5,-134.5 1219.5,-164.5 1327.5,-164.5 1327.5,-134.5 1219.5,-134.5"/>
<text text-anchor="start" x="1227.5" y="-152.5" font-family="Helvetica,sans-Serif" font-size="10.00">include/pdes/serial</text>
<text text-anchor="middle" x="1273.5" y="-141.5" font-family="Helvetica,sans-Serif" font-size="10.00">/stokes.h</text>
</a>
</g>
</g>
<!-- Node2&#45;&gt;Node24 -->
<g id="edge23" class="edge">
<title>Node2&#45;&gt;Node24</title>
<path fill="none" stroke="midnightblue" d="M1177.65,-196.99C1198.89,-186.69 1224.91,-174.07 1244.48,-164.58"/>
<polygon fill="midnightblue" stroke="midnightblue" points="1176.05,-193.88 1168.58,-201.4 1179.1,-200.18 1176.05,-193.88"/>
</g>
<!-- Node27 -->
<g id="node27" class="node">
<title>Node27</title>
<g id="a_node27"><a xlink:href="boundary__conditions_8cc.html" target="_top" xlink:title=" ">
<polygon fill="none" stroke="black" points="507,-140 507,-159 674,-159 674,-140 507,-140"/>
<text text-anchor="middle" x="590.5" y="-147" font-family="Helvetica,sans-Serif" font-size="10.00">source/boundary_conditions.cc</text>
</a>
</g>
</g>
<!-- Node2&#45;&gt;Node27 -->
<g id="edge26" class="edge">
<title>Node2&#45;&gt;Node27</title>
<path fill="none" stroke="midnightblue" d="M1064.2,-200.9C895.01,-176.93 849.49,-185.74 683.5,-165 669.88,-163.3 655.18,-161.15 641.59,-159.04"/>
<polygon fill="midnightblue" stroke="midnightblue" points="1063.79,-204.38 1074.19,-202.34 1064.79,-197.45 1063.79,-204.38"/>
</g>
<!-- Node4 -->
<g id="node4" class="node">
<title>Node4</title>
<g id="a_node4"><a xlink:href="linear__elasticity_8h.html" target="_top" xlink:title=" ">
<polygon fill="none" stroke="black" points="382,-67.5 382,-97.5 491,-97.5 491,-67.5 382,-67.5"/>
<text text-anchor="start" x="390" y="-85.5" font-family="Helvetica,sans-Serif" font-size="10.00">include/pdes/linear</text>
<text text-anchor="middle" x="436.5" y="-74.5" font-family="Helvetica,sans-Serif" font-size="10.00">_elasticity.h</text>
</a>
</g>
</g>
<!-- Node3&#45;&gt;Node4 -->
<g id="edge3" class="edge">
<title>Node3&#45;&gt;Node4</title>
<path fill="none" stroke="midnightblue" d="M808.71,-133.99C671.45,-111.17 633.59,-120.76 500.5,-98 497.47,-97.48 494.36,-96.91 491.24,-96.31"/>
<polygon fill="midnightblue" stroke="midnightblue" points="808.32,-137.48 818.76,-135.69 809.49,-130.58 808.32,-137.48"/>
</g>
<!-- Node8 -->
<g id="node8" class="node">
<title>Node8</title>
<g id="a_node8"><a xlink:href="mpi_2poisson_8h.html" target="_top" xlink:title=" ">
<polygon fill="none" stroke="black" points="509,-73 509,-92 658,-92 658,-73 509,-73"/>
<text text-anchor="middle" x="583.5" y="-80" font-family="Helvetica,sans-Serif" font-size="10.00">include/pdes/mpi/poisson.h</text>
</a>
</g>
</g>
<!-- Node3&#45;&gt;Node8 -->
<g id="edge7" class="edge">
<title>Node3&#45;&gt;Node8</title>
<path fill="none" stroke="midnightblue" d="M808.56,-133.79C736.77,-117.65 664.85,-101.61 621.9,-92.04"/>
<polygon fill="midnightblue" stroke="midnightblue" points="808.17,-137.29 818.69,-136.07 809.7,-130.46 808.17,-137.29"/>
</g>
<!-- Node11 -->
<g id="node11" class="node">
<title>Node11</title>
<g id="a_node11"><a xlink:href="stokes_8h.html" target="_top" xlink:title=" ">
<polygon fill="none" stroke="black" points="181.5,-73 181.5,-92 303.5,-92 303.5,-73 181.5,-73"/>
<text text-anchor="middle" x="242.5" y="-80" font-family="Helvetica,sans-Serif" font-size="10.00">include/pdes/stokes.h</text>
</a>
</g>
</g>
<!-- Node3&#45;&gt;Node11 -->
<g id="edge10" class="edge">
<title>Node3&#45;&gt;Node11</title>
<path fill="none" stroke="midnightblue" d="M808.85,-134.05C615.17,-104.8 563.25,-116.49 372.5,-98 350.01,-95.82 325.36,-93.14 303.63,-90.69"/>
<polygon fill="midnightblue" stroke="midnightblue" points="808.37,-137.52 818.78,-135.57 809.43,-130.6 808.37,-137.52"/>
</g>
<!-- Node14 -->
<g id="node14" class="node">
<title>Node14</title>
<g id="a_node14"><a xlink:href="linear__problem_8cc.html" target="_top" xlink:title=" ">
<polygon fill="none" stroke="black" points="675.5,-67.5 675.5,-97.5 781.5,-97.5 781.5,-67.5 675.5,-67.5"/>
<text text-anchor="start" x="683.5" y="-85.5" font-family="Helvetica,sans-Serif" font-size="10.00">source/pdes/linear</text>
<text text-anchor="middle" x="728.5" y="-74.5" font-family="Helvetica,sans-Serif" font-size="10.00">_problem.cc</text>
</a>
</g>
</g>
<!-- Node3&#45;&gt;Node14 -->
<g id="edge13" class="edge">
<title>Node3&#45;&gt;Node14</title>
<path fill="none" stroke="midnightblue" d="M832.83,-130.27C809.74,-119.92 781.26,-107.15 759.9,-97.58"/>
<polygon fill="midnightblue" stroke="midnightblue" points="831.48,-133.5 842.04,-134.4 834.34,-127.11 831.48,-133.5"/>
</g>
<!-- Node5 -->
<g id="node5" class="node">
<title>Node5</title>
<g id="a_node5"><a xlink:href="source_2pdes_2linear__elasticity_8cc.html" target="_top" xlink:title=" ">
<polygon fill="none" stroke="black" points="297.5,-0.5 297.5,-30.5 403.5,-30.5 403.5,-0.5 297.5,-0.5"/>
<text text-anchor="start" x="305.5" y="-18.5" font-family="Helvetica,sans-Serif" font-size="10.00">source/pdes/linear</text>
<text text-anchor="middle" x="350.5" y="-7.5" font-family="Helvetica,sans-Serif" font-size="10.00">_elasticity.cc</text>
</a>
</g>
</g>
<!-- Node4&#45;&gt;Node5 -->
<g id="edge4" class="edge">
<title>Node4&#45;&gt;Node5</title>
<path fill="none" stroke="midnightblue" d="M409.6,-61.17C396.45,-51.23 380.95,-39.51 369.12,-30.58"/>
<polygon fill="midnightblue" stroke="midnightblue" points="407.75,-64.16 417.84,-67.4 411.97,-58.57 407.75,-64.16"/>
</g>
<!-- Node6 -->
<g id="node6" class="node">
<title>Node6</title>
<g id="a_node6"><a xlink:href="apps_2mpi_2linear__elasticity_8cc.html" target="_top" xlink:title=" ">
<polygon fill="none" stroke="black" points="422,-6 422,-25 577,-25 577,-6 422,-6"/>
<text text-anchor="middle" x="499.5" y="-13" font-family="Helvetica,sans-Serif" font-size="10.00">apps/mpi/linear_elasticity.cc</text>
</a>
</g>
</g>
<!-- Node4&#45;&gt;Node6 -->
<g id="edge5" class="edge">
<title>Node4&#45;&gt;Node6</title>
<path fill="none" stroke="midnightblue" d="M457.34,-60C468.84,-48.13 482.49,-34.05 491.07,-25.19"/>
<polygon fill="midnightblue" stroke="midnightblue" points="454.62,-57.78 450.17,-67.4 459.64,-62.65 454.62,-57.78"/>
</g>
<!-- Node7 -->
<g id="node7" class="node">
<title>Node7</title>
<g id="a_node7"><a xlink:href="apps_2serial_2linear__elasticity_8cc.html" target="_top" xlink:title=" ">
<polygon fill="none" stroke="black" points="595,-0.5 595,-30.5 696,-30.5 696,-0.5 595,-0.5"/>
<text text-anchor="start" x="603" y="-18.5" font-family="Helvetica,sans-Serif" font-size="10.00">apps/serial/linear</text>
<text text-anchor="middle" x="645.5" y="-7.5" font-family="Helvetica,sans-Serif" font-size="10.00">_elasticity.cc</text>
</a>
</g>
</g>
<!-- Node4&#45;&gt;Node7 -->
<g id="edge6" class="edge">
<title>Node4&#45;&gt;Node7</title>
<path fill="none" stroke="midnightblue" d="M491.34,-64.44C525.22,-53.91 568.17,-40.55 600.13,-30.61"/>
<polygon fill="midnightblue" stroke="midnightblue" points="490.1,-61.16 481.59,-67.48 492.18,-67.85 490.1,-61.16"/>
</g>
<!-- Node9 -->
<g id="node9" class="node">
<title>Node9</title>
<g id="a_node9"><a xlink:href="source_2pdes_2mpi_2poisson_8cc.html" target="_top" xlink:title=" ">
<polygon fill="none" stroke="black" points="849,-6 849,-25 1000,-25 1000,-6 849,-6"/>
<text text-anchor="middle" x="924.5" y="-13" font-family="Helvetica,sans-Serif" font-size="10.00">source/pdes/mpi/poisson.cc</text>
</a>
</g>
</g>
<!-- Node8&#45;&gt;Node9 -->
<g id="edge8" class="edge">
<title>Node8&#45;&gt;Node9</title>
<path fill="none" stroke="midnightblue" d="M638.39,-71.04C705.46,-58.25 817.65,-36.87 879.74,-25.03"/>
<polygon fill="midnightblue" stroke="midnightblue" points="637.6,-67.62 628.43,-72.94 638.91,-74.5 637.6,-67.62"/>
</g>
<!-- Node10 -->
<g id="node10" class="node">
<title>Node10</title>
<g id="a_node10"><a xlink:href="apps_2mpi_2poisson_8cc.html" target="_top" xlink:title=" ">
<polygon fill="none" stroke="black" points="714.5,-6 714.5,-25 830.5,-25 830.5,-6 714.5,-6"/>
<text text-anchor="middle" x="772.5" y="-13" font-family="Helvetica,sans-Serif" font-size="10.00">apps/mpi/poisson.cc</text>
</a>
</g>
</g>
<!-- Node8&#45;&gt;Node10 -->
<g id="edge9" class="edge">
<title>Node8&#45;&gt;Node10</title>
<path fill="none" stroke="midnightblue" d="M618.1,-69.6C655.57,-56.71 714.43,-36.47 747.6,-25.06"/>
<polygon fill="midnightblue" stroke="midnightblue" points="616.92,-66.31 608.6,-72.87 619.19,-72.93 616.92,-66.31"/>
</g>
<!-- Node12 -->
<g id="node12" class="node">
<title>Node12</title>
<g id="a_node12"><a xlink:href="source_2pdes_2stokes_8cc.html" target="_top" xlink:title=" ">
<polygon fill="none" stroke="black" points="28,-6 28,-25 151,-25 151,-6 28,-6"/>
<text text-anchor="middle" x="89.5" y="-13" font-family="Helvetica,sans-Serif" font-size="10.00">source/pdes/stokes.cc</text>
</a>
</g>
</g>
<!-- Node11&#45;&gt;Node12 -->
<g id="edge11" class="edge">
<title>Node11&#45;&gt;Node12</title>
<path fill="none" stroke="midnightblue" d="M212.96,-68.95C182.66,-56.08 136.35,-36.4 109.9,-25.17"/>
<polygon fill="midnightblue" stroke="midnightblue" points="211.61,-72.18 222.18,-72.87 214.35,-65.74 211.61,-72.18"/>
</g>
<!-- Node13 -->
<g id="node13" class="node">
<title>Node13</title>
<g id="a_node13"><a xlink:href="apps_2mpi_2stokes_8cc.html" target="_top" xlink:title=" ">
<polygon fill="none" stroke="black" points="169.5,-6 169.5,-25 279.5,-25 279.5,-6 169.5,-6"/>
<text text-anchor="middle" x="224.5" y="-13" font-family="Helvetica,sans-Serif" font-size="10.00">apps/mpi/stokes.cc</text>
</a>
</g>
</g>
<!-- Node11&#45;&gt;Node13 -->
<g id="edge12" class="edge">
<title>Node11&#45;&gt;Node13</title>
<path fill="none" stroke="midnightblue" d="M237.35,-62.91C233.91,-50.49 229.54,-34.72 226.89,-25.13"/>
<polygon fill="midnightblue" stroke="midnightblue" points="234.03,-64.03 240.07,-72.73 240.78,-62.16 234.03,-64.03"/>
</g>
<!-- Node16 -->
<g id="node16" class="node">
<title>Node16</title>
<g id="a_node16"><a xlink:href="source_2pdes_2serial_2distributed__lagrange_8cc.html" target="_top" xlink:title=" ">
<polygon fill="none" stroke="black" points="799.5,-67.5 799.5,-97.5 933.5,-97.5 933.5,-67.5 799.5,-67.5"/>
<text text-anchor="start" x="807.5" y="-85.5" font-family="Helvetica,sans-Serif" font-size="10.00">source/pdes/serial</text>
<text text-anchor="middle" x="866.5" y="-74.5" font-family="Helvetica,sans-Serif" font-size="10.00">/distributed_lagrange.cc</text>
</a>
</g>
</g>
<!-- Node15&#45;&gt;Node16 -->
<g id="edge15" class="edge">
<title>Node15&#45;&gt;Node16</title>
<path fill="none" stroke="midnightblue" d="M970.11,-130.27C947.18,-119.92 918.9,-107.15 897.68,-97.58"/>
<polygon fill="midnightblue" stroke="midnightblue" points="968.7,-133.47 979.25,-134.4 971.58,-127.09 968.7,-133.47"/>
</g>
<!-- Node17 -->
<g id="node17" class="node">
<title>Node17</title>
<g id="a_node17"><a xlink:href="apps_2serial_2distributed__lagrange_8cc.html" target="_top" xlink:title=" ">
<polygon fill="none" stroke="black" points="952,-67.5 952,-97.5 1077,-97.5 1077,-67.5 952,-67.5"/>
<text text-anchor="start" x="960" y="-85.5" font-family="Helvetica,sans-Serif" font-size="10.00">apps/serial/distributed</text>
<text text-anchor="middle" x="1014.5" y="-74.5" font-family="Helvetica,sans-Serif" font-size="10.00">_lagrange.cc</text>
</a>
</g>
</g>
<!-- Node15&#45;&gt;Node17 -->
<g id="edge16" class="edge">
<title>Node15&#45;&gt;Node17</title>
<path fill="none" stroke="midnightblue" d="M1011.98,-124.4C1012.54,-115.37 1013.15,-105.41 1013.63,-97.58"/>
<polygon fill="midnightblue" stroke="midnightblue" points="1008.49,-124.2 1011.37,-134.4 1015.48,-124.63 1008.49,-124.2"/>
</g>
<!-- Node19 -->
<g id="node19" class="node">
<title>Node19</title>
<g id="a_node19"><a xlink:href="source_2pdes_2serial_2poisson_8cc.html" target="_top" xlink:title=" ">
<polygon fill="none" stroke="black" points="1095,-67.5 1095,-97.5 1200,-97.5 1200,-67.5 1095,-67.5"/>
<text text-anchor="start" x="1103" y="-85.5" font-family="Helvetica,sans-Serif" font-size="10.00">source/pdes/serial</text>
<text text-anchor="middle" x="1147.5" y="-74.5" font-family="Helvetica,sans-Serif" font-size="10.00">/poisson.cc</text>
</a>
</g>
</g>
<!-- Node18&#45;&gt;Node19 -->
<g id="edge18" class="edge">
<title>Node18&#45;&gt;Node19</title>
<path fill="none" stroke="midnightblue" d="M1147.5,-124.11C1147.5,-115.15 1147.5,-105.32 1147.5,-97.58"/>
<polygon fill="midnightblue" stroke="midnightblue" points="1144,-124.4 1147.5,-134.4 1151,-124.4 1144,-124.4"/>
</g>
<!-- Node20 -->
<g id="node20" class="node">
<title>Node20</title>
<g id="a_node20"><a xlink:href="apps_2serial_2poisson_8cc.html" target="_top" xlink:title=" ">
<polygon fill="none" stroke="black" points="1218.5,-73 1218.5,-92 1342.5,-92 1342.5,-73 1218.5,-73"/>
<text text-anchor="middle" x="1280.5" y="-80" font-family="Helvetica,sans-Serif" font-size="10.00">apps/serial/poisson.cc</text>
</a>
</g>
</g>
<!-- Node18&#45;&gt;Node20 -->
<g id="edge19" class="edge">
<title>Node18&#45;&gt;Node20</title>
<path fill="none" stroke="midnightblue" d="M1185.42,-129.97C1210.97,-117.48 1243.47,-101.6 1263.09,-92.01"/>
<polygon fill="midnightblue" stroke="midnightblue" points="1183.81,-126.86 1176.36,-134.4 1186.88,-133.15 1183.81,-126.86"/>
</g>
<!-- Node21&#45;&gt;Node22 -->
<g id="edge21" class="edge">
<title>Node21&#45;&gt;Node22</title>
<path fill="none" stroke="midnightblue" d="M1471.69,-134.07C1592.51,-113.61 1625.33,-117.92 1741.5,-98 1744.4,-97.5 1747.35,-96.97 1750.34,-96.42"/>
<polygon fill="midnightblue" stroke="midnightblue" points="1470.95,-130.64 1461.68,-135.78 1472.13,-137.54 1470.95,-130.64"/>
</g>
<!-- Node23 -->
<g id="node23" class="node">
<title>Node23</title>
<g id="a_node23"><a xlink:href="apps_2serial_2reduced__lagrange_8cc.html" target="_top" xlink:title=" ">
<polygon fill="none" stroke="black" points="1620.5,-67.5 1620.5,-97.5 1732.5,-97.5 1732.5,-67.5 1620.5,-67.5"/>
<text text-anchor="start" x="1628.5" y="-85.5" font-family="Helvetica,sans-Serif" font-size="10.00">apps/serial/reduced</text>
<text text-anchor="middle" x="1676.5" y="-74.5" font-family="Helvetica,sans-Serif" font-size="10.00">_lagrange.cc</text>
</a>
</g>
</g>
<!-- Node21&#45;&gt;Node23 -->
<g id="edge22" class="edge">
<title>Node21&#45;&gt;Node23</title>
<path fill="none" stroke="midnightblue" d="M1471.58,-132.29C1517.4,-121.38 1577.1,-107.17 1620.23,-96.9"/>
<polygon fill="midnightblue" stroke="midnightblue" points="1470.65,-128.91 1461.73,-134.64 1472.27,-135.72 1470.65,-128.91"/>
</g>
<!-- Node25 -->
<g id="node25" class="node">
<title>Node25</title>
<g id="a_node25"><a xlink:href="source_2pdes_2serial_2stokes_8cc.html" target="_top" xlink:title=" ">
<polygon fill="none" stroke="black" points="1497,-67.5 1497,-97.5 1602,-97.5 1602,-67.5 1497,-67.5"/>
<text text-anchor="start" x="1505" y="-85.5" font-family="Helvetica,sans-Serif" font-size="10.00">source/pdes/serial</text>
<text text-anchor="middle" x="1549.5" y="-74.5" font-family="Helvetica,sans-Serif" font-size="10.00">/stokes.cc</text>
</a>
</g>
</g>
<!-- Node24&#45;&gt;Node25 -->
<g id="edge24" class="edge">
<title>Node24&#45;&gt;Node25</title>
<path fill="none" stroke="midnightblue" d="M1337.44,-133.44C1385.82,-122.05 1451.45,-106.59 1496.83,-95.9"/>
<polygon fill="midnightblue" stroke="midnightblue" points="1336.63,-130.04 1327.7,-135.74 1338.24,-136.85 1336.63,-130.04"/>
</g>
<!-- Node26 -->
<g id="node26" class="node">
<title>Node26</title>
<g id="a_node26"><a xlink:href="apps_2serial_2stokes_8cc.html" target="_top" xlink:title=" ">
<polygon fill="none" stroke="black" points="1360.5,-73 1360.5,-92 1478.5,-92 1478.5,-73 1360.5,-73"/>
<text text-anchor="middle" x="1419.5" y="-80" font-family="Helvetica,sans-Serif" font-size="10.00">apps/serial/stokes.cc</text>
</a>
</g>
</g>
<!-- Node24&#45;&gt;Node26 -->
<g id="edge25" class="edge">
<title>Node24&#45;&gt;Node26</title>
<path fill="none" stroke="midnightblue" d="M1314.39,-130.3C1342.55,-117.76 1378.66,-101.68 1400.39,-92.01"/>
<polygon fill="midnightblue" stroke="midnightblue" points="1312.89,-127.13 1305.18,-134.4 1315.74,-133.53 1312.89,-127.13"/>
</g>
<!-- Node28&#45;&gt;Node2 -->
<g id="edge28" class="edge">
<title>Node28&#45;&gt;Node2</title>
<path fill="none" stroke="midnightblue" d="M502.31,-279.57C618.71,-274.04 861.74,-260.01 1065.5,-232 1068.35,-231.61 1071.26,-231.18 1074.2,-230.71"/>
<polygon fill="midnightblue" stroke="midnightblue" points="501.94,-276.08 492.12,-280.05 502.27,-283.07 501.94,-276.08"/>
</g>
<!-- Node28&#45;&gt;Node5 -->
<g id="edge31" class="edge">
<title>Node28&#45;&gt;Node5</title>
<path fill="none" stroke="midnightblue" d="M417.82,-259.85C402.83,-236.99 380.88,-200.16 369.5,-165 354.13,-117.52 351.13,-57.73 350.59,-30.8"/>
<polygon fill="midnightblue" stroke="midnightblue" points="415.11,-262.08 423.57,-268.45 420.93,-258.2 415.11,-262.08"/>
</g>
<!-- Node28&#45;&gt;Node12 -->
<g id="edge32" class="edge">
<title>Node28&#45;&gt;Node12</title>
<path fill="none" stroke="midnightblue" d="M402.51,-262.93C352.4,-230.78 251.25,-163.77 172.5,-98 143.05,-73.4 111.59,-40.42 97.33,-25.05"/>
<polygon fill="midnightblue" stroke="midnightblue" points="400.66,-265.9 410.97,-268.34 404.42,-260 400.66,-265.9"/>
</g>
<!-- Node28&#45;&gt;Node27 -->
<g id="edge29" class="edge">
<title>Node28&#45;&gt;Node27</title>
<path fill="none" stroke="midnightblue" d="M458.16,-261.77C493.18,-232.33 555.78,-179.69 580.27,-159.1"/>
<polygon fill="midnightblue" stroke="midnightblue" points="455.7,-259.26 450.3,-268.37 460.21,-264.62 455.7,-259.26"/>
</g>
<!-- Node29 -->
<g id="node29" class="node">
<title>Node29</title>
<g id="a_node29"><a xlink:href="components_8cc.html" target="_top" xlink:title=" ">
<polygon fill="none" stroke="black" points="0,-207 0,-226 125,-226 125,-207 0,-207"/>
<text text-anchor="middle" x="62.5" y="-214" font-family="Helvetica,sans-Serif" font-size="10.00">source/components.cc</text>
</a>
</g>
</g>
<!-- Node28&#45;&gt;Node29 -->
<g id="edge30" class="edge">
<title>Node28&#45;&gt;Node29</title>
<path fill="none" stroke="midnightblue" d="M364.83,-271.03C305.21,-260.99 216.59,-245.88 139.5,-232 129.06,-230.12 117.83,-228.04 107.27,-226.06"/>
<polygon fill="midnightblue" stroke="midnightblue" points="364.44,-274.51 374.88,-272.72 365.6,-267.6 364.44,-274.51"/>
</g>
<!-- Node30 -->
<g id="node30" class="node">
<title>Node30</title>
<g id="a_node30"><a xlink:href="dof__plotter_8cc.html" target="_top" xlink:title="Degrees of freedom plotter.">
<polygon fill="none" stroke="black" points="378.5,-140 378.5,-159 488.5,-159 488.5,-140 378.5,-140"/>
<text text-anchor="middle" x="433.5" y="-147" font-family="Helvetica,sans-Serif" font-size="10.00">apps/dof_plotter.cc</text>
</a>
</g>
</g>
<!-- Node28&#45;&gt;Node30 -->
<g id="edge33" class="edge">
<title>Node28&#45;&gt;Node30</title>
<path fill="none" stroke="midnightblue" d="M433.5,-258.32C433.5,-228.38 433.5,-178.91 433.5,-159.1"/>
<polygon fill="midnightblue" stroke="midnightblue" points="430,-258.37 433.5,-268.37 437,-258.37 430,-258.37"/>
</g>
<!-- Node31&#45;&gt;Node3 -->
<g id="edge35" class="edge">
<title>Node31&#45;&gt;Node3</title>
<path fill="none" stroke="midnightblue" d="M961.66,-196.71C942.11,-186.46 918.3,-173.98 900.35,-164.58"/>
<polygon fill="midnightblue" stroke="midnightblue" points="960.11,-199.85 970.59,-201.4 963.36,-193.65 960.11,-199.85"/>
</g>
<!-- Node31&#45;&gt;Node15 -->
<g id="edge36" class="edge">
<title>Node31&#45;&gt;Node15</title>
<path fill="none" stroke="midnightblue" d="M1002.32,-191.4C1004.13,-182.37 1006.12,-172.41 1007.68,-164.58"/>
<polygon fill="midnightblue" stroke="midnightblue" points="998.85,-190.9 1000.32,-201.4 1005.71,-192.28 998.85,-190.9"/>
</g>
<!-- Node31&#45;&gt;Node18 -->
<g id="edge37" class="edge">
<title>Node31&#45;&gt;Node18</title>
<path fill="none" stroke="midnightblue" d="M1039.25,-197.41C1063.2,-187.03 1092.82,-174.2 1115.02,-164.58"/>
<polygon fill="midnightblue" stroke="midnightblue" points="1037.83,-194.21 1030.05,-201.4 1040.61,-200.63 1037.83,-194.21"/>
</g>
<!-- Node31&#45;&gt;Node21 -->
<g id="edge38" class="edge">
<title>Node31&#45;&gt;Node21</title>
<path fill="none" stroke="midnightblue" d="M1066.07,-201C1186.96,-180.59 1219.96,-185.32 1336.5,-165 1339.43,-164.49 1342.43,-163.94 1345.45,-163.36"/>
<polygon fill="midnightblue" stroke="midnightblue" points="1065.32,-197.58 1056.05,-202.71 1066.5,-204.48 1065.32,-197.58"/>
</g>
<!-- Node31&#45;&gt;Node24 -->
<g id="edge39" class="edge">
<title>Node31&#45;&gt;Node24</title>
<path fill="none" stroke="midnightblue" d="M1065.9,-199.39C1113.23,-188.25 1175.35,-173.61 1219.27,-163.27"/>
<polygon fill="midnightblue" stroke="midnightblue" points="1064.96,-196.02 1056.03,-201.72 1066.57,-202.83 1064.96,-196.02"/>
</g>
<!-- Node31&#45;&gt;Node30 -->
<g id="edge41" class="edge">
<title>Node31&#45;&gt;Node30</title>
<path fill="none" stroke="midnightblue" d="M928.61,-211.12C832.03,-204.4 651.11,-189.65 498.5,-165 488.57,-163.4 477.88,-161.21 468.1,-159.02"/>
<polygon fill="midnightblue" stroke="midnightblue" points="928.6,-214.63 938.82,-211.83 929.09,-207.65 928.6,-214.63"/>
</g>
<!-- Node32 -->
<g id="node32" class="node">
<title>Node32</title>
<g id="a_node32"><a xlink:href="data__out_8cc.html" target="_top" xlink:title=" ">
<polygon fill="none" stroke="black" points="692.5,-140 692.5,-159 800.5,-159 800.5,-140 692.5,-140"/>
<text text-anchor="middle" x="746.5" y="-147" font-family="Helvetica,sans-Serif" font-size="10.00">source/data_out.cc</text>
</a>
</g>
</g>
<!-- Node31&#45;&gt;Node32 -->
<g id="edge40" class="edge">
<title>Node31&#45;&gt;Node32</title>
<path fill="none" stroke="midnightblue" d="M933.44,-198.91C884.28,-186.18 818.43,-169.13 779.43,-159.03"/>
<polygon fill="midnightblue" stroke="midnightblue" points="932.79,-202.36 943.35,-201.48 934.54,-195.58 932.79,-202.36"/>
</g>
<!-- Node33&#45;&gt;Node3 -->
<g id="edge43" class="edge">
<title>Node33&#45;&gt;Node3</title>
<path fill="none" stroke="midnightblue" d="M1212.76,-200.97C1089.81,-180.41 1056.08,-186.12 937.5,-165 934.47,-164.46 931.37,-163.87 928.24,-163.26"/>
<polygon fill="midnightblue" stroke="midnightblue" points="1212.51,-204.48 1222.95,-202.7 1213.68,-197.58 1212.51,-204.48"/>
</g>
<!-- Node33&#45;&gt;Node15 -->
<g id="edge44" class="edge">
<title>Node33&#45;&gt;Node15</title>
<path fill="none" stroke="midnightblue" d="M1213.2,-199.12C1168.86,-188.48 1111.66,-174.76 1069.33,-164.61"/>
<polygon fill="midnightblue" stroke="midnightblue" points="1212.49,-202.55 1223.03,-201.48 1214.12,-195.74 1212.49,-202.55"/>
</g>
<!-- Node33&#45;&gt;Node18 -->
<g id="edge45" class="edge">
<title>Node33&#45;&gt;Node18</title>
<path fill="none" stroke="midnightblue" d="M1243.35,-196.99C1222.11,-186.69 1196.09,-174.07 1176.52,-164.58"/>
<polygon fill="midnightblue" stroke="midnightblue" points="1241.9,-200.18 1252.42,-201.4 1244.95,-193.88 1241.9,-200.18"/>
</g>
<!-- Node33&#45;&gt;Node21 -->
<g id="edge46" class="edge">
<title>Node33&#45;&gt;Node21</title>
<path fill="none" stroke="midnightblue" d="M1317.02,-196.57C1336.21,-186.35 1359.5,-173.94 1377.08,-164.58"/>
<polygon fill="midnightblue" stroke="midnightblue" points="1315.15,-193.6 1307.97,-201.4 1318.44,-199.78 1315.15,-193.6"/>
</g>
<!-- Node33&#45;&gt;Node24 -->
<g id="edge47" class="edge">
<title>Node33&#45;&gt;Node24</title>
<path fill="none" stroke="midnightblue" d="M1278.53,-191.4C1277.42,-182.37 1276.2,-172.41 1275.23,-164.58"/>
<polygon fill="midnightblue" stroke="midnightblue" points="1275.07,-191.9 1279.76,-201.4 1282.02,-191.04 1275.07,-191.9"/>
</g>
<!-- Node34 -->
<g id="node34" class="node">
<title>Node34</title>
<g id="a_node34"><a xlink:href="grid__refinement_8cc.html" target="_top" xlink:title=" ">
<polygon fill="none" stroke="black" points="1480,-140 1480,-159 1623,-159 1623,-140 1480,-140"/>
<text text-anchor="middle" x="1551.5" y="-147" font-family="Helvetica,sans-Serif" font-size="10.00">source/grid_refinement.cc</text>
</a>
</g>
</g>
<!-- Node33&#45;&gt;Node34 -->
<g id="edge48" class="edge">
<title>Node33&#45;&gt;Node34</title>
<path fill="none" stroke="midnightblue" d="M1349.75,-199.07C1402.7,-186.32 1473.95,-169.17 1516.07,-159.03"/>
<polygon fill="midnightblue" stroke="midnightblue" points="1348.66,-195.73 1339.75,-201.48 1350.3,-202.54 1348.66,-195.73"/>
</g>
</g>
</svg>
