<?xml version="1.0" encoding="UTF-8" standalone="no"?>
<!DOCTYPE svg PUBLIC "-//W3C//DTD SVG 1.1//EN"
 "http://www.w3.org/Graphics/SVG/1.1/DTD/svg11.dtd">
<!-- Generated by graphviz version 2.43.0 (0)
 -->
<!-- Title: include/parsed_tools/enum.h Pages: 1 -->
<svg width="2140pt" height="374pt"
 viewBox="0.00 0.00 2139.50 374.00" xmlns="http://www.w3.org/2000/svg" xmlns:xlink="http://www.w3.org/1999/xlink">
<g id="graph0" class="graph" transform="scale(1 1) rotate(0) translate(4 370)">
<title>include/parsed_tools/enum.h</title>
<!-- Node1 -->
<g id="node1" class="node">
<title>Node1</title>
<g id="a_node1"><a xlink:title=" ">
<polygon fill="#bfbfbf" stroke="black" points="725.5,-335.5 725.5,-365.5 842.5,-365.5 842.5,-335.5 725.5,-335.5"/>
<text text-anchor="start" x="733.5" y="-353.5" font-family="Helvetica,sans-Serif" font-size="10.00">include/parsed_tools</text>
<text text-anchor="middle" x="784" y="-342.5" font-family="Helvetica,sans-Serif" font-size="10.00">/enum.h</text>
</a>
</g>
</g>
<!-- Node2 -->
<g id="node2" class="node">
<title>Node2</title>
<g id="a_node2"><a xlink:href="boundary__conditions_8h.html" target="_top" xlink:title=" ">
<polygon fill="none" stroke="black" points="662,-201.5 662,-231.5 792,-231.5 792,-201.5 662,-201.5"/>
<text text-anchor="start" x="670" y="-219.5" font-family="Helvetica,sans-Serif" font-size="10.00">include/parsed_tools</text>
<text text-anchor="middle" x="727" y="-208.5" font-family="Helvetica,sans-Serif" font-size="10.00">/boundary_conditions.h</text>
</a>
</g>
</g>
<!-- Node1&#45;&gt;Node2 -->
<g id="edge1" class="edge">
<title>Node1&#45;&gt;Node2</title>
<path fill="none" stroke="midnightblue" d="M767.22,-326.93C761.5,-318.48 755.43,-308.6 751,-299 740.61,-276.5 733.52,-248.43 729.88,-231.8"/>
<polygon fill="midnightblue" stroke="midnightblue" points="764.37,-328.96 772.98,-335.14 770.11,-324.94 764.37,-328.96"/>
</g>
<!-- Node25 -->
<g id="node25" class="node">
<title>Node25</title>
<g id="a_node25"><a xlink:href="source_2pdes_2serial_2reduced__lagrange_8cc.html" target="_top" xlink:title=" ">
<polygon fill="none" stroke="black" points="0,-67.5 0,-97.5 120,-97.5 120,-67.5 0,-67.5"/>
<text text-anchor="start" x="8" y="-85.5" font-family="Helvetica,sans-Serif" font-size="10.00">source/pdes/serial</text>
<text text-anchor="middle" x="60" y="-74.5" font-family="Helvetica,sans-Serif" font-size="10.00">/reduced_lagrange.cc</text>
</a>
</g>
</g>
<!-- Node1&#45;&gt;Node25 -->
<g id="edge58" class="edge">
<title>Node1&#45;&gt;Node25</title>
<path fill="none" stroke="midnightblue" d="M715.1,-348.36C603.4,-343.75 378.88,-322.86 216,-232 151.67,-196.11 93.97,-127.52 70.79,-97.81"/>
<polygon fill="midnightblue" stroke="midnightblue" points="715.1,-351.86 725.23,-348.74 715.37,-344.87 715.1,-351.86"/>
</g>
<!-- Node31 -->
<g id="node31" class="node">
<title>Node31</title>
<g id="a_node31"><a xlink:href="components_8h.html" target="_top" xlink:title=" ">
<polygon fill="none" stroke="black" points="480.5,-268.5 480.5,-298.5 597.5,-298.5 597.5,-268.5 480.5,-268.5"/>
<text text-anchor="start" x="488.5" y="-286.5" font-family="Helvetica,sans-Serif" font-size="10.00">include/parsed_tools</text>
<text text-anchor="middle" x="539" y="-275.5" font-family="Helvetica,sans-Serif" font-size="10.00">/components.h</text>
</a>
</g>
</g>
<!-- Node1&#45;&gt;Node31 -->
<g id="edge31" class="edge">
<title>Node1&#45;&gt;Node31</title>
<path fill="none" stroke="midnightblue" d="M721.24,-332.85C681.3,-322.25 630.13,-308.68 592.19,-298.61"/>
<polygon fill="midnightblue" stroke="midnightblue" points="720.58,-336.29 731.14,-335.48 722.37,-329.53 720.58,-336.29"/>
</g>
<!-- Node34 -->
<g id="node34" class="node">
<title>Node34</title>
<g id="a_node34"><a xlink:href="data__out_8h.html" target="_top" xlink:title=" ">
<polygon fill="none" stroke="black" points="821.5,-201.5 821.5,-231.5 938.5,-231.5 938.5,-201.5 821.5,-201.5"/>
<text text-anchor="start" x="829.5" y="-219.5" font-family="Helvetica,sans-Serif" font-size="10.00">include/parsed_tools</text>
<text text-anchor="middle" x="880" y="-208.5" font-family="Helvetica,sans-Serif" font-size="10.00">/data_out.h</text>
</a>
</g>
</g>
<!-- Node1&#45;&gt;Node34 -->
<g id="edge38" class="edge">
<title>Node1&#45;&gt;Node34</title>
<path fill="none" stroke="midnightblue" d="M779.64,-324.9C777.91,-307.68 778.39,-284.82 789,-268 799.6,-251.19 817.9,-239.5 835.31,-231.64"/>
<polygon fill="midnightblue" stroke="midnightblue" points="776.23,-325.84 781.01,-335.29 783.17,-324.92 776.23,-325.84"/>
</g>
<!-- Node36 -->
<g id="node36" class="node">
<title>Node36</title>
<g id="a_node36"><a xlink:href="grid__refinement_8h.html" target="_top" xlink:title=" ">
<polygon fill="none" stroke="black" points="956.5,-201.5 956.5,-231.5 1073.5,-231.5 1073.5,-201.5 956.5,-201.5"/>
<text text-anchor="start" x="964.5" y="-219.5" font-family="Helvetica,sans-Serif" font-size="10.00">include/parsed_tools</text>
<text text-anchor="middle" x="1015" y="-208.5" font-family="Helvetica,sans-Serif" font-size="10.00">/grid_refinement.h</text>
</a>
</g>
</g>
<!-- Node1&#45;&gt;Node36 -->
<g id="edge47" class="edge">
<title>Node1&#45;&gt;Node36</title>
<path fill="none" stroke="midnightblue" d="M789.22,-325.74C794.47,-307.38 804.38,-282.7 822,-268 832.51,-259.24 903.56,-242.05 956.42,-230.18"/>
<polygon fill="midnightblue" stroke="midnightblue" points="785.83,-324.88 786.7,-335.44 792.6,-326.64 785.83,-324.88"/>
</g>
<!-- Node38 -->
<g id="node38" class="node">
<title>Node38</title>
<g id="a_node38"><a xlink:href="non__matching__coupling_8cc.html" target="_top" xlink:title=" ">
<polygon fill="none" stroke="black" points="831.5,-268.5 831.5,-298.5 952.5,-298.5 952.5,-268.5 831.5,-268.5"/>
<text text-anchor="start" x="839.5" y="-286.5" font-family="Helvetica,sans-Serif" font-size="10.00">source/non_matching</text>
<text text-anchor="middle" x="892" y="-275.5" font-family="Helvetica,sans-Serif" font-size="10.00">_coupling.cc</text>
</a>
</g>
</g>
<!-- Node1&#45;&gt;Node38 -->
<g id="edge55" class="edge">
<title>Node1&#45;&gt;Node38</title>
<path fill="none" stroke="midnightblue" d="M816.37,-330.02C833.18,-319.9 853.34,-307.77 868.61,-298.58"/>
<polygon fill="midnightblue" stroke="midnightblue" points="814.2,-327.24 807.43,-335.4 817.81,-333.24 814.2,-327.24"/>
</g>
<!-- Node39 -->
<g id="node39" class="node">
<title>Node39</title>
<g id="a_node39"><a xlink:href="amg__petsc_8cc.html" target="_top" xlink:title=" ">
<polygon fill="none" stroke="black" points="970.5,-268.5 970.5,-298.5 1099.5,-298.5 1099.5,-268.5 970.5,-268.5"/>
<text text-anchor="start" x="978.5" y="-286.5" font-family="Helvetica,sans-Serif" font-size="10.00">source/parsed_lac/amg</text>
<text text-anchor="middle" x="1035" y="-275.5" font-family="Helvetica,sans-Serif" font-size="10.00">_petsc.cc</text>
</a>
</g>
</g>
<!-- Node1&#45;&gt;Node39 -->
<g id="edge56" class="edge">
<title>Node1&#45;&gt;Node39</title>
<path fill="none" stroke="midnightblue" d="M848.04,-332.92C889,-322.31 941.56,-308.7 980.51,-298.61"/>
<polygon fill="midnightblue" stroke="midnightblue" points="846.96,-329.58 838.15,-335.48 848.71,-336.36 846.96,-329.58"/>
</g>
<!-- Node40 -->
<g id="node40" class="node">
<title>Node40</title>
<g id="a_node40"><a xlink:href="inverse__operator_8cc.html" target="_top" xlink:title=" ">
<polygon fill="none" stroke="black" points="1117.5,-268.5 1117.5,-298.5 1260.5,-298.5 1260.5,-268.5 1117.5,-268.5"/>
<text text-anchor="start" x="1125.5" y="-286.5" font-family="Helvetica,sans-Serif" font-size="10.00">source/parsed_lac/inverse</text>
<text text-anchor="middle" x="1189" y="-275.5" font-family="Helvetica,sans-Serif" font-size="10.00">_operator.cc</text>
</a>
</g>
</g>
<!-- Node1&#45;&gt;Node40 -->
<g id="edge57" class="edge">
<title>Node1&#45;&gt;Node40</title>
<path fill="none" stroke="midnightblue" d="M852.81,-339.23C918.45,-329.33 1020.06,-313.72 1108,-299 1111.1,-298.48 1114.27,-297.94 1117.46,-297.4"/>
<polygon fill="midnightblue" stroke="midnightblue" points="851.96,-335.82 842.6,-340.77 853.01,-342.74 851.96,-335.82"/>
</g>
<!-- Node3 -->
<g id="node3" class="node">
<title>Node3</title>
<g id="a_node3"><a xlink:href="linear__problem_8h.html" target="_top" xlink:title=" ">
<polygon fill="none" stroke="black" points="1289.5,-134.5 1289.5,-164.5 1398.5,-164.5 1398.5,-134.5 1289.5,-134.5"/>
<text text-anchor="start" x="1297.5" y="-152.5" font-family="Helvetica,sans-Serif" font-size="10.00">include/pdes/linear</text>
<text text-anchor="middle" x="1344" y="-141.5" font-family="Helvetica,sans-Serif" font-size="10.00">_problem.h</text>
</a>
</g>
</g>
<!-- Node2&#45;&gt;Node3 -->
<g id="edge2" class="edge">
<title>Node2&#45;&gt;Node3</title>
<path fill="none" stroke="midnightblue" d="M802.26,-202.31C805.55,-201.84 808.81,-201.41 812,-201 1002.25,-176.85 1051.43,-186.5 1242,-165 1257.37,-163.27 1274,-161.05 1289.29,-158.87"/>
<polygon fill="midnightblue" stroke="midnightblue" points="801.73,-198.85 792.35,-203.77 802.75,-205.78 801.73,-198.85"/>
</g>
<!-- Node11 -->
<g id="node11" class="node">
<title>Node11</title>
<g id="a_node11"><a xlink:href="distributed__lagrange_8h.html" target="_top" xlink:title=" ">
<polygon fill="none" stroke="black" points="1147.5,-67.5 1147.5,-97.5 1276.5,-97.5 1276.5,-67.5 1147.5,-67.5"/>
<text text-anchor="start" x="1155.5" y="-85.5" font-family="Helvetica,sans-Serif" font-size="10.00">include/pdes/serial</text>
<text text-anchor="middle" x="1212" y="-74.5" font-family="Helvetica,sans-Serif" font-size="10.00">/distributed_lagrange.h</text>
</a>
</g>
</g>
<!-- Node2&#45;&gt;Node11 -->
<g id="edge17" class="edge">
<title>Node2&#45;&gt;Node11</title>
<path fill="none" stroke="midnightblue" d="M689.61,-196.4C661.94,-179.85 632.22,-155.3 652,-134 688.85,-94.32 1084.34,-105.22 1138,-98 1140.98,-97.6 1144.03,-97.15 1147.1,-96.67"/>
<polygon fill="midnightblue" stroke="midnightblue" points="688.03,-199.53 698.45,-201.48 691.52,-193.46 688.03,-199.53"/>
</g>
<!-- Node18 -->
<g id="node18" class="node">
<title>Node18</title>
<g id="a_node18"><a xlink:href="serial_2poisson_8h.html" target="_top" xlink:title=" ">
<polygon fill="none" stroke="black" points="961,-134.5 961,-164.5 1069,-164.5 1069,-134.5 961,-134.5"/>
<text text-anchor="start" x="969" y="-152.5" font-family="Helvetica,sans-Serif" font-size="10.00">include/pdes/serial</text>
<text text-anchor="middle" x="1015" y="-141.5" font-family="Helvetica,sans-Serif" font-size="10.00">/poisson.h</text>
</a>
</g>
</g>
<!-- Node2&#45;&gt;Node18 -->
<g id="edge18" class="edge">
<title>Node2&#45;&gt;Node18</title>
<path fill="none" stroke="midnightblue" d="M799.82,-199.26C843.88,-189.41 901.19,-176.55 952,-165 954.85,-164.35 957.76,-163.69 960.71,-163.02"/>
<polygon fill="midnightblue" stroke="midnightblue" points="799.06,-195.85 790.06,-201.44 800.58,-202.68 799.06,-195.85"/>
</g>
<!-- Node21 -->
<g id="node21" class="node">
<title>Node21</title>
<g id="a_node21"><a xlink:href="poisson__nitsche__interface_8h.html" target="_top" xlink:title=" ">
<polygon fill="none" stroke="black" points="661.5,-134.5 661.5,-164.5 816.5,-164.5 816.5,-134.5 661.5,-134.5"/>
<text text-anchor="start" x="669.5" y="-152.5" font-family="Helvetica,sans-Serif" font-size="10.00">include/pdes/serial</text>
<text text-anchor="middle" x="739" y="-141.5" font-family="Helvetica,sans-Serif" font-size="10.00">/poisson_nitsche_interface.h</text>
</a>
</g>
</g>
<!-- Node2&#45;&gt;Node21 -->
<g id="edge21" class="edge">
<title>Node2&#45;&gt;Node21</title>
<path fill="none" stroke="midnightblue" d="M731.45,-191.4C733.12,-182.37 734.96,-172.41 736.4,-164.58"/>
<polygon fill="midnightblue" stroke="midnightblue" points="727.98,-190.93 729.6,-201.4 734.86,-192.2 727.98,-190.93"/>
</g>
<!-- Node24 -->
<g id="node24" class="node">
<title>Node24</title>
<g id="a_node24"><a xlink:href="reduced__lagrange_8h.html" target="_top" xlink:title=" ">
<polygon fill="none" stroke="black" points="489,-134.5 489,-164.5 605,-164.5 605,-134.5 489,-134.5"/>
<text text-anchor="start" x="497" y="-152.5" font-family="Helvetica,sans-Serif" font-size="10.00">include/pdes/serial</text>
<text text-anchor="middle" x="547" y="-141.5" font-family="Helvetica,sans-Serif" font-size="10.00">/reduced_lagrange.h</text>
</a>
</g>
</g>
<!-- Node2&#45;&gt;Node24 -->
<g id="edge24" class="edge">
<title>Node2&#45;&gt;Node24</title>
<path fill="none" stroke="midnightblue" d="M678.41,-197.96C649.42,-187.48 613.09,-174.37 585.98,-164.58"/>
<polygon fill="midnightblue" stroke="midnightblue" points="677.35,-201.29 687.94,-201.4 679.73,-194.71 677.35,-201.29"/>
</g>
<!-- Node27 -->
<g id="node27" class="node">
<title>Node27</title>
<g id="a_node27"><a xlink:href="serial_2stokes_8h.html" target="_top" xlink:title=" ">
<polygon fill="none" stroke="black" points="835,-134.5 835,-164.5 943,-164.5 943,-134.5 835,-134.5"/>
<text text-anchor="start" x="843" y="-152.5" font-family="Helvetica,sans-Serif" font-size="10.00">include/pdes/serial</text>
<text text-anchor="middle" x="889" y="-141.5" font-family="Helvetica,sans-Serif" font-size="10.00">/stokes.h</text>
</a>
</g>
</g>
<!-- Node2&#45;&gt;Node27 -->
<g id="edge27" class="edge">
<title>Node2&#45;&gt;Node27</title>
<path fill="none" stroke="midnightblue" d="M771.75,-197.54C797.67,-187.14 829.84,-174.24 853.92,-164.58"/>
<polygon fill="midnightblue" stroke="midnightblue" points="770.13,-194.42 762.15,-201.4 772.74,-200.92 770.13,-194.42"/>
</g>
<!-- Node30 -->
<g id="node30" class="node">
<title>Node30</title>
<g id="a_node30"><a xlink:href="boundary__conditions_8cc.html" target="_top" xlink:title=" ">
<polygon fill="none" stroke="black" points="175.5,-140 175.5,-159 342.5,-159 342.5,-140 175.5,-140"/>
<text text-anchor="middle" x="259" y="-147" font-family="Helvetica,sans-Serif" font-size="10.00">source/boundary_conditions.cc</text>
</a>
</g>
</g>
<!-- Node2&#45;&gt;Node30 -->
<g id="edge30" class="edge">
<title>Node2&#45;&gt;Node30</title>
<path fill="none" stroke="midnightblue" d="M651.98,-205.86C576.23,-196.02 455.9,-180.09 352,-165 339.22,-163.14 325.48,-161.05 312.58,-159.05"/>
<polygon fill="midnightblue" stroke="midnightblue" points="651.54,-209.34 661.91,-207.15 652.44,-202.39 651.54,-209.34"/>
</g>
<!-- Node4 -->
<g id="node4" class="node">
<title>Node4</title>
<g id="a_node4"><a xlink:href="linear__elasticity_8h.html" target="_top" xlink:title=" ">
<polygon fill="none" stroke="black" points="1834.5,-67.5 1834.5,-97.5 1943.5,-97.5 1943.5,-67.5 1834.5,-67.5"/>
<text text-anchor="start" x="1842.5" y="-85.5" font-family="Helvetica,sans-Serif" font-size="10.00">include/pdes/linear</text>
<text text-anchor="middle" x="1889" y="-74.5" font-family="Helvetica,sans-Serif" font-size="10.00">_elasticity.h</text>
</a>
</g>
</g>
<!-- Node3&#45;&gt;Node4 -->
<g id="edge3" class="edge">
<title>Node3&#45;&gt;Node4</title>
<path fill="none" stroke="midnightblue" d="M1408.77,-134.04C1505.4,-119.08 1729.98,-97.94 1834.26,-88.42"/>
<polygon fill="midnightblue" stroke="midnightblue" points="1408.05,-130.61 1398.73,-135.65 1409.16,-137.53 1408.05,-130.61"/>
</g>
<!-- Node8 -->
<g id="node8" class="node">
<title>Node8</title>
<g id="a_node8"><a xlink:href="mpi_2poisson_8h.html" target="_top" xlink:title=" ">
<polygon fill="none" stroke="black" points="1435.5,-73 1435.5,-92 1584.5,-92 1584.5,-73 1435.5,-73"/>
<text text-anchor="middle" x="1510" y="-80" font-family="Helvetica,sans-Serif" font-size="10.00">include/pdes/mpi/poisson.h</text>
</a>
</g>
</g>
<!-- Node3&#45;&gt;Node8 -->
<g id="edge7" class="edge">
<title>Node3&#45;&gt;Node8</title>
<path fill="none" stroke="midnightblue" d="M1389.66,-130.62C1421.79,-118.04 1463.35,-101.77 1488.27,-92.01"/>
<polygon fill="midnightblue" stroke="midnightblue" points="1388.05,-127.49 1380.02,-134.4 1390.61,-134.01 1388.05,-127.49"/>
</g>
<!-- Node3&#45;&gt;Node11 -->
<g id="edge10" class="edge">
<title>Node3&#45;&gt;Node11</title>
<path fill="none" stroke="midnightblue" d="M1306.13,-129.85C1285.26,-119.58 1259.77,-107.03 1240.59,-97.58"/>
<polygon fill="midnightblue" stroke="midnightblue" points="1304.84,-133.12 1315.36,-134.4 1307.93,-126.84 1304.84,-133.12"/>
</g>
<!-- Node14 -->
<g id="node14" class="node">
<title>Node14</title>
<g id="a_node14"><a xlink:href="stokes_8h.html" target="_top" xlink:title=" ">
<polygon fill="none" stroke="black" points="1295,-73 1295,-92 1417,-92 1417,-73 1295,-73"/>
<text text-anchor="middle" x="1356" y="-80" font-family="Helvetica,sans-Serif" font-size="10.00">include/pdes/stokes.h</text>
</a>
</g>
</g>
<!-- Node3&#45;&gt;Node14 -->
<g id="edge13" class="edge">
<title>Node3&#45;&gt;Node14</title>
<path fill="none" stroke="midnightblue" d="M1348.48,-124.25C1350.55,-113.02 1352.88,-100.38 1354.39,-92.19"/>
<polygon fill="midnightblue" stroke="midnightblue" points="1344.98,-123.93 1346.6,-134.4 1351.86,-125.2 1344.98,-123.93"/>
</g>
<!-- Node17 -->
<g id="node17" class="node">
<title>Node17</title>
<g id="a_node17"><a xlink:href="linear__problem_8cc.html" target="_top" xlink:title=" ">
<polygon fill="none" stroke="black" points="1602,-67.5 1602,-97.5 1708,-97.5 1708,-67.5 1602,-67.5"/>
<text text-anchor="start" x="1610" y="-85.5" font-family="Helvetica,sans-Serif" font-size="10.00">source/pdes/linear</text>
<text text-anchor="middle" x="1655" y="-74.5" font-family="Helvetica,sans-Serif" font-size="10.00">_problem.cc</text>
</a>
</g>
</g>
<!-- Node3&#45;&gt;Node17 -->
<g id="edge16" class="edge">
<title>Node3&#45;&gt;Node17</title>
<path fill="none" stroke="midnightblue" d="M1408.7,-133.9C1492.07,-116.6 1514.74,-115.08 1594,-98 1596.55,-97.45 1599.16,-96.87 1601.8,-96.29"/>
<polygon fill="midnightblue" stroke="midnightblue" points="1407.86,-130.5 1398.79,-135.97 1409.29,-137.35 1407.86,-130.5"/>
</g>
<!-- Node5 -->
<g id="node5" class="node">
<title>Node5</title>
<g id="a_node5"><a xlink:href="source_2pdes_2linear__elasticity_8cc.html" target="_top" xlink:title=" ">
<polygon fill="none" stroke="black" points="1733,-0.5 1733,-30.5 1839,-30.5 1839,-0.5 1733,-0.5"/>
<text text-anchor="start" x="1741" y="-18.5" font-family="Helvetica,sans-Serif" font-size="10.00">source/pdes/linear</text>
<text text-anchor="middle" x="1786" y="-7.5" font-family="Helvetica,sans-Serif" font-size="10.00">_elasticity.cc</text>
</a>
</g>
</g>
<!-- Node4&#45;&gt;Node5 -->
<g id="edge4" class="edge">
<title>Node4&#45;&gt;Node5</title>
<path fill="none" stroke="midnightblue" d="M1858.12,-62.02C1842.1,-51.9 1822.87,-39.77 1808.31,-30.58"/>
<polygon fill="midnightblue" stroke="midnightblue" points="1856.33,-65.02 1866.65,-67.4 1860.06,-59.1 1856.33,-65.02"/>
</g>
<!-- Node6 -->
<g id="node6" class="node">
<title>Node6</title>
<g id="a_node6"><a xlink:href="apps_2mpi_2linear__elasticity_8cc.html" target="_top" xlink:title=" ">
<polygon fill="none" stroke="black" points="1976.5,-6 1976.5,-25 2131.5,-25 2131.5,-6 1976.5,-6"/>
<text text-anchor="middle" x="2054" y="-13" font-family="Helvetica,sans-Serif" font-size="10.00">apps/mpi/linear_elasticity.cc</text>
</a>
</g>
</g>
<!-- Node4&#45;&gt;Node6 -->
<g id="edge5" class="edge">
<title>Node4&#45;&gt;Node6</title>
<path fill="none" stroke="midnightblue" d="M1934.38,-63.62C1966.32,-51.04 2007.63,-34.77 2032.41,-25.01"/>
<polygon fill="midnightblue" stroke="midnightblue" points="1932.82,-60.47 1924.8,-67.4 1935.39,-66.99 1932.82,-60.47"/>
</g>
<!-- Node7 -->
<g id="node7" class="node">
<title>Node7</title>
<g id="a_node7"><a xlink:href="apps_2serial_2linear__elasticity_8cc.html" target="_top" xlink:title=" ">
<polygon fill="none" stroke="black" points="1857.5,-0.5 1857.5,-30.5 1958.5,-30.5 1958.5,-0.5 1857.5,-0.5"/>
<text text-anchor="start" x="1865.5" y="-18.5" font-family="Helvetica,sans-Serif" font-size="10.00">apps/serial/linear</text>
<text text-anchor="middle" x="1908" y="-7.5" font-family="Helvetica,sans-Serif" font-size="10.00">_elasticity.cc</text>
</a>
</g>
</g>
<!-- Node4&#45;&gt;Node7 -->
<g id="edge6" class="edge">
<title>Node4&#45;&gt;Node7</title>
<path fill="none" stroke="midnightblue" d="M1895.96,-57.7C1898.62,-48.59 1901.57,-38.49 1903.89,-30.58"/>
<polygon fill="midnightblue" stroke="midnightblue" points="1892.57,-56.82 1893.12,-67.4 1899.29,-58.78 1892.57,-56.82"/>
</g>
<!-- Node9 -->
<g id="node9" class="node">
<title>Node9</title>
<g id="a_node9"><a xlink:href="source_2pdes_2mpi_2poisson_8cc.html" target="_top" xlink:title=" ">
<polygon fill="none" stroke="black" points="1429.5,-6 1429.5,-25 1580.5,-25 1580.5,-6 1429.5,-6"/>
<text text-anchor="middle" x="1505" y="-13" font-family="Helvetica,sans-Serif" font-size="10.00">source/pdes/mpi/poisson.cc</text>
</a>
</g>
</g>
<!-- Node8&#45;&gt;Node9 -->
<g id="edge8" class="edge">
<title>Node8&#45;&gt;Node9</title>
<path fill="none" stroke="midnightblue" d="M1508.54,-62.54C1507.59,-50.17 1506.39,-34.62 1505.66,-25.13"/>
<polygon fill="midnightblue" stroke="midnightblue" points="1505.07,-63.03 1509.33,-72.73 1512.05,-62.49 1505.07,-63.03"/>
</g>
<!-- Node10 -->
<g id="node10" class="node">
<title>Node10</title>
<g id="a_node10"><a xlink:href="apps_2mpi_2poisson_8cc.html" target="_top" xlink:title=" ">
<polygon fill="none" stroke="black" points="1599,-6 1599,-25 1715,-25 1715,-6 1599,-6"/>
<text text-anchor="middle" x="1657" y="-13" font-family="Helvetica,sans-Serif" font-size="10.00">apps/mpi/poisson.cc</text>
</a>
</g>
</g>
<!-- Node8&#45;&gt;Node10 -->
<g id="edge9" class="edge">
<title>Node8&#45;&gt;Node10</title>
<path fill="none" stroke="midnightblue" d="M1538.76,-68.78C1567.88,-55.91 1612.1,-36.35 1637.4,-25.17"/>
<polygon fill="midnightblue" stroke="midnightblue" points="1537.25,-65.62 1529.52,-72.87 1540.08,-72.03 1537.25,-65.62"/>
</g>
<!-- Node12 -->
<g id="node12" class="node">
<title>Node12</title>
<g id="a_node12"><a xlink:href="source_2pdes_2serial_2distributed__lagrange_8cc.html" target="_top" xlink:title=" ">
<polygon fill="none" stroke="black" points="1007,-0.5 1007,-30.5 1141,-30.5 1141,-0.5 1007,-0.5"/>
<text text-anchor="start" x="1015" y="-18.5" font-family="Helvetica,sans-Serif" font-size="10.00">source/pdes/serial</text>
<text text-anchor="middle" x="1074" y="-7.5" font-family="Helvetica,sans-Serif" font-size="10.00">/distributed_lagrange.cc</text>
</a>
</g>
</g>
<!-- Node11&#45;&gt;Node12 -->
<g id="edge11" class="edge">
<title>Node11&#45;&gt;Node12</title>
<path fill="none" stroke="midnightblue" d="M1173,-63.13C1151.07,-52.8 1124.13,-40.11 1103.89,-30.58"/>
<polygon fill="midnightblue" stroke="midnightblue" points="1171.52,-66.3 1182.06,-67.4 1174.5,-59.97 1171.52,-66.3"/>
</g>
<!-- Node13 -->
<g id="node13" class="node">
<title>Node13</title>
<g id="a_node13"><a xlink:href="apps_2serial_2distributed__lagrange_8cc.html" target="_top" xlink:title=" ">
<polygon fill="none" stroke="black" points="863.5,-0.5 863.5,-30.5 988.5,-30.5 988.5,-0.5 863.5,-0.5"/>
<text text-anchor="start" x="871.5" y="-18.5" font-family="Helvetica,sans-Serif" font-size="10.00">apps/serial/distributed</text>
<text text-anchor="middle" x="926" y="-7.5" font-family="Helvetica,sans-Serif" font-size="10.00">_lagrange.cc</text>
</a>
</g>
</g>
<!-- Node11&#45;&gt;Node13 -->
<g id="edge12" class="edge">
<title>Node11&#45;&gt;Node13</title>
<path fill="none" stroke="midnightblue" d="M1140.51,-65.25C1093.63,-54.6 1032.94,-40.81 988.09,-30.61"/>
<polygon fill="midnightblue" stroke="midnightblue" points="1139.77,-68.67 1150.29,-67.48 1141.32,-61.85 1139.77,-68.67"/>
</g>
<!-- Node15 -->
<g id="node15" class="node">
<title>Node15</title>
<g id="a_node15"><a xlink:href="source_2pdes_2stokes_8cc.html" target="_top" xlink:title=" ">
<polygon fill="none" stroke="black" points="1159.5,-6 1159.5,-25 1282.5,-25 1282.5,-6 1159.5,-6"/>
<text text-anchor="middle" x="1221" y="-13" font-family="Helvetica,sans-Serif" font-size="10.00">source/pdes/stokes.cc</text>
</a>
</g>
</g>
<!-- Node14&#45;&gt;Node15 -->
<g id="edge14" class="edge">
<title>Node14&#45;&gt;Node15</title>
<path fill="none" stroke="midnightblue" d="M1328.88,-68.44C1302.14,-55.57 1262.03,-36.26 1239,-25.17"/>
<polygon fill="midnightblue" stroke="midnightblue" points="1327.54,-71.68 1338.07,-72.87 1330.58,-65.38 1327.54,-71.68"/>
</g>
<!-- Node16 -->
<g id="node16" class="node">
<title>Node16</title>
<g id="a_node16"><a xlink:href="apps_2mpi_2stokes_8cc.html" target="_top" xlink:title=" ">
<polygon fill="none" stroke="black" points="1301,-6 1301,-25 1411,-25 1411,-6 1301,-6"/>
<text text-anchor="middle" x="1356" y="-13" font-family="Helvetica,sans-Serif" font-size="10.00">apps/mpi/stokes.cc</text>
</a>
</g>
</g>
<!-- Node14&#45;&gt;Node16 -->
<g id="edge15" class="edge">
<title>Node14&#45;&gt;Node16</title>
<path fill="none" stroke="midnightblue" d="M1356,-62.54C1356,-50.17 1356,-34.62 1356,-25.13"/>
<polygon fill="midnightblue" stroke="midnightblue" points="1352.5,-62.73 1356,-72.73 1359.5,-62.73 1352.5,-62.73"/>
</g>
<!-- Node19 -->
<g id="node19" class="node">
<title>Node19</title>
<g id="a_node19"><a xlink:href="source_2pdes_2serial_2poisson_8cc.html" target="_top" xlink:title=" ">
<polygon fill="none" stroke="black" points="881.5,-67.5 881.5,-97.5 986.5,-97.5 986.5,-67.5 881.5,-67.5"/>
<text text-anchor="start" x="889.5" y="-85.5" font-family="Helvetica,sans-Serif" font-size="10.00">source/pdes/serial</text>
<text text-anchor="middle" x="934" y="-74.5" font-family="Helvetica,sans-Serif" font-size="10.00">/poisson.cc</text>
</a>
</g>
</g>
<!-- Node18&#45;&gt;Node19 -->
<g id="edge19" class="edge">
<title>Node18&#45;&gt;Node19</title>
<path fill="none" stroke="midnightblue" d="M989.31,-127.88C977,-118.01 962.57,-106.43 951.54,-97.58"/>
<polygon fill="midnightblue" stroke="midnightblue" points="987.43,-130.87 997.42,-134.4 991.82,-125.41 987.43,-130.87"/>
</g>
<!-- Node20 -->
<g id="node20" class="node">
<title>Node20</title>
<g id="a_node20"><a xlink:href="apps_2serial_2poisson_8cc.html" target="_top" xlink:title=" ">
<polygon fill="none" stroke="black" points="1005,-73 1005,-92 1129,-92 1129,-73 1005,-73"/>
<text text-anchor="middle" x="1067" y="-80" font-family="Helvetica,sans-Serif" font-size="10.00">apps/serial/poisson.cc</text>
</a>
</g>
</g>
<!-- Node18&#45;&gt;Node20 -->
<g id="edge20" class="edge">
<title>Node18&#45;&gt;Node20</title>
<path fill="none" stroke="midnightblue" d="M1032.75,-126.32C1042.12,-114.6 1053.09,-100.88 1060.04,-92.19"/>
<polygon fill="midnightblue" stroke="midnightblue" points="1029.8,-124.4 1026.28,-134.4 1035.26,-128.77 1029.8,-124.4"/>
</g>
<!-- Node22 -->
<g id="node22" class="node">
<title>Node22</title>
<g id="a_node22"><a xlink:href="source_2pdes_2serial_2poisson__nitsche__interface_8cc.html" target="_top" xlink:title=" ">
<polygon fill="none" stroke="black" points="444,-67.5 444,-97.5 604,-97.5 604,-67.5 444,-67.5"/>
<text text-anchor="start" x="452" y="-85.5" font-family="Helvetica,sans-Serif" font-size="10.00">source/pdes/serial</text>
<text text-anchor="middle" x="524" y="-74.5" font-family="Helvetica,sans-Serif" font-size="10.00">/poisson_nitsche_interface.cc</text>
</a>
</g>
</g>
<!-- Node21&#45;&gt;Node22 -->
<g id="edge22" class="edge">
<title>Node21&#45;&gt;Node22</title>
<path fill="none" stroke="midnightblue" d="M683.03,-131.58C648.11,-121.02 603.69,-107.59 570.67,-97.61"/>
<polygon fill="midnightblue" stroke="midnightblue" points="682.03,-134.93 692.61,-134.48 684.05,-128.23 682.03,-134.93"/>
</g>
<!-- Node23 -->
<g id="node23" class="node">
<title>Node23</title>
<g id="a_node23"><a xlink:href="apps_2serial_2poisson__nitsche__interface_8cc.html" target="_top" xlink:title=" ">
<polygon fill="none" stroke="black" points="306.5,-67.5 306.5,-97.5 425.5,-97.5 425.5,-67.5 306.5,-67.5"/>
<text text-anchor="start" x="314.5" y="-85.5" font-family="Helvetica,sans-Serif" font-size="10.00">apps/serial/poisson</text>
<text text-anchor="middle" x="366" y="-74.5" font-family="Helvetica,sans-Serif" font-size="10.00">_nitsche_interface.cc</text>
</a>
</g>
</g>
<!-- Node21&#45;&gt;Node23 -->
<g id="edge23" class="edge">
<title>Node21&#45;&gt;Node23</title>
<path fill="none" stroke="midnightblue" d="M651.42,-134.96C590.59,-125.31 507.72,-111.67 435,-98 431.99,-97.43 428.91,-96.84 425.81,-96.23"/>
<polygon fill="midnightblue" stroke="midnightblue" points="650.95,-138.43 661.37,-136.54 652.04,-131.52 650.95,-138.43"/>
</g>
<!-- Node24&#45;&gt;Node25 -->
<g id="edge25" class="edge">
<title>Node24&#45;&gt;Node25</title>
<path fill="none" stroke="midnightblue" d="M478.8,-133.9C340.11,-111.35 302.69,-114.99 167,-98 151.84,-96.1 135.49,-93.94 120.24,-91.88"/>
<polygon fill="midnightblue" stroke="midnightblue" points="478.53,-137.41 488.96,-135.57 479.66,-130.5 478.53,-137.41"/>
</g>
<!-- Node26 -->
<g id="node26" class="node">
<title>Node26</title>
<g id="a_node26"><a xlink:href="apps_2serial_2reduced__lagrange_8cc.html" target="_top" xlink:title=" ">
<polygon fill="none" stroke="black" points="176,-67.5 176,-97.5 288,-97.5 288,-67.5 176,-67.5"/>
<text text-anchor="start" x="184" y="-85.5" font-family="Helvetica,sans-Serif" font-size="10.00">apps/serial/reduced</text>
<text text-anchor="middle" x="232" y="-74.5" font-family="Helvetica,sans-Serif" font-size="10.00">_lagrange.cc</text>
</a>
</g>
</g>
<!-- Node24&#45;&gt;Node26 -->
<g id="edge26" class="edge">
<title>Node24&#45;&gt;Node26</title>
<path fill="none" stroke="midnightblue" d="M478.66,-133.75C397.11,-117.04 374.96,-114.36 297,-98 294.06,-97.38 291.04,-96.74 288,-96.09"/>
<polygon fill="midnightblue" stroke="midnightblue" points="478.41,-137.27 488.91,-135.86 479.82,-130.41 478.41,-137.27"/>
</g>
<!-- Node28 -->
<g id="node28" class="node">
<title>Node28</title>
<g id="a_node28"><a xlink:href="source_2pdes_2serial_2stokes_8cc.html" target="_top" xlink:title=" ">
<polygon fill="none" stroke="black" points="758.5,-67.5 758.5,-97.5 863.5,-97.5 863.5,-67.5 758.5,-67.5"/>
<text text-anchor="start" x="766.5" y="-85.5" font-family="Helvetica,sans-Serif" font-size="10.00">source/pdes/serial</text>
<text text-anchor="middle" x="811" y="-74.5" font-family="Helvetica,sans-Serif" font-size="10.00">/stokes.cc</text>
</a>
</g>
</g>
<!-- Node27&#45;&gt;Node28 -->
<g id="edge28" class="edge">
<title>Node27&#45;&gt;Node28</title>
<path fill="none" stroke="midnightblue" d="M864.26,-127.88C852.41,-118.01 838.52,-106.43 827.89,-97.58"/>
<polygon fill="midnightblue" stroke="midnightblue" points="862.15,-130.68 872.08,-134.4 866.63,-125.31 862.15,-130.68"/>
</g>
<!-- Node29 -->
<g id="node29" class="node">
<title>Node29</title>
<g id="a_node29"><a xlink:href="apps_2serial_2stokes_8cc.html" target="_top" xlink:title=" ">
<polygon fill="none" stroke="black" points="622,-73 622,-92 740,-92 740,-73 622,-73"/>
<text text-anchor="middle" x="681" y="-80" font-family="Helvetica,sans-Serif" font-size="10.00">apps/serial/stokes.cc</text>
</a>
</g>
</g>
<!-- Node27&#45;&gt;Node29 -->
<g id="edge29" class="edge">
<title>Node27&#45;&gt;Node29</title>
<path fill="none" stroke="midnightblue" d="M834.38,-131.43C793.81,-118.75 740.2,-102 708.29,-92.03"/>
<polygon fill="midnightblue" stroke="midnightblue" points="833.53,-134.83 844.12,-134.48 835.62,-128.15 833.53,-134.83"/>
</g>
<!-- Node31&#45;&gt;Node2 -->
<g id="edge32" class="edge">
<title>Node31&#45;&gt;Node2</title>
<path fill="none" stroke="midnightblue" d="M589.35,-265.09C619.7,-254.6 657.85,-241.41 686.29,-231.58"/>
<polygon fill="midnightblue" stroke="midnightblue" points="588.1,-261.82 579.79,-268.4 590.39,-268.44 588.1,-261.82"/>
</g>
<!-- Node31&#45;&gt;Node5 -->
<g id="edge35" class="edge">
<title>Node31&#45;&gt;Node5</title>
<path fill="none" stroke="midnightblue" d="M607.9,-277.65C808.09,-263.1 1387.03,-217.51 1569,-165 1638.37,-144.98 1659.37,-141.51 1717,-98 1742.6,-78.67 1765.11,-48.25 1777.02,-30.55"/>
<polygon fill="midnightblue" stroke="midnightblue" points="607.52,-274.17 597.8,-278.38 608.03,-281.15 607.52,-274.17"/>
</g>
<!-- Node31&#45;&gt;Node15 -->
<g id="edge36" class="edge">
<title>Node31&#45;&gt;Node15</title>
<path fill="none" stroke="midnightblue" d="M470.36,-270.85C372.83,-252.73 201.96,-214.66 166,-165 155.95,-151.13 146.82,-87.62 167,-67 205.22,-27.94 1095.74,-37.49 1150,-31 1161.49,-29.63 1173.89,-27.37 1185.07,-25.04"/>
<polygon fill="midnightblue" stroke="midnightblue" points="469.96,-274.34 480.43,-272.7 471.23,-267.45 469.96,-274.34"/>
</g>
<!-- Node31&#45;&gt;Node30 -->
<g id="edge33" class="edge">
<title>Node31&#45;&gt;Node30</title>
<path fill="none" stroke="midnightblue" d="M499.95,-264.09C438.65,-235.19 322.17,-180.28 277.28,-159.12"/>
<polygon fill="midnightblue" stroke="midnightblue" points="498.76,-267.4 509.3,-268.5 501.75,-261.07 498.76,-267.4"/>
</g>
<!-- Node32 -->
<g id="node32" class="node">
<title>Node32</title>
<g id="a_node32"><a xlink:href="components_8cc.html" target="_top" xlink:title=" ">
<polygon fill="none" stroke="black" points="476.5,-207 476.5,-226 601.5,-226 601.5,-207 476.5,-207"/>
<text text-anchor="middle" x="539" y="-214" font-family="Helvetica,sans-Serif" font-size="10.00">source/components.cc</text>
</a>
</g>
</g>
<!-- Node31&#45;&gt;Node32 -->
<g id="edge34" class="edge">
<title>Node31&#45;&gt;Node32</title>
<path fill="none" stroke="midnightblue" d="M539,-258.25C539,-247.02 539,-234.38 539,-226.19"/>
<polygon fill="midnightblue" stroke="midnightblue" points="535.5,-258.4 539,-268.4 542.5,-258.4 535.5,-258.4"/>
</g>
<!-- Node33 -->
<g id="node33" class="node">
<title>Node33</title>
<g id="a_node33"><a xlink:href="dof__plotter_8cc.html" target="_top" xlink:title="Degrees of freedom plotter.">
<polygon fill="none" stroke="black" points="361,-140 361,-159 471,-159 471,-140 361,-140"/>
<text text-anchor="middle" x="416" y="-147" font-family="Helvetica,sans-Serif" font-size="10.00">apps/dof_plotter.cc</text>
</a>
</g>
</g>
<!-- Node31&#45;&gt;Node33 -->
<g id="edge37" class="edge">
<title>Node31&#45;&gt;Node33</title>
<path fill="none" stroke="midnightblue" d="M505.15,-262.81C492.3,-254.34 478.1,-243.7 467,-232 445.06,-208.87 427.47,-174.89 419.95,-159.12"/>
<polygon fill="midnightblue" stroke="midnightblue" points="503.46,-265.88 513.77,-268.31 507.22,-259.98 503.46,-265.88"/>
</g>
<!-- Node34&#45;&gt;Node3 -->
<g id="edge39" class="edge">
<title>Node34&#45;&gt;Node3</title>
<path fill="none" stroke="midnightblue" d="M948.72,-200.79C1078.95,-179.16 1114.25,-181.87 1242,-165 1257.34,-162.97 1273.96,-160.66 1289.24,-158.49"/>
<polygon fill="midnightblue" stroke="midnightblue" points="948.05,-197.36 938.77,-202.46 949.21,-204.26 948.05,-197.36"/>
</g>
<!-- Node34&#45;&gt;Node11 -->
<g id="edge40" class="edge">
<title>Node34&#45;&gt;Node11</title>
<path fill="none" stroke="midnightblue" d="M948.53,-199.56C1000.94,-187.11 1066.19,-170.95 1078,-165 1097.46,-155.19 1097.82,-146.02 1116,-134 1136.89,-120.18 1161.99,-107.09 1181.28,-97.7"/>
<polygon fill="midnightblue" stroke="midnightblue" points="947.49,-196.21 938.57,-201.92 949.11,-203.02 947.49,-196.21"/>
</g>
<!-- Node34&#45;&gt;Node18 -->
<g id="edge41" class="edge">
<title>Node34&#45;&gt;Node18</title>
<path fill="none" stroke="midnightblue" d="M918.44,-196.99C939.84,-186.69 966.05,-174.07 985.76,-164.58"/>
<polygon fill="midnightblue" stroke="midnightblue" points="916.78,-193.9 909.29,-201.4 919.82,-200.21 916.78,-193.9"/>
</g>
<!-- Node34&#45;&gt;Node21 -->
<g id="edge42" class="edge">
<title>Node34&#45;&gt;Node21</title>
<path fill="none" stroke="midnightblue" d="M840.15,-197.13C817.75,-186.8 790.22,-174.11 769.54,-164.58"/>
<polygon fill="midnightblue" stroke="midnightblue" points="838.86,-200.39 849.41,-201.4 841.79,-194.03 838.86,-200.39"/>
</g>
<!-- Node34&#45;&gt;Node24 -->
<g id="edge43" class="edge">
<title>Node34&#45;&gt;Node24</title>
<path fill="none" stroke="midnightblue" d="M811.33,-202.1C750.49,-190.22 662.63,-173.07 605.18,-161.86"/>
<polygon fill="midnightblue" stroke="midnightblue" points="810.75,-205.55 821.23,-204.03 812.09,-198.68 810.75,-205.55"/>
</g>
<!-- Node34&#45;&gt;Node27 -->
<g id="edge44" class="edge">
<title>Node34&#45;&gt;Node27</title>
<path fill="none" stroke="midnightblue" d="M883.34,-191.4C884.59,-182.37 885.97,-172.41 887.05,-164.58"/>
<polygon fill="midnightblue" stroke="midnightblue" points="879.86,-191.01 881.95,-201.4 886.79,-191.97 879.86,-191.01"/>
</g>
<!-- Node34&#45;&gt;Node33 -->
<g id="edge46" class="edge">
<title>Node34&#45;&gt;Node33</title>
<path fill="none" stroke="midnightblue" d="M811.43,-202.61C807.91,-202.05 804.41,-201.5 801,-201 658.98,-180.03 621.56,-188.9 480,-165 470.34,-163.37 459.95,-161.2 450.4,-159.03"/>
<polygon fill="midnightblue" stroke="midnightblue" points="810.97,-206.09 821.4,-204.27 812.11,-199.18 810.97,-206.09"/>
</g>
<!-- Node35 -->
<g id="node35" class="node">
<title>Node35</title>
<g id="a_node35"><a xlink:href="data__out_8cc.html" target="_top" xlink:title=" ">
<polygon fill="none" stroke="black" points="1125,-140 1125,-159 1233,-159 1233,-140 1125,-140"/>
<text text-anchor="middle" x="1179" y="-147" font-family="Helvetica,sans-Serif" font-size="10.00">source/data_out.cc</text>
</a>
</g>
</g>
<!-- Node34&#45;&gt;Node35 -->
<g id="edge45" class="edge">
<title>Node34&#45;&gt;Node35</title>
<path fill="none" stroke="midnightblue" d="M948.72,-200.56C1007.81,-187.72 1090.96,-169.64 1139.49,-159.09"/>
<polygon fill="midnightblue" stroke="midnightblue" points="947.74,-197.19 938.72,-202.74 949.23,-204.03 947.74,-197.19"/>
</g>
<!-- Node36&#45;&gt;Node3 -->
<g id="edge48" class="edge">
<title>Node36&#45;&gt;Node3</title>
<path fill="none" stroke="midnightblue" d="M1083.52,-202.49C1135.98,-192.45 1210.11,-178.12 1275,-165 1279.68,-164.05 1284.53,-163.06 1289.4,-162.05"/>
<polygon fill="midnightblue" stroke="midnightblue" points="1082.82,-199.06 1073.65,-204.37 1084.13,-205.93 1082.82,-199.06"/>
</g>
<!-- Node36&#45;&gt;Node11 -->
<g id="edge49" class="edge">
<title>Node36&#45;&gt;Node11</title>
<path fill="none" stroke="midnightblue" d="M1083.67,-209.55C1143.06,-202.82 1222.39,-189.45 1242,-165 1258.22,-144.77 1239.11,-114.93 1224.81,-97.53"/>
<polygon fill="midnightblue" stroke="midnightblue" points="1083.14,-206.09 1073.58,-210.66 1083.9,-213.05 1083.14,-206.09"/>
</g>
<!-- Node36&#45;&gt;Node18 -->
<g id="edge50" class="edge">
<title>Node36&#45;&gt;Node18</title>
<path fill="none" stroke="midnightblue" d="M1015,-191.11C1015,-182.15 1015,-172.32 1015,-164.58"/>
<polygon fill="midnightblue" stroke="midnightblue" points="1011.5,-191.4 1015,-201.4 1018.5,-191.4 1011.5,-191.4"/>
</g>
<!-- Node36&#45;&gt;Node21 -->
<g id="edge51" class="edge">
<title>Node36&#45;&gt;Node21</title>
<path fill="none" stroke="midnightblue" d="M946.72,-199.42C901.37,-188.74 842.39,-174.85 798.88,-164.6"/>
<polygon fill="midnightblue" stroke="midnightblue" points="945.93,-202.83 956.47,-201.72 947.54,-196.02 945.93,-202.83"/>
</g>
<!-- Node36&#45;&gt;Node24 -->
<g id="edge52" class="edge">
<title>Node36&#45;&gt;Node24</title>
<path fill="none" stroke="midnightblue" d="M946.41,-201C815.02,-179.33 779.78,-181.62 652,-165 636.76,-163.02 620.29,-160.79 605.02,-158.68"/>
<polygon fill="midnightblue" stroke="midnightblue" points="946.02,-204.48 956.46,-202.67 947.17,-197.58 946.02,-204.48"/>
</g>
<!-- Node36&#45;&gt;Node27 -->
<g id="edge53" class="edge">
<title>Node36&#45;&gt;Node27</title>
<path fill="none" stroke="midnightblue" d="M978.58,-196.71C958.71,-186.46 934.52,-173.98 916.29,-164.58"/>
<polygon fill="midnightblue" stroke="midnightblue" points="977.17,-199.92 987.66,-201.4 980.38,-193.7 977.17,-199.92"/>
</g>
<!-- Node37 -->
<g id="node37" class="node">
<title>Node37</title>
<g id="a_node37"><a xlink:href="grid__refinement_8cc.html" target="_top" xlink:title=" ">
<polygon fill="none" stroke="black" points="1416.5,-140 1416.5,-159 1559.5,-159 1559.5,-140 1416.5,-140"/>
<text text-anchor="middle" x="1488" y="-147" font-family="Helvetica,sans-Serif" font-size="10.00">source/grid_refinement.cc</text>
</a>
</g>
</g>
<!-- Node36&#45;&gt;Node37 -->
<g id="edge54" class="edge">
<title>Node36&#45;&gt;Node37</title>
<path fill="none" stroke="midnightblue" d="M1083.98,-207.73C1162.58,-198.62 1294.8,-182.52 1408,-165 1419.44,-163.23 1431.76,-161.11 1443.22,-159.04"/>
<polygon fill="midnightblue" stroke="midnightblue" points="1083.26,-204.29 1073.73,-208.91 1084.06,-211.24 1083.26,-204.29"/>
</g>
</g>
</svg>
