<?xml version="1.0" encoding="UTF-8" standalone="no"?>
<!DOCTYPE svg PUBLIC "-//W3C//DTD SVG 1.1//EN"
 "http://www.w3.org/Graphics/SVG/1.1/DTD/svg11.dtd">
<!-- Generated by graphviz version 2.43.0 (0)
 -->
<!-- Title: include/parsed_tools/enum.h Pages: 1 -->
<svg width="1227pt" height="307pt"
 viewBox="0.00 0.00 1227.00 307.00" xmlns="http://www.w3.org/2000/svg" xmlns:xlink="http://www.w3.org/1999/xlink">
<g id="graph0" class="graph" transform="scale(1 1) rotate(0) translate(4 303)">
<title>include/parsed_tools/enum.h</title>
<!-- Node1 -->
<g id="node1" class="node">
<title>Node1</title>
<g id="a_node1"><a xlink:title=" ">
<polygon fill="#bfbfbf" stroke="black" points="690.5,-268.5 690.5,-298.5 807.5,-298.5 807.5,-268.5 690.5,-268.5"/>
<text text-anchor="start" x="698.5" y="-286.5" font-family="Helvetica,sans-Serif" font-size="10.00">include/parsed_tools</text>
<text text-anchor="middle" x="749" y="-275.5" font-family="Helvetica,sans-Serif" font-size="10.00">/enum.h</text>
</a>
</g>
</g>
<!-- Node2 -->
<g id="node2" class="node">
<title>Node2</title>
<g id="a_node2"><a xlink:href="boundary__conditions_8h.html" target="_top" xlink:title=" ">
<polygon fill="none" stroke="black" points="542,-134.5 542,-164.5 672,-164.5 672,-134.5 542,-134.5"/>
<text text-anchor="start" x="550" y="-152.5" font-family="Helvetica,sans-Serif" font-size="10.00">include/parsed_tools</text>
<text text-anchor="middle" x="607" y="-141.5" font-family="Helvetica,sans-Serif" font-size="10.00">/boundary_conditions.h</text>
</a>
</g>
</g>
<!-- Node1&#45;&gt;Node2 -->
<g id="edge1" class="edge">
<title>Node1&#45;&gt;Node2</title>
<path fill="none" stroke="midnightblue" d="M726.13,-261.25C696.87,-234.04 647,-187.68 622.09,-164.52"/>
<polygon fill="midnightblue" stroke="midnightblue" points="724.1,-264.13 733.8,-268.37 728.86,-259 724.1,-264.13"/>
</g>
<!-- Node16 -->
<g id="node16" class="node">
<title>Node16</title>
<g id="a_node16"><a xlink:href="components_8h.html" target="_top" xlink:title=" ">
<polygon fill="none" stroke="black" points="777.5,-201.5 777.5,-231.5 894.5,-231.5 894.5,-201.5 777.5,-201.5"/>
<text text-anchor="start" x="785.5" y="-219.5" font-family="Helvetica,sans-Serif" font-size="10.00">include/parsed_tools</text>
<text text-anchor="middle" x="836" y="-208.5" font-family="Helvetica,sans-Serif" font-size="10.00">/components.h</text>
</a>
</g>
</g>
<!-- Node1&#45;&gt;Node16 -->
<g id="edge15" class="edge">
<title>Node1&#45;&gt;Node16</title>
<path fill="none" stroke="midnightblue" d="M776.21,-262.17C789.52,-252.23 805.2,-240.51 817.16,-231.58"/>
<polygon fill="midnightblue" stroke="midnightblue" points="773.79,-259.61 767.88,-268.4 777.98,-265.21 773.79,-259.61"/>
</g>
<!-- Node19 -->
<g id="node19" class="node">
<title>Node19</title>
<g id="a_node19"><a xlink:href="data__out_8h.html" target="_top" xlink:title=" ">
<polygon fill="none" stroke="black" points="690.5,-134.5 690.5,-164.5 807.5,-164.5 807.5,-134.5 690.5,-134.5"/>
<text text-anchor="start" x="698.5" y="-152.5" font-family="Helvetica,sans-Serif" font-size="10.00">include/parsed_tools</text>
<text text-anchor="middle" x="749" y="-141.5" font-family="Helvetica,sans-Serif" font-size="10.00">/data_out.h</text>
</a>
</g>
</g>
<!-- Node1&#45;&gt;Node19 -->
<g id="edge20" class="edge">
<title>Node1&#45;&gt;Node19</title>
<path fill="none" stroke="midnightblue" d="M749,-258.02C749,-230.51 749,-186.79 749,-164.52"/>
<polygon fill="midnightblue" stroke="midnightblue" points="745.5,-258.37 749,-268.37 752.5,-258.37 745.5,-258.37"/>
</g>
<!-- Node21 -->
<g id="node21" class="node">
<title>Node21</title>
<g id="a_node21"><a xlink:href="grid__refinement_8h.html" target="_top" xlink:title=" ">
<polygon fill="none" stroke="black" points="406.5,-134.5 406.5,-164.5 523.5,-164.5 523.5,-134.5 406.5,-134.5"/>
<text text-anchor="start" x="414.5" y="-152.5" font-family="Helvetica,sans-Serif" font-size="10.00">include/parsed_tools</text>
<text text-anchor="middle" x="465" y="-141.5" font-family="Helvetica,sans-Serif" font-size="10.00">/grid_refinement.h</text>
</a>
</g>
</g>
<!-- Node1&#45;&gt;Node21 -->
<g id="edge27" class="edge">
<title>Node1&#45;&gt;Node21</title>
<path fill="none" stroke="midnightblue" d="M709.77,-264.26C652.44,-237.62 546.98,-188.6 495.24,-164.56"/>
<polygon fill="midnightblue" stroke="midnightblue" points="708.33,-267.46 718.88,-268.5 711.28,-261.11 708.33,-267.46"/>
</g>
<!-- Node23 -->
<g id="node23" class="node">
<title>Node23</title>
<g id="a_node23"><a xlink:href="inverse__operator_8cc.html" target="_top" xlink:title=" ">
<polygon fill="none" stroke="black" points="912.5,-201.5 912.5,-231.5 1055.5,-231.5 1055.5,-201.5 912.5,-201.5"/>
<text text-anchor="start" x="920.5" y="-219.5" font-family="Helvetica,sans-Serif" font-size="10.00">source/parsed_lac/inverse</text>
<text text-anchor="middle" x="984" y="-208.5" font-family="Helvetica,sans-Serif" font-size="10.00">_operator.cc</text>
</a>
</g>
</g>
<!-- Node1&#45;&gt;Node23 -->
<g id="edge33" class="edge">
<title>Node1&#45;&gt;Node23</title>
<path fill="none" stroke="midnightblue" d="M809.68,-265.71C847.93,-255.14 896.74,-241.63 932.98,-231.61"/>
<polygon fill="midnightblue" stroke="midnightblue" points="808.41,-262.44 799.7,-268.48 810.27,-269.18 808.41,-262.44"/>
</g>
<!-- Node3 -->
<g id="node3" class="node">
<title>Node3</title>
<g id="a_node3"><a xlink:href="distributed__lagrange_8h.html" target="_top" xlink:title=" ">
<polygon fill="none" stroke="black" points="271.5,-67.5 271.5,-97.5 400.5,-97.5 400.5,-67.5 271.5,-67.5"/>
<text text-anchor="start" x="279.5" y="-85.5" font-family="Helvetica,sans-Serif" font-size="10.00">include/pdes/serial</text>
<text text-anchor="middle" x="336" y="-74.5" font-family="Helvetica,sans-Serif" font-size="10.00">/distributed_lagrange.h</text>
</a>
</g>
</g>
<!-- Node2&#45;&gt;Node3 -->
<g id="edge2" class="edge">
<title>Node2&#45;&gt;Node3</title>
<path fill="none" stroke="midnightblue" d="M538.7,-132.12C494.36,-121.48 437.16,-107.76 394.83,-97.61"/>
<polygon fill="midnightblue" stroke="midnightblue" points="537.99,-135.55 548.53,-134.48 539.62,-128.74 537.99,-135.55"/>
</g>
<!-- Node6 -->
<g id="node6" class="node">
<title>Node6</title>
<g id="a_node6"><a xlink:href="linear__elasticity_8h.html" target="_top" xlink:title=" ">
<polygon fill="none" stroke="black" points="419,-67.5 419,-97.5 527,-97.5 527,-67.5 419,-67.5"/>
<text text-anchor="start" x="427" y="-85.5" font-family="Helvetica,sans-Serif" font-size="10.00">include/pdes/serial</text>
<text text-anchor="middle" x="473" y="-74.5" font-family="Helvetica,sans-Serif" font-size="10.00">/linear_elasticity.h</text>
</a>
</g>
</g>
<!-- Node2&#45;&gt;Node6 -->
<g id="edge5" class="edge">
<title>Node2&#45;&gt;Node6</title>
<path fill="none" stroke="midnightblue" d="M568.85,-129.99C547.61,-119.69 521.59,-107.07 502.02,-97.58"/>
<polygon fill="midnightblue" stroke="midnightblue" points="567.4,-133.18 577.92,-134.4 570.45,-126.88 567.4,-133.18"/>
</g>
<!-- Node9 -->
<g id="node9" class="node">
<title>Node9</title>
<g id="a_node9"><a xlink:href="poisson_8h.html" target="_top" xlink:title=" ">
<polygon fill="none" stroke="black" points="545,-67.5 545,-97.5 653,-97.5 653,-67.5 545,-67.5"/>
<text text-anchor="start" x="553" y="-85.5" font-family="Helvetica,sans-Serif" font-size="10.00">include/pdes/serial</text>
<text text-anchor="middle" x="599" y="-74.5" font-family="Helvetica,sans-Serif" font-size="10.00">/poisson.h</text>
</a>
</g>
</g>
<!-- Node2&#45;&gt;Node9 -->
<g id="edge8" class="edge">
<title>Node2&#45;&gt;Node9</title>
<path fill="none" stroke="midnightblue" d="M604.03,-124.4C602.92,-115.37 601.7,-105.41 600.73,-97.58"/>
<polygon fill="midnightblue" stroke="midnightblue" points="600.57,-124.9 605.26,-134.4 607.52,-124.04 600.57,-124.9"/>
</g>
<!-- Node12 -->
<g id="node12" class="node">
<title>Node12</title>
<g id="a_node12"><a xlink:href="stokes_8h.html" target="_top" xlink:title=" ">
<polygon fill="none" stroke="black" points="671,-67.5 671,-97.5 779,-97.5 779,-67.5 671,-67.5"/>
<text text-anchor="start" x="679" y="-85.5" font-family="Helvetica,sans-Serif" font-size="10.00">include/pdes/serial</text>
<text text-anchor="middle" x="725" y="-74.5" font-family="Helvetica,sans-Serif" font-size="10.00">/stokes.h</text>
</a>
</g>
</g>
<!-- Node2&#45;&gt;Node12 -->
<g id="edge11" class="edge">
<title>Node2&#45;&gt;Node12</title>
<path fill="none" stroke="midnightblue" d="M641.61,-129.44C660.12,-119.24 682.52,-106.9 699.45,-97.58"/>
<polygon fill="midnightblue" stroke="midnightblue" points="639.67,-126.51 632.6,-134.4 643.05,-132.64 639.67,-126.51"/>
</g>
<!-- Node15 -->
<g id="node15" class="node">
<title>Node15</title>
<g id="a_node15"><a xlink:href="boundary__conditions_8cc.html" target="_top" xlink:title=" ">
<polygon fill="none" stroke="black" points="797.5,-73 797.5,-92 964.5,-92 964.5,-73 797.5,-73"/>
<text text-anchor="middle" x="881" y="-80" font-family="Helvetica,sans-Serif" font-size="10.00">source/boundary_conditions.cc</text>
</a>
</g>
</g>
<!-- Node2&#45;&gt;Node15 -->
<g id="edge14" class="edge">
<title>Node2&#45;&gt;Node15</title>
<path fill="none" stroke="midnightblue" d="M675.93,-132.15C729.69,-119.39 802.21,-102.19 845.05,-92.03"/>
<polygon fill="midnightblue" stroke="midnightblue" points="675.04,-128.76 666.12,-134.48 676.65,-135.57 675.04,-128.76"/>
</g>
<!-- Node4 -->
<g id="node4" class="node">
<title>Node4</title>
<g id="a_node4"><a xlink:href="source_2pdes_2serial_2distributed__lagrange_8cc.html" target="_top" xlink:title=" ">
<polygon fill="none" stroke="black" points="0,-0.5 0,-30.5 134,-30.5 134,-0.5 0,-0.5"/>
<text text-anchor="start" x="8" y="-18.5" font-family="Helvetica,sans-Serif" font-size="10.00">source/pdes/serial</text>
<text text-anchor="middle" x="67" y="-7.5" font-family="Helvetica,sans-Serif" font-size="10.00">/distributed_lagrange.cc</text>
</a>
</g>
</g>
<!-- Node3&#45;&gt;Node4 -->
<g id="edge3" class="edge">
<title>Node3&#45;&gt;Node4</title>
<path fill="none" stroke="midnightblue" d="M268.21,-65.12C224.19,-54.48 167.41,-40.76 125.4,-30.61"/>
<polygon fill="midnightblue" stroke="midnightblue" points="267.42,-68.53 277.96,-67.48 269.06,-61.73 267.42,-68.53"/>
</g>
<!-- Node5 -->
<g id="node5" class="node">
<title>Node5</title>
<g id="a_node5"><a xlink:href="apps_2serial_2distributed__lagrange_8cc.html" target="_top" xlink:title=" ">
<polygon fill="none" stroke="black" points="152.5,-0.5 152.5,-30.5 277.5,-30.5 277.5,-0.5 152.5,-0.5"/>
<text text-anchor="start" x="160.5" y="-18.5" font-family="Helvetica,sans-Serif" font-size="10.00">apps/serial/distributed</text>
<text text-anchor="middle" x="215" y="-7.5" font-family="Helvetica,sans-Serif" font-size="10.00">_lagrange.cc</text>
</a>
</g>
</g>
<!-- Node3&#45;&gt;Node5 -->
<g id="edge4" class="edge">
<title>Node3&#45;&gt;Node5</title>
<path fill="none" stroke="midnightblue" d="M300.77,-62.57C281.74,-52.35 258.63,-39.94 241.2,-30.58"/>
<polygon fill="midnightblue" stroke="midnightblue" points="299.28,-65.75 309.74,-67.4 302.59,-59.58 299.28,-65.75"/>
</g>
<!-- Node7 -->
<g id="node7" class="node">
<title>Node7</title>
<g id="a_node7"><a xlink:href="source_2pdes_2serial_2linear__elasticity_8cc.html" target="_top" xlink:title=" ">
<polygon fill="none" stroke="black" points="296,-0.5 296,-30.5 406,-30.5 406,-0.5 296,-0.5"/>
<text text-anchor="start" x="304" y="-18.5" font-family="Helvetica,sans-Serif" font-size="10.00">source/pdes/serial</text>
<text text-anchor="middle" x="351" y="-7.5" font-family="Helvetica,sans-Serif" font-size="10.00">/linear_elasticity.cc</text>
</a>
</g>
</g>
<!-- Node6&#45;&gt;Node7 -->
<g id="edge6" class="edge">
<title>Node6&#45;&gt;Node7</title>
<path fill="none" stroke="midnightblue" d="M437.48,-62.57C418.29,-52.35 395,-39.94 377.42,-30.58"/>
<polygon fill="midnightblue" stroke="midnightblue" points="436.06,-65.78 446.53,-67.4 439.35,-59.6 436.06,-65.78"/>
</g>
<!-- Node8 -->
<g id="node8" class="node">
<title>Node8</title>
<g id="a_node8"><a xlink:href="apps_2serial_2linear__elasticity_8cc.html" target="_top" xlink:title=" ">
<polygon fill="none" stroke="black" points="424.5,-0.5 424.5,-30.5 525.5,-30.5 525.5,-0.5 424.5,-0.5"/>
<text text-anchor="start" x="432.5" y="-18.5" font-family="Helvetica,sans-Serif" font-size="10.00">apps/serial/linear</text>
<text text-anchor="middle" x="475" y="-7.5" font-family="Helvetica,sans-Serif" font-size="10.00">_elasticity.cc</text>
</a>
</g>
</g>
<!-- Node6&#45;&gt;Node8 -->
<g id="edge7" class="edge">
<title>Node6&#45;&gt;Node8</title>
<path fill="none" stroke="midnightblue" d="M473.75,-57.11C474.03,-48.15 474.33,-38.32 474.57,-30.58"/>
<polygon fill="midnightblue" stroke="midnightblue" points="470.24,-57.29 473.43,-67.4 477.24,-57.51 470.24,-57.29"/>
</g>
<!-- Node10 -->
<g id="node10" class="node">
<title>Node10</title>
<g id="a_node10"><a xlink:href="source_2pdes_2serial_2poisson_8cc.html" target="_top" xlink:title=" ">
<polygon fill="none" stroke="black" points="543.5,-0.5 543.5,-30.5 648.5,-30.5 648.5,-0.5 543.5,-0.5"/>
<text text-anchor="start" x="551.5" y="-18.5" font-family="Helvetica,sans-Serif" font-size="10.00">source/pdes/serial</text>
<text text-anchor="middle" x="596" y="-7.5" font-family="Helvetica,sans-Serif" font-size="10.00">/poisson.cc</text>
</a>
</g>
</g>
<!-- Node9&#45;&gt;Node10 -->
<g id="edge9" class="edge">
<title>Node9&#45;&gt;Node10</title>
<path fill="none" stroke="midnightblue" d="M597.89,-57.4C597.47,-48.37 597.01,-38.41 596.65,-30.58"/>
<polygon fill="midnightblue" stroke="midnightblue" points="594.39,-57.57 598.35,-67.4 601.38,-57.25 594.39,-57.57"/>
</g>
<!-- Node11 -->
<g id="node11" class="node">
<title>Node11</title>
<g id="a_node11"><a xlink:href="apps_2serial_2poisson_8cc.html" target="_top" xlink:title=" ">
<polygon fill="none" stroke="black" points="667,-6 667,-25 791,-25 791,-6 667,-6"/>
<text text-anchor="middle" x="729" y="-13" font-family="Helvetica,sans-Serif" font-size="10.00">apps/serial/poisson.cc</text>
</a>
</g>
</g>
<!-- Node9&#45;&gt;Node11 -->
<g id="edge10" class="edge">
<title>Node9&#45;&gt;Node11</title>
<path fill="none" stroke="midnightblue" d="M636.39,-62.8C661.32,-50.34 692.89,-34.56 711.99,-25.01"/>
<polygon fill="midnightblue" stroke="midnightblue" points="634.59,-59.79 627.21,-67.4 637.72,-66.05 634.59,-59.79"/>
</g>
<!-- Node13 -->
<g id="node13" class="node">
<title>Node13</title>
<g id="a_node13"><a xlink:href="source_2pdes_2serial_2stokes_8cc.html" target="_top" xlink:title=" ">
<polygon fill="none" stroke="black" points="809.5,-0.5 809.5,-30.5 914.5,-30.5 914.5,-0.5 809.5,-0.5"/>
<text text-anchor="start" x="817.5" y="-18.5" font-family="Helvetica,sans-Serif" font-size="10.00">source/pdes/serial</text>
<text text-anchor="middle" x="862" y="-7.5" font-family="Helvetica,sans-Serif" font-size="10.00">/stokes.cc</text>
</a>
</g>
</g>
<!-- Node12&#45;&gt;Node13 -->
<g id="edge12" class="edge">
<title>Node12&#45;&gt;Node13</title>
<path fill="none" stroke="midnightblue" d="M764.01,-62.99C785.72,-52.69 812.33,-40.07 832.33,-30.58"/>
<polygon fill="midnightblue" stroke="midnightblue" points="762.26,-59.95 754.73,-67.4 765.26,-66.27 762.26,-59.95"/>
</g>
<!-- Node14 -->
<g id="node14" class="node">
<title>Node14</title>
<g id="a_node14"><a xlink:href="apps_2serial_2stokes_8cc.html" target="_top" xlink:title=" ">
<polygon fill="none" stroke="black" points="933,-6 933,-25 1051,-25 1051,-6 933,-6"/>
<text text-anchor="middle" x="992" y="-13" font-family="Helvetica,sans-Serif" font-size="10.00">apps/serial/stokes.cc</text>
</a>
</g>
</g>
<!-- Node12&#45;&gt;Node14 -->
<g id="edge13" class="edge">
<title>Node12&#45;&gt;Node14</title>
<path fill="none" stroke="midnightblue" d="M788.94,-65.93C841.54,-53.13 914.14,-35.46 956.77,-25.08"/>
<polygon fill="midnightblue" stroke="midnightblue" points="787.92,-62.58 779.03,-68.35 789.58,-69.38 787.92,-62.58"/>
</g>
<!-- Node16&#45;&gt;Node2 -->
<g id="edge16" class="edge">
<title>Node16&#45;&gt;Node2</title>
<path fill="none" stroke="midnightblue" d="M776.86,-198.71C739.6,-188.14 692.03,-174.63 656.71,-164.61"/>
<polygon fill="midnightblue" stroke="midnightblue" points="776.02,-202.11 786.59,-201.48 777.93,-195.38 776.02,-202.11"/>
</g>
<!-- Node16&#45;&gt;Node15 -->
<g id="edge17" class="edge">
<title>Node16&#45;&gt;Node15</title>
<path fill="none" stroke="midnightblue" d="M842.37,-191.39C846.86,-175.05 853.26,-153.05 860,-134 865.26,-119.14 872.53,-102.32 876.99,-92.33"/>
<polygon fill="midnightblue" stroke="midnightblue" points="838.94,-190.65 839.7,-201.22 845.7,-192.48 838.94,-190.65"/>
</g>
<!-- Node17 -->
<g id="node17" class="node">
<title>Node17</title>
<g id="a_node17"><a xlink:href="components_8cc.html" target="_top" xlink:title=" ">
<polygon fill="none" stroke="black" points="902.5,-140 902.5,-159 1027.5,-159 1027.5,-140 902.5,-140"/>
<text text-anchor="middle" x="965" y="-147" font-family="Helvetica,sans-Serif" font-size="10.00">source/components.cc</text>
</a>
</g>
</g>
<!-- Node16&#45;&gt;Node17 -->
<g id="edge18" class="edge">
<title>Node16&#45;&gt;Node17</title>
<path fill="none" stroke="midnightblue" d="M873.11,-196.8C897.84,-184.34 929.17,-168.56 948.12,-159.01"/>
<polygon fill="midnightblue" stroke="midnightblue" points="871.35,-193.77 863.99,-201.4 874.5,-200.02 871.35,-193.77"/>
</g>
<!-- Node18 -->
<g id="node18" class="node">
<title>Node18</title>
<g id="a_node18"><a xlink:href="dof__plotter_8cc.html" target="_top" xlink:title=" ">
<polygon fill="none" stroke="black" points="1109,-73 1109,-92 1219,-92 1219,-73 1109,-73"/>
<text text-anchor="middle" x="1164" y="-80" font-family="Helvetica,sans-Serif" font-size="10.00">apps/dof_plotter.cc</text>
</a>
</g>
</g>
<!-- Node16&#45;&gt;Node18 -->
<g id="edge19" class="edge">
<title>Node16&#45;&gt;Node18</title>
<path fill="none" stroke="midnightblue" d="M846.01,-192.25C855.36,-173.45 871.16,-147.88 893,-134 971.8,-83.9 1008.43,-116.32 1100,-98 1109.05,-96.19 1118.78,-94.07 1127.85,-92.03"/>
<polygon fill="midnightblue" stroke="midnightblue" points="842.8,-190.84 841.71,-201.37 849.14,-193.82 842.8,-190.84"/>
</g>
<!-- Node19&#45;&gt;Node3 -->
<g id="edge21" class="edge">
<title>Node19&#45;&gt;Node3</title>
<path fill="none" stroke="midnightblue" d="M680.43,-134C559.56,-113.53 526.73,-117.17 410,-98 406.9,-97.49 403.73,-96.95 400.53,-96.39"/>
<polygon fill="midnightblue" stroke="midnightblue" points="680,-137.47 690.45,-135.71 681.19,-130.57 680,-137.47"/>
</g>
<!-- Node19&#45;&gt;Node6 -->
<g id="edge22" class="edge">
<title>Node19&#45;&gt;Node6</title>
<path fill="none" stroke="midnightblue" d="M680.6,-132.39C633.27,-121.25 571.15,-106.61 527.23,-96.27"/>
<polygon fill="midnightblue" stroke="midnightblue" points="679.93,-135.83 690.47,-134.72 681.54,-129.02 679.93,-135.83"/>
</g>
<!-- Node19&#45;&gt;Node9 -->
<g id="edge23" class="edge">
<title>Node19&#45;&gt;Node9</title>
<path fill="none" stroke="midnightblue" d="M707.25,-130.41C683.3,-120.03 653.68,-107.2 631.48,-97.58"/>
<polygon fill="midnightblue" stroke="midnightblue" points="705.89,-133.63 716.45,-134.4 708.67,-127.21 705.89,-133.63"/>
</g>
<!-- Node19&#45;&gt;Node12 -->
<g id="edge24" class="edge">
<title>Node19&#45;&gt;Node12</title>
<path fill="none" stroke="midnightblue" d="M740.32,-124.99C736.93,-115.8 733.15,-105.58 730.2,-97.58"/>
<polygon fill="midnightblue" stroke="midnightblue" points="737.05,-126.23 743.79,-134.4 743.61,-123.8 737.05,-126.23"/>
</g>
<!-- Node19&#45;&gt;Node18 -->
<g id="edge26" class="edge">
<title>Node19&#45;&gt;Node18</title>
<path fill="none" stroke="midnightblue" d="M817.6,-139.29C903.93,-127.59 1047.3,-107.75 1100,-98 1109.3,-96.28 1119.29,-94.15 1128.56,-92.06"/>
<polygon fill="midnightblue" stroke="midnightblue" points="817.06,-135.84 807.62,-140.64 818,-142.77 817.06,-135.84"/>
</g>
<!-- Node20 -->
<g id="node20" class="node">
<title>Node20</title>
<g id="a_node20"><a xlink:href="data__out_8cc.html" target="_top" xlink:title=" ">
<polygon fill="none" stroke="black" points="983,-73 983,-92 1091,-92 1091,-73 983,-73"/>
<text text-anchor="middle" x="1037" y="-80" font-family="Helvetica,sans-Serif" font-size="10.00">source/data_out.cc</text>
</a>
</g>
</g>
<!-- Node19&#45;&gt;Node20 -->
<g id="edge25" class="edge">
<title>Node19&#45;&gt;Node20</title>
<path fill="none" stroke="midnightblue" d="M817.75,-133.02C862.07,-123.04 920.94,-109.76 973,-98 981.56,-96.07 990.76,-93.98 999.44,-92.02"/>
<polygon fill="midnightblue" stroke="midnightblue" points="816.94,-129.61 807.96,-135.23 818.48,-136.44 816.94,-129.61"/>
</g>
<!-- Node21&#45;&gt;Node3 -->
<g id="edge28" class="edge">
<title>Node21&#45;&gt;Node3</title>
<path fill="none" stroke="midnightblue" d="M427.99,-129.85C407.6,-119.58 382.69,-107.03 363.94,-97.58"/>
<polygon fill="midnightblue" stroke="midnightblue" points="426.5,-133.02 437.01,-134.4 429.65,-126.77 426.5,-133.02"/>
</g>
<!-- Node21&#45;&gt;Node6 -->
<g id="edge29" class="edge">
<title>Node21&#45;&gt;Node6</title>
<path fill="none" stroke="midnightblue" d="M467.97,-124.4C469.08,-115.37 470.3,-105.41 471.27,-97.58"/>
<polygon fill="midnightblue" stroke="midnightblue" points="464.48,-124.04 466.74,-134.4 471.43,-124.9 464.48,-124.04"/>
</g>
<!-- Node21&#45;&gt;Node9 -->
<g id="edge30" class="edge">
<title>Node21&#45;&gt;Node9</title>
<path fill="none" stroke="midnightblue" d="M503.15,-129.99C524.39,-119.69 550.41,-107.07 569.98,-97.58"/>
<polygon fill="midnightblue" stroke="midnightblue" points="501.55,-126.88 494.08,-134.4 504.6,-133.18 501.55,-126.88"/>
</g>
<!-- Node21&#45;&gt;Node12 -->
<g id="edge31" class="edge">
<title>Node21&#45;&gt;Node12</title>
<path fill="none" stroke="midnightblue" d="M530.96,-132.01C574.23,-121.19 630.11,-107.22 670.79,-97.05"/>
<polygon fill="midnightblue" stroke="midnightblue" points="529.95,-128.66 521.1,-134.48 531.65,-135.45 529.95,-128.66"/>
</g>
<!-- Node22 -->
<g id="node22" class="node">
<title>Node22</title>
<g id="a_node22"><a xlink:href="grid__refinement_8cc.html" target="_top" xlink:title=" ">
<polygon fill="none" stroke="black" points="110.5,-73 110.5,-92 253.5,-92 253.5,-73 110.5,-73"/>
<text text-anchor="middle" x="182" y="-80" font-family="Helvetica,sans-Serif" font-size="10.00">source/grid_refinement.cc</text>
</a>
</g>
</g>
<!-- Node21&#45;&gt;Node22 -->
<g id="edge32" class="edge">
<title>Node21&#45;&gt;Node22</title>
<path fill="none" stroke="midnightblue" d="M396.57,-132.78C340.88,-119.99 264.4,-102.42 219.38,-92.09"/>
<polygon fill="midnightblue" stroke="midnightblue" points="395.83,-136.2 406.36,-135.03 397.4,-129.38 395.83,-136.2"/>
</g>
</g>
</svg>
