<?xml version="1.0" encoding="UTF-8" standalone="no"?>
<!DOCTYPE svg PUBLIC "-//W3C//DTD SVG 1.1//EN"
 "http://www.w3.org/Graphics/SVG/1.1/DTD/svg11.dtd">
<!-- Generated by graphviz version 2.43.0 (0)
 -->
<!-- Title: include/parsed_tools/enum.h Pages: 1 -->
<svg width="2277pt" height="374pt"
 viewBox="0.00 0.00 2276.50 374.00" xmlns="http://www.w3.org/2000/svg" xmlns:xlink="http://www.w3.org/1999/xlink">
<g id="graph0" class="graph" transform="scale(1 1) rotate(0) translate(4 370)">
<title>include/parsed_tools/enum.h</title>
<!-- Node1 -->
<g id="node1" class="node">
<title>Node1</title>
<g id="a_node1"><a xlink:title=" ">
<polygon fill="#bfbfbf" stroke="black" points="1361.5,-335.5 1361.5,-365.5 1478.5,-365.5 1478.5,-335.5 1361.5,-335.5"/>
<text text-anchor="start" x="1369.5" y="-353.5" font-family="Helvetica,sans-Serif" font-size="10.00">include/parsed_tools</text>
<text text-anchor="middle" x="1420" y="-342.5" font-family="Helvetica,sans-Serif" font-size="10.00">/enum.h</text>
</a>
</g>
</g>
<!-- Node2 -->
<g id="node2" class="node">
<title>Node2</title>
<g id="a_node2"><a xlink:href="boundary__conditions_8h.html" target="_top" xlink:title=" ">
<polygon fill="none" stroke="black" points="1129,-201.5 1129,-231.5 1259,-231.5 1259,-201.5 1129,-201.5"/>
<text text-anchor="start" x="1137" y="-219.5" font-family="Helvetica,sans-Serif" font-size="10.00">include/parsed_tools</text>
<text text-anchor="middle" x="1194" y="-208.5" font-family="Helvetica,sans-Serif" font-size="10.00">/boundary_conditions.h</text>
</a>
</g>
</g>
<!-- Node1&#45;&gt;Node2 -->
<g id="edge1" class="edge">
<title>Node1&#45;&gt;Node2</title>
<path fill="none" stroke="midnightblue" d="M1387.13,-330.3C1341.13,-303.44 1258.67,-255.27 1218.01,-231.52"/>
<polygon fill="midnightblue" stroke="midnightblue" points="1385.41,-333.35 1395.81,-335.37 1388.94,-327.31 1385.41,-333.35"/>
</g>
<!-- Node24 -->
<g id="node24" class="node">
<title>Node24</title>
<g id="a_node24"><a xlink:href="source_2pdes_2serial_2reduced__lagrange_8cc.html" target="_top" xlink:title=" ">
<polygon fill="none" stroke="black" points="1801,-67.5 1801,-97.5 1921,-97.5 1921,-67.5 1801,-67.5"/>
<text text-anchor="start" x="1809" y="-85.5" font-family="Helvetica,sans-Serif" font-size="10.00">source/pdes/serial</text>
<text text-anchor="middle" x="1861" y="-74.5" font-family="Helvetica,sans-Serif" font-size="10.00">/reduced_lagrange.cc</text>
</a>
</g>
</g>
<!-- Node1&#45;&gt;Node24 -->
<g id="edge54" class="edge">
<title>Node1&#45;&gt;Node24</title>
<path fill="none" stroke="midnightblue" d="M1488.92,-340.65C1642.71,-319.35 2006.09,-259.84 2078,-165 2086.32,-154.02 2086.57,-144.79 2078,-134 2075.5,-130.85 1984.46,-110.43 1921.11,-96.55"/>
<polygon fill="midnightblue" stroke="midnightblue" points="1488.08,-337.23 1478.65,-342.06 1489.04,-344.17 1488.08,-337.23"/>
</g>
<!-- Node30 -->
<g id="node30" class="node">
<title>Node30</title>
<g id="a_node30"><a xlink:href="components_8h.html" target="_top" xlink:title=" ">
<polygon fill="none" stroke="black" points="892.5,-268.5 892.5,-298.5 1009.5,-298.5 1009.5,-268.5 892.5,-268.5"/>
<text text-anchor="start" x="900.5" y="-286.5" font-family="Helvetica,sans-Serif" font-size="10.00">include/parsed_tools</text>
<text text-anchor="middle" x="951" y="-275.5" font-family="Helvetica,sans-Serif" font-size="10.00">/components.h</text>
</a>
</g>
</g>
<!-- Node1&#45;&gt;Node30 -->
<g id="edge29" class="edge">
<title>Node1&#45;&gt;Node30</title>
<path fill="none" stroke="midnightblue" d="M1350.99,-339.94C1258.64,-327.14 1096.45,-304.66 1009.68,-292.63"/>
<polygon fill="midnightblue" stroke="midnightblue" points="1350.69,-343.43 1361.08,-341.33 1351.65,-336.49 1350.69,-343.43"/>
</g>
<!-- Node33 -->
<g id="node33" class="node">
<title>Node33</title>
<g id="a_node33"><a xlink:href="data__out_8h.html" target="_top" xlink:title=" ">
<polygon fill="none" stroke="black" points="1412.5,-201.5 1412.5,-231.5 1529.5,-231.5 1529.5,-201.5 1412.5,-201.5"/>
<text text-anchor="start" x="1420.5" y="-219.5" font-family="Helvetica,sans-Serif" font-size="10.00">include/parsed_tools</text>
<text text-anchor="middle" x="1471" y="-208.5" font-family="Helvetica,sans-Serif" font-size="10.00">/data_out.h</text>
</a>
</g>
</g>
<!-- Node1&#45;&gt;Node33 -->
<g id="edge36" class="edge">
<title>Node1&#45;&gt;Node33</title>
<path fill="none" stroke="midnightblue" d="M1429.17,-325.75C1439.79,-298.29 1456.9,-253.99 1465.58,-231.52"/>
<polygon fill="midnightblue" stroke="midnightblue" points="1425.8,-324.78 1425.46,-335.37 1432.33,-327.31 1425.8,-324.78"/>
</g>
<!-- Node35 -->
<g id="node35" class="node">
<title>Node35</title>
<g id="a_node35"><a xlink:href="grid__refinement_8h.html" target="_top" xlink:title=" ">
<polygon fill="none" stroke="black" points="1277.5,-201.5 1277.5,-231.5 1394.5,-231.5 1394.5,-201.5 1277.5,-201.5"/>
<text text-anchor="start" x="1285.5" y="-219.5" font-family="Helvetica,sans-Serif" font-size="10.00">include/parsed_tools</text>
<text text-anchor="middle" x="1336" y="-208.5" font-family="Helvetica,sans-Serif" font-size="10.00">/grid_refinement.h</text>
</a>
</g>
</g>
<!-- Node1&#45;&gt;Node35 -->
<g id="edge45" class="edge">
<title>Node1&#45;&gt;Node35</title>
<path fill="none" stroke="midnightblue" d="M1405.58,-326.83C1388.16,-299.47 1359.41,-254.28 1344.92,-231.52"/>
<polygon fill="midnightblue" stroke="midnightblue" points="1402.69,-328.82 1411.01,-335.37 1408.59,-325.06 1402.69,-328.82"/>
</g>
<!-- Node37 -->
<g id="node37" class="node">
<title>Node37</title>
<g id="a_node37"><a xlink:href="inverse__operator_8cc.html" target="_top" xlink:title=" ">
<polygon fill="none" stroke="black" points="2125.5,-268.5 2125.5,-298.5 2268.5,-298.5 2268.5,-268.5 2125.5,-268.5"/>
<text text-anchor="start" x="2133.5" y="-286.5" font-family="Helvetica,sans-Serif" font-size="10.00">source/parsed_lac/inverse</text>
<text text-anchor="middle" x="2197" y="-275.5" font-family="Helvetica,sans-Serif" font-size="10.00">_operator.cc</text>
</a>
</g>
</g>
<!-- Node1&#45;&gt;Node37 -->
<g id="edge53" class="edge">
<title>Node1&#45;&gt;Node37</title>
<path fill="none" stroke="midnightblue" d="M1489.04,-346.61C1613.63,-340.91 1884.21,-326.34 2111,-299 2115.66,-298.44 2120.45,-297.8 2125.28,-297.11"/>
<polygon fill="midnightblue" stroke="midnightblue" points="1488.71,-343.12 1478.88,-347.07 1489.03,-350.11 1488.71,-343.12"/>
</g>
<!-- Node3 -->
<g id="node3" class="node">
<title>Node3</title>
<g id="a_node3"><a xlink:href="linear__problem_8h.html" target="_top" xlink:title=" ">
<polygon fill="none" stroke="black" points="862.5,-134.5 862.5,-164.5 993.5,-164.5 993.5,-134.5 862.5,-134.5"/>
<text text-anchor="start" x="870.5" y="-152.5" font-family="Helvetica,sans-Serif" font-size="10.00">include/pdes/mpi/linear</text>
<text text-anchor="middle" x="928" y="-141.5" font-family="Helvetica,sans-Serif" font-size="10.00">_problem.h</text>
</a>
</g>
</g>
<!-- Node2&#45;&gt;Node3 -->
<g id="edge2" class="edge">
<title>Node2&#45;&gt;Node3</title>
<path fill="none" stroke="midnightblue" d="M1126.69,-199.05C1083.2,-188.43 1027.2,-174.74 985.75,-164.61"/>
<polygon fill="midnightblue" stroke="midnightblue" points="1126.06,-202.5 1136.61,-201.48 1127.73,-195.7 1126.06,-202.5"/>
</g>
<!-- Node14 -->
<g id="node14" class="node">
<title>Node14</title>
<g id="a_node14"><a xlink:href="distributed__lagrange_8h.html" target="_top" xlink:title=" ">
<polygon fill="none" stroke="black" points="1011.5,-134.5 1011.5,-164.5 1140.5,-164.5 1140.5,-134.5 1011.5,-134.5"/>
<text text-anchor="start" x="1019.5" y="-152.5" font-family="Helvetica,sans-Serif" font-size="10.00">include/pdes/serial</text>
<text text-anchor="middle" x="1076" y="-141.5" font-family="Helvetica,sans-Serif" font-size="10.00">/distributed_lagrange.h</text>
</a>
</g>
</g>
<!-- Node2&#45;&gt;Node14 -->
<g id="edge13" class="edge">
<title>Node2&#45;&gt;Node14</title>
<path fill="none" stroke="midnightblue" d="M1159.39,-196.44C1140.88,-186.24 1118.48,-173.9 1101.55,-164.58"/>
<polygon fill="midnightblue" stroke="midnightblue" points="1157.95,-199.64 1168.4,-201.4 1161.33,-193.51 1157.95,-199.64"/>
</g>
<!-- Node17 -->
<g id="node17" class="node">
<title>Node17</title>
<g id="a_node17"><a xlink:href="serial_2linear__elasticity_8h.html" target="_top" xlink:title=" ">
<polygon fill="none" stroke="black" points="1159,-134.5 1159,-164.5 1267,-164.5 1267,-134.5 1159,-134.5"/>
<text text-anchor="start" x="1167" y="-152.5" font-family="Helvetica,sans-Serif" font-size="10.00">include/pdes/serial</text>
<text text-anchor="middle" x="1213" y="-141.5" font-family="Helvetica,sans-Serif" font-size="10.00">/linear_elasticity.h</text>
</a>
</g>
</g>
<!-- Node2&#45;&gt;Node17 -->
<g id="edge16" class="edge">
<title>Node2&#45;&gt;Node17</title>
<path fill="none" stroke="midnightblue" d="M1200.96,-191.7C1203.62,-182.59 1206.57,-172.49 1208.89,-164.58"/>
<polygon fill="midnightblue" stroke="midnightblue" points="1197.57,-190.82 1198.12,-201.4 1204.29,-192.78 1197.57,-190.82"/>
</g>
<!-- Node20 -->
<g id="node20" class="node">
<title>Node20</title>
<g id="a_node20"><a xlink:href="serial_2poisson_8h.html" target="_top" xlink:title=" ">
<polygon fill="none" stroke="black" points="1285,-134.5 1285,-164.5 1393,-164.5 1393,-134.5 1285,-134.5"/>
<text text-anchor="start" x="1293" y="-152.5" font-family="Helvetica,sans-Serif" font-size="10.00">include/pdes/serial</text>
<text text-anchor="middle" x="1339" y="-141.5" font-family="Helvetica,sans-Serif" font-size="10.00">/poisson.h</text>
</a>
</g>
</g>
<!-- Node2&#45;&gt;Node20 -->
<g id="edge19" class="edge">
<title>Node2&#45;&gt;Node20</title>
<path fill="none" stroke="midnightblue" d="M1234.67,-197.27C1257.76,-186.92 1286.24,-174.15 1307.6,-164.58"/>
<polygon fill="midnightblue" stroke="midnightblue" points="1233.16,-194.11 1225.46,-201.4 1236.02,-200.5 1233.16,-194.11"/>
</g>
<!-- Node23 -->
<g id="node23" class="node">
<title>Node23</title>
<g id="a_node23"><a xlink:href="reduced__lagrange_8h.html" target="_top" xlink:title=" ">
<polygon fill="none" stroke="black" points="1411,-134.5 1411,-164.5 1527,-164.5 1527,-134.5 1411,-134.5"/>
<text text-anchor="start" x="1419" y="-152.5" font-family="Helvetica,sans-Serif" font-size="10.00">include/pdes/serial</text>
<text text-anchor="middle" x="1469" y="-141.5" font-family="Helvetica,sans-Serif" font-size="10.00">/reduced_lagrange.h</text>
</a>
</g>
</g>
<!-- Node2&#45;&gt;Node23 -->
<g id="edge22" class="edge">
<title>Node2&#45;&gt;Node23</title>
<path fill="none" stroke="midnightblue" d="M1263.12,-199.16C1308.64,-188.4 1367.58,-174.47 1410.72,-164.28"/>
<polygon fill="midnightblue" stroke="midnightblue" points="1262.26,-195.77 1253.33,-201.48 1263.87,-202.58 1262.26,-195.77"/>
</g>
<!-- Node26 -->
<g id="node26" class="node">
<title>Node26</title>
<g id="a_node26"><a xlink:href="serial_2stokes_8h.html" target="_top" xlink:title=" ">
<polygon fill="none" stroke="black" points="1545,-134.5 1545,-164.5 1653,-164.5 1653,-134.5 1545,-134.5"/>
<text text-anchor="start" x="1553" y="-152.5" font-family="Helvetica,sans-Serif" font-size="10.00">include/pdes/serial</text>
<text text-anchor="middle" x="1599" y="-141.5" font-family="Helvetica,sans-Serif" font-size="10.00">/stokes.h</text>
</a>
</g>
</g>
<!-- Node2&#45;&gt;Node26 -->
<g id="edge25" class="edge">
<title>Node2&#45;&gt;Node26</title>
<path fill="none" stroke="midnightblue" d="M1268.69,-201.05C1268.8,-201.03 1268.9,-201.02 1269,-201 1387.16,-181.63 1418.2,-186.45 1536,-165 1538.87,-164.48 1541.81,-163.91 1544.77,-163.32"/>
<polygon fill="midnightblue" stroke="midnightblue" points="1268.27,-197.57 1259,-202.7 1269.45,-204.47 1268.27,-197.57"/>
</g>
<!-- Node29 -->
<g id="node29" class="node">
<title>Node29</title>
<g id="a_node29"><a xlink:href="boundary__conditions_8cc.html" target="_top" xlink:title=" ">
<polygon fill="none" stroke="black" points="677.5,-140 677.5,-159 844.5,-159 844.5,-140 677.5,-140"/>
<text text-anchor="middle" x="761" y="-147" font-family="Helvetica,sans-Serif" font-size="10.00">source/boundary_conditions.cc</text>
</a>
</g>
</g>
<!-- Node2&#45;&gt;Node29 -->
<g id="edge28" class="edge">
<title>Node2&#45;&gt;Node29</title>
<path fill="none" stroke="midnightblue" d="M1118.9,-204.5C1049.99,-194.38 945.09,-178.87 854,-165 841.4,-163.08 827.84,-160.99 815.08,-159"/>
<polygon fill="midnightblue" stroke="midnightblue" points="1118.4,-207.97 1128.8,-205.96 1119.41,-201.04 1118.4,-207.97"/>
</g>
<!-- Node4 -->
<g id="node4" class="node">
<title>Node4</title>
<g id="a_node4"><a xlink:href="mpi_2linear__elasticity_8h.html" target="_top" xlink:title=" ">
<polygon fill="none" stroke="black" points="158.5,-67.5 158.5,-97.5 289.5,-97.5 289.5,-67.5 158.5,-67.5"/>
<text text-anchor="start" x="166.5" y="-85.5" font-family="Helvetica,sans-Serif" font-size="10.00">include/pdes/mpi/linear</text>
<text text-anchor="middle" x="224" y="-74.5" font-family="Helvetica,sans-Serif" font-size="10.00">_elasticity.h</text>
</a>
</g>
</g>
<!-- Node3&#45;&gt;Node4 -->
<g id="edge3" class="edge">
<title>Node3&#45;&gt;Node4</title>
<path fill="none" stroke="midnightblue" d="M852.07,-133.85C625.21,-104.39 564.59,-119.89 340,-98 323.64,-96.41 306.02,-94.37 289.57,-92.33"/>
<polygon fill="midnightblue" stroke="midnightblue" points="851.93,-137.36 862.3,-135.19 852.84,-130.42 851.93,-137.36"/>
</g>
<!-- Node7 -->
<g id="node7" class="node">
<title>Node7</title>
<g id="a_node7"><a xlink:href="mpi_2poisson_8h.html" target="_top" xlink:title=" ">
<polygon fill="none" stroke="black" points="548.5,-73 548.5,-92 697.5,-92 697.5,-73 548.5,-73"/>
<text text-anchor="middle" x="623" y="-80" font-family="Helvetica,sans-Serif" font-size="10.00">include/pdes/mpi/poisson.h</text>
</a>
</g>
</g>
<!-- Node3&#45;&gt;Node7 -->
<g id="edge6" class="edge">
<title>Node3&#45;&gt;Node7</title>
<path fill="none" stroke="midnightblue" d="M852.39,-132.39C792.43,-119.61 711,-102.25 663.02,-92.03"/>
<polygon fill="midnightblue" stroke="midnightblue" points="851.69,-135.81 862.2,-134.48 853.14,-128.97 851.69,-135.81"/>
</g>
<!-- Node10 -->
<g id="node10" class="node">
<title>Node10</title>
<g id="a_node10"><a xlink:href="mpi_2stokes_8h.html" target="_top" xlink:title=" ">
<polygon fill="none" stroke="black" points="349.5,-73 349.5,-92 492.5,-92 492.5,-73 349.5,-73"/>
<text text-anchor="middle" x="421" y="-80" font-family="Helvetica,sans-Serif" font-size="10.00">include/pdes/mpi/stokes.h</text>
</a>
</g>
</g>
<!-- Node3&#45;&gt;Node10 -->
<g id="edge9" class="edge">
<title>Node3&#45;&gt;Node10</title>
<path fill="none" stroke="midnightblue" d="M852.12,-133.77C713.46,-112.56 676.23,-114.11 540,-98 523.88,-96.09 506.53,-94 490.21,-92.02"/>
<polygon fill="midnightblue" stroke="midnightblue" points="851.86,-137.28 862.28,-135.34 852.93,-130.36 851.86,-137.28"/>
</g>
<!-- Node13 -->
<g id="node13" class="node">
<title>Node13</title>
<g id="a_node13"><a xlink:href="linear__problem_8cc.html" target="_top" xlink:title=" ">
<polygon fill="none" stroke="black" points="716,-67.5 716,-97.5 844,-97.5 844,-67.5 716,-67.5"/>
<text text-anchor="start" x="724" y="-85.5" font-family="Helvetica,sans-Serif" font-size="10.00">source/pdes/mpi/linear</text>
<text text-anchor="middle" x="780" y="-74.5" font-family="Helvetica,sans-Serif" font-size="10.00">_problem.cc</text>
</a>
</g>
</g>
<!-- Node3&#45;&gt;Node13 -->
<g id="edge12" class="edge">
<title>Node3&#45;&gt;Node13</title>
<path fill="none" stroke="midnightblue" d="M886.49,-130.27C862.92,-119.92 833.86,-107.15 812.05,-97.58"/>
<polygon fill="midnightblue" stroke="midnightblue" points="885.32,-133.58 895.89,-134.4 888.14,-127.17 885.32,-133.58"/>
</g>
<!-- Node5 -->
<g id="node5" class="node">
<title>Node5</title>
<g id="a_node5"><a xlink:href="source_2pdes_2mpi_2linear__elasticity_8cc.html" target="_top" xlink:title=" ">
<polygon fill="none" stroke="black" points="0,-0.5 0,-30.5 128,-30.5 128,-0.5 0,-0.5"/>
<text text-anchor="start" x="8" y="-18.5" font-family="Helvetica,sans-Serif" font-size="10.00">source/pdes/mpi/linear</text>
<text text-anchor="middle" x="64" y="-7.5" font-family="Helvetica,sans-Serif" font-size="10.00">_elasticity.cc</text>
</a>
</g>
</g>
<!-- Node4&#45;&gt;Node5 -->
<g id="edge4" class="edge">
<title>Node4&#45;&gt;Node5</title>
<path fill="none" stroke="midnightblue" d="M179.8,-63.54C154.2,-53.14 122.43,-40.24 98.65,-30.58"/>
<polygon fill="midnightblue" stroke="midnightblue" points="178.7,-66.87 189.28,-67.4 181.34,-60.39 178.7,-66.87"/>
</g>
<!-- Node6 -->
<g id="node6" class="node">
<title>Node6</title>
<g id="a_node6"><a xlink:href="apps_2mpi_2linear__elasticity_8cc.html" target="_top" xlink:title=" ">
<polygon fill="none" stroke="black" points="146.5,-6 146.5,-25 301.5,-25 301.5,-6 146.5,-6"/>
<text text-anchor="middle" x="224" y="-13" font-family="Helvetica,sans-Serif" font-size="10.00">apps/mpi/linear_elasticity.cc</text>
</a>
</g>
</g>
<!-- Node4&#45;&gt;Node6 -->
<g id="edge5" class="edge">
<title>Node4&#45;&gt;Node6</title>
<path fill="none" stroke="midnightblue" d="M224,-57.25C224,-46.02 224,-33.38 224,-25.19"/>
<polygon fill="midnightblue" stroke="midnightblue" points="220.5,-57.4 224,-67.4 227.5,-57.4 220.5,-57.4"/>
</g>
<!-- Node8 -->
<g id="node8" class="node">
<title>Node8</title>
<g id="a_node8"><a xlink:href="source_2pdes_2mpi_2poisson_8cc.html" target="_top" xlink:title=" ">
<polygon fill="none" stroke="black" points="611.5,-6 611.5,-25 762.5,-25 762.5,-6 611.5,-6"/>
<text text-anchor="middle" x="687" y="-13" font-family="Helvetica,sans-Serif" font-size="10.00">source/pdes/mpi/poisson.cc</text>
</a>
</g>
</g>
<!-- Node7&#45;&gt;Node8 -->
<g id="edge7" class="edge">
<title>Node7&#45;&gt;Node8</title>
<path fill="none" stroke="midnightblue" d="M638.76,-65.5C651.31,-52.75 668.4,-35.39 678.51,-25.13"/>
<polygon fill="midnightblue" stroke="midnightblue" points="636.15,-63.15 631.63,-72.73 641.14,-68.06 636.15,-63.15"/>
</g>
<!-- Node9 -->
<g id="node9" class="node">
<title>Node9</title>
<g id="a_node9"><a xlink:href="apps_2mpi_2poisson_8cc.html" target="_top" xlink:title=" ">
<polygon fill="none" stroke="black" points="781,-6 781,-25 897,-25 897,-6 781,-6"/>
<text text-anchor="middle" x="839" y="-13" font-family="Helvetica,sans-Serif" font-size="10.00">apps/mpi/poisson.cc</text>
</a>
</g>
</g>
<!-- Node7&#45;&gt;Node9 -->
<g id="edge8" class="edge">
<title>Node7&#45;&gt;Node9</title>
<path fill="none" stroke="midnightblue" d="M661.45,-69.93C704.22,-57.06 772.31,-36.57 810.54,-25.06"/>
<polygon fill="midnightblue" stroke="midnightblue" points="660.25,-66.64 651.68,-72.87 662.27,-73.34 660.25,-66.64"/>
</g>
<!-- Node11 -->
<g id="node11" class="node">
<title>Node11</title>
<g id="a_node11"><a xlink:href="source_2pdes_2mpi_2stokes_8cc.html" target="_top" xlink:title=" ">
<polygon fill="none" stroke="black" points="448.5,-6 448.5,-25 593.5,-25 593.5,-6 448.5,-6"/>
<text text-anchor="middle" x="521" y="-13" font-family="Helvetica,sans-Serif" font-size="10.00">source/pdes/mpi/stokes.cc</text>
</a>
</g>
</g>
<!-- Node10&#45;&gt;Node11 -->
<g id="edge10" class="edge">
<title>Node10&#45;&gt;Node11</title>
<path fill="none" stroke="midnightblue" d="M442.89,-67.27C462.69,-54.4 491.19,-35.88 507.73,-25.13"/>
<polygon fill="midnightblue" stroke="midnightblue" points="440.96,-64.35 434.49,-72.73 444.78,-70.22 440.96,-64.35"/>
</g>
<!-- Node12 -->
<g id="node12" class="node">
<title>Node12</title>
<g id="a_node12"><a xlink:href="apps_2mpi_2stokes_8cc.html" target="_top" xlink:title=" ">
<polygon fill="none" stroke="black" points="320,-6 320,-25 430,-25 430,-6 320,-6"/>
<text text-anchor="middle" x="375" y="-13" font-family="Helvetica,sans-Serif" font-size="10.00">apps/mpi/stokes.cc</text>
</a>
</g>
</g>
<!-- Node10&#45;&gt;Node12 -->
<g id="edge11" class="edge">
<title>Node10&#45;&gt;Node12</title>
<path fill="none" stroke="midnightblue" d="M408.9,-64.4C399.96,-51.77 388.17,-35.1 381.11,-25.13"/>
<polygon fill="midnightblue" stroke="midnightblue" points="406.16,-66.59 414.8,-72.73 411.88,-62.55 406.16,-66.59"/>
</g>
<!-- Node15 -->
<g id="node15" class="node">
<title>Node15</title>
<g id="a_node15"><a xlink:href="source_2pdes_2serial_2distributed__lagrange_8cc.html" target="_top" xlink:title=" ">
<polygon fill="none" stroke="black" points="862,-67.5 862,-97.5 996,-97.5 996,-67.5 862,-67.5"/>
<text text-anchor="start" x="870" y="-85.5" font-family="Helvetica,sans-Serif" font-size="10.00">source/pdes/serial</text>
<text text-anchor="middle" x="929" y="-74.5" font-family="Helvetica,sans-Serif" font-size="10.00">/distributed_lagrange.cc</text>
</a>
</g>
</g>
<!-- Node14&#45;&gt;Node15 -->
<g id="edge14" class="edge">
<title>Node14&#45;&gt;Node15</title>
<path fill="none" stroke="midnightblue" d="M1034.77,-130.27C1011.36,-119.92 982.49,-107.15 960.83,-97.58"/>
<polygon fill="midnightblue" stroke="midnightblue" points="1033.54,-133.55 1044.1,-134.4 1036.37,-127.15 1033.54,-133.55"/>
</g>
<!-- Node16 -->
<g id="node16" class="node">
<title>Node16</title>
<g id="a_node16"><a xlink:href="apps_2serial_2distributed__lagrange_8cc.html" target="_top" xlink:title=" ">
<polygon fill="none" stroke="black" points="1014.5,-67.5 1014.5,-97.5 1139.5,-97.5 1139.5,-67.5 1014.5,-67.5"/>
<text text-anchor="start" x="1022.5" y="-85.5" font-family="Helvetica,sans-Serif" font-size="10.00">apps/serial/distributed</text>
<text text-anchor="middle" x="1077" y="-74.5" font-family="Helvetica,sans-Serif" font-size="10.00">_lagrange.cc</text>
</a>
</g>
</g>
<!-- Node14&#45;&gt;Node16 -->
<g id="edge15" class="edge">
<title>Node14&#45;&gt;Node16</title>
<path fill="none" stroke="midnightblue" d="M1076.38,-124.11C1076.51,-115.15 1076.66,-105.32 1076.78,-97.58"/>
<polygon fill="midnightblue" stroke="midnightblue" points="1072.87,-124.34 1076.22,-134.4 1079.87,-124.45 1072.87,-124.34"/>
</g>
<!-- Node18 -->
<g id="node18" class="node">
<title>Node18</title>
<g id="a_node18"><a xlink:href="source_2pdes_2serial_2linear__elasticity_8cc.html" target="_top" xlink:title=" ">
<polygon fill="none" stroke="black" points="1158,-67.5 1158,-97.5 1268,-97.5 1268,-67.5 1158,-67.5"/>
<text text-anchor="start" x="1166" y="-85.5" font-family="Helvetica,sans-Serif" font-size="10.00">source/pdes/serial</text>
<text text-anchor="middle" x="1213" y="-74.5" font-family="Helvetica,sans-Serif" font-size="10.00">/linear_elasticity.cc</text>
</a>
</g>
</g>
<!-- Node17&#45;&gt;Node18 -->
<g id="edge17" class="edge">
<title>Node17&#45;&gt;Node18</title>
<path fill="none" stroke="midnightblue" d="M1213,-124.11C1213,-115.15 1213,-105.32 1213,-97.58"/>
<polygon fill="midnightblue" stroke="midnightblue" points="1209.5,-124.4 1213,-134.4 1216.5,-124.4 1209.5,-124.4"/>
</g>
<!-- Node19 -->
<g id="node19" class="node">
<title>Node19</title>
<g id="a_node19"><a xlink:href="apps_2serial_2linear__elasticity_8cc.html" target="_top" xlink:title=" ">
<polygon fill="none" stroke="black" points="1286.5,-67.5 1286.5,-97.5 1387.5,-97.5 1387.5,-67.5 1286.5,-67.5"/>
<text text-anchor="start" x="1294.5" y="-85.5" font-family="Helvetica,sans-Serif" font-size="10.00">apps/serial/linear</text>
<text text-anchor="middle" x="1337" y="-74.5" font-family="Helvetica,sans-Serif" font-size="10.00">_elasticity.cc</text>
</a>
</g>
</g>
<!-- Node17&#45;&gt;Node19 -->
<g id="edge18" class="edge">
<title>Node17&#45;&gt;Node19</title>
<path fill="none" stroke="midnightblue" d="M1248.84,-129.71C1268.39,-119.46 1292.2,-106.98 1310.15,-97.58"/>
<polygon fill="midnightblue" stroke="midnightblue" points="1247.14,-126.65 1239.91,-134.4 1250.39,-132.85 1247.14,-126.65"/>
</g>
<!-- Node21 -->
<g id="node21" class="node">
<title>Node21</title>
<g id="a_node21"><a xlink:href="source_2pdes_2serial_2poisson_8cc.html" target="_top" xlink:title=" ">
<polygon fill="none" stroke="black" points="1405.5,-67.5 1405.5,-97.5 1510.5,-97.5 1510.5,-67.5 1405.5,-67.5"/>
<text text-anchor="start" x="1413.5" y="-85.5" font-family="Helvetica,sans-Serif" font-size="10.00">source/pdes/serial</text>
<text text-anchor="middle" x="1458" y="-74.5" font-family="Helvetica,sans-Serif" font-size="10.00">/poisson.cc</text>
</a>
</g>
</g>
<!-- Node20&#45;&gt;Node21 -->
<g id="edge20" class="edge">
<title>Node20&#45;&gt;Node21</title>
<path fill="none" stroke="midnightblue" d="M1373.65,-129.57C1392.37,-119.35 1415.09,-106.94 1432.23,-97.58"/>
<polygon fill="midnightblue" stroke="midnightblue" points="1371.92,-126.53 1364.82,-134.4 1375.28,-132.67 1371.92,-126.53"/>
</g>
<!-- Node22 -->
<g id="node22" class="node">
<title>Node22</title>
<g id="a_node22"><a xlink:href="apps_2serial_2poisson_8cc.html" target="_top" xlink:title=" ">
<polygon fill="none" stroke="black" points="1529,-73 1529,-92 1653,-92 1653,-73 1529,-73"/>
<text text-anchor="middle" x="1591" y="-80" font-family="Helvetica,sans-Serif" font-size="10.00">apps/serial/poisson.cc</text>
</a>
</g>
</g>
<!-- Node20&#45;&gt;Node22 -->
<g id="edge21" class="edge">
<title>Node20&#45;&gt;Node22</title>
<path fill="none" stroke="midnightblue" d="M1403.01,-131.99C1452.36,-119.26 1518.61,-102.17 1557.85,-92.05"/>
<polygon fill="midnightblue" stroke="midnightblue" points="1401.87,-128.67 1393.06,-134.56 1403.62,-135.45 1401.87,-128.67"/>
</g>
<!-- Node23&#45;&gt;Node24 -->
<g id="edge23" class="edge">
<title>Node23&#45;&gt;Node24</title>
<path fill="none" stroke="midnightblue" d="M1537.21,-133.87C1650.86,-114.04 1682.03,-117.26 1792,-98 1794.89,-97.49 1797.85,-96.95 1800.84,-96.39"/>
<polygon fill="midnightblue" stroke="midnightblue" points="1536.29,-130.48 1527.05,-135.66 1537.51,-137.37 1536.29,-130.48"/>
</g>
<!-- Node25 -->
<g id="node25" class="node">
<title>Node25</title>
<g id="a_node25"><a xlink:href="apps_2serial_2reduced__lagrange_8cc.html" target="_top" xlink:title=" ">
<polygon fill="none" stroke="black" points="1671,-67.5 1671,-97.5 1783,-97.5 1783,-67.5 1671,-67.5"/>
<text text-anchor="start" x="1679" y="-85.5" font-family="Helvetica,sans-Serif" font-size="10.00">apps/serial/reduced</text>
<text text-anchor="middle" x="1727" y="-74.5" font-family="Helvetica,sans-Serif" font-size="10.00">_lagrange.cc</text>
</a>
</g>
</g>
<!-- Node23&#45;&gt;Node25 -->
<g id="edge24" class="edge">
<title>Node23&#45;&gt;Node25</title>
<path fill="none" stroke="midnightblue" d="M1534.55,-131.98C1576.7,-121.37 1630.86,-107.72 1670.99,-97.61"/>
<polygon fill="midnightblue" stroke="midnightblue" points="1533.51,-128.64 1524.66,-134.48 1535.22,-135.43 1533.51,-128.64"/>
</g>
<!-- Node27 -->
<g id="node27" class="node">
<title>Node27</title>
<g id="a_node27"><a xlink:href="source_2pdes_2serial_2stokes_8cc.html" target="_top" xlink:title=" ">
<polygon fill="none" stroke="black" points="1939.5,-67.5 1939.5,-97.5 2044.5,-97.5 2044.5,-67.5 1939.5,-67.5"/>
<text text-anchor="start" x="1947.5" y="-85.5" font-family="Helvetica,sans-Serif" font-size="10.00">source/pdes/serial</text>
<text text-anchor="middle" x="1992" y="-74.5" font-family="Helvetica,sans-Serif" font-size="10.00">/stokes.cc</text>
</a>
</g>
</g>
<!-- Node26&#45;&gt;Node27 -->
<g id="edge26" class="edge">
<title>Node26&#45;&gt;Node27</title>
<path fill="none" stroke="midnightblue" d="M1662.69,-134.06C1662.8,-134.04 1662.9,-134.02 1663,-134 1780.84,-112.75 1812.23,-119.66 1930,-98 1933.04,-97.44 1936.16,-96.83 1939.31,-96.19"/>
<polygon fill="midnightblue" stroke="midnightblue" points="1662.22,-130.58 1653.05,-135.9 1663.53,-137.46 1662.22,-130.58"/>
</g>
<!-- Node28 -->
<g id="node28" class="node">
<title>Node28</title>
<g id="a_node28"><a xlink:href="apps_2serial_2stokes_8cc.html" target="_top" xlink:title=" ">
<polygon fill="none" stroke="black" points="2063,-73 2063,-92 2181,-92 2181,-73 2063,-73"/>
<text text-anchor="middle" x="2122" y="-80" font-family="Helvetica,sans-Serif" font-size="10.00">apps/serial/stokes.cc</text>
</a>
</g>
</g>
<!-- Node26&#45;&gt;Node28 -->
<g id="edge27" class="edge">
<title>Node26&#45;&gt;Node28</title>
<path fill="none" stroke="midnightblue" d="M1662.69,-134.05C1662.8,-134.03 1662.9,-134.02 1663,-134 1835.36,-106.66 1881.47,-124.24 2054,-98 2064.38,-96.42 2075.56,-94.24 2085.8,-92.05"/>
<polygon fill="midnightblue" stroke="midnightblue" points="1662.27,-130.57 1653.03,-135.74 1663.48,-137.46 1662.27,-130.57"/>
</g>
<!-- Node30&#45;&gt;Node2 -->
<g id="edge30" class="edge">
<title>Node30&#45;&gt;Node2</title>
<path fill="none" stroke="midnightblue" d="M1013.25,-265.85C1052.86,-255.25 1103.61,-241.68 1141.25,-231.61"/>
<polygon fill="midnightblue" stroke="midnightblue" points="1012.18,-262.51 1003.43,-268.48 1013.99,-269.27 1012.18,-262.51"/>
</g>
<!-- Node30&#45;&gt;Node5 -->
<g id="edge33" class="edge">
<title>Node30&#45;&gt;Node5</title>
<path fill="none" stroke="midnightblue" d="M882.2,-271.86C824.29,-262.53 739.41,-247.99 666,-232 434.07,-181.48 356.28,-213.67 149,-98 117.76,-80.57 89.51,-48.88 74.76,-30.58"/>
<polygon fill="midnightblue" stroke="midnightblue" points="881.91,-275.36 892.33,-273.48 883.01,-268.44 881.91,-275.36"/>
</g>
<!-- Node30&#45;&gt;Node11 -->
<g id="edge34" class="edge">
<title>Node30&#45;&gt;Node11</title>
<path fill="none" stroke="midnightblue" d="M882.46,-271.96C789.43,-253.83 625.06,-207.51 540,-98 522.89,-75.97 520.76,-41.14 520.76,-25.1"/>
<polygon fill="midnightblue" stroke="midnightblue" points="881.86,-275.41 892.33,-273.83 883.16,-268.53 881.86,-275.41"/>
</g>
<!-- Node30&#45;&gt;Node29 -->
<g id="edge31" class="edge">
<title>Node30&#45;&gt;Node29</title>
<path fill="none" stroke="midnightblue" d="M922.22,-262.51C880.06,-233.22 803.27,-179.87 773.37,-159.1"/>
<polygon fill="midnightblue" stroke="midnightblue" points="920.46,-265.54 930.67,-268.37 924.45,-259.79 920.46,-265.54"/>
</g>
<!-- Node31 -->
<g id="node31" class="node">
<title>Node31</title>
<g id="a_node31"><a xlink:href="components_8cc.html" target="_top" xlink:title=" ">
<polygon fill="none" stroke="black" points="888.5,-207 888.5,-226 1013.5,-226 1013.5,-207 888.5,-207"/>
<text text-anchor="middle" x="951" y="-214" font-family="Helvetica,sans-Serif" font-size="10.00">source/components.cc</text>
</a>
</g>
</g>
<!-- Node30&#45;&gt;Node31 -->
<g id="edge32" class="edge">
<title>Node30&#45;&gt;Node31</title>
<path fill="none" stroke="midnightblue" d="M951,-258.25C951,-247.02 951,-234.38 951,-226.19"/>
<polygon fill="midnightblue" stroke="midnightblue" points="947.5,-258.4 951,-268.4 954.5,-258.4 947.5,-258.4"/>
</g>
<!-- Node32 -->
<g id="node32" class="node">
<title>Node32</title>
<g id="a_node32"><a xlink:href="dof__plotter_8cc.html" target="_top" xlink:title="Degrees of freedom plotter.">
<polygon fill="none" stroke="black" points="1959,-140 1959,-159 2069,-159 2069,-140 1959,-140"/>
<text text-anchor="middle" x="2014" y="-147" font-family="Helvetica,sans-Serif" font-size="10.00">apps/dof_plotter.cc</text>
</a>
</g>
</g>
<!-- Node30&#45;&gt;Node32 -->
<g id="edge35" class="edge">
<title>Node30&#45;&gt;Node32</title>
<path fill="none" stroke="midnightblue" d="M1019.86,-278.29C1129.85,-271.18 1351.85,-255.26 1539,-232 1722.67,-209.18 1768.33,-200.35 1950,-165 1959.17,-163.22 1969.03,-161.09 1978.2,-159.02"/>
<polygon fill="midnightblue" stroke="midnightblue" points="1019.33,-274.81 1009.57,-278.95 1019.78,-281.8 1019.33,-274.81"/>
</g>
<!-- Node33&#45;&gt;Node3 -->
<g id="edge37" class="edge">
<title>Node33&#45;&gt;Node3</title>
<path fill="none" stroke="midnightblue" d="M1402.35,-200.86C1225.37,-174.59 1176.98,-189.56 1003,-165 999.98,-164.57 996.9,-164.11 993.79,-163.61"/>
<polygon fill="midnightblue" stroke="midnightblue" points="1401.84,-204.33 1412.25,-202.36 1402.88,-197.4 1401.84,-204.33"/>
</g>
<!-- Node33&#45;&gt;Node14 -->
<g id="edge38" class="edge">
<title>Node33&#45;&gt;Node14</title>
<path fill="none" stroke="midnightblue" d="M1402.2,-200.75C1290.04,-181.08 1259.24,-183.43 1150,-165 1146.9,-164.48 1143.73,-163.93 1140.54,-163.35"/>
<polygon fill="midnightblue" stroke="midnightblue" points="1401.76,-204.23 1412.22,-202.53 1402.99,-197.34 1401.76,-204.23"/>
</g>
<!-- Node33&#45;&gt;Node17 -->
<g id="edge39" class="edge">
<title>Node33&#45;&gt;Node17</title>
<path fill="none" stroke="midnightblue" d="M1405.58,-199.02C1362.79,-188.24 1307.57,-174.33 1267.24,-164.16"/>
<polygon fill="midnightblue" stroke="midnightblue" points="1404.78,-202.43 1415.34,-201.48 1406.49,-195.64 1404.78,-202.43"/>
</g>
<!-- Node33&#45;&gt;Node20 -->
<g id="edge40" class="edge">
<title>Node33&#45;&gt;Node20</title>
<path fill="none" stroke="midnightblue" d="M1433.13,-196.85C1412.26,-186.58 1386.77,-174.03 1367.59,-164.58"/>
<polygon fill="midnightblue" stroke="midnightblue" points="1431.84,-200.12 1442.36,-201.4 1434.93,-193.84 1431.84,-200.12"/>
</g>
<!-- Node33&#45;&gt;Node23 -->
<g id="edge41" class="edge">
<title>Node33&#45;&gt;Node23</title>
<path fill="none" stroke="midnightblue" d="M1470.25,-191.11C1469.97,-182.15 1469.67,-172.32 1469.43,-164.58"/>
<polygon fill="midnightblue" stroke="midnightblue" points="1466.76,-191.51 1470.57,-201.4 1473.76,-191.29 1466.76,-191.51"/>
</g>
<!-- Node33&#45;&gt;Node26 -->
<g id="edge42" class="edge">
<title>Node33&#45;&gt;Node26</title>
<path fill="none" stroke="midnightblue" d="M1507.72,-196.85C1527.96,-186.58 1552.67,-174.03 1571.28,-164.58"/>
<polygon fill="midnightblue" stroke="midnightblue" points="1506.11,-193.75 1498.77,-201.4 1509.28,-199.99 1506.11,-193.75"/>
</g>
<!-- Node33&#45;&gt;Node32 -->
<g id="edge44" class="edge">
<title>Node33&#45;&gt;Node32</title>
<path fill="none" stroke="midnightblue" d="M1539.71,-210.81C1633.03,-203.86 1804.88,-189 1950,-165 1959.67,-163.4 1970.06,-161.24 1979.6,-159.08"/>
<polygon fill="midnightblue" stroke="midnightblue" points="1539.26,-207.34 1529.55,-211.56 1539.78,-214.32 1539.26,-207.34"/>
</g>
<!-- Node34 -->
<g id="node34" class="node">
<title>Node34</title>
<g id="a_node34"><a xlink:href="data__out_8cc.html" target="_top" xlink:title=" ">
<polygon fill="none" stroke="black" points="1833,-140 1833,-159 1941,-159 1941,-140 1833,-140"/>
<text text-anchor="middle" x="1887" y="-147" font-family="Helvetica,sans-Serif" font-size="10.00">source/data_out.cc</text>
</a>
</g>
</g>
<!-- Node33&#45;&gt;Node34 -->
<g id="edge43" class="edge">
<title>Node33&#45;&gt;Node34</title>
<path fill="none" stroke="midnightblue" d="M1539.85,-207.39C1611.21,-198.58 1725.82,-183.29 1824,-165 1833.27,-163.27 1843.24,-161.12 1852.45,-159"/>
<polygon fill="midnightblue" stroke="midnightblue" points="1539.15,-203.95 1529.65,-208.64 1540,-210.9 1539.15,-203.95"/>
</g>
<!-- Node35&#45;&gt;Node3 -->
<g id="edge46" class="edge">
<title>Node35&#45;&gt;Node3</title>
<path fill="none" stroke="midnightblue" d="M1267.28,-200.96C1149.17,-180.78 1117.08,-183.76 1003,-165 999.99,-164.51 996.92,-163.98 993.81,-163.44"/>
<polygon fill="midnightblue" stroke="midnightblue" points="1267,-204.47 1277.45,-202.72 1268.19,-197.57 1267,-204.47"/>
</g>
<!-- Node35&#45;&gt;Node14 -->
<g id="edge47" class="edge">
<title>Node35&#45;&gt;Node14</title>
<path fill="none" stroke="midnightblue" d="M1269.94,-198.98C1227.47,-188.37 1172.88,-174.72 1132.44,-164.61"/>
<polygon fill="midnightblue" stroke="midnightblue" points="1269.35,-202.45 1279.9,-201.48 1271.05,-195.66 1269.35,-202.45"/>
</g>
<!-- Node35&#45;&gt;Node17 -->
<g id="edge48" class="edge">
<title>Node35&#45;&gt;Node17</title>
<path fill="none" stroke="midnightblue" d="M1300.45,-196.71C1281.05,-186.46 1257.44,-173.98 1239.64,-164.58"/>
<polygon fill="midnightblue" stroke="midnightblue" points="1298.83,-199.82 1309.31,-201.4 1302.1,-193.63 1298.83,-199.82"/>
</g>
<!-- Node35&#45;&gt;Node20 -->
<g id="edge49" class="edge">
<title>Node35&#45;&gt;Node20</title>
<path fill="none" stroke="midnightblue" d="M1337.11,-191.4C1337.53,-182.37 1337.99,-172.41 1338.35,-164.58"/>
<polygon fill="midnightblue" stroke="midnightblue" points="1333.62,-191.25 1336.65,-201.4 1340.61,-191.57 1333.62,-191.25"/>
</g>
<!-- Node35&#45;&gt;Node23 -->
<g id="edge50" class="edge">
<title>Node35&#45;&gt;Node23</title>
<path fill="none" stroke="midnightblue" d="M1373.87,-196.99C1394.95,-186.69 1420.78,-174.07 1440.2,-164.58"/>
<polygon fill="midnightblue" stroke="midnightblue" points="1372.31,-193.86 1364.86,-201.4 1375.38,-200.15 1372.31,-193.86"/>
</g>
<!-- Node35&#45;&gt;Node26 -->
<g id="edge51" class="edge">
<title>Node35&#45;&gt;Node26</title>
<path fill="none" stroke="midnightblue" d="M1402.48,-199.07C1446.44,-188.2 1503.35,-174.14 1544.61,-163.94"/>
<polygon fill="midnightblue" stroke="midnightblue" points="1401.61,-195.68 1392.74,-201.48 1403.29,-202.47 1401.61,-195.68"/>
</g>
<!-- Node36 -->
<g id="node36" class="node">
<title>Node36</title>
<g id="a_node36"><a xlink:href="grid__refinement_8cc.html" target="_top" xlink:title=" ">
<polygon fill="none" stroke="black" points="1671.5,-140 1671.5,-159 1814.5,-159 1814.5,-140 1671.5,-140"/>
<text text-anchor="middle" x="1743" y="-147" font-family="Helvetica,sans-Serif" font-size="10.00">source/grid_refinement.cc</text>
</a>
</g>
</g>
<!-- Node35&#45;&gt;Node36 -->
<g id="edge52" class="edge">
<title>Node35&#45;&gt;Node36</title>
<path fill="none" stroke="midnightblue" d="M1404.47,-201C1519.71,-181.02 1550.79,-182.71 1662,-165 1673.43,-163.18 1685.73,-161.06 1697.22,-159.01"/>
<polygon fill="midnightblue" stroke="midnightblue" points="1403.8,-197.56 1394.55,-202.74 1405.01,-204.46 1403.8,-197.56"/>
</g>
</g>
</svg>
