<?xml version="1.0" encoding="UTF-8" standalone="no"?>
<!DOCTYPE svg PUBLIC "-//W3C//DTD SVG 1.1//EN"
 "http://www.w3.org/Graphics/SVG/1.1/DTD/svg11.dtd">
<!-- Generated by graphviz version 2.43.0 (0)
 -->
<!-- Title: include/parsed_tools/enum.h Pages: 1 -->
<svg width="2518pt" height="374pt"
 viewBox="0.00 0.00 2517.50 374.00" xmlns="http://www.w3.org/2000/svg" xmlns:xlink="http://www.w3.org/1999/xlink">
<g id="graph0" class="graph" transform="scale(1 1) rotate(0) translate(4 370)">
<title>include/parsed_tools/enum.h</title>
<!-- Node1 -->
<g id="node1" class="node">
<title>Node1</title>
<g id="a_node1"><a xlink:title=" ">
<polygon fill="#bfbfbf" stroke="black" points="1868.5,-335.5 1868.5,-365.5 1985.5,-365.5 1985.5,-335.5 1868.5,-335.5"/>
<text text-anchor="start" x="1876.5" y="-353.5" font-family="Helvetica,sans-Serif" font-size="10.00">include/parsed_tools</text>
<text text-anchor="middle" x="1927" y="-342.5" font-family="Helvetica,sans-Serif" font-size="10.00">/enum.h</text>
</a>
</g>
</g>
<!-- Node2 -->
<g id="node2" class="node">
<title>Node2</title>
<g id="a_node2"><a xlink:href="boundary__conditions_8h.html" target="_top" xlink:title=" ">
<polygon fill="none" stroke="black" points="1378,-201.5 1378,-231.5 1508,-231.5 1508,-201.5 1378,-201.5"/>
<text text-anchor="start" x="1386" y="-219.5" font-family="Helvetica,sans-Serif" font-size="10.00">include/parsed_tools</text>
<text text-anchor="middle" x="1443" y="-208.5" font-family="Helvetica,sans-Serif" font-size="10.00">/boundary_conditions.h</text>
</a>
</g>
</g>
<!-- Node1&#45;&gt;Node2 -->
<g id="edge1" class="edge">
<title>Node1&#45;&gt;Node2</title>
<path fill="none" stroke="midnightblue" d="M1858.27,-333.46C1818.13,-323.9 1766.57,-311.26 1721,-299 1638.68,-276.85 1543.5,-248.31 1488.57,-231.54"/>
<polygon fill="midnightblue" stroke="midnightblue" points="1857.68,-336.92 1868.22,-335.83 1859.3,-330.11 1857.68,-336.92"/>
</g>
<!-- Node29 -->
<g id="node29" class="node">
<title>Node29</title>
<g id="a_node29"><a xlink:href="source_2pdes_2serial_2reduced__lagrange_8cc.html" target="_top" xlink:title=" ">
<polygon fill="none" stroke="black" points="2359,-67.5 2359,-97.5 2479,-97.5 2479,-67.5 2359,-67.5"/>
<text text-anchor="start" x="2367" y="-85.5" font-family="Helvetica,sans-Serif" font-size="10.00">source/pdes/serial</text>
<text text-anchor="middle" x="2419" y="-74.5" font-family="Helvetica,sans-Serif" font-size="10.00">/reduced_lagrange.cc</text>
</a>
</g>
</g>
<!-- Node1&#45;&gt;Node29 -->
<g id="edge63" class="edge">
<title>Node1&#45;&gt;Node29</title>
<path fill="none" stroke="midnightblue" d="M1960.52,-330.37C1989.82,-313.71 2033.59,-289 2072,-268 2190.53,-203.19 2333.29,-128.26 2391.89,-97.64"/>
<polygon fill="midnightblue" stroke="midnightblue" points="1958.49,-327.49 1951.53,-335.48 1961.95,-333.58 1958.49,-327.49"/>
</g>
<!-- Node35 -->
<g id="node35" class="node">
<title>Node35</title>
<g id="a_node35"><a xlink:href="components_8h.html" target="_top" xlink:title=" ">
<polygon fill="none" stroke="black" points="751.5,-268.5 751.5,-298.5 868.5,-298.5 868.5,-268.5 751.5,-268.5"/>
<text text-anchor="start" x="759.5" y="-286.5" font-family="Helvetica,sans-Serif" font-size="10.00">include/parsed_tools</text>
<text text-anchor="middle" x="810" y="-275.5" font-family="Helvetica,sans-Serif" font-size="10.00">/components.h</text>
</a>
</g>
</g>
<!-- Node1&#45;&gt;Node35 -->
<g id="edge35" class="edge">
<title>Node1&#45;&gt;Node35</title>
<path fill="none" stroke="midnightblue" d="M1857.85,-345.48C1654.02,-333.61 1057.95,-298.93 868.51,-287.9"/>
<polygon fill="midnightblue" stroke="midnightblue" points="1857.94,-348.99 1868.13,-346.07 1858.35,-342 1857.94,-348.99"/>
</g>
<!-- Node38 -->
<g id="node38" class="node">
<title>Node38</title>
<g id="a_node38"><a xlink:href="data__out_8h.html" target="_top" xlink:title=" ">
<polygon fill="none" stroke="black" points="1526.5,-201.5 1526.5,-231.5 1643.5,-231.5 1643.5,-201.5 1526.5,-201.5"/>
<text text-anchor="start" x="1534.5" y="-219.5" font-family="Helvetica,sans-Serif" font-size="10.00">include/parsed_tools</text>
<text text-anchor="middle" x="1585" y="-208.5" font-family="Helvetica,sans-Serif" font-size="10.00">/data_out.h</text>
</a>
</g>
</g>
<!-- Node1&#45;&gt;Node38 -->
<g id="edge43" class="edge">
<title>Node1&#45;&gt;Node38</title>
<path fill="none" stroke="midnightblue" d="M1881.03,-331.76C1812.29,-305.23 1684.11,-255.75 1621.42,-231.56"/>
<polygon fill="midnightblue" stroke="midnightblue" points="1880.13,-335.16 1890.72,-335.5 1882.65,-328.63 1880.13,-335.16"/>
</g>
<!-- Node40 -->
<g id="node40" class="node">
<title>Node40</title>
<g id="a_node40"><a xlink:href="grid__refinement_8h.html" target="_top" xlink:title=" ">
<polygon fill="none" stroke="black" points="1796.5,-201.5 1796.5,-231.5 1913.5,-231.5 1913.5,-201.5 1796.5,-201.5"/>
<text text-anchor="start" x="1804.5" y="-219.5" font-family="Helvetica,sans-Serif" font-size="10.00">include/parsed_tools</text>
<text text-anchor="middle" x="1855" y="-208.5" font-family="Helvetica,sans-Serif" font-size="10.00">/grid_refinement.h</text>
</a>
</g>
</g>
<!-- Node1&#45;&gt;Node40 -->
<g id="edge52" class="edge">
<title>Node1&#45;&gt;Node40</title>
<path fill="none" stroke="midnightblue" d="M1914.44,-326.48C1899.49,-299.07 1875.01,-254.19 1862.65,-231.52"/>
<polygon fill="midnightblue" stroke="midnightblue" points="1911.43,-328.27 1919.29,-335.37 1917.58,-324.92 1911.43,-328.27"/>
</g>
<!-- Node42 -->
<g id="node42" class="node">
<title>Node42</title>
<g id="a_node42"><a xlink:href="non__matching__coupling_8cc.html" target="_top" xlink:title=" ">
<polygon fill="none" stroke="black" points="2080.5,-268.5 2080.5,-298.5 2201.5,-298.5 2201.5,-268.5 2080.5,-268.5"/>
<text text-anchor="start" x="2088.5" y="-286.5" font-family="Helvetica,sans-Serif" font-size="10.00">source/non_matching</text>
<text text-anchor="middle" x="2141" y="-275.5" font-family="Helvetica,sans-Serif" font-size="10.00">_coupling.cc</text>
</a>
</g>
</g>
<!-- Node1&#45;&gt;Node42 -->
<g id="edge60" class="edge">
<title>Node1&#45;&gt;Node42</title>
<path fill="none" stroke="midnightblue" d="M1983.15,-332.44C2017.84,-321.91 2061.82,-308.55 2094.54,-298.61"/>
<polygon fill="midnightblue" stroke="midnightblue" points="1981.72,-329.22 1973.17,-335.48 1983.76,-335.92 1981.72,-329.22"/>
</g>
<!-- Node43 -->
<g id="node43" class="node">
<title>Node43</title>
<g id="a_node43"><a xlink:href="amg__petsc_8cc.html" target="_top" xlink:title=" ">
<polygon fill="none" stroke="black" points="2219.5,-268.5 2219.5,-298.5 2348.5,-298.5 2348.5,-268.5 2219.5,-268.5"/>
<text text-anchor="start" x="2227.5" y="-286.5" font-family="Helvetica,sans-Serif" font-size="10.00">source/parsed_lac/amg</text>
<text text-anchor="middle" x="2284" y="-275.5" font-family="Helvetica,sans-Serif" font-size="10.00">_petsc.cc</text>
</a>
</g>
</g>
<!-- Node1&#45;&gt;Node43 -->
<g id="edge61" class="edge">
<title>Node1&#45;&gt;Node43</title>
<path fill="none" stroke="midnightblue" d="M1995.6,-337.7C2053.17,-327.7 2137.53,-312.83 2211,-299 2213.67,-298.5 2216.39,-297.98 2219.13,-297.45"/>
<polygon fill="midnightblue" stroke="midnightblue" points="1994.79,-334.29 1985.53,-339.45 1995.98,-341.19 1994.79,-334.29"/>
</g>
<!-- Node44 -->
<g id="node44" class="node">
<title>Node44</title>
<g id="a_node44"><a xlink:href="inverse__operator_8cc.html" target="_top" xlink:title=" ">
<polygon fill="none" stroke="black" points="2366.5,-268.5 2366.5,-298.5 2509.5,-298.5 2509.5,-268.5 2366.5,-268.5"/>
<text text-anchor="start" x="2374.5" y="-286.5" font-family="Helvetica,sans-Serif" font-size="10.00">source/parsed_lac/inverse</text>
<text text-anchor="middle" x="2438" y="-275.5" font-family="Helvetica,sans-Serif" font-size="10.00">_operator.cc</text>
</a>
</g>
</g>
<!-- Node1&#45;&gt;Node44 -->
<g id="edge62" class="edge">
<title>Node1&#45;&gt;Node44</title>
<path fill="none" stroke="midnightblue" d="M1995.78,-342.78C2081,-334.15 2230.54,-318 2358,-299 2360.65,-298.6 2363.35,-298.19 2366.08,-297.76"/>
<polygon fill="midnightblue" stroke="midnightblue" points="1995.31,-339.31 1985.71,-343.8 1996.01,-346.28 1995.31,-339.31"/>
</g>
<!-- Node3 -->
<g id="node3" class="node">
<title>Node3</title>
<g id="a_node3"><a xlink:href="linear__problem_8h.html" target="_top" xlink:title=" ">
<polygon fill="none" stroke="black" points="1123.5,-134.5 1123.5,-164.5 1232.5,-164.5 1232.5,-134.5 1123.5,-134.5"/>
<text text-anchor="start" x="1131.5" y="-152.5" font-family="Helvetica,sans-Serif" font-size="10.00">include/pdes/linear</text>
<text text-anchor="middle" x="1178" y="-141.5" font-family="Helvetica,sans-Serif" font-size="10.00">_problem.h</text>
</a>
</g>
</g>
<!-- Node2&#45;&gt;Node3 -->
<g id="edge2" class="edge">
<title>Node2&#45;&gt;Node3</title>
<path fill="none" stroke="midnightblue" d="M1376.01,-199.07C1331.72,-188.2 1274.38,-174.14 1232.81,-163.94"/>
<polygon fill="midnightblue" stroke="midnightblue" points="1375.28,-202.49 1385.83,-201.48 1376.95,-195.69 1375.28,-202.49"/>
</g>
<!-- Node15 -->
<g id="node15" class="node">
<title>Node15</title>
<g id="a_node15"><a xlink:href="distributed__lagrange_8h.html" target="_top" xlink:title=" ">
<polygon fill="none" stroke="black" points="1241.5,-67.5 1241.5,-97.5 1370.5,-97.5 1370.5,-67.5 1241.5,-67.5"/>
<text text-anchor="start" x="1249.5" y="-85.5" font-family="Helvetica,sans-Serif" font-size="10.00">include/pdes/serial</text>
<text text-anchor="middle" x="1306" y="-74.5" font-family="Helvetica,sans-Serif" font-size="10.00">/distributed_lagrange.h</text>
</a>
</g>
</g>
<!-- Node2&#45;&gt;Node15 -->
<g id="edge21" class="edge">
<title>Node2&#45;&gt;Node15</title>
<path fill="none" stroke="midnightblue" d="M1367.63,-208.72C1339.17,-202.06 1309.48,-189.28 1292,-165 1277.57,-144.96 1288.85,-115.06 1297.81,-97.59"/>
<polygon fill="midnightblue" stroke="midnightblue" points="1367.11,-212.18 1377.62,-210.83 1368.56,-205.34 1367.11,-212.18"/>
</g>
<!-- Node22 -->
<g id="node22" class="node">
<title>Node22</title>
<g id="a_node22"><a xlink:href="serial_2poisson_8h.html" target="_top" xlink:title=" ">
<polygon fill="none" stroke="black" points="1460,-134.5 1460,-164.5 1568,-164.5 1568,-134.5 1460,-134.5"/>
<text text-anchor="start" x="1468" y="-152.5" font-family="Helvetica,sans-Serif" font-size="10.00">include/pdes/serial</text>
<text text-anchor="middle" x="1514" y="-141.5" font-family="Helvetica,sans-Serif" font-size="10.00">/poisson.h</text>
</a>
</g>
</g>
<!-- Node2&#45;&gt;Node22 -->
<g id="edge22" class="edge">
<title>Node2&#45;&gt;Node22</title>
<path fill="none" stroke="midnightblue" d="M1465.83,-194.6C1476.55,-184.78 1489.05,-173.34 1498.62,-164.58"/>
<polygon fill="midnightblue" stroke="midnightblue" points="1463.42,-192.06 1458.41,-201.4 1468.15,-197.22 1463.42,-192.06"/>
</g>
<!-- Node25 -->
<g id="node25" class="node">
<title>Node25</title>
<g id="a_node25"><a xlink:href="poisson__nitsche__interface_8h.html" target="_top" xlink:title=" ">
<polygon fill="none" stroke="black" points="1586.5,-134.5 1586.5,-164.5 1741.5,-164.5 1741.5,-134.5 1586.5,-134.5"/>
<text text-anchor="start" x="1594.5" y="-152.5" font-family="Helvetica,sans-Serif" font-size="10.00">include/pdes/serial</text>
<text text-anchor="middle" x="1664" y="-141.5" font-family="Helvetica,sans-Serif" font-size="10.00">/poisson_nitsche_interface.h</text>
</a>
</g>
</g>
<!-- Node2&#45;&gt;Node25 -->
<g id="edge25" class="edge">
<title>Node2&#45;&gt;Node25</title>
<path fill="none" stroke="midnightblue" d="M1500.53,-198.58C1536.42,-188.02 1582.09,-174.59 1616.02,-164.61"/>
<polygon fill="midnightblue" stroke="midnightblue" points="1499.29,-195.3 1490.68,-201.48 1501.26,-202.01 1499.29,-195.3"/>
</g>
<!-- Node28 -->
<g id="node28" class="node">
<title>Node28</title>
<g id="a_node28"><a xlink:href="reduced__lagrange_8h.html" target="_top" xlink:title=" ">
<polygon fill="none" stroke="black" points="1924,-134.5 1924,-164.5 2040,-164.5 2040,-134.5 1924,-134.5"/>
<text text-anchor="start" x="1932" y="-152.5" font-family="Helvetica,sans-Serif" font-size="10.00">include/pdes/serial</text>
<text text-anchor="middle" x="1982" y="-141.5" font-family="Helvetica,sans-Serif" font-size="10.00">/reduced_lagrange.h</text>
</a>
</g>
</g>
<!-- Node2&#45;&gt;Node28 -->
<g id="edge28" class="edge">
<title>Node2&#45;&gt;Node28</title>
<path fill="none" stroke="midnightblue" d="M1518.58,-201.01C1678.4,-178 1721.04,-183.58 1877,-165 1892.17,-163.19 1908.54,-161.03 1923.73,-158.94"/>
<polygon fill="midnightblue" stroke="midnightblue" points="1517.78,-197.59 1508.39,-202.5 1518.79,-204.52 1517.78,-197.59"/>
</g>
<!-- Node31 -->
<g id="node31" class="node">
<title>Node31</title>
<g id="a_node31"><a xlink:href="serial_2stokes_8h.html" target="_top" xlink:title=" ">
<polygon fill="none" stroke="black" points="1760,-134.5 1760,-164.5 1868,-164.5 1868,-134.5 1760,-134.5"/>
<text text-anchor="start" x="1768" y="-152.5" font-family="Helvetica,sans-Serif" font-size="10.00">include/pdes/serial</text>
<text text-anchor="middle" x="1814" y="-141.5" font-family="Helvetica,sans-Serif" font-size="10.00">/stokes.h</text>
</a>
</g>
</g>
<!-- Node2&#45;&gt;Node31 -->
<g id="edge31" class="edge">
<title>Node2&#45;&gt;Node31</title>
<path fill="none" stroke="midnightblue" d="M1517.69,-201.05C1517.8,-201.04 1517.9,-201.02 1518,-201 1621.24,-183.05 1648.1,-184.76 1751,-165 1753.87,-164.45 1756.8,-163.86 1759.76,-163.25"/>
<polygon fill="midnightblue" stroke="midnightblue" points="1517.25,-197.58 1508.01,-202.78 1518.47,-204.47 1517.25,-197.58"/>
</g>
<!-- Node34 -->
<g id="node34" class="node">
<title>Node34</title>
<g id="a_node34"><a xlink:href="boundary__conditions_8cc.html" target="_top" xlink:title=" ">
<polygon fill="none" stroke="black" points="809.5,-140 809.5,-159 976.5,-159 976.5,-140 809.5,-140"/>
<text text-anchor="middle" x="893" y="-147" font-family="Helvetica,sans-Serif" font-size="10.00">source/boundary_conditions.cc</text>
</a>
</g>
</g>
<!-- Node2&#45;&gt;Node34 -->
<g id="edge34" class="edge">
<title>Node2&#45;&gt;Node34</title>
<path fill="none" stroke="midnightblue" d="M1367.62,-208.21C1276.92,-199.2 1120.09,-182.85 986,-165 972.72,-163.23 958.4,-161.11 945.08,-159.04"/>
<polygon fill="midnightblue" stroke="midnightblue" points="1367.51,-211.72 1377.81,-209.22 1368.2,-204.75 1367.51,-211.72"/>
</g>
<!-- Node4 -->
<g id="node4" class="node">
<title>Node4</title>
<g id="a_node4"><a xlink:href="linear__elasticity_8h.html" target="_top" xlink:title=" ">
<polygon fill="none" stroke="black" points="293.5,-67.5 293.5,-97.5 402.5,-97.5 402.5,-67.5 293.5,-67.5"/>
<text text-anchor="start" x="301.5" y="-85.5" font-family="Helvetica,sans-Serif" font-size="10.00">include/pdes/linear</text>
<text text-anchor="middle" x="348" y="-74.5" font-family="Helvetica,sans-Serif" font-size="10.00">_elasticity.h</text>
</a>
</g>
</g>
<!-- Node3&#45;&gt;Node4 -->
<g id="edge3" class="edge">
<title>Node3&#45;&gt;Node4</title>
<path fill="none" stroke="midnightblue" d="M1113.31,-134.34C1029.22,-125.8 563.49,-96.8 402.6,-86.86"/>
<polygon fill="midnightblue" stroke="midnightblue" points="1112.95,-137.83 1123.29,-135.51 1113.77,-130.87 1112.95,-137.83"/>
</g>
<!-- Node8 -->
<g id="node8" class="node">
<title>Node8</title>
<g id="a_node8"><a xlink:href="linear__visco__elasticity_8h.html" target="_top" xlink:title=" ">
<polygon fill="none" stroke="black" points="598.5,-67.5 598.5,-97.5 707.5,-97.5 707.5,-67.5 598.5,-67.5"/>
<text text-anchor="start" x="606.5" y="-85.5" font-family="Helvetica,sans-Serif" font-size="10.00">include/pdes/linear</text>
<text text-anchor="middle" x="653" y="-74.5" font-family="Helvetica,sans-Serif" font-size="10.00">_visco_elasticity.h</text>
</a>
</g>
</g>
<!-- Node3&#45;&gt;Node8 -->
<g id="edge7" class="edge">
<title>Node3&#45;&gt;Node8</title>
<path fill="none" stroke="midnightblue" d="M1113.11,-134.1C1046.46,-124.46 814.63,-100.21 707.64,-89.13"/>
<polygon fill="midnightblue" stroke="midnightblue" points="1112.85,-137.6 1123.27,-135.67 1113.92,-130.68 1112.85,-137.6"/>
</g>
<!-- Node12 -->
<g id="node12" class="node">
<title>Node12</title>
<g id="a_node12"><a xlink:href="mpi_2poisson_8h.html" target="_top" xlink:title=" ">
<polygon fill="none" stroke="black" points="1074.5,-73 1074.5,-92 1223.5,-92 1223.5,-73 1074.5,-73"/>
<text text-anchor="middle" x="1149" y="-80" font-family="Helvetica,sans-Serif" font-size="10.00">include/pdes/mpi/poisson.h</text>
</a>
</g>
</g>
<!-- Node3&#45;&gt;Node12 -->
<g id="edge11" class="edge">
<title>Node3&#45;&gt;Node12</title>
<path fill="none" stroke="midnightblue" d="M1167.49,-124.94C1162.4,-113.54 1156.6,-100.55 1152.88,-92.19"/>
<polygon fill="midnightblue" stroke="midnightblue" points="1164.44,-126.69 1171.71,-134.4 1170.83,-123.84 1164.44,-126.69"/>
</g>
<!-- Node3&#45;&gt;Node15 -->
<g id="edge14" class="edge">
<title>Node3&#45;&gt;Node15</title>
<path fill="none" stroke="midnightblue" d="M1214.72,-129.85C1234.96,-119.58 1259.67,-107.03 1278.28,-97.58"/>
<polygon fill="midnightblue" stroke="midnightblue" points="1213.11,-126.75 1205.77,-134.4 1216.28,-132.99 1213.11,-126.75"/>
</g>
<!-- Node18 -->
<g id="node18" class="node">
<title>Node18</title>
<g id="a_node18"><a xlink:href="stokes_8h.html" target="_top" xlink:title=" ">
<polygon fill="none" stroke="black" points="810,-73 810,-92 932,-92 932,-73 810,-73"/>
<text text-anchor="middle" x="871" y="-80" font-family="Helvetica,sans-Serif" font-size="10.00">include/pdes/stokes.h</text>
</a>
</g>
</g>
<!-- Node3&#45;&gt;Node18 -->
<g id="edge17" class="edge">
<title>Node3&#45;&gt;Node18</title>
<path fill="none" stroke="midnightblue" d="M1113.35,-133.91C1077.41,-126.31 971.41,-104.32 912.03,-92.01"/>
<polygon fill="midnightblue" stroke="midnightblue" points="1112.69,-137.35 1123.2,-136.02 1114.15,-130.51 1112.69,-137.35"/>
</g>
<!-- Node21 -->
<g id="node21" class="node">
<title>Node21</title>
<g id="a_node21"><a xlink:href="linear__problem_8cc.html" target="_top" xlink:title=" ">
<polygon fill="none" stroke="black" points="950,-67.5 950,-97.5 1056,-97.5 1056,-67.5 950,-67.5"/>
<text text-anchor="start" x="958" y="-85.5" font-family="Helvetica,sans-Serif" font-size="10.00">source/pdes/linear</text>
<text text-anchor="middle" x="1003" y="-74.5" font-family="Helvetica,sans-Serif" font-size="10.00">_problem.cc</text>
</a>
</g>
</g>
<!-- Node3&#45;&gt;Node21 -->
<g id="edge20" class="edge">
<title>Node3&#45;&gt;Node21</title>
<path fill="none" stroke="midnightblue" d="M1130.4,-130.82C1102.27,-120.37 1067.14,-107.32 1040.9,-97.58"/>
<polygon fill="midnightblue" stroke="midnightblue" points="1129.43,-134.2 1140.03,-134.4 1131.87,-127.63 1129.43,-134.2"/>
</g>
<!-- Node5 -->
<g id="node5" class="node">
<title>Node5</title>
<g id="a_node5"><a xlink:href="source_2pdes_2linear__elasticity_8cc.html" target="_top" xlink:title=" ">
<polygon fill="none" stroke="black" points="0,-0.5 0,-30.5 106,-30.5 106,-0.5 0,-0.5"/>
<text text-anchor="start" x="8" y="-18.5" font-family="Helvetica,sans-Serif" font-size="10.00">source/pdes/linear</text>
<text text-anchor="middle" x="53" y="-7.5" font-family="Helvetica,sans-Serif" font-size="10.00">_elasticity.cc</text>
</a>
</g>
</g>
<!-- Node4&#45;&gt;Node5 -->
<g id="edge4" class="edge">
<title>Node4&#45;&gt;Node5</title>
<path fill="none" stroke="midnightblue" d="M283.33,-67.78C236.54,-57.78 171.8,-43.8 115,-31 112.09,-30.34 109.1,-29.67 106.09,-28.98"/>
<polygon fill="midnightblue" stroke="midnightblue" points="282.82,-71.25 293.33,-69.91 284.28,-64.4 282.82,-71.25"/>
</g>
<!-- Node6 -->
<g id="node6" class="node">
<title>Node6</title>
<g id="a_node6"><a xlink:href="apps_2mpi_2linear__elasticity_8cc.html" target="_top" xlink:title=" ">
<polygon fill="none" stroke="black" points="124.5,-6 124.5,-25 279.5,-25 279.5,-6 124.5,-6"/>
<text text-anchor="middle" x="202" y="-13" font-family="Helvetica,sans-Serif" font-size="10.00">apps/mpi/linear_elasticity.cc</text>
</a>
</g>
</g>
<!-- Node4&#45;&gt;Node6 -->
<g id="edge5" class="edge">
<title>Node4&#45;&gt;Node6</title>
<path fill="none" stroke="midnightblue" d="M307.11,-63.3C278.95,-50.76 242.84,-34.68 221.11,-25.01"/>
<polygon fill="midnightblue" stroke="midnightblue" points="305.76,-66.53 316.32,-67.4 308.61,-60.13 305.76,-66.53"/>
</g>
<!-- Node7 -->
<g id="node7" class="node">
<title>Node7</title>
<g id="a_node7"><a xlink:href="apps_2serial_2linear__elasticity_8cc.html" target="_top" xlink:title=" ">
<polygon fill="none" stroke="black" points="297.5,-0.5 297.5,-30.5 398.5,-30.5 398.5,-0.5 297.5,-0.5"/>
<text text-anchor="start" x="305.5" y="-18.5" font-family="Helvetica,sans-Serif" font-size="10.00">apps/serial/linear</text>
<text text-anchor="middle" x="348" y="-7.5" font-family="Helvetica,sans-Serif" font-size="10.00">_elasticity.cc</text>
</a>
</g>
</g>
<!-- Node4&#45;&gt;Node7 -->
<g id="edge6" class="edge">
<title>Node4&#45;&gt;Node7</title>
<path fill="none" stroke="midnightblue" d="M348,-57.11C348,-48.15 348,-38.32 348,-30.58"/>
<polygon fill="midnightblue" stroke="midnightblue" points="344.5,-57.4 348,-67.4 351.5,-57.4 344.5,-57.4"/>
</g>
<!-- Node9 -->
<g id="node9" class="node">
<title>Node9</title>
<g id="a_node9"><a xlink:href="source_2pdes_2linear__visco__elasticity_8cc.html" target="_top" xlink:title=" ">
<polygon fill="none" stroke="black" points="417,-0.5 417,-30.5 527,-30.5 527,-0.5 417,-0.5"/>
<text text-anchor="start" x="425" y="-18.5" font-family="Helvetica,sans-Serif" font-size="10.00">source/pdes/linear</text>
<text text-anchor="middle" x="472" y="-7.5" font-family="Helvetica,sans-Serif" font-size="10.00">_visco_elasticity.cc</text>
</a>
</g>
</g>
<!-- Node8&#45;&gt;Node9 -->
<g id="edge8" class="edge">
<title>Node8&#45;&gt;Node9</title>
<path fill="none" stroke="midnightblue" d="M604.14,-63.96C574.99,-53.48 538.46,-40.37 511.2,-30.58"/>
<polygon fill="midnightblue" stroke="midnightblue" points="603.13,-67.31 613.73,-67.4 605.5,-60.72 603.13,-67.31"/>
</g>
<!-- Node10 -->
<g id="node10" class="node">
<title>Node10</title>
<g id="a_node10"><a xlink:href="apps_2mpi_2linear__visco__elasticity_8cc.html" target="_top" xlink:title=" ">
<polygon fill="none" stroke="black" points="545.5,-0.5 545.5,-30.5 668.5,-30.5 668.5,-0.5 545.5,-0.5"/>
<text text-anchor="start" x="553.5" y="-18.5" font-family="Helvetica,sans-Serif" font-size="10.00">apps/mpi/linear_visco</text>
<text text-anchor="middle" x="607" y="-7.5" font-family="Helvetica,sans-Serif" font-size="10.00">_elasticity.cc</text>
</a>
</g>
</g>
<!-- Node8&#45;&gt;Node10 -->
<g id="edge9" class="edge">
<title>Node8&#45;&gt;Node10</title>
<path fill="none" stroke="midnightblue" d="M637.19,-59.16C630.48,-49.68 622.87,-38.92 616.96,-30.58"/>
<polygon fill="midnightblue" stroke="midnightblue" points="634.38,-61.26 643.02,-67.4 640.1,-57.21 634.38,-61.26"/>
</g>
<!-- Node11 -->
<g id="node11" class="node">
<title>Node11</title>
<g id="a_node11"><a xlink:href="apps_2serial_2linear__visco__elasticity_8cc.html" target="_top" xlink:title=" ">
<polygon fill="none" stroke="black" points="687,-0.5 687,-30.5 797,-30.5 797,-0.5 687,-0.5"/>
<text text-anchor="start" x="695" y="-18.5" font-family="Helvetica,sans-Serif" font-size="10.00">apps/serial/linear</text>
<text text-anchor="middle" x="742" y="-7.5" font-family="Helvetica,sans-Serif" font-size="10.00">_visco_elasticity.cc</text>
</a>
</g>
</g>
<!-- Node8&#45;&gt;Node11 -->
<g id="edge10" class="edge">
<title>Node8&#45;&gt;Node11</title>
<path fill="none" stroke="midnightblue" d="M680.45,-61.45C694.14,-51.45 710.37,-39.6 722.73,-30.58"/>
<polygon fill="midnightblue" stroke="midnightblue" points="678.32,-58.67 672.31,-67.4 682.45,-64.32 678.32,-58.67"/>
</g>
<!-- Node13 -->
<g id="node13" class="node">
<title>Node13</title>
<g id="a_node13"><a xlink:href="source_2pdes_2mpi_2poisson_8cc.html" target="_top" xlink:title=" ">
<polygon fill="none" stroke="black" points="1219.5,-6 1219.5,-25 1370.5,-25 1370.5,-6 1219.5,-6"/>
<text text-anchor="middle" x="1295" y="-13" font-family="Helvetica,sans-Serif" font-size="10.00">source/pdes/mpi/poisson.cc</text>
</a>
</g>
</g>
<!-- Node12&#45;&gt;Node13 -->
<g id="edge12" class="edge">
<title>Node12&#45;&gt;Node13</title>
<path fill="none" stroke="midnightblue" d="M1177.57,-68.78C1206.48,-55.91 1250.4,-36.35 1275.53,-25.17"/>
<polygon fill="midnightblue" stroke="midnightblue" points="1176.1,-65.6 1168.39,-72.87 1178.95,-72 1176.1,-65.6"/>
</g>
<!-- Node14 -->
<g id="node14" class="node">
<title>Node14</title>
<g id="a_node14"><a xlink:href="apps_2mpi_2poisson_8cc.html" target="_top" xlink:title=" ">
<polygon fill="none" stroke="black" points="1085,-6 1085,-25 1201,-25 1201,-6 1085,-6"/>
<text text-anchor="middle" x="1143" y="-13" font-family="Helvetica,sans-Serif" font-size="10.00">apps/mpi/poisson.cc</text>
</a>
</g>
</g>
<!-- Node12&#45;&gt;Node14 -->
<g id="edge13" class="edge">
<title>Node12&#45;&gt;Node14</title>
<path fill="none" stroke="midnightblue" d="M1147.25,-62.54C1146.11,-50.17 1144.67,-34.62 1143.8,-25.13"/>
<polygon fill="midnightblue" stroke="midnightblue" points="1143.79,-63.1 1148.19,-72.73 1150.76,-62.45 1143.79,-63.1"/>
</g>
<!-- Node16 -->
<g id="node16" class="node">
<title>Node16</title>
<g id="a_node16"><a xlink:href="source_2pdes_2serial_2distributed__lagrange_8cc.html" target="_top" xlink:title=" ">
<polygon fill="none" stroke="black" points="1389,-0.5 1389,-30.5 1523,-30.5 1523,-0.5 1389,-0.5"/>
<text text-anchor="start" x="1397" y="-18.5" font-family="Helvetica,sans-Serif" font-size="10.00">source/pdes/serial</text>
<text text-anchor="middle" x="1456" y="-7.5" font-family="Helvetica,sans-Serif" font-size="10.00">/distributed_lagrange.cc</text>
</a>
</g>
</g>
<!-- Node15&#45;&gt;Node16 -->
<g id="edge15" class="edge">
<title>Node15&#45;&gt;Node16</title>
<path fill="none" stroke="midnightblue" d="M1347.75,-63.41C1371.7,-53.03 1401.32,-40.2 1423.52,-30.58"/>
<polygon fill="midnightblue" stroke="midnightblue" points="1346.33,-60.21 1338.55,-67.4 1349.11,-66.63 1346.33,-60.21"/>
</g>
<!-- Node17 -->
<g id="node17" class="node">
<title>Node17</title>
<g id="a_node17"><a xlink:href="apps_2serial_2distributed__lagrange_8cc.html" target="_top" xlink:title=" ">
<polygon fill="none" stroke="black" points="1541.5,-0.5 1541.5,-30.5 1666.5,-30.5 1666.5,-0.5 1541.5,-0.5"/>
<text text-anchor="start" x="1549.5" y="-18.5" font-family="Helvetica,sans-Serif" font-size="10.00">apps/serial/distributed</text>
<text text-anchor="middle" x="1604" y="-7.5" font-family="Helvetica,sans-Serif" font-size="10.00">_lagrange.cc</text>
</a>
</g>
</g>
<!-- Node15&#45;&gt;Node17 -->
<g id="edge16" class="edge">
<title>Node15&#45;&gt;Node17</title>
<path fill="none" stroke="midnightblue" d="M1380.32,-65.29C1429.91,-54.47 1494.37,-40.41 1541.35,-30.16"/>
<polygon fill="midnightblue" stroke="midnightblue" points="1379.32,-61.93 1370.29,-67.48 1380.81,-68.76 1379.32,-61.93"/>
</g>
<!-- Node19 -->
<g id="node19" class="node">
<title>Node19</title>
<g id="a_node19"><a xlink:href="source_2pdes_2stokes_8cc.html" target="_top" xlink:title=" ">
<polygon fill="none" stroke="black" points="815.5,-6 815.5,-25 938.5,-25 938.5,-6 815.5,-6"/>
<text text-anchor="middle" x="877" y="-13" font-family="Helvetica,sans-Serif" font-size="10.00">source/pdes/stokes.cc</text>
</a>
</g>
</g>
<!-- Node18&#45;&gt;Node19 -->
<g id="edge18" class="edge">
<title>Node18&#45;&gt;Node19</title>
<path fill="none" stroke="midnightblue" d="M872.75,-62.54C873.89,-50.17 875.33,-34.62 876.2,-25.13"/>
<polygon fill="midnightblue" stroke="midnightblue" points="869.24,-62.45 871.81,-72.73 876.21,-63.1 869.24,-62.45"/>
</g>
<!-- Node20 -->
<g id="node20" class="node">
<title>Node20</title>
<g id="a_node20"><a xlink:href="apps_2mpi_2stokes_8cc.html" target="_top" xlink:title=" ">
<polygon fill="none" stroke="black" points="957,-6 957,-25 1067,-25 1067,-6 957,-6"/>
<text text-anchor="middle" x="1012" y="-13" font-family="Helvetica,sans-Serif" font-size="10.00">apps/mpi/stokes.cc</text>
</a>
</g>
</g>
<!-- Node18&#45;&gt;Node20 -->
<g id="edge19" class="edge">
<title>Node18&#45;&gt;Node20</title>
<path fill="none" stroke="midnightblue" d="M898.96,-68.61C926.88,-55.74 969.04,-36.31 993.2,-25.17"/>
<polygon fill="midnightblue" stroke="midnightblue" points="897.34,-65.5 889.72,-72.87 900.27,-71.86 897.34,-65.5"/>
</g>
<!-- Node23 -->
<g id="node23" class="node">
<title>Node23</title>
<g id="a_node23"><a xlink:href="source_2pdes_2serial_2poisson_8cc.html" target="_top" xlink:title=" ">
<polygon fill="none" stroke="black" points="1388.5,-67.5 1388.5,-97.5 1493.5,-97.5 1493.5,-67.5 1388.5,-67.5"/>
<text text-anchor="start" x="1396.5" y="-85.5" font-family="Helvetica,sans-Serif" font-size="10.00">source/pdes/serial</text>
<text text-anchor="middle" x="1441" y="-74.5" font-family="Helvetica,sans-Serif" font-size="10.00">/poisson.cc</text>
</a>
</g>
</g>
<!-- Node22&#45;&gt;Node23 -->
<g id="edge23" class="edge">
<title>Node22&#45;&gt;Node23</title>
<path fill="none" stroke="midnightblue" d="M1490.53,-127.6C1479.5,-117.78 1466.66,-106.34 1456.81,-97.58"/>
<polygon fill="midnightblue" stroke="midnightblue" points="1488.36,-130.36 1498.16,-134.4 1493.02,-125.13 1488.36,-130.36"/>
</g>
<!-- Node24 -->
<g id="node24" class="node">
<title>Node24</title>
<g id="a_node24"><a xlink:href="apps_2serial_2poisson_8cc.html" target="_top" xlink:title=" ">
<polygon fill="none" stroke="black" points="1512,-73 1512,-92 1636,-92 1636,-73 1512,-73"/>
<text text-anchor="middle" x="1574" y="-80" font-family="Helvetica,sans-Serif" font-size="10.00">apps/serial/poisson.cc</text>
</a>
</g>
</g>
<!-- Node22&#45;&gt;Node24 -->
<g id="edge24" class="edge">
<title>Node22&#45;&gt;Node24</title>
<path fill="none" stroke="midnightblue" d="M1533.85,-127C1544.8,-115.13 1557.8,-101.05 1565.97,-92.19"/>
<polygon fill="midnightblue" stroke="midnightblue" points="1531.23,-124.67 1527.02,-134.4 1536.37,-129.42 1531.23,-124.67"/>
</g>
<!-- Node26 -->
<g id="node26" class="node">
<title>Node26</title>
<g id="a_node26"><a xlink:href="source_2pdes_2serial_2poisson__nitsche__interface_8cc.html" target="_top" xlink:title=" ">
<polygon fill="none" stroke="black" points="1654,-67.5 1654,-97.5 1814,-97.5 1814,-67.5 1654,-67.5"/>
<text text-anchor="start" x="1662" y="-85.5" font-family="Helvetica,sans-Serif" font-size="10.00">source/pdes/serial</text>
<text text-anchor="middle" x="1734" y="-74.5" font-family="Helvetica,sans-Serif" font-size="10.00">/poisson_nitsche_interface.cc</text>
</a>
</g>
</g>
<!-- Node25&#45;&gt;Node26 -->
<g id="edge26" class="edge">
<title>Node25&#45;&gt;Node26</title>
<path fill="none" stroke="midnightblue" d="M1686.82,-127.31C1697.32,-117.56 1709.49,-106.26 1718.84,-97.58"/>
<polygon fill="midnightblue" stroke="midnightblue" points="1684.14,-125.03 1679.19,-134.4 1688.9,-130.16 1684.14,-125.03"/>
</g>
<!-- Node27 -->
<g id="node27" class="node">
<title>Node27</title>
<g id="a_node27"><a xlink:href="apps_2serial_2poisson__nitsche__interface_8cc.html" target="_top" xlink:title=" ">
<polygon fill="none" stroke="black" points="1832.5,-67.5 1832.5,-97.5 1951.5,-97.5 1951.5,-67.5 1832.5,-67.5"/>
<text text-anchor="start" x="1840.5" y="-85.5" font-family="Helvetica,sans-Serif" font-size="10.00">apps/serial/poisson</text>
<text text-anchor="middle" x="1892" y="-74.5" font-family="Helvetica,sans-Serif" font-size="10.00">_nitsche_interface.cc</text>
</a>
</g>
</g>
<!-- Node25&#45;&gt;Node27 -->
<g id="edge27" class="edge">
<title>Node25&#45;&gt;Node27</title>
<path fill="none" stroke="midnightblue" d="M1722.88,-131.71C1759.98,-121.14 1807.34,-107.63 1842.5,-97.61"/>
<polygon fill="midnightblue" stroke="midnightblue" points="1721.85,-128.37 1713.19,-134.48 1723.77,-135.1 1721.85,-128.37"/>
</g>
<!-- Node28&#45;&gt;Node29 -->
<g id="edge29" class="edge">
<title>Node28&#45;&gt;Node29</title>
<path fill="none" stroke="midnightblue" d="M2050.41,-134.05C2184.24,-112.34 2220.73,-119.3 2350,-98 2352.9,-97.52 2355.86,-97.01 2358.85,-96.46"/>
<polygon fill="midnightblue" stroke="midnightblue" points="2049.47,-130.66 2040.17,-135.73 2050.61,-137.56 2049.47,-130.66"/>
</g>
<!-- Node30 -->
<g id="node30" class="node">
<title>Node30</title>
<g id="a_node30"><a xlink:href="apps_2serial_2reduced__lagrange_8cc.html" target="_top" xlink:title=" ">
<polygon fill="none" stroke="black" points="2229,-67.5 2229,-97.5 2341,-97.5 2341,-67.5 2229,-67.5"/>
<text text-anchor="start" x="2237" y="-85.5" font-family="Helvetica,sans-Serif" font-size="10.00">apps/serial/reduced</text>
<text text-anchor="middle" x="2285" y="-74.5" font-family="Helvetica,sans-Serif" font-size="10.00">_lagrange.cc</text>
</a>
</g>
</g>
<!-- Node28&#45;&gt;Node30 -->
<g id="edge30" class="edge">
<title>Node28&#45;&gt;Node30</title>
<path fill="none" stroke="midnightblue" d="M2050.41,-133.92C2127.2,-117.63 2147.63,-113.73 2220,-98 2222.94,-97.36 2225.95,-96.7 2228.99,-96.04"/>
<polygon fill="midnightblue" stroke="midnightblue" points="2049.29,-130.58 2040.24,-136.08 2050.75,-137.42 2049.29,-130.58"/>
</g>
<!-- Node32 -->
<g id="node32" class="node">
<title>Node32</title>
<g id="a_node32"><a xlink:href="source_2pdes_2serial_2stokes_8cc.html" target="_top" xlink:title=" ">
<polygon fill="none" stroke="black" points="1969.5,-67.5 1969.5,-97.5 2074.5,-97.5 2074.5,-67.5 1969.5,-67.5"/>
<text text-anchor="start" x="1977.5" y="-85.5" font-family="Helvetica,sans-Serif" font-size="10.00">source/pdes/serial</text>
<text text-anchor="middle" x="2022" y="-74.5" font-family="Helvetica,sans-Serif" font-size="10.00">/stokes.cc</text>
</a>
</g>
</g>
<!-- Node31&#45;&gt;Node32 -->
<g id="edge32" class="edge">
<title>Node31&#45;&gt;Node32</title>
<path fill="none" stroke="midnightblue" d="M1868.58,-131.44C1902.3,-120.91 1945.04,-107.55 1976.85,-97.61"/>
<polygon fill="midnightblue" stroke="midnightblue" points="1867.38,-128.15 1858.88,-134.48 1869.47,-134.83 1867.38,-128.15"/>
</g>
<!-- Node33 -->
<g id="node33" class="node">
<title>Node33</title>
<g id="a_node33"><a xlink:href="apps_2serial_2stokes_8cc.html" target="_top" xlink:title=" ">
<polygon fill="none" stroke="black" points="2093,-73 2093,-92 2211,-92 2211,-73 2093,-73"/>
<text text-anchor="middle" x="2152" y="-80" font-family="Helvetica,sans-Serif" font-size="10.00">apps/serial/stokes.cc</text>
</a>
</g>
</g>
<!-- Node31&#45;&gt;Node33 -->
<g id="edge33" class="edge">
<title>Node31&#45;&gt;Node33</title>
<path fill="none" stroke="midnightblue" d="M1878.04,-136.99C1932.8,-127.04 2013.68,-112.07 2084,-98 2093.35,-96.13 2103.41,-94.03 2112.84,-92.03"/>
<polygon fill="midnightblue" stroke="midnightblue" points="1877.34,-133.56 1868.12,-138.79 1878.59,-140.45 1877.34,-133.56"/>
</g>
<!-- Node35&#45;&gt;Node2 -->
<g id="edge36" class="edge">
<title>Node35&#45;&gt;Node2</title>
<path fill="none" stroke="midnightblue" d="M878.74,-275.44C1001.65,-262.82 1257.42,-236.56 1377.75,-224.2"/>
<polygon fill="midnightblue" stroke="midnightblue" points="878.29,-271.97 868.7,-276.47 879,-278.93 878.29,-271.97"/>
</g>
<!-- Node35&#45;&gt;Node5 -->
<g id="edge39" class="edge">
<title>Node35&#45;&gt;Node5</title>
<path fill="none" stroke="midnightblue" d="M760.26,-265.09C666.9,-232.4 459.02,-159.57 284,-98 216.8,-74.36 138.65,-46.77 92.64,-30.51"/>
<polygon fill="midnightblue" stroke="midnightblue" points="759.14,-268.4 769.74,-268.41 761.46,-261.8 759.14,-268.4"/>
</g>
<!-- Node35&#45;&gt;Node9 -->
<g id="edge40" class="edge">
<title>Node35&#45;&gt;Node9</title>
<path fill="none" stroke="midnightblue" d="M783.57,-261.7C717.36,-209.59 545.71,-74.51 489.85,-30.55"/>
<polygon fill="midnightblue" stroke="midnightblue" points="781.8,-264.76 791.83,-268.2 786.13,-259.26 781.8,-264.76"/>
</g>
<!-- Node35&#45;&gt;Node19 -->
<g id="edge41" class="edge">
<title>Node35&#45;&gt;Node19</title>
<path fill="none" stroke="midnightblue" d="M801.5,-258.7C788.15,-216.96 767.1,-129.12 801,-67 812.16,-46.56 835.56,-32.94 853.47,-25.05"/>
<polygon fill="midnightblue" stroke="midnightblue" points="798.21,-259.89 804.69,-268.27 804.85,-257.68 798.21,-259.89"/>
</g>
<!-- Node35&#45;&gt;Node34 -->
<g id="edge37" class="edge">
<title>Node35&#45;&gt;Node34</title>
<path fill="none" stroke="midnightblue" d="M824.23,-259.87C842.94,-230.12 874.92,-179.26 887.59,-159.1"/>
<polygon fill="midnightblue" stroke="midnightblue" points="821.24,-258.05 818.88,-268.37 827.17,-261.77 821.24,-258.05"/>
</g>
<!-- Node36 -->
<g id="node36" class="node">
<title>Node36</title>
<g id="a_node36"><a xlink:href="components_8cc.html" target="_top" xlink:title=" ">
<polygon fill="none" stroke="black" points="111.5,-207 111.5,-226 236.5,-226 236.5,-207 111.5,-207"/>
<text text-anchor="middle" x="174" y="-214" font-family="Helvetica,sans-Serif" font-size="10.00">source/components.cc</text>
</a>
</g>
</g>
<!-- Node35&#45;&gt;Node36 -->
<g id="edge38" class="edge">
<title>Node35&#45;&gt;Node36</title>
<path fill="none" stroke="midnightblue" d="M741.23,-278.42C635.51,-271.67 426.84,-256.44 251,-232 239.41,-230.39 226.92,-228.22 215.44,-226.06"/>
<polygon fill="midnightblue" stroke="midnightblue" points="741.24,-281.93 751.44,-279.07 741.69,-274.94 741.24,-281.93"/>
</g>
<!-- Node37 -->
<g id="node37" class="node">
<title>Node37</title>
<g id="a_node37"><a xlink:href="dof__plotter_8cc.html" target="_top" xlink:title="Degrees of freedom plotter.">
<polygon fill="none" stroke="black" points="995,-140 995,-159 1105,-159 1105,-140 995,-140"/>
<text text-anchor="middle" x="1050" y="-147" font-family="Helvetica,sans-Serif" font-size="10.00">apps/dof_plotter.cc</text>
</a>
</g>
</g>
<!-- Node35&#45;&gt;Node37 -->
<g id="edge42" class="edge">
<title>Node35&#45;&gt;Node37</title>
<path fill="none" stroke="midnightblue" d="M844.69,-263.42C897.57,-234.34 996.21,-180.08 1034.37,-159.1"/>
<polygon fill="midnightblue" stroke="midnightblue" points="842.76,-260.49 835.68,-268.37 846.13,-266.62 842.76,-260.49"/>
</g>
<!-- Node38&#45;&gt;Node3 -->
<g id="edge44" class="edge">
<title>Node38&#45;&gt;Node3</title>
<path fill="none" stroke="midnightblue" d="M1516.5,-200.98C1410.12,-181.95 1297.91,-166.26 1232.78,-157.59"/>
<polygon fill="midnightblue" stroke="midnightblue" points="1515.98,-204.44 1526.44,-202.77 1517.22,-197.55 1515.98,-204.44"/>
</g>
<!-- Node38&#45;&gt;Node15 -->
<g id="edge45" class="edge">
<title>Node38&#45;&gt;Node15</title>
<path fill="none" stroke="midnightblue" d="M1516.36,-201.08C1428.66,-186.78 1385.45,-222.87 1325,-165 1306.63,-147.42 1304.5,-115.79 1304.99,-97.53"/>
<polygon fill="midnightblue" stroke="midnightblue" points="1515.95,-204.57 1526.41,-202.91 1517.2,-197.68 1515.95,-204.57"/>
</g>
<!-- Node38&#45;&gt;Node22 -->
<g id="edge46" class="edge">
<title>Node38&#45;&gt;Node22</title>
<path fill="none" stroke="midnightblue" d="M1562.17,-194.6C1551.45,-184.78 1538.95,-173.34 1529.38,-164.58"/>
<polygon fill="midnightblue" stroke="midnightblue" points="1559.85,-197.22 1569.59,-201.4 1564.58,-192.06 1559.85,-197.22"/>
</g>
<!-- Node38&#45;&gt;Node25 -->
<g id="edge47" class="edge">
<title>Node38&#45;&gt;Node25</title>
<path fill="none" stroke="midnightblue" d="M1610.06,-194.88C1622.06,-185.01 1636.13,-173.43 1646.89,-164.58"/>
<polygon fill="midnightblue" stroke="midnightblue" points="1607.64,-192.34 1602.14,-201.4 1612.09,-197.75 1607.64,-192.34"/>
</g>
<!-- Node38&#45;&gt;Node28 -->
<g id="edge48" class="edge">
<title>Node38&#45;&gt;Node28</title>
<path fill="none" stroke="midnightblue" d="M1653.58,-204.27C1729.92,-191.77 1851.98,-171.79 1923.83,-160.02"/>
<polygon fill="midnightblue" stroke="midnightblue" points="1652.88,-200.84 1643.58,-205.91 1654.01,-207.75 1652.88,-200.84"/>
</g>
<!-- Node38&#45;&gt;Node31 -->
<g id="edge49" class="edge">
<title>Node38&#45;&gt;Node31</title>
<path fill="none" stroke="midnightblue" d="M1644.14,-198.71C1681.4,-188.14 1728.97,-174.63 1764.29,-164.61"/>
<polygon fill="midnightblue" stroke="midnightblue" points="1643.07,-195.38 1634.41,-201.48 1644.98,-202.11 1643.07,-195.38"/>
</g>
<!-- Node38&#45;&gt;Node37 -->
<g id="edge51" class="edge">
<title>Node38&#45;&gt;Node37</title>
<path fill="none" stroke="midnightblue" d="M1516.46,-201.06C1337.42,-174.86 1288.43,-192.43 1114,-165 1104.1,-163.44 1093.44,-161.24 1083.72,-159.03"/>
<polygon fill="midnightblue" stroke="midnightblue" points="1516.07,-204.54 1526.48,-202.55 1517.1,-197.62 1516.07,-204.54"/>
</g>
<!-- Node39 -->
<g id="node39" class="node">
<title>Node39</title>
<g id="a_node39"><a xlink:href="data__out_8cc.html" target="_top" xlink:title=" ">
<polygon fill="none" stroke="black" points="1334,-140 1334,-159 1442,-159 1442,-140 1334,-140"/>
<text text-anchor="middle" x="1388" y="-147" font-family="Helvetica,sans-Serif" font-size="10.00">source/data_out.cc</text>
</a>
</g>
</g>
<!-- Node38&#45;&gt;Node39 -->
<g id="edge50" class="edge">
<title>Node38&#45;&gt;Node39</title>
<path fill="none" stroke="midnightblue" d="M1532.29,-198.11C1493.96,-185.46 1443.74,-168.89 1413.78,-159.01"/>
<polygon fill="midnightblue" stroke="midnightblue" points="1531.66,-201.59 1542.25,-201.4 1533.85,-194.94 1531.66,-201.59"/>
</g>
<!-- Node40&#45;&gt;Node3 -->
<g id="edge53" class="edge">
<title>Node40&#45;&gt;Node3</title>
<path fill="none" stroke="midnightblue" d="M1786.09,-209.01C1684.97,-199.46 1490.44,-181.04 1325,-165 1294.5,-162.04 1260.44,-158.69 1232.79,-155.95"/>
<polygon fill="midnightblue" stroke="midnightblue" points="1785.89,-212.5 1796.17,-209.96 1786.55,-205.54 1785.89,-212.5"/>
</g>
<!-- Node40&#45;&gt;Node15 -->
<g id="edge54" class="edge">
<title>Node40&#45;&gt;Node15</title>
<path fill="none" stroke="midnightblue" d="M1871.48,-192.45C1882.2,-174.41 1891.71,-149.81 1877,-134 1839.29,-93.46 1434.88,-105.34 1380,-98 1377.02,-97.6 1373.97,-97.16 1370.9,-96.68"/>
<polygon fill="midnightblue" stroke="midnightblue" points="1868.32,-190.9 1865.88,-201.21 1874.22,-194.67 1868.32,-190.9"/>
</g>
<!-- Node40&#45;&gt;Node22 -->
<g id="edge55" class="edge">
<title>Node40&#45;&gt;Node22</title>
<path fill="none" stroke="midnightblue" d="M1786.32,-203.81C1730.17,-194.06 1648.79,-179.46 1578,-165 1574.76,-164.34 1571.44,-163.64 1568.09,-162.92"/>
<polygon fill="midnightblue" stroke="midnightblue" points="1786.05,-207.32 1796.5,-205.58 1787.24,-200.42 1786.05,-207.32"/>
</g>
<!-- Node40&#45;&gt;Node25 -->
<g id="edge56" class="edge">
<title>Node40&#45;&gt;Node25</title>
<path fill="none" stroke="midnightblue" d="M1803.85,-198.09C1773.01,-187.6 1734.25,-174.41 1705.36,-164.58"/>
<polygon fill="midnightblue" stroke="midnightblue" points="1802.96,-201.49 1813.56,-201.4 1805.22,-194.86 1802.96,-201.49"/>
</g>
<!-- Node40&#45;&gt;Node28 -->
<g id="edge57" class="edge">
<title>Node40&#45;&gt;Node28</title>
<path fill="none" stroke="midnightblue" d="M1891.7,-196.71C1911.73,-186.46 1936.12,-173.98 1954.5,-164.58"/>
<polygon fill="midnightblue" stroke="midnightblue" points="1889.86,-193.72 1882.56,-201.4 1893.05,-199.96 1889.86,-193.72"/>
</g>
<!-- Node40&#45;&gt;Node31 -->
<g id="edge58" class="edge">
<title>Node40&#45;&gt;Node31</title>
<path fill="none" stroke="midnightblue" d="M1840.72,-192.87C1834.79,-183.46 1828.09,-172.83 1822.88,-164.58"/>
<polygon fill="midnightblue" stroke="midnightblue" points="1837.81,-194.81 1846.1,-201.4 1843.73,-191.07 1837.81,-194.81"/>
</g>
<!-- Node41 -->
<g id="node41" class="node">
<title>Node41</title>
<g id="a_node41"><a xlink:href="grid__refinement_8cc.html" target="_top" xlink:title=" ">
<polygon fill="none" stroke="black" points="2058.5,-140 2058.5,-159 2201.5,-159 2201.5,-140 2058.5,-140"/>
<text text-anchor="middle" x="2130" y="-147" font-family="Helvetica,sans-Serif" font-size="10.00">source/grid_refinement.cc</text>
</a>
</g>
</g>
<!-- Node40&#45;&gt;Node41 -->
<g id="edge59" class="edge">
<title>Node40&#45;&gt;Node41</title>
<path fill="none" stroke="midnightblue" d="M1923.5,-199.31C1977.45,-186.56 2050.54,-169.28 2093.73,-159.07"/>
<polygon fill="midnightblue" stroke="midnightblue" points="1922.58,-195.93 1913.66,-201.64 1924.19,-202.74 1922.58,-195.93"/>
</g>
</g>
</svg>
