<?xml version="1.0" encoding="UTF-8" standalone="no"?>
<!DOCTYPE svg PUBLIC "-//W3C//DTD SVG 1.1//EN"
 "http://www.w3.org/Graphics/SVG/1.1/DTD/svg11.dtd">
<!-- Generated by graphviz version 2.43.0 (0)
 -->
<!-- Title: include/parsed_tools/enum.h Pages: 1 -->
<svg width="2593pt" height="374pt"
 viewBox="0.00 0.00 2592.50 374.00" xmlns="http://www.w3.org/2000/svg" xmlns:xlink="http://www.w3.org/1999/xlink">
<g id="graph0" class="graph" transform="scale(1 1) rotate(0) translate(4 370)">
<title>include/parsed_tools/enum.h</title>
<!-- Node1 -->
<g id="node1" class="node">
<title>Node1</title>
<g id="a_node1"><a xlink:title=" ">
<polygon fill="#bfbfbf" stroke="black" points="1943.5,-335.5 1943.5,-365.5 2060.5,-365.5 2060.5,-335.5 1943.5,-335.5"/>
<text text-anchor="start" x="1951.5" y="-353.5" font-family="Helvetica,sans-Serif" font-size="10.00">include/parsed_tools</text>
<text text-anchor="middle" x="2002" y="-342.5" font-family="Helvetica,sans-Serif" font-size="10.00">/enum.h</text>
</a>
</g>
</g>
<!-- Node2 -->
<g id="node2" class="node">
<title>Node2</title>
<g id="a_node2"><a xlink:href="boundary__conditions_8h.html" target="_top" xlink:title=" ">
<polygon fill="none" stroke="black" points="1453,-201.5 1453,-231.5 1583,-231.5 1583,-201.5 1453,-201.5"/>
<text text-anchor="start" x="1461" y="-219.5" font-family="Helvetica,sans-Serif" font-size="10.00">include/parsed_tools</text>
<text text-anchor="middle" x="1518" y="-208.5" font-family="Helvetica,sans-Serif" font-size="10.00">/boundary_conditions.h</text>
</a>
</g>
</g>
<!-- Node1&#45;&gt;Node2 -->
<g id="edge1" class="edge">
<title>Node1&#45;&gt;Node2</title>
<path fill="none" stroke="midnightblue" d="M1933.27,-333.46C1893.13,-323.9 1841.57,-311.26 1796,-299 1713.68,-276.85 1618.5,-248.31 1563.57,-231.54"/>
<polygon fill="midnightblue" stroke="midnightblue" points="1932.68,-336.92 1943.22,-335.83 1934.3,-330.11 1932.68,-336.92"/>
</g>
<!-- Node30 -->
<g id="node30" class="node">
<title>Node30</title>
<g id="a_node30"><a xlink:href="source_2pdes_2serial_2reduced__lagrange_8cc.html" target="_top" xlink:title=" ">
<polygon fill="none" stroke="black" points="2376,-67.5 2376,-97.5 2496,-97.5 2496,-67.5 2376,-67.5"/>
<text text-anchor="start" x="2384" y="-85.5" font-family="Helvetica,sans-Serif" font-size="10.00">source/pdes/serial</text>
<text text-anchor="middle" x="2436" y="-74.5" font-family="Helvetica,sans-Serif" font-size="10.00">/reduced_lagrange.cc</text>
</a>
</g>
</g>
<!-- Node1&#45;&gt;Node30 -->
<g id="edge64" class="edge">
<title>Node1&#45;&gt;Node30</title>
<path fill="none" stroke="midnightblue" d="M2033.8,-330.01C2117.17,-278.91 2340.64,-141.94 2413.03,-97.58"/>
<polygon fill="midnightblue" stroke="midnightblue" points="2031.72,-327.18 2025.03,-335.39 2035.38,-333.14 2031.72,-327.18"/>
</g>
<!-- Node36 -->
<g id="node36" class="node">
<title>Node36</title>
<g id="a_node36"><a xlink:href="components_8h.html" target="_top" xlink:title=" ">
<polygon fill="none" stroke="black" points="835.5,-268.5 835.5,-298.5 952.5,-298.5 952.5,-268.5 835.5,-268.5"/>
<text text-anchor="start" x="843.5" y="-286.5" font-family="Helvetica,sans-Serif" font-size="10.00">include/parsed_tools</text>
<text text-anchor="middle" x="894" y="-275.5" font-family="Helvetica,sans-Serif" font-size="10.00">/components.h</text>
</a>
</g>
</g>
<!-- Node1&#45;&gt;Node36 -->
<g id="edge36" class="edge">
<title>Node1&#45;&gt;Node36</title>
<path fill="none" stroke="midnightblue" d="M1933.01,-345.45C1730.66,-333.58 1141.1,-299 952.65,-287.94"/>
<polygon fill="midnightblue" stroke="midnightblue" points="1933.02,-348.96 1943.21,-346.05 1933.43,-341.97 1933.02,-348.96"/>
</g>
<!-- Node39 -->
<g id="node39" class="node">
<title>Node39</title>
<g id="a_node39"><a xlink:href="data__out_8h.html" target="_top" xlink:title=" ">
<polygon fill="none" stroke="black" points="1601.5,-201.5 1601.5,-231.5 1718.5,-231.5 1718.5,-201.5 1601.5,-201.5"/>
<text text-anchor="start" x="1609.5" y="-219.5" font-family="Helvetica,sans-Serif" font-size="10.00">include/parsed_tools</text>
<text text-anchor="middle" x="1660" y="-208.5" font-family="Helvetica,sans-Serif" font-size="10.00">/data_out.h</text>
</a>
</g>
</g>
<!-- Node1&#45;&gt;Node39 -->
<g id="edge44" class="edge">
<title>Node1&#45;&gt;Node39</title>
<path fill="none" stroke="midnightblue" d="M1956.03,-331.76C1887.29,-305.23 1759.11,-255.75 1696.42,-231.56"/>
<polygon fill="midnightblue" stroke="midnightblue" points="1955.13,-335.16 1965.72,-335.5 1957.65,-328.63 1955.13,-335.16"/>
</g>
<!-- Node41 -->
<g id="node41" class="node">
<title>Node41</title>
<g id="a_node41"><a xlink:href="grid__refinement_8h.html" target="_top" xlink:title=" ">
<polygon fill="none" stroke="black" points="1871.5,-201.5 1871.5,-231.5 1988.5,-231.5 1988.5,-201.5 1871.5,-201.5"/>
<text text-anchor="start" x="1879.5" y="-219.5" font-family="Helvetica,sans-Serif" font-size="10.00">include/parsed_tools</text>
<text text-anchor="middle" x="1930" y="-208.5" font-family="Helvetica,sans-Serif" font-size="10.00">/grid_refinement.h</text>
</a>
</g>
</g>
<!-- Node1&#45;&gt;Node41 -->
<g id="edge53" class="edge">
<title>Node1&#45;&gt;Node41</title>
<path fill="none" stroke="midnightblue" d="M1989.44,-326.48C1974.49,-299.07 1950.01,-254.19 1937.65,-231.52"/>
<polygon fill="midnightblue" stroke="midnightblue" points="1986.43,-328.27 1994.29,-335.37 1992.58,-324.92 1986.43,-328.27"/>
</g>
<!-- Node43 -->
<g id="node43" class="node">
<title>Node43</title>
<g id="a_node43"><a xlink:href="non__matching__coupling_8cc.html" target="_top" xlink:title=" ">
<polygon fill="none" stroke="black" points="2155.5,-268.5 2155.5,-298.5 2276.5,-298.5 2276.5,-268.5 2155.5,-268.5"/>
<text text-anchor="start" x="2163.5" y="-286.5" font-family="Helvetica,sans-Serif" font-size="10.00">source/non_matching</text>
<text text-anchor="middle" x="2216" y="-275.5" font-family="Helvetica,sans-Serif" font-size="10.00">_coupling.cc</text>
</a>
</g>
</g>
<!-- Node1&#45;&gt;Node43 -->
<g id="edge61" class="edge">
<title>Node1&#45;&gt;Node43</title>
<path fill="none" stroke="midnightblue" d="M2058.15,-332.44C2092.84,-321.91 2136.82,-308.55 2169.54,-298.61"/>
<polygon fill="midnightblue" stroke="midnightblue" points="2056.72,-329.22 2048.17,-335.48 2058.76,-335.92 2056.72,-329.22"/>
</g>
<!-- Node44 -->
<g id="node44" class="node">
<title>Node44</title>
<g id="a_node44"><a xlink:href="amg__petsc_8cc.html" target="_top" xlink:title=" ">
<polygon fill="none" stroke="black" points="2294.5,-268.5 2294.5,-298.5 2423.5,-298.5 2423.5,-268.5 2294.5,-268.5"/>
<text text-anchor="start" x="2302.5" y="-286.5" font-family="Helvetica,sans-Serif" font-size="10.00">source/parsed_lac/amg</text>
<text text-anchor="middle" x="2359" y="-275.5" font-family="Helvetica,sans-Serif" font-size="10.00">_petsc.cc</text>
</a>
</g>
</g>
<!-- Node1&#45;&gt;Node44 -->
<g id="edge62" class="edge">
<title>Node1&#45;&gt;Node44</title>
<path fill="none" stroke="midnightblue" d="M2070.6,-337.7C2128.17,-327.7 2212.53,-312.83 2286,-299 2288.67,-298.5 2291.39,-297.98 2294.13,-297.45"/>
<polygon fill="midnightblue" stroke="midnightblue" points="2069.79,-334.29 2060.53,-339.45 2070.98,-341.19 2069.79,-334.29"/>
</g>
<!-- Node45 -->
<g id="node45" class="node">
<title>Node45</title>
<g id="a_node45"><a xlink:href="inverse__operator_8cc.html" target="_top" xlink:title=" ">
<polygon fill="none" stroke="black" points="2441.5,-268.5 2441.5,-298.5 2584.5,-298.5 2584.5,-268.5 2441.5,-268.5"/>
<text text-anchor="start" x="2449.5" y="-286.5" font-family="Helvetica,sans-Serif" font-size="10.00">source/parsed_lac/inverse</text>
<text text-anchor="middle" x="2513" y="-275.5" font-family="Helvetica,sans-Serif" font-size="10.00">_operator.cc</text>
</a>
</g>
</g>
<!-- Node1&#45;&gt;Node45 -->
<g id="edge63" class="edge">
<title>Node1&#45;&gt;Node45</title>
<path fill="none" stroke="midnightblue" d="M2070.78,-342.78C2156,-334.15 2305.54,-318 2433,-299 2435.65,-298.6 2438.35,-298.19 2441.08,-297.76"/>
<polygon fill="midnightblue" stroke="midnightblue" points="2070.31,-339.31 2060.71,-343.8 2071.01,-346.28 2070.31,-339.31"/>
</g>
<!-- Node3 -->
<g id="node3" class="node">
<title>Node3</title>
<g id="a_node3"><a xlink:href="distributed__lagrange_8h.html" target="_top" xlink:title=" ">
<polygon fill="none" stroke="black" points="1253,-67.5 1253,-97.5 1387,-97.5 1387,-67.5 1253,-67.5"/>
<text text-anchor="start" x="1261" y="-85.5" font-family="Helvetica,sans-Serif" font-size="10.00">include/pdes/distributed</text>
<text text-anchor="middle" x="1320" y="-74.5" font-family="Helvetica,sans-Serif" font-size="10.00">_lagrange.h</text>
</a>
</g>
</g>
<!-- Node2&#45;&gt;Node3 -->
<g id="edge2" class="edge">
<title>Node2&#45;&gt;Node3</title>
<path fill="none" stroke="midnightblue" d="M1442.81,-201.83C1416.73,-194.28 1388.64,-182.68 1367,-165 1344.99,-147.01 1331.19,-115.83 1324.6,-97.69"/>
<polygon fill="midnightblue" stroke="midnightblue" points="1442.12,-205.27 1452.68,-204.53 1443.96,-198.52 1442.12,-205.27"/>
</g>
<!-- Node7 -->
<g id="node7" class="node">
<title>Node7</title>
<g id="a_node7"><a xlink:href="linear__problem_8h.html" target="_top" xlink:title=" ">
<polygon fill="none" stroke="black" points="1205.5,-134.5 1205.5,-164.5 1314.5,-164.5 1314.5,-134.5 1205.5,-134.5"/>
<text text-anchor="start" x="1213.5" y="-152.5" font-family="Helvetica,sans-Serif" font-size="10.00">include/pdes/linear</text>
<text text-anchor="middle" x="1260" y="-141.5" font-family="Helvetica,sans-Serif" font-size="10.00">_problem.h</text>
</a>
</g>
</g>
<!-- Node2&#45;&gt;Node7 -->
<g id="edge6" class="edge">
<title>Node2&#45;&gt;Node7</title>
<path fill="none" stroke="midnightblue" d="M1452.61,-199.03C1409.98,-188.29 1354.98,-174.43 1314.68,-164.28"/>
<polygon fill="midnightblue" stroke="midnightblue" points="1451.78,-202.43 1462.34,-201.48 1453.49,-195.64 1451.78,-202.43"/>
</g>
<!-- Node23 -->
<g id="node23" class="node">
<title>Node23</title>
<g id="a_node23"><a xlink:href="serial_2poisson_8h.html" target="_top" xlink:title=" ">
<polygon fill="none" stroke="black" points="1535,-134.5 1535,-164.5 1643,-164.5 1643,-134.5 1535,-134.5"/>
<text text-anchor="start" x="1543" y="-152.5" font-family="Helvetica,sans-Serif" font-size="10.00">include/pdes/serial</text>
<text text-anchor="middle" x="1589" y="-141.5" font-family="Helvetica,sans-Serif" font-size="10.00">/poisson.h</text>
</a>
</g>
</g>
<!-- Node2&#45;&gt;Node23 -->
<g id="edge23" class="edge">
<title>Node2&#45;&gt;Node23</title>
<path fill="none" stroke="midnightblue" d="M1540.83,-194.6C1551.55,-184.78 1564.05,-173.34 1573.62,-164.58"/>
<polygon fill="midnightblue" stroke="midnightblue" points="1538.42,-192.06 1533.41,-201.4 1543.15,-197.22 1538.42,-192.06"/>
</g>
<!-- Node26 -->
<g id="node26" class="node">
<title>Node26</title>
<g id="a_node26"><a xlink:href="poisson__nitsche__interface_8h.html" target="_top" xlink:title=" ">
<polygon fill="none" stroke="black" points="1661.5,-134.5 1661.5,-164.5 1816.5,-164.5 1816.5,-134.5 1661.5,-134.5"/>
<text text-anchor="start" x="1669.5" y="-152.5" font-family="Helvetica,sans-Serif" font-size="10.00">include/pdes/serial</text>
<text text-anchor="middle" x="1739" y="-141.5" font-family="Helvetica,sans-Serif" font-size="10.00">/poisson_nitsche_interface.h</text>
</a>
</g>
</g>
<!-- Node2&#45;&gt;Node26 -->
<g id="edge26" class="edge">
<title>Node2&#45;&gt;Node26</title>
<path fill="none" stroke="midnightblue" d="M1575.53,-198.58C1611.42,-188.02 1657.09,-174.59 1691.02,-164.61"/>
<polygon fill="midnightblue" stroke="midnightblue" points="1574.29,-195.3 1565.68,-201.48 1576.26,-202.01 1574.29,-195.3"/>
</g>
<!-- Node29 -->
<g id="node29" class="node">
<title>Node29</title>
<g id="a_node29"><a xlink:href="reduced__lagrange_8h.html" target="_top" xlink:title=" ">
<polygon fill="none" stroke="black" points="1999,-134.5 1999,-164.5 2115,-164.5 2115,-134.5 1999,-134.5"/>
<text text-anchor="start" x="2007" y="-152.5" font-family="Helvetica,sans-Serif" font-size="10.00">include/pdes/serial</text>
<text text-anchor="middle" x="2057" y="-141.5" font-family="Helvetica,sans-Serif" font-size="10.00">/reduced_lagrange.h</text>
</a>
</g>
</g>
<!-- Node2&#45;&gt;Node29 -->
<g id="edge29" class="edge">
<title>Node2&#45;&gt;Node29</title>
<path fill="none" stroke="midnightblue" d="M1593.58,-201.01C1753.4,-178 1796.04,-183.58 1952,-165 1967.17,-163.19 1983.54,-161.03 1998.73,-158.94"/>
<polygon fill="midnightblue" stroke="midnightblue" points="1592.78,-197.59 1583.39,-202.5 1593.79,-204.52 1592.78,-197.59"/>
</g>
<!-- Node32 -->
<g id="node32" class="node">
<title>Node32</title>
<g id="a_node32"><a xlink:href="serial_2stokes_8h.html" target="_top" xlink:title=" ">
<polygon fill="none" stroke="black" points="1835,-134.5 1835,-164.5 1943,-164.5 1943,-134.5 1835,-134.5"/>
<text text-anchor="start" x="1843" y="-152.5" font-family="Helvetica,sans-Serif" font-size="10.00">include/pdes/serial</text>
<text text-anchor="middle" x="1889" y="-141.5" font-family="Helvetica,sans-Serif" font-size="10.00">/stokes.h</text>
</a>
</g>
</g>
<!-- Node2&#45;&gt;Node32 -->
<g id="edge32" class="edge">
<title>Node2&#45;&gt;Node32</title>
<path fill="none" stroke="midnightblue" d="M1592.69,-201.05C1592.8,-201.04 1592.9,-201.02 1593,-201 1696.24,-183.05 1723.1,-184.76 1826,-165 1828.87,-164.45 1831.8,-163.86 1834.76,-163.25"/>
<polygon fill="midnightblue" stroke="midnightblue" points="1592.25,-197.58 1583.01,-202.78 1593.47,-204.47 1592.25,-197.58"/>
</g>
<!-- Node35 -->
<g id="node35" class="node">
<title>Node35</title>
<g id="a_node35"><a xlink:href="boundary__conditions_8cc.html" target="_top" xlink:title=" ">
<polygon fill="none" stroke="black" points="893.5,-140 893.5,-159 1060.5,-159 1060.5,-140 893.5,-140"/>
<text text-anchor="middle" x="977" y="-147" font-family="Helvetica,sans-Serif" font-size="10.00">source/boundary_conditions.cc</text>
</a>
</g>
</g>
<!-- Node2&#45;&gt;Node35 -->
<g id="edge35" class="edge">
<title>Node2&#45;&gt;Node35</title>
<path fill="none" stroke="midnightblue" d="M1442.97,-208.02C1353.89,-198.92 1200.9,-182.57 1070,-165 1056.72,-163.22 1042.41,-161.09 1029.08,-159.02"/>
<polygon fill="midnightblue" stroke="midnightblue" points="1442.67,-211.51 1452.98,-209.04 1443.38,-204.55 1442.67,-211.51"/>
</g>
<!-- Node4 -->
<g id="node4" class="node">
<title>Node4</title>
<g id="a_node4"><a xlink:href="source_2pdes_2distributed__lagrange_8cc.html" target="_top" xlink:title=" ">
<polygon fill="none" stroke="black" points="1666.5,-0.5 1666.5,-30.5 1797.5,-30.5 1797.5,-0.5 1666.5,-0.5"/>
<text text-anchor="start" x="1674.5" y="-18.5" font-family="Helvetica,sans-Serif" font-size="10.00">source/pdes/distributed</text>
<text text-anchor="middle" x="1732" y="-7.5" font-family="Helvetica,sans-Serif" font-size="10.00">_lagrange.cc</text>
</a>
</g>
</g>
<!-- Node3&#45;&gt;Node4 -->
<g id="edge3" class="edge">
<title>Node3&#45;&gt;Node4</title>
<path fill="none" stroke="midnightblue" d="M1397.24,-67.02C1514.27,-48.26 1545.66,-49.74 1658,-31 1660.71,-30.55 1663.48,-30.07 1666.27,-29.58"/>
<polygon fill="midnightblue" stroke="midnightblue" points="1396.47,-63.6 1387.16,-68.65 1397.59,-70.51 1396.47,-63.6"/>
</g>
<!-- Node5 -->
<g id="node5" class="node">
<title>Node5</title>
<g id="a_node5"><a xlink:href="apps_2mpi_2distributed__lagrange_8cc.html" target="_top" xlink:title=" ">
<polygon fill="none" stroke="black" points="1388.5,-0.5 1388.5,-30.5 1505.5,-30.5 1505.5,-0.5 1388.5,-0.5"/>
<text text-anchor="start" x="1396.5" y="-18.5" font-family="Helvetica,sans-Serif" font-size="10.00">apps/mpi/distributed</text>
<text text-anchor="middle" x="1447" y="-7.5" font-family="Helvetica,sans-Serif" font-size="10.00">_lagrange.cc</text>
</a>
</g>
</g>
<!-- Node3&#45;&gt;Node5 -->
<g id="edge4" class="edge">
<title>Node3&#45;&gt;Node5</title>
<path fill="none" stroke="midnightblue" d="M1356.7,-62.71C1376.73,-52.46 1401.12,-39.98 1419.5,-30.58"/>
<polygon fill="midnightblue" stroke="midnightblue" points="1354.86,-59.72 1347.56,-67.4 1358.05,-65.96 1354.86,-59.72"/>
</g>
<!-- Node6 -->
<g id="node6" class="node">
<title>Node6</title>
<g id="a_node6"><a xlink:href="apps_2serial_2distributed__lagrange_8cc.html" target="_top" xlink:title=" ">
<polygon fill="none" stroke="black" points="1523.5,-0.5 1523.5,-30.5 1648.5,-30.5 1648.5,-0.5 1523.5,-0.5"/>
<text text-anchor="start" x="1531.5" y="-18.5" font-family="Helvetica,sans-Serif" font-size="10.00">apps/serial/distributed</text>
<text text-anchor="middle" x="1586" y="-7.5" font-family="Helvetica,sans-Serif" font-size="10.00">_lagrange.cc</text>
</a>
</g>
</g>
<!-- Node3&#45;&gt;Node6 -->
<g id="edge5" class="edge">
<title>Node3&#45;&gt;Node6</title>
<path fill="none" stroke="midnightblue" d="M1387.31,-65.05C1430.8,-54.43 1486.8,-40.74 1528.25,-30.61"/>
<polygon fill="midnightblue" stroke="midnightblue" points="1386.27,-61.7 1377.39,-67.48 1387.94,-68.5 1386.27,-61.7"/>
</g>
<!-- Node7&#45;&gt;Node3 -->
<g id="edge7" class="edge">
<title>Node7&#45;&gt;Node3</title>
<path fill="none" stroke="midnightblue" d="M1279.82,-127.02C1288.76,-117.34 1299.07,-106.17 1307.01,-97.58"/>
<polygon fill="midnightblue" stroke="midnightblue" points="1277.23,-124.67 1273.02,-134.4 1282.37,-129.42 1277.23,-124.67"/>
</g>
<!-- Node8 -->
<g id="node8" class="node">
<title>Node8</title>
<g id="a_node8"><a xlink:href="linear__elasticity_8h.html" target="_top" xlink:title=" ">
<polygon fill="none" stroke="black" points="266.5,-67.5 266.5,-97.5 375.5,-97.5 375.5,-67.5 266.5,-67.5"/>
<text text-anchor="start" x="274.5" y="-85.5" font-family="Helvetica,sans-Serif" font-size="10.00">include/pdes/linear</text>
<text text-anchor="middle" x="321" y="-74.5" font-family="Helvetica,sans-Serif" font-size="10.00">_elasticity.h</text>
</a>
</g>
</g>
<!-- Node7&#45;&gt;Node8 -->
<g id="edge8" class="edge">
<title>Node7&#45;&gt;Node8</title>
<path fill="none" stroke="midnightblue" d="M1195.51,-133.95C905.72,-93.56 828.63,-115.46 540,-98 484.09,-94.62 420.18,-90.34 375.89,-87.31"/>
<polygon fill="midnightblue" stroke="midnightblue" points="1195.08,-137.42 1205.47,-135.35 1196.06,-130.49 1195.08,-137.42"/>
</g>
<!-- Node12 -->
<g id="node12" class="node">
<title>Node12</title>
<g id="a_node12"><a xlink:href="linear__visco__elasticity_8h.html" target="_top" xlink:title=" ">
<polygon fill="none" stroke="black" points="1125.5,-67.5 1125.5,-97.5 1234.5,-97.5 1234.5,-67.5 1125.5,-67.5"/>
<text text-anchor="start" x="1133.5" y="-85.5" font-family="Helvetica,sans-Serif" font-size="10.00">include/pdes/linear</text>
<text text-anchor="middle" x="1180" y="-74.5" font-family="Helvetica,sans-Serif" font-size="10.00">_visco_elasticity.h</text>
</a>
</g>
</g>
<!-- Node7&#45;&gt;Node12 -->
<g id="edge12" class="edge">
<title>Node7&#45;&gt;Node12</title>
<path fill="none" stroke="midnightblue" d="M1234.63,-127.88C1222.47,-118.01 1208.22,-106.43 1197.32,-97.58"/>
<polygon fill="midnightblue" stroke="midnightblue" points="1232.67,-130.81 1242.64,-134.4 1237.09,-125.37 1232.67,-130.81"/>
</g>
<!-- Node16 -->
<g id="node16" class="node">
<title>Node16</title>
<g id="a_node16"><a xlink:href="mpi_2poisson_8h.html" target="_top" xlink:title=" ">
<polygon fill="none" stroke="black" points="689.5,-73 689.5,-92 838.5,-92 838.5,-73 689.5,-73"/>
<text text-anchor="middle" x="764" y="-80" font-family="Helvetica,sans-Serif" font-size="10.00">include/pdes/mpi/poisson.h</text>
</a>
</g>
</g>
<!-- Node7&#45;&gt;Node16 -->
<g id="edge16" class="edge">
<title>Node7&#45;&gt;Node16</title>
<path fill="none" stroke="midnightblue" d="M1195.26,-133.81C1064.67,-111.65 923.06,-97.25 838.68,-89.69"/>
<polygon fill="midnightblue" stroke="midnightblue" points="1194.99,-137.31 1205.44,-135.56 1196.17,-130.41 1194.99,-137.31"/>
</g>
<!-- Node19 -->
<g id="node19" class="node">
<title>Node19</title>
<g id="a_node19"><a xlink:href="stokes_8h.html" target="_top" xlink:title=" ">
<polygon fill="none" stroke="black" points="549,-73 549,-92 671,-92 671,-73 549,-73"/>
<text text-anchor="middle" x="610" y="-80" font-family="Helvetica,sans-Serif" font-size="10.00">include/pdes/stokes.h</text>
</a>
</g>
</g>
<!-- Node7&#45;&gt;Node19 -->
<g id="edge19" class="edge">
<title>Node7&#45;&gt;Node19</title>
<path fill="none" stroke="midnightblue" d="M1195.55,-133.94C967.86,-100.92 905.56,-128.63 681,-98 669.91,-96.49 657.94,-94.27 647.06,-92.03"/>
<polygon fill="midnightblue" stroke="midnightblue" points="1195.06,-137.4 1205.46,-135.4 1196.08,-130.48 1195.06,-137.4"/>
</g>
<!-- Node22 -->
<g id="node22" class="node">
<title>Node22</title>
<g id="a_node22"><a xlink:href="linear__problem_8cc.html" target="_top" xlink:title=" ">
<polygon fill="none" stroke="black" points="1001,-67.5 1001,-97.5 1107,-97.5 1107,-67.5 1001,-67.5"/>
<text text-anchor="start" x="1009" y="-85.5" font-family="Helvetica,sans-Serif" font-size="10.00">source/pdes/linear</text>
<text text-anchor="middle" x="1054" y="-74.5" font-family="Helvetica,sans-Serif" font-size="10.00">_problem.cc</text>
</a>
</g>
</g>
<!-- Node7&#45;&gt;Node22 -->
<g id="edge22" class="edge">
<title>Node7&#45;&gt;Node22</title>
<path fill="none" stroke="midnightblue" d="M1205.95,-131.44C1172.55,-120.91 1130.22,-107.55 1098.72,-97.61"/>
<polygon fill="midnightblue" stroke="midnightblue" points="1204.96,-134.8 1215.55,-134.48 1207.07,-128.13 1204.96,-134.8"/>
</g>
<!-- Node9 -->
<g id="node9" class="node">
<title>Node9</title>
<g id="a_node9"><a xlink:href="source_2pdes_2linear__elasticity_8cc.html" target="_top" xlink:title=" ">
<polygon fill="none" stroke="black" points="0,-0.5 0,-30.5 106,-30.5 106,-0.5 0,-0.5"/>
<text text-anchor="start" x="8" y="-18.5" font-family="Helvetica,sans-Serif" font-size="10.00">source/pdes/linear</text>
<text text-anchor="middle" x="53" y="-7.5" font-family="Helvetica,sans-Serif" font-size="10.00">_elasticity.cc</text>
</a>
</g>
</g>
<!-- Node8&#45;&gt;Node9 -->
<g id="edge9" class="edge">
<title>Node8&#45;&gt;Node9</title>
<path fill="none" stroke="midnightblue" d="M256.57,-65.87C210.53,-54.71 149.35,-39.87 106.11,-29.38"/>
<polygon fill="midnightblue" stroke="midnightblue" points="255.9,-69.31 266.44,-68.27 257.55,-62.51 255.9,-69.31"/>
</g>
<!-- Node10 -->
<g id="node10" class="node">
<title>Node10</title>
<g id="a_node10"><a xlink:href="apps_2mpi_2linear__elasticity_8cc.html" target="_top" xlink:title=" ">
<polygon fill="none" stroke="black" points="243.5,-6 243.5,-25 398.5,-25 398.5,-6 243.5,-6"/>
<text text-anchor="middle" x="321" y="-13" font-family="Helvetica,sans-Serif" font-size="10.00">apps/mpi/linear_elasticity.cc</text>
</a>
</g>
</g>
<!-- Node8&#45;&gt;Node10 -->
<g id="edge10" class="edge">
<title>Node8&#45;&gt;Node10</title>
<path fill="none" stroke="midnightblue" d="M321,-57.25C321,-46.02 321,-33.38 321,-25.19"/>
<polygon fill="midnightblue" stroke="midnightblue" points="317.5,-57.4 321,-67.4 324.5,-57.4 317.5,-57.4"/>
</g>
<!-- Node11 -->
<g id="node11" class="node">
<title>Node11</title>
<g id="a_node11"><a xlink:href="apps_2serial_2linear__elasticity_8cc.html" target="_top" xlink:title=" ">
<polygon fill="none" stroke="black" points="124.5,-0.5 124.5,-30.5 225.5,-30.5 225.5,-0.5 124.5,-0.5"/>
<text text-anchor="start" x="132.5" y="-18.5" font-family="Helvetica,sans-Serif" font-size="10.00">apps/serial/linear</text>
<text text-anchor="middle" x="175" y="-7.5" font-family="Helvetica,sans-Serif" font-size="10.00">_elasticity.cc</text>
</a>
</g>
</g>
<!-- Node8&#45;&gt;Node11 -->
<g id="edge11" class="edge">
<title>Node8&#45;&gt;Node11</title>
<path fill="none" stroke="midnightblue" d="M280.05,-63.27C256.8,-52.92 228.13,-40.15 206.62,-30.58"/>
<polygon fill="midnightblue" stroke="midnightblue" points="278.76,-66.53 289.32,-67.4 281.61,-60.13 278.76,-66.53"/>
</g>
<!-- Node13 -->
<g id="node13" class="node">
<title>Node13</title>
<g id="a_node13"><a xlink:href="source_2pdes_2linear__visco__elasticity_8cc.html" target="_top" xlink:title=" ">
<polygon fill="none" stroke="black" points="990,-0.5 990,-30.5 1100,-30.5 1100,-0.5 990,-0.5"/>
<text text-anchor="start" x="998" y="-18.5" font-family="Helvetica,sans-Serif" font-size="10.00">source/pdes/linear</text>
<text text-anchor="middle" x="1045" y="-7.5" font-family="Helvetica,sans-Serif" font-size="10.00">_visco_elasticity.cc</text>
</a>
</g>
</g>
<!-- Node12&#45;&gt;Node13 -->
<g id="edge13" class="edge">
<title>Node12&#45;&gt;Node13</title>
<path fill="none" stroke="midnightblue" d="M1141.56,-62.99C1120.16,-52.69 1093.95,-40.07 1074.24,-30.58"/>
<polygon fill="midnightblue" stroke="midnightblue" points="1140.18,-66.21 1150.71,-67.4 1143.22,-59.9 1140.18,-66.21"/>
</g>
<!-- Node14 -->
<g id="node14" class="node">
<title>Node14</title>
<g id="a_node14"><a xlink:href="apps_2mpi_2linear__visco__elasticity_8cc.html" target="_top" xlink:title=" ">
<polygon fill="none" stroke="black" points="1118.5,-0.5 1118.5,-30.5 1241.5,-30.5 1241.5,-0.5 1118.5,-0.5"/>
<text text-anchor="start" x="1126.5" y="-18.5" font-family="Helvetica,sans-Serif" font-size="10.00">apps/mpi/linear_visco</text>
<text text-anchor="middle" x="1180" y="-7.5" font-family="Helvetica,sans-Serif" font-size="10.00">_elasticity.cc</text>
</a>
</g>
</g>
<!-- Node12&#45;&gt;Node14 -->
<g id="edge14" class="edge">
<title>Node12&#45;&gt;Node14</title>
<path fill="none" stroke="midnightblue" d="M1180,-57.11C1180,-48.15 1180,-38.32 1180,-30.58"/>
<polygon fill="midnightblue" stroke="midnightblue" points="1176.5,-57.4 1180,-67.4 1183.5,-57.4 1176.5,-57.4"/>
</g>
<!-- Node15 -->
<g id="node15" class="node">
<title>Node15</title>
<g id="a_node15"><a xlink:href="apps_2serial_2linear__visco__elasticity_8cc.html" target="_top" xlink:title=" ">
<polygon fill="none" stroke="black" points="1260,-0.5 1260,-30.5 1370,-30.5 1370,-0.5 1260,-0.5"/>
<text text-anchor="start" x="1268" y="-18.5" font-family="Helvetica,sans-Serif" font-size="10.00">apps/serial/linear</text>
<text text-anchor="middle" x="1315" y="-7.5" font-family="Helvetica,sans-Serif" font-size="10.00">_visco_elasticity.cc</text>
</a>
</g>
</g>
<!-- Node12&#45;&gt;Node15 -->
<g id="edge15" class="edge">
<title>Node12&#45;&gt;Node15</title>
<path fill="none" stroke="midnightblue" d="M1218.44,-62.99C1239.84,-52.69 1266.05,-40.07 1285.76,-30.58"/>
<polygon fill="midnightblue" stroke="midnightblue" points="1216.78,-59.9 1209.29,-67.4 1219.82,-66.21 1216.78,-59.9"/>
</g>
<!-- Node17 -->
<g id="node17" class="node">
<title>Node17</title>
<g id="a_node17"><a xlink:href="source_2pdes_2mpi_2poisson_8cc.html" target="_top" xlink:title=" ">
<polygon fill="none" stroke="black" points="686.5,-6 686.5,-25 837.5,-25 837.5,-6 686.5,-6"/>
<text text-anchor="middle" x="762" y="-13" font-family="Helvetica,sans-Serif" font-size="10.00">source/pdes/mpi/poisson.cc</text>
</a>
</g>
</g>
<!-- Node16&#45;&gt;Node17 -->
<g id="edge17" class="edge">
<title>Node16&#45;&gt;Node17</title>
<path fill="none" stroke="midnightblue" d="M763.42,-62.54C763.04,-50.17 762.56,-34.62 762.27,-25.13"/>
<polygon fill="midnightblue" stroke="midnightblue" points="759.92,-62.85 763.73,-72.73 766.92,-62.63 759.92,-62.85"/>
</g>
<!-- Node18 -->
<g id="node18" class="node">
<title>Node18</title>
<g id="a_node18"><a xlink:href="apps_2mpi_2poisson_8cc.html" target="_top" xlink:title=" ">
<polygon fill="none" stroke="black" points="856,-6 856,-25 972,-25 972,-6 856,-6"/>
<text text-anchor="middle" x="914" y="-13" font-family="Helvetica,sans-Serif" font-size="10.00">apps/mpi/poisson.cc</text>
</a>
</g>
</g>
<!-- Node16&#45;&gt;Node18 -->
<g id="edge18" class="edge">
<title>Node16&#45;&gt;Node18</title>
<path fill="none" stroke="midnightblue" d="M793.35,-68.78C823.06,-55.91 868.18,-36.35 894,-25.17"/>
<polygon fill="midnightblue" stroke="midnightblue" points="791.7,-65.68 783.92,-72.87 794.49,-72.1 791.7,-65.68"/>
</g>
<!-- Node20 -->
<g id="node20" class="node">
<title>Node20</title>
<g id="a_node20"><a xlink:href="source_2pdes_2stokes_8cc.html" target="_top" xlink:title=" ">
<polygon fill="none" stroke="black" points="416.5,-6 416.5,-25 539.5,-25 539.5,-6 416.5,-6"/>
<text text-anchor="middle" x="478" y="-13" font-family="Helvetica,sans-Serif" font-size="10.00">source/pdes/stokes.cc</text>
</a>
</g>
</g>
<!-- Node19&#45;&gt;Node20 -->
<g id="edge20" class="edge">
<title>Node19&#45;&gt;Node20</title>
<path fill="none" stroke="midnightblue" d="M583.49,-68.44C557.34,-55.57 518.12,-36.26 495.6,-25.17"/>
<polygon fill="midnightblue" stroke="midnightblue" points="581.95,-71.59 592.47,-72.87 585.05,-65.31 581.95,-71.59"/>
</g>
<!-- Node21 -->
<g id="node21" class="node">
<title>Node21</title>
<g id="a_node21"><a xlink:href="apps_2mpi_2stokes_8cc.html" target="_top" xlink:title=" ">
<polygon fill="none" stroke="black" points="558,-6 558,-25 668,-25 668,-6 558,-6"/>
<text text-anchor="middle" x="613" y="-13" font-family="Helvetica,sans-Serif" font-size="10.00">apps/mpi/stokes.cc</text>
</a>
</g>
</g>
<!-- Node19&#45;&gt;Node21 -->
<g id="edge21" class="edge">
<title>Node19&#45;&gt;Node21</title>
<path fill="none" stroke="midnightblue" d="M610.88,-62.54C611.45,-50.17 612.16,-34.62 612.6,-25.13"/>
<polygon fill="midnightblue" stroke="midnightblue" points="607.37,-62.58 610.4,-72.73 614.36,-62.91 607.37,-62.58"/>
</g>
<!-- Node24 -->
<g id="node24" class="node">
<title>Node24</title>
<g id="a_node24"><a xlink:href="source_2pdes_2serial_2poisson_8cc.html" target="_top" xlink:title=" ">
<polygon fill="none" stroke="black" points="1405.5,-67.5 1405.5,-97.5 1510.5,-97.5 1510.5,-67.5 1405.5,-67.5"/>
<text text-anchor="start" x="1413.5" y="-85.5" font-family="Helvetica,sans-Serif" font-size="10.00">source/pdes/serial</text>
<text text-anchor="middle" x="1458" y="-74.5" font-family="Helvetica,sans-Serif" font-size="10.00">/poisson.cc</text>
</a>
</g>
</g>
<!-- Node23&#45;&gt;Node24 -->
<g id="edge24" class="edge">
<title>Node23&#45;&gt;Node24</title>
<path fill="none" stroke="midnightblue" d="M1551.42,-129.85C1530.71,-119.58 1505.41,-107.03 1486.37,-97.58"/>
<polygon fill="midnightblue" stroke="midnightblue" points="1550.06,-133.09 1560.57,-134.4 1553.17,-126.82 1550.06,-133.09"/>
</g>
<!-- Node25 -->
<g id="node25" class="node">
<title>Node25</title>
<g id="a_node25"><a xlink:href="apps_2serial_2poisson_8cc.html" target="_top" xlink:title=" ">
<polygon fill="none" stroke="black" points="1529,-73 1529,-92 1653,-92 1653,-73 1529,-73"/>
<text text-anchor="middle" x="1591" y="-80" font-family="Helvetica,sans-Serif" font-size="10.00">apps/serial/poisson.cc</text>
</a>
</g>
</g>
<!-- Node23&#45;&gt;Node25 -->
<g id="edge25" class="edge">
<title>Node23&#45;&gt;Node25</title>
<path fill="none" stroke="midnightblue" d="M1589.75,-124.25C1590.09,-113.02 1590.48,-100.38 1590.73,-92.19"/>
<polygon fill="midnightblue" stroke="midnightblue" points="1586.24,-124.29 1589.43,-134.4 1593.24,-124.51 1586.24,-124.29"/>
</g>
<!-- Node27 -->
<g id="node27" class="node">
<title>Node27</title>
<g id="a_node27"><a xlink:href="source_2pdes_2serial_2poisson__nitsche__interface_8cc.html" target="_top" xlink:title=" ">
<polygon fill="none" stroke="black" points="1671,-67.5 1671,-97.5 1831,-97.5 1831,-67.5 1671,-67.5"/>
<text text-anchor="start" x="1679" y="-85.5" font-family="Helvetica,sans-Serif" font-size="10.00">source/pdes/serial</text>
<text text-anchor="middle" x="1751" y="-74.5" font-family="Helvetica,sans-Serif" font-size="10.00">/poisson_nitsche_interface.cc</text>
</a>
</g>
</g>
<!-- Node26&#45;&gt;Node27 -->
<g id="edge27" class="edge">
<title>Node26&#45;&gt;Node27</title>
<path fill="none" stroke="midnightblue" d="M1743.45,-124.4C1745.12,-115.37 1746.96,-105.41 1748.4,-97.58"/>
<polygon fill="midnightblue" stroke="midnightblue" points="1739.98,-123.93 1741.6,-134.4 1746.86,-125.2 1739.98,-123.93"/>
</g>
<!-- Node28 -->
<g id="node28" class="node">
<title>Node28</title>
<g id="a_node28"><a xlink:href="apps_2serial_2poisson__nitsche__interface_8cc.html" target="_top" xlink:title=" ">
<polygon fill="none" stroke="black" points="1849.5,-67.5 1849.5,-97.5 1968.5,-97.5 1968.5,-67.5 1849.5,-67.5"/>
<text text-anchor="start" x="1857.5" y="-85.5" font-family="Helvetica,sans-Serif" font-size="10.00">apps/serial/poisson</text>
<text text-anchor="middle" x="1909" y="-74.5" font-family="Helvetica,sans-Serif" font-size="10.00">_nitsche_interface.cc</text>
</a>
</g>
</g>
<!-- Node26&#45;&gt;Node28 -->
<g id="edge28" class="edge">
<title>Node26&#45;&gt;Node28</title>
<path fill="none" stroke="midnightblue" d="M1785.24,-130.82C1812.57,-120.37 1846.69,-107.32 1872.18,-97.58"/>
<polygon fill="midnightblue" stroke="midnightblue" points="1783.98,-127.56 1775.89,-134.4 1786.48,-134.09 1783.98,-127.56"/>
</g>
<!-- Node29&#45;&gt;Node30 -->
<g id="edge30" class="edge">
<title>Node29&#45;&gt;Node30</title>
<path fill="none" stroke="midnightblue" d="M2125.23,-134.04C2233.71,-114.78 2263.1,-116.63 2367,-98 2369.89,-97.48 2372.85,-96.93 2375.83,-96.36"/>
<polygon fill="midnightblue" stroke="midnightblue" points="2124.42,-130.63 2115.19,-135.84 2125.65,-137.52 2124.42,-130.63"/>
</g>
<!-- Node31 -->
<g id="node31" class="node">
<title>Node31</title>
<g id="a_node31"><a xlink:href="apps_2serial_2reduced__lagrange_8cc.html" target="_top" xlink:title=" ">
<polygon fill="none" stroke="black" points="2246,-67.5 2246,-97.5 2358,-97.5 2358,-67.5 2246,-67.5"/>
<text text-anchor="start" x="2254" y="-85.5" font-family="Helvetica,sans-Serif" font-size="10.00">apps/serial/reduced</text>
<text text-anchor="middle" x="2302" y="-74.5" font-family="Helvetica,sans-Serif" font-size="10.00">_lagrange.cc</text>
</a>
</g>
</g>
<!-- Node29&#45;&gt;Node31 -->
<g id="edge31" class="edge">
<title>Node29&#45;&gt;Node31</title>
<path fill="none" stroke="midnightblue" d="M2119.76,-131.85C2159.7,-121.25 2210.87,-107.68 2248.81,-97.61"/>
<polygon fill="midnightblue" stroke="midnightblue" points="2118.63,-128.53 2109.86,-134.48 2120.42,-135.29 2118.63,-128.53"/>
</g>
<!-- Node33 -->
<g id="node33" class="node">
<title>Node33</title>
<g id="a_node33"><a xlink:href="source_2pdes_2serial_2stokes_8cc.html" target="_top" xlink:title=" ">
<polygon fill="none" stroke="black" points="1986.5,-67.5 1986.5,-97.5 2091.5,-97.5 2091.5,-67.5 1986.5,-67.5"/>
<text text-anchor="start" x="1994.5" y="-85.5" font-family="Helvetica,sans-Serif" font-size="10.00">source/pdes/serial</text>
<text text-anchor="middle" x="2039" y="-74.5" font-family="Helvetica,sans-Serif" font-size="10.00">/stokes.cc</text>
</a>
</g>
</g>
<!-- Node32&#45;&gt;Node33 -->
<g id="edge33" class="edge">
<title>Node32&#45;&gt;Node33</title>
<path fill="none" stroke="midnightblue" d="M1930.75,-130.41C1954.7,-120.03 1984.32,-107.2 2006.52,-97.58"/>
<polygon fill="midnightblue" stroke="midnightblue" points="1929.33,-127.21 1921.55,-134.4 1932.11,-133.63 1929.33,-127.21"/>
</g>
<!-- Node34 -->
<g id="node34" class="node">
<title>Node34</title>
<g id="a_node34"><a xlink:href="apps_2serial_2stokes_8cc.html" target="_top" xlink:title=" ">
<polygon fill="none" stroke="black" points="2110,-73 2110,-92 2228,-92 2228,-73 2110,-73"/>
<text text-anchor="middle" x="2169" y="-80" font-family="Helvetica,sans-Serif" font-size="10.00">apps/serial/stokes.cc</text>
</a>
</g>
</g>
<!-- Node32&#45;&gt;Node34 -->
<g id="edge34" class="edge">
<title>Node32&#45;&gt;Node34</title>
<path fill="none" stroke="midnightblue" d="M1953.39,-133.55C2008.82,-120.69 2086.83,-102.58 2132.23,-92.03"/>
<polygon fill="midnightblue" stroke="midnightblue" points="1952.27,-130.22 1943.32,-135.89 1953.85,-137.04 1952.27,-130.22"/>
</g>
<!-- Node36&#45;&gt;Node2 -->
<g id="edge37" class="edge">
<title>Node36&#45;&gt;Node2</title>
<path fill="none" stroke="midnightblue" d="M962.98,-275.31C1084.35,-262.67 1334.42,-236.62 1452.95,-224.28"/>
<polygon fill="midnightblue" stroke="midnightblue" points="962.29,-271.87 952.7,-276.38 963.01,-278.83 962.29,-271.87"/>
</g>
<!-- Node36&#45;&gt;Node9 -->
<g id="edge40" class="edge">
<title>Node36&#45;&gt;Node9</title>
<path fill="none" stroke="midnightblue" d="M827.23,-265.93C789.49,-256.38 741.5,-243.94 699,-232 501.38,-176.48 450.71,-165.92 257,-98 195.64,-76.49 125.52,-47.48 85.53,-30.5"/>
<polygon fill="midnightblue" stroke="midnightblue" points="826.54,-269.36 837.09,-268.42 828.25,-262.58 826.54,-269.36"/>
</g>
<!-- Node36&#45;&gt;Node13 -->
<g id="edge41" class="edge">
<title>Node36&#45;&gt;Node13</title>
<path fill="none" stroke="midnightblue" d="M885.5,-258.65C876.09,-228 864.75,-173.99 885,-134 911,-82.65 971.17,-48.29 1009.86,-30.61"/>
<polygon fill="midnightblue" stroke="midnightblue" points="882.27,-260.03 888.69,-268.45 888.92,-257.86 882.27,-260.03"/>
</g>
<!-- Node36&#45;&gt;Node20 -->
<g id="edge42" class="edge">
<title>Node36&#45;&gt;Node20</title>
<path fill="none" stroke="midnightblue" d="M844.47,-264.76C772.05,-237.13 635.52,-178.53 540,-98 513.9,-76 492.08,-41.16 482.79,-25.11"/>
<polygon fill="midnightblue" stroke="midnightblue" points="843.66,-268.19 854.25,-268.45 846.13,-261.64 843.66,-268.19"/>
</g>
<!-- Node36&#45;&gt;Node35 -->
<g id="edge38" class="edge">
<title>Node36&#45;&gt;Node35</title>
<path fill="none" stroke="midnightblue" d="M908.23,-259.87C926.94,-230.12 958.92,-179.26 971.59,-159.1"/>
<polygon fill="midnightblue" stroke="midnightblue" points="905.24,-258.05 902.88,-268.37 911.17,-261.77 905.24,-258.05"/>
</g>
<!-- Node37 -->
<g id="node37" class="node">
<title>Node37</title>
<g id="a_node37"><a xlink:href="components_8cc.html" target="_top" xlink:title=" ">
<polygon fill="none" stroke="black" points="84.5,-207 84.5,-226 209.5,-226 209.5,-207 84.5,-207"/>
<text text-anchor="middle" x="147" y="-214" font-family="Helvetica,sans-Serif" font-size="10.00">source/components.cc</text>
</a>
</g>
</g>
<!-- Node36&#45;&gt;Node37 -->
<g id="edge39" class="edge">
<title>Node36&#45;&gt;Node37</title>
<path fill="none" stroke="midnightblue" d="M824.78,-279.82C702.91,-274.53 442.3,-260.69 224,-232 212.13,-230.44 199.32,-228.24 187.63,-226.02"/>
<polygon fill="midnightblue" stroke="midnightblue" points="824.93,-283.33 835.07,-280.26 825.23,-276.33 824.93,-283.33"/>
</g>
<!-- Node38 -->
<g id="node38" class="node">
<title>Node38</title>
<g id="a_node38"><a xlink:href="dof__plotter_8cc.html" target="_top" xlink:title="Degrees of freedom plotter.">
<polygon fill="none" stroke="black" points="1078.5,-140 1078.5,-159 1187.5,-159 1187.5,-140 1078.5,-140"/>
<text text-anchor="middle" x="1133" y="-147" font-family="Helvetica,sans-Serif" font-size="10.00">apps/dof_plotter.cc</text>
</a>
</g>
</g>
<!-- Node36&#45;&gt;Node38 -->
<g id="edge43" class="edge">
<title>Node36&#45;&gt;Node38</title>
<path fill="none" stroke="midnightblue" d="M928.55,-263.42C981.2,-234.34 1079.43,-180.08 1117.43,-159.1"/>
<polygon fill="midnightblue" stroke="midnightblue" points="926.64,-260.48 919.58,-268.37 930.02,-266.6 926.64,-260.48"/>
</g>
<!-- Node39&#45;&gt;Node3 -->
<g id="edge45" class="edge">
<title>Node39&#45;&gt;Node3</title>
<path fill="none" stroke="midnightblue" d="M1591.41,-201.01C1504.62,-185.45 1473.84,-204.38 1400,-165 1391.91,-160.68 1353.73,-120.04 1333.18,-97.83"/>
<polygon fill="midnightblue" stroke="midnightblue" points="1590.94,-204.48 1601.41,-202.91 1592.24,-197.61 1590.94,-204.48"/>
</g>
<!-- Node39&#45;&gt;Node7 -->
<g id="edge46" class="edge">
<title>Node39&#45;&gt;Node7</title>
<path fill="none" stroke="midnightblue" d="M1591.41,-200.96C1487.55,-182.21 1378.36,-166.54 1314.51,-157.78"/>
<polygon fill="midnightblue" stroke="midnightblue" points="1590.97,-204.44 1601.44,-202.78 1592.23,-197.55 1590.97,-204.44"/>
</g>
<!-- Node39&#45;&gt;Node23 -->
<g id="edge47" class="edge">
<title>Node39&#45;&gt;Node23</title>
<path fill="none" stroke="midnightblue" d="M1637.17,-194.6C1626.45,-184.78 1613.95,-173.34 1604.38,-164.58"/>
<polygon fill="midnightblue" stroke="midnightblue" points="1634.85,-197.22 1644.59,-201.4 1639.58,-192.06 1634.85,-197.22"/>
</g>
<!-- Node39&#45;&gt;Node26 -->
<g id="edge48" class="edge">
<title>Node39&#45;&gt;Node26</title>
<path fill="none" stroke="midnightblue" d="M1685.06,-194.88C1697.06,-185.01 1711.13,-173.43 1721.89,-164.58"/>
<polygon fill="midnightblue" stroke="midnightblue" points="1682.64,-192.34 1677.14,-201.4 1687.09,-197.75 1682.64,-192.34"/>
</g>
<!-- Node39&#45;&gt;Node29 -->
<g id="edge49" class="edge">
<title>Node39&#45;&gt;Node29</title>
<path fill="none" stroke="midnightblue" d="M1728.58,-204.27C1804.92,-191.77 1926.98,-171.79 1998.83,-160.02"/>
<polygon fill="midnightblue" stroke="midnightblue" points="1727.88,-200.84 1718.58,-205.91 1729.01,-207.75 1727.88,-200.84"/>
</g>
<!-- Node39&#45;&gt;Node32 -->
<g id="edge50" class="edge">
<title>Node39&#45;&gt;Node32</title>
<path fill="none" stroke="midnightblue" d="M1719.14,-198.71C1756.4,-188.14 1803.97,-174.63 1839.29,-164.61"/>
<polygon fill="midnightblue" stroke="midnightblue" points="1718.07,-195.38 1709.41,-201.48 1719.98,-202.11 1718.07,-195.38"/>
</g>
<!-- Node39&#45;&gt;Node38 -->
<g id="edge52" class="edge">
<title>Node39&#45;&gt;Node38</title>
<path fill="none" stroke="midnightblue" d="M1591.39,-201.05C1415.94,-175.22 1367.89,-192.02 1197,-165 1187.1,-163.43 1176.44,-161.23 1166.72,-159.01"/>
<polygon fill="midnightblue" stroke="midnightblue" points="1591.07,-204.54 1601.48,-202.56 1592.1,-197.62 1591.07,-204.54"/>
</g>
<!-- Node40 -->
<g id="node40" class="node">
<title>Node40</title>
<g id="a_node40"><a xlink:href="data__out_8cc.html" target="_top" xlink:title=" ">
<polygon fill="none" stroke="black" points="1409,-140 1409,-159 1517,-159 1517,-140 1409,-140"/>
<text text-anchor="middle" x="1463" y="-147" font-family="Helvetica,sans-Serif" font-size="10.00">source/data_out.cc</text>
</a>
</g>
</g>
<!-- Node39&#45;&gt;Node40 -->
<g id="edge51" class="edge">
<title>Node39&#45;&gt;Node40</title>
<path fill="none" stroke="midnightblue" d="M1607.29,-198.11C1568.96,-185.46 1518.74,-168.89 1488.78,-159.01"/>
<polygon fill="midnightblue" stroke="midnightblue" points="1606.66,-201.59 1617.25,-201.4 1608.85,-194.94 1606.66,-201.59"/>
</g>
<!-- Node41&#45;&gt;Node3 -->
<g id="edge54" class="edge">
<title>Node41&#45;&gt;Node3</title>
<path fill="none" stroke="midnightblue" d="M1946.32,-192.74C1957.14,-174.65 1966.85,-149.84 1952,-134 1909.74,-88.91 1458.31,-105.73 1397,-98 1393.76,-97.59 1390.45,-97.13 1387.12,-96.64"/>
<polygon fill="midnightblue" stroke="midnightblue" points="1943.16,-191.19 1940.69,-201.5 1949.04,-194.98 1943.16,-191.19"/>
</g>
<!-- Node41&#45;&gt;Node7 -->
<g id="edge55" class="edge">
<title>Node41&#45;&gt;Node7</title>
<path fill="none" stroke="midnightblue" d="M1861.08,-209.11C1759.94,-199.7 1565.4,-181.44 1400,-165 1371.79,-162.2 1340.4,-158.96 1314.51,-156.25"/>
<polygon fill="midnightblue" stroke="midnightblue" points="1860.88,-212.61 1871.16,-210.05 1861.53,-205.64 1860.88,-212.61"/>
</g>
<!-- Node41&#45;&gt;Node23 -->
<g id="edge56" class="edge">
<title>Node41&#45;&gt;Node23</title>
<path fill="none" stroke="midnightblue" d="M1861.32,-203.81C1805.17,-194.06 1723.79,-179.46 1653,-165 1649.76,-164.34 1646.44,-163.64 1643.09,-162.92"/>
<polygon fill="midnightblue" stroke="midnightblue" points="1861.05,-207.32 1871.5,-205.58 1862.24,-200.42 1861.05,-207.32"/>
</g>
<!-- Node41&#45;&gt;Node26 -->
<g id="edge57" class="edge">
<title>Node41&#45;&gt;Node26</title>
<path fill="none" stroke="midnightblue" d="M1878.85,-198.09C1848.01,-187.6 1809.25,-174.41 1780.36,-164.58"/>
<polygon fill="midnightblue" stroke="midnightblue" points="1877.96,-201.49 1888.56,-201.4 1880.22,-194.86 1877.96,-201.49"/>
</g>
<!-- Node41&#45;&gt;Node29 -->
<g id="edge58" class="edge">
<title>Node41&#45;&gt;Node29</title>
<path fill="none" stroke="midnightblue" d="M1966.7,-196.71C1986.73,-186.46 2011.12,-173.98 2029.5,-164.58"/>
<polygon fill="midnightblue" stroke="midnightblue" points="1964.86,-193.72 1957.56,-201.4 1968.05,-199.96 1964.86,-193.72"/>
</g>
<!-- Node41&#45;&gt;Node32 -->
<g id="edge59" class="edge">
<title>Node41&#45;&gt;Node32</title>
<path fill="none" stroke="midnightblue" d="M1915.72,-192.87C1909.79,-183.46 1903.09,-172.83 1897.88,-164.58"/>
<polygon fill="midnightblue" stroke="midnightblue" points="1912.81,-194.81 1921.1,-201.4 1918.73,-191.07 1912.81,-194.81"/>
</g>
<!-- Node42 -->
<g id="node42" class="node">
<title>Node42</title>
<g id="a_node42"><a xlink:href="grid__refinement_8cc.html" target="_top" xlink:title=" ">
<polygon fill="none" stroke="black" points="2133.5,-140 2133.5,-159 2276.5,-159 2276.5,-140 2133.5,-140"/>
<text text-anchor="middle" x="2205" y="-147" font-family="Helvetica,sans-Serif" font-size="10.00">source/grid_refinement.cc</text>
</a>
</g>
</g>
<!-- Node41&#45;&gt;Node42 -->
<g id="edge60" class="edge">
<title>Node41&#45;&gt;Node42</title>
<path fill="none" stroke="midnightblue" d="M1998.5,-199.31C2052.45,-186.56 2125.54,-169.28 2168.73,-159.07"/>
<polygon fill="midnightblue" stroke="midnightblue" points="1997.58,-195.93 1988.66,-201.64 1999.19,-202.74 1997.58,-195.93"/>
</g>
</g>
</svg>
