<?xml version="1.0" encoding="UTF-8" standalone="no"?>
<!DOCTYPE svg PUBLIC "-//W3C//DTD SVG 1.1//EN"
 "http://www.w3.org/Graphics/SVG/1.1/DTD/svg11.dtd">
<!-- Generated by graphviz version 2.43.0 (0)
 -->
<!-- Title: source/finite_element.cc Pages: 1 -->
<svg width="883pt" height="162pt"
 viewBox="0.00 0.00 882.50 162.00" xmlns="http://www.w3.org/2000/svg" xmlns:xlink="http://www.w3.org/1999/xlink">
<g id="graph0" class="graph" transform="scale(1 1) rotate(0) translate(4 158)">
<title>source/finite_element.cc</title>
<!-- Node1 -->
<g id="node1" class="node">
<title>Node1</title>
<g id="a_node1"><a xlink:title=" ">
<polygon fill="#bfbfbf" stroke="black" points="411.5,-134.5 411.5,-153.5 547.5,-153.5 547.5,-134.5 411.5,-134.5"/>
<text text-anchor="middle" x="479.5" y="-141.5" font-family="Helvetica,sans-Serif" font-size="10.00">source/finite_element.cc</text>
</a>
</g>
</g>
<!-- Node2 -->
<g id="node2" class="node">
<title>Node2</title>
<g id="a_node2"><a xlink:href="finite__element_8h.html" target="_top" xlink:title=" ">
<polygon fill="none" stroke="black" points="71,-67.5 71,-97.5 178,-97.5 178,-67.5 71,-67.5"/>
<text text-anchor="start" x="79" y="-85.5" font-family="Helvetica,sans-Serif" font-size="10.00">parsed_tools/finite</text>
<text text-anchor="middle" x="124.5" y="-74.5" font-family="Helvetica,sans-Serif" font-size="10.00">_element.h</text>
</a>
</g>
</g>
<!-- Node1&#45;&gt;Node2 -->
<g id="edge1" class="edge">
<title>Node1&#45;&gt;Node2</title>
<path fill="none" stroke="midnightblue" d="M415.18,-134.47C358.12,-126.59 272.3,-113.96 188.06,-98.02"/>
<polygon fill="midnightblue" stroke="midnightblue" points="188.54,-94.55 178.06,-96.11 187.23,-101.42 188.54,-94.55"/>
</g>
<!-- Node5 -->
<g id="node5" class="node">
<title>Node5</title>
<g id="a_node5"><a target="_parent" xlink:href="http://www.dealii.org/developer/doxygen/deal.II/patterns_8h.html.html" xlink:title=" ">
<polygon fill="none" stroke="black" points="196,-73 196,-92 321,-92 321,-73 196,-73"/>
<text text-anchor="middle" x="258.5" y="-80" font-family="Helvetica,sans-Serif" font-size="10.00">deal.II/base/patterns.h</text>
</a>
</g>
</g>
<!-- Node1&#45;&gt;Node5 -->
<g id="edge4" class="edge">
<title>Node1&#45;&gt;Node5</title>
<path fill="none" stroke="midnightblue" d="M447.84,-134.48C408.94,-124 342.86,-106.21 299.95,-94.66"/>
<polygon fill="midnightblue" stroke="midnightblue" points="300.67,-91.23 290.11,-92.01 298.85,-97.99 300.67,-91.23"/>
</g>
<!-- Node6 -->
<g id="node6" class="node">
<title>Node6</title>
<g id="a_node6"><a target="_parent" xlink:href="http://www.dealii.org/developer/doxygen/deal.II/fe__simplex__p_8h.html.html" xlink:title=" ">
<polygon fill="none" stroke="black" points="339,-73 339,-92 476,-92 476,-73 339,-73"/>
<text text-anchor="middle" x="407.5" y="-80" font-family="Helvetica,sans-Serif" font-size="10.00">deal.II/fe/fe_simplex_p.h</text>
</a>
</g>
</g>
<!-- Node1&#45;&gt;Node6 -->
<g id="edge5" class="edge">
<title>Node1&#45;&gt;Node6</title>
<path fill="none" stroke="midnightblue" d="M469.18,-134.48C457.85,-125.11 439.43,-109.88 425.66,-98.51"/>
<polygon fill="midnightblue" stroke="midnightblue" points="427.73,-95.68 417.8,-92.01 423.28,-101.08 427.73,-95.68"/>
</g>
<!-- Node7 -->
<g id="node7" class="node">
<title>Node7</title>
<g id="a_node7"><a target="_parent" xlink:href="http://www.dealii.org/developer/doxygen/deal.II/fe__simplex__p__bubbles_8h.html.html" xlink:title=" ">
<polygon fill="none" stroke="black" points="494.5,-67.5 494.5,-97.5 610.5,-97.5 610.5,-67.5 494.5,-67.5"/>
<text text-anchor="start" x="502.5" y="-85.5" font-family="Helvetica,sans-Serif" font-size="10.00">deal.II/fe/fe_simplex</text>
<text text-anchor="middle" x="552.5" y="-74.5" font-family="Helvetica,sans-Serif" font-size="10.00">_p_bubbles.h</text>
</a>
</g>
</g>
<!-- Node1&#45;&gt;Node7 -->
<g id="edge6" class="edge">
<title>Node1&#45;&gt;Node7</title>
<path fill="none" stroke="midnightblue" d="M489.96,-134.48C499.66,-126.57 514.49,-114.48 527.27,-104.07"/>
<polygon fill="midnightblue" stroke="midnightblue" points="529.76,-106.55 535.3,-97.52 525.33,-101.13 529.76,-106.55"/>
</g>
<!-- Node8 -->
<g id="node8" class="node">
<title>Node8</title>
<g id="a_node8"><a xlink:title=" ">
<polygon fill="none" stroke="#bfbfbf" points="629,-73 629,-92 792,-92 792,-73 629,-73"/>
<text text-anchor="middle" x="710.5" y="-80" font-family="Helvetica,sans-Serif" font-size="10.00">deal.II/fe/fe_tools.templates.h</text>
</a>
</g>
</g>
<!-- Node1&#45;&gt;Node8 -->
<g id="edge7" class="edge">
<title>Node1&#45;&gt;Node8</title>
<path fill="none" stroke="midnightblue" d="M512.6,-134.48C553.42,-123.96 622.91,-106.06 667.74,-94.51"/>
<polygon fill="midnightblue" stroke="midnightblue" points="668.65,-97.89 677.46,-92.01 666.91,-91.11 668.65,-97.89"/>
</g>
<!-- Node9 -->
<g id="node9" class="node">
<title>Node9</title>
<g id="a_node9"><a xlink:title=" ">
<polygon fill="none" stroke="#bfbfbf" points="810.5,-73 810.5,-92 874.5,-92 874.5,-73 810.5,-73"/>
<text text-anchor="middle" x="842.5" y="-80" font-family="Helvetica,sans-Serif" font-size="10.00">algorithm</text>
</a>
</g>
</g>
<!-- Node1&#45;&gt;Node9 -->
<g id="edge8" class="edge">
<title>Node1&#45;&gt;Node9</title>
<path fill="none" stroke="midnightblue" d="M547.78,-137.47C613.48,-131.22 715.27,-119.05 801.5,-98 804.73,-97.21 808.06,-96.27 811.36,-95.24"/>
<polygon fill="midnightblue" stroke="midnightblue" points="812.67,-98.49 821.04,-92 810.45,-91.85 812.67,-98.49"/>
</g>
<!-- Node3 -->
<g id="node3" class="node">
<title>Node3</title>
<g id="a_node3"><a target="_parent" xlink:href="http://www.dealii.org/developer/doxygen/deal.II/parameter__acceptor_8h.html.html" xlink:title=" ">
<polygon fill="none" stroke="black" points="0,-0.5 0,-30.5 127,-30.5 127,-0.5 0,-0.5"/>
<text text-anchor="start" x="8" y="-18.5" font-family="Helvetica,sans-Serif" font-size="10.00">deal.II/base/parameter</text>
<text text-anchor="middle" x="63.5" y="-7.5" font-family="Helvetica,sans-Serif" font-size="10.00">_acceptor.h</text>
</a>
</g>
</g>
<!-- Node2&#45;&gt;Node3 -->
<g id="edge2" class="edge">
<title>Node2&#45;&gt;Node3</title>
<path fill="none" stroke="midnightblue" d="M111.26,-67.4C103.19,-58.79 92.71,-47.63 83.63,-37.94"/>
<polygon fill="midnightblue" stroke="midnightblue" points="86.11,-35.47 76.71,-30.58 81,-40.26 86.11,-35.47"/>
</g>
<!-- Node4 -->
<g id="node4" class="node">
<title>Node4</title>
<g id="a_node4"><a target="_parent" xlink:href="http://www.dealii.org/developer/doxygen/deal.II/include_2deal_8II_2fe_2fe_8h.html.html" xlink:title=" ">
<polygon fill="none" stroke="black" points="145,-6 145,-25 226,-25 226,-6 145,-6"/>
<text text-anchor="middle" x="185.5" y="-13" font-family="Helvetica,sans-Serif" font-size="10.00">deal.II/fe/fe.h</text>
</a>
</g>
</g>
<!-- Node2&#45;&gt;Node4 -->
<g id="edge3" class="edge">
<title>Node2&#45;&gt;Node4</title>
<path fill="none" stroke="midnightblue" d="M137.74,-67.4C147.34,-57.16 160.35,-43.3 170.37,-32.62"/>
<polygon fill="midnightblue" stroke="midnightblue" points="173.05,-34.88 177.34,-25.19 167.95,-30.09 173.05,-34.88"/>
</g>
</g>
</svg>
