<?xml version="1.0" encoding="UTF-8" standalone="no"?>
<!DOCTYPE svg PUBLIC "-//W3C//DTD SVG 1.1//EN"
 "http://www.w3.org/Graphics/SVG/1.1/DTD/svg11.dtd">
<!-- Generated by graphviz version 2.43.0 (0)
 -->
<!-- Title: include/parsed_tools/finite_element.h Pages: 1 -->
<svg width="1059pt" height="173pt"
 viewBox="0.00 0.00 1059.00 173.00" xmlns="http://www.w3.org/2000/svg" xmlns:xlink="http://www.w3.org/1999/xlink">
<g id="graph0" class="graph" transform="scale(1 1) rotate(0) translate(4 169)">
<title>include/parsed_tools/finite_element.h</title>
<!-- Node1 -->
<g id="node1" class="node">
<title>Node1</title>
<g id="a_node1"><a xlink:title=" ">
<polygon fill="#bfbfbf" stroke="black" points="476.5,-134.5 476.5,-164.5 593.5,-164.5 593.5,-134.5 476.5,-134.5"/>
<text text-anchor="start" x="484.5" y="-152.5" font-family="Helvetica,sans-Serif" font-size="10.00">include/parsed_tools</text>
<text text-anchor="middle" x="535" y="-141.5" font-family="Helvetica,sans-Serif" font-size="10.00">/finite_element.h</text>
</a>
</g>
</g>
<!-- Node2 -->
<g id="node2" class="node">
<title>Node2</title>
<g id="a_node2"><a xlink:href="finite__element_8cc.html" target="_top" xlink:title=" ">
<polygon fill="none" stroke="black" points="54.5,-73 54.5,-92 191.5,-92 191.5,-73 54.5,-73"/>
<text text-anchor="middle" x="123" y="-80" font-family="Helvetica,sans-Serif" font-size="10.00">source/finite_element.cc</text>
</a>
</g>
</g>
<!-- Node1&#45;&gt;Node2 -->
<g id="edge1" class="edge">
<title>Node1&#45;&gt;Node2</title>
<path fill="none" stroke="midnightblue" d="M466.37,-138.9C398.58,-129.24 291.98,-113.59 200,-98 189.27,-96.18 177.73,-94.08 166.93,-92.06"/>
<polygon fill="midnightblue" stroke="midnightblue" points="466.1,-142.4 476.5,-140.34 467.09,-135.47 466.1,-142.4"/>
</g>
<!-- Node3 -->
<g id="node3" class="node">
<title>Node3</title>
<g id="a_node3"><a xlink:href="distributed__lagrange_8h.html" target="_top" xlink:title=" ">
<polygon fill="none" stroke="black" points="209.5,-67.5 209.5,-97.5 338.5,-97.5 338.5,-67.5 209.5,-67.5"/>
<text text-anchor="start" x="217.5" y="-85.5" font-family="Helvetica,sans-Serif" font-size="10.00">include/pdes/serial</text>
<text text-anchor="middle" x="274" y="-74.5" font-family="Helvetica,sans-Serif" font-size="10.00">/distributed_lagrange.h</text>
</a>
</g>
</g>
<!-- Node1&#45;&gt;Node3 -->
<g id="edge2" class="edge">
<title>Node1&#45;&gt;Node3</title>
<path fill="none" stroke="midnightblue" d="M468.95,-132.05C426.28,-121.43 371.34,-107.74 330.66,-97.61"/>
<polygon fill="midnightblue" stroke="midnightblue" points="468.14,-135.46 478.69,-134.48 469.83,-128.66 468.14,-135.46"/>
</g>
<!-- Node6 -->
<g id="node6" class="node">
<title>Node6</title>
<g id="a_node6"><a xlink:href="linear__elasticity_8h.html" target="_top" xlink:title=" ">
<polygon fill="none" stroke="black" points="418,-67.5 418,-97.5 526,-97.5 526,-67.5 418,-67.5"/>
<text text-anchor="start" x="426" y="-85.5" font-family="Helvetica,sans-Serif" font-size="10.00">include/pdes/serial</text>
<text text-anchor="middle" x="472" y="-74.5" font-family="Helvetica,sans-Serif" font-size="10.00">/linear_elasticity.h</text>
</a>
</g>
</g>
<!-- Node1&#45;&gt;Node6 -->
<g id="edge5" class="edge">
<title>Node1&#45;&gt;Node6</title>
<path fill="none" stroke="midnightblue" d="M514.19,-127.02C504.8,-117.34 493.98,-106.17 485.64,-97.58"/>
<polygon fill="midnightblue" stroke="midnightblue" points="511.86,-129.65 521.33,-134.4 516.88,-124.78 511.86,-129.65"/>
</g>
<!-- Node9 -->
<g id="node9" class="node">
<title>Node9</title>
<g id="a_node9"><a xlink:href="poisson_8h.html" target="_top" xlink:title=" ">
<polygon fill="none" stroke="black" points="544,-67.5 544,-97.5 652,-97.5 652,-67.5 544,-67.5"/>
<text text-anchor="start" x="552" y="-85.5" font-family="Helvetica,sans-Serif" font-size="10.00">include/pdes/serial</text>
<text text-anchor="middle" x="598" y="-74.5" font-family="Helvetica,sans-Serif" font-size="10.00">/poisson.h</text>
</a>
</g>
</g>
<!-- Node1&#45;&gt;Node9 -->
<g id="edge8" class="edge">
<title>Node1&#45;&gt;Node9</title>
<path fill="none" stroke="midnightblue" d="M555.81,-127.02C565.2,-117.34 576.02,-106.17 584.36,-97.58"/>
<polygon fill="midnightblue" stroke="midnightblue" points="553.12,-124.78 548.67,-134.4 558.14,-129.65 553.12,-124.78"/>
</g>
<!-- Node12 -->
<g id="node12" class="node">
<title>Node12</title>
<g id="a_node12"><a xlink:href="stokes_8h.html" target="_top" xlink:title=" ">
<polygon fill="none" stroke="black" points="740,-67.5 740,-97.5 848,-97.5 848,-67.5 740,-67.5"/>
<text text-anchor="start" x="748" y="-85.5" font-family="Helvetica,sans-Serif" font-size="10.00">include/pdes/serial</text>
<text text-anchor="middle" x="794" y="-74.5" font-family="Helvetica,sans-Serif" font-size="10.00">/stokes.h</text>
</a>
</g>
</g>
<!-- Node1&#45;&gt;Node12 -->
<g id="edge11" class="edge">
<title>Node1&#45;&gt;Node12</title>
<path fill="none" stroke="midnightblue" d="M600.71,-132.01C643.81,-121.19 699.48,-107.22 739.99,-97.05"/>
<polygon fill="midnightblue" stroke="midnightblue" points="599.73,-128.65 590.88,-134.48 601.43,-135.44 599.73,-128.65"/>
</g>
<!-- Node15 -->
<g id="node15" class="node">
<title>Node15</title>
<g id="a_node15"><a xlink:href="dof__plotter_8cc.html" target="_top" xlink:title=" ">
<polygon fill="none" stroke="black" points="866,-73 866,-92 976,-92 976,-73 866,-73"/>
<text text-anchor="middle" x="921" y="-80" font-family="Helvetica,sans-Serif" font-size="10.00">apps/dof_plotter.cc</text>
</a>
</g>
</g>
<!-- Node1&#45;&gt;Node15 -->
<g id="edge14" class="edge">
<title>Node1&#45;&gt;Node15</title>
<path fill="none" stroke="midnightblue" d="M603.84,-139.07C669.2,-129.8 770.09,-114.64 857,-98 866.18,-96.24 876.04,-94.12 885.21,-92.06"/>
<polygon fill="midnightblue" stroke="midnightblue" points="603.08,-135.64 593.67,-140.51 604.06,-142.57 603.08,-135.64"/>
</g>
<!-- Node4 -->
<g id="node4" class="node">
<title>Node4</title>
<g id="a_node4"><a xlink:href="source_2pdes_2serial_2distributed__lagrange_8cc.html" target="_top" xlink:title=" ">
<polygon fill="none" stroke="black" points="0,-0.5 0,-30.5 134,-30.5 134,-0.5 0,-0.5"/>
<text text-anchor="start" x="8" y="-18.5" font-family="Helvetica,sans-Serif" font-size="10.00">source/pdes/serial</text>
<text text-anchor="middle" x="67" y="-7.5" font-family="Helvetica,sans-Serif" font-size="10.00">/distributed_lagrange.cc</text>
</a>
</g>
</g>
<!-- Node3&#45;&gt;Node4 -->
<g id="edge3" class="edge">
<title>Node3&#45;&gt;Node4</title>
<path fill="none" stroke="midnightblue" d="M219.68,-64.44C186.13,-53.91 143.59,-40.55 111.94,-30.61"/>
<polygon fill="midnightblue" stroke="midnightblue" points="218.75,-67.82 229.34,-67.48 220.85,-61.14 218.75,-67.82"/>
</g>
<!-- Node5 -->
<g id="node5" class="node">
<title>Node5</title>
<g id="a_node5"><a xlink:href="apps_2serial_2distributed__lagrange_8cc.html" target="_top" xlink:title=" ">
<polygon fill="none" stroke="black" points="152.5,-0.5 152.5,-30.5 277.5,-30.5 277.5,-0.5 152.5,-0.5"/>
<text text-anchor="start" x="160.5" y="-18.5" font-family="Helvetica,sans-Serif" font-size="10.00">apps/serial/distributed</text>
<text text-anchor="middle" x="215" y="-7.5" font-family="Helvetica,sans-Serif" font-size="10.00">_lagrange.cc</text>
</a>
</g>
</g>
<!-- Node3&#45;&gt;Node5 -->
<g id="edge4" class="edge">
<title>Node3&#45;&gt;Node5</title>
<path fill="none" stroke="midnightblue" d="M254.25,-59.74C245.52,-50.12 235.5,-39.09 227.78,-30.58"/>
<polygon fill="midnightblue" stroke="midnightblue" points="251.89,-62.34 261.2,-67.4 257.07,-57.64 251.89,-62.34"/>
</g>
<!-- Node7 -->
<g id="node7" class="node">
<title>Node7</title>
<g id="a_node7"><a xlink:href="source_2pdes_2serial_2linear__elasticity_8cc.html" target="_top" xlink:title=" ">
<polygon fill="none" stroke="black" points="296,-0.5 296,-30.5 406,-30.5 406,-0.5 296,-0.5"/>
<text text-anchor="start" x="304" y="-18.5" font-family="Helvetica,sans-Serif" font-size="10.00">source/pdes/serial</text>
<text text-anchor="middle" x="351" y="-7.5" font-family="Helvetica,sans-Serif" font-size="10.00">/linear_elasticity.cc</text>
</a>
</g>
</g>
<!-- Node6&#45;&gt;Node7 -->
<g id="edge6" class="edge">
<title>Node6&#45;&gt;Node7</title>
<path fill="none" stroke="midnightblue" d="M436.77,-62.57C417.74,-52.35 394.63,-39.94 377.2,-30.58"/>
<polygon fill="midnightblue" stroke="midnightblue" points="435.28,-65.75 445.74,-67.4 438.59,-59.58 435.28,-65.75"/>
</g>
<!-- Node8 -->
<g id="node8" class="node">
<title>Node8</title>
<g id="a_node8"><a xlink:href="apps_2serial_2linear__elasticity_8cc.html" target="_top" xlink:title=" ">
<polygon fill="none" stroke="black" points="424.5,-0.5 424.5,-30.5 525.5,-30.5 525.5,-0.5 424.5,-0.5"/>
<text text-anchor="start" x="432.5" y="-18.5" font-family="Helvetica,sans-Serif" font-size="10.00">apps/serial/linear</text>
<text text-anchor="middle" x="475" y="-7.5" font-family="Helvetica,sans-Serif" font-size="10.00">_elasticity.cc</text>
</a>
</g>
</g>
<!-- Node6&#45;&gt;Node8 -->
<g id="edge7" class="edge">
<title>Node6&#45;&gt;Node8</title>
<path fill="none" stroke="midnightblue" d="M473.11,-57.4C473.53,-48.37 473.99,-38.41 474.35,-30.58"/>
<polygon fill="midnightblue" stroke="midnightblue" points="469.62,-57.25 472.65,-67.4 476.61,-57.57 469.62,-57.25"/>
</g>
<!-- Node10 -->
<g id="node10" class="node">
<title>Node10</title>
<g id="a_node10"><a xlink:href="source_2pdes_2serial_2poisson_8cc.html" target="_top" xlink:title=" ">
<polygon fill="none" stroke="black" points="543.5,-0.5 543.5,-30.5 648.5,-30.5 648.5,-0.5 543.5,-0.5"/>
<text text-anchor="start" x="551.5" y="-18.5" font-family="Helvetica,sans-Serif" font-size="10.00">source/pdes/serial</text>
<text text-anchor="middle" x="596" y="-7.5" font-family="Helvetica,sans-Serif" font-size="10.00">/poisson.cc</text>
</a>
</g>
</g>
<!-- Node9&#45;&gt;Node10 -->
<g id="edge9" class="edge">
<title>Node9&#45;&gt;Node10</title>
<path fill="none" stroke="midnightblue" d="M597.25,-57.11C596.97,-48.15 596.67,-38.32 596.43,-30.58"/>
<polygon fill="midnightblue" stroke="midnightblue" points="593.76,-57.51 597.57,-67.4 600.76,-57.29 593.76,-57.51"/>
</g>
<!-- Node11 -->
<g id="node11" class="node">
<title>Node11</title>
<g id="a_node11"><a xlink:href="apps_2serial_2poisson_8cc.html" target="_top" xlink:title=" ">
<polygon fill="none" stroke="black" points="667,-6 667,-25 791,-25 791,-6 667,-6"/>
<text text-anchor="middle" x="729" y="-13" font-family="Helvetica,sans-Serif" font-size="10.00">apps/serial/poisson.cc</text>
</a>
</g>
</g>
<!-- Node9&#45;&gt;Node11 -->
<g id="edge10" class="edge">
<title>Node9&#45;&gt;Node11</title>
<path fill="none" stroke="midnightblue" d="M635.68,-62.8C660.8,-50.34 692.61,-34.56 711.86,-25.01"/>
<polygon fill="midnightblue" stroke="midnightblue" points="633.83,-59.82 626.43,-67.4 636.94,-66.09 633.83,-59.82"/>
</g>
<!-- Node13 -->
<g id="node13" class="node">
<title>Node13</title>
<g id="a_node13"><a xlink:href="source_2pdes_2serial_2stokes_8cc.html" target="_top" xlink:title=" ">
<polygon fill="none" stroke="black" points="809.5,-0.5 809.5,-30.5 914.5,-30.5 914.5,-0.5 809.5,-0.5"/>
<text text-anchor="start" x="817.5" y="-18.5" font-family="Helvetica,sans-Serif" font-size="10.00">source/pdes/serial</text>
<text text-anchor="middle" x="862" y="-7.5" font-family="Helvetica,sans-Serif" font-size="10.00">/stokes.cc</text>
</a>
</g>
</g>
<!-- Node12&#45;&gt;Node13 -->
<g id="edge12" class="edge">
<title>Node12&#45;&gt;Node13</title>
<path fill="none" stroke="midnightblue" d="M816.17,-60.31C826.37,-50.56 838.19,-39.26 847.27,-30.58"/>
<polygon fill="midnightblue" stroke="midnightblue" points="813.57,-57.96 808.75,-67.4 818.4,-63.02 813.57,-57.96"/>
</g>
<!-- Node14 -->
<g id="node14" class="node">
<title>Node14</title>
<g id="a_node14"><a xlink:href="apps_2serial_2stokes_8cc.html" target="_top" xlink:title=" ">
<polygon fill="none" stroke="black" points="933,-6 933,-25 1051,-25 1051,-6 933,-6"/>
<text text-anchor="middle" x="992" y="-13" font-family="Helvetica,sans-Serif" font-size="10.00">apps/serial/stokes.cc</text>
</a>
</g>
</g>
<!-- Node12&#45;&gt;Node14 -->
<g id="edge13" class="edge">
<title>Node12&#45;&gt;Node14</title>
<path fill="none" stroke="midnightblue" d="M846.49,-64.27C885.07,-51.6 935.85,-34.93 966.09,-25.01"/>
<polygon fill="midnightblue" stroke="midnightblue" points="845.37,-60.95 836.96,-67.4 847.56,-67.6 845.37,-60.95"/>
</g>
</g>
</svg>
