<?xml version="1.0" encoding="UTF-8" standalone="no"?>
<!DOCTYPE svg PUBLIC "-//W3C//DTD SVG 1.1//EN"
 "http://www.w3.org/Graphics/SVG/1.1/DTD/svg11.dtd">
<!-- Generated by graphviz version 2.43.0 (0)
 -->
<!-- Title: include/parsed_tools/finite_element.h Pages: 1 -->
<svg width="368pt" height="151pt"
 viewBox="0.00 0.00 367.50 151.00" xmlns="http://www.w3.org/2000/svg" xmlns:xlink="http://www.w3.org/1999/xlink">
<g id="graph0" class="graph" transform="scale(1 1) rotate(0) translate(4 147)">
<title>include/parsed_tools/finite_element.h</title>
<!-- Node1 -->
<g id="node1" class="node">
<title>Node1</title>
<g id="a_node1"><a xlink:title=" ">
<polygon fill="#bfbfbf" stroke="black" points="87,-112.5 87,-142.5 204,-142.5 204,-112.5 87,-112.5"/>
<text text-anchor="start" x="95" y="-130.5" font-family="Helvetica,sans-Serif" font-size="10.00">include/parsed_tools</text>
<text text-anchor="middle" x="145.5" y="-119.5" font-family="Helvetica,sans-Serif" font-size="10.00">/finite_element.h</text>
</a>
</g>
</g>
<!-- Node2 -->
<g id="node2" class="node">
<title>Node2</title>
<g id="a_node2"><a xlink:href="finite__element_8cc.html" target="_top" xlink:title=" ">
<polygon fill="none" stroke="black" points="0,-56.5 0,-75.5 137,-75.5 137,-56.5 0,-56.5"/>
<text text-anchor="middle" x="68.5" y="-63.5" font-family="Helvetica,sans-Serif" font-size="10.00">source/finite_element.cc</text>
</a>
</g>
</g>
<!-- Node1&#45;&gt;Node2 -->
<g id="edge1" class="edge">
<title>Node1&#45;&gt;Node2</title>
<path fill="none" stroke="midnightblue" d="M119.21,-106.19C105.73,-95.77 90.02,-83.63 79.7,-75.66"/>
<polygon fill="midnightblue" stroke="midnightblue" points="117.2,-109.05 127.25,-112.4 121.48,-103.52 117.2,-109.05"/>
</g>
<!-- Node3 -->
<g id="node3" class="node">
<title>Node3</title>
<g id="a_node3"><a xlink:href="serial__poisson_8h.html" target="_top" xlink:title=" ">
<polygon fill="none" stroke="black" points="155.5,-56.5 155.5,-75.5 289.5,-75.5 289.5,-56.5 155.5,-56.5"/>
<text text-anchor="middle" x="222.5" y="-63.5" font-family="Helvetica,sans-Serif" font-size="10.00">include/serial_poisson.h</text>
</a>
</g>
</g>
<!-- Node1&#45;&gt;Node3 -->
<g id="edge2" class="edge">
<title>Node1&#45;&gt;Node3</title>
<path fill="none" stroke="midnightblue" d="M171.79,-106.19C185.27,-95.77 200.98,-83.63 211.3,-75.66"/>
<polygon fill="midnightblue" stroke="midnightblue" points="169.52,-103.52 163.75,-112.4 173.8,-109.05 169.52,-103.52"/>
</g>
<!-- Node4 -->
<g id="node4" class="node">
<title>Node4</title>
<g id="a_node4"><a xlink:href="source_2serial__poisson_8cc.html" target="_top" xlink:title=" ">
<polygon fill="none" stroke="black" points="80,-0.5 80,-19.5 215,-19.5 215,-0.5 80,-0.5"/>
<text text-anchor="middle" x="147.5" y="-7.5" font-family="Helvetica,sans-Serif" font-size="10.00">source/serial_poisson.cc</text>
</a>
</g>
</g>
<!-- Node3&#45;&gt;Node4 -->
<g id="edge3" class="edge">
<title>Node3&#45;&gt;Node4</title>
<path fill="none" stroke="midnightblue" d="M202.19,-50.38C188.64,-40.62 171.26,-28.11 159.77,-19.83"/>
<polygon fill="midnightblue" stroke="midnightblue" points="200.29,-53.32 210.45,-56.32 204.38,-47.64 200.29,-53.32"/>
</g>
<!-- Node5 -->
<g id="node5" class="node">
<title>Node5</title>
<g id="a_node5"><a xlink:href="apps_2serial__poisson_8cc.html" target="_top" xlink:title=" ">
<polygon fill="none" stroke="black" points="233.5,-0.5 233.5,-19.5 359.5,-19.5 359.5,-0.5 233.5,-0.5"/>
<text text-anchor="middle" x="296.5" y="-7.5" font-family="Helvetica,sans-Serif" font-size="10.00">apps/serial_poisson.cc</text>
</a>
</g>
</g>
<!-- Node3&#45;&gt;Node5 -->
<g id="edge4" class="edge">
<title>Node3&#45;&gt;Node5</title>
<path fill="none" stroke="midnightblue" d="M242.53,-50.38C255.91,-40.62 273.06,-28.11 284.39,-19.83"/>
<polygon fill="midnightblue" stroke="midnightblue" points="240.4,-47.6 234.39,-56.32 244.53,-53.26 240.4,-47.6"/>
</g>
</g>
</svg>
