<?xml version="1.0" encoding="UTF-8" standalone="no"?>
<!DOCTYPE svg PUBLIC "-//W3C//DTD SVG 1.1//EN"
 "http://www.w3.org/Graphics/SVG/1.1/DTD/svg11.dtd">
<!-- Generated by graphviz version 2.43.0 (0)
 -->
<!-- Title: include/parsed_tools/finite_element.h Pages: 1 -->
<svg width="2082pt" height="240pt"
 viewBox="0.00 0.00 2082.00 240.00" xmlns="http://www.w3.org/2000/svg" xmlns:xlink="http://www.w3.org/1999/xlink">
<g id="graph0" class="graph" transform="scale(1 1) rotate(0) translate(4 236)">
<title>include/parsed_tools/finite_element.h</title>
<!-- Node1 -->
<g id="node1" class="node">
<title>Node1</title>
<g id="a_node1"><a xlink:title=" ">
<polygon fill="#bfbfbf" stroke="black" points="1547.5,-201.5 1547.5,-231.5 1664.5,-231.5 1664.5,-201.5 1547.5,-201.5"/>
<text text-anchor="start" x="1555.5" y="-219.5" font-family="Helvetica,sans-Serif" font-size="10.00">include/parsed_tools</text>
<text text-anchor="middle" x="1606" y="-208.5" font-family="Helvetica,sans-Serif" font-size="10.00">/finite_element.h</text>
</a>
</g>
</g>
<!-- Node2 -->
<g id="node2" class="node">
<title>Node2</title>
<g id="a_node2"><a xlink:href="linear__problem_8h.html" target="_top" xlink:title=" ">
<polygon fill="none" stroke="black" points="727.5,-134.5 727.5,-164.5 836.5,-164.5 836.5,-134.5 727.5,-134.5"/>
<text text-anchor="start" x="735.5" y="-152.5" font-family="Helvetica,sans-Serif" font-size="10.00">include/pdes/linear</text>
<text text-anchor="middle" x="782" y="-141.5" font-family="Helvetica,sans-Serif" font-size="10.00">_problem.h</text>
</a>
</g>
</g>
<!-- Node1&#45;&gt;Node2 -->
<g id="edge1" class="edge">
<title>Node1&#45;&gt;Node2</title>
<path fill="none" stroke="midnightblue" d="M1537.19,-210.07C1376.96,-197.43 981.57,-166.24 836.5,-154.8"/>
<polygon fill="midnightblue" stroke="midnightblue" points="1537.16,-213.58 1547.4,-210.88 1537.71,-206.6 1537.16,-213.58"/>
</g>
<!-- Node14 -->
<g id="node14" class="node">
<title>Node14</title>
<g id="a_node14"><a xlink:href="distributed__lagrange_8h.html" target="_top" xlink:title=" ">
<polygon fill="none" stroke="black" points="1135.5,-134.5 1135.5,-164.5 1264.5,-164.5 1264.5,-134.5 1135.5,-134.5"/>
<text text-anchor="start" x="1143.5" y="-152.5" font-family="Helvetica,sans-Serif" font-size="10.00">include/pdes/serial</text>
<text text-anchor="middle" x="1200" y="-141.5" font-family="Helvetica,sans-Serif" font-size="10.00">/distributed_lagrange.h</text>
</a>
</g>
</g>
<!-- Node1&#45;&gt;Node14 -->
<g id="edge13" class="edge">
<title>Node1&#45;&gt;Node14</title>
<path fill="none" stroke="midnightblue" d="M1537.42,-204.52C1461.24,-192.32 1339.18,-172.78 1264.62,-160.85"/>
<polygon fill="midnightblue" stroke="midnightblue" points="1536.97,-207.99 1547.4,-206.12 1538.08,-201.08 1536.97,-207.99"/>
</g>
<!-- Node17 -->
<g id="node17" class="node">
<title>Node17</title>
<g id="a_node17"><a xlink:href="serial_2poisson_8h.html" target="_top" xlink:title=" ">
<polygon fill="none" stroke="black" points="1412,-134.5 1412,-164.5 1520,-164.5 1520,-134.5 1412,-134.5"/>
<text text-anchor="start" x="1420" y="-152.5" font-family="Helvetica,sans-Serif" font-size="10.00">include/pdes/serial</text>
<text text-anchor="middle" x="1466" y="-141.5" font-family="Helvetica,sans-Serif" font-size="10.00">/poisson.h</text>
</a>
</g>
</g>
<!-- Node1&#45;&gt;Node17 -->
<g id="edge16" class="edge">
<title>Node1&#45;&gt;Node17</title>
<path fill="none" stroke="midnightblue" d="M1566.43,-197.13C1544.19,-186.8 1516.85,-174.11 1496.32,-164.58"/>
<polygon fill="midnightblue" stroke="midnightblue" points="1565.08,-200.36 1575.62,-201.4 1568.03,-194.01 1565.08,-200.36"/>
</g>
<!-- Node20 -->
<g id="node20" class="node">
<title>Node20</title>
<g id="a_node20"><a xlink:href="reduced__lagrange_8h.html" target="_top" xlink:title=" ">
<polygon fill="none" stroke="black" points="1548,-134.5 1548,-164.5 1664,-164.5 1664,-134.5 1548,-134.5"/>
<text text-anchor="start" x="1556" y="-152.5" font-family="Helvetica,sans-Serif" font-size="10.00">include/pdes/serial</text>
<text text-anchor="middle" x="1606" y="-141.5" font-family="Helvetica,sans-Serif" font-size="10.00">/reduced_lagrange.h</text>
</a>
</g>
</g>
<!-- Node1&#45;&gt;Node20 -->
<g id="edge19" class="edge">
<title>Node1&#45;&gt;Node20</title>
<path fill="none" stroke="midnightblue" d="M1606,-191.11C1606,-182.15 1606,-172.32 1606,-164.58"/>
<polygon fill="midnightblue" stroke="midnightblue" points="1602.5,-191.4 1606,-201.4 1609.5,-191.4 1602.5,-191.4"/>
</g>
<!-- Node23 -->
<g id="node23" class="node">
<title>Node23</title>
<g id="a_node23"><a xlink:href="serial_2stokes_8h.html" target="_top" xlink:title=" ">
<polygon fill="none" stroke="black" points="1682,-134.5 1682,-164.5 1790,-164.5 1790,-134.5 1682,-134.5"/>
<text text-anchor="start" x="1690" y="-152.5" font-family="Helvetica,sans-Serif" font-size="10.00">include/pdes/serial</text>
<text text-anchor="middle" x="1736" y="-141.5" font-family="Helvetica,sans-Serif" font-size="10.00">/stokes.h</text>
</a>
</g>
</g>
<!-- Node1&#45;&gt;Node23 -->
<g id="edge22" class="edge">
<title>Node1&#45;&gt;Node23</title>
<path fill="none" stroke="midnightblue" d="M1643.29,-196.85C1663.85,-186.58 1688.95,-174.03 1707.85,-164.58"/>
<polygon fill="midnightblue" stroke="midnightblue" points="1641.59,-193.79 1634.21,-201.4 1644.72,-200.05 1641.59,-193.79"/>
</g>
<!-- Node26 -->
<g id="node26" class="node">
<title>Node26</title>
<g id="a_node26"><a xlink:href="finite__element_8cc.html" target="_top" xlink:title=" ">
<polygon fill="none" stroke="black" points="1808.5,-140 1808.5,-159 1945.5,-159 1945.5,-140 1808.5,-140"/>
<text text-anchor="middle" x="1877" y="-147" font-family="Helvetica,sans-Serif" font-size="10.00">source/finite_element.cc</text>
</a>
</g>
</g>
<!-- Node1&#45;&gt;Node26 -->
<g id="edge25" class="edge">
<title>Node1&#45;&gt;Node26</title>
<path fill="none" stroke="midnightblue" d="M1674.5,-199.07C1727.65,-186.32 1799.16,-169.17 1841.44,-159.03"/>
<polygon fill="midnightblue" stroke="midnightblue" points="1673.38,-195.74 1664.47,-201.48 1675.01,-202.55 1673.38,-195.74"/>
</g>
<!-- Node27 -->
<g id="node27" class="node">
<title>Node27</title>
<g id="a_node27"><a xlink:href="dof__plotter_8cc.html" target="_top" xlink:title="Degrees of freedom plotter.">
<polygon fill="none" stroke="black" points="1964,-140 1964,-159 2074,-159 2074,-140 1964,-140"/>
<text text-anchor="middle" x="2019" y="-147" font-family="Helvetica,sans-Serif" font-size="10.00">apps/dof_plotter.cc</text>
</a>
</g>
</g>
<!-- Node1&#45;&gt;Node27 -->
<g id="edge26" class="edge">
<title>Node1&#45;&gt;Node27</title>
<path fill="none" stroke="midnightblue" d="M1674.68,-207.19C1745.26,-198.27 1858.18,-182.94 1955,-165 1964.3,-163.28 1974.29,-161.15 1983.56,-159.05"/>
<polygon fill="midnightblue" stroke="midnightblue" points="1674.07,-203.74 1664.59,-208.46 1674.94,-210.69 1674.07,-203.74"/>
</g>
<!-- Node3 -->
<g id="node3" class="node">
<title>Node3</title>
<g id="a_node3"><a xlink:href="linear__elasticity_8h.html" target="_top" xlink:title=" ">
<polygon fill="none" stroke="black" points="220.5,-67.5 220.5,-97.5 329.5,-97.5 329.5,-67.5 220.5,-67.5"/>
<text text-anchor="start" x="228.5" y="-85.5" font-family="Helvetica,sans-Serif" font-size="10.00">include/pdes/linear</text>
<text text-anchor="middle" x="275" y="-74.5" font-family="Helvetica,sans-Serif" font-size="10.00">_elasticity.h</text>
</a>
</g>
</g>
<!-- Node2&#45;&gt;Node3 -->
<g id="edge2" class="edge">
<title>Node2&#45;&gt;Node3</title>
<path fill="none" stroke="midnightblue" d="M717.2,-140.19C616.35,-127.26 423.67,-102.56 329.51,-90.49"/>
<polygon fill="midnightblue" stroke="midnightblue" points="716.9,-143.68 727.26,-141.48 717.79,-136.74 716.9,-143.68"/>
</g>
<!-- Node7 -->
<g id="node7" class="node">
<title>Node7</title>
<g id="a_node7"><a xlink:href="mpi_2poisson_8h.html" target="_top" xlink:title=" ">
<polygon fill="none" stroke="black" points="553.5,-73 553.5,-92 702.5,-92 702.5,-73 553.5,-73"/>
<text text-anchor="middle" x="628" y="-80" font-family="Helvetica,sans-Serif" font-size="10.00">include/pdes/mpi/poisson.h</text>
</a>
</g>
</g>
<!-- Node2&#45;&gt;Node7 -->
<g id="edge6" class="edge">
<title>Node2&#45;&gt;Node7</title>
<path fill="none" stroke="midnightblue" d="M739.26,-130.46C709.5,-117.9 671.18,-101.72 648.16,-92.01"/>
<polygon fill="midnightblue" stroke="midnightblue" points="738.01,-133.73 748.58,-134.4 740.73,-127.28 738.01,-133.73"/>
</g>
<!-- Node10 -->
<g id="node10" class="node">
<title>Node10</title>
<g id="a_node10"><a xlink:href="stokes_8h.html" target="_top" xlink:title=" ">
<polygon fill="none" stroke="black" points="721,-73 721,-92 843,-92 843,-73 721,-73"/>
<text text-anchor="middle" x="782" y="-80" font-family="Helvetica,sans-Serif" font-size="10.00">include/pdes/stokes.h</text>
</a>
</g>
</g>
<!-- Node2&#45;&gt;Node10 -->
<g id="edge9" class="edge">
<title>Node2&#45;&gt;Node10</title>
<path fill="none" stroke="midnightblue" d="M782,-124.25C782,-113.02 782,-100.38 782,-92.19"/>
<polygon fill="midnightblue" stroke="midnightblue" points="778.5,-124.4 782,-134.4 785.5,-124.4 778.5,-124.4"/>
</g>
<!-- Node13 -->
<g id="node13" class="node">
<title>Node13</title>
<g id="a_node13"><a xlink:href="linear__problem_8cc.html" target="_top" xlink:title=" ">
<polygon fill="none" stroke="black" points="861,-67.5 861,-97.5 967,-97.5 967,-67.5 861,-67.5"/>
<text text-anchor="start" x="869" y="-85.5" font-family="Helvetica,sans-Serif" font-size="10.00">source/pdes/linear</text>
<text text-anchor="middle" x="914" y="-74.5" font-family="Helvetica,sans-Serif" font-size="10.00">_problem.cc</text>
</a>
</g>
</g>
<!-- Node2&#45;&gt;Node13 -->
<g id="edge12" class="edge">
<title>Node2&#45;&gt;Node13</title>
<path fill="none" stroke="midnightblue" d="M819.87,-129.85C840.74,-119.58 866.23,-107.03 885.41,-97.58"/>
<polygon fill="midnightblue" stroke="midnightblue" points="818.07,-126.84 810.64,-134.4 821.16,-133.12 818.07,-126.84"/>
</g>
<!-- Node4 -->
<g id="node4" class="node">
<title>Node4</title>
<g id="a_node4"><a xlink:href="source_2pdes_2linear__elasticity_8cc.html" target="_top" xlink:title=" ">
<polygon fill="none" stroke="black" points="0,-0.5 0,-30.5 106,-30.5 106,-0.5 0,-0.5"/>
<text text-anchor="start" x="8" y="-18.5" font-family="Helvetica,sans-Serif" font-size="10.00">source/pdes/linear</text>
<text text-anchor="middle" x="53" y="-7.5" font-family="Helvetica,sans-Serif" font-size="10.00">_elasticity.cc</text>
</a>
</g>
</g>
<!-- Node3&#45;&gt;Node4 -->
<g id="edge3" class="edge">
<title>Node3&#45;&gt;Node4</title>
<path fill="none" stroke="midnightblue" d="M217.21,-64.58C181.15,-54.02 135.28,-40.59 101.19,-30.61"/>
<polygon fill="midnightblue" stroke="midnightblue" points="216.52,-68.02 227.1,-67.48 218.49,-61.31 216.52,-68.02"/>
</g>
<!-- Node5 -->
<g id="node5" class="node">
<title>Node5</title>
<g id="a_node5"><a xlink:href="apps_2mpi_2linear__elasticity_8cc.html" target="_top" xlink:title=" ">
<polygon fill="none" stroke="black" points="124.5,-6 124.5,-25 279.5,-25 279.5,-6 124.5,-6"/>
<text text-anchor="middle" x="202" y="-13" font-family="Helvetica,sans-Serif" font-size="10.00">apps/mpi/linear_elasticity.cc</text>
</a>
</g>
</g>
<!-- Node3&#45;&gt;Node5 -->
<g id="edge4" class="edge">
<title>Node3&#45;&gt;Node5</title>
<path fill="none" stroke="midnightblue" d="M251.61,-60.67C238.13,-48.67 221.9,-34.22 211.76,-25.19"/>
<polygon fill="midnightblue" stroke="midnightblue" points="249.36,-63.36 259.16,-67.4 254.02,-58.13 249.36,-63.36"/>
</g>
<!-- Node6 -->
<g id="node6" class="node">
<title>Node6</title>
<g id="a_node6"><a xlink:href="apps_2serial_2linear__elasticity_8cc.html" target="_top" xlink:title=" ">
<polygon fill="none" stroke="black" points="297.5,-0.5 297.5,-30.5 398.5,-30.5 398.5,-0.5 297.5,-0.5"/>
<text text-anchor="start" x="305.5" y="-18.5" font-family="Helvetica,sans-Serif" font-size="10.00">apps/serial/linear</text>
<text text-anchor="middle" x="348" y="-7.5" font-family="Helvetica,sans-Serif" font-size="10.00">_elasticity.cc</text>
</a>
</g>
</g>
<!-- Node3&#45;&gt;Node6 -->
<g id="edge5" class="edge">
<title>Node3&#45;&gt;Node6</title>
<path fill="none" stroke="midnightblue" d="M298.47,-60.6C309.5,-50.78 322.34,-39.34 332.19,-30.58"/>
<polygon fill="midnightblue" stroke="midnightblue" points="295.98,-58.13 290.84,-67.4 300.64,-63.36 295.98,-58.13"/>
</g>
<!-- Node8 -->
<g id="node8" class="node">
<title>Node8</title>
<g id="a_node8"><a xlink:href="source_2pdes_2mpi_2poisson_8cc.html" target="_top" xlink:title=" ">
<polygon fill="none" stroke="black" points="416.5,-6 416.5,-25 567.5,-25 567.5,-6 416.5,-6"/>
<text text-anchor="middle" x="492" y="-13" font-family="Helvetica,sans-Serif" font-size="10.00">source/pdes/mpi/poisson.cc</text>
</a>
</g>
</g>
<!-- Node7&#45;&gt;Node8 -->
<g id="edge7" class="edge">
<title>Node7&#45;&gt;Node8</title>
<path fill="none" stroke="midnightblue" d="M600.68,-68.44C573.74,-55.57 533.34,-36.26 510.13,-25.17"/>
<polygon fill="midnightblue" stroke="midnightblue" points="599.41,-71.71 609.94,-72.87 602.43,-65.4 599.41,-71.71"/>
</g>
<!-- Node9 -->
<g id="node9" class="node">
<title>Node9</title>
<g id="a_node9"><a xlink:href="apps_2mpi_2poisson_8cc.html" target="_top" xlink:title=" ">
<polygon fill="none" stroke="black" points="586,-6 586,-25 702,-25 702,-6 586,-6"/>
<text text-anchor="middle" x="644" y="-13" font-family="Helvetica,sans-Serif" font-size="10.00">apps/mpi/poisson.cc</text>
</a>
</g>
</g>
<!-- Node7&#45;&gt;Node9 -->
<g id="edge8" class="edge">
<title>Node7&#45;&gt;Node9</title>
<path fill="none" stroke="midnightblue" d="M632.57,-62.91C635.63,-50.49 639.52,-34.72 641.88,-25.13"/>
<polygon fill="midnightblue" stroke="midnightblue" points="629.15,-62.19 630.16,-72.73 635.95,-63.86 629.15,-62.19"/>
</g>
<!-- Node11 -->
<g id="node11" class="node">
<title>Node11</title>
<g id="a_node11"><a xlink:href="source_2pdes_2stokes_8cc.html" target="_top" xlink:title=" ">
<polygon fill="none" stroke="black" points="720.5,-6 720.5,-25 843.5,-25 843.5,-6 720.5,-6"/>
<text text-anchor="middle" x="782" y="-13" font-family="Helvetica,sans-Serif" font-size="10.00">source/pdes/stokes.cc</text>
</a>
</g>
</g>
<!-- Node10&#45;&gt;Node11 -->
<g id="edge10" class="edge">
<title>Node10&#45;&gt;Node11</title>
<path fill="none" stroke="midnightblue" d="M782,-62.54C782,-50.17 782,-34.62 782,-25.13"/>
<polygon fill="midnightblue" stroke="midnightblue" points="778.5,-62.73 782,-72.73 785.5,-62.73 778.5,-62.73"/>
</g>
<!-- Node12 -->
<g id="node12" class="node">
<title>Node12</title>
<g id="a_node12"><a xlink:href="apps_2mpi_2stokes_8cc.html" target="_top" xlink:title=" ">
<polygon fill="none" stroke="black" points="862,-6 862,-25 972,-25 972,-6 862,-6"/>
<text text-anchor="middle" x="917" y="-13" font-family="Helvetica,sans-Serif" font-size="10.00">apps/mpi/stokes.cc</text>
</a>
</g>
</g>
<!-- Node10&#45;&gt;Node12 -->
<g id="edge11" class="edge">
<title>Node10&#45;&gt;Node12</title>
<path fill="none" stroke="midnightblue" d="M809.12,-68.44C835.86,-55.57 875.97,-36.26 899,-25.17"/>
<polygon fill="midnightblue" stroke="midnightblue" points="807.42,-65.38 799.93,-72.87 810.46,-71.68 807.42,-65.38"/>
</g>
<!-- Node15 -->
<g id="node15" class="node">
<title>Node15</title>
<g id="a_node15"><a xlink:href="source_2pdes_2serial_2distributed__lagrange_8cc.html" target="_top" xlink:title=" ">
<polygon fill="none" stroke="black" points="985,-67.5 985,-97.5 1119,-97.5 1119,-67.5 985,-67.5"/>
<text text-anchor="start" x="993" y="-85.5" font-family="Helvetica,sans-Serif" font-size="10.00">source/pdes/serial</text>
<text text-anchor="middle" x="1052" y="-74.5" font-family="Helvetica,sans-Serif" font-size="10.00">/distributed_lagrange.cc</text>
</a>
</g>
</g>
<!-- Node14&#45;&gt;Node15 -->
<g id="edge14" class="edge">
<title>Node14&#45;&gt;Node15</title>
<path fill="none" stroke="midnightblue" d="M1158.49,-130.27C1134.92,-119.92 1105.86,-107.15 1084.05,-97.58"/>
<polygon fill="midnightblue" stroke="midnightblue" points="1157.32,-133.58 1167.89,-134.4 1160.14,-127.17 1157.32,-133.58"/>
</g>
<!-- Node16 -->
<g id="node16" class="node">
<title>Node16</title>
<g id="a_node16"><a xlink:href="apps_2serial_2distributed__lagrange_8cc.html" target="_top" xlink:title=" ">
<polygon fill="none" stroke="black" points="1137.5,-67.5 1137.5,-97.5 1262.5,-97.5 1262.5,-67.5 1137.5,-67.5"/>
<text text-anchor="start" x="1145.5" y="-85.5" font-family="Helvetica,sans-Serif" font-size="10.00">apps/serial/distributed</text>
<text text-anchor="middle" x="1200" y="-74.5" font-family="Helvetica,sans-Serif" font-size="10.00">_lagrange.cc</text>
</a>
</g>
</g>
<!-- Node14&#45;&gt;Node16 -->
<g id="edge15" class="edge">
<title>Node14&#45;&gt;Node16</title>
<path fill="none" stroke="midnightblue" d="M1200,-124.11C1200,-115.15 1200,-105.32 1200,-97.58"/>
<polygon fill="midnightblue" stroke="midnightblue" points="1196.5,-124.4 1200,-134.4 1203.5,-124.4 1196.5,-124.4"/>
</g>
<!-- Node18 -->
<g id="node18" class="node">
<title>Node18</title>
<g id="a_node18"><a xlink:href="source_2pdes_2serial_2poisson_8cc.html" target="_top" xlink:title=" ">
<polygon fill="none" stroke="black" points="1280.5,-67.5 1280.5,-97.5 1385.5,-97.5 1385.5,-67.5 1280.5,-67.5"/>
<text text-anchor="start" x="1288.5" y="-85.5" font-family="Helvetica,sans-Serif" font-size="10.00">source/pdes/serial</text>
<text text-anchor="middle" x="1333" y="-74.5" font-family="Helvetica,sans-Serif" font-size="10.00">/poisson.cc</text>
</a>
</g>
</g>
<!-- Node17&#45;&gt;Node18 -->
<g id="edge17" class="edge">
<title>Node17&#45;&gt;Node18</title>
<path fill="none" stroke="midnightblue" d="M1428.13,-129.99C1407.05,-119.69 1381.22,-107.07 1361.8,-97.58"/>
<polygon fill="midnightblue" stroke="midnightblue" points="1426.62,-133.15 1437.14,-134.4 1429.69,-126.86 1426.62,-133.15"/>
</g>
<!-- Node19 -->
<g id="node19" class="node">
<title>Node19</title>
<g id="a_node19"><a xlink:href="apps_2serial_2poisson_8cc.html" target="_top" xlink:title=" ">
<polygon fill="none" stroke="black" points="1404,-73 1404,-92 1528,-92 1528,-73 1404,-73"/>
<text text-anchor="middle" x="1466" y="-80" font-family="Helvetica,sans-Serif" font-size="10.00">apps/serial/poisson.cc</text>
</a>
</g>
</g>
<!-- Node17&#45;&gt;Node19 -->
<g id="edge18" class="edge">
<title>Node17&#45;&gt;Node19</title>
<path fill="none" stroke="midnightblue" d="M1466,-124.25C1466,-113.02 1466,-100.38 1466,-92.19"/>
<polygon fill="midnightblue" stroke="midnightblue" points="1462.5,-124.4 1466,-134.4 1469.5,-124.4 1462.5,-124.4"/>
</g>
<!-- Node21 -->
<g id="node21" class="node">
<title>Node21</title>
<g id="a_node21"><a xlink:href="source_2pdes_2serial_2reduced__lagrange_8cc.html" target="_top" xlink:title=" ">
<polygon fill="none" stroke="black" points="1546,-67.5 1546,-97.5 1666,-97.5 1666,-67.5 1546,-67.5"/>
<text text-anchor="start" x="1554" y="-85.5" font-family="Helvetica,sans-Serif" font-size="10.00">source/pdes/serial</text>
<text text-anchor="middle" x="1606" y="-74.5" font-family="Helvetica,sans-Serif" font-size="10.00">/reduced_lagrange.cc</text>
</a>
</g>
</g>
<!-- Node20&#45;&gt;Node21 -->
<g id="edge20" class="edge">
<title>Node20&#45;&gt;Node21</title>
<path fill="none" stroke="midnightblue" d="M1606,-124.11C1606,-115.15 1606,-105.32 1606,-97.58"/>
<polygon fill="midnightblue" stroke="midnightblue" points="1602.5,-124.4 1606,-134.4 1609.5,-124.4 1602.5,-124.4"/>
</g>
<!-- Node22 -->
<g id="node22" class="node">
<title>Node22</title>
<g id="a_node22"><a xlink:href="apps_2serial_2reduced__lagrange_8cc.html" target="_top" xlink:title=" ">
<polygon fill="none" stroke="black" points="1684,-67.5 1684,-97.5 1796,-97.5 1796,-67.5 1684,-67.5"/>
<text text-anchor="start" x="1692" y="-85.5" font-family="Helvetica,sans-Serif" font-size="10.00">apps/serial/reduced</text>
<text text-anchor="middle" x="1740" y="-74.5" font-family="Helvetica,sans-Serif" font-size="10.00">_lagrange.cc</text>
</a>
</g>
</g>
<!-- Node20&#45;&gt;Node22 -->
<g id="edge21" class="edge">
<title>Node20&#45;&gt;Node22</title>
<path fill="none" stroke="midnightblue" d="M1644.15,-129.99C1665.39,-119.69 1691.41,-107.07 1710.98,-97.58"/>
<polygon fill="midnightblue" stroke="midnightblue" points="1642.55,-126.88 1635.08,-134.4 1645.6,-133.18 1642.55,-126.88"/>
</g>
<!-- Node24 -->
<g id="node24" class="node">
<title>Node24</title>
<g id="a_node24"><a xlink:href="source_2pdes_2serial_2stokes_8cc.html" target="_top" xlink:title=" ">
<polygon fill="none" stroke="black" points="1814.5,-67.5 1814.5,-97.5 1919.5,-97.5 1919.5,-67.5 1814.5,-67.5"/>
<text text-anchor="start" x="1822.5" y="-85.5" font-family="Helvetica,sans-Serif" font-size="10.00">source/pdes/serial</text>
<text text-anchor="middle" x="1867" y="-74.5" font-family="Helvetica,sans-Serif" font-size="10.00">/stokes.cc</text>
</a>
</g>
</g>
<!-- Node23&#45;&gt;Node24 -->
<g id="edge23" class="edge">
<title>Node23&#45;&gt;Node24</title>
<path fill="none" stroke="midnightblue" d="M1773.58,-129.85C1794.29,-119.58 1819.59,-107.03 1838.63,-97.58"/>
<polygon fill="midnightblue" stroke="midnightblue" points="1771.83,-126.82 1764.43,-134.4 1774.94,-133.09 1771.83,-126.82"/>
</g>
<!-- Node25 -->
<g id="node25" class="node">
<title>Node25</title>
<g id="a_node25"><a xlink:href="apps_2serial_2stokes_8cc.html" target="_top" xlink:title=" ">
<polygon fill="none" stroke="black" points="1938,-73 1938,-92 2056,-92 2056,-73 1938,-73"/>
<text text-anchor="middle" x="1997" y="-80" font-family="Helvetica,sans-Serif" font-size="10.00">apps/serial/stokes.cc</text>
</a>
</g>
</g>
<!-- Node23&#45;&gt;Node25 -->
<g id="edge24" class="edge">
<title>Node23&#45;&gt;Node25</title>
<path fill="none" stroke="midnightblue" d="M1800.07,-132.54C1851.34,-119.77 1921.27,-102.36 1962.52,-92.09"/>
<polygon fill="midnightblue" stroke="midnightblue" points="1798.94,-129.22 1790.08,-135.03 1800.63,-136.01 1798.94,-129.22"/>
</g>
</g>
</svg>
