<?xml version="1.0" encoding="UTF-8" standalone="no"?>
<!DOCTYPE svg PUBLIC "-//W3C//DTD SVG 1.1//EN"
 "http://www.w3.org/Graphics/SVG/1.1/DTD/svg11.dtd">
<!-- Generated by graphviz version 2.43.0 (0)
 -->
<!-- Title: include/parsed_tools/finite_element.h Pages: 1 -->
<svg width="2759pt" height="240pt"
 viewBox="0.00 0.00 2758.50 240.00" xmlns="http://www.w3.org/2000/svg" xmlns:xlink="http://www.w3.org/1999/xlink">
<g id="graph0" class="graph" transform="scale(1 1) rotate(0) translate(4 236)">
<title>include/parsed_tools/finite_element.h</title>
<!-- Node1 -->
<g id="node1" class="node">
<title>Node1</title>
<g id="a_node1"><a xlink:title=" ">
<polygon fill="#bfbfbf" stroke="black" points="2147,-201.5 2147,-231.5 2264,-231.5 2264,-201.5 2147,-201.5"/>
<text text-anchor="start" x="2155" y="-219.5" font-family="Helvetica,sans-Serif" font-size="10.00">include/parsed_tools</text>
<text text-anchor="middle" x="2205.5" y="-208.5" font-family="Helvetica,sans-Serif" font-size="10.00">/finite_element.h</text>
</a>
</g>
</g>
<!-- Node2 -->
<g id="node2" class="node">
<title>Node2</title>
<g id="a_node2"><a xlink:href="distributed__lagrange_8h.html" target="_top" xlink:title=" ">
<polygon fill="none" stroke="black" points="279.5,-67.5 279.5,-97.5 413.5,-97.5 413.5,-67.5 279.5,-67.5"/>
<text text-anchor="start" x="287.5" y="-85.5" font-family="Helvetica,sans-Serif" font-size="10.00">include/pdes/distributed</text>
<text text-anchor="middle" x="346.5" y="-74.5" font-family="Helvetica,sans-Serif" font-size="10.00">_lagrange.h</text>
</a>
</g>
</g>
<!-- Node1&#45;&gt;Node2 -->
<g id="edge1" class="edge">
<title>Node1&#45;&gt;Node2</title>
<path fill="none" stroke="midnightblue" d="M2136.6,-212.97C1975.84,-206.84 1563.48,-189.85 1219.5,-165 918.32,-143.24 559.69,-106.26 413.51,-90.72"/>
<polygon fill="midnightblue" stroke="midnightblue" points="2136.7,-216.47 2146.82,-213.35 2136.96,-209.48 2136.7,-216.47"/>
</g>
<!-- Node6 -->
<g id="node6" class="node">
<title>Node6</title>
<g id="a_node6"><a xlink:href="linear__problem_8h.html" target="_top" xlink:title=" ">
<polygon fill="none" stroke="black" points="1229,-134.5 1229,-164.5 1338,-164.5 1338,-134.5 1229,-134.5"/>
<text text-anchor="start" x="1237" y="-152.5" font-family="Helvetica,sans-Serif" font-size="10.00">include/pdes/linear</text>
<text text-anchor="middle" x="1283.5" y="-141.5" font-family="Helvetica,sans-Serif" font-size="10.00">_problem.h</text>
</a>
</g>
</g>
<!-- Node1&#45;&gt;Node6 -->
<g id="edge5" class="edge">
<title>Node1&#45;&gt;Node6</title>
<path fill="none" stroke="midnightblue" d="M2136.6,-210.64C1960.6,-198.24 1497.17,-165.56 1338.05,-154.35"/>
<polygon fill="midnightblue" stroke="midnightblue" points="2136.55,-214.15 2146.77,-211.36 2137.05,-207.17 2136.55,-214.15"/>
</g>
<!-- Node22 -->
<g id="node22" class="node">
<title>Node22</title>
<g id="a_node22"><a xlink:href="serial_2poisson_8h.html" target="_top" xlink:title=" ">
<polygon fill="none" stroke="black" points="1772.5,-134.5 1772.5,-164.5 1880.5,-164.5 1880.5,-134.5 1772.5,-134.5"/>
<text text-anchor="start" x="1780.5" y="-152.5" font-family="Helvetica,sans-Serif" font-size="10.00">include/pdes/serial</text>
<text text-anchor="middle" x="1826.5" y="-141.5" font-family="Helvetica,sans-Serif" font-size="10.00">/poisson.h</text>
</a>
</g>
</g>
<!-- Node1&#45;&gt;Node22 -->
<g id="edge22" class="edge">
<title>Node1&#45;&gt;Node22</title>
<path fill="none" stroke="midnightblue" d="M2136.6,-203.68C2062.99,-191.06 1947.85,-171.31 1880.53,-159.77"/>
<polygon fill="midnightblue" stroke="midnightblue" points="2136.25,-207.17 2146.7,-205.42 2137.43,-200.27 2136.25,-207.17"/>
</g>
<!-- Node25 -->
<g id="node25" class="node">
<title>Node25</title>
<g id="a_node25"><a xlink:href="poisson__nitsche__interface_8h.html" target="_top" xlink:title=" ">
<polygon fill="none" stroke="black" points="2051,-134.5 2051,-164.5 2206,-164.5 2206,-134.5 2051,-134.5"/>
<text text-anchor="start" x="2059" y="-152.5" font-family="Helvetica,sans-Serif" font-size="10.00">include/pdes/serial</text>
<text text-anchor="middle" x="2128.5" y="-141.5" font-family="Helvetica,sans-Serif" font-size="10.00">/poisson_nitsche_interface.h</text>
</a>
</g>
</g>
<!-- Node1&#45;&gt;Node25 -->
<g id="edge25" class="edge">
<title>Node1&#45;&gt;Node25</title>
<path fill="none" stroke="midnightblue" d="M2181.08,-194.88C2169.38,-185.01 2155.66,-173.43 2145.18,-164.58"/>
<polygon fill="midnightblue" stroke="midnightblue" points="2178.89,-197.62 2188.79,-201.4 2183.41,-192.27 2178.89,-197.62"/>
</g>
<!-- Node28 -->
<g id="node28" class="node">
<title>Node28</title>
<g id="a_node28"><a xlink:href="reduced__lagrange_8h.html" target="_top" xlink:title=" ">
<polygon fill="none" stroke="black" points="2224.5,-134.5 2224.5,-164.5 2340.5,-164.5 2340.5,-134.5 2224.5,-134.5"/>
<text text-anchor="start" x="2232.5" y="-152.5" font-family="Helvetica,sans-Serif" font-size="10.00">include/pdes/serial</text>
<text text-anchor="middle" x="2282.5" y="-141.5" font-family="Helvetica,sans-Serif" font-size="10.00">/reduced_lagrange.h</text>
</a>
</g>
</g>
<!-- Node1&#45;&gt;Node28 -->
<g id="edge28" class="edge">
<title>Node1&#45;&gt;Node28</title>
<path fill="none" stroke="midnightblue" d="M2229.92,-194.88C2241.62,-185.01 2255.34,-173.43 2265.82,-164.58"/>
<polygon fill="midnightblue" stroke="midnightblue" points="2227.59,-192.27 2222.21,-201.4 2232.11,-197.62 2227.59,-192.27"/>
</g>
<!-- Node31 -->
<g id="node31" class="node">
<title>Node31</title>
<g id="a_node31"><a xlink:href="serial_2stokes_8h.html" target="_top" xlink:title=" ">
<polygon fill="none" stroke="black" points="2358.5,-134.5 2358.5,-164.5 2466.5,-164.5 2466.5,-134.5 2358.5,-134.5"/>
<text text-anchor="start" x="2366.5" y="-152.5" font-family="Helvetica,sans-Serif" font-size="10.00">include/pdes/serial</text>
<text text-anchor="middle" x="2412.5" y="-141.5" font-family="Helvetica,sans-Serif" font-size="10.00">/stokes.h</text>
</a>
</g>
</g>
<!-- Node1&#45;&gt;Node31 -->
<g id="edge31" class="edge">
<title>Node1&#45;&gt;Node31</title>
<path fill="none" stroke="midnightblue" d="M2259.82,-198.44C2293.37,-187.91 2335.91,-174.55 2367.56,-164.61"/>
<polygon fill="midnightblue" stroke="midnightblue" points="2258.65,-195.14 2250.16,-201.48 2260.75,-201.82 2258.65,-195.14"/>
</g>
<!-- Node34 -->
<g id="node34" class="node">
<title>Node34</title>
<g id="a_node34"><a xlink:href="finite__element_8cc.html" target="_top" xlink:title=" ">
<polygon fill="none" stroke="black" points="2485,-140 2485,-159 2622,-159 2622,-140 2485,-140"/>
<text text-anchor="middle" x="2553.5" y="-147" font-family="Helvetica,sans-Serif" font-size="10.00">source/finite_element.cc</text>
</a>
</g>
</g>
<!-- Node1&#45;&gt;Node34 -->
<g id="edge34" class="edge">
<title>Node1&#45;&gt;Node34</title>
<path fill="none" stroke="midnightblue" d="M2274.09,-202.69C2343.34,-189.75 2448.35,-170.14 2507.96,-159.01"/>
<polygon fill="midnightblue" stroke="midnightblue" points="2273.33,-199.27 2264.14,-204.55 2274.61,-206.15 2273.33,-199.27"/>
</g>
<!-- Node35 -->
<g id="node35" class="node">
<title>Node35</title>
<g id="a_node35"><a xlink:href="dof__plotter_8cc.html" target="_top" xlink:title="Degrees of freedom plotter.">
<polygon fill="none" stroke="black" points="2640.5,-140 2640.5,-159 2750.5,-159 2750.5,-140 2640.5,-140"/>
<text text-anchor="middle" x="2695.5" y="-147" font-family="Helvetica,sans-Serif" font-size="10.00">apps/dof_plotter.cc</text>
</a>
</g>
</g>
<!-- Node1&#45;&gt;Node35 -->
<g id="edge35" class="edge">
<title>Node1&#45;&gt;Node35</title>
<path fill="none" stroke="midnightblue" d="M2273.98,-209.61C2358.41,-201.84 2506.13,-186.57 2631.5,-165 2641.04,-163.36 2651.31,-161.21 2660.76,-159.07"/>
<polygon fill="midnightblue" stroke="midnightblue" points="2273.64,-206.13 2264,-210.52 2274.28,-213.1 2273.64,-206.13"/>
</g>
<!-- Node3 -->
<g id="node3" class="node">
<title>Node3</title>
<g id="a_node3"><a xlink:href="source_2pdes_2distributed__lagrange_8cc.html" target="_top" xlink:title=" ">
<polygon fill="none" stroke="black" points="0,-0.5 0,-30.5 131,-30.5 131,-0.5 0,-0.5"/>
<text text-anchor="start" x="8" y="-18.5" font-family="Helvetica,sans-Serif" font-size="10.00">source/pdes/distributed</text>
<text text-anchor="middle" x="65.5" y="-7.5" font-family="Helvetica,sans-Serif" font-size="10.00">_lagrange.cc</text>
</a>
</g>
</g>
<!-- Node2&#45;&gt;Node3 -->
<g id="edge2" class="edge">
<title>Node2&#45;&gt;Node3</title>
<path fill="none" stroke="midnightblue" d="M275.97,-65.19C229.95,-54.54 170.48,-40.78 126.5,-30.61"/>
<polygon fill="midnightblue" stroke="midnightblue" points="275.34,-68.63 285.87,-67.48 276.92,-61.81 275.34,-68.63"/>
</g>
<!-- Node4 -->
<g id="node4" class="node">
<title>Node4</title>
<g id="a_node4"><a xlink:href="apps_2mpi_2distributed__lagrange_8cc.html" target="_top" xlink:title=" ">
<polygon fill="none" stroke="black" points="149,-0.5 149,-30.5 266,-30.5 266,-0.5 149,-0.5"/>
<text text-anchor="start" x="157" y="-18.5" font-family="Helvetica,sans-Serif" font-size="10.00">apps/mpi/distributed</text>
<text text-anchor="middle" x="207.5" y="-7.5" font-family="Helvetica,sans-Serif" font-size="10.00">_lagrange.cc</text>
</a>
</g>
</g>
<!-- Node2&#45;&gt;Node4 -->
<g id="edge3" class="edge">
<title>Node2&#45;&gt;Node4</title>
<path fill="none" stroke="midnightblue" d="M307.22,-63.13C285.13,-52.8 257.99,-40.11 237.6,-30.58"/>
<polygon fill="midnightblue" stroke="midnightblue" points="305.8,-66.33 316.34,-67.4 308.76,-59.99 305.8,-66.33"/>
</g>
<!-- Node5 -->
<g id="node5" class="node">
<title>Node5</title>
<g id="a_node5"><a xlink:href="apps_2serial_2distributed__lagrange_8cc.html" target="_top" xlink:title=" ">
<polygon fill="none" stroke="black" points="284,-0.5 284,-30.5 409,-30.5 409,-0.5 284,-0.5"/>
<text text-anchor="start" x="292" y="-18.5" font-family="Helvetica,sans-Serif" font-size="10.00">apps/serial/distributed</text>
<text text-anchor="middle" x="346.5" y="-7.5" font-family="Helvetica,sans-Serif" font-size="10.00">_lagrange.cc</text>
</a>
</g>
</g>
<!-- Node2&#45;&gt;Node5 -->
<g id="edge4" class="edge">
<title>Node2&#45;&gt;Node5</title>
<path fill="none" stroke="midnightblue" d="M346.5,-57.11C346.5,-48.15 346.5,-38.32 346.5,-30.58"/>
<polygon fill="midnightblue" stroke="midnightblue" points="343,-57.4 346.5,-67.4 350,-57.4 343,-57.4"/>
</g>
<!-- Node6&#45;&gt;Node2 -->
<g id="edge6" class="edge">
<title>Node6&#45;&gt;Node2</title>
<path fill="none" stroke="midnightblue" d="M1218.63,-144C1047.82,-132.15 586.91,-100.18 413.6,-88.15"/>
<polygon fill="midnightblue" stroke="midnightblue" points="1218.51,-147.5 1228.73,-144.7 1219,-140.52 1218.51,-147.5"/>
</g>
<!-- Node7 -->
<g id="node7" class="node">
<title>Node7</title>
<g id="a_node7"><a xlink:href="linear__elasticity_8h.html" target="_top" xlink:title=" ">
<polygon fill="none" stroke="black" points="648,-67.5 648,-97.5 757,-97.5 757,-67.5 648,-67.5"/>
<text text-anchor="start" x="656" y="-85.5" font-family="Helvetica,sans-Serif" font-size="10.00">include/pdes/linear</text>
<text text-anchor="middle" x="702.5" y="-74.5" font-family="Helvetica,sans-Serif" font-size="10.00">_elasticity.h</text>
</a>
</g>
</g>
<!-- Node6&#45;&gt;Node7 -->
<g id="edge7" class="edge">
<title>Node6&#45;&gt;Node7</title>
<path fill="none" stroke="midnightblue" d="M1218.74,-141.26C1103.43,-128.35 864.52,-101.63 757.01,-89.6"/>
<polygon fill="midnightblue" stroke="midnightblue" points="1218.51,-144.75 1228.84,-142.38 1219.29,-137.79 1218.51,-144.75"/>
</g>
<!-- Node11 -->
<g id="node11" class="node">
<title>Node11</title>
<g id="a_node11"><a xlink:href="linear__visco__elasticity_8h.html" target="_top" xlink:title=" ">
<polygon fill="none" stroke="black" points="1014,-67.5 1014,-97.5 1123,-97.5 1123,-67.5 1014,-67.5"/>
<text text-anchor="start" x="1022" y="-85.5" font-family="Helvetica,sans-Serif" font-size="10.00">include/pdes/linear</text>
<text text-anchor="middle" x="1068.5" y="-74.5" font-family="Helvetica,sans-Serif" font-size="10.00">_visco_elasticity.h</text>
</a>
</g>
</g>
<!-- Node6&#45;&gt;Node11 -->
<g id="edge11" class="edge">
<title>Node6&#45;&gt;Node11</title>
<path fill="none" stroke="midnightblue" d="M1227.53,-131.58C1192.61,-121.02 1148.19,-107.59 1115.17,-97.61"/>
<polygon fill="midnightblue" stroke="midnightblue" points="1226.53,-134.93 1237.11,-134.48 1228.55,-128.23 1226.53,-134.93"/>
</g>
<!-- Node15 -->
<g id="node15" class="node">
<title>Node15</title>
<g id="a_node15"><a xlink:href="mpi_2poisson_8h.html" target="_top" xlink:title=" ">
<polygon fill="none" stroke="black" points="1209,-73 1209,-92 1358,-92 1358,-73 1209,-73"/>
<text text-anchor="middle" x="1283.5" y="-80" font-family="Helvetica,sans-Serif" font-size="10.00">include/pdes/mpi/poisson.h</text>
</a>
</g>
</g>
<!-- Node6&#45;&gt;Node15 -->
<g id="edge15" class="edge">
<title>Node6&#45;&gt;Node15</title>
<path fill="none" stroke="midnightblue" d="M1283.5,-124.25C1283.5,-113.02 1283.5,-100.38 1283.5,-92.19"/>
<polygon fill="midnightblue" stroke="midnightblue" points="1280,-124.4 1283.5,-134.4 1287,-124.4 1280,-124.4"/>
</g>
<!-- Node18 -->
<g id="node18" class="node">
<title>Node18</title>
<g id="a_node18"><a xlink:href="stokes_8h.html" target="_top" xlink:title=" ">
<polygon fill="none" stroke="black" points="1376.5,-73 1376.5,-92 1498.5,-92 1498.5,-73 1376.5,-73"/>
<text text-anchor="middle" x="1437.5" y="-80" font-family="Helvetica,sans-Serif" font-size="10.00">include/pdes/stokes.h</text>
</a>
</g>
</g>
<!-- Node6&#45;&gt;Node18 -->
<g id="edge18" class="edge">
<title>Node6&#45;&gt;Node18</title>
<path fill="none" stroke="midnightblue" d="M1326.24,-130.46C1356,-117.9 1394.32,-101.72 1417.34,-92.01"/>
<polygon fill="midnightblue" stroke="midnightblue" points="1324.77,-127.28 1316.92,-134.4 1327.49,-133.73 1324.77,-127.28"/>
</g>
<!-- Node21 -->
<g id="node21" class="node">
<title>Node21</title>
<g id="a_node21"><a xlink:href="linear__problem_8cc.html" target="_top" xlink:title=" ">
<polygon fill="none" stroke="black" points="1516.5,-67.5 1516.5,-97.5 1622.5,-97.5 1622.5,-67.5 1516.5,-67.5"/>
<text text-anchor="start" x="1524.5" y="-85.5" font-family="Helvetica,sans-Serif" font-size="10.00">source/pdes/linear</text>
<text text-anchor="middle" x="1569.5" y="-74.5" font-family="Helvetica,sans-Serif" font-size="10.00">_problem.cc</text>
</a>
</g>
</g>
<!-- Node6&#45;&gt;Node21 -->
<g id="edge21" class="edge">
<title>Node6&#45;&gt;Node21</title>
<path fill="none" stroke="midnightblue" d="M1348.17,-134.06C1392.93,-124.04 1453.86,-110.32 1507.5,-98 1510.41,-97.33 1513.39,-96.64 1516.41,-95.95"/>
<polygon fill="midnightblue" stroke="midnightblue" points="1347.3,-130.67 1338.3,-136.27 1348.82,-137.5 1347.3,-130.67"/>
</g>
<!-- Node8 -->
<g id="node8" class="node">
<title>Node8</title>
<g id="a_node8"><a xlink:href="source_2pdes_2linear__elasticity_8cc.html" target="_top" xlink:title=" ">
<polygon fill="none" stroke="black" points="427.5,-0.5 427.5,-30.5 533.5,-30.5 533.5,-0.5 427.5,-0.5"/>
<text text-anchor="start" x="435.5" y="-18.5" font-family="Helvetica,sans-Serif" font-size="10.00">source/pdes/linear</text>
<text text-anchor="middle" x="480.5" y="-7.5" font-family="Helvetica,sans-Serif" font-size="10.00">_elasticity.cc</text>
</a>
</g>
</g>
<!-- Node7&#45;&gt;Node8 -->
<g id="edge8" class="edge">
<title>Node7&#45;&gt;Node8</title>
<path fill="none" stroke="midnightblue" d="M644.71,-64.58C608.65,-54.02 562.78,-40.59 528.69,-30.61"/>
<polygon fill="midnightblue" stroke="midnightblue" points="644.02,-68.02 654.6,-67.48 645.99,-61.31 644.02,-68.02"/>
</g>
<!-- Node9 -->
<g id="node9" class="node">
<title>Node9</title>
<g id="a_node9"><a xlink:href="apps_2mpi_2linear__elasticity_8cc.html" target="_top" xlink:title=" ">
<polygon fill="none" stroke="black" points="552,-6 552,-25 707,-25 707,-6 552,-6"/>
<text text-anchor="middle" x="629.5" y="-13" font-family="Helvetica,sans-Serif" font-size="10.00">apps/mpi/linear_elasticity.cc</text>
</a>
</g>
</g>
<!-- Node7&#45;&gt;Node9 -->
<g id="edge9" class="edge">
<title>Node7&#45;&gt;Node9</title>
<path fill="none" stroke="midnightblue" d="M679.11,-60.67C665.63,-48.67 649.4,-34.22 639.26,-25.19"/>
<polygon fill="midnightblue" stroke="midnightblue" points="676.86,-63.36 686.66,-67.4 681.52,-58.13 676.86,-63.36"/>
</g>
<!-- Node10 -->
<g id="node10" class="node">
<title>Node10</title>
<g id="a_node10"><a xlink:href="apps_2serial_2linear__elasticity_8cc.html" target="_top" xlink:title=" ">
<polygon fill="none" stroke="black" points="725,-0.5 725,-30.5 826,-30.5 826,-0.5 725,-0.5"/>
<text text-anchor="start" x="733" y="-18.5" font-family="Helvetica,sans-Serif" font-size="10.00">apps/serial/linear</text>
<text text-anchor="middle" x="775.5" y="-7.5" font-family="Helvetica,sans-Serif" font-size="10.00">_elasticity.cc</text>
</a>
</g>
</g>
<!-- Node7&#45;&gt;Node10 -->
<g id="edge10" class="edge">
<title>Node7&#45;&gt;Node10</title>
<path fill="none" stroke="midnightblue" d="M725.97,-60.6C737,-50.78 749.84,-39.34 759.69,-30.58"/>
<polygon fill="midnightblue" stroke="midnightblue" points="723.48,-58.13 718.34,-67.4 728.14,-63.36 723.48,-58.13"/>
</g>
<!-- Node12 -->
<g id="node12" class="node">
<title>Node12</title>
<g id="a_node12"><a xlink:href="source_2pdes_2linear__visco__elasticity_8cc.html" target="_top" xlink:title=" ">
<polygon fill="none" stroke="black" points="844.5,-0.5 844.5,-30.5 954.5,-30.5 954.5,-0.5 844.5,-0.5"/>
<text text-anchor="start" x="852.5" y="-18.5" font-family="Helvetica,sans-Serif" font-size="10.00">source/pdes/linear</text>
<text text-anchor="middle" x="899.5" y="-7.5" font-family="Helvetica,sans-Serif" font-size="10.00">_visco_elasticity.cc</text>
</a>
</g>
</g>
<!-- Node11&#45;&gt;Node12 -->
<g id="edge12" class="edge">
<title>Node11&#45;&gt;Node12</title>
<path fill="none" stroke="midnightblue" d="M1022.17,-63.68C995.07,-53.26 961.33,-40.28 936.1,-30.58"/>
<polygon fill="midnightblue" stroke="midnightblue" points="1021.24,-67.07 1031.83,-67.4 1023.75,-60.54 1021.24,-67.07"/>
</g>
<!-- Node13 -->
<g id="node13" class="node">
<title>Node13</title>
<g id="a_node13"><a xlink:href="apps_2mpi_2linear__visco__elasticity_8cc.html" target="_top" xlink:title=" ">
<polygon fill="none" stroke="black" points="973,-0.5 973,-30.5 1096,-30.5 1096,-0.5 973,-0.5"/>
<text text-anchor="start" x="981" y="-18.5" font-family="Helvetica,sans-Serif" font-size="10.00">apps/mpi/linear_visco</text>
<text text-anchor="middle" x="1034.5" y="-7.5" font-family="Helvetica,sans-Serif" font-size="10.00">_elasticity.cc</text>
</a>
</g>
</g>
<!-- Node11&#45;&gt;Node13 -->
<g id="edge13" class="edge">
<title>Node11&#45;&gt;Node13</title>
<path fill="none" stroke="midnightblue" d="M1056.36,-58.28C1051.51,-49.02 1046.09,-38.66 1041.86,-30.58"/>
<polygon fill="midnightblue" stroke="midnightblue" points="1053.39,-60.16 1061.12,-67.4 1059.59,-56.91 1053.39,-60.16"/>
</g>
<!-- Node14 -->
<g id="node14" class="node">
<title>Node14</title>
<g id="a_node14"><a xlink:href="apps_2serial_2linear__visco__elasticity_8cc.html" target="_top" xlink:title=" ">
<polygon fill="none" stroke="black" points="1114.5,-0.5 1114.5,-30.5 1224.5,-30.5 1224.5,-0.5 1114.5,-0.5"/>
<text text-anchor="start" x="1122.5" y="-18.5" font-family="Helvetica,sans-Serif" font-size="10.00">apps/serial/linear</text>
<text text-anchor="middle" x="1169.5" y="-7.5" font-family="Helvetica,sans-Serif" font-size="10.00">_visco_elasticity.cc</text>
</a>
</g>
</g>
<!-- Node11&#45;&gt;Node14 -->
<g id="edge14" class="edge">
<title>Node11&#45;&gt;Node14</title>
<path fill="none" stroke="midnightblue" d="M1099.21,-61.73C1114.84,-51.68 1133.47,-39.68 1147.63,-30.58"/>
<polygon fill="midnightblue" stroke="midnightblue" points="1096.93,-59.04 1090.42,-67.4 1100.72,-64.93 1096.93,-59.04"/>
</g>
<!-- Node16 -->
<g id="node16" class="node">
<title>Node16</title>
<g id="a_node16"><a xlink:href="source_2pdes_2mpi_2poisson_8cc.html" target="_top" xlink:title=" ">
<polygon fill="none" stroke="black" points="1243,-6 1243,-25 1394,-25 1394,-6 1243,-6"/>
<text text-anchor="middle" x="1318.5" y="-13" font-family="Helvetica,sans-Serif" font-size="10.00">source/pdes/mpi/poisson.cc</text>
</a>
</g>
</g>
<!-- Node15&#45;&gt;Node16 -->
<g id="edge16" class="edge">
<title>Node15&#45;&gt;Node16</title>
<path fill="none" stroke="midnightblue" d="M1293.1,-63.66C1299.85,-51.13 1308.59,-34.91 1313.85,-25.13"/>
<polygon fill="midnightblue" stroke="midnightblue" points="1289.88,-62.27 1288.22,-72.73 1296.04,-65.59 1289.88,-62.27"/>
</g>
<!-- Node17 -->
<g id="node17" class="node">
<title>Node17</title>
<g id="a_node17"><a xlink:href="apps_2mpi_2poisson_8cc.html" target="_top" xlink:title=" ">
<polygon fill="none" stroke="black" points="1412.5,-6 1412.5,-25 1528.5,-25 1528.5,-6 1412.5,-6"/>
<text text-anchor="middle" x="1470.5" y="-13" font-family="Helvetica,sans-Serif" font-size="10.00">apps/mpi/poisson.cc</text>
</a>
</g>
</g>
<!-- Node15&#45;&gt;Node17 -->
<g id="edge17" class="edge">
<title>Node15&#45;&gt;Node17</title>
<path fill="none" stroke="midnightblue" d="M1318.21,-69.44C1355.3,-56.54 1413.18,-36.42 1445.86,-25.06"/>
<polygon fill="midnightblue" stroke="midnightblue" points="1316.63,-66.28 1308.33,-72.87 1318.93,-72.89 1316.63,-66.28"/>
</g>
<!-- Node19 -->
<g id="node19" class="node">
<title>Node19</title>
<g id="a_node19"><a xlink:href="source_2pdes_2stokes_8cc.html" target="_top" xlink:title=" ">
<polygon fill="none" stroke="black" points="1547,-6 1547,-25 1670,-25 1670,-6 1547,-6"/>
<text text-anchor="middle" x="1608.5" y="-13" font-family="Helvetica,sans-Serif" font-size="10.00">source/pdes/stokes.cc</text>
</a>
</g>
</g>
<!-- Node18&#45;&gt;Node19 -->
<g id="edge19" class="edge">
<title>Node18&#45;&gt;Node19</title>
<path fill="none" stroke="midnightblue" d="M1469.67,-69.27C1503.61,-56.37 1556.21,-36.38 1585.97,-25.06"/>
<polygon fill="midnightblue" stroke="midnightblue" points="1468.31,-66.04 1460.21,-72.87 1470.8,-72.59 1468.31,-66.04"/>
</g>
<!-- Node20 -->
<g id="node20" class="node">
<title>Node20</title>
<g id="a_node20"><a xlink:href="apps_2mpi_2stokes_8cc.html" target="_top" xlink:title=" ">
<polygon fill="none" stroke="black" points="1688.5,-6 1688.5,-25 1798.5,-25 1798.5,-6 1688.5,-6"/>
<text text-anchor="middle" x="1743.5" y="-13" font-family="Helvetica,sans-Serif" font-size="10.00">apps/mpi/stokes.cc</text>
</a>
</g>
</g>
<!-- Node18&#45;&gt;Node20 -->
<g id="edge20" class="edge">
<title>Node18&#45;&gt;Node20</title>
<path fill="none" stroke="midnightblue" d="M1488.63,-70.87C1548.19,-58.47 1642.95,-38.69 1678.5,-31 1687.31,-29.09 1696.79,-27 1705.71,-25.02"/>
<polygon fill="midnightblue" stroke="midnightblue" points="1487.74,-67.48 1478.67,-72.94 1489.17,-74.33 1487.74,-67.48"/>
</g>
<!-- Node23 -->
<g id="node23" class="node">
<title>Node23</title>
<g id="a_node23"><a xlink:href="source_2pdes_2serial_2poisson_8cc.html" target="_top" xlink:title=" ">
<polygon fill="none" stroke="black" points="1641,-67.5 1641,-97.5 1746,-97.5 1746,-67.5 1641,-67.5"/>
<text text-anchor="start" x="1649" y="-85.5" font-family="Helvetica,sans-Serif" font-size="10.00">source/pdes/serial</text>
<text text-anchor="middle" x="1693.5" y="-74.5" font-family="Helvetica,sans-Serif" font-size="10.00">/poisson.cc</text>
</a>
</g>
</g>
<!-- Node22&#45;&gt;Node23 -->
<g id="edge23" class="edge">
<title>Node22&#45;&gt;Node23</title>
<path fill="none" stroke="midnightblue" d="M1788.63,-129.99C1767.55,-119.69 1741.72,-107.07 1722.3,-97.58"/>
<polygon fill="midnightblue" stroke="midnightblue" points="1787.12,-133.15 1797.64,-134.4 1790.19,-126.86 1787.12,-133.15"/>
</g>
<!-- Node24 -->
<g id="node24" class="node">
<title>Node24</title>
<g id="a_node24"><a xlink:href="apps_2serial_2poisson_8cc.html" target="_top" xlink:title=" ">
<polygon fill="none" stroke="black" points="1764.5,-73 1764.5,-92 1888.5,-92 1888.5,-73 1764.5,-73"/>
<text text-anchor="middle" x="1826.5" y="-80" font-family="Helvetica,sans-Serif" font-size="10.00">apps/serial/poisson.cc</text>
</a>
</g>
</g>
<!-- Node22&#45;&gt;Node24 -->
<g id="edge24" class="edge">
<title>Node22&#45;&gt;Node24</title>
<path fill="none" stroke="midnightblue" d="M1826.5,-124.25C1826.5,-113.02 1826.5,-100.38 1826.5,-92.19"/>
<polygon fill="midnightblue" stroke="midnightblue" points="1823,-124.4 1826.5,-134.4 1830,-124.4 1823,-124.4"/>
</g>
<!-- Node26 -->
<g id="node26" class="node">
<title>Node26</title>
<g id="a_node26"><a xlink:href="source_2pdes_2serial_2poisson__nitsche__interface_8cc.html" target="_top" xlink:title=" ">
<polygon fill="none" stroke="black" points="1906.5,-67.5 1906.5,-97.5 2066.5,-97.5 2066.5,-67.5 1906.5,-67.5"/>
<text text-anchor="start" x="1914.5" y="-85.5" font-family="Helvetica,sans-Serif" font-size="10.00">source/pdes/serial</text>
<text text-anchor="middle" x="1986.5" y="-74.5" font-family="Helvetica,sans-Serif" font-size="10.00">/poisson_nitsche_interface.cc</text>
</a>
</g>
</g>
<!-- Node25&#45;&gt;Node26 -->
<g id="edge26" class="edge">
<title>Node25&#45;&gt;Node26</title>
<path fill="none" stroke="midnightblue" d="M2088.37,-130.13C2065.81,-119.8 2038.08,-107.11 2017.25,-97.58"/>
<polygon fill="midnightblue" stroke="midnightblue" points="2087.14,-133.42 2097.69,-134.4 2090.05,-127.05 2087.14,-133.42"/>
</g>
<!-- Node27 -->
<g id="node27" class="node">
<title>Node27</title>
<g id="a_node27"><a xlink:href="apps_2serial_2poisson__nitsche__interface_8cc.html" target="_top" xlink:title=" ">
<polygon fill="none" stroke="black" points="2085,-67.5 2085,-97.5 2204,-97.5 2204,-67.5 2085,-67.5"/>
<text text-anchor="start" x="2093" y="-85.5" font-family="Helvetica,sans-Serif" font-size="10.00">apps/serial/poisson</text>
<text text-anchor="middle" x="2144.5" y="-74.5" font-family="Helvetica,sans-Serif" font-size="10.00">_nitsche_interface.cc</text>
</a>
</g>
</g>
<!-- Node25&#45;&gt;Node27 -->
<g id="edge27" class="edge">
<title>Node25&#45;&gt;Node27</title>
<path fill="none" stroke="midnightblue" d="M2134.43,-124.4C2136.66,-115.37 2139.11,-105.41 2141.04,-97.58"/>
<polygon fill="midnightblue" stroke="midnightblue" points="2130.96,-123.85 2131.97,-134.4 2137.76,-125.52 2130.96,-123.85"/>
</g>
<!-- Node29 -->
<g id="node29" class="node">
<title>Node29</title>
<g id="a_node29"><a xlink:href="source_2pdes_2serial_2reduced__lagrange_8cc.html" target="_top" xlink:title=" ">
<polygon fill="none" stroke="black" points="2222.5,-67.5 2222.5,-97.5 2342.5,-97.5 2342.5,-67.5 2222.5,-67.5"/>
<text text-anchor="start" x="2230.5" y="-85.5" font-family="Helvetica,sans-Serif" font-size="10.00">source/pdes/serial</text>
<text text-anchor="middle" x="2282.5" y="-74.5" font-family="Helvetica,sans-Serif" font-size="10.00">/reduced_lagrange.cc</text>
</a>
</g>
</g>
<!-- Node28&#45;&gt;Node29 -->
<g id="edge29" class="edge">
<title>Node28&#45;&gt;Node29</title>
<path fill="none" stroke="midnightblue" d="M2282.5,-124.11C2282.5,-115.15 2282.5,-105.32 2282.5,-97.58"/>
<polygon fill="midnightblue" stroke="midnightblue" points="2279,-124.4 2282.5,-134.4 2286,-124.4 2279,-124.4"/>
</g>
<!-- Node30 -->
<g id="node30" class="node">
<title>Node30</title>
<g id="a_node30"><a xlink:href="apps_2serial_2reduced__lagrange_8cc.html" target="_top" xlink:title=" ">
<polygon fill="none" stroke="black" points="2360.5,-67.5 2360.5,-97.5 2472.5,-97.5 2472.5,-67.5 2360.5,-67.5"/>
<text text-anchor="start" x="2368.5" y="-85.5" font-family="Helvetica,sans-Serif" font-size="10.00">apps/serial/reduced</text>
<text text-anchor="middle" x="2416.5" y="-74.5" font-family="Helvetica,sans-Serif" font-size="10.00">_lagrange.cc</text>
</a>
</g>
</g>
<!-- Node28&#45;&gt;Node30 -->
<g id="edge30" class="edge">
<title>Node28&#45;&gt;Node30</title>
<path fill="none" stroke="midnightblue" d="M2320.65,-129.99C2341.89,-119.69 2367.91,-107.07 2387.48,-97.58"/>
<polygon fill="midnightblue" stroke="midnightblue" points="2319.05,-126.88 2311.58,-134.4 2322.1,-133.18 2319.05,-126.88"/>
</g>
<!-- Node32 -->
<g id="node32" class="node">
<title>Node32</title>
<g id="a_node32"><a xlink:href="source_2pdes_2serial_2stokes_8cc.html" target="_top" xlink:title=" ">
<polygon fill="none" stroke="black" points="2491,-67.5 2491,-97.5 2596,-97.5 2596,-67.5 2491,-67.5"/>
<text text-anchor="start" x="2499" y="-85.5" font-family="Helvetica,sans-Serif" font-size="10.00">source/pdes/serial</text>
<text text-anchor="middle" x="2543.5" y="-74.5" font-family="Helvetica,sans-Serif" font-size="10.00">/stokes.cc</text>
</a>
</g>
</g>
<!-- Node31&#45;&gt;Node32 -->
<g id="edge32" class="edge">
<title>Node31&#45;&gt;Node32</title>
<path fill="none" stroke="midnightblue" d="M2450.08,-129.85C2470.79,-119.58 2496.09,-107.03 2515.13,-97.58"/>
<polygon fill="midnightblue" stroke="midnightblue" points="2448.33,-126.82 2440.93,-134.4 2451.44,-133.09 2448.33,-126.82"/>
</g>
<!-- Node33 -->
<g id="node33" class="node">
<title>Node33</title>
<g id="a_node33"><a xlink:href="apps_2serial_2stokes_8cc.html" target="_top" xlink:title=" ">
<polygon fill="none" stroke="black" points="2614.5,-73 2614.5,-92 2732.5,-92 2732.5,-73 2614.5,-73"/>
<text text-anchor="middle" x="2673.5" y="-80" font-family="Helvetica,sans-Serif" font-size="10.00">apps/serial/stokes.cc</text>
</a>
</g>
</g>
<!-- Node31&#45;&gt;Node33 -->
<g id="edge33" class="edge">
<title>Node31&#45;&gt;Node33</title>
<path fill="none" stroke="midnightblue" d="M2476.57,-132.54C2527.84,-119.77 2597.77,-102.36 2639.02,-92.09"/>
<polygon fill="midnightblue" stroke="midnightblue" points="2475.44,-129.22 2466.58,-135.03 2477.13,-136.01 2475.44,-129.22"/>
</g>
</g>
</svg>
