<?xml version="1.0" encoding="UTF-8" standalone="no"?>
<!DOCTYPE svg PUBLIC "-//W3C//DTD SVG 1.1//EN"
 "http://www.w3.org/Graphics/SVG/1.1/DTD/svg11.dtd">
<!-- Generated by graphviz version 2.43.0 (0)
 -->
<!-- Title: include/parsed_tools/finite_element.h Pages: 1 -->
<svg width="1974pt" height="240pt"
 viewBox="0.00 0.00 1974.00 240.00" xmlns="http://www.w3.org/2000/svg" xmlns:xlink="http://www.w3.org/1999/xlink">
<g id="graph0" class="graph" transform="scale(1 1) rotate(0) translate(4 236)">
<title>include/parsed_tools/finite_element.h</title>
<!-- Node1 -->
<g id="node1" class="node">
<title>Node1</title>
<g id="a_node1"><a xlink:title=" ">
<polygon fill="#bfbfbf" stroke="black" points="1369.5,-201.5 1369.5,-231.5 1486.5,-231.5 1486.5,-201.5 1369.5,-201.5"/>
<text text-anchor="start" x="1377.5" y="-219.5" font-family="Helvetica,sans-Serif" font-size="10.00">include/parsed_tools</text>
<text text-anchor="middle" x="1428" y="-208.5" font-family="Helvetica,sans-Serif" font-size="10.00">/finite_element.h</text>
</a>
</g>
</g>
<!-- Node2 -->
<g id="node2" class="node">
<title>Node2</title>
<g id="a_node2"><a xlink:href="linear__problem_8h.html" target="_top" xlink:title=" ">
<polygon fill="none" stroke="black" points="408.5,-134.5 408.5,-164.5 539.5,-164.5 539.5,-134.5 408.5,-134.5"/>
<text text-anchor="start" x="416.5" y="-152.5" font-family="Helvetica,sans-Serif" font-size="10.00">include/pdes/mpi/linear</text>
<text text-anchor="middle" x="474" y="-141.5" font-family="Helvetica,sans-Serif" font-size="10.00">_problem.h</text>
</a>
</g>
</g>
<!-- Node1&#45;&gt;Node2 -->
<g id="edge1" class="edge">
<title>Node1&#45;&gt;Node2</title>
<path fill="none" stroke="midnightblue" d="M1359.18,-210.81C1182.26,-198.76 713.35,-166.81 539.8,-154.98"/>
<polygon fill="midnightblue" stroke="midnightblue" points="1359.19,-214.32 1369.4,-211.51 1359.66,-207.34 1359.19,-214.32"/>
</g>
<!-- Node10 -->
<g id="node10" class="node">
<title>Node10</title>
<g id="a_node10"><a xlink:href="distributed__lagrange_8h.html" target="_top" xlink:title=" ">
<polygon fill="none" stroke="black" points="784.5,-134.5 784.5,-164.5 913.5,-164.5 913.5,-134.5 784.5,-134.5"/>
<text text-anchor="start" x="792.5" y="-152.5" font-family="Helvetica,sans-Serif" font-size="10.00">include/pdes/serial</text>
<text text-anchor="middle" x="849" y="-141.5" font-family="Helvetica,sans-Serif" font-size="10.00">/distributed_lagrange.h</text>
</a>
</g>
</g>
<!-- Node1&#45;&gt;Node10 -->
<g id="edge9" class="edge">
<title>Node1&#45;&gt;Node10</title>
<path fill="none" stroke="midnightblue" d="M1359.05,-207.76C1246.18,-195.09 1023.55,-170.09 913.58,-157.75"/>
<polygon fill="midnightblue" stroke="midnightblue" points="1358.97,-211.27 1369.3,-208.91 1359.75,-204.32 1358.97,-211.27"/>
</g>
<!-- Node13 -->
<g id="node13" class="node">
<title>Node13</title>
<g id="a_node13"><a xlink:href="serial_2linear__elasticity_8h.html" target="_top" xlink:title=" ">
<polygon fill="none" stroke="black" points="1055,-134.5 1055,-164.5 1163,-164.5 1163,-134.5 1055,-134.5"/>
<text text-anchor="start" x="1063" y="-152.5" font-family="Helvetica,sans-Serif" font-size="10.00">include/pdes/serial</text>
<text text-anchor="middle" x="1109" y="-141.5" font-family="Helvetica,sans-Serif" font-size="10.00">/linear_elasticity.h</text>
</a>
</g>
</g>
<!-- Node1&#45;&gt;Node13 -->
<g id="edge12" class="edge">
<title>Node1&#45;&gt;Node13</title>
<path fill="none" stroke="midnightblue" d="M1359.56,-201.55C1300.82,-189.59 1217.32,-172.57 1163.15,-161.53"/>
<polygon fill="midnightblue" stroke="midnightblue" points="1358.99,-205.01 1369.49,-203.58 1360.39,-198.15 1358.99,-205.01"/>
</g>
<!-- Node16 -->
<g id="node16" class="node">
<title>Node16</title>
<g id="a_node16"><a xlink:href="serial_2poisson_8h.html" target="_top" xlink:title=" ">
<polygon fill="none" stroke="black" points="1309,-134.5 1309,-164.5 1417,-164.5 1417,-134.5 1309,-134.5"/>
<text text-anchor="start" x="1317" y="-152.5" font-family="Helvetica,sans-Serif" font-size="10.00">include/pdes/serial</text>
<text text-anchor="middle" x="1363" y="-141.5" font-family="Helvetica,sans-Serif" font-size="10.00">/poisson.h</text>
</a>
</g>
</g>
<!-- Node1&#45;&gt;Node16 -->
<g id="edge15" class="edge">
<title>Node1&#45;&gt;Node16</title>
<path fill="none" stroke="midnightblue" d="M1406.81,-194.31C1397.06,-184.56 1385.76,-173.26 1377.08,-164.58"/>
<polygon fill="midnightblue" stroke="midnightblue" points="1404.35,-196.8 1413.9,-201.4 1409.3,-191.85 1404.35,-196.8"/>
</g>
<!-- Node19 -->
<g id="node19" class="node">
<title>Node19</title>
<g id="a_node19"><a xlink:href="reduced__lagrange_8h.html" target="_top" xlink:title=" ">
<polygon fill="none" stroke="black" points="1440,-134.5 1440,-164.5 1556,-164.5 1556,-134.5 1440,-134.5"/>
<text text-anchor="start" x="1448" y="-152.5" font-family="Helvetica,sans-Serif" font-size="10.00">include/pdes/serial</text>
<text text-anchor="middle" x="1498" y="-141.5" font-family="Helvetica,sans-Serif" font-size="10.00">/reduced_lagrange.h</text>
</a>
</g>
</g>
<!-- Node1&#45;&gt;Node19 -->
<g id="edge18" class="edge">
<title>Node1&#45;&gt;Node19</title>
<path fill="none" stroke="midnightblue" d="M1450.82,-194.31C1461.32,-184.56 1473.49,-173.26 1482.84,-164.58"/>
<polygon fill="midnightblue" stroke="midnightblue" points="1448.14,-192.03 1443.19,-201.4 1452.9,-197.16 1448.14,-192.03"/>
</g>
<!-- Node22 -->
<g id="node22" class="node">
<title>Node22</title>
<g id="a_node22"><a xlink:href="stokes_8h.html" target="_top" xlink:title=" ">
<polygon fill="none" stroke="black" points="1574,-134.5 1574,-164.5 1682,-164.5 1682,-134.5 1574,-134.5"/>
<text text-anchor="start" x="1582" y="-152.5" font-family="Helvetica,sans-Serif" font-size="10.00">include/pdes/serial</text>
<text text-anchor="middle" x="1628" y="-141.5" font-family="Helvetica,sans-Serif" font-size="10.00">/stokes.h</text>
</a>
</g>
</g>
<!-- Node1&#45;&gt;Node22 -->
<g id="edge21" class="edge">
<title>Node1&#45;&gt;Node22</title>
<path fill="none" stroke="midnightblue" d="M1481.15,-198.23C1513.5,-187.71 1554.31,-174.45 1584.69,-164.58"/>
<polygon fill="midnightblue" stroke="midnightblue" points="1479.83,-194.98 1471.4,-201.4 1481.99,-201.63 1479.83,-194.98"/>
</g>
<!-- Node25 -->
<g id="node25" class="node">
<title>Node25</title>
<g id="a_node25"><a xlink:href="finite__element_8cc.html" target="_top" xlink:title=" ">
<polygon fill="none" stroke="black" points="1700.5,-140 1700.5,-159 1837.5,-159 1837.5,-140 1700.5,-140"/>
<text text-anchor="middle" x="1769" y="-147" font-family="Helvetica,sans-Serif" font-size="10.00">source/finite_element.cc</text>
</a>
</g>
</g>
<!-- Node1&#45;&gt;Node25 -->
<g id="edge24" class="edge">
<title>Node1&#45;&gt;Node25</title>
<path fill="none" stroke="midnightblue" d="M1496.78,-202.39C1564.58,-189.47 1666.19,-170.1 1724.18,-159.04"/>
<polygon fill="midnightblue" stroke="midnightblue" points="1495.79,-199.02 1486.62,-204.33 1497.1,-205.89 1495.79,-199.02"/>
</g>
<!-- Node26 -->
<g id="node26" class="node">
<title>Node26</title>
<g id="a_node26"><a xlink:href="dof__plotter_8cc.html" target="_top" xlink:title="Degrees of freedom plotter.">
<polygon fill="none" stroke="black" points="1856,-140 1856,-159 1966,-159 1966,-140 1856,-140"/>
<text text-anchor="middle" x="1911" y="-147" font-family="Helvetica,sans-Serif" font-size="10.00">apps/dof_plotter.cc</text>
</a>
</g>
</g>
<!-- Node1&#45;&gt;Node26 -->
<g id="edge25" class="edge">
<title>Node1&#45;&gt;Node26</title>
<path fill="none" stroke="midnightblue" d="M1496.66,-209.41C1579.92,-201.53 1724.33,-186.23 1847,-165 1856.54,-163.35 1866.8,-161.2 1876.25,-159.06"/>
<polygon fill="midnightblue" stroke="midnightblue" points="1496.2,-205.94 1486.57,-210.36 1496.85,-212.91 1496.2,-205.94"/>
</g>
<!-- Node3 -->
<g id="node3" class="node">
<title>Node3</title>
<g id="a_node3"><a xlink:href="mpi_2linear__elasticity_8h.html" target="_top" xlink:title=" ">
<polygon fill="none" stroke="black" points="158.5,-67.5 158.5,-97.5 289.5,-97.5 289.5,-67.5 158.5,-67.5"/>
<text text-anchor="start" x="166.5" y="-85.5" font-family="Helvetica,sans-Serif" font-size="10.00">include/pdes/mpi/linear</text>
<text text-anchor="middle" x="224" y="-74.5" font-family="Helvetica,sans-Serif" font-size="10.00">_elasticity.h</text>
</a>
</g>
</g>
<!-- Node2&#45;&gt;Node3 -->
<g id="edge2" class="edge">
<title>Node2&#45;&gt;Node3</title>
<path fill="none" stroke="midnightblue" d="M410.22,-131.92C369.42,-121.31 317.07,-107.7 278.27,-97.61"/>
<polygon fill="midnightblue" stroke="midnightblue" points="409.5,-135.35 420.06,-134.48 411.26,-128.57 409.5,-135.35"/>
</g>
<!-- Node6 -->
<g id="node6" class="node">
<title>Node6</title>
<g id="a_node6"><a xlink:href="mpi_2poisson_8h.html" target="_top" xlink:title=" ">
<polygon fill="none" stroke="black" points="320.5,-73 320.5,-92 469.5,-92 469.5,-73 320.5,-73"/>
<text text-anchor="middle" x="395" y="-80" font-family="Helvetica,sans-Serif" font-size="10.00">include/pdes/mpi/poisson.h</text>
</a>
</g>
</g>
<!-- Node2&#45;&gt;Node6 -->
<g id="edge5" class="edge">
<title>Node2&#45;&gt;Node6</title>
<path fill="none" stroke="midnightblue" d="M449.09,-128.01C434.43,-115.94 416.64,-101.3 405.57,-92.19"/>
<polygon fill="midnightblue" stroke="midnightblue" points="446.91,-130.75 456.86,-134.4 451.36,-125.34 446.91,-130.75"/>
</g>
<!-- Node9 -->
<g id="node9" class="node">
<title>Node9</title>
<g id="a_node9"><a xlink:href="linear__problem_8cc.html" target="_top" xlink:title=" ">
<polygon fill="none" stroke="black" points="488,-67.5 488,-97.5 616,-97.5 616,-67.5 488,-67.5"/>
<text text-anchor="start" x="496" y="-85.5" font-family="Helvetica,sans-Serif" font-size="10.00">source/pdes/mpi/linear</text>
<text text-anchor="middle" x="552" y="-74.5" font-family="Helvetica,sans-Serif" font-size="10.00">_problem.cc</text>
</a>
</g>
</g>
<!-- Node2&#45;&gt;Node9 -->
<g id="edge8" class="edge">
<title>Node2&#45;&gt;Node9</title>
<path fill="none" stroke="midnightblue" d="M498.74,-127.88C510.59,-118.01 524.48,-106.43 535.11,-97.58"/>
<polygon fill="midnightblue" stroke="midnightblue" points="496.37,-125.31 490.92,-134.4 500.85,-130.68 496.37,-125.31"/>
</g>
<!-- Node4 -->
<g id="node4" class="node">
<title>Node4</title>
<g id="a_node4"><a xlink:href="source_2pdes_2mpi_2linear__elasticity_8cc.html" target="_top" xlink:title=" ">
<polygon fill="none" stroke="black" points="0,-0.5 0,-30.5 128,-30.5 128,-0.5 0,-0.5"/>
<text text-anchor="start" x="8" y="-18.5" font-family="Helvetica,sans-Serif" font-size="10.00">source/pdes/mpi/linear</text>
<text text-anchor="middle" x="64" y="-7.5" font-family="Helvetica,sans-Serif" font-size="10.00">_elasticity.cc</text>
</a>
</g>
</g>
<!-- Node3&#45;&gt;Node4 -->
<g id="edge3" class="edge">
<title>Node3&#45;&gt;Node4</title>
<path fill="none" stroke="midnightblue" d="M179.8,-63.54C154.2,-53.14 122.43,-40.24 98.65,-30.58"/>
<polygon fill="midnightblue" stroke="midnightblue" points="178.7,-66.87 189.28,-67.4 181.34,-60.39 178.7,-66.87"/>
</g>
<!-- Node5 -->
<g id="node5" class="node">
<title>Node5</title>
<g id="a_node5"><a xlink:href="apps_2mpi_2linear__elasticity_8cc.html" target="_top" xlink:title=" ">
<polygon fill="none" stroke="black" points="146.5,-6 146.5,-25 301.5,-25 301.5,-6 146.5,-6"/>
<text text-anchor="middle" x="224" y="-13" font-family="Helvetica,sans-Serif" font-size="10.00">apps/mpi/linear_elasticity.cc</text>
</a>
</g>
</g>
<!-- Node3&#45;&gt;Node5 -->
<g id="edge4" class="edge">
<title>Node3&#45;&gt;Node5</title>
<path fill="none" stroke="midnightblue" d="M224,-57.25C224,-46.02 224,-33.38 224,-25.19"/>
<polygon fill="midnightblue" stroke="midnightblue" points="220.5,-57.4 224,-67.4 227.5,-57.4 220.5,-57.4"/>
</g>
<!-- Node7 -->
<g id="node7" class="node">
<title>Node7</title>
<g id="a_node7"><a xlink:href="source_2pdes_2mpi_2poisson_8cc.html" target="_top" xlink:title=" ">
<polygon fill="none" stroke="black" points="319.5,-6 319.5,-25 470.5,-25 470.5,-6 319.5,-6"/>
<text text-anchor="middle" x="395" y="-13" font-family="Helvetica,sans-Serif" font-size="10.00">source/pdes/mpi/poisson.cc</text>
</a>
</g>
</g>
<!-- Node6&#45;&gt;Node7 -->
<g id="edge6" class="edge">
<title>Node6&#45;&gt;Node7</title>
<path fill="none" stroke="midnightblue" d="M395,-62.54C395,-50.17 395,-34.62 395,-25.13"/>
<polygon fill="midnightblue" stroke="midnightblue" points="391.5,-62.73 395,-72.73 398.5,-62.73 391.5,-62.73"/>
</g>
<!-- Node8 -->
<g id="node8" class="node">
<title>Node8</title>
<g id="a_node8"><a xlink:href="apps_2mpi_2poisson_8cc.html" target="_top" xlink:title=" ">
<polygon fill="none" stroke="black" points="489,-6 489,-25 605,-25 605,-6 489,-6"/>
<text text-anchor="middle" x="547" y="-13" font-family="Helvetica,sans-Serif" font-size="10.00">apps/mpi/poisson.cc</text>
</a>
</g>
</g>
<!-- Node6&#45;&gt;Node8 -->
<g id="edge7" class="edge">
<title>Node6&#45;&gt;Node8</title>
<path fill="none" stroke="midnightblue" d="M424.74,-68.78C454.84,-55.91 500.57,-36.35 526.73,-25.17"/>
<polygon fill="midnightblue" stroke="midnightblue" points="423,-65.72 415.18,-72.87 425.76,-72.15 423,-65.72"/>
</g>
<!-- Node11 -->
<g id="node11" class="node">
<title>Node11</title>
<g id="a_node11"><a xlink:href="source_2pdes_2serial_2distributed__lagrange_8cc.html" target="_top" xlink:title=" ">
<polygon fill="none" stroke="black" points="634,-67.5 634,-97.5 768,-97.5 768,-67.5 634,-67.5"/>
<text text-anchor="start" x="642" y="-85.5" font-family="Helvetica,sans-Serif" font-size="10.00">source/pdes/serial</text>
<text text-anchor="middle" x="701" y="-74.5" font-family="Helvetica,sans-Serif" font-size="10.00">/distributed_lagrange.cc</text>
</a>
</g>
</g>
<!-- Node10&#45;&gt;Node11 -->
<g id="edge10" class="edge">
<title>Node10&#45;&gt;Node11</title>
<path fill="none" stroke="midnightblue" d="M807.49,-130.27C783.92,-119.92 754.86,-107.15 733.05,-97.58"/>
<polygon fill="midnightblue" stroke="midnightblue" points="806.32,-133.58 816.89,-134.4 809.14,-127.17 806.32,-133.58"/>
</g>
<!-- Node12 -->
<g id="node12" class="node">
<title>Node12</title>
<g id="a_node12"><a xlink:href="apps_2serial_2distributed__lagrange_8cc.html" target="_top" xlink:title=" ">
<polygon fill="none" stroke="black" points="786.5,-67.5 786.5,-97.5 911.5,-97.5 911.5,-67.5 786.5,-67.5"/>
<text text-anchor="start" x="794.5" y="-85.5" font-family="Helvetica,sans-Serif" font-size="10.00">apps/serial/distributed</text>
<text text-anchor="middle" x="849" y="-74.5" font-family="Helvetica,sans-Serif" font-size="10.00">_lagrange.cc</text>
</a>
</g>
</g>
<!-- Node10&#45;&gt;Node12 -->
<g id="edge11" class="edge">
<title>Node10&#45;&gt;Node12</title>
<path fill="none" stroke="midnightblue" d="M849,-124.11C849,-115.15 849,-105.32 849,-97.58"/>
<polygon fill="midnightblue" stroke="midnightblue" points="845.5,-124.4 849,-134.4 852.5,-124.4 845.5,-124.4"/>
</g>
<!-- Node14 -->
<g id="node14" class="node">
<title>Node14</title>
<g id="a_node14"><a xlink:href="source_2pdes_2serial_2linear__elasticity_8cc.html" target="_top" xlink:title=" ">
<polygon fill="none" stroke="black" points="930,-67.5 930,-97.5 1040,-97.5 1040,-67.5 930,-67.5"/>
<text text-anchor="start" x="938" y="-85.5" font-family="Helvetica,sans-Serif" font-size="10.00">source/pdes/serial</text>
<text text-anchor="middle" x="985" y="-74.5" font-family="Helvetica,sans-Serif" font-size="10.00">/linear_elasticity.cc</text>
</a>
</g>
</g>
<!-- Node13&#45;&gt;Node14 -->
<g id="edge13" class="edge">
<title>Node13&#45;&gt;Node14</title>
<path fill="none" stroke="midnightblue" d="M1073.16,-129.71C1053.61,-119.46 1029.8,-106.98 1011.85,-97.58"/>
<polygon fill="midnightblue" stroke="midnightblue" points="1071.61,-132.85 1082.09,-134.4 1074.86,-126.65 1071.61,-132.85"/>
</g>
<!-- Node15 -->
<g id="node15" class="node">
<title>Node15</title>
<g id="a_node15"><a xlink:href="apps_2serial_2linear__elasticity_8cc.html" target="_top" xlink:title=" ">
<polygon fill="none" stroke="black" points="1058.5,-67.5 1058.5,-97.5 1159.5,-97.5 1159.5,-67.5 1058.5,-67.5"/>
<text text-anchor="start" x="1066.5" y="-85.5" font-family="Helvetica,sans-Serif" font-size="10.00">apps/serial/linear</text>
<text text-anchor="middle" x="1109" y="-74.5" font-family="Helvetica,sans-Serif" font-size="10.00">_elasticity.cc</text>
</a>
</g>
</g>
<!-- Node13&#45;&gt;Node15 -->
<g id="edge14" class="edge">
<title>Node13&#45;&gt;Node15</title>
<path fill="none" stroke="midnightblue" d="M1109,-124.11C1109,-115.15 1109,-105.32 1109,-97.58"/>
<polygon fill="midnightblue" stroke="midnightblue" points="1105.5,-124.4 1109,-134.4 1112.5,-124.4 1105.5,-124.4"/>
</g>
<!-- Node17 -->
<g id="node17" class="node">
<title>Node17</title>
<g id="a_node17"><a xlink:href="source_2pdes_2serial_2poisson_8cc.html" target="_top" xlink:title=" ">
<polygon fill="none" stroke="black" points="1177.5,-67.5 1177.5,-97.5 1282.5,-97.5 1282.5,-67.5 1177.5,-67.5"/>
<text text-anchor="start" x="1185.5" y="-85.5" font-family="Helvetica,sans-Serif" font-size="10.00">source/pdes/serial</text>
<text text-anchor="middle" x="1230" y="-74.5" font-family="Helvetica,sans-Serif" font-size="10.00">/poisson.cc</text>
</a>
</g>
</g>
<!-- Node16&#45;&gt;Node17 -->
<g id="edge16" class="edge">
<title>Node16&#45;&gt;Node17</title>
<path fill="none" stroke="midnightblue" d="M1325.13,-129.99C1304.05,-119.69 1278.22,-107.07 1258.8,-97.58"/>
<polygon fill="midnightblue" stroke="midnightblue" points="1323.62,-133.15 1334.14,-134.4 1326.69,-126.86 1323.62,-133.15"/>
</g>
<!-- Node18 -->
<g id="node18" class="node">
<title>Node18</title>
<g id="a_node18"><a xlink:href="apps_2serial_2poisson_8cc.html" target="_top" xlink:title=" ">
<polygon fill="none" stroke="black" points="1301,-73 1301,-92 1425,-92 1425,-73 1301,-73"/>
<text text-anchor="middle" x="1363" y="-80" font-family="Helvetica,sans-Serif" font-size="10.00">apps/serial/poisson.cc</text>
</a>
</g>
</g>
<!-- Node16&#45;&gt;Node18 -->
<g id="edge17" class="edge">
<title>Node16&#45;&gt;Node18</title>
<path fill="none" stroke="midnightblue" d="M1363,-124.25C1363,-113.02 1363,-100.38 1363,-92.19"/>
<polygon fill="midnightblue" stroke="midnightblue" points="1359.5,-124.4 1363,-134.4 1366.5,-124.4 1359.5,-124.4"/>
</g>
<!-- Node20 -->
<g id="node20" class="node">
<title>Node20</title>
<g id="a_node20"><a xlink:href="source_2pdes_2serial_2reduced__lagrange_8cc.html" target="_top" xlink:title=" ">
<polygon fill="none" stroke="black" points="1443,-67.5 1443,-97.5 1563,-97.5 1563,-67.5 1443,-67.5"/>
<text text-anchor="start" x="1451" y="-85.5" font-family="Helvetica,sans-Serif" font-size="10.00">source/pdes/serial</text>
<text text-anchor="middle" x="1503" y="-74.5" font-family="Helvetica,sans-Serif" font-size="10.00">/reduced_lagrange.cc</text>
</a>
</g>
</g>
<!-- Node19&#45;&gt;Node20 -->
<g id="edge19" class="edge">
<title>Node19&#45;&gt;Node20</title>
<path fill="none" stroke="midnightblue" d="M1499.85,-124.4C1500.55,-115.37 1501.31,-105.41 1501.92,-97.58"/>
<polygon fill="midnightblue" stroke="midnightblue" points="1496.36,-124.16 1499.08,-134.4 1503.34,-124.69 1496.36,-124.16"/>
</g>
<!-- Node21 -->
<g id="node21" class="node">
<title>Node21</title>
<g id="a_node21"><a xlink:href="apps_2serial_2reduced__lagrange_8cc.html" target="_top" xlink:title=" ">
<polygon fill="none" stroke="black" points="1581,-67.5 1581,-97.5 1693,-97.5 1693,-67.5 1581,-67.5"/>
<text text-anchor="start" x="1589" y="-85.5" font-family="Helvetica,sans-Serif" font-size="10.00">apps/serial/reduced</text>
<text text-anchor="middle" x="1637" y="-74.5" font-family="Helvetica,sans-Serif" font-size="10.00">_lagrange.cc</text>
</a>
</g>
</g>
<!-- Node19&#45;&gt;Node21 -->
<g id="edge20" class="edge">
<title>Node19&#45;&gt;Node21</title>
<path fill="none" stroke="midnightblue" d="M1537.28,-130.13C1559.37,-119.8 1586.51,-107.11 1606.9,-97.58"/>
<polygon fill="midnightblue" stroke="midnightblue" points="1535.74,-126.99 1528.16,-134.4 1538.7,-133.33 1535.74,-126.99"/>
</g>
<!-- Node23 -->
<g id="node23" class="node">
<title>Node23</title>
<g id="a_node23"><a xlink:href="source_2pdes_2serial_2stokes_8cc.html" target="_top" xlink:title=" ">
<polygon fill="none" stroke="black" points="1711.5,-67.5 1711.5,-97.5 1816.5,-97.5 1816.5,-67.5 1711.5,-67.5"/>
<text text-anchor="start" x="1719.5" y="-85.5" font-family="Helvetica,sans-Serif" font-size="10.00">source/pdes/serial</text>
<text text-anchor="middle" x="1764" y="-74.5" font-family="Helvetica,sans-Serif" font-size="10.00">/stokes.cc</text>
</a>
</g>
</g>
<!-- Node22&#45;&gt;Node23 -->
<g id="edge22" class="edge">
<title>Node22&#45;&gt;Node23</title>
<path fill="none" stroke="midnightblue" d="M1666.72,-129.99C1688.28,-119.69 1714.69,-107.07 1734.55,-97.58"/>
<polygon fill="midnightblue" stroke="midnightblue" points="1665.02,-126.93 1657.51,-134.4 1668.04,-133.24 1665.02,-126.93"/>
</g>
<!-- Node24 -->
<g id="node24" class="node">
<title>Node24</title>
<g id="a_node24"><a xlink:href="apps_2serial_2stokes_8cc.html" target="_top" xlink:title=" ">
<polygon fill="none" stroke="black" points="1835,-73 1835,-92 1953,-92 1953,-73 1835,-73"/>
<text text-anchor="middle" x="1894" y="-80" font-family="Helvetica,sans-Serif" font-size="10.00">apps/serial/stokes.cc</text>
</a>
</g>
</g>
<!-- Node22&#45;&gt;Node24 -->
<g id="edge23" class="edge">
<title>Node22&#45;&gt;Node24</title>
<path fill="none" stroke="midnightblue" d="M1692.02,-132.85C1744.44,-120.05 1816.62,-102.41 1858.99,-92.06"/>
<polygon fill="midnightblue" stroke="midnightblue" points="1691.03,-129.49 1682.15,-135.27 1692.69,-136.29 1691.03,-129.49"/>
</g>
</g>
</svg>
