<?xml version="1.0" encoding="UTF-8" standalone="no"?>
<!DOCTYPE svg PUBLIC "-//W3C//DTD SVG 1.1//EN"
 "http://www.w3.org/Graphics/SVG/1.1/DTD/svg11.dtd">
<!-- Generated by graphviz version 2.43.0 (0)
 -->
<!-- Title: include/tools/grid_info.h Pages: 1 -->
<svg width="333pt" height="173pt"
 viewBox="0.00 0.00 332.50 173.00" xmlns="http://www.w3.org/2000/svg" xmlns:xlink="http://www.w3.org/1999/xlink">
<g id="graph0" class="graph" transform="scale(1 1) rotate(0) translate(4 169)">
<title>include/tools/grid_info.h</title>
<!-- Node1 -->
<g id="node1" class="node">
<title>Node1</title>
<g id="a_node1"><a xlink:title=" ">
<polygon fill="#bfbfbf" stroke="black" points="64.5,-134.5 64.5,-164.5 165.5,-164.5 165.5,-134.5 64.5,-134.5"/>
<text text-anchor="start" x="72.5" y="-152.5" font-family="Helvetica,sans-Serif" font-size="10.00">include/tools/grid</text>
<text text-anchor="middle" x="115" y="-141.5" font-family="Helvetica,sans-Serif" font-size="10.00">_info.h</text>
</a>
</g>
</g>
<!-- Node2 -->
<g id="node2" class="node">
<title>Node2</title>
<g id="a_node2"><a xlink:href="parsed__boundary__conditions_8cc.html" target="_top" xlink:title=" ">
<polygon fill="none" stroke="black" points="0,-0.5 0,-30.5 136,-30.5 136,-0.5 0,-0.5"/>
<text text-anchor="start" x="8" y="-18.5" font-family="Helvetica,sans-Serif" font-size="10.00">source/parsed_boundary</text>
<text text-anchor="middle" x="68" y="-7.5" font-family="Helvetica,sans-Serif" font-size="10.00">_conditions.cc</text>
</a>
</g>
</g>
<!-- Node1&#45;&gt;Node2 -->
<g id="edge1" class="edge">
<title>Node1&#45;&gt;Node2</title>
<path fill="none" stroke="midnightblue" d="M71.3,-129.11C58.92,-121.33 46.94,-111.05 40,-98 28.12,-75.68 44.13,-47.31 56.38,-30.61"/>
<polygon fill="midnightblue" stroke="midnightblue" points="69.9,-132.35 80.31,-134.34 73.42,-126.3 69.9,-132.35"/>
</g>
<!-- Node3 -->
<g id="node3" class="node">
<title>Node3</title>
<g id="a_node3"><a xlink:href="parsed__boundary__conditions_8h.html" target="_top" xlink:title=" ">
<polygon fill="none" stroke="black" points="49,-67.5 49,-97.5 181,-97.5 181,-67.5 49,-67.5"/>
<text text-anchor="start" x="57" y="-85.5" font-family="Helvetica,sans-Serif" font-size="10.00">include/tools/parsed</text>
<text text-anchor="middle" x="115" y="-74.5" font-family="Helvetica,sans-Serif" font-size="10.00">_boundary_conditions.h</text>
</a>
</g>
</g>
<!-- Node1&#45;&gt;Node3 -->
<g id="edge2" class="edge">
<title>Node1&#45;&gt;Node3</title>
<path fill="none" stroke="midnightblue" d="M115,-124.11C115,-115.15 115,-105.32 115,-97.58"/>
<polygon fill="midnightblue" stroke="midnightblue" points="111.5,-124.4 115,-134.4 118.5,-124.4 111.5,-124.4"/>
</g>
<!-- Node4 -->
<g id="node4" class="node">
<title>Node4</title>
<g id="a_node4"><a xlink:href="mesh__handler_8cc.html" target="_top" xlink:title=" ">
<polygon fill="none" stroke="black" points="199.5,-73 199.5,-92 324.5,-92 324.5,-73 199.5,-73"/>
<text text-anchor="middle" x="262" y="-80" font-family="Helvetica,sans-Serif" font-size="10.00">apps/mesh_handler.cc</text>
</a>
</g>
</g>
<!-- Node1&#45;&gt;Node4 -->
<g id="edge4" class="edge">
<title>Node1&#45;&gt;Node4</title>
<path fill="none" stroke="midnightblue" d="M156.17,-130.3C184.52,-117.76 220.88,-101.68 242.76,-92.01"/>
<polygon fill="midnightblue" stroke="midnightblue" points="154.63,-127.15 146.9,-134.4 157.46,-133.55 154.63,-127.15"/>
</g>
<!-- Node3&#45;&gt;Node2 -->
<g id="edge3" class="edge">
<title>Node3&#45;&gt;Node2</title>
<path fill="none" stroke="midnightblue" d="M98.84,-59.16C91.99,-49.68 84.21,-38.92 78.18,-30.58"/>
<polygon fill="midnightblue" stroke="midnightblue" points="96.11,-61.34 104.8,-67.4 101.78,-57.24 96.11,-61.34"/>
</g>
</g>
</svg>
