<?xml version="1.0" encoding="UTF-8" standalone="no"?>
<!DOCTYPE svg PUBLIC "-//W3C//DTD SVG 1.1//EN"
 "http://www.w3.org/Graphics/SVG/1.1/DTD/svg11.dtd">
<!-- Generated by graphviz version 2.43.0 (0)
 -->
<!-- Title: include/parsed_tools/grid_generator.h Pages: 1 -->
<svg width="665pt" height="229pt"
 viewBox="0.00 0.00 664.94 229.00" xmlns="http://www.w3.org/2000/svg" xmlns:xlink="http://www.w3.org/1999/xlink">
<g id="graph0" class="graph" transform="scale(1 1) rotate(0) translate(4 225)">
<title>include/parsed_tools/grid_generator.h</title>
<!-- Node1 -->
<g id="node1" class="node">
<title>Node1</title>
<g id="a_node1"><a xlink:title=" ">
<polygon fill="#bfbfbf" stroke="black" points="198.94,-190.5 198.94,-220.5 315.94,-220.5 315.94,-190.5 198.94,-190.5"/>
<text text-anchor="start" x="206.94" y="-208.5" font-family="Helvetica,sans-Serif" font-size="10.00">include/parsed_tools</text>
<text text-anchor="middle" x="257.44" y="-197.5" font-family="Helvetica,sans-Serif" font-size="10.00">/grid_generator.h</text>
</a>
</g>
</g>
<!-- Node2 -->
<g id="node2" class="node">
<title>Node2</title>
<g id="a_node2"><a xlink:href="http://www.dealii.org/developer/doxygen/deal.II/parameter__acceptor_8h.html.html" xlink:title=" ">
<polygon fill="none" stroke="black" points="94.94,-0.5 94.94,-30.5 221.94,-30.5 221.94,-0.5 94.94,-0.5"/>
<text text-anchor="start" x="102.94" y="-18.5" font-family="Helvetica,sans-Serif" font-size="10.00">deal.II/base/parameter</text>
<text text-anchor="middle" x="158.44" y="-7.5" font-family="Helvetica,sans-Serif" font-size="10.00">_acceptor.h</text>
</a>
</g>
</g>
<!-- Node1&#45;&gt;Node2 -->
<g id="edge1" class="edge">
<title>Node1&#45;&gt;Node2</title>
<path fill="none" stroke="midnightblue" d="M198.77,-200.85C133.39,-195.41 33.76,-182.57 10.44,-154 -28.45,-106.36 55.38,-59.47 112.06,-34.65"/>
<polygon fill="midnightblue" stroke="midnightblue" points="113.78,-37.73 121.59,-30.57 111.02,-31.29 113.78,-37.73"/>
</g>
<!-- Node3 -->
<g id="node3" class="node">
<title>Node3</title>
<g id="a_node3"><a xlink:href="http://www.dealii.org/developer/doxygen/deal.II/distributed_2grid__refinement_8h.html.html" xlink:title=" ">
<polygon fill="none" stroke="black" points="19.94,-123.5 19.94,-153.5 126.94,-153.5 126.94,-123.5 19.94,-123.5"/>
<text text-anchor="start" x="27.94" y="-141.5" font-family="Helvetica,sans-Serif" font-size="10.00">deal.II/distributed</text>
<text text-anchor="middle" x="73.44" y="-130.5" font-family="Helvetica,sans-Serif" font-size="10.00">/grid_refinement.h</text>
</a>
</g>
</g>
<!-- Node1&#45;&gt;Node3 -->
<g id="edge2" class="edge">
<title>Node1&#45;&gt;Node3</title>
<path fill="none" stroke="midnightblue" d="M217.52,-190.4C189.79,-180.6 152.65,-167.48 123.02,-157.02"/>
<polygon fill="midnightblue" stroke="midnightblue" points="123.88,-153.61 113.29,-153.58 121.55,-160.21 123.88,-153.61"/>
</g>
<!-- Node4 -->
<g id="node4" class="node">
<title>Node4</title>
<g id="a_node4"><a xlink:href="http://www.dealii.org/developer/doxygen/deal.II/distributed_2tria_8h.html.html" xlink:title=" ">
<polygon fill="none" stroke="black" points="145.44,-123.5 145.44,-153.5 247.44,-153.5 247.44,-123.5 145.44,-123.5"/>
<text text-anchor="start" x="153.44" y="-141.5" font-family="Helvetica,sans-Serif" font-size="10.00">deal.II/distributed</text>
<text text-anchor="middle" x="196.44" y="-130.5" font-family="Helvetica,sans-Serif" font-size="10.00">/tria.h</text>
</a>
</g>
</g>
<!-- Node1&#45;&gt;Node4 -->
<g id="edge3" class="edge">
<title>Node1&#45;&gt;Node4</title>
<path fill="none" stroke="midnightblue" d="M244.21,-190.4C236.13,-181.79 225.65,-170.63 216.57,-160.94"/>
<polygon fill="midnightblue" stroke="midnightblue" points="219.05,-158.47 209.65,-153.58 213.94,-163.26 219.05,-158.47"/>
</g>
<!-- Node5 -->
<g id="node5" class="node">
<title>Node5</title>
<g id="a_node5"><a xlink:href="http://www.dealii.org/developer/doxygen/deal.II/mapping__q__generic_8h.html.html" xlink:title=" ">
<polygon fill="none" stroke="black" points="265.94,-123.5 265.94,-153.5 370.94,-153.5 370.94,-123.5 265.94,-123.5"/>
<text text-anchor="start" x="273.94" y="-141.5" font-family="Helvetica,sans-Serif" font-size="10.00">deal.II/fe/mapping</text>
<text text-anchor="middle" x="318.44" y="-130.5" font-family="Helvetica,sans-Serif" font-size="10.00">_q_generic.h</text>
</a>
</g>
</g>
<!-- Node1&#45;&gt;Node5 -->
<g id="edge4" class="edge">
<title>Node1&#45;&gt;Node5</title>
<path fill="none" stroke="midnightblue" d="M270.68,-190.4C278.75,-181.79 289.23,-170.63 298.32,-160.94"/>
<polygon fill="midnightblue" stroke="midnightblue" points="300.94,-163.26 305.23,-153.58 295.84,-158.47 300.94,-163.26"/>
</g>
<!-- Node6 -->
<g id="node6" class="node">
<title>Node6</title>
<g id="a_node6"><a xlink:href="http://www.dealii.org/developer/doxygen/deal.II/grid__generator_8h.html.html" xlink:title=" ">
<polygon fill="none" stroke="black" points="389.44,-129 389.44,-148 541.44,-148 541.44,-129 389.44,-129"/>
<text text-anchor="middle" x="465.44" y="-136" font-family="Helvetica,sans-Serif" font-size="10.00">deal.II/grid/grid_generator.h</text>
</a>
</g>
</g>
<!-- Node1&#45;&gt;Node6 -->
<g id="edge5" class="edge">
<title>Node1&#45;&gt;Node6</title>
<path fill="none" stroke="midnightblue" d="M302.32,-190.48C339.93,-178.72 392.98,-162.14 428.26,-151.12"/>
<polygon fill="midnightblue" stroke="midnightblue" points="429.65,-154.35 438.15,-148.03 427.56,-147.67 429.65,-154.35"/>
</g>
<!-- Node9 -->
<g id="node9" class="node">
<title>Node9</title>
<g id="a_node9"><a xlink:href="http://www.dealii.org/developer/doxygen/deal.II/grid_2tria_8h.html.html" xlink:title=" ">
<polygon fill="none" stroke="black" points="559.94,-129 559.94,-148 656.94,-148 656.94,-129 559.94,-129"/>
<text text-anchor="middle" x="608.44" y="-136" font-family="Helvetica,sans-Serif" font-size="10.00">deal.II/grid/tria.h</text>
</a>
</g>
</g>
<!-- Node1&#45;&gt;Node9 -->
<g id="edge9" class="edge">
<title>Node1&#45;&gt;Node9</title>
<path fill="none" stroke="midnightblue" d="M316.06,-195.71C375.38,-186.51 469.63,-171.04 550.44,-154 555.52,-152.93 560.82,-151.73 566.07,-150.48"/>
<polygon fill="midnightblue" stroke="midnightblue" points="567.14,-153.82 576.02,-148.06 565.48,-147.02 567.14,-153.82"/>
</g>
<!-- Node7 -->
<g id="node7" class="node">
<title>Node7</title>
<g id="a_node7"><a xlink:href="function_8h.html" target="_top" xlink:title=" ">
<polygon fill="none" stroke="black" points="318.94,-67.5 318.94,-86.5 443.94,-86.5 443.94,-67.5 318.94,-67.5"/>
<text text-anchor="middle" x="381.44" y="-74.5" font-family="Helvetica,sans-Serif" font-size="10.00">deal.II/base/function.h</text>
</a>
</g>
</g>
<!-- Node6&#45;&gt;Node7 -->
<g id="edge6" class="edge">
<title>Node6&#45;&gt;Node7</title>
<path fill="none" stroke="midnightblue" d="M453.41,-128.98C439.93,-119.43 417.88,-103.81 401.73,-92.37"/>
<polygon fill="midnightblue" stroke="midnightblue" points="403.64,-89.43 393.46,-86.51 399.59,-95.15 403.64,-89.43"/>
</g>
<!-- Node7&#45;&gt;Node2 -->
<g id="edge8" class="edge">
<title>Node7&#45;&gt;Node2</title>
<path fill="none" stroke="midnightblue" d="M349.49,-67.48C316.04,-58.55 262.67,-44.31 220.82,-33.14"/>
<polygon fill="midnightblue" stroke="midnightblue" points="221.56,-29.72 211,-30.52 219.76,-36.48 221.56,-29.72"/>
</g>
<!-- Node8 -->
<g id="node8" class="node">
<title>Node8</title>
<g id="a_node8"><a xlink:href="http://www.dealii.org/developer/doxygen/deal.II/function__parser_8h.html.html" xlink:title=" ">
<polygon fill="none" stroke="black" points="323.44,-0.5 323.44,-30.5 439.44,-30.5 439.44,-0.5 323.44,-0.5"/>
<text text-anchor="start" x="331.44" y="-18.5" font-family="Helvetica,sans-Serif" font-size="10.00">deal.II/base/function</text>
<text text-anchor="middle" x="381.44" y="-7.5" font-family="Helvetica,sans-Serif" font-size="10.00">_parser.h</text>
</a>
</g>
</g>
<!-- Node7&#45;&gt;Node8 -->
<g id="edge7" class="edge">
<title>Node7&#45;&gt;Node8</title>
<path fill="none" stroke="midnightblue" d="M381.44,-67.48C381.44,-60.47 381.44,-50.19 381.44,-40.7"/>
<polygon fill="midnightblue" stroke="midnightblue" points="384.94,-40.52 381.44,-30.52 377.94,-40.52 384.94,-40.52"/>
</g>
</g>
</svg>
