<?xml version="1.0" encoding="UTF-8" standalone="no"?>
<!DOCTYPE svg PUBLIC "-//W3C//DTD SVG 1.1//EN"
 "http://www.w3.org/Graphics/SVG/1.1/DTD/svg11.dtd">
<!-- Generated by graphviz version 2.43.0 (0)
 -->
<!-- Title: include/parsed_tools/grid_generator.h Pages: 1 -->
<svg width="2010pt" height="240pt"
 viewBox="0.00 0.00 2010.00 240.00" xmlns="http://www.w3.org/2000/svg" xmlns:xlink="http://www.w3.org/1999/xlink">
<g id="graph0" class="graph" transform="scale(1 1) rotate(0) translate(4 236)">
<title>include/parsed_tools/grid_generator.h</title>
<!-- Node1 -->
<g id="node1" class="node">
<title>Node1</title>
<g id="a_node1"><a xlink:title=" ">
<polygon fill="#bfbfbf" stroke="black" points="1405.5,-201.5 1405.5,-231.5 1522.5,-231.5 1522.5,-201.5 1405.5,-201.5"/>
<text text-anchor="start" x="1413.5" y="-219.5" font-family="Helvetica,sans-Serif" font-size="10.00">include/parsed_tools</text>
<text text-anchor="middle" x="1464" y="-208.5" font-family="Helvetica,sans-Serif" font-size="10.00">/grid_generator.h</text>
</a>
</g>
</g>
<!-- Node2 -->
<g id="node2" class="node">
<title>Node2</title>
<g id="a_node2"><a xlink:href="mesh__handler_8h.html" target="_top" xlink:title=" ">
<polygon fill="none" stroke="black" points="361.5,-140 361.5,-159 494.5,-159 494.5,-140 361.5,-140"/>
<text text-anchor="middle" x="428" y="-147" font-family="Helvetica,sans-Serif" font-size="10.00">include/mesh_handler.h</text>
</a>
</g>
</g>
<!-- Node1&#45;&gt;Node2 -->
<g id="edge1" class="edge">
<title>Node1&#45;&gt;Node2</title>
<path fill="none" stroke="midnightblue" d="M1395.17,-211.29C1255.08,-202.71 926.72,-182.53 651,-165 598.54,-161.66 539.14,-157.8 494.84,-154.9"/>
<polygon fill="midnightblue" stroke="midnightblue" points="1395.14,-214.8 1405.33,-211.91 1395.57,-207.81 1395.14,-214.8"/>
</g>
<!-- Node4 -->
<g id="node4" class="node">
<title>Node4</title>
<g id="a_node4"><a xlink:href="linear__problem_8h.html" target="_top" xlink:title=" ">
<polygon fill="none" stroke="black" points="660.5,-134.5 660.5,-164.5 769.5,-164.5 769.5,-134.5 660.5,-134.5"/>
<text text-anchor="start" x="668.5" y="-152.5" font-family="Helvetica,sans-Serif" font-size="10.00">include/pdes/linear</text>
<text text-anchor="middle" x="715" y="-141.5" font-family="Helvetica,sans-Serif" font-size="10.00">_problem.h</text>
</a>
</g>
</g>
<!-- Node1&#45;&gt;Node4 -->
<g id="edge3" class="edge">
<title>Node1&#45;&gt;Node4</title>
<path fill="none" stroke="midnightblue" d="M1394.94,-209.51C1247.3,-196.69 903.51,-166.86 769.68,-155.25"/>
<polygon fill="midnightblue" stroke="midnightblue" points="1394.96,-213.02 1405.23,-210.4 1395.57,-206.05 1394.96,-213.02"/>
</g>
<!-- Node16 -->
<g id="node16" class="node">
<title>Node16</title>
<g id="a_node16"><a xlink:href="distributed__lagrange_8h.html" target="_top" xlink:title=" ">
<polygon fill="none" stroke="black" points="1068.5,-134.5 1068.5,-164.5 1197.5,-164.5 1197.5,-134.5 1068.5,-134.5"/>
<text text-anchor="start" x="1076.5" y="-152.5" font-family="Helvetica,sans-Serif" font-size="10.00">include/pdes/serial</text>
<text text-anchor="middle" x="1133" y="-141.5" font-family="Helvetica,sans-Serif" font-size="10.00">/distributed_lagrange.h</text>
</a>
</g>
</g>
<!-- Node1&#45;&gt;Node16 -->
<g id="edge15" class="edge">
<title>Node1&#45;&gt;Node16</title>
<path fill="none" stroke="midnightblue" d="M1395.38,-202.03C1337.32,-190.62 1254.7,-174.4 1197.76,-163.22"/>
<polygon fill="midnightblue" stroke="midnightblue" points="1394.72,-205.46 1405.21,-203.95 1396.07,-198.59 1394.72,-205.46"/>
</g>
<!-- Node19 -->
<g id="node19" class="node">
<title>Node19</title>
<g id="a_node19"><a xlink:href="serial_2poisson_8h.html" target="_top" xlink:title=" ">
<polygon fill="none" stroke="black" points="1345,-134.5 1345,-164.5 1453,-164.5 1453,-134.5 1345,-134.5"/>
<text text-anchor="start" x="1353" y="-152.5" font-family="Helvetica,sans-Serif" font-size="10.00">include/pdes/serial</text>
<text text-anchor="middle" x="1399" y="-141.5" font-family="Helvetica,sans-Serif" font-size="10.00">/poisson.h</text>
</a>
</g>
</g>
<!-- Node1&#45;&gt;Node19 -->
<g id="edge18" class="edge">
<title>Node1&#45;&gt;Node19</title>
<path fill="none" stroke="midnightblue" d="M1442.81,-194.31C1433.06,-184.56 1421.76,-173.26 1413.08,-164.58"/>
<polygon fill="midnightblue" stroke="midnightblue" points="1440.35,-196.8 1449.9,-201.4 1445.3,-191.85 1440.35,-196.8"/>
</g>
<!-- Node22 -->
<g id="node22" class="node">
<title>Node22</title>
<g id="a_node22"><a xlink:href="reduced__lagrange_8h.html" target="_top" xlink:title=" ">
<polygon fill="none" stroke="black" points="1476,-134.5 1476,-164.5 1592,-164.5 1592,-134.5 1476,-134.5"/>
<text text-anchor="start" x="1484" y="-152.5" font-family="Helvetica,sans-Serif" font-size="10.00">include/pdes/serial</text>
<text text-anchor="middle" x="1534" y="-141.5" font-family="Helvetica,sans-Serif" font-size="10.00">/reduced_lagrange.h</text>
</a>
</g>
</g>
<!-- Node1&#45;&gt;Node22 -->
<g id="edge21" class="edge">
<title>Node1&#45;&gt;Node22</title>
<path fill="none" stroke="midnightblue" d="M1486.82,-194.31C1497.32,-184.56 1509.49,-173.26 1518.84,-164.58"/>
<polygon fill="midnightblue" stroke="midnightblue" points="1484.14,-192.03 1479.19,-201.4 1488.9,-197.16 1484.14,-192.03"/>
</g>
<!-- Node25 -->
<g id="node25" class="node">
<title>Node25</title>
<g id="a_node25"><a xlink:href="serial_2stokes_8h.html" target="_top" xlink:title=" ">
<polygon fill="none" stroke="black" points="1610,-134.5 1610,-164.5 1718,-164.5 1718,-134.5 1610,-134.5"/>
<text text-anchor="start" x="1618" y="-152.5" font-family="Helvetica,sans-Serif" font-size="10.00">include/pdes/serial</text>
<text text-anchor="middle" x="1664" y="-141.5" font-family="Helvetica,sans-Serif" font-size="10.00">/stokes.h</text>
</a>
</g>
</g>
<!-- Node1&#45;&gt;Node25 -->
<g id="edge24" class="edge">
<title>Node1&#45;&gt;Node25</title>
<path fill="none" stroke="midnightblue" d="M1517.15,-198.23C1549.5,-187.71 1590.31,-174.45 1620.69,-164.58"/>
<polygon fill="midnightblue" stroke="midnightblue" points="1515.83,-194.98 1507.4,-201.4 1517.99,-201.63 1515.83,-194.98"/>
</g>
<!-- Node28 -->
<g id="node28" class="node">
<title>Node28</title>
<g id="a_node28"><a xlink:href="grid__generator_8cc.html" target="_top" xlink:title=" ">
<polygon fill="none" stroke="black" points="1736.5,-140 1736.5,-159 1873.5,-159 1873.5,-140 1736.5,-140"/>
<text text-anchor="middle" x="1805" y="-147" font-family="Helvetica,sans-Serif" font-size="10.00">source/grid_generator.cc</text>
</a>
</g>
</g>
<!-- Node1&#45;&gt;Node28 -->
<g id="edge27" class="edge">
<title>Node1&#45;&gt;Node28</title>
<path fill="none" stroke="midnightblue" d="M1532.78,-202.39C1600.58,-189.47 1702.19,-170.1 1760.18,-159.04"/>
<polygon fill="midnightblue" stroke="midnightblue" points="1531.79,-199.02 1522.62,-204.33 1533.1,-205.89 1531.79,-199.02"/>
</g>
<!-- Node29 -->
<g id="node29" class="node">
<title>Node29</title>
<g id="a_node29"><a xlink:href="dof__plotter_8cc.html" target="_top" xlink:title="Degrees of freedom plotter.">
<polygon fill="none" stroke="black" points="1892,-140 1892,-159 2002,-159 2002,-140 1892,-140"/>
<text text-anchor="middle" x="1947" y="-147" font-family="Helvetica,sans-Serif" font-size="10.00">apps/dof_plotter.cc</text>
</a>
</g>
</g>
<!-- Node1&#45;&gt;Node29 -->
<g id="edge28" class="edge">
<title>Node1&#45;&gt;Node29</title>
<path fill="none" stroke="midnightblue" d="M1532.66,-209.41C1615.92,-201.53 1760.33,-186.23 1883,-165 1892.54,-163.35 1902.8,-161.2 1912.25,-159.06"/>
<polygon fill="midnightblue" stroke="midnightblue" points="1532.2,-205.94 1522.57,-210.36 1532.85,-212.91 1532.2,-205.94"/>
</g>
<!-- Node3 -->
<g id="node3" class="node">
<title>Node3</title>
<g id="a_node3"><a xlink:href="mesh__handler_8cc.html" target="_top" xlink:title="Mesh generator and reader.">
<polygon fill="none" stroke="black" points="150.5,-73 150.5,-92 275.5,-92 275.5,-73 150.5,-73"/>
<text text-anchor="middle" x="213" y="-80" font-family="Helvetica,sans-Serif" font-size="10.00">apps/mesh_handler.cc</text>
</a>
</g>
</g>
<!-- Node2&#45;&gt;Node3 -->
<g id="edge2" class="edge">
<title>Node2&#45;&gt;Node3</title>
<path fill="none" stroke="midnightblue" d="M389.73,-136.93C347.16,-124.06 279.39,-103.57 241.33,-92.06"/>
<polygon fill="midnightblue" stroke="midnightblue" points="388.86,-140.32 399.45,-139.87 390.89,-133.62 388.86,-140.32"/>
</g>
<!-- Node5 -->
<g id="node5" class="node">
<title>Node5</title>
<g id="a_node5"><a xlink:href="linear__elasticity_8h.html" target="_top" xlink:title=" ">
<polygon fill="none" stroke="black" points="293.5,-67.5 293.5,-97.5 402.5,-97.5 402.5,-67.5 293.5,-67.5"/>
<text text-anchor="start" x="301.5" y="-85.5" font-family="Helvetica,sans-Serif" font-size="10.00">include/pdes/linear</text>
<text text-anchor="middle" x="348" y="-74.5" font-family="Helvetica,sans-Serif" font-size="10.00">_elasticity.h</text>
</a>
</g>
</g>
<!-- Node4&#45;&gt;Node5 -->
<g id="edge4" class="edge">
<title>Node4&#45;&gt;Node5</title>
<path fill="none" stroke="midnightblue" d="M650.38,-137.05C580.01,-124.59 468.68,-104.87 402.55,-93.16"/>
<polygon fill="midnightblue" stroke="midnightblue" points="650,-140.54 660.45,-138.84 651.22,-133.65 650,-140.54"/>
</g>
<!-- Node9 -->
<g id="node9" class="node">
<title>Node9</title>
<g id="a_node9"><a xlink:href="mpi_2poisson_8h.html" target="_top" xlink:title=" ">
<polygon fill="none" stroke="black" points="486.5,-73 486.5,-92 635.5,-92 635.5,-73 486.5,-73"/>
<text text-anchor="middle" x="561" y="-80" font-family="Helvetica,sans-Serif" font-size="10.00">include/pdes/mpi/poisson.h</text>
</a>
</g>
</g>
<!-- Node4&#45;&gt;Node9 -->
<g id="edge8" class="edge">
<title>Node4&#45;&gt;Node9</title>
<path fill="none" stroke="midnightblue" d="M672.26,-130.46C642.5,-117.9 604.18,-101.72 581.16,-92.01"/>
<polygon fill="midnightblue" stroke="midnightblue" points="671.01,-133.73 681.58,-134.4 673.73,-127.28 671.01,-133.73"/>
</g>
<!-- Node12 -->
<g id="node12" class="node">
<title>Node12</title>
<g id="a_node12"><a xlink:href="stokes_8h.html" target="_top" xlink:title=" ">
<polygon fill="none" stroke="black" points="654,-73 654,-92 776,-92 776,-73 654,-73"/>
<text text-anchor="middle" x="715" y="-80" font-family="Helvetica,sans-Serif" font-size="10.00">include/pdes/stokes.h</text>
</a>
</g>
</g>
<!-- Node4&#45;&gt;Node12 -->
<g id="edge11" class="edge">
<title>Node4&#45;&gt;Node12</title>
<path fill="none" stroke="midnightblue" d="M715,-124.25C715,-113.02 715,-100.38 715,-92.19"/>
<polygon fill="midnightblue" stroke="midnightblue" points="711.5,-124.4 715,-134.4 718.5,-124.4 711.5,-124.4"/>
</g>
<!-- Node15 -->
<g id="node15" class="node">
<title>Node15</title>
<g id="a_node15"><a xlink:href="linear__problem_8cc.html" target="_top" xlink:title=" ">
<polygon fill="none" stroke="black" points="794,-67.5 794,-97.5 900,-97.5 900,-67.5 794,-67.5"/>
<text text-anchor="start" x="802" y="-85.5" font-family="Helvetica,sans-Serif" font-size="10.00">source/pdes/linear</text>
<text text-anchor="middle" x="847" y="-74.5" font-family="Helvetica,sans-Serif" font-size="10.00">_problem.cc</text>
</a>
</g>
</g>
<!-- Node4&#45;&gt;Node15 -->
<g id="edge14" class="edge">
<title>Node4&#45;&gt;Node15</title>
<path fill="none" stroke="midnightblue" d="M752.87,-129.85C773.74,-119.58 799.23,-107.03 818.41,-97.58"/>
<polygon fill="midnightblue" stroke="midnightblue" points="751.07,-126.84 743.64,-134.4 754.16,-133.12 751.07,-126.84"/>
</g>
<!-- Node6 -->
<g id="node6" class="node">
<title>Node6</title>
<g id="a_node6"><a xlink:href="source_2pdes_2linear__elasticity_8cc.html" target="_top" xlink:title=" ">
<polygon fill="none" stroke="black" points="0,-0.5 0,-30.5 106,-30.5 106,-0.5 0,-0.5"/>
<text text-anchor="start" x="8" y="-18.5" font-family="Helvetica,sans-Serif" font-size="10.00">source/pdes/linear</text>
<text text-anchor="middle" x="53" y="-7.5" font-family="Helvetica,sans-Serif" font-size="10.00">_elasticity.cc</text>
</a>
</g>
</g>
<!-- Node5&#45;&gt;Node6 -->
<g id="edge5" class="edge">
<title>Node5&#45;&gt;Node6</title>
<path fill="none" stroke="midnightblue" d="M283.16,-66.83C207.34,-50.26 186.87,-47.06 115,-31 112.09,-30.35 109.1,-29.67 106.08,-28.99"/>
<polygon fill="midnightblue" stroke="midnightblue" points="282.68,-70.31 293.2,-69.03 284.18,-63.47 282.68,-70.31"/>
</g>
<!-- Node7 -->
<g id="node7" class="node">
<title>Node7</title>
<g id="a_node7"><a xlink:href="apps_2mpi_2linear__elasticity_8cc.html" target="_top" xlink:title=" ">
<polygon fill="none" stroke="black" points="124.5,-6 124.5,-25 279.5,-25 279.5,-6 124.5,-6"/>
<text text-anchor="middle" x="202" y="-13" font-family="Helvetica,sans-Serif" font-size="10.00">apps/mpi/linear_elasticity.cc</text>
</a>
</g>
</g>
<!-- Node5&#45;&gt;Node7 -->
<g id="edge6" class="edge">
<title>Node5&#45;&gt;Node7</title>
<path fill="none" stroke="midnightblue" d="M307.11,-63.3C278.95,-50.76 242.84,-34.68 221.11,-25.01"/>
<polygon fill="midnightblue" stroke="midnightblue" points="305.76,-66.53 316.32,-67.4 308.61,-60.13 305.76,-66.53"/>
</g>
<!-- Node8 -->
<g id="node8" class="node">
<title>Node8</title>
<g id="a_node8"><a xlink:href="apps_2serial_2linear__elasticity_8cc.html" target="_top" xlink:title=" ">
<polygon fill="none" stroke="black" points="297.5,-0.5 297.5,-30.5 398.5,-30.5 398.5,-0.5 297.5,-0.5"/>
<text text-anchor="start" x="305.5" y="-18.5" font-family="Helvetica,sans-Serif" font-size="10.00">apps/serial/linear</text>
<text text-anchor="middle" x="348" y="-7.5" font-family="Helvetica,sans-Serif" font-size="10.00">_elasticity.cc</text>
</a>
</g>
</g>
<!-- Node5&#45;&gt;Node8 -->
<g id="edge7" class="edge">
<title>Node5&#45;&gt;Node8</title>
<path fill="none" stroke="midnightblue" d="M348,-57.11C348,-48.15 348,-38.32 348,-30.58"/>
<polygon fill="midnightblue" stroke="midnightblue" points="344.5,-57.4 348,-67.4 351.5,-57.4 344.5,-57.4"/>
</g>
<!-- Node10 -->
<g id="node10" class="node">
<title>Node10</title>
<g id="a_node10"><a xlink:href="source_2pdes_2mpi_2poisson_8cc.html" target="_top" xlink:title=" ">
<polygon fill="none" stroke="black" points="416.5,-6 416.5,-25 567.5,-25 567.5,-6 416.5,-6"/>
<text text-anchor="middle" x="492" y="-13" font-family="Helvetica,sans-Serif" font-size="10.00">source/pdes/mpi/poisson.cc</text>
</a>
</g>
</g>
<!-- Node9&#45;&gt;Node10 -->
<g id="edge9" class="edge">
<title>Node9&#45;&gt;Node10</title>
<path fill="none" stroke="midnightblue" d="M544.39,-65.86C530.83,-53.08 512.16,-35.49 501.16,-25.13"/>
<polygon fill="midnightblue" stroke="midnightblue" points="542.02,-68.42 551.69,-72.73 546.82,-63.33 542.02,-68.42"/>
</g>
<!-- Node11 -->
<g id="node11" class="node">
<title>Node11</title>
<g id="a_node11"><a xlink:href="apps_2mpi_2poisson_8cc.html" target="_top" xlink:title=" ">
<polygon fill="none" stroke="black" points="586,-6 586,-25 702,-25 702,-6 586,-6"/>
<text text-anchor="middle" x="644" y="-13" font-family="Helvetica,sans-Serif" font-size="10.00">apps/mpi/poisson.cc</text>
</a>
</g>
</g>
<!-- Node9&#45;&gt;Node11 -->
<g id="edge10" class="edge">
<title>Node9&#45;&gt;Node11</title>
<path fill="none" stroke="midnightblue" d="M580.07,-66.57C596.45,-53.74 619.5,-35.69 632.98,-25.13"/>
<polygon fill="midnightblue" stroke="midnightblue" points="577.91,-63.81 572.19,-72.73 582.22,-69.32 577.91,-63.81"/>
</g>
<!-- Node13 -->
<g id="node13" class="node">
<title>Node13</title>
<g id="a_node13"><a xlink:href="source_2pdes_2stokes_8cc.html" target="_top" xlink:title=" ">
<polygon fill="none" stroke="black" points="720.5,-6 720.5,-25 843.5,-25 843.5,-6 720.5,-6"/>
<text text-anchor="middle" x="782" y="-13" font-family="Helvetica,sans-Serif" font-size="10.00">source/pdes/stokes.cc</text>
</a>
</g>
</g>
<!-- Node12&#45;&gt;Node13 -->
<g id="edge12" class="edge">
<title>Node12&#45;&gt;Node13</title>
<path fill="none" stroke="midnightblue" d="M731.5,-65.5C744.64,-52.75 762.52,-35.39 773.11,-25.13"/>
<polygon fill="midnightblue" stroke="midnightblue" points="728.78,-63.26 724.04,-72.73 733.65,-68.28 728.78,-63.26"/>
</g>
<!-- Node14 -->
<g id="node14" class="node">
<title>Node14</title>
<g id="a_node14"><a xlink:href="apps_2mpi_2stokes_8cc.html" target="_top" xlink:title=" ">
<polygon fill="none" stroke="black" points="862,-6 862,-25 972,-25 972,-6 862,-6"/>
<text text-anchor="middle" x="917" y="-13" font-family="Helvetica,sans-Serif" font-size="10.00">apps/mpi/stokes.cc</text>
</a>
</g>
</g>
<!-- Node12&#45;&gt;Node14 -->
<g id="edge13" class="edge">
<title>Node12&#45;&gt;Node14</title>
<path fill="none" stroke="midnightblue" d="M751.47,-69.77C791.49,-56.89 854.78,-36.52 890.39,-25.06"/>
<polygon fill="midnightblue" stroke="midnightblue" points="750.27,-66.47 741.82,-72.87 752.42,-73.14 750.27,-66.47"/>
</g>
<!-- Node17 -->
<g id="node17" class="node">
<title>Node17</title>
<g id="a_node17"><a xlink:href="source_2pdes_2serial_2distributed__lagrange_8cc.html" target="_top" xlink:title=" ">
<polygon fill="none" stroke="black" points="918,-67.5 918,-97.5 1052,-97.5 1052,-67.5 918,-67.5"/>
<text text-anchor="start" x="926" y="-85.5" font-family="Helvetica,sans-Serif" font-size="10.00">source/pdes/serial</text>
<text text-anchor="middle" x="985" y="-74.5" font-family="Helvetica,sans-Serif" font-size="10.00">/distributed_lagrange.cc</text>
</a>
</g>
</g>
<!-- Node16&#45;&gt;Node17 -->
<g id="edge16" class="edge">
<title>Node16&#45;&gt;Node17</title>
<path fill="none" stroke="midnightblue" d="M1091.49,-130.27C1067.92,-119.92 1038.86,-107.15 1017.05,-97.58"/>
<polygon fill="midnightblue" stroke="midnightblue" points="1090.32,-133.58 1100.89,-134.4 1093.14,-127.17 1090.32,-133.58"/>
</g>
<!-- Node18 -->
<g id="node18" class="node">
<title>Node18</title>
<g id="a_node18"><a xlink:href="apps_2serial_2distributed__lagrange_8cc.html" target="_top" xlink:title=" ">
<polygon fill="none" stroke="black" points="1070.5,-67.5 1070.5,-97.5 1195.5,-97.5 1195.5,-67.5 1070.5,-67.5"/>
<text text-anchor="start" x="1078.5" y="-85.5" font-family="Helvetica,sans-Serif" font-size="10.00">apps/serial/distributed</text>
<text text-anchor="middle" x="1133" y="-74.5" font-family="Helvetica,sans-Serif" font-size="10.00">_lagrange.cc</text>
</a>
</g>
</g>
<!-- Node16&#45;&gt;Node18 -->
<g id="edge17" class="edge">
<title>Node16&#45;&gt;Node18</title>
<path fill="none" stroke="midnightblue" d="M1133,-124.11C1133,-115.15 1133,-105.32 1133,-97.58"/>
<polygon fill="midnightblue" stroke="midnightblue" points="1129.5,-124.4 1133,-134.4 1136.5,-124.4 1129.5,-124.4"/>
</g>
<!-- Node20 -->
<g id="node20" class="node">
<title>Node20</title>
<g id="a_node20"><a xlink:href="source_2pdes_2serial_2poisson_8cc.html" target="_top" xlink:title=" ">
<polygon fill="none" stroke="black" points="1213.5,-67.5 1213.5,-97.5 1318.5,-97.5 1318.5,-67.5 1213.5,-67.5"/>
<text text-anchor="start" x="1221.5" y="-85.5" font-family="Helvetica,sans-Serif" font-size="10.00">source/pdes/serial</text>
<text text-anchor="middle" x="1266" y="-74.5" font-family="Helvetica,sans-Serif" font-size="10.00">/poisson.cc</text>
</a>
</g>
</g>
<!-- Node19&#45;&gt;Node20 -->
<g id="edge19" class="edge">
<title>Node19&#45;&gt;Node20</title>
<path fill="none" stroke="midnightblue" d="M1361.13,-129.99C1340.05,-119.69 1314.22,-107.07 1294.8,-97.58"/>
<polygon fill="midnightblue" stroke="midnightblue" points="1359.62,-133.15 1370.14,-134.4 1362.69,-126.86 1359.62,-133.15"/>
</g>
<!-- Node21 -->
<g id="node21" class="node">
<title>Node21</title>
<g id="a_node21"><a xlink:href="apps_2serial_2poisson_8cc.html" target="_top" xlink:title=" ">
<polygon fill="none" stroke="black" points="1337,-73 1337,-92 1461,-92 1461,-73 1337,-73"/>
<text text-anchor="middle" x="1399" y="-80" font-family="Helvetica,sans-Serif" font-size="10.00">apps/serial/poisson.cc</text>
</a>
</g>
</g>
<!-- Node19&#45;&gt;Node21 -->
<g id="edge20" class="edge">
<title>Node19&#45;&gt;Node21</title>
<path fill="none" stroke="midnightblue" d="M1399,-124.25C1399,-113.02 1399,-100.38 1399,-92.19"/>
<polygon fill="midnightblue" stroke="midnightblue" points="1395.5,-124.4 1399,-134.4 1402.5,-124.4 1395.5,-124.4"/>
</g>
<!-- Node23 -->
<g id="node23" class="node">
<title>Node23</title>
<g id="a_node23"><a xlink:href="source_2pdes_2serial_2reduced__lagrange_8cc.html" target="_top" xlink:title=" ">
<polygon fill="none" stroke="black" points="1479,-67.5 1479,-97.5 1599,-97.5 1599,-67.5 1479,-67.5"/>
<text text-anchor="start" x="1487" y="-85.5" font-family="Helvetica,sans-Serif" font-size="10.00">source/pdes/serial</text>
<text text-anchor="middle" x="1539" y="-74.5" font-family="Helvetica,sans-Serif" font-size="10.00">/reduced_lagrange.cc</text>
</a>
</g>
</g>
<!-- Node22&#45;&gt;Node23 -->
<g id="edge22" class="edge">
<title>Node22&#45;&gt;Node23</title>
<path fill="none" stroke="midnightblue" d="M1535.85,-124.4C1536.55,-115.37 1537.31,-105.41 1537.92,-97.58"/>
<polygon fill="midnightblue" stroke="midnightblue" points="1532.36,-124.16 1535.08,-134.4 1539.34,-124.69 1532.36,-124.16"/>
</g>
<!-- Node24 -->
<g id="node24" class="node">
<title>Node24</title>
<g id="a_node24"><a xlink:href="apps_2serial_2reduced__lagrange_8cc.html" target="_top" xlink:title=" ">
<polygon fill="none" stroke="black" points="1617,-67.5 1617,-97.5 1729,-97.5 1729,-67.5 1617,-67.5"/>
<text text-anchor="start" x="1625" y="-85.5" font-family="Helvetica,sans-Serif" font-size="10.00">apps/serial/reduced</text>
<text text-anchor="middle" x="1673" y="-74.5" font-family="Helvetica,sans-Serif" font-size="10.00">_lagrange.cc</text>
</a>
</g>
</g>
<!-- Node22&#45;&gt;Node24 -->
<g id="edge23" class="edge">
<title>Node22&#45;&gt;Node24</title>
<path fill="none" stroke="midnightblue" d="M1573.28,-130.13C1595.37,-119.8 1622.51,-107.11 1642.9,-97.58"/>
<polygon fill="midnightblue" stroke="midnightblue" points="1571.74,-126.99 1564.16,-134.4 1574.7,-133.33 1571.74,-126.99"/>
</g>
<!-- Node26 -->
<g id="node26" class="node">
<title>Node26</title>
<g id="a_node26"><a xlink:href="source_2pdes_2serial_2stokes_8cc.html" target="_top" xlink:title=" ">
<polygon fill="none" stroke="black" points="1747.5,-67.5 1747.5,-97.5 1852.5,-97.5 1852.5,-67.5 1747.5,-67.5"/>
<text text-anchor="start" x="1755.5" y="-85.5" font-family="Helvetica,sans-Serif" font-size="10.00">source/pdes/serial</text>
<text text-anchor="middle" x="1800" y="-74.5" font-family="Helvetica,sans-Serif" font-size="10.00">/stokes.cc</text>
</a>
</g>
</g>
<!-- Node25&#45;&gt;Node26 -->
<g id="edge25" class="edge">
<title>Node25&#45;&gt;Node26</title>
<path fill="none" stroke="midnightblue" d="M1702.72,-129.99C1724.28,-119.69 1750.69,-107.07 1770.55,-97.58"/>
<polygon fill="midnightblue" stroke="midnightblue" points="1701.02,-126.93 1693.51,-134.4 1704.04,-133.24 1701.02,-126.93"/>
</g>
<!-- Node27 -->
<g id="node27" class="node">
<title>Node27</title>
<g id="a_node27"><a xlink:href="apps_2serial_2stokes_8cc.html" target="_top" xlink:title=" ">
<polygon fill="none" stroke="black" points="1871,-73 1871,-92 1989,-92 1989,-73 1871,-73"/>
<text text-anchor="middle" x="1930" y="-80" font-family="Helvetica,sans-Serif" font-size="10.00">apps/serial/stokes.cc</text>
</a>
</g>
</g>
<!-- Node25&#45;&gt;Node27 -->
<g id="edge26" class="edge">
<title>Node25&#45;&gt;Node27</title>
<path fill="none" stroke="midnightblue" d="M1728.02,-132.85C1780.44,-120.05 1852.62,-102.41 1894.99,-92.06"/>
<polygon fill="midnightblue" stroke="midnightblue" points="1727.03,-129.49 1718.15,-135.27 1728.69,-136.29 1727.03,-129.49"/>
</g>
</g>
</svg>
