<?xml version="1.0" encoding="UTF-8" standalone="no"?>
<!DOCTYPE svg PUBLIC "-//W3C//DTD SVG 1.1//EN"
 "http://www.w3.org/Graphics/SVG/1.1/DTD/svg11.dtd">
<!-- Generated by graphviz version 2.43.0 (0)
 -->
<!-- Title: include/parsed_tools/grid_refinement.h Pages: 1 -->
<svg width="1413pt" height="240pt"
 viewBox="0.00 0.00 1412.82 240.00" xmlns="http://www.w3.org/2000/svg" xmlns:xlink="http://www.w3.org/1999/xlink">
<g id="graph0" class="graph" transform="scale(1 1) rotate(0) translate(4 236)">
<title>include/parsed_tools/grid_refinement.h</title>
<!-- Node1 -->
<g id="node1" class="node">
<title>Node1</title>
<g id="a_node1"><a xlink:title=" ">
<polygon fill="#bfbfbf" stroke="black" points="562.32,-201.5 562.32,-231.5 679.32,-231.5 679.32,-201.5 562.32,-201.5"/>
<text text-anchor="start" x="570.32" y="-219.5" font-family="Helvetica,sans-Serif" font-size="10.00">include/parsed_tools</text>
<text text-anchor="middle" x="620.82" y="-208.5" font-family="Helvetica,sans-Serif" font-size="10.00">/grid_refinement.h</text>
</a>
</g>
</g>
<!-- Node2 -->
<g id="node2" class="node">
<title>Node2</title>
<g id="a_node2"><a target="_parent" xlink:href="http://www.dealii.org/developer/doxygen/deal.II/parameter__acceptor_8h.html.html" xlink:title=" ">
<polygon fill="none" stroke="black" points="54.32,-0.5 54.32,-30.5 181.32,-30.5 181.32,-0.5 54.32,-0.5"/>
<text text-anchor="start" x="62.32" y="-18.5" font-family="Helvetica,sans-Serif" font-size="10.00">deal.II/base/parameter</text>
<text text-anchor="middle" x="117.82" y="-7.5" font-family="Helvetica,sans-Serif" font-size="10.00">_acceptor.h</text>
</a>
</g>
</g>
<!-- Node1&#45;&gt;Node2 -->
<g id="edge1" class="edge">
<title>Node1&#45;&gt;Node2</title>
<path fill="none" stroke="midnightblue" d="M562.06,-215.05C416.57,-213.31 48.62,-204.98 11.82,-165 -27.09,-122.72 42.37,-65.79 86.16,-36.21"/>
<polygon fill="midnightblue" stroke="midnightblue" points="88.12,-39.1 94.53,-30.67 84.26,-33.27 88.12,-39.1"/>
</g>
<!-- Node3 -->
<g id="node3" class="node">
<title>Node3</title>
<g id="a_node3"><a target="_parent" xlink:href="http://www.dealii.org/developer/doxygen/deal.II/quadrature__lib_8h.html.html" xlink:title=" ">
<polygon fill="none" stroke="black" points="21.32,-134.5 21.32,-164.5 150.32,-164.5 150.32,-134.5 21.32,-134.5"/>
<text text-anchor="start" x="29.32" y="-152.5" font-family="Helvetica,sans-Serif" font-size="10.00">deal.II/base/quadrature</text>
<text text-anchor="middle" x="85.82" y="-141.5" font-family="Helvetica,sans-Serif" font-size="10.00">_lib.h</text>
</a>
</g>
</g>
<!-- Node1&#45;&gt;Node3 -->
<g id="edge2" class="edge">
<title>Node1&#45;&gt;Node3</title>
<path fill="none" stroke="midnightblue" d="M562.26,-210.75C476.33,-203.41 310.82,-187.9 160.95,-165.25"/>
<polygon fill="midnightblue" stroke="midnightblue" points="161.06,-161.73 150.65,-163.68 160.01,-168.65 161.06,-161.73"/>
</g>
<!-- Node4 -->
<g id="node4" class="node">
<title>Node4</title>
<g id="a_node4"><a target="_parent" xlink:href="http://www.dealii.org/developer/doxygen/deal.II/iota__view_8h.html.html" xlink:title=" ">
<polygon fill="none" stroke="black" points="168.32,-134.5 168.32,-164.5 293.32,-164.5 293.32,-134.5 168.32,-134.5"/>
<text text-anchor="start" x="176.32" y="-152.5" font-family="Helvetica,sans-Serif" font-size="10.00">deal.II/base/std_cxx20</text>
<text text-anchor="middle" x="230.82" y="-141.5" font-family="Helvetica,sans-Serif" font-size="10.00">/iota_view.h</text>
</a>
</g>
</g>
<!-- Node1&#45;&gt;Node4 -->
<g id="edge3" class="edge">
<title>Node1&#45;&gt;Node4</title>
<path fill="none" stroke="midnightblue" d="M562.09,-206.91C500.3,-197.72 399.98,-182.31 303.54,-165.09"/>
<polygon fill="midnightblue" stroke="midnightblue" points="304.08,-161.63 293.62,-163.31 302.85,-168.52 304.08,-161.63"/>
</g>
<!-- Node5 -->
<g id="node5" class="node">
<title>Node5</title>
<g id="a_node5"><a target="_parent" xlink:href="http://www.dealii.org/developer/doxygen/deal.II/dof__handler_8h.html.html" xlink:title=" ">
<polygon fill="none" stroke="black" points="311.82,-140 311.82,-159 451.82,-159 451.82,-140 311.82,-140"/>
<text text-anchor="middle" x="381.82" y="-147" font-family="Helvetica,sans-Serif" font-size="10.00">deal.II/dofs/dof_handler.h</text>
</a>
</g>
</g>
<!-- Node1&#45;&gt;Node5 -->
<g id="edge4" class="edge">
<title>Node1&#45;&gt;Node5</title>
<path fill="none" stroke="midnightblue" d="M569.26,-201.48C525.49,-189.57 463.51,-172.72 422.99,-161.7"/>
<polygon fill="midnightblue" stroke="midnightblue" points="423.75,-158.28 413.18,-159.03 421.91,-165.03 423.75,-158.28"/>
</g>
<!-- Node8 -->
<g id="node8" class="node">
<title>Node8</title>
<g id="a_node8"><a target="_parent" xlink:href="http://www.dealii.org/developer/doxygen/deal.II/grid_2grid__refinement_8h.html.html" xlink:title=" ">
<polygon fill="none" stroke="black" points="469.82,-140 469.82,-159 627.82,-159 627.82,-140 469.82,-140"/>
<text text-anchor="middle" x="548.82" y="-147" font-family="Helvetica,sans-Serif" font-size="10.00">deal.II/grid/grid_refinement.h</text>
</a>
</g>
</g>
<!-- Node1&#45;&gt;Node8 -->
<g id="edge8" class="edge">
<title>Node1&#45;&gt;Node8</title>
<path fill="none" stroke="midnightblue" d="M605.2,-201.4C593.64,-190.96 577.9,-176.75 565.99,-166"/>
<polygon fill="midnightblue" stroke="midnightblue" points="568.22,-163.3 558.45,-159.19 563.53,-168.49 568.22,-163.3"/>
</g>
<!-- Node9 -->
<g id="node9" class="node">
<title>Node9</title>
<g id="a_node9"><a target="_parent" xlink:href="http://www.dealii.org/developer/doxygen/deal.II/grid_2tria_8h.html.html" xlink:title=" ">
<polygon fill="none" stroke="black" points="645.32,-140 645.32,-159 742.32,-159 742.32,-140 645.32,-140"/>
<text text-anchor="middle" x="693.82" y="-147" font-family="Helvetica,sans-Serif" font-size="10.00">deal.II/grid/tria.h</text>
</a>
</g>
</g>
<!-- Node1&#45;&gt;Node9 -->
<g id="edge9" class="edge">
<title>Node1&#45;&gt;Node9</title>
<path fill="none" stroke="midnightblue" d="M636.66,-201.4C648.38,-190.96 664.34,-176.75 676.42,-166"/>
<polygon fill="midnightblue" stroke="midnightblue" points="678.92,-168.46 684.06,-159.19 674.26,-163.23 678.92,-168.46"/>
</g>
<!-- Node10 -->
<g id="node10" class="node">
<title>Node10</title>
<g id="a_node10"><a target="_parent" xlink:href="http://www.dealii.org/developer/doxygen/deal.II/error__estimator_8h.html.html" xlink:title=" ">
<polygon fill="none" stroke="black" points="760.32,-134.5 760.32,-164.5 881.32,-164.5 881.32,-134.5 760.32,-134.5"/>
<text text-anchor="start" x="768.32" y="-152.5" font-family="Helvetica,sans-Serif" font-size="10.00">deal.II/numerics/error</text>
<text text-anchor="middle" x="820.82" y="-141.5" font-family="Helvetica,sans-Serif" font-size="10.00">_estimator.h</text>
</a>
</g>
</g>
<!-- Node1&#45;&gt;Node10 -->
<g id="edge10" class="edge">
<title>Node1&#45;&gt;Node10</title>
<path fill="none" stroke="midnightblue" d="M664.22,-201.4C694.62,-191.52 735.43,-178.25 767.77,-167.74"/>
<polygon fill="midnightblue" stroke="midnightblue" points="769.08,-171 777.51,-164.58 766.92,-164.34 769.08,-171"/>
</g>
<!-- Node11 -->
<g id="node11" class="node">
<title>Node11</title>
<g id="a_node11"><a target="_parent" xlink:href="http://www.dealii.org/developer/doxygen/deal.II/distributed_2grid__refinement_8h.html.html" xlink:title=" ">
<polygon fill="none" stroke="black" points="899.82,-134.5 899.82,-164.5 1005.82,-164.5 1005.82,-134.5 899.82,-134.5"/>
<text text-anchor="start" x="907.82" y="-152.5" font-family="Helvetica,sans-Serif" font-size="10.00">deal.II/distributed</text>
<text text-anchor="middle" x="952.82" y="-141.5" font-family="Helvetica,sans-Serif" font-size="10.00">/grid_refinement.h</text>
</a>
</g>
</g>
<!-- Node1&#45;&gt;Node11 -->
<g id="edge12" class="edge">
<title>Node1&#45;&gt;Node11</title>
<path fill="none" stroke="midnightblue" d="M679.47,-205.2C731.81,-195.84 810.8,-181.33 889.49,-165.02"/>
<polygon fill="midnightblue" stroke="midnightblue" points="890.5,-168.38 899.58,-162.91 889.08,-161.53 890.5,-168.38"/>
</g>
<!-- Node12 -->
<g id="node12" class="node">
<title>Node12</title>
<g id="a_node12"><a target="_parent" xlink:href="http://www.dealii.org/developer/doxygen/deal.II/distributed_2tria_8h.html.html" xlink:title=" ">
<polygon fill="none" stroke="black" points="1023.82,-134.5 1023.82,-164.5 1125.82,-164.5 1125.82,-134.5 1023.82,-134.5"/>
<text text-anchor="start" x="1031.82" y="-152.5" font-family="Helvetica,sans-Serif" font-size="10.00">deal.II/distributed</text>
<text text-anchor="middle" x="1074.82" y="-141.5" font-family="Helvetica,sans-Serif" font-size="10.00">/tria.h</text>
</a>
</g>
</g>
<!-- Node1&#45;&gt;Node12 -->
<g id="edge13" class="edge">
<title>Node1&#45;&gt;Node12</title>
<path fill="none" stroke="midnightblue" d="M679.54,-210C754.77,-202.51 889.32,-187.6 1013.45,-165.13"/>
<polygon fill="midnightblue" stroke="midnightblue" points="1014.31,-168.53 1023.51,-163.29 1013.05,-161.65 1014.31,-168.53"/>
</g>
<!-- Node13 -->
<g id="node13" class="node">
<title>Node13</title>
<g id="a_node13"><a xlink:href="enum_8h.html" target="_top" xlink:title=" ">
<polygon fill="none" stroke="black" points="1144.32,-140 1144.32,-159 1263.32,-159 1263.32,-140 1144.32,-140"/>
<text text-anchor="middle" x="1203.82" y="-147" font-family="Helvetica,sans-Serif" font-size="10.00">parsed_tools/enum.h</text>
</a>
</g>
</g>
<!-- Node1&#45;&gt;Node13 -->
<g id="edge14" class="edge">
<title>Node1&#45;&gt;Node13</title>
<path fill="none" stroke="midnightblue" d="M679.67,-211.82C775.45,-205.35 970.87,-190.2 1134.82,-165 1141.98,-163.9 1149.51,-162.54 1156.86,-161.09"/>
<polygon fill="midnightblue" stroke="midnightblue" points="1157.62,-164.5 1166.72,-159.07 1156.22,-157.64 1157.62,-164.5"/>
</g>
<!-- Node6 -->
<g id="node6" class="node">
<title>Node6</title>
<g id="a_node6"><a xlink:href="function_8h.html" target="_top" xlink:title=" ">
<polygon fill="none" stroke="black" points="319.32,-73 319.32,-92 444.32,-92 444.32,-73 319.32,-73"/>
<text text-anchor="middle" x="381.82" y="-80" font-family="Helvetica,sans-Serif" font-size="10.00">deal.II/base/function.h</text>
</a>
</g>
</g>
<!-- Node5&#45;&gt;Node6 -->
<g id="edge5" class="edge">
<title>Node5&#45;&gt;Node6</title>
<path fill="none" stroke="midnightblue" d="M381.82,-139.73C381.82,-130.18 381.82,-114.62 381.82,-102.28"/>
<polygon fill="midnightblue" stroke="midnightblue" points="385.32,-102.13 381.82,-92.13 378.32,-102.13 385.32,-102.13"/>
</g>
<!-- Node6&#45;&gt;Node2 -->
<g id="edge7" class="edge">
<title>Node6&#45;&gt;Node2</title>
<path fill="none" stroke="midnightblue" d="M347.04,-72.94C305.87,-62.8 236.38,-45.69 184.69,-32.96"/>
<polygon fill="midnightblue" stroke="midnightblue" points="185.47,-29.55 174.92,-30.56 183.8,-36.35 185.47,-29.55"/>
</g>
<!-- Node7 -->
<g id="node7" class="node">
<title>Node7</title>
<g id="a_node7"><a target="_parent" xlink:href="http://www.dealii.org/developer/doxygen/deal.II/function__parser_8h.html.html" xlink:title=" ">
<polygon fill="none" stroke="black" points="323.82,-0.5 323.82,-30.5 439.82,-30.5 439.82,-0.5 323.82,-0.5"/>
<text text-anchor="start" x="331.82" y="-18.5" font-family="Helvetica,sans-Serif" font-size="10.00">deal.II/base/function</text>
<text text-anchor="middle" x="381.82" y="-7.5" font-family="Helvetica,sans-Serif" font-size="10.00">_parser.h</text>
</a>
</g>
</g>
<!-- Node6&#45;&gt;Node7 -->
<g id="edge6" class="edge">
<title>Node6&#45;&gt;Node7</title>
<path fill="none" stroke="midnightblue" d="M381.82,-72.73C381.82,-64.54 381.82,-51.92 381.82,-40.71"/>
<polygon fill="midnightblue" stroke="midnightblue" points="385.32,-40.59 381.82,-30.59 378.32,-40.59 385.32,-40.59"/>
</g>
<!-- Node10&#45;&gt;Node6 -->
<g id="edge11" class="edge">
<title>Node10&#45;&gt;Node6</title>
<path fill="none" stroke="midnightblue" d="M760.16,-135.67C757.01,-135.09 753.88,-134.53 750.82,-134 648.42,-116.41 529.18,-101 454.6,-91.97"/>
<polygon fill="midnightblue" stroke="midnightblue" points="454.72,-88.46 444.37,-90.74 453.88,-95.41 454.72,-88.46"/>
</g>
<!-- Node14 -->
<g id="node14" class="node">
<title>Node14</title>
<g id="a_node14"><a target="_parent" xlink:href="http://www.dealii.org/developer/doxygen/deal.II/patterns_8h.html.html" xlink:title=" ">
<polygon fill="none" stroke="black" points="989.32,-73 989.32,-92 1114.32,-92 1114.32,-73 989.32,-73"/>
<text text-anchor="middle" x="1051.82" y="-80" font-family="Helvetica,sans-Serif" font-size="10.00">deal.II/base/patterns.h</text>
</a>
</g>
</g>
<!-- Node13&#45;&gt;Node14 -->
<g id="edge15" class="edge">
<title>Node13&#45;&gt;Node14</title>
<path fill="none" stroke="midnightblue" d="M1183.64,-139.87C1157.52,-128.7 1111.8,-109.15 1081.66,-96.26"/>
<polygon fill="midnightblue" stroke="midnightblue" points="1082.66,-92.88 1072.09,-92.17 1079.91,-99.32 1082.66,-92.88"/>
</g>
<!-- Node15 -->
<g id="node15" class="node">
<title>Node15</title>
<g id="a_node15"><a target="_parent" xlink:href="http://www.dealii.org/developer/doxygen/deal.II/sd_8h.html.html" xlink:title=" ">
<polygon fill="none" stroke="black" points="1132.82,-73 1132.82,-92 1274.82,-92 1274.82,-73 1132.82,-73"/>
<text text-anchor="middle" x="1203.82" y="-80" font-family="Helvetica,sans-Serif" font-size="10.00">deal.II/differentiation/sd.h</text>
</a>
</g>
</g>
<!-- Node13&#45;&gt;Node15 -->
<g id="edge16" class="edge">
<title>Node13&#45;&gt;Node15</title>
<path fill="none" stroke="midnightblue" d="M1203.82,-139.73C1203.82,-130.18 1203.82,-114.62 1203.82,-102.28"/>
<polygon fill="midnightblue" stroke="midnightblue" points="1207.32,-102.13 1203.82,-92.13 1200.32,-102.13 1207.32,-102.13"/>
</g>
<!-- Node16 -->
<g id="node16" class="node">
<title>Node16</title>
<g id="a_node16"><a xlink:title=" ">
<polygon fill="none" stroke="#bfbfbf" points="1292.82,-67.5 1292.82,-97.5 1404.82,-97.5 1404.82,-67.5 1292.82,-67.5"/>
<text text-anchor="start" x="1300.82" y="-85.5" font-family="Helvetica,sans-Serif" font-size="10.00">parsed_tools/magic</text>
<text text-anchor="middle" x="1348.82" y="-74.5" font-family="Helvetica,sans-Serif" font-size="10.00">_enum.hpp</text>
</a>
</g>
</g>
<!-- Node13&#45;&gt;Node16 -->
<g id="edge17" class="edge">
<title>Node13&#45;&gt;Node16</title>
<path fill="none" stroke="midnightblue" d="M1223.08,-139.87C1244.65,-130.2 1280.23,-114.25 1308.05,-101.78"/>
<polygon fill="midnightblue" stroke="midnightblue" points="1309.84,-104.81 1317.53,-97.53 1306.97,-98.42 1309.84,-104.81"/>
</g>
</g>
</svg>
