<?xml version="1.0" encoding="UTF-8" standalone="no"?>
<!DOCTYPE svg PUBLIC "-//W3C//DTD SVG 1.1//EN"
 "http://www.w3.org/Graphics/SVG/1.1/DTD/svg11.dtd">
<!-- Generated by graphviz version 2.43.0 (0)
 -->
<!-- Title: include/parsed_tools/grid_generator.h Pages: 1 -->
<svg width="1957pt" height="240pt"
 viewBox="0.00 0.00 1957.00 240.00" xmlns="http://www.w3.org/2000/svg" xmlns:xlink="http://www.w3.org/1999/xlink">
<g id="graph0" class="graph" transform="scale(1 1) rotate(0) translate(4 236)">
<title>include/parsed_tools/grid_generator.h</title>
<!-- Node1 -->
<g id="node1" class="node">
<title>Node1</title>
<g id="a_node1"><a xlink:title=" ">
<polygon fill="#bfbfbf" stroke="black" points="1236.5,-201.5 1236.5,-231.5 1353.5,-231.5 1353.5,-201.5 1236.5,-201.5"/>
<text text-anchor="start" x="1244.5" y="-219.5" font-family="Helvetica,sans-Serif" font-size="10.00">include/parsed_tools</text>
<text text-anchor="middle" x="1295" y="-208.5" font-family="Helvetica,sans-Serif" font-size="10.00">/grid_generator.h</text>
</a>
</g>
</g>
<!-- Node2 -->
<g id="node2" class="node">
<title>Node2</title>
<g id="a_node2"><a xlink:href="mesh__handler_8h.html" target="_top" xlink:title=" ">
<polygon fill="none" stroke="black" points="98.5,-140 98.5,-159 231.5,-159 231.5,-140 98.5,-140"/>
<text text-anchor="middle" x="165" y="-147" font-family="Helvetica,sans-Serif" font-size="10.00">include/mesh_handler.h</text>
</a>
</g>
</g>
<!-- Node1&#45;&gt;Node2 -->
<g id="edge1" class="edge">
<title>Node1&#45;&gt;Node2</title>
<path fill="none" stroke="midnightblue" d="M1226.26,-211.81C1075.64,-203.67 705.19,-183.48 395,-165 339.98,-161.72 277.58,-157.77 231.67,-154.83"/>
<polygon fill="midnightblue" stroke="midnightblue" points="1226.11,-215.3 1236.29,-212.35 1226.49,-208.31 1226.11,-215.3"/>
</g>
<!-- Node4 -->
<g id="node4" class="node">
<title>Node4</title>
<g id="a_node4"><a xlink:href="linear__problem_8h.html" target="_top" xlink:title=" ">
<polygon fill="none" stroke="black" points="404.5,-134.5 404.5,-164.5 535.5,-164.5 535.5,-134.5 404.5,-134.5"/>
<text text-anchor="start" x="412.5" y="-152.5" font-family="Helvetica,sans-Serif" font-size="10.00">include/pdes/mpi/linear</text>
<text text-anchor="middle" x="470" y="-141.5" font-family="Helvetica,sans-Serif" font-size="10.00">_problem.h</text>
</a>
</g>
</g>
<!-- Node1&#45;&gt;Node4 -->
<g id="edge3" class="edge">
<title>Node1&#45;&gt;Node4</title>
<path fill="none" stroke="midnightblue" d="M1225.89,-210.06C1069.28,-197.72 689.05,-167.76 535.72,-155.68"/>
<polygon fill="midnightblue" stroke="midnightblue" points="1226.09,-213.58 1236.33,-210.88 1226.64,-206.6 1226.09,-213.58"/>
</g>
<!-- Node12 -->
<g id="node12" class="node">
<title>Node12</title>
<g id="a_node12"><a xlink:href="distributed__lagrange_8h.html" target="_top" xlink:title=" ">
<polygon fill="none" stroke="black" points="780.5,-134.5 780.5,-164.5 909.5,-164.5 909.5,-134.5 780.5,-134.5"/>
<text text-anchor="start" x="788.5" y="-152.5" font-family="Helvetica,sans-Serif" font-size="10.00">include/pdes/serial</text>
<text text-anchor="middle" x="845" y="-141.5" font-family="Helvetica,sans-Serif" font-size="10.00">/distributed_lagrange.h</text>
</a>
</g>
</g>
<!-- Node1&#45;&gt;Node12 -->
<g id="edge11" class="edge">
<title>Node1&#45;&gt;Node12</title>
<path fill="none" stroke="midnightblue" d="M1226.24,-205.57C1140.15,-193.13 993.79,-171.99 909.67,-159.84"/>
<polygon fill="midnightblue" stroke="midnightblue" points="1225.77,-209.04 1236.17,-207 1226.77,-202.11 1225.77,-209.04"/>
</g>
<!-- Node15 -->
<g id="node15" class="node">
<title>Node15</title>
<g id="a_node15"><a xlink:href="serial_2linear__elasticity_8h.html" target="_top" xlink:title=" ">
<polygon fill="none" stroke="black" points="1051,-134.5 1051,-164.5 1159,-164.5 1159,-134.5 1051,-134.5"/>
<text text-anchor="start" x="1059" y="-152.5" font-family="Helvetica,sans-Serif" font-size="10.00">include/pdes/serial</text>
<text text-anchor="middle" x="1105" y="-141.5" font-family="Helvetica,sans-Serif" font-size="10.00">/linear_elasticity.h</text>
</a>
</g>
</g>
<!-- Node1&#45;&gt;Node15 -->
<g id="edge14" class="edge">
<title>Node1&#45;&gt;Node15</title>
<path fill="none" stroke="midnightblue" d="M1244.11,-198.09C1213.44,-187.6 1174.89,-174.41 1146.15,-164.58"/>
<polygon fill="midnightblue" stroke="midnightblue" points="1243.18,-201.47 1253.77,-201.4 1245.44,-194.85 1243.18,-201.47"/>
</g>
<!-- Node18 -->
<g id="node18" class="node">
<title>Node18</title>
<g id="a_node18"><a xlink:href="serial_2poisson_8h.html" target="_top" xlink:title=" ">
<polygon fill="none" stroke="black" points="1241,-134.5 1241,-164.5 1349,-164.5 1349,-134.5 1241,-134.5"/>
<text text-anchor="start" x="1249" y="-152.5" font-family="Helvetica,sans-Serif" font-size="10.00">include/pdes/serial</text>
<text text-anchor="middle" x="1295" y="-141.5" font-family="Helvetica,sans-Serif" font-size="10.00">/poisson.h</text>
</a>
</g>
</g>
<!-- Node1&#45;&gt;Node18 -->
<g id="edge17" class="edge">
<title>Node1&#45;&gt;Node18</title>
<path fill="none" stroke="midnightblue" d="M1295,-191.11C1295,-182.15 1295,-172.32 1295,-164.58"/>
<polygon fill="midnightblue" stroke="midnightblue" points="1291.5,-191.4 1295,-201.4 1298.5,-191.4 1291.5,-191.4"/>
</g>
<!-- Node21 -->
<g id="node21" class="node">
<title>Node21</title>
<g id="a_node21"><a xlink:href="reduced__lagrange_8h.html" target="_top" xlink:title=" ">
<polygon fill="none" stroke="black" points="1404,-134.5 1404,-164.5 1520,-164.5 1520,-134.5 1404,-134.5"/>
<text text-anchor="start" x="1412" y="-152.5" font-family="Helvetica,sans-Serif" font-size="10.00">include/pdes/serial</text>
<text text-anchor="middle" x="1462" y="-141.5" font-family="Helvetica,sans-Serif" font-size="10.00">/reduced_lagrange.h</text>
</a>
</g>
</g>
<!-- Node1&#45;&gt;Node21 -->
<g id="edge20" class="edge">
<title>Node1&#45;&gt;Node21</title>
<path fill="none" stroke="midnightblue" d="M1340.78,-197.68C1367.56,-187.26 1400.9,-174.28 1425.83,-164.58"/>
<polygon fill="midnightblue" stroke="midnightblue" points="1339.29,-194.51 1331.24,-201.4 1341.83,-201.03 1339.29,-194.51"/>
</g>
<!-- Node24 -->
<g id="node24" class="node">
<title>Node24</title>
<g id="a_node24"><a xlink:href="stokes_8h.html" target="_top" xlink:title=" ">
<polygon fill="none" stroke="black" points="1538,-134.5 1538,-164.5 1646,-164.5 1646,-134.5 1538,-134.5"/>
<text text-anchor="start" x="1546" y="-152.5" font-family="Helvetica,sans-Serif" font-size="10.00">include/pdes/serial</text>
<text text-anchor="middle" x="1592" y="-141.5" font-family="Helvetica,sans-Serif" font-size="10.00">/stokes.h</text>
</a>
</g>
</g>
<!-- Node1&#45;&gt;Node24 -->
<g id="edge23" class="edge">
<title>Node1&#45;&gt;Node24</title>
<path fill="none" stroke="midnightblue" d="M1363.71,-200.93C1410.36,-190.97 1473.45,-177.39 1529,-165 1531.85,-164.36 1534.77,-163.71 1537.71,-163.04"/>
<polygon fill="midnightblue" stroke="midnightblue" points="1362.76,-197.55 1353.71,-203.06 1364.22,-204.4 1362.76,-197.55"/>
</g>
<!-- Node27 -->
<g id="node27" class="node">
<title>Node27</title>
<g id="a_node27"><a xlink:href="grid__generator_8cc.html" target="_top" xlink:title=" ">
<polygon fill="none" stroke="black" points="1664.5,-140 1664.5,-159 1801.5,-159 1801.5,-140 1664.5,-140"/>
<text text-anchor="middle" x="1733" y="-147" font-family="Helvetica,sans-Serif" font-size="10.00">source/grid_generator.cc</text>
</a>
</g>
</g>
<!-- Node1&#45;&gt;Node27 -->
<g id="edge26" class="edge">
<title>Node1&#45;&gt;Node27</title>
<path fill="none" stroke="midnightblue" d="M1363.66,-206.79C1436.21,-197.37 1553.86,-181.49 1655,-165 1666.01,-163.21 1677.86,-161.09 1688.92,-159.05"/>
<polygon fill="midnightblue" stroke="midnightblue" points="1363.2,-203.32 1353.73,-208.08 1364.1,-210.26 1363.2,-203.32"/>
</g>
<!-- Node28 -->
<g id="node28" class="node">
<title>Node28</title>
<g id="a_node28"><a xlink:href="dof__plotter_8cc.html" target="_top" xlink:title="Degrees of freedom plotter.">
<polygon fill="none" stroke="black" points="1820,-140 1820,-159 1930,-159 1930,-140 1820,-140"/>
<text text-anchor="middle" x="1875" y="-147" font-family="Helvetica,sans-Serif" font-size="10.00">apps/dof_plotter.cc</text>
</a>
</g>
</g>
<!-- Node1&#45;&gt;Node28 -->
<g id="edge27" class="edge">
<title>Node1&#45;&gt;Node28</title>
<path fill="none" stroke="midnightblue" d="M1363.93,-211.51C1463.21,-205.14 1652.01,-190.69 1811,-165 1820.78,-163.42 1831.31,-161.24 1840.94,-159.05"/>
<polygon fill="midnightblue" stroke="midnightblue" points="1363.49,-208.03 1353.73,-212.15 1363.93,-215.01 1363.49,-208.03"/>
</g>
<!-- Node3 -->
<g id="node3" class="node">
<title>Node3</title>
<g id="a_node3"><a xlink:href="mesh__handler_8cc.html" target="_top" xlink:title="Mesh generator and reader.">
<polygon fill="none" stroke="black" points="18.5,-73 18.5,-92 143.5,-92 143.5,-73 18.5,-73"/>
<text text-anchor="middle" x="81" y="-80" font-family="Helvetica,sans-Serif" font-size="10.00">apps/mesh_handler.cc</text>
</a>
</g>
</g>
<!-- Node2&#45;&gt;Node3 -->
<g id="edge2" class="edge">
<title>Node2&#45;&gt;Node3</title>
<path fill="none" stroke="midnightblue" d="M145.7,-133.57C129.12,-120.74 105.79,-102.69 92.15,-92.13"/>
<polygon fill="midnightblue" stroke="midnightblue" points="143.62,-136.38 153.67,-139.73 147.9,-130.85 143.62,-136.38"/>
</g>
<!-- Node5 -->
<g id="node5" class="node">
<title>Node5</title>
<g id="a_node5"><a xlink:href="mpi_2linear__elasticity_8h.html" target="_top" xlink:title=" ">
<polygon fill="none" stroke="black" points="161.5,-67.5 161.5,-97.5 292.5,-97.5 292.5,-67.5 161.5,-67.5"/>
<text text-anchor="start" x="169.5" y="-85.5" font-family="Helvetica,sans-Serif" font-size="10.00">include/pdes/mpi/linear</text>
<text text-anchor="middle" x="227" y="-74.5" font-family="Helvetica,sans-Serif" font-size="10.00">_elasticity.h</text>
</a>
</g>
</g>
<!-- Node4&#45;&gt;Node5 -->
<g id="edge4" class="edge">
<title>Node4&#45;&gt;Node5</title>
<path fill="none" stroke="midnightblue" d="M407.75,-131.85C368.14,-121.25 317.39,-107.68 279.75,-97.61"/>
<polygon fill="midnightblue" stroke="midnightblue" points="407.01,-135.27 417.57,-134.48 408.82,-128.51 407.01,-135.27"/>
</g>
<!-- Node8 -->
<g id="node8" class="node">
<title>Node8</title>
<g id="a_node8"><a xlink:href="mpi_2poisson_8h.html" target="_top" xlink:title=" ">
<polygon fill="none" stroke="black" points="316.5,-73 316.5,-92 465.5,-92 465.5,-73 316.5,-73"/>
<text text-anchor="middle" x="391" y="-80" font-family="Helvetica,sans-Serif" font-size="10.00">include/pdes/mpi/poisson.h</text>
</a>
</g>
</g>
<!-- Node4&#45;&gt;Node8 -->
<g id="edge7" class="edge">
<title>Node4&#45;&gt;Node8</title>
<path fill="none" stroke="midnightblue" d="M445.09,-128.01C430.43,-115.94 412.64,-101.3 401.57,-92.19"/>
<polygon fill="midnightblue" stroke="midnightblue" points="442.91,-130.75 452.86,-134.4 447.36,-125.34 442.91,-130.75"/>
</g>
<!-- Node11 -->
<g id="node11" class="node">
<title>Node11</title>
<g id="a_node11"><a xlink:href="linear__problem_8cc.html" target="_top" xlink:title=" ">
<polygon fill="none" stroke="black" points="484,-67.5 484,-97.5 612,-97.5 612,-67.5 484,-67.5"/>
<text text-anchor="start" x="492" y="-85.5" font-family="Helvetica,sans-Serif" font-size="10.00">source/pdes/mpi/linear</text>
<text text-anchor="middle" x="548" y="-74.5" font-family="Helvetica,sans-Serif" font-size="10.00">_problem.cc</text>
</a>
</g>
</g>
<!-- Node4&#45;&gt;Node11 -->
<g id="edge10" class="edge">
<title>Node4&#45;&gt;Node11</title>
<path fill="none" stroke="midnightblue" d="M494.74,-127.88C506.59,-118.01 520.48,-106.43 531.11,-97.58"/>
<polygon fill="midnightblue" stroke="midnightblue" points="492.37,-125.31 486.92,-134.4 496.85,-130.68 492.37,-125.31"/>
</g>
<!-- Node6 -->
<g id="node6" class="node">
<title>Node6</title>
<g id="a_node6"><a xlink:href="source_2pdes_2mpi_2linear__elasticity_8cc.html" target="_top" xlink:title=" ">
<polygon fill="none" stroke="black" points="0,-0.5 0,-30.5 128,-30.5 128,-0.5 0,-0.5"/>
<text text-anchor="start" x="8" y="-18.5" font-family="Helvetica,sans-Serif" font-size="10.00">source/pdes/mpi/linear</text>
<text text-anchor="middle" x="64" y="-7.5" font-family="Helvetica,sans-Serif" font-size="10.00">_elasticity.cc</text>
</a>
</g>
</g>
<!-- Node5&#45;&gt;Node6 -->
<g id="edge5" class="edge">
<title>Node5&#45;&gt;Node6</title>
<path fill="none" stroke="midnightblue" d="M182.32,-63.68C156.17,-53.26 123.63,-40.28 99.3,-30.58"/>
<polygon fill="midnightblue" stroke="midnightblue" points="181.05,-66.94 191.63,-67.4 183.64,-60.44 181.05,-66.94"/>
</g>
<!-- Node7 -->
<g id="node7" class="node">
<title>Node7</title>
<g id="a_node7"><a xlink:href="apps_2mpi_2linear__elasticity_8cc.html" target="_top" xlink:title=" ">
<polygon fill="none" stroke="black" points="146.5,-6 146.5,-25 301.5,-25 301.5,-6 146.5,-6"/>
<text text-anchor="middle" x="224" y="-13" font-family="Helvetica,sans-Serif" font-size="10.00">apps/mpi/linear_elasticity.cc</text>
</a>
</g>
</g>
<!-- Node5&#45;&gt;Node7 -->
<g id="edge6" class="edge">
<title>Node5&#45;&gt;Node7</title>
<path fill="none" stroke="midnightblue" d="M225.88,-57.25C225.36,-46.02 224.78,-33.38 224.4,-25.19"/>
<polygon fill="midnightblue" stroke="midnightblue" points="222.39,-57.57 226.35,-67.4 229.38,-57.25 222.39,-57.57"/>
</g>
<!-- Node9 -->
<g id="node9" class="node">
<title>Node9</title>
<g id="a_node9"><a xlink:href="source_2pdes_2mpi_2poisson_8cc.html" target="_top" xlink:title=" ">
<polygon fill="none" stroke="black" points="319.5,-6 319.5,-25 470.5,-25 470.5,-6 319.5,-6"/>
<text text-anchor="middle" x="395" y="-13" font-family="Helvetica,sans-Serif" font-size="10.00">source/pdes/mpi/poisson.cc</text>
</a>
</g>
</g>
<!-- Node8&#45;&gt;Node9 -->
<g id="edge8" class="edge">
<title>Node8&#45;&gt;Node9</title>
<path fill="none" stroke="midnightblue" d="M392.17,-62.54C392.93,-50.17 393.88,-34.62 394.47,-25.13"/>
<polygon fill="midnightblue" stroke="midnightblue" points="388.66,-62.54 391.54,-72.73 395.65,-62.97 388.66,-62.54"/>
</g>
<!-- Node10 -->
<g id="node10" class="node">
<title>Node10</title>
<g id="a_node10"><a xlink:href="apps_2mpi_2poisson_8cc.html" target="_top" xlink:title=" ">
<polygon fill="none" stroke="black" points="489,-6 489,-25 605,-25 605,-6 489,-6"/>
<text text-anchor="middle" x="547" y="-13" font-family="Helvetica,sans-Serif" font-size="10.00">apps/mpi/poisson.cc</text>
</a>
</g>
</g>
<!-- Node8&#45;&gt;Node10 -->
<g id="edge9" class="edge">
<title>Node8&#45;&gt;Node10</title>
<path fill="none" stroke="midnightblue" d="M421.12,-68.95C452.01,-56.08 499.23,-36.4 526.2,-25.17"/>
<polygon fill="midnightblue" stroke="midnightblue" points="419.6,-65.79 411.72,-72.87 422.29,-72.25 419.6,-65.79"/>
</g>
<!-- Node13 -->
<g id="node13" class="node">
<title>Node13</title>
<g id="a_node13"><a xlink:href="source_2pdes_2serial_2distributed__lagrange_8cc.html" target="_top" xlink:title=" ">
<polygon fill="none" stroke="black" points="630,-67.5 630,-97.5 764,-97.5 764,-67.5 630,-67.5"/>
<text text-anchor="start" x="638" y="-85.5" font-family="Helvetica,sans-Serif" font-size="10.00">source/pdes/serial</text>
<text text-anchor="middle" x="697" y="-74.5" font-family="Helvetica,sans-Serif" font-size="10.00">/distributed_lagrange.cc</text>
</a>
</g>
</g>
<!-- Node12&#45;&gt;Node13 -->
<g id="edge12" class="edge">
<title>Node12&#45;&gt;Node13</title>
<path fill="none" stroke="midnightblue" d="M803.49,-130.27C779.92,-119.92 750.86,-107.15 729.05,-97.58"/>
<polygon fill="midnightblue" stroke="midnightblue" points="802.32,-133.58 812.89,-134.4 805.14,-127.17 802.32,-133.58"/>
</g>
<!-- Node14 -->
<g id="node14" class="node">
<title>Node14</title>
<g id="a_node14"><a xlink:href="apps_2serial_2distributed__lagrange_8cc.html" target="_top" xlink:title=" ">
<polygon fill="none" stroke="black" points="782.5,-67.5 782.5,-97.5 907.5,-97.5 907.5,-67.5 782.5,-67.5"/>
<text text-anchor="start" x="790.5" y="-85.5" font-family="Helvetica,sans-Serif" font-size="10.00">apps/serial/distributed</text>
<text text-anchor="middle" x="845" y="-74.5" font-family="Helvetica,sans-Serif" font-size="10.00">_lagrange.cc</text>
</a>
</g>
</g>
<!-- Node12&#45;&gt;Node14 -->
<g id="edge13" class="edge">
<title>Node12&#45;&gt;Node14</title>
<path fill="none" stroke="midnightblue" d="M845,-124.11C845,-115.15 845,-105.32 845,-97.58"/>
<polygon fill="midnightblue" stroke="midnightblue" points="841.5,-124.4 845,-134.4 848.5,-124.4 841.5,-124.4"/>
</g>
<!-- Node16 -->
<g id="node16" class="node">
<title>Node16</title>
<g id="a_node16"><a xlink:href="source_2pdes_2serial_2linear__elasticity_8cc.html" target="_top" xlink:title=" ">
<polygon fill="none" stroke="black" points="926,-67.5 926,-97.5 1036,-97.5 1036,-67.5 926,-67.5"/>
<text text-anchor="start" x="934" y="-85.5" font-family="Helvetica,sans-Serif" font-size="10.00">source/pdes/serial</text>
<text text-anchor="middle" x="981" y="-74.5" font-family="Helvetica,sans-Serif" font-size="10.00">/linear_elasticity.cc</text>
</a>
</g>
</g>
<!-- Node15&#45;&gt;Node16 -->
<g id="edge15" class="edge">
<title>Node15&#45;&gt;Node16</title>
<path fill="none" stroke="midnightblue" d="M1069.16,-129.71C1049.61,-119.46 1025.8,-106.98 1007.85,-97.58"/>
<polygon fill="midnightblue" stroke="midnightblue" points="1067.61,-132.85 1078.09,-134.4 1070.86,-126.65 1067.61,-132.85"/>
</g>
<!-- Node17 -->
<g id="node17" class="node">
<title>Node17</title>
<g id="a_node17"><a xlink:href="apps_2serial_2linear__elasticity_8cc.html" target="_top" xlink:title=" ">
<polygon fill="none" stroke="black" points="1054.5,-67.5 1054.5,-97.5 1155.5,-97.5 1155.5,-67.5 1054.5,-67.5"/>
<text text-anchor="start" x="1062.5" y="-85.5" font-family="Helvetica,sans-Serif" font-size="10.00">apps/serial/linear</text>
<text text-anchor="middle" x="1105" y="-74.5" font-family="Helvetica,sans-Serif" font-size="10.00">_elasticity.cc</text>
</a>
</g>
</g>
<!-- Node15&#45;&gt;Node17 -->
<g id="edge16" class="edge">
<title>Node15&#45;&gt;Node17</title>
<path fill="none" stroke="midnightblue" d="M1105,-124.11C1105,-115.15 1105,-105.32 1105,-97.58"/>
<polygon fill="midnightblue" stroke="midnightblue" points="1101.5,-124.4 1105,-134.4 1108.5,-124.4 1101.5,-124.4"/>
</g>
<!-- Node19 -->
<g id="node19" class="node">
<title>Node19</title>
<g id="a_node19"><a xlink:href="source_2pdes_2serial_2poisson_8cc.html" target="_top" xlink:title=" ">
<polygon fill="none" stroke="black" points="1173.5,-67.5 1173.5,-97.5 1278.5,-97.5 1278.5,-67.5 1173.5,-67.5"/>
<text text-anchor="start" x="1181.5" y="-85.5" font-family="Helvetica,sans-Serif" font-size="10.00">source/pdes/serial</text>
<text text-anchor="middle" x="1226" y="-74.5" font-family="Helvetica,sans-Serif" font-size="10.00">/poisson.cc</text>
</a>
</g>
</g>
<!-- Node18&#45;&gt;Node19 -->
<g id="edge18" class="edge">
<title>Node18&#45;&gt;Node19</title>
<path fill="none" stroke="midnightblue" d="M1272.51,-127.31C1262.16,-117.56 1250.16,-106.26 1240.94,-97.58"/>
<polygon fill="midnightblue" stroke="midnightblue" points="1270.35,-130.09 1280.03,-134.4 1275.15,-124.99 1270.35,-130.09"/>
</g>
<!-- Node20 -->
<g id="node20" class="node">
<title>Node20</title>
<g id="a_node20"><a xlink:href="apps_2serial_2poisson_8cc.html" target="_top" xlink:title=" ">
<polygon fill="none" stroke="black" points="1297,-73 1297,-92 1421,-92 1421,-73 1297,-73"/>
<text text-anchor="middle" x="1359" y="-80" font-family="Helvetica,sans-Serif" font-size="10.00">apps/serial/poisson.cc</text>
</a>
</g>
</g>
<!-- Node18&#45;&gt;Node20 -->
<g id="edge19" class="edge">
<title>Node18&#45;&gt;Node20</title>
<path fill="none" stroke="midnightblue" d="M1316.17,-127C1327.85,-115.13 1341.72,-101.05 1350.44,-92.19"/>
<polygon fill="midnightblue" stroke="midnightblue" points="1313.41,-124.81 1308.89,-134.4 1318.4,-129.73 1313.41,-124.81"/>
</g>
<!-- Node22 -->
<g id="node22" class="node">
<title>Node22</title>
<g id="a_node22"><a xlink:href="source_2pdes_2serial_2reduced__lagrange_8cc.html" target="_top" xlink:title=" ">
<polygon fill="none" stroke="black" points="1439,-67.5 1439,-97.5 1559,-97.5 1559,-67.5 1439,-67.5"/>
<text text-anchor="start" x="1447" y="-85.5" font-family="Helvetica,sans-Serif" font-size="10.00">source/pdes/serial</text>
<text text-anchor="middle" x="1499" y="-74.5" font-family="Helvetica,sans-Serif" font-size="10.00">/reduced_lagrange.cc</text>
</a>
</g>
</g>
<!-- Node21&#45;&gt;Node22 -->
<g id="edge21" class="edge">
<title>Node21&#45;&gt;Node22</title>
<path fill="none" stroke="midnightblue" d="M1475.05,-125.58C1480.36,-116.24 1486.34,-105.75 1490.99,-97.58"/>
<polygon fill="midnightblue" stroke="midnightblue" points="1471.93,-123.97 1470.03,-134.4 1478.02,-127.44 1471.93,-123.97"/>
</g>
<!-- Node23 -->
<g id="node23" class="node">
<title>Node23</title>
<g id="a_node23"><a xlink:href="apps_2serial_2reduced__lagrange_8cc.html" target="_top" xlink:title=" ">
<polygon fill="none" stroke="black" points="1577,-67.5 1577,-97.5 1689,-97.5 1689,-67.5 1577,-67.5"/>
<text text-anchor="start" x="1585" y="-85.5" font-family="Helvetica,sans-Serif" font-size="10.00">apps/serial/reduced</text>
<text text-anchor="middle" x="1633" y="-74.5" font-family="Helvetica,sans-Serif" font-size="10.00">_lagrange.cc</text>
</a>
</g>
</g>
<!-- Node21&#45;&gt;Node23 -->
<g id="edge22" class="edge">
<title>Node21&#45;&gt;Node23</title>
<path fill="none" stroke="midnightblue" d="M1508.52,-130.82C1536,-120.37 1570.33,-107.32 1595.97,-97.58"/>
<polygon fill="midnightblue" stroke="midnightblue" points="1507.21,-127.57 1499.1,-134.4 1509.7,-134.11 1507.21,-127.57"/>
</g>
<!-- Node25 -->
<g id="node25" class="node">
<title>Node25</title>
<g id="a_node25"><a xlink:href="source_2pdes_2serial_2stokes_8cc.html" target="_top" xlink:title=" ">
<polygon fill="none" stroke="black" points="1707.5,-67.5 1707.5,-97.5 1812.5,-97.5 1812.5,-67.5 1707.5,-67.5"/>
<text text-anchor="start" x="1715.5" y="-85.5" font-family="Helvetica,sans-Serif" font-size="10.00">source/pdes/serial</text>
<text text-anchor="middle" x="1760" y="-74.5" font-family="Helvetica,sans-Serif" font-size="10.00">/stokes.cc</text>
</a>
</g>
</g>
<!-- Node24&#45;&gt;Node25 -->
<g id="edge24" class="edge">
<title>Node24&#45;&gt;Node25</title>
<path fill="none" stroke="midnightblue" d="M1638.05,-130.68C1665,-120.26 1698.54,-107.28 1723.62,-97.58"/>
<polygon fill="midnightblue" stroke="midnightblue" points="1636.52,-127.52 1628.45,-134.4 1639.04,-134.05 1636.52,-127.52"/>
</g>
<!-- Node26 -->
<g id="node26" class="node">
<title>Node26</title>
<g id="a_node26"><a xlink:href="apps_2serial_2stokes_8cc.html" target="_top" xlink:title=" ">
<polygon fill="none" stroke="black" points="1831,-73 1831,-92 1949,-92 1949,-73 1831,-73"/>
<text text-anchor="middle" x="1890" y="-80" font-family="Helvetica,sans-Serif" font-size="10.00">apps/serial/stokes.cc</text>
</a>
</g>
</g>
<!-- Node24&#45;&gt;Node26 -->
<g id="edge25" class="edge">
<title>Node24&#45;&gt;Node26</title>
<path fill="none" stroke="midnightblue" d="M1655.7,-134.07C1655.8,-134.04 1655.9,-134.02 1656,-134 1692.52,-125.92 1793.37,-104.24 1850.03,-92.07"/>
<polygon fill="midnightblue" stroke="midnightblue" points="1655.11,-130.61 1646.11,-136.2 1656.63,-137.44 1655.11,-130.61"/>
</g>
</g>
</svg>
