<?xml version="1.0" encoding="UTF-8" standalone="no"?>
<!DOCTYPE svg PUBLIC "-//W3C//DTD SVG 1.1//EN"
 "http://www.w3.org/Graphics/SVG/1.1/DTD/svg11.dtd">
<!-- Generated by graphviz version 2.43.0 (0)
 -->
<!-- Title: include/parsed_tools/grid_generator.h Pages: 1 -->
<svg width="1784pt" height="229pt"
 viewBox="0.00 0.00 1783.50 229.00" xmlns="http://www.w3.org/2000/svg" xmlns:xlink="http://www.w3.org/1999/xlink">
<g id="graph0" class="graph" transform="scale(1 1) rotate(0) translate(4 225)">
<title>include/parsed_tools/grid_generator.h</title>
<!-- Node1 -->
<g id="node1" class="node">
<title>Node1</title>
<g id="a_node1"><a xlink:title=" ">
<polygon fill="#bfbfbf" stroke="black" points="1063,-190.5 1063,-220.5 1180,-220.5 1180,-190.5 1063,-190.5"/>
<text text-anchor="start" x="1071" y="-208.5" font-family="Helvetica,sans-Serif" font-size="10.00">include/parsed_tools</text>
<text text-anchor="middle" x="1121.5" y="-197.5" font-family="Helvetica,sans-Serif" font-size="10.00">/grid_generator.h</text>
</a>
</g>
</g>
<!-- Node2 -->
<g id="node2" class="node">
<title>Node2</title>
<g id="a_node2"><a xlink:href="mesh__handler_8h.html" target="_top" xlink:title=" ">
<polygon fill="none" stroke="black" points="77,-129 77,-148 210,-148 210,-129 77,-129"/>
<text text-anchor="middle" x="143.5" y="-136" font-family="Helvetica,sans-Serif" font-size="10.00">include/mesh_handler.h</text>
</a>
</g>
</g>
<!-- Node1&#45;&gt;Node2 -->
<g id="edge1" class="edge">
<title>Node1&#45;&gt;Node2</title>
<path fill="none" stroke="midnightblue" d="M1052.66,-201C911.38,-193.66 578.52,-175.53 299.5,-154 270.21,-151.74 237.87,-148.81 210.26,-146.17"/>
<polygon fill="midnightblue" stroke="midnightblue" points="1052.73,-204.51 1062.9,-201.53 1053.1,-197.52 1052.73,-204.51"/>
</g>
<!-- Node4 -->
<g id="node4" class="node">
<title>Node4</title>
<g id="a_node4"><a xlink:href="linear__problem_8h.html" target="_top" xlink:title=" ">
<polygon fill="none" stroke="black" points="309,-123.5 309,-153.5 440,-153.5 440,-123.5 309,-123.5"/>
<text text-anchor="start" x="317" y="-141.5" font-family="Helvetica,sans-Serif" font-size="10.00">include/pdes/mpi/linear</text>
<text text-anchor="middle" x="374.5" y="-130.5" font-family="Helvetica,sans-Serif" font-size="10.00">_problem.h</text>
</a>
</g>
</g>
<!-- Node1&#45;&gt;Node4 -->
<g id="edge3" class="edge">
<title>Node1&#45;&gt;Node4</title>
<path fill="none" stroke="midnightblue" d="M1052.9,-198.53C909.76,-186.08 580.88,-157.46 440.24,-145.22"/>
<polygon fill="midnightblue" stroke="midnightblue" points="1052.62,-202.02 1062.88,-199.4 1053.23,-195.05 1052.62,-202.02"/>
</g>
<!-- Node8 -->
<g id="node8" class="node">
<title>Node8</title>
<g id="a_node8"><a xlink:href="distributed__lagrange_8h.html" target="_top" xlink:title=" ">
<polygon fill="none" stroke="black" points="607,-123.5 607,-153.5 736,-153.5 736,-123.5 607,-123.5"/>
<text text-anchor="start" x="615" y="-141.5" font-family="Helvetica,sans-Serif" font-size="10.00">include/pdes/serial</text>
<text text-anchor="middle" x="671.5" y="-130.5" font-family="Helvetica,sans-Serif" font-size="10.00">/distributed_lagrange.h</text>
</a>
</g>
</g>
<!-- Node1&#45;&gt;Node8 -->
<g id="edge7" class="edge">
<title>Node1&#45;&gt;Node8</title>
<path fill="none" stroke="midnightblue" d="M1052.74,-194.57C966.65,-182.13 820.29,-160.99 736.17,-148.84"/>
<polygon fill="midnightblue" stroke="midnightblue" points="1052.27,-198.04 1062.67,-196 1053.27,-191.11 1052.27,-198.04"/>
</g>
<!-- Node11 -->
<g id="node11" class="node">
<title>Node11</title>
<g id="a_node11"><a xlink:href="linear__elasticity_8h.html" target="_top" xlink:title=" ">
<polygon fill="none" stroke="black" points="877.5,-123.5 877.5,-153.5 985.5,-153.5 985.5,-123.5 877.5,-123.5"/>
<text text-anchor="start" x="885.5" y="-141.5" font-family="Helvetica,sans-Serif" font-size="10.00">include/pdes/serial</text>
<text text-anchor="middle" x="931.5" y="-130.5" font-family="Helvetica,sans-Serif" font-size="10.00">/linear_elasticity.h</text>
</a>
</g>
</g>
<!-- Node1&#45;&gt;Node11 -->
<g id="edge10" class="edge">
<title>Node1&#45;&gt;Node11</title>
<path fill="none" stroke="midnightblue" d="M1070.61,-187.09C1039.94,-176.6 1001.39,-163.41 972.65,-153.58"/>
<polygon fill="midnightblue" stroke="midnightblue" points="1069.68,-190.47 1080.27,-190.4 1071.94,-183.85 1069.68,-190.47"/>
</g>
<!-- Node14 -->
<g id="node14" class="node">
<title>Node14</title>
<g id="a_node14"><a xlink:href="serial_2poisson_8h.html" target="_top" xlink:title=" ">
<polygon fill="none" stroke="black" points="1067.5,-123.5 1067.5,-153.5 1175.5,-153.5 1175.5,-123.5 1067.5,-123.5"/>
<text text-anchor="start" x="1075.5" y="-141.5" font-family="Helvetica,sans-Serif" font-size="10.00">include/pdes/serial</text>
<text text-anchor="middle" x="1121.5" y="-130.5" font-family="Helvetica,sans-Serif" font-size="10.00">/poisson.h</text>
</a>
</g>
</g>
<!-- Node1&#45;&gt;Node14 -->
<g id="edge13" class="edge">
<title>Node1&#45;&gt;Node14</title>
<path fill="none" stroke="midnightblue" d="M1121.5,-180.11C1121.5,-171.15 1121.5,-161.32 1121.5,-153.58"/>
<polygon fill="midnightblue" stroke="midnightblue" points="1118,-180.4 1121.5,-190.4 1125,-180.4 1118,-180.4"/>
</g>
<!-- Node17 -->
<g id="node17" class="node">
<title>Node17</title>
<g id="a_node17"><a xlink:href="reduced__lagrange_8h.html" target="_top" xlink:title=" ">
<polygon fill="none" stroke="black" points="1230.5,-123.5 1230.5,-153.5 1346.5,-153.5 1346.5,-123.5 1230.5,-123.5"/>
<text text-anchor="start" x="1238.5" y="-141.5" font-family="Helvetica,sans-Serif" font-size="10.00">include/pdes/serial</text>
<text text-anchor="middle" x="1288.5" y="-130.5" font-family="Helvetica,sans-Serif" font-size="10.00">/reduced_lagrange.h</text>
</a>
</g>
</g>
<!-- Node1&#45;&gt;Node17 -->
<g id="edge16" class="edge">
<title>Node1&#45;&gt;Node17</title>
<path fill="none" stroke="midnightblue" d="M1167.28,-186.68C1194.06,-176.26 1227.4,-163.28 1252.33,-153.58"/>
<polygon fill="midnightblue" stroke="midnightblue" points="1165.79,-183.51 1157.74,-190.4 1168.33,-190.03 1165.79,-183.51"/>
</g>
<!-- Node20 -->
<g id="node20" class="node">
<title>Node20</title>
<g id="a_node20"><a xlink:href="stokes_8h.html" target="_top" xlink:title=" ">
<polygon fill="none" stroke="black" points="1364.5,-123.5 1364.5,-153.5 1472.5,-153.5 1472.5,-123.5 1364.5,-123.5"/>
<text text-anchor="start" x="1372.5" y="-141.5" font-family="Helvetica,sans-Serif" font-size="10.00">include/pdes/serial</text>
<text text-anchor="middle" x="1418.5" y="-130.5" font-family="Helvetica,sans-Serif" font-size="10.00">/stokes.h</text>
</a>
</g>
</g>
<!-- Node1&#45;&gt;Node20 -->
<g id="edge19" class="edge">
<title>Node1&#45;&gt;Node20</title>
<path fill="none" stroke="midnightblue" d="M1190.21,-189.93C1236.86,-179.97 1299.95,-166.39 1355.5,-154 1358.35,-153.36 1361.27,-152.71 1364.21,-152.04"/>
<polygon fill="midnightblue" stroke="midnightblue" points="1189.26,-186.55 1180.21,-192.06 1190.72,-193.4 1189.26,-186.55"/>
</g>
<!-- Node23 -->
<g id="node23" class="node">
<title>Node23</title>
<g id="a_node23"><a xlink:href="grid__generator_8cc.html" target="_top" xlink:title=" ">
<polygon fill="none" stroke="black" points="1491,-129 1491,-148 1628,-148 1628,-129 1491,-129"/>
<text text-anchor="middle" x="1559.5" y="-136" font-family="Helvetica,sans-Serif" font-size="10.00">source/grid_generator.cc</text>
</a>
</g>
</g>
<!-- Node1&#45;&gt;Node23 -->
<g id="edge22" class="edge">
<title>Node1&#45;&gt;Node23</title>
<path fill="none" stroke="midnightblue" d="M1190.16,-195.79C1262.71,-186.37 1380.36,-170.49 1481.5,-154 1492.51,-152.21 1504.36,-150.09 1515.42,-148.05"/>
<polygon fill="midnightblue" stroke="midnightblue" points="1189.7,-192.32 1180.23,-197.08 1190.6,-199.26 1189.7,-192.32"/>
</g>
<!-- Node24 -->
<g id="node24" class="node">
<title>Node24</title>
<g id="a_node24"><a xlink:href="dof__plotter_8cc.html" target="_top" xlink:title="Degrees of freedom plotter.">
<polygon fill="none" stroke="black" points="1646.5,-129 1646.5,-148 1756.5,-148 1756.5,-129 1646.5,-129"/>
<text text-anchor="middle" x="1701.5" y="-136" font-family="Helvetica,sans-Serif" font-size="10.00">apps/dof_plotter.cc</text>
</a>
</g>
</g>
<!-- Node1&#45;&gt;Node24 -->
<g id="edge23" class="edge">
<title>Node1&#45;&gt;Node24</title>
<path fill="none" stroke="midnightblue" d="M1190.43,-200.51C1289.71,-194.14 1478.51,-179.69 1637.5,-154 1647.28,-152.42 1657.81,-150.24 1667.44,-148.05"/>
<polygon fill="midnightblue" stroke="midnightblue" points="1189.99,-197.03 1180.23,-201.15 1190.43,-204.01 1189.99,-197.03"/>
</g>
<!-- Node3 -->
<g id="node3" class="node">
<title>Node3</title>
<g id="a_node3"><a xlink:href="mesh__handler_8cc.html" target="_top" xlink:title="Mesh generator and reader.">
<polygon fill="none" stroke="black" points="0,-62 0,-81 125,-81 125,-62 0,-62"/>
<text text-anchor="middle" x="62.5" y="-69" font-family="Helvetica,sans-Serif" font-size="10.00">apps/mesh_handler.cc</text>
</a>
</g>
</g>
<!-- Node2&#45;&gt;Node3 -->
<g id="edge2" class="edge">
<title>Node2&#45;&gt;Node3</title>
<path fill="none" stroke="midnightblue" d="M124.45,-122.21C108.49,-109.41 86.29,-91.59 73.25,-81.13"/>
<polygon fill="midnightblue" stroke="midnightblue" points="122.59,-125.2 132.58,-128.73 126.97,-119.75 122.59,-125.2"/>
</g>
<!-- Node5 -->
<g id="node5" class="node">
<title>Node5</title>
<g id="a_node5"><a xlink:href="mpi_2poisson_8h.html" target="_top" xlink:title=" ">
<polygon fill="none" stroke="black" points="143,-62 143,-81 292,-81 292,-62 143,-62"/>
<text text-anchor="middle" x="217.5" y="-69" font-family="Helvetica,sans-Serif" font-size="10.00">include/pdes/mpi/poisson.h</text>
</a>
</g>
</g>
<!-- Node4&#45;&gt;Node5 -->
<g id="edge4" class="edge">
<title>Node4&#45;&gt;Node5</title>
<path fill="none" stroke="midnightblue" d="M330.92,-119.46C300.59,-106.9 261.52,-90.72 238.05,-81.01"/>
<polygon fill="midnightblue" stroke="midnightblue" points="329.86,-122.8 340.43,-123.4 332.53,-116.34 329.86,-122.8"/>
</g>
<!-- Node7 -->
<g id="node7" class="node">
<title>Node7</title>
<g id="a_node7"><a xlink:href="linear__problem_8cc.html" target="_top" xlink:title=" ">
<polygon fill="none" stroke="black" points="310.5,-56.5 310.5,-86.5 438.5,-86.5 438.5,-56.5 310.5,-56.5"/>
<text text-anchor="start" x="318.5" y="-74.5" font-family="Helvetica,sans-Serif" font-size="10.00">source/pdes/mpi/linear</text>
<text text-anchor="middle" x="374.5" y="-63.5" font-family="Helvetica,sans-Serif" font-size="10.00">_problem.cc</text>
</a>
</g>
</g>
<!-- Node4&#45;&gt;Node7 -->
<g id="edge6" class="edge">
<title>Node4&#45;&gt;Node7</title>
<path fill="none" stroke="midnightblue" d="M374.5,-113.11C374.5,-104.15 374.5,-94.32 374.5,-86.58"/>
<polygon fill="midnightblue" stroke="midnightblue" points="371,-113.4 374.5,-123.4 378,-113.4 371,-113.4"/>
</g>
<!-- Node6 -->
<g id="node6" class="node">
<title>Node6</title>
<g id="a_node6"><a xlink:href="source_2pdes_2mpi_2poisson_8cc.html" target="_top" xlink:title=" ">
<polygon fill="none" stroke="black" points="142,-0.5 142,-19.5 293,-19.5 293,-0.5 142,-0.5"/>
<text text-anchor="middle" x="217.5" y="-7.5" font-family="Helvetica,sans-Serif" font-size="10.00">source/pdes/mpi/poisson.cc</text>
</a>
</g>
</g>
<!-- Node5&#45;&gt;Node6 -->
<g id="edge5" class="edge">
<title>Node5&#45;&gt;Node6</title>
<path fill="none" stroke="midnightblue" d="M217.5,-51.82C217.5,-41 217.5,-27.9 217.5,-19.51"/>
<polygon fill="midnightblue" stroke="midnightblue" points="214,-51.98 217.5,-61.98 221,-51.98 214,-51.98"/>
</g>
<!-- Node9 -->
<g id="node9" class="node">
<title>Node9</title>
<g id="a_node9"><a xlink:href="source_2pdes_2serial_2distributed__lagrange_8cc.html" target="_top" xlink:title=" ">
<polygon fill="none" stroke="black" points="456.5,-56.5 456.5,-86.5 590.5,-86.5 590.5,-56.5 456.5,-56.5"/>
<text text-anchor="start" x="464.5" y="-74.5" font-family="Helvetica,sans-Serif" font-size="10.00">source/pdes/serial</text>
<text text-anchor="middle" x="523.5" y="-63.5" font-family="Helvetica,sans-Serif" font-size="10.00">/distributed_lagrange.cc</text>
</a>
</g>
</g>
<!-- Node8&#45;&gt;Node9 -->
<g id="edge8" class="edge">
<title>Node8&#45;&gt;Node9</title>
<path fill="none" stroke="midnightblue" d="M629.99,-119.27C606.42,-108.92 577.36,-96.15 555.55,-86.58"/>
<polygon fill="midnightblue" stroke="midnightblue" points="628.82,-122.58 639.39,-123.4 631.64,-116.17 628.82,-122.58"/>
</g>
<!-- Node10 -->
<g id="node10" class="node">
<title>Node10</title>
<g id="a_node10"><a xlink:href="apps_2serial_2distributed__lagrange_8cc.html" target="_top" xlink:title=" ">
<polygon fill="none" stroke="black" points="609,-56.5 609,-86.5 734,-86.5 734,-56.5 609,-56.5"/>
<text text-anchor="start" x="617" y="-74.5" font-family="Helvetica,sans-Serif" font-size="10.00">apps/serial/distributed</text>
<text text-anchor="middle" x="671.5" y="-63.5" font-family="Helvetica,sans-Serif" font-size="10.00">_lagrange.cc</text>
</a>
</g>
</g>
<!-- Node8&#45;&gt;Node10 -->
<g id="edge9" class="edge">
<title>Node8&#45;&gt;Node10</title>
<path fill="none" stroke="midnightblue" d="M671.5,-113.11C671.5,-104.15 671.5,-94.32 671.5,-86.58"/>
<polygon fill="midnightblue" stroke="midnightblue" points="668,-113.4 671.5,-123.4 675,-113.4 668,-113.4"/>
</g>
<!-- Node12 -->
<g id="node12" class="node">
<title>Node12</title>
<g id="a_node12"><a xlink:href="source_2pdes_2serial_2linear__elasticity_8cc.html" target="_top" xlink:title=" ">
<polygon fill="none" stroke="black" points="752.5,-56.5 752.5,-86.5 862.5,-86.5 862.5,-56.5 752.5,-56.5"/>
<text text-anchor="start" x="760.5" y="-74.5" font-family="Helvetica,sans-Serif" font-size="10.00">source/pdes/serial</text>
<text text-anchor="middle" x="807.5" y="-63.5" font-family="Helvetica,sans-Serif" font-size="10.00">/linear_elasticity.cc</text>
</a>
</g>
</g>
<!-- Node11&#45;&gt;Node12 -->
<g id="edge11" class="edge">
<title>Node11&#45;&gt;Node12</title>
<path fill="none" stroke="midnightblue" d="M895.66,-118.71C876.11,-108.46 852.3,-95.98 834.35,-86.58"/>
<polygon fill="midnightblue" stroke="midnightblue" points="894.11,-121.85 904.59,-123.4 897.36,-115.65 894.11,-121.85"/>
</g>
<!-- Node13 -->
<g id="node13" class="node">
<title>Node13</title>
<g id="a_node13"><a xlink:href="apps_2serial_2linear__elasticity_8cc.html" target="_top" xlink:title=" ">
<polygon fill="none" stroke="black" points="881,-56.5 881,-86.5 982,-86.5 982,-56.5 881,-56.5"/>
<text text-anchor="start" x="889" y="-74.5" font-family="Helvetica,sans-Serif" font-size="10.00">apps/serial/linear</text>
<text text-anchor="middle" x="931.5" y="-63.5" font-family="Helvetica,sans-Serif" font-size="10.00">_elasticity.cc</text>
</a>
</g>
</g>
<!-- Node11&#45;&gt;Node13 -->
<g id="edge12" class="edge">
<title>Node11&#45;&gt;Node13</title>
<path fill="none" stroke="midnightblue" d="M931.5,-113.11C931.5,-104.15 931.5,-94.32 931.5,-86.58"/>
<polygon fill="midnightblue" stroke="midnightblue" points="928,-113.4 931.5,-123.4 935,-113.4 928,-113.4"/>
</g>
<!-- Node15 -->
<g id="node15" class="node">
<title>Node15</title>
<g id="a_node15"><a xlink:href="source_2pdes_2serial_2poisson_8cc.html" target="_top" xlink:title=" ">
<polygon fill="none" stroke="black" points="1000,-56.5 1000,-86.5 1105,-86.5 1105,-56.5 1000,-56.5"/>
<text text-anchor="start" x="1008" y="-74.5" font-family="Helvetica,sans-Serif" font-size="10.00">source/pdes/serial</text>
<text text-anchor="middle" x="1052.5" y="-63.5" font-family="Helvetica,sans-Serif" font-size="10.00">/poisson.cc</text>
</a>
</g>
</g>
<!-- Node14&#45;&gt;Node15 -->
<g id="edge14" class="edge">
<title>Node14&#45;&gt;Node15</title>
<path fill="none" stroke="midnightblue" d="M1099.01,-116.31C1088.66,-106.56 1076.66,-95.26 1067.44,-86.58"/>
<polygon fill="midnightblue" stroke="midnightblue" points="1096.85,-119.09 1106.53,-123.4 1101.65,-113.99 1096.85,-119.09"/>
</g>
<!-- Node16 -->
<g id="node16" class="node">
<title>Node16</title>
<g id="a_node16"><a xlink:href="apps_2serial_2poisson_8cc.html" target="_top" xlink:title=" ">
<polygon fill="none" stroke="black" points="1123.5,-62 1123.5,-81 1247.5,-81 1247.5,-62 1123.5,-62"/>
<text text-anchor="middle" x="1185.5" y="-69" font-family="Helvetica,sans-Serif" font-size="10.00">apps/serial/poisson.cc</text>
</a>
</g>
</g>
<!-- Node14&#45;&gt;Node16 -->
<g id="edge15" class="edge">
<title>Node14&#45;&gt;Node16</title>
<path fill="none" stroke="midnightblue" d="M1142.67,-116C1154.35,-104.13 1168.22,-90.05 1176.94,-81.19"/>
<polygon fill="midnightblue" stroke="midnightblue" points="1139.91,-113.81 1135.39,-123.4 1144.9,-118.73 1139.91,-113.81"/>
</g>
<!-- Node18 -->
<g id="node18" class="node">
<title>Node18</title>
<g id="a_node18"><a xlink:href="source_2pdes_2serial_2reduced__lagrange_8cc.html" target="_top" xlink:title=" ">
<polygon fill="none" stroke="black" points="1265.5,-56.5 1265.5,-86.5 1385.5,-86.5 1385.5,-56.5 1265.5,-56.5"/>
<text text-anchor="start" x="1273.5" y="-74.5" font-family="Helvetica,sans-Serif" font-size="10.00">source/pdes/serial</text>
<text text-anchor="middle" x="1325.5" y="-63.5" font-family="Helvetica,sans-Serif" font-size="10.00">/reduced_lagrange.cc</text>
</a>
</g>
</g>
<!-- Node17&#45;&gt;Node18 -->
<g id="edge17" class="edge">
<title>Node17&#45;&gt;Node18</title>
<path fill="none" stroke="midnightblue" d="M1301.55,-114.58C1306.86,-105.24 1312.84,-94.75 1317.49,-86.58"/>
<polygon fill="midnightblue" stroke="midnightblue" points="1298.43,-112.97 1296.53,-123.4 1304.52,-116.44 1298.43,-112.97"/>
</g>
<!-- Node19 -->
<g id="node19" class="node">
<title>Node19</title>
<g id="a_node19"><a xlink:href="apps_2serial_2reduced__lagrange_8cc.html" target="_top" xlink:title=" ">
<polygon fill="none" stroke="black" points="1403.5,-56.5 1403.5,-86.5 1515.5,-86.5 1515.5,-56.5 1403.5,-56.5"/>
<text text-anchor="start" x="1411.5" y="-74.5" font-family="Helvetica,sans-Serif" font-size="10.00">apps/serial/reduced</text>
<text text-anchor="middle" x="1459.5" y="-63.5" font-family="Helvetica,sans-Serif" font-size="10.00">_lagrange.cc</text>
</a>
</g>
</g>
<!-- Node17&#45;&gt;Node19 -->
<g id="edge18" class="edge">
<title>Node17&#45;&gt;Node19</title>
<path fill="none" stroke="midnightblue" d="M1335.02,-119.82C1362.5,-109.37 1396.83,-96.32 1422.47,-86.58"/>
<polygon fill="midnightblue" stroke="midnightblue" points="1333.71,-116.57 1325.6,-123.4 1336.2,-123.11 1333.71,-116.57"/>
</g>
<!-- Node21 -->
<g id="node21" class="node">
<title>Node21</title>
<g id="a_node21"><a xlink:href="source_2pdes_2serial_2stokes_8cc.html" target="_top" xlink:title=" ">
<polygon fill="none" stroke="black" points="1534,-56.5 1534,-86.5 1639,-86.5 1639,-56.5 1534,-56.5"/>
<text text-anchor="start" x="1542" y="-74.5" font-family="Helvetica,sans-Serif" font-size="10.00">source/pdes/serial</text>
<text text-anchor="middle" x="1586.5" y="-63.5" font-family="Helvetica,sans-Serif" font-size="10.00">/stokes.cc</text>
</a>
</g>
</g>
<!-- Node20&#45;&gt;Node21 -->
<g id="edge20" class="edge">
<title>Node20&#45;&gt;Node21</title>
<path fill="none" stroke="midnightblue" d="M1464.55,-119.68C1491.5,-109.26 1525.04,-96.28 1550.12,-86.58"/>
<polygon fill="midnightblue" stroke="midnightblue" points="1463.02,-116.52 1454.95,-123.4 1465.54,-123.05 1463.02,-116.52"/>
</g>
<!-- Node22 -->
<g id="node22" class="node">
<title>Node22</title>
<g id="a_node22"><a xlink:href="apps_2serial_2stokes_8cc.html" target="_top" xlink:title=" ">
<polygon fill="none" stroke="black" points="1657.5,-62 1657.5,-81 1775.5,-81 1775.5,-62 1657.5,-62"/>
<text text-anchor="middle" x="1716.5" y="-69" font-family="Helvetica,sans-Serif" font-size="10.00">apps/serial/stokes.cc</text>
</a>
</g>
</g>
<!-- Node20&#45;&gt;Node22 -->
<g id="edge21" class="edge">
<title>Node20&#45;&gt;Node22</title>
<path fill="none" stroke="midnightblue" d="M1482.2,-123.07C1482.3,-123.04 1482.4,-123.02 1482.5,-123 1519.02,-114.92 1619.87,-93.24 1676.53,-81.07"/>
<polygon fill="midnightblue" stroke="midnightblue" points="1481.61,-119.61 1472.61,-125.2 1483.13,-126.44 1481.61,-119.61"/>
</g>
</g>
</svg>
