<?xml version="1.0" encoding="UTF-8" standalone="no"?>
<!DOCTYPE svg PUBLIC "-//W3C//DTD SVG 1.1//EN"
 "http://www.w3.org/Graphics/SVG/1.1/DTD/svg11.dtd">
<!-- Generated by graphviz version 2.43.0 (0)
 -->
<!-- Title: include/parsed_tools/grid_info.h Pages: 1 -->
<svg width="1911pt" height="307pt"
 viewBox="0.00 0.00 1910.50 307.00" xmlns="http://www.w3.org/2000/svg" xmlns:xlink="http://www.w3.org/1999/xlink">
<g id="graph0" class="graph" transform="scale(1 1) rotate(0) translate(4 303)">
<title>include/parsed_tools/grid_info.h</title>
<!-- Node1 -->
<g id="node1" class="node">
<title>Node1</title>
<g id="a_node1"><a xlink:title=" ">
<polygon fill="#bfbfbf" stroke="black" points="773,-268.5 773,-298.5 890,-298.5 890,-268.5 773,-268.5"/>
<text text-anchor="start" x="781" y="-286.5" font-family="Helvetica,sans-Serif" font-size="10.00">include/parsed_tools</text>
<text text-anchor="middle" x="831.5" y="-275.5" font-family="Helvetica,sans-Serif" font-size="10.00">/grid_info.h</text>
</a>
</g>
</g>
<!-- Node2 -->
<g id="node2" class="node">
<title>Node2</title>
<g id="a_node2"><a xlink:href="mesh__handler_8h.html" target="_top" xlink:title=" ">
<polygon fill="none" stroke="black" points="383,-207 383,-226 516,-226 516,-207 383,-207"/>
<text text-anchor="middle" x="449.5" y="-214" font-family="Helvetica,sans-Serif" font-size="10.00">include/mesh_handler.h</text>
</a>
</g>
</g>
<!-- Node1&#45;&gt;Node2 -->
<g id="edge1" class="edge">
<title>Node1&#45;&gt;Node2</title>
<path fill="none" stroke="midnightblue" d="M762.72,-270.8C686.95,-257.9 566.92,-237.48 499.58,-226.02"/>
<polygon fill="midnightblue" stroke="midnightblue" points="762.2,-274.26 772.65,-272.49 763.38,-267.36 762.2,-274.26"/>
</g>
<!-- Node4 -->
<g id="node4" class="node">
<title>Node4</title>
<g id="a_node4"><a xlink:href="boundary__conditions_8h.html" target="_top" xlink:title=" ">
<polygon fill="none" stroke="black" points="720.5,-201.5 720.5,-231.5 850.5,-231.5 850.5,-201.5 720.5,-201.5"/>
<text text-anchor="start" x="728.5" y="-219.5" font-family="Helvetica,sans-Serif" font-size="10.00">include/parsed_tools</text>
<text text-anchor="middle" x="785.5" y="-208.5" font-family="Helvetica,sans-Serif" font-size="10.00">/boundary_conditions.h</text>
</a>
</g>
</g>
<!-- Node1&#45;&gt;Node4 -->
<g id="edge3" class="edge">
<title>Node1&#45;&gt;Node4</title>
<path fill="none" stroke="midnightblue" d="M815.69,-260.16C808.98,-250.68 801.37,-239.92 795.46,-231.58"/>
<polygon fill="midnightblue" stroke="midnightblue" points="812.88,-262.26 821.52,-268.4 818.6,-258.21 812.88,-262.26"/>
</g>
<!-- Node29 -->
<g id="node29" class="node">
<title>Node29</title>
<g id="a_node29"><a xlink:href="boundary__conditions_8cc.html" target="_top" xlink:title=" ">
<polygon fill="none" stroke="black" points="1031,-140 1031,-159 1198,-159 1198,-140 1031,-140"/>
<text text-anchor="middle" x="1114.5" y="-147" font-family="Helvetica,sans-Serif" font-size="10.00">source/boundary_conditions.cc</text>
</a>
</g>
</g>
<!-- Node1&#45;&gt;Node29 -->
<g id="edge30" class="edge">
<title>Node1&#45;&gt;Node29</title>
<path fill="none" stroke="midnightblue" d="M844.24,-259.5C855.74,-240.88 874.4,-215.46 897.5,-201 924.22,-184.27 1004.89,-168.37 1059.97,-159.03"/>
<polygon fill="midnightblue" stroke="midnightblue" points="841.13,-257.88 839.03,-268.26 847.15,-261.45 841.13,-257.88"/>
</g>
<!-- Node30 -->
<g id="node30" class="node">
<title>Node30</title>
<g id="a_node30"><a xlink:href="dof__plotter_8cc.html" target="_top" xlink:title="Degrees of freedom plotter.">
<polygon fill="none" stroke="black" points="906.5,-207 906.5,-226 1016.5,-226 1016.5,-207 906.5,-207"/>
<text text-anchor="middle" x="961.5" y="-214" font-family="Helvetica,sans-Serif" font-size="10.00">apps/dof_plotter.cc</text>
</a>
</g>
</g>
<!-- Node1&#45;&gt;Node30 -->
<g id="edge31" class="edge">
<title>Node1&#45;&gt;Node30</title>
<path fill="none" stroke="midnightblue" d="M868.89,-263.8C893.82,-251.34 925.39,-235.56 944.49,-226.01"/>
<polygon fill="midnightblue" stroke="midnightblue" points="867.09,-260.79 859.71,-268.4 870.22,-267.05 867.09,-260.79"/>
</g>
<!-- Node3 -->
<g id="node3" class="node">
<title>Node3</title>
<g id="a_node3"><a xlink:href="mesh__handler_8cc.html" target="_top" xlink:title="Mesh generator and reader.">
<polygon fill="none" stroke="black" points="60,-140 60,-159 185,-159 185,-140 60,-140"/>
<text text-anchor="middle" x="122.5" y="-147" font-family="Helvetica,sans-Serif" font-size="10.00">apps/mesh_handler.cc</text>
</a>
</g>
</g>
<!-- Node2&#45;&gt;Node3 -->
<g id="edge2" class="edge">
<title>Node2&#45;&gt;Node3</title>
<path fill="none" stroke="midnightblue" d="M396.25,-205.01C344.66,-194.83 264.2,-178.92 194.5,-165 184.87,-163.08 174.52,-161 164.76,-159.03"/>
<polygon fill="midnightblue" stroke="midnightblue" points="395.69,-208.46 406.18,-206.96 397.04,-201.6 395.69,-208.46"/>
</g>
<!-- Node5 -->
<g id="node5" class="node">
<title>Node5</title>
<g id="a_node5"><a xlink:href="linear__problem_8h.html" target="_top" xlink:title=" ">
<polygon fill="none" stroke="black" points="866,-134.5 866,-164.5 975,-164.5 975,-134.5 866,-134.5"/>
<text text-anchor="start" x="874" y="-152.5" font-family="Helvetica,sans-Serif" font-size="10.00">include/pdes/linear</text>
<text text-anchor="middle" x="920.5" y="-141.5" font-family="Helvetica,sans-Serif" font-size="10.00">_problem.h</text>
</a>
</g>
</g>
<!-- Node4&#45;&gt;Node5 -->
<g id="edge4" class="edge">
<title>Node4&#45;&gt;Node5</title>
<path fill="none" stroke="midnightblue" d="M823.94,-196.99C845.34,-186.69 871.55,-174.07 891.26,-164.58"/>
<polygon fill="midnightblue" stroke="midnightblue" points="822.28,-193.9 814.79,-201.4 825.32,-200.21 822.28,-193.9"/>
</g>
<!-- Node13 -->
<g id="node13" class="node">
<title>Node13</title>
<g id="a_node13"><a xlink:href="distributed__lagrange_8h.html" target="_top" xlink:title=" ">
<polygon fill="none" stroke="black" points="1521,-67.5 1521,-97.5 1650,-97.5 1650,-67.5 1521,-67.5"/>
<text text-anchor="start" x="1529" y="-85.5" font-family="Helvetica,sans-Serif" font-size="10.00">include/pdes/serial</text>
<text text-anchor="middle" x="1585.5" y="-74.5" font-family="Helvetica,sans-Serif" font-size="10.00">/distributed_lagrange.h</text>
</a>
</g>
</g>
<!-- Node4&#45;&gt;Node13 -->
<g id="edge19" class="edge">
<title>Node4&#45;&gt;Node13</title>
<path fill="none" stroke="midnightblue" d="M860.68,-199.75C907.12,-189.37 961.84,-175.75 983.5,-165 1003.33,-155.16 1001.94,-142.22 1022.5,-134 1033.96,-129.42 1375.34,-100.83 1520.83,-88.81"/>
<polygon fill="midnightblue" stroke="midnightblue" points="859.91,-196.34 850.91,-201.92 861.43,-203.17 859.91,-196.34"/>
</g>
<!-- Node20 -->
<g id="node20" class="node">
<title>Node20</title>
<g id="a_node20"><a xlink:href="serial_2poisson_8h.html" target="_top" xlink:title=" ">
<polygon fill="none" stroke="black" points="203.5,-134.5 203.5,-164.5 311.5,-164.5 311.5,-134.5 203.5,-134.5"/>
<text text-anchor="start" x="211.5" y="-152.5" font-family="Helvetica,sans-Serif" font-size="10.00">include/pdes/serial</text>
<text text-anchor="middle" x="257.5" y="-141.5" font-family="Helvetica,sans-Serif" font-size="10.00">/poisson.h</text>
</a>
</g>
</g>
<!-- Node4&#45;&gt;Node20 -->
<g id="edge20" class="edge">
<title>Node4&#45;&gt;Node20</title>
<path fill="none" stroke="midnightblue" d="M710.33,-206.25C602.43,-192.96 406.24,-168.81 311.52,-157.15"/>
<polygon fill="midnightblue" stroke="midnightblue" points="710.14,-209.75 720.49,-207.5 710.99,-202.8 710.14,-209.75"/>
</g>
<!-- Node23 -->
<g id="node23" class="node">
<title>Node23</title>
<g id="a_node23"><a xlink:href="reduced__lagrange_8h.html" target="_top" xlink:title=" ">
<polygon fill="none" stroke="black" points="401.5,-134.5 401.5,-164.5 517.5,-164.5 517.5,-134.5 401.5,-134.5"/>
<text text-anchor="start" x="409.5" y="-152.5" font-family="Helvetica,sans-Serif" font-size="10.00">include/pdes/serial</text>
<text text-anchor="middle" x="459.5" y="-141.5" font-family="Helvetica,sans-Serif" font-size="10.00">/reduced_lagrange.h</text>
</a>
</g>
</g>
<!-- Node4&#45;&gt;Node23 -->
<g id="edge23" class="edge">
<title>Node4&#45;&gt;Node23</title>
<path fill="none" stroke="midnightblue" d="M710.37,-200.52C651.76,-188.83 571.54,-172.84 517.74,-162.11"/>
<polygon fill="midnightblue" stroke="midnightblue" points="709.82,-203.98 720.31,-202.5 711.19,-197.11 709.82,-203.98"/>
</g>
<!-- Node26 -->
<g id="node26" class="node">
<title>Node26</title>
<g id="a_node26"><a xlink:href="serial_2stokes_8h.html" target="_top" xlink:title=" ">
<polygon fill="none" stroke="black" points="662.5,-134.5 662.5,-164.5 770.5,-164.5 770.5,-134.5 662.5,-134.5"/>
<text text-anchor="start" x="670.5" y="-152.5" font-family="Helvetica,sans-Serif" font-size="10.00">include/pdes/serial</text>
<text text-anchor="middle" x="716.5" y="-141.5" font-family="Helvetica,sans-Serif" font-size="10.00">/stokes.h</text>
</a>
</g>
</g>
<!-- Node4&#45;&gt;Node26 -->
<g id="edge26" class="edge">
<title>Node4&#45;&gt;Node26</title>
<path fill="none" stroke="midnightblue" d="M763.01,-194.31C752.66,-184.56 740.66,-173.26 731.44,-164.58"/>
<polygon fill="midnightblue" stroke="midnightblue" points="760.85,-197.09 770.53,-201.4 765.65,-191.99 760.85,-197.09"/>
</g>
<!-- Node4&#45;&gt;Node29 -->
<g id="edge29" class="edge">
<title>Node4&#45;&gt;Node29</title>
<path fill="none" stroke="midnightblue" d="M861.1,-200.56C926.21,-187.7 1017.87,-169.59 1071.25,-159.05"/>
<polygon fill="midnightblue" stroke="midnightblue" points="860.03,-197.21 850.89,-202.58 861.38,-204.08 860.03,-197.21"/>
</g>
<!-- Node6 -->
<g id="node6" class="node">
<title>Node6</title>
<g id="a_node6"><a xlink:href="linear__elasticity_8h.html" target="_top" xlink:title=" ">
<polygon fill="none" stroke="black" points="1291,-67.5 1291,-97.5 1400,-97.5 1400,-67.5 1291,-67.5"/>
<text text-anchor="start" x="1299" y="-85.5" font-family="Helvetica,sans-Serif" font-size="10.00">include/pdes/linear</text>
<text text-anchor="middle" x="1345.5" y="-74.5" font-family="Helvetica,sans-Serif" font-size="10.00">_elasticity.h</text>
</a>
</g>
</g>
<!-- Node5&#45;&gt;Node6 -->
<g id="edge5" class="edge">
<title>Node5&#45;&gt;Node6</title>
<path fill="none" stroke="midnightblue" d="M985.05,-134.8C986.54,-134.52 988.03,-134.26 989.5,-134 1095.71,-115.33 1220.69,-98.86 1290.74,-90.12"/>
<polygon fill="midnightblue" stroke="midnightblue" points="984.22,-131.39 975.05,-136.69 985.52,-138.27 984.22,-131.39"/>
</g>
<!-- Node10 -->
<g id="node10" class="node">
<title>Node10</title>
<g id="a_node10"><a xlink:href="mpi_2poisson_8h.html" target="_top" xlink:title=" ">
<polygon fill="none" stroke="black" points="1058,-73 1058,-92 1207,-92 1207,-73 1058,-73"/>
<text text-anchor="middle" x="1132.5" y="-80" font-family="Helvetica,sans-Serif" font-size="10.00">include/pdes/mpi/poisson.h</text>
</a>
</g>
</g>
<!-- Node5&#45;&gt;Node10 -->
<g id="edge9" class="edge">
<title>Node5&#45;&gt;Node10</title>
<path fill="none" stroke="midnightblue" d="M975.91,-131.51C1017.29,-118.83 1072.09,-102.02 1104.68,-92.03"/>
<polygon fill="midnightblue" stroke="midnightblue" points="974.77,-128.2 966.24,-134.48 976.83,-134.89 974.77,-128.2"/>
</g>
<!-- Node5&#45;&gt;Node13 -->
<g id="edge12" class="edge">
<title>Node5&#45;&gt;Node13</title>
<path fill="none" stroke="midnightblue" d="M985.03,-134.69C986.53,-134.45 988.02,-134.22 989.5,-134 1002.53,-132.09 1369.21,-101.49 1520.84,-88.87"/>
<polygon fill="midnightblue" stroke="midnightblue" points="984.27,-131.26 975,-136.4 985.45,-138.16 984.27,-131.26"/>
</g>
<!-- Node16 -->
<g id="node16" class="node">
<title>Node16</title>
<g id="a_node16"><a xlink:href="stokes_8h.html" target="_top" xlink:title=" ">
<polygon fill="none" stroke="black" points="793.5,-73 793.5,-92 915.5,-92 915.5,-73 793.5,-73"/>
<text text-anchor="middle" x="854.5" y="-80" font-family="Helvetica,sans-Serif" font-size="10.00">include/pdes/stokes.h</text>
</a>
</g>
</g>
<!-- Node5&#45;&gt;Node16 -->
<g id="edge15" class="edge">
<title>Node5&#45;&gt;Node16</title>
<path fill="none" stroke="midnightblue" d="M899.01,-127.34C886.89,-115.4 872.41,-101.14 863.33,-92.19"/>
<polygon fill="midnightblue" stroke="midnightblue" points="896.6,-129.87 906.18,-134.4 901.51,-124.89 896.6,-129.87"/>
</g>
<!-- Node19 -->
<g id="node19" class="node">
<title>Node19</title>
<g id="a_node19"><a xlink:href="linear__problem_8cc.html" target="_top" xlink:title=" ">
<polygon fill="none" stroke="black" points="933.5,-67.5 933.5,-97.5 1039.5,-97.5 1039.5,-67.5 933.5,-67.5"/>
<text text-anchor="start" x="941.5" y="-85.5" font-family="Helvetica,sans-Serif" font-size="10.00">source/pdes/linear</text>
<text text-anchor="middle" x="986.5" y="-74.5" font-family="Helvetica,sans-Serif" font-size="10.00">_problem.cc</text>
</a>
</g>
</g>
<!-- Node5&#45;&gt;Node19 -->
<g id="edge18" class="edge">
<title>Node5&#45;&gt;Node19</title>
<path fill="none" stroke="midnightblue" d="M942.01,-127.31C951.91,-117.56 963.39,-106.26 972.21,-97.58"/>
<polygon fill="midnightblue" stroke="midnightblue" points="939.49,-124.89 934.82,-134.4 944.4,-129.87 939.49,-124.89"/>
</g>
<!-- Node7 -->
<g id="node7" class="node">
<title>Node7</title>
<g id="a_node7"><a xlink:href="source_2pdes_2linear__elasticity_8cc.html" target="_top" xlink:title=" ">
<polygon fill="none" stroke="black" points="1208.5,-0.5 1208.5,-30.5 1314.5,-30.5 1314.5,-0.5 1208.5,-0.5"/>
<text text-anchor="start" x="1216.5" y="-18.5" font-family="Helvetica,sans-Serif" font-size="10.00">source/pdes/linear</text>
<text text-anchor="middle" x="1261.5" y="-7.5" font-family="Helvetica,sans-Serif" font-size="10.00">_elasticity.cc</text>
</a>
</g>
</g>
<!-- Node6&#45;&gt;Node7 -->
<g id="edge6" class="edge">
<title>Node6&#45;&gt;Node7</title>
<path fill="none" stroke="midnightblue" d="M1319.22,-61.17C1306.38,-51.23 1291.24,-39.51 1279.69,-30.58"/>
<polygon fill="midnightblue" stroke="midnightblue" points="1317.22,-64.04 1327.27,-67.4 1321.51,-58.51 1317.22,-64.04"/>
</g>
<!-- Node8 -->
<g id="node8" class="node">
<title>Node8</title>
<g id="a_node8"><a xlink:href="apps_2mpi_2linear__elasticity_8cc.html" target="_top" xlink:title=" ">
<polygon fill="none" stroke="black" points="1333,-6 1333,-25 1488,-25 1488,-6 1333,-6"/>
<text text-anchor="middle" x="1410.5" y="-13" font-family="Helvetica,sans-Serif" font-size="10.00">apps/mpi/linear_elasticity.cc</text>
</a>
</g>
</g>
<!-- Node6&#45;&gt;Node8 -->
<g id="edge7" class="edge">
<title>Node6&#45;&gt;Node8</title>
<path fill="none" stroke="midnightblue" d="M1367,-60C1378.87,-48.13 1392.95,-34.05 1401.81,-25.19"/>
<polygon fill="midnightblue" stroke="midnightblue" points="1364.2,-57.85 1359.6,-67.4 1369.15,-62.8 1364.2,-57.85"/>
</g>
<!-- Node9 -->
<g id="node9" class="node">
<title>Node9</title>
<g id="a_node9"><a xlink:href="apps_2serial_2linear__elasticity_8cc.html" target="_top" xlink:title=" ">
<polygon fill="none" stroke="black" points="1506,-0.5 1506,-30.5 1607,-30.5 1607,-0.5 1506,-0.5"/>
<text text-anchor="start" x="1514" y="-18.5" font-family="Helvetica,sans-Serif" font-size="10.00">apps/serial/linear</text>
<text text-anchor="middle" x="1556.5" y="-7.5" font-family="Helvetica,sans-Serif" font-size="10.00">_elasticity.cc</text>
</a>
</g>
</g>
<!-- Node6&#45;&gt;Node9 -->
<g id="edge8" class="edge">
<title>Node6&#45;&gt;Node9</title>
<path fill="none" stroke="midnightblue" d="M1400.87,-64.44C1435.07,-53.91 1478.43,-40.55 1510.69,-30.61"/>
<polygon fill="midnightblue" stroke="midnightblue" points="1399.55,-61.19 1391.02,-67.48 1401.61,-67.88 1399.55,-61.19"/>
</g>
<!-- Node11 -->
<g id="node11" class="node">
<title>Node11</title>
<g id="a_node11"><a xlink:href="source_2pdes_2mpi_2poisson_8cc.html" target="_top" xlink:title=" ">
<polygon fill="none" stroke="black" points="905,-6 905,-25 1056,-25 1056,-6 905,-6"/>
<text text-anchor="middle" x="980.5" y="-13" font-family="Helvetica,sans-Serif" font-size="10.00">source/pdes/mpi/poisson.cc</text>
</a>
</g>
</g>
<!-- Node10&#45;&gt;Node11 -->
<g id="edge10" class="edge">
<title>Node10&#45;&gt;Node11</title>
<path fill="none" stroke="midnightblue" d="M1102.76,-68.78C1072.66,-55.91 1026.93,-36.35 1000.77,-25.17"/>
<polygon fill="midnightblue" stroke="midnightblue" points="1101.74,-72.15 1112.32,-72.87 1104.5,-65.72 1101.74,-72.15"/>
</g>
<!-- Node12 -->
<g id="node12" class="node">
<title>Node12</title>
<g id="a_node12"><a xlink:href="apps_2mpi_2poisson_8cc.html" target="_top" xlink:title=" ">
<polygon fill="none" stroke="black" points="1074.5,-6 1074.5,-25 1190.5,-25 1190.5,-6 1074.5,-6"/>
<text text-anchor="middle" x="1132.5" y="-13" font-family="Helvetica,sans-Serif" font-size="10.00">apps/mpi/poisson.cc</text>
</a>
</g>
</g>
<!-- Node10&#45;&gt;Node12 -->
<g id="edge11" class="edge">
<title>Node10&#45;&gt;Node12</title>
<path fill="none" stroke="midnightblue" d="M1132.5,-62.54C1132.5,-50.17 1132.5,-34.62 1132.5,-25.13"/>
<polygon fill="midnightblue" stroke="midnightblue" points="1129,-62.73 1132.5,-72.73 1136,-62.73 1129,-62.73"/>
</g>
<!-- Node14 -->
<g id="node14" class="node">
<title>Node14</title>
<g id="a_node14"><a xlink:href="source_2pdes_2serial_2distributed__lagrange_8cc.html" target="_top" xlink:title=" ">
<polygon fill="none" stroke="black" points="1768.5,-0.5 1768.5,-30.5 1902.5,-30.5 1902.5,-0.5 1768.5,-0.5"/>
<text text-anchor="start" x="1776.5" y="-18.5" font-family="Helvetica,sans-Serif" font-size="10.00">source/pdes/serial</text>
<text text-anchor="middle" x="1835.5" y="-7.5" font-family="Helvetica,sans-Serif" font-size="10.00">/distributed_lagrange.cc</text>
</a>
</g>
</g>
<!-- Node13&#45;&gt;Node14 -->
<g id="edge13" class="edge">
<title>Node13&#45;&gt;Node14</title>
<path fill="none" stroke="midnightblue" d="M1649.28,-64.92C1690.08,-54.31 1742.43,-40.7 1781.23,-30.61"/>
<polygon fill="midnightblue" stroke="midnightblue" points="1648.24,-61.57 1639.44,-67.48 1650,-68.35 1648.24,-61.57"/>
</g>
<!-- Node15 -->
<g id="node15" class="node">
<title>Node15</title>
<g id="a_node15"><a xlink:href="apps_2serial_2distributed__lagrange_8cc.html" target="_top" xlink:title=" ">
<polygon fill="none" stroke="black" points="1625,-0.5 1625,-30.5 1750,-30.5 1750,-0.5 1625,-0.5"/>
<text text-anchor="start" x="1633" y="-18.5" font-family="Helvetica,sans-Serif" font-size="10.00">apps/serial/distributed</text>
<text text-anchor="middle" x="1687.5" y="-7.5" font-family="Helvetica,sans-Serif" font-size="10.00">_lagrange.cc</text>
</a>
</g>
</g>
<!-- Node13&#45;&gt;Node15 -->
<g id="edge14" class="edge">
<title>Node13&#45;&gt;Node15</title>
<path fill="none" stroke="midnightblue" d="M1616.08,-62.02C1631.95,-51.9 1650.98,-39.77 1665.41,-30.58"/>
<polygon fill="midnightblue" stroke="midnightblue" points="1614.18,-59.07 1607.63,-67.4 1617.95,-64.97 1614.18,-59.07"/>
</g>
<!-- Node17 -->
<g id="node17" class="node">
<title>Node17</title>
<g id="a_node17"><a xlink:href="source_2pdes_2stokes_8cc.html" target="_top" xlink:title=" ">
<polygon fill="none" stroke="black" points="635,-6 635,-25 758,-25 758,-6 635,-6"/>
<text text-anchor="middle" x="696.5" y="-13" font-family="Helvetica,sans-Serif" font-size="10.00">source/pdes/stokes.cc</text>
</a>
</g>
</g>
<!-- Node16&#45;&gt;Node17 -->
<g id="edge16" class="edge">
<title>Node16&#45;&gt;Node17</title>
<path fill="none" stroke="midnightblue" d="M823.99,-68.95C792.71,-56.08 744.88,-36.4 717.57,-25.17"/>
<polygon fill="midnightblue" stroke="midnightblue" points="822.94,-72.3 833.52,-72.87 825.6,-65.83 822.94,-72.3"/>
</g>
<!-- Node18 -->
<g id="node18" class="node">
<title>Node18</title>
<g id="a_node18"><a xlink:href="apps_2mpi_2stokes_8cc.html" target="_top" xlink:title=" ">
<polygon fill="none" stroke="black" points="776.5,-6 776.5,-25 886.5,-25 886.5,-6 776.5,-6"/>
<text text-anchor="middle" x="831.5" y="-13" font-family="Helvetica,sans-Serif" font-size="10.00">apps/mpi/stokes.cc</text>
</a>
</g>
</g>
<!-- Node16&#45;&gt;Node18 -->
<g id="edge17" class="edge">
<title>Node16&#45;&gt;Node18</title>
<path fill="none" stroke="midnightblue" d="M848.06,-63.29C843.64,-50.81 837.98,-34.81 834.55,-25.13"/>
<polygon fill="midnightblue" stroke="midnightblue" points="844.76,-64.47 851.4,-72.73 851.36,-62.14 844.76,-64.47"/>
</g>
<!-- Node21 -->
<g id="node21" class="node">
<title>Node21</title>
<g id="a_node21"><a xlink:href="source_2pdes_2serial_2poisson_8cc.html" target="_top" xlink:title=" ">
<polygon fill="none" stroke="black" points="0,-67.5 0,-97.5 105,-97.5 105,-67.5 0,-67.5"/>
<text text-anchor="start" x="8" y="-85.5" font-family="Helvetica,sans-Serif" font-size="10.00">source/pdes/serial</text>
<text text-anchor="middle" x="52.5" y="-74.5" font-family="Helvetica,sans-Serif" font-size="10.00">/poisson.cc</text>
</a>
</g>
</g>
<!-- Node20&#45;&gt;Node21 -->
<g id="edge21" class="edge">
<title>Node20&#45;&gt;Node21</title>
<path fill="none" stroke="midnightblue" d="M203.71,-131.44C170.48,-120.91 128.35,-107.55 97,-97.61"/>
<polygon fill="midnightblue" stroke="midnightblue" points="202.68,-134.79 213.27,-134.48 204.8,-128.12 202.68,-134.79"/>
</g>
<!-- Node22 -->
<g id="node22" class="node">
<title>Node22</title>
<g id="a_node22"><a xlink:href="apps_2serial_2poisson_8cc.html" target="_top" xlink:title=" ">
<polygon fill="none" stroke="black" points="123.5,-73 123.5,-92 247.5,-92 247.5,-73 123.5,-73"/>
<text text-anchor="middle" x="185.5" y="-80" font-family="Helvetica,sans-Serif" font-size="10.00">apps/serial/poisson.cc</text>
</a>
</g>
</g>
<!-- Node20&#45;&gt;Node22 -->
<g id="edge22" class="edge">
<title>Node20&#45;&gt;Node22</title>
<path fill="none" stroke="midnightblue" d="M234.43,-127.67C221.14,-115.67 205.13,-101.22 195.13,-92.19"/>
<polygon fill="midnightblue" stroke="midnightblue" points="232.11,-130.29 241.88,-134.4 236.8,-125.1 232.11,-130.29"/>
</g>
<!-- Node24 -->
<g id="node24" class="node">
<title>Node24</title>
<g id="a_node24"><a xlink:href="source_2pdes_2serial_2reduced__lagrange_8cc.html" target="_top" xlink:title=" ">
<polygon fill="none" stroke="black" points="265.5,-67.5 265.5,-97.5 385.5,-97.5 385.5,-67.5 265.5,-67.5"/>
<text text-anchor="start" x="273.5" y="-85.5" font-family="Helvetica,sans-Serif" font-size="10.00">source/pdes/serial</text>
<text text-anchor="middle" x="325.5" y="-74.5" font-family="Helvetica,sans-Serif" font-size="10.00">/reduced_lagrange.cc</text>
</a>
</g>
</g>
<!-- Node23&#45;&gt;Node24 -->
<g id="edge24" class="edge">
<title>Node23&#45;&gt;Node24</title>
<path fill="none" stroke="midnightblue" d="M421.35,-129.99C400.11,-119.69 374.09,-107.07 354.52,-97.58"/>
<polygon fill="midnightblue" stroke="midnightblue" points="419.9,-133.18 430.42,-134.4 422.95,-126.88 419.9,-133.18"/>
</g>
<!-- Node25 -->
<g id="node25" class="node">
<title>Node25</title>
<g id="a_node25"><a xlink:href="apps_2serial_2reduced__lagrange_8cc.html" target="_top" xlink:title=" ">
<polygon fill="none" stroke="black" points="403.5,-67.5 403.5,-97.5 515.5,-97.5 515.5,-67.5 403.5,-67.5"/>
<text text-anchor="start" x="411.5" y="-85.5" font-family="Helvetica,sans-Serif" font-size="10.00">apps/serial/reduced</text>
<text text-anchor="middle" x="459.5" y="-74.5" font-family="Helvetica,sans-Serif" font-size="10.00">_lagrange.cc</text>
</a>
</g>
</g>
<!-- Node23&#45;&gt;Node25 -->
<g id="edge25" class="edge">
<title>Node23&#45;&gt;Node25</title>
<path fill="none" stroke="midnightblue" d="M459.5,-124.11C459.5,-115.15 459.5,-105.32 459.5,-97.58"/>
<polygon fill="midnightblue" stroke="midnightblue" points="456,-124.4 459.5,-134.4 463,-124.4 456,-124.4"/>
</g>
<!-- Node27 -->
<g id="node27" class="node">
<title>Node27</title>
<g id="a_node27"><a xlink:href="source_2pdes_2serial_2stokes_8cc.html" target="_top" xlink:title=" ">
<polygon fill="none" stroke="black" points="534,-67.5 534,-97.5 639,-97.5 639,-67.5 534,-67.5"/>
<text text-anchor="start" x="542" y="-85.5" font-family="Helvetica,sans-Serif" font-size="10.00">source/pdes/serial</text>
<text text-anchor="middle" x="586.5" y="-74.5" font-family="Helvetica,sans-Serif" font-size="10.00">/stokes.cc</text>
</a>
</g>
</g>
<!-- Node26&#45;&gt;Node27 -->
<g id="edge27" class="edge">
<title>Node26&#45;&gt;Node27</title>
<path fill="none" stroke="midnightblue" d="M679.21,-129.85C658.65,-119.58 633.55,-107.03 614.65,-97.58"/>
<polygon fill="midnightblue" stroke="midnightblue" points="677.78,-133.05 688.29,-134.4 680.91,-126.79 677.78,-133.05"/>
</g>
<!-- Node28 -->
<g id="node28" class="node">
<title>Node28</title>
<g id="a_node28"><a xlink:href="apps_2serial_2stokes_8cc.html" target="_top" xlink:title=" ">
<polygon fill="none" stroke="black" points="657.5,-73 657.5,-92 775.5,-92 775.5,-73 657.5,-73"/>
<text text-anchor="middle" x="716.5" y="-80" font-family="Helvetica,sans-Serif" font-size="10.00">apps/serial/stokes.cc</text>
</a>
</g>
</g>
<!-- Node26&#45;&gt;Node28 -->
<g id="edge28" class="edge">
<title>Node26&#45;&gt;Node28</title>
<path fill="none" stroke="midnightblue" d="M716.5,-124.25C716.5,-113.02 716.5,-100.38 716.5,-92.19"/>
<polygon fill="midnightblue" stroke="midnightblue" points="713,-124.4 716.5,-134.4 720,-124.4 713,-124.4"/>
</g>
</g>
</svg>
