<?xml version="1.0" encoding="UTF-8" standalone="no"?>
<!DOCTYPE svg PUBLIC "-//W3C//DTD SVG 1.1//EN"
 "http://www.w3.org/Graphics/SVG/1.1/DTD/svg11.dtd">
<!-- Generated by graphviz version 2.43.0 (0)
 -->
<!-- Title: include/parsed_tools/grid_info.h Pages: 1 -->
<svg width="824pt" height="240pt"
 viewBox="0.00 0.00 823.50 240.00" xmlns="http://www.w3.org/2000/svg" xmlns:xlink="http://www.w3.org/1999/xlink">
<g id="graph0" class="graph" transform="scale(1 1) rotate(0) translate(4 236)">
<title>include/parsed_tools/grid_info.h</title>
<!-- Node1 -->
<g id="node1" class="node">
<title>Node1</title>
<g id="a_node1"><a xlink:title=" ">
<polygon fill="#bfbfbf" stroke="black" points="181,-201.5 181,-231.5 298,-231.5 298,-201.5 181,-201.5"/>
<text text-anchor="start" x="189" y="-219.5" font-family="Helvetica,sans-Serif" font-size="10.00">include/parsed_tools</text>
<text text-anchor="middle" x="239.5" y="-208.5" font-family="Helvetica,sans-Serif" font-size="10.00">/grid_info.h</text>
</a>
</g>
</g>
<!-- Node2 -->
<g id="node2" class="node">
<title>Node2</title>
<g id="a_node2"><a xlink:href="boundary__conditions_8cc.html" target="_top" xlink:title=" ">
<polygon fill="none" stroke="black" points="0,-73 0,-92 167,-92 167,-73 0,-73"/>
<text text-anchor="middle" x="83.5" y="-80" font-family="Helvetica,sans-Serif" font-size="10.00">source/boundary_conditions.cc</text>
</a>
</g>
</g>
<!-- Node1&#45;&gt;Node2 -->
<g id="edge1" class="edge">
<title>Node1&#45;&gt;Node2</title>
<path fill="none" stroke="midnightblue" d="M208.19,-195.97C194.65,-187.06 178.88,-176.05 165.5,-165 136.1,-140.71 105.17,-107.58 91.18,-92.11"/>
<polygon fill="midnightblue" stroke="midnightblue" points="206.42,-198.99 216.71,-201.5 210.23,-193.12 206.42,-198.99"/>
</g>
<!-- Node3 -->
<g id="node3" class="node">
<title>Node3</title>
<g id="a_node3"><a xlink:href="boundary__conditions_8h.html" target="_top" xlink:title=" ">
<polygon fill="none" stroke="black" points="174.5,-134.5 174.5,-164.5 304.5,-164.5 304.5,-134.5 174.5,-134.5"/>
<text text-anchor="start" x="182.5" y="-152.5" font-family="Helvetica,sans-Serif" font-size="10.00">include/parsed_tools</text>
<text text-anchor="middle" x="239.5" y="-141.5" font-family="Helvetica,sans-Serif" font-size="10.00">/boundary_conditions.h</text>
</a>
</g>
</g>
<!-- Node1&#45;&gt;Node3 -->
<g id="edge2" class="edge">
<title>Node1&#45;&gt;Node3</title>
<path fill="none" stroke="midnightblue" d="M239.5,-191.11C239.5,-182.15 239.5,-172.32 239.5,-164.58"/>
<polygon fill="midnightblue" stroke="midnightblue" points="236,-191.4 239.5,-201.4 243,-191.4 236,-191.4"/>
</g>
<!-- Node13 -->
<g id="node13" class="node">
<title>Node13</title>
<g id="a_node13"><a xlink:href="mesh__handler_8cc.html" target="_top" xlink:title=" ">
<polygon fill="none" stroke="black" points="323,-140 323,-159 448,-159 448,-140 323,-140"/>
<text text-anchor="middle" x="385.5" y="-147" font-family="Helvetica,sans-Serif" font-size="10.00">apps/mesh_handler.cc</text>
</a>
</g>
</g>
<!-- Node1&#45;&gt;Node13 -->
<g id="edge13" class="edge">
<title>Node1&#45;&gt;Node13</title>
<path fill="none" stroke="midnightblue" d="M280.39,-197.3C308.55,-184.76 344.66,-168.68 366.39,-159.01"/>
<polygon fill="midnightblue" stroke="midnightblue" points="278.89,-194.13 271.18,-201.4 281.74,-200.53 278.89,-194.13"/>
</g>
<!-- Node3&#45;&gt;Node2 -->
<g id="edge3" class="edge">
<title>Node3&#45;&gt;Node2</title>
<path fill="none" stroke="midnightblue" d="M196.2,-130.46C166.06,-117.9 127.24,-101.72 103.92,-92.01"/>
<polygon fill="midnightblue" stroke="midnightblue" points="195.07,-133.78 205.65,-134.4 197.77,-127.32 195.07,-133.78"/>
</g>
<!-- Node4 -->
<g id="node4" class="node">
<title>Node4</title>
<g id="a_node4"><a xlink:href="linear__elasticity_8h.html" target="_top" xlink:title=" ">
<polygon fill="none" stroke="black" points="185.5,-67.5 185.5,-97.5 293.5,-97.5 293.5,-67.5 185.5,-67.5"/>
<text text-anchor="start" x="193.5" y="-85.5" font-family="Helvetica,sans-Serif" font-size="10.00">include/pdes/serial</text>
<text text-anchor="middle" x="239.5" y="-74.5" font-family="Helvetica,sans-Serif" font-size="10.00">/linear_elasticity.h</text>
</a>
</g>
</g>
<!-- Node3&#45;&gt;Node4 -->
<g id="edge4" class="edge">
<title>Node3&#45;&gt;Node4</title>
<path fill="none" stroke="midnightblue" d="M239.5,-124.11C239.5,-115.15 239.5,-105.32 239.5,-97.58"/>
<polygon fill="midnightblue" stroke="midnightblue" points="236,-124.4 239.5,-134.4 243,-124.4 236,-124.4"/>
</g>
<!-- Node7 -->
<g id="node7" class="node">
<title>Node7</title>
<g id="a_node7"><a xlink:href="poisson_8h.html" target="_top" xlink:title=" ">
<polygon fill="none" stroke="black" points="311.5,-67.5 311.5,-97.5 419.5,-97.5 419.5,-67.5 311.5,-67.5"/>
<text text-anchor="start" x="319.5" y="-85.5" font-family="Helvetica,sans-Serif" font-size="10.00">include/pdes/serial</text>
<text text-anchor="middle" x="365.5" y="-74.5" font-family="Helvetica,sans-Serif" font-size="10.00">/poisson.h</text>
</a>
</g>
</g>
<!-- Node3&#45;&gt;Node7 -->
<g id="edge7" class="edge">
<title>Node3&#45;&gt;Node7</title>
<path fill="none" stroke="midnightblue" d="M275.92,-129.71C295.79,-119.46 319.98,-106.98 338.21,-97.58"/>
<polygon fill="midnightblue" stroke="midnightblue" points="274.12,-126.7 266.84,-134.4 277.33,-132.92 274.12,-126.7"/>
</g>
<!-- Node10 -->
<g id="node10" class="node">
<title>Node10</title>
<g id="a_node10"><a xlink:href="stokes_8h.html" target="_top" xlink:title=" ">
<polygon fill="none" stroke="black" points="572.5,-67.5 572.5,-97.5 680.5,-97.5 680.5,-67.5 572.5,-67.5"/>
<text text-anchor="start" x="580.5" y="-85.5" font-family="Helvetica,sans-Serif" font-size="10.00">include/pdes/serial</text>
<text text-anchor="middle" x="626.5" y="-74.5" font-family="Helvetica,sans-Serif" font-size="10.00">/stokes.h</text>
</a>
</g>
</g>
<!-- Node3&#45;&gt;Node10 -->
<g id="edge10" class="edge">
<title>Node3&#45;&gt;Node10</title>
<path fill="none" stroke="midnightblue" d="M314.76,-133.81C411.1,-116.72 512.01,-100.91 572.4,-91.66"/>
<polygon fill="midnightblue" stroke="midnightblue" points="314.08,-130.37 304.85,-135.57 315.31,-137.26 314.08,-130.37"/>
</g>
<!-- Node5 -->
<g id="node5" class="node">
<title>Node5</title>
<g id="a_node5"><a xlink:href="source_2pdes_2serial_2linear__elasticity_8cc.html" target="_top" xlink:title=" ">
<polygon fill="none" stroke="black" points="60.5,-0.5 60.5,-30.5 170.5,-30.5 170.5,-0.5 60.5,-0.5"/>
<text text-anchor="start" x="68.5" y="-18.5" font-family="Helvetica,sans-Serif" font-size="10.00">source/pdes/serial</text>
<text text-anchor="middle" x="115.5" y="-7.5" font-family="Helvetica,sans-Serif" font-size="10.00">/linear_elasticity.cc</text>
</a>
</g>
</g>
<!-- Node4&#45;&gt;Node5 -->
<g id="edge5" class="edge">
<title>Node4&#45;&gt;Node5</title>
<path fill="none" stroke="midnightblue" d="M203.66,-62.71C184.11,-52.46 160.3,-39.98 142.35,-30.58"/>
<polygon fill="midnightblue" stroke="midnightblue" points="202.11,-65.85 212.59,-67.4 205.36,-59.65 202.11,-65.85"/>
</g>
<!-- Node6 -->
<g id="node6" class="node">
<title>Node6</title>
<g id="a_node6"><a xlink:href="apps_2serial_2linear__elasticity_8cc.html" target="_top" xlink:title=" ">
<polygon fill="none" stroke="black" points="189,-0.5 189,-30.5 290,-30.5 290,-0.5 189,-0.5"/>
<text text-anchor="start" x="197" y="-18.5" font-family="Helvetica,sans-Serif" font-size="10.00">apps/serial/linear</text>
<text text-anchor="middle" x="239.5" y="-7.5" font-family="Helvetica,sans-Serif" font-size="10.00">_elasticity.cc</text>
</a>
</g>
</g>
<!-- Node4&#45;&gt;Node6 -->
<g id="edge6" class="edge">
<title>Node4&#45;&gt;Node6</title>
<path fill="none" stroke="midnightblue" d="M239.5,-57.11C239.5,-48.15 239.5,-38.32 239.5,-30.58"/>
<polygon fill="midnightblue" stroke="midnightblue" points="236,-57.4 239.5,-67.4 243,-57.4 236,-57.4"/>
</g>
<!-- Node8 -->
<g id="node8" class="node">
<title>Node8</title>
<g id="a_node8"><a xlink:href="source_2pdes_2serial_2poisson_8cc.html" target="_top" xlink:title=" ">
<polygon fill="none" stroke="black" points="308,-0.5 308,-30.5 413,-30.5 413,-0.5 308,-0.5"/>
<text text-anchor="start" x="316" y="-18.5" font-family="Helvetica,sans-Serif" font-size="10.00">source/pdes/serial</text>
<text text-anchor="middle" x="360.5" y="-7.5" font-family="Helvetica,sans-Serif" font-size="10.00">/poisson.cc</text>
</a>
</g>
</g>
<!-- Node7&#45;&gt;Node8 -->
<g id="edge8" class="edge">
<title>Node7&#45;&gt;Node8</title>
<path fill="none" stroke="midnightblue" d="M363.65,-57.4C362.95,-48.37 362.19,-38.41 361.58,-30.58"/>
<polygon fill="midnightblue" stroke="midnightblue" points="360.16,-57.69 364.42,-67.4 367.14,-57.16 360.16,-57.69"/>
</g>
<!-- Node9 -->
<g id="node9" class="node">
<title>Node9</title>
<g id="a_node9"><a xlink:href="apps_2serial_2poisson_8cc.html" target="_top" xlink:title=" ">
<polygon fill="none" stroke="black" points="431.5,-6 431.5,-25 555.5,-25 555.5,-6 431.5,-6"/>
<text text-anchor="middle" x="493.5" y="-13" font-family="Helvetica,sans-Serif" font-size="10.00">apps/serial/poisson.cc</text>
</a>
</g>
</g>
<!-- Node7&#45;&gt;Node9 -->
<g id="edge9" class="edge">
<title>Node7&#45;&gt;Node9</title>
<path fill="none" stroke="midnightblue" d="M402.32,-62.8C426.86,-50.34 457.94,-34.56 476.75,-25.01"/>
<polygon fill="midnightblue" stroke="midnightblue" points="400.61,-59.75 393.27,-67.4 403.78,-65.99 400.61,-59.75"/>
</g>
<!-- Node11 -->
<g id="node11" class="node">
<title>Node11</title>
<g id="a_node11"><a xlink:href="source_2pdes_2serial_2stokes_8cc.html" target="_top" xlink:title=" ">
<polygon fill="none" stroke="black" points="574,-0.5 574,-30.5 679,-30.5 679,-0.5 574,-0.5"/>
<text text-anchor="start" x="582" y="-18.5" font-family="Helvetica,sans-Serif" font-size="10.00">source/pdes/serial</text>
<text text-anchor="middle" x="626.5" y="-7.5" font-family="Helvetica,sans-Serif" font-size="10.00">/stokes.cc</text>
</a>
</g>
</g>
<!-- Node10&#45;&gt;Node11 -->
<g id="edge11" class="edge">
<title>Node10&#45;&gt;Node11</title>
<path fill="none" stroke="midnightblue" d="M626.5,-57.11C626.5,-48.15 626.5,-38.32 626.5,-30.58"/>
<polygon fill="midnightblue" stroke="midnightblue" points="623,-57.4 626.5,-67.4 630,-57.4 623,-57.4"/>
</g>
<!-- Node12 -->
<g id="node12" class="node">
<title>Node12</title>
<g id="a_node12"><a xlink:href="apps_2serial_2stokes_8cc.html" target="_top" xlink:title=" ">
<polygon fill="none" stroke="black" points="697.5,-6 697.5,-25 815.5,-25 815.5,-6 697.5,-6"/>
<text text-anchor="middle" x="756.5" y="-13" font-family="Helvetica,sans-Serif" font-size="10.00">apps/serial/stokes.cc</text>
</a>
</g>
</g>
<!-- Node10&#45;&gt;Node12 -->
<g id="edge12" class="edge">
<title>Node10&#45;&gt;Node12</title>
<path fill="none" stroke="midnightblue" d="M663.89,-62.8C688.82,-50.34 720.39,-34.56 739.49,-25.01"/>
<polygon fill="midnightblue" stroke="midnightblue" points="662.09,-59.79 654.71,-67.4 665.22,-66.05 662.09,-59.79"/>
</g>
</g>
</svg>
