<?xml version="1.0" encoding="UTF-8" standalone="no"?>
<!DOCTYPE svg PUBLIC "-//W3C//DTD SVG 1.1//EN"
 "http://www.w3.org/Graphics/SVG/1.1/DTD/svg11.dtd">
<!-- Generated by graphviz version 2.43.0 (0)
 -->
<!-- Title: source/grid_generator.cc Pages: 1 -->
<svg width="1949pt" height="285pt"
 viewBox="0.00 0.00 1948.50 285.00" xmlns="http://www.w3.org/2000/svg" xmlns:xlink="http://www.w3.org/1999/xlink">
<g id="graph0" class="graph" transform="scale(1 1) rotate(0) translate(4 281)">
<title>source/grid_generator.cc</title>
<!-- Node1 -->
<g id="node1" class="node">
<title>Node1</title>
<g id="a_node1"><a xlink:title=" ">
<polygon fill="#bfbfbf" stroke="black" points="1082,-257.5 1082,-276.5 1218,-276.5 1218,-257.5 1082,-257.5"/>
<text text-anchor="middle" x="1150" y="-264.5" font-family="Helvetica,sans-Serif" font-size="10.00">source/grid_generator.cc</text>
</a>
</g>
</g>
<!-- Node2 -->
<g id="node2" class="node">
<title>Node2</title>
<g id="a_node2"><a xlink:href="grid__generator_8h.html" target="_top" xlink:title=" ">
<polygon fill="none" stroke="black" points="284.5,-196 284.5,-215 445.5,-215 445.5,-196 284.5,-196"/>
<text text-anchor="middle" x="365" y="-203" font-family="Helvetica,sans-Serif" font-size="10.00">parsed_tools/grid_generator.h</text>
</a>
</g>
</g>
<!-- Node1&#45;&gt;Node2 -->
<g id="edge1" class="edge">
<title>Node1&#45;&gt;Node2</title>
<path fill="none" stroke="midnightblue" d="M1081.64,-263.78C956.69,-259.23 683.2,-247.02 454,-221 443.63,-219.82 432.62,-218.27 422.01,-216.63"/>
<polygon fill="midnightblue" stroke="midnightblue" points="422.42,-213.15 411.99,-215.03 421.32,-220.06 422.42,-213.15"/>
</g>
<!-- Node12 -->
<g id="node12" class="node">
<title>Node12</title>
<g id="a_node12"><a target="_parent" xlink:href="http://www.dealii.org/developer/doxygen/deal.II/grid__in_8h.html.html" xlink:title=" ">
<polygon fill="none" stroke="black" points="463.5,-196 463.5,-215 576.5,-215 576.5,-196 463.5,-196"/>
<text text-anchor="middle" x="520" y="-203" font-family="Helvetica,sans-Serif" font-size="10.00">deal.II/grid/grid_in.h</text>
</a>
</g>
</g>
<!-- Node1&#45;&gt;Node12 -->
<g id="edge12" class="edge">
<title>Node1&#45;&gt;Node12</title>
<path fill="none" stroke="midnightblue" d="M1081.94,-263.57C975.6,-259.11 763.79,-247.5 586,-221 579.14,-219.98 571.93,-218.65 564.89,-217.22"/>
<polygon fill="midnightblue" stroke="midnightblue" points="565.28,-213.73 554.77,-215.07 563.83,-220.57 565.28,-213.73"/>
</g>
<!-- Node13 -->
<g id="node13" class="node">
<title>Node13</title>
<g id="a_node13"><a target="_parent" xlink:href="http://www.dealii.org/developer/doxygen/deal.II/grid__out_8h.html.html" xlink:title=" ">
<polygon fill="none" stroke="black" points="595,-196 595,-215 715,-215 715,-196 595,-196"/>
<text text-anchor="middle" x="655" y="-203" font-family="Helvetica,sans-Serif" font-size="10.00">deal.II/grid/grid_out.h</text>
</a>
</g>
</g>
<!-- Node1&#45;&gt;Node13 -->
<g id="edge13" class="edge">
<title>Node1&#45;&gt;Node13</title>
<path fill="none" stroke="midnightblue" d="M1081.64,-260.85C997.44,-254.04 850.18,-240.54 725,-221 717.75,-219.87 710.11,-218.49 702.66,-217.03"/>
<polygon fill="midnightblue" stroke="midnightblue" points="703.15,-213.56 692.66,-215.01 701.77,-220.42 703.15,-213.56"/>
</g>
<!-- Node14 -->
<g id="node14" class="node">
<title>Node14</title>
<g id="a_node14"><a target="_parent" xlink:href="http://www.dealii.org/developer/doxygen/deal.II/opencascade_2manifold__lib_8h.html.html" xlink:title=" ">
<polygon fill="none" stroke="black" points="733.5,-190.5 733.5,-220.5 846.5,-220.5 846.5,-190.5 733.5,-190.5"/>
<text text-anchor="start" x="741.5" y="-208.5" font-family="Helvetica,sans-Serif" font-size="10.00">deal.II/opencascade</text>
<text text-anchor="middle" x="790" y="-197.5" font-family="Helvetica,sans-Serif" font-size="10.00">/manifold_lib.h</text>
</a>
</g>
</g>
<!-- Node1&#45;&gt;Node14 -->
<g id="edge14" class="edge">
<title>Node1&#45;&gt;Node14</title>
<path fill="none" stroke="midnightblue" d="M1086.43,-257.47C1028.96,-249.49 941.83,-236.71 856.67,-221.05"/>
<polygon fill="midnightblue" stroke="midnightblue" points="857.3,-217.61 846.83,-219.23 856.03,-224.49 857.3,-217.61"/>
</g>
<!-- Node15 -->
<g id="node15" class="node">
<title>Node15</title>
<g id="a_node15"><a target="_parent" xlink:href="http://www.dealii.org/developer/doxygen/deal.II/include_2deal_8II_2opencascade_2utilities_8h.html.html" xlink:title=" ">
<polygon fill="none" stroke="black" points="864.5,-190.5 864.5,-220.5 977.5,-220.5 977.5,-190.5 864.5,-190.5"/>
<text text-anchor="start" x="872.5" y="-208.5" font-family="Helvetica,sans-Serif" font-size="10.00">deal.II/opencascade</text>
<text text-anchor="middle" x="921" y="-197.5" font-family="Helvetica,sans-Serif" font-size="10.00">/utilities.h</text>
</a>
</g>
</g>
<!-- Node1&#45;&gt;Node15 -->
<g id="edge15" class="edge">
<title>Node1&#45;&gt;Node15</title>
<path fill="none" stroke="midnightblue" d="M1117.19,-257.48C1082.77,-248.53 1027.8,-234.25 984.79,-223.07"/>
<polygon fill="midnightblue" stroke="midnightblue" points="985.53,-219.65 974.97,-220.52 983.77,-226.43 985.53,-219.65"/>
</g>
<!-- Node16 -->
<g id="node16" class="node">
<title>Node16</title>
<g id="a_node16"><a xlink:title=" ">
<polygon fill="none" stroke="#bfbfbf" points="996,-196 996,-215 1092,-215 1092,-196 996,-196"/>
<text text-anchor="middle" x="1044" y="-203" font-family="Helvetica,sans-Serif" font-size="10.00">BRepBndLib.hxx</text>
</a>
</g>
</g>
<!-- Node1&#45;&gt;Node16 -->
<g id="edge16" class="edge">
<title>Node1&#45;&gt;Node16</title>
<path fill="none" stroke="midnightblue" d="M1134.81,-257.48C1117.34,-247.67 1088.42,-231.43 1067.92,-219.92"/>
<polygon fill="midnightblue" stroke="midnightblue" points="1069.59,-216.85 1059.16,-215.01 1066.17,-222.96 1069.59,-216.85"/>
</g>
<!-- Node17 -->
<g id="node17" class="node">
<title>Node17</title>
<g id="a_node17"><a xlink:title=" ">
<polygon fill="none" stroke="#bfbfbf" points="1110,-196 1110,-215 1190,-215 1190,-196 1110,-196"/>
<text text-anchor="middle" x="1150" y="-203" font-family="Helvetica,sans-Serif" font-size="10.00">Bnd_Box.hxx</text>
</a>
</g>
</g>
<!-- Node1&#45;&gt;Node17 -->
<g id="edge17" class="edge">
<title>Node1&#45;&gt;Node17</title>
<path fill="none" stroke="midnightblue" d="M1150,-257.48C1150,-249.08 1150,-235.98 1150,-225.16"/>
<polygon fill="midnightblue" stroke="midnightblue" points="1153.5,-225.01 1150,-215.01 1146.5,-225.01 1153.5,-225.01"/>
</g>
<!-- Node18 -->
<g id="node18" class="node">
<title>Node18</title>
<g id="a_node18"><a xlink:title=" ">
<polygon fill="none" stroke="#bfbfbf" points="1208,-196 1208,-215 1282,-215 1282,-196 1208,-196"/>
<text text-anchor="middle" x="1245" y="-203" font-family="Helvetica,sans-Serif" font-size="10.00">TopoDS.hxx</text>
</a>
</g>
</g>
<!-- Node1&#45;&gt;Node18 -->
<g id="edge18" class="edge">
<title>Node1&#45;&gt;Node18</title>
<path fill="none" stroke="midnightblue" d="M1163.61,-257.48C1179.06,-247.8 1204.49,-231.87 1222.82,-220.39"/>
<polygon fill="midnightblue" stroke="midnightblue" points="1224.8,-223.28 1231.41,-215.01 1221.08,-217.35 1224.8,-223.28"/>
</g>
<!-- Node19 -->
<g id="node19" class="node">
<title>Node19</title>
<g id="a_node19"><a xlink:title=" ">
<polygon fill="none" stroke="#bfbfbf" points="1300.5,-190.5 1300.5,-220.5 1425.5,-220.5 1425.5,-190.5 1300.5,-190.5"/>
<text text-anchor="start" x="1308.5" y="-208.5" font-family="Helvetica,sans-Serif" font-size="10.00">boost/algorithm/string</text>
<text text-anchor="middle" x="1363" y="-197.5" font-family="Helvetica,sans-Serif" font-size="10.00">/case_conv.hpp</text>
</a>
</g>
</g>
<!-- Node1&#45;&gt;Node19 -->
<g id="edge19" class="edge">
<title>Node1&#45;&gt;Node19</title>
<path fill="none" stroke="midnightblue" d="M1180.52,-257.48C1212.4,-248.57 1263.23,-234.37 1303.16,-223.22"/>
<polygon fill="midnightblue" stroke="midnightblue" points="1304.11,-226.58 1312.8,-220.52 1302.23,-219.84 1304.11,-226.58"/>
</g>
<!-- Node20 -->
<g id="node20" class="node">
<title>Node20</title>
<g id="a_node20"><a xlink:title=" ">
<polygon fill="none" stroke="#bfbfbf" points="1444,-190.5 1444,-220.5 1560,-220.5 1560,-190.5 1444,-190.5"/>
<text text-anchor="start" x="1452" y="-208.5" font-family="Helvetica,sans-Serif" font-size="10.00">boost/archive/binary</text>
<text text-anchor="middle" x="1502" y="-197.5" font-family="Helvetica,sans-Serif" font-size="10.00">_iarchive.hpp</text>
</a>
</g>
</g>
<!-- Node1&#45;&gt;Node20 -->
<g id="edge20" class="edge">
<title>Node1&#45;&gt;Node20</title>
<path fill="none" stroke="midnightblue" d="M1210.49,-257.46C1266.1,-249.38 1351.05,-236.46 1434.08,-221.11"/>
<polygon fill="midnightblue" stroke="midnightblue" points="1434.75,-224.55 1443.94,-219.28 1433.46,-217.67 1434.75,-224.55"/>
</g>
<!-- Node21 -->
<g id="node21" class="node">
<title>Node21</title>
<g id="a_node21"><a xlink:title=" ">
<polygon fill="none" stroke="#bfbfbf" points="1578,-190.5 1578,-220.5 1694,-220.5 1694,-190.5 1578,-190.5"/>
<text text-anchor="start" x="1586" y="-208.5" font-family="Helvetica,sans-Serif" font-size="10.00">boost/archive/binary</text>
<text text-anchor="middle" x="1636" y="-197.5" font-family="Helvetica,sans-Serif" font-size="10.00">_oarchive.hpp</text>
</a>
</g>
</g>
<!-- Node1&#45;&gt;Node21 -->
<g id="edge21" class="edge">
<title>Node1&#45;&gt;Node21</title>
<path fill="none" stroke="midnightblue" d="M1218.15,-260.92C1299.2,-254.37 1438.73,-241.53 1567.89,-221.07"/>
<polygon fill="midnightblue" stroke="midnightblue" points="1568.65,-224.49 1577.97,-219.45 1567.54,-217.58 1568.65,-224.49"/>
</g>
<!-- Node22 -->
<g id="node22" class="node">
<title>Node22</title>
<g id="a_node22"><a xlink:title=" ">
<polygon fill="none" stroke="#bfbfbf" points="1712.5,-190.5 1712.5,-220.5 1817.5,-220.5 1817.5,-190.5 1712.5,-190.5"/>
<text text-anchor="start" x="1720.5" y="-208.5" font-family="Helvetica,sans-Serif" font-size="10.00">boost/archive/text</text>
<text text-anchor="middle" x="1765" y="-197.5" font-family="Helvetica,sans-Serif" font-size="10.00">_iarchive.hpp</text>
</a>
</g>
</g>
<!-- Node1&#45;&gt;Node22 -->
<g id="edge22" class="edge">
<title>Node1&#45;&gt;Node22</title>
<path fill="none" stroke="midnightblue" d="M1218.06,-263.72C1320.91,-259.55 1522.13,-248.59 1702.41,-220.92"/>
<polygon fill="midnightblue" stroke="midnightblue" points="1703,-224.37 1712.34,-219.38 1701.92,-217.46 1703,-224.37"/>
</g>
<!-- Node23 -->
<g id="node23" class="node">
<title>Node23</title>
<g id="a_node23"><a xlink:title=" ">
<polygon fill="none" stroke="#bfbfbf" points="1835.5,-190.5 1835.5,-220.5 1940.5,-220.5 1940.5,-190.5 1835.5,-190.5"/>
<text text-anchor="start" x="1843.5" y="-208.5" font-family="Helvetica,sans-Serif" font-size="10.00">boost/archive/text</text>
<text text-anchor="middle" x="1888" y="-197.5" font-family="Helvetica,sans-Serif" font-size="10.00">_oarchive.hpp</text>
</a>
</g>
</g>
<!-- Node1&#45;&gt;Node23 -->
<g id="edge23" class="edge">
<title>Node1&#45;&gt;Node23</title>
<path fill="none" stroke="midnightblue" d="M1218.15,-265.22C1338.88,-263.03 1598.25,-254.62 1825.11,-221.13"/>
<polygon fill="midnightblue" stroke="midnightblue" points="1825.83,-224.56 1835.2,-219.62 1824.8,-217.64 1825.83,-224.56"/>
</g>
<!-- Node3 -->
<g id="node3" class="node">
<title>Node3</title>
<g id="a_node3"><a target="_parent" xlink:href="http://www.dealii.org/developer/doxygen/deal.II/logstream_8h.html.html" xlink:title=" ">
<polygon fill="none" stroke="black" points="0,-129 0,-148 134,-148 134,-129 0,-129"/>
<text text-anchor="middle" x="67" y="-136" font-family="Helvetica,sans-Serif" font-size="10.00">deal.II/base/logstream.h</text>
</a>
</g>
</g>
<!-- Node2&#45;&gt;Node3 -->
<g id="edge2" class="edge">
<title>Node2&#45;&gt;Node3</title>
<path fill="none" stroke="midnightblue" d="M325.74,-195.94C271.8,-184.17 174.82,-163.02 116.14,-150.22"/>
<polygon fill="midnightblue" stroke="midnightblue" points="116.87,-146.8 106.35,-148.08 115.38,-153.63 116.87,-146.8"/>
</g>
<!-- Node4 -->
<g id="node4" class="node">
<title>Node4</title>
<g id="a_node4"><a target="_parent" xlink:href="http://www.dealii.org/developer/doxygen/deal.II/parameter__acceptor_8h.html.html" xlink:title=" ">
<polygon fill="none" stroke="black" points="263.5,-0.5 263.5,-30.5 390.5,-30.5 390.5,-0.5 263.5,-0.5"/>
<text text-anchor="start" x="271.5" y="-18.5" font-family="Helvetica,sans-Serif" font-size="10.00">deal.II/base/parameter</text>
<text text-anchor="middle" x="327" y="-7.5" font-family="Helvetica,sans-Serif" font-size="10.00">_acceptor.h</text>
</a>
</g>
</g>
<!-- Node2&#45;&gt;Node4 -->
<g id="edge3" class="edge">
<title>Node2&#45;&gt;Node4</title>
<path fill="none" stroke="midnightblue" d="M304.71,-195.94C257.05,-187.79 196.11,-173.82 181,-154 144.08,-105.58 225.74,-59.15 281.19,-34.58"/>
<polygon fill="midnightblue" stroke="midnightblue" points="282.74,-37.73 290.53,-30.54 279.96,-31.3 282.74,-37.73"/>
</g>
<!-- Node5 -->
<g id="node5" class="node">
<title>Node5</title>
<g id="a_node5"><a target="_parent" xlink:href="http://www.dealii.org/developer/doxygen/deal.II/distributed_2grid__refinement_8h.html.html" xlink:title=" ">
<polygon fill="none" stroke="black" points="190,-123.5 190,-153.5 296,-153.5 296,-123.5 190,-123.5"/>
<text text-anchor="start" x="198" y="-141.5" font-family="Helvetica,sans-Serif" font-size="10.00">deal.II/distributed</text>
<text text-anchor="middle" x="243" y="-130.5" font-family="Helvetica,sans-Serif" font-size="10.00">/grid_refinement.h</text>
</a>
</g>
</g>
<!-- Node2&#45;&gt;Node5 -->
<g id="edge4" class="edge">
<title>Node2&#45;&gt;Node5</title>
<path fill="none" stroke="midnightblue" d="M348.8,-195.87C330.95,-186.36 301.68,-170.77 278.45,-158.39"/>
<polygon fill="midnightblue" stroke="midnightblue" points="280.03,-155.26 269.56,-153.65 276.74,-161.44 280.03,-155.26"/>
</g>
<!-- Node6 -->
<g id="node6" class="node">
<title>Node6</title>
<g id="a_node6"><a target="_parent" xlink:href="http://www.dealii.org/developer/doxygen/deal.II/distributed_2tria_8h.html.html" xlink:title=" ">
<polygon fill="none" stroke="black" points="314,-123.5 314,-153.5 416,-153.5 416,-123.5 314,-123.5"/>
<text text-anchor="start" x="322" y="-141.5" font-family="Helvetica,sans-Serif" font-size="10.00">deal.II/distributed</text>
<text text-anchor="middle" x="365" y="-130.5" font-family="Helvetica,sans-Serif" font-size="10.00">/tria.h</text>
</a>
</g>
</g>
<!-- Node2&#45;&gt;Node6 -->
<g id="edge5" class="edge">
<title>Node2&#45;&gt;Node6</title>
<path fill="none" stroke="midnightblue" d="M365,-195.73C365,-187.54 365,-174.92 365,-163.71"/>
<polygon fill="midnightblue" stroke="midnightblue" points="368.5,-163.59 365,-153.59 361.5,-163.59 368.5,-163.59"/>
</g>
<!-- Node7 -->
<g id="node7" class="node">
<title>Node7</title>
<g id="a_node7"><a target="_parent" xlink:href="http://www.dealii.org/developer/doxygen/deal.II/mapping__q__generic_8h.html.html" xlink:title=" ">
<polygon fill="none" stroke="black" points="434.5,-123.5 434.5,-153.5 539.5,-153.5 539.5,-123.5 434.5,-123.5"/>
<text text-anchor="start" x="442.5" y="-141.5" font-family="Helvetica,sans-Serif" font-size="10.00">deal.II/fe/mapping</text>
<text text-anchor="middle" x="487" y="-130.5" font-family="Helvetica,sans-Serif" font-size="10.00">_q_generic.h</text>
</a>
</g>
</g>
<!-- Node2&#45;&gt;Node7 -->
<g id="edge6" class="edge">
<title>Node2&#45;&gt;Node7</title>
<path fill="none" stroke="midnightblue" d="M381.2,-195.87C399.05,-186.36 428.32,-170.77 451.55,-158.39"/>
<polygon fill="midnightblue" stroke="midnightblue" points="453.26,-161.44 460.44,-153.65 449.97,-155.26 453.26,-161.44"/>
</g>
<!-- Node8 -->
<g id="node8" class="node">
<title>Node8</title>
<g id="a_node8"><a target="_parent" xlink:href="http://www.dealii.org/developer/doxygen/deal.II/grid__generator_8h.html.html" xlink:title=" ">
<polygon fill="none" stroke="black" points="557.5,-129 557.5,-148 708.5,-148 708.5,-129 557.5,-129"/>
<text text-anchor="middle" x="633" y="-136" font-family="Helvetica,sans-Serif" font-size="10.00">deal.II/grid/grid_generator.h</text>
</a>
</g>
</g>
<!-- Node2&#45;&gt;Node8 -->
<g id="edge7" class="edge">
<title>Node2&#45;&gt;Node8</title>
<path fill="none" stroke="midnightblue" d="M400.31,-195.94C448.52,-184.24 534.95,-163.28 587.83,-150.46"/>
<polygon fill="midnightblue" stroke="midnightblue" points="588.72,-153.84 597.61,-148.08 587.07,-147.04 588.72,-153.84"/>
</g>
<!-- Node11 -->
<g id="node11" class="node">
<title>Node11</title>
<g id="a_node11"><a target="_parent" xlink:href="http://www.dealii.org/developer/doxygen/deal.II/grid_2tria_8h.html.html" xlink:title=" ">
<polygon fill="none" stroke="black" points="726.5,-129 726.5,-148 823.5,-148 823.5,-129 726.5,-129"/>
<text text-anchor="middle" x="775" y="-136" font-family="Helvetica,sans-Serif" font-size="10.00">deal.II/grid/tria.h</text>
</a>
</g>
</g>
<!-- Node2&#45;&gt;Node11 -->
<g id="edge11" class="edge">
<title>Node2&#45;&gt;Node11</title>
<path fill="none" stroke="midnightblue" d="M415.79,-195.99C428.28,-193.96 441.61,-191.85 454,-190 571.12,-172.48 601.76,-176.63 718,-154 723.19,-152.99 728.62,-151.79 733.97,-150.53"/>
<polygon fill="midnightblue" stroke="midnightblue" points="735.21,-153.83 744.08,-148.05 733.54,-147.03 735.21,-153.83"/>
</g>
<!-- Node9 -->
<g id="node9" class="node">
<title>Node9</title>
<g id="a_node9"><a xlink:href="function_8h.html" target="_top" xlink:title=" ">
<polygon fill="none" stroke="black" points="487.5,-67.5 487.5,-86.5 612.5,-86.5 612.5,-67.5 487.5,-67.5"/>
<text text-anchor="middle" x="550" y="-74.5" font-family="Helvetica,sans-Serif" font-size="10.00">deal.II/base/function.h</text>
</a>
</g>
</g>
<!-- Node8&#45;&gt;Node9 -->
<g id="edge8" class="edge">
<title>Node8&#45;&gt;Node9</title>
<path fill="none" stroke="midnightblue" d="M621.11,-128.98C607.8,-119.43 586,-103.81 570.04,-92.37"/>
<polygon fill="midnightblue" stroke="midnightblue" points="572.04,-89.49 561.87,-86.51 567.96,-95.18 572.04,-89.49"/>
</g>
<!-- Node9&#45;&gt;Node4 -->
<g id="edge10" class="edge">
<title>Node9&#45;&gt;Node4</title>
<path fill="none" stroke="midnightblue" d="M518.05,-67.48C484.6,-58.55 431.22,-44.31 389.38,-33.14"/>
<polygon fill="midnightblue" stroke="midnightblue" points="390.12,-29.72 379.56,-30.52 388.32,-36.48 390.12,-29.72"/>
</g>
<!-- Node10 -->
<g id="node10" class="node">
<title>Node10</title>
<g id="a_node10"><a target="_parent" xlink:href="http://www.dealii.org/developer/doxygen/deal.II/function__parser_8h.html.html" xlink:title=" ">
<polygon fill="none" stroke="black" points="492,-0.5 492,-30.5 608,-30.5 608,-0.5 492,-0.5"/>
<text text-anchor="start" x="500" y="-18.5" font-family="Helvetica,sans-Serif" font-size="10.00">deal.II/base/function</text>
<text text-anchor="middle" x="550" y="-7.5" font-family="Helvetica,sans-Serif" font-size="10.00">_parser.h</text>
</a>
</g>
</g>
<!-- Node9&#45;&gt;Node10 -->
<g id="edge9" class="edge">
<title>Node9&#45;&gt;Node10</title>
<path fill="none" stroke="midnightblue" d="M550,-67.48C550,-60.47 550,-50.19 550,-40.7"/>
<polygon fill="midnightblue" stroke="midnightblue" points="553.5,-40.52 550,-30.52 546.5,-40.52 553.5,-40.52"/>
</g>
</g>
</svg>
