<?xml version="1.0" encoding="UTF-8" standalone="no"?>
<!DOCTYPE svg PUBLIC "-//W3C//DTD SVG 1.1//EN"
 "http://www.w3.org/Graphics/SVG/1.1/DTD/svg11.dtd">
<!-- Generated by graphviz version 2.43.0 (0)
 -->
<!-- Title: include/parsed_tools/grid_info.h Pages: 1 -->
<svg width="1718pt" height="296pt"
 viewBox="0.00 0.00 1717.50 296.00" xmlns="http://www.w3.org/2000/svg" xmlns:xlink="http://www.w3.org/1999/xlink">
<g id="graph0" class="graph" transform="scale(1 1) rotate(0) translate(4 292)">
<title>include/parsed_tools/grid_info.h</title>
<!-- Node1 -->
<g id="node1" class="node">
<title>Node1</title>
<g id="a_node1"><a xlink:title=" ">
<polygon fill="#bfbfbf" stroke="black" points="1043,-257.5 1043,-287.5 1160,-287.5 1160,-257.5 1043,-257.5"/>
<text text-anchor="start" x="1051" y="-275.5" font-family="Helvetica,sans-Serif" font-size="10.00">include/parsed_tools</text>
<text text-anchor="middle" x="1101.5" y="-264.5" font-family="Helvetica,sans-Serif" font-size="10.00">/grid_info.h</text>
</a>
</g>
</g>
<!-- Node2 -->
<g id="node2" class="node">
<title>Node2</title>
<g id="a_node2"><a xlink:href="mesh__handler_8h.html" target="_top" xlink:title=" ">
<polygon fill="none" stroke="black" points="574,-196 574,-215 707,-215 707,-196 574,-196"/>
<text text-anchor="middle" x="640.5" y="-203" font-family="Helvetica,sans-Serif" font-size="10.00">include/mesh_handler.h</text>
</a>
</g>
</g>
<!-- Node1&#45;&gt;Node2 -->
<g id="edge1" class="edge">
<title>Node1&#45;&gt;Node2</title>
<path fill="none" stroke="midnightblue" d="M1032.54,-261.78C942.51,-249.08 786.38,-227.07 700.83,-215.01"/>
<polygon fill="midnightblue" stroke="midnightblue" points="1032.26,-265.27 1042.65,-263.2 1033.23,-258.34 1032.26,-265.27"/>
</g>
<!-- Node4 -->
<g id="node4" class="node">
<title>Node4</title>
<g id="a_node4"><a xlink:href="boundary__conditions_8h.html" target="_top" xlink:title=" ">
<polygon fill="none" stroke="black" points="990.5,-190.5 990.5,-220.5 1120.5,-220.5 1120.5,-190.5 990.5,-190.5"/>
<text text-anchor="start" x="998.5" y="-208.5" font-family="Helvetica,sans-Serif" font-size="10.00">include/parsed_tools</text>
<text text-anchor="middle" x="1055.5" y="-197.5" font-family="Helvetica,sans-Serif" font-size="10.00">/boundary_conditions.h</text>
</a>
</g>
</g>
<!-- Node1&#45;&gt;Node4 -->
<g id="edge3" class="edge">
<title>Node1&#45;&gt;Node4</title>
<path fill="none" stroke="midnightblue" d="M1085.69,-249.16C1078.98,-239.68 1071.37,-228.92 1065.46,-220.58"/>
<polygon fill="midnightblue" stroke="midnightblue" points="1082.88,-251.26 1091.52,-257.4 1088.6,-247.21 1082.88,-251.26"/>
</g>
<!-- Node25 -->
<g id="node25" class="node">
<title>Node25</title>
<g id="a_node25"><a xlink:href="boundary__conditions_8cc.html" target="_top" xlink:title=" ">
<polygon fill="none" stroke="black" points="1425,-129 1425,-148 1592,-148 1592,-129 1425,-129"/>
<text text-anchor="middle" x="1508.5" y="-136" font-family="Helvetica,sans-Serif" font-size="10.00">source/boundary_conditions.cc</text>
</a>
</g>
</g>
<!-- Node1&#45;&gt;Node25 -->
<g id="edge25" class="edge">
<title>Node1&#45;&gt;Node25</title>
<path fill="none" stroke="midnightblue" d="M1113.74,-248.31C1125.04,-229.35 1143.67,-203.55 1167.5,-190 1264.31,-134.94 1305.36,-170.58 1415.5,-154 1428.1,-152.1 1441.66,-150.02 1454.42,-148.03"/>
<polygon fill="midnightblue" stroke="midnightblue" points="1110.56,-246.82 1108.65,-257.24 1116.64,-250.29 1110.56,-246.82"/>
</g>
<!-- Node26 -->
<g id="node26" class="node">
<title>Node26</title>
<g id="a_node26"><a xlink:href="dof__plotter_8cc.html" target="_top" xlink:title="Degrees of freedom plotter.">
<polygon fill="none" stroke="black" points="1176.5,-196 1176.5,-215 1286.5,-215 1286.5,-196 1176.5,-196"/>
<text text-anchor="middle" x="1231.5" y="-203" font-family="Helvetica,sans-Serif" font-size="10.00">apps/dof_plotter.cc</text>
</a>
</g>
</g>
<!-- Node1&#45;&gt;Node26 -->
<g id="edge26" class="edge">
<title>Node1&#45;&gt;Node26</title>
<path fill="none" stroke="midnightblue" d="M1138.89,-252.8C1163.82,-240.34 1195.39,-224.56 1214.49,-215.01"/>
<polygon fill="midnightblue" stroke="midnightblue" points="1137.09,-249.79 1129.71,-257.4 1140.22,-256.05 1137.09,-249.79"/>
</g>
<!-- Node3 -->
<g id="node3" class="node">
<title>Node3</title>
<g id="a_node3"><a xlink:href="mesh__handler_8cc.html" target="_top" xlink:title="Mesh generator and reader.">
<polygon fill="none" stroke="black" points="175,-129 175,-148 300,-148 300,-129 175,-129"/>
<text text-anchor="middle" x="237.5" y="-136" font-family="Helvetica,sans-Serif" font-size="10.00">apps/mesh_handler.cc</text>
</a>
</g>
</g>
<!-- Node2&#45;&gt;Node3 -->
<g id="edge2" class="edge">
<title>Node2&#45;&gt;Node3</title>
<path fill="none" stroke="midnightblue" d="M568.15,-194.57C500.78,-185.07 397.63,-169.87 308.5,-154 298.47,-152.21 287.68,-150.11 277.61,-148.06"/>
<polygon fill="midnightblue" stroke="midnightblue" points="567.85,-198.06 578.24,-195.99 568.82,-191.13 567.85,-198.06"/>
</g>
<!-- Node5 -->
<g id="node5" class="node">
<title>Node5</title>
<g id="a_node5"><a xlink:href="linear__problem_8h.html" target="_top" xlink:title=" ">
<polygon fill="none" stroke="black" points="318,-123.5 318,-153.5 449,-153.5 449,-123.5 318,-123.5"/>
<text text-anchor="start" x="326" y="-141.5" font-family="Helvetica,sans-Serif" font-size="10.00">include/pdes/mpi/linear</text>
<text text-anchor="middle" x="383.5" y="-130.5" font-family="Helvetica,sans-Serif" font-size="10.00">_problem.h</text>
</a>
</g>
</g>
<!-- Node4&#45;&gt;Node5 -->
<g id="edge4" class="edge">
<title>Node4&#45;&gt;Node5</title>
<path fill="none" stroke="midnightblue" d="M979.96,-197.26C878.11,-187.48 691.12,-169.51 531.5,-154 504.52,-151.38 474.77,-148.47 449.07,-145.95"/>
<polygon fill="midnightblue" stroke="midnightblue" points="979.86,-200.76 990.14,-198.23 980.52,-193.8 979.86,-200.76"/>
</g>
<!-- Node10 -->
<g id="node10" class="node">
<title>Node10</title>
<g id="a_node10"><a xlink:href="distributed__lagrange_8h.html" target="_top" xlink:title=" ">
<polygon fill="none" stroke="black" points="541,-123.5 541,-153.5 670,-153.5 670,-123.5 541,-123.5"/>
<text text-anchor="start" x="549" y="-141.5" font-family="Helvetica,sans-Serif" font-size="10.00">include/pdes/serial</text>
<text text-anchor="middle" x="605.5" y="-130.5" font-family="Helvetica,sans-Serif" font-size="10.00">/distributed_lagrange.h</text>
</a>
</g>
</g>
<!-- Node4&#45;&gt;Node10 -->
<g id="edge9" class="edge">
<title>Node4&#45;&gt;Node10</title>
<path fill="none" stroke="midnightblue" d="M980.02,-193.6C893.25,-181.06 752.27,-160.7 670.28,-148.86"/>
<polygon fill="midnightblue" stroke="midnightblue" points="979.67,-197.08 990.07,-195.05 980.67,-190.15 979.67,-197.08"/>
</g>
<!-- Node13 -->
<g id="node13" class="node">
<title>Node13</title>
<g id="a_node13"><a xlink:href="linear__elasticity_8h.html" target="_top" xlink:title=" ">
<polygon fill="none" stroke="black" points="811.5,-123.5 811.5,-153.5 919.5,-153.5 919.5,-123.5 811.5,-123.5"/>
<text text-anchor="start" x="819.5" y="-141.5" font-family="Helvetica,sans-Serif" font-size="10.00">include/pdes/serial</text>
<text text-anchor="middle" x="865.5" y="-130.5" font-family="Helvetica,sans-Serif" font-size="10.00">/linear_elasticity.h</text>
</a>
</g>
</g>
<!-- Node4&#45;&gt;Node13 -->
<g id="edge12" class="edge">
<title>Node4&#45;&gt;Node13</title>
<path fill="none" stroke="midnightblue" d="M1004.61,-187.09C973.94,-176.6 935.39,-163.41 906.65,-153.58"/>
<polygon fill="midnightblue" stroke="midnightblue" points="1003.68,-190.47 1014.27,-190.4 1005.94,-183.85 1003.68,-190.47"/>
</g>
<!-- Node16 -->
<g id="node16" class="node">
<title>Node16</title>
<g id="a_node16"><a xlink:href="serial_2poisson_8h.html" target="_top" xlink:title=" ">
<polygon fill="none" stroke="black" points="1001.5,-123.5 1001.5,-153.5 1109.5,-153.5 1109.5,-123.5 1001.5,-123.5"/>
<text text-anchor="start" x="1009.5" y="-141.5" font-family="Helvetica,sans-Serif" font-size="10.00">include/pdes/serial</text>
<text text-anchor="middle" x="1055.5" y="-130.5" font-family="Helvetica,sans-Serif" font-size="10.00">/poisson.h</text>
</a>
</g>
</g>
<!-- Node4&#45;&gt;Node16 -->
<g id="edge15" class="edge">
<title>Node4&#45;&gt;Node16</title>
<path fill="none" stroke="midnightblue" d="M1055.5,-180.11C1055.5,-171.15 1055.5,-161.32 1055.5,-153.58"/>
<polygon fill="midnightblue" stroke="midnightblue" points="1052,-180.4 1055.5,-190.4 1059,-180.4 1052,-180.4"/>
</g>
<!-- Node19 -->
<g id="node19" class="node">
<title>Node19</title>
<g id="a_node19"><a xlink:href="reduced__lagrange_8h.html" target="_top" xlink:title=" ">
<polygon fill="none" stroke="black" points="1164.5,-123.5 1164.5,-153.5 1280.5,-153.5 1280.5,-123.5 1164.5,-123.5"/>
<text text-anchor="start" x="1172.5" y="-141.5" font-family="Helvetica,sans-Serif" font-size="10.00">include/pdes/serial</text>
<text text-anchor="middle" x="1222.5" y="-130.5" font-family="Helvetica,sans-Serif" font-size="10.00">/reduced_lagrange.h</text>
</a>
</g>
</g>
<!-- Node4&#45;&gt;Node19 -->
<g id="edge18" class="edge">
<title>Node4&#45;&gt;Node19</title>
<path fill="none" stroke="midnightblue" d="M1101.28,-186.68C1128.06,-176.26 1161.4,-163.28 1186.33,-153.58"/>
<polygon fill="midnightblue" stroke="midnightblue" points="1099.79,-183.51 1091.74,-190.4 1102.33,-190.03 1099.79,-183.51"/>
</g>
<!-- Node22 -->
<g id="node22" class="node">
<title>Node22</title>
<g id="a_node22"><a xlink:href="stokes_8h.html" target="_top" xlink:title=" ">
<polygon fill="none" stroke="black" points="1298.5,-123.5 1298.5,-153.5 1406.5,-153.5 1406.5,-123.5 1298.5,-123.5"/>
<text text-anchor="start" x="1306.5" y="-141.5" font-family="Helvetica,sans-Serif" font-size="10.00">include/pdes/serial</text>
<text text-anchor="middle" x="1352.5" y="-130.5" font-family="Helvetica,sans-Serif" font-size="10.00">/stokes.h</text>
</a>
</g>
</g>
<!-- Node4&#45;&gt;Node22 -->
<g id="edge21" class="edge">
<title>Node4&#45;&gt;Node22</title>
<path fill="none" stroke="midnightblue" d="M1130.49,-188.59C1176.43,-178.77 1236.4,-165.84 1289.5,-154 1292.35,-153.36 1295.27,-152.71 1298.21,-152.04"/>
<polygon fill="midnightblue" stroke="midnightblue" points="1129.66,-185.19 1120.61,-190.7 1131.12,-192.03 1129.66,-185.19"/>
</g>
<!-- Node4&#45;&gt;Node25 -->
<g id="edge24" class="edge">
<title>Node4&#45;&gt;Node25</title>
<path fill="none" stroke="midnightblue" d="M1130.63,-190.61C1131.93,-190.4 1133.22,-190.2 1134.5,-190 1258.91,-170.63 1290.84,-171.7 1415.5,-154 1428.44,-152.16 1442.38,-150.06 1455.42,-148.03"/>
<polygon fill="midnightblue" stroke="midnightblue" points="1129.85,-187.19 1120.55,-192.27 1130.99,-194.1 1129.85,-187.19"/>
</g>
<!-- Node6 -->
<g id="node6" class="node">
<title>Node6</title>
<g id="a_node6"><a xlink:href="mpi_2poisson_8h.html" target="_top" xlink:title=" ">
<polygon fill="none" stroke="black" points="77,-62 77,-81 226,-81 226,-62 77,-62"/>
<text text-anchor="middle" x="151.5" y="-69" font-family="Helvetica,sans-Serif" font-size="10.00">include/pdes/mpi/poisson.h</text>
</a>
</g>
</g>
<!-- Node5&#45;&gt;Node6 -->
<g id="edge5" class="edge">
<title>Node5&#45;&gt;Node6</title>
<path fill="none" stroke="midnightblue" d="M323.72,-120.75C278.34,-108.04 217.83,-91.09 181.94,-81.03"/>
<polygon fill="midnightblue" stroke="midnightblue" points="322.87,-124.15 333.45,-123.48 324.76,-117.41 322.87,-124.15"/>
</g>
<!-- Node9 -->
<g id="node9" class="node">
<title>Node9</title>
<g id="a_node9"><a xlink:href="linear__problem_8cc.html" target="_top" xlink:title=" ">
<polygon fill="none" stroke="black" points="244.5,-56.5 244.5,-86.5 372.5,-86.5 372.5,-56.5 244.5,-56.5"/>
<text text-anchor="start" x="252.5" y="-74.5" font-family="Helvetica,sans-Serif" font-size="10.00">source/pdes/mpi/linear</text>
<text text-anchor="middle" x="308.5" y="-63.5" font-family="Helvetica,sans-Serif" font-size="10.00">_problem.cc</text>
</a>
</g>
</g>
<!-- Node5&#45;&gt;Node9 -->
<g id="edge8" class="edge">
<title>Node5&#45;&gt;Node9</title>
<path fill="none" stroke="midnightblue" d="M359.38,-116.6C348.06,-106.78 334.86,-95.34 324.74,-86.58"/>
<polygon fill="midnightblue" stroke="midnightblue" points="357.38,-119.49 367.23,-123.4 361.96,-114.2 357.38,-119.49"/>
</g>
<!-- Node7 -->
<g id="node7" class="node">
<title>Node7</title>
<g id="a_node7"><a xlink:href="source_2pdes_2mpi_2poisson_8cc.html" target="_top" xlink:title=" ">
<polygon fill="none" stroke="black" points="0,-0.5 0,-19.5 151,-19.5 151,-0.5 0,-0.5"/>
<text text-anchor="middle" x="75.5" y="-7.5" font-family="Helvetica,sans-Serif" font-size="10.00">source/pdes/mpi/poisson.cc</text>
</a>
</g>
</g>
<!-- Node6&#45;&gt;Node7 -->
<g id="edge6" class="edge">
<title>Node6&#45;&gt;Node7</title>
<path fill="none" stroke="midnightblue" d="M132.72,-55.79C118.14,-44.38 98.44,-28.96 86.37,-19.51"/>
<polygon fill="midnightblue" stroke="midnightblue" points="130.58,-58.57 140.61,-61.98 134.89,-53.05 130.58,-58.57"/>
</g>
<!-- Node8 -->
<g id="node8" class="node">
<title>Node8</title>
<g id="a_node8"><a xlink:href="apps_2mpi_2poisson_8cc.html" target="_top" xlink:title=" ">
<polygon fill="none" stroke="black" points="169.5,-0.5 169.5,-19.5 285.5,-19.5 285.5,-0.5 169.5,-0.5"/>
<text text-anchor="middle" x="227.5" y="-7.5" font-family="Helvetica,sans-Serif" font-size="10.00">apps/mpi/poisson.cc</text>
</a>
</g>
</g>
<!-- Node6&#45;&gt;Node8 -->
<g id="edge7" class="edge">
<title>Node6&#45;&gt;Node8</title>
<path fill="none" stroke="midnightblue" d="M170.28,-55.79C184.86,-44.38 204.56,-28.96 216.63,-19.51"/>
<polygon fill="midnightblue" stroke="midnightblue" points="168.11,-53.05 162.39,-61.98 172.42,-58.57 168.11,-53.05"/>
</g>
<!-- Node11 -->
<g id="node11" class="node">
<title>Node11</title>
<g id="a_node11"><a xlink:href="source_2pdes_2serial_2distributed__lagrange_8cc.html" target="_top" xlink:title=" ">
<polygon fill="none" stroke="black" points="390.5,-56.5 390.5,-86.5 524.5,-86.5 524.5,-56.5 390.5,-56.5"/>
<text text-anchor="start" x="398.5" y="-74.5" font-family="Helvetica,sans-Serif" font-size="10.00">source/pdes/serial</text>
<text text-anchor="middle" x="457.5" y="-63.5" font-family="Helvetica,sans-Serif" font-size="10.00">/distributed_lagrange.cc</text>
</a>
</g>
</g>
<!-- Node10&#45;&gt;Node11 -->
<g id="edge10" class="edge">
<title>Node10&#45;&gt;Node11</title>
<path fill="none" stroke="midnightblue" d="M563.99,-119.27C540.42,-108.92 511.36,-96.15 489.55,-86.58"/>
<polygon fill="midnightblue" stroke="midnightblue" points="562.82,-122.58 573.39,-123.4 565.64,-116.17 562.82,-122.58"/>
</g>
<!-- Node12 -->
<g id="node12" class="node">
<title>Node12</title>
<g id="a_node12"><a xlink:href="apps_2serial_2distributed__lagrange_8cc.html" target="_top" xlink:title=" ">
<polygon fill="none" stroke="black" points="543,-56.5 543,-86.5 668,-86.5 668,-56.5 543,-56.5"/>
<text text-anchor="start" x="551" y="-74.5" font-family="Helvetica,sans-Serif" font-size="10.00">apps/serial/distributed</text>
<text text-anchor="middle" x="605.5" y="-63.5" font-family="Helvetica,sans-Serif" font-size="10.00">_lagrange.cc</text>
</a>
</g>
</g>
<!-- Node10&#45;&gt;Node12 -->
<g id="edge11" class="edge">
<title>Node10&#45;&gt;Node12</title>
<path fill="none" stroke="midnightblue" d="M605.5,-113.11C605.5,-104.15 605.5,-94.32 605.5,-86.58"/>
<polygon fill="midnightblue" stroke="midnightblue" points="602,-113.4 605.5,-123.4 609,-113.4 602,-113.4"/>
</g>
<!-- Node14 -->
<g id="node14" class="node">
<title>Node14</title>
<g id="a_node14"><a xlink:href="source_2pdes_2serial_2linear__elasticity_8cc.html" target="_top" xlink:title=" ">
<polygon fill="none" stroke="black" points="686.5,-56.5 686.5,-86.5 796.5,-86.5 796.5,-56.5 686.5,-56.5"/>
<text text-anchor="start" x="694.5" y="-74.5" font-family="Helvetica,sans-Serif" font-size="10.00">source/pdes/serial</text>
<text text-anchor="middle" x="741.5" y="-63.5" font-family="Helvetica,sans-Serif" font-size="10.00">/linear_elasticity.cc</text>
</a>
</g>
</g>
<!-- Node13&#45;&gt;Node14 -->
<g id="edge13" class="edge">
<title>Node13&#45;&gt;Node14</title>
<path fill="none" stroke="midnightblue" d="M829.66,-118.71C810.11,-108.46 786.3,-95.98 768.35,-86.58"/>
<polygon fill="midnightblue" stroke="midnightblue" points="828.11,-121.85 838.59,-123.4 831.36,-115.65 828.11,-121.85"/>
</g>
<!-- Node15 -->
<g id="node15" class="node">
<title>Node15</title>
<g id="a_node15"><a xlink:href="apps_2serial_2linear__elasticity_8cc.html" target="_top" xlink:title=" ">
<polygon fill="none" stroke="black" points="815,-56.5 815,-86.5 916,-86.5 916,-56.5 815,-56.5"/>
<text text-anchor="start" x="823" y="-74.5" font-family="Helvetica,sans-Serif" font-size="10.00">apps/serial/linear</text>
<text text-anchor="middle" x="865.5" y="-63.5" font-family="Helvetica,sans-Serif" font-size="10.00">_elasticity.cc</text>
</a>
</g>
</g>
<!-- Node13&#45;&gt;Node15 -->
<g id="edge14" class="edge">
<title>Node13&#45;&gt;Node15</title>
<path fill="none" stroke="midnightblue" d="M865.5,-113.11C865.5,-104.15 865.5,-94.32 865.5,-86.58"/>
<polygon fill="midnightblue" stroke="midnightblue" points="862,-113.4 865.5,-123.4 869,-113.4 862,-113.4"/>
</g>
<!-- Node17 -->
<g id="node17" class="node">
<title>Node17</title>
<g id="a_node17"><a xlink:href="source_2pdes_2serial_2poisson_8cc.html" target="_top" xlink:title=" ">
<polygon fill="none" stroke="black" points="934,-56.5 934,-86.5 1039,-86.5 1039,-56.5 934,-56.5"/>
<text text-anchor="start" x="942" y="-74.5" font-family="Helvetica,sans-Serif" font-size="10.00">source/pdes/serial</text>
<text text-anchor="middle" x="986.5" y="-63.5" font-family="Helvetica,sans-Serif" font-size="10.00">/poisson.cc</text>
</a>
</g>
</g>
<!-- Node16&#45;&gt;Node17 -->
<g id="edge16" class="edge">
<title>Node16&#45;&gt;Node17</title>
<path fill="none" stroke="midnightblue" d="M1033.01,-116.31C1022.66,-106.56 1010.66,-95.26 1001.44,-86.58"/>
<polygon fill="midnightblue" stroke="midnightblue" points="1030.85,-119.09 1040.53,-123.4 1035.65,-113.99 1030.85,-119.09"/>
</g>
<!-- Node18 -->
<g id="node18" class="node">
<title>Node18</title>
<g id="a_node18"><a xlink:href="apps_2serial_2poisson_8cc.html" target="_top" xlink:title=" ">
<polygon fill="none" stroke="black" points="1057.5,-62 1057.5,-81 1181.5,-81 1181.5,-62 1057.5,-62"/>
<text text-anchor="middle" x="1119.5" y="-69" font-family="Helvetica,sans-Serif" font-size="10.00">apps/serial/poisson.cc</text>
</a>
</g>
</g>
<!-- Node16&#45;&gt;Node18 -->
<g id="edge17" class="edge">
<title>Node16&#45;&gt;Node18</title>
<path fill="none" stroke="midnightblue" d="M1076.67,-116C1088.35,-104.13 1102.22,-90.05 1110.94,-81.19"/>
<polygon fill="midnightblue" stroke="midnightblue" points="1073.91,-113.81 1069.39,-123.4 1078.9,-118.73 1073.91,-113.81"/>
</g>
<!-- Node20 -->
<g id="node20" class="node">
<title>Node20</title>
<g id="a_node20"><a xlink:href="source_2pdes_2serial_2reduced__lagrange_8cc.html" target="_top" xlink:title=" ">
<polygon fill="none" stroke="black" points="1199.5,-56.5 1199.5,-86.5 1319.5,-86.5 1319.5,-56.5 1199.5,-56.5"/>
<text text-anchor="start" x="1207.5" y="-74.5" font-family="Helvetica,sans-Serif" font-size="10.00">source/pdes/serial</text>
<text text-anchor="middle" x="1259.5" y="-63.5" font-family="Helvetica,sans-Serif" font-size="10.00">/reduced_lagrange.cc</text>
</a>
</g>
</g>
<!-- Node19&#45;&gt;Node20 -->
<g id="edge19" class="edge">
<title>Node19&#45;&gt;Node20</title>
<path fill="none" stroke="midnightblue" d="M1235.55,-114.58C1240.86,-105.24 1246.84,-94.75 1251.49,-86.58"/>
<polygon fill="midnightblue" stroke="midnightblue" points="1232.43,-112.97 1230.53,-123.4 1238.52,-116.44 1232.43,-112.97"/>
</g>
<!-- Node21 -->
<g id="node21" class="node">
<title>Node21</title>
<g id="a_node21"><a xlink:href="apps_2serial_2reduced__lagrange_8cc.html" target="_top" xlink:title=" ">
<polygon fill="none" stroke="black" points="1337.5,-56.5 1337.5,-86.5 1449.5,-86.5 1449.5,-56.5 1337.5,-56.5"/>
<text text-anchor="start" x="1345.5" y="-74.5" font-family="Helvetica,sans-Serif" font-size="10.00">apps/serial/reduced</text>
<text text-anchor="middle" x="1393.5" y="-63.5" font-family="Helvetica,sans-Serif" font-size="10.00">_lagrange.cc</text>
</a>
</g>
</g>
<!-- Node19&#45;&gt;Node21 -->
<g id="edge20" class="edge">
<title>Node19&#45;&gt;Node21</title>
<path fill="none" stroke="midnightblue" d="M1269.02,-119.82C1296.5,-109.37 1330.83,-96.32 1356.47,-86.58"/>
<polygon fill="midnightblue" stroke="midnightblue" points="1267.71,-116.57 1259.6,-123.4 1270.2,-123.11 1267.71,-116.57"/>
</g>
<!-- Node23 -->
<g id="node23" class="node">
<title>Node23</title>
<g id="a_node23"><a xlink:href="source_2pdes_2serial_2stokes_8cc.html" target="_top" xlink:title=" ">
<polygon fill="none" stroke="black" points="1468,-56.5 1468,-86.5 1573,-86.5 1573,-56.5 1468,-56.5"/>
<text text-anchor="start" x="1476" y="-74.5" font-family="Helvetica,sans-Serif" font-size="10.00">source/pdes/serial</text>
<text text-anchor="middle" x="1520.5" y="-63.5" font-family="Helvetica,sans-Serif" font-size="10.00">/stokes.cc</text>
</a>
</g>
</g>
<!-- Node22&#45;&gt;Node23 -->
<g id="edge22" class="edge">
<title>Node22&#45;&gt;Node23</title>
<path fill="none" stroke="midnightblue" d="M1398.55,-119.68C1425.5,-109.26 1459.04,-96.28 1484.12,-86.58"/>
<polygon fill="midnightblue" stroke="midnightblue" points="1397.02,-116.52 1388.95,-123.4 1399.54,-123.05 1397.02,-116.52"/>
</g>
<!-- Node24 -->
<g id="node24" class="node">
<title>Node24</title>
<g id="a_node24"><a xlink:href="apps_2serial_2stokes_8cc.html" target="_top" xlink:title=" ">
<polygon fill="none" stroke="black" points="1591.5,-62 1591.5,-81 1709.5,-81 1709.5,-62 1591.5,-62"/>
<text text-anchor="middle" x="1650.5" y="-69" font-family="Helvetica,sans-Serif" font-size="10.00">apps/serial/stokes.cc</text>
</a>
</g>
</g>
<!-- Node22&#45;&gt;Node24 -->
<g id="edge23" class="edge">
<title>Node22&#45;&gt;Node24</title>
<path fill="none" stroke="midnightblue" d="M1416.69,-122.75C1490.28,-106.43 1564.82,-90.56 1609.71,-81.08"/>
<polygon fill="midnightblue" stroke="midnightblue" points="1415.79,-119.37 1406.78,-124.95 1417.31,-126.2 1415.79,-119.37"/>
</g>
</g>
</svg>
