<?xml version="1.0" encoding="UTF-8" standalone="no"?>
<!DOCTYPE svg PUBLIC "-//W3C//DTD SVG 1.1//EN"
 "http://www.w3.org/Graphics/SVG/1.1/DTD/svg11.dtd">
<!-- Generated by graphviz version 2.43.0 (0)
 -->
<!-- Title: source/grid_generator.cc Pages: 1 -->
<svg width="1839pt" height="285pt"
 viewBox="0.00 0.00 1838.88 285.00" xmlns="http://www.w3.org/2000/svg" xmlns:xlink="http://www.w3.org/1999/xlink">
<g id="graph0" class="graph" transform="scale(1 1) rotate(0) translate(4 281)">
<title>source/grid_generator.cc</title>
<!-- Node1 -->
<g id="node1" class="node">
<title>Node1</title>
<g id="a_node1"><a xlink:title=" ">
<polygon fill="#bfbfbf" stroke="black" points="972.38,-257.5 972.38,-276.5 1108.38,-276.5 1108.38,-257.5 972.38,-257.5"/>
<text text-anchor="middle" x="1040.38" y="-264.5" font-family="Helvetica,sans-Serif" font-size="10.00">source/grid_generator.cc</text>
</a>
</g>
</g>
<!-- Node2 -->
<g id="node2" class="node">
<title>Node2</title>
<g id="a_node2"><a xlink:href="grid__generator_8h.html" target="_top" xlink:title=" ">
<polygon fill="none" stroke="black" points="174.88,-196 174.88,-215 335.88,-215 335.88,-196 174.88,-196"/>
<text text-anchor="middle" x="255.38" y="-203" font-family="Helvetica,sans-Serif" font-size="10.00">parsed_tools/grid_generator.h</text>
</a>
</g>
</g>
<!-- Node1&#45;&gt;Node2 -->
<g id="edge1" class="edge">
<title>Node1&#45;&gt;Node2</title>
<path fill="none" stroke="midnightblue" d="M972.02,-263.78C847.07,-259.23 573.58,-247.02 344.38,-221 334.01,-219.82 323,-218.27 312.39,-216.63"/>
<polygon fill="midnightblue" stroke="midnightblue" points="312.81,-213.15 302.38,-215.03 311.7,-220.06 312.81,-213.15"/>
</g>
<!-- Node11 -->
<g id="node11" class="node">
<title>Node11</title>
<g id="a_node11"><a target="_parent" xlink:href="http://www.dealii.org/developer/doxygen/deal.II/grid__in_8h.html.html" xlink:title=" ">
<polygon fill="none" stroke="black" points="353.88,-196 353.88,-215 466.88,-215 466.88,-196 353.88,-196"/>
<text text-anchor="middle" x="410.38" y="-203" font-family="Helvetica,sans-Serif" font-size="10.00">deal.II/grid/grid_in.h</text>
</a>
</g>
</g>
<!-- Node1&#45;&gt;Node11 -->
<g id="edge11" class="edge">
<title>Node1&#45;&gt;Node11</title>
<path fill="none" stroke="midnightblue" d="M972.33,-263.57C865.99,-259.11 654.18,-247.5 476.38,-221 469.52,-219.98 462.31,-218.65 455.28,-217.22"/>
<polygon fill="midnightblue" stroke="midnightblue" points="455.67,-213.73 445.16,-215.07 454.21,-220.57 455.67,-213.73"/>
</g>
<!-- Node12 -->
<g id="node12" class="node">
<title>Node12</title>
<g id="a_node12"><a target="_parent" xlink:href="http://www.dealii.org/developer/doxygen/deal.II/grid__out_8h.html.html" xlink:title=" ">
<polygon fill="none" stroke="black" points="485.38,-196 485.38,-215 605.38,-215 605.38,-196 485.38,-196"/>
<text text-anchor="middle" x="545.38" y="-203" font-family="Helvetica,sans-Serif" font-size="10.00">deal.II/grid/grid_out.h</text>
</a>
</g>
</g>
<!-- Node1&#45;&gt;Node12 -->
<g id="edge12" class="edge">
<title>Node1&#45;&gt;Node12</title>
<path fill="none" stroke="midnightblue" d="M972.03,-260.85C887.83,-254.04 740.56,-240.54 615.38,-221 608.13,-219.87 600.5,-218.49 593.04,-217.03"/>
<polygon fill="midnightblue" stroke="midnightblue" points="593.54,-213.56 583.04,-215.01 592.15,-220.42 593.54,-213.56"/>
</g>
<!-- Node13 -->
<g id="node13" class="node">
<title>Node13</title>
<g id="a_node13"><a target="_parent" xlink:href="http://www.dealii.org/developer/doxygen/deal.II/opencascade_2manifold__lib_8h.html.html" xlink:title=" ">
<polygon fill="none" stroke="black" points="623.88,-190.5 623.88,-220.5 736.88,-220.5 736.88,-190.5 623.88,-190.5"/>
<text text-anchor="start" x="631.88" y="-208.5" font-family="Helvetica,sans-Serif" font-size="10.00">deal.II/opencascade</text>
<text text-anchor="middle" x="680.38" y="-197.5" font-family="Helvetica,sans-Serif" font-size="10.00">/manifold_lib.h</text>
</a>
</g>
</g>
<!-- Node1&#45;&gt;Node13 -->
<g id="edge13" class="edge">
<title>Node1&#45;&gt;Node13</title>
<path fill="none" stroke="midnightblue" d="M976.81,-257.47C919.35,-249.49 832.21,-236.71 747.05,-221.05"/>
<polygon fill="midnightblue" stroke="midnightblue" points="747.69,-217.61 737.22,-219.23 746.41,-224.49 747.69,-217.61"/>
</g>
<!-- Node14 -->
<g id="node14" class="node">
<title>Node14</title>
<g id="a_node14"><a target="_parent" xlink:href="http://www.dealii.org/developer/doxygen/deal.II/include_2deal_8II_2opencascade_2utilities_8h.html.html" xlink:title=" ">
<polygon fill="none" stroke="black" points="754.88,-190.5 754.88,-220.5 867.88,-220.5 867.88,-190.5 754.88,-190.5"/>
<text text-anchor="start" x="762.88" y="-208.5" font-family="Helvetica,sans-Serif" font-size="10.00">deal.II/opencascade</text>
<text text-anchor="middle" x="811.38" y="-197.5" font-family="Helvetica,sans-Serif" font-size="10.00">/utilities.h</text>
</a>
</g>
</g>
<!-- Node1&#45;&gt;Node14 -->
<g id="edge14" class="edge">
<title>Node1&#45;&gt;Node14</title>
<path fill="none" stroke="midnightblue" d="M1007.57,-257.48C973.15,-248.53 918.18,-234.25 875.17,-223.07"/>
<polygon fill="midnightblue" stroke="midnightblue" points="875.91,-219.65 865.35,-220.52 874.15,-226.43 875.91,-219.65"/>
</g>
<!-- Node15 -->
<g id="node15" class="node">
<title>Node15</title>
<g id="a_node15"><a xlink:title=" ">
<polygon fill="none" stroke="#bfbfbf" points="886.38,-196 886.38,-215 982.38,-215 982.38,-196 886.38,-196"/>
<text text-anchor="middle" x="934.38" y="-203" font-family="Helvetica,sans-Serif" font-size="10.00">BRepBndLib.hxx</text>
</a>
</g>
</g>
<!-- Node1&#45;&gt;Node15 -->
<g id="edge15" class="edge">
<title>Node1&#45;&gt;Node15</title>
<path fill="none" stroke="midnightblue" d="M1025.2,-257.48C1007.72,-247.67 978.81,-231.43 958.3,-219.92"/>
<polygon fill="midnightblue" stroke="midnightblue" points="959.98,-216.85 949.54,-215.01 956.55,-222.96 959.98,-216.85"/>
</g>
<!-- Node16 -->
<g id="node16" class="node">
<title>Node16</title>
<g id="a_node16"><a xlink:title=" ">
<polygon fill="none" stroke="#bfbfbf" points="1000.38,-196 1000.38,-215 1080.38,-215 1080.38,-196 1000.38,-196"/>
<text text-anchor="middle" x="1040.38" y="-203" font-family="Helvetica,sans-Serif" font-size="10.00">Bnd_Box.hxx</text>
</a>
</g>
</g>
<!-- Node1&#45;&gt;Node16 -->
<g id="edge16" class="edge">
<title>Node1&#45;&gt;Node16</title>
<path fill="none" stroke="midnightblue" d="M1040.38,-257.48C1040.38,-249.08 1040.38,-235.98 1040.38,-225.16"/>
<polygon fill="midnightblue" stroke="midnightblue" points="1043.88,-225.01 1040.38,-215.01 1036.88,-225.01 1043.88,-225.01"/>
</g>
<!-- Node17 -->
<g id="node17" class="node">
<title>Node17</title>
<g id="a_node17"><a xlink:title=" ">
<polygon fill="none" stroke="#bfbfbf" points="1098.38,-196 1098.38,-215 1172.38,-215 1172.38,-196 1098.38,-196"/>
<text text-anchor="middle" x="1135.38" y="-203" font-family="Helvetica,sans-Serif" font-size="10.00">TopoDS.hxx</text>
</a>
</g>
</g>
<!-- Node1&#45;&gt;Node17 -->
<g id="edge17" class="edge">
<title>Node1&#45;&gt;Node17</title>
<path fill="none" stroke="midnightblue" d="M1053.99,-257.48C1069.44,-247.8 1094.87,-231.87 1113.2,-220.39"/>
<polygon fill="midnightblue" stroke="midnightblue" points="1115.18,-223.28 1121.8,-215.01 1111.47,-217.35 1115.18,-223.28"/>
</g>
<!-- Node18 -->
<g id="node18" class="node">
<title>Node18</title>
<g id="a_node18"><a xlink:title=" ">
<polygon fill="none" stroke="#bfbfbf" points="1190.88,-190.5 1190.88,-220.5 1315.88,-220.5 1315.88,-190.5 1190.88,-190.5"/>
<text text-anchor="start" x="1198.88" y="-208.5" font-family="Helvetica,sans-Serif" font-size="10.00">boost/algorithm/string</text>
<text text-anchor="middle" x="1253.38" y="-197.5" font-family="Helvetica,sans-Serif" font-size="10.00">/case_conv.hpp</text>
</a>
</g>
</g>
<!-- Node1&#45;&gt;Node18 -->
<g id="edge18" class="edge">
<title>Node1&#45;&gt;Node18</title>
<path fill="none" stroke="midnightblue" d="M1070.9,-257.48C1102.78,-248.57 1153.62,-234.37 1193.55,-223.22"/>
<polygon fill="midnightblue" stroke="midnightblue" points="1194.49,-226.58 1203.18,-220.52 1192.61,-219.84 1194.49,-226.58"/>
</g>
<!-- Node19 -->
<g id="node19" class="node">
<title>Node19</title>
<g id="a_node19"><a xlink:title=" ">
<polygon fill="none" stroke="#bfbfbf" points="1334.38,-190.5 1334.38,-220.5 1450.38,-220.5 1450.38,-190.5 1334.38,-190.5"/>
<text text-anchor="start" x="1342.38" y="-208.5" font-family="Helvetica,sans-Serif" font-size="10.00">boost/archive/binary</text>
<text text-anchor="middle" x="1392.38" y="-197.5" font-family="Helvetica,sans-Serif" font-size="10.00">_iarchive.hpp</text>
</a>
</g>
</g>
<!-- Node1&#45;&gt;Node19 -->
<g id="edge19" class="edge">
<title>Node1&#45;&gt;Node19</title>
<path fill="none" stroke="midnightblue" d="M1100.88,-257.46C1156.48,-249.38 1241.43,-236.46 1324.47,-221.11"/>
<polygon fill="midnightblue" stroke="midnightblue" points="1325.13,-224.55 1334.32,-219.28 1323.85,-217.67 1325.13,-224.55"/>
</g>
<!-- Node20 -->
<g id="node20" class="node">
<title>Node20</title>
<g id="a_node20"><a xlink:title=" ">
<polygon fill="none" stroke="#bfbfbf" points="1468.38,-190.5 1468.38,-220.5 1584.38,-220.5 1584.38,-190.5 1468.38,-190.5"/>
<text text-anchor="start" x="1476.38" y="-208.5" font-family="Helvetica,sans-Serif" font-size="10.00">boost/archive/binary</text>
<text text-anchor="middle" x="1526.38" y="-197.5" font-family="Helvetica,sans-Serif" font-size="10.00">_oarchive.hpp</text>
</a>
</g>
</g>
<!-- Node1&#45;&gt;Node20 -->
<g id="edge20" class="edge">
<title>Node1&#45;&gt;Node20</title>
<path fill="none" stroke="midnightblue" d="M1108.53,-260.92C1189.58,-254.37 1329.11,-241.53 1458.28,-221.07"/>
<polygon fill="midnightblue" stroke="midnightblue" points="1459.03,-224.49 1468.35,-219.45 1457.92,-217.58 1459.03,-224.49"/>
</g>
<!-- Node21 -->
<g id="node21" class="node">
<title>Node21</title>
<g id="a_node21"><a xlink:title=" ">
<polygon fill="none" stroke="#bfbfbf" points="1602.88,-190.5 1602.88,-220.5 1707.88,-220.5 1707.88,-190.5 1602.88,-190.5"/>
<text text-anchor="start" x="1610.88" y="-208.5" font-family="Helvetica,sans-Serif" font-size="10.00">boost/archive/text</text>
<text text-anchor="middle" x="1655.38" y="-197.5" font-family="Helvetica,sans-Serif" font-size="10.00">_iarchive.hpp</text>
</a>
</g>
</g>
<!-- Node1&#45;&gt;Node21 -->
<g id="edge21" class="edge">
<title>Node1&#45;&gt;Node21</title>
<path fill="none" stroke="midnightblue" d="M1108.44,-263.72C1211.29,-259.55 1412.51,-248.59 1592.79,-220.92"/>
<polygon fill="midnightblue" stroke="midnightblue" points="1593.38,-224.37 1602.72,-219.38 1592.3,-217.46 1593.38,-224.37"/>
</g>
<!-- Node22 -->
<g id="node22" class="node">
<title>Node22</title>
<g id="a_node22"><a xlink:title=" ">
<polygon fill="none" stroke="#bfbfbf" points="1725.88,-190.5 1725.88,-220.5 1830.88,-220.5 1830.88,-190.5 1725.88,-190.5"/>
<text text-anchor="start" x="1733.88" y="-208.5" font-family="Helvetica,sans-Serif" font-size="10.00">boost/archive/text</text>
<text text-anchor="middle" x="1778.38" y="-197.5" font-family="Helvetica,sans-Serif" font-size="10.00">_oarchive.hpp</text>
</a>
</g>
</g>
<!-- Node1&#45;&gt;Node22 -->
<g id="edge22" class="edge">
<title>Node1&#45;&gt;Node22</title>
<path fill="none" stroke="midnightblue" d="M1108.53,-265.22C1229.26,-263.03 1488.63,-254.62 1715.49,-221.13"/>
<polygon fill="midnightblue" stroke="midnightblue" points="1716.22,-224.56 1725.59,-219.62 1715.18,-217.64 1716.22,-224.56"/>
</g>
<!-- Node3 -->
<g id="node3" class="node">
<title>Node3</title>
<g id="a_node3"><a target="_parent" xlink:href="http://www.dealii.org/developer/doxygen/deal.II/parameter__acceptor_8h.html.html" xlink:title=" ">
<polygon fill="none" stroke="black" points="92.88,-0.5 92.88,-30.5 219.88,-30.5 219.88,-0.5 92.88,-0.5"/>
<text text-anchor="start" x="100.88" y="-18.5" font-family="Helvetica,sans-Serif" font-size="10.00">deal.II/base/parameter</text>
<text text-anchor="middle" x="156.38" y="-7.5" font-family="Helvetica,sans-Serif" font-size="10.00">_acceptor.h</text>
</a>
</g>
</g>
<!-- Node2&#45;&gt;Node3 -->
<g id="edge2" class="edge">
<title>Node2&#45;&gt;Node3</title>
<path fill="none" stroke="midnightblue" d="M174.74,-198.68C111.54,-192.25 30.96,-179.25 10.38,-154 -28.19,-106.67 54.59,-59.66 110.56,-34.75"/>
<polygon fill="midnightblue" stroke="midnightblue" points="112.21,-37.85 119.98,-30.65 109.42,-31.43 112.21,-37.85"/>
</g>
<!-- Node4 -->
<g id="node4" class="node">
<title>Node4</title>
<g id="a_node4"><a target="_parent" xlink:href="http://www.dealii.org/developer/doxygen/deal.II/distributed_2grid__refinement_8h.html.html" xlink:title=" ">
<polygon fill="none" stroke="black" points="19.38,-123.5 19.38,-153.5 125.38,-153.5 125.38,-123.5 19.38,-123.5"/>
<text text-anchor="start" x="27.38" y="-141.5" font-family="Helvetica,sans-Serif" font-size="10.00">deal.II/distributed</text>
<text text-anchor="middle" x="72.38" y="-130.5" font-family="Helvetica,sans-Serif" font-size="10.00">/grid_refinement.h</text>
</a>
</g>
</g>
<!-- Node2&#45;&gt;Node4 -->
<g id="edge3" class="edge">
<title>Node2&#45;&gt;Node4</title>
<path fill="none" stroke="midnightblue" d="M231.08,-195.87C203.27,-185.99 156.98,-169.55 121.56,-156.97"/>
<polygon fill="midnightblue" stroke="midnightblue" points="122.47,-153.58 111.88,-153.53 120.13,-160.17 122.47,-153.58"/>
</g>
<!-- Node5 -->
<g id="node5" class="node">
<title>Node5</title>
<g id="a_node5"><a target="_parent" xlink:href="http://www.dealii.org/developer/doxygen/deal.II/distributed_2tria_8h.html.html" xlink:title=" ">
<polygon fill="none" stroke="black" points="143.38,-123.5 143.38,-153.5 245.38,-153.5 245.38,-123.5 143.38,-123.5"/>
<text text-anchor="start" x="151.38" y="-141.5" font-family="Helvetica,sans-Serif" font-size="10.00">deal.II/distributed</text>
<text text-anchor="middle" x="194.38" y="-130.5" font-family="Helvetica,sans-Serif" font-size="10.00">/tria.h</text>
</a>
</g>
</g>
<!-- Node2&#45;&gt;Node5 -->
<g id="edge4" class="edge">
<title>Node2&#45;&gt;Node5</title>
<path fill="none" stroke="midnightblue" d="M247.16,-195.73C238.83,-186.86 225.64,-172.81 214.53,-160.97"/>
<polygon fill="midnightblue" stroke="midnightblue" points="217,-158.49 207.61,-153.59 211.9,-163.28 217,-158.49"/>
</g>
<!-- Node6 -->
<g id="node6" class="node">
<title>Node6</title>
<g id="a_node6"><a target="_parent" xlink:href="http://www.dealii.org/developer/doxygen/deal.II/mapping__q__generic_8h.html.html" xlink:title=" ">
<polygon fill="none" stroke="black" points="263.88,-123.5 263.88,-153.5 368.88,-153.5 368.88,-123.5 263.88,-123.5"/>
<text text-anchor="start" x="271.88" y="-141.5" font-family="Helvetica,sans-Serif" font-size="10.00">deal.II/fe/mapping</text>
<text text-anchor="middle" x="316.38" y="-130.5" font-family="Helvetica,sans-Serif" font-size="10.00">_q_generic.h</text>
</a>
</g>
</g>
<!-- Node2&#45;&gt;Node6 -->
<g id="edge5" class="edge">
<title>Node2&#45;&gt;Node6</title>
<path fill="none" stroke="midnightblue" d="M263.61,-195.73C271.93,-186.86 285.12,-172.81 296.23,-160.97"/>
<polygon fill="midnightblue" stroke="midnightblue" points="298.87,-163.28 303.16,-153.59 293.77,-158.49 298.87,-163.28"/>
</g>
<!-- Node7 -->
<g id="node7" class="node">
<title>Node7</title>
<g id="a_node7"><a target="_parent" xlink:href="http://www.dealii.org/developer/doxygen/deal.II/grid__generator_8h.html.html" xlink:title=" ">
<polygon fill="none" stroke="black" points="386.88,-129 386.88,-148 537.88,-148 537.88,-129 386.88,-129"/>
<text text-anchor="middle" x="462.38" y="-136" font-family="Helvetica,sans-Serif" font-size="10.00">deal.II/grid/grid_generator.h</text>
</a>
</g>
</g>
<!-- Node2&#45;&gt;Node7 -->
<g id="edge6" class="edge">
<title>Node2&#45;&gt;Node7</title>
<path fill="none" stroke="midnightblue" d="M282.87,-195.87C319.55,-184.35 384.61,-163.92 425.52,-151.08"/>
<polygon fill="midnightblue" stroke="midnightblue" points="426.62,-154.4 435.11,-148.06 424.52,-147.72 426.62,-154.4"/>
</g>
<!-- Node10 -->
<g id="node10" class="node">
<title>Node10</title>
<g id="a_node10"><a target="_parent" xlink:href="http://www.dealii.org/developer/doxygen/deal.II/grid_2tria_8h.html.html" xlink:title=" ">
<polygon fill="none" stroke="black" points="555.88,-129 555.88,-148 652.88,-148 652.88,-129 555.88,-129"/>
<text text-anchor="middle" x="604.38" y="-136" font-family="Helvetica,sans-Serif" font-size="10.00">deal.II/grid/tria.h</text>
</a>
</g>
</g>
<!-- Node2&#45;&gt;Node10 -->
<g id="edge10" class="edge">
<title>Node2&#45;&gt;Node10</title>
<path fill="none" stroke="midnightblue" d="M307.72,-195.95C378.93,-184.24 502.6,-163.55 547.38,-154 552.37,-152.94 557.59,-151.73 562.75,-150.49"/>
<polygon fill="midnightblue" stroke="midnightblue" points="563.66,-153.87 572.53,-148.07 561.98,-147.07 563.66,-153.87"/>
</g>
<!-- Node8 -->
<g id="node8" class="node">
<title>Node8</title>
<g id="a_node8"><a xlink:href="function_8h.html" target="_top" xlink:title=" ">
<polygon fill="none" stroke="black" points="316.88,-67.5 316.88,-86.5 441.88,-86.5 441.88,-67.5 316.88,-67.5"/>
<text text-anchor="middle" x="379.38" y="-74.5" font-family="Helvetica,sans-Serif" font-size="10.00">deal.II/base/function.h</text>
</a>
</g>
</g>
<!-- Node7&#45;&gt;Node8 -->
<g id="edge7" class="edge">
<title>Node7&#45;&gt;Node8</title>
<path fill="none" stroke="midnightblue" d="M450.49,-128.98C437.18,-119.43 415.38,-103.81 399.43,-92.37"/>
<polygon fill="midnightblue" stroke="midnightblue" points="401.42,-89.49 391.25,-86.51 397.34,-95.18 401.42,-89.49"/>
</g>
<!-- Node8&#45;&gt;Node3 -->
<g id="edge9" class="edge">
<title>Node8&#45;&gt;Node3</title>
<path fill="none" stroke="midnightblue" d="M347.43,-67.48C313.99,-58.55 260.61,-44.31 218.77,-33.14"/>
<polygon fill="midnightblue" stroke="midnightblue" points="219.5,-29.72 208.94,-30.52 217.7,-36.48 219.5,-29.72"/>
</g>
<!-- Node9 -->
<g id="node9" class="node">
<title>Node9</title>
<g id="a_node9"><a target="_parent" xlink:href="http://www.dealii.org/developer/doxygen/deal.II/function__parser_8h.html.html" xlink:title=" ">
<polygon fill="none" stroke="black" points="321.38,-0.5 321.38,-30.5 437.38,-30.5 437.38,-0.5 321.38,-0.5"/>
<text text-anchor="start" x="329.38" y="-18.5" font-family="Helvetica,sans-Serif" font-size="10.00">deal.II/base/function</text>
<text text-anchor="middle" x="379.38" y="-7.5" font-family="Helvetica,sans-Serif" font-size="10.00">_parser.h</text>
</a>
</g>
</g>
<!-- Node8&#45;&gt;Node9 -->
<g id="edge8" class="edge">
<title>Node8&#45;&gt;Node9</title>
<path fill="none" stroke="midnightblue" d="M379.38,-67.48C379.38,-60.47 379.38,-50.19 379.38,-40.7"/>
<polygon fill="midnightblue" stroke="midnightblue" points="382.88,-40.52 379.38,-30.52 375.88,-40.52 382.88,-40.52"/>
</g>
</g>
</svg>
