<?xml version="1.0" encoding="UTF-8" standalone="no"?>
<!DOCTYPE svg PUBLIC "-//W3C//DTD SVG 1.1//EN"
 "http://www.w3.org/Graphics/SVG/1.1/DTD/svg11.dtd">
<!-- Generated by graphviz version 2.43.0 (0)
 -->
<!-- Title: include/parsed_tools/grid_generator.h Pages: 1 -->
<svg width="1527pt" height="173pt"
 viewBox="0.00 0.00 1526.50 173.00" xmlns="http://www.w3.org/2000/svg" xmlns:xlink="http://www.w3.org/1999/xlink">
<g id="graph0" class="graph" transform="scale(1 1) rotate(0) translate(4 169)">
<title>include/parsed_tools/grid_generator.h</title>
<!-- Node1 -->
<g id="node1" class="node">
<title>Node1</title>
<g id="a_node1"><a xlink:title=" ">
<polygon fill="#bfbfbf" stroke="black" points="810.5,-134.5 810.5,-164.5 927.5,-164.5 927.5,-134.5 810.5,-134.5"/>
<text text-anchor="start" x="818.5" y="-152.5" font-family="Helvetica,sans-Serif" font-size="10.00">include/parsed_tools</text>
<text text-anchor="middle" x="869" y="-141.5" font-family="Helvetica,sans-Serif" font-size="10.00">/grid_generator.h</text>
</a>
</g>
</g>
<!-- Node2 -->
<g id="node2" class="node">
<title>Node2</title>
<g id="a_node2"><a xlink:href="distributed__lagrange_8h.html" target="_top" xlink:title=" ">
<polygon fill="none" stroke="black" points="150.5,-67.5 150.5,-97.5 279.5,-97.5 279.5,-67.5 150.5,-67.5"/>
<text text-anchor="start" x="158.5" y="-85.5" font-family="Helvetica,sans-Serif" font-size="10.00">include/pdes/serial</text>
<text text-anchor="middle" x="215" y="-74.5" font-family="Helvetica,sans-Serif" font-size="10.00">/distributed_lagrange.h</text>
</a>
</g>
</g>
<!-- Node1&#45;&gt;Node2 -->
<g id="edge1" class="edge">
<title>Node1&#45;&gt;Node2</title>
<path fill="none" stroke="midnightblue" d="M800.4,-141.68C673.56,-129.08 404.02,-102.29 279.97,-89.96"/>
<polygon fill="midnightblue" stroke="midnightblue" points="800.09,-145.17 810.39,-142.67 800.78,-138.2 800.09,-145.17"/>
</g>
<!-- Node5 -->
<g id="node5" class="node">
<title>Node5</title>
<g id="a_node5"><a xlink:href="linear__elasticity_8h.html" target="_top" xlink:title=" ">
<polygon fill="none" stroke="black" points="421,-67.5 421,-97.5 529,-97.5 529,-67.5 421,-67.5"/>
<text text-anchor="start" x="429" y="-85.5" font-family="Helvetica,sans-Serif" font-size="10.00">include/pdes/serial</text>
<text text-anchor="middle" x="475" y="-74.5" font-family="Helvetica,sans-Serif" font-size="10.00">/linear_elasticity.h</text>
</a>
</g>
</g>
<!-- Node1&#45;&gt;Node5 -->
<g id="edge4" class="edge">
<title>Node1&#45;&gt;Node5</title>
<path fill="none" stroke="midnightblue" d="M800.34,-137.17C723.25,-124.45 599.71,-104.07 529.12,-92.43"/>
<polygon fill="midnightblue" stroke="midnightblue" points="800,-140.66 810.44,-138.84 801.14,-133.76 800,-140.66"/>
</g>
<!-- Node7 -->
<g id="node7" class="node">
<title>Node7</title>
<g id="a_node7"><a xlink:href="apps_2serial_2linear__elasticity_8cc.html" target="_top" xlink:title=" ">
<polygon fill="none" stroke="black" points="424.5,-0.5 424.5,-30.5 525.5,-30.5 525.5,-0.5 424.5,-0.5"/>
<text text-anchor="start" x="432.5" y="-18.5" font-family="Helvetica,sans-Serif" font-size="10.00">apps/serial/linear</text>
<text text-anchor="middle" x="475" y="-7.5" font-family="Helvetica,sans-Serif" font-size="10.00">_elasticity.cc</text>
</a>
</g>
</g>
<!-- Node1&#45;&gt;Node7 -->
<g id="edge19" class="edge">
<title>Node1&#45;&gt;Node7</title>
<path fill="none" stroke="midnightblue" d="M800.46,-138.12C753.84,-129.95 691.19,-116.78 638,-98 586.09,-79.67 529.44,-48.61 498.48,-30.59"/>
<polygon fill="midnightblue" stroke="midnightblue" points="800.01,-141.6 810.46,-139.84 801.2,-134.7 800.01,-141.6"/>
</g>
<!-- Node8 -->
<g id="node8" class="node">
<title>Node8</title>
<g id="a_node8"><a xlink:href="poisson_8h.html" target="_top" xlink:title=" ">
<polygon fill="none" stroke="black" points="647,-67.5 647,-97.5 755,-97.5 755,-67.5 647,-67.5"/>
<text text-anchor="start" x="655" y="-85.5" font-family="Helvetica,sans-Serif" font-size="10.00">include/pdes/serial</text>
<text text-anchor="middle" x="701" y="-74.5" font-family="Helvetica,sans-Serif" font-size="10.00">/poisson.h</text>
</a>
</g>
</g>
<!-- Node1&#45;&gt;Node8 -->
<g id="edge7" class="edge">
<title>Node1&#45;&gt;Node8</title>
<path fill="none" stroke="midnightblue" d="M822.95,-130.68C796,-120.26 762.46,-107.28 737.38,-97.58"/>
<polygon fill="midnightblue" stroke="midnightblue" points="821.96,-134.05 832.55,-134.4 824.48,-127.52 821.96,-134.05"/>
</g>
<!-- Node10 -->
<g id="node10" class="node">
<title>Node10</title>
<g id="a_node10"><a xlink:href="apps_2serial_2poisson_8cc.html" target="_top" xlink:title=" ">
<polygon fill="none" stroke="black" points="667,-6 667,-25 791,-25 791,-6 667,-6"/>
<text text-anchor="middle" x="729" y="-13" font-family="Helvetica,sans-Serif" font-size="10.00">apps/serial/poisson.cc</text>
</a>
</g>
</g>
<!-- Node1&#45;&gt;Node10 -->
<g id="edge20" class="edge">
<title>Node1&#45;&gt;Node10</title>
<path fill="none" stroke="midnightblue" d="M839.81,-128.4C827.68,-119.58 813.74,-108.79 802,-98 775.42,-73.58 748.09,-40.52 735.76,-25.09"/>
<polygon fill="midnightblue" stroke="midnightblue" points="838.08,-131.47 848.25,-134.45 842.16,-125.78 838.08,-131.47"/>
</g>
<!-- Node11 -->
<g id="node11" class="node">
<title>Node11</title>
<g id="a_node11"><a xlink:href="reduced__lagrange_8h.html" target="_top" xlink:title=" ">
<polygon fill="none" stroke="black" points="811,-67.5 811,-97.5 927,-97.5 927,-67.5 811,-67.5"/>
<text text-anchor="start" x="819" y="-85.5" font-family="Helvetica,sans-Serif" font-size="10.00">include/pdes/serial</text>
<text text-anchor="middle" x="869" y="-74.5" font-family="Helvetica,sans-Serif" font-size="10.00">/reduced_lagrange.h</text>
</a>
</g>
</g>
<!-- Node1&#45;&gt;Node11 -->
<g id="edge10" class="edge">
<title>Node1&#45;&gt;Node11</title>
<path fill="none" stroke="midnightblue" d="M869,-124.11C869,-115.15 869,-105.32 869,-97.58"/>
<polygon fill="midnightblue" stroke="midnightblue" points="865.5,-124.4 869,-134.4 872.5,-124.4 865.5,-124.4"/>
</g>
<!-- Node14 -->
<g id="node14" class="node">
<title>Node14</title>
<g id="a_node14"><a xlink:href="stokes_8h.html" target="_top" xlink:title=" ">
<polygon fill="none" stroke="black" points="945,-67.5 945,-97.5 1053,-97.5 1053,-67.5 945,-67.5"/>
<text text-anchor="start" x="953" y="-85.5" font-family="Helvetica,sans-Serif" font-size="10.00">include/pdes/serial</text>
<text text-anchor="middle" x="999" y="-74.5" font-family="Helvetica,sans-Serif" font-size="10.00">/stokes.h</text>
</a>
</g>
</g>
<!-- Node1&#45;&gt;Node14 -->
<g id="edge13" class="edge">
<title>Node1&#45;&gt;Node14</title>
<path fill="none" stroke="midnightblue" d="M906.29,-129.85C926.85,-119.58 951.95,-107.03 970.85,-97.58"/>
<polygon fill="midnightblue" stroke="midnightblue" points="904.59,-126.79 897.21,-134.4 907.72,-133.05 904.59,-126.79"/>
</g>
<!-- Node16 -->
<g id="node16" class="node">
<title>Node16</title>
<g id="a_node16"><a xlink:href="apps_2serial_2stokes_8cc.html" target="_top" xlink:title=" ">
<polygon fill="none" stroke="black" points="1201,-6 1201,-25 1319,-25 1319,-6 1201,-6"/>
<text text-anchor="middle" x="1260" y="-13" font-family="Helvetica,sans-Serif" font-size="10.00">apps/serial/stokes.cc</text>
</a>
</g>
</g>
<!-- Node1&#45;&gt;Node16 -->
<g id="edge21" class="edge">
<title>Node1&#45;&gt;Node16</title>
<path fill="none" stroke="midnightblue" d="M937.78,-137.72C975.78,-130.01 1023.04,-117.48 1062,-98 1081.8,-88.1 1081.46,-77.41 1101,-67 1138.96,-46.77 1186.38,-33.02 1219.52,-25.04"/>
<polygon fill="midnightblue" stroke="midnightblue" points="936.97,-134.31 927.83,-139.67 938.32,-141.18 936.97,-134.31"/>
</g>
<!-- Node17 -->
<g id="node17" class="node">
<title>Node17</title>
<g id="a_node17"><a xlink:href="grid__generator_8cc.html" target="_top" xlink:title=" ">
<polygon fill="none" stroke="black" points="1109.5,-73 1109.5,-92 1246.5,-92 1246.5,-73 1109.5,-73"/>
<text text-anchor="middle" x="1178" y="-80" font-family="Helvetica,sans-Serif" font-size="10.00">source/grid_generator.cc</text>
</a>
</g>
</g>
<!-- Node1&#45;&gt;Node17 -->
<g id="edge16" class="edge">
<title>Node1&#45;&gt;Node17</title>
<path fill="none" stroke="midnightblue" d="M937.84,-134.02C999.19,-121.11 1086.89,-102.67 1137.58,-92"/>
<polygon fill="midnightblue" stroke="midnightblue" points="936.91,-130.64 927.85,-136.12 938.35,-137.49 936.91,-130.64"/>
</g>
<!-- Node18 -->
<g id="node18" class="node">
<title>Node18</title>
<g id="a_node18"><a xlink:href="dof__plotter_8cc.html" target="_top" xlink:title="Degrees of freedom plotter.">
<polygon fill="none" stroke="black" points="1265,-73 1265,-92 1375,-92 1375,-73 1265,-73"/>
<text text-anchor="middle" x="1320" y="-80" font-family="Helvetica,sans-Serif" font-size="10.00">apps/dof_plotter.cc</text>
</a>
</g>
</g>
<!-- Node1&#45;&gt;Node18 -->
<g id="edge17" class="edge">
<title>Node1&#45;&gt;Node18</title>
<path fill="none" stroke="midnightblue" d="M937.74,-141.48C1015.35,-133.11 1145.24,-117.73 1256,-98 1265.42,-96.32 1275.55,-94.18 1284.91,-92.07"/>
<polygon fill="midnightblue" stroke="midnightblue" points="937.18,-138.02 927.61,-142.57 937.93,-144.98 937.18,-138.02"/>
</g>
<!-- Node19 -->
<g id="node19" class="node">
<title>Node19</title>
<g id="a_node19"><a xlink:href="mesh__handler_8cc.html" target="_top" xlink:title="Mesh generator and reader.">
<polygon fill="none" stroke="black" points="1393.5,-73 1393.5,-92 1518.5,-92 1518.5,-73 1393.5,-73"/>
<text text-anchor="middle" x="1456" y="-80" font-family="Helvetica,sans-Serif" font-size="10.00">apps/mesh_handler.cc</text>
</a>
</g>
</g>
<!-- Node1&#45;&gt;Node19 -->
<g id="edge18" class="edge">
<title>Node1&#45;&gt;Node19</title>
<path fill="none" stroke="midnightblue" d="M937.72,-143.98C1036.71,-136.96 1225.03,-121.74 1384,-98 1394.85,-96.38 1406.53,-94.21 1417.27,-92.05"/>
<polygon fill="midnightblue" stroke="midnightblue" points="937.28,-140.5 927.55,-144.69 937.77,-147.48 937.28,-140.5"/>
</g>
<!-- Node3 -->
<g id="node3" class="node">
<title>Node3</title>
<g id="a_node3"><a xlink:href="source_2pdes_2serial_2distributed__lagrange_8cc.html" target="_top" xlink:title=" ">
<polygon fill="none" stroke="black" points="0,-0.5 0,-30.5 134,-30.5 134,-0.5 0,-0.5"/>
<text text-anchor="start" x="8" y="-18.5" font-family="Helvetica,sans-Serif" font-size="10.00">source/pdes/serial</text>
<text text-anchor="middle" x="67" y="-7.5" font-family="Helvetica,sans-Serif" font-size="10.00">/distributed_lagrange.cc</text>
</a>
</g>
</g>
<!-- Node2&#45;&gt;Node3 -->
<g id="edge2" class="edge">
<title>Node2&#45;&gt;Node3</title>
<path fill="none" stroke="midnightblue" d="M173.49,-63.27C149.92,-52.92 120.86,-40.15 99.05,-30.58"/>
<polygon fill="midnightblue" stroke="midnightblue" points="172.32,-66.58 182.89,-67.4 175.14,-60.17 172.32,-66.58"/>
</g>
<!-- Node4 -->
<g id="node4" class="node">
<title>Node4</title>
<g id="a_node4"><a xlink:href="apps_2serial_2distributed__lagrange_8cc.html" target="_top" xlink:title=" ">
<polygon fill="none" stroke="black" points="152.5,-0.5 152.5,-30.5 277.5,-30.5 277.5,-0.5 152.5,-0.5"/>
<text text-anchor="start" x="160.5" y="-18.5" font-family="Helvetica,sans-Serif" font-size="10.00">apps/serial/distributed</text>
<text text-anchor="middle" x="215" y="-7.5" font-family="Helvetica,sans-Serif" font-size="10.00">_lagrange.cc</text>
</a>
</g>
</g>
<!-- Node2&#45;&gt;Node4 -->
<g id="edge3" class="edge">
<title>Node2&#45;&gt;Node4</title>
<path fill="none" stroke="midnightblue" d="M215,-57.11C215,-48.15 215,-38.32 215,-30.58"/>
<polygon fill="midnightblue" stroke="midnightblue" points="211.5,-57.4 215,-67.4 218.5,-57.4 211.5,-57.4"/>
</g>
<!-- Node6 -->
<g id="node6" class="node">
<title>Node6</title>
<g id="a_node6"><a xlink:href="source_2pdes_2serial_2linear__elasticity_8cc.html" target="_top" xlink:title=" ">
<polygon fill="none" stroke="black" points="296,-0.5 296,-30.5 406,-30.5 406,-0.5 296,-0.5"/>
<text text-anchor="start" x="304" y="-18.5" font-family="Helvetica,sans-Serif" font-size="10.00">source/pdes/serial</text>
<text text-anchor="middle" x="351" y="-7.5" font-family="Helvetica,sans-Serif" font-size="10.00">/linear_elasticity.cc</text>
</a>
</g>
</g>
<!-- Node5&#45;&gt;Node6 -->
<g id="edge5" class="edge">
<title>Node5&#45;&gt;Node6</title>
<path fill="none" stroke="midnightblue" d="M439.16,-62.71C419.61,-52.46 395.8,-39.98 377.85,-30.58"/>
<polygon fill="midnightblue" stroke="midnightblue" points="437.61,-65.85 448.09,-67.4 440.86,-59.65 437.61,-65.85"/>
</g>
<!-- Node5&#45;&gt;Node7 -->
<g id="edge6" class="edge">
<title>Node5&#45;&gt;Node7</title>
<path fill="none" stroke="midnightblue" d="M475,-57.11C475,-48.15 475,-38.32 475,-30.58"/>
<polygon fill="midnightblue" stroke="midnightblue" points="471.5,-57.4 475,-67.4 478.5,-57.4 471.5,-57.4"/>
</g>
<!-- Node9 -->
<g id="node9" class="node">
<title>Node9</title>
<g id="a_node9"><a xlink:href="source_2pdes_2serial_2poisson_8cc.html" target="_top" xlink:title=" ">
<polygon fill="none" stroke="black" points="543.5,-0.5 543.5,-30.5 648.5,-30.5 648.5,-0.5 543.5,-0.5"/>
<text text-anchor="start" x="551.5" y="-18.5" font-family="Helvetica,sans-Serif" font-size="10.00">source/pdes/serial</text>
<text text-anchor="middle" x="596" y="-7.5" font-family="Helvetica,sans-Serif" font-size="10.00">/poisson.cc</text>
</a>
</g>
</g>
<!-- Node8&#45;&gt;Node9 -->
<g id="edge8" class="edge">
<title>Node8&#45;&gt;Node9</title>
<path fill="none" stroke="midnightblue" d="M669.52,-62.02C653.18,-51.9 633.59,-39.77 618.74,-30.58"/>
<polygon fill="midnightblue" stroke="midnightblue" points="667.87,-65.11 678.22,-67.4 671.56,-59.16 667.87,-65.11"/>
</g>
<!-- Node8&#45;&gt;Node10 -->
<g id="edge9" class="edge">
<title>Node8&#45;&gt;Node10</title>
<path fill="none" stroke="midnightblue" d="M711.15,-57.94C716.06,-46.54 721.66,-33.55 725.25,-25.19"/>
<polygon fill="midnightblue" stroke="midnightblue" points="707.82,-56.83 707.08,-67.4 714.25,-59.6 707.82,-56.83"/>
</g>
<!-- Node12 -->
<g id="node12" class="node">
<title>Node12</title>
<g id="a_node12"><a xlink:href="source_2pdes_2serial_2reduced__lagrange_8cc.html" target="_top" xlink:title=" ">
<polygon fill="none" stroke="black" points="809,-0.5 809,-30.5 929,-30.5 929,-0.5 809,-0.5"/>
<text text-anchor="start" x="817" y="-18.5" font-family="Helvetica,sans-Serif" font-size="10.00">source/pdes/serial</text>
<text text-anchor="middle" x="869" y="-7.5" font-family="Helvetica,sans-Serif" font-size="10.00">/reduced_lagrange.cc</text>
</a>
</g>
</g>
<!-- Node11&#45;&gt;Node12 -->
<g id="edge11" class="edge">
<title>Node11&#45;&gt;Node12</title>
<path fill="none" stroke="midnightblue" d="M869,-57.11C869,-48.15 869,-38.32 869,-30.58"/>
<polygon fill="midnightblue" stroke="midnightblue" points="865.5,-57.4 869,-67.4 872.5,-57.4 865.5,-57.4"/>
</g>
<!-- Node13 -->
<g id="node13" class="node">
<title>Node13</title>
<g id="a_node13"><a xlink:href="apps_2serial_2reduced__lagrange_8cc.html" target="_top" xlink:title=" ">
<polygon fill="none" stroke="black" points="947,-0.5 947,-30.5 1059,-30.5 1059,-0.5 947,-0.5"/>
<text text-anchor="start" x="955" y="-18.5" font-family="Helvetica,sans-Serif" font-size="10.00">apps/serial/reduced</text>
<text text-anchor="middle" x="1003" y="-7.5" font-family="Helvetica,sans-Serif" font-size="10.00">_lagrange.cc</text>
</a>
</g>
</g>
<!-- Node11&#45;&gt;Node13 -->
<g id="edge12" class="edge">
<title>Node11&#45;&gt;Node13</title>
<path fill="none" stroke="midnightblue" d="M907.15,-62.99C928.39,-52.69 954.41,-40.07 973.98,-30.58"/>
<polygon fill="midnightblue" stroke="midnightblue" points="905.55,-59.88 898.08,-67.4 908.6,-66.18 905.55,-59.88"/>
</g>
<!-- Node15 -->
<g id="node15" class="node">
<title>Node15</title>
<g id="a_node15"><a xlink:href="source_2pdes_2serial_2stokes_8cc.html" target="_top" xlink:title=" ">
<polygon fill="none" stroke="black" points="1077.5,-0.5 1077.5,-30.5 1182.5,-30.5 1182.5,-0.5 1077.5,-0.5"/>
<text text-anchor="start" x="1085.5" y="-18.5" font-family="Helvetica,sans-Serif" font-size="10.00">source/pdes/serial</text>
<text text-anchor="middle" x="1130" y="-7.5" font-family="Helvetica,sans-Serif" font-size="10.00">/stokes.cc</text>
</a>
</g>
</g>
<!-- Node14&#45;&gt;Node15 -->
<g id="edge14" class="edge">
<title>Node14&#45;&gt;Node15</title>
<path fill="none" stroke="midnightblue" d="M1036.58,-62.85C1057.29,-52.58 1082.59,-40.03 1101.63,-30.58"/>
<polygon fill="midnightblue" stroke="midnightblue" points="1034.83,-59.82 1027.43,-67.4 1037.94,-66.09 1034.83,-59.82"/>
</g>
<!-- Node14&#45;&gt;Node16 -->
<g id="edge15" class="edge">
<title>Node14&#45;&gt;Node16</title>
<path fill="none" stroke="midnightblue" d="M1063.07,-65.54C1114.34,-52.77 1184.27,-35.36 1225.52,-25.09"/>
<polygon fill="midnightblue" stroke="midnightblue" points="1061.94,-62.22 1053.08,-68.03 1063.63,-69.01 1061.94,-62.22"/>
</g>
</g>
</svg>
