<?xml version="1.0" encoding="UTF-8" standalone="no"?>
<!DOCTYPE svg PUBLIC "-//W3C//DTD SVG 1.1//EN"
 "http://www.w3.org/Graphics/SVG/1.1/DTD/svg11.dtd">
<!-- Generated by graphviz version 2.43.0 (0)
 -->
<!-- Title: include/parsed_tools/grid_generator.h Pages: 1 -->
<svg width="813pt" height="173pt"
 viewBox="0.00 0.00 813.00 173.00" xmlns="http://www.w3.org/2000/svg" xmlns:xlink="http://www.w3.org/1999/xlink">
<g id="graph0" class="graph" transform="scale(1 1) rotate(0) translate(4 169)">
<title>include/parsed_tools/grid_generator.h</title>
<!-- Node1 -->
<g id="node1" class="node">
<title>Node1</title>
<g id="a_node1"><a xlink:title=" ">
<polygon fill="#bfbfbf" stroke="black" points="362,-134.5 362,-164.5 479,-164.5 479,-134.5 362,-134.5"/>
<text text-anchor="start" x="370" y="-152.5" font-family="Helvetica,sans-Serif" font-size="10.00">include/parsed_tools</text>
<text text-anchor="middle" x="420.5" y="-141.5" font-family="Helvetica,sans-Serif" font-size="10.00">/grid_generator.h</text>
</a>
</g>
</g>
<!-- Node2 -->
<g id="node2" class="node">
<title>Node2</title>
<g id="a_node2"><a xlink:href="grid__generator_8cc.html" target="_top" xlink:title=" ">
<polygon fill="none" stroke="black" points="0,-73 0,-92 137,-92 137,-73 0,-73"/>
<text text-anchor="middle" x="68.5" y="-80" font-family="Helvetica,sans-Serif" font-size="10.00">source/grid_generator.cc</text>
</a>
</g>
</g>
<!-- Node1&#45;&gt;Node2 -->
<g id="edge1" class="edge">
<title>Node1&#45;&gt;Node2</title>
<path fill="none" stroke="midnightblue" d="M351.91,-135.89C296.49,-125.69 216.46,-110.95 146.5,-98 136.07,-96.07 124.86,-93.99 114.28,-92.02"/>
<polygon fill="midnightblue" stroke="midnightblue" points="351.5,-139.37 361.97,-137.74 352.77,-132.49 351.5,-139.37"/>
</g>
<!-- Node3 -->
<g id="node3" class="node">
<title>Node3</title>
<g id="a_node3"><a xlink:href="linear__elasticity_8h.html" target="_top" xlink:title=" ">
<polygon fill="none" stroke="black" points="155.5,-67.5 155.5,-97.5 263.5,-97.5 263.5,-67.5 155.5,-67.5"/>
<text text-anchor="start" x="163.5" y="-85.5" font-family="Helvetica,sans-Serif" font-size="10.00">include/pdes/serial</text>
<text text-anchor="middle" x="209.5" y="-74.5" font-family="Helvetica,sans-Serif" font-size="10.00">/linear_elasticity.h</text>
</a>
</g>
</g>
<!-- Node1&#45;&gt;Node3 -->
<g id="edge2" class="edge">
<title>Node1&#45;&gt;Node3</title>
<path fill="none" stroke="midnightblue" d="M365.13,-131.44C330.93,-120.91 287.57,-107.55 255.31,-97.61"/>
<polygon fill="midnightblue" stroke="midnightblue" points="364.39,-134.88 374.98,-134.48 366.45,-128.19 364.39,-134.88"/>
</g>
<!-- Node5 -->
<g id="node5" class="node">
<title>Node5</title>
<g id="a_node5"><a xlink:href="apps_2serial_2linear__elasticity_8cc.html" target="_top" xlink:title=" ">
<polygon fill="none" stroke="black" points="157,-0.5 157,-30.5 258,-30.5 258,-0.5 157,-0.5"/>
<text text-anchor="start" x="165" y="-18.5" font-family="Helvetica,sans-Serif" font-size="10.00">apps/serial/linear</text>
<text text-anchor="middle" x="207.5" y="-7.5" font-family="Helvetica,sans-Serif" font-size="10.00">_elasticity.cc</text>
</a>
</g>
</g>
<!-- Node1&#45;&gt;Node5 -->
<g id="edge12" class="edge">
<title>Node1&#45;&gt;Node5</title>
<path fill="none" stroke="midnightblue" d="M378.19,-130.18C358.92,-121.28 336.09,-109.93 316.5,-98 298.24,-86.88 251.31,-50.74 225.38,-30.52"/>
<polygon fill="midnightblue" stroke="midnightblue" points="376.78,-133.38 387.34,-134.35 379.69,-127.01 376.78,-133.38"/>
</g>
<!-- Node6 -->
<g id="node6" class="node">
<title>Node6</title>
<g id="a_node6"><a xlink:href="poisson_8h.html" target="_top" xlink:title=" ">
<polygon fill="none" stroke="black" points="325.5,-67.5 325.5,-97.5 433.5,-97.5 433.5,-67.5 325.5,-67.5"/>
<text text-anchor="start" x="333.5" y="-85.5" font-family="Helvetica,sans-Serif" font-size="10.00">include/pdes/serial</text>
<text text-anchor="middle" x="379.5" y="-74.5" font-family="Helvetica,sans-Serif" font-size="10.00">/poisson.h</text>
</a>
</g>
</g>
<!-- Node1&#45;&gt;Node6 -->
<g id="edge5" class="edge">
<title>Node1&#45;&gt;Node6</title>
<path fill="none" stroke="midnightblue" d="M406.22,-125.87C400.29,-116.46 393.59,-105.83 388.38,-97.58"/>
<polygon fill="midnightblue" stroke="midnightblue" points="403.31,-127.81 411.6,-134.4 409.23,-124.07 403.31,-127.81"/>
</g>
<!-- Node8 -->
<g id="node8" class="node">
<title>Node8</title>
<g id="a_node8"><a xlink:href="apps_2serial_2poisson_8cc.html" target="_top" xlink:title=" ">
<polygon fill="none" stroke="black" points="399.5,-6 399.5,-25 523.5,-25 523.5,-6 399.5,-6"/>
<text text-anchor="middle" x="461.5" y="-13" font-family="Helvetica,sans-Serif" font-size="10.00">apps/serial/poisson.cc</text>
</a>
</g>
</g>
<!-- Node1&#45;&gt;Node8 -->
<g id="edge13" class="edge">
<title>Node1&#45;&gt;Node8</title>
<path fill="none" stroke="midnightblue" d="M431.79,-125C435.54,-116.61 439.52,-107 442.5,-98 451.09,-72.07 457.31,-40.27 460.01,-25.21"/>
<polygon fill="midnightblue" stroke="midnightblue" points="428.57,-123.64 427.57,-134.19 434.93,-126.57 428.57,-123.64"/>
</g>
<!-- Node9 -->
<g id="node9" class="node">
<title>Node9</title>
<g id="a_node9"><a xlink:href="stokes_8h.html" target="_top" xlink:title=" ">
<polygon fill="none" stroke="black" points="515.5,-67.5 515.5,-97.5 623.5,-97.5 623.5,-67.5 515.5,-67.5"/>
<text text-anchor="start" x="523.5" y="-85.5" font-family="Helvetica,sans-Serif" font-size="10.00">include/pdes/serial</text>
<text text-anchor="middle" x="569.5" y="-74.5" font-family="Helvetica,sans-Serif" font-size="10.00">/stokes.h</text>
</a>
</g>
</g>
<!-- Node1&#45;&gt;Node9 -->
<g id="edge8" class="edge">
<title>Node1&#45;&gt;Node9</title>
<path fill="none" stroke="midnightblue" d="M462.29,-130.27C486.02,-119.92 515.28,-107.15 537.23,-97.58"/>
<polygon fill="midnightblue" stroke="midnightblue" points="460.6,-127.19 452.83,-134.4 463.4,-133.61 460.6,-127.19"/>
</g>
<!-- Node11 -->
<g id="node11" class="node">
<title>Node11</title>
<g id="a_node11"><a xlink:href="apps_2serial_2stokes_8cc.html" target="_top" xlink:title=" ">
<polygon fill="none" stroke="black" points="665.5,-6 665.5,-25 783.5,-25 783.5,-6 665.5,-6"/>
<text text-anchor="middle" x="724.5" y="-13" font-family="Helvetica,sans-Serif" font-size="10.00">apps/serial/stokes.cc</text>
</a>
</g>
</g>
<!-- Node1&#45;&gt;Node11 -->
<g id="edge14" class="edge">
<title>Node1&#45;&gt;Node11</title>
<path fill="none" stroke="midnightblue" d="M489.52,-140.78C532.5,-133.91 587.9,-121.18 632.5,-98 642.06,-93.03 693.81,-45.16 715.22,-25.19"/>
<polygon fill="midnightblue" stroke="midnightblue" points="488.79,-137.35 479.43,-142.32 489.84,-144.27 488.79,-137.35"/>
</g>
<!-- Node12 -->
<g id="node12" class="node">
<title>Node12</title>
<g id="a_node12"><a xlink:href="mesh__handler_8cc.html" target="_top" xlink:title=" ">
<polygon fill="none" stroke="black" points="680,-73 680,-92 805,-92 805,-73 680,-73"/>
<text text-anchor="middle" x="742.5" y="-80" font-family="Helvetica,sans-Serif" font-size="10.00">apps/mesh_handler.cc</text>
</a>
</g>
</g>
<!-- Node1&#45;&gt;Node12 -->
<g id="edge11" class="edge">
<title>Node1&#45;&gt;Node12</title>
<path fill="none" stroke="midnightblue" d="M489.19,-134.63C553.13,-121.73 646.42,-102.89 700.14,-92.05"/>
<polygon fill="midnightblue" stroke="midnightblue" points="488.3,-131.24 479.19,-136.65 489.68,-138.11 488.3,-131.24"/>
</g>
<!-- Node4 -->
<g id="node4" class="node">
<title>Node4</title>
<g id="a_node4"><a xlink:href="source_2pdes_2serial_2linear__elasticity_8cc.html" target="_top" xlink:title=" ">
<polygon fill="none" stroke="black" points="28.5,-0.5 28.5,-30.5 138.5,-30.5 138.5,-0.5 28.5,-0.5"/>
<text text-anchor="start" x="36.5" y="-18.5" font-family="Helvetica,sans-Serif" font-size="10.00">source/pdes/serial</text>
<text text-anchor="middle" x="83.5" y="-7.5" font-family="Helvetica,sans-Serif" font-size="10.00">/linear_elasticity.cc</text>
</a>
</g>
</g>
<!-- Node3&#45;&gt;Node4 -->
<g id="edge3" class="edge">
<title>Node3&#45;&gt;Node4</title>
<path fill="none" stroke="midnightblue" d="M173.08,-62.71C153.21,-52.46 129.02,-39.98 110.79,-30.58"/>
<polygon fill="midnightblue" stroke="midnightblue" points="171.67,-65.92 182.16,-67.4 174.88,-59.7 171.67,-65.92"/>
</g>
<!-- Node3&#45;&gt;Node5 -->
<g id="edge4" class="edge">
<title>Node3&#45;&gt;Node5</title>
<path fill="none" stroke="midnightblue" d="M208.75,-57.11C208.47,-48.15 208.17,-38.32 207.93,-30.58"/>
<polygon fill="midnightblue" stroke="midnightblue" points="205.26,-57.51 209.07,-67.4 212.26,-57.29 205.26,-57.51"/>
</g>
<!-- Node7 -->
<g id="node7" class="node">
<title>Node7</title>
<g id="a_node7"><a xlink:href="source_2pdes_2serial_2poisson_8cc.html" target="_top" xlink:title=" ">
<polygon fill="none" stroke="black" points="276,-0.5 276,-30.5 381,-30.5 381,-0.5 276,-0.5"/>
<text text-anchor="start" x="284" y="-18.5" font-family="Helvetica,sans-Serif" font-size="10.00">source/pdes/serial</text>
<text text-anchor="middle" x="328.5" y="-7.5" font-family="Helvetica,sans-Serif" font-size="10.00">/poisson.cc</text>
</a>
</g>
</g>
<!-- Node6&#45;&gt;Node7 -->
<g id="edge6" class="edge">
<title>Node6&#45;&gt;Node7</title>
<path fill="none" stroke="midnightblue" d="M362.2,-59.45C354.71,-49.9 346.16,-39 339.54,-30.58"/>
<polygon fill="midnightblue" stroke="midnightblue" points="359.51,-61.69 368.43,-67.4 365.01,-57.37 359.51,-61.69"/>
</g>
<!-- Node6&#45;&gt;Node8 -->
<g id="edge7" class="edge">
<title>Node6&#45;&gt;Node8</title>
<path fill="none" stroke="midnightblue" d="M405.35,-61.01C420.57,-48.94 439.04,-34.3 450.53,-25.19"/>
<polygon fill="midnightblue" stroke="midnightblue" points="402.96,-58.44 397.29,-67.4 407.3,-63.93 402.96,-58.44"/>
</g>
<!-- Node10 -->
<g id="node10" class="node">
<title>Node10</title>
<g id="a_node10"><a xlink:href="source_2pdes_2serial_2stokes_8cc.html" target="_top" xlink:title=" ">
<polygon fill="none" stroke="black" points="542,-0.5 542,-30.5 647,-30.5 647,-0.5 542,-0.5"/>
<text text-anchor="start" x="550" y="-18.5" font-family="Helvetica,sans-Serif" font-size="10.00">source/pdes/serial</text>
<text text-anchor="middle" x="594.5" y="-7.5" font-family="Helvetica,sans-Serif" font-size="10.00">/stokes.cc</text>
</a>
</g>
</g>
<!-- Node9&#45;&gt;Node10 -->
<g id="edge9" class="edge">
<title>Node9&#45;&gt;Node10</title>
<path fill="none" stroke="midnightblue" d="M578.54,-57.99C582.08,-48.8 586.01,-38.58 589.09,-30.58"/>
<polygon fill="midnightblue" stroke="midnightblue" points="575.25,-56.81 574.92,-67.4 581.78,-59.32 575.25,-56.81"/>
</g>
<!-- Node9&#45;&gt;Node11 -->
<g id="edge10" class="edge">
<title>Node9&#45;&gt;Node11</title>
<path fill="none" stroke="midnightblue" d="M612.52,-63.46C642.47,-50.9 681.04,-34.72 704.21,-25.01"/>
<polygon fill="midnightblue" stroke="midnightblue" points="611,-60.3 603.13,-67.4 613.71,-66.76 611,-60.3"/>
</g>
</g>
</svg>
