<?xml version="1.0" encoding="UTF-8" standalone="no"?>
<!DOCTYPE svg PUBLIC "-//W3C//DTD SVG 1.1//EN"
 "http://www.w3.org/Graphics/SVG/1.1/DTD/svg11.dtd">
<!-- Generated by graphviz version 2.43.0 (0)
 -->
<!-- Title: include/parsed_tools/grid_refinement.h Pages: 1 -->
<svg width="2564pt" height="240pt"
 viewBox="0.00 0.00 2563.50 240.00" xmlns="http://www.w3.org/2000/svg" xmlns:xlink="http://www.w3.org/1999/xlink">
<g id="graph0" class="graph" transform="scale(1 1) rotate(0) translate(4 236)">
<title>include/parsed_tools/grid_refinement.h</title>
<!-- Node1 -->
<g id="node1" class="node">
<title>Node1</title>
<g id="a_node1"><a xlink:title=" ">
<polygon fill="#bfbfbf" stroke="black" points="1822,-201.5 1822,-231.5 1939,-231.5 1939,-201.5 1822,-201.5"/>
<text text-anchor="start" x="1830" y="-219.5" font-family="Helvetica,sans-Serif" font-size="10.00">include/parsed_tools</text>
<text text-anchor="middle" x="1880.5" y="-208.5" font-family="Helvetica,sans-Serif" font-size="10.00">/grid_refinement.h</text>
</a>
</g>
</g>
<!-- Node2 -->
<g id="node2" class="node">
<title>Node2</title>
<g id="a_node2"><a xlink:href="linear__problem_8h.html" target="_top" xlink:title=" ">
<polygon fill="none" stroke="black" points="755,-134.5 755,-164.5 864,-164.5 864,-134.5 755,-134.5"/>
<text text-anchor="start" x="763" y="-152.5" font-family="Helvetica,sans-Serif" font-size="10.00">include/pdes/linear</text>
<text text-anchor="middle" x="809.5" y="-141.5" font-family="Helvetica,sans-Serif" font-size="10.00">_problem.h</text>
</a>
</g>
</g>
<!-- Node1&#45;&gt;Node2 -->
<g id="edge1" class="edge">
<title>Node1&#45;&gt;Node2</title>
<path fill="none" stroke="midnightblue" d="M1811.78,-211.33C1613.6,-199.3 1043.72,-164.71 864.28,-153.82"/>
<polygon fill="midnightblue" stroke="midnightblue" points="1811.58,-214.82 1821.78,-211.94 1812.01,-207.84 1811.58,-214.82"/>
</g>
<!-- Node14 -->
<g id="node14" class="node">
<title>Node14</title>
<g id="a_node14"><a xlink:href="distributed__lagrange_8h.html" target="_top" xlink:title=" ">
<polygon fill="none" stroke="black" points="1317,-67.5 1317,-97.5 1446,-97.5 1446,-67.5 1317,-67.5"/>
<text text-anchor="start" x="1325" y="-85.5" font-family="Helvetica,sans-Serif" font-size="10.00">include/pdes/serial</text>
<text text-anchor="middle" x="1381.5" y="-74.5" font-family="Helvetica,sans-Serif" font-size="10.00">/distributed_lagrange.h</text>
</a>
</g>
</g>
<!-- Node1&#45;&gt;Node14 -->
<g id="edge20" class="edge">
<title>Node1&#45;&gt;Node14</title>
<path fill="none" stroke="midnightblue" d="M1811.83,-207.82C1751.67,-200.12 1662.26,-186.31 1586.5,-165 1522.16,-146.9 1450.29,-115.61 1411.04,-97.52"/>
<polygon fill="midnightblue" stroke="midnightblue" points="1811.61,-211.32 1821.97,-209.09 1812.48,-204.37 1811.61,-211.32"/>
</g>
<!-- Node21 -->
<g id="node21" class="node">
<title>Node21</title>
<g id="a_node21"><a xlink:href="serial_2poisson_8h.html" target="_top" xlink:title=" ">
<polygon fill="none" stroke="black" points="1595.5,-134.5 1595.5,-164.5 1703.5,-164.5 1703.5,-134.5 1595.5,-134.5"/>
<text text-anchor="start" x="1603.5" y="-152.5" font-family="Helvetica,sans-Serif" font-size="10.00">include/pdes/serial</text>
<text text-anchor="middle" x="1649.5" y="-141.5" font-family="Helvetica,sans-Serif" font-size="10.00">/poisson.h</text>
</a>
</g>
</g>
<!-- Node1&#45;&gt;Node21 -->
<g id="edge21" class="edge">
<title>Node1&#45;&gt;Node21</title>
<path fill="none" stroke="midnightblue" d="M1820.85,-198.71C1783.26,-188.14 1735.27,-174.63 1699.65,-164.61"/>
<polygon fill="midnightblue" stroke="midnightblue" points="1820.09,-202.14 1830.66,-201.48 1821.98,-195.4 1820.09,-202.14"/>
</g>
<!-- Node24 -->
<g id="node24" class="node">
<title>Node24</title>
<g id="a_node24"><a xlink:href="poisson__nitsche__interface_8h.html" target="_top" xlink:title=" ">
<polygon fill="none" stroke="black" points="1803,-134.5 1803,-164.5 1958,-164.5 1958,-134.5 1803,-134.5"/>
<text text-anchor="start" x="1811" y="-152.5" font-family="Helvetica,sans-Serif" font-size="10.00">include/pdes/serial</text>
<text text-anchor="middle" x="1880.5" y="-141.5" font-family="Helvetica,sans-Serif" font-size="10.00">/poisson_nitsche_interface.h</text>
</a>
</g>
</g>
<!-- Node1&#45;&gt;Node24 -->
<g id="edge24" class="edge">
<title>Node1&#45;&gt;Node24</title>
<path fill="none" stroke="midnightblue" d="M1880.5,-191.11C1880.5,-182.15 1880.5,-172.32 1880.5,-164.58"/>
<polygon fill="midnightblue" stroke="midnightblue" points="1877,-191.4 1880.5,-201.4 1884,-191.4 1877,-191.4"/>
</g>
<!-- Node27 -->
<g id="node27" class="node">
<title>Node27</title>
<g id="a_node27"><a xlink:href="reduced__lagrange_8h.html" target="_top" xlink:title=" ">
<polygon fill="none" stroke="black" points="2047.5,-134.5 2047.5,-164.5 2163.5,-164.5 2163.5,-134.5 2047.5,-134.5"/>
<text text-anchor="start" x="2055.5" y="-152.5" font-family="Helvetica,sans-Serif" font-size="10.00">include/pdes/serial</text>
<text text-anchor="middle" x="2105.5" y="-141.5" font-family="Helvetica,sans-Serif" font-size="10.00">/reduced_lagrange.h</text>
</a>
</g>
</g>
<!-- Node1&#45;&gt;Node27 -->
<g id="edge27" class="edge">
<title>Node1&#45;&gt;Node27</title>
<path fill="none" stroke="midnightblue" d="M1939.07,-198.58C1975.61,-188.02 2022.1,-174.59 2056.65,-164.61"/>
<polygon fill="midnightblue" stroke="midnightblue" points="1937.68,-195.34 1929.04,-201.48 1939.62,-202.06 1937.68,-195.34"/>
</g>
<!-- Node30 -->
<g id="node30" class="node">
<title>Node30</title>
<g id="a_node30"><a xlink:href="serial_2stokes_8h.html" target="_top" xlink:title=" ">
<polygon fill="none" stroke="black" points="2246.5,-134.5 2246.5,-164.5 2354.5,-164.5 2354.5,-134.5 2246.5,-134.5"/>
<text text-anchor="start" x="2254.5" y="-152.5" font-family="Helvetica,sans-Serif" font-size="10.00">include/pdes/serial</text>
<text text-anchor="middle" x="2300.5" y="-141.5" font-family="Helvetica,sans-Serif" font-size="10.00">/stokes.h</text>
</a>
</g>
</g>
<!-- Node1&#45;&gt;Node30 -->
<g id="edge30" class="edge">
<title>Node1&#45;&gt;Node30</title>
<path fill="none" stroke="midnightblue" d="M1949.45,-204.83C2032.57,-191.97 2170.53,-170.61 2246.38,-158.88"/>
<polygon fill="midnightblue" stroke="midnightblue" points="1948.69,-201.41 1939.34,-206.39 1949.76,-208.32 1948.69,-201.41"/>
</g>
<!-- Node33 -->
<g id="node33" class="node">
<title>Node33</title>
<g id="a_node33"><a xlink:href="grid__refinement_8cc.html" target="_top" xlink:title=" ">
<polygon fill="none" stroke="black" points="2373,-140 2373,-159 2516,-159 2516,-140 2373,-140"/>
<text text-anchor="middle" x="2444.5" y="-147" font-family="Helvetica,sans-Serif" font-size="10.00">source/grid_refinement.cc</text>
</a>
</g>
</g>
<!-- Node1&#45;&gt;Node33 -->
<g id="edge33" class="edge">
<title>Node1&#45;&gt;Node33</title>
<path fill="none" stroke="midnightblue" d="M1949.25,-209.9C2043.09,-201.9 2216.46,-185.82 2363.5,-165 2375.38,-163.32 2388.19,-161.18 2400.03,-159.06"/>
<polygon fill="midnightblue" stroke="midnightblue" points="1948.7,-206.44 1939.03,-210.77 1949.29,-213.41 1948.7,-206.44"/>
</g>
<!-- Node3 -->
<g id="node3" class="node">
<title>Node3</title>
<g id="a_node3"><a xlink:href="linear__elasticity_8h.html" target="_top" xlink:title=" ">
<polygon fill="none" stroke="black" points="1043,-67.5 1043,-97.5 1152,-97.5 1152,-67.5 1043,-67.5"/>
<text text-anchor="start" x="1051" y="-85.5" font-family="Helvetica,sans-Serif" font-size="10.00">include/pdes/linear</text>
<text text-anchor="middle" x="1097.5" y="-74.5" font-family="Helvetica,sans-Serif" font-size="10.00">_elasticity.h</text>
</a>
</g>
</g>
<!-- Node2&#45;&gt;Node3 -->
<g id="edge2" class="edge">
<title>Node2&#45;&gt;Node3</title>
<path fill="none" stroke="midnightblue" d="M873.89,-133.97C924.64,-122.51 994.64,-106.72 1042.72,-95.86"/>
<polygon fill="midnightblue" stroke="midnightblue" points="872.99,-130.58 864.01,-136.2 874.53,-137.41 872.99,-130.58"/>
</g>
<!-- Node7 -->
<g id="node7" class="node">
<title>Node7</title>
<g id="a_node7"><a xlink:href="linear__visco__elasticity_8h.html" target="_top" xlink:title=" ">
<polygon fill="none" stroke="black" points="540,-67.5 540,-97.5 649,-97.5 649,-67.5 540,-67.5"/>
<text text-anchor="start" x="548" y="-85.5" font-family="Helvetica,sans-Serif" font-size="10.00">include/pdes/linear</text>
<text text-anchor="middle" x="594.5" y="-74.5" font-family="Helvetica,sans-Serif" font-size="10.00">_visco_elasticity.h</text>
</a>
</g>
</g>
<!-- Node2&#45;&gt;Node7 -->
<g id="edge6" class="edge">
<title>Node2&#45;&gt;Node7</title>
<path fill="none" stroke="midnightblue" d="M753.53,-131.58C718.61,-121.02 674.19,-107.59 641.17,-97.61"/>
<polygon fill="midnightblue" stroke="midnightblue" points="752.53,-134.93 763.11,-134.48 754.55,-128.23 752.53,-134.93"/>
</g>
<!-- Node11 -->
<g id="node11" class="node">
<title>Node11</title>
<g id="a_node11"><a xlink:href="mpi_2poisson_8h.html" target="_top" xlink:title=" ">
<polygon fill="none" stroke="black" points="735,-73 735,-92 884,-92 884,-73 735,-73"/>
<text text-anchor="middle" x="809.5" y="-80" font-family="Helvetica,sans-Serif" font-size="10.00">include/pdes/mpi/poisson.h</text>
</a>
</g>
</g>
<!-- Node2&#45;&gt;Node11 -->
<g id="edge10" class="edge">
<title>Node2&#45;&gt;Node11</title>
<path fill="none" stroke="midnightblue" d="M809.5,-124.25C809.5,-113.02 809.5,-100.38 809.5,-92.19"/>
<polygon fill="midnightblue" stroke="midnightblue" points="806,-124.4 809.5,-134.4 813,-124.4 806,-124.4"/>
</g>
<!-- Node2&#45;&gt;Node14 -->
<g id="edge13" class="edge">
<title>Node2&#45;&gt;Node14</title>
<path fill="none" stroke="midnightblue" d="M874.05,-141.16C984.07,-128.66 1206.64,-103.37 1316.77,-90.86"/>
<polygon fill="midnightblue" stroke="midnightblue" points="873.63,-137.69 864.09,-142.3 874.42,-144.65 873.63,-137.69"/>
</g>
<!-- Node17 -->
<g id="node17" class="node">
<title>Node17</title>
<g id="a_node17"><a xlink:href="stokes_8h.html" target="_top" xlink:title=" ">
<polygon fill="none" stroke="black" points="135.5,-73 135.5,-92 257.5,-92 257.5,-73 135.5,-73"/>
<text text-anchor="middle" x="196.5" y="-80" font-family="Helvetica,sans-Serif" font-size="10.00">include/pdes/stokes.h</text>
</a>
</g>
</g>
<!-- Node2&#45;&gt;Node17 -->
<g id="edge16" class="edge">
<title>Node2&#45;&gt;Node17</title>
<path fill="none" stroke="midnightblue" d="M744.78,-141.64C625.9,-129.03 374.3,-102.35 257.92,-90.01"/>
<polygon fill="midnightblue" stroke="midnightblue" points="744.52,-145.13 754.83,-142.7 745.26,-138.17 744.52,-145.13"/>
</g>
<!-- Node20 -->
<g id="node20" class="node">
<title>Node20</title>
<g id="a_node20"><a xlink:href="linear__problem_8cc.html" target="_top" xlink:title=" ">
<polygon fill="none" stroke="black" points="415.5,-67.5 415.5,-97.5 521.5,-97.5 521.5,-67.5 415.5,-67.5"/>
<text text-anchor="start" x="423.5" y="-85.5" font-family="Helvetica,sans-Serif" font-size="10.00">source/pdes/linear</text>
<text text-anchor="middle" x="468.5" y="-74.5" font-family="Helvetica,sans-Serif" font-size="10.00">_problem.cc</text>
</a>
</g>
</g>
<!-- Node2&#45;&gt;Node20 -->
<g id="edge19" class="edge">
<title>Node2&#45;&gt;Node20</title>
<path fill="none" stroke="midnightblue" d="M744.92,-137.77C688.25,-128.12 603.71,-113.18 530.5,-98 527.58,-97.39 524.58,-96.75 521.56,-96.1"/>
<polygon fill="midnightblue" stroke="midnightblue" points="744.37,-141.22 754.81,-139.44 745.54,-134.32 744.37,-141.22"/>
</g>
<!-- Node4 -->
<g id="node4" class="node">
<title>Node4</title>
<g id="a_node4"><a xlink:href="source_2pdes_2linear__elasticity_8cc.html" target="_top" xlink:title=" ">
<polygon fill="none" stroke="black" points="971.5,-0.5 971.5,-30.5 1077.5,-30.5 1077.5,-0.5 971.5,-0.5"/>
<text text-anchor="start" x="979.5" y="-18.5" font-family="Helvetica,sans-Serif" font-size="10.00">source/pdes/linear</text>
<text text-anchor="middle" x="1024.5" y="-7.5" font-family="Helvetica,sans-Serif" font-size="10.00">_elasticity.cc</text>
</a>
</g>
</g>
<!-- Node3&#45;&gt;Node4 -->
<g id="edge3" class="edge">
<title>Node3&#45;&gt;Node4</title>
<path fill="none" stroke="midnightblue" d="M1074.03,-60.6C1063,-50.78 1050.16,-39.34 1040.31,-30.58"/>
<polygon fill="midnightblue" stroke="midnightblue" points="1071.86,-63.36 1081.66,-67.4 1076.52,-58.13 1071.86,-63.36"/>
</g>
<!-- Node5 -->
<g id="node5" class="node">
<title>Node5</title>
<g id="a_node5"><a xlink:href="apps_2mpi_2linear__elasticity_8cc.html" target="_top" xlink:title=" ">
<polygon fill="none" stroke="black" points="1096,-6 1096,-25 1251,-25 1251,-6 1096,-6"/>
<text text-anchor="middle" x="1173.5" y="-13" font-family="Helvetica,sans-Serif" font-size="10.00">apps/mpi/linear_elasticity.cc</text>
</a>
</g>
</g>
<!-- Node3&#45;&gt;Node5 -->
<g id="edge4" class="edge">
<title>Node3&#45;&gt;Node5</title>
<path fill="none" stroke="midnightblue" d="M1121.85,-60.67C1135.89,-48.67 1152.78,-34.22 1163.33,-25.19"/>
<polygon fill="midnightblue" stroke="midnightblue" points="1119.32,-58.24 1113.99,-67.4 1123.87,-63.56 1119.32,-58.24"/>
</g>
<!-- Node6 -->
<g id="node6" class="node">
<title>Node6</title>
<g id="a_node6"><a xlink:href="apps_2serial_2linear__elasticity_8cc.html" target="_top" xlink:title=" ">
<polygon fill="none" stroke="black" points="1269,-0.5 1269,-30.5 1370,-30.5 1370,-0.5 1269,-0.5"/>
<text text-anchor="start" x="1277" y="-18.5" font-family="Helvetica,sans-Serif" font-size="10.00">apps/serial/linear</text>
<text text-anchor="middle" x="1319.5" y="-7.5" font-family="Helvetica,sans-Serif" font-size="10.00">_elasticity.cc</text>
</a>
</g>
</g>
<!-- Node3&#45;&gt;Node6 -->
<g id="edge5" class="edge">
<title>Node3&#45;&gt;Node6</title>
<path fill="none" stroke="midnightblue" d="M1155.29,-64.58C1191.35,-54.02 1237.22,-40.59 1271.31,-30.61"/>
<polygon fill="midnightblue" stroke="midnightblue" points="1154.01,-61.31 1145.4,-67.48 1155.98,-68.02 1154.01,-61.31"/>
</g>
<!-- Node8 -->
<g id="node8" class="node">
<title>Node8</title>
<g id="a_node8"><a xlink:href="source_2pdes_2linear__visco__elasticity_8cc.html" target="_top" xlink:title=" ">
<polygon fill="none" stroke="black" points="269.5,-0.5 269.5,-30.5 379.5,-30.5 379.5,-0.5 269.5,-0.5"/>
<text text-anchor="start" x="277.5" y="-18.5" font-family="Helvetica,sans-Serif" font-size="10.00">source/pdes/linear</text>
<text text-anchor="middle" x="324.5" y="-7.5" font-family="Helvetica,sans-Serif" font-size="10.00">_visco_elasticity.cc</text>
</a>
</g>
</g>
<!-- Node7&#45;&gt;Node8 -->
<g id="edge7" class="edge">
<title>Node7&#45;&gt;Node8</title>
<path fill="none" stroke="midnightblue" d="M530.02,-65.98C484.13,-54.93 423.12,-40.24 379.52,-29.75"/>
<polygon fill="midnightblue" stroke="midnightblue" points="529.32,-69.41 539.86,-68.35 530.96,-62.6 529.32,-69.41"/>
</g>
<!-- Node9 -->
<g id="node9" class="node">
<title>Node9</title>
<g id="a_node9"><a xlink:href="apps_2mpi_2linear__visco__elasticity_8cc.html" target="_top" xlink:title=" ">
<polygon fill="none" stroke="black" points="398,-0.5 398,-30.5 521,-30.5 521,-0.5 398,-0.5"/>
<text text-anchor="start" x="406" y="-18.5" font-family="Helvetica,sans-Serif" font-size="10.00">apps/mpi/linear_visco</text>
<text text-anchor="middle" x="459.5" y="-7.5" font-family="Helvetica,sans-Serif" font-size="10.00">_elasticity.cc</text>
</a>
</g>
</g>
<!-- Node7&#45;&gt;Node9 -->
<g id="edge8" class="edge">
<title>Node7&#45;&gt;Node9</title>
<path fill="none" stroke="midnightblue" d="M556.06,-62.99C534.66,-52.69 508.45,-40.07 488.74,-30.58"/>
<polygon fill="midnightblue" stroke="midnightblue" points="554.68,-66.21 565.21,-67.4 557.72,-59.9 554.68,-66.21"/>
</g>
<!-- Node10 -->
<g id="node10" class="node">
<title>Node10</title>
<g id="a_node10"><a xlink:href="apps_2serial_2linear__visco__elasticity_8cc.html" target="_top" xlink:title=" ">
<polygon fill="none" stroke="black" points="539.5,-0.5 539.5,-30.5 649.5,-30.5 649.5,-0.5 539.5,-0.5"/>
<text text-anchor="start" x="547.5" y="-18.5" font-family="Helvetica,sans-Serif" font-size="10.00">apps/serial/linear</text>
<text text-anchor="middle" x="594.5" y="-7.5" font-family="Helvetica,sans-Serif" font-size="10.00">_visco_elasticity.cc</text>
</a>
</g>
</g>
<!-- Node7&#45;&gt;Node10 -->
<g id="edge9" class="edge">
<title>Node7&#45;&gt;Node10</title>
<path fill="none" stroke="midnightblue" d="M594.5,-57.11C594.5,-48.15 594.5,-38.32 594.5,-30.58"/>
<polygon fill="midnightblue" stroke="midnightblue" points="591,-57.4 594.5,-67.4 598,-57.4 591,-57.4"/>
</g>
<!-- Node12 -->
<g id="node12" class="node">
<title>Node12</title>
<g id="a_node12"><a xlink:href="source_2pdes_2mpi_2poisson_8cc.html" target="_top" xlink:title=" ">
<polygon fill="none" stroke="black" points="802,-6 802,-25 953,-25 953,-6 802,-6"/>
<text text-anchor="middle" x="877.5" y="-13" font-family="Helvetica,sans-Serif" font-size="10.00">source/pdes/mpi/poisson.cc</text>
</a>
</g>
</g>
<!-- Node11&#45;&gt;Node12 -->
<g id="edge11" class="edge">
<title>Node11&#45;&gt;Node12</title>
<path fill="none" stroke="midnightblue" d="M826.24,-65.5C839.58,-52.75 857.73,-35.39 868.47,-25.13"/>
<polygon fill="midnightblue" stroke="midnightblue" points="823.48,-63.29 818.67,-72.73 828.32,-68.35 823.48,-63.29"/>
</g>
<!-- Node13 -->
<g id="node13" class="node">
<title>Node13</title>
<g id="a_node13"><a xlink:href="apps_2mpi_2poisson_8cc.html" target="_top" xlink:title=" ">
<polygon fill="none" stroke="black" points="667.5,-6 667.5,-25 783.5,-25 783.5,-6 667.5,-6"/>
<text text-anchor="middle" x="725.5" y="-13" font-family="Helvetica,sans-Serif" font-size="10.00">apps/mpi/poisson.cc</text>
</a>
</g>
</g>
<!-- Node11&#45;&gt;Node13 -->
<g id="edge12" class="edge">
<title>Node11&#45;&gt;Node13</title>
<path fill="none" stroke="midnightblue" d="M790.2,-66.57C773.62,-53.74 750.29,-35.69 736.65,-25.13"/>
<polygon fill="midnightblue" stroke="midnightblue" points="788.12,-69.38 798.17,-72.73 792.4,-63.85 788.12,-69.38"/>
</g>
<!-- Node15 -->
<g id="node15" class="node">
<title>Node15</title>
<g id="a_node15"><a xlink:href="source_2pdes_2serial_2distributed__lagrange_8cc.html" target="_top" xlink:title=" ">
<polygon fill="none" stroke="black" points="1388.5,-0.5 1388.5,-30.5 1522.5,-30.5 1522.5,-0.5 1388.5,-0.5"/>
<text text-anchor="start" x="1396.5" y="-18.5" font-family="Helvetica,sans-Serif" font-size="10.00">source/pdes/serial</text>
<text text-anchor="middle" x="1455.5" y="-7.5" font-family="Helvetica,sans-Serif" font-size="10.00">/distributed_lagrange.cc</text>
</a>
</g>
</g>
<!-- Node14&#45;&gt;Node15 -->
<g id="edge14" class="edge">
<title>Node14&#45;&gt;Node15</title>
<path fill="none" stroke="midnightblue" d="M1405.3,-60.6C1416.47,-50.78 1429.49,-39.34 1439.47,-30.58"/>
<polygon fill="midnightblue" stroke="midnightblue" points="1402.76,-58.17 1397.56,-67.4 1407.38,-63.43 1402.76,-58.17"/>
</g>
<!-- Node16 -->
<g id="node16" class="node">
<title>Node16</title>
<g id="a_node16"><a xlink:href="apps_2serial_2distributed__lagrange_8cc.html" target="_top" xlink:title=" ">
<polygon fill="none" stroke="black" points="1541,-0.5 1541,-30.5 1666,-30.5 1666,-0.5 1541,-0.5"/>
<text text-anchor="start" x="1549" y="-18.5" font-family="Helvetica,sans-Serif" font-size="10.00">apps/serial/distributed</text>
<text text-anchor="middle" x="1603.5" y="-7.5" font-family="Helvetica,sans-Serif" font-size="10.00">_lagrange.cc</text>
</a>
</g>
</g>
<!-- Node14&#45;&gt;Node16 -->
<g id="edge15" class="edge">
<title>Node14&#45;&gt;Node16</title>
<path fill="none" stroke="midnightblue" d="M1439.29,-64.58C1475.35,-54.02 1521.22,-40.59 1555.31,-30.61"/>
<polygon fill="midnightblue" stroke="midnightblue" points="1438.01,-61.31 1429.4,-67.48 1439.98,-68.02 1438.01,-61.31"/>
</g>
<!-- Node18 -->
<g id="node18" class="node">
<title>Node18</title>
<g id="a_node18"><a xlink:href="source_2pdes_2stokes_8cc.html" target="_top" xlink:title=" ">
<polygon fill="none" stroke="black" points="0,-6 0,-25 123,-25 123,-6 0,-6"/>
<text text-anchor="middle" x="61.5" y="-13" font-family="Helvetica,sans-Serif" font-size="10.00">source/pdes/stokes.cc</text>
</a>
</g>
</g>
<!-- Node17&#45;&gt;Node18 -->
<g id="edge17" class="edge">
<title>Node17&#45;&gt;Node18</title>
<path fill="none" stroke="midnightblue" d="M169.38,-68.44C142.64,-55.57 102.53,-36.26 79.5,-25.17"/>
<polygon fill="midnightblue" stroke="midnightblue" points="168.04,-71.68 178.57,-72.87 171.08,-65.38 168.04,-71.68"/>
</g>
<!-- Node19 -->
<g id="node19" class="node">
<title>Node19</title>
<g id="a_node19"><a xlink:href="apps_2mpi_2stokes_8cc.html" target="_top" xlink:title=" ">
<polygon fill="none" stroke="black" points="141.5,-6 141.5,-25 251.5,-25 251.5,-6 141.5,-6"/>
<text text-anchor="middle" x="196.5" y="-13" font-family="Helvetica,sans-Serif" font-size="10.00">apps/mpi/stokes.cc</text>
</a>
</g>
</g>
<!-- Node17&#45;&gt;Node19 -->
<g id="edge18" class="edge">
<title>Node17&#45;&gt;Node19</title>
<path fill="none" stroke="midnightblue" d="M196.5,-62.54C196.5,-50.17 196.5,-34.62 196.5,-25.13"/>
<polygon fill="midnightblue" stroke="midnightblue" points="193,-62.73 196.5,-72.73 200,-62.73 193,-62.73"/>
</g>
<!-- Node22 -->
<g id="node22" class="node">
<title>Node22</title>
<g id="a_node22"><a xlink:href="source_2pdes_2serial_2poisson_8cc.html" target="_top" xlink:title=" ">
<polygon fill="none" stroke="black" points="1464,-67.5 1464,-97.5 1569,-97.5 1569,-67.5 1464,-67.5"/>
<text text-anchor="start" x="1472" y="-85.5" font-family="Helvetica,sans-Serif" font-size="10.00">source/pdes/serial</text>
<text text-anchor="middle" x="1516.5" y="-74.5" font-family="Helvetica,sans-Serif" font-size="10.00">/poisson.cc</text>
</a>
</g>
</g>
<!-- Node21&#45;&gt;Node22 -->
<g id="edge22" class="edge">
<title>Node21&#45;&gt;Node22</title>
<path fill="none" stroke="midnightblue" d="M1611.63,-129.99C1590.55,-119.69 1564.72,-107.07 1545.3,-97.58"/>
<polygon fill="midnightblue" stroke="midnightblue" points="1610.12,-133.15 1620.64,-134.4 1613.19,-126.86 1610.12,-133.15"/>
</g>
<!-- Node23 -->
<g id="node23" class="node">
<title>Node23</title>
<g id="a_node23"><a xlink:href="apps_2serial_2poisson_8cc.html" target="_top" xlink:title=" ">
<polygon fill="none" stroke="black" points="1587.5,-73 1587.5,-92 1711.5,-92 1711.5,-73 1587.5,-73"/>
<text text-anchor="middle" x="1649.5" y="-80" font-family="Helvetica,sans-Serif" font-size="10.00">apps/serial/poisson.cc</text>
</a>
</g>
</g>
<!-- Node21&#45;&gt;Node23 -->
<g id="edge23" class="edge">
<title>Node21&#45;&gt;Node23</title>
<path fill="none" stroke="midnightblue" d="M1649.5,-124.25C1649.5,-113.02 1649.5,-100.38 1649.5,-92.19"/>
<polygon fill="midnightblue" stroke="midnightblue" points="1646,-124.4 1649.5,-134.4 1653,-124.4 1646,-124.4"/>
</g>
<!-- Node25 -->
<g id="node25" class="node">
<title>Node25</title>
<g id="a_node25"><a xlink:href="source_2pdes_2serial_2poisson__nitsche__interface_8cc.html" target="_top" xlink:title=" ">
<polygon fill="none" stroke="black" points="1729.5,-67.5 1729.5,-97.5 1889.5,-97.5 1889.5,-67.5 1729.5,-67.5"/>
<text text-anchor="start" x="1737.5" y="-85.5" font-family="Helvetica,sans-Serif" font-size="10.00">source/pdes/serial</text>
<text text-anchor="middle" x="1809.5" y="-74.5" font-family="Helvetica,sans-Serif" font-size="10.00">/poisson_nitsche_interface.cc</text>
</a>
</g>
</g>
<!-- Node24&#45;&gt;Node25 -->
<g id="edge25" class="edge">
<title>Node24&#45;&gt;Node25</title>
<path fill="none" stroke="midnightblue" d="M1857.67,-127.6C1846.95,-117.78 1834.45,-106.34 1824.88,-97.58"/>
<polygon fill="midnightblue" stroke="midnightblue" points="1855.35,-130.22 1865.09,-134.4 1860.08,-125.06 1855.35,-130.22"/>
</g>
<!-- Node26 -->
<g id="node26" class="node">
<title>Node26</title>
<g id="a_node26"><a xlink:href="apps_2serial_2poisson__nitsche__interface_8cc.html" target="_top" xlink:title=" ">
<polygon fill="none" stroke="black" points="1908,-67.5 1908,-97.5 2027,-97.5 2027,-67.5 1908,-67.5"/>
<text text-anchor="start" x="1916" y="-85.5" font-family="Helvetica,sans-Serif" font-size="10.00">apps/serial/poisson</text>
<text text-anchor="middle" x="1967.5" y="-74.5" font-family="Helvetica,sans-Serif" font-size="10.00">_nitsche_interface.cc</text>
</a>
</g>
</g>
<!-- Node24&#45;&gt;Node26 -->
<g id="edge26" class="edge">
<title>Node24&#45;&gt;Node26</title>
<path fill="none" stroke="midnightblue" d="M1907.71,-128.17C1921.02,-118.23 1936.7,-106.51 1948.66,-97.58"/>
<polygon fill="midnightblue" stroke="midnightblue" points="1905.29,-125.61 1899.38,-134.4 1909.48,-131.21 1905.29,-125.61"/>
</g>
<!-- Node28 -->
<g id="node28" class="node">
<title>Node28</title>
<g id="a_node28"><a xlink:href="source_2pdes_2serial_2reduced__lagrange_8cc.html" target="_top" xlink:title=" ">
<polygon fill="none" stroke="black" points="2045.5,-67.5 2045.5,-97.5 2165.5,-97.5 2165.5,-67.5 2045.5,-67.5"/>
<text text-anchor="start" x="2053.5" y="-85.5" font-family="Helvetica,sans-Serif" font-size="10.00">source/pdes/serial</text>
<text text-anchor="middle" x="2105.5" y="-74.5" font-family="Helvetica,sans-Serif" font-size="10.00">/reduced_lagrange.cc</text>
</a>
</g>
</g>
<!-- Node27&#45;&gt;Node28 -->
<g id="edge28" class="edge">
<title>Node27&#45;&gt;Node28</title>
<path fill="none" stroke="midnightblue" d="M2105.5,-124.11C2105.5,-115.15 2105.5,-105.32 2105.5,-97.58"/>
<polygon fill="midnightblue" stroke="midnightblue" points="2102,-124.4 2105.5,-134.4 2109,-124.4 2102,-124.4"/>
</g>
<!-- Node29 -->
<g id="node29" class="node">
<title>Node29</title>
<g id="a_node29"><a xlink:href="apps_2serial_2reduced__lagrange_8cc.html" target="_top" xlink:title=" ">
<polygon fill="none" stroke="black" points="2183.5,-67.5 2183.5,-97.5 2295.5,-97.5 2295.5,-67.5 2183.5,-67.5"/>
<text text-anchor="start" x="2191.5" y="-85.5" font-family="Helvetica,sans-Serif" font-size="10.00">apps/serial/reduced</text>
<text text-anchor="middle" x="2239.5" y="-74.5" font-family="Helvetica,sans-Serif" font-size="10.00">_lagrange.cc</text>
</a>
</g>
</g>
<!-- Node27&#45;&gt;Node29 -->
<g id="edge29" class="edge">
<title>Node27&#45;&gt;Node29</title>
<path fill="none" stroke="midnightblue" d="M2143.65,-129.99C2164.89,-119.69 2190.91,-107.07 2210.48,-97.58"/>
<polygon fill="midnightblue" stroke="midnightblue" points="2142.05,-126.88 2134.58,-134.4 2145.1,-133.18 2142.05,-126.88"/>
</g>
<!-- Node31 -->
<g id="node31" class="node">
<title>Node31</title>
<g id="a_node31"><a xlink:href="source_2pdes_2serial_2stokes_8cc.html" target="_top" xlink:title=" ">
<polygon fill="none" stroke="black" points="2314,-67.5 2314,-97.5 2419,-97.5 2419,-67.5 2314,-67.5"/>
<text text-anchor="start" x="2322" y="-85.5" font-family="Helvetica,sans-Serif" font-size="10.00">source/pdes/serial</text>
<text text-anchor="middle" x="2366.5" y="-74.5" font-family="Helvetica,sans-Serif" font-size="10.00">/stokes.cc</text>
</a>
</g>
</g>
<!-- Node30&#45;&gt;Node31 -->
<g id="edge31" class="edge">
<title>Node30&#45;&gt;Node31</title>
<path fill="none" stroke="midnightblue" d="M2322.01,-127.31C2331.91,-117.56 2343.39,-106.26 2352.21,-97.58"/>
<polygon fill="midnightblue" stroke="midnightblue" points="2319.49,-124.89 2314.82,-134.4 2324.4,-129.87 2319.49,-124.89"/>
</g>
<!-- Node32 -->
<g id="node32" class="node">
<title>Node32</title>
<g id="a_node32"><a xlink:href="apps_2serial_2stokes_8cc.html" target="_top" xlink:title=" ">
<polygon fill="none" stroke="black" points="2437.5,-73 2437.5,-92 2555.5,-92 2555.5,-73 2437.5,-73"/>
<text text-anchor="middle" x="2496.5" y="-80" font-family="Helvetica,sans-Serif" font-size="10.00">apps/serial/stokes.cc</text>
</a>
</g>
</g>
<!-- Node30&#45;&gt;Node32 -->
<g id="edge32" class="edge">
<title>Node30&#45;&gt;Node32</title>
<path fill="none" stroke="midnightblue" d="M2352.94,-131.11C2391.08,-118.46 2441.04,-101.89 2470.85,-92.01"/>
<polygon fill="midnightblue" stroke="midnightblue" points="2351.42,-127.93 2343.03,-134.4 2353.62,-134.57 2351.42,-127.93"/>
</g>
</g>
</svg>
