<?xml version="1.0" encoding="UTF-8" standalone="no"?>
<!DOCTYPE svg PUBLIC "-//W3C//DTD SVG 1.1//EN"
 "http://www.w3.org/Graphics/SVG/1.1/DTD/svg11.dtd">
<!-- Generated by graphviz version 2.43.0 (0)
 -->
<!-- Title: include/parsed_tools/grid_generator.h Pages: 1 -->
<svg width="1799pt" height="240pt"
 viewBox="0.00 0.00 1798.50 240.00" xmlns="http://www.w3.org/2000/svg" xmlns:xlink="http://www.w3.org/1999/xlink">
<g id="graph0" class="graph" transform="scale(1 1) rotate(0) translate(4 236)">
<title>include/parsed_tools/grid_generator.h</title>
<!-- Node1 -->
<g id="node1" class="node">
<title>Node1</title>
<g id="a_node1"><a xlink:title=" ">
<polygon fill="#bfbfbf" stroke="black" points="1194,-201.5 1194,-231.5 1311,-231.5 1311,-201.5 1194,-201.5"/>
<text text-anchor="start" x="1202" y="-219.5" font-family="Helvetica,sans-Serif" font-size="10.00">include/parsed_tools</text>
<text text-anchor="middle" x="1252.5" y="-208.5" font-family="Helvetica,sans-Serif" font-size="10.00">/grid_generator.h</text>
</a>
</g>
</g>
<!-- Node2 -->
<g id="node2" class="node">
<title>Node2</title>
<g id="a_node2"><a xlink:href="mesh__handler_8h.html" target="_top" xlink:title=" ">
<polygon fill="none" stroke="black" points="292,-140 292,-159 425,-159 425,-140 292,-140"/>
<text text-anchor="middle" x="358.5" y="-147" font-family="Helvetica,sans-Serif" font-size="10.00">include/mesh_handler.h</text>
</a>
</g>
</g>
<!-- Node1&#45;&gt;Node2 -->
<g id="edge1" class="edge">
<title>Node1&#45;&gt;Node2</title>
<path fill="none" stroke="midnightblue" d="M1183.68,-210.5C1016.42,-198.34 590.19,-167.35 425.17,-155.35"/>
<polygon fill="midnightblue" stroke="midnightblue" points="1183.61,-214 1193.84,-211.24 1184.12,-207.02 1183.61,-214"/>
</g>
<!-- Node4 -->
<g id="node4" class="node">
<title>Node4</title>
<g id="a_node4"><a xlink:href="linear__problem_8h.html" target="_top" xlink:title=" ">
<polygon fill="none" stroke="black" points="654,-134.5 654,-164.5 763,-164.5 763,-134.5 654,-134.5"/>
<text text-anchor="start" x="662" y="-152.5" font-family="Helvetica,sans-Serif" font-size="10.00">include/pdes/linear</text>
<text text-anchor="middle" x="708.5" y="-141.5" font-family="Helvetica,sans-Serif" font-size="10.00">_problem.h</text>
</a>
</g>
</g>
<!-- Node1&#45;&gt;Node4 -->
<g id="edge3" class="edge">
<title>Node1&#45;&gt;Node4</title>
<path fill="none" stroke="midnightblue" d="M1183.84,-207.3C1074.55,-194.24 863.21,-168.99 763.33,-157.05"/>
<polygon fill="midnightblue" stroke="midnightblue" points="1183.42,-210.77 1193.77,-208.48 1184.25,-203.82 1183.42,-210.77"/>
</g>
<!-- Node12 -->
<g id="node12" class="node">
<title>Node12</title>
<g id="a_node12"><a xlink:href="distributed__lagrange_8h.html" target="_top" xlink:title=" ">
<polygon fill="none" stroke="black" points="855,-67.5 855,-97.5 984,-97.5 984,-67.5 855,-67.5"/>
<text text-anchor="start" x="863" y="-85.5" font-family="Helvetica,sans-Serif" font-size="10.00">include/pdes/serial</text>
<text text-anchor="middle" x="919.5" y="-74.5" font-family="Helvetica,sans-Serif" font-size="10.00">/distributed_lagrange.h</text>
</a>
</g>
</g>
<!-- Node1&#45;&gt;Node12 -->
<g id="edge18" class="edge">
<title>Node1&#45;&gt;Node12</title>
<path fill="none" stroke="midnightblue" d="M1207.49,-197.77C1182.95,-188.1 1152.05,-175.91 1124.5,-165 1064.86,-141.38 995.5,-113.78 954.68,-97.52"/>
<polygon fill="midnightblue" stroke="midnightblue" points="1206.31,-201.07 1216.9,-201.48 1208.88,-194.56 1206.31,-201.07"/>
</g>
<!-- Node19 -->
<g id="node19" class="node">
<title>Node19</title>
<g id="a_node19"><a xlink:href="serial_2poisson_8h.html" target="_top" xlink:title=" ">
<polygon fill="none" stroke="black" points="1133.5,-134.5 1133.5,-164.5 1241.5,-164.5 1241.5,-134.5 1133.5,-134.5"/>
<text text-anchor="start" x="1141.5" y="-152.5" font-family="Helvetica,sans-Serif" font-size="10.00">include/pdes/serial</text>
<text text-anchor="middle" x="1187.5" y="-141.5" font-family="Helvetica,sans-Serif" font-size="10.00">/poisson.h</text>
</a>
</g>
</g>
<!-- Node1&#45;&gt;Node19 -->
<g id="edge19" class="edge">
<title>Node1&#45;&gt;Node19</title>
<path fill="none" stroke="midnightblue" d="M1231.31,-194.31C1221.56,-184.56 1210.26,-173.26 1201.58,-164.58"/>
<polygon fill="midnightblue" stroke="midnightblue" points="1228.85,-196.8 1238.4,-201.4 1233.8,-191.85 1228.85,-196.8"/>
</g>
<!-- Node22 -->
<g id="node22" class="node">
<title>Node22</title>
<g id="a_node22"><a xlink:href="reduced__lagrange_8h.html" target="_top" xlink:title=" ">
<polygon fill="none" stroke="black" points="1264.5,-134.5 1264.5,-164.5 1380.5,-164.5 1380.5,-134.5 1264.5,-134.5"/>
<text text-anchor="start" x="1272.5" y="-152.5" font-family="Helvetica,sans-Serif" font-size="10.00">include/pdes/serial</text>
<text text-anchor="middle" x="1322.5" y="-141.5" font-family="Helvetica,sans-Serif" font-size="10.00">/reduced_lagrange.h</text>
</a>
</g>
</g>
<!-- Node1&#45;&gt;Node22 -->
<g id="edge22" class="edge">
<title>Node1&#45;&gt;Node22</title>
<path fill="none" stroke="midnightblue" d="M1275.32,-194.31C1285.82,-184.56 1297.99,-173.26 1307.34,-164.58"/>
<polygon fill="midnightblue" stroke="midnightblue" points="1272.64,-192.03 1267.69,-201.4 1277.4,-197.16 1272.64,-192.03"/>
</g>
<!-- Node25 -->
<g id="node25" class="node">
<title>Node25</title>
<g id="a_node25"><a xlink:href="serial_2stokes_8h.html" target="_top" xlink:title=" ">
<polygon fill="none" stroke="black" points="1398.5,-134.5 1398.5,-164.5 1506.5,-164.5 1506.5,-134.5 1398.5,-134.5"/>
<text text-anchor="start" x="1406.5" y="-152.5" font-family="Helvetica,sans-Serif" font-size="10.00">include/pdes/serial</text>
<text text-anchor="middle" x="1452.5" y="-141.5" font-family="Helvetica,sans-Serif" font-size="10.00">/stokes.h</text>
</a>
</g>
</g>
<!-- Node1&#45;&gt;Node25 -->
<g id="edge25" class="edge">
<title>Node1&#45;&gt;Node25</title>
<path fill="none" stroke="midnightblue" d="M1305.65,-198.23C1338,-187.71 1378.81,-174.45 1409.19,-164.58"/>
<polygon fill="midnightblue" stroke="midnightblue" points="1304.33,-194.98 1295.9,-201.4 1306.49,-201.63 1304.33,-194.98"/>
</g>
<!-- Node28 -->
<g id="node28" class="node">
<title>Node28</title>
<g id="a_node28"><a xlink:href="grid__generator_8cc.html" target="_top" xlink:title=" ">
<polygon fill="none" stroke="black" points="1525,-140 1525,-159 1662,-159 1662,-140 1525,-140"/>
<text text-anchor="middle" x="1593.5" y="-147" font-family="Helvetica,sans-Serif" font-size="10.00">source/grid_generator.cc</text>
</a>
</g>
</g>
<!-- Node1&#45;&gt;Node28 -->
<g id="edge28" class="edge">
<title>Node1&#45;&gt;Node28</title>
<path fill="none" stroke="midnightblue" d="M1321.28,-202.39C1389.08,-189.47 1490.69,-170.1 1548.68,-159.04"/>
<polygon fill="midnightblue" stroke="midnightblue" points="1320.29,-199.02 1311.12,-204.33 1321.6,-205.89 1320.29,-199.02"/>
</g>
<!-- Node29 -->
<g id="node29" class="node">
<title>Node29</title>
<g id="a_node29"><a xlink:href="dof__plotter_8cc.html" target="_top" xlink:title="Degrees of freedom plotter.">
<polygon fill="none" stroke="black" points="1680.5,-140 1680.5,-159 1790.5,-159 1790.5,-140 1680.5,-140"/>
<text text-anchor="middle" x="1735.5" y="-147" font-family="Helvetica,sans-Serif" font-size="10.00">apps/dof_plotter.cc</text>
</a>
</g>
</g>
<!-- Node1&#45;&gt;Node29 -->
<g id="edge29" class="edge">
<title>Node1&#45;&gt;Node29</title>
<path fill="none" stroke="midnightblue" d="M1321.16,-209.41C1404.42,-201.53 1548.83,-186.23 1671.5,-165 1681.04,-163.35 1691.3,-161.2 1700.75,-159.06"/>
<polygon fill="midnightblue" stroke="midnightblue" points="1320.7,-205.94 1311.07,-210.36 1321.35,-212.91 1320.7,-205.94"/>
</g>
<!-- Node3 -->
<g id="node3" class="node">
<title>Node3</title>
<g id="a_node3"><a xlink:href="mesh__handler_8cc.html" target="_top" xlink:title="Mesh generator and reader.">
<polygon fill="none" stroke="black" points="152,-73 152,-92 277,-92 277,-73 152,-73"/>
<text text-anchor="middle" x="214.5" y="-80" font-family="Helvetica,sans-Serif" font-size="10.00">apps/mesh_handler.cc</text>
</a>
</g>
</g>
<!-- Node2&#45;&gt;Node3 -->
<g id="edge2" class="edge">
<title>Node2&#45;&gt;Node3</title>
<path fill="none" stroke="midnightblue" d="M329.95,-135.61C301.43,-122.74 258.38,-103.31 233.7,-92.17"/>
<polygon fill="midnightblue" stroke="midnightblue" points="328.82,-138.94 339.38,-139.87 331.7,-132.56 328.82,-138.94"/>
</g>
<!-- Node5 -->
<g id="node5" class="node">
<title>Node5</title>
<g id="a_node5"><a xlink:href="linear__elasticity_8h.html" target="_top" xlink:title=" ">
<polygon fill="none" stroke="black" points="587,-67.5 587,-97.5 696,-97.5 696,-67.5 587,-67.5"/>
<text text-anchor="start" x="595" y="-85.5" font-family="Helvetica,sans-Serif" font-size="10.00">include/pdes/linear</text>
<text text-anchor="middle" x="641.5" y="-74.5" font-family="Helvetica,sans-Serif" font-size="10.00">_elasticity.h</text>
</a>
</g>
</g>
<!-- Node4&#45;&gt;Node5 -->
<g id="edge4" class="edge">
<title>Node4&#45;&gt;Node5</title>
<path fill="none" stroke="midnightblue" d="M686.66,-127.31C676.61,-117.56 664.96,-106.26 656.01,-97.58"/>
<polygon fill="midnightblue" stroke="midnightblue" points="684.35,-129.94 693.96,-134.4 689.22,-124.92 684.35,-129.94"/>
</g>
<!-- Node9 -->
<g id="node9" class="node">
<title>Node9</title>
<g id="a_node9"><a xlink:href="mpi_2poisson_8h.html" target="_top" xlink:title=" ">
<polygon fill="none" stroke="black" points="420,-73 420,-92 569,-92 569,-73 420,-73"/>
<text text-anchor="middle" x="494.5" y="-80" font-family="Helvetica,sans-Serif" font-size="10.00">include/pdes/mpi/poisson.h</text>
</a>
</g>
</g>
<!-- Node4&#45;&gt;Node9 -->
<g id="edge8" class="edge">
<title>Node4&#45;&gt;Node9</title>
<path fill="none" stroke="midnightblue" d="M652.56,-131.51C610.8,-118.83 555.48,-102.02 522.58,-92.03"/>
<polygon fill="midnightblue" stroke="midnightblue" points="651.74,-134.92 662.33,-134.48 653.78,-128.22 651.74,-134.92"/>
</g>
<!-- Node4&#45;&gt;Node12 -->
<g id="edge11" class="edge">
<title>Node4&#45;&gt;Node12</title>
<path fill="none" stroke="midnightblue" d="M763.87,-131.44C798.07,-120.91 841.43,-107.55 873.69,-97.61"/>
<polygon fill="midnightblue" stroke="midnightblue" points="762.55,-128.19 754.02,-134.48 764.61,-134.88 762.55,-128.19"/>
</g>
<!-- Node15 -->
<g id="node15" class="node">
<title>Node15</title>
<g id="a_node15"><a xlink:href="stokes_8h.html" target="_top" xlink:title=" ">
<polygon fill="none" stroke="black" points="714.5,-73 714.5,-92 836.5,-92 836.5,-73 714.5,-73"/>
<text text-anchor="middle" x="775.5" y="-80" font-family="Helvetica,sans-Serif" font-size="10.00">include/pdes/stokes.h</text>
</a>
</g>
</g>
<!-- Node4&#45;&gt;Node15 -->
<g id="edge14" class="edge">
<title>Node4&#45;&gt;Node15</title>
<path fill="none" stroke="midnightblue" d="M730.32,-127.34C742.62,-115.4 757.32,-101.14 766.54,-92.19"/>
<polygon fill="midnightblue" stroke="midnightblue" points="727.78,-124.92 723.04,-134.4 732.65,-129.94 727.78,-124.92"/>
</g>
<!-- Node18 -->
<g id="node18" class="node">
<title>Node18</title>
<g id="a_node18"><a xlink:href="linear__problem_8cc.html" target="_top" xlink:title=" ">
<polygon fill="none" stroke="black" points="295.5,-67.5 295.5,-97.5 401.5,-97.5 401.5,-67.5 295.5,-67.5"/>
<text text-anchor="start" x="303.5" y="-85.5" font-family="Helvetica,sans-Serif" font-size="10.00">source/pdes/linear</text>
<text text-anchor="middle" x="348.5" y="-74.5" font-family="Helvetica,sans-Serif" font-size="10.00">_problem.cc</text>
</a>
</g>
</g>
<!-- Node4&#45;&gt;Node18 -->
<g id="edge17" class="edge">
<title>Node4&#45;&gt;Node18</title>
<path fill="none" stroke="midnightblue" d="M643.77,-138.71C583.26,-129.29 490.49,-114.12 410.5,-98 407.57,-97.41 404.58,-96.78 401.55,-96.14"/>
<polygon fill="midnightblue" stroke="midnightblue" points="643.52,-142.22 653.94,-140.29 644.59,-135.3 643.52,-142.22"/>
</g>
<!-- Node6 -->
<g id="node6" class="node">
<title>Node6</title>
<g id="a_node6"><a xlink:href="source_2pdes_2linear__elasticity_8cc.html" target="_top" xlink:title=" ">
<polygon fill="none" stroke="black" points="303.5,-0.5 303.5,-30.5 409.5,-30.5 409.5,-0.5 303.5,-0.5"/>
<text text-anchor="start" x="311.5" y="-18.5" font-family="Helvetica,sans-Serif" font-size="10.00">source/pdes/linear</text>
<text text-anchor="middle" x="356.5" y="-7.5" font-family="Helvetica,sans-Serif" font-size="10.00">_elasticity.cc</text>
</a>
</g>
</g>
<!-- Node5&#45;&gt;Node6 -->
<g id="edge5" class="edge">
<title>Node5&#45;&gt;Node6</title>
<path fill="none" stroke="midnightblue" d="M576.84,-66.86C511.08,-51.97 418.75,-31.06 418.5,-31 415.59,-30.33 412.61,-29.64 409.59,-28.94"/>
<polygon fill="midnightblue" stroke="midnightblue" points="576.22,-70.31 586.74,-69.1 577.76,-63.48 576.22,-70.31"/>
</g>
<!-- Node7 -->
<g id="node7" class="node">
<title>Node7</title>
<g id="a_node7"><a xlink:href="apps_2mpi_2linear__elasticity_8cc.html" target="_top" xlink:title=" ">
<polygon fill="none" stroke="black" points="428,-6 428,-25 583,-25 583,-6 428,-6"/>
<text text-anchor="middle" x="505.5" y="-13" font-family="Helvetica,sans-Serif" font-size="10.00">apps/mpi/linear_elasticity.cc</text>
</a>
</g>
</g>
<!-- Node5&#45;&gt;Node7 -->
<g id="edge6" class="edge">
<title>Node5&#45;&gt;Node7</title>
<path fill="none" stroke="midnightblue" d="M602.72,-62.97C576.6,-50.48 543.37,-34.6 523.3,-25.01"/>
<polygon fill="midnightblue" stroke="midnightblue" points="601.46,-66.24 611.99,-67.4 604.48,-59.93 601.46,-66.24"/>
</g>
<!-- Node8 -->
<g id="node8" class="node">
<title>Node8</title>
<g id="a_node8"><a xlink:href="apps_2serial_2linear__elasticity_8cc.html" target="_top" xlink:title=" ">
<polygon fill="none" stroke="black" points="601,-0.5 601,-30.5 702,-30.5 702,-0.5 601,-0.5"/>
<text text-anchor="start" x="609" y="-18.5" font-family="Helvetica,sans-Serif" font-size="10.00">apps/serial/linear</text>
<text text-anchor="middle" x="651.5" y="-7.5" font-family="Helvetica,sans-Serif" font-size="10.00">_elasticity.cc</text>
</a>
</g>
</g>
<!-- Node5&#45;&gt;Node8 -->
<g id="edge7" class="edge">
<title>Node5&#45;&gt;Node8</title>
<path fill="none" stroke="midnightblue" d="M645.21,-57.4C646.6,-48.37 648.13,-38.41 649.33,-30.58"/>
<polygon fill="midnightblue" stroke="midnightblue" points="641.73,-56.98 643.67,-67.4 648.65,-58.04 641.73,-56.98"/>
</g>
<!-- Node10 -->
<g id="node10" class="node">
<title>Node10</title>
<g id="a_node10"><a xlink:href="source_2pdes_2mpi_2poisson_8cc.html" target="_top" xlink:title=" ">
<polygon fill="none" stroke="black" points="0,-6 0,-25 151,-25 151,-6 0,-6"/>
<text text-anchor="middle" x="75.5" y="-13" font-family="Helvetica,sans-Serif" font-size="10.00">source/pdes/mpi/poisson.cc</text>
</a>
</g>
</g>
<!-- Node9&#45;&gt;Node10 -->
<g id="edge9" class="edge">
<title>Node9&#45;&gt;Node10</title>
<path fill="none" stroke="midnightblue" d="M436.47,-71.27C427.77,-69.79 418.9,-68.33 410.5,-67 299.62,-49.45 271.39,-48.44 160.5,-31 148.82,-29.16 136.25,-27.08 124.46,-25.07"/>
<polygon fill="midnightblue" stroke="midnightblue" points="436.12,-74.76 446.56,-72.99 437.29,-67.86 436.12,-74.76"/>
</g>
<!-- Node11 -->
<g id="node11" class="node">
<title>Node11</title>
<g id="a_node11"><a xlink:href="apps_2mpi_2poisson_8cc.html" target="_top" xlink:title=" ">
<polygon fill="none" stroke="black" points="169.5,-6 169.5,-25 285.5,-25 285.5,-6 169.5,-6"/>
<text text-anchor="middle" x="227.5" y="-13" font-family="Helvetica,sans-Serif" font-size="10.00">apps/mpi/poisson.cc</text>
</a>
</g>
</g>
<!-- Node9&#45;&gt;Node11 -->
<g id="edge10" class="edge">
<title>Node9&#45;&gt;Node11</title>
<path fill="none" stroke="midnightblue" d="M449.58,-70.56C396.94,-57.75 310.82,-36.78 262.76,-25.08"/>
<polygon fill="midnightblue" stroke="midnightblue" points="448.78,-73.97 459.32,-72.94 450.43,-67.17 448.78,-73.97"/>
</g>
<!-- Node13 -->
<g id="node13" class="node">
<title>Node13</title>
<g id="a_node13"><a xlink:href="source_2pdes_2serial_2distributed__lagrange_8cc.html" target="_top" xlink:title=" ">
<polygon fill="none" stroke="black" points="1133.5,-0.5 1133.5,-30.5 1267.5,-30.5 1267.5,-0.5 1133.5,-0.5"/>
<text text-anchor="start" x="1141.5" y="-18.5" font-family="Helvetica,sans-Serif" font-size="10.00">source/pdes/serial</text>
<text text-anchor="middle" x="1200.5" y="-7.5" font-family="Helvetica,sans-Serif" font-size="10.00">/distributed_lagrange.cc</text>
</a>
</g>
</g>
<!-- Node12&#45;&gt;Node13 -->
<g id="edge12" class="edge">
<title>Node12&#45;&gt;Node13</title>
<path fill="none" stroke="midnightblue" d="M990.03,-65.19C1036.05,-54.54 1095.52,-40.78 1139.5,-30.61"/>
<polygon fill="midnightblue" stroke="midnightblue" points="989.08,-61.81 980.13,-67.48 990.66,-68.63 989.08,-61.81"/>
</g>
<!-- Node14 -->
<g id="node14" class="node">
<title>Node14</title>
<g id="a_node14"><a xlink:href="apps_2serial_2distributed__lagrange_8cc.html" target="_top" xlink:title=" ">
<polygon fill="none" stroke="black" points="990,-0.5 990,-30.5 1115,-30.5 1115,-0.5 990,-0.5"/>
<text text-anchor="start" x="998" y="-18.5" font-family="Helvetica,sans-Serif" font-size="10.00">apps/serial/distributed</text>
<text text-anchor="middle" x="1052.5" y="-7.5" font-family="Helvetica,sans-Serif" font-size="10.00">_lagrange.cc</text>
</a>
</g>
</g>
<!-- Node12&#45;&gt;Node14 -->
<g id="edge13" class="edge">
<title>Node12&#45;&gt;Node14</title>
<path fill="none" stroke="midnightblue" d="M957.37,-62.99C978.45,-52.69 1004.28,-40.07 1023.7,-30.58"/>
<polygon fill="midnightblue" stroke="midnightblue" points="955.81,-59.86 948.36,-67.4 958.88,-66.15 955.81,-59.86"/>
</g>
<!-- Node16 -->
<g id="node16" class="node">
<title>Node16</title>
<g id="a_node16"><a xlink:href="source_2pdes_2stokes_8cc.html" target="_top" xlink:title=" ">
<polygon fill="none" stroke="black" points="849,-6 849,-25 972,-25 972,-6 849,-6"/>
<text text-anchor="middle" x="910.5" y="-13" font-family="Helvetica,sans-Serif" font-size="10.00">source/pdes/stokes.cc</text>
</a>
</g>
</g>
<!-- Node15&#45;&gt;Node16 -->
<g id="edge15" class="edge">
<title>Node15&#45;&gt;Node16</title>
<path fill="none" stroke="midnightblue" d="M802.62,-68.44C829.36,-55.57 869.47,-36.26 892.5,-25.17"/>
<polygon fill="midnightblue" stroke="midnightblue" points="800.92,-65.38 793.43,-72.87 803.96,-71.68 800.92,-65.38"/>
</g>
<!-- Node17 -->
<g id="node17" class="node">
<title>Node17</title>
<g id="a_node17"><a xlink:href="apps_2mpi_2stokes_8cc.html" target="_top" xlink:title=" ">
<polygon fill="none" stroke="black" points="720.5,-6 720.5,-25 830.5,-25 830.5,-6 720.5,-6"/>
<text text-anchor="middle" x="775.5" y="-13" font-family="Helvetica,sans-Serif" font-size="10.00">apps/mpi/stokes.cc</text>
</a>
</g>
</g>
<!-- Node15&#45;&gt;Node17 -->
<g id="edge16" class="edge">
<title>Node15&#45;&gt;Node17</title>
<path fill="none" stroke="midnightblue" d="M775.5,-62.54C775.5,-50.17 775.5,-34.62 775.5,-25.13"/>
<polygon fill="midnightblue" stroke="midnightblue" points="772,-62.73 775.5,-72.73 779,-62.73 772,-62.73"/>
</g>
<!-- Node20 -->
<g id="node20" class="node">
<title>Node20</title>
<g id="a_node20"><a xlink:href="source_2pdes_2serial_2poisson_8cc.html" target="_top" xlink:title=" ">
<polygon fill="none" stroke="black" points="1002,-67.5 1002,-97.5 1107,-97.5 1107,-67.5 1002,-67.5"/>
<text text-anchor="start" x="1010" y="-85.5" font-family="Helvetica,sans-Serif" font-size="10.00">source/pdes/serial</text>
<text text-anchor="middle" x="1054.5" y="-74.5" font-family="Helvetica,sans-Serif" font-size="10.00">/poisson.cc</text>
</a>
</g>
</g>
<!-- Node19&#45;&gt;Node20 -->
<g id="edge20" class="edge">
<title>Node19&#45;&gt;Node20</title>
<path fill="none" stroke="midnightblue" d="M1149.63,-129.99C1128.55,-119.69 1102.72,-107.07 1083.3,-97.58"/>
<polygon fill="midnightblue" stroke="midnightblue" points="1148.12,-133.15 1158.64,-134.4 1151.19,-126.86 1148.12,-133.15"/>
</g>
<!-- Node21 -->
<g id="node21" class="node">
<title>Node21</title>
<g id="a_node21"><a xlink:href="apps_2serial_2poisson_8cc.html" target="_top" xlink:title=" ">
<polygon fill="none" stroke="black" points="1125.5,-73 1125.5,-92 1249.5,-92 1249.5,-73 1125.5,-73"/>
<text text-anchor="middle" x="1187.5" y="-80" font-family="Helvetica,sans-Serif" font-size="10.00">apps/serial/poisson.cc</text>
</a>
</g>
</g>
<!-- Node19&#45;&gt;Node21 -->
<g id="edge21" class="edge">
<title>Node19&#45;&gt;Node21</title>
<path fill="none" stroke="midnightblue" d="M1187.5,-124.25C1187.5,-113.02 1187.5,-100.38 1187.5,-92.19"/>
<polygon fill="midnightblue" stroke="midnightblue" points="1184,-124.4 1187.5,-134.4 1191,-124.4 1184,-124.4"/>
</g>
<!-- Node23 -->
<g id="node23" class="node">
<title>Node23</title>
<g id="a_node23"><a xlink:href="source_2pdes_2serial_2reduced__lagrange_8cc.html" target="_top" xlink:title=" ">
<polygon fill="none" stroke="black" points="1267.5,-67.5 1267.5,-97.5 1387.5,-97.5 1387.5,-67.5 1267.5,-67.5"/>
<text text-anchor="start" x="1275.5" y="-85.5" font-family="Helvetica,sans-Serif" font-size="10.00">source/pdes/serial</text>
<text text-anchor="middle" x="1327.5" y="-74.5" font-family="Helvetica,sans-Serif" font-size="10.00">/reduced_lagrange.cc</text>
</a>
</g>
</g>
<!-- Node22&#45;&gt;Node23 -->
<g id="edge23" class="edge">
<title>Node22&#45;&gt;Node23</title>
<path fill="none" stroke="midnightblue" d="M1324.35,-124.4C1325.05,-115.37 1325.81,-105.41 1326.42,-97.58"/>
<polygon fill="midnightblue" stroke="midnightblue" points="1320.86,-124.16 1323.58,-134.4 1327.84,-124.69 1320.86,-124.16"/>
</g>
<!-- Node24 -->
<g id="node24" class="node">
<title>Node24</title>
<g id="a_node24"><a xlink:href="apps_2serial_2reduced__lagrange_8cc.html" target="_top" xlink:title=" ">
<polygon fill="none" stroke="black" points="1405.5,-67.5 1405.5,-97.5 1517.5,-97.5 1517.5,-67.5 1405.5,-67.5"/>
<text text-anchor="start" x="1413.5" y="-85.5" font-family="Helvetica,sans-Serif" font-size="10.00">apps/serial/reduced</text>
<text text-anchor="middle" x="1461.5" y="-74.5" font-family="Helvetica,sans-Serif" font-size="10.00">_lagrange.cc</text>
</a>
</g>
</g>
<!-- Node22&#45;&gt;Node24 -->
<g id="edge24" class="edge">
<title>Node22&#45;&gt;Node24</title>
<path fill="none" stroke="midnightblue" d="M1361.78,-130.13C1383.87,-119.8 1411.01,-107.11 1431.4,-97.58"/>
<polygon fill="midnightblue" stroke="midnightblue" points="1360.24,-126.99 1352.66,-134.4 1363.2,-133.33 1360.24,-126.99"/>
</g>
<!-- Node26 -->
<g id="node26" class="node">
<title>Node26</title>
<g id="a_node26"><a xlink:href="source_2pdes_2serial_2stokes_8cc.html" target="_top" xlink:title=" ">
<polygon fill="none" stroke="black" points="1536,-67.5 1536,-97.5 1641,-97.5 1641,-67.5 1536,-67.5"/>
<text text-anchor="start" x="1544" y="-85.5" font-family="Helvetica,sans-Serif" font-size="10.00">source/pdes/serial</text>
<text text-anchor="middle" x="1588.5" y="-74.5" font-family="Helvetica,sans-Serif" font-size="10.00">/stokes.cc</text>
</a>
</g>
</g>
<!-- Node25&#45;&gt;Node26 -->
<g id="edge26" class="edge">
<title>Node25&#45;&gt;Node26</title>
<path fill="none" stroke="midnightblue" d="M1491.22,-129.99C1512.78,-119.69 1539.19,-107.07 1559.05,-97.58"/>
<polygon fill="midnightblue" stroke="midnightblue" points="1489.52,-126.93 1482.01,-134.4 1492.54,-133.24 1489.52,-126.93"/>
</g>
<!-- Node27 -->
<g id="node27" class="node">
<title>Node27</title>
<g id="a_node27"><a xlink:href="apps_2serial_2stokes_8cc.html" target="_top" xlink:title=" ">
<polygon fill="none" stroke="black" points="1659.5,-73 1659.5,-92 1777.5,-92 1777.5,-73 1659.5,-73"/>
<text text-anchor="middle" x="1718.5" y="-80" font-family="Helvetica,sans-Serif" font-size="10.00">apps/serial/stokes.cc</text>
</a>
</g>
</g>
<!-- Node25&#45;&gt;Node27 -->
<g id="edge27" class="edge">
<title>Node25&#45;&gt;Node27</title>
<path fill="none" stroke="midnightblue" d="M1516.52,-132.85C1568.94,-120.05 1641.12,-102.41 1683.49,-92.06"/>
<polygon fill="midnightblue" stroke="midnightblue" points="1515.53,-129.49 1506.65,-135.27 1517.19,-136.29 1515.53,-129.49"/>
</g>
</g>
</svg>
