<?xml version="1.0" encoding="UTF-8" standalone="no"?>
<!DOCTYPE svg PUBLIC "-//W3C//DTD SVG 1.1//EN"
 "http://www.w3.org/Graphics/SVG/1.1/DTD/svg11.dtd">
<!-- Generated by graphviz version 2.43.0 (0)
 -->
<!-- Title: include/parsed_tools/grid_generator.h Pages: 1 -->
<svg width="2190pt" height="240pt"
 viewBox="0.00 0.00 2190.00 240.00" xmlns="http://www.w3.org/2000/svg" xmlns:xlink="http://www.w3.org/1999/xlink">
<g id="graph0" class="graph" transform="scale(1 1) rotate(0) translate(4 236)">
<title>include/parsed_tools/grid_generator.h</title>
<!-- Node1 -->
<g id="node1" class="node">
<title>Node1</title>
<g id="a_node1"><a xlink:title=" ">
<polygon fill="#bfbfbf" stroke="black" points="1469.5,-201.5 1469.5,-231.5 1586.5,-231.5 1586.5,-201.5 1469.5,-201.5"/>
<text text-anchor="start" x="1477.5" y="-219.5" font-family="Helvetica,sans-Serif" font-size="10.00">include/parsed_tools</text>
<text text-anchor="middle" x="1528" y="-208.5" font-family="Helvetica,sans-Serif" font-size="10.00">/grid_generator.h</text>
</a>
</g>
</g>
<!-- Node2 -->
<g id="node2" class="node">
<title>Node2</title>
<g id="a_node2"><a xlink:href="mesh__handler_8h.html" target="_top" xlink:title=" ">
<polygon fill="none" stroke="black" points="245.5,-140 245.5,-159 378.5,-159 378.5,-140 245.5,-140"/>
<text text-anchor="middle" x="312" y="-147" font-family="Helvetica,sans-Serif" font-size="10.00">include/mesh_handler.h</text>
</a>
</g>
</g>
<!-- Node1&#45;&gt;Node2 -->
<g id="edge1" class="edge">
<title>Node1&#45;&gt;Node2</title>
<path fill="none" stroke="midnightblue" d="M1459.27,-212.15C1299.83,-204.33 892.44,-184.09 552,-165 493.44,-161.72 426.87,-157.67 378.72,-154.69"/>
<polygon fill="midnightblue" stroke="midnightblue" points="1459.25,-215.65 1469.41,-212.65 1459.59,-208.66 1459.25,-215.65"/>
</g>
<!-- Node4 -->
<g id="node4" class="node">
<title>Node4</title>
<g id="a_node4"><a xlink:href="linear__problem_8h.html" target="_top" xlink:title=" ">
<polygon fill="none" stroke="black" points="561.5,-134.5 561.5,-164.5 692.5,-164.5 692.5,-134.5 561.5,-134.5"/>
<text text-anchor="start" x="569.5" y="-152.5" font-family="Helvetica,sans-Serif" font-size="10.00">include/pdes/mpi/linear</text>
<text text-anchor="middle" x="627" y="-141.5" font-family="Helvetica,sans-Serif" font-size="10.00">_problem.h</text>
</a>
</g>
</g>
<!-- Node1&#45;&gt;Node4 -->
<g id="edge3" class="edge">
<title>Node1&#45;&gt;Node4</title>
<path fill="none" stroke="midnightblue" d="M1459.23,-210.54C1290.57,-198.37 858.15,-167.18 692.72,-155.24"/>
<polygon fill="midnightblue" stroke="midnightblue" points="1459,-214.03 1469.23,-211.26 1459.51,-207.05 1459,-214.03"/>
</g>
<!-- Node15 -->
<g id="node15" class="node">
<title>Node15</title>
<g id="a_node15"><a xlink:href="distributed__lagrange_8h.html" target="_top" xlink:title=" ">
<polygon fill="none" stroke="black" points="1013.5,-134.5 1013.5,-164.5 1142.5,-164.5 1142.5,-134.5 1013.5,-134.5"/>
<text text-anchor="start" x="1021.5" y="-152.5" font-family="Helvetica,sans-Serif" font-size="10.00">include/pdes/serial</text>
<text text-anchor="middle" x="1078" y="-141.5" font-family="Helvetica,sans-Serif" font-size="10.00">/distributed_lagrange.h</text>
</a>
</g>
</g>
<!-- Node1&#45;&gt;Node15 -->
<g id="edge14" class="edge">
<title>Node1&#45;&gt;Node15</title>
<path fill="none" stroke="midnightblue" d="M1459.24,-205.57C1373.15,-193.13 1226.79,-171.99 1142.67,-159.84"/>
<polygon fill="midnightblue" stroke="midnightblue" points="1458.77,-209.04 1469.17,-207 1459.77,-202.11 1458.77,-209.04"/>
</g>
<!-- Node18 -->
<g id="node18" class="node">
<title>Node18</title>
<g id="a_node18"><a xlink:href="serial_2linear__elasticity_8h.html" target="_top" xlink:title=" ">
<polygon fill="none" stroke="black" points="1284,-134.5 1284,-164.5 1392,-164.5 1392,-134.5 1284,-134.5"/>
<text text-anchor="start" x="1292" y="-152.5" font-family="Helvetica,sans-Serif" font-size="10.00">include/pdes/serial</text>
<text text-anchor="middle" x="1338" y="-141.5" font-family="Helvetica,sans-Serif" font-size="10.00">/linear_elasticity.h</text>
</a>
</g>
</g>
<!-- Node1&#45;&gt;Node18 -->
<g id="edge17" class="edge">
<title>Node1&#45;&gt;Node18</title>
<path fill="none" stroke="midnightblue" d="M1477.11,-198.09C1446.44,-187.6 1407.89,-174.41 1379.15,-164.58"/>
<polygon fill="midnightblue" stroke="midnightblue" points="1476.18,-201.47 1486.77,-201.4 1478.44,-194.85 1476.18,-201.47"/>
</g>
<!-- Node21 -->
<g id="node21" class="node">
<title>Node21</title>
<g id="a_node21"><a xlink:href="serial_2poisson_8h.html" target="_top" xlink:title=" ">
<polygon fill="none" stroke="black" points="1474,-134.5 1474,-164.5 1582,-164.5 1582,-134.5 1474,-134.5"/>
<text text-anchor="start" x="1482" y="-152.5" font-family="Helvetica,sans-Serif" font-size="10.00">include/pdes/serial</text>
<text text-anchor="middle" x="1528" y="-141.5" font-family="Helvetica,sans-Serif" font-size="10.00">/poisson.h</text>
</a>
</g>
</g>
<!-- Node1&#45;&gt;Node21 -->
<g id="edge20" class="edge">
<title>Node1&#45;&gt;Node21</title>
<path fill="none" stroke="midnightblue" d="M1528,-191.11C1528,-182.15 1528,-172.32 1528,-164.58"/>
<polygon fill="midnightblue" stroke="midnightblue" points="1524.5,-191.4 1528,-201.4 1531.5,-191.4 1524.5,-191.4"/>
</g>
<!-- Node24 -->
<g id="node24" class="node">
<title>Node24</title>
<g id="a_node24"><a xlink:href="reduced__lagrange_8h.html" target="_top" xlink:title=" ">
<polygon fill="none" stroke="black" points="1637,-134.5 1637,-164.5 1753,-164.5 1753,-134.5 1637,-134.5"/>
<text text-anchor="start" x="1645" y="-152.5" font-family="Helvetica,sans-Serif" font-size="10.00">include/pdes/serial</text>
<text text-anchor="middle" x="1695" y="-141.5" font-family="Helvetica,sans-Serif" font-size="10.00">/reduced_lagrange.h</text>
</a>
</g>
</g>
<!-- Node1&#45;&gt;Node24 -->
<g id="edge23" class="edge">
<title>Node1&#45;&gt;Node24</title>
<path fill="none" stroke="midnightblue" d="M1573.78,-197.68C1600.56,-187.26 1633.9,-174.28 1658.83,-164.58"/>
<polygon fill="midnightblue" stroke="midnightblue" points="1572.29,-194.51 1564.24,-201.4 1574.83,-201.03 1572.29,-194.51"/>
</g>
<!-- Node27 -->
<g id="node27" class="node">
<title>Node27</title>
<g id="a_node27"><a xlink:href="serial_2stokes_8h.html" target="_top" xlink:title=" ">
<polygon fill="none" stroke="black" points="1771,-134.5 1771,-164.5 1879,-164.5 1879,-134.5 1771,-134.5"/>
<text text-anchor="start" x="1779" y="-152.5" font-family="Helvetica,sans-Serif" font-size="10.00">include/pdes/serial</text>
<text text-anchor="middle" x="1825" y="-141.5" font-family="Helvetica,sans-Serif" font-size="10.00">/stokes.h</text>
</a>
</g>
</g>
<!-- Node1&#45;&gt;Node27 -->
<g id="edge26" class="edge">
<title>Node1&#45;&gt;Node27</title>
<path fill="none" stroke="midnightblue" d="M1596.71,-200.93C1643.36,-190.97 1706.45,-177.39 1762,-165 1764.85,-164.36 1767.77,-163.71 1770.71,-163.04"/>
<polygon fill="midnightblue" stroke="midnightblue" points="1595.76,-197.55 1586.71,-203.06 1597.22,-204.4 1595.76,-197.55"/>
</g>
<!-- Node30 -->
<g id="node30" class="node">
<title>Node30</title>
<g id="a_node30"><a xlink:href="grid__generator_8cc.html" target="_top" xlink:title=" ">
<polygon fill="none" stroke="black" points="1897.5,-140 1897.5,-159 2034.5,-159 2034.5,-140 1897.5,-140"/>
<text text-anchor="middle" x="1966" y="-147" font-family="Helvetica,sans-Serif" font-size="10.00">source/grid_generator.cc</text>
</a>
</g>
</g>
<!-- Node1&#45;&gt;Node30 -->
<g id="edge29" class="edge">
<title>Node1&#45;&gt;Node30</title>
<path fill="none" stroke="midnightblue" d="M1596.66,-206.79C1669.21,-197.37 1786.86,-181.49 1888,-165 1899.01,-163.21 1910.86,-161.09 1921.92,-159.05"/>
<polygon fill="midnightblue" stroke="midnightblue" points="1596.2,-203.32 1586.73,-208.08 1597.1,-210.26 1596.2,-203.32"/>
</g>
<!-- Node31 -->
<g id="node31" class="node">
<title>Node31</title>
<g id="a_node31"><a xlink:href="dof__plotter_8cc.html" target="_top" xlink:title="Degrees of freedom plotter.">
<polygon fill="none" stroke="black" points="2053,-140 2053,-159 2163,-159 2163,-140 2053,-140"/>
<text text-anchor="middle" x="2108" y="-147" font-family="Helvetica,sans-Serif" font-size="10.00">apps/dof_plotter.cc</text>
</a>
</g>
</g>
<!-- Node1&#45;&gt;Node31 -->
<g id="edge30" class="edge">
<title>Node1&#45;&gt;Node31</title>
<path fill="none" stroke="midnightblue" d="M1596.93,-211.51C1696.21,-205.14 1885.01,-190.69 2044,-165 2053.78,-163.42 2064.31,-161.24 2073.94,-159.05"/>
<polygon fill="midnightblue" stroke="midnightblue" points="1596.49,-208.03 1586.73,-212.15 1596.93,-215.01 1596.49,-208.03"/>
</g>
<!-- Node3 -->
<g id="node3" class="node">
<title>Node3</title>
<g id="a_node3"><a xlink:href="mesh__handler_8cc.html" target="_top" xlink:title="Mesh generator and reader.">
<polygon fill="none" stroke="black" points="21.5,-73 21.5,-92 146.5,-92 146.5,-73 21.5,-73"/>
<text text-anchor="middle" x="84" y="-80" font-family="Helvetica,sans-Serif" font-size="10.00">apps/mesh_handler.cc</text>
</a>
</g>
</g>
<!-- Node2&#45;&gt;Node3 -->
<g id="edge2" class="edge">
<title>Node2&#45;&gt;Node3</title>
<path fill="none" stroke="midnightblue" d="M271.98,-137.09C226.88,-124.23 154.57,-103.62 114.04,-92.06"/>
<polygon fill="midnightblue" stroke="midnightblue" points="271.15,-140.49 281.72,-139.87 273.07,-133.76 271.15,-140.49"/>
</g>
<!-- Node5 -->
<g id="node5" class="node">
<title>Node5</title>
<g id="a_node5"><a xlink:href="mpi_2linear__elasticity_8h.html" target="_top" xlink:title=" ">
<polygon fill="none" stroke="black" points="164.5,-67.5 164.5,-97.5 295.5,-97.5 295.5,-67.5 164.5,-67.5"/>
<text text-anchor="start" x="172.5" y="-85.5" font-family="Helvetica,sans-Serif" font-size="10.00">include/pdes/mpi/linear</text>
<text text-anchor="middle" x="230" y="-74.5" font-family="Helvetica,sans-Serif" font-size="10.00">_elasticity.h</text>
</a>
</g>
</g>
<!-- Node4&#45;&gt;Node5 -->
<g id="edge4" class="edge">
<title>Node4&#45;&gt;Node5</title>
<path fill="none" stroke="midnightblue" d="M551.27,-136.1C477.32,-123.99 365.95,-105.76 295.65,-94.25"/>
<polygon fill="midnightblue" stroke="midnightblue" points="551.01,-139.6 561.44,-137.77 552.14,-132.7 551.01,-139.6"/>
</g>
<!-- Node8 -->
<g id="node8" class="node">
<title>Node8</title>
<g id="a_node8"><a xlink:href="mpi_2poisson_8h.html" target="_top" xlink:title=" ">
<polygon fill="none" stroke="black" points="388.5,-73 388.5,-92 537.5,-92 537.5,-73 388.5,-73"/>
<text text-anchor="middle" x="463" y="-80" font-family="Helvetica,sans-Serif" font-size="10.00">include/pdes/mpi/poisson.h</text>
</a>
</g>
</g>
<!-- Node4&#45;&gt;Node8 -->
<g id="edge7" class="edge">
<title>Node4&#45;&gt;Node8</title>
<path fill="none" stroke="midnightblue" d="M581.89,-130.62C550.15,-118.04 509.09,-101.77 484.46,-92.01"/>
<polygon fill="midnightblue" stroke="midnightblue" points="580.83,-133.97 591.41,-134.4 583.41,-127.46 580.83,-133.97"/>
</g>
<!-- Node11 -->
<g id="node11" class="node">
<title>Node11</title>
<g id="a_node11"><a xlink:href="mpi_2stokes_8h.html" target="_top" xlink:title=" ">
<polygon fill="none" stroke="black" points="555.5,-73 555.5,-92 698.5,-92 698.5,-73 555.5,-73"/>
<text text-anchor="middle" x="627" y="-80" font-family="Helvetica,sans-Serif" font-size="10.00">include/pdes/mpi/stokes.h</text>
</a>
</g>
</g>
<!-- Node4&#45;&gt;Node11 -->
<g id="edge10" class="edge">
<title>Node4&#45;&gt;Node11</title>
<path fill="none" stroke="midnightblue" d="M627,-124.25C627,-113.02 627,-100.38 627,-92.19"/>
<polygon fill="midnightblue" stroke="midnightblue" points="623.5,-124.4 627,-134.4 630.5,-124.4 623.5,-124.4"/>
</g>
<!-- Node14 -->
<g id="node14" class="node">
<title>Node14</title>
<g id="a_node14"><a xlink:href="linear__problem_8cc.html" target="_top" xlink:title=" ">
<polygon fill="none" stroke="black" points="717,-67.5 717,-97.5 845,-97.5 845,-67.5 717,-67.5"/>
<text text-anchor="start" x="725" y="-85.5" font-family="Helvetica,sans-Serif" font-size="10.00">source/pdes/mpi/linear</text>
<text text-anchor="middle" x="781" y="-74.5" font-family="Helvetica,sans-Serif" font-size="10.00">_problem.cc</text>
</a>
</g>
</g>
<!-- Node4&#45;&gt;Node14 -->
<g id="edge13" class="edge">
<title>Node4&#45;&gt;Node14</title>
<path fill="none" stroke="midnightblue" d="M669.87,-130.41C694.45,-120.03 724.86,-107.2 747.65,-97.58"/>
<polygon fill="midnightblue" stroke="midnightblue" points="668.27,-127.28 660.42,-134.4 670.99,-133.73 668.27,-127.28"/>
</g>
<!-- Node6 -->
<g id="node6" class="node">
<title>Node6</title>
<g id="a_node6"><a xlink:href="source_2pdes_2mpi_2linear__elasticity_8cc.html" target="_top" xlink:title=" ">
<polygon fill="none" stroke="black" points="0,-0.5 0,-30.5 128,-30.5 128,-0.5 0,-0.5"/>
<text text-anchor="start" x="8" y="-18.5" font-family="Helvetica,sans-Serif" font-size="10.00">source/pdes/mpi/linear</text>
<text text-anchor="middle" x="64" y="-7.5" font-family="Helvetica,sans-Serif" font-size="10.00">_elasticity.cc</text>
</a>
</g>
</g>
<!-- Node5&#45;&gt;Node6 -->
<g id="edge5" class="edge">
<title>Node5&#45;&gt;Node6</title>
<path fill="none" stroke="midnightblue" d="M184.49,-63.68C157.87,-53.26 124.73,-40.28 99.95,-30.58"/>
<polygon fill="midnightblue" stroke="midnightblue" points="183.39,-67.01 193.98,-67.4 185.95,-60.49 183.39,-67.01"/>
</g>
<!-- Node7 -->
<g id="node7" class="node">
<title>Node7</title>
<g id="a_node7"><a xlink:href="apps_2mpi_2linear__elasticity_8cc.html" target="_top" xlink:title=" ">
<polygon fill="none" stroke="black" points="146.5,-6 146.5,-25 301.5,-25 301.5,-6 146.5,-6"/>
<text text-anchor="middle" x="224" y="-13" font-family="Helvetica,sans-Serif" font-size="10.00">apps/mpi/linear_elasticity.cc</text>
</a>
</g>
</g>
<!-- Node5&#45;&gt;Node7 -->
<g id="edge6" class="edge">
<title>Node5&#45;&gt;Node7</title>
<path fill="none" stroke="midnightblue" d="M227.76,-57.25C226.72,-46.02 225.56,-33.38 224.8,-25.19"/>
<polygon fill="midnightblue" stroke="midnightblue" points="224.29,-57.76 228.7,-67.4 231.26,-57.12 224.29,-57.76"/>
</g>
<!-- Node9 -->
<g id="node9" class="node">
<title>Node9</title>
<g id="a_node9"><a xlink:href="source_2pdes_2mpi_2poisson_8cc.html" target="_top" xlink:title=" ">
<polygon fill="none" stroke="black" points="319.5,-6 319.5,-25 470.5,-25 470.5,-6 319.5,-6"/>
<text text-anchor="middle" x="395" y="-13" font-family="Helvetica,sans-Serif" font-size="10.00">source/pdes/mpi/poisson.cc</text>
</a>
</g>
</g>
<!-- Node8&#45;&gt;Node9 -->
<g id="edge8" class="edge">
<title>Node8&#45;&gt;Node9</title>
<path fill="none" stroke="midnightblue" d="M446.26,-65.5C432.92,-52.75 414.77,-35.39 404.03,-25.13"/>
<polygon fill="midnightblue" stroke="midnightblue" points="444.18,-68.35 453.83,-72.73 449.02,-63.29 444.18,-68.35"/>
</g>
<!-- Node10 -->
<g id="node10" class="node">
<title>Node10</title>
<g id="a_node10"><a xlink:href="apps_2mpi_2poisson_8cc.html" target="_top" xlink:title=" ">
<polygon fill="none" stroke="black" points="489,-6 489,-25 605,-25 605,-6 489,-6"/>
<text text-anchor="middle" x="547" y="-13" font-family="Helvetica,sans-Serif" font-size="10.00">apps/mpi/poisson.cc</text>
</a>
</g>
</g>
<!-- Node8&#45;&gt;Node10 -->
<g id="edge9" class="edge">
<title>Node8&#45;&gt;Node10</title>
<path fill="none" stroke="midnightblue" d="M482.3,-66.57C498.88,-53.74 522.21,-35.69 535.85,-25.13"/>
<polygon fill="midnightblue" stroke="midnightblue" points="480.1,-63.85 474.33,-72.73 484.38,-69.38 480.1,-63.85"/>
</g>
<!-- Node12 -->
<g id="node12" class="node">
<title>Node12</title>
<g id="a_node12"><a xlink:href="source_2pdes_2mpi_2stokes_8cc.html" target="_top" xlink:title=" ">
<polygon fill="none" stroke="black" points="623.5,-6 623.5,-25 768.5,-25 768.5,-6 623.5,-6"/>
<text text-anchor="middle" x="696" y="-13" font-family="Helvetica,sans-Serif" font-size="10.00">source/pdes/mpi/stokes.cc</text>
</a>
</g>
</g>
<!-- Node11&#45;&gt;Node12 -->
<g id="edge11" class="edge">
<title>Node11&#45;&gt;Node12</title>
<path fill="none" stroke="midnightblue" d="M643.61,-65.86C657.17,-53.08 675.84,-35.49 686.84,-25.13"/>
<polygon fill="midnightblue" stroke="midnightblue" points="641.18,-63.33 636.31,-72.73 645.98,-68.42 641.18,-63.33"/>
</g>
<!-- Node13 -->
<g id="node13" class="node">
<title>Node13</title>
<g id="a_node13"><a xlink:href="apps_2mpi_2stokes_8cc.html" target="_top" xlink:title=" ">
<polygon fill="none" stroke="black" points="787,-6 787,-25 897,-25 897,-6 787,-6"/>
<text text-anchor="middle" x="842" y="-13" font-family="Helvetica,sans-Serif" font-size="10.00">apps/mpi/stokes.cc</text>
</a>
</g>
</g>
<!-- Node11&#45;&gt;Node13 -->
<g id="edge12" class="edge">
<title>Node11&#45;&gt;Node13</title>
<path fill="none" stroke="midnightblue" d="M665.27,-69.93C707.84,-57.06 775.61,-36.57 813.67,-25.06"/>
<polygon fill="midnightblue" stroke="midnightblue" points="664.11,-66.62 655.55,-72.87 666.14,-73.32 664.11,-66.62"/>
</g>
<!-- Node16 -->
<g id="node16" class="node">
<title>Node16</title>
<g id="a_node16"><a xlink:href="source_2pdes_2serial_2distributed__lagrange_8cc.html" target="_top" xlink:title=" ">
<polygon fill="none" stroke="black" points="863,-67.5 863,-97.5 997,-97.5 997,-67.5 863,-67.5"/>
<text text-anchor="start" x="871" y="-85.5" font-family="Helvetica,sans-Serif" font-size="10.00">source/pdes/serial</text>
<text text-anchor="middle" x="930" y="-74.5" font-family="Helvetica,sans-Serif" font-size="10.00">/distributed_lagrange.cc</text>
</a>
</g>
</g>
<!-- Node15&#45;&gt;Node16 -->
<g id="edge15" class="edge">
<title>Node15&#45;&gt;Node16</title>
<path fill="none" stroke="midnightblue" d="M1036.49,-130.27C1012.92,-119.92 983.86,-107.15 962.05,-97.58"/>
<polygon fill="midnightblue" stroke="midnightblue" points="1035.32,-133.58 1045.89,-134.4 1038.14,-127.17 1035.32,-133.58"/>
</g>
<!-- Node17 -->
<g id="node17" class="node">
<title>Node17</title>
<g id="a_node17"><a xlink:href="apps_2serial_2distributed__lagrange_8cc.html" target="_top" xlink:title=" ">
<polygon fill="none" stroke="black" points="1015.5,-67.5 1015.5,-97.5 1140.5,-97.5 1140.5,-67.5 1015.5,-67.5"/>
<text text-anchor="start" x="1023.5" y="-85.5" font-family="Helvetica,sans-Serif" font-size="10.00">apps/serial/distributed</text>
<text text-anchor="middle" x="1078" y="-74.5" font-family="Helvetica,sans-Serif" font-size="10.00">_lagrange.cc</text>
</a>
</g>
</g>
<!-- Node15&#45;&gt;Node17 -->
<g id="edge16" class="edge">
<title>Node15&#45;&gt;Node17</title>
<path fill="none" stroke="midnightblue" d="M1078,-124.11C1078,-115.15 1078,-105.32 1078,-97.58"/>
<polygon fill="midnightblue" stroke="midnightblue" points="1074.5,-124.4 1078,-134.4 1081.5,-124.4 1074.5,-124.4"/>
</g>
<!-- Node19 -->
<g id="node19" class="node">
<title>Node19</title>
<g id="a_node19"><a xlink:href="source_2pdes_2serial_2linear__elasticity_8cc.html" target="_top" xlink:title=" ">
<polygon fill="none" stroke="black" points="1159,-67.5 1159,-97.5 1269,-97.5 1269,-67.5 1159,-67.5"/>
<text text-anchor="start" x="1167" y="-85.5" font-family="Helvetica,sans-Serif" font-size="10.00">source/pdes/serial</text>
<text text-anchor="middle" x="1214" y="-74.5" font-family="Helvetica,sans-Serif" font-size="10.00">/linear_elasticity.cc</text>
</a>
</g>
</g>
<!-- Node18&#45;&gt;Node19 -->
<g id="edge18" class="edge">
<title>Node18&#45;&gt;Node19</title>
<path fill="none" stroke="midnightblue" d="M1302.16,-129.71C1282.61,-119.46 1258.8,-106.98 1240.85,-97.58"/>
<polygon fill="midnightblue" stroke="midnightblue" points="1300.61,-132.85 1311.09,-134.4 1303.86,-126.65 1300.61,-132.85"/>
</g>
<!-- Node20 -->
<g id="node20" class="node">
<title>Node20</title>
<g id="a_node20"><a xlink:href="apps_2serial_2linear__elasticity_8cc.html" target="_top" xlink:title=" ">
<polygon fill="none" stroke="black" points="1287.5,-67.5 1287.5,-97.5 1388.5,-97.5 1388.5,-67.5 1287.5,-67.5"/>
<text text-anchor="start" x="1295.5" y="-85.5" font-family="Helvetica,sans-Serif" font-size="10.00">apps/serial/linear</text>
<text text-anchor="middle" x="1338" y="-74.5" font-family="Helvetica,sans-Serif" font-size="10.00">_elasticity.cc</text>
</a>
</g>
</g>
<!-- Node18&#45;&gt;Node20 -->
<g id="edge19" class="edge">
<title>Node18&#45;&gt;Node20</title>
<path fill="none" stroke="midnightblue" d="M1338,-124.11C1338,-115.15 1338,-105.32 1338,-97.58"/>
<polygon fill="midnightblue" stroke="midnightblue" points="1334.5,-124.4 1338,-134.4 1341.5,-124.4 1334.5,-124.4"/>
</g>
<!-- Node22 -->
<g id="node22" class="node">
<title>Node22</title>
<g id="a_node22"><a xlink:href="source_2pdes_2serial_2poisson_8cc.html" target="_top" xlink:title=" ">
<polygon fill="none" stroke="black" points="1406.5,-67.5 1406.5,-97.5 1511.5,-97.5 1511.5,-67.5 1406.5,-67.5"/>
<text text-anchor="start" x="1414.5" y="-85.5" font-family="Helvetica,sans-Serif" font-size="10.00">source/pdes/serial</text>
<text text-anchor="middle" x="1459" y="-74.5" font-family="Helvetica,sans-Serif" font-size="10.00">/poisson.cc</text>
</a>
</g>
</g>
<!-- Node21&#45;&gt;Node22 -->
<g id="edge21" class="edge">
<title>Node21&#45;&gt;Node22</title>
<path fill="none" stroke="midnightblue" d="M1505.51,-127.31C1495.16,-117.56 1483.16,-106.26 1473.94,-97.58"/>
<polygon fill="midnightblue" stroke="midnightblue" points="1503.35,-130.09 1513.03,-134.4 1508.15,-124.99 1503.35,-130.09"/>
</g>
<!-- Node23 -->
<g id="node23" class="node">
<title>Node23</title>
<g id="a_node23"><a xlink:href="apps_2serial_2poisson_8cc.html" target="_top" xlink:title=" ">
<polygon fill="none" stroke="black" points="1530,-73 1530,-92 1654,-92 1654,-73 1530,-73"/>
<text text-anchor="middle" x="1592" y="-80" font-family="Helvetica,sans-Serif" font-size="10.00">apps/serial/poisson.cc</text>
</a>
</g>
</g>
<!-- Node21&#45;&gt;Node23 -->
<g id="edge22" class="edge">
<title>Node21&#45;&gt;Node23</title>
<path fill="none" stroke="midnightblue" d="M1549.17,-127C1560.85,-115.13 1574.72,-101.05 1583.44,-92.19"/>
<polygon fill="midnightblue" stroke="midnightblue" points="1546.41,-124.81 1541.89,-134.4 1551.4,-129.73 1546.41,-124.81"/>
</g>
<!-- Node25 -->
<g id="node25" class="node">
<title>Node25</title>
<g id="a_node25"><a xlink:href="source_2pdes_2serial_2reduced__lagrange_8cc.html" target="_top" xlink:title=" ">
<polygon fill="none" stroke="black" points="1672,-67.5 1672,-97.5 1792,-97.5 1792,-67.5 1672,-67.5"/>
<text text-anchor="start" x="1680" y="-85.5" font-family="Helvetica,sans-Serif" font-size="10.00">source/pdes/serial</text>
<text text-anchor="middle" x="1732" y="-74.5" font-family="Helvetica,sans-Serif" font-size="10.00">/reduced_lagrange.cc</text>
</a>
</g>
</g>
<!-- Node24&#45;&gt;Node25 -->
<g id="edge24" class="edge">
<title>Node24&#45;&gt;Node25</title>
<path fill="none" stroke="midnightblue" d="M1708.05,-125.58C1713.36,-116.24 1719.34,-105.75 1723.99,-97.58"/>
<polygon fill="midnightblue" stroke="midnightblue" points="1704.93,-123.97 1703.03,-134.4 1711.02,-127.44 1704.93,-123.97"/>
</g>
<!-- Node26 -->
<g id="node26" class="node">
<title>Node26</title>
<g id="a_node26"><a xlink:href="apps_2serial_2reduced__lagrange_8cc.html" target="_top" xlink:title=" ">
<polygon fill="none" stroke="black" points="1810,-67.5 1810,-97.5 1922,-97.5 1922,-67.5 1810,-67.5"/>
<text text-anchor="start" x="1818" y="-85.5" font-family="Helvetica,sans-Serif" font-size="10.00">apps/serial/reduced</text>
<text text-anchor="middle" x="1866" y="-74.5" font-family="Helvetica,sans-Serif" font-size="10.00">_lagrange.cc</text>
</a>
</g>
</g>
<!-- Node24&#45;&gt;Node26 -->
<g id="edge25" class="edge">
<title>Node24&#45;&gt;Node26</title>
<path fill="none" stroke="midnightblue" d="M1741.52,-130.82C1769,-120.37 1803.33,-107.32 1828.97,-97.58"/>
<polygon fill="midnightblue" stroke="midnightblue" points="1740.21,-127.57 1732.1,-134.4 1742.7,-134.11 1740.21,-127.57"/>
</g>
<!-- Node28 -->
<g id="node28" class="node">
<title>Node28</title>
<g id="a_node28"><a xlink:href="source_2pdes_2serial_2stokes_8cc.html" target="_top" xlink:title=" ">
<polygon fill="none" stroke="black" points="1940.5,-67.5 1940.5,-97.5 2045.5,-97.5 2045.5,-67.5 1940.5,-67.5"/>
<text text-anchor="start" x="1948.5" y="-85.5" font-family="Helvetica,sans-Serif" font-size="10.00">source/pdes/serial</text>
<text text-anchor="middle" x="1993" y="-74.5" font-family="Helvetica,sans-Serif" font-size="10.00">/stokes.cc</text>
</a>
</g>
</g>
<!-- Node27&#45;&gt;Node28 -->
<g id="edge27" class="edge">
<title>Node27&#45;&gt;Node28</title>
<path fill="none" stroke="midnightblue" d="M1871.05,-130.68C1898,-120.26 1931.54,-107.28 1956.62,-97.58"/>
<polygon fill="midnightblue" stroke="midnightblue" points="1869.52,-127.52 1861.45,-134.4 1872.04,-134.05 1869.52,-127.52"/>
</g>
<!-- Node29 -->
<g id="node29" class="node">
<title>Node29</title>
<g id="a_node29"><a xlink:href="apps_2serial_2stokes_8cc.html" target="_top" xlink:title=" ">
<polygon fill="none" stroke="black" points="2064,-73 2064,-92 2182,-92 2182,-73 2064,-73"/>
<text text-anchor="middle" x="2123" y="-80" font-family="Helvetica,sans-Serif" font-size="10.00">apps/serial/stokes.cc</text>
</a>
</g>
</g>
<!-- Node27&#45;&gt;Node29 -->
<g id="edge28" class="edge">
<title>Node27&#45;&gt;Node29</title>
<path fill="none" stroke="midnightblue" d="M1888.7,-134.07C1888.8,-134.04 1888.9,-134.02 1889,-134 1925.52,-125.92 2026.37,-104.24 2083.03,-92.07"/>
<polygon fill="midnightblue" stroke="midnightblue" points="1888.11,-130.61 1879.11,-136.2 1889.63,-137.44 1888.11,-130.61"/>
</g>
</g>
</svg>
