<?xml version="1.0" encoding="UTF-8" standalone="no"?>
<!DOCTYPE svg PUBLIC "-//W3C//DTD SVG 1.1//EN"
 "http://www.w3.org/Graphics/SVG/1.1/DTD/svg11.dtd">
<!-- Generated by graphviz version 2.43.0 (0)
 -->
<!-- Title: include/parsed_tools/grid_generator.h Pages: 1 -->
<svg width="479pt" height="151pt"
 viewBox="0.00 0.00 479.00 151.00" xmlns="http://www.w3.org/2000/svg" xmlns:xlink="http://www.w3.org/1999/xlink">
<g id="graph0" class="graph" transform="scale(1 1) rotate(0) translate(4 147)">
<title>include/parsed_tools/grid_generator.h</title>
<!-- Node1 -->
<g id="node1" class="node">
<title>Node1</title>
<g id="a_node1"><a xlink:title=" ">
<polygon fill="#bfbfbf" stroke="black" points="211,-112.5 211,-142.5 328,-142.5 328,-112.5 211,-112.5"/>
<text text-anchor="start" x="219" y="-130.5" font-family="Helvetica,sans-Serif" font-size="10.00">include/parsed_tools</text>
<text text-anchor="middle" x="269.5" y="-119.5" font-family="Helvetica,sans-Serif" font-size="10.00">/grid_generator.h</text>
</a>
</g>
</g>
<!-- Node2 -->
<g id="node2" class="node">
<title>Node2</title>
<g id="a_node2"><a xlink:href="grid__generator_8cc.html" target="_top" xlink:title=" ">
<polygon fill="none" stroke="black" points="0,-56.5 0,-75.5 137,-75.5 137,-56.5 0,-56.5"/>
<text text-anchor="middle" x="68.5" y="-63.5" font-family="Helvetica,sans-Serif" font-size="10.00">source/grid_generator.cc</text>
</a>
</g>
</g>
<!-- Node1&#45;&gt;Node2 -->
<g id="edge1" class="edge">
<title>Node1&#45;&gt;Node2</title>
<path fill="none" stroke="midnightblue" d="M212.3,-109.57C174.71,-98.44 127.12,-84.35 97.24,-75.51"/>
<polygon fill="midnightblue" stroke="midnightblue" points="211.54,-112.99 222.12,-112.47 213.53,-106.28 211.54,-112.99"/>
</g>
<!-- Node3 -->
<g id="node3" class="node">
<title>Node3</title>
<g id="a_node3"><a xlink:href="serial__poisson_8h.html" target="_top" xlink:title=" ">
<polygon fill="none" stroke="black" points="155.5,-56.5 155.5,-75.5 289.5,-75.5 289.5,-56.5 155.5,-56.5"/>
<text text-anchor="middle" x="222.5" y="-63.5" font-family="Helvetica,sans-Serif" font-size="10.00">include/serial_poisson.h</text>
</a>
</g>
</g>
<!-- Node1&#45;&gt;Node3 -->
<g id="edge2" class="edge">
<title>Node1&#45;&gt;Node3</title>
<path fill="none" stroke="midnightblue" d="M252.05,-104.4C244.15,-94.41 235.28,-83.18 229.34,-75.66"/>
<polygon fill="midnightblue" stroke="midnightblue" points="249.42,-106.72 258.36,-112.4 254.91,-102.38 249.42,-106.72"/>
</g>
<!-- Node5 -->
<g id="node5" class="node">
<title>Node5</title>
<g id="a_node5"><a xlink:href="apps_2serial__poisson_8cc.html" target="_top" xlink:title=" ">
<polygon fill="none" stroke="black" points="254.5,-0.5 254.5,-19.5 380.5,-19.5 380.5,-0.5 254.5,-0.5"/>
<text text-anchor="middle" x="317.5" y="-7.5" font-family="Helvetica,sans-Serif" font-size="10.00">apps/serial_poisson.cc</text>
</a>
</g>
</g>
<!-- Node1&#45;&gt;Node5 -->
<g id="edge6" class="edge">
<title>Node1&#45;&gt;Node5</title>
<path fill="none" stroke="midnightblue" d="M284.07,-103.8C289.1,-95.3 294.48,-85.43 298.5,-76 306.8,-56.53 312.82,-32.31 315.66,-19.64"/>
<polygon fill="midnightblue" stroke="midnightblue" points="281.05,-102.03 278.82,-112.38 287.02,-105.68 281.05,-102.03"/>
</g>
<!-- Node6 -->
<g id="node6" class="node">
<title>Node6</title>
<g id="a_node6"><a xlink:href="mesh__handler_8cc.html" target="_top" xlink:title=" ">
<polygon fill="none" stroke="black" points="346,-56.5 346,-75.5 471,-75.5 471,-56.5 346,-56.5"/>
<text text-anchor="middle" x="408.5" y="-63.5" font-family="Helvetica,sans-Serif" font-size="10.00">apps/mesh_handler.cc</text>
</a>
</g>
</g>
<!-- Node1&#45;&gt;Node6 -->
<g id="edge5" class="edge">
<title>Node1&#45;&gt;Node6</title>
<path fill="none" stroke="midnightblue" d="M311.85,-108.37C337.22,-97.51 368.33,-84.2 388.27,-75.66"/>
<polygon fill="midnightblue" stroke="midnightblue" points="310.26,-105.25 302.44,-112.4 313.01,-111.68 310.26,-105.25"/>
</g>
<!-- Node4 -->
<g id="node4" class="node">
<title>Node4</title>
<g id="a_node4"><a xlink:href="source_2serial__poisson_8cc.html" target="_top" xlink:title=" ">
<polygon fill="none" stroke="black" points="101,-0.5 101,-19.5 236,-19.5 236,-0.5 101,-0.5"/>
<text text-anchor="middle" x="168.5" y="-7.5" font-family="Helvetica,sans-Serif" font-size="10.00">source/serial_poisson.cc</text>
</a>
</g>
</g>
<!-- Node3&#45;&gt;Node4 -->
<g id="edge3" class="edge">
<title>Node3&#45;&gt;Node4</title>
<path fill="none" stroke="midnightblue" d="M206.5,-49C196.93,-39.43 185.14,-27.64 177.25,-19.75"/>
<polygon fill="midnightblue" stroke="midnightblue" points="204.04,-51.49 213.58,-56.08 208.99,-46.54 204.04,-51.49"/>
</g>
<!-- Node3&#45;&gt;Node5 -->
<g id="edge4" class="edge">
<title>Node3&#45;&gt;Node5</title>
<path fill="none" stroke="midnightblue" d="M246.82,-51.18C264.3,-41.24 287.33,-28.15 302.27,-19.65"/>
<polygon fill="midnightblue" stroke="midnightblue" points="244.73,-48.34 237.76,-56.32 248.19,-54.43 244.73,-48.34"/>
</g>
</g>
</svg>
