<?xml version="1.0" encoding="UTF-8" standalone="no"?>
<!DOCTYPE svg PUBLIC "-//W3C//DTD SVG 1.1//EN"
 "http://www.w3.org/Graphics/SVG/1.1/DTD/svg11.dtd">
<!-- Generated by graphviz version 2.43.0 (0)
 -->
<!-- Title: include/parsed_tools/grid_generator.h Pages: 1 -->
<svg width="2639pt" height="240pt"
 viewBox="0.00 0.00 2638.50 240.00" xmlns="http://www.w3.org/2000/svg" xmlns:xlink="http://www.w3.org/1999/xlink">
<g id="graph0" class="graph" transform="scale(1 1) rotate(0) translate(4 236)">
<title>include/parsed_tools/grid_generator.h</title>
<!-- Node1 -->
<g id="node1" class="node">
<title>Node1</title>
<g id="a_node1"><a xlink:title=" ">
<polygon fill="#bfbfbf" stroke="black" points="1861,-201.5 1861,-231.5 1978,-231.5 1978,-201.5 1861,-201.5"/>
<text text-anchor="start" x="1869" y="-219.5" font-family="Helvetica,sans-Serif" font-size="10.00">include/parsed_tools</text>
<text text-anchor="middle" x="1919.5" y="-208.5" font-family="Helvetica,sans-Serif" font-size="10.00">/grid_generator.h</text>
</a>
</g>
</g>
<!-- Node2 -->
<g id="node2" class="node">
<title>Node2</title>
<g id="a_node2"><a xlink:href="mesh__handler_8h.html" target="_top" xlink:title=" ">
<polygon fill="none" stroke="black" points="334,-140 334,-159 467,-159 467,-140 334,-140"/>
<text text-anchor="middle" x="400.5" y="-147" font-family="Helvetica,sans-Serif" font-size="10.00">include/mesh_handler.h</text>
</a>
</g>
</g>
<!-- Node1&#45;&gt;Node2 -->
<g id="edge1" class="edge">
<title>Node1&#45;&gt;Node2</title>
<path fill="none" stroke="midnightblue" d="M1850.71,-212.56C1597.29,-201.71 717.58,-164.07 467.36,-153.36"/>
<polygon fill="midnightblue" stroke="midnightblue" points="1850.74,-216.06 1860.88,-212.99 1851.04,-209.07 1850.74,-216.06"/>
</g>
<!-- Node4 -->
<g id="node4" class="node">
<title>Node4</title>
<g id="a_node4"><a xlink:href="distributed__lagrange_8h.html" target="_top" xlink:title=" ">
<polygon fill="none" stroke="black" points="350.5,-67.5 350.5,-97.5 484.5,-97.5 484.5,-67.5 350.5,-67.5"/>
<text text-anchor="start" x="358.5" y="-85.5" font-family="Helvetica,sans-Serif" font-size="10.00">include/pdes/distributed</text>
<text text-anchor="middle" x="417.5" y="-74.5" font-family="Helvetica,sans-Serif" font-size="10.00">_lagrange.h</text>
</a>
</g>
</g>
<!-- Node1&#45;&gt;Node4 -->
<g id="edge3" class="edge">
<title>Node1&#45;&gt;Node4</title>
<path fill="none" stroke="midnightblue" d="M1850.48,-212.39C1711.54,-205.85 1388.29,-189.27 1117.5,-165 884.75,-144.14 609.65,-109.04 484.95,-92.56"/>
<polygon fill="midnightblue" stroke="midnightblue" points="1850.4,-215.89 1860.56,-212.86 1850.73,-208.9 1850.4,-215.89"/>
</g>
<!-- Node8 -->
<g id="node8" class="node">
<title>Node8</title>
<g id="a_node8"><a xlink:href="linear__problem_8h.html" target="_top" xlink:title=" ">
<polygon fill="none" stroke="black" points="1127,-134.5 1127,-164.5 1236,-164.5 1236,-134.5 1127,-134.5"/>
<text text-anchor="start" x="1135" y="-152.5" font-family="Helvetica,sans-Serif" font-size="10.00">include/pdes/linear</text>
<text text-anchor="middle" x="1181.5" y="-141.5" font-family="Helvetica,sans-Serif" font-size="10.00">_problem.h</text>
</a>
</g>
</g>
<!-- Node1&#45;&gt;Node8 -->
<g id="edge7" class="edge">
<title>Node1&#45;&gt;Node8</title>
<path fill="none" stroke="midnightblue" d="M1850.83,-209.45C1705.24,-196.63 1368.11,-166.94 1236,-155.3"/>
<polygon fill="midnightblue" stroke="midnightblue" points="1850.7,-212.95 1860.97,-210.35 1851.32,-205.98 1850.7,-212.95"/>
</g>
<!-- Node24 -->
<g id="node24" class="node">
<title>Node24</title>
<g id="a_node24"><a xlink:href="serial_2poisson_8h.html" target="_top" xlink:title=" ">
<polygon fill="none" stroke="black" points="1670.5,-134.5 1670.5,-164.5 1778.5,-164.5 1778.5,-134.5 1670.5,-134.5"/>
<text text-anchor="start" x="1678.5" y="-152.5" font-family="Helvetica,sans-Serif" font-size="10.00">include/pdes/serial</text>
<text text-anchor="middle" x="1724.5" y="-141.5" font-family="Helvetica,sans-Serif" font-size="10.00">/poisson.h</text>
</a>
</g>
</g>
<!-- Node1&#45;&gt;Node24 -->
<g id="edge24" class="edge">
<title>Node1&#45;&gt;Node24</title>
<path fill="none" stroke="midnightblue" d="M1867.68,-198.23C1836.14,-187.71 1796.35,-174.45 1766.73,-164.58"/>
<polygon fill="midnightblue" stroke="midnightblue" points="1866.59,-201.55 1877.19,-201.4 1868.81,-194.91 1866.59,-201.55"/>
</g>
<!-- Node27 -->
<g id="node27" class="node">
<title>Node27</title>
<g id="a_node27"><a xlink:href="poisson__nitsche__interface_8h.html" target="_top" xlink:title=" ">
<polygon fill="none" stroke="black" points="1842,-134.5 1842,-164.5 1997,-164.5 1997,-134.5 1842,-134.5"/>
<text text-anchor="start" x="1850" y="-152.5" font-family="Helvetica,sans-Serif" font-size="10.00">include/pdes/serial</text>
<text text-anchor="middle" x="1919.5" y="-141.5" font-family="Helvetica,sans-Serif" font-size="10.00">/poisson_nitsche_interface.h</text>
</a>
</g>
</g>
<!-- Node1&#45;&gt;Node27 -->
<g id="edge27" class="edge">
<title>Node1&#45;&gt;Node27</title>
<path fill="none" stroke="midnightblue" d="M1919.5,-191.11C1919.5,-182.15 1919.5,-172.32 1919.5,-164.58"/>
<polygon fill="midnightblue" stroke="midnightblue" points="1916,-191.4 1919.5,-201.4 1923,-191.4 1916,-191.4"/>
</g>
<!-- Node30 -->
<g id="node30" class="node">
<title>Node30</title>
<g id="a_node30"><a xlink:href="reduced__lagrange_8h.html" target="_top" xlink:title=" ">
<polygon fill="none" stroke="black" points="2086.5,-134.5 2086.5,-164.5 2202.5,-164.5 2202.5,-134.5 2086.5,-134.5"/>
<text text-anchor="start" x="2094.5" y="-152.5" font-family="Helvetica,sans-Serif" font-size="10.00">include/pdes/serial</text>
<text text-anchor="middle" x="2144.5" y="-141.5" font-family="Helvetica,sans-Serif" font-size="10.00">/reduced_lagrange.h</text>
</a>
</g>
</g>
<!-- Node1&#45;&gt;Node30 -->
<g id="edge30" class="edge">
<title>Node1&#45;&gt;Node30</title>
<path fill="none" stroke="midnightblue" d="M1978.07,-198.58C2014.61,-188.02 2061.1,-174.59 2095.65,-164.61"/>
<polygon fill="midnightblue" stroke="midnightblue" points="1976.68,-195.34 1968.04,-201.48 1978.62,-202.06 1976.68,-195.34"/>
</g>
<!-- Node33 -->
<g id="node33" class="node">
<title>Node33</title>
<g id="a_node33"><a xlink:href="serial_2stokes_8h.html" target="_top" xlink:title=" ">
<polygon fill="none" stroke="black" points="2220.5,-134.5 2220.5,-164.5 2328.5,-164.5 2328.5,-134.5 2220.5,-134.5"/>
<text text-anchor="start" x="2228.5" y="-152.5" font-family="Helvetica,sans-Serif" font-size="10.00">include/pdes/serial</text>
<text text-anchor="middle" x="2274.5" y="-141.5" font-family="Helvetica,sans-Serif" font-size="10.00">/stokes.h</text>
</a>
</g>
</g>
<!-- Node1&#45;&gt;Node33 -->
<g id="edge33" class="edge">
<title>Node1&#45;&gt;Node33</title>
<path fill="none" stroke="midnightblue" d="M1988.12,-204.73C2047.42,-195.15 2135.34,-180.34 2211.5,-165 2214.36,-164.42 2217.29,-163.82 2220.24,-163.19"/>
<polygon fill="midnightblue" stroke="midnightblue" points="1987.44,-201.29 1978.12,-206.33 1988.55,-208.2 1987.44,-201.29"/>
</g>
<!-- Node36 -->
<g id="node36" class="node">
<title>Node36</title>
<g id="a_node36"><a xlink:href="grid__generator_8cc.html" target="_top" xlink:title=" ">
<polygon fill="none" stroke="black" points="2347,-140 2347,-159 2484,-159 2484,-140 2347,-140"/>
<text text-anchor="middle" x="2415.5" y="-147" font-family="Helvetica,sans-Serif" font-size="10.00">source/grid_generator.cc</text>
</a>
</g>
</g>
<!-- Node1&#45;&gt;Node36 -->
<g id="edge36" class="edge">
<title>Node1&#45;&gt;Node36</title>
<path fill="none" stroke="midnightblue" d="M1988.22,-208.55C2071.2,-199.85 2214.9,-183.78 2337.5,-165 2348.8,-163.27 2360.97,-161.14 2372.26,-159.04"/>
<polygon fill="midnightblue" stroke="midnightblue" points="1987.74,-205.08 1978.16,-209.6 1988.47,-212.05 1987.74,-205.08"/>
</g>
<!-- Node37 -->
<g id="node37" class="node">
<title>Node37</title>
<g id="a_node37"><a xlink:href="dof__plotter_8cc.html" target="_top" xlink:title="Degrees of freedom plotter.">
<polygon fill="none" stroke="black" points="2502.5,-140 2502.5,-159 2612.5,-159 2612.5,-140 2502.5,-140"/>
<text text-anchor="middle" x="2557.5" y="-147" font-family="Helvetica,sans-Serif" font-size="10.00">apps/dof_plotter.cc</text>
</a>
</g>
</g>
<!-- Node1&#45;&gt;Node37 -->
<g id="edge37" class="edge">
<title>Node1&#45;&gt;Node37</title>
<path fill="none" stroke="midnightblue" d="M1988.19,-212.46C2096.24,-207 2312.3,-193.36 2493.5,-165 2503.4,-163.45 2514.06,-161.25 2523.79,-159.03"/>
<polygon fill="midnightblue" stroke="midnightblue" points="1987.89,-208.97 1978.07,-212.96 1988.23,-215.96 1987.89,-208.97"/>
</g>
<!-- Node3 -->
<g id="node3" class="node">
<title>Node3</title>
<g id="a_node3"><a xlink:href="mesh__handler_8cc.html" target="_top" xlink:title="Mesh generator and reader.">
<polygon fill="none" stroke="black" points="207,-73 207,-92 332,-92 332,-73 207,-73"/>
<text text-anchor="middle" x="269.5" y="-80" font-family="Helvetica,sans-Serif" font-size="10.00">apps/mesh_handler.cc</text>
</a>
</g>
</g>
<!-- Node2&#45;&gt;Node3 -->
<g id="edge2" class="edge">
<title>Node2&#45;&gt;Node3</title>
<path fill="none" stroke="midnightblue" d="M373.84,-135.27C347.9,-122.4 309.22,-103.21 286.97,-92.17"/>
<polygon fill="midnightblue" stroke="midnightblue" points="372.59,-138.56 383.1,-139.87 375.7,-132.29 372.59,-138.56"/>
</g>
<!-- Node5 -->
<g id="node5" class="node">
<title>Node5</title>
<g id="a_node5"><a xlink:href="source_2pdes_2distributed__lagrange_8cc.html" target="_top" xlink:title=" ">
<polygon fill="none" stroke="black" points="0,-0.5 0,-30.5 131,-30.5 131,-0.5 0,-0.5"/>
<text text-anchor="start" x="8" y="-18.5" font-family="Helvetica,sans-Serif" font-size="10.00">source/pdes/distributed</text>
<text text-anchor="middle" x="65.5" y="-7.5" font-family="Helvetica,sans-Serif" font-size="10.00">_lagrange.cc</text>
</a>
</g>
</g>
<!-- Node4&#45;&gt;Node5 -->
<g id="edge4" class="edge">
<title>Node4&#45;&gt;Node5</title>
<path fill="none" stroke="midnightblue" d="M340.42,-67C249.62,-50.39 225.65,-47.15 139.5,-31 136.8,-30.49 134.04,-29.97 131.26,-29.44"/>
<polygon fill="midnightblue" stroke="midnightblue" points="339.85,-70.45 350.31,-68.81 341.11,-63.57 339.85,-70.45"/>
</g>
<!-- Node6 -->
<g id="node6" class="node">
<title>Node6</title>
<g id="a_node6"><a xlink:href="apps_2mpi_2distributed__lagrange_8cc.html" target="_top" xlink:title=" ">
<polygon fill="none" stroke="black" points="149,-0.5 149,-30.5 266,-30.5 266,-0.5 149,-0.5"/>
<text text-anchor="start" x="157" y="-18.5" font-family="Helvetica,sans-Serif" font-size="10.00">apps/mpi/distributed</text>
<text text-anchor="middle" x="207.5" y="-7.5" font-family="Helvetica,sans-Serif" font-size="10.00">_lagrange.cc</text>
</a>
</g>
</g>
<!-- Node4&#45;&gt;Node6 -->
<g id="edge5" class="edge">
<title>Node4&#45;&gt;Node6</title>
<path fill="none" stroke="midnightblue" d="M362.4,-64.44C328.36,-53.91 285.2,-40.55 253.09,-30.61"/>
<polygon fill="midnightblue" stroke="midnightblue" points="361.6,-67.86 372.19,-67.48 363.67,-61.18 361.6,-67.86"/>
</g>
<!-- Node7 -->
<g id="node7" class="node">
<title>Node7</title>
<g id="a_node7"><a xlink:href="apps_2serial_2distributed__lagrange_8cc.html" target="_top" xlink:title=" ">
<polygon fill="none" stroke="black" points="284,-0.5 284,-30.5 409,-30.5 409,-0.5 284,-0.5"/>
<text text-anchor="start" x="292" y="-18.5" font-family="Helvetica,sans-Serif" font-size="10.00">apps/serial/distributed</text>
<text text-anchor="middle" x="346.5" y="-7.5" font-family="Helvetica,sans-Serif" font-size="10.00">_lagrange.cc</text>
</a>
</g>
</g>
<!-- Node4&#45;&gt;Node7 -->
<g id="edge6" class="edge">
<title>Node4&#45;&gt;Node7</title>
<path fill="none" stroke="midnightblue" d="M394.67,-60.6C383.95,-50.78 371.45,-39.34 361.88,-30.58"/>
<polygon fill="midnightblue" stroke="midnightblue" points="392.35,-63.22 402.09,-67.4 397.08,-58.06 392.35,-63.22"/>
</g>
<!-- Node8&#45;&gt;Node4 -->
<g id="edge8" class="edge">
<title>Node8&#45;&gt;Node4</title>
<path fill="none" stroke="midnightblue" d="M1116.89,-143C973.57,-130.81 630.19,-101.6 484.59,-89.21"/>
<polygon fill="midnightblue" stroke="midnightblue" points="1116.6,-146.49 1126.86,-143.85 1117.19,-139.52 1116.6,-146.49"/>
</g>
<!-- Node9 -->
<g id="node9" class="node">
<title>Node9</title>
<g id="a_node9"><a xlink:href="linear__elasticity_8h.html" target="_top" xlink:title=" ">
<polygon fill="none" stroke="black" points="648,-67.5 648,-97.5 757,-97.5 757,-67.5 648,-67.5"/>
<text text-anchor="start" x="656" y="-85.5" font-family="Helvetica,sans-Serif" font-size="10.00">include/pdes/linear</text>
<text text-anchor="middle" x="702.5" y="-74.5" font-family="Helvetica,sans-Serif" font-size="10.00">_elasticity.h</text>
</a>
</g>
</g>
<!-- Node8&#45;&gt;Node9 -->
<g id="edge9" class="edge">
<title>Node8&#45;&gt;Node9</title>
<path fill="none" stroke="midnightblue" d="M1116.48,-139.68C1021.38,-126.77 846.03,-102.98 757.17,-90.92"/>
<polygon fill="midnightblue" stroke="midnightblue" points="1116.17,-143.17 1126.55,-141.04 1117.11,-136.23 1116.17,-143.17"/>
</g>
<!-- Node13 -->
<g id="node13" class="node">
<title>Node13</title>
<g id="a_node13"><a xlink:href="linear__visco__elasticity_8h.html" target="_top" xlink:title=" ">
<polygon fill="none" stroke="black" points="980,-67.5 980,-97.5 1089,-97.5 1089,-67.5 980,-67.5"/>
<text text-anchor="start" x="988" y="-85.5" font-family="Helvetica,sans-Serif" font-size="10.00">include/pdes/linear</text>
<text text-anchor="middle" x="1034.5" y="-74.5" font-family="Helvetica,sans-Serif" font-size="10.00">_visco_elasticity.h</text>
</a>
</g>
</g>
<!-- Node8&#45;&gt;Node13 -->
<g id="edge13" class="edge">
<title>Node8&#45;&gt;Node13</title>
<path fill="none" stroke="midnightblue" d="M1140.27,-130.27C1116.86,-119.92 1087.99,-107.15 1066.33,-97.58"/>
<polygon fill="midnightblue" stroke="midnightblue" points="1139.04,-133.55 1149.6,-134.4 1141.87,-127.15 1139.04,-133.55"/>
</g>
<!-- Node17 -->
<g id="node17" class="node">
<title>Node17</title>
<g id="a_node17"><a xlink:href="mpi_2poisson_8h.html" target="_top" xlink:title=" ">
<polygon fill="none" stroke="black" points="1107,-73 1107,-92 1256,-92 1256,-73 1107,-73"/>
<text text-anchor="middle" x="1181.5" y="-80" font-family="Helvetica,sans-Serif" font-size="10.00">include/pdes/mpi/poisson.h</text>
</a>
</g>
</g>
<!-- Node8&#45;&gt;Node17 -->
<g id="edge17" class="edge">
<title>Node8&#45;&gt;Node17</title>
<path fill="none" stroke="midnightblue" d="M1181.5,-124.25C1181.5,-113.02 1181.5,-100.38 1181.5,-92.19"/>
<polygon fill="midnightblue" stroke="midnightblue" points="1178,-124.4 1181.5,-134.4 1185,-124.4 1178,-124.4"/>
</g>
<!-- Node20 -->
<g id="node20" class="node">
<title>Node20</title>
<g id="a_node20"><a xlink:href="stokes_8h.html" target="_top" xlink:title=" ">
<polygon fill="none" stroke="black" points="1274.5,-73 1274.5,-92 1396.5,-92 1396.5,-73 1274.5,-73"/>
<text text-anchor="middle" x="1335.5" y="-80" font-family="Helvetica,sans-Serif" font-size="10.00">include/pdes/stokes.h</text>
</a>
</g>
</g>
<!-- Node8&#45;&gt;Node20 -->
<g id="edge20" class="edge">
<title>Node8&#45;&gt;Node20</title>
<path fill="none" stroke="midnightblue" d="M1224.24,-130.46C1254,-117.9 1292.32,-101.72 1315.34,-92.01"/>
<polygon fill="midnightblue" stroke="midnightblue" points="1222.77,-127.28 1214.92,-134.4 1225.49,-133.73 1222.77,-127.28"/>
</g>
<!-- Node23 -->
<g id="node23" class="node">
<title>Node23</title>
<g id="a_node23"><a xlink:href="linear__problem_8cc.html" target="_top" xlink:title=" ">
<polygon fill="none" stroke="black" points="1414.5,-67.5 1414.5,-97.5 1520.5,-97.5 1520.5,-67.5 1414.5,-67.5"/>
<text text-anchor="start" x="1422.5" y="-85.5" font-family="Helvetica,sans-Serif" font-size="10.00">source/pdes/linear</text>
<text text-anchor="middle" x="1467.5" y="-74.5" font-family="Helvetica,sans-Serif" font-size="10.00">_problem.cc</text>
</a>
</g>
</g>
<!-- Node8&#45;&gt;Node23 -->
<g id="edge23" class="edge">
<title>Node8&#45;&gt;Node23</title>
<path fill="none" stroke="midnightblue" d="M1246.17,-134.06C1290.93,-124.04 1351.86,-110.32 1405.5,-98 1408.41,-97.33 1411.39,-96.64 1414.41,-95.95"/>
<polygon fill="midnightblue" stroke="midnightblue" points="1245.3,-130.67 1236.3,-136.27 1246.82,-137.5 1245.3,-130.67"/>
</g>
<!-- Node10 -->
<g id="node10" class="node">
<title>Node10</title>
<g id="a_node10"><a xlink:href="source_2pdes_2linear__elasticity_8cc.html" target="_top" xlink:title=" ">
<polygon fill="none" stroke="black" points="427.5,-0.5 427.5,-30.5 533.5,-30.5 533.5,-0.5 427.5,-0.5"/>
<text text-anchor="start" x="435.5" y="-18.5" font-family="Helvetica,sans-Serif" font-size="10.00">source/pdes/linear</text>
<text text-anchor="middle" x="480.5" y="-7.5" font-family="Helvetica,sans-Serif" font-size="10.00">_elasticity.cc</text>
</a>
</g>
</g>
<!-- Node9&#45;&gt;Node10 -->
<g id="edge10" class="edge">
<title>Node9&#45;&gt;Node10</title>
<path fill="none" stroke="midnightblue" d="M644.71,-64.58C608.65,-54.02 562.78,-40.59 528.69,-30.61"/>
<polygon fill="midnightblue" stroke="midnightblue" points="644.02,-68.02 654.6,-67.48 645.99,-61.31 644.02,-68.02"/>
</g>
<!-- Node11 -->
<g id="node11" class="node">
<title>Node11</title>
<g id="a_node11"><a xlink:href="apps_2mpi_2linear__elasticity_8cc.html" target="_top" xlink:title=" ">
<polygon fill="none" stroke="black" points="552,-6 552,-25 707,-25 707,-6 552,-6"/>
<text text-anchor="middle" x="629.5" y="-13" font-family="Helvetica,sans-Serif" font-size="10.00">apps/mpi/linear_elasticity.cc</text>
</a>
</g>
</g>
<!-- Node9&#45;&gt;Node11 -->
<g id="edge11" class="edge">
<title>Node9&#45;&gt;Node11</title>
<path fill="none" stroke="midnightblue" d="M679.11,-60.67C665.63,-48.67 649.4,-34.22 639.26,-25.19"/>
<polygon fill="midnightblue" stroke="midnightblue" points="676.86,-63.36 686.66,-67.4 681.52,-58.13 676.86,-63.36"/>
</g>
<!-- Node12 -->
<g id="node12" class="node">
<title>Node12</title>
<g id="a_node12"><a xlink:href="apps_2serial_2linear__elasticity_8cc.html" target="_top" xlink:title=" ">
<polygon fill="none" stroke="black" points="725,-0.5 725,-30.5 826,-30.5 826,-0.5 725,-0.5"/>
<text text-anchor="start" x="733" y="-18.5" font-family="Helvetica,sans-Serif" font-size="10.00">apps/serial/linear</text>
<text text-anchor="middle" x="775.5" y="-7.5" font-family="Helvetica,sans-Serif" font-size="10.00">_elasticity.cc</text>
</a>
</g>
</g>
<!-- Node9&#45;&gt;Node12 -->
<g id="edge12" class="edge">
<title>Node9&#45;&gt;Node12</title>
<path fill="none" stroke="midnightblue" d="M725.97,-60.6C737,-50.78 749.84,-39.34 759.69,-30.58"/>
<polygon fill="midnightblue" stroke="midnightblue" points="723.48,-58.13 718.34,-67.4 728.14,-63.36 723.48,-58.13"/>
</g>
<!-- Node14 -->
<g id="node14" class="node">
<title>Node14</title>
<g id="a_node14"><a xlink:href="source_2pdes_2linear__visco__elasticity_8cc.html" target="_top" xlink:title=" ">
<polygon fill="none" stroke="black" points="844.5,-0.5 844.5,-30.5 954.5,-30.5 954.5,-0.5 844.5,-0.5"/>
<text text-anchor="start" x="852.5" y="-18.5" font-family="Helvetica,sans-Serif" font-size="10.00">source/pdes/linear</text>
<text text-anchor="middle" x="899.5" y="-7.5" font-family="Helvetica,sans-Serif" font-size="10.00">_visco_elasticity.cc</text>
</a>
</g>
</g>
<!-- Node13&#45;&gt;Node14 -->
<g id="edge14" class="edge">
<title>Node13&#45;&gt;Node14</title>
<path fill="none" stroke="midnightblue" d="M996.06,-62.99C974.66,-52.69 948.45,-40.07 928.74,-30.58"/>
<polygon fill="midnightblue" stroke="midnightblue" points="994.68,-66.21 1005.21,-67.4 997.72,-59.9 994.68,-66.21"/>
</g>
<!-- Node15 -->
<g id="node15" class="node">
<title>Node15</title>
<g id="a_node15"><a xlink:href="apps_2mpi_2linear__visco__elasticity_8cc.html" target="_top" xlink:title=" ">
<polygon fill="none" stroke="black" points="973,-0.5 973,-30.5 1096,-30.5 1096,-0.5 973,-0.5"/>
<text text-anchor="start" x="981" y="-18.5" font-family="Helvetica,sans-Serif" font-size="10.00">apps/mpi/linear_visco</text>
<text text-anchor="middle" x="1034.5" y="-7.5" font-family="Helvetica,sans-Serif" font-size="10.00">_elasticity.cc</text>
</a>
</g>
</g>
<!-- Node13&#45;&gt;Node15 -->
<g id="edge15" class="edge">
<title>Node13&#45;&gt;Node15</title>
<path fill="none" stroke="midnightblue" d="M1034.5,-57.11C1034.5,-48.15 1034.5,-38.32 1034.5,-30.58"/>
<polygon fill="midnightblue" stroke="midnightblue" points="1031,-57.4 1034.5,-67.4 1038,-57.4 1031,-57.4"/>
</g>
<!-- Node16 -->
<g id="node16" class="node">
<title>Node16</title>
<g id="a_node16"><a xlink:href="apps_2serial_2linear__visco__elasticity_8cc.html" target="_top" xlink:title=" ">
<polygon fill="none" stroke="black" points="1114.5,-0.5 1114.5,-30.5 1224.5,-30.5 1224.5,-0.5 1114.5,-0.5"/>
<text text-anchor="start" x="1122.5" y="-18.5" font-family="Helvetica,sans-Serif" font-size="10.00">apps/serial/linear</text>
<text text-anchor="middle" x="1169.5" y="-7.5" font-family="Helvetica,sans-Serif" font-size="10.00">_visco_elasticity.cc</text>
</a>
</g>
</g>
<!-- Node13&#45;&gt;Node16 -->
<g id="edge16" class="edge">
<title>Node13&#45;&gt;Node16</title>
<path fill="none" stroke="midnightblue" d="M1072.94,-62.99C1094.34,-52.69 1120.55,-40.07 1140.26,-30.58"/>
<polygon fill="midnightblue" stroke="midnightblue" points="1071.28,-59.9 1063.79,-67.4 1074.32,-66.21 1071.28,-59.9"/>
</g>
<!-- Node18 -->
<g id="node18" class="node">
<title>Node18</title>
<g id="a_node18"><a xlink:href="source_2pdes_2mpi_2poisson_8cc.html" target="_top" xlink:title=" ">
<polygon fill="none" stroke="black" points="1243,-6 1243,-25 1394,-25 1394,-6 1243,-6"/>
<text text-anchor="middle" x="1318.5" y="-13" font-family="Helvetica,sans-Serif" font-size="10.00">source/pdes/mpi/poisson.cc</text>
</a>
</g>
</g>
<!-- Node17&#45;&gt;Node18 -->
<g id="edge18" class="edge">
<title>Node17&#45;&gt;Node18</title>
<path fill="none" stroke="midnightblue" d="M1209.02,-68.44C1236.15,-55.57 1276.86,-36.26 1300.23,-25.17"/>
<polygon fill="midnightblue" stroke="midnightblue" points="1207.23,-65.42 1199.69,-72.87 1210.23,-71.74 1207.23,-65.42"/>
</g>
<!-- Node19 -->
<g id="node19" class="node">
<title>Node19</title>
<g id="a_node19"><a xlink:href="apps_2mpi_2poisson_8cc.html" target="_top" xlink:title=" ">
<polygon fill="none" stroke="black" points="1412.5,-6 1412.5,-25 1528.5,-25 1528.5,-6 1412.5,-6"/>
<text text-anchor="middle" x="1470.5" y="-13" font-family="Helvetica,sans-Serif" font-size="10.00">apps/mpi/poisson.cc</text>
</a>
</g>
</g>
<!-- Node17&#45;&gt;Node19 -->
<g id="edge19" class="edge">
<title>Node17&#45;&gt;Node19</title>
<path fill="none" stroke="midnightblue" d="M1229.41,-70.72C1286.32,-57.92 1380.09,-36.83 1432.34,-25.08"/>
<polygon fill="midnightblue" stroke="midnightblue" points="1228.57,-67.33 1219.58,-72.94 1230.1,-74.16 1228.57,-67.33"/>
</g>
<!-- Node21 -->
<g id="node21" class="node">
<title>Node21</title>
<g id="a_node21"><a xlink:href="source_2pdes_2stokes_8cc.html" target="_top" xlink:title=" ">
<polygon fill="none" stroke="black" points="1547,-6 1547,-25 1670,-25 1670,-6 1547,-6"/>
<text text-anchor="middle" x="1608.5" y="-13" font-family="Helvetica,sans-Serif" font-size="10.00">source/pdes/stokes.cc</text>
</a>
</g>
</g>
<!-- Node20&#45;&gt;Node21 -->
<g id="edge21" class="edge">
<title>Node20&#45;&gt;Node21</title>
<path fill="none" stroke="midnightblue" d="M1381.43,-70.56C1435.25,-57.75 1523.3,-36.78 1572.45,-25.08"/>
<polygon fill="midnightblue" stroke="midnightblue" points="1380.39,-67.21 1371.47,-72.94 1382.01,-74.02 1380.39,-67.21"/>
</g>
<!-- Node22 -->
<g id="node22" class="node">
<title>Node22</title>
<g id="a_node22"><a xlink:href="apps_2mpi_2stokes_8cc.html" target="_top" xlink:title=" ">
<polygon fill="none" stroke="black" points="1688.5,-6 1688.5,-25 1798.5,-25 1798.5,-6 1688.5,-6"/>
<text text-anchor="middle" x="1743.5" y="-13" font-family="Helvetica,sans-Serif" font-size="10.00">apps/mpi/stokes.cc</text>
</a>
</g>
</g>
<!-- Node20&#45;&gt;Node22 -->
<g id="edge22" class="edge">
<title>Node20&#45;&gt;Node22</title>
<path fill="none" stroke="midnightblue" d="M1384.46,-70.88C1391.5,-69.49 1398.68,-68.16 1405.5,-67 1526.17,-46.57 1557.99,-52.34 1678.5,-31 1688.06,-29.31 1698.35,-27.16 1707.85,-25.05"/>
<polygon fill="midnightblue" stroke="midnightblue" points="1383.39,-67.53 1374.28,-72.94 1384.78,-74.39 1383.39,-67.53"/>
</g>
<!-- Node25 -->
<g id="node25" class="node">
<title>Node25</title>
<g id="a_node25"><a xlink:href="source_2pdes_2serial_2poisson_8cc.html" target="_top" xlink:title=" ">
<polygon fill="none" stroke="black" points="1539,-67.5 1539,-97.5 1644,-97.5 1644,-67.5 1539,-67.5"/>
<text text-anchor="start" x="1547" y="-85.5" font-family="Helvetica,sans-Serif" font-size="10.00">source/pdes/serial</text>
<text text-anchor="middle" x="1591.5" y="-74.5" font-family="Helvetica,sans-Serif" font-size="10.00">/poisson.cc</text>
</a>
</g>
</g>
<!-- Node24&#45;&gt;Node25 -->
<g id="edge25" class="edge">
<title>Node24&#45;&gt;Node25</title>
<path fill="none" stroke="midnightblue" d="M1686.63,-129.99C1665.55,-119.69 1639.72,-107.07 1620.3,-97.58"/>
<polygon fill="midnightblue" stroke="midnightblue" points="1685.12,-133.15 1695.64,-134.4 1688.19,-126.86 1685.12,-133.15"/>
</g>
<!-- Node26 -->
<g id="node26" class="node">
<title>Node26</title>
<g id="a_node26"><a xlink:href="apps_2serial_2poisson_8cc.html" target="_top" xlink:title=" ">
<polygon fill="none" stroke="black" points="1662.5,-73 1662.5,-92 1786.5,-92 1786.5,-73 1662.5,-73"/>
<text text-anchor="middle" x="1724.5" y="-80" font-family="Helvetica,sans-Serif" font-size="10.00">apps/serial/poisson.cc</text>
</a>
</g>
</g>
<!-- Node24&#45;&gt;Node26 -->
<g id="edge26" class="edge">
<title>Node24&#45;&gt;Node26</title>
<path fill="none" stroke="midnightblue" d="M1724.5,-124.25C1724.5,-113.02 1724.5,-100.38 1724.5,-92.19"/>
<polygon fill="midnightblue" stroke="midnightblue" points="1721,-124.4 1724.5,-134.4 1728,-124.4 1721,-124.4"/>
</g>
<!-- Node28 -->
<g id="node28" class="node">
<title>Node28</title>
<g id="a_node28"><a xlink:href="source_2pdes_2serial_2poisson__nitsche__interface_8cc.html" target="_top" xlink:title=" ">
<polygon fill="none" stroke="black" points="1804.5,-67.5 1804.5,-97.5 1964.5,-97.5 1964.5,-67.5 1804.5,-67.5"/>
<text text-anchor="start" x="1812.5" y="-85.5" font-family="Helvetica,sans-Serif" font-size="10.00">source/pdes/serial</text>
<text text-anchor="middle" x="1884.5" y="-74.5" font-family="Helvetica,sans-Serif" font-size="10.00">/poisson_nitsche_interface.cc</text>
</a>
</g>
</g>
<!-- Node27&#45;&gt;Node28 -->
<g id="edge28" class="edge">
<title>Node27&#45;&gt;Node28</title>
<path fill="none" stroke="midnightblue" d="M1907.16,-125.58C1902.13,-116.24 1896.48,-105.75 1892.08,-97.58"/>
<polygon fill="midnightblue" stroke="midnightblue" points="1904.08,-127.25 1911.91,-134.4 1910.25,-123.93 1904.08,-127.25"/>
</g>
<!-- Node29 -->
<g id="node29" class="node">
<title>Node29</title>
<g id="a_node29"><a xlink:href="apps_2serial_2poisson__nitsche__interface_8cc.html" target="_top" xlink:title=" ">
<polygon fill="none" stroke="black" points="1983,-67.5 1983,-97.5 2102,-97.5 2102,-67.5 1983,-67.5"/>
<text text-anchor="start" x="1991" y="-85.5" font-family="Helvetica,sans-Serif" font-size="10.00">apps/serial/poisson</text>
<text text-anchor="middle" x="2042.5" y="-74.5" font-family="Helvetica,sans-Serif" font-size="10.00">_nitsche_interface.cc</text>
</a>
</g>
</g>
<!-- Node27&#45;&gt;Node29 -->
<g id="edge29" class="edge">
<title>Node27&#45;&gt;Node29</title>
<path fill="none" stroke="midnightblue" d="M1955.05,-129.71C1974.45,-119.46 1998.06,-106.98 2015.86,-97.58"/>
<polygon fill="midnightblue" stroke="midnightblue" points="1953.4,-126.63 1946.19,-134.4 1956.67,-132.82 1953.4,-126.63"/>
</g>
<!-- Node31 -->
<g id="node31" class="node">
<title>Node31</title>
<g id="a_node31"><a xlink:href="source_2pdes_2serial_2reduced__lagrange_8cc.html" target="_top" xlink:title=" ">
<polygon fill="none" stroke="black" points="2120.5,-67.5 2120.5,-97.5 2240.5,-97.5 2240.5,-67.5 2120.5,-67.5"/>
<text text-anchor="start" x="2128.5" y="-85.5" font-family="Helvetica,sans-Serif" font-size="10.00">source/pdes/serial</text>
<text text-anchor="middle" x="2180.5" y="-74.5" font-family="Helvetica,sans-Serif" font-size="10.00">/reduced_lagrange.cc</text>
</a>
</g>
</g>
<!-- Node30&#45;&gt;Node31 -->
<g id="edge31" class="edge">
<title>Node30&#45;&gt;Node31</title>
<path fill="none" stroke="midnightblue" d="M2157.2,-125.58C2162.37,-116.24 2168.18,-105.75 2172.7,-97.58"/>
<polygon fill="midnightblue" stroke="midnightblue" points="2154.09,-123.95 2152.31,-134.4 2160.22,-127.34 2154.09,-123.95"/>
</g>
<!-- Node32 -->
<g id="node32" class="node">
<title>Node32</title>
<g id="a_node32"><a xlink:href="apps_2serial_2reduced__lagrange_8cc.html" target="_top" xlink:title=" ">
<polygon fill="none" stroke="black" points="2258.5,-67.5 2258.5,-97.5 2370.5,-97.5 2370.5,-67.5 2258.5,-67.5"/>
<text text-anchor="start" x="2266.5" y="-85.5" font-family="Helvetica,sans-Serif" font-size="10.00">apps/serial/reduced</text>
<text text-anchor="middle" x="2314.5" y="-74.5" font-family="Helvetica,sans-Serif" font-size="10.00">_lagrange.cc</text>
</a>
</g>
</g>
<!-- Node30&#45;&gt;Node32 -->
<g id="edge32" class="edge">
<title>Node30&#45;&gt;Node32</title>
<path fill="none" stroke="midnightblue" d="M2190.74,-130.82C2218.07,-120.37 2252.19,-107.32 2277.68,-97.58"/>
<polygon fill="midnightblue" stroke="midnightblue" points="2189.48,-127.56 2181.39,-134.4 2191.98,-134.09 2189.48,-127.56"/>
</g>
<!-- Node34 -->
<g id="node34" class="node">
<title>Node34</title>
<g id="a_node34"><a xlink:href="source_2pdes_2serial_2stokes_8cc.html" target="_top" xlink:title=" ">
<polygon fill="none" stroke="black" points="2389,-67.5 2389,-97.5 2494,-97.5 2494,-67.5 2389,-67.5"/>
<text text-anchor="start" x="2397" y="-85.5" font-family="Helvetica,sans-Serif" font-size="10.00">source/pdes/serial</text>
<text text-anchor="middle" x="2441.5" y="-74.5" font-family="Helvetica,sans-Serif" font-size="10.00">/stokes.cc</text>
</a>
</g>
</g>
<!-- Node33&#45;&gt;Node34 -->
<g id="edge34" class="edge">
<title>Node33&#45;&gt;Node34</title>
<path fill="none" stroke="midnightblue" d="M2320.28,-130.68C2347.06,-120.26 2380.4,-107.28 2405.33,-97.58"/>
<polygon fill="midnightblue" stroke="midnightblue" points="2318.79,-127.51 2310.74,-134.4 2321.33,-134.03 2318.79,-127.51"/>
</g>
<!-- Node35 -->
<g id="node35" class="node">
<title>Node35</title>
<g id="a_node35"><a xlink:href="apps_2serial_2stokes_8cc.html" target="_top" xlink:title=" ">
<polygon fill="none" stroke="black" points="2512.5,-73 2512.5,-92 2630.5,-92 2630.5,-73 2512.5,-73"/>
<text text-anchor="middle" x="2571.5" y="-80" font-family="Helvetica,sans-Serif" font-size="10.00">apps/serial/stokes.cc</text>
</a>
</g>
</g>
<!-- Node33&#45;&gt;Node35 -->
<g id="edge35" class="edge">
<title>Node33&#45;&gt;Node35</title>
<path fill="none" stroke="midnightblue" d="M2338.2,-134.07C2338.3,-134.04 2338.4,-134.02 2338.5,-134 2406.19,-119 2485.05,-102.01 2531.48,-92.05"/>
<polygon fill="midnightblue" stroke="midnightblue" points="2337.61,-130.61 2328.61,-136.2 2339.14,-137.44 2337.61,-130.61"/>
</g>
</g>
</svg>
