<?xml version="1.0" encoding="UTF-8" standalone="no"?>
<!DOCTYPE svg PUBLIC "-//W3C//DTD SVG 1.1//EN"
 "http://www.w3.org/Graphics/SVG/1.1/DTD/svg11.dtd">
<!-- Generated by graphviz version 2.43.0 (0)
 -->
<!-- Title: include/parsed_tools/grid_refinement.h Pages: 1 -->
<svg width="1849pt" height="240pt"
 viewBox="0.00 0.00 1849.00 240.00" xmlns="http://www.w3.org/2000/svg" xmlns:xlink="http://www.w3.org/1999/xlink">
<g id="graph0" class="graph" transform="scale(1 1) rotate(0) translate(4 236)">
<title>include/parsed_tools/grid_refinement.h</title>
<!-- Node1 -->
<g id="node1" class="node">
<title>Node1</title>
<g id="a_node1"><a xlink:title=" ">
<polygon fill="#bfbfbf" stroke="black" points="1265,-201.5 1265,-231.5 1382,-231.5 1382,-201.5 1265,-201.5"/>
<text text-anchor="start" x="1273" y="-219.5" font-family="Helvetica,sans-Serif" font-size="10.00">include/parsed_tools</text>
<text text-anchor="middle" x="1323.5" y="-208.5" font-family="Helvetica,sans-Serif" font-size="10.00">/grid_refinement.h</text>
</a>
</g>
</g>
<!-- Node2 -->
<g id="node2" class="node">
<title>Node2</title>
<g id="a_node2"><a xlink:href="linear__problem_8h.html" target="_top" xlink:title=" ">
<polygon fill="none" stroke="black" points="615,-134.5 615,-164.5 724,-164.5 724,-134.5 615,-134.5"/>
<text text-anchor="start" x="623" y="-152.5" font-family="Helvetica,sans-Serif" font-size="10.00">include/pdes/linear</text>
<text text-anchor="middle" x="669.5" y="-141.5" font-family="Helvetica,sans-Serif" font-size="10.00">_problem.h</text>
</a>
</g>
</g>
<!-- Node1&#45;&gt;Node2 -->
<g id="edge1" class="edge">
<title>Node1&#45;&gt;Node2</title>
<path fill="none" stroke="midnightblue" d="M1254.61,-208.65C1123.96,-195.67 842.68,-167.71 724.05,-155.92"/>
<polygon fill="midnightblue" stroke="midnightblue" points="1254.59,-212.17 1264.89,-209.67 1255.28,-205.2 1254.59,-212.17"/>
</g>
<!-- Node10 -->
<g id="node10" class="node">
<title>Node10</title>
<g id="a_node10"><a xlink:href="distributed__lagrange_8h.html" target="_top" xlink:title=" ">
<polygon fill="none" stroke="black" points="918,-67.5 918,-97.5 1047,-97.5 1047,-67.5 918,-67.5"/>
<text text-anchor="start" x="926" y="-85.5" font-family="Helvetica,sans-Serif" font-size="10.00">include/pdes/serial</text>
<text text-anchor="middle" x="982.5" y="-74.5" font-family="Helvetica,sans-Serif" font-size="10.00">/distributed_lagrange.h</text>
</a>
</g>
</g>
<!-- Node1&#45;&gt;Node10 -->
<g id="edge16" class="edge">
<title>Node1&#45;&gt;Node10</title>
<path fill="none" stroke="midnightblue" d="M1277.66,-197.76C1209.12,-171.23 1081.32,-121.75 1018.81,-97.56"/>
<polygon fill="midnightblue" stroke="midnightblue" points="1276.74,-201.15 1287.33,-201.5 1279.27,-194.62 1276.74,-201.15"/>
</g>
<!-- Node17 -->
<g id="node17" class="node">
<title>Node17</title>
<g id="a_node17"><a xlink:href="serial_2poisson_8h.html" target="_top" xlink:title=" ">
<polygon fill="none" stroke="black" points="1204.5,-134.5 1204.5,-164.5 1312.5,-164.5 1312.5,-134.5 1204.5,-134.5"/>
<text text-anchor="start" x="1212.5" y="-152.5" font-family="Helvetica,sans-Serif" font-size="10.00">include/pdes/serial</text>
<text text-anchor="middle" x="1258.5" y="-141.5" font-family="Helvetica,sans-Serif" font-size="10.00">/poisson.h</text>
</a>
</g>
</g>
<!-- Node1&#45;&gt;Node17 -->
<g id="edge17" class="edge">
<title>Node1&#45;&gt;Node17</title>
<path fill="none" stroke="midnightblue" d="M1302.31,-194.31C1292.56,-184.56 1281.26,-173.26 1272.58,-164.58"/>
<polygon fill="midnightblue" stroke="midnightblue" points="1299.85,-196.8 1309.4,-201.4 1304.8,-191.85 1299.85,-196.8"/>
</g>
<!-- Node20 -->
<g id="node20" class="node">
<title>Node20</title>
<g id="a_node20"><a xlink:href="reduced__lagrange_8h.html" target="_top" xlink:title=" ">
<polygon fill="none" stroke="black" points="1330.5,-134.5 1330.5,-164.5 1446.5,-164.5 1446.5,-134.5 1330.5,-134.5"/>
<text text-anchor="start" x="1338.5" y="-152.5" font-family="Helvetica,sans-Serif" font-size="10.00">include/pdes/serial</text>
<text text-anchor="middle" x="1388.5" y="-141.5" font-family="Helvetica,sans-Serif" font-size="10.00">/reduced_lagrange.h</text>
</a>
</g>
</g>
<!-- Node1&#45;&gt;Node20 -->
<g id="edge20" class="edge">
<title>Node1&#45;&gt;Node20</title>
<path fill="none" stroke="midnightblue" d="M1344.69,-194.31C1354.44,-184.56 1365.74,-173.26 1374.42,-164.58"/>
<polygon fill="midnightblue" stroke="midnightblue" points="1342.2,-191.85 1337.6,-201.4 1347.15,-196.8 1342.2,-191.85"/>
</g>
<!-- Node23 -->
<g id="node23" class="node">
<title>Node23</title>
<g id="a_node23"><a xlink:href="serial_2stokes_8h.html" target="_top" xlink:title=" ">
<polygon fill="none" stroke="black" points="1534.5,-134.5 1534.5,-164.5 1642.5,-164.5 1642.5,-134.5 1534.5,-134.5"/>
<text text-anchor="start" x="1542.5" y="-152.5" font-family="Helvetica,sans-Serif" font-size="10.00">include/pdes/serial</text>
<text text-anchor="middle" x="1588.5" y="-141.5" font-family="Helvetica,sans-Serif" font-size="10.00">/stokes.h</text>
</a>
</g>
</g>
<!-- Node1&#45;&gt;Node23 -->
<g id="edge23" class="edge">
<title>Node1&#45;&gt;Node23</title>
<path fill="none" stroke="midnightblue" d="M1390.52,-199.06C1434.97,-188.16 1492.55,-174.04 1534.14,-163.83"/>
<polygon fill="midnightblue" stroke="midnightblue" points="1389.55,-195.69 1380.67,-201.48 1391.22,-202.49 1389.55,-195.69"/>
</g>
<!-- Node26 -->
<g id="node26" class="node">
<title>Node26</title>
<g id="a_node26"><a xlink:href="grid__refinement_8cc.html" target="_top" xlink:title=" ">
<polygon fill="none" stroke="black" points="1661,-140 1661,-159 1804,-159 1804,-140 1661,-140"/>
<text text-anchor="middle" x="1732.5" y="-147" font-family="Helvetica,sans-Serif" font-size="10.00">source/grid_refinement.cc</text>
</a>
</g>
</g>
<!-- Node1&#45;&gt;Node26 -->
<g id="edge26" class="edge">
<title>Node1&#45;&gt;Node26</title>
<path fill="none" stroke="midnightblue" d="M1392.16,-205.43C1458.57,-195.57 1562.03,-179.89 1651.5,-165 1662.63,-163.15 1674.61,-161.06 1685.85,-159.05"/>
<polygon fill="midnightblue" stroke="midnightblue" points="1391.61,-201.97 1382.23,-206.9 1392.63,-208.89 1391.61,-201.97"/>
</g>
<!-- Node3 -->
<g id="node3" class="node">
<title>Node3</title>
<g id="a_node3"><a xlink:href="linear__elasticity_8h.html" target="_top" xlink:title=" ">
<polygon fill="none" stroke="black" points="688,-67.5 688,-97.5 797,-97.5 797,-67.5 688,-67.5"/>
<text text-anchor="start" x="696" y="-85.5" font-family="Helvetica,sans-Serif" font-size="10.00">include/pdes/linear</text>
<text text-anchor="middle" x="742.5" y="-74.5" font-family="Helvetica,sans-Serif" font-size="10.00">_elasticity.h</text>
</a>
</g>
</g>
<!-- Node2&#45;&gt;Node3 -->
<g id="edge2" class="edge">
<title>Node2&#45;&gt;Node3</title>
<path fill="none" stroke="midnightblue" d="M692.97,-127.6C704,-117.78 716.84,-106.34 726.69,-97.58"/>
<polygon fill="midnightblue" stroke="midnightblue" points="690.48,-125.13 685.34,-134.4 695.14,-130.36 690.48,-125.13"/>
</g>
<!-- Node7 -->
<g id="node7" class="node">
<title>Node7</title>
<g id="a_node7"><a xlink:href="mpi_2poisson_8h.html" target="_top" xlink:title=" ">
<polygon fill="none" stroke="black" points="456,-73 456,-92 605,-92 605,-73 456,-73"/>
<text text-anchor="middle" x="530.5" y="-80" font-family="Helvetica,sans-Serif" font-size="10.00">include/pdes/mpi/poisson.h</text>
</a>
</g>
</g>
<!-- Node2&#45;&gt;Node7 -->
<g id="edge6" class="edge">
<title>Node2&#45;&gt;Node7</title>
<path fill="none" stroke="midnightblue" d="M630.22,-130.13C603.47,-117.62 569.29,-101.64 548.69,-92.01"/>
<polygon fill="midnightblue" stroke="midnightblue" points="628.8,-133.33 639.34,-134.4 631.76,-126.99 628.8,-133.33"/>
</g>
<!-- Node2&#45;&gt;Node10 -->
<g id="edge9" class="edge">
<title>Node2&#45;&gt;Node10</title>
<path fill="none" stroke="midnightblue" d="M734.12,-135.08C787.87,-123.92 864.01,-108.11 917.79,-96.94"/>
<polygon fill="midnightblue" stroke="midnightblue" points="733.1,-131.72 724.02,-137.18 734.52,-138.57 733.1,-131.72"/>
</g>
<!-- Node13 -->
<g id="node13" class="node">
<title>Node13</title>
<g id="a_node13"><a xlink:href="stokes_8h.html" target="_top" xlink:title=" ">
<polygon fill="none" stroke="black" points="135.5,-73 135.5,-92 257.5,-92 257.5,-73 135.5,-73"/>
<text text-anchor="middle" x="196.5" y="-80" font-family="Helvetica,sans-Serif" font-size="10.00">include/pdes/stokes.h</text>
</a>
</g>
</g>
<!-- Node2&#45;&gt;Node13 -->
<g id="edge12" class="edge">
<title>Node2&#45;&gt;Node13</title>
<path fill="none" stroke="midnightblue" d="M604.81,-139.61C513.35,-127.04 347.4,-104.24 257.81,-91.92"/>
<polygon fill="midnightblue" stroke="midnightblue" points="604.4,-143.09 614.78,-140.98 605.35,-136.15 604.4,-143.09"/>
</g>
<!-- Node16 -->
<g id="node16" class="node">
<title>Node16</title>
<g id="a_node16"><a xlink:href="linear__problem_8cc.html" target="_top" xlink:title=" ">
<polygon fill="none" stroke="black" points="331.5,-67.5 331.5,-97.5 437.5,-97.5 437.5,-67.5 331.5,-67.5"/>
<text text-anchor="start" x="339.5" y="-85.5" font-family="Helvetica,sans-Serif" font-size="10.00">source/pdes/linear</text>
<text text-anchor="middle" x="384.5" y="-74.5" font-family="Helvetica,sans-Serif" font-size="10.00">_problem.cc</text>
</a>
</g>
</g>
<!-- Node2&#45;&gt;Node16 -->
<g id="edge15" class="edge">
<title>Node2&#45;&gt;Node16</title>
<path fill="none" stroke="midnightblue" d="M605.12,-134.05C560.57,-124.01 499.91,-110.29 446.5,-98 443.59,-97.33 440.61,-96.64 437.59,-95.94"/>
<polygon fill="midnightblue" stroke="midnightblue" points="604.42,-137.48 614.95,-136.26 605.96,-130.65 604.42,-137.48"/>
</g>
<!-- Node4 -->
<g id="node4" class="node">
<title>Node4</title>
<g id="a_node4"><a xlink:href="source_2pdes_2linear__elasticity_8cc.html" target="_top" xlink:title=" ">
<polygon fill="none" stroke="black" points="573.5,-0.5 573.5,-30.5 679.5,-30.5 679.5,-0.5 573.5,-0.5"/>
<text text-anchor="start" x="581.5" y="-18.5" font-family="Helvetica,sans-Serif" font-size="10.00">source/pdes/linear</text>
<text text-anchor="middle" x="626.5" y="-7.5" font-family="Helvetica,sans-Serif" font-size="10.00">_elasticity.cc</text>
</a>
</g>
</g>
<!-- Node3&#45;&gt;Node4 -->
<g id="edge3" class="edge">
<title>Node3&#45;&gt;Node4</title>
<path fill="none" stroke="midnightblue" d="M708.23,-62.3C690.08,-52.12 668.18,-39.85 651.62,-30.58"/>
<polygon fill="midnightblue" stroke="midnightblue" points="706.9,-65.56 717.33,-67.4 710.32,-59.45 706.9,-65.56"/>
</g>
<!-- Node5 -->
<g id="node5" class="node">
<title>Node5</title>
<g id="a_node5"><a xlink:href="apps_2mpi_2linear__elasticity_8cc.html" target="_top" xlink:title=" ">
<polygon fill="none" stroke="black" points="698,-6 698,-25 853,-25 853,-6 698,-6"/>
<text text-anchor="middle" x="775.5" y="-13" font-family="Helvetica,sans-Serif" font-size="10.00">apps/mpi/linear_elasticity.cc</text>
</a>
</g>
</g>
<!-- Node3&#45;&gt;Node5 -->
<g id="edge4" class="edge">
<title>Node3&#45;&gt;Node5</title>
<path fill="none" stroke="midnightblue" d="M754.28,-58.29C760.12,-46.8 766.8,-33.63 771.09,-25.19"/>
<polygon fill="midnightblue" stroke="midnightblue" points="751.07,-56.89 749.66,-67.4 757.31,-60.06 751.07,-56.89"/>
</g>
<!-- Node6 -->
<g id="node6" class="node">
<title>Node6</title>
<g id="a_node6"><a xlink:href="apps_2serial_2linear__elasticity_8cc.html" target="_top" xlink:title=" ">
<polygon fill="none" stroke="black" points="871,-0.5 871,-30.5 972,-30.5 972,-0.5 871,-0.5"/>
<text text-anchor="start" x="879" y="-18.5" font-family="Helvetica,sans-Serif" font-size="10.00">apps/serial/linear</text>
<text text-anchor="middle" x="921.5" y="-7.5" font-family="Helvetica,sans-Serif" font-size="10.00">_elasticity.cc</text>
</a>
</g>
</g>
<!-- Node3&#45;&gt;Node6 -->
<g id="edge5" class="edge">
<title>Node3&#45;&gt;Node6</title>
<path fill="none" stroke="midnightblue" d="M790.82,-63.96C819.65,-53.48 855.78,-40.37 882.74,-30.58"/>
<polygon fill="midnightblue" stroke="midnightblue" points="789.55,-60.69 781.34,-67.4 791.93,-67.27 789.55,-60.69"/>
</g>
<!-- Node8 -->
<g id="node8" class="node">
<title>Node8</title>
<g id="a_node8"><a xlink:href="source_2pdes_2mpi_2poisson_8cc.html" target="_top" xlink:title=" ">
<polygon fill="none" stroke="black" points="270,-6 270,-25 421,-25 421,-6 270,-6"/>
<text text-anchor="middle" x="345.5" y="-13" font-family="Helvetica,sans-Serif" font-size="10.00">source/pdes/mpi/poisson.cc</text>
</a>
</g>
</g>
<!-- Node7&#45;&gt;Node8 -->
<g id="edge7" class="edge">
<title>Node7&#45;&gt;Node8</title>
<path fill="none" stroke="midnightblue" d="M496.16,-69.44C459.46,-56.54 402.21,-36.42 369.87,-25.06"/>
<polygon fill="midnightblue" stroke="midnightblue" points="495.34,-72.86 505.93,-72.87 497.66,-66.25 495.34,-72.86"/>
</g>
<!-- Node9 -->
<g id="node9" class="node">
<title>Node9</title>
<g id="a_node9"><a xlink:href="apps_2mpi_2poisson_8cc.html" target="_top" xlink:title=" ">
<polygon fill="none" stroke="black" points="439.5,-6 439.5,-25 555.5,-25 555.5,-6 439.5,-6"/>
<text text-anchor="middle" x="497.5" y="-13" font-family="Helvetica,sans-Serif" font-size="10.00">apps/mpi/poisson.cc</text>
</a>
</g>
</g>
<!-- Node7&#45;&gt;Node9 -->
<g id="edge8" class="edge">
<title>Node7&#45;&gt;Node9</title>
<path fill="none" stroke="midnightblue" d="M521.44,-63.66C515.08,-51.13 506.85,-34.91 501.88,-25.13"/>
<polygon fill="midnightblue" stroke="midnightblue" points="518.4,-65.4 526.05,-72.73 524.64,-62.23 518.4,-65.4"/>
</g>
<!-- Node11 -->
<g id="node11" class="node">
<title>Node11</title>
<g id="a_node11"><a xlink:href="source_2pdes_2serial_2distributed__lagrange_8cc.html" target="_top" xlink:title=" ">
<polygon fill="none" stroke="black" points="1133.5,-0.5 1133.5,-30.5 1267.5,-30.5 1267.5,-0.5 1133.5,-0.5"/>
<text text-anchor="start" x="1141.5" y="-18.5" font-family="Helvetica,sans-Serif" font-size="10.00">source/pdes/serial</text>
<text text-anchor="middle" x="1200.5" y="-7.5" font-family="Helvetica,sans-Serif" font-size="10.00">/distributed_lagrange.cc</text>
</a>
</g>
</g>
<!-- Node10&#45;&gt;Node11 -->
<g id="edge10" class="edge">
<title>Node10&#45;&gt;Node11</title>
<path fill="none" stroke="midnightblue" d="M1039.25,-64.58C1074.66,-54.02 1119.7,-40.59 1153.17,-30.61"/>
<polygon fill="midnightblue" stroke="midnightblue" points="1038.12,-61.26 1029.53,-67.48 1040.12,-67.97 1038.12,-61.26"/>
</g>
<!-- Node12 -->
<g id="node12" class="node">
<title>Node12</title>
<g id="a_node12"><a xlink:href="apps_2serial_2distributed__lagrange_8cc.html" target="_top" xlink:title=" ">
<polygon fill="none" stroke="black" points="990,-0.5 990,-30.5 1115,-30.5 1115,-0.5 990,-0.5"/>
<text text-anchor="start" x="998" y="-18.5" font-family="Helvetica,sans-Serif" font-size="10.00">apps/serial/distributed</text>
<text text-anchor="middle" x="1052.5" y="-7.5" font-family="Helvetica,sans-Serif" font-size="10.00">_lagrange.cc</text>
</a>
</g>
</g>
<!-- Node10&#45;&gt;Node12 -->
<g id="edge11" class="edge">
<title>Node10&#45;&gt;Node12</title>
<path fill="none" stroke="midnightblue" d="M1005.32,-60.31C1015.82,-50.56 1027.99,-39.26 1037.34,-30.58"/>
<polygon fill="midnightblue" stroke="midnightblue" points="1002.64,-58.03 997.69,-67.4 1007.4,-63.16 1002.64,-58.03"/>
</g>
<!-- Node14 -->
<g id="node14" class="node">
<title>Node14</title>
<g id="a_node14"><a xlink:href="source_2pdes_2stokes_8cc.html" target="_top" xlink:title=" ">
<polygon fill="none" stroke="black" points="0,-6 0,-25 123,-25 123,-6 0,-6"/>
<text text-anchor="middle" x="61.5" y="-13" font-family="Helvetica,sans-Serif" font-size="10.00">source/pdes/stokes.cc</text>
</a>
</g>
</g>
<!-- Node13&#45;&gt;Node14 -->
<g id="edge13" class="edge">
<title>Node13&#45;&gt;Node14</title>
<path fill="none" stroke="midnightblue" d="M169.38,-68.44C142.64,-55.57 102.53,-36.26 79.5,-25.17"/>
<polygon fill="midnightblue" stroke="midnightblue" points="168.04,-71.68 178.57,-72.87 171.08,-65.38 168.04,-71.68"/>
</g>
<!-- Node15 -->
<g id="node15" class="node">
<title>Node15</title>
<g id="a_node15"><a xlink:href="apps_2mpi_2stokes_8cc.html" target="_top" xlink:title=" ">
<polygon fill="none" stroke="black" points="141.5,-6 141.5,-25 251.5,-25 251.5,-6 141.5,-6"/>
<text text-anchor="middle" x="196.5" y="-13" font-family="Helvetica,sans-Serif" font-size="10.00">apps/mpi/stokes.cc</text>
</a>
</g>
</g>
<!-- Node13&#45;&gt;Node15 -->
<g id="edge14" class="edge">
<title>Node13&#45;&gt;Node15</title>
<path fill="none" stroke="midnightblue" d="M196.5,-62.54C196.5,-50.17 196.5,-34.62 196.5,-25.13"/>
<polygon fill="midnightblue" stroke="midnightblue" points="193,-62.73 196.5,-72.73 200,-62.73 193,-62.73"/>
</g>
<!-- Node18 -->
<g id="node18" class="node">
<title>Node18</title>
<g id="a_node18"><a xlink:href="source_2pdes_2serial_2poisson_8cc.html" target="_top" xlink:title=" ">
<polygon fill="none" stroke="black" points="1208,-67.5 1208,-97.5 1313,-97.5 1313,-67.5 1208,-67.5"/>
<text text-anchor="start" x="1216" y="-85.5" font-family="Helvetica,sans-Serif" font-size="10.00">source/pdes/serial</text>
<text text-anchor="middle" x="1260.5" y="-74.5" font-family="Helvetica,sans-Serif" font-size="10.00">/poisson.cc</text>
</a>
</g>
</g>
<!-- Node17&#45;&gt;Node18 -->
<g id="edge18" class="edge">
<title>Node17&#45;&gt;Node18</title>
<path fill="none" stroke="midnightblue" d="M1259.25,-124.11C1259.53,-115.15 1259.83,-105.32 1260.07,-97.58"/>
<polygon fill="midnightblue" stroke="midnightblue" points="1255.74,-124.29 1258.93,-134.4 1262.74,-124.51 1255.74,-124.29"/>
</g>
<!-- Node19 -->
<g id="node19" class="node">
<title>Node19</title>
<g id="a_node19"><a xlink:href="apps_2serial_2poisson_8cc.html" target="_top" xlink:title=" ">
<polygon fill="none" stroke="black" points="1065.5,-73 1065.5,-92 1189.5,-92 1189.5,-73 1065.5,-73"/>
<text text-anchor="middle" x="1127.5" y="-80" font-family="Helvetica,sans-Serif" font-size="10.00">apps/serial/poisson.cc</text>
</a>
</g>
</g>
<!-- Node17&#45;&gt;Node19 -->
<g id="edge19" class="edge">
<title>Node17&#45;&gt;Node19</title>
<path fill="none" stroke="midnightblue" d="M1220.82,-129.8C1195.7,-117.34 1163.89,-101.56 1144.64,-92.01"/>
<polygon fill="midnightblue" stroke="midnightblue" points="1219.56,-133.09 1230.07,-134.4 1222.67,-126.82 1219.56,-133.09"/>
</g>
<!-- Node21 -->
<g id="node21" class="node">
<title>Node21</title>
<g id="a_node21"><a xlink:href="source_2pdes_2serial_2reduced__lagrange_8cc.html" target="_top" xlink:title=" ">
<polygon fill="none" stroke="black" points="1461.5,-67.5 1461.5,-97.5 1581.5,-97.5 1581.5,-67.5 1461.5,-67.5"/>
<text text-anchor="start" x="1469.5" y="-85.5" font-family="Helvetica,sans-Serif" font-size="10.00">source/pdes/serial</text>
<text text-anchor="middle" x="1521.5" y="-74.5" font-family="Helvetica,sans-Serif" font-size="10.00">/reduced_lagrange.cc</text>
</a>
</g>
</g>
<!-- Node20&#45;&gt;Node21 -->
<g id="edge21" class="edge">
<title>Node20&#45;&gt;Node21</title>
<path fill="none" stroke="midnightblue" d="M1426.37,-129.99C1447.45,-119.69 1473.28,-107.07 1492.7,-97.58"/>
<polygon fill="midnightblue" stroke="midnightblue" points="1424.81,-126.86 1417.36,-134.4 1427.88,-133.15 1424.81,-126.86"/>
</g>
<!-- Node22 -->
<g id="node22" class="node">
<title>Node22</title>
<g id="a_node22"><a xlink:href="apps_2serial_2reduced__lagrange_8cc.html" target="_top" xlink:title=" ">
<polygon fill="none" stroke="black" points="1331.5,-67.5 1331.5,-97.5 1443.5,-97.5 1443.5,-67.5 1331.5,-67.5"/>
<text text-anchor="start" x="1339.5" y="-85.5" font-family="Helvetica,sans-Serif" font-size="10.00">apps/serial/reduced</text>
<text text-anchor="middle" x="1387.5" y="-74.5" font-family="Helvetica,sans-Serif" font-size="10.00">_lagrange.cc</text>
</a>
</g>
</g>
<!-- Node20&#45;&gt;Node22 -->
<g id="edge22" class="edge">
<title>Node20&#45;&gt;Node22</title>
<path fill="none" stroke="midnightblue" d="M1388.12,-124.11C1387.99,-115.15 1387.84,-105.32 1387.72,-97.58"/>
<polygon fill="midnightblue" stroke="midnightblue" points="1384.63,-124.45 1388.28,-134.4 1391.63,-124.34 1384.63,-124.45"/>
</g>
<!-- Node24 -->
<g id="node24" class="node">
<title>Node24</title>
<g id="a_node24"><a xlink:href="source_2pdes_2serial_2stokes_8cc.html" target="_top" xlink:title=" ">
<polygon fill="none" stroke="black" points="1736,-67.5 1736,-97.5 1841,-97.5 1841,-67.5 1736,-67.5"/>
<text text-anchor="start" x="1744" y="-85.5" font-family="Helvetica,sans-Serif" font-size="10.00">source/pdes/serial</text>
<text text-anchor="middle" x="1788.5" y="-74.5" font-family="Helvetica,sans-Serif" font-size="10.00">/stokes.cc</text>
</a>
</g>
</g>
<!-- Node23&#45;&gt;Node24 -->
<g id="edge24" class="edge">
<title>Node23&#45;&gt;Node24</title>
<path fill="none" stroke="midnightblue" d="M1641.65,-131.23C1674,-120.71 1714.81,-107.45 1745.19,-97.58"/>
<polygon fill="midnightblue" stroke="midnightblue" points="1640.33,-127.98 1631.9,-134.4 1642.49,-134.63 1640.33,-127.98"/>
</g>
<!-- Node25 -->
<g id="node25" class="node">
<title>Node25</title>
<g id="a_node25"><a xlink:href="apps_2serial_2stokes_8cc.html" target="_top" xlink:title=" ">
<polygon fill="none" stroke="black" points="1599.5,-73 1599.5,-92 1717.5,-92 1717.5,-73 1599.5,-73"/>
<text text-anchor="middle" x="1658.5" y="-80" font-family="Helvetica,sans-Serif" font-size="10.00">apps/serial/stokes.cc</text>
</a>
</g>
</g>
<!-- Node23&#45;&gt;Node25 -->
<g id="edge25" class="edge">
<title>Node23&#45;&gt;Node25</title>
<path fill="none" stroke="midnightblue" d="M1611.29,-127.34C1624.15,-115.4 1639.51,-101.14 1649.14,-92.19"/>
<polygon fill="midnightblue" stroke="midnightblue" points="1608.64,-125.03 1603.69,-134.4 1613.4,-130.16 1608.64,-125.03"/>
</g>
</g>
</svg>
