<?xml version="1.0" encoding="UTF-8" standalone="no"?>
<!DOCTYPE svg PUBLIC "-//W3C//DTD SVG 1.1//EN"
 "http://www.w3.org/Graphics/SVG/1.1/DTD/svg11.dtd">
<!-- Generated by graphviz version 2.43.0 (0)
 -->
<!-- Title: source/grid_generator.cc Pages: 1 -->
<svg width="1842pt" height="285pt"
 viewBox="0.00 0.00 1841.94 285.00" xmlns="http://www.w3.org/2000/svg" xmlns:xlink="http://www.w3.org/1999/xlink">
<g id="graph0" class="graph" transform="scale(1 1) rotate(0) translate(4 281)">
<title>source/grid_generator.cc</title>
<!-- Node1 -->
<g id="node1" class="node">
<title>Node1</title>
<g id="a_node1"><a xlink:title=" ">
<polygon fill="#bfbfbf" stroke="black" points="974.94,-257.5 974.94,-276.5 1111.94,-276.5 1111.94,-257.5 974.94,-257.5"/>
<text text-anchor="middle" x="1043.44" y="-264.5" font-family="Helvetica,sans-Serif" font-size="10.00">source/grid_generator.cc</text>
</a>
</g>
</g>
<!-- Node2 -->
<g id="node2" class="node">
<title>Node2</title>
<g id="a_node2"><a xlink:href="grid__generator_8h.html" target="_top" xlink:title=" ">
<polygon fill="none" stroke="black" points="176.44,-196 176.44,-215 338.44,-215 338.44,-196 176.44,-196"/>
<text text-anchor="middle" x="257.44" y="-203" font-family="Helvetica,sans-Serif" font-size="10.00">parsed_tools/grid_generator.h</text>
</a>
</g>
</g>
<!-- Node1&#45;&gt;Node2 -->
<g id="edge1" class="edge">
<title>Node1&#45;&gt;Node2</title>
<path fill="none" stroke="midnightblue" d="M974.59,-263.72C849.43,-259.1 576.36,-246.78 347.44,-221 336.95,-219.82 325.82,-218.27 315.1,-216.62"/>
<polygon fill="midnightblue" stroke="midnightblue" points="315.39,-213.13 304.97,-215.02 314.3,-220.04 315.39,-213.13"/>
</g>
<!-- Node11 -->
<g id="node11" class="node">
<title>Node11</title>
<g id="a_node11"><a xlink:href="http://www.dealii.org/developer/doxygen/deal.II/grid__in_8h.html.html" xlink:title=" ">
<polygon fill="none" stroke="black" points="356.94,-196 356.94,-215 469.94,-215 469.94,-196 356.94,-196"/>
<text text-anchor="middle" x="413.44" y="-203" font-family="Helvetica,sans-Serif" font-size="10.00">deal.II/grid/grid_in.h</text>
</a>
</g>
</g>
<!-- Node1&#45;&gt;Node11 -->
<g id="edge11" class="edge">
<title>Node1&#45;&gt;Node11</title>
<path fill="none" stroke="midnightblue" d="M974.51,-263.54C867.89,-259.04 656.75,-247.42 479.44,-221 472.58,-219.98 465.37,-218.65 458.33,-217.22"/>
<polygon fill="midnightblue" stroke="midnightblue" points="458.72,-213.73 448.22,-215.07 457.27,-220.57 458.72,-213.73"/>
</g>
<!-- Node12 -->
<g id="node12" class="node">
<title>Node12</title>
<g id="a_node12"><a xlink:href="http://www.dealii.org/developer/doxygen/deal.II/grid__out_8h.html.html" xlink:title=" ">
<polygon fill="none" stroke="black" points="488.44,-196 488.44,-215 608.44,-215 608.44,-196 488.44,-196"/>
<text text-anchor="middle" x="548.44" y="-203" font-family="Helvetica,sans-Serif" font-size="10.00">deal.II/grid/grid_out.h</text>
</a>
</g>
</g>
<!-- Node1&#45;&gt;Node12 -->
<g id="edge12" class="edge">
<title>Node1&#45;&gt;Node12</title>
<path fill="none" stroke="midnightblue" d="M974.72,-260.82C890.45,-254 743.43,-240.51 618.44,-221 611.19,-219.87 603.56,-218.49 596.1,-217.03"/>
<polygon fill="midnightblue" stroke="midnightblue" points="596.59,-213.56 586.1,-215.01 595.21,-220.42 596.59,-213.56"/>
</g>
<!-- Node13 -->
<g id="node13" class="node">
<title>Node13</title>
<g id="a_node13"><a xlink:href="http://www.dealii.org/developer/doxygen/deal.II/opencascade_2manifold__lib_8h.html.html" xlink:title=" ">
<polygon fill="none" stroke="black" points="626.94,-190.5 626.94,-220.5 739.94,-220.5 739.94,-190.5 626.94,-190.5"/>
<text text-anchor="start" x="634.94" y="-208.5" font-family="Helvetica,sans-Serif" font-size="10.00">deal.II/opencascade</text>
<text text-anchor="middle" x="683.44" y="-197.5" font-family="Helvetica,sans-Serif" font-size="10.00">/manifold_lib.h</text>
</a>
</g>
</g>
<!-- Node1&#45;&gt;Node13 -->
<g id="edge13" class="edge">
<title>Node1&#45;&gt;Node13</title>
<path fill="none" stroke="midnightblue" d="M979.87,-257.47C922.4,-249.49 835.27,-236.71 750.11,-221.05"/>
<polygon fill="midnightblue" stroke="midnightblue" points="750.75,-217.61 740.28,-219.23 749.47,-224.49 750.75,-217.61"/>
</g>
<!-- Node14 -->
<g id="node14" class="node">
<title>Node14</title>
<g id="a_node14"><a xlink:href="http://www.dealii.org/developer/doxygen/deal.II/include_2deal_8II_2opencascade_2utilities_8h.html.html" xlink:title=" ">
<polygon fill="none" stroke="black" points="757.94,-190.5 757.94,-220.5 870.94,-220.5 870.94,-190.5 757.94,-190.5"/>
<text text-anchor="start" x="765.94" y="-208.5" font-family="Helvetica,sans-Serif" font-size="10.00">deal.II/opencascade</text>
<text text-anchor="middle" x="814.44" y="-197.5" font-family="Helvetica,sans-Serif" font-size="10.00">/utilities.h</text>
</a>
</g>
</g>
<!-- Node1&#45;&gt;Node14 -->
<g id="edge14" class="edge">
<title>Node1&#45;&gt;Node14</title>
<path fill="none" stroke="midnightblue" d="M1010.63,-257.48C976.21,-248.53 921.24,-234.25 878.23,-223.07"/>
<polygon fill="midnightblue" stroke="midnightblue" points="878.97,-219.65 868.41,-220.52 877.21,-226.43 878.97,-219.65"/>
</g>
<!-- Node15 -->
<g id="node15" class="node">
<title>Node15</title>
<g id="a_node15"><a xlink:title=" ">
<polygon fill="none" stroke="#bfbfbf" points="889.44,-196 889.44,-215 985.44,-215 985.44,-196 889.44,-196"/>
<text text-anchor="middle" x="937.44" y="-203" font-family="Helvetica,sans-Serif" font-size="10.00">BRepBndLib.hxx</text>
</a>
</g>
</g>
<!-- Node1&#45;&gt;Node15 -->
<g id="edge15" class="edge">
<title>Node1&#45;&gt;Node15</title>
<path fill="none" stroke="midnightblue" d="M1028.26,-257.48C1010.78,-247.67 981.86,-231.43 961.36,-219.92"/>
<polygon fill="midnightblue" stroke="midnightblue" points="963.03,-216.85 952.6,-215.01 959.61,-222.96 963.03,-216.85"/>
</g>
<!-- Node16 -->
<g id="node16" class="node">
<title>Node16</title>
<g id="a_node16"><a xlink:title=" ">
<polygon fill="none" stroke="#bfbfbf" points="1003.44,-196 1003.44,-215 1083.44,-215 1083.44,-196 1003.44,-196"/>
<text text-anchor="middle" x="1043.44" y="-203" font-family="Helvetica,sans-Serif" font-size="10.00">Bnd_Box.hxx</text>
</a>
</g>
</g>
<!-- Node1&#45;&gt;Node16 -->
<g id="edge16" class="edge">
<title>Node1&#45;&gt;Node16</title>
<path fill="none" stroke="midnightblue" d="M1043.44,-257.48C1043.44,-249.08 1043.44,-235.98 1043.44,-225.16"/>
<polygon fill="midnightblue" stroke="midnightblue" points="1046.94,-225.01 1043.44,-215.01 1039.94,-225.01 1046.94,-225.01"/>
</g>
<!-- Node17 -->
<g id="node17" class="node">
<title>Node17</title>
<g id="a_node17"><a xlink:title=" ">
<polygon fill="none" stroke="#bfbfbf" points="1101.44,-196 1101.44,-215 1175.44,-215 1175.44,-196 1101.44,-196"/>
<text text-anchor="middle" x="1138.44" y="-203" font-family="Helvetica,sans-Serif" font-size="10.00">TopoDS.hxx</text>
</a>
</g>
</g>
<!-- Node1&#45;&gt;Node17 -->
<g id="edge17" class="edge">
<title>Node1&#45;&gt;Node17</title>
<path fill="none" stroke="midnightblue" d="M1057.05,-257.48C1072.5,-247.8 1097.93,-231.87 1116.26,-220.39"/>
<polygon fill="midnightblue" stroke="midnightblue" points="1118.24,-223.28 1124.86,-215.01 1114.52,-217.35 1118.24,-223.28"/>
</g>
<!-- Node18 -->
<g id="node18" class="node">
<title>Node18</title>
<g id="a_node18"><a xlink:title=" ">
<polygon fill="none" stroke="#bfbfbf" points="1193.94,-190.5 1193.94,-220.5 1318.94,-220.5 1318.94,-190.5 1193.94,-190.5"/>
<text text-anchor="start" x="1201.94" y="-208.5" font-family="Helvetica,sans-Serif" font-size="10.00">boost/algorithm/string</text>
<text text-anchor="middle" x="1256.44" y="-197.5" font-family="Helvetica,sans-Serif" font-size="10.00">/case_conv.hpp</text>
</a>
</g>
</g>
<!-- Node1&#45;&gt;Node18 -->
<g id="edge18" class="edge">
<title>Node1&#45;&gt;Node18</title>
<path fill="none" stroke="midnightblue" d="M1073.96,-257.48C1105.84,-248.57 1156.68,-234.37 1196.61,-223.22"/>
<polygon fill="midnightblue" stroke="midnightblue" points="1197.55,-226.58 1206.24,-220.52 1195.67,-219.84 1197.55,-226.58"/>
</g>
<!-- Node19 -->
<g id="node19" class="node">
<title>Node19</title>
<g id="a_node19"><a xlink:title=" ">
<polygon fill="none" stroke="#bfbfbf" points="1337.44,-190.5 1337.44,-220.5 1453.44,-220.5 1453.44,-190.5 1337.44,-190.5"/>
<text text-anchor="start" x="1345.44" y="-208.5" font-family="Helvetica,sans-Serif" font-size="10.00">boost/archive/binary</text>
<text text-anchor="middle" x="1395.44" y="-197.5" font-family="Helvetica,sans-Serif" font-size="10.00">_iarchive.hpp</text>
</a>
</g>
</g>
<!-- Node1&#45;&gt;Node19 -->
<g id="edge19" class="edge">
<title>Node1&#45;&gt;Node19</title>
<path fill="none" stroke="midnightblue" d="M1103.94,-257.46C1159.54,-249.38 1244.49,-236.46 1327.53,-221.11"/>
<polygon fill="midnightblue" stroke="midnightblue" points="1328.19,-224.55 1337.38,-219.28 1326.91,-217.67 1328.19,-224.55"/>
</g>
<!-- Node20 -->
<g id="node20" class="node">
<title>Node20</title>
<g id="a_node20"><a xlink:title=" ">
<polygon fill="none" stroke="#bfbfbf" points="1471.44,-190.5 1471.44,-220.5 1587.44,-220.5 1587.44,-190.5 1471.44,-190.5"/>
<text text-anchor="start" x="1479.44" y="-208.5" font-family="Helvetica,sans-Serif" font-size="10.00">boost/archive/binary</text>
<text text-anchor="middle" x="1529.44" y="-197.5" font-family="Helvetica,sans-Serif" font-size="10.00">_oarchive.hpp</text>
</a>
</g>
</g>
<!-- Node1&#45;&gt;Node20 -->
<g id="edge20" class="edge">
<title>Node1&#45;&gt;Node20</title>
<path fill="none" stroke="midnightblue" d="M1111.96,-260.89C1193.06,-254.33 1332.36,-241.5 1461.35,-221.07"/>
<polygon fill="midnightblue" stroke="midnightblue" points="1462.09,-224.49 1471.41,-219.45 1460.98,-217.58 1462.09,-224.49"/>
</g>
<!-- Node21 -->
<g id="node21" class="node">
<title>Node21</title>
<g id="a_node21"><a xlink:title=" ">
<polygon fill="none" stroke="#bfbfbf" points="1605.94,-190.5 1605.94,-220.5 1710.94,-220.5 1710.94,-190.5 1605.94,-190.5"/>
<text text-anchor="start" x="1613.94" y="-208.5" font-family="Helvetica,sans-Serif" font-size="10.00">boost/archive/text</text>
<text text-anchor="middle" x="1658.44" y="-197.5" font-family="Helvetica,sans-Serif" font-size="10.00">_iarchive.hpp</text>
</a>
</g>
</g>
<!-- Node1&#45;&gt;Node21 -->
<g id="edge21" class="edge">
<title>Node1&#45;&gt;Node21</title>
<path fill="none" stroke="midnightblue" d="M1112.37,-263.68C1215.48,-259.48 1416.07,-248.51 1595.88,-220.92"/>
<polygon fill="midnightblue" stroke="midnightblue" points="1596.44,-224.37 1605.78,-219.38 1595.36,-217.46 1596.44,-224.37"/>
</g>
<!-- Node22 -->
<g id="node22" class="node">
<title>Node22</title>
<g id="a_node22"><a xlink:title=" ">
<polygon fill="none" stroke="#bfbfbf" points="1728.94,-190.5 1728.94,-220.5 1833.94,-220.5 1833.94,-190.5 1728.94,-190.5"/>
<text text-anchor="start" x="1736.94" y="-208.5" font-family="Helvetica,sans-Serif" font-size="10.00">boost/archive/text</text>
<text text-anchor="middle" x="1781.44" y="-197.5" font-family="Helvetica,sans-Serif" font-size="10.00">_oarchive.hpp</text>
</a>
</g>
</g>
<!-- Node1&#45;&gt;Node22 -->
<g id="edge22" class="edge">
<title>Node1&#45;&gt;Node22</title>
<path fill="none" stroke="midnightblue" d="M1112.08,-265.22C1233.01,-263.01 1491.99,-254.58 1718.56,-221.13"/>
<polygon fill="midnightblue" stroke="midnightblue" points="1719.28,-224.56 1728.65,-219.62 1718.24,-217.64 1719.28,-224.56"/>
</g>
<!-- Node3 -->
<g id="node3" class="node">
<title>Node3</title>
<g id="a_node3"><a xlink:href="http://www.dealii.org/developer/doxygen/deal.II/parameter__acceptor_8h.html.html" xlink:title=" ">
<polygon fill="none" stroke="black" points="94.94,-0.5 94.94,-30.5 221.94,-30.5 221.94,-0.5 94.94,-0.5"/>
<text text-anchor="start" x="102.94" y="-18.5" font-family="Helvetica,sans-Serif" font-size="10.00">deal.II/base/parameter</text>
<text text-anchor="middle" x="158.44" y="-7.5" font-family="Helvetica,sans-Serif" font-size="10.00">_acceptor.h</text>
</a>
</g>
</g>
<!-- Node2&#45;&gt;Node3 -->
<g id="edge2" class="edge">
<title>Node2&#45;&gt;Node3</title>
<path fill="none" stroke="midnightblue" d="M176.15,-198.78C112.43,-192.4 31.2,-179.43 10.44,-154 -28.45,-106.36 55.38,-59.47 112.06,-34.65"/>
<polygon fill="midnightblue" stroke="midnightblue" points="113.78,-37.73 121.59,-30.57 111.02,-31.29 113.78,-37.73"/>
</g>
<!-- Node4 -->
<g id="node4" class="node">
<title>Node4</title>
<g id="a_node4"><a xlink:href="http://www.dealii.org/developer/doxygen/deal.II/distributed_2grid__refinement_8h.html.html" xlink:title=" ">
<polygon fill="none" stroke="black" points="19.94,-123.5 19.94,-153.5 126.94,-153.5 126.94,-123.5 19.94,-123.5"/>
<text text-anchor="start" x="27.94" y="-141.5" font-family="Helvetica,sans-Serif" font-size="10.00">deal.II/distributed</text>
<text text-anchor="middle" x="73.44" y="-130.5" font-family="Helvetica,sans-Serif" font-size="10.00">/grid_refinement.h</text>
</a>
</g>
</g>
<!-- Node2&#45;&gt;Node4 -->
<g id="edge3" class="edge">
<title>Node2&#45;&gt;Node4</title>
<path fill="none" stroke="midnightblue" d="M233.01,-195.87C205.04,-185.99 158.5,-169.55 122.89,-156.97"/>
<polygon fill="midnightblue" stroke="midnightblue" points="123.75,-153.56 113.15,-153.53 121.42,-160.16 123.75,-153.56"/>
</g>
<!-- Node5 -->
<g id="node5" class="node">
<title>Node5</title>
<g id="a_node5"><a xlink:href="http://www.dealii.org/developer/doxygen/deal.II/distributed_2tria_8h.html.html" xlink:title=" ">
<polygon fill="none" stroke="black" points="145.44,-123.5 145.44,-153.5 247.44,-153.5 247.44,-123.5 145.44,-123.5"/>
<text text-anchor="start" x="153.44" y="-141.5" font-family="Helvetica,sans-Serif" font-size="10.00">deal.II/distributed</text>
<text text-anchor="middle" x="196.44" y="-130.5" font-family="Helvetica,sans-Serif" font-size="10.00">/tria.h</text>
</a>
</g>
</g>
<!-- Node2&#45;&gt;Node5 -->
<g id="edge4" class="edge">
<title>Node2&#45;&gt;Node5</title>
<path fill="none" stroke="midnightblue" d="M249.22,-195.73C240.89,-186.86 227.7,-172.81 216.59,-160.97"/>
<polygon fill="midnightblue" stroke="midnightblue" points="219.06,-158.49 209.66,-153.59 213.96,-163.28 219.06,-158.49"/>
</g>
<!-- Node6 -->
<g id="node6" class="node">
<title>Node6</title>
<g id="a_node6"><a xlink:href="http://www.dealii.org/developer/doxygen/deal.II/mapping__q__generic_8h.html.html" xlink:title=" ">
<polygon fill="none" stroke="black" points="265.94,-123.5 265.94,-153.5 370.94,-153.5 370.94,-123.5 265.94,-123.5"/>
<text text-anchor="start" x="273.94" y="-141.5" font-family="Helvetica,sans-Serif" font-size="10.00">deal.II/fe/mapping</text>
<text text-anchor="middle" x="318.44" y="-130.5" font-family="Helvetica,sans-Serif" font-size="10.00">_q_generic.h</text>
</a>
</g>
</g>
<!-- Node2&#45;&gt;Node6 -->
<g id="edge5" class="edge">
<title>Node2&#45;&gt;Node6</title>
<path fill="none" stroke="midnightblue" d="M265.67,-195.73C273.99,-186.86 287.18,-172.81 298.29,-160.97"/>
<polygon fill="midnightblue" stroke="midnightblue" points="300.93,-163.28 305.22,-153.59 295.83,-158.49 300.93,-163.28"/>
</g>
<!-- Node7 -->
<g id="node7" class="node">
<title>Node7</title>
<g id="a_node7"><a xlink:href="http://www.dealii.org/developer/doxygen/deal.II/grid__generator_8h.html.html" xlink:title=" ">
<polygon fill="none" stroke="black" points="389.44,-129 389.44,-148 541.44,-148 541.44,-129 389.44,-129"/>
<text text-anchor="middle" x="465.44" y="-136" font-family="Helvetica,sans-Serif" font-size="10.00">deal.II/grid/grid_generator.h</text>
</a>
</g>
</g>
<!-- Node2&#45;&gt;Node7 -->
<g id="edge6" class="edge">
<title>Node2&#45;&gt;Node7</title>
<path fill="none" stroke="midnightblue" d="M285.06,-195.87C321.92,-184.35 387.29,-163.92 428.4,-151.08"/>
<polygon fill="midnightblue" stroke="midnightblue" points="429.54,-154.39 438.04,-148.06 427.45,-147.71 429.54,-154.39"/>
</g>
<!-- Node10 -->
<g id="node10" class="node">
<title>Node10</title>
<g id="a_node10"><a xlink:href="http://www.dealii.org/developer/doxygen/deal.II/grid_2tria_8h.html.html" xlink:title=" ">
<polygon fill="none" stroke="black" points="559.94,-129 559.94,-148 656.94,-148 656.94,-129 559.94,-129"/>
<text text-anchor="middle" x="608.44" y="-136" font-family="Helvetica,sans-Serif" font-size="10.00">deal.II/grid/tria.h</text>
</a>
</g>
</g>
<!-- Node2&#45;&gt;Node10 -->
<g id="edge10" class="edge">
<title>Node2&#45;&gt;Node10</title>
<path fill="none" stroke="midnightblue" d="M309.65,-195.98C381.05,-184.25 505.43,-163.49 550.44,-154 555.52,-152.93 560.82,-151.73 566.07,-150.48"/>
<polygon fill="midnightblue" stroke="midnightblue" points="567.14,-153.82 576.02,-148.06 565.48,-147.02 567.14,-153.82"/>
</g>
<!-- Node8 -->
<g id="node8" class="node">
<title>Node8</title>
<g id="a_node8"><a xlink:href="function_8h.html" target="_top" xlink:title=" ">
<polygon fill="none" stroke="black" points="318.94,-67.5 318.94,-86.5 443.94,-86.5 443.94,-67.5 318.94,-67.5"/>
<text text-anchor="middle" x="381.44" y="-74.5" font-family="Helvetica,sans-Serif" font-size="10.00">deal.II/base/function.h</text>
</a>
</g>
</g>
<!-- Node7&#45;&gt;Node8 -->
<g id="edge7" class="edge">
<title>Node7&#45;&gt;Node8</title>
<path fill="none" stroke="midnightblue" d="M453.41,-128.98C439.93,-119.43 417.88,-103.81 401.73,-92.37"/>
<polygon fill="midnightblue" stroke="midnightblue" points="403.64,-89.43 393.46,-86.51 399.59,-95.15 403.64,-89.43"/>
</g>
<!-- Node8&#45;&gt;Node3 -->
<g id="edge9" class="edge">
<title>Node8&#45;&gt;Node3</title>
<path fill="none" stroke="midnightblue" d="M349.49,-67.48C316.04,-58.55 262.67,-44.31 220.82,-33.14"/>
<polygon fill="midnightblue" stroke="midnightblue" points="221.56,-29.72 211,-30.52 219.76,-36.48 221.56,-29.72"/>
</g>
<!-- Node9 -->
<g id="node9" class="node">
<title>Node9</title>
<g id="a_node9"><a xlink:href="http://www.dealii.org/developer/doxygen/deal.II/function__parser_8h.html.html" xlink:title=" ">
<polygon fill="none" stroke="black" points="323.44,-0.5 323.44,-30.5 439.44,-30.5 439.44,-0.5 323.44,-0.5"/>
<text text-anchor="start" x="331.44" y="-18.5" font-family="Helvetica,sans-Serif" font-size="10.00">deal.II/base/function</text>
<text text-anchor="middle" x="381.44" y="-7.5" font-family="Helvetica,sans-Serif" font-size="10.00">_parser.h</text>
</a>
</g>
</g>
<!-- Node8&#45;&gt;Node9 -->
<g id="edge8" class="edge">
<title>Node8&#45;&gt;Node9</title>
<path fill="none" stroke="midnightblue" d="M381.44,-67.48C381.44,-60.47 381.44,-50.19 381.44,-40.7"/>
<polygon fill="midnightblue" stroke="midnightblue" points="384.94,-40.52 381.44,-30.52 377.94,-40.52 384.94,-40.52"/>
</g>
</g>
</svg>
