<?xml version="1.0" encoding="UTF-8" standalone="no"?>
<!DOCTYPE svg PUBLIC "-//W3C//DTD SVG 1.1//EN"
 "http://www.w3.org/Graphics/SVG/1.1/DTD/svg11.dtd">
<!-- Generated by graphviz version 2.43.0 (0)
 -->
<!-- Title: include/parsed_tools/grid_info.h Pages: 1 -->
<svg width="1642pt" height="296pt"
 viewBox="0.00 0.00 1641.50 296.00" xmlns="http://www.w3.org/2000/svg" xmlns:xlink="http://www.w3.org/1999/xlink">
<g id="graph0" class="graph" transform="scale(1 1) rotate(0) translate(4 292)">
<title>include/parsed_tools/grid_info.h</title>
<!-- Node1 -->
<g id="node1" class="node">
<title>Node1</title>
<g id="a_node1"><a xlink:title=" ">
<polygon fill="#bfbfbf" stroke="black" points="967,-257.5 967,-287.5 1084,-287.5 1084,-257.5 967,-257.5"/>
<text text-anchor="start" x="975" y="-275.5" font-family="Helvetica,sans-Serif" font-size="10.00">include/parsed_tools</text>
<text text-anchor="middle" x="1025.5" y="-264.5" font-family="Helvetica,sans-Serif" font-size="10.00">/grid_info.h</text>
</a>
</g>
</g>
<!-- Node2 -->
<g id="node2" class="node">
<title>Node2</title>
<g id="a_node2"><a xlink:href="mesh__handler_8h.html" target="_top" xlink:title=" ">
<polygon fill="none" stroke="black" points="498,-196 498,-215 631,-215 631,-196 498,-196"/>
<text text-anchor="middle" x="564.5" y="-203" font-family="Helvetica,sans-Serif" font-size="10.00">include/mesh_handler.h</text>
</a>
</g>
</g>
<!-- Node1&#45;&gt;Node2 -->
<g id="edge1" class="edge">
<title>Node1&#45;&gt;Node2</title>
<path fill="none" stroke="midnightblue" d="M956.54,-261.78C866.51,-249.08 710.38,-227.07 624.83,-215.01"/>
<polygon fill="midnightblue" stroke="midnightblue" points="956.26,-265.27 966.65,-263.2 957.23,-258.34 956.26,-265.27"/>
</g>
<!-- Node4 -->
<g id="node4" class="node">
<title>Node4</title>
<g id="a_node4"><a xlink:href="boundary__conditions_8h.html" target="_top" xlink:title=" ">
<polygon fill="none" stroke="black" points="914.5,-190.5 914.5,-220.5 1044.5,-220.5 1044.5,-190.5 914.5,-190.5"/>
<text text-anchor="start" x="922.5" y="-208.5" font-family="Helvetica,sans-Serif" font-size="10.00">include/parsed_tools</text>
<text text-anchor="middle" x="979.5" y="-197.5" font-family="Helvetica,sans-Serif" font-size="10.00">/boundary_conditions.h</text>
</a>
</g>
</g>
<!-- Node1&#45;&gt;Node4 -->
<g id="edge3" class="edge">
<title>Node1&#45;&gt;Node4</title>
<path fill="none" stroke="midnightblue" d="M1009.69,-249.16C1002.98,-239.68 995.37,-228.92 989.46,-220.58"/>
<polygon fill="midnightblue" stroke="midnightblue" points="1006.88,-251.26 1015.52,-257.4 1012.6,-247.21 1006.88,-251.26"/>
</g>
<!-- Node24 -->
<g id="node24" class="node">
<title>Node24</title>
<g id="a_node24"><a xlink:href="boundary__conditions_8cc.html" target="_top" xlink:title=" ">
<polygon fill="none" stroke="black" points="1349,-129 1349,-148 1516,-148 1516,-129 1349,-129"/>
<text text-anchor="middle" x="1432.5" y="-136" font-family="Helvetica,sans-Serif" font-size="10.00">source/boundary_conditions.cc</text>
</a>
</g>
</g>
<!-- Node1&#45;&gt;Node24 -->
<g id="edge24" class="edge">
<title>Node1&#45;&gt;Node24</title>
<path fill="none" stroke="midnightblue" d="M1037.74,-248.31C1049.04,-229.35 1067.67,-203.55 1091.5,-190 1188.31,-134.94 1229.36,-170.58 1339.5,-154 1352.1,-152.1 1365.66,-150.02 1378.42,-148.03"/>
<polygon fill="midnightblue" stroke="midnightblue" points="1034.56,-246.82 1032.65,-257.24 1040.64,-250.29 1034.56,-246.82"/>
</g>
<!-- Node25 -->
<g id="node25" class="node">
<title>Node25</title>
<g id="a_node25"><a xlink:href="dof__plotter_8cc.html" target="_top" xlink:title="Degrees of freedom plotter.">
<polygon fill="none" stroke="black" points="1100.5,-196 1100.5,-215 1210.5,-215 1210.5,-196 1100.5,-196"/>
<text text-anchor="middle" x="1155.5" y="-203" font-family="Helvetica,sans-Serif" font-size="10.00">apps/dof_plotter.cc</text>
</a>
</g>
</g>
<!-- Node1&#45;&gt;Node25 -->
<g id="edge25" class="edge">
<title>Node1&#45;&gt;Node25</title>
<path fill="none" stroke="midnightblue" d="M1062.89,-252.8C1087.82,-240.34 1119.39,-224.56 1138.49,-215.01"/>
<polygon fill="midnightblue" stroke="midnightblue" points="1061.09,-249.79 1053.71,-257.4 1064.22,-256.05 1061.09,-249.79"/>
</g>
<!-- Node3 -->
<g id="node3" class="node">
<title>Node3</title>
<g id="a_node3"><a xlink:href="mesh__handler_8cc.html" target="_top" xlink:title="Mesh generator and reader.">
<polygon fill="none" stroke="black" points="99,-129 99,-148 224,-148 224,-129 99,-129"/>
<text text-anchor="middle" x="161.5" y="-136" font-family="Helvetica,sans-Serif" font-size="10.00">apps/mesh_handler.cc</text>
</a>
</g>
</g>
<!-- Node2&#45;&gt;Node3 -->
<g id="edge2" class="edge">
<title>Node2&#45;&gt;Node3</title>
<path fill="none" stroke="midnightblue" d="M492.15,-194.57C424.78,-185.07 321.63,-169.87 232.5,-154 222.47,-152.21 211.68,-150.11 201.61,-148.06"/>
<polygon fill="midnightblue" stroke="midnightblue" points="491.85,-198.06 502.24,-195.99 492.82,-191.13 491.85,-198.06"/>
</g>
<!-- Node5 -->
<g id="node5" class="node">
<title>Node5</title>
<g id="a_node5"><a xlink:href="linear__problem_8h.html" target="_top" xlink:title=" ">
<polygon fill="none" stroke="black" points="242,-123.5 242,-153.5 373,-153.5 373,-123.5 242,-123.5"/>
<text text-anchor="start" x="250" y="-141.5" font-family="Helvetica,sans-Serif" font-size="10.00">include/pdes/mpi/linear</text>
<text text-anchor="middle" x="307.5" y="-130.5" font-family="Helvetica,sans-Serif" font-size="10.00">_problem.h</text>
</a>
</g>
</g>
<!-- Node4&#45;&gt;Node5 -->
<g id="edge4" class="edge">
<title>Node4&#45;&gt;Node5</title>
<path fill="none" stroke="midnightblue" d="M903.96,-197.26C802.11,-187.48 615.12,-169.51 455.5,-154 428.52,-151.38 398.77,-148.47 373.07,-145.95"/>
<polygon fill="midnightblue" stroke="midnightblue" points="903.86,-200.76 914.14,-198.23 904.52,-193.8 903.86,-200.76"/>
</g>
<!-- Node9 -->
<g id="node9" class="node">
<title>Node9</title>
<g id="a_node9"><a xlink:href="distributed__lagrange_8h.html" target="_top" xlink:title=" ">
<polygon fill="none" stroke="black" points="465,-123.5 465,-153.5 594,-153.5 594,-123.5 465,-123.5"/>
<text text-anchor="start" x="473" y="-141.5" font-family="Helvetica,sans-Serif" font-size="10.00">include/pdes/serial</text>
<text text-anchor="middle" x="529.5" y="-130.5" font-family="Helvetica,sans-Serif" font-size="10.00">/distributed_lagrange.h</text>
</a>
</g>
</g>
<!-- Node4&#45;&gt;Node9 -->
<g id="edge8" class="edge">
<title>Node4&#45;&gt;Node9</title>
<path fill="none" stroke="midnightblue" d="M904.02,-193.6C817.25,-181.06 676.27,-160.7 594.28,-148.86"/>
<polygon fill="midnightblue" stroke="midnightblue" points="903.67,-197.08 914.07,-195.05 904.67,-190.15 903.67,-197.08"/>
</g>
<!-- Node12 -->
<g id="node12" class="node">
<title>Node12</title>
<g id="a_node12"><a xlink:href="linear__elasticity_8h.html" target="_top" xlink:title=" ">
<polygon fill="none" stroke="black" points="735.5,-123.5 735.5,-153.5 843.5,-153.5 843.5,-123.5 735.5,-123.5"/>
<text text-anchor="start" x="743.5" y="-141.5" font-family="Helvetica,sans-Serif" font-size="10.00">include/pdes/serial</text>
<text text-anchor="middle" x="789.5" y="-130.5" font-family="Helvetica,sans-Serif" font-size="10.00">/linear_elasticity.h</text>
</a>
</g>
</g>
<!-- Node4&#45;&gt;Node12 -->
<g id="edge11" class="edge">
<title>Node4&#45;&gt;Node12</title>
<path fill="none" stroke="midnightblue" d="M928.61,-187.09C897.94,-176.6 859.39,-163.41 830.65,-153.58"/>
<polygon fill="midnightblue" stroke="midnightblue" points="927.68,-190.47 938.27,-190.4 929.94,-183.85 927.68,-190.47"/>
</g>
<!-- Node15 -->
<g id="node15" class="node">
<title>Node15</title>
<g id="a_node15"><a xlink:href="serial_2poisson_8h.html" target="_top" xlink:title=" ">
<polygon fill="none" stroke="black" points="925.5,-123.5 925.5,-153.5 1033.5,-153.5 1033.5,-123.5 925.5,-123.5"/>
<text text-anchor="start" x="933.5" y="-141.5" font-family="Helvetica,sans-Serif" font-size="10.00">include/pdes/serial</text>
<text text-anchor="middle" x="979.5" y="-130.5" font-family="Helvetica,sans-Serif" font-size="10.00">/poisson.h</text>
</a>
</g>
</g>
<!-- Node4&#45;&gt;Node15 -->
<g id="edge14" class="edge">
<title>Node4&#45;&gt;Node15</title>
<path fill="none" stroke="midnightblue" d="M979.5,-180.11C979.5,-171.15 979.5,-161.32 979.5,-153.58"/>
<polygon fill="midnightblue" stroke="midnightblue" points="976,-180.4 979.5,-190.4 983,-180.4 976,-180.4"/>
</g>
<!-- Node18 -->
<g id="node18" class="node">
<title>Node18</title>
<g id="a_node18"><a xlink:href="reduced__lagrange_8h.html" target="_top" xlink:title=" ">
<polygon fill="none" stroke="black" points="1088.5,-123.5 1088.5,-153.5 1204.5,-153.5 1204.5,-123.5 1088.5,-123.5"/>
<text text-anchor="start" x="1096.5" y="-141.5" font-family="Helvetica,sans-Serif" font-size="10.00">include/pdes/serial</text>
<text text-anchor="middle" x="1146.5" y="-130.5" font-family="Helvetica,sans-Serif" font-size="10.00">/reduced_lagrange.h</text>
</a>
</g>
</g>
<!-- Node4&#45;&gt;Node18 -->
<g id="edge17" class="edge">
<title>Node4&#45;&gt;Node18</title>
<path fill="none" stroke="midnightblue" d="M1025.28,-186.68C1052.06,-176.26 1085.4,-163.28 1110.33,-153.58"/>
<polygon fill="midnightblue" stroke="midnightblue" points="1023.79,-183.51 1015.74,-190.4 1026.33,-190.03 1023.79,-183.51"/>
</g>
<!-- Node21 -->
<g id="node21" class="node">
<title>Node21</title>
<g id="a_node21"><a xlink:href="stokes_8h.html" target="_top" xlink:title=" ">
<polygon fill="none" stroke="black" points="1222.5,-123.5 1222.5,-153.5 1330.5,-153.5 1330.5,-123.5 1222.5,-123.5"/>
<text text-anchor="start" x="1230.5" y="-141.5" font-family="Helvetica,sans-Serif" font-size="10.00">include/pdes/serial</text>
<text text-anchor="middle" x="1276.5" y="-130.5" font-family="Helvetica,sans-Serif" font-size="10.00">/stokes.h</text>
</a>
</g>
</g>
<!-- Node4&#45;&gt;Node21 -->
<g id="edge20" class="edge">
<title>Node4&#45;&gt;Node21</title>
<path fill="none" stroke="midnightblue" d="M1054.49,-188.59C1100.43,-178.77 1160.4,-165.84 1213.5,-154 1216.35,-153.36 1219.27,-152.71 1222.21,-152.04"/>
<polygon fill="midnightblue" stroke="midnightblue" points="1053.66,-185.19 1044.61,-190.7 1055.12,-192.03 1053.66,-185.19"/>
</g>
<!-- Node4&#45;&gt;Node24 -->
<g id="edge23" class="edge">
<title>Node4&#45;&gt;Node24</title>
<path fill="none" stroke="midnightblue" d="M1054.63,-190.61C1055.93,-190.4 1057.22,-190.2 1058.5,-190 1182.91,-170.63 1214.84,-171.7 1339.5,-154 1352.44,-152.16 1366.38,-150.06 1379.42,-148.03"/>
<polygon fill="midnightblue" stroke="midnightblue" points="1053.85,-187.19 1044.55,-192.27 1054.99,-194.1 1053.85,-187.19"/>
</g>
<!-- Node6 -->
<g id="node6" class="node">
<title>Node6</title>
<g id="a_node6"><a xlink:href="mpi_2poisson_8h.html" target="_top" xlink:title=" ">
<polygon fill="none" stroke="black" points="1,-62 1,-81 150,-81 150,-62 1,-62"/>
<text text-anchor="middle" x="75.5" y="-69" font-family="Helvetica,sans-Serif" font-size="10.00">include/pdes/mpi/poisson.h</text>
</a>
</g>
</g>
<!-- Node5&#45;&gt;Node6 -->
<g id="edge5" class="edge">
<title>Node5&#45;&gt;Node6</title>
<path fill="none" stroke="midnightblue" d="M247.72,-120.75C202.34,-108.04 141.83,-91.09 105.94,-81.03"/>
<polygon fill="midnightblue" stroke="midnightblue" points="246.87,-124.15 257.45,-123.48 248.76,-117.41 246.87,-124.15"/>
</g>
<!-- Node8 -->
<g id="node8" class="node">
<title>Node8</title>
<g id="a_node8"><a xlink:href="linear__problem_8cc.html" target="_top" xlink:title=" ">
<polygon fill="none" stroke="black" points="168.5,-56.5 168.5,-86.5 296.5,-86.5 296.5,-56.5 168.5,-56.5"/>
<text text-anchor="start" x="176.5" y="-74.5" font-family="Helvetica,sans-Serif" font-size="10.00">source/pdes/mpi/linear</text>
<text text-anchor="middle" x="232.5" y="-63.5" font-family="Helvetica,sans-Serif" font-size="10.00">_problem.cc</text>
</a>
</g>
</g>
<!-- Node5&#45;&gt;Node8 -->
<g id="edge7" class="edge">
<title>Node5&#45;&gt;Node8</title>
<path fill="none" stroke="midnightblue" d="M283.38,-116.6C272.06,-106.78 258.86,-95.34 248.74,-86.58"/>
<polygon fill="midnightblue" stroke="midnightblue" points="281.38,-119.49 291.23,-123.4 285.96,-114.2 281.38,-119.49"/>
</g>
<!-- Node7 -->
<g id="node7" class="node">
<title>Node7</title>
<g id="a_node7"><a xlink:href="source_2pdes_2mpi_2poisson_8cc.html" target="_top" xlink:title=" ">
<polygon fill="none" stroke="black" points="0,-0.5 0,-19.5 151,-19.5 151,-0.5 0,-0.5"/>
<text text-anchor="middle" x="75.5" y="-7.5" font-family="Helvetica,sans-Serif" font-size="10.00">source/pdes/mpi/poisson.cc</text>
</a>
</g>
</g>
<!-- Node6&#45;&gt;Node7 -->
<g id="edge6" class="edge">
<title>Node6&#45;&gt;Node7</title>
<path fill="none" stroke="midnightblue" d="M75.5,-51.82C75.5,-41 75.5,-27.9 75.5,-19.51"/>
<polygon fill="midnightblue" stroke="midnightblue" points="72,-51.98 75.5,-61.98 79,-51.98 72,-51.98"/>
</g>
<!-- Node10 -->
<g id="node10" class="node">
<title>Node10</title>
<g id="a_node10"><a xlink:href="source_2pdes_2serial_2distributed__lagrange_8cc.html" target="_top" xlink:title=" ">
<polygon fill="none" stroke="black" points="314.5,-56.5 314.5,-86.5 448.5,-86.5 448.5,-56.5 314.5,-56.5"/>
<text text-anchor="start" x="322.5" y="-74.5" font-family="Helvetica,sans-Serif" font-size="10.00">source/pdes/serial</text>
<text text-anchor="middle" x="381.5" y="-63.5" font-family="Helvetica,sans-Serif" font-size="10.00">/distributed_lagrange.cc</text>
</a>
</g>
</g>
<!-- Node9&#45;&gt;Node10 -->
<g id="edge9" class="edge">
<title>Node9&#45;&gt;Node10</title>
<path fill="none" stroke="midnightblue" d="M487.99,-119.27C464.42,-108.92 435.36,-96.15 413.55,-86.58"/>
<polygon fill="midnightblue" stroke="midnightblue" points="486.82,-122.58 497.39,-123.4 489.64,-116.17 486.82,-122.58"/>
</g>
<!-- Node11 -->
<g id="node11" class="node">
<title>Node11</title>
<g id="a_node11"><a xlink:href="apps_2serial_2distributed__lagrange_8cc.html" target="_top" xlink:title=" ">
<polygon fill="none" stroke="black" points="467,-56.5 467,-86.5 592,-86.5 592,-56.5 467,-56.5"/>
<text text-anchor="start" x="475" y="-74.5" font-family="Helvetica,sans-Serif" font-size="10.00">apps/serial/distributed</text>
<text text-anchor="middle" x="529.5" y="-63.5" font-family="Helvetica,sans-Serif" font-size="10.00">_lagrange.cc</text>
</a>
</g>
</g>
<!-- Node9&#45;&gt;Node11 -->
<g id="edge10" class="edge">
<title>Node9&#45;&gt;Node11</title>
<path fill="none" stroke="midnightblue" d="M529.5,-113.11C529.5,-104.15 529.5,-94.32 529.5,-86.58"/>
<polygon fill="midnightblue" stroke="midnightblue" points="526,-113.4 529.5,-123.4 533,-113.4 526,-113.4"/>
</g>
<!-- Node13 -->
<g id="node13" class="node">
<title>Node13</title>
<g id="a_node13"><a xlink:href="source_2pdes_2serial_2linear__elasticity_8cc.html" target="_top" xlink:title=" ">
<polygon fill="none" stroke="black" points="610.5,-56.5 610.5,-86.5 720.5,-86.5 720.5,-56.5 610.5,-56.5"/>
<text text-anchor="start" x="618.5" y="-74.5" font-family="Helvetica,sans-Serif" font-size="10.00">source/pdes/serial</text>
<text text-anchor="middle" x="665.5" y="-63.5" font-family="Helvetica,sans-Serif" font-size="10.00">/linear_elasticity.cc</text>
</a>
</g>
</g>
<!-- Node12&#45;&gt;Node13 -->
<g id="edge12" class="edge">
<title>Node12&#45;&gt;Node13</title>
<path fill="none" stroke="midnightblue" d="M753.66,-118.71C734.11,-108.46 710.3,-95.98 692.35,-86.58"/>
<polygon fill="midnightblue" stroke="midnightblue" points="752.11,-121.85 762.59,-123.4 755.36,-115.65 752.11,-121.85"/>
</g>
<!-- Node14 -->
<g id="node14" class="node">
<title>Node14</title>
<g id="a_node14"><a xlink:href="apps_2serial_2linear__elasticity_8cc.html" target="_top" xlink:title=" ">
<polygon fill="none" stroke="black" points="739,-56.5 739,-86.5 840,-86.5 840,-56.5 739,-56.5"/>
<text text-anchor="start" x="747" y="-74.5" font-family="Helvetica,sans-Serif" font-size="10.00">apps/serial/linear</text>
<text text-anchor="middle" x="789.5" y="-63.5" font-family="Helvetica,sans-Serif" font-size="10.00">_elasticity.cc</text>
</a>
</g>
</g>
<!-- Node12&#45;&gt;Node14 -->
<g id="edge13" class="edge">
<title>Node12&#45;&gt;Node14</title>
<path fill="none" stroke="midnightblue" d="M789.5,-113.11C789.5,-104.15 789.5,-94.32 789.5,-86.58"/>
<polygon fill="midnightblue" stroke="midnightblue" points="786,-113.4 789.5,-123.4 793,-113.4 786,-113.4"/>
</g>
<!-- Node16 -->
<g id="node16" class="node">
<title>Node16</title>
<g id="a_node16"><a xlink:href="source_2pdes_2serial_2poisson_8cc.html" target="_top" xlink:title=" ">
<polygon fill="none" stroke="black" points="858,-56.5 858,-86.5 963,-86.5 963,-56.5 858,-56.5"/>
<text text-anchor="start" x="866" y="-74.5" font-family="Helvetica,sans-Serif" font-size="10.00">source/pdes/serial</text>
<text text-anchor="middle" x="910.5" y="-63.5" font-family="Helvetica,sans-Serif" font-size="10.00">/poisson.cc</text>
</a>
</g>
</g>
<!-- Node15&#45;&gt;Node16 -->
<g id="edge15" class="edge">
<title>Node15&#45;&gt;Node16</title>
<path fill="none" stroke="midnightblue" d="M957.01,-116.31C946.66,-106.56 934.66,-95.26 925.44,-86.58"/>
<polygon fill="midnightblue" stroke="midnightblue" points="954.85,-119.09 964.53,-123.4 959.65,-113.99 954.85,-119.09"/>
</g>
<!-- Node17 -->
<g id="node17" class="node">
<title>Node17</title>
<g id="a_node17"><a xlink:href="apps_2serial_2poisson_8cc.html" target="_top" xlink:title=" ">
<polygon fill="none" stroke="black" points="981.5,-62 981.5,-81 1105.5,-81 1105.5,-62 981.5,-62"/>
<text text-anchor="middle" x="1043.5" y="-69" font-family="Helvetica,sans-Serif" font-size="10.00">apps/serial/poisson.cc</text>
</a>
</g>
</g>
<!-- Node15&#45;&gt;Node17 -->
<g id="edge16" class="edge">
<title>Node15&#45;&gt;Node17</title>
<path fill="none" stroke="midnightblue" d="M1000.67,-116C1012.35,-104.13 1026.22,-90.05 1034.94,-81.19"/>
<polygon fill="midnightblue" stroke="midnightblue" points="997.91,-113.81 993.39,-123.4 1002.9,-118.73 997.91,-113.81"/>
</g>
<!-- Node19 -->
<g id="node19" class="node">
<title>Node19</title>
<g id="a_node19"><a xlink:href="source_2pdes_2serial_2reduced__lagrange_8cc.html" target="_top" xlink:title=" ">
<polygon fill="none" stroke="black" points="1123.5,-56.5 1123.5,-86.5 1243.5,-86.5 1243.5,-56.5 1123.5,-56.5"/>
<text text-anchor="start" x="1131.5" y="-74.5" font-family="Helvetica,sans-Serif" font-size="10.00">source/pdes/serial</text>
<text text-anchor="middle" x="1183.5" y="-63.5" font-family="Helvetica,sans-Serif" font-size="10.00">/reduced_lagrange.cc</text>
</a>
</g>
</g>
<!-- Node18&#45;&gt;Node19 -->
<g id="edge18" class="edge">
<title>Node18&#45;&gt;Node19</title>
<path fill="none" stroke="midnightblue" d="M1159.55,-114.58C1164.86,-105.24 1170.84,-94.75 1175.49,-86.58"/>
<polygon fill="midnightblue" stroke="midnightblue" points="1156.43,-112.97 1154.53,-123.4 1162.52,-116.44 1156.43,-112.97"/>
</g>
<!-- Node20 -->
<g id="node20" class="node">
<title>Node20</title>
<g id="a_node20"><a xlink:href="apps_2serial_2reduced__lagrange_8cc.html" target="_top" xlink:title=" ">
<polygon fill="none" stroke="black" points="1261.5,-56.5 1261.5,-86.5 1373.5,-86.5 1373.5,-56.5 1261.5,-56.5"/>
<text text-anchor="start" x="1269.5" y="-74.5" font-family="Helvetica,sans-Serif" font-size="10.00">apps/serial/reduced</text>
<text text-anchor="middle" x="1317.5" y="-63.5" font-family="Helvetica,sans-Serif" font-size="10.00">_lagrange.cc</text>
</a>
</g>
</g>
<!-- Node18&#45;&gt;Node20 -->
<g id="edge19" class="edge">
<title>Node18&#45;&gt;Node20</title>
<path fill="none" stroke="midnightblue" d="M1193.02,-119.82C1220.5,-109.37 1254.83,-96.32 1280.47,-86.58"/>
<polygon fill="midnightblue" stroke="midnightblue" points="1191.71,-116.57 1183.6,-123.4 1194.2,-123.11 1191.71,-116.57"/>
</g>
<!-- Node22 -->
<g id="node22" class="node">
<title>Node22</title>
<g id="a_node22"><a xlink:href="source_2pdes_2serial_2stokes_8cc.html" target="_top" xlink:title=" ">
<polygon fill="none" stroke="black" points="1392,-56.5 1392,-86.5 1497,-86.5 1497,-56.5 1392,-56.5"/>
<text text-anchor="start" x="1400" y="-74.5" font-family="Helvetica,sans-Serif" font-size="10.00">source/pdes/serial</text>
<text text-anchor="middle" x="1444.5" y="-63.5" font-family="Helvetica,sans-Serif" font-size="10.00">/stokes.cc</text>
</a>
</g>
</g>
<!-- Node21&#45;&gt;Node22 -->
<g id="edge21" class="edge">
<title>Node21&#45;&gt;Node22</title>
<path fill="none" stroke="midnightblue" d="M1322.55,-119.68C1349.5,-109.26 1383.04,-96.28 1408.12,-86.58"/>
<polygon fill="midnightblue" stroke="midnightblue" points="1321.02,-116.52 1312.95,-123.4 1323.54,-123.05 1321.02,-116.52"/>
</g>
<!-- Node23 -->
<g id="node23" class="node">
<title>Node23</title>
<g id="a_node23"><a xlink:href="apps_2serial_2stokes_8cc.html" target="_top" xlink:title=" ">
<polygon fill="none" stroke="black" points="1515.5,-62 1515.5,-81 1633.5,-81 1633.5,-62 1515.5,-62"/>
<text text-anchor="middle" x="1574.5" y="-69" font-family="Helvetica,sans-Serif" font-size="10.00">apps/serial/stokes.cc</text>
</a>
</g>
</g>
<!-- Node21&#45;&gt;Node23 -->
<g id="edge22" class="edge">
<title>Node21&#45;&gt;Node23</title>
<path fill="none" stroke="midnightblue" d="M1340.69,-122.75C1414.28,-106.43 1488.82,-90.56 1533.71,-81.08"/>
<polygon fill="midnightblue" stroke="midnightblue" points="1339.79,-119.37 1330.78,-124.95 1341.31,-126.2 1339.79,-119.37"/>
</g>
</g>
</svg>
