<?xml version="1.0" encoding="UTF-8" standalone="no"?>
<!DOCTYPE svg PUBLIC "-//W3C//DTD SVG 1.1//EN"
 "http://www.w3.org/Graphics/SVG/1.1/DTD/svg11.dtd">
<!-- Generated by graphviz version 2.43.0 (0)
 -->
<!-- Title: include/parsed_lac/ilu.h Pages: 1 -->
<svg width="542pt" height="173pt"
 viewBox="0.00 0.00 542.00 173.00" xmlns="http://www.w3.org/2000/svg" xmlns:xlink="http://www.w3.org/1999/xlink">
<g id="graph0" class="graph" transform="scale(1 1) rotate(0) translate(4 169)">
<title>include/parsed_lac/ilu.h</title>
<!-- Node1 -->
<g id="node1" class="node">
<title>Node1</title>
<g id="a_node1"><a xlink:title=" ">
<polygon fill="#bfbfbf" stroke="black" points="268,-134.5 268,-164.5 375,-164.5 375,-134.5 268,-134.5"/>
<text text-anchor="start" x="276" y="-152.5" font-family="Helvetica,sans-Serif" font-size="10.00">include/parsed_lac</text>
<text text-anchor="middle" x="321.5" y="-141.5" font-family="Helvetica,sans-Serif" font-size="10.00">/ilu.h</text>
</a>
</g>
</g>
<!-- Node2 -->
<g id="node2" class="node">
<title>Node2</title>
<g id="a_node2"><a xlink:href="serial_2stokes_8h.html" target="_top" xlink:title=" ">
<polygon fill="none" stroke="black" points="128.5,-67.5 128.5,-97.5 236.5,-97.5 236.5,-67.5 128.5,-67.5"/>
<text text-anchor="start" x="136.5" y="-85.5" font-family="Helvetica,sans-Serif" font-size="10.00">include/pdes/serial</text>
<text text-anchor="middle" x="182.5" y="-74.5" font-family="Helvetica,sans-Serif" font-size="10.00">/stokes.h</text>
</a>
</g>
</g>
<!-- Node1&#45;&gt;Node2 -->
<g id="edge1" class="edge">
<title>Node1&#45;&gt;Node2</title>
<path fill="none" stroke="midnightblue" d="M282.22,-130.13C260.13,-119.8 232.99,-107.11 212.6,-97.58"/>
<polygon fill="midnightblue" stroke="midnightblue" points="280.8,-133.33 291.34,-134.4 283.76,-126.99 280.8,-133.33"/>
</g>
<!-- Node5 -->
<g id="node5" class="node">
<title>Node5</title>
<g id="a_node5"><a xlink:href="stokes_8h.html" target="_top" xlink:title=" ">
<polygon fill="none" stroke="black" points="260.5,-73 260.5,-92 382.5,-92 382.5,-73 260.5,-73"/>
<text text-anchor="middle" x="321.5" y="-80" font-family="Helvetica,sans-Serif" font-size="10.00">include/pdes/stokes.h</text>
</a>
</g>
</g>
<!-- Node1&#45;&gt;Node5 -->
<g id="edge4" class="edge">
<title>Node1&#45;&gt;Node5</title>
<path fill="none" stroke="midnightblue" d="M321.5,-124.25C321.5,-113.02 321.5,-100.38 321.5,-92.19"/>
<polygon fill="midnightblue" stroke="midnightblue" points="318,-124.4 321.5,-134.4 325,-124.4 318,-124.4"/>
</g>
<!-- Node8 -->
<g id="node8" class="node">
<title>Node8</title>
<g id="a_node8"><a xlink:href="ilu_8cc.html" target="_top" xlink:title=" ">
<polygon fill="none" stroke="black" points="401,-73 401,-92 534,-92 534,-73 401,-73"/>
<text text-anchor="middle" x="467.5" y="-80" font-family="Helvetica,sans-Serif" font-size="10.00">source/parsed_lac/ilu.cc</text>
</a>
</g>
</g>
<!-- Node1&#45;&gt;Node8 -->
<g id="edge7" class="edge">
<title>Node1&#45;&gt;Node8</title>
<path fill="none" stroke="midnightblue" d="M362.39,-130.3C390.55,-117.76 426.66,-101.68 448.39,-92.01"/>
<polygon fill="midnightblue" stroke="midnightblue" points="360.89,-127.13 353.18,-134.4 363.74,-133.53 360.89,-127.13"/>
</g>
<!-- Node3 -->
<g id="node3" class="node">
<title>Node3</title>
<g id="a_node3"><a xlink:href="source_2pdes_2serial_2stokes_8cc.html" target="_top" xlink:title=" ">
<polygon fill="none" stroke="black" points="0,-0.5 0,-30.5 105,-30.5 105,-0.5 0,-0.5"/>
<text text-anchor="start" x="8" y="-18.5" font-family="Helvetica,sans-Serif" font-size="10.00">source/pdes/serial</text>
<text text-anchor="middle" x="52.5" y="-7.5" font-family="Helvetica,sans-Serif" font-size="10.00">/stokes.cc</text>
</a>
</g>
</g>
<!-- Node2&#45;&gt;Node3 -->
<g id="edge2" class="edge">
<title>Node2&#45;&gt;Node3</title>
<path fill="none" stroke="midnightblue" d="M145.21,-62.85C124.65,-52.58 99.55,-40.03 80.65,-30.58"/>
<polygon fill="midnightblue" stroke="midnightblue" points="143.78,-66.05 154.29,-67.4 146.91,-59.79 143.78,-66.05"/>
</g>
<!-- Node4 -->
<g id="node4" class="node">
<title>Node4</title>
<g id="a_node4"><a xlink:href="apps_2serial_2stokes_8cc.html" target="_top" xlink:title=" ">
<polygon fill="none" stroke="black" points="123.5,-6 123.5,-25 241.5,-25 241.5,-6 123.5,-6"/>
<text text-anchor="middle" x="182.5" y="-13" font-family="Helvetica,sans-Serif" font-size="10.00">apps/serial/stokes.cc</text>
</a>
</g>
</g>
<!-- Node2&#45;&gt;Node4 -->
<g id="edge3" class="edge">
<title>Node2&#45;&gt;Node4</title>
<path fill="none" stroke="midnightblue" d="M182.5,-57.25C182.5,-46.02 182.5,-33.38 182.5,-25.19"/>
<polygon fill="midnightblue" stroke="midnightblue" points="179,-57.4 182.5,-67.4 186,-57.4 179,-57.4"/>
</g>
<!-- Node6 -->
<g id="node6" class="node">
<title>Node6</title>
<g id="a_node6"><a xlink:href="source_2pdes_2stokes_8cc.html" target="_top" xlink:title=" ">
<polygon fill="none" stroke="black" points="260,-6 260,-25 383,-25 383,-6 260,-6"/>
<text text-anchor="middle" x="321.5" y="-13" font-family="Helvetica,sans-Serif" font-size="10.00">source/pdes/stokes.cc</text>
</a>
</g>
</g>
<!-- Node5&#45;&gt;Node6 -->
<g id="edge5" class="edge">
<title>Node5&#45;&gt;Node6</title>
<path fill="none" stroke="midnightblue" d="M321.5,-62.54C321.5,-50.17 321.5,-34.62 321.5,-25.13"/>
<polygon fill="midnightblue" stroke="midnightblue" points="318,-62.73 321.5,-72.73 325,-62.73 318,-62.73"/>
</g>
<!-- Node7 -->
<g id="node7" class="node">
<title>Node7</title>
<g id="a_node7"><a xlink:href="apps_2mpi_2stokes_8cc.html" target="_top" xlink:title=" ">
<polygon fill="none" stroke="black" points="401.5,-6 401.5,-25 511.5,-25 511.5,-6 401.5,-6"/>
<text text-anchor="middle" x="456.5" y="-13" font-family="Helvetica,sans-Serif" font-size="10.00">apps/mpi/stokes.cc</text>
</a>
</g>
</g>
<!-- Node5&#45;&gt;Node7 -->
<g id="edge6" class="edge">
<title>Node5&#45;&gt;Node7</title>
<path fill="none" stroke="midnightblue" d="M348.62,-68.44C375.36,-55.57 415.47,-36.26 438.5,-25.17"/>
<polygon fill="midnightblue" stroke="midnightblue" points="346.92,-65.38 339.43,-72.87 349.96,-71.68 346.92,-65.38"/>
</g>
</g>
</svg>
