<?xml version="1.0" encoding="UTF-8" standalone="no"?>
<!DOCTYPE svg PUBLIC "-//W3C//DTD SVG 1.1//EN"
 "http://www.w3.org/Graphics/SVG/1.1/DTD/svg11.dtd">
<!-- Generated by graphviz version 2.43.0 (0)
 -->
<!-- Title: include/parsed_lac/ilu.h Pages: 1 -->
<svg width="686pt" height="240pt"
 viewBox="0.00 0.00 686.00 240.00" xmlns="http://www.w3.org/2000/svg" xmlns:xlink="http://www.w3.org/1999/xlink">
<g id="graph0" class="graph" transform="scale(1 1) rotate(0) translate(4 236)">
<title>include/parsed_lac/ilu.h</title>
<!-- Node1 -->
<g id="node1" class="node">
<title>Node1</title>
<g id="a_node1"><a xlink:title=" ">
<polygon fill="#bfbfbf" stroke="black" points="342,-201.5 342,-231.5 449,-231.5 449,-201.5 342,-201.5"/>
<text text-anchor="start" x="350" y="-219.5" font-family="Helvetica,sans-Serif" font-size="10.00">include/parsed_lac</text>
<text text-anchor="middle" x="395.5" y="-208.5" font-family="Helvetica,sans-Serif" font-size="10.00">/ilu.h</text>
</a>
</g>
</g>
<!-- Node2 -->
<g id="node2" class="node">
<title>Node2</title>
<g id="a_node2"><a xlink:href="lac_8h.html" target="_top" xlink:title=" ">
<polygon fill="none" stroke="black" points="102.5,-140 102.5,-159 180.5,-159 180.5,-140 102.5,-140"/>
<text text-anchor="middle" x="141.5" y="-147" font-family="Helvetica,sans-Serif" font-size="10.00">include/lac.h</text>
</a>
</g>
</g>
<!-- Node1&#45;&gt;Node2 -->
<g id="edge1" class="edge">
<title>Node1&#45;&gt;Node2</title>
<path fill="none" stroke="midnightblue" d="M332.21,-199.3C282.3,-186.53 214.67,-169.22 174.8,-159.02"/>
<polygon fill="midnightblue" stroke="midnightblue" points="331.39,-202.71 341.94,-201.79 333.12,-195.92 331.39,-202.71"/>
</g>
<!-- Node5 -->
<g id="node5" class="node">
<title>Node5</title>
<g id="a_node5"><a xlink:href="serial_2stokes_8h.html" target="_top" xlink:title=" ">
<polygon fill="none" stroke="black" points="275.5,-134.5 275.5,-164.5 383.5,-164.5 383.5,-134.5 275.5,-134.5"/>
<text text-anchor="start" x="283.5" y="-152.5" font-family="Helvetica,sans-Serif" font-size="10.00">include/pdes/serial</text>
<text text-anchor="middle" x="329.5" y="-141.5" font-family="Helvetica,sans-Serif" font-size="10.00">/stokes.h</text>
</a>
</g>
</g>
<!-- Node1&#45;&gt;Node5 -->
<g id="edge4" class="edge">
<title>Node1&#45;&gt;Node5</title>
<path fill="none" stroke="midnightblue" d="M373.99,-194.31C364.09,-184.56 352.61,-173.26 343.79,-164.58"/>
<polygon fill="midnightblue" stroke="midnightblue" points="371.6,-196.87 381.18,-201.4 376.51,-191.89 371.6,-196.87"/>
</g>
<!-- Node8 -->
<g id="node8" class="node">
<title>Node8</title>
<g id="a_node8"><a xlink:href="stokes_8h.html" target="_top" xlink:title=" ">
<polygon fill="none" stroke="black" points="404.5,-140 404.5,-159 526.5,-159 526.5,-140 404.5,-140"/>
<text text-anchor="middle" x="465.5" y="-147" font-family="Helvetica,sans-Serif" font-size="10.00">include/pdes/stokes.h</text>
</a>
</g>
</g>
<!-- Node1&#45;&gt;Node8 -->
<g id="edge7" class="edge">
<title>Node1&#45;&gt;Node8</title>
<path fill="none" stroke="midnightblue" d="M418.29,-194.34C431.15,-182.4 446.51,-168.14 456.14,-159.19"/>
<polygon fill="midnightblue" stroke="midnightblue" points="415.64,-192.03 410.69,-201.4 420.4,-197.16 415.64,-192.03"/>
</g>
<!-- Node11 -->
<g id="node11" class="node">
<title>Node11</title>
<g id="a_node11"><a xlink:href="ilu_8cc.html" target="_top" xlink:title=" ">
<polygon fill="none" stroke="black" points="545,-140 545,-159 678,-159 678,-140 545,-140"/>
<text text-anchor="middle" x="611.5" y="-147" font-family="Helvetica,sans-Serif" font-size="10.00">source/parsed_lac/ilu.cc</text>
</a>
</g>
</g>
<!-- Node1&#45;&gt;Node11 -->
<g id="edge10" class="edge">
<title>Node1&#45;&gt;Node11</title>
<path fill="none" stroke="midnightblue" d="M451.69,-198.59C493.88,-185.9 549.88,-169.04 583.16,-159.03"/>
<polygon fill="midnightblue" stroke="midnightblue" points="450.67,-195.24 442.1,-201.48 452.69,-201.95 450.67,-195.24"/>
</g>
<!-- Node3 -->
<g id="node3" class="node">
<title>Node3</title>
<g id="a_node3"><a xlink:href="lac__initializer_8h.html" target="_top" xlink:title=" ">
<polygon fill="none" stroke="black" points="0,-73 0,-92 129,-92 129,-73 0,-73"/>
<text text-anchor="middle" x="64.5" y="-80" font-family="Helvetica,sans-Serif" font-size="10.00">include/lac_initializer.h</text>
</a>
</g>
</g>
<!-- Node2&#45;&gt;Node3 -->
<g id="edge2" class="edge">
<title>Node2&#45;&gt;Node3</title>
<path fill="none" stroke="midnightblue" d="M123.39,-133.21C108.22,-120.41 87.11,-102.59 74.72,-92.13"/>
<polygon fill="midnightblue" stroke="midnightblue" points="121.22,-135.96 131.12,-139.73 125.73,-130.61 121.22,-135.96"/>
</g>
<!-- Node4 -->
<g id="node4" class="node">
<title>Node4</title>
<g id="a_node4"><a xlink:href="linear__problem_8cc.html" target="_top" xlink:title=" ">
<polygon fill="none" stroke="black" points="11.5,-0.5 11.5,-30.5 117.5,-30.5 117.5,-0.5 11.5,-0.5"/>
<text text-anchor="start" x="19.5" y="-18.5" font-family="Helvetica,sans-Serif" font-size="10.00">source/pdes/linear</text>
<text text-anchor="middle" x="64.5" y="-7.5" font-family="Helvetica,sans-Serif" font-size="10.00">_problem.cc</text>
</a>
</g>
</g>
<!-- Node3&#45;&gt;Node4 -->
<g id="edge3" class="edge">
<title>Node3&#45;&gt;Node4</title>
<path fill="none" stroke="midnightblue" d="M64.5,-62.41C64.5,-52.22 64.5,-39.9 64.5,-30.59"/>
<polygon fill="midnightblue" stroke="midnightblue" points="61,-62.73 64.5,-72.73 68,-62.73 61,-62.73"/>
</g>
<!-- Node6 -->
<g id="node6" class="node">
<title>Node6</title>
<g id="a_node6"><a xlink:href="source_2pdes_2serial_2stokes_8cc.html" target="_top" xlink:title=" ">
<polygon fill="none" stroke="black" points="147,-67.5 147,-97.5 252,-97.5 252,-67.5 147,-67.5"/>
<text text-anchor="start" x="155" y="-85.5" font-family="Helvetica,sans-Serif" font-size="10.00">source/pdes/serial</text>
<text text-anchor="middle" x="199.5" y="-74.5" font-family="Helvetica,sans-Serif" font-size="10.00">/stokes.cc</text>
</a>
</g>
</g>
<!-- Node5&#45;&gt;Node6 -->
<g id="edge5" class="edge">
<title>Node5&#45;&gt;Node6</title>
<path fill="none" stroke="midnightblue" d="M292.21,-129.85C271.65,-119.58 246.55,-107.03 227.65,-97.58"/>
<polygon fill="midnightblue" stroke="midnightblue" points="290.78,-133.05 301.29,-134.4 293.91,-126.79 290.78,-133.05"/>
</g>
<!-- Node7 -->
<g id="node7" class="node">
<title>Node7</title>
<g id="a_node7"><a xlink:href="apps_2serial_2stokes_8cc.html" target="_top" xlink:title=" ">
<polygon fill="none" stroke="black" points="270.5,-73 270.5,-92 388.5,-92 388.5,-73 270.5,-73"/>
<text text-anchor="middle" x="329.5" y="-80" font-family="Helvetica,sans-Serif" font-size="10.00">apps/serial/stokes.cc</text>
</a>
</g>
</g>
<!-- Node5&#45;&gt;Node7 -->
<g id="edge6" class="edge">
<title>Node5&#45;&gt;Node7</title>
<path fill="none" stroke="midnightblue" d="M329.5,-124.25C329.5,-113.02 329.5,-100.38 329.5,-92.19"/>
<polygon fill="midnightblue" stroke="midnightblue" points="326,-124.4 329.5,-134.4 333,-124.4 326,-124.4"/>
</g>
<!-- Node9 -->
<g id="node9" class="node">
<title>Node9</title>
<g id="a_node9"><a xlink:href="source_2pdes_2stokes_8cc.html" target="_top" xlink:title=" ">
<polygon fill="none" stroke="black" points="407,-73 407,-92 530,-92 530,-73 407,-73"/>
<text text-anchor="middle" x="468.5" y="-80" font-family="Helvetica,sans-Serif" font-size="10.00">source/pdes/stokes.cc</text>
</a>
</g>
</g>
<!-- Node8&#45;&gt;Node9 -->
<g id="edge8" class="edge">
<title>Node8&#45;&gt;Node9</title>
<path fill="none" stroke="midnightblue" d="M466.38,-129.54C466.95,-117.17 467.66,-101.62 468.1,-92.13"/>
<polygon fill="midnightblue" stroke="midnightblue" points="462.87,-129.58 465.9,-139.73 469.86,-129.91 462.87,-129.58"/>
</g>
<!-- Node10 -->
<g id="node10" class="node">
<title>Node10</title>
<g id="a_node10"><a xlink:href="apps_2mpi_2stokes_8cc.html" target="_top" xlink:title=" ">
<polygon fill="none" stroke="black" points="548.5,-73 548.5,-92 658.5,-92 658.5,-73 548.5,-73"/>
<text text-anchor="middle" x="603.5" y="-80" font-family="Helvetica,sans-Serif" font-size="10.00">apps/mpi/stokes.cc</text>
</a>
</g>
</g>
<!-- Node8&#45;&gt;Node10 -->
<g id="edge9" class="edge">
<title>Node8&#45;&gt;Node10</title>
<path fill="none" stroke="midnightblue" d="M493.22,-135.44C520.55,-122.57 561.55,-103.26 585.1,-92.17"/>
<polygon fill="midnightblue" stroke="midnightblue" points="491.38,-132.44 483.83,-139.87 494.36,-138.77 491.38,-132.44"/>
</g>
</g>
</svg>
