<?xml version="1.0" encoding="UTF-8" standalone="no"?>
<!DOCTYPE svg PUBLIC "-//W3C//DTD SVG 1.1//EN"
 "http://www.w3.org/Graphics/SVG/1.1/DTD/svg11.dtd">
<!-- Generated by graphviz version 2.43.0 (0)
 -->
<!-- Title: include/parsed_lac/ilu.h Pages: 1 -->
<svg width="755pt" height="240pt"
 viewBox="0.00 0.00 755.00 240.00" xmlns="http://www.w3.org/2000/svg" xmlns:xlink="http://www.w3.org/1999/xlink">
<g id="graph0" class="graph" transform="scale(1 1) rotate(0) translate(4 236)">
<title>include/parsed_lac/ilu.h</title>
<!-- Node1 -->
<g id="node1" class="node">
<title>Node1</title>
<g id="a_node1"><a xlink:title=" ">
<polygon fill="#bfbfbf" stroke="black" points="411,-201.5 411,-231.5 518,-231.5 518,-201.5 411,-201.5"/>
<text text-anchor="start" x="419" y="-219.5" font-family="Helvetica,sans-Serif" font-size="10.00">include/parsed_lac</text>
<text text-anchor="middle" x="464.5" y="-208.5" font-family="Helvetica,sans-Serif" font-size="10.00">/ilu.h</text>
</a>
</g>
</g>
<!-- Node2 -->
<g id="node2" class="node">
<title>Node2</title>
<g id="a_node2"><a xlink:href="lac_8h.html" target="_top" xlink:title=" ">
<polygon fill="none" stroke="black" points="171.5,-140 171.5,-159 249.5,-159 249.5,-140 171.5,-140"/>
<text text-anchor="middle" x="210.5" y="-147" font-family="Helvetica,sans-Serif" font-size="10.00">include/lac.h</text>
</a>
</g>
</g>
<!-- Node1&#45;&gt;Node2 -->
<g id="edge1" class="edge">
<title>Node1&#45;&gt;Node2</title>
<path fill="none" stroke="midnightblue" d="M401.21,-199.3C351.3,-186.53 283.67,-169.22 243.8,-159.02"/>
<polygon fill="midnightblue" stroke="midnightblue" points="400.39,-202.71 410.94,-201.79 402.12,-195.92 400.39,-202.71"/>
</g>
<!-- Node6 -->
<g id="node6" class="node">
<title>Node6</title>
<g id="a_node6"><a xlink:href="serial_2stokes_8h.html" target="_top" xlink:title=" ">
<polygon fill="none" stroke="black" points="344.5,-134.5 344.5,-164.5 452.5,-164.5 452.5,-134.5 344.5,-134.5"/>
<text text-anchor="start" x="352.5" y="-152.5" font-family="Helvetica,sans-Serif" font-size="10.00">include/pdes/serial</text>
<text text-anchor="middle" x="398.5" y="-141.5" font-family="Helvetica,sans-Serif" font-size="10.00">/stokes.h</text>
</a>
</g>
</g>
<!-- Node1&#45;&gt;Node6 -->
<g id="edge5" class="edge">
<title>Node1&#45;&gt;Node6</title>
<path fill="none" stroke="midnightblue" d="M442.99,-194.31C433.09,-184.56 421.61,-173.26 412.79,-164.58"/>
<polygon fill="midnightblue" stroke="midnightblue" points="440.6,-196.87 450.18,-201.4 445.51,-191.89 440.6,-196.87"/>
</g>
<!-- Node9 -->
<g id="node9" class="node">
<title>Node9</title>
<g id="a_node9"><a xlink:href="stokes_8h.html" target="_top" xlink:title=" ">
<polygon fill="none" stroke="black" points="473.5,-140 473.5,-159 595.5,-159 595.5,-140 473.5,-140"/>
<text text-anchor="middle" x="534.5" y="-147" font-family="Helvetica,sans-Serif" font-size="10.00">include/pdes/stokes.h</text>
</a>
</g>
</g>
<!-- Node1&#45;&gt;Node9 -->
<g id="edge8" class="edge">
<title>Node1&#45;&gt;Node9</title>
<path fill="none" stroke="midnightblue" d="M487.29,-194.34C500.15,-182.4 515.51,-168.14 525.14,-159.19"/>
<polygon fill="midnightblue" stroke="midnightblue" points="484.64,-192.03 479.69,-201.4 489.4,-197.16 484.64,-192.03"/>
</g>
<!-- Node12 -->
<g id="node12" class="node">
<title>Node12</title>
<g id="a_node12"><a xlink:href="ilu_8cc.html" target="_top" xlink:title=" ">
<polygon fill="none" stroke="black" points="614,-140 614,-159 747,-159 747,-140 614,-140"/>
<text text-anchor="middle" x="680.5" y="-147" font-family="Helvetica,sans-Serif" font-size="10.00">source/parsed_lac/ilu.cc</text>
</a>
</g>
</g>
<!-- Node1&#45;&gt;Node12 -->
<g id="edge11" class="edge">
<title>Node1&#45;&gt;Node12</title>
<path fill="none" stroke="midnightblue" d="M520.69,-198.59C562.88,-185.9 618.88,-169.04 652.16,-159.03"/>
<polygon fill="midnightblue" stroke="midnightblue" points="519.67,-195.24 511.1,-201.48 521.69,-201.95 519.67,-195.24"/>
</g>
<!-- Node3 -->
<g id="node3" class="node">
<title>Node3</title>
<g id="a_node3"><a xlink:href="lac__initializer_8h.html" target="_top" xlink:title=" ">
<polygon fill="none" stroke="black" points="69,-73 69,-92 198,-92 198,-73 69,-73"/>
<text text-anchor="middle" x="133.5" y="-80" font-family="Helvetica,sans-Serif" font-size="10.00">include/lac_initializer.h</text>
</a>
</g>
</g>
<!-- Node2&#45;&gt;Node3 -->
<g id="edge2" class="edge">
<title>Node2&#45;&gt;Node3</title>
<path fill="none" stroke="midnightblue" d="M192.39,-133.21C177.22,-120.41 156.11,-102.59 143.72,-92.13"/>
<polygon fill="midnightblue" stroke="midnightblue" points="190.22,-135.96 200.12,-139.73 194.73,-130.61 190.22,-135.96"/>
</g>
<!-- Node4 -->
<g id="node4" class="node">
<title>Node4</title>
<g id="a_node4"><a xlink:href="source_2pdes_2distributed__lagrange_8cc.html" target="_top" xlink:title=" ">
<polygon fill="none" stroke="black" points="0,-0.5 0,-30.5 131,-30.5 131,-0.5 0,-0.5"/>
<text text-anchor="start" x="8" y="-18.5" font-family="Helvetica,sans-Serif" font-size="10.00">source/pdes/distributed</text>
<text text-anchor="middle" x="65.5" y="-7.5" font-family="Helvetica,sans-Serif" font-size="10.00">_lagrange.cc</text>
</a>
</g>
</g>
<!-- Node3&#45;&gt;Node4 -->
<g id="edge3" class="edge">
<title>Node3&#45;&gt;Node4</title>
<path fill="none" stroke="midnightblue" d="M116.88,-65.62C105.68,-54.91 91.03,-40.9 80.24,-30.59"/>
<polygon fill="midnightblue" stroke="midnightblue" points="114.68,-68.35 124.33,-72.73 119.52,-63.29 114.68,-68.35"/>
</g>
<!-- Node5 -->
<g id="node5" class="node">
<title>Node5</title>
<g id="a_node5"><a xlink:href="linear__problem_8cc.html" target="_top" xlink:title=" ">
<polygon fill="none" stroke="black" points="149.5,-0.5 149.5,-30.5 255.5,-30.5 255.5,-0.5 149.5,-0.5"/>
<text text-anchor="start" x="157.5" y="-18.5" font-family="Helvetica,sans-Serif" font-size="10.00">source/pdes/linear</text>
<text text-anchor="middle" x="202.5" y="-7.5" font-family="Helvetica,sans-Serif" font-size="10.00">_problem.cc</text>
</a>
</g>
</g>
<!-- Node3&#45;&gt;Node5 -->
<g id="edge4" class="edge">
<title>Node3&#45;&gt;Node5</title>
<path fill="none" stroke="midnightblue" d="M150.36,-65.62C161.73,-54.91 176.6,-40.9 187.54,-30.59"/>
<polygon fill="midnightblue" stroke="midnightblue" points="147.68,-63.33 142.81,-72.73 152.48,-68.42 147.68,-63.33"/>
</g>
<!-- Node7 -->
<g id="node7" class="node">
<title>Node7</title>
<g id="a_node7"><a xlink:href="source_2pdes_2serial_2stokes_8cc.html" target="_top" xlink:title=" ">
<polygon fill="none" stroke="black" points="216,-67.5 216,-97.5 321,-97.5 321,-67.5 216,-67.5"/>
<text text-anchor="start" x="224" y="-85.5" font-family="Helvetica,sans-Serif" font-size="10.00">source/pdes/serial</text>
<text text-anchor="middle" x="268.5" y="-74.5" font-family="Helvetica,sans-Serif" font-size="10.00">/stokes.cc</text>
</a>
</g>
</g>
<!-- Node6&#45;&gt;Node7 -->
<g id="edge6" class="edge">
<title>Node6&#45;&gt;Node7</title>
<path fill="none" stroke="midnightblue" d="M361.21,-129.85C340.65,-119.58 315.55,-107.03 296.65,-97.58"/>
<polygon fill="midnightblue" stroke="midnightblue" points="359.78,-133.05 370.29,-134.4 362.91,-126.79 359.78,-133.05"/>
</g>
<!-- Node8 -->
<g id="node8" class="node">
<title>Node8</title>
<g id="a_node8"><a xlink:href="apps_2serial_2stokes_8cc.html" target="_top" xlink:title=" ">
<polygon fill="none" stroke="black" points="339.5,-73 339.5,-92 457.5,-92 457.5,-73 339.5,-73"/>
<text text-anchor="middle" x="398.5" y="-80" font-family="Helvetica,sans-Serif" font-size="10.00">apps/serial/stokes.cc</text>
</a>
</g>
</g>
<!-- Node6&#45;&gt;Node8 -->
<g id="edge7" class="edge">
<title>Node6&#45;&gt;Node8</title>
<path fill="none" stroke="midnightblue" d="M398.5,-124.25C398.5,-113.02 398.5,-100.38 398.5,-92.19"/>
<polygon fill="midnightblue" stroke="midnightblue" points="395,-124.4 398.5,-134.4 402,-124.4 395,-124.4"/>
</g>
<!-- Node10 -->
<g id="node10" class="node">
<title>Node10</title>
<g id="a_node10"><a xlink:href="source_2pdes_2stokes_8cc.html" target="_top" xlink:title=" ">
<polygon fill="none" stroke="black" points="476,-73 476,-92 599,-92 599,-73 476,-73"/>
<text text-anchor="middle" x="537.5" y="-80" font-family="Helvetica,sans-Serif" font-size="10.00">source/pdes/stokes.cc</text>
</a>
</g>
</g>
<!-- Node9&#45;&gt;Node10 -->
<g id="edge9" class="edge">
<title>Node9&#45;&gt;Node10</title>
<path fill="none" stroke="midnightblue" d="M535.38,-129.54C535.95,-117.17 536.66,-101.62 537.1,-92.13"/>
<polygon fill="midnightblue" stroke="midnightblue" points="531.87,-129.58 534.9,-139.73 538.86,-129.91 531.87,-129.58"/>
</g>
<!-- Node11 -->
<g id="node11" class="node">
<title>Node11</title>
<g id="a_node11"><a xlink:href="apps_2mpi_2stokes_8cc.html" target="_top" xlink:title=" ">
<polygon fill="none" stroke="black" points="617.5,-73 617.5,-92 727.5,-92 727.5,-73 617.5,-73"/>
<text text-anchor="middle" x="672.5" y="-80" font-family="Helvetica,sans-Serif" font-size="10.00">apps/mpi/stokes.cc</text>
</a>
</g>
</g>
<!-- Node9&#45;&gt;Node11 -->
<g id="edge10" class="edge">
<title>Node9&#45;&gt;Node11</title>
<path fill="none" stroke="midnightblue" d="M562.22,-135.44C589.55,-122.57 630.55,-103.26 654.1,-92.17"/>
<polygon fill="midnightblue" stroke="midnightblue" points="560.38,-132.44 552.83,-139.87 563.36,-138.77 560.38,-132.44"/>
</g>
</g>
</svg>
