<?xml version="1.0" encoding="UTF-8" standalone="no"?>
<!DOCTYPE svg PUBLIC "-//W3C//DTD SVG 1.1//EN"
 "http://www.w3.org/Graphics/SVG/1.1/DTD/svg11.dtd">
<!-- Generated by graphviz version 2.43.0 (0)
 -->
<!-- Title: Graphical Class Hierarchy Pages: 1 -->
<svg width="995pt" height="1327pt"
 viewBox="0.00 0.00 995.00 1326.50" xmlns="http://www.w3.org/2000/svg" xmlns:xlink="http://www.w3.org/1999/xlink">
<g id="graph0" class="graph" transform="scale(1 1) rotate(0) translate(4 1322.5)">
<title>Graphical Class Hierarchy</title>
<!-- Node46 -->
<g id="node1" class="node">
<title>Node46</title>
<g id="a_node1"><a xlink:href="http://www.dealii.org/developer/doxygen/deal.II/classDataOutInterface.html" xlink:title=" ">
<polygon fill="none" stroke="black" points="204,-1239 204,-1269 343,-1269 343,-1239 204,-1239"/>
<text text-anchor="start" x="212" y="-1257" font-family="Helvetica,sans-Serif" font-size="10.00">DataOutInterface&lt; patch</text>
<text text-anchor="middle" x="273.5" y="-1246" font-family="Helvetica,sans-Serif" font-size="10.00">_dim, patch_spacedim &gt;</text>
</a>
</g>
</g>
<!-- Node47 -->
<g id="node2" class="node">
<title>Node47</title>
<g id="a_node2"><a xlink:href="http://www.dealii.org/developer/doxygen/deal.II/classDataOut__DoFData.html" xlink:title=" ">
<polygon fill="none" stroke="black" points="429,-1239 429,-1269 567,-1269 567,-1239 429,-1239"/>
<text text-anchor="start" x="437" y="-1257" font-family="Helvetica,sans-Serif" font-size="10.00">DataOut_DoFData&lt; dim,</text>
<text text-anchor="middle" x="498" y="-1246" font-family="Helvetica,sans-Serif" font-size="10.00"> dim, dim, dim &gt;</text>
</a>
</g>
</g>
<!-- Node46&#45;&gt;Node47 -->
<g id="edge1" class="edge">
<title>Node46&#45;&gt;Node47</title>
<path fill="none" stroke="midnightblue" d="M353.12,-1254C377.77,-1254 404.77,-1254 428.65,-1254"/>
<polygon fill="midnightblue" stroke="midnightblue" points="353.07,-1250.5 343.07,-1254 353.07,-1257.5 353.07,-1250.5"/>
</g>
<!-- Node9 -->
<g id="node3" class="node">
<title>Node9</title>
<g id="a_node3"><a xlink:href="class_parsed_tools_1_1_data_out.html" target="_top" xlink:title=" ">
<polygon fill="none" stroke="black" points="668,-1244 668,-1274 789,-1274 789,-1244 668,-1244"/>
<text text-anchor="start" x="676" y="-1262" font-family="Helvetica,sans-Serif" font-size="10.00">ParsedTools::DataOut</text>
<text text-anchor="middle" x="728.5" y="-1251" font-family="Helvetica,sans-Serif" font-size="10.00">&lt; dim &gt;</text>
</a>
</g>
</g>
<!-- Node47&#45;&gt;Node9 -->
<g id="edge2" class="edge">
<title>Node47&#45;&gt;Node9</title>
<path fill="none" stroke="midnightblue" d="M577.54,-1255.72C607.08,-1256.37 640.17,-1257.09 667.74,-1257.69"/>
<polygon fill="midnightblue" stroke="midnightblue" points="577.32,-1252.21 567.25,-1255.49 577.17,-1259.21 577.32,-1252.21"/>
</g>
<!-- Node45 -->
<g id="node4" class="node">
<title>Node45</title>
<g id="a_node4"><a xlink:href="http://www.dealii.org/developer/doxygen/deal.II/classFiniteElementData.html" xlink:title=" ">
<polygon fill="none" stroke="black" points="440.5,-1151 440.5,-1181 555.5,-1181 555.5,-1151 440.5,-1151"/>
<text text-anchor="start" x="448.5" y="-1169" font-family="Helvetica,sans-Serif" font-size="10.00">FiniteElementData&lt;</text>
<text text-anchor="middle" x="498" y="-1158" font-family="Helvetica,sans-Serif" font-size="10.00"> dim &gt;</text>
</a>
</g>
</g>
<!-- Node1 -->
<g id="node5" class="node">
<title>Node1</title>
<g id="a_node5"><a xlink:href="class_parsed_tools_1_1_finite_element.html" target="_top" xlink:title=" ">
<polygon fill="none" stroke="black" points="655,-1195 655,-1225 802,-1225 802,-1195 655,-1195"/>
<text text-anchor="start" x="663" y="-1213" font-family="Helvetica,sans-Serif" font-size="10.00">ParsedTools::FiniteElement</text>
<text text-anchor="middle" x="728.5" y="-1202" font-family="Helvetica,sans-Serif" font-size="10.00">&lt; dim &gt;</text>
</a>
</g>
</g>
<!-- Node45&#45;&gt;Node1 -->
<g id="edge3" class="edge">
<title>Node45&#45;&gt;Node1</title>
<path fill="none" stroke="midnightblue" d="M565.82,-1178.87C593.67,-1184.23 626.1,-1190.48 654.58,-1195.96"/>
<polygon fill="midnightblue" stroke="midnightblue" points="566.26,-1175.39 555.78,-1176.93 564.93,-1182.26 566.26,-1175.39"/>
</g>
<!-- Node2 -->
<g id="node6" class="node">
<title>Node2</title>
<g id="a_node6"><a xlink:href="class_parsed_tools_1_1_finite_element.html" target="_top" xlink:title=" ">
<polygon fill="none" stroke="black" points="655,-1146 655,-1176 802,-1176 802,-1146 655,-1146"/>
<text text-anchor="start" x="663" y="-1164" font-family="Helvetica,sans-Serif" font-size="10.00">ParsedTools::FiniteElement</text>
<text text-anchor="middle" x="728.5" y="-1153" font-family="Helvetica,sans-Serif" font-size="10.00">&lt; dim, dim &gt;</text>
</a>
</g>
</g>
<!-- Node45&#45;&gt;Node2 -->
<g id="edge4" class="edge">
<title>Node45&#45;&gt;Node2</title>
<path fill="none" stroke="midnightblue" d="M565.82,-1164.54C593.67,-1163.93 626.1,-1163.22 654.58,-1162.6"/>
<polygon fill="midnightblue" stroke="midnightblue" points="565.7,-1161.04 555.78,-1164.76 565.85,-1168.04 565.7,-1161.04"/>
</g>
<!-- Node44 -->
<g id="node7" class="node">
<title>Node44</title>
<g id="a_node7"><a xlink:href="http://www.dealii.org/developer/doxygen/deal.II/classFunctionTime.html" xlink:title=" ">
<polygon fill="none" stroke="black" points="0,-1290.5 0,-1309.5 143,-1309.5 143,-1290.5 0,-1290.5"/>
<text text-anchor="middle" x="71.5" y="-1297.5" font-family="Helvetica,sans-Serif" font-size="10.00">FunctionTime&lt; Number &gt;</text>
</a>
</g>
</g>
<!-- Node3 -->
<g id="node8" class="node">
<title>Node3</title>
<g id="a_node8"><a xlink:href="http://www.dealii.org/developer/doxygen/deal.II/classFunction.html" xlink:title=" ">
<polygon fill="none" stroke="black" points="224,-1290.5 224,-1309.5 323,-1309.5 323,-1290.5 224,-1290.5"/>
<text text-anchor="middle" x="273.5" y="-1297.5" font-family="Helvetica,sans-Serif" font-size="10.00">Function&lt; dim &gt;</text>
</a>
</g>
</g>
<!-- Node44&#45;&gt;Node3 -->
<g id="edge5" class="edge">
<title>Node44&#45;&gt;Node3</title>
<path fill="none" stroke="midnightblue" d="M153.18,-1300C177.16,-1300 202.68,-1300 223.94,-1300"/>
<polygon fill="midnightblue" stroke="midnightblue" points="153.01,-1296.5 143.01,-1300 153.01,-1303.5 153.01,-1296.5"/>
</g>
<!-- Node4 -->
<g id="node9" class="node">
<title>Node4</title>
<g id="a_node9"><a xlink:href="http://www.dealii.org/developer/doxygen/deal.II/classAutoDerivativeFunction.html" xlink:title=" ">
<polygon fill="none" stroke="black" points="432.5,-1288 432.5,-1318 563.5,-1318 563.5,-1288 432.5,-1288"/>
<text text-anchor="start" x="440.5" y="-1306" font-family="Helvetica,sans-Serif" font-size="10.00">AutoDerivativeFunction</text>
<text text-anchor="middle" x="498" y="-1295" font-family="Helvetica,sans-Serif" font-size="10.00">&lt; dim &gt;</text>
</a>
</g>
</g>
<!-- Node3&#45;&gt;Node4 -->
<g id="edge6" class="edge">
<title>Node3&#45;&gt;Node4</title>
<path fill="none" stroke="midnightblue" d="M333.13,-1300.79C363.69,-1301.2 401.13,-1301.71 432.5,-1302.13"/>
<polygon fill="midnightblue" stroke="midnightblue" points="333.1,-1297.29 323.05,-1300.65 333.01,-1304.29 333.1,-1297.29"/>
</g>
<!-- Node5 -->
<g id="node10" class="node">
<title>Node5</title>
<g id="a_node10"><a xlink:href="http://www.dealii.org/developer/doxygen/deal.II/classFunctionParser.html" xlink:title=" ">
<polygon fill="none" stroke="black" points="663.5,-1293.5 663.5,-1312.5 793.5,-1312.5 793.5,-1293.5 663.5,-1293.5"/>
<text text-anchor="middle" x="728.5" y="-1300.5" font-family="Helvetica,sans-Serif" font-size="10.00">FunctionParser&lt; dim &gt;</text>
</a>
</g>
</g>
<!-- Node4&#45;&gt;Node5 -->
<g id="edge7" class="edge">
<title>Node4&#45;&gt;Node5</title>
<path fill="none" stroke="midnightblue" d="M573.65,-1303C602.67,-1303 635.58,-1303 663.49,-1303"/>
<polygon fill="midnightblue" stroke="midnightblue" points="573.56,-1299.5 563.56,-1303 573.56,-1306.5 573.56,-1299.5"/>
</g>
<!-- Node6 -->
<g id="node11" class="node">
<title>Node6</title>
<g id="a_node11"><a xlink:href="class_parsed_tools_1_1_function.html" target="_top" xlink:title="A wrapper for the FunctionParser class.">
<polygon fill="none" stroke="black" points="865,-1077 865,-1107 987,-1107 987,-1077 865,-1077"/>
<text text-anchor="start" x="873" y="-1095" font-family="Helvetica,sans-Serif" font-size="10.00">ParsedTools::Function</text>
<text text-anchor="middle" x="926" y="-1084" font-family="Helvetica,sans-Serif" font-size="10.00">&lt; dim &gt;</text>
</a>
</g>
</g>
<!-- Node5&#45;&gt;Node6 -->
<g id="edge8" class="edge">
<title>Node5&#45;&gt;Node6</title>
<path fill="none" stroke="midnightblue" d="M803.35,-1296.92C812.56,-1293.92 821.4,-1289.75 829,-1284 889.47,-1238.23 914.46,-1143.9 922.17,-1107.14"/>
<polygon fill="midnightblue" stroke="midnightblue" points="802.34,-1293.56 793.65,-1299.63 804.22,-1300.31 802.34,-1293.56"/>
</g>
<!-- Node39 -->
<g id="node12" class="node">
<title>Node39</title>
<g id="a_node12"><a xlink:href="http://www.dealii.org/developer/doxygen/deal.II/classSourceClass.html" xlink:title=" ">
<polygon fill="none" stroke="black" points="460,-88.5 460,-107.5 536,-107.5 536,-88.5 460,-88.5"/>
<text text-anchor="middle" x="498" y="-95.5" font-family="Helvetica,sans-Serif" font-size="10.00">SourceClass</text>
</a>
</g>
</g>
<!-- Node26 -->
<g id="node13" class="node">
<title>Node26</title>
<g id="a_node13"><a xlink:href="class_parsed_tools_1_1_proxy.html" target="_top" xlink:title="A proxy ParameterAcceptor wrapper for classes that have a member function add_parameters,...">
<polygon fill="none" stroke="black" points="674.5,-80 674.5,-110 782.5,-110 782.5,-80 674.5,-80"/>
<text text-anchor="start" x="682.5" y="-98" font-family="Helvetica,sans-Serif" font-size="10.00">ParsedTools::Proxy</text>
<text text-anchor="middle" x="728.5" y="-87" font-family="Helvetica,sans-Serif" font-size="10.00">&lt; SourceClass &gt;</text>
</a>
</g>
</g>
<!-- Node39&#45;&gt;Node26 -->
<g id="edge9" class="edge">
<title>Node39&#45;&gt;Node26</title>
<path fill="none" stroke="midnightblue" d="M546.31,-97.38C583.52,-96.89 635.37,-96.21 674.08,-95.7"/>
<polygon fill="midnightblue" stroke="midnightblue" points="546.17,-93.88 536.22,-97.51 546.27,-100.88 546.17,-93.88"/>
</g>
<!-- Node0 -->
<g id="node14" class="node">
<title>Node0</title>
<g id="a_node14"><a xlink:href="http://www.dealii.org/developer/doxygen/deal.II/classSubscriptor.html" xlink:title=" ">
<polygon fill="none" stroke="black" points="36,-1112.5 36,-1131.5 107,-1131.5 107,-1112.5 36,-1112.5"/>
<text text-anchor="middle" x="71.5" y="-1119.5" font-family="Helvetica,sans-Serif" font-size="10.00">Subscriptor</text>
</a>
</g>
</g>
<!-- Node0&#45;&gt;Node1 -->
<g id="edge10" class="edge">
<title>Node0&#45;&gt;Node1</title>
<path fill="none" stroke="midnightblue" d="M117.09,-1133.46C180.41,-1149.23 300.22,-1177.23 404,-1191 489.75,-1202.38 589.19,-1206.94 654.94,-1208.77"/>
<polygon fill="midnightblue" stroke="midnightblue" points="117.6,-1129.98 107.05,-1130.94 115.9,-1136.77 117.6,-1129.98"/>
</g>
<!-- Node0&#45;&gt;Node2 -->
<g id="edge11" class="edge">
<title>Node0&#45;&gt;Node2</title>
<path fill="none" stroke="midnightblue" d="M117.37,-1122.21C207.49,-1122.96 416.88,-1126.39 592,-1142 612.47,-1143.82 634.57,-1146.58 654.87,-1149.44"/>
<polygon fill="midnightblue" stroke="midnightblue" points="117.26,-1118.71 107.23,-1122.13 117.2,-1125.71 117.26,-1118.71"/>
</g>
<!-- Node0&#45;&gt;Node3 -->
<g id="edge12" class="edge">
<title>Node0&#45;&gt;Node3</title>
<path fill="none" stroke="midnightblue" d="M79.88,-1141.17C93.84,-1174.73 127.41,-1243.87 179,-1279 192.06,-1287.9 208.31,-1293.08 223.57,-1296.09"/>
<polygon fill="midnightblue" stroke="midnightblue" points="83.02,-1139.59 76.04,-1131.61 76.53,-1142.2 83.02,-1139.59"/>
</g>
<!-- Node7 -->
<g id="node15" class="node">
<title>Node7</title>
<g id="a_node15"><a xlink:href="http://www.dealii.org/developer/doxygen/deal.II/classParameterAcceptor.html" xlink:title=" ">
<polygon fill="none" stroke="black" points="443,-632.5 443,-651.5 553,-651.5 553,-632.5 443,-632.5"/>
<text text-anchor="middle" x="498" y="-639.5" font-family="Helvetica,sans-Serif" font-size="10.00">ParameterAcceptor</text>
</a>
</g>
</g>
<!-- Node0&#45;&gt;Node7 -->
<g id="edge13" class="edge">
<title>Node0&#45;&gt;Node7</title>
<path fill="none" stroke="midnightblue" d="M88.01,-1104.46C157.16,-1026.28 436.12,-710.84 488.5,-651.61"/>
<polygon fill="midnightblue" stroke="midnightblue" points="84.98,-1102.6 80.98,-1112.41 90.23,-1107.24 84.98,-1102.6"/>
</g>
<!-- Node33 -->
<g id="node39" class="node">
<title>Node33</title>
<g id="a_node39"><a xlink:href="http://www.dealii.org/developer/doxygen/deal.II/classTrilinosWrappers_1_1PreconditionBase.html" xlink:title=" ">
<polygon fill="none" stroke="black" points="179,-126.5 179,-145.5 368,-145.5 368,-126.5 179,-126.5"/>
<text text-anchor="middle" x="273.5" y="-133.5" font-family="Helvetica,sans-Serif" font-size="10.00">TrilinosWrappers::PreconditionBase</text>
</a>
</g>
</g>
<!-- Node0&#45;&gt;Node33 -->
<g id="edge42" class="edge">
<title>Node0&#45;&gt;Node33</title>
<path fill="none" stroke="midnightblue" d="M76.54,-1102.08C103.07,-971.28 251.85,-237.82 270.56,-145.54"/>
<polygon fill="midnightblue" stroke="midnightblue" points="73.04,-1101.74 74.48,-1112.24 79.9,-1103.14 73.04,-1101.74"/>
</g>
<!-- Node7&#45;&gt;Node9 -->
<g id="edge15" class="edge">
<title>Node7&#45;&gt;Node9</title>
<path fill="none" stroke="midnightblue" d="M502.08,-662.07C517.39,-760.85 586.29,-1192.34 628,-1235 638.56,-1245.8 653.08,-1252.07 667.76,-1255.64"/>
<polygon fill="midnightblue" stroke="midnightblue" points="505.5,-661.3 500.51,-651.95 498.58,-662.36 505.5,-661.3"/>
</g>
<!-- Node7&#45;&gt;Node1 -->
<g id="edge17" class="edge">
<title>Node7&#45;&gt;Node1</title>
<path fill="none" stroke="midnightblue" d="M500.93,-661.56C509.99,-749.69 551.22,-1108.92 628,-1186 635.46,-1193.49 644.83,-1198.8 654.82,-1202.53"/>
<polygon fill="midnightblue" stroke="midnightblue" points="504.4,-661.18 499.92,-651.58 497.44,-661.88 504.4,-661.18"/>
</g>
<!-- Node7&#45;&gt;Node2 -->
<g id="edge18" class="edge">
<title>Node7&#45;&gt;Node2</title>
<path fill="none" stroke="midnightblue" d="M501.48,-661.84C512.31,-745.29 558.02,-1066.66 628,-1136 635.53,-1143.46 644.93,-1148.8 654.93,-1152.61"/>
<polygon fill="midnightblue" stroke="midnightblue" points="504.95,-661.37 500.21,-651.89 498.01,-662.25 504.95,-661.37"/>
</g>
<!-- Node7&#45;&gt;Node6 -->
<g id="edge31" class="edge">
<title>Node7&#45;&gt;Node6</title>
<path fill="none" stroke="midnightblue" d="M504.41,-661.69C517.54,-705.57 555.52,-811.58 628,-863 702.22,-915.65 756.41,-847.12 829,-902 888.85,-947.24 914.15,-1040.2 922.06,-1076.76"/>
<polygon fill="midnightblue" stroke="midnightblue" points="507.73,-660.58 501.6,-651.94 501,-662.52 507.73,-660.58"/>
</g>
<!-- Node7&#45;&gt;Node26 -->
<g id="edge35" class="edge">
<title>Node7&#45;&gt;Node26</title>
<path fill="none" stroke="midnightblue" d="M502.61,-622.38C519.45,-531.85 590.96,-157.18 628,-120 640.26,-107.7 657.61,-101.14 674.4,-97.73"/>
<polygon fill="midnightblue" stroke="midnightblue" points="499.14,-621.92 500.76,-632.39 506.02,-623.2 499.14,-621.92"/>
</g>
<!-- Node8 -->
<g id="node16" class="node">
<title>Node8</title>
<g id="a_node16"><a xlink:href="class_parsed_tools_1_1_boundary_conditions.html" target="_top" xlink:title=" ">
<polygon fill="none" stroke="black" points="639,-676 639,-706 818,-706 818,-676 639,-676"/>
<text text-anchor="start" x="647" y="-694" font-family="Helvetica,sans-Serif" font-size="10.00">ParsedTools::BoundaryConditions</text>
<text text-anchor="middle" x="728.5" y="-683" font-family="Helvetica,sans-Serif" font-size="10.00">&lt; dim &gt;</text>
</a>
</g>
</g>
<!-- Node7&#45;&gt;Node8 -->
<g id="edge14" class="edge">
<title>Node7&#45;&gt;Node8</title>
<path fill="none" stroke="midnightblue" d="M553.12,-653.61C584.25,-660.28 623.71,-668.74 657.22,-675.93"/>
<polygon fill="midnightblue" stroke="midnightblue" points="553.84,-650.18 543.33,-651.51 552.37,-657.02 553.84,-650.18"/>
</g>
<!-- Node10 -->
<g id="node17" class="node">
<title>Node10</title>
<g id="a_node17"><a xlink:href="class_parsed_tools_1_1_data_out.html" target="_top" xlink:title=" ">
<polygon fill="none" stroke="black" points="668,-627 668,-657 789,-657 789,-627 668,-627"/>
<text text-anchor="start" x="676" y="-645" font-family="Helvetica,sans-Serif" font-size="10.00">ParsedTools::DataOut</text>
<text text-anchor="middle" x="728.5" y="-634" font-family="Helvetica,sans-Serif" font-size="10.00">&lt; dim, dim &gt;</text>
</a>
</g>
</g>
<!-- Node7&#45;&gt;Node10 -->
<g id="edge16" class="edge">
<title>Node7&#45;&gt;Node10</title>
<path fill="none" stroke="midnightblue" d="M563.52,-642C596.23,-642 635.7,-642 667.71,-642"/>
<polygon fill="midnightblue" stroke="midnightblue" points="563.15,-638.5 553.15,-642 563.15,-645.5 563.15,-638.5"/>
</g>
<!-- Node11 -->
<g id="node18" class="node">
<title>Node11</title>
<g id="a_node18"><a xlink:href="class_parsed_tools_1_1_grid_generator.html" target="_top" xlink:title=" ">
<polygon fill="none" stroke="black" points="654,-578 654,-608 803,-608 803,-578 654,-578"/>
<text text-anchor="start" x="662" y="-596" font-family="Helvetica,sans-Serif" font-size="10.00">ParsedTools::GridGenerator</text>
<text text-anchor="middle" x="728.5" y="-585" font-family="Helvetica,sans-Serif" font-size="10.00">&lt; dim &gt;</text>
</a>
</g>
</g>
<!-- Node7&#45;&gt;Node11 -->
<g id="edge19" class="edge">
<title>Node7&#45;&gt;Node11</title>
<path fill="none" stroke="midnightblue" d="M553.12,-630.39C584.25,-623.72 623.71,-615.26 657.22,-608.07"/>
<polygon fill="midnightblue" stroke="midnightblue" points="552.37,-626.98 543.33,-632.49 553.84,-633.82 552.37,-626.98"/>
</g>
<!-- Node12 -->
<g id="node19" class="node">
<title>Node12</title>
<g id="a_node19"><a xlink:href="class_parsed_tools_1_1_grid_generator.html" target="_top" xlink:title=" ">
<polygon fill="none" stroke="black" points="654,-529 654,-559 803,-559 803,-529 654,-529"/>
<text text-anchor="start" x="662" y="-547" font-family="Helvetica,sans-Serif" font-size="10.00">ParsedTools::GridGenerator</text>
<text text-anchor="middle" x="728.5" y="-536" font-family="Helvetica,sans-Serif" font-size="10.00">&lt; dim, dim &gt;</text>
</a>
</g>
</g>
<!-- Node7&#45;&gt;Node12 -->
<g id="edge20" class="edge">
<title>Node7&#45;&gt;Node12</title>
<path fill="none" stroke="midnightblue" d="M521.48,-626.79C546.5,-610.46 588.63,-584.75 628,-569 637.34,-565.26 647.41,-561.96 657.42,-559.07"/>
<polygon fill="midnightblue" stroke="midnightblue" points="519.48,-623.92 513.06,-632.35 523.34,-629.76 519.48,-623.92"/>
</g>
<!-- Node13 -->
<g id="node20" class="node">
<title>Node13</title>
<g id="a_node20"><a xlink:href="class_parsed_tools_1_1_mapping_eulerian.html" target="_top" xlink:title=" ">
<polygon fill="none" stroke="black" points="647.5,-480 647.5,-510 809.5,-510 809.5,-480 647.5,-480"/>
<text text-anchor="start" x="655.5" y="-498" font-family="Helvetica,sans-Serif" font-size="10.00">ParsedTools::MappingEulerian</text>
<text text-anchor="middle" x="728.5" y="-487" font-family="Helvetica,sans-Serif" font-size="10.00">&lt; dim, dim &gt;</text>
</a>
</g>
</g>
<!-- Node7&#45;&gt;Node13 -->
<g id="edge21" class="edge">
<title>Node7&#45;&gt;Node13</title>
<path fill="none" stroke="midnightblue" d="M512.64,-624.25C534.18,-597.48 578.71,-547.04 628,-520 635.1,-516.1 642.83,-512.8 650.72,-510"/>
<polygon fill="midnightblue" stroke="midnightblue" points="509.69,-622.33 506.24,-632.35 515.19,-626.67 509.69,-622.33"/>
</g>
<!-- Node14 -->
<g id="node21" class="node">
<title>Node14</title>
<g id="a_node21"><a xlink:href="class_parsed_l_a_c_1_1_a_m_g_mue_lu_preconditioner.html" target="_top" xlink:title="A parsed AMG preconditioner based on MueLu which uses parameter files to choose between different opt...">
<polygon fill="none" stroke="black" points="628,-167.5 628,-186.5 829,-186.5 829,-167.5 628,-167.5"/>
<text text-anchor="middle" x="728.5" y="-174.5" font-family="Helvetica,sans-Serif" font-size="10.00">ParsedLAC::AMGMueLuPreconditioner</text>
</a>
</g>
</g>
<!-- Node7&#45;&gt;Node14 -->
<g id="edge22" class="edge">
<title>Node7&#45;&gt;Node14</title>
<path fill="none" stroke="midnightblue" d="M501.96,-622.32C514.13,-544.17 562.68,-257.07 628,-197 632.54,-192.83 637.7,-189.42 643.22,-186.65"/>
<polygon fill="midnightblue" stroke="midnightblue" points="498.49,-621.87 500.44,-632.28 505.41,-622.93 498.49,-621.87"/>
</g>
<!-- Node15 -->
<g id="node22" class="node">
<title>Node15</title>
<g id="a_node22"><a xlink:href="class_parsed_l_a_c_1_1_a_m_g_preconditioner.html" target="_top" xlink:title="A parsed AMG preconditioner which uses parameter files to choose between different options.">
<polygon fill="none" stroke="black" points="644,-2.5 644,-21.5 813,-21.5 813,-2.5 644,-2.5"/>
<text text-anchor="middle" x="728.5" y="-9.5" font-family="Helvetica,sans-Serif" font-size="10.00">ParsedLAC::AMGPreconditioner</text>
</a>
</g>
</g>
<!-- Node7&#45;&gt;Node15 -->
<g id="edge23" class="edge">
<title>Node7&#45;&gt;Node15</title>
<path fill="none" stroke="midnightblue" d="M503.15,-622.63C516.28,-561.39 558.01,-366.49 592,-205 608.17,-128.15 572.28,-87.34 628,-32 632.63,-27.41 637.99,-23.72 643.79,-20.78"/>
<polygon fill="midnightblue" stroke="midnightblue" points="499.72,-621.96 501.04,-632.47 506.56,-623.43 499.72,-621.96"/>
</g>
<!-- Node16 -->
<g id="node23" class="node">
<title>Node16</title>
<g id="a_node23"><a xlink:href="class_parsed_l_a_c_1_1_i_l_u_preconditioner.html" target="_top" xlink:title="A parsed ILU preconditioner which uses parameter files to choose between different options.">
<polygon fill="none" stroke="black" points="648,-129.5 648,-148.5 809,-148.5 809,-129.5 648,-129.5"/>
<text text-anchor="middle" x="728.5" y="-136.5" font-family="Helvetica,sans-Serif" font-size="10.00">ParsedLAC::ILUPreconditioner</text>
</a>
</g>
</g>
<!-- Node7&#45;&gt;Node16 -->
<g id="edge24" class="edge">
<title>Node7&#45;&gt;Node16</title>
<path fill="none" stroke="midnightblue" d="M501.47,-622.2C512.2,-539.6 557.32,-223.78 628,-158 633.79,-152.61 640.62,-148.53 647.95,-145.46"/>
<polygon fill="midnightblue" stroke="midnightblue" points="497.99,-621.89 500.19,-632.25 504.93,-622.78 497.99,-621.89"/>
</g>
<!-- Node17 -->
<g id="node24" class="node">
<title>Node17</title>
<g id="a_node24"><a xlink:href="class_parsed_l_a_c_1_1_inverse_operator.html" target="_top" xlink:title="A factory that can generate inverse operators according to parameter files.">
<polygon fill="none" stroke="black" points="651.5,-441.5 651.5,-460.5 805.5,-460.5 805.5,-441.5 651.5,-441.5"/>
<text text-anchor="middle" x="728.5" y="-448.5" font-family="Helvetica,sans-Serif" font-size="10.00">ParsedLAC::InverseOperator</text>
</a>
</g>
</g>
<!-- Node7&#45;&gt;Node17 -->
<g id="edge25" class="edge">
<title>Node7&#45;&gt;Node17</title>
<path fill="none" stroke="midnightblue" d="M507.57,-622.95C524.8,-586.96 567.26,-509.2 628,-471 635.16,-466.5 643.13,-462.98 651.36,-460.24"/>
<polygon fill="midnightblue" stroke="midnightblue" points="504.26,-621.76 503.21,-632.3 510.6,-624.71 504.26,-621.76"/>
</g>
<!-- Node18 -->
<g id="node25" class="node">
<title>Node18</title>
<g id="a_node25"><a xlink:href="class_parsed_l_a_c_1_1_jacobi_preconditioner.html" target="_top" xlink:title="A parsed Jacobi preconditioner which uses parameter files to choose between different options.">
<polygon fill="none" stroke="black" points="641,-41.5 641,-60.5 816,-60.5 816,-41.5 641,-41.5"/>
<text text-anchor="middle" x="728.5" y="-48.5" font-family="Helvetica,sans-Serif" font-size="10.00">ParsedLAC::JacobiPreconditioner</text>
</a>
</g>
</g>
<!-- Node7&#45;&gt;Node18 -->
<g id="edge26" class="edge">
<title>Node7&#45;&gt;Node18</title>
<path fill="none" stroke="midnightblue" d="M503.13,-622.38C524.03,-523.18 617.67,-81.08 628,-71 632.29,-66.81 637.19,-63.39 642.47,-60.59"/>
<polygon fill="midnightblue" stroke="midnightblue" points="499.68,-621.77 501.04,-632.28 506.53,-623.22 499.68,-621.77"/>
</g>
<!-- Node19 -->
<g id="node26" class="node">
<title>Node19</title>
<g id="a_node26"><a xlink:href="class_parsed_tools_1_1_boundary_conditions.html" target="_top" xlink:title="A wrapper for boundary conditions.">
<polygon fill="none" stroke="black" points="639,-392 639,-422 818,-422 818,-392 639,-392"/>
<text text-anchor="start" x="647" y="-410" font-family="Helvetica,sans-Serif" font-size="10.00">ParsedTools::BoundaryConditions</text>
<text text-anchor="middle" x="728.5" y="-399" font-family="Helvetica,sans-Serif" font-size="10.00">&lt; spacedim &gt;</text>
</a>
</g>
</g>
<!-- Node7&#45;&gt;Node19 -->
<g id="edge27" class="edge">
<title>Node7&#45;&gt;Node19</title>
<path fill="none" stroke="midnightblue" d="M505.19,-622.71C519.6,-581.03 559.45,-482.3 628,-432 633.31,-428.1 639.17,-424.81 645.3,-422.02"/>
<polygon fill="midnightblue" stroke="midnightblue" points="501.86,-621.63 502.01,-632.23 508.5,-623.85 501.86,-621.63"/>
</g>
<!-- Node20 -->
<g id="node27" class="node">
<title>Node20</title>
<g id="a_node27"><a xlink:href="class_parsed_tools_1_1_constants.html" target="_top" xlink:title="A wrapper for physical constants to be shared among functions and classes.">
<polygon fill="none" stroke="black" points="664,-353.5 664,-372.5 793,-372.5 793,-353.5 664,-353.5"/>
<text text-anchor="middle" x="728.5" y="-360.5" font-family="Helvetica,sans-Serif" font-size="10.00">ParsedTools::Constants</text>
</a>
</g>
</g>
<!-- Node7&#45;&gt;Node20 -->
<g id="edge28" class="edge">
<title>Node7&#45;&gt;Node20</title>
<path fill="none" stroke="midnightblue" d="M502.65,-622.4C512.84,-573.49 546.41,-445.48 628,-383 638.35,-375.07 651.03,-370.06 663.83,-366.93"/>
<polygon fill="midnightblue" stroke="midnightblue" points="499.19,-621.83 500.68,-632.32 506.06,-623.2 499.19,-621.83"/>
</g>
<!-- Node21 -->
<g id="node28" class="node">
<title>Node21</title>
<g id="a_node28"><a xlink:href="class_parsed_tools_1_1_data_out.html" target="_top" xlink:title=" ">
<polygon fill="none" stroke="black" points="668,-304 668,-334 789,-334 789,-304 668,-304"/>
<text text-anchor="start" x="676" y="-322" font-family="Helvetica,sans-Serif" font-size="10.00">ParsedTools::DataOut</text>
<text text-anchor="middle" x="728.5" y="-311" font-family="Helvetica,sans-Serif" font-size="10.00">&lt; dim, spacedim &gt;</text>
</a>
</g>
</g>
<!-- Node7&#45;&gt;Node21 -->
<g id="edge29" class="edge">
<title>Node7&#45;&gt;Node21</title>
<path fill="none" stroke="midnightblue" d="M501.51,-622.32C509.4,-568.85 538.74,-419.83 628,-344 639.2,-334.49 653.51,-328.51 667.77,-324.77"/>
<polygon fill="midnightblue" stroke="midnightblue" points="498,-622.09 500.1,-632.48 504.94,-623.05 498,-622.09"/>
</g>
<!-- Node22 -->
<g id="node29" class="node">
<title>Node22</title>
<g id="a_node29"><a xlink:href="class_parsed_tools_1_1_finite_element.html" target="_top" xlink:title="Parsed FiniteElement.">
<polygon fill="none" stroke="black" points="655,-255 655,-285 802,-285 802,-255 655,-255"/>
<text text-anchor="start" x="663" y="-273" font-family="Helvetica,sans-Serif" font-size="10.00">ParsedTools::FiniteElement</text>
<text text-anchor="middle" x="728.5" y="-262" font-family="Helvetica,sans-Serif" font-size="10.00">&lt; dim, spacedim &gt;</text>
</a>
</g>
</g>
<!-- Node7&#45;&gt;Node22 -->
<g id="edge30" class="edge">
<title>Node7&#45;&gt;Node22</title>
<path fill="none" stroke="midnightblue" d="M500.2,-621.94C504.87,-562.44 527.02,-385.46 628,-295 635.69,-288.11 645.01,-283.05 654.82,-279.36"/>
<polygon fill="midnightblue" stroke="midnightblue" points="496.69,-621.99 499.48,-632.21 503.67,-622.48 496.69,-621.99"/>
</g>
<!-- Node23 -->
<g id="node30" class="node">
<title>Node23</title>
<g id="a_node30"><a xlink:href="class_parsed_tools_1_1_grid_generator.html" target="_top" xlink:title="GridGenerator class.">
<polygon fill="none" stroke="black" points="654,-206 654,-236 803,-236 803,-206 654,-206"/>
<text text-anchor="start" x="662" y="-224" font-family="Helvetica,sans-Serif" font-size="10.00">ParsedTools::GridGenerator</text>
<text text-anchor="middle" x="728.5" y="-213" font-family="Helvetica,sans-Serif" font-size="10.00">&lt; dim, spacedim &gt;</text>
</a>
</g>
</g>
<!-- Node7&#45;&gt;Node23 -->
<g id="edge32" class="edge">
<title>Node7&#45;&gt;Node23</title>
<path fill="none" stroke="midnightblue" d="M499.14,-622.18C500.72,-557.64 514.81,-351.66 628,-246 635.36,-239.13 644.31,-234.08 653.8,-230.37"/>
<polygon fill="midnightblue" stroke="midnightblue" points="495.64,-622.16 498.97,-632.22 502.64,-622.28 495.64,-622.16"/>
</g>
<!-- Node24 -->
<g id="node31" class="node">
<title>Node24</title>
<g id="a_node31"><a xlink:href="class_parsed_tools_1_1_grid_refinement.html" target="_top" xlink:title="A wrapper for refinement strategies.">
<polygon fill="none" stroke="black" points="649.5,-1107.5 649.5,-1126.5 807.5,-1126.5 807.5,-1107.5 649.5,-1107.5"/>
<text text-anchor="middle" x="728.5" y="-1114.5" font-family="Helvetica,sans-Serif" font-size="10.00">ParsedTools::GridRefinement</text>
</a>
</g>
</g>
<!-- Node7&#45;&gt;Node24 -->
<g id="edge33" class="edge">
<title>Node7&#45;&gt;Node24</title>
<path fill="none" stroke="midnightblue" d="M501.8,-661.66C513.48,-741.03 560.94,-1036.54 628,-1098 634.09,-1103.58 641.3,-1107.76 649.01,-1110.85"/>
<polygon fill="midnightblue" stroke="midnightblue" points="505.23,-660.97 500.33,-651.57 498.3,-661.97 505.23,-660.97"/>
</g>
<!-- Node25 -->
<g id="node32" class="node">
<title>Node25</title>
<g id="a_node32"><a xlink:href="class_parsed_tools_1_1_mapping_eulerian.html" target="_top" xlink:title="A wrapper class for MappingFEField or MappingQEulerian.">
<polygon fill="none" stroke="black" points="647.5,-1058 647.5,-1088 809.5,-1088 809.5,-1058 647.5,-1058"/>
<text text-anchor="start" x="655.5" y="-1076" font-family="Helvetica,sans-Serif" font-size="10.00">ParsedTools::MappingEulerian</text>
<text text-anchor="middle" x="728.5" y="-1065" font-family="Helvetica,sans-Serif" font-size="10.00">&lt; dim, spacedim &gt;</text>
</a>
</g>
</g>
<!-- Node7&#45;&gt;Node25 -->
<g id="edge34" class="edge">
<title>Node7&#45;&gt;Node25</title>
<path fill="none" stroke="midnightblue" d="M498.9,-661.97C499.71,-727.89 511.63,-940.53 628,-1049 633.59,-1054.21 640.11,-1058.35 647.09,-1061.62"/>
<polygon fill="midnightblue" stroke="midnightblue" points="502.4,-661.72 498.85,-651.73 495.4,-661.75 502.4,-661.72"/>
</g>
<!-- Node27 -->
<g id="node33" class="node">
<title>Node27</title>
<g id="a_node33"><a xlink:href="class_parsed_tools_1_1_symbolic_function.html" target="_top" xlink:title="A wrapper for the Functions::SymbolicFunction class.">
<polygon fill="none" stroke="black" points="645,-1009 645,-1039 812,-1039 812,-1009 645,-1009"/>
<text text-anchor="start" x="653" y="-1027" font-family="Helvetica,sans-Serif" font-size="10.00">ParsedTools::SymbolicFunction</text>
<text text-anchor="middle" x="728.5" y="-1016" font-family="Helvetica,sans-Serif" font-size="10.00">&lt; dim &gt;</text>
</a>
</g>
</g>
<!-- Node7&#45;&gt;Node27 -->
<g id="edge36" class="edge">
<title>Node7&#45;&gt;Node27</title>
<path fill="none" stroke="midnightblue" d="M499.89,-661.94C503.71,-722.62 523.78,-906.58 628,-1000 633.03,-1004.51 638.76,-1008.21 644.86,-1011.23"/>
<polygon fill="midnightblue" stroke="midnightblue" points="503.37,-661.59 499.33,-651.8 496.39,-661.98 503.37,-661.59"/>
</g>
<!-- Node28 -->
<g id="node34" class="node">
<title>Node28</title>
<g id="a_node34"><a xlink:href="class_p_d_es_1_1_serial_1_1_distributed_lagrange.html" target="_top" xlink:title=" ">
<polygon fill="none" stroke="black" points="650.5,-960 650.5,-990 806.5,-990 806.5,-960 650.5,-960"/>
<text text-anchor="start" x="658.5" y="-978" font-family="Helvetica,sans-Serif" font-size="10.00">PDEs::Serial::Distributed</text>
<text text-anchor="middle" x="728.5" y="-967" font-family="Helvetica,sans-Serif" font-size="10.00">Lagrange&lt; dim, spacedim &gt;</text>
</a>
</g>
</g>
<!-- Node7&#45;&gt;Node28 -->
<g id="edge37" class="edge">
<title>Node7&#45;&gt;Node28</title>
<path fill="none" stroke="midnightblue" d="M501.13,-661.72C508.16,-716.61 535.7,-872.3 628,-951 634.56,-956.59 642.2,-960.93 650.29,-964.28"/>
<polygon fill="midnightblue" stroke="midnightblue" points="504.59,-661.12 499.93,-651.6 497.64,-661.94 504.59,-661.12"/>
</g>
<!-- Node29 -->
<g id="node35" class="node">
<title>Node29</title>
<g id="a_node35"><a xlink:href="class_p_d_es_1_1_serial_1_1_linear_elasticity.html" target="_top" xlink:title=" ">
<polygon fill="none" stroke="black" points="650.5,-911 650.5,-941 806.5,-941 806.5,-911 650.5,-911"/>
<text text-anchor="start" x="658.5" y="-929" font-family="Helvetica,sans-Serif" font-size="10.00">PDEs::Serial::LinearElasticity</text>
<text text-anchor="middle" x="728.5" y="-918" font-family="Helvetica,sans-Serif" font-size="10.00">&lt; dim, spacedim &gt;</text>
</a>
</g>
</g>
<!-- Node7&#45;&gt;Node29 -->
<g id="edge38" class="edge">
<title>Node7&#45;&gt;Node29</title>
<path fill="none" stroke="midnightblue" d="M503.28,-661.4C514.77,-708.8 550.75,-831.35 628,-896 635.33,-902.14 643.89,-907.02 652.86,-910.9"/>
<polygon fill="midnightblue" stroke="midnightblue" points="506.66,-660.46 500.99,-651.51 499.84,-662.05 506.66,-660.46"/>
</g>
<!-- Node30 -->
<g id="node36" class="node">
<title>Node30</title>
<g id="a_node36"><a xlink:href="class_p_d_es_1_1_serial_1_1_poisson.html" target="_top" xlink:title="Poisson problem, serial version.">
<polygon fill="none" stroke="black" points="669,-823 669,-853 788,-853 788,-823 669,-823"/>
<text text-anchor="start" x="677" y="-841" font-family="Helvetica,sans-Serif" font-size="10.00">PDEs::Serial::Poisson</text>
<text text-anchor="middle" x="728.5" y="-830" font-family="Helvetica,sans-Serif" font-size="10.00">&lt; dim, spacedim &gt;</text>
</a>
</g>
</g>
<!-- Node7&#45;&gt;Node30 -->
<g id="edge39" class="edge">
<title>Node7&#45;&gt;Node30</title>
<path fill="none" stroke="midnightblue" d="M507.67,-660.95C525.08,-696.79 567.83,-774.41 628,-814 640.17,-822.01 654.76,-827.35 668.96,-830.91"/>
<polygon fill="midnightblue" stroke="midnightblue" points="510.71,-659.18 503.26,-651.64 504.38,-662.18 510.71,-659.18"/>
</g>
<!-- Node31 -->
<g id="node37" class="node">
<title>Node31</title>
<g id="a_node37"><a xlink:href="class_p_d_es_1_1_serial_1_1_reduced_lagrange.html" target="_top" xlink:title=" ">
<polygon fill="none" stroke="black" points="644.5,-774 644.5,-804 812.5,-804 812.5,-774 644.5,-774"/>
<text text-anchor="start" x="652.5" y="-792" font-family="Helvetica,sans-Serif" font-size="10.00">PDEs::Serial::ReducedLagrange</text>
<text text-anchor="middle" x="728.5" y="-781" font-family="Helvetica,sans-Serif" font-size="10.00">&lt; dim, spacedim &gt;</text>
</a>
</g>
</g>
<!-- Node7&#45;&gt;Node31 -->
<g id="edge40" class="edge">
<title>Node7&#45;&gt;Node31</title>
<path fill="none" stroke="midnightblue" d="M512.57,-659.96C534.03,-687.03 578.45,-737.98 628,-765 634.32,-768.44 641.13,-771.4 648.12,-773.94"/>
<polygon fill="midnightblue" stroke="midnightblue" points="515.11,-657.52 506.21,-651.77 509.58,-661.81 515.11,-657.52"/>
</g>
<!-- Node32 -->
<g id="node38" class="node">
<title>Node32</title>
<g id="a_node38"><a xlink:href="class_p_d_es_1_1_serial_1_1_stokes.html" target="_top" xlink:title=" ">
<polygon fill="none" stroke="black" points="672,-725 672,-755 785,-755 785,-725 672,-725"/>
<text text-anchor="start" x="680" y="-743" font-family="Helvetica,sans-Serif" font-size="10.00">PDEs::Serial::Stokes</text>
<text text-anchor="middle" x="728.5" y="-732" font-family="Helvetica,sans-Serif" font-size="10.00">&lt; dim &gt;</text>
</a>
</g>
</g>
<!-- Node7&#45;&gt;Node32 -->
<g id="edge41" class="edge">
<title>Node7&#45;&gt;Node32</title>
<path fill="none" stroke="midnightblue" d="M521.01,-657.23C545.93,-673.85 588.26,-700.19 628,-716 641.87,-721.52 657.35,-726 671.89,-729.53"/>
<polygon fill="midnightblue" stroke="midnightblue" points="522.9,-654.29 512.65,-651.59 518.98,-660.09 522.9,-654.29"/>
</g>
<!-- Node34 -->
<g id="node40" class="node">
<title>Node34</title>
<g id="a_node40"><a xlink:href="http://www.dealii.org/developer/doxygen/deal.II/classTrilinosWrappers_1_1PreconditionAMG.html" xlink:title=" ">
<polygon fill="none" stroke="black" points="404,-0.5 404,-19.5 592,-19.5 592,-0.5 404,-0.5"/>
<text text-anchor="middle" x="498" y="-7.5" font-family="Helvetica,sans-Serif" font-size="10.00">TrilinosWrappers::PreconditionAMG</text>
</a>
</g>
</g>
<!-- Node33&#45;&gt;Node34 -->
<g id="edge43" class="edge">
<title>Node33&#45;&gt;Node34</title>
<path fill="none" stroke="midnightblue" d="M289.85,-118.86C312.4,-94.82 356.93,-51.51 404,-29 412.18,-25.09 421.13,-21.98 430.16,-19.51"/>
<polygon fill="midnightblue" stroke="midnightblue" points="287.02,-116.76 282.83,-126.49 292.17,-121.5 287.02,-116.76"/>
</g>
<!-- Node35 -->
<g id="node41" class="node">
<title>Node35</title>
<g id="a_node41"><a xlink:href="http://www.dealii.org/developer/doxygen/deal.II/classTrilinosWrappers_1_1PreconditionAMGMueLu.html" xlink:title=" ">
<polygon fill="none" stroke="black" points="415.5,-165 415.5,-195 580.5,-195 580.5,-165 415.5,-165"/>
<text text-anchor="start" x="423.5" y="-183" font-family="Helvetica,sans-Serif" font-size="10.00">TrilinosWrappers::Precondition</text>
<text text-anchor="middle" x="498" y="-172" font-family="Helvetica,sans-Serif" font-size="10.00">AMGMueLu</text>
</a>
</g>
</g>
<!-- Node33&#45;&gt;Node35 -->
<g id="edge45" class="edge">
<title>Node33&#45;&gt;Node35</title>
<path fill="none" stroke="midnightblue" d="M332.81,-147.53C359.72,-152.85 392.01,-159.24 420.82,-164.93"/>
<polygon fill="midnightblue" stroke="midnightblue" points="333.27,-144.05 322.78,-145.55 331.91,-150.92 333.27,-144.05"/>
</g>
<!-- Node36 -->
<g id="node42" class="node">
<title>Node36</title>
<g id="a_node42"><a xlink:href="http://www.dealii.org/developer/doxygen/deal.II/classTrilinosWrappers_1_1PreconditionILU.html" xlink:title=" ">
<polygon fill="none" stroke="black" points="408,-126.5 408,-145.5 588,-145.5 588,-126.5 408,-126.5"/>
<text text-anchor="middle" x="498" y="-133.5" font-family="Helvetica,sans-Serif" font-size="10.00">TrilinosWrappers::PreconditionILU</text>
</a>
</g>
</g>
<!-- Node33&#45;&gt;Node36 -->
<g id="edge47" class="edge">
<title>Node33&#45;&gt;Node36</title>
<path fill="none" stroke="midnightblue" d="M378.37,-136C388.16,-136 398.02,-136 407.66,-136"/>
<polygon fill="midnightblue" stroke="midnightblue" points="378.22,-132.5 368.22,-136 378.22,-139.5 378.22,-132.5"/>
</g>
<!-- Node37 -->
<g id="node43" class="node">
<title>Node37</title>
<g id="a_node43"><a xlink:href="http://www.dealii.org/developer/doxygen/deal.II/classTrilinosWrappers_1_1PreconditionJacobi.html" xlink:title=" ">
<polygon fill="none" stroke="black" points="415.5,-39 415.5,-69 580.5,-69 580.5,-39 415.5,-39"/>
<text text-anchor="start" x="423.5" y="-57" font-family="Helvetica,sans-Serif" font-size="10.00">TrilinosWrappers::Precondition</text>
<text text-anchor="middle" x="498" y="-46" font-family="Helvetica,sans-Serif" font-size="10.00">Jacobi</text>
</a>
</g>
</g>
<!-- Node33&#45;&gt;Node37 -->
<g id="edge49" class="edge">
<title>Node33&#45;&gt;Node37</title>
<path fill="none" stroke="midnightblue" d="M303.1,-121.9C329.01,-109.5 368.46,-91.52 404,-79 414.09,-75.45 424.95,-72.11 435.56,-69.1"/>
<polygon fill="midnightblue" stroke="midnightblue" points="301.35,-118.86 293.87,-126.36 304.4,-125.16 301.35,-118.86"/>
</g>
<!-- Node34&#45;&gt;Node15 -->
<g id="edge44" class="edge">
<title>Node34&#45;&gt;Node15</title>
<path fill="none" stroke="midnightblue" d="M602.31,-10.9C616.17,-11.03 630.24,-11.15 643.71,-11.27"/>
<polygon fill="midnightblue" stroke="midnightblue" points="602.3,-7.4 592.27,-10.82 602.24,-14.4 602.3,-7.4"/>
</g>
<!-- Node35&#45;&gt;Node14 -->
<g id="edge46" class="edge">
<title>Node35&#45;&gt;Node14</title>
<path fill="none" stroke="midnightblue" d="M590.64,-178.8C602.8,-178.64 615.32,-178.47 627.61,-178.31"/>
<polygon fill="midnightblue" stroke="midnightblue" points="590.48,-175.3 580.53,-178.93 590.57,-182.3 590.48,-175.3"/>
</g>
<!-- Node36&#45;&gt;Node16 -->
<g id="edge48" class="edge">
<title>Node36&#45;&gt;Node16</title>
<path fill="none" stroke="midnightblue" d="M598.54,-137.31C615.05,-137.52 631.97,-137.75 647.9,-137.95"/>
<polygon fill="midnightblue" stroke="midnightblue" points="598.37,-133.8 588.33,-137.17 598.28,-140.8 598.37,-133.8"/>
</g>
<!-- Node37&#45;&gt;Node18 -->
<g id="edge50" class="edge">
<title>Node37&#45;&gt;Node18</title>
<path fill="none" stroke="midnightblue" d="M590.75,-52.8C607.32,-52.58 624.56,-52.35 640.98,-52.14"/>
<polygon fill="midnightblue" stroke="midnightblue" points="590.48,-49.3 580.53,-52.93 590.57,-56.3 590.48,-49.3"/>
</g>
</g>
</svg>
