<?xml version="1.0" encoding="UTF-8" standalone="no"?>
<!DOCTYPE svg PUBLIC "-//W3C//DTD SVG 1.1//EN"
 "http://www.w3.org/Graphics/SVG/1.1/DTD/svg11.dtd">
<!-- Generated by graphviz version 2.43.0 (0)
 -->
<!-- Title: Graphical Class Hierarchy Pages: 1 -->
<svg width="410pt" height="39pt"
 viewBox="0.00 0.00 410.00 39.00" xmlns="http://www.w3.org/2000/svg" xmlns:xlink="http://www.w3.org/1999/xlink">
<g id="graph0" class="graph" transform="scale(1 1) rotate(0) translate(4 35)">
<title>Graphical Class Hierarchy</title>
<!-- Node0 -->
<g id="node1" class="node">
<title>Node0</title>
<g id="a_node1"><a xlink:href="http://www.dealii.org/developer/doxygen/deal.II/classSubscriptor.html" xlink:title=" ">
<polygon fill="none" stroke="black" points="0,-6 0,-25 71,-25 71,-6 0,-6"/>
<text text-anchor="middle" x="35.5" y="-13" font-family="Helvetica,sans-Serif" font-size="10.00">Subscriptor</text>
</a>
</g>
</g>
<!-- Node1 -->
<g id="node2" class="node">
<title>Node1</title>
<g id="a_node2"><a xlink:href="http://www.dealii.org/developer/doxygen/deal.II/classParameterAcceptor.html" xlink:title=" ">
<polygon fill="none" stroke="black" points="107,-6 107,-25 217,-25 217,-6 107,-6"/>
<text text-anchor="middle" x="162" y="-13" font-family="Helvetica,sans-Serif" font-size="10.00">ParameterAcceptor</text>
</a>
</g>
</g>
<!-- Node0&#45;&gt;Node1 -->
<g id="edge1" class="edge">
<title>Node0&#45;&gt;Node1</title>
<path fill="none" stroke="midnightblue" d="M81.39,-15.5C89.67,-15.5 98.4,-15.5 106.92,-15.5"/>
<polygon fill="midnightblue" stroke="midnightblue" points="81.18,-12 71.18,-15.5 81.18,-19 81.18,-12"/>
</g>
<!-- Node2 -->
<g id="node3" class="node">
<title>Node2</title>
<g id="a_node3"><a xlink:href="class_tools_1_1_parsed_grid_generator.html" target="_top" xlink:title=" ">
<polygon fill="none" stroke="black" points="253,-0.5 253,-30.5 402,-30.5 402,-0.5 253,-0.5"/>
<text text-anchor="start" x="261" y="-18.5" font-family="Helvetica,sans-Serif" font-size="10.00">Tools::ParsedGridGenerator</text>
<text text-anchor="middle" x="327.5" y="-7.5" font-family="Helvetica,sans-Serif" font-size="10.00">&lt; dim, spacedim &gt;</text>
</a>
</g>
</g>
<!-- Node1&#45;&gt;Node2 -->
<g id="edge2" class="edge">
<title>Node1&#45;&gt;Node2</title>
<path fill="none" stroke="midnightblue" d="M227.44,-15.5C235.77,-15.5 244.34,-15.5 252.8,-15.5"/>
<polygon fill="midnightblue" stroke="midnightblue" points="227.44,-12 217.44,-15.5 227.44,-19 227.44,-12"/>
</g>
</g>
</svg>
