<?xml version="1.0" encoding="UTF-8" standalone="no"?>
<!DOCTYPE svg PUBLIC "-//W3C//DTD SVG 1.1//EN"
 "http://www.w3.org/Graphics/SVG/1.1/DTD/svg11.dtd">
<!-- Generated by graphviz version 2.43.0 (0)
 -->
<!-- Title: Graphical Class Hierarchy Pages: 1 -->
<svg width="1029pt" height="1626pt"
 viewBox="0.00 0.00 1029.00 1625.50" xmlns="http://www.w3.org/2000/svg" xmlns:xlink="http://www.w3.org/1999/xlink">
<g id="graph0" class="graph" transform="scale(1 1) rotate(0) translate(4 1621.5)">
<title>Graphical Class Hierarchy</title>
<!-- Node58 -->
<g id="node1" class="node">
<title>Node58</title>
<g id="a_node1"><a xlink:href="http://www.dealii.org/developer/doxygen/deal.II/classDataOutInterface.html" xlink:title=" ">
<polygon fill="none" stroke="black" points="204,-1587 204,-1617 343,-1617 343,-1587 204,-1587"/>
<text text-anchor="start" x="212" y="-1605" font-family="Helvetica,sans-Serif" font-size="10.00">DataOutInterface&lt; patch</text>
<text text-anchor="middle" x="273.5" y="-1594" font-family="Helvetica,sans-Serif" font-size="10.00">_dim, patch_spacedim &gt;</text>
</a>
</g>
</g>
<!-- Node59 -->
<g id="node2" class="node">
<title>Node59</title>
<g id="a_node2"><a xlink:href="http://www.dealii.org/developer/doxygen/deal.II/classDataOut__DoFData.html" xlink:title=" ">
<polygon fill="none" stroke="black" points="429,-1587 429,-1617 567,-1617 567,-1587 429,-1587"/>
<text text-anchor="start" x="437" y="-1605" font-family="Helvetica,sans-Serif" font-size="10.00">DataOut_DoFData&lt; dim,</text>
<text text-anchor="middle" x="498" y="-1594" font-family="Helvetica,sans-Serif" font-size="10.00"> dim, dim, dim &gt;</text>
</a>
</g>
</g>
<!-- Node58&#45;&gt;Node59 -->
<g id="edge1" class="edge">
<title>Node58&#45;&gt;Node59</title>
<path fill="none" stroke="midnightblue" d="M353.12,-1602C377.77,-1602 404.77,-1602 428.65,-1602"/>
<polygon fill="midnightblue" stroke="midnightblue" points="353.07,-1598.5 343.07,-1602 353.07,-1605.5 353.07,-1598.5"/>
</g>
<!-- Node10 -->
<g id="node3" class="node">
<title>Node10</title>
<g id="a_node3"><a xlink:href="class_parsed_tools_1_1_data_out.html" target="_top" xlink:title=" ">
<polygon fill="none" stroke="black" points="668,-1587 668,-1617 789,-1617 789,-1587 668,-1587"/>
<text text-anchor="start" x="676" y="-1605" font-family="Helvetica,sans-Serif" font-size="10.00">ParsedTools::DataOut</text>
<text text-anchor="middle" x="728.5" y="-1594" font-family="Helvetica,sans-Serif" font-size="10.00">&lt; dim &gt;</text>
</a>
</g>
</g>
<!-- Node59&#45;&gt;Node10 -->
<g id="edge2" class="edge">
<title>Node59&#45;&gt;Node10</title>
<path fill="none" stroke="midnightblue" d="M577.54,-1602C607.08,-1602 640.17,-1602 667.74,-1602"/>
<polygon fill="midnightblue" stroke="midnightblue" points="577.25,-1598.5 567.25,-1602 577.25,-1605.5 577.25,-1598.5"/>
</g>
<!-- Node57 -->
<g id="node4" class="node">
<title>Node57</title>
<g id="a_node4"><a xlink:href="http://www.dealii.org/developer/doxygen/deal.II/classFiniteElementData.html" xlink:title=" ">
<polygon fill="none" stroke="black" points="440.5,-1490 440.5,-1520 555.5,-1520 555.5,-1490 440.5,-1490"/>
<text text-anchor="start" x="448.5" y="-1508" font-family="Helvetica,sans-Serif" font-size="10.00">FiniteElementData&lt;</text>
<text text-anchor="middle" x="498" y="-1497" font-family="Helvetica,sans-Serif" font-size="10.00"> dim &gt;</text>
</a>
</g>
</g>
<!-- Node1 -->
<g id="node5" class="node">
<title>Node1</title>
<g id="a_node5"><a xlink:href="class_parsed_tools_1_1_finite_element.html" target="_top" xlink:title=" ">
<polygon fill="none" stroke="black" points="655,-1538 655,-1568 802,-1568 802,-1538 655,-1538"/>
<text text-anchor="start" x="663" y="-1556" font-family="Helvetica,sans-Serif" font-size="10.00">ParsedTools::FiniteElement</text>
<text text-anchor="middle" x="728.5" y="-1545" font-family="Helvetica,sans-Serif" font-size="10.00">&lt; dim &gt;</text>
</a>
</g>
</g>
<!-- Node57&#45;&gt;Node1 -->
<g id="edge3" class="edge">
<title>Node57&#45;&gt;Node1</title>
<path fill="none" stroke="midnightblue" d="M565.58,-1518.99C593.91,-1524.94 626.99,-1531.89 655.85,-1537.95"/>
<polygon fill="midnightblue" stroke="midnightblue" points="566.28,-1515.56 555.78,-1516.93 564.84,-1522.41 566.28,-1515.56"/>
</g>
<!-- Node2 -->
<g id="node6" class="node">
<title>Node2</title>
<g id="a_node6"><a xlink:href="class_parsed_tools_1_1_finite_element.html" target="_top" xlink:title=" ">
<polygon fill="none" stroke="black" points="655,-1489 655,-1519 802,-1519 802,-1489 655,-1489"/>
<text text-anchor="start" x="663" y="-1507" font-family="Helvetica,sans-Serif" font-size="10.00">ParsedTools::FiniteElement</text>
<text text-anchor="middle" x="728.5" y="-1496" font-family="Helvetica,sans-Serif" font-size="10.00">&lt; dim, dim &gt;</text>
</a>
</g>
</g>
<!-- Node57&#45;&gt;Node2 -->
<g id="edge4" class="edge">
<title>Node57&#45;&gt;Node2</title>
<path fill="none" stroke="midnightblue" d="M565.82,-1504.71C593.67,-1504.59 626.1,-1504.44 654.58,-1504.32"/>
<polygon fill="midnightblue" stroke="midnightblue" points="565.76,-1501.21 555.78,-1504.75 565.79,-1508.21 565.76,-1501.21"/>
</g>
<!-- Node56 -->
<g id="node7" class="node">
<title>Node56</title>
<g id="a_node7"><a xlink:href="http://www.dealii.org/developer/doxygen/deal.II/classFunctionTime.html" xlink:title=" ">
<polygon fill="none" stroke="black" points="0,-0.5 0,-19.5 143,-19.5 143,-0.5 0,-0.5"/>
<text text-anchor="middle" x="71.5" y="-7.5" font-family="Helvetica,sans-Serif" font-size="10.00">FunctionTime&lt; Number &gt;</text>
</a>
</g>
</g>
<!-- Node3 -->
<g id="node8" class="node">
<title>Node3</title>
<g id="a_node8"><a xlink:href="http://www.dealii.org/developer/doxygen/deal.II/classFunction.html" xlink:title=" ">
<polygon fill="none" stroke="black" points="224,-22.5 224,-41.5 323,-41.5 323,-22.5 224,-22.5"/>
<text text-anchor="middle" x="273.5" y="-29.5" font-family="Helvetica,sans-Serif" font-size="10.00">Function&lt; dim &gt;</text>
</a>
</g>
</g>
<!-- Node56&#45;&gt;Node3 -->
<g id="edge5" class="edge">
<title>Node56&#45;&gt;Node3</title>
<path fill="none" stroke="midnightblue" d="M153.18,-18.87C177.16,-21.51 202.68,-24.32 223.94,-26.66"/>
<polygon fill="midnightblue" stroke="midnightblue" points="153.34,-15.37 143.01,-17.76 152.57,-22.33 153.34,-15.37"/>
</g>
<!-- Node6 -->
<g id="node11" class="node">
<title>Node6</title>
<g id="a_node11"><a xlink:href="class_parsed_tools_1_1_function.html" target="_top" xlink:title=" ">
<polygon fill="none" stroke="black" points="882,-61 882,-91 1004,-91 1004,-61 882,-61"/>
<text text-anchor="start" x="890" y="-79" font-family="Helvetica,sans-Serif" font-size="10.00">ParsedTools::Function</text>
<text text-anchor="middle" x="943" y="-68" font-family="Helvetica,sans-Serif" font-size="10.00">&lt; spacedim &gt;</text>
</a>
</g>
</g>
<!-- Node56&#45;&gt;Node6 -->
<g id="edge10" class="edge">
<title>Node56&#45;&gt;Node6</title>
<path fill="none" stroke="midnightblue" d="M153.4,-9.06C220.52,-8.34 318.46,-7.39 404,-7 487.55,-6.62 508.68,-0.71 592,-7 698.24,-15.02 724.97,-20.02 829,-43 851.15,-47.89 875.34,-54.75 895.63,-60.94"/>
<polygon fill="midnightblue" stroke="midnightblue" points="153.27,-5.56 143.31,-9.17 153.35,-12.56 153.27,-5.56"/>
</g>
<!-- Node4 -->
<g id="node9" class="node">
<title>Node4</title>
<g id="a_node9"><a xlink:href="http://www.dealii.org/developer/doxygen/deal.II/classAutoDerivativeFunction.html" xlink:title=" ">
<polygon fill="none" stroke="black" points="432.5,-17 432.5,-47 563.5,-47 563.5,-17 432.5,-17"/>
<text text-anchor="start" x="440.5" y="-35" font-family="Helvetica,sans-Serif" font-size="10.00">AutoDerivativeFunction</text>
<text text-anchor="middle" x="498" y="-24" font-family="Helvetica,sans-Serif" font-size="10.00">&lt; dim &gt;</text>
</a>
</g>
</g>
<!-- Node3&#45;&gt;Node4 -->
<g id="edge6" class="edge">
<title>Node3&#45;&gt;Node4</title>
<path fill="none" stroke="midnightblue" d="M333.13,-32C363.69,-32 401.13,-32 432.5,-32"/>
<polygon fill="midnightblue" stroke="midnightblue" points="333.05,-28.5 323.05,-32 333.05,-35.5 333.05,-28.5"/>
</g>
<!-- Node5 -->
<g id="node10" class="node">
<title>Node5</title>
<g id="a_node10"><a xlink:href="http://www.dealii.org/developer/doxygen/deal.II/classFunctionParser.html" xlink:title=" ">
<polygon fill="none" stroke="black" points="663.5,-85.5 663.5,-104.5 793.5,-104.5 793.5,-85.5 663.5,-85.5"/>
<text text-anchor="middle" x="728.5" y="-92.5" font-family="Helvetica,sans-Serif" font-size="10.00">FunctionParser&lt; dim &gt;</text>
</a>
</g>
</g>
<!-- Node4&#45;&gt;Node5 -->
<g id="edge7" class="edge">
<title>Node4&#45;&gt;Node5</title>
<path fill="none" stroke="midnightblue" d="M563.33,-49.74C605.41,-61.34 658.74,-76.04 692.99,-85.49"/>
<polygon fill="midnightblue" stroke="midnightblue" points="564.01,-46.29 553.44,-47.01 562.15,-53.04 564.01,-46.29"/>
</g>
<!-- Node5&#45;&gt;Node6 -->
<g id="edge8" class="edge">
<title>Node5&#45;&gt;Node6</title>
<path fill="none" stroke="midnightblue" d="M803.56,-88.38C829.11,-86.09 857.41,-83.56 881.72,-81.39"/>
<polygon fill="midnightblue" stroke="midnightblue" points="803.19,-84.9 793.55,-89.27 803.82,-91.87 803.19,-84.9"/>
</g>
<!-- Node7 -->
<g id="node12" class="node">
<title>Node7</title>
<g id="a_node12"><a xlink:href="class_parsed_tools_1_1_function.html" target="_top" xlink:title="A wrapper for the FunctionParser class.">
<polygon fill="none" stroke="black" points="882,-391 882,-421 1004,-421 1004,-391 882,-391"/>
<text text-anchor="start" x="890" y="-409" font-family="Helvetica,sans-Serif" font-size="10.00">ParsedTools::Function</text>
<text text-anchor="middle" x="943" y="-398" font-family="Helvetica,sans-Serif" font-size="10.00">&lt; dim &gt;</text>
</a>
</g>
</g>
<!-- Node5&#45;&gt;Node7 -->
<g id="edge9" class="edge">
<title>Node5&#45;&gt;Node7</title>
<path fill="none" stroke="midnightblue" d="M803.5,-100.3C812.77,-103.41 821.58,-107.81 829,-114 918.13,-188.33 937.19,-341.77 941.06,-390.67"/>
<polygon fill="midnightblue" stroke="midnightblue" points="804.29,-96.89 793.71,-97.52 802.37,-103.62 804.29,-96.89"/>
</g>
<!-- Node47 -->
<g id="node13" class="node">
<title>Node47</title>
<g id="a_node13"><a xlink:href="http://www.dealii.org/developer/doxygen/deal.II/classSourceClass.html" xlink:title=" ">
<polygon fill="none" stroke="black" points="460,-167.5 460,-186.5 536,-186.5 536,-167.5 460,-167.5"/>
<text text-anchor="middle" x="498" y="-174.5" font-family="Helvetica,sans-Serif" font-size="10.00">SourceClass</text>
</a>
</g>
</g>
<!-- Node34 -->
<g id="node14" class="node">
<title>Node34</title>
<g id="a_node14"><a xlink:href="class_parsed_tools_1_1_proxy.html" target="_top" xlink:title="A proxy ParameterAcceptor wrapper for classes that have a member function add_parameters,...">
<polygon fill="none" stroke="black" points="674.5,-162 674.5,-192 782.5,-192 782.5,-162 674.5,-162"/>
<text text-anchor="start" x="682.5" y="-180" font-family="Helvetica,sans-Serif" font-size="10.00">ParsedTools::Proxy</text>
<text text-anchor="middle" x="728.5" y="-169" font-family="Helvetica,sans-Serif" font-size="10.00">&lt; SourceClass &gt;</text>
</a>
</g>
</g>
<!-- Node47&#45;&gt;Node34 -->
<g id="edge11" class="edge">
<title>Node47&#45;&gt;Node34</title>
<path fill="none" stroke="midnightblue" d="M546.31,-177C583.52,-177 635.37,-177 674.08,-177"/>
<polygon fill="midnightblue" stroke="midnightblue" points="546.22,-173.5 536.22,-177 546.22,-180.5 546.22,-173.5"/>
</g>
<!-- Node0 -->
<g id="node15" class="node">
<title>Node0</title>
<g id="a_node15"><a xlink:href="http://www.dealii.org/developer/doxygen/deal.II/classSubscriptor.html" xlink:title=" ">
<polygon fill="none" stroke="black" points="36,-400.5 36,-419.5 107,-419.5 107,-400.5 36,-400.5"/>
<text text-anchor="middle" x="71.5" y="-407.5" font-family="Helvetica,sans-Serif" font-size="10.00">Subscriptor</text>
</a>
</g>
</g>
<!-- Node0&#45;&gt;Node1 -->
<g id="edge12" class="edge">
<title>Node0&#45;&gt;Node1</title>
<path fill="none" stroke="midnightblue" d="M75.05,-429.6C93.46,-567.6 210.77,-1391.61 404,-1530 476.78,-1582.13 583.95,-1578.37 654.71,-1568.05"/>
<polygon fill="midnightblue" stroke="midnightblue" points="78.51,-429.08 73.73,-419.62 71.57,-429.99 78.51,-429.08"/>
</g>
<!-- Node0&#45;&gt;Node2 -->
<g id="edge13" class="edge">
<title>Node0&#45;&gt;Node2</title>
<path fill="none" stroke="midnightblue" d="M76.37,-429.64C100.98,-548.98 246.85,-1181.54 628,-1480 635.9,-1486.19 645.17,-1490.82 654.8,-1494.27"/>
<polygon fill="midnightblue" stroke="midnightblue" points="79.78,-428.83 74.37,-419.72 72.92,-430.22 79.78,-428.83"/>
</g>
<!-- Node0&#45;&gt;Node3 -->
<g id="edge14" class="edge">
<title>Node0&#45;&gt;Node3</title>
<path fill="none" stroke="midnightblue" d="M72.54,-390.27C73.74,-331.67 85.4,-156.87 179,-62 190.97,-49.86 207.86,-42.63 223.99,-38.32"/>
<polygon fill="midnightblue" stroke="midnightblue" points="69.04,-390.34 72.41,-400.38 76.04,-390.42 69.04,-390.34"/>
</g>
<!-- Node0&#45;&gt;Node6 -->
<g id="edge15" class="edge">
<title>Node0&#45;&gt;Node6</title>
<path fill="none" stroke="midnightblue" d="M80.41,-391.14C95.39,-357.28 130.76,-285.46 179,-240 261.94,-161.84 296.58,-155.08 404,-117 569.1,-58.47 780.07,-63.57 881.8,-70.57"/>
<polygon fill="midnightblue" stroke="midnightblue" points="77.18,-389.8 76.42,-400.36 83.6,-392.57 77.18,-389.8"/>
</g>
<!-- Node8 -->
<g id="node16" class="node">
<title>Node8</title>
<g id="a_node16"><a xlink:href="http://www.dealii.org/developer/doxygen/deal.II/classParameterAcceptor.html" xlink:title=" ">
<polygon fill="none" stroke="black" points="443,-793.5 443,-812.5 553,-812.5 553,-793.5 443,-793.5"/>
<text text-anchor="middle" x="498" y="-800.5" font-family="Helvetica,sans-Serif" font-size="10.00">ParameterAcceptor</text>
</a>
</g>
</g>
<!-- Node0&#45;&gt;Node8 -->
<g id="edge16" class="edge">
<title>Node0&#45;&gt;Node8</title>
<path fill="none" stroke="midnightblue" d="M90.43,-426.6C162.53,-493.35 430.03,-741 486.49,-793.27"/>
<polygon fill="midnightblue" stroke="midnightblue" points="92.71,-423.94 82.99,-419.71 87.95,-429.08 92.71,-423.94"/>
</g>
<!-- Node41 -->
<g id="node47" class="node">
<title>Node41</title>
<g id="a_node47"><a xlink:href="http://www.dealii.org/developer/doxygen/deal.II/classTrilinosWrappers_1_1PreconditionBase.html" xlink:title=" ">
<polygon fill="none" stroke="black" points="179,-249.5 179,-268.5 368,-268.5 368,-249.5 179,-249.5"/>
<text text-anchor="middle" x="273.5" y="-256.5" font-family="Helvetica,sans-Serif" font-size="10.00">TrilinosWrappers::PreconditionBase</text>
</a>
</g>
</g>
<!-- Node0&#45;&gt;Node41 -->
<g id="edge53" class="edge">
<title>Node0&#45;&gt;Node41</title>
<path fill="none" stroke="midnightblue" d="M93.35,-394.26C134.74,-363.01 226.19,-293.97 259.79,-268.59"/>
<polygon fill="midnightblue" stroke="midnightblue" points="91.19,-391.51 85.32,-400.32 95.4,-397.09 91.19,-391.51"/>
</g>
<!-- Node8&#45;&gt;Node10 -->
<g id="edge18" class="edge">
<title>Node8&#45;&gt;Node10</title>
<path fill="none" stroke="midnightblue" d="M500.98,-822.7C512.71,-937.83 574.43,-1520.44 628,-1578 638.41,-1589.19 653.06,-1595.57 667.92,-1599.1"/>
<polygon fill="midnightblue" stroke="midnightblue" points="504.44,-822.13 499.95,-812.53 497.47,-822.84 504.44,-822.13"/>
</g>
<!-- Node8&#45;&gt;Node1 -->
<g id="edge20" class="edge">
<title>Node8&#45;&gt;Node1</title>
<path fill="none" stroke="midnightblue" d="M499.68,-822.73C503.71,-927.99 527.8,-1422.51 628,-1529 635.37,-1536.83 644.81,-1542.3 654.93,-1546.09"/>
<polygon fill="midnightblue" stroke="midnightblue" points="503.17,-822.44 499.31,-812.58 496.18,-822.7 503.17,-822.44"/>
</g>
<!-- Node8&#45;&gt;Node2 -->
<g id="edge21" class="edge">
<title>Node8&#45;&gt;Node2</title>
<path fill="none" stroke="midnightblue" d="M505.79,-822.06C523.13,-871.51 569.26,-1008.3 592,-1126 607,-1203.64 576,-1420.43 628,-1480 635.19,-1488.23 644.66,-1493.89 654.91,-1497.75"/>
<polygon fill="midnightblue" stroke="midnightblue" points="509.09,-820.89 502.46,-812.62 502.49,-823.22 509.09,-820.89"/>
</g>
<!-- Node8&#45;&gt;Node6 -->
<g id="edge22" class="edge">
<title>Node8&#45;&gt;Node6</title>
<path fill="none" stroke="midnightblue" d="M509.97,-784.6C529.47,-753.68 573.31,-691.78 628,-662 707.57,-618.67 765.67,-692.79 829,-628 867.77,-588.33 854.2,-435.41 865,-381 887.34,-268.51 924.84,-135.34 937.6,-91.11"/>
<polygon fill="midnightblue" stroke="midnightblue" points="506.77,-783.12 504.51,-793.47 512.74,-786.79 506.77,-783.12"/>
</g>
<!-- Node8&#45;&gt;Node7 -->
<g id="edge42" class="edge">
<title>Node8&#45;&gt;Node7</title>
<path fill="none" stroke="midnightblue" d="M515.65,-786.4C538.8,-764.32 582.95,-725.67 628,-705 711.03,-666.9 758.13,-719.65 829,-662 908.33,-597.46 933.6,-465.97 940.08,-421.27"/>
<polygon fill="midnightblue" stroke="midnightblue" points="513.11,-783.99 508.37,-793.47 517.99,-789.01 513.11,-783.99"/>
</g>
<!-- Node8&#45;&gt;Node34 -->
<g id="edge46" class="edge">
<title>Node8&#45;&gt;Node34</title>
<path fill="none" stroke="midnightblue" d="M502.6,-783.42C521.26,-682.39 606.9,-223.85 628,-202 640.13,-189.45 657.55,-182.84 674.44,-179.47"/>
<polygon fill="midnightblue" stroke="midnightblue" points="499.12,-783 500.75,-793.46 506.01,-784.27 499.12,-783"/>
</g>
<!-- Node9 -->
<g id="node17" class="node">
<title>Node9</title>
<g id="a_node17"><a xlink:href="class_parsed_tools_1_1_boundary_conditions.html" target="_top" xlink:title=" ">
<polygon fill="none" stroke="black" points="639,-862 639,-892 818,-892 818,-862 639,-862"/>
<text text-anchor="start" x="647" y="-880" font-family="Helvetica,sans-Serif" font-size="10.00">ParsedTools::BoundaryConditions</text>
<text text-anchor="middle" x="728.5" y="-869" font-family="Helvetica,sans-Serif" font-size="10.00">&lt; dim &gt;</text>
</a>
</g>
</g>
<!-- Node8&#45;&gt;Node9 -->
<g id="edge17" class="edge">
<title>Node8&#45;&gt;Node9</title>
<path fill="none" stroke="midnightblue" d="M531.34,-816.49C557.21,-826.99 594.56,-841.49 628,-852 639.21,-855.53 651.26,-858.89 662.96,-861.95"/>
<polygon fill="midnightblue" stroke="midnightblue" points="532.6,-813.22 522.02,-812.68 529.95,-819.7 532.6,-813.22"/>
</g>
<!-- Node11 -->
<g id="node18" class="node">
<title>Node11</title>
<g id="a_node18"><a xlink:href="class_parsed_tools_1_1_data_out.html" target="_top" xlink:title=" ">
<polygon fill="none" stroke="black" points="668,-813 668,-843 789,-843 789,-813 668,-813"/>
<text text-anchor="start" x="676" y="-831" font-family="Helvetica,sans-Serif" font-size="10.00">ParsedTools::DataOut</text>
<text text-anchor="middle" x="728.5" y="-820" font-family="Helvetica,sans-Serif" font-size="10.00">&lt; dim, dim &gt;</text>
</a>
</g>
</g>
<!-- Node8&#45;&gt;Node11 -->
<g id="edge19" class="edge">
<title>Node8&#45;&gt;Node11</title>
<path fill="none" stroke="midnightblue" d="M563.52,-810.06C596.23,-813.64 635.7,-817.96 667.71,-821.46"/>
<polygon fill="midnightblue" stroke="midnightblue" points="563.47,-806.53 553.15,-808.92 562.71,-813.49 563.47,-806.53"/>
</g>
<!-- Node12 -->
<g id="node19" class="node">
<title>Node12</title>
<g id="a_node19"><a xlink:href="class_parsed_tools_1_1_grid_generator.html" target="_top" xlink:title=" ">
<polygon fill="none" stroke="black" points="654,-764 654,-794 803,-794 803,-764 654,-764"/>
<text text-anchor="start" x="662" y="-782" font-family="Helvetica,sans-Serif" font-size="10.00">ParsedTools::GridGenerator</text>
<text text-anchor="middle" x="728.5" y="-771" font-family="Helvetica,sans-Serif" font-size="10.00">&lt; dim &gt;</text>
</a>
</g>
</g>
<!-- Node8&#45;&gt;Node12 -->
<g id="edge23" class="edge">
<title>Node8&#45;&gt;Node12</title>
<path fill="none" stroke="midnightblue" d="M563.29,-796.25C591.46,-793.29 624.69,-789.8 653.85,-786.74"/>
<polygon fill="midnightblue" stroke="midnightblue" points="562.73,-792.79 553.15,-797.31 563.46,-799.75 562.73,-792.79"/>
</g>
<!-- Node13 -->
<g id="node20" class="node">
<title>Node13</title>
<g id="a_node20"><a xlink:href="class_parsed_tools_1_1_grid_generator.html" target="_top" xlink:title=" ">
<polygon fill="none" stroke="black" points="654,-715 654,-745 803,-745 803,-715 654,-715"/>
<text text-anchor="start" x="662" y="-733" font-family="Helvetica,sans-Serif" font-size="10.00">ParsedTools::GridGenerator</text>
<text text-anchor="middle" x="728.5" y="-722" font-family="Helvetica,sans-Serif" font-size="10.00">&lt; dim, dim &gt;</text>
</a>
</g>
</g>
<!-- Node8&#45;&gt;Node13 -->
<g id="edge24" class="edge">
<title>Node8&#45;&gt;Node13</title>
<path fill="none" stroke="midnightblue" d="M530.84,-789.61C556.71,-779.05 594.31,-764.42 628,-754 638.27,-750.82 649.24,-747.81 660.01,-745.06"/>
<polygon fill="midnightblue" stroke="midnightblue" points="529.45,-786.4 521.53,-793.45 532.11,-792.88 529.45,-786.4"/>
</g>
<!-- Node14 -->
<g id="node21" class="node">
<title>Node14</title>
<g id="a_node21"><a xlink:href="class_p_d_es_1_1_linear_problem.html" target="_top" xlink:title=" ">
<polygon fill="none" stroke="black" points="651.5,-1440 651.5,-1470 805.5,-1470 805.5,-1440 651.5,-1440"/>
<text text-anchor="start" x="659.5" y="-1458" font-family="Helvetica,sans-Serif" font-size="10.00">PDEs::LinearProblem</text>
<text text-anchor="middle" x="728.5" y="-1447" font-family="Helvetica,sans-Serif" font-size="10.00">&lt; dim, dim, LAC::LAdealii &gt;</text>
</a>
</g>
</g>
<!-- Node8&#45;&gt;Node14 -->
<g id="edge25" class="edge">
<title>Node8&#45;&gt;Node14</title>
<path fill="none" stroke="midnightblue" d="M505.79,-822.39C522.95,-872.16 568.36,-1008.73 592,-1126 605.49,-1192.9 582.7,-1379.95 628,-1431 634.37,-1438.18 642.48,-1443.39 651.31,-1447.16"/>
<polygon fill="midnightblue" stroke="midnightblue" points="508.99,-820.93 502.4,-812.63 502.38,-823.23 508.99,-820.93"/>
</g>
<!-- Node16 -->
<g id="node23" class="node">
<title>Node16</title>
<g id="a_node23"><a xlink:href="class_p_d_es_1_1_linear_problem.html" target="_top" xlink:title=" ">
<polygon fill="none" stroke="black" points="647.5,-960 647.5,-990 809.5,-990 809.5,-960 647.5,-960"/>
<text text-anchor="start" x="655.5" y="-978" font-family="Helvetica,sans-Serif" font-size="10.00">PDEs::LinearProblem</text>
<text text-anchor="middle" x="728.5" y="-967" font-family="Helvetica,sans-Serif" font-size="10.00">&lt; dim, dim, LAC::LATrilinos &gt;</text>
</a>
</g>
</g>
<!-- Node8&#45;&gt;Node16 -->
<g id="edge27" class="edge">
<title>Node8&#45;&gt;Node16</title>
<path fill="none" stroke="midnightblue" d="M509.78,-821.31C529.26,-852.71 573.38,-916.64 628,-950 634.38,-953.9 641.35,-957.19 648.54,-959.97"/>
<polygon fill="midnightblue" stroke="midnightblue" points="512.73,-819.42 504.55,-812.68 506.74,-823.05 512.73,-819.42"/>
</g>
<!-- Node18 -->
<g id="node25" class="node">
<title>Node18</title>
<g id="a_node25"><a xlink:href="class_p_d_es_1_1_linear_problem.html" target="_top" xlink:title=" ">
<polygon fill="none" stroke="black" points="664.5,-911 664.5,-941 792.5,-941 792.5,-911 664.5,-911"/>
<text text-anchor="start" x="672.5" y="-929" font-family="Helvetica,sans-Serif" font-size="10.00">PDEs::LinearProblem</text>
<text text-anchor="middle" x="728.5" y="-918" font-family="Helvetica,sans-Serif" font-size="10.00">&lt; dim, dim, LacType &gt;</text>
</a>
</g>
</g>
<!-- Node8&#45;&gt;Node18 -->
<g id="edge29" class="edge">
<title>Node8&#45;&gt;Node18</title>
<path fill="none" stroke="midnightblue" d="M516.12,-819.7C539.48,-841.57 583.55,-879.64 628,-901 639.32,-906.44 651.95,-910.78 664.31,-914.21"/>
<polygon fill="midnightblue" stroke="midnightblue" points="518.41,-817.05 508.75,-812.69 513.58,-822.12 518.41,-817.05"/>
</g>
<!-- Node20 -->
<g id="node27" class="node">
<title>Node20</title>
<g id="a_node27"><a xlink:href="class_parsed_tools_1_1_mapping_eulerian.html" target="_top" xlink:title=" ">
<polygon fill="none" stroke="black" points="647.5,-589 647.5,-619 809.5,-619 809.5,-589 647.5,-589"/>
<text text-anchor="start" x="655.5" y="-607" font-family="Helvetica,sans-Serif" font-size="10.00">ParsedTools::MappingEulerian</text>
<text text-anchor="middle" x="728.5" y="-596" font-family="Helvetica,sans-Serif" font-size="10.00">&lt; dim, dim &gt;</text>
</a>
</g>
</g>
<!-- Node8&#45;&gt;Node20 -->
<g id="edge31" class="edge">
<title>Node8&#45;&gt;Node20</title>
<path fill="none" stroke="midnightblue" d="M508.22,-784.18C526.29,-749.27 569.73,-674.37 628,-634 636.82,-627.89 646.92,-622.99 657.22,-619.09"/>
<polygon fill="midnightblue" stroke="midnightblue" points="505.01,-782.78 503.62,-793.28 511.26,-785.94 505.01,-782.78"/>
</g>
<!-- Node21 -->
<g id="node28" class="node">
<title>Node21</title>
<g id="a_node28"><a xlink:href="class_mesh_handler.html" target="_top" xlink:title="Entry point of the FSI&#45;suite programs.">
<polygon fill="none" stroke="black" points="640.5,-550.5 640.5,-569.5 816.5,-569.5 816.5,-550.5 640.5,-550.5"/>
<text text-anchor="middle" x="728.5" y="-557.5" font-family="Helvetica,sans-Serif" font-size="10.00">MeshHandler&lt; dim, spacedim &gt;</text>
</a>
</g>
</g>
<!-- Node8&#45;&gt;Node21 -->
<g id="edge32" class="edge">
<title>Node8&#45;&gt;Node21</title>
<path fill="none" stroke="midnightblue" d="M504.13,-783.65C516.91,-739.53 554.52,-631.29 628,-579 633.3,-575.23 639.15,-572.15 645.27,-569.64"/>
<polygon fill="midnightblue" stroke="midnightblue" points="500.73,-782.84 501.41,-793.41 507.47,-784.71 500.73,-782.84"/>
</g>
<!-- Node22 -->
<g id="node29" class="node">
<title>Node22</title>
<g id="a_node29"><a xlink:href="class_parsed_l_a_c_1_1_a_m_g_mue_lu_preconditioner.html" target="_top" xlink:title="A parsed AMG preconditioner based on MueLu which uses parameter files to choose between different opt...">
<polygon fill="none" stroke="black" points="628,-249.5 628,-268.5 829,-268.5 829,-249.5 628,-249.5"/>
<text text-anchor="middle" x="728.5" y="-256.5" font-family="Helvetica,sans-Serif" font-size="10.00">ParsedLAC::AMGMueLuPreconditioner</text>
</a>
</g>
</g>
<!-- Node8&#45;&gt;Node22 -->
<g id="edge33" class="edge">
<title>Node8&#45;&gt;Node22</title>
<path fill="none" stroke="midnightblue" d="M501.04,-783.22C510.37,-696.39 551.93,-350.19 628,-278 631.95,-274.25 636.41,-271.12 641.19,-268.53"/>
<polygon fill="midnightblue" stroke="midnightblue" points="497.54,-782.98 499.97,-793.29 504.5,-783.72 497.54,-782.98"/>
</g>
<!-- Node23 -->
<g id="node30" class="node">
<title>Node23</title>
<g id="a_node30"><a xlink:href="class_parsed_l_a_c_1_1_a_m_g_preconditioner.html" target="_top" xlink:title="A parsed AMG preconditioner which uses parameter files to choose between different options.">
<polygon fill="none" stroke="black" points="644,-211.5 644,-230.5 813,-230.5 813,-211.5 644,-211.5"/>
<text text-anchor="middle" x="728.5" y="-218.5" font-family="Helvetica,sans-Serif" font-size="10.00">ParsedLAC::AMGPreconditioner</text>
</a>
</g>
</g>
<!-- Node8&#45;&gt;Node23 -->
<g id="edge34" class="edge">
<title>Node8&#45;&gt;Node23</title>
<path fill="none" stroke="midnightblue" d="M502.26,-783.01C518.01,-687.35 587.25,-279.29 628,-240 632.68,-235.48 638.09,-231.88 643.92,-229.01"/>
<polygon fill="midnightblue" stroke="midnightblue" points="498.77,-782.65 500.61,-793.08 505.68,-783.78 498.77,-782.65"/>
</g>
<!-- Node24 -->
<g id="node31" class="node">
<title>Node24</title>
<g id="a_node31"><a xlink:href="class_parsed_l_a_c_1_1_i_l_u_preconditioner.html" target="_top" xlink:title="A parsed ILU preconditioner which uses parameter files to choose between different options.">
<polygon fill="none" stroke="black" points="648,-123.5 648,-142.5 809,-142.5 809,-123.5 648,-123.5"/>
<text text-anchor="middle" x="728.5" y="-130.5" font-family="Helvetica,sans-Serif" font-size="10.00">ParsedLAC::ILUPreconditioner</text>
</a>
</g>
</g>
<!-- Node8&#45;&gt;Node24 -->
<g id="edge35" class="edge">
<title>Node8&#45;&gt;Node24</title>
<path fill="none" stroke="midnightblue" d="M502.87,-783.37C524.28,-674.81 627.27,-152.73 628,-152 633.62,-146.42 640.33,-142.22 647.59,-139.08"/>
<polygon fill="midnightblue" stroke="midnightblue" points="499.41,-782.82 500.91,-793.3 506.28,-784.17 499.41,-782.82"/>
</g>
<!-- Node25 -->
<g id="node32" class="node">
<title>Node25</title>
<g id="a_node32"><a xlink:href="class_parsed_l_a_c_1_1_inverse_operator.html" target="_top" xlink:title="A factory that can generate inverse operators according to parameter files.">
<polygon fill="none" stroke="black" points="651.5,-512.5 651.5,-531.5 805.5,-531.5 805.5,-512.5 651.5,-512.5"/>
<text text-anchor="middle" x="728.5" y="-519.5" font-family="Helvetica,sans-Serif" font-size="10.00">ParsedLAC::InverseOperator</text>
</a>
</g>
</g>
<!-- Node8&#45;&gt;Node25 -->
<g id="edge36" class="edge">
<title>Node8&#45;&gt;Node25</title>
<path fill="none" stroke="midnightblue" d="M502.47,-783.47C512.33,-734.14 545.31,-603.99 628,-541 634.99,-535.67 643.05,-531.7 651.49,-528.76"/>
<polygon fill="midnightblue" stroke="midnightblue" points="499,-782.98 500.58,-793.45 505.88,-784.28 499,-782.98"/>
</g>
<!-- Node26 -->
<g id="node33" class="node">
<title>Node26</title>
<g id="a_node33"><a xlink:href="class_parsed_l_a_c_1_1_jacobi_preconditioner.html" target="_top" xlink:title="A parsed Jacobi preconditioner which uses parameter files to choose between different options.">
<polygon fill="none" stroke="black" points="641,-287.5 641,-306.5 816,-306.5 816,-287.5 641,-287.5"/>
<text text-anchor="middle" x="728.5" y="-294.5" font-family="Helvetica,sans-Serif" font-size="10.00">ParsedLAC::JacobiPreconditioner</text>
</a>
</g>
</g>
<!-- Node8&#45;&gt;Node26 -->
<g id="edge37" class="edge">
<title>Node8&#45;&gt;Node26</title>
<path fill="none" stroke="midnightblue" d="M501.46,-783.08C512.1,-699.97 556.96,-382.21 628,-316 631.99,-312.28 636.47,-309.19 641.27,-306.62"/>
<polygon fill="midnightblue" stroke="midnightblue" points="497.96,-782.84 500.18,-793.19 504.9,-783.71 497.96,-782.84"/>
</g>
<!-- Node27 -->
<g id="node34" class="node">
<title>Node27</title>
<g id="a_node34"><a xlink:href="class_parsed_tools_1_1_boundary_conditions.html" target="_top" xlink:title="A wrapper for boundary conditions.">
<polygon fill="none" stroke="black" points="639,-463 639,-493 818,-493 818,-463 639,-463"/>
<text text-anchor="start" x="647" y="-481" font-family="Helvetica,sans-Serif" font-size="10.00">ParsedTools::BoundaryConditions</text>
<text text-anchor="middle" x="728.5" y="-470" font-family="Helvetica,sans-Serif" font-size="10.00">&lt; spacedim &gt;</text>
</a>
</g>
</g>
<!-- Node8&#45;&gt;Node27 -->
<g id="edge38" class="edge">
<title>Node8&#45;&gt;Node27</title>
<path fill="none" stroke="midnightblue" d="M501.46,-783.19C509.24,-729.37 538.33,-579.37 628,-503 632.47,-499.19 637.45,-495.95 642.72,-493.19"/>
<polygon fill="midnightblue" stroke="midnightblue" points="497.95,-783.04 500.08,-793.42 504.89,-783.98 497.95,-783.04"/>
</g>
<!-- Node28 -->
<g id="node35" class="node">
<title>Node28</title>
<g id="a_node35"><a xlink:href="class_parsed_tools_1_1_constants.html" target="_top" xlink:title="A wrapper for physical constants to be shared among functions and classes.">
<polygon fill="none" stroke="black" points="664,-424.5 664,-443.5 793,-443.5 793,-424.5 664,-424.5"/>
<text text-anchor="middle" x="728.5" y="-431.5" font-family="Helvetica,sans-Serif" font-size="10.00">ParsedTools::Constants</text>
</a>
</g>
</g>
<!-- Node8&#45;&gt;Node28 -->
<g id="edge39" class="edge">
<title>Node8&#45;&gt;Node28</title>
<path fill="none" stroke="midnightblue" d="M499.85,-783.27C503.56,-723.28 523.35,-541.71 628,-453 638.13,-444.41 650.94,-439.24 663.96,-436.21"/>
<polygon fill="midnightblue" stroke="midnightblue" points="496.35,-783.13 499.31,-793.3 503.34,-783.5 496.35,-783.13"/>
</g>
<!-- Node29 -->
<g id="node36" class="node">
<title>Node29</title>
<g id="a_node36"><a xlink:href="class_parsed_tools_1_1_data_out.html" target="_top" xlink:title=" ">
<polygon fill="none" stroke="black" points="668,-375 668,-405 789,-405 789,-375 668,-375"/>
<text text-anchor="start" x="676" y="-393" font-family="Helvetica,sans-Serif" font-size="10.00">ParsedTools::DataOut</text>
<text text-anchor="middle" x="728.5" y="-382" font-family="Helvetica,sans-Serif" font-size="10.00">&lt; dim, spacedim &gt;</text>
</a>
</g>
</g>
<!-- Node8&#45;&gt;Node29 -->
<g id="edge40" class="edge">
<title>Node8&#45;&gt;Node29</title>
<path fill="none" stroke="midnightblue" d="M499.29,-783.17C501.36,-719.47 516.8,-518.18 628,-415 638.97,-404.82 653.45,-398.63 667.96,-394.91"/>
<polygon fill="midnightblue" stroke="midnightblue" points="495.79,-783.33 499.04,-793.41 502.79,-783.5 495.79,-783.33"/>
</g>
<!-- Node30 -->
<g id="node37" class="node">
<title>Node30</title>
<g id="a_node37"><a xlink:href="class_parsed_tools_1_1_finite_element.html" target="_top" xlink:title="Parsed FiniteElement.">
<polygon fill="none" stroke="black" points="655,-326 655,-356 802,-356 802,-326 655,-326"/>
<text text-anchor="start" x="663" y="-344" font-family="Helvetica,sans-Serif" font-size="10.00">ParsedTools::FiniteElement</text>
<text text-anchor="middle" x="728.5" y="-333" font-family="Helvetica,sans-Serif" font-size="10.00">&lt; dim, spacedim &gt;</text>
</a>
</g>
</g>
<!-- Node8&#45;&gt;Node30 -->
<g id="edge41" class="edge">
<title>Node8&#45;&gt;Node30</title>
<path fill="none" stroke="midnightblue" d="M498.38,-782.91C497.4,-713.71 503.95,-483.03 628,-365 635.6,-357.77 644.97,-352.6 654.91,-348.92"/>
<polygon fill="midnightblue" stroke="midnightblue" points="494.89,-783.32 498.6,-793.25 501.88,-783.17 494.89,-783.32"/>
</g>
<!-- Node31 -->
<g id="node38" class="node">
<title>Node31</title>
<g id="a_node38"><a xlink:href="class_parsed_tools_1_1_grid_generator.html" target="_top" xlink:title="GridGenerator class.">
<polygon fill="none" stroke="black" points="654,-1391 654,-1421 803,-1421 803,-1391 654,-1391"/>
<text text-anchor="start" x="662" y="-1409" font-family="Helvetica,sans-Serif" font-size="10.00">ParsedTools::GridGenerator</text>
<text text-anchor="middle" x="728.5" y="-1398" font-family="Helvetica,sans-Serif" font-size="10.00">&lt; dim, spacedim &gt;</text>
</a>
</g>
</g>
<!-- Node8&#45;&gt;Node31 -->
<g id="edge43" class="edge">
<title>Node8&#45;&gt;Node31</title>
<path fill="none" stroke="midnightblue" d="M505.63,-822.42C522.42,-872.27 567.03,-1009.01 592,-1126 603.95,-1181.97 589.73,-1338.45 628,-1381 635.03,-1388.81 644.1,-1394.35 653.9,-1398.25"/>
<polygon fill="midnightblue" stroke="midnightblue" points="508.84,-821 502.32,-812.65 502.21,-823.25 508.84,-821"/>
</g>
<!-- Node32 -->
<g id="node39" class="node">
<title>Node32</title>
<g id="a_node39"><a xlink:href="class_parsed_tools_1_1_grid_refinement.html" target="_top" xlink:title="A wrapper for refinement strategies.">
<polygon fill="none" stroke="black" points="649.5,-1352.5 649.5,-1371.5 807.5,-1371.5 807.5,-1352.5 649.5,-1352.5"/>
<text text-anchor="middle" x="728.5" y="-1359.5" font-family="Helvetica,sans-Serif" font-size="10.00">ParsedTools::GridRefinement</text>
</a>
</g>
</g>
<!-- Node8&#45;&gt;Node32 -->
<g id="edge44" class="edge">
<title>Node8&#45;&gt;Node32</title>
<path fill="none" stroke="midnightblue" d="M505.46,-822.46C521.85,-872.39 565.62,-1009.32 592,-1126 602.78,-1173.68 593.86,-1308.02 628,-1343 634.02,-1349.17 641.38,-1353.67 649.35,-1356.92"/>
<polygon fill="midnightblue" stroke="midnightblue" points="508.69,-821.07 502.23,-812.67 502.04,-823.26 508.69,-821.07"/>
</g>
<!-- Node33 -->
<g id="node40" class="node">
<title>Node33</title>
<g id="a_node40"><a xlink:href="class_parsed_tools_1_1_mapping_eulerian.html" target="_top" xlink:title="A wrapper class for MappingFEField or MappingQEulerian.">
<polygon fill="none" stroke="black" points="647.5,-1303 647.5,-1333 809.5,-1333 809.5,-1303 647.5,-1303"/>
<text text-anchor="start" x="655.5" y="-1321" font-family="Helvetica,sans-Serif" font-size="10.00">ParsedTools::MappingEulerian</text>
<text text-anchor="middle" x="728.5" y="-1310" font-family="Helvetica,sans-Serif" font-size="10.00">&lt; dim, spacedim &gt;</text>
</a>
</g>
</g>
<!-- Node8&#45;&gt;Node33 -->
<g id="edge45" class="edge">
<title>Node8&#45;&gt;Node33</title>
<path fill="none" stroke="midnightblue" d="M505.14,-822.54C520.77,-872.65 562.9,-1009.97 592,-1126 610.58,-1200.07 574.7,-1239.32 628,-1294 633.46,-1299.6 639.98,-1303.98 647.04,-1307.4"/>
<polygon fill="midnightblue" stroke="midnightblue" points="508.39,-821.21 502.06,-812.71 501.71,-823.3 508.39,-821.21"/>
</g>
<!-- Node35 -->
<g id="node41" class="node">
<title>Node35</title>
<g id="a_node41"><a xlink:href="class_parsed_tools_1_1_symbolic_function.html" target="_top" xlink:title="A wrapper for the Functions::SymbolicFunction class.">
<polygon fill="none" stroke="black" points="645,-1254 645,-1284 812,-1284 812,-1254 645,-1254"/>
<text text-anchor="start" x="653" y="-1272" font-family="Helvetica,sans-Serif" font-size="10.00">ParsedTools::SymbolicFunction</text>
<text text-anchor="middle" x="728.5" y="-1261" font-family="Helvetica,sans-Serif" font-size="10.00">&lt; dim &gt;</text>
</a>
</g>
</g>
<!-- Node8&#45;&gt;Node35 -->
<g id="edge47" class="edge">
<title>Node8&#45;&gt;Node35</title>
<path fill="none" stroke="midnightblue" d="M504.55,-822.25C528.99,-907.03 625.98,-1243.07 628,-1245 632.89,-1249.66 638.51,-1253.47 644.56,-1256.57"/>
<polygon fill="midnightblue" stroke="midnightblue" points="507.9,-821.24 501.77,-812.6 501.17,-823.17 507.9,-821.24"/>
</g>
<!-- Node36 -->
<g id="node42" class="node">
<title>Node36</title>
<g id="a_node42"><a xlink:href="class_p_d_es_1_1_linear_problem.html" target="_top" xlink:title="Construct a LinearProblem.">
<polygon fill="none" stroke="black" points="650.5,-1205 650.5,-1235 806.5,-1235 806.5,-1205 650.5,-1205"/>
<text text-anchor="start" x="658.5" y="-1223" font-family="Helvetica,sans-Serif" font-size="10.00">PDEs::LinearProblem</text>
<text text-anchor="middle" x="728.5" y="-1212" font-family="Helvetica,sans-Serif" font-size="10.00">&lt; dim, spacedim, LacType &gt;</text>
</a>
</g>
</g>
<!-- Node8&#45;&gt;Node36 -->
<g id="edge48" class="edge">
<title>Node8&#45;&gt;Node36</title>
<path fill="none" stroke="midnightblue" d="M504.29,-822.83C524.75,-898.91 599.01,-1169.25 628,-1196 634.4,-1201.9 641.99,-1206.43 650.09,-1209.88"/>
<polygon fill="midnightblue" stroke="midnightblue" points="507.55,-821.46 501.58,-812.71 500.79,-823.27 507.55,-821.46"/>
</g>
<!-- Node37 -->
<g id="node43" class="node">
<title>Node37</title>
<g id="a_node43"><a xlink:href="class_p_d_es_1_1_serial_1_1_distributed_lagrange.html" target="_top" xlink:title=" ">
<polygon fill="none" stroke="black" points="650.5,-1156 650.5,-1186 806.5,-1186 806.5,-1156 650.5,-1156"/>
<text text-anchor="start" x="658.5" y="-1174" font-family="Helvetica,sans-Serif" font-size="10.00">PDEs::Serial::Distributed</text>
<text text-anchor="middle" x="728.5" y="-1163" font-family="Helvetica,sans-Serif" font-size="10.00">Lagrange&lt; dim, spacedim &gt;</text>
</a>
</g>
</g>
<!-- Node8&#45;&gt;Node37 -->
<g id="edge49" class="edge">
<title>Node8&#45;&gt;Node37</title>
<path fill="none" stroke="midnightblue" d="M500.22,-822.94C504.94,-882.06 527.24,-1057.84 628,-1147 634.52,-1152.77 642.19,-1157.21 650.33,-1160.62"/>
<polygon fill="midnightblue" stroke="midnightblue" points="503.69,-822.45 499.49,-812.73 496.71,-822.95 503.69,-822.45"/>
</g>
<!-- Node38 -->
<g id="node44" class="node">
<title>Node38</title>
<g id="a_node44"><a xlink:href="class_p_d_es_1_1_serial_1_1_poisson.html" target="_top" xlink:title="Poisson problem, serial version.">
<polygon fill="none" stroke="black" points="669,-1107 669,-1137 788,-1137 788,-1107 669,-1107"/>
<text text-anchor="start" x="677" y="-1125" font-family="Helvetica,sans-Serif" font-size="10.00">PDEs::Serial::Poisson</text>
<text text-anchor="middle" x="728.5" y="-1114" font-family="Helvetica,sans-Serif" font-size="10.00">&lt; dim, spacedim &gt;</text>
</a>
</g>
</g>
<!-- Node8&#45;&gt;Node38 -->
<g id="edge50" class="edge">
<title>Node8&#45;&gt;Node38</title>
<path fill="none" stroke="midnightblue" d="M501.59,-822.89C509.63,-876.25 539.2,-1023.56 628,-1098 639.51,-1107.65 654.26,-1113.54 668.86,-1117.11"/>
<polygon fill="midnightblue" stroke="midnightblue" points="505.02,-822.14 500.15,-812.73 498.09,-823.12 505.02,-822.14"/>
</g>
<!-- Node39 -->
<g id="node45" class="node">
<title>Node39</title>
<g id="a_node45"><a xlink:href="class_p_d_es_1_1_serial_1_1_reduced_lagrange.html" target="_top" xlink:title=" ">
<polygon fill="none" stroke="black" points="644.5,-1058 644.5,-1088 812.5,-1088 812.5,-1058 644.5,-1058"/>
<text text-anchor="start" x="652.5" y="-1076" font-family="Helvetica,sans-Serif" font-size="10.00">PDEs::Serial::ReducedLagrange</text>
<text text-anchor="middle" x="728.5" y="-1065" font-family="Helvetica,sans-Serif" font-size="10.00">&lt; dim, spacedim &gt;</text>
</a>
</g>
</g>
<!-- Node8&#45;&gt;Node39 -->
<g id="edge51" class="edge">
<title>Node8&#45;&gt;Node39</title>
<path fill="none" stroke="midnightblue" d="M503.34,-822.38C514.85,-869.14 550.72,-988.74 628,-1049 632.9,-1052.82 638.33,-1056.05 644.04,-1058.77"/>
<polygon fill="midnightblue" stroke="midnightblue" points="506.73,-821.54 501.03,-812.61 499.92,-823.14 506.73,-821.54"/>
</g>
<!-- Node40 -->
<g id="node46" class="node">
<title>Node40</title>
<g id="a_node46"><a xlink:href="class_p_d_es_1_1_serial_1_1_stokes.html" target="_top" xlink:title=" ">
<polygon fill="none" stroke="black" points="672,-1009 672,-1039 785,-1039 785,-1009 672,-1009"/>
<text text-anchor="start" x="680" y="-1027" font-family="Helvetica,sans-Serif" font-size="10.00">PDEs::Serial::Stokes</text>
<text text-anchor="middle" x="728.5" y="-1016" font-family="Helvetica,sans-Serif" font-size="10.00">&lt; dim &gt;</text>
</a>
</g>
</g>
<!-- Node8&#45;&gt;Node40 -->
<g id="edge52" class="edge">
<title>Node8&#45;&gt;Node40</title>
<path fill="none" stroke="midnightblue" d="M505.92,-822.21C521.29,-862.01 562.19,-953.62 628,-1000 640.86,-1009.06 656.71,-1014.72 671.96,-1018.26"/>
<polygon fill="midnightblue" stroke="midnightblue" points="509.12,-820.78 502.34,-812.64 502.57,-823.24 509.12,-820.78"/>
</g>
<!-- Node15 -->
<g id="node22" class="node">
<title>Node15</title>
<g id="a_node22"><a xlink:href="class_p_d_es_1_1_linear_elasticity.html" target="_top" xlink:title=" ">
<polygon fill="none" stroke="black" points="865,-1440 865,-1470 1021,-1470 1021,-1440 865,-1440"/>
<text text-anchor="start" x="873" y="-1458" font-family="Helvetica,sans-Serif" font-size="10.00">PDEs::LinearElasticity</text>
<text text-anchor="middle" x="943" y="-1447" font-family="Helvetica,sans-Serif" font-size="10.00">&lt; dim, spacedim, LacType &gt;</text>
</a>
</g>
</g>
<!-- Node14&#45;&gt;Node15 -->
<g id="edge26" class="edge">
<title>Node14&#45;&gt;Node15</title>
<path fill="none" stroke="midnightblue" d="M815.68,-1455C832,-1455 848.97,-1455 864.98,-1455"/>
<polygon fill="midnightblue" stroke="midnightblue" points="815.62,-1451.5 805.62,-1455 815.62,-1458.5 815.62,-1451.5"/>
</g>
<!-- Node17 -->
<g id="node24" class="node">
<title>Node17</title>
<g id="a_node24"><a xlink:href="class_p_d_es_1_1_m_p_i_1_1_poisson.html" target="_top" xlink:title="Solve the Poisson problem, in parallel.">
<polygon fill="none" stroke="black" points="887.5,-960 887.5,-990 998.5,-990 998.5,-960 887.5,-960"/>
<text text-anchor="start" x="895.5" y="-978" font-family="Helvetica,sans-Serif" font-size="10.00">PDEs::MPI::Poisson</text>
<text text-anchor="middle" x="943" y="-967" font-family="Helvetica,sans-Serif" font-size="10.00">&lt; dim, spacedim &gt;</text>
</a>
</g>
</g>
<!-- Node16&#45;&gt;Node17 -->
<g id="edge28" class="edge">
<title>Node16&#45;&gt;Node17</title>
<path fill="none" stroke="midnightblue" d="M819.69,-975C842.74,-975 866.82,-975 887.47,-975"/>
<polygon fill="midnightblue" stroke="midnightblue" points="819.53,-971.5 809.53,-975 819.53,-978.5 819.53,-971.5"/>
</g>
<!-- Node19 -->
<g id="node26" class="node">
<title>Node19</title>
<g id="a_node26"><a xlink:href="class_p_d_es_1_1_stokes.html" target="_top" xlink:title="Solve the Stokes problem, in parallel.">
<polygon fill="none" stroke="black" points="886.5,-911 886.5,-941 999.5,-941 999.5,-911 886.5,-911"/>
<text text-anchor="start" x="894.5" y="-929" font-family="Helvetica,sans-Serif" font-size="10.00">PDEs::Stokes&lt; dim,</text>
<text text-anchor="middle" x="943" y="-918" font-family="Helvetica,sans-Serif" font-size="10.00"> LacType &gt;</text>
</a>
</g>
</g>
<!-- Node18&#45;&gt;Node19 -->
<g id="edge30" class="edge">
<title>Node18&#45;&gt;Node19</title>
<path fill="none" stroke="midnightblue" d="M802.98,-926C830.29,-926 860.81,-926 886.28,-926"/>
<polygon fill="midnightblue" stroke="midnightblue" points="802.68,-922.5 792.68,-926 802.68,-929.5 802.68,-922.5"/>
</g>
<!-- Node42 -->
<g id="node48" class="node">
<title>Node42</title>
<g id="a_node48"><a xlink:href="http://www.dealii.org/developer/doxygen/deal.II/classTrilinosWrappers_1_1PreconditionAMG.html" xlink:title=" ">
<polygon fill="none" stroke="black" points="404,-205.5 404,-224.5 592,-224.5 592,-205.5 404,-205.5"/>
<text text-anchor="middle" x="498" y="-212.5" font-family="Helvetica,sans-Serif" font-size="10.00">TrilinosWrappers::PreconditionAMG</text>
</a>
</g>
</g>
<!-- Node41&#45;&gt;Node42 -->
<g id="edge54" class="edge">
<title>Node41&#45;&gt;Node42</title>
<path fill="none" stroke="midnightblue" d="M332.7,-247.49C368.83,-240.35 414.72,-231.27 448.82,-224.53"/>
<polygon fill="midnightblue" stroke="midnightblue" points="331.91,-244.08 322.78,-249.45 333.27,-250.95 331.91,-244.08"/>
</g>
<!-- Node43 -->
<g id="node49" class="node">
<title>Node43</title>
<g id="a_node49"><a xlink:href="http://www.dealii.org/developer/doxygen/deal.II/classTrilinosWrappers_1_1PreconditionAMGMueLu.html" xlink:title=" ">
<polygon fill="none" stroke="black" points="415.5,-244 415.5,-274 580.5,-274 580.5,-244 415.5,-244"/>
<text text-anchor="start" x="423.5" y="-262" font-family="Helvetica,sans-Serif" font-size="10.00">TrilinosWrappers::Precondition</text>
<text text-anchor="middle" x="498" y="-251" font-family="Helvetica,sans-Serif" font-size="10.00">AMGMueLu</text>
</a>
</g>
</g>
<!-- Node41&#45;&gt;Node43 -->
<g id="edge56" class="edge">
<title>Node41&#45;&gt;Node43</title>
<path fill="none" stroke="midnightblue" d="M378.56,-259C390.92,-259 403.4,-259 415.39,-259"/>
<polygon fill="midnightblue" stroke="midnightblue" points="378.22,-255.5 368.22,-259 378.22,-262.5 378.22,-255.5"/>
</g>
<!-- Node44 -->
<g id="node50" class="node">
<title>Node44</title>
<g id="a_node50"><a xlink:href="http://www.dealii.org/developer/doxygen/deal.II/classTrilinosWrappers_1_1PreconditionILU.html" xlink:title=" ">
<polygon fill="none" stroke="black" points="408,-126.5 408,-145.5 588,-145.5 588,-126.5 408,-126.5"/>
<text text-anchor="middle" x="498" y="-133.5" font-family="Helvetica,sans-Serif" font-size="10.00">TrilinosWrappers::PreconditionILU</text>
</a>
</g>
</g>
<!-- Node41&#45;&gt;Node44 -->
<g id="edge58" class="edge">
<title>Node41&#45;&gt;Node44</title>
<path fill="none" stroke="midnightblue" d="M291.19,-242.02C314.4,-219.41 358.7,-179.73 404,-158 414.92,-152.76 427.17,-148.72 439.11,-145.62"/>
<polygon fill="midnightblue" stroke="midnightblue" points="288.54,-239.73 283.9,-249.25 293.46,-244.7 288.54,-239.73"/>
</g>
<!-- Node45 -->
<g id="node51" class="node">
<title>Node45</title>
<g id="a_node51"><a xlink:href="http://www.dealii.org/developer/doxygen/deal.II/classTrilinosWrappers_1_1PreconditionJacobi.html" xlink:title=" ">
<polygon fill="none" stroke="black" points="415.5,-293 415.5,-323 580.5,-323 580.5,-293 415.5,-293"/>
<text text-anchor="start" x="423.5" y="-311" font-family="Helvetica,sans-Serif" font-size="10.00">TrilinosWrappers::Precondition</text>
<text text-anchor="middle" x="498" y="-300" font-family="Helvetica,sans-Serif" font-size="10.00">Jacobi</text>
</a>
</g>
</g>
<!-- Node41&#45;&gt;Node45 -->
<g id="edge60" class="edge">
<title>Node41&#45;&gt;Node45</title>
<path fill="none" stroke="midnightblue" d="M327.6,-270.69C357.85,-277.36 396.08,-285.77 428.56,-292.93"/>
<polygon fill="midnightblue" stroke="midnightblue" points="328.18,-267.24 317.66,-268.51 326.68,-274.07 328.18,-267.24"/>
</g>
<!-- Node42&#45;&gt;Node23 -->
<g id="edge55" class="edge">
<title>Node42&#45;&gt;Node23</title>
<path fill="none" stroke="midnightblue" d="M602.31,-217.71C616.17,-218.08 630.24,-218.45 643.71,-218.8"/>
<polygon fill="midnightblue" stroke="midnightblue" points="602.36,-214.21 592.27,-217.45 602.17,-221.21 602.36,-214.21"/>
</g>
<!-- Node43&#45;&gt;Node22 -->
<g id="edge57" class="edge">
<title>Node43&#45;&gt;Node22</title>
<path fill="none" stroke="midnightblue" d="M590.64,-259C602.8,-259 615.32,-259 627.61,-259"/>
<polygon fill="midnightblue" stroke="midnightblue" points="590.53,-255.5 580.53,-259 590.53,-262.5 590.53,-255.5"/>
</g>
<!-- Node44&#45;&gt;Node24 -->
<g id="edge59" class="edge">
<title>Node44&#45;&gt;Node24</title>
<path fill="none" stroke="midnightblue" d="M598.54,-134.69C615.05,-134.48 631.97,-134.25 647.9,-134.05"/>
<polygon fill="midnightblue" stroke="midnightblue" points="598.28,-131.2 588.33,-134.83 598.37,-138.2 598.28,-131.2"/>
</g>
<!-- Node45&#45;&gt;Node26 -->
<g id="edge61" class="edge">
<title>Node45&#45;&gt;Node26</title>
<path fill="none" stroke="midnightblue" d="M590.75,-303.58C607.32,-302.79 624.56,-301.96 640.98,-301.17"/>
<polygon fill="midnightblue" stroke="midnightblue" points="590.35,-300.1 580.53,-304.08 590.68,-307.09 590.35,-300.1"/>
</g>
</g>
</svg>
