<?xml version="1.0" encoding="UTF-8" standalone="no"?>
<!DOCTYPE svg PUBLIC "-//W3C//DTD SVG 1.1//EN"
 "http://www.w3.org/Graphics/SVG/1.1/DTD/svg11.dtd">
<!-- Generated by graphviz version 2.43.0 (0)
 -->
<!-- Title: Graphical Class Hierarchy Pages: 1 -->
<svg width="419pt" height="127pt"
 viewBox="0.00 0.00 419.00 126.50" xmlns="http://www.w3.org/2000/svg" xmlns:xlink="http://www.w3.org/1999/xlink">
<g id="graph0" class="graph" transform="scale(1 1) rotate(0) translate(4 122.5)">
<title>Graphical Class Hierarchy</title>
<!-- Node0 -->
<g id="node1" class="node">
<title>Node0</title>
<g id="a_node1"><a xlink:href="http://www.dealii.org/developer/doxygen/deal.II/classSubscriptor.html" xlink:title=" ">
<polygon fill="none" stroke="black" points="0,-44.5 0,-63.5 71,-63.5 71,-44.5 0,-44.5"/>
<text text-anchor="middle" x="35.5" y="-51.5" font-family="Helvetica,sans-Serif" font-size="10.00">Subscriptor</text>
</a>
</g>
</g>
<!-- Node1 -->
<g id="node2" class="node">
<title>Node1</title>
<g id="a_node2"><a xlink:href="http://www.dealii.org/developer/doxygen/deal.II/classParameterAcceptor.html" xlink:title=" ">
<polygon fill="none" stroke="black" points="107,-44.5 107,-63.5 217,-63.5 217,-44.5 107,-44.5"/>
<text text-anchor="middle" x="162" y="-51.5" font-family="Helvetica,sans-Serif" font-size="10.00">ParameterAcceptor</text>
</a>
</g>
</g>
<!-- Node0&#45;&gt;Node1 -->
<g id="edge1" class="edge">
<title>Node0&#45;&gt;Node1</title>
<path fill="none" stroke="midnightblue" d="M81.39,-54C89.67,-54 98.4,-54 106.92,-54"/>
<polygon fill="midnightblue" stroke="midnightblue" points="81.18,-50.5 71.18,-54 81.18,-57.5 81.18,-50.5"/>
</g>
<!-- Node2 -->
<g id="node3" class="node">
<title>Node2</title>
<g id="a_node3"><a xlink:href="class_tools_1_1_parsed_finite_element.html" target="_top" xlink:title=" ">
<polygon fill="none" stroke="black" points="258.5,-88 258.5,-118 405.5,-118 405.5,-88 258.5,-88"/>
<text text-anchor="start" x="266.5" y="-106" font-family="Helvetica,sans-Serif" font-size="10.00">Tools::ParsedFiniteElement</text>
<text text-anchor="middle" x="332" y="-95" font-family="Helvetica,sans-Serif" font-size="10.00">&lt; dim, spacedim &gt;</text>
</a>
</g>
</g>
<!-- Node1&#45;&gt;Node2 -->
<g id="edge2" class="edge">
<title>Node1&#45;&gt;Node2</title>
<path fill="none" stroke="midnightblue" d="M205.4,-66.37C227.89,-72.93 255.71,-81.04 279.44,-87.96"/>
<polygon fill="midnightblue" stroke="midnightblue" points="206.37,-63 195.79,-63.56 204.41,-69.72 206.37,-63"/>
</g>
<!-- Node3 -->
<g id="node4" class="node">
<title>Node3</title>
<g id="a_node4"><a xlink:href="class_tools_1_1_parsed_grid_generator.html" target="_top" xlink:title=" ">
<polygon fill="none" stroke="black" points="257.5,-39 257.5,-69 406.5,-69 406.5,-39 257.5,-39"/>
<text text-anchor="start" x="265.5" y="-57" font-family="Helvetica,sans-Serif" font-size="10.00">Tools::ParsedGridGenerator</text>
<text text-anchor="middle" x="332" y="-46" font-family="Helvetica,sans-Serif" font-size="10.00">&lt; dim, spacedim &gt;</text>
</a>
</g>
</g>
<!-- Node1&#45;&gt;Node3 -->
<g id="edge3" class="edge">
<title>Node1&#45;&gt;Node3</title>
<path fill="none" stroke="midnightblue" d="M227.21,-54C237.09,-54 247.36,-54 257.42,-54"/>
<polygon fill="midnightblue" stroke="midnightblue" points="227.08,-50.5 217.08,-54 227.08,-57.5 227.08,-50.5"/>
</g>
<!-- Node4 -->
<g id="node5" class="node">
<title>Node4</title>
<g id="a_node5"><a xlink:href="class_tools_1_1_parsed_grid_refinement.html" target="_top" xlink:title=" ">
<polygon fill="none" stroke="black" points="253,-0.5 253,-19.5 411,-19.5 411,-0.5 253,-0.5"/>
<text text-anchor="middle" x="332" y="-7.5" font-family="Helvetica,sans-Serif" font-size="10.00">Tools::ParsedGridRefinement</text>
</a>
</g>
</g>
<!-- Node1&#45;&gt;Node4 -->
<g id="edge4" class="edge">
<title>Node1&#45;&gt;Node4</title>
<path fill="none" stroke="midnightblue" d="M208.51,-41.77C222.75,-37.97 238.52,-33.79 253,-30 266.12,-26.57 280.49,-22.87 293.29,-19.59"/>
<polygon fill="midnightblue" stroke="midnightblue" points="207.21,-38.5 198.46,-44.46 209.02,-45.26 207.21,-38.5"/>
</g>
</g>
</svg>
