<?xml version="1.0" encoding="UTF-8" standalone="no"?>
<!DOCTYPE svg PUBLIC "-//W3C//DTD SVG 1.1//EN"
 "http://www.w3.org/Graphics/SVG/1.1/DTD/svg11.dtd">
<!-- Generated by graphviz version 2.43.0 (0)
 -->
<!-- Title: Graphical Class Hierarchy Pages: 1 -->
<svg width="824pt" height="340pt"
 viewBox="0.00 0.00 824.00 340.00" xmlns="http://www.w3.org/2000/svg" xmlns:xlink="http://www.w3.org/1999/xlink">
<g id="graph0" class="graph" transform="scale(1 1) rotate(0) translate(4 336)">
<title>Graphical Class Hierarchy</title>
<!-- Node21 -->
<g id="node1" class="node">
<title>Node21</title>
<g id="a_node1"><a xlink:href="http://www.dealii.org/developer/doxygen/deal.II/classFunctionTime.html" xlink:title=" ">
<polygon fill="none" stroke="black" points="0,-250 0,-269 143,-269 143,-250 0,-250"/>
<text text-anchor="middle" x="71.5" y="-257" font-family="Helvetica,sans-Serif" font-size="10.00">FunctionTime&lt; Number &gt;</text>
</a>
</g>
</g>
<!-- Node1 -->
<g id="node2" class="node">
<title>Node1</title>
<g id="a_node2"><a xlink:href="http://www.dealii.org/developer/doxygen/deal.II/classFunction.html" xlink:title=" ">
<polygon fill="none" stroke="black" points="184.5,-250 184.5,-269 283.5,-269 283.5,-250 184.5,-250"/>
<text text-anchor="middle" x="234" y="-257" font-family="Helvetica,sans-Serif" font-size="10.00">Function&lt; dim &gt;</text>
</a>
</g>
</g>
<!-- Node21&#45;&gt;Node1 -->
<g id="edge1" class="edge">
<title>Node21&#45;&gt;Node1</title>
<path fill="none" stroke="midnightblue" d="M153.41,-259.5C163.91,-259.5 174.4,-259.5 184.15,-259.5"/>
<polygon fill="midnightblue" stroke="midnightblue" points="153.36,-256 143.36,-259.5 153.36,-263 153.36,-256"/>
</g>
<!-- Node2 -->
<g id="node3" class="node">
<title>Node2</title>
<g id="a_node3"><a xlink:href="http://www.dealii.org/developer/doxygen/deal.II/classAutoDerivativeFunction.html" xlink:title=" ">
<polygon fill="none" stroke="black" points="343,-301.5 343,-331.5 474,-331.5 474,-301.5 343,-301.5"/>
<text text-anchor="start" x="351" y="-319.5" font-family="Helvetica,sans-Serif" font-size="10.00">AutoDerivativeFunction</text>
<text text-anchor="middle" x="408.5" y="-308.5" font-family="Helvetica,sans-Serif" font-size="10.00">&lt; dim &gt;</text>
</a>
</g>
</g>
<!-- Node1&#45;&gt;Node2 -->
<g id="edge2" class="edge">
<title>Node1&#45;&gt;Node2</title>
<path fill="none" stroke="midnightblue" d="M273.45,-272.21C299.63,-280.86 334.4,-292.34 361.96,-301.45"/>
<polygon fill="midnightblue" stroke="midnightblue" points="274.47,-268.85 263.87,-269.04 272.27,-275.5 274.47,-268.85"/>
</g>
<!-- Node3 -->
<g id="node4" class="node">
<title>Node3</title>
<g id="a_node4"><a xlink:href="http://www.dealii.org/developer/doxygen/deal.II/classFunctionParser.html" xlink:title=" ">
<polygon fill="none" stroke="black" points="528,-304 528,-323 658,-323 658,-304 528,-304"/>
<text text-anchor="middle" x="593" y="-311" font-family="Helvetica,sans-Serif" font-size="10.00">FunctionParser&lt; dim &gt;</text>
</a>
</g>
</g>
<!-- Node2&#45;&gt;Node3 -->
<g id="edge3" class="edge">
<title>Node2&#45;&gt;Node3</title>
<path fill="none" stroke="midnightblue" d="M484.45,-315.27C498.84,-315.03 513.79,-314.79 527.79,-314.56"/>
<polygon fill="midnightblue" stroke="midnightblue" points="484.04,-311.77 474.1,-315.44 484.16,-318.77 484.04,-311.77"/>
</g>
<!-- Node4 -->
<g id="node5" class="node">
<title>Node4</title>
<g id="a_node5"><a xlink:href="class_tools_1_1_parsed_function.html" target="_top" xlink:title="A wrapper for the FunctionParser class.">
<polygon fill="none" stroke="black" points="694,-276.5 694,-306.5 816,-306.5 816,-276.5 694,-276.5"/>
<text text-anchor="start" x="702" y="-294.5" font-family="Helvetica,sans-Serif" font-size="10.00">Tools::ParsedFunction</text>
<text text-anchor="middle" x="755" y="-283.5" font-family="Helvetica,sans-Serif" font-size="10.00">&lt; dim &gt;</text>
</a>
</g>
</g>
<!-- Node3&#45;&gt;Node4 -->
<g id="edge4" class="edge">
<title>Node3&#45;&gt;Node4</title>
<path fill="none" stroke="midnightblue" d="M668.22,-303.29C676.85,-302.11 685.57,-300.91 693.98,-299.75"/>
<polygon fill="midnightblue" stroke="midnightblue" points="667.59,-299.85 658.16,-304.68 668.54,-306.78 667.59,-299.85"/>
</g>
<!-- Node0 -->
<g id="node6" class="node">
<title>Node0</title>
<g id="a_node6"><a xlink:href="http://www.dealii.org/developer/doxygen/deal.II/classSubscriptor.html" xlink:title=" ">
<polygon fill="none" stroke="black" points="36,-212 36,-231 107,-231 107,-212 36,-212"/>
<text text-anchor="middle" x="71.5" y="-219" font-family="Helvetica,sans-Serif" font-size="10.00">Subscriptor</text>
</a>
</g>
</g>
<!-- Node0&#45;&gt;Node1 -->
<g id="edge5" class="edge">
<title>Node0&#45;&gt;Node1</title>
<path fill="none" stroke="midnightblue" d="M117.15,-232.07C140.89,-237.69 169.84,-244.55 192.87,-250"/>
<polygon fill="midnightblue" stroke="midnightblue" points="117.86,-228.64 107.33,-229.75 116.25,-235.46 117.86,-228.64"/>
</g>
<!-- Node5 -->
<g id="node7" class="node">
<title>Node5</title>
<g id="a_node7"><a xlink:href="http://www.dealii.org/developer/doxygen/deal.II/classParameterAcceptor.html" xlink:title=" ">
<polygon fill="none" stroke="black" points="179,-156 179,-175 289,-175 289,-156 179,-156"/>
<text text-anchor="middle" x="234" y="-163" font-family="Helvetica,sans-Serif" font-size="10.00">ParameterAcceptor</text>
</a>
</g>
</g>
<!-- Node0&#45;&gt;Node5 -->
<g id="edge6" class="edge">
<title>Node0&#45;&gt;Node5</title>
<path fill="none" stroke="midnightblue" d="M109.6,-208.56C138.97,-198.31 179.32,-184.23 205.77,-175"/>
<polygon fill="midnightblue" stroke="midnightblue" points="108.38,-205.27 100.09,-211.87 110.69,-211.88 108.38,-205.27"/>
</g>
<!-- Node5&#45;&gt;Node4 -->
<g id="edge9" class="edge">
<title>Node5&#45;&gt;Node4</title>
<path fill="none" stroke="midnightblue" d="M247.26,-183.41C262.68,-204.31 291.28,-237.98 325,-253.5 389.02,-282.96 591.35,-289.64 693.6,-291.11"/>
<polygon fill="midnightblue" stroke="midnightblue" points="249.96,-181.18 241.3,-175.07 244.27,-185.25 249.96,-181.18"/>
</g>
<!-- Node6 -->
<g id="node8" class="node">
<title>Node6</title>
<g id="a_node8"><a xlink:href="class_tools_1_1_parsed_constants.html" target="_top" xlink:title="A wrapper for physical constants to be shared among functions and classes.">
<polygon fill="none" stroke="black" points="344,-225 344,-244 473,-244 473,-225 344,-225"/>
<text text-anchor="middle" x="408.5" y="-232" font-family="Helvetica,sans-Serif" font-size="10.00">Tools::ParsedConstants</text>
</a>
</g>
</g>
<!-- Node5&#45;&gt;Node6 -->
<g id="edge7" class="edge">
<title>Node5&#45;&gt;Node6</title>
<path fill="none" stroke="midnightblue" d="M258.23,-180.35C275.94,-191.11 301.25,-205.34 325,-214.5 335.72,-218.64 347.57,-222.11 358.86,-224.94"/>
<polygon fill="midnightblue" stroke="midnightblue" points="260.05,-177.36 249.71,-175.08 256.37,-183.31 260.05,-177.36"/>
</g>
<!-- Node7 -->
<g id="node9" class="node">
<title>Node7</title>
<g id="a_node9"><a xlink:href="class_tools_1_1_parsed_finite_element.html" target="_top" xlink:title="Parsed FiniteElement.">
<polygon fill="none" stroke="black" points="335,-175.5 335,-205.5 482,-205.5 482,-175.5 335,-175.5"/>
<text text-anchor="start" x="343" y="-193.5" font-family="Helvetica,sans-Serif" font-size="10.00">Tools::ParsedFiniteElement</text>
<text text-anchor="middle" x="408.5" y="-182.5" font-family="Helvetica,sans-Serif" font-size="10.00">&lt; dim, spacedim &gt;</text>
</a>
</g>
</g>
<!-- Node5&#45;&gt;Node7 -->
<g id="edge8" class="edge">
<title>Node5&#45;&gt;Node7</title>
<path fill="none" stroke="midnightblue" d="M299.17,-174.8C310.83,-176.49 323.05,-178.26 334.93,-179.98"/>
<polygon fill="midnightblue" stroke="midnightblue" points="299.51,-171.31 289.11,-173.34 298.5,-178.24 299.51,-171.31"/>
</g>
<!-- Node8 -->
<g id="node10" class="node">
<title>Node8</title>
<g id="a_node10"><a xlink:href="class_tools_1_1_parsed_grid_generator.html" target="_top" xlink:title="ParsedGridGenerator class.">
<polygon fill="none" stroke="black" points="334,-126.5 334,-156.5 483,-156.5 483,-126.5 334,-126.5"/>
<text text-anchor="start" x="342" y="-144.5" font-family="Helvetica,sans-Serif" font-size="10.00">Tools::ParsedGridGenerator</text>
<text text-anchor="middle" x="408.5" y="-133.5" font-family="Helvetica,sans-Serif" font-size="10.00">&lt; dim, spacedim &gt;</text>
</a>
</g>
</g>
<!-- Node5&#45;&gt;Node8 -->
<g id="edge10" class="edge">
<title>Node5&#45;&gt;Node8</title>
<path fill="none" stroke="midnightblue" d="M299.31,-156.55C310.61,-154.98 322.45,-153.33 333.98,-151.73"/>
<polygon fill="midnightblue" stroke="midnightblue" points="298.53,-153.13 289.11,-157.97 299.49,-160.06 298.53,-153.13"/>
</g>
<!-- Node9 -->
<g id="node11" class="node">
<title>Node9</title>
<g id="a_node11"><a xlink:href="class_tools_1_1_parsed_grid_refinement.html" target="_top" xlink:title="A wrapper for refinement strategies.">
<polygon fill="none" stroke="black" points="329.5,-88 329.5,-107 487.5,-107 487.5,-88 329.5,-88"/>
<text text-anchor="middle" x="408.5" y="-95" font-family="Helvetica,sans-Serif" font-size="10.00">Tools::ParsedGridRefinement</text>
</a>
</g>
</g>
<!-- Node5&#45;&gt;Node9 -->
<g id="edge11" class="edge">
<title>Node5&#45;&gt;Node9</title>
<path fill="none" stroke="midnightblue" d="M258.2,-150.57C275.9,-139.77 301.2,-125.52 325,-116.5 334.89,-112.75 345.75,-109.6 356.24,-107.02"/>
<polygon fill="midnightblue" stroke="midnightblue" points="256.33,-147.61 249.69,-155.87 260.03,-153.56 256.33,-147.61"/>
</g>
<!-- Node10 -->
<g id="node12" class="node">
<title>Node10</title>
<g id="a_node12"><a xlink:href="class_tools_1_1_parsed_inverse_operator.html" target="_top" xlink:title="A factory that can generate inverse operators according to parameter files.">
<polygon fill="none" stroke="black" points="329,-50 329,-69 488,-69 488,-50 329,-50"/>
<text text-anchor="middle" x="408.5" y="-57" font-family="Helvetica,sans-Serif" font-size="10.00">Tools::ParsedInverseOperator</text>
</a>
</g>
</g>
<!-- Node5&#45;&gt;Node10 -->
<g id="edge12" class="edge">
<title>Node5&#45;&gt;Node10</title>
<path fill="none" stroke="midnightblue" d="M248.18,-147.95C264.14,-127.99 292.89,-95.93 325,-78.5 332.1,-74.64 339.96,-71.57 347.93,-69.11"/>
<polygon fill="midnightblue" stroke="midnightblue" points="245.35,-145.88 241.97,-155.92 250.88,-150.18 245.35,-145.88"/>
</g>
<!-- Node11 -->
<g id="node13" class="node">
<title>Node11</title>
<g id="a_node13"><a xlink:href="class_tools_1_1_parsed_symbolic_function.html" target="_top" xlink:title="A wrapper for the Functions::SymbolicFunction class.">
<polygon fill="none" stroke="black" points="325,-0.5 325,-30.5 492,-30.5 492,-0.5 325,-0.5"/>
<text text-anchor="start" x="333" y="-18.5" font-family="Helvetica,sans-Serif" font-size="10.00">Tools::ParsedSymbolicFunction</text>
<text text-anchor="middle" x="408.5" y="-7.5" font-family="Helvetica,sans-Serif" font-size="10.00">&lt; dim &gt;</text>
</a>
</g>
</g>
<!-- Node5&#45;&gt;Node11 -->
<g id="edge13" class="edge">
<title>Node5&#45;&gt;Node11</title>
<path fill="none" stroke="midnightblue" d="M243.73,-146.39C257.25,-118.92 285.84,-68.49 325,-40.5 330.36,-36.67 336.31,-33.42 342.5,-30.66"/>
<polygon fill="midnightblue" stroke="midnightblue" points="240.44,-145.17 239.3,-155.7 246.76,-148.18 240.44,-145.17"/>
</g>
</g>
</svg>
