<?xml version="1.0" encoding="UTF-8" standalone="no"?>
<!DOCTYPE svg PUBLIC "-//W3C//DTD SVG 1.1//EN"
 "http://www.w3.org/Graphics/SVG/1.1/DTD/svg11.dtd">
<!-- Generated by graphviz version 2.43.0 (0)
 -->
<!-- Title: Graphical Class Hierarchy Pages: 1 -->
<svg width="995pt" height="1225pt"
 viewBox="0.00 0.00 995.00 1224.50" xmlns="http://www.w3.org/2000/svg" xmlns:xlink="http://www.w3.org/1999/xlink">
<g id="graph0" class="graph" transform="scale(1 1) rotate(0) translate(4 1220.5)">
<title>Graphical Class Hierarchy</title>
<!-- Node43 -->
<g id="node1" class="node">
<title>Node43</title>
<g id="a_node1"><a xlink:href="http://www.dealii.org/developer/doxygen/deal.II/classDataOutInterface.html" xlink:title=" ">
<polygon fill="none" stroke="black" points="204,-1137 204,-1167 343,-1167 343,-1137 204,-1137"/>
<text text-anchor="start" x="212" y="-1155" font-family="Helvetica,sans-Serif" font-size="10.00">DataOutInterface&lt; patch</text>
<text text-anchor="middle" x="273.5" y="-1144" font-family="Helvetica,sans-Serif" font-size="10.00">_dim, patch_spacedim &gt;</text>
</a>
</g>
</g>
<!-- Node44 -->
<g id="node2" class="node">
<title>Node44</title>
<g id="a_node2"><a xlink:href="http://www.dealii.org/developer/doxygen/deal.II/classDataOut__DoFData.html" xlink:title=" ">
<polygon fill="none" stroke="black" points="429,-1137 429,-1167 567,-1167 567,-1137 429,-1137"/>
<text text-anchor="start" x="437" y="-1155" font-family="Helvetica,sans-Serif" font-size="10.00">DataOut_DoFData&lt; dim,</text>
<text text-anchor="middle" x="498" y="-1144" font-family="Helvetica,sans-Serif" font-size="10.00"> dim, dim, dim &gt;</text>
</a>
</g>
</g>
<!-- Node43&#45;&gt;Node44 -->
<g id="edge1" class="edge">
<title>Node43&#45;&gt;Node44</title>
<path fill="none" stroke="midnightblue" d="M353.12,-1152C377.77,-1152 404.77,-1152 428.65,-1152"/>
<polygon fill="midnightblue" stroke="midnightblue" points="353.07,-1148.5 343.07,-1152 353.07,-1155.5 353.07,-1148.5"/>
</g>
<!-- Node9 -->
<g id="node3" class="node">
<title>Node9</title>
<g id="a_node3"><a xlink:href="class_parsed_tools_1_1_data_out.html" target="_top" xlink:title=" ">
<polygon fill="none" stroke="black" points="668,-1142 668,-1172 789,-1172 789,-1142 668,-1142"/>
<text text-anchor="start" x="676" y="-1160" font-family="Helvetica,sans-Serif" font-size="10.00">ParsedTools::DataOut</text>
<text text-anchor="middle" x="728.5" y="-1149" font-family="Helvetica,sans-Serif" font-size="10.00">&lt; dim &gt;</text>
</a>
</g>
</g>
<!-- Node44&#45;&gt;Node9 -->
<g id="edge2" class="edge">
<title>Node44&#45;&gt;Node9</title>
<path fill="none" stroke="midnightblue" d="M577.54,-1153.72C607.08,-1154.37 640.17,-1155.09 667.74,-1155.69"/>
<polygon fill="midnightblue" stroke="midnightblue" points="577.32,-1150.21 567.25,-1153.49 577.17,-1157.21 577.32,-1150.21"/>
</g>
<!-- Node42 -->
<g id="node4" class="node">
<title>Node42</title>
<g id="a_node4"><a xlink:href="http://www.dealii.org/developer/doxygen/deal.II/classFiniteElementData.html" xlink:title=" ">
<polygon fill="none" stroke="black" points="440.5,-1049 440.5,-1079 555.5,-1079 555.5,-1049 440.5,-1049"/>
<text text-anchor="start" x="448.5" y="-1067" font-family="Helvetica,sans-Serif" font-size="10.00">FiniteElementData&lt;</text>
<text text-anchor="middle" x="498" y="-1056" font-family="Helvetica,sans-Serif" font-size="10.00"> dim &gt;</text>
</a>
</g>
</g>
<!-- Node1 -->
<g id="node5" class="node">
<title>Node1</title>
<g id="a_node5"><a xlink:href="class_parsed_tools_1_1_finite_element.html" target="_top" xlink:title=" ">
<polygon fill="none" stroke="black" points="655,-1093 655,-1123 802,-1123 802,-1093 655,-1093"/>
<text text-anchor="start" x="663" y="-1111" font-family="Helvetica,sans-Serif" font-size="10.00">ParsedTools::FiniteElement</text>
<text text-anchor="middle" x="728.5" y="-1100" font-family="Helvetica,sans-Serif" font-size="10.00">&lt; dim &gt;</text>
</a>
</g>
</g>
<!-- Node42&#45;&gt;Node1 -->
<g id="edge3" class="edge">
<title>Node42&#45;&gt;Node1</title>
<path fill="none" stroke="midnightblue" d="M565.82,-1076.87C593.67,-1082.23 626.1,-1088.48 654.58,-1093.96"/>
<polygon fill="midnightblue" stroke="midnightblue" points="566.26,-1073.39 555.78,-1074.93 564.93,-1080.26 566.26,-1073.39"/>
</g>
<!-- Node2 -->
<g id="node6" class="node">
<title>Node2</title>
<g id="a_node6"><a xlink:href="class_parsed_tools_1_1_finite_element.html" target="_top" xlink:title=" ">
<polygon fill="none" stroke="black" points="655,-1044 655,-1074 802,-1074 802,-1044 655,-1044"/>
<text text-anchor="start" x="663" y="-1062" font-family="Helvetica,sans-Serif" font-size="10.00">ParsedTools::FiniteElement</text>
<text text-anchor="middle" x="728.5" y="-1051" font-family="Helvetica,sans-Serif" font-size="10.00">&lt; dim, dim &gt;</text>
</a>
</g>
</g>
<!-- Node42&#45;&gt;Node2 -->
<g id="edge4" class="edge">
<title>Node42&#45;&gt;Node2</title>
<path fill="none" stroke="midnightblue" d="M565.82,-1062.54C593.67,-1061.93 626.1,-1061.22 654.58,-1060.6"/>
<polygon fill="midnightblue" stroke="midnightblue" points="565.7,-1059.04 555.78,-1062.76 565.85,-1066.04 565.7,-1059.04"/>
</g>
<!-- Node41 -->
<g id="node7" class="node">
<title>Node41</title>
<g id="a_node7"><a xlink:href="http://www.dealii.org/developer/doxygen/deal.II/classFunctionTime.html" xlink:title=" ">
<polygon fill="none" stroke="black" points="0,-1188.5 0,-1207.5 143,-1207.5 143,-1188.5 0,-1188.5"/>
<text text-anchor="middle" x="71.5" y="-1195.5" font-family="Helvetica,sans-Serif" font-size="10.00">FunctionTime&lt; Number &gt;</text>
</a>
</g>
</g>
<!-- Node3 -->
<g id="node8" class="node">
<title>Node3</title>
<g id="a_node8"><a xlink:href="http://www.dealii.org/developer/doxygen/deal.II/classFunction.html" xlink:title=" ">
<polygon fill="none" stroke="black" points="224,-1188.5 224,-1207.5 323,-1207.5 323,-1188.5 224,-1188.5"/>
<text text-anchor="middle" x="273.5" y="-1195.5" font-family="Helvetica,sans-Serif" font-size="10.00">Function&lt; dim &gt;</text>
</a>
</g>
</g>
<!-- Node41&#45;&gt;Node3 -->
<g id="edge5" class="edge">
<title>Node41&#45;&gt;Node3</title>
<path fill="none" stroke="midnightblue" d="M153.18,-1198C177.16,-1198 202.68,-1198 223.94,-1198"/>
<polygon fill="midnightblue" stroke="midnightblue" points="153.01,-1194.5 143.01,-1198 153.01,-1201.5 153.01,-1194.5"/>
</g>
<!-- Node4 -->
<g id="node9" class="node">
<title>Node4</title>
<g id="a_node9"><a xlink:href="http://www.dealii.org/developer/doxygen/deal.II/classAutoDerivativeFunction.html" xlink:title=" ">
<polygon fill="none" stroke="black" points="432.5,-1186 432.5,-1216 563.5,-1216 563.5,-1186 432.5,-1186"/>
<text text-anchor="start" x="440.5" y="-1204" font-family="Helvetica,sans-Serif" font-size="10.00">AutoDerivativeFunction</text>
<text text-anchor="middle" x="498" y="-1193" font-family="Helvetica,sans-Serif" font-size="10.00">&lt; dim &gt;</text>
</a>
</g>
</g>
<!-- Node3&#45;&gt;Node4 -->
<g id="edge6" class="edge">
<title>Node3&#45;&gt;Node4</title>
<path fill="none" stroke="midnightblue" d="M333.13,-1198.79C363.69,-1199.2 401.13,-1199.71 432.5,-1200.13"/>
<polygon fill="midnightblue" stroke="midnightblue" points="333.1,-1195.29 323.05,-1198.65 333.01,-1202.29 333.1,-1195.29"/>
</g>
<!-- Node5 -->
<g id="node10" class="node">
<title>Node5</title>
<g id="a_node10"><a xlink:href="http://www.dealii.org/developer/doxygen/deal.II/classFunctionParser.html" xlink:title=" ">
<polygon fill="none" stroke="black" points="663.5,-1191.5 663.5,-1210.5 793.5,-1210.5 793.5,-1191.5 663.5,-1191.5"/>
<text text-anchor="middle" x="728.5" y="-1198.5" font-family="Helvetica,sans-Serif" font-size="10.00">FunctionParser&lt; dim &gt;</text>
</a>
</g>
</g>
<!-- Node4&#45;&gt;Node5 -->
<g id="edge7" class="edge">
<title>Node4&#45;&gt;Node5</title>
<path fill="none" stroke="midnightblue" d="M573.65,-1201C602.67,-1201 635.58,-1201 663.49,-1201"/>
<polygon fill="midnightblue" stroke="midnightblue" points="573.56,-1197.5 563.56,-1201 573.56,-1204.5 573.56,-1197.5"/>
</g>
<!-- Node6 -->
<g id="node11" class="node">
<title>Node6</title>
<g id="a_node11"><a xlink:href="class_parsed_tools_1_1_function.html" target="_top" xlink:title="A wrapper for the FunctionParser class.">
<polygon fill="none" stroke="black" points="865,-995 865,-1025 987,-1025 987,-995 865,-995"/>
<text text-anchor="start" x="873" y="-1013" font-family="Helvetica,sans-Serif" font-size="10.00">ParsedTools::Function</text>
<text text-anchor="middle" x="926" y="-1002" font-family="Helvetica,sans-Serif" font-size="10.00">&lt; dim &gt;</text>
</a>
</g>
</g>
<!-- Node5&#45;&gt;Node6 -->
<g id="edge8" class="edge">
<title>Node5&#45;&gt;Node6</title>
<path fill="none" stroke="midnightblue" d="M803.3,-1194.53C812.48,-1191.59 821.33,-1187.54 829,-1182 884.6,-1141.87 911.99,-1059.09 921.26,-1025.09"/>
<polygon fill="midnightblue" stroke="midnightblue" points="802.34,-1191.16 793.64,-1197.21 804.22,-1197.91 802.34,-1191.16"/>
</g>
<!-- Node0 -->
<g id="node12" class="node">
<title>Node0</title>
<g id="a_node12"><a xlink:href="http://www.dealii.org/developer/doxygen/deal.II/classSubscriptor.html" xlink:title=" ">
<polygon fill="none" stroke="black" points="36,-1010.5 36,-1029.5 107,-1029.5 107,-1010.5 36,-1010.5"/>
<text text-anchor="middle" x="71.5" y="-1017.5" font-family="Helvetica,sans-Serif" font-size="10.00">Subscriptor</text>
</a>
</g>
</g>
<!-- Node0&#45;&gt;Node1 -->
<g id="edge9" class="edge">
<title>Node0&#45;&gt;Node1</title>
<path fill="none" stroke="midnightblue" d="M117.09,-1031.46C180.41,-1047.23 300.22,-1075.23 404,-1089 489.75,-1100.38 589.19,-1104.94 654.94,-1106.77"/>
<polygon fill="midnightblue" stroke="midnightblue" points="117.6,-1027.98 107.05,-1028.94 115.9,-1034.77 117.6,-1027.98"/>
</g>
<!-- Node0&#45;&gt;Node2 -->
<g id="edge10" class="edge">
<title>Node0&#45;&gt;Node2</title>
<path fill="none" stroke="midnightblue" d="M117.37,-1020.21C207.49,-1020.96 416.88,-1024.39 592,-1040 612.47,-1041.82 634.57,-1044.58 654.87,-1047.44"/>
<polygon fill="midnightblue" stroke="midnightblue" points="117.26,-1016.71 107.23,-1020.13 117.2,-1023.71 117.26,-1016.71"/>
</g>
<!-- Node0&#45;&gt;Node3 -->
<g id="edge11" class="edge">
<title>Node0&#45;&gt;Node3</title>
<path fill="none" stroke="midnightblue" d="M79.88,-1039.17C93.84,-1072.73 127.41,-1141.87 179,-1177 192.06,-1185.9 208.31,-1191.08 223.57,-1194.09"/>
<polygon fill="midnightblue" stroke="midnightblue" points="83.02,-1037.59 76.04,-1029.61 76.53,-1040.2 83.02,-1037.59"/>
</g>
<!-- Node7 -->
<g id="node13" class="node">
<title>Node7</title>
<g id="a_node13"><a xlink:href="http://www.dealii.org/developer/doxygen/deal.II/classParameterAcceptor.html" xlink:title=" ">
<polygon fill="none" stroke="black" points="443,-569.5 443,-588.5 553,-588.5 553,-569.5 443,-569.5"/>
<text text-anchor="middle" x="498" y="-576.5" font-family="Helvetica,sans-Serif" font-size="10.00">ParameterAcceptor</text>
</a>
</g>
</g>
<!-- Node0&#45;&gt;Node7 -->
<g id="edge12" class="edge">
<title>Node0&#45;&gt;Node7</title>
<path fill="none" stroke="midnightblue" d="M88.95,-1002.91C159.2,-929.93 432.9,-645.59 487.5,-588.87"/>
<polygon fill="midnightblue" stroke="midnightblue" points="86.17,-1000.75 81.76,-1010.38 91.22,-1005.6 86.17,-1000.75"/>
</g>
<!-- Node31 -->
<g id="node36" class="node">
<title>Node31</title>
<g id="a_node36"><a xlink:href="http://www.dealii.org/developer/doxygen/deal.II/classTrilinosWrappers_1_1PreconditionBase.html" xlink:title=" ">
<polygon fill="none" stroke="black" points="179,-82.5 179,-101.5 368,-101.5 368,-82.5 179,-82.5"/>
<text text-anchor="middle" x="273.5" y="-89.5" font-family="Helvetica,sans-Serif" font-size="10.00">TrilinosWrappers::PreconditionBase</text>
</a>
</g>
</g>
<!-- Node0&#45;&gt;Node31 -->
<g id="edge39" class="edge">
<title>Node0&#45;&gt;Node31</title>
<path fill="none" stroke="midnightblue" d="M76.8,-1000.07C103.95,-874.05 251.31,-190.31 270.45,-101.51"/>
<polygon fill="midnightblue" stroke="midnightblue" points="73.3,-999.69 74.61,-1010.21 80.14,-1001.17 73.3,-999.69"/>
</g>
<!-- Node7&#45;&gt;Node9 -->
<g id="edge14" class="edge">
<title>Node7&#45;&gt;Node9</title>
<path fill="none" stroke="midnightblue" d="M502.32,-598.63C518.36,-692.59 588.73,-1093.42 628,-1133 638.64,-1143.72 653.18,-1149.97 667.86,-1153.53"/>
<polygon fill="midnightblue" stroke="midnightblue" points="505.76,-598.01 500.64,-588.74 498.86,-599.19 505.76,-598.01"/>
</g>
<!-- Node7&#45;&gt;Node1 -->
<g id="edge16" class="edge">
<title>Node7&#45;&gt;Node1</title>
<path fill="none" stroke="midnightblue" d="M501.33,-598.75C511.69,-683.24 556.26,-1013.21 628,-1084 635.53,-1091.43 644.93,-1096.7 654.93,-1100.41"/>
<polygon fill="midnightblue" stroke="midnightblue" points="504.79,-598.21 500.12,-588.7 497.84,-599.05 504.79,-598.21"/>
</g>
<!-- Node7&#45;&gt;Node2 -->
<g id="edge17" class="edge">
<title>Node7&#45;&gt;Node2</title>
<path fill="none" stroke="midnightblue" d="M501.88,-598.57C513.89,-677.6 562.44,-971.95 628,-1035 635.56,-1042.27 644.92,-1047.46 654.84,-1051.15"/>
<polygon fill="midnightblue" stroke="midnightblue" points="505.32,-597.9 500.38,-588.53 498.4,-598.94 505.32,-597.9"/>
</g>
<!-- Node7&#45;&gt;Node6 -->
<g id="edge30" class="edge">
<title>Node7&#45;&gt;Node6</title>
<path fill="none" stroke="midnightblue" d="M504.41,-598.69C517.54,-642.57 555.52,-748.58 628,-800 702.22,-852.65 755.23,-785.72 829,-839 884.2,-878.86 911.74,-960.81 921.15,-994.75"/>
<polygon fill="midnightblue" stroke="midnightblue" points="507.73,-597.58 501.6,-588.94 501,-599.52 507.73,-597.58"/>
</g>
<!-- Node8 -->
<g id="node14" class="node">
<title>Node8</title>
<g id="a_node14"><a xlink:href="class_parsed_tools_1_1_boundary_conditions.html" target="_top" xlink:title=" ">
<polygon fill="none" stroke="black" points="639,-711 639,-741 818,-741 818,-711 639,-711"/>
<text text-anchor="start" x="647" y="-729" font-family="Helvetica,sans-Serif" font-size="10.00">ParsedTools::BoundaryConditions</text>
<text text-anchor="middle" x="728.5" y="-718" font-family="Helvetica,sans-Serif" font-size="10.00">&lt; dim &gt;</text>
</a>
</g>
</g>
<!-- Node7&#45;&gt;Node8 -->
<g id="edge13" class="edge">
<title>Node7&#45;&gt;Node8</title>
<path fill="none" stroke="midnightblue" d="M512.57,-596.96C534.03,-624.03 578.45,-674.98 628,-702 634.32,-705.44 641.13,-708.4 648.12,-710.94"/>
<polygon fill="midnightblue" stroke="midnightblue" points="515.11,-594.52 506.21,-588.77 509.58,-598.81 515.11,-594.52"/>
</g>
<!-- Node10 -->
<g id="node15" class="node">
<title>Node10</title>
<g id="a_node15"><a xlink:href="class_parsed_tools_1_1_data_out.html" target="_top" xlink:title=" ">
<polygon fill="none" stroke="black" points="668,-662 668,-692 789,-692 789,-662 668,-662"/>
<text text-anchor="start" x="676" y="-680" font-family="Helvetica,sans-Serif" font-size="10.00">ParsedTools::DataOut</text>
<text text-anchor="middle" x="728.5" y="-669" font-family="Helvetica,sans-Serif" font-size="10.00">&lt; dim, dim &gt;</text>
</a>
</g>
</g>
<!-- Node7&#45;&gt;Node10 -->
<g id="edge15" class="edge">
<title>Node7&#45;&gt;Node10</title>
<path fill="none" stroke="midnightblue" d="M521.01,-594.23C545.93,-610.85 588.26,-637.19 628,-653 640.63,-658.03 654.6,-662.19 667.97,-665.56"/>
<polygon fill="midnightblue" stroke="midnightblue" points="522.9,-591.29 512.65,-588.59 518.98,-597.09 522.9,-591.29"/>
</g>
<!-- Node11 -->
<g id="node16" class="node">
<title>Node11</title>
<g id="a_node16"><a xlink:href="class_parsed_tools_1_1_grid_generator.html" target="_top" xlink:title=" ">
<polygon fill="none" stroke="black" points="654,-613 654,-643 803,-643 803,-613 654,-613"/>
<text text-anchor="start" x="662" y="-631" font-family="Helvetica,sans-Serif" font-size="10.00">ParsedTools::GridGenerator</text>
<text text-anchor="middle" x="728.5" y="-620" font-family="Helvetica,sans-Serif" font-size="10.00">&lt; dim &gt;</text>
</a>
</g>
</g>
<!-- Node7&#45;&gt;Node11 -->
<g id="edge18" class="edge">
<title>Node7&#45;&gt;Node11</title>
<path fill="none" stroke="midnightblue" d="M553.12,-590.61C584.25,-597.28 623.71,-605.74 657.22,-612.93"/>
<polygon fill="midnightblue" stroke="midnightblue" points="553.84,-587.18 543.33,-588.51 552.37,-594.02 553.84,-587.18"/>
</g>
<!-- Node12 -->
<g id="node17" class="node">
<title>Node12</title>
<g id="a_node17"><a xlink:href="class_parsed_tools_1_1_grid_generator.html" target="_top" xlink:title=" ">
<polygon fill="none" stroke="black" points="654,-564 654,-594 803,-594 803,-564 654,-564"/>
<text text-anchor="start" x="662" y="-582" font-family="Helvetica,sans-Serif" font-size="10.00">ParsedTools::GridGenerator</text>
<text text-anchor="middle" x="728.5" y="-571" font-family="Helvetica,sans-Serif" font-size="10.00">&lt; dim, dim &gt;</text>
</a>
</g>
</g>
<!-- Node7&#45;&gt;Node12 -->
<g id="edge19" class="edge">
<title>Node7&#45;&gt;Node12</title>
<path fill="none" stroke="midnightblue" d="M563.29,-579C591.46,-579 624.69,-579 653.85,-579"/>
<polygon fill="midnightblue" stroke="midnightblue" points="563.15,-575.5 553.15,-579 563.15,-582.5 563.15,-575.5"/>
</g>
<!-- Node13 -->
<g id="node18" class="node">
<title>Node13</title>
<g id="a_node18"><a xlink:href="class_parsed_tools_1_1_mapping_eulerian.html" target="_top" xlink:title=" ">
<polygon fill="none" stroke="black" points="647.5,-515 647.5,-545 809.5,-545 809.5,-515 647.5,-515"/>
<text text-anchor="start" x="655.5" y="-533" font-family="Helvetica,sans-Serif" font-size="10.00">ParsedTools::MappingEulerian</text>
<text text-anchor="middle" x="728.5" y="-522" font-family="Helvetica,sans-Serif" font-size="10.00">&lt; dim, dim &gt;</text>
</a>
</g>
</g>
<!-- Node7&#45;&gt;Node13 -->
<g id="edge20" class="edge">
<title>Node7&#45;&gt;Node13</title>
<path fill="none" stroke="midnightblue" d="M553.12,-567.39C584.25,-560.72 623.71,-552.26 657.22,-545.07"/>
<polygon fill="midnightblue" stroke="midnightblue" points="552.37,-563.98 543.33,-569.49 553.84,-570.82 552.37,-563.98"/>
</g>
<!-- Node14 -->
<g id="node19" class="node">
<title>Node14</title>
<g id="a_node19"><a xlink:href="class_parsed_l_a_c_1_1_a_m_g_mue_lu_preconditioner.html" target="_top" xlink:title="A parsed AMG preconditioner based on MueLu which uses parameter files to choose between different opt...">
<polygon fill="none" stroke="black" points="628,-114.5 628,-133.5 829,-133.5 829,-114.5 628,-114.5"/>
<text text-anchor="middle" x="728.5" y="-121.5" font-family="Helvetica,sans-Serif" font-size="10.00">ParsedLAC::AMGMueLuPreconditioner</text>
</a>
</g>
</g>
<!-- Node7&#45;&gt;Node14 -->
<g id="edge21" class="edge">
<title>Node7&#45;&gt;Node14</title>
<path fill="none" stroke="midnightblue" d="M498.27,-558.87C496.91,-489.56 502.4,-258.78 628,-144 632.55,-139.84 637.72,-136.44 643.25,-133.68"/>
<polygon fill="midnightblue" stroke="midnightblue" points="494.78,-559.32 498.55,-569.22 501.77,-559.13 494.78,-559.32"/>
</g>
<!-- Node15 -->
<g id="node20" class="node">
<title>Node15</title>
<g id="a_node20"><a xlink:href="class_parsed_l_a_c_1_1_a_m_g_preconditioner.html" target="_top" xlink:title="A parsed AMG preconditioner which uses parameter files to choose between different options.">
<polygon fill="none" stroke="black" points="644,-0.5 644,-19.5 813,-19.5 813,-0.5 644,-0.5"/>
<text text-anchor="middle" x="728.5" y="-7.5" font-family="Helvetica,sans-Serif" font-size="10.00">ParsedLAC::AMGPreconditioner</text>
</a>
</g>
</g>
<!-- Node7&#45;&gt;Node15 -->
<g id="edge22" class="edge">
<title>Node7&#45;&gt;Node15</title>
<path fill="none" stroke="midnightblue" d="M503.47,-559.3C525.64,-461.64 622.98,-33.81 628,-29 632.7,-24.5 638.11,-20.9 643.94,-18.04"/>
<polygon fill="midnightblue" stroke="midnightblue" points="500.05,-558.55 501.25,-569.08 506.88,-560.1 500.05,-558.55"/>
</g>
<!-- Node16 -->
<g id="node21" class="node">
<title>Node16</title>
<g id="a_node21"><a xlink:href="class_parsed_l_a_c_1_1_i_l_u_preconditioner.html" target="_top" xlink:title="A parsed ILU preconditioner which uses parameter files to choose between different options.">
<polygon fill="none" stroke="black" points="648,-38.5 648,-57.5 809,-57.5 809,-38.5 648,-38.5"/>
<text text-anchor="middle" x="728.5" y="-45.5" font-family="Helvetica,sans-Serif" font-size="10.00">ParsedLAC::ILUPreconditioner</text>
</a>
</g>
</g>
<!-- Node7&#45;&gt;Node16 -->
<g id="edge23" class="edge">
<title>Node7&#45;&gt;Node16</title>
<path fill="none" stroke="midnightblue" d="M503.36,-559.21C523.72,-467.17 609.24,-84.7 628,-67 633.76,-61.57 640.56,-57.46 647.87,-54.38"/>
<polygon fill="midnightblue" stroke="midnightblue" points="499.9,-558.64 501.16,-569.16 506.74,-560.15 499.9,-558.64"/>
</g>
<!-- Node17 -->
<g id="node22" class="node">
<title>Node17</title>
<g id="a_node22"><a xlink:href="class_parsed_l_a_c_1_1_inverse_operator.html" target="_top" xlink:title="A factory that can generate inverse operators according to parameter files.">
<polygon fill="none" stroke="black" points="651.5,-476.5 651.5,-495.5 805.5,-495.5 805.5,-476.5 651.5,-476.5"/>
<text text-anchor="middle" x="728.5" y="-483.5" font-family="Helvetica,sans-Serif" font-size="10.00">ParsedLAC::InverseOperator</text>
</a>
</g>
</g>
<!-- Node7&#45;&gt;Node17 -->
<g id="edge24" class="edge">
<title>Node7&#45;&gt;Node17</title>
<path fill="none" stroke="midnightblue" d="M520.93,-563.7C545.79,-547.07 588.05,-520.88 628,-506 639.56,-501.69 652.23,-498.25 664.55,-495.51"/>
<polygon fill="midnightblue" stroke="midnightblue" points="518.91,-560.85 512.6,-569.36 522.84,-566.64 518.91,-560.85"/>
</g>
<!-- Node18 -->
<g id="node23" class="node">
<title>Node18</title>
<g id="a_node23"><a xlink:href="class_parsed_l_a_c_1_1_jacobi_preconditioner.html" target="_top" xlink:title="A parsed Jacobi preconditioner which uses parameter files to choose between different options.">
<polygon fill="none" stroke="black" points="641,-76.5 641,-95.5 816,-95.5 816,-76.5 641,-76.5"/>
<text text-anchor="middle" x="728.5" y="-83.5" font-family="Helvetica,sans-Serif" font-size="10.00">ParsedLAC::JacobiPreconditioner</text>
</a>
</g>
</g>
<!-- Node7&#45;&gt;Node18 -->
<g id="edge25" class="edge">
<title>Node7&#45;&gt;Node18</title>
<path fill="none" stroke="midnightblue" d="M503.03,-559.55C520.82,-474.41 593.04,-137.37 628,-105 632,-101.3 636.49,-98.21 641.29,-95.65"/>
<polygon fill="midnightblue" stroke="midnightblue" points="499.58,-558.94 500.97,-569.44 506.43,-560.37 499.58,-558.94"/>
</g>
<!-- Node19 -->
<g id="node24" class="node">
<title>Node19</title>
<g id="a_node24"><a xlink:href="class_parsed_tools_1_1_boundary_conditions.html" target="_top" xlink:title="A wrapper for boundary conditions.">
<polygon fill="none" stroke="black" points="639,-427 639,-457 818,-457 818,-427 639,-427"/>
<text text-anchor="start" x="647" y="-445" font-family="Helvetica,sans-Serif" font-size="10.00">ParsedTools::BoundaryConditions</text>
<text text-anchor="middle" x="728.5" y="-434" font-family="Helvetica,sans-Serif" font-size="10.00">&lt; spacedim &gt;</text>
</a>
</g>
</g>
<!-- Node7&#45;&gt;Node19 -->
<g id="edge26" class="edge">
<title>Node7&#45;&gt;Node19</title>
<path fill="none" stroke="midnightblue" d="M513.96,-561.64C536.27,-536.87 580.74,-491.64 628,-467 635.42,-463.13 643.47,-459.84 651.67,-457.04"/>
<polygon fill="midnightblue" stroke="midnightblue" points="511.27,-559.4 507.27,-569.2 516.52,-564.03 511.27,-559.4"/>
</g>
<!-- Node20 -->
<g id="node25" class="node">
<title>Node20</title>
<g id="a_node25"><a xlink:href="class_parsed_tools_1_1_constants.html" target="_top" xlink:title="A wrapper for physical constants to be shared among functions and classes.">
<polygon fill="none" stroke="black" points="664,-388.5 664,-407.5 793,-407.5 793,-388.5 664,-388.5"/>
<text text-anchor="middle" x="728.5" y="-395.5" font-family="Helvetica,sans-Serif" font-size="10.00">ParsedTools::Constants</text>
</a>
</g>
</g>
<!-- Node7&#45;&gt;Node20 -->
<g id="edge27" class="edge">
<title>Node7&#45;&gt;Node20</title>
<path fill="none" stroke="midnightblue" d="M508.36,-560.13C526.42,-525.85 569.5,-453.61 628,-418 638.84,-411.4 651.45,-406.94 663.98,-403.92"/>
<polygon fill="midnightblue" stroke="midnightblue" points="505.02,-558.97 503.57,-569.47 511.25,-562.17 505.02,-558.97"/>
</g>
<!-- Node21 -->
<g id="node26" class="node">
<title>Node21</title>
<g id="a_node26"><a xlink:href="class_parsed_tools_1_1_data_out.html" target="_top" xlink:title=" ">
<polygon fill="none" stroke="black" points="668,-339 668,-369 789,-369 789,-339 668,-339"/>
<text text-anchor="start" x="676" y="-357" font-family="Helvetica,sans-Serif" font-size="10.00">ParsedTools::DataOut</text>
<text text-anchor="middle" x="728.5" y="-346" font-family="Helvetica,sans-Serif" font-size="10.00">&lt; dim, spacedim &gt;</text>
</a>
</g>
</g>
<!-- Node7&#45;&gt;Node21 -->
<g id="edge28" class="edge">
<title>Node7&#45;&gt;Node21</title>
<path fill="none" stroke="midnightblue" d="M505.77,-559.81C520.97,-519.64 561.73,-426.52 628,-379 639.65,-370.65 653.82,-365.07 667.76,-361.36"/>
<polygon fill="midnightblue" stroke="midnightblue" points="502.47,-558.64 502.31,-569.24 509.04,-561.05 502.47,-558.64"/>
</g>
<!-- Node22 -->
<g id="node27" class="node">
<title>Node22</title>
<g id="a_node27"><a xlink:href="class_parsed_tools_1_1_finite_element.html" target="_top" xlink:title="Parsed FiniteElement.">
<polygon fill="none" stroke="black" points="655,-290 655,-320 802,-320 802,-290 655,-290"/>
<text text-anchor="start" x="663" y="-308" font-family="Helvetica,sans-Serif" font-size="10.00">ParsedTools::FiniteElement</text>
<text text-anchor="middle" x="728.5" y="-297" font-family="Helvetica,sans-Serif" font-size="10.00">&lt; dim, spacedim &gt;</text>
</a>
</g>
</g>
<!-- Node7&#45;&gt;Node22 -->
<g id="edge29" class="edge">
<title>Node7&#45;&gt;Node22</title>
<path fill="none" stroke="midnightblue" d="M503.3,-559.43C514.72,-512.22 550.42,-391.4 628,-330 635.89,-323.75 645.15,-319.05 654.78,-315.51"/>
<polygon fill="midnightblue" stroke="midnightblue" points="499.86,-558.77 501.01,-569.3 506.68,-560.35 499.86,-558.77"/>
</g>
<!-- Node23 -->
<g id="node28" class="node">
<title>Node23</title>
<g id="a_node28"><a xlink:href="class_parsed_tools_1_1_grid_generator.html" target="_top" xlink:title="GridGenerator class.">
<polygon fill="none" stroke="black" points="654,-241 654,-271 803,-271 803,-241 654,-241"/>
<text text-anchor="start" x="662" y="-259" font-family="Helvetica,sans-Serif" font-size="10.00">ParsedTools::GridGenerator</text>
<text text-anchor="middle" x="728.5" y="-248" font-family="Helvetica,sans-Serif" font-size="10.00">&lt; dim, spacedim &gt;</text>
</a>
</g>
</g>
<!-- Node7&#45;&gt;Node23 -->
<g id="edge31" class="edge">
<title>Node7&#45;&gt;Node23</title>
<path fill="none" stroke="midnightblue" d="M501.51,-559.32C509.4,-505.85 538.74,-356.83 628,-281 635.53,-274.6 644.48,-269.8 653.87,-266.21"/>
<polygon fill="midnightblue" stroke="midnightblue" points="498,-559.09 500.1,-569.48 504.94,-560.05 498,-559.09"/>
</g>
<!-- Node24 -->
<g id="node29" class="node">
<title>Node24</title>
<g id="a_node29"><a xlink:href="class_parsed_tools_1_1_grid_refinement.html" target="_top" xlink:title="A wrapper for refinement strategies.">
<polygon fill="none" stroke="black" points="649.5,-202.5 649.5,-221.5 807.5,-221.5 807.5,-202.5 649.5,-202.5"/>
<text text-anchor="middle" x="728.5" y="-209.5" font-family="Helvetica,sans-Serif" font-size="10.00">ParsedTools::GridRefinement</text>
</a>
</g>
</g>
<!-- Node7&#45;&gt;Node24 -->
<g id="edge32" class="edge">
<title>Node7&#45;&gt;Node24</title>
<path fill="none" stroke="midnightblue" d="M499.97,-559.11C504.03,-499.37 524.66,-320.22 628,-232 634.3,-226.62 641.64,-222.55 649.42,-219.47"/>
<polygon fill="midnightblue" stroke="midnightblue" points="496.46,-559.21 499.36,-569.4 503.45,-559.63 496.46,-559.21"/>
</g>
<!-- Node25 -->
<g id="node30" class="node">
<title>Node25</title>
<g id="a_node30"><a xlink:href="class_parsed_tools_1_1_mapping_eulerian.html" target="_top" xlink:title="A wrapper class for MappingFEField or MappingQEulerian.">
<polygon fill="none" stroke="black" points="647.5,-153 647.5,-183 809.5,-183 809.5,-153 647.5,-153"/>
<text text-anchor="start" x="655.5" y="-171" font-family="Helvetica,sans-Serif" font-size="10.00">ParsedTools::MappingEulerian</text>
<text text-anchor="middle" x="728.5" y="-160" font-family="Helvetica,sans-Serif" font-size="10.00">&lt; dim, spacedim &gt;</text>
</a>
</g>
</g>
<!-- Node7&#45;&gt;Node25 -->
<g id="edge33" class="edge">
<title>Node7&#45;&gt;Node25</title>
<path fill="none" stroke="midnightblue" d="M499.33,-559.27C501.5,-495.89 517.23,-295.62 628,-193 633.62,-187.8 640.16,-183.63 647.15,-180.31"/>
<polygon fill="midnightblue" stroke="midnightblue" points="495.83,-559.37 499.06,-569.46 502.82,-559.55 495.83,-559.37"/>
</g>
<!-- Node26 -->
<g id="node31" class="node">
<title>Node26</title>
<g id="a_node31"><a xlink:href="class_parsed_tools_1_1_symbolic_function.html" target="_top" xlink:title="A wrapper for the Functions::SymbolicFunction class.">
<polygon fill="none" stroke="black" points="645,-995 645,-1025 812,-1025 812,-995 645,-995"/>
<text text-anchor="start" x="653" y="-1013" font-family="Helvetica,sans-Serif" font-size="10.00">ParsedTools::SymbolicFunction</text>
<text text-anchor="middle" x="728.5" y="-1002" font-family="Helvetica,sans-Serif" font-size="10.00">&lt; dim &gt;</text>
</a>
</g>
</g>
<!-- Node7&#45;&gt;Node26 -->
<g id="edge34" class="edge">
<title>Node7&#45;&gt;Node26</title>
<path fill="none" stroke="midnightblue" d="M498.9,-598.97C499.71,-664.89 511.63,-877.53 628,-986 632.94,-990.6 638.6,-994.37 644.67,-997.45"/>
<polygon fill="midnightblue" stroke="midnightblue" points="502.4,-598.72 498.85,-588.73 495.4,-598.75 502.4,-598.72"/>
</g>
<!-- Node27 -->
<g id="node32" class="node">
<title>Node27</title>
<g id="a_node32"><a xlink:href="class_p_d_es_1_1_serial_1_1_distributed_lagrange.html" target="_top" xlink:title=" ">
<polygon fill="none" stroke="black" points="650.5,-946 650.5,-976 806.5,-976 806.5,-946 650.5,-946"/>
<text text-anchor="start" x="658.5" y="-964" font-family="Helvetica,sans-Serif" font-size="10.00">PDEs::Serial::Distributed</text>
<text text-anchor="middle" x="728.5" y="-953" font-family="Helvetica,sans-Serif" font-size="10.00">Lagrange&lt; dim, spacedim &gt;</text>
</a>
</g>
</g>
<!-- Node7&#45;&gt;Node27 -->
<g id="edge35" class="edge">
<title>Node7&#45;&gt;Node27</title>
<path fill="none" stroke="midnightblue" d="M499.89,-598.94C503.71,-659.62 523.78,-843.58 628,-937 634.48,-942.81 642.13,-947.28 650.26,-950.7"/>
<polygon fill="midnightblue" stroke="midnightblue" points="503.37,-598.59 499.33,-588.8 496.39,-598.98 503.37,-598.59"/>
</g>
<!-- Node28 -->
<g id="node33" class="node">
<title>Node28</title>
<g id="a_node33"><a xlink:href="class_p_d_es_1_1_serial_1_1_linear_elasticity.html" target="_top" xlink:title=" ">
<polygon fill="none" stroke="black" points="650.5,-897 650.5,-927 806.5,-927 806.5,-897 650.5,-897"/>
<text text-anchor="start" x="658.5" y="-915" font-family="Helvetica,sans-Serif" font-size="10.00">PDEs::Serial::LinearElasticity</text>
<text text-anchor="middle" x="728.5" y="-904" font-family="Helvetica,sans-Serif" font-size="10.00">&lt; dim, spacedim &gt;</text>
</a>
</g>
</g>
<!-- Node7&#45;&gt;Node28 -->
<g id="edge36" class="edge">
<title>Node7&#45;&gt;Node28</title>
<path fill="none" stroke="midnightblue" d="M501.13,-598.72C508.16,-653.61 535.7,-809.3 628,-888 634.56,-893.59 642.2,-897.93 650.29,-901.28"/>
<polygon fill="midnightblue" stroke="midnightblue" points="504.59,-598.12 499.93,-588.6 497.64,-598.94 504.59,-598.12"/>
</g>
<!-- Node29 -->
<g id="node34" class="node">
<title>Node29</title>
<g id="a_node34"><a xlink:href="class_p_d_es_1_1_serial_1_1_poisson.html" target="_top" xlink:title=" ">
<polygon fill="none" stroke="black" points="669,-848 669,-878 788,-878 788,-848 669,-848"/>
<text text-anchor="start" x="677" y="-866" font-family="Helvetica,sans-Serif" font-size="10.00">PDEs::Serial::Poisson</text>
<text text-anchor="middle" x="728.5" y="-855" font-family="Helvetica,sans-Serif" font-size="10.00">&lt; dim, spacedim &gt;</text>
</a>
</g>
</g>
<!-- Node7&#45;&gt;Node29 -->
<g id="edge37" class="edge">
<title>Node7&#45;&gt;Node29</title>
<path fill="none" stroke="midnightblue" d="M503.28,-598.4C514.77,-645.8 550.75,-768.35 628,-833 639.62,-842.73 654.33,-849.3 668.85,-853.74"/>
<polygon fill="midnightblue" stroke="midnightblue" points="506.66,-597.46 500.99,-588.51 499.84,-599.05 506.66,-597.46"/>
</g>
<!-- Node30 -->
<g id="node35" class="node">
<title>Node30</title>
<g id="a_node35"><a xlink:href="class_p_d_es_1_1_serial_1_1_stokes.html" target="_top" xlink:title=" ">
<polygon fill="none" stroke="black" points="672,-760 672,-790 785,-790 785,-760 672,-760"/>
<text text-anchor="start" x="680" y="-778" font-family="Helvetica,sans-Serif" font-size="10.00">PDEs::Serial::Stokes</text>
<text text-anchor="middle" x="728.5" y="-767" font-family="Helvetica,sans-Serif" font-size="10.00">&lt; dim &gt;</text>
</a>
</g>
</g>
<!-- Node7&#45;&gt;Node30 -->
<g id="edge38" class="edge">
<title>Node7&#45;&gt;Node30</title>
<path fill="none" stroke="midnightblue" d="M507.67,-597.95C525.08,-633.79 567.83,-711.41 628,-751 640.99,-759.55 656.72,-765.05 671.81,-768.6"/>
<polygon fill="midnightblue" stroke="midnightblue" points="510.71,-596.18 503.26,-588.64 504.38,-599.18 510.71,-596.18"/>
</g>
<!-- Node32 -->
<g id="node37" class="node">
<title>Node32</title>
<g id="a_node37"><a xlink:href="http://www.dealii.org/developer/doxygen/deal.II/classTrilinosWrappers_1_1PreconditionAMG.html" xlink:title=" ">
<polygon fill="none" stroke="black" points="404,-0.5 404,-19.5 592,-19.5 592,-0.5 404,-0.5"/>
<text text-anchor="middle" x="498" y="-7.5" font-family="Helvetica,sans-Serif" font-size="10.00">TrilinosWrappers::PreconditionAMG</text>
</a>
</g>
</g>
<!-- Node31&#45;&gt;Node32 -->
<g id="edge40" class="edge">
<title>Node31&#45;&gt;Node32</title>
<path fill="none" stroke="midnightblue" d="M299.68,-77.39C325.2,-63.15 366.21,-41.82 404,-29 415.08,-25.24 427.17,-22.1 438.85,-19.54"/>
<polygon fill="midnightblue" stroke="midnightblue" points="297.68,-74.5 290.7,-82.46 301.12,-80.59 297.68,-74.5"/>
</g>
<!-- Node33 -->
<g id="node38" class="node">
<title>Node33</title>
<g id="a_node38"><a xlink:href="http://www.dealii.org/developer/doxygen/deal.II/classTrilinosWrappers_1_1PreconditionAMGMueLu.html" xlink:title=" ">
<polygon fill="none" stroke="black" points="415.5,-126 415.5,-156 580.5,-156 580.5,-126 415.5,-126"/>
<text text-anchor="start" x="423.5" y="-144" font-family="Helvetica,sans-Serif" font-size="10.00">TrilinosWrappers::Precondition</text>
<text text-anchor="middle" x="498" y="-133" font-family="Helvetica,sans-Serif" font-size="10.00">AMGMueLu</text>
</a>
</g>
</g>
<!-- Node31&#45;&gt;Node33 -->
<g id="edge42" class="edge">
<title>Node31&#45;&gt;Node33</title>
<path fill="none" stroke="midnightblue" d="M327.6,-103.69C357.85,-110.36 396.08,-118.77 428.56,-125.93"/>
<polygon fill="midnightblue" stroke="midnightblue" points="328.18,-100.24 317.66,-101.51 326.68,-107.07 328.18,-100.24"/>
</g>
<!-- Node34 -->
<g id="node39" class="node">
<title>Node34</title>
<g id="a_node39"><a xlink:href="http://www.dealii.org/developer/doxygen/deal.II/classTrilinosWrappers_1_1PreconditionILU.html" xlink:title=" ">
<polygon fill="none" stroke="black" points="408,-38.5 408,-57.5 588,-57.5 588,-38.5 408,-38.5"/>
<text text-anchor="middle" x="498" y="-45.5" font-family="Helvetica,sans-Serif" font-size="10.00">TrilinosWrappers::PreconditionILU</text>
</a>
</g>
</g>
<!-- Node31&#45;&gt;Node34 -->
<g id="edge44" class="edge">
<title>Node31&#45;&gt;Node34</title>
<path fill="none" stroke="midnightblue" d="M332.7,-80.49C368.83,-73.35 414.72,-64.27 448.82,-57.53"/>
<polygon fill="midnightblue" stroke="midnightblue" points="331.91,-77.08 322.78,-82.45 333.27,-83.95 331.91,-77.08"/>
</g>
<!-- Node35 -->
<g id="node40" class="node">
<title>Node35</title>
<g id="a_node40"><a xlink:href="http://www.dealii.org/developer/doxygen/deal.II/classTrilinosWrappers_1_1PreconditionJacobi.html" xlink:title=" ">
<polygon fill="none" stroke="black" points="415.5,-77 415.5,-107 580.5,-107 580.5,-77 415.5,-77"/>
<text text-anchor="start" x="423.5" y="-95" font-family="Helvetica,sans-Serif" font-size="10.00">TrilinosWrappers::Precondition</text>
<text text-anchor="middle" x="498" y="-84" font-family="Helvetica,sans-Serif" font-size="10.00">Jacobi</text>
</a>
</g>
</g>
<!-- Node31&#45;&gt;Node35 -->
<g id="edge46" class="edge">
<title>Node31&#45;&gt;Node35</title>
<path fill="none" stroke="midnightblue" d="M378.56,-92C390.92,-92 403.4,-92 415.39,-92"/>
<polygon fill="midnightblue" stroke="midnightblue" points="378.22,-88.5 368.22,-92 378.22,-95.5 378.22,-88.5"/>
</g>
<!-- Node32&#45;&gt;Node15 -->
<g id="edge41" class="edge">
<title>Node32&#45;&gt;Node15</title>
<path fill="none" stroke="midnightblue" d="M602.31,-10C616.17,-10 630.24,-10 643.71,-10"/>
<polygon fill="midnightblue" stroke="midnightblue" points="602.27,-6.5 592.27,-10 602.27,-13.5 602.27,-6.5"/>
</g>
<!-- Node33&#45;&gt;Node14 -->
<g id="edge43" class="edge">
<title>Node33&#45;&gt;Node14</title>
<path fill="none" stroke="midnightblue" d="M590.64,-134.18C602.8,-133.28 615.32,-132.35 627.61,-131.43"/>
<polygon fill="midnightblue" stroke="midnightblue" points="590.24,-130.7 580.53,-134.93 590.76,-137.68 590.24,-130.7"/>
</g>
<!-- Node34&#45;&gt;Node16 -->
<g id="edge45" class="edge">
<title>Node34&#45;&gt;Node16</title>
<path fill="none" stroke="midnightblue" d="M598.54,-48C615.05,-48 631.97,-48 647.9,-48"/>
<polygon fill="midnightblue" stroke="midnightblue" points="598.33,-44.5 588.33,-48 598.33,-51.5 598.33,-44.5"/>
</g>
<!-- Node35&#45;&gt;Node18 -->
<g id="edge47" class="edge">
<title>Node35&#45;&gt;Node18</title>
<path fill="none" stroke="midnightblue" d="M590.75,-89.59C607.32,-89.16 624.56,-88.7 640.98,-88.27"/>
<polygon fill="midnightblue" stroke="midnightblue" points="590.43,-86.1 580.53,-89.86 590.61,-93.1 590.43,-86.1"/>
</g>
</g>
</svg>
