<?xml version="1.0" encoding="UTF-8" standalone="no"?>
<!DOCTYPE svg PUBLIC "-//W3C//DTD SVG 1.1//EN"
 "http://www.w3.org/Graphics/SVG/1.1/DTD/svg11.dtd">
<!-- Generated by graphviz version 2.43.0 (0)
 -->
<!-- Title: Graphical Class Hierarchy Pages: 1 -->
<svg width="1000pt" height="831pt"
 viewBox="0.00 0.00 1000.00 830.50" xmlns="http://www.w3.org/2000/svg" xmlns:xlink="http://www.w3.org/1999/xlink">
<g id="graph0" class="graph" transform="scale(1 1) rotate(0) translate(4 826.5)">
<title>Graphical Class Hierarchy</title>
<!-- Node33 -->
<g id="node1" class="node">
<title>Node33</title>
<g id="a_node1"><a xlink:href="http://www.dealii.org/developer/doxygen/deal.II/classFunctionTime.html" xlink:title=" ">
<polygon fill="none" stroke="black" points="0,-437 0,-456 143,-456 143,-437 0,-437"/>
<text text-anchor="middle" x="71.5" y="-444" font-family="Helvetica,sans-Serif" font-size="10.00">FunctionTime&lt; Number &gt;</text>
</a>
</g>
</g>
<!-- Node1 -->
<g id="node2" class="node">
<title>Node1</title>
<g id="a_node2"><a xlink:href="http://www.dealii.org/developer/doxygen/deal.II/classFunction.html" xlink:title=" ">
<polygon fill="none" stroke="black" points="224,-437 224,-456 323,-456 323,-437 224,-437"/>
<text text-anchor="middle" x="273.5" y="-444" font-family="Helvetica,sans-Serif" font-size="10.00">Function&lt; dim &gt;</text>
</a>
</g>
</g>
<!-- Node33&#45;&gt;Node1 -->
<g id="edge1" class="edge">
<title>Node33&#45;&gt;Node1</title>
<path fill="none" stroke="midnightblue" d="M153.18,-446.5C177.16,-446.5 202.68,-446.5 223.94,-446.5"/>
<polygon fill="midnightblue" stroke="midnightblue" points="153.01,-443 143.01,-446.5 153.01,-450 153.01,-443"/>
</g>
<!-- Node2 -->
<g id="node3" class="node">
<title>Node2</title>
<g id="a_node3"><a xlink:href="http://www.dealii.org/developer/doxygen/deal.II/classAutoDerivativeFunction.html" xlink:title=" ">
<polygon fill="none" stroke="black" points="432.5,-729.5 432.5,-759.5 563.5,-759.5 563.5,-729.5 432.5,-729.5"/>
<text text-anchor="start" x="440.5" y="-747.5" font-family="Helvetica,sans-Serif" font-size="10.00">AutoDerivativeFunction</text>
<text text-anchor="middle" x="498" y="-736.5" font-family="Helvetica,sans-Serif" font-size="10.00">&lt; dim &gt;</text>
</a>
</g>
</g>
<!-- Node1&#45;&gt;Node2 -->
<g id="edge2" class="edge">
<title>Node1&#45;&gt;Node2</title>
<path fill="none" stroke="midnightblue" d="M286.86,-464.97C309.43,-498.48 359.1,-571.29 404,-630.5 431.47,-666.73 465.7,-707.69 484.01,-729.29"/>
<polygon fill="midnightblue" stroke="midnightblue" points="289.49,-462.6 281,-456.25 283.67,-466.5 289.49,-462.6"/>
</g>
<!-- Node3 -->
<g id="node4" class="node">
<title>Node3</title>
<g id="a_node4"><a xlink:href="http://www.dealii.org/developer/doxygen/deal.II/classFunctionParser.html" xlink:title=" ">
<polygon fill="none" stroke="black" points="666,-803 666,-822 796,-822 796,-803 666,-803"/>
<text text-anchor="middle" x="731" y="-810" font-family="Helvetica,sans-Serif" font-size="10.00">FunctionParser&lt; dim &gt;</text>
</a>
</g>
</g>
<!-- Node2&#45;&gt;Node3 -->
<g id="edge3" class="edge">
<title>Node2&#45;&gt;Node3</title>
<path fill="none" stroke="midnightblue" d="M542.91,-763.42C567.55,-773.47 599.08,-785.39 628,-793.5 641.09,-797.17 655.34,-800.33 668.91,-802.96"/>
<polygon fill="midnightblue" stroke="midnightblue" points="544.05,-760.11 533.47,-759.53 541.38,-766.58 544.05,-760.11"/>
</g>
<!-- Node4 -->
<g id="node5" class="node">
<title>Node4</title>
<g id="a_node5"><a xlink:href="class_tools_1_1_parsed_function.html" target="_top" xlink:title="A wrapper for the FunctionParser class.">
<polygon fill="none" stroke="black" points="870,-759.5 870,-789.5 992,-789.5 992,-759.5 870,-759.5"/>
<text text-anchor="start" x="878" y="-777.5" font-family="Helvetica,sans-Serif" font-size="10.00">Tools::ParsedFunction</text>
<text text-anchor="middle" x="931" y="-766.5" font-family="Helvetica,sans-Serif" font-size="10.00">&lt; dim &gt;</text>
</a>
</g>
</g>
<!-- Node3&#45;&gt;Node4 -->
<g id="edge4" class="edge">
<title>Node3&#45;&gt;Node4</title>
<path fill="none" stroke="midnightblue" d="M793.67,-801.13C806.97,-798.64 820.96,-796 834,-793.5 845.6,-791.27 857.97,-788.85 869.85,-786.51"/>
<polygon fill="midnightblue" stroke="midnightblue" points="792.84,-797.72 783.65,-803 794.12,-804.6 792.84,-797.72"/>
</g>
<!-- Node0 -->
<g id="node6" class="node">
<title>Node0</title>
<g id="a_node6"><a xlink:href="http://www.dealii.org/developer/doxygen/deal.II/classSubscriptor.html" xlink:title=" ">
<polygon fill="none" stroke="black" points="36,-372 36,-391 107,-391 107,-372 36,-372"/>
<text text-anchor="middle" x="71.5" y="-379" font-family="Helvetica,sans-Serif" font-size="10.00">Subscriptor</text>
</a>
</g>
</g>
<!-- Node0&#45;&gt;Node1 -->
<g id="edge5" class="edge">
<title>Node0&#45;&gt;Node1</title>
<path fill="none" stroke="midnightblue" d="M111.87,-394.29C150.48,-406.84 208.47,-425.69 243.19,-436.98"/>
<polygon fill="midnightblue" stroke="midnightblue" points="112.6,-390.85 102.01,-391.09 110.44,-397.51 112.6,-390.85"/>
</g>
<!-- Node5 -->
<g id="node7" class="node">
<title>Node5</title>
<g id="a_node7"><a xlink:href="http://www.dealii.org/developer/doxygen/deal.II/classParameterAcceptor.html" xlink:title=" ">
<polygon fill="none" stroke="black" points="443,-372 443,-391 553,-391 553,-372 443,-372"/>
<text text-anchor="middle" x="498" y="-379" font-family="Helvetica,sans-Serif" font-size="10.00">ParameterAcceptor</text>
</a>
</g>
</g>
<!-- Node0&#45;&gt;Node5 -->
<g id="edge6" class="edge">
<title>Node0&#45;&gt;Node5</title>
<path fill="none" stroke="midnightblue" d="M117.29,-381.5C195.82,-381.5 358.01,-381.5 442.75,-381.5"/>
<polygon fill="midnightblue" stroke="midnightblue" points="117.24,-378 107.24,-381.5 117.24,-385 117.24,-378"/>
</g>
<!-- Node23 -->
<g id="node25" class="node">
<title>Node23</title>
<g id="a_node25"><a xlink:href="http://www.dealii.org/developer/doxygen/deal.II/classTrilinosWrappers_1_1PreconditionBase.html" xlink:title=" ">
<polygon fill="none" stroke="black" points="179,-88 179,-107 368,-107 368,-88 179,-88"/>
<text text-anchor="middle" x="273.5" y="-95" font-family="Helvetica,sans-Serif" font-size="10.00">TrilinosWrappers::PreconditionBase</text>
</a>
</g>
</g>
<!-- Node0&#45;&gt;Node23 -->
<g id="edge25" class="edge">
<title>Node0&#45;&gt;Node23</title>
<path fill="none" stroke="midnightblue" d="M85.25,-363.4C123.52,-309.05 236.61,-148.46 265.64,-107.23"/>
<polygon fill="midnightblue" stroke="midnightblue" points="82.28,-361.53 79.38,-371.72 88,-365.56 82.28,-361.53"/>
</g>
<!-- Node5&#45;&gt;Node4 -->
<g id="edge18" class="edge">
<title>Node5&#45;&gt;Node4</title>
<path fill="none" stroke="midnightblue" d="M509.09,-400.26C527.54,-435.13 567.11,-512.67 592,-581.5 613.26,-640.3 582.13,-675.01 628,-717.5 696.3,-780.77 742.56,-738.02 834,-755.5 845.6,-757.72 857.97,-760.13 869.85,-762.47"/>
<polygon fill="midnightblue" stroke="midnightblue" points="512.07,-398.41 504.28,-391.23 505.89,-401.7 512.07,-398.41"/>
</g>
<!-- Node6 -->
<g id="node8" class="node">
<title>Node6</title>
<g id="a_node8"><a xlink:href="class_tools_1_1_parsed_boundary_conditions.html" target="_top" xlink:title=" ">
<polygon fill="none" stroke="black" points="641.5,-677.5 641.5,-707.5 820.5,-707.5 820.5,-677.5 641.5,-677.5"/>
<text text-anchor="start" x="649.5" y="-695.5" font-family="Helvetica,sans-Serif" font-size="10.00">Tools::ParsedBoundaryConditions</text>
<text text-anchor="middle" x="731" y="-684.5" font-family="Helvetica,sans-Serif" font-size="10.00">&lt; dim &gt;</text>
</a>
</g>
</g>
<!-- Node5&#45;&gt;Node6 -->
<g id="edge7" class="edge">
<title>Node5&#45;&gt;Node6</title>
<path fill="none" stroke="midnightblue" d="M507.98,-400.1C524.89,-435.31 562.43,-514.17 592,-581.5 608.83,-619.81 596.12,-641.39 628,-668.5 632.02,-671.92 636.44,-674.87 641.11,-677.42"/>
<polygon fill="midnightblue" stroke="midnightblue" points="511.09,-398.5 503.6,-391.01 504.78,-401.54 511.09,-398.5"/>
</g>
<!-- Node7 -->
<g id="node9" class="node">
<title>Node7</title>
<g id="a_node9"><a xlink:href="class_tools_1_1_parsed_data_out.html" target="_top" xlink:title=" ">
<polygon fill="none" stroke="black" points="670.5,-628.5 670.5,-658.5 791.5,-658.5 791.5,-628.5 670.5,-628.5"/>
<text text-anchor="start" x="678.5" y="-646.5" font-family="Helvetica,sans-Serif" font-size="10.00">Tools::ParsedDataOut</text>
<text text-anchor="middle" x="731" y="-635.5" font-family="Helvetica,sans-Serif" font-size="10.00">&lt; dim, dim &gt;</text>
</a>
</g>
</g>
<!-- Node5&#45;&gt;Node7 -->
<g id="edge8" class="edge">
<title>Node5&#45;&gt;Node7</title>
<path fill="none" stroke="midnightblue" d="M506.89,-400.54C528.44,-451.62 589.22,-589.86 628,-619.5 640.21,-628.83 655.48,-634.62 670.45,-638.19"/>
<polygon fill="midnightblue" stroke="midnightblue" points="510,-398.9 502.91,-391.03 503.55,-401.6 510,-398.9"/>
</g>
<!-- Node8 -->
<g id="node10" class="node">
<title>Node8</title>
<g id="a_node10"><a xlink:href="class_tools_1_1_parsed_finite_element.html" target="_top" xlink:title=" ">
<polygon fill="none" stroke="black" points="657.5,-579.5 657.5,-609.5 804.5,-609.5 804.5,-579.5 657.5,-579.5"/>
<text text-anchor="start" x="665.5" y="-597.5" font-family="Helvetica,sans-Serif" font-size="10.00">Tools::ParsedFiniteElement</text>
<text text-anchor="middle" x="731" y="-586.5" font-family="Helvetica,sans-Serif" font-size="10.00">&lt; dim, dim &gt;</text>
</a>
</g>
</g>
<!-- Node5&#45;&gt;Node8 -->
<g id="edge9" class="edge">
<title>Node5&#45;&gt;Node8</title>
<path fill="none" stroke="midnightblue" d="M506.45,-400.75C522.45,-439.41 563.93,-526.53 628,-570.5 636.85,-576.57 647.04,-581.12 657.48,-584.53"/>
<polygon fill="midnightblue" stroke="midnightblue" points="509.59,-399.18 502.62,-391.21 503.1,-401.79 509.59,-399.18"/>
</g>
<!-- Node9 -->
<g id="node11" class="node">
<title>Node9</title>
<g id="a_node11"><a xlink:href="class_tools_1_1_parsed_grid_generator.html" target="_top" xlink:title=" ">
<polygon fill="none" stroke="black" points="656.5,-530.5 656.5,-560.5 805.5,-560.5 805.5,-530.5 656.5,-530.5"/>
<text text-anchor="start" x="664.5" y="-548.5" font-family="Helvetica,sans-Serif" font-size="10.00">Tools::ParsedGridGenerator</text>
<text text-anchor="middle" x="731" y="-537.5" font-family="Helvetica,sans-Serif" font-size="10.00">&lt; dim, dim &gt;</text>
</a>
</g>
</g>
<!-- Node5&#45;&gt;Node9 -->
<g id="edge10" class="edge">
<title>Node5&#45;&gt;Node9</title>
<path fill="none" stroke="midnightblue" d="M510.5,-399.84C530.5,-430.13 574.69,-490.36 628,-521.5 636.72,-526.59 646.45,-530.61 656.35,-533.77"/>
<polygon fill="midnightblue" stroke="midnightblue" points="513.24,-397.63 504.88,-391.13 507.36,-401.43 513.24,-397.63"/>
</g>
<!-- Node10 -->
<g id="node12" class="node">
<title>Node10</title>
<g id="a_node12"><a xlink:href="class_p_d_es_1_1_serial_poisson.html" target="_top" xlink:title="Serial Poisson problem.">
<polygon fill="none" stroke="black" points="674.5,-481.5 674.5,-511.5 787.5,-511.5 787.5,-481.5 674.5,-481.5"/>
<text text-anchor="start" x="682.5" y="-499.5" font-family="Helvetica,sans-Serif" font-size="10.00">PDEs::SerialPoisson</text>
<text text-anchor="middle" x="731" y="-488.5" font-family="Helvetica,sans-Serif" font-size="10.00">&lt; dim, spacedim &gt;</text>
</a>
</g>
</g>
<!-- Node5&#45;&gt;Node10 -->
<g id="edge11" class="edge">
<title>Node5&#45;&gt;Node10</title>
<path fill="none" stroke="midnightblue" d="M517.34,-397.94C541.16,-418.42 584.81,-453.07 628,-472.5 642.52,-479.03 659.03,-483.9 674.47,-487.48"/>
<polygon fill="midnightblue" stroke="midnightblue" points="519.34,-395.03 509.5,-391.09 514.73,-400.3 519.34,-395.03"/>
</g>
<!-- Node11 -->
<g id="node13" class="node">
<title>Node11</title>
<g id="a_node13"><a xlink:href="class_tools_1_1_parsed_a_m_g_mue_lu_preconditioner.html" target="_top" xlink:title="A parsed AMG preconditioner based on MueLu which uses parameter files to choose between different opt...">
<polygon fill="none" stroke="black" points="628,-765 628,-784 834,-784 834,-765 628,-765"/>
<text text-anchor="middle" x="731" y="-772" font-family="Helvetica,sans-Serif" font-size="10.00">Tools::ParsedAMGMueLuPreconditioner</text>
</a>
</g>
</g>
<!-- Node5&#45;&gt;Node11 -->
<g id="edge12" class="edge">
<title>Node5&#45;&gt;Node11</title>
<path fill="none" stroke="midnightblue" d="M509.42,-400.15C528.4,-434.84 568.8,-512.09 592,-581.5 616.34,-654.34 574.28,-695.62 628,-750.5 633.98,-756.61 641.2,-761.28 649.01,-764.85"/>
<polygon fill="midnightblue" stroke="midnightblue" points="512.36,-398.23 504.46,-391.16 506.23,-401.61 512.36,-398.23"/>
</g>
<!-- Node12 -->
<g id="node14" class="node">
<title>Node12</title>
<g id="a_node14"><a xlink:href="class_tools_1_1_parsed_a_m_g_preconditioner.html" target="_top" xlink:title="A parsed AMG preconditioner which uses parameter files to choose between different options.">
<polygon fill="none" stroke="black" points="644,-82 644,-101 818,-101 818,-82 644,-82"/>
<text text-anchor="middle" x="731" y="-89" font-family="Helvetica,sans-Serif" font-size="10.00">Tools::ParsedAMGPreconditioner</text>
</a>
</g>
</g>
<!-- Node5&#45;&gt;Node12 -->
<g id="edge13" class="edge">
<title>Node5&#45;&gt;Node12</title>
<path fill="none" stroke="midnightblue" d="M502.11,-361.96C511.25,-311.43 542.93,-175.89 628,-110.5 632.86,-106.77 638.22,-103.69 643.87,-101.16"/>
<polygon fill="midnightblue" stroke="midnightblue" points="498.65,-361.45 500.41,-371.89 505.55,-362.63 498.65,-361.45"/>
</g>
<!-- Node13 -->
<g id="node15" class="node">
<title>Node13</title>
<g id="a_node15"><a xlink:href="class_tools_1_1_parsed_boundary_conditions.html" target="_top" xlink:title="A wrapper for boundary conditions.">
<polygon fill="none" stroke="black" points="641.5,-432.5 641.5,-462.5 820.5,-462.5 820.5,-432.5 641.5,-432.5"/>
<text text-anchor="start" x="649.5" y="-450.5" font-family="Helvetica,sans-Serif" font-size="10.00">Tools::ParsedBoundaryConditions</text>
<text text-anchor="middle" x="731" y="-439.5" font-family="Helvetica,sans-Serif" font-size="10.00">&lt; spacedim &gt;</text>
</a>
</g>
</g>
<!-- Node5&#45;&gt;Node13 -->
<g id="edge14" class="edge">
<title>Node5&#45;&gt;Node13</title>
<path fill="none" stroke="midnightblue" d="M536.71,-394.22C562.32,-402.68 597.04,-413.8 628,-422.5 640.2,-425.93 653.29,-429.34 665.89,-432.49"/>
<polygon fill="midnightblue" stroke="midnightblue" points="537.61,-390.84 527.02,-391.01 535.41,-397.48 537.61,-390.84"/>
</g>
<!-- Node14 -->
<g id="node16" class="node">
<title>Node14</title>
<g id="a_node16"><a xlink:href="class_tools_1_1_parsed_constants.html" target="_top" xlink:title="A wrapper for physical constants to be shared among functions and classes.">
<polygon fill="none" stroke="black" points="666.5,-394 666.5,-413 795.5,-413 795.5,-394 666.5,-394"/>
<text text-anchor="middle" x="731" y="-401" font-family="Helvetica,sans-Serif" font-size="10.00">Tools::ParsedConstants</text>
</a>
</g>
</g>
<!-- Node5&#45;&gt;Node14 -->
<g id="edge15" class="edge">
<title>Node5&#45;&gt;Node14</title>
<path fill="none" stroke="midnightblue" d="M563.35,-387.63C595.5,-390.69 634.29,-394.38 666.35,-397.44"/>
<polygon fill="midnightblue" stroke="midnightblue" points="563.45,-384.12 553.16,-386.66 562.78,-391.09 563.45,-384.12"/>
</g>
<!-- Node15 -->
<g id="node17" class="node">
<title>Node15</title>
<g id="a_node17"><a xlink:href="class_tools_1_1_parsed_data_out.html" target="_top" xlink:title=" ">
<polygon fill="none" stroke="black" points="670.5,-344.5 670.5,-374.5 791.5,-374.5 791.5,-344.5 670.5,-344.5"/>
<text text-anchor="start" x="678.5" y="-362.5" font-family="Helvetica,sans-Serif" font-size="10.00">Tools::ParsedDataOut</text>
<text text-anchor="middle" x="731" y="-351.5" font-family="Helvetica,sans-Serif" font-size="10.00">&lt; dim, spacedim &gt;</text>
</a>
</g>
</g>
<!-- Node5&#45;&gt;Node15 -->
<g id="edge16" class="edge">
<title>Node5&#45;&gt;Node15</title>
<path fill="none" stroke="midnightblue" d="M563.29,-375.38C596.72,-372.19 637.32,-368.33 670.09,-365.21"/>
<polygon fill="midnightblue" stroke="midnightblue" points="562.78,-371.91 553.16,-376.34 563.45,-378.88 562.78,-371.91"/>
</g>
<!-- Node16 -->
<g id="node18" class="node">
<title>Node16</title>
<g id="a_node18"><a xlink:href="class_tools_1_1_parsed_finite_element.html" target="_top" xlink:title="Parsed FiniteElement.">
<polygon fill="none" stroke="black" points="657.5,-295.5 657.5,-325.5 804.5,-325.5 804.5,-295.5 657.5,-295.5"/>
<text text-anchor="start" x="665.5" y="-313.5" font-family="Helvetica,sans-Serif" font-size="10.00">Tools::ParsedFiniteElement</text>
<text text-anchor="middle" x="731" y="-302.5" font-family="Helvetica,sans-Serif" font-size="10.00">&lt; dim, spacedim &gt;</text>
</a>
</g>
</g>
<!-- Node5&#45;&gt;Node16 -->
<g id="edge17" class="edge">
<title>Node5&#45;&gt;Node16</title>
<path fill="none" stroke="midnightblue" d="M533.17,-368.24C558.99,-358.48 595.43,-345.27 628,-335.5 639.7,-331.99 652.26,-328.6 664.44,-325.52"/>
<polygon fill="midnightblue" stroke="midnightblue" points="531.58,-365.1 523.48,-371.93 534.07,-371.64 531.58,-365.1"/>
</g>
<!-- Node17 -->
<g id="node19" class="node">
<title>Node17</title>
<g id="a_node19"><a xlink:href="class_tools_1_1_parsed_grid_generator.html" target="_top" xlink:title="ParsedGridGenerator class.">
<polygon fill="none" stroke="black" points="656.5,-246.5 656.5,-276.5 805.5,-276.5 805.5,-246.5 656.5,-246.5"/>
<text text-anchor="start" x="664.5" y="-264.5" font-family="Helvetica,sans-Serif" font-size="10.00">Tools::ParsedGridGenerator</text>
<text text-anchor="middle" x="731" y="-253.5" font-family="Helvetica,sans-Serif" font-size="10.00">&lt; dim, spacedim &gt;</text>
</a>
</g>
</g>
<!-- Node5&#45;&gt;Node17 -->
<g id="edge19" class="edge">
<title>Node5&#45;&gt;Node17</title>
<path fill="none" stroke="midnightblue" d="M516.14,-365.06C539.52,-343.54 583.62,-306.15 628,-285.5 636.91,-281.36 646.59,-277.89 656.34,-275.01"/>
<polygon fill="midnightblue" stroke="midnightblue" points="513.68,-362.57 508.76,-371.96 518.46,-367.68 513.68,-362.57"/>
</g>
<!-- Node18 -->
<g id="node20" class="node">
<title>Node18</title>
<g id="a_node20"><a xlink:href="class_tools_1_1_parsed_grid_refinement.html" target="_top" xlink:title="A wrapper for refinement strategies.">
<polygon fill="none" stroke="black" points="652,-208 652,-227 810,-227 810,-208 652,-208"/>
<text text-anchor="middle" x="731" y="-215" font-family="Helvetica,sans-Serif" font-size="10.00">Tools::ParsedGridRefinement</text>
</a>
</g>
</g>
<!-- Node5&#45;&gt;Node18 -->
<g id="edge20" class="edge">
<title>Node5&#45;&gt;Node18</title>
<path fill="none" stroke="midnightblue" d="M509.64,-363.09C528.89,-331.58 572.69,-267.72 628,-236.5 635.37,-232.34 643.48,-229.06 651.79,-226.49"/>
<polygon fill="midnightblue" stroke="midnightblue" points="506.59,-361.37 504.47,-371.75 512.6,-364.96 506.59,-361.37"/>
</g>
<!-- Node19 -->
<g id="node21" class="node">
<title>Node19</title>
<g id="a_node21"><a xlink:href="class_tools_1_1_parsed_i_l_u_preconditioner.html" target="_top" xlink:title="A parsed ILU preconditioner which uses parameter files to choose between different options.">
<polygon fill="none" stroke="black" points="648,-44 648,-63 814,-63 814,-44 648,-44"/>
<text text-anchor="middle" x="731" y="-51" font-family="Helvetica,sans-Serif" font-size="10.00">Tools::ParsedILUPreconditioner</text>
</a>
</g>
</g>
<!-- Node5&#45;&gt;Node19 -->
<g id="edge21" class="edge">
<title>Node5&#45;&gt;Node19</title>
<path fill="none" stroke="midnightblue" d="M504.45,-362.15C522.16,-300.67 579.7,-111.54 628,-72.5 633.95,-67.69 640.74,-63.95 647.92,-61.06"/>
<polygon fill="midnightblue" stroke="midnightblue" points="501.08,-361.21 501.7,-371.78 507.81,-363.13 501.08,-361.21"/>
</g>
<!-- Node20 -->
<g id="node22" class="node">
<title>Node20</title>
<g id="a_node22"><a xlink:href="class_tools_1_1_parsed_inverse_operator.html" target="_top" xlink:title="A factory that can generate inverse operators according to parameter files.">
<polygon fill="none" stroke="black" points="651.5,-170 651.5,-189 810.5,-189 810.5,-170 651.5,-170"/>
<text text-anchor="middle" x="731" y="-177" font-family="Helvetica,sans-Serif" font-size="10.00">Tools::ParsedInverseOperator</text>
</a>
</g>
</g>
<!-- Node5&#45;&gt;Node20 -->
<g id="edge22" class="edge">
<title>Node5&#45;&gt;Node20</title>
<path fill="none" stroke="midnightblue" d="M506.47,-362.61C522.49,-324.72 564.01,-239.56 628,-198.5 635.13,-193.93 643.07,-190.39 651.3,-187.67"/>
<polygon fill="midnightblue" stroke="midnightblue" points="503.18,-361.39 502.62,-371.97 509.66,-364.04 503.18,-361.39"/>
</g>
<!-- Node21 -->
<g id="node23" class="node">
<title>Node21</title>
<g id="a_node23"><a xlink:href="class_tools_1_1_parsed_jacobi_preconditioner.html" target="_top" xlink:title="A parsed Jacobi preconditioner which uses parameter files to choose between different options.">
<polygon fill="none" stroke="black" points="641,-6 641,-25 821,-25 821,-6 641,-6"/>
<text text-anchor="middle" x="731" y="-13" font-family="Helvetica,sans-Serif" font-size="10.00">Tools::ParsedJacobiPreconditioner</text>
</a>
</g>
</g>
<!-- Node5&#45;&gt;Node21 -->
<g id="edge23" class="edge">
<title>Node5&#45;&gt;Node21</title>
<path fill="none" stroke="midnightblue" d="M505.54,-362.34C529.88,-291.2 614.55,-45.82 628,-34.5 632.41,-30.79 637.31,-27.71 642.51,-25.16"/>
<polygon fill="midnightblue" stroke="midnightblue" points="502.21,-361.26 502.28,-371.86 508.83,-363.53 502.21,-361.26"/>
</g>
<!-- Node22 -->
<g id="node24" class="node">
<title>Node22</title>
<g id="a_node24"><a xlink:href="class_tools_1_1_parsed_symbolic_function.html" target="_top" xlink:title="A wrapper for the Functions::SymbolicFunction class.">
<polygon fill="none" stroke="black" points="647.5,-120.5 647.5,-150.5 814.5,-150.5 814.5,-120.5 647.5,-120.5"/>
<text text-anchor="start" x="655.5" y="-138.5" font-family="Helvetica,sans-Serif" font-size="10.00">Tools::ParsedSymbolicFunction</text>
<text text-anchor="middle" x="731" y="-127.5" font-family="Helvetica,sans-Serif" font-size="10.00">&lt; dim &gt;</text>
</a>
</g>
</g>
<!-- Node5&#45;&gt;Node22 -->
<g id="edge24" class="edge">
<title>Node5&#45;&gt;Node22</title>
<path fill="none" stroke="midnightblue" d="M504.59,-362.06C518.1,-318.7 556.79,-213.67 628,-160.5 633.92,-156.08 640.51,-152.44 647.43,-149.43"/>
<polygon fill="midnightblue" stroke="midnightblue" points="501.22,-361.11 501.69,-371.69 507.92,-363.12 501.22,-361.11"/>
</g>
<!-- Node24 -->
<g id="node26" class="node">
<title>Node24</title>
<g id="a_node26"><a xlink:href="http://www.dealii.org/developer/doxygen/deal.II/classTrilinosWrappers_1_1PreconditionAMG.html" xlink:title=" ">
<polygon fill="none" stroke="black" points="404,-88 404,-107 592,-107 592,-88 404,-88"/>
<text text-anchor="middle" x="498" y="-95" font-family="Helvetica,sans-Serif" font-size="10.00">TrilinosWrappers::PreconditionAMG</text>
</a>
</g>
</g>
<!-- Node23&#45;&gt;Node24 -->
<g id="edge26" class="edge">
<title>Node23&#45;&gt;Node24</title>
<path fill="none" stroke="midnightblue" d="M378.47,-97.5C386.9,-97.5 395.4,-97.5 403.75,-97.5"/>
<polygon fill="midnightblue" stroke="midnightblue" points="378.22,-94 368.22,-97.5 378.22,-101 378.22,-94"/>
</g>
<!-- Node25 -->
<g id="node27" class="node">
<title>Node25</title>
<g id="a_node27"><a xlink:href="http://www.dealii.org/developer/doxygen/deal.II/classTrilinosWrappers_1_1PreconditionAMGMueLu.html" xlink:title=" ">
<polygon fill="none" stroke="black" points="415.5,-590.5 415.5,-620.5 580.5,-620.5 580.5,-590.5 415.5,-590.5"/>
<text text-anchor="start" x="423.5" y="-608.5" font-family="Helvetica,sans-Serif" font-size="10.00">TrilinosWrappers::Precondition</text>
<text text-anchor="middle" x="498" y="-597.5" font-family="Helvetica,sans-Serif" font-size="10.00">AMGMueLu</text>
</a>
</g>
</g>
<!-- Node23&#45;&gt;Node25 -->
<g id="edge28" class="edge">
<title>Node23&#45;&gt;Node25</title>
<path fill="none" stroke="midnightblue" d="M282.52,-116.66C302.62,-164.62 356.94,-293.66 404,-400.5 435.43,-471.85 474.35,-556.49 490,-590.38"/>
<polygon fill="midnightblue" stroke="midnightblue" points="285.65,-115.09 278.56,-107.21 279.2,-117.79 285.65,-115.09"/>
</g>
<!-- Node26 -->
<g id="node28" class="node">
<title>Node26</title>
<g id="a_node28"><a xlink:href="http://www.dealii.org/developer/doxygen/deal.II/classTrilinosWrappers_1_1PreconditionILU.html" xlink:title=" ">
<polygon fill="none" stroke="black" points="408,-50 408,-69 588,-69 588,-50 408,-50"/>
<text text-anchor="middle" x="498" y="-57" font-family="Helvetica,sans-Serif" font-size="10.00">TrilinosWrappers::PreconditionILU</text>
</a>
</g>
</g>
<!-- Node23&#45;&gt;Node26 -->
<g id="edge30" class="edge">
<title>Node23&#45;&gt;Node26</title>
<path fill="none" stroke="midnightblue" d="M340.52,-86.22C372.53,-80.76 410.57,-74.26 441.12,-69.04"/>
<polygon fill="midnightblue" stroke="midnightblue" points="339.63,-82.83 330.36,-87.96 340.81,-89.73 339.63,-82.83"/>
</g>
<!-- Node27 -->
<g id="node29" class="node">
<title>Node27</title>
<g id="a_node29"><a xlink:href="http://www.dealii.org/developer/doxygen/deal.II/classTrilinosWrappers_1_1PreconditionJacobi.html" xlink:title=" ">
<polygon fill="none" stroke="black" points="415.5,-0.5 415.5,-30.5 580.5,-30.5 580.5,-0.5 415.5,-0.5"/>
<text text-anchor="start" x="423.5" y="-18.5" font-family="Helvetica,sans-Serif" font-size="10.00">TrilinosWrappers::Precondition</text>
<text text-anchor="middle" x="498" y="-7.5" font-family="Helvetica,sans-Serif" font-size="10.00">Jacobi</text>
</a>
</g>
</g>
<!-- Node23&#45;&gt;Node27 -->
<g id="edge32" class="edge">
<title>Node23&#45;&gt;Node27</title>
<path fill="none" stroke="midnightblue" d="M303.1,-83.4C329.01,-71 368.46,-53.02 404,-40.5 414.09,-36.95 424.95,-33.61 435.56,-30.6"/>
<polygon fill="midnightblue" stroke="midnightblue" points="301.35,-80.36 293.87,-87.86 304.4,-86.66 301.35,-80.36"/>
</g>
<!-- Node24&#45;&gt;Node12 -->
<g id="edge27" class="edge">
<title>Node24&#45;&gt;Node12</title>
<path fill="none" stroke="midnightblue" d="M602.33,-94.82C616.2,-94.46 630.3,-94.09 643.83,-93.74"/>
<polygon fill="midnightblue" stroke="midnightblue" points="602.2,-91.32 592.29,-95.08 602.38,-98.32 602.2,-91.32"/>
</g>
<!-- Node25&#45;&gt;Node11 -->
<g id="edge29" class="edge">
<title>Node25&#45;&gt;Node11</title>
<path fill="none" stroke="midnightblue" d="M517.01,-629C545.69,-665.81 601.2,-734.53 628,-750.5 638.63,-756.83 650.8,-761.49 662.96,-764.93"/>
<polygon fill="midnightblue" stroke="midnightblue" points="519.55,-626.56 510.66,-620.8 514.02,-630.85 519.55,-626.56"/>
</g>
<!-- Node26&#45;&gt;Node19 -->
<g id="edge31" class="edge">
<title>Node26&#45;&gt;Node19</title>
<path fill="none" stroke="midnightblue" d="M598.47,-56.92C614.91,-56.49 631.78,-56.05 647.73,-55.64"/>
<polygon fill="midnightblue" stroke="midnightblue" points="598.22,-53.42 588.31,-57.18 598.4,-60.42 598.22,-53.42"/>
</g>
<!-- Node27&#45;&gt;Node21 -->
<g id="edge33" class="edge">
<title>Node27&#45;&gt;Node21</title>
<path fill="none" stroke="midnightblue" d="M590.92,-15.5C607.38,-15.5 624.5,-15.5 640.88,-15.5"/>
<polygon fill="midnightblue" stroke="midnightblue" points="590.77,-12 580.77,-15.5 590.77,-19 590.77,-12"/>
</g>
</g>
</svg>
