<?xml version="1.0" encoding="UTF-8" standalone="no"?>
<!DOCTYPE svg PUBLIC "-//W3C//DTD SVG 1.1//EN"
 "http://www.w3.org/Graphics/SVG/1.1/DTD/svg11.dtd">
<!-- Generated by graphviz version 2.43.0 (0)
 -->
<!-- Title: Graphical Class Hierarchy Pages: 1 -->
<svg width="995pt" height="1280pt"
 viewBox="0.00 0.00 995.00 1280.00" xmlns="http://www.w3.org/2000/svg" xmlns:xlink="http://www.w3.org/1999/xlink">
<g id="graph0" class="graph" transform="scale(1 1) rotate(0) translate(4 1276)">
<title>Graphical Class Hierarchy</title>
<!-- Node45 -->
<g id="node1" class="node">
<title>Node45</title>
<g id="a_node1"><a xlink:href="http://www.dealii.org/developer/doxygen/deal.II/classDataOutInterface.html" xlink:title=" ">
<polygon fill="none" stroke="black" points="204,-1241.5 204,-1271.5 343,-1271.5 343,-1241.5 204,-1241.5"/>
<text text-anchor="start" x="212" y="-1259.5" font-family="Helvetica,sans-Serif" font-size="10.00">DataOutInterface&lt; patch</text>
<text text-anchor="middle" x="273.5" y="-1248.5" font-family="Helvetica,sans-Serif" font-size="10.00">_dim, patch_spacedim &gt;</text>
</a>
</g>
</g>
<!-- Node46 -->
<g id="node2" class="node">
<title>Node46</title>
<g id="a_node2"><a xlink:href="http://www.dealii.org/developer/doxygen/deal.II/classDataOut__DoFData.html" xlink:title=" ">
<polygon fill="none" stroke="black" points="429,-1241.5 429,-1271.5 567,-1271.5 567,-1241.5 429,-1241.5"/>
<text text-anchor="start" x="437" y="-1259.5" font-family="Helvetica,sans-Serif" font-size="10.00">DataOut_DoFData&lt; dim,</text>
<text text-anchor="middle" x="498" y="-1248.5" font-family="Helvetica,sans-Serif" font-size="10.00"> dim, dim, dim &gt;</text>
</a>
</g>
</g>
<!-- Node45&#45;&gt;Node46 -->
<g id="edge1" class="edge">
<title>Node45&#45;&gt;Node46</title>
<path fill="none" stroke="midnightblue" d="M353.12,-1256.5C377.77,-1256.5 404.77,-1256.5 428.65,-1256.5"/>
<polygon fill="midnightblue" stroke="midnightblue" points="353.07,-1253 343.07,-1256.5 353.07,-1260 353.07,-1253"/>
</g>
<!-- Node9 -->
<g id="node3" class="node">
<title>Node9</title>
<g id="a_node3"><a xlink:href="class_parsed_tools_1_1_data_out.html" target="_top" xlink:title=" ">
<polygon fill="none" stroke="black" points="668,-1241.5 668,-1271.5 789,-1271.5 789,-1241.5 668,-1241.5"/>
<text text-anchor="start" x="676" y="-1259.5" font-family="Helvetica,sans-Serif" font-size="10.00">ParsedTools::DataOut</text>
<text text-anchor="middle" x="728.5" y="-1248.5" font-family="Helvetica,sans-Serif" font-size="10.00">&lt; dim &gt;</text>
</a>
</g>
</g>
<!-- Node46&#45;&gt;Node9 -->
<g id="edge2" class="edge">
<title>Node46&#45;&gt;Node9</title>
<path fill="none" stroke="midnightblue" d="M577.54,-1256.5C607.08,-1256.5 640.17,-1256.5 667.74,-1256.5"/>
<polygon fill="midnightblue" stroke="midnightblue" points="577.25,-1253 567.25,-1256.5 577.25,-1260 577.25,-1253"/>
</g>
<!-- Node44 -->
<g id="node4" class="node">
<title>Node44</title>
<g id="a_node4"><a xlink:href="http://www.dealii.org/developer/doxygen/deal.II/classFiniteElementData.html" xlink:title=" ">
<polygon fill="none" stroke="black" points="440.5,-1144.5 440.5,-1174.5 555.5,-1174.5 555.5,-1144.5 440.5,-1144.5"/>
<text text-anchor="start" x="448.5" y="-1162.5" font-family="Helvetica,sans-Serif" font-size="10.00">FiniteElementData&lt;</text>
<text text-anchor="middle" x="498" y="-1151.5" font-family="Helvetica,sans-Serif" font-size="10.00"> dim &gt;</text>
</a>
</g>
</g>
<!-- Node1 -->
<g id="node5" class="node">
<title>Node1</title>
<g id="a_node5"><a xlink:href="class_parsed_tools_1_1_finite_element.html" target="_top" xlink:title=" ">
<polygon fill="none" stroke="black" points="655,-1192.5 655,-1222.5 802,-1222.5 802,-1192.5 655,-1192.5"/>
<text text-anchor="start" x="663" y="-1210.5" font-family="Helvetica,sans-Serif" font-size="10.00">ParsedTools::FiniteElement</text>
<text text-anchor="middle" x="728.5" y="-1199.5" font-family="Helvetica,sans-Serif" font-size="10.00">&lt; dim &gt;</text>
</a>
</g>
</g>
<!-- Node44&#45;&gt;Node1 -->
<g id="edge3" class="edge">
<title>Node44&#45;&gt;Node1</title>
<path fill="none" stroke="midnightblue" d="M565.58,-1173.49C593.91,-1179.44 626.99,-1186.39 655.85,-1192.45"/>
<polygon fill="midnightblue" stroke="midnightblue" points="566.28,-1170.06 555.78,-1171.43 564.84,-1176.91 566.28,-1170.06"/>
</g>
<!-- Node2 -->
<g id="node6" class="node">
<title>Node2</title>
<g id="a_node6"><a xlink:href="class_parsed_tools_1_1_finite_element.html" target="_top" xlink:title=" ">
<polygon fill="none" stroke="black" points="655,-1143.5 655,-1173.5 802,-1173.5 802,-1143.5 655,-1143.5"/>
<text text-anchor="start" x="663" y="-1161.5" font-family="Helvetica,sans-Serif" font-size="10.00">ParsedTools::FiniteElement</text>
<text text-anchor="middle" x="728.5" y="-1150.5" font-family="Helvetica,sans-Serif" font-size="10.00">&lt; dim, dim &gt;</text>
</a>
</g>
</g>
<!-- Node44&#45;&gt;Node2 -->
<g id="edge4" class="edge">
<title>Node44&#45;&gt;Node2</title>
<path fill="none" stroke="midnightblue" d="M565.82,-1159.21C593.67,-1159.09 626.1,-1158.94 654.58,-1158.82"/>
<polygon fill="midnightblue" stroke="midnightblue" points="565.76,-1155.71 555.78,-1159.25 565.79,-1162.71 565.76,-1155.71"/>
</g>
<!-- Node43 -->
<g id="node7" class="node">
<title>Node43</title>
<g id="a_node7"><a xlink:href="http://www.dealii.org/developer/doxygen/deal.II/classFunctionTime.html" xlink:title=" ">
<polygon fill="none" stroke="black" points="0,-72 0,-91 143,-91 143,-72 0,-72"/>
<text text-anchor="middle" x="71.5" y="-79" font-family="Helvetica,sans-Serif" font-size="10.00">FunctionTime&lt; Number &gt;</text>
</a>
</g>
</g>
<!-- Node3 -->
<g id="node8" class="node">
<title>Node3</title>
<g id="a_node8"><a xlink:href="http://www.dealii.org/developer/doxygen/deal.II/classFunction.html" xlink:title=" ">
<polygon fill="none" stroke="black" points="224,-72 224,-91 323,-91 323,-72 224,-72"/>
<text text-anchor="middle" x="273.5" y="-79" font-family="Helvetica,sans-Serif" font-size="10.00">Function&lt; dim &gt;</text>
</a>
</g>
</g>
<!-- Node43&#45;&gt;Node3 -->
<g id="edge5" class="edge">
<title>Node43&#45;&gt;Node3</title>
<path fill="none" stroke="midnightblue" d="M153.18,-81.5C177.16,-81.5 202.68,-81.5 223.94,-81.5"/>
<polygon fill="midnightblue" stroke="midnightblue" points="153.01,-78 143.01,-81.5 153.01,-85 153.01,-78"/>
</g>
<!-- Node4 -->
<g id="node9" class="node">
<title>Node4</title>
<g id="a_node9"><a xlink:href="http://www.dealii.org/developer/doxygen/deal.II/classAutoDerivativeFunction.html" xlink:title=" ">
<polygon fill="none" stroke="black" points="432.5,-0.5 432.5,-30.5 563.5,-30.5 563.5,-0.5 432.5,-0.5"/>
<text text-anchor="start" x="440.5" y="-18.5" font-family="Helvetica,sans-Serif" font-size="10.00">AutoDerivativeFunction</text>
<text text-anchor="middle" x="498" y="-7.5" font-family="Helvetica,sans-Serif" font-size="10.00">&lt; dim &gt;</text>
</a>
</g>
</g>
<!-- Node3&#45;&gt;Node4 -->
<g id="edge6" class="edge">
<title>Node3&#45;&gt;Node4</title>
<path fill="none" stroke="midnightblue" d="M313.17,-68.77C338.84,-60.43 373.33,-49.47 404,-40.5 415.39,-37.17 427.62,-33.76 439.34,-30.58"/>
<polygon fill="midnightblue" stroke="midnightblue" points="311.87,-65.51 303.45,-71.93 314.04,-72.16 311.87,-65.51"/>
</g>
<!-- Node5 -->
<g id="node10" class="node">
<title>Node5</title>
<g id="a_node10"><a xlink:href="http://www.dealii.org/developer/doxygen/deal.II/classFunctionParser.html" xlink:title=" ">
<polygon fill="none" stroke="black" points="663.5,-9 663.5,-28 793.5,-28 793.5,-9 663.5,-9"/>
<text text-anchor="middle" x="728.5" y="-16" font-family="Helvetica,sans-Serif" font-size="10.00">FunctionParser&lt; dim &gt;</text>
</a>
</g>
</g>
<!-- Node4&#45;&gt;Node5 -->
<g id="edge7" class="edge">
<title>Node4&#45;&gt;Node5</title>
<path fill="none" stroke="midnightblue" d="M573.65,-16.48C602.67,-16.86 635.58,-17.29 663.49,-17.66"/>
<polygon fill="midnightblue" stroke="midnightblue" points="573.61,-12.98 563.56,-16.35 573.52,-19.98 573.61,-12.98"/>
</g>
<!-- Node6 -->
<g id="node11" class="node">
<title>Node6</title>
<g id="a_node11"><a xlink:href="class_parsed_tools_1_1_function.html" target="_top" xlink:title="A wrapper for the FunctionParser class.">
<polygon fill="none" stroke="black" points="865,-334.5 865,-364.5 987,-364.5 987,-334.5 865,-334.5"/>
<text text-anchor="start" x="873" y="-352.5" font-family="Helvetica,sans-Serif" font-size="10.00">ParsedTools::Function</text>
<text text-anchor="middle" x="926" y="-341.5" font-family="Helvetica,sans-Serif" font-size="10.00">&lt; dim &gt;</text>
</a>
</g>
</g>
<!-- Node5&#45;&gt;Node6 -->
<g id="edge8" class="edge">
<title>Node5&#45;&gt;Node6</title>
<path fill="none" stroke="midnightblue" d="M803.32,-25.48C812.77,-28.93 821.68,-33.76 829,-40.5 917.69,-122.07 925.15,-283.88 925.24,-334.2"/>
<polygon fill="midnightblue" stroke="midnightblue" points="804.33,-22.12 793.74,-22.47 802.23,-28.8 804.33,-22.12"/>
</g>
<!-- Node38 -->
<g id="node12" class="node">
<title>Node38</title>
<g id="a_node12"><a xlink:href="http://www.dealii.org/developer/doxygen/deal.II/classSourceClass.html" xlink:title=" ">
<polygon fill="none" stroke="black" points="460,-138 460,-157 536,-157 536,-138 460,-138"/>
<text text-anchor="middle" x="498" y="-145" font-family="Helvetica,sans-Serif" font-size="10.00">SourceClass</text>
</a>
</g>
</g>
<!-- Node26 -->
<g id="node13" class="node">
<title>Node26</title>
<g id="a_node13"><a xlink:href="class_parsed_tools_1_1_proxy.html" target="_top" xlink:title="A proxy ParameterAcceptor wrapper for classes that have a member function add_parameters,...">
<polygon fill="none" stroke="black" points="674.5,-126.5 674.5,-156.5 782.5,-156.5 782.5,-126.5 674.5,-126.5"/>
<text text-anchor="start" x="682.5" y="-144.5" font-family="Helvetica,sans-Serif" font-size="10.00">ParsedTools::Proxy</text>
<text text-anchor="middle" x="728.5" y="-133.5" font-family="Helvetica,sans-Serif" font-size="10.00">&lt; SourceClass &gt;</text>
</a>
</g>
</g>
<!-- Node38&#45;&gt;Node26 -->
<g id="edge9" class="edge">
<title>Node38&#45;&gt;Node26</title>
<path fill="none" stroke="midnightblue" d="M546.31,-146.26C583.52,-145.28 635.37,-143.92 674.08,-142.9"/>
<polygon fill="midnightblue" stroke="midnightblue" points="546.13,-142.76 536.22,-146.52 546.31,-149.76 546.13,-142.76"/>
</g>
<!-- Node0 -->
<g id="node14" class="node">
<title>Node0</title>
<g id="a_node14"><a xlink:href="http://www.dealii.org/developer/doxygen/deal.II/classSubscriptor.html" xlink:title=" ">
<polygon fill="none" stroke="black" points="36,-630 36,-649 107,-649 107,-630 36,-630"/>
<text text-anchor="middle" x="71.5" y="-637" font-family="Helvetica,sans-Serif" font-size="10.00">Subscriptor</text>
</a>
</g>
</g>
<!-- Node0&#45;&gt;Node1 -->
<g id="edge10" class="edge">
<title>Node0&#45;&gt;Node1</title>
<path fill="none" stroke="midnightblue" d="M77.04,-659.14C97.41,-742.08 188.88,-1064.81 404,-1184.5 481.37,-1227.55 585.75,-1226.39 654.77,-1219.09"/>
<polygon fill="midnightblue" stroke="midnightblue" points="80.41,-658.18 74.68,-649.27 73.6,-659.81 80.41,-658.18"/>
</g>
<!-- Node0&#45;&gt;Node2 -->
<g id="edge11" class="edge">
<title>Node0&#45;&gt;Node2</title>
<path fill="none" stroke="midnightblue" d="M86.59,-657.26C144.76,-729.28 375.03,-1002.07 628,-1134.5 636.34,-1138.87 645.5,-1142.46 654.77,-1145.4"/>
<polygon fill="midnightblue" stroke="midnightblue" points="89.07,-654.76 80.09,-649.15 83.61,-659.14 89.07,-654.76"/>
</g>
<!-- Node0&#45;&gt;Node3 -->
<g id="edge12" class="edge">
<title>Node0&#45;&gt;Node3</title>
<path fill="none" stroke="midnightblue" d="M72.8,-619.53C74.65,-551.35 87.72,-323.29 179,-166.5 198.54,-132.94 235.75,-105.16 256.86,-91.2"/>
<polygon fill="midnightblue" stroke="midnightblue" points="69.3,-619.64 72.58,-629.71 76.29,-619.79 69.3,-619.64"/>
</g>
<!-- Node7 -->
<g id="node15" class="node">
<title>Node7</title>
<g id="a_node15"><a xlink:href="http://www.dealii.org/developer/doxygen/deal.II/classParameterAcceptor.html" xlink:title=" ">
<polygon fill="none" stroke="black" points="443,-630 443,-649 553,-649 553,-630 443,-630"/>
<text text-anchor="middle" x="498" y="-637" font-family="Helvetica,sans-Serif" font-size="10.00">ParameterAcceptor</text>
</a>
</g>
</g>
<!-- Node0&#45;&gt;Node7 -->
<g id="edge13" class="edge">
<title>Node0&#45;&gt;Node7</title>
<path fill="none" stroke="midnightblue" d="M117.29,-639.5C195.82,-639.5 358.01,-639.5 442.75,-639.5"/>
<polygon fill="midnightblue" stroke="midnightblue" points="117.24,-636 107.24,-639.5 117.24,-643 117.24,-636"/>
</g>
<!-- Node32 -->
<g id="node38" class="node">
<title>Node32</title>
<g id="a_node38"><a xlink:href="http://www.dealii.org/developer/doxygen/deal.II/classTrilinosWrappers_1_1PreconditionBase.html" xlink:title=" ">
<polygon fill="none" stroke="black" points="179,-176 179,-195 368,-195 368,-176 179,-176"/>
<text text-anchor="middle" x="273.5" y="-183" font-family="Helvetica,sans-Serif" font-size="10.00">TrilinosWrappers::PreconditionBase</text>
</a>
</g>
</g>
<!-- Node0&#45;&gt;Node32 -->
<g id="edge41" class="edge">
<title>Node0&#45;&gt;Node32</title>
<path fill="none" stroke="midnightblue" d="M81.09,-620.01C115.54,-541.8 243.09,-252.26 268.19,-195.27"/>
<polygon fill="midnightblue" stroke="midnightblue" points="77.69,-619.03 76.86,-629.6 84.1,-621.85 77.69,-619.03"/>
</g>
<!-- Node7&#45;&gt;Node9 -->
<g id="edge15" class="edge">
<title>Node7&#45;&gt;Node9</title>
<path fill="none" stroke="midnightblue" d="M502.08,-659.57C517.39,-758.35 586.29,-1189.84 628,-1232.5 638.56,-1243.3 653.08,-1249.57 667.76,-1253.14"/>
<polygon fill="midnightblue" stroke="midnightblue" points="505.5,-658.8 500.51,-649.45 498.58,-659.86 505.5,-658.8"/>
</g>
<!-- Node7&#45;&gt;Node1 -->
<g id="edge17" class="edge">
<title>Node7&#45;&gt;Node1</title>
<path fill="none" stroke="midnightblue" d="M500.93,-659.06C509.99,-747.19 551.22,-1106.42 628,-1183.5 635.46,-1190.99 644.83,-1196.3 654.82,-1200.03"/>
<polygon fill="midnightblue" stroke="midnightblue" points="504.4,-658.68 499.92,-649.08 497.44,-659.38 504.4,-658.68"/>
</g>
<!-- Node7&#45;&gt;Node2 -->
<g id="edge18" class="edge">
<title>Node7&#45;&gt;Node2</title>
<path fill="none" stroke="midnightblue" d="M508.03,-658.55C526.71,-698.77 569.72,-795.74 592,-881.5 606.28,-936.46 589.8,-1092.48 628,-1134.5 635.29,-1142.52 644.76,-1148.08 654.95,-1151.9"/>
<polygon fill="midnightblue" stroke="midnightblue" points="511.15,-656.95 503.73,-649.38 504.81,-659.92 511.15,-656.95"/>
</g>
<!-- Node7&#45;&gt;Node6 -->
<g id="edge31" class="edge">
<title>Node7&#45;&gt;Node6</title>
<path fill="none" stroke="midnightblue" d="M528.15,-653.23C590.3,-680.27 737.62,-732.18 829,-664.5 879.42,-627.16 913.95,-422.27 922.78,-364.61"/>
<polygon fill="midnightblue" stroke="midnightblue" points="529.48,-650 518.92,-649.13 526.64,-656.39 529.48,-650"/>
</g>
<!-- Node7&#45;&gt;Node26 -->
<g id="edge35" class="edge">
<title>Node7&#45;&gt;Node26</title>
<path fill="none" stroke="midnightblue" d="M503.08,-620.14C521.07,-535.38 594.04,-199.79 628,-166.5 640.34,-154.41 657.61,-147.89 674.31,-144.46"/>
<polygon fill="midnightblue" stroke="midnightblue" points="499.64,-619.48 500.99,-629.99 506.49,-620.93 499.64,-619.48"/>
</g>
<!-- Node8 -->
<g id="node16" class="node">
<title>Node8</title>
<g id="a_node16"><a xlink:href="class_parsed_tools_1_1_boundary_conditions.html" target="_top" xlink:title=" ">
<polygon fill="none" stroke="black" points="639,-624.5 639,-654.5 818,-654.5 818,-624.5 639,-624.5"/>
<text text-anchor="start" x="647" y="-642.5" font-family="Helvetica,sans-Serif" font-size="10.00">ParsedTools::BoundaryConditions</text>
<text text-anchor="middle" x="728.5" y="-631.5" font-family="Helvetica,sans-Serif" font-size="10.00">&lt; dim &gt;</text>
</a>
</g>
</g>
<!-- Node7&#45;&gt;Node8 -->
<g id="edge14" class="edge">
<title>Node7&#45;&gt;Node8</title>
<path fill="none" stroke="midnightblue" d="M563.32,-639.5C586.77,-639.5 613.71,-639.5 638.91,-639.5"/>
<polygon fill="midnightblue" stroke="midnightblue" points="563.15,-636 553.15,-639.5 563.15,-643 563.15,-636"/>
</g>
<!-- Node10 -->
<g id="node17" class="node">
<title>Node10</title>
<g id="a_node17"><a xlink:href="class_parsed_tools_1_1_data_out.html" target="_top" xlink:title=" ">
<polygon fill="none" stroke="black" points="668,-575.5 668,-605.5 789,-605.5 789,-575.5 668,-575.5"/>
<text text-anchor="start" x="676" y="-593.5" font-family="Helvetica,sans-Serif" font-size="10.00">ParsedTools::DataOut</text>
<text text-anchor="middle" x="728.5" y="-582.5" font-family="Helvetica,sans-Serif" font-size="10.00">&lt; dim, dim &gt;</text>
</a>
</g>
</g>
<!-- Node7&#45;&gt;Node10 -->
<g id="edge16" class="edge">
<title>Node7&#45;&gt;Node10</title>
<path fill="none" stroke="midnightblue" d="M553.21,-627.87C587.66,-620.49 632.27,-610.92 667.73,-603.32"/>
<polygon fill="midnightblue" stroke="midnightblue" points="552.37,-624.48 543.33,-629.99 553.84,-631.32 552.37,-624.48"/>
</g>
<!-- Node11 -->
<g id="node18" class="node">
<title>Node11</title>
<g id="a_node18"><a xlink:href="class_parsed_tools_1_1_grid_generator.html" target="_top" xlink:title=" ">
<polygon fill="none" stroke="black" points="654,-526.5 654,-556.5 803,-556.5 803,-526.5 654,-526.5"/>
<text text-anchor="start" x="662" y="-544.5" font-family="Helvetica,sans-Serif" font-size="10.00">ParsedTools::GridGenerator</text>
<text text-anchor="middle" x="728.5" y="-533.5" font-family="Helvetica,sans-Serif" font-size="10.00">&lt; dim &gt;</text>
</a>
</g>
</g>
<!-- Node7&#45;&gt;Node11 -->
<g id="edge19" class="edge">
<title>Node7&#45;&gt;Node11</title>
<path fill="none" stroke="midnightblue" d="M521.48,-624.29C546.5,-607.96 588.63,-582.25 628,-566.5 637.34,-562.76 647.41,-559.46 657.42,-556.57"/>
<polygon fill="midnightblue" stroke="midnightblue" points="519.48,-621.42 513.06,-629.85 523.34,-627.26 519.48,-621.42"/>
</g>
<!-- Node12 -->
<g id="node19" class="node">
<title>Node12</title>
<g id="a_node19"><a xlink:href="class_parsed_tools_1_1_grid_generator.html" target="_top" xlink:title=" ">
<polygon fill="none" stroke="black" points="654,-477.5 654,-507.5 803,-507.5 803,-477.5 654,-477.5"/>
<text text-anchor="start" x="662" y="-495.5" font-family="Helvetica,sans-Serif" font-size="10.00">ParsedTools::GridGenerator</text>
<text text-anchor="middle" x="728.5" y="-484.5" font-family="Helvetica,sans-Serif" font-size="10.00">&lt; dim, dim &gt;</text>
</a>
</g>
</g>
<!-- Node7&#45;&gt;Node12 -->
<g id="edge20" class="edge">
<title>Node7&#45;&gt;Node12</title>
<path fill="none" stroke="midnightblue" d="M512.64,-621.75C534.18,-594.98 578.71,-544.54 628,-517.5 636.04,-513.09 644.87,-509.44 653.86,-506.42"/>
<polygon fill="midnightblue" stroke="midnightblue" points="509.69,-619.83 506.24,-629.85 515.19,-624.17 509.69,-619.83"/>
</g>
<!-- Node13 -->
<g id="node20" class="node">
<title>Node13</title>
<g id="a_node20"><a xlink:href="class_parsed_tools_1_1_mapping_eulerian.html" target="_top" xlink:title=" ">
<polygon fill="none" stroke="black" points="647.5,-428.5 647.5,-458.5 809.5,-458.5 809.5,-428.5 647.5,-428.5"/>
<text text-anchor="start" x="655.5" y="-446.5" font-family="Helvetica,sans-Serif" font-size="10.00">ParsedTools::MappingEulerian</text>
<text text-anchor="middle" x="728.5" y="-435.5" font-family="Helvetica,sans-Serif" font-size="10.00">&lt; dim, dim &gt;</text>
</a>
</g>
</g>
<!-- Node7&#45;&gt;Node13 -->
<g id="edge21" class="edge">
<title>Node7&#45;&gt;Node13</title>
<path fill="none" stroke="midnightblue" d="M507.74,-620.71C525.26,-585.17 568.19,-508.14 628,-468.5 634.01,-464.51 640.61,-461.16 647.47,-458.35"/>
<polygon fill="midnightblue" stroke="midnightblue" points="504.47,-619.41 503.3,-629.94 510.78,-622.44 504.47,-619.41"/>
</g>
<!-- Node14 -->
<g id="node21" class="node">
<title>Node14</title>
<g id="a_node21"><a xlink:href="class_parsed_l_a_c_1_1_a_m_g_mue_lu_preconditioner.html" target="_top" xlink:title="A parsed AMG preconditioner based on MueLu which uses parameter files to choose between different opt...">
<polygon fill="none" stroke="black" points="628,-214 628,-233 829,-233 829,-214 628,-214"/>
<text text-anchor="middle" x="728.5" y="-221" font-family="Helvetica,sans-Serif" font-size="10.00">ParsedLAC::AMGMueLuPreconditioner</text>
</a>
</g>
</g>
<!-- Node7&#45;&gt;Node14 -->
<g id="edge22" class="edge">
<title>Node7&#45;&gt;Node14</title>
<path fill="none" stroke="midnightblue" d="M498.93,-619.89C499.85,-555.16 512.07,-346.65 628,-243.5 632.74,-239.28 638.11,-235.86 643.85,-233.08"/>
<polygon fill="midnightblue" stroke="midnightblue" points="495.43,-619.91 498.87,-629.93 502.43,-619.96 495.43,-619.91"/>
</g>
<!-- Node15 -->
<g id="node22" class="node">
<title>Node15</title>
<g id="a_node22"><a xlink:href="class_parsed_l_a_c_1_1_a_m_g_preconditioner.html" target="_top" xlink:title="A parsed AMG preconditioner which uses parameter files to choose between different options.">
<polygon fill="none" stroke="black" points="644,-50 644,-69 813,-69 813,-50 644,-50"/>
<text text-anchor="middle" x="728.5" y="-57" font-family="Helvetica,sans-Serif" font-size="10.00">ParsedLAC::AMGPreconditioner</text>
</a>
</g>
</g>
<!-- Node7&#45;&gt;Node15 -->
<g id="edge23" class="edge">
<title>Node7&#45;&gt;Node15</title>
<path fill="none" stroke="midnightblue" d="M503.98,-619.95C518.31,-563.47 560.64,-395.13 592,-254.5 609.38,-176.57 571.18,-134.59 628,-78.5 632.63,-73.93 638,-70.28 643.8,-67.39"/>
<polygon fill="midnightblue" stroke="midnightblue" points="500.57,-619.16 501.5,-629.71 507.35,-620.88 500.57,-619.16"/>
</g>
<!-- Node16 -->
<g id="node23" class="node">
<title>Node16</title>
<g id="a_node23"><a xlink:href="class_parsed_l_a_c_1_1_i_l_u_preconditioner.html" target="_top" xlink:title="A parsed ILU preconditioner which uses parameter files to choose between different options.">
<polygon fill="none" stroke="black" points="648,-176 648,-195 809,-195 809,-176 648,-176"/>
<text text-anchor="middle" x="728.5" y="-183" font-family="Helvetica,sans-Serif" font-size="10.00">ParsedLAC::ILUPreconditioner</text>
</a>
</g>
</g>
<!-- Node7&#45;&gt;Node16 -->
<g id="edge24" class="edge">
<title>Node7&#45;&gt;Node16</title>
<path fill="none" stroke="midnightblue" d="M502.09,-619.77C514.57,-542.61 563.7,-262.7 628,-204.5 633.74,-199.31 640.44,-195.34 647.61,-192.33"/>
<polygon fill="midnightblue" stroke="midnightblue" points="498.58,-619.56 500.46,-629.99 505.49,-620.67 498.58,-619.56"/>
</g>
<!-- Node17 -->
<g id="node24" class="node">
<title>Node17</title>
<g id="a_node24"><a xlink:href="class_parsed_l_a_c_1_1_inverse_operator.html" target="_top" xlink:title="A factory that can generate inverse operators according to parameter files.">
<polygon fill="none" stroke="black" points="651.5,-390 651.5,-409 805.5,-409 805.5,-390 651.5,-390"/>
<text text-anchor="middle" x="728.5" y="-397" font-family="Helvetica,sans-Serif" font-size="10.00">ParsedLAC::InverseOperator</text>
</a>
</g>
</g>
<!-- Node7&#45;&gt;Node17 -->
<g id="edge25" class="edge">
<title>Node7&#45;&gt;Node17</title>
<path fill="none" stroke="midnightblue" d="M504.46,-619.93C517.7,-576.32 555.88,-470.92 628,-419.5 635.03,-414.49 643.01,-410.66 651.33,-407.75"/>
<polygon fill="midnightblue" stroke="midnightblue" points="501.07,-619.04 501.62,-629.62 507.79,-621.01 501.07,-619.04"/>
</g>
<!-- Node18 -->
<g id="node25" class="node">
<title>Node18</title>
<g id="a_node25"><a xlink:href="class_parsed_l_a_c_1_1_jacobi_preconditioner.html" target="_top" xlink:title="A parsed Jacobi preconditioner which uses parameter files to choose between different options.">
<polygon fill="none" stroke="black" points="641,-88 641,-107 816,-107 816,-88 641,-88"/>
<text text-anchor="middle" x="728.5" y="-95" font-family="Helvetica,sans-Serif" font-size="10.00">ParsedLAC::JacobiPreconditioner</text>
</a>
</g>
</g>
<!-- Node7&#45;&gt;Node18 -->
<g id="edge26" class="edge">
<title>Node7&#45;&gt;Node18</title>
<path fill="none" stroke="midnightblue" d="M503.76,-619.64C526.5,-524.75 623.24,-122.05 628,-117.5 632.33,-113.36 637.26,-109.96 642.56,-107.19"/>
<polygon fill="midnightblue" stroke="midnightblue" points="500.29,-619.09 501.36,-629.63 507.1,-620.72 500.29,-619.09"/>
</g>
<!-- Node19 -->
<g id="node26" class="node">
<title>Node19</title>
<g id="a_node26"><a xlink:href="class_parsed_tools_1_1_boundary_conditions.html" target="_top" xlink:title="A wrapper for boundary conditions.">
<polygon fill="none" stroke="black" points="639,-340.5 639,-370.5 818,-370.5 818,-340.5 639,-340.5"/>
<text text-anchor="start" x="647" y="-358.5" font-family="Helvetica,sans-Serif" font-size="10.00">ParsedTools::BoundaryConditions</text>
<text text-anchor="middle" x="728.5" y="-347.5" font-family="Helvetica,sans-Serif" font-size="10.00">&lt; spacedim &gt;</text>
</a>
</g>
</g>
<!-- Node7&#45;&gt;Node19 -->
<g id="edge27" class="edge">
<title>Node7&#45;&gt;Node19</title>
<path fill="none" stroke="midnightblue" d="M502.83,-620.14C513.45,-571.76 547.93,-444.91 628,-380.5 632.72,-376.7 637.94,-373.48 643.44,-370.73"/>
<polygon fill="midnightblue" stroke="midnightblue" points="499.4,-619.44 500.77,-629.94 506.25,-620.88 499.4,-619.44"/>
</g>
<!-- Node20 -->
<g id="node27" class="node">
<title>Node20</title>
<g id="a_node27"><a xlink:href="class_parsed_tools_1_1_constants.html" target="_top" xlink:title="A wrapper for physical constants to be shared among functions and classes.">
<polygon fill="none" stroke="black" points="664,-302 664,-321 793,-321 793,-302 664,-302"/>
<text text-anchor="middle" x="728.5" y="-309" font-family="Helvetica,sans-Serif" font-size="10.00">ParsedTools::Constants</text>
</a>
</g>
</g>
<!-- Node7&#45;&gt;Node20 -->
<g id="edge28" class="edge">
<title>Node7&#45;&gt;Node20</title>
<path fill="none" stroke="midnightblue" d="M501,-619.66C507.69,-564.47 534.42,-408.15 628,-331.5 638.22,-323.13 651,-317.94 663.95,-314.8"/>
<polygon fill="midnightblue" stroke="midnightblue" points="497.5,-619.51 499.86,-629.84 504.45,-620.29 497.5,-619.51"/>
</g>
<!-- Node21 -->
<g id="node28" class="node">
<title>Node21</title>
<g id="a_node28"><a xlink:href="class_parsed_tools_1_1_data_out.html" target="_top" xlink:title=" ">
<polygon fill="none" stroke="black" points="668,-252.5 668,-282.5 789,-282.5 789,-252.5 668,-252.5"/>
<text text-anchor="start" x="676" y="-270.5" font-family="Helvetica,sans-Serif" font-size="10.00">ParsedTools::DataOut</text>
<text text-anchor="middle" x="728.5" y="-259.5" font-family="Helvetica,sans-Serif" font-size="10.00">&lt; dim, spacedim &gt;</text>
</a>
</g>
</g>
<!-- Node7&#45;&gt;Node21 -->
<g id="edge29" class="edge">
<title>Node7&#45;&gt;Node21</title>
<path fill="none" stroke="midnightblue" d="M500.2,-619.44C504.87,-559.94 527.02,-382.96 628,-292.5 639.08,-282.58 653.51,-276.47 667.94,-272.74"/>
<polygon fill="midnightblue" stroke="midnightblue" points="496.69,-619.49 499.48,-629.71 503.67,-619.98 496.69,-619.49"/>
</g>
<!-- Node22 -->
<g id="node29" class="node">
<title>Node22</title>
<g id="a_node29"><a xlink:href="class_parsed_tools_1_1_finite_element.html" target="_top" xlink:title="Parsed FiniteElement.">
<polygon fill="none" stroke="black" points="655,-1094.5 655,-1124.5 802,-1124.5 802,-1094.5 655,-1094.5"/>
<text text-anchor="start" x="663" y="-1112.5" font-family="Helvetica,sans-Serif" font-size="10.00">ParsedTools::FiniteElement</text>
<text text-anchor="middle" x="728.5" y="-1101.5" font-family="Helvetica,sans-Serif" font-size="10.00">&lt; dim, spacedim &gt;</text>
</a>
</g>
</g>
<!-- Node7&#45;&gt;Node22 -->
<g id="edge30" class="edge">
<title>Node7&#45;&gt;Node22</title>
<path fill="none" stroke="midnightblue" d="M507.8,-658.61C526.05,-698.95 568.3,-796.12 592,-881.5 616.63,-970.21 564.95,-1018.41 628,-1085.5 635.36,-1093.33 644.8,-1098.81 654.93,-1102.59"/>
<polygon fill="midnightblue" stroke="midnightblue" points="510.94,-657.06 503.61,-649.41 504.57,-659.96 510.94,-657.06"/>
</g>
<!-- Node23 -->
<g id="node30" class="node">
<title>Node23</title>
<g id="a_node30"><a xlink:href="class_parsed_tools_1_1_grid_generator.html" target="_top" xlink:title="GridGenerator class.">
<polygon fill="none" stroke="black" points="654,-1045.5 654,-1075.5 803,-1075.5 803,-1045.5 654,-1045.5"/>
<text text-anchor="start" x="662" y="-1063.5" font-family="Helvetica,sans-Serif" font-size="10.00">ParsedTools::GridGenerator</text>
<text text-anchor="middle" x="728.5" y="-1052.5" font-family="Helvetica,sans-Serif" font-size="10.00">&lt; dim, spacedim &gt;</text>
</a>
</g>
</g>
<!-- Node7&#45;&gt;Node23 -->
<g id="edge32" class="edge">
<title>Node7&#45;&gt;Node23</title>
<path fill="none" stroke="midnightblue" d="M507.29,-658.41C524.77,-698.77 565.9,-796.59 592,-881.5 612.66,-948.69 578.71,-985.39 628,-1035.5 635.18,-1042.8 644.16,-1048.08 653.76,-1051.89"/>
<polygon fill="midnightblue" stroke="midnightblue" points="510.41,-656.79 503.2,-649.02 503.99,-659.58 510.41,-656.79"/>
</g>
<!-- Node24 -->
<g id="node31" class="node">
<title>Node24</title>
<g id="a_node31"><a xlink:href="class_parsed_tools_1_1_grid_refinement.html" target="_top" xlink:title="A wrapper for refinement strategies.">
<polygon fill="none" stroke="black" points="649.5,-1007 649.5,-1026 807.5,-1026 807.5,-1007 649.5,-1007"/>
<text text-anchor="middle" x="728.5" y="-1014" font-family="Helvetica,sans-Serif" font-size="10.00">ParsedTools::GridRefinement</text>
</a>
</g>
</g>
<!-- Node7&#45;&gt;Node24 -->
<g id="edge33" class="edge">
<title>Node7&#45;&gt;Node24</title>
<path fill="none" stroke="midnightblue" d="M506.82,-658.56C523.39,-699.22 562.89,-797.57 592,-881.5 609.69,-932.5 587.75,-961.53 628,-997.5 634.16,-1003.01 641.42,-1007.13 649.15,-1010.2"/>
<polygon fill="midnightblue" stroke="midnightblue" points="509.97,-657.03 502.95,-649.1 503.5,-659.68 509.97,-657.03"/>
</g>
<!-- Node25 -->
<g id="node32" class="node">
<title>Node25</title>
<g id="a_node32"><a xlink:href="class_parsed_tools_1_1_mapping_eulerian.html" target="_top" xlink:title="A wrapper class for MappingFEField or MappingQEulerian.">
<polygon fill="none" stroke="black" points="647.5,-957.5 647.5,-987.5 809.5,-987.5 809.5,-957.5 647.5,-957.5"/>
<text text-anchor="start" x="655.5" y="-975.5" font-family="Helvetica,sans-Serif" font-size="10.00">ParsedTools::MappingEulerian</text>
<text text-anchor="middle" x="728.5" y="-964.5" font-family="Helvetica,sans-Serif" font-size="10.00">&lt; dim, spacedim &gt;</text>
</a>
</g>
</g>
<!-- Node7&#45;&gt;Node25 -->
<g id="edge34" class="edge">
<title>Node7&#45;&gt;Node25</title>
<path fill="none" stroke="midnightblue" d="M505.86,-658.7C529.03,-723.05 604.16,-928.18 628,-948.5 633.68,-953.34 640.17,-957.24 647.06,-960.38"/>
<polygon fill="midnightblue" stroke="midnightblue" points="509.06,-657.24 502.39,-649.01 502.47,-659.6 509.06,-657.24"/>
</g>
<!-- Node27 -->
<g id="node33" class="node">
<title>Node27</title>
<g id="a_node33"><a xlink:href="class_parsed_tools_1_1_symbolic_function.html" target="_top" xlink:title="A wrapper for the Functions::SymbolicFunction class.">
<polygon fill="none" stroke="black" points="645,-908.5 645,-938.5 812,-938.5 812,-908.5 645,-908.5"/>
<text text-anchor="start" x="653" y="-926.5" font-family="Helvetica,sans-Serif" font-size="10.00">ParsedTools::SymbolicFunction</text>
<text text-anchor="middle" x="728.5" y="-915.5" font-family="Helvetica,sans-Serif" font-size="10.00">&lt; dim &gt;</text>
</a>
</g>
</g>
<!-- Node7&#45;&gt;Node27 -->
<g id="edge36" class="edge">
<title>Node7&#45;&gt;Node27</title>
<path fill="none" stroke="midnightblue" d="M502.77,-658.98C513.25,-707.65 547.43,-835.21 628,-899.5 633.14,-903.6 638.87,-907.02 644.92,-909.86"/>
<polygon fill="midnightblue" stroke="midnightblue" points="506.19,-658.21 500.74,-649.11 499.33,-659.61 506.19,-658.21"/>
</g>
<!-- Node28 -->
<g id="node34" class="node">
<title>Node28</title>
<g id="a_node34"><a xlink:href="class_p_d_es_1_1_serial_1_1_distributed_lagrange.html" target="_top" xlink:title=" ">
<polygon fill="none" stroke="black" points="650.5,-859.5 650.5,-889.5 806.5,-889.5 806.5,-859.5 650.5,-859.5"/>
<text text-anchor="start" x="658.5" y="-877.5" font-family="Helvetica,sans-Serif" font-size="10.00">PDEs::Serial::Distributed</text>
<text text-anchor="middle" x="728.5" y="-866.5" font-family="Helvetica,sans-Serif" font-size="10.00">Lagrange&lt; dim, spacedim &gt;</text>
</a>
</g>
</g>
<!-- Node7&#45;&gt;Node28 -->
<g id="edge37" class="edge">
<title>Node7&#45;&gt;Node28</title>
<path fill="none" stroke="midnightblue" d="M505.13,-658.93C519.41,-700.9 559.03,-800.28 628,-850.5 634.75,-855.42 642.38,-859.34 650.33,-862.46"/>
<polygon fill="midnightblue" stroke="midnightblue" points="508.42,-657.75 501.97,-649.35 501.78,-659.94 508.42,-657.75"/>
</g>
<!-- Node29 -->
<g id="node35" class="node">
<title>Node29</title>
<g id="a_node35"><a xlink:href="class_p_d_es_1_1_serial_1_1_linear_elasticity.html" target="_top" xlink:title=" ">
<polygon fill="none" stroke="black" points="650.5,-810.5 650.5,-840.5 806.5,-840.5 806.5,-810.5 650.5,-810.5"/>
<text text-anchor="start" x="658.5" y="-828.5" font-family="Helvetica,sans-Serif" font-size="10.00">PDEs::Serial::LinearElasticity</text>
<text text-anchor="middle" x="728.5" y="-817.5" font-family="Helvetica,sans-Serif" font-size="10.00">&lt; dim, spacedim &gt;</text>
</a>
</g>
</g>
<!-- Node7&#45;&gt;Node29 -->
<g id="edge38" class="edge">
<title>Node7&#45;&gt;Node29</title>
<path fill="none" stroke="midnightblue" d="M508.49,-658.32C526.73,-692.48 570.05,-764.56 628,-801.5 634.89,-805.89 642.52,-809.48 650.4,-812.42"/>
<polygon fill="midnightblue" stroke="midnightblue" points="511.56,-656.63 503.83,-649.38 505.35,-659.87 511.56,-656.63"/>
</g>
<!-- Node30 -->
<g id="node36" class="node">
<title>Node30</title>
<g id="a_node36"><a xlink:href="class_p_d_es_1_1_serial_1_1_poisson.html" target="_top" xlink:title="Poisson problem, serial version.">
<polygon fill="none" stroke="black" points="669,-761.5 669,-791.5 788,-791.5 788,-761.5 669,-761.5"/>
<text text-anchor="start" x="677" y="-779.5" font-family="Helvetica,sans-Serif" font-size="10.00">PDEs::Serial::Poisson</text>
<text text-anchor="middle" x="728.5" y="-768.5" font-family="Helvetica,sans-Serif" font-size="10.00">&lt; dim, spacedim &gt;</text>
</a>
</g>
</g>
<!-- Node7&#45;&gt;Node30 -->
<g id="edge39" class="edge">
<title>Node7&#45;&gt;Node30</title>
<path fill="none" stroke="midnightblue" d="M513.56,-656.7C535.68,-681.7 580.26,-727.77 628,-752.5 640.62,-759.04 655.07,-763.84 668.98,-767.34"/>
<polygon fill="midnightblue" stroke="midnightblue" points="516.15,-654.34 506.95,-649.09 510.87,-658.94 516.15,-654.34"/>
</g>
<!-- Node31 -->
<g id="node37" class="node">
<title>Node31</title>
<g id="a_node37"><a xlink:href="class_p_d_es_1_1_serial_1_1_stokes.html" target="_top" xlink:title=" ">
<polygon fill="none" stroke="black" points="672,-712.5 672,-742.5 785,-742.5 785,-712.5 672,-712.5"/>
<text text-anchor="start" x="680" y="-730.5" font-family="Helvetica,sans-Serif" font-size="10.00">PDEs::Serial::Stokes</text>
<text text-anchor="middle" x="728.5" y="-719.5" font-family="Helvetica,sans-Serif" font-size="10.00">&lt; dim &gt;</text>
</a>
</g>
</g>
<!-- Node7&#45;&gt;Node31 -->
<g id="edge40" class="edge">
<title>Node7&#45;&gt;Node31</title>
<path fill="none" stroke="midnightblue" d="M527.55,-653.63C553.4,-666.1 592.72,-684.31 628,-697.5 642.45,-702.9 658.35,-708.04 673.11,-712.49"/>
<polygon fill="midnightblue" stroke="midnightblue" points="528.86,-650.37 518.34,-649.15 525.8,-656.67 528.86,-650.37"/>
</g>
<!-- Node33 -->
<g id="node39" class="node">
<title>Node33</title>
<g id="a_node39"><a xlink:href="http://www.dealii.org/developer/doxygen/deal.II/classTrilinosWrappers_1_1PreconditionAMG.html" xlink:title=" ">
<polygon fill="none" stroke="black" points="404,-50 404,-69 592,-69 592,-50 404,-50"/>
<text text-anchor="middle" x="498" y="-57" font-family="Helvetica,sans-Serif" font-size="10.00">TrilinosWrappers::PreconditionAMG</text>
</a>
</g>
</g>
<!-- Node32&#45;&gt;Node33 -->
<g id="edge42" class="edge">
<title>Node32&#45;&gt;Node33</title>
<path fill="none" stroke="midnightblue" d="M292.11,-169.1C321.4,-142.15 379.35,-90.29 404,-78.5 412.18,-74.59 421.13,-71.48 430.16,-69.01"/>
<polygon fill="midnightblue" stroke="midnightblue" points="289.63,-166.63 284.66,-175.99 294.38,-171.77 289.63,-166.63"/>
</g>
<!-- Node34 -->
<g id="node40" class="node">
<title>Node34</title>
<g id="a_node40"><a xlink:href="http://www.dealii.org/developer/doxygen/deal.II/classTrilinosWrappers_1_1PreconditionAMGMueLu.html" xlink:title=" ">
<polygon fill="none" stroke="black" points="415.5,-214.5 415.5,-244.5 580.5,-244.5 580.5,-214.5 415.5,-214.5"/>
<text text-anchor="start" x="423.5" y="-232.5" font-family="Helvetica,sans-Serif" font-size="10.00">TrilinosWrappers::Precondition</text>
<text text-anchor="middle" x="498" y="-221.5" font-family="Helvetica,sans-Serif" font-size="10.00">AMGMueLu</text>
</a>
</g>
</g>
<!-- Node32&#45;&gt;Node34 -->
<g id="edge44" class="edge">
<title>Node32&#45;&gt;Node34</title>
<path fill="none" stroke="midnightblue" d="M332.81,-197.03C359.72,-202.35 392.01,-208.74 420.82,-214.43"/>
<polygon fill="midnightblue" stroke="midnightblue" points="333.27,-193.55 322.78,-195.05 331.91,-200.42 333.27,-193.55"/>
</g>
<!-- Node35 -->
<g id="node41" class="node">
<title>Node35</title>
<g id="a_node41"><a xlink:href="http://www.dealii.org/developer/doxygen/deal.II/classTrilinosWrappers_1_1PreconditionILU.html" xlink:title=" ">
<polygon fill="none" stroke="black" points="408,-176 408,-195 588,-195 588,-176 408,-176"/>
<text text-anchor="middle" x="498" y="-183" font-family="Helvetica,sans-Serif" font-size="10.00">TrilinosWrappers::PreconditionILU</text>
</a>
</g>
</g>
<!-- Node32&#45;&gt;Node35 -->
<g id="edge46" class="edge">
<title>Node32&#45;&gt;Node35</title>
<path fill="none" stroke="midnightblue" d="M378.37,-185.5C388.16,-185.5 398.02,-185.5 407.66,-185.5"/>
<polygon fill="midnightblue" stroke="midnightblue" points="378.22,-182 368.22,-185.5 378.22,-189 378.22,-182"/>
</g>
<!-- Node36 -->
<g id="node42" class="node">
<title>Node36</title>
<g id="a_node42"><a xlink:href="http://www.dealii.org/developer/doxygen/deal.II/classTrilinosWrappers_1_1PreconditionJacobi.html" xlink:title=" ">
<polygon fill="none" stroke="black" points="415.5,-88.5 415.5,-118.5 580.5,-118.5 580.5,-88.5 415.5,-88.5"/>
<text text-anchor="start" x="423.5" y="-106.5" font-family="Helvetica,sans-Serif" font-size="10.00">TrilinosWrappers::Precondition</text>
<text text-anchor="middle" x="498" y="-95.5" font-family="Helvetica,sans-Serif" font-size="10.00">Jacobi</text>
</a>
</g>
</g>
<!-- Node32&#45;&gt;Node36 -->
<g id="edge48" class="edge">
<title>Node32&#45;&gt;Node36</title>
<path fill="none" stroke="midnightblue" d="M303.1,-171.4C329.01,-159 368.46,-141.02 404,-128.5 414.09,-124.95 424.95,-121.61 435.56,-118.6"/>
<polygon fill="midnightblue" stroke="midnightblue" points="301.35,-168.36 293.87,-175.86 304.4,-174.66 301.35,-168.36"/>
</g>
<!-- Node33&#45;&gt;Node15 -->
<g id="edge43" class="edge">
<title>Node33&#45;&gt;Node15</title>
<path fill="none" stroke="midnightblue" d="M602.31,-59.5C616.17,-59.5 630.24,-59.5 643.71,-59.5"/>
<polygon fill="midnightblue" stroke="midnightblue" points="602.27,-56 592.27,-59.5 602.27,-63 602.27,-56"/>
</g>
<!-- Node34&#45;&gt;Node14 -->
<g id="edge45" class="edge">
<title>Node34&#45;&gt;Node14</title>
<path fill="none" stroke="midnightblue" d="M590.64,-227.09C602.8,-226.77 615.32,-226.45 627.61,-226.12"/>
<polygon fill="midnightblue" stroke="midnightblue" points="590.43,-223.6 580.53,-227.36 590.61,-230.6 590.43,-223.6"/>
</g>
<!-- Node35&#45;&gt;Node16 -->
<g id="edge47" class="edge">
<title>Node35&#45;&gt;Node16</title>
<path fill="none" stroke="midnightblue" d="M598.54,-185.5C615.05,-185.5 631.97,-185.5 647.9,-185.5"/>
<polygon fill="midnightblue" stroke="midnightblue" points="598.33,-182 588.33,-185.5 598.33,-189 598.33,-182"/>
</g>
<!-- Node36&#45;&gt;Node18 -->
<g id="edge49" class="edge">
<title>Node36&#45;&gt;Node18</title>
<path fill="none" stroke="midnightblue" d="M590.75,-101.09C607.32,-100.66 624.56,-100.2 640.98,-99.77"/>
<polygon fill="midnightblue" stroke="midnightblue" points="590.43,-97.6 580.53,-101.36 590.61,-104.6 590.43,-97.6"/>
</g>
</g>
</svg>
