<?xml version="1.0" encoding="UTF-8" standalone="no"?>
<!DOCTYPE svg PUBLIC "-//W3C//DTD SVG 1.1//EN"
 "http://www.w3.org/Graphics/SVG/1.1/DTD/svg11.dtd">
<!-- Generated by graphviz version 2.43.0 (0)
 -->
<!-- Title: Graphical Class Hierarchy Pages: 1 -->
<svg width="419pt" height="165pt"
 viewBox="0.00 0.00 419.00 165.00" xmlns="http://www.w3.org/2000/svg" xmlns:xlink="http://www.w3.org/1999/xlink">
<g id="graph0" class="graph" transform="scale(1 1) rotate(0) translate(4 161)">
<title>Graphical Class Hierarchy</title>
<!-- Node0 -->
<g id="node1" class="node">
<title>Node0</title>
<g id="a_node1"><a xlink:href="http://www.dealii.org/developer/doxygen/deal.II/classSubscriptor.html" xlink:title=" ">
<polygon fill="none" stroke="black" points="0,-68.5 0,-87.5 71,-87.5 71,-68.5 0,-68.5"/>
<text text-anchor="middle" x="35.5" y="-75.5" font-family="Helvetica,sans-Serif" font-size="10.00">Subscriptor</text>
</a>
</g>
</g>
<!-- Node1 -->
<g id="node2" class="node">
<title>Node1</title>
<g id="a_node2"><a xlink:href="http://www.dealii.org/developer/doxygen/deal.II/classParameterAcceptor.html" xlink:title=" ">
<polygon fill="none" stroke="black" points="107,-68.5 107,-87.5 217,-87.5 217,-68.5 107,-68.5"/>
<text text-anchor="middle" x="162" y="-75.5" font-family="Helvetica,sans-Serif" font-size="10.00">ParameterAcceptor</text>
</a>
</g>
</g>
<!-- Node0&#45;&gt;Node1 -->
<g id="edge1" class="edge">
<title>Node0&#45;&gt;Node1</title>
<path fill="none" stroke="midnightblue" d="M81.39,-78C89.67,-78 98.4,-78 106.92,-78"/>
<polygon fill="midnightblue" stroke="midnightblue" points="81.18,-74.5 71.18,-78 81.18,-81.5 81.18,-74.5"/>
</g>
<!-- Node2 -->
<g id="node3" class="node">
<title>Node2</title>
<g id="a_node3"><a xlink:href="struct_tools_1_1_parsed_constants.html" target="_top" xlink:title="A wrapper for physical constants to be shared among functions and classes.">
<polygon fill="none" stroke="black" points="267.5,-137.5 267.5,-156.5 396.5,-156.5 396.5,-137.5 267.5,-137.5"/>
<text text-anchor="middle" x="332" y="-144.5" font-family="Helvetica,sans-Serif" font-size="10.00">Tools::ParsedConstants</text>
</a>
</g>
</g>
<!-- Node1&#45;&gt;Node2 -->
<g id="edge2" class="edge">
<title>Node1&#45;&gt;Node2</title>
<path fill="none" stroke="midnightblue" d="M185.87,-92.97C203.58,-103.99 229.05,-118.63 253,-128 262.47,-131.71 272.89,-134.85 282.94,-137.44"/>
<polygon fill="midnightblue" stroke="midnightblue" points="187.69,-89.98 177.37,-87.58 183.95,-95.89 187.69,-89.98"/>
</g>
<!-- Node3 -->
<g id="node4" class="node">
<title>Node3</title>
<g id="a_node4"><a xlink:href="class_tools_1_1_parsed_finite_element.html" target="_top" xlink:title="Parsed FiniteElement.">
<polygon fill="none" stroke="black" points="258.5,-88 258.5,-118 405.5,-118 405.5,-88 258.5,-88"/>
<text text-anchor="start" x="266.5" y="-106" font-family="Helvetica,sans-Serif" font-size="10.00">Tools::ParsedFiniteElement</text>
<text text-anchor="middle" x="332" y="-95" font-family="Helvetica,sans-Serif" font-size="10.00">&lt; dim, spacedim &gt;</text>
</a>
</g>
</g>
<!-- Node1&#45;&gt;Node3 -->
<g id="edge3" class="edge">
<title>Node1&#45;&gt;Node3</title>
<path fill="none" stroke="midnightblue" d="M227.12,-87.54C237.33,-89.06 247.95,-90.64 258.33,-92.19"/>
<polygon fill="midnightblue" stroke="midnightblue" points="227.49,-84.06 217.08,-86.05 226.46,-90.98 227.49,-84.06"/>
</g>
<!-- Node4 -->
<g id="node5" class="node">
<title>Node4</title>
<g id="a_node5"><a xlink:href="class_tools_1_1_parsed_grid_generator.html" target="_top" xlink:title="ParsedGridGenerator class.">
<polygon fill="none" stroke="black" points="257.5,-39 257.5,-69 406.5,-69 406.5,-39 257.5,-39"/>
<text text-anchor="start" x="265.5" y="-57" font-family="Helvetica,sans-Serif" font-size="10.00">Tools::ParsedGridGenerator</text>
<text text-anchor="middle" x="332" y="-46" font-family="Helvetica,sans-Serif" font-size="10.00">&lt; dim, spacedim &gt;</text>
</a>
</g>
</g>
<!-- Node1&#45;&gt;Node4 -->
<g id="edge4" class="edge">
<title>Node1&#45;&gt;Node4</title>
<path fill="none" stroke="midnightblue" d="M227.21,-68.83C237.09,-67.42 247.36,-65.95 257.42,-64.51"/>
<polygon fill="midnightblue" stroke="midnightblue" points="226.49,-65.4 217.08,-70.27 227.48,-72.32 226.49,-65.4"/>
</g>
<!-- Node5 -->
<g id="node6" class="node">
<title>Node5</title>
<g id="a_node6"><a xlink:href="class_tools_1_1_parsed_grid_refinement.html" target="_top" xlink:title="A wrapper for refinement strategies.">
<polygon fill="none" stroke="black" points="253,-0.5 253,-19.5 411,-19.5 411,-0.5 253,-0.5"/>
<text text-anchor="middle" x="332" y="-7.5" font-family="Helvetica,sans-Serif" font-size="10.00">Tools::ParsedGridRefinement</text>
</a>
</g>
</g>
<!-- Node1&#45;&gt;Node5 -->
<g id="edge5" class="edge">
<title>Node1&#45;&gt;Node5</title>
<path fill="none" stroke="midnightblue" d="M187.43,-62.91C205.12,-52.5 229.88,-38.98 253,-30 263.56,-25.9 275.24,-22.39 286.28,-19.51"/>
<polygon fill="midnightblue" stroke="midnightblue" points="185.17,-60.18 178.39,-68.32 188.77,-66.19 185.17,-60.18"/>
</g>
</g>
</svg>
