<?xml version="1.0" encoding="UTF-8" standalone="no"?>
<!DOCTYPE svg PUBLIC "-//W3C//DTD SVG 1.1//EN"
 "http://www.w3.org/Graphics/SVG/1.1/DTD/svg11.dtd">
<!-- Generated by graphviz version 2.43.0 (0)
 -->
<!-- Title: Graphical Class Hierarchy Pages: 1 -->
<svg width="836pt" height="390pt"
 viewBox="0.00 0.00 836.00 390.00" xmlns="http://www.w3.org/2000/svg" xmlns:xlink="http://www.w3.org/1999/xlink">
<g id="graph0" class="graph" transform="scale(1 1) rotate(0) translate(4 386)">
<title>Graphical Class Hierarchy</title>
<!-- Node16 -->
<g id="node1" class="node">
<title>Node16</title>
<g id="a_node1"><a xlink:href="http://www.dealii.org/developer/doxygen/deal.II/classFunctionTime.html" xlink:title=" ">
<polygon fill="none" stroke="black" points="0,-288 0,-307 143,-307 143,-288 0,-288"/>
<text text-anchor="middle" x="71.5" y="-295" font-family="Helvetica,sans-Serif" font-size="10.00">FunctionTime&lt; Number &gt;</text>
</a>
</g>
</g>
<!-- Node1 -->
<g id="node2" class="node">
<title>Node1</title>
<g id="a_node2"><a xlink:href="http://www.dealii.org/developer/doxygen/deal.II/classFunction.html" xlink:title=" ">
<polygon fill="none" stroke="black" points="184.5,-288 184.5,-307 283.5,-307 283.5,-288 184.5,-288"/>
<text text-anchor="middle" x="234" y="-295" font-family="Helvetica,sans-Serif" font-size="10.00">Function&lt; dim &gt;</text>
</a>
</g>
</g>
<!-- Node16&#45;&gt;Node1 -->
<g id="edge1" class="edge">
<title>Node16&#45;&gt;Node1</title>
<path fill="none" stroke="midnightblue" d="M153.41,-297.5C163.91,-297.5 174.4,-297.5 184.15,-297.5"/>
<polygon fill="midnightblue" stroke="midnightblue" points="153.36,-294 143.36,-297.5 153.36,-301 153.36,-294"/>
</g>
<!-- Node2 -->
<g id="node3" class="node">
<title>Node2</title>
<g id="a_node3"><a xlink:href="http://www.dealii.org/developer/doxygen/deal.II/classAutoDerivativeFunction.html" xlink:title=" ">
<polygon fill="none" stroke="black" points="349,-351.5 349,-381.5 480,-381.5 480,-351.5 349,-351.5"/>
<text text-anchor="start" x="357" y="-369.5" font-family="Helvetica,sans-Serif" font-size="10.00">AutoDerivativeFunction</text>
<text text-anchor="middle" x="414.5" y="-358.5" font-family="Helvetica,sans-Serif" font-size="10.00">&lt; dim &gt;</text>
</a>
</g>
</g>
<!-- Node1&#45;&gt;Node2 -->
<g id="edge2" class="edge">
<title>Node1&#45;&gt;Node2</title>
<path fill="none" stroke="midnightblue" d="M265.47,-311.45C282.78,-319.18 304.94,-328.77 325,-336.5 338.47,-341.69 353.27,-346.9 366.85,-351.49"/>
<polygon fill="midnightblue" stroke="midnightblue" points="266.45,-308.05 255.89,-307.13 263.57,-314.43 266.45,-308.05"/>
</g>
<!-- Node3 -->
<g id="node4" class="node">
<title>Node3</title>
<g id="a_node4"><a xlink:href="http://www.dealii.org/developer/doxygen/deal.II/classFunctionParser.html" xlink:title=" ">
<polygon fill="none" stroke="black" points="540,-354 540,-373 670,-373 670,-354 540,-354"/>
<text text-anchor="middle" x="605" y="-361" font-family="Helvetica,sans-Serif" font-size="10.00">FunctionParser&lt; dim &gt;</text>
</a>
</g>
</g>
<!-- Node2&#45;&gt;Node3 -->
<g id="edge3" class="edge">
<title>Node2&#45;&gt;Node3</title>
<path fill="none" stroke="midnightblue" d="M490.2,-365.31C506.61,-365.05 523.84,-364.78 539.8,-364.52"/>
<polygon fill="midnightblue" stroke="midnightblue" points="490.05,-361.81 480.11,-365.47 490.16,-368.81 490.05,-361.81"/>
</g>
<!-- Node4 -->
<g id="node5" class="node">
<title>Node4</title>
<g id="a_node5"><a xlink:href="class_tools_1_1_parsed_function.html" target="_top" xlink:title="A wrapper for the FunctionParser class.">
<polygon fill="none" stroke="black" points="706,-326.5 706,-356.5 828,-356.5 828,-326.5 706,-326.5"/>
<text text-anchor="start" x="714" y="-344.5" font-family="Helvetica,sans-Serif" font-size="10.00">Tools::ParsedFunction</text>
<text text-anchor="middle" x="767" y="-333.5" font-family="Helvetica,sans-Serif" font-size="10.00">&lt; dim &gt;</text>
</a>
</g>
</g>
<!-- Node3&#45;&gt;Node4 -->
<g id="edge4" class="edge">
<title>Node3&#45;&gt;Node4</title>
<path fill="none" stroke="midnightblue" d="M680.22,-353.29C688.85,-352.11 697.57,-350.91 705.98,-349.75"/>
<polygon fill="midnightblue" stroke="midnightblue" points="679.59,-349.85 670.16,-354.68 680.54,-356.78 679.59,-349.85"/>
</g>
<!-- Node0 -->
<g id="node6" class="node">
<title>Node0</title>
<g id="a_node6"><a xlink:href="http://www.dealii.org/developer/doxygen/deal.II/classSubscriptor.html" xlink:title=" ">
<polygon fill="none" stroke="black" points="36,-250 36,-269 107,-269 107,-250 36,-250"/>
<text text-anchor="middle" x="71.5" y="-257" font-family="Helvetica,sans-Serif" font-size="10.00">Subscriptor</text>
</a>
</g>
</g>
<!-- Node0&#45;&gt;Node1 -->
<g id="edge5" class="edge">
<title>Node0&#45;&gt;Node1</title>
<path fill="none" stroke="midnightblue" d="M117.15,-270.07C140.89,-275.69 169.84,-282.55 192.87,-288"/>
<polygon fill="midnightblue" stroke="midnightblue" points="117.86,-266.64 107.33,-267.75 116.25,-273.46 117.86,-266.64"/>
</g>
<!-- Node5 -->
<g id="node7" class="node">
<title>Node5</title>
<g id="a_node7"><a xlink:href="http://www.dealii.org/developer/doxygen/deal.II/classParameterAcceptor.html" xlink:title=" ">
<polygon fill="none" stroke="black" points="179,-181 179,-200 289,-200 289,-181 179,-181"/>
<text text-anchor="middle" x="234" y="-188" font-family="Helvetica,sans-Serif" font-size="10.00">ParameterAcceptor</text>
</a>
</g>
</g>
<!-- Node0&#45;&gt;Node5 -->
<g id="edge6" class="edge">
<title>Node0&#45;&gt;Node5</title>
<path fill="none" stroke="midnightblue" d="M104.04,-245.94C135.55,-232.4 183.17,-211.92 210.87,-200.01"/>
<polygon fill="midnightblue" stroke="midnightblue" points="102.62,-242.74 94.82,-249.91 105.39,-249.17 102.62,-242.74"/>
</g>
<!-- Node5&#45;&gt;Node4 -->
<g id="edge10" class="edge">
<title>Node5&#45;&gt;Node4</title>
<path fill="none" stroke="midnightblue" d="M243.99,-209.38C257.52,-235.42 285.77,-281.52 325,-302.5 389.31,-336.89 600.57,-341.72 705.6,-341.92"/>
<polygon fill="midnightblue" stroke="midnightblue" points="246.99,-207.56 239.39,-200.18 240.73,-210.69 246.99,-207.56"/>
</g>
<!-- Node6 -->
<g id="node8" class="node">
<title>Node6</title>
<g id="a_node8"><a xlink:href="class_tools_1_1_parsed_boundary_conditions.html" target="_top" xlink:title="A wrapper for boundary conditions.">
<polygon fill="none" stroke="black" points="325,-263.5 325,-293.5 504,-293.5 504,-263.5 325,-263.5"/>
<text text-anchor="start" x="333" y="-281.5" font-family="Helvetica,sans-Serif" font-size="10.00">Tools::ParsedBoundaryConditions</text>
<text text-anchor="middle" x="414.5" y="-270.5" font-family="Helvetica,sans-Serif" font-size="10.00">&lt; dim &gt;</text>
</a>
</g>
</g>
<!-- Node5&#45;&gt;Node6 -->
<g id="edge7" class="edge">
<title>Node5&#45;&gt;Node6</title>
<path fill="none" stroke="midnightblue" d="M253.9,-206.59C271.35,-220.71 298.49,-240.92 325,-253.5 332.93,-257.26 341.54,-260.56 350.17,-263.43"/>
<polygon fill="midnightblue" stroke="midnightblue" points="256.1,-203.86 246.16,-200.2 251.64,-209.26 256.1,-203.86"/>
</g>
<!-- Node7 -->
<g id="node9" class="node">
<title>Node7</title>
<g id="a_node9"><a xlink:href="class_tools_1_1_parsed_constants.html" target="_top" xlink:title="A wrapper for physical constants to be shared among functions and classes.">
<polygon fill="none" stroke="black" points="350,-225 350,-244 479,-244 479,-225 350,-225"/>
<text text-anchor="middle" x="414.5" y="-232" font-family="Helvetica,sans-Serif" font-size="10.00">Tools::ParsedConstants</text>
</a>
</g>
</g>
<!-- Node5&#45;&gt;Node7 -->
<g id="edge8" class="edge">
<title>Node5&#45;&gt;Node7</title>
<path fill="none" stroke="midnightblue" d="M279.29,-202.67C293.82,-206.57 310.07,-210.82 325,-214.5 339.53,-218.08 355.46,-221.75 369.76,-224.96"/>
<polygon fill="midnightblue" stroke="midnightblue" points="280.1,-199.27 269.54,-200.04 278.28,-206.03 280.1,-199.27"/>
</g>
<!-- Node8 -->
<g id="node10" class="node">
<title>Node8</title>
<g id="a_node10"><a xlink:href="class_tools_1_1_parsed_finite_element.html" target="_top" xlink:title="Parsed FiniteElement.">
<polygon fill="none" stroke="black" points="341,-175.5 341,-205.5 488,-205.5 488,-175.5 341,-175.5"/>
<text text-anchor="start" x="349" y="-193.5" font-family="Helvetica,sans-Serif" font-size="10.00">Tools::ParsedFiniteElement</text>
<text text-anchor="middle" x="414.5" y="-182.5" font-family="Helvetica,sans-Serif" font-size="10.00">&lt; dim, spacedim &gt;</text>
</a>
</g>
</g>
<!-- Node5&#45;&gt;Node8 -->
<g id="edge9" class="edge">
<title>Node5&#45;&gt;Node8</title>
<path fill="none" stroke="midnightblue" d="M299.19,-190.5C312.71,-190.5 327.06,-190.5 340.86,-190.5"/>
<polygon fill="midnightblue" stroke="midnightblue" points="299.04,-187 289.04,-190.5 299.04,-194 299.04,-187"/>
</g>
<!-- Node9 -->
<g id="node11" class="node">
<title>Node9</title>
<g id="a_node11"><a xlink:href="class_tools_1_1_parsed_grid_generator.html" target="_top" xlink:title="ParsedGridGenerator class.">
<polygon fill="none" stroke="black" points="340,-126.5 340,-156.5 489,-156.5 489,-126.5 340,-126.5"/>
<text text-anchor="start" x="348" y="-144.5" font-family="Helvetica,sans-Serif" font-size="10.00">Tools::ParsedGridGenerator</text>
<text text-anchor="middle" x="414.5" y="-133.5" font-family="Helvetica,sans-Serif" font-size="10.00">&lt; dim, spacedim &gt;</text>
</a>
</g>
</g>
<!-- Node5&#45;&gt;Node9 -->
<g id="edge11" class="edge">
<title>Node5&#45;&gt;Node9</title>
<path fill="none" stroke="midnightblue" d="M278.99,-178.22C293.62,-174.15 310.01,-169.62 325,-165.5 335.59,-162.59 346.9,-159.51 357.78,-156.56"/>
<polygon fill="midnightblue" stroke="midnightblue" points="277.87,-174.9 269.18,-180.95 279.75,-181.64 277.87,-174.9"/>
</g>
<!-- Node10 -->
<g id="node12" class="node">
<title>Node10</title>
<g id="a_node12"><a xlink:href="class_tools_1_1_parsed_grid_refinement.html" target="_top" xlink:title="A wrapper for refinement strategies.">
<polygon fill="none" stroke="black" points="335.5,-88 335.5,-107 493.5,-107 493.5,-88 335.5,-88"/>
<text text-anchor="middle" x="414.5" y="-95" font-family="Helvetica,sans-Serif" font-size="10.00">Tools::ParsedGridRefinement</text>
</a>
</g>
</g>
<!-- Node5&#45;&gt;Node10 -->
<g id="edge12" class="edge">
<title>Node5&#45;&gt;Node10</title>
<path fill="none" stroke="midnightblue" d="M250.96,-173.25C267.74,-156.18 295.73,-130.63 325,-116.5 333.07,-112.61 341.93,-109.5 350.83,-107.03"/>
<polygon fill="midnightblue" stroke="midnightblue" points="248.06,-171.21 243.67,-180.85 253.11,-176.06 248.06,-171.21"/>
</g>
<!-- Node11 -->
<g id="node13" class="node">
<title>Node11</title>
<g id="a_node13"><a xlink:href="class_tools_1_1_parsed_inverse_operator.html" target="_top" xlink:title="A factory that can generate inverse operators according to parameter files.">
<polygon fill="none" stroke="black" points="335,-50 335,-69 494,-69 494,-50 335,-50"/>
<text text-anchor="middle" x="414.5" y="-57" font-family="Helvetica,sans-Serif" font-size="10.00">Tools::ParsedInverseOperator</text>
</a>
</g>
</g>
<!-- Node5&#45;&gt;Node11 -->
<g id="edge13" class="edge">
<title>Node5&#45;&gt;Node11</title>
<path fill="none" stroke="midnightblue" d="M244.58,-171.9C258.64,-146.57 287.33,-101.74 325,-78.5 331.29,-74.62 338.25,-71.53 345.42,-69.06"/>
<polygon fill="midnightblue" stroke="midnightblue" points="241.42,-170.39 239.77,-180.86 247.58,-173.7 241.42,-170.39"/>
</g>
<!-- Node12 -->
<g id="node14" class="node">
<title>Node12</title>
<g id="a_node14"><a xlink:href="class_tools_1_1_parsed_symbolic_function.html" target="_top" xlink:title="A wrapper for the Functions::SymbolicFunction class.">
<polygon fill="none" stroke="black" points="331,-0.5 331,-30.5 498,-30.5 498,-0.5 331,-0.5"/>
<text text-anchor="start" x="339" y="-18.5" font-family="Helvetica,sans-Serif" font-size="10.00">Tools::ParsedSymbolicFunction</text>
<text text-anchor="middle" x="414.5" y="-7.5" font-family="Helvetica,sans-Serif" font-size="10.00">&lt; dim &gt;</text>
</a>
</g>
</g>
<!-- Node5&#45;&gt;Node12 -->
<g id="edge14" class="edge">
<title>Node5&#45;&gt;Node12</title>
<path fill="none" stroke="midnightblue" d="M241.28,-171.14C252.7,-139.05 279.92,-74.97 325,-40.5 330.07,-36.62 335.72,-33.34 341.64,-30.57"/>
<polygon fill="midnightblue" stroke="midnightblue" points="237.93,-170.11 238.01,-180.7 244.56,-172.37 237.93,-170.11"/>
</g>
</g>
</svg>
