<?xml version="1.0" encoding="UTF-8" standalone="no"?>
<!DOCTYPE svg PUBLIC "-//W3C//DTD SVG 1.1//EN"
 "http://www.w3.org/Graphics/SVG/1.1/DTD/svg11.dtd">
<!-- Generated by graphviz version 2.43.0 (0)
 -->
<!-- Title: Graphical Class Hierarchy Pages: 1 -->
<svg width="816pt" height="291pt"
 viewBox="0.00 0.00 816.00 290.50" xmlns="http://www.w3.org/2000/svg" xmlns:xlink="http://www.w3.org/1999/xlink">
<g id="graph0" class="graph" transform="scale(1 1) rotate(0) translate(4 286.5)">
<title>Graphical Class Hierarchy</title>
<!-- Node13 -->
<g id="node1" class="node">
<title>Node13</title>
<g id="a_node1"><a xlink:href="http://www.dealii.org/developer/doxygen/deal.II/classFunctionTime.html" xlink:title=" ">
<polygon fill="none" stroke="black" points="0,-213.5 0,-232.5 143,-232.5 143,-213.5 0,-213.5"/>
<text text-anchor="middle" x="71.5" y="-220.5" font-family="Helvetica,sans-Serif" font-size="10.00">FunctionTime&lt; Number &gt;</text>
</a>
</g>
</g>
<!-- Node1 -->
<g id="node2" class="node">
<title>Node1</title>
<g id="a_node2"><a xlink:href="http://www.dealii.org/developer/doxygen/deal.II/classFunction.html" xlink:title=" ">
<polygon fill="none" stroke="black" points="184.5,-213.5 184.5,-232.5 283.5,-232.5 283.5,-213.5 184.5,-213.5"/>
<text text-anchor="middle" x="234" y="-220.5" font-family="Helvetica,sans-Serif" font-size="10.00">Function&lt; dim &gt;</text>
</a>
</g>
</g>
<!-- Node13&#45;&gt;Node1 -->
<g id="edge1" class="edge">
<title>Node13&#45;&gt;Node1</title>
<path fill="none" stroke="midnightblue" d="M153.41,-223C163.91,-223 174.4,-223 184.15,-223"/>
<polygon fill="midnightblue" stroke="midnightblue" points="153.36,-219.5 143.36,-223 153.36,-226.5 153.36,-219.5"/>
</g>
<!-- Node2 -->
<g id="node3" class="node">
<title>Node2</title>
<g id="a_node3"><a xlink:href="http://www.dealii.org/developer/doxygen/deal.II/classAutoDerivativeFunction.html" xlink:title=" ">
<polygon fill="none" stroke="black" points="339,-252 339,-282 470,-282 470,-252 339,-252"/>
<text text-anchor="start" x="347" y="-270" font-family="Helvetica,sans-Serif" font-size="10.00">AutoDerivativeFunction</text>
<text text-anchor="middle" x="404.5" y="-259" font-family="Helvetica,sans-Serif" font-size="10.00">&lt; dim &gt;</text>
</a>
</g>
</g>
<!-- Node1&#45;&gt;Node2 -->
<g id="edge2" class="edge">
<title>Node1&#45;&gt;Node2</title>
<path fill="none" stroke="midnightblue" d="M281.33,-235.1C301.26,-240.3 324.76,-246.44 345.81,-251.93"/>
<polygon fill="midnightblue" stroke="midnightblue" points="282.12,-231.69 271.56,-232.55 280.35,-238.46 282.12,-231.69"/>
</g>
<!-- Node3 -->
<g id="node4" class="node">
<title>Node3</title>
<g id="a_node4"><a xlink:href="http://www.dealii.org/developer/doxygen/deal.II/classFunctionParser.html" xlink:title=" ">
<polygon fill="none" stroke="black" points="520,-254.5 520,-273.5 650,-273.5 650,-254.5 520,-254.5"/>
<text text-anchor="middle" x="585" y="-261.5" font-family="Helvetica,sans-Serif" font-size="10.00">FunctionParser&lt; dim &gt;</text>
</a>
</g>
</g>
<!-- Node2&#45;&gt;Node3 -->
<g id="edge3" class="edge">
<title>Node2&#45;&gt;Node3</title>
<path fill="none" stroke="midnightblue" d="M480.56,-265.74C493.62,-265.52 507.09,-265.29 519.82,-265.08"/>
<polygon fill="midnightblue" stroke="midnightblue" points="480.13,-262.25 470.19,-265.91 480.25,-269.24 480.13,-262.25"/>
</g>
<!-- Node4 -->
<g id="node5" class="node">
<title>Node4</title>
<g id="a_node5"><a xlink:href="class_tools_1_1_parsed_function.html" target="_top" xlink:title="A wrapper for the FunctionParser class.">
<polygon fill="none" stroke="black" points="686,-227 686,-257 808,-257 808,-227 686,-227"/>
<text text-anchor="start" x="694" y="-245" font-family="Helvetica,sans-Serif" font-size="10.00">Tools::ParsedFunction</text>
<text text-anchor="middle" x="747" y="-234" font-family="Helvetica,sans-Serif" font-size="10.00">&lt; dim &gt;</text>
</a>
</g>
</g>
<!-- Node3&#45;&gt;Node4 -->
<g id="edge4" class="edge">
<title>Node3&#45;&gt;Node4</title>
<path fill="none" stroke="midnightblue" d="M660.22,-253.79C668.85,-252.61 677.57,-251.41 685.98,-250.25"/>
<polygon fill="midnightblue" stroke="midnightblue" points="659.59,-250.35 650.16,-255.18 660.54,-257.28 659.59,-250.35"/>
</g>
<!-- Node0 -->
<g id="node6" class="node">
<title>Node0</title>
<g id="a_node6"><a xlink:href="http://www.dealii.org/developer/doxygen/deal.II/classSubscriptor.html" xlink:title=" ">
<polygon fill="none" stroke="black" points="36,-175.5 36,-194.5 107,-194.5 107,-175.5 36,-175.5"/>
<text text-anchor="middle" x="71.5" y="-182.5" font-family="Helvetica,sans-Serif" font-size="10.00">Subscriptor</text>
</a>
</g>
</g>
<!-- Node0&#45;&gt;Node1 -->
<g id="edge5" class="edge">
<title>Node0&#45;&gt;Node1</title>
<path fill="none" stroke="midnightblue" d="M117.15,-195.57C140.89,-201.19 169.84,-208.05 192.87,-213.5"/>
<polygon fill="midnightblue" stroke="midnightblue" points="117.86,-192.14 107.33,-193.25 116.25,-198.96 117.86,-192.14"/>
</g>
<!-- Node5 -->
<g id="node7" class="node">
<title>Node5</title>
<g id="a_node7"><a xlink:href="http://www.dealii.org/developer/doxygen/deal.II/classParameterAcceptor.html" xlink:title=" ">
<polygon fill="none" stroke="black" points="179,-131.5 179,-150.5 289,-150.5 289,-131.5 179,-131.5"/>
<text text-anchor="middle" x="234" y="-138.5" font-family="Helvetica,sans-Serif" font-size="10.00">ParameterAcceptor</text>
</a>
</g>
</g>
<!-- Node0&#45;&gt;Node5 -->
<g id="edge6" class="edge">
<title>Node0&#45;&gt;Node5</title>
<path fill="none" stroke="midnightblue" d="M117.18,-172.75C142.8,-165.73 174.49,-157.04 198.24,-150.53"/>
<polygon fill="midnightblue" stroke="midnightblue" points="116.04,-169.43 107.33,-175.45 117.9,-176.18 116.04,-169.43"/>
</g>
<!-- Node5&#45;&gt;Node4 -->
<g id="edge9" class="edge">
<title>Node5&#45;&gt;Node4</title>
<path fill="none" stroke="midnightblue" d="M252.26,-157.29C269.3,-172.28 296.83,-193.7 325,-204 389.71,-227.65 585.95,-237.05 685.98,-240.38"/>
<polygon fill="midnightblue" stroke="midnightblue" points="254.55,-154.64 244.78,-150.52 249.85,-159.83 254.55,-154.64"/>
</g>
<!-- Node6 -->
<g id="node8" class="node">
<title>Node6</title>
<g id="a_node8"><a xlink:href="class_tools_1_1_parsed_constants.html" target="_top" xlink:title="A wrapper for physical constants to be shared among functions and classes.">
<polygon fill="none" stroke="black" points="340,-175.5 340,-194.5 469,-194.5 469,-175.5 340,-175.5"/>
<text text-anchor="middle" x="404.5" y="-182.5" font-family="Helvetica,sans-Serif" font-size="10.00">Tools::ParsedConstants</text>
</a>
</g>
</g>
<!-- Node5&#45;&gt;Node6 -->
<g id="edge7" class="edge">
<title>Node5&#45;&gt;Node6</title>
<path fill="none" stroke="midnightblue" d="M280.51,-153.24C294.75,-157.04 310.52,-161.22 325,-165 338.2,-168.44 352.67,-172.15 365.55,-175.42"/>
<polygon fill="midnightblue" stroke="midnightblue" points="281.02,-149.75 270.45,-150.55 279.21,-156.52 281.02,-149.75"/>
</g>
<!-- Node7 -->
<g id="node9" class="node">
<title>Node7</title>
<g id="a_node9"><a xlink:href="class_tools_1_1_parsed_finite_element.html" target="_top" xlink:title="Parsed FiniteElement.">
<polygon fill="none" stroke="black" points="331,-126 331,-156 478,-156 478,-126 331,-126"/>
<text text-anchor="start" x="339" y="-144" font-family="Helvetica,sans-Serif" font-size="10.00">Tools::ParsedFiniteElement</text>
<text text-anchor="middle" x="404.5" y="-133" font-family="Helvetica,sans-Serif" font-size="10.00">&lt; dim, spacedim &gt;</text>
</a>
</g>
</g>
<!-- Node5&#45;&gt;Node7 -->
<g id="edge8" class="edge">
<title>Node5&#45;&gt;Node7</title>
<path fill="none" stroke="midnightblue" d="M299.39,-141C309.7,-141 320.43,-141 330.92,-141"/>
<polygon fill="midnightblue" stroke="midnightblue" points="299.24,-137.5 289.24,-141 299.24,-144.5 299.24,-137.5"/>
</g>
<!-- Node8 -->
<g id="node10" class="node">
<title>Node8</title>
<g id="a_node10"><a xlink:href="class_tools_1_1_parsed_grid_generator.html" target="_top" xlink:title="ParsedGridGenerator class.">
<polygon fill="none" stroke="black" points="330,-77 330,-107 479,-107 479,-77 330,-77"/>
<text text-anchor="start" x="338" y="-95" font-family="Helvetica,sans-Serif" font-size="10.00">Tools::ParsedGridGenerator</text>
<text text-anchor="middle" x="404.5" y="-84" font-family="Helvetica,sans-Serif" font-size="10.00">&lt; dim, spacedim &gt;</text>
</a>
</g>
</g>
<!-- Node5&#45;&gt;Node8 -->
<g id="edge10" class="edge">
<title>Node5&#45;&gt;Node8</title>
<path fill="none" stroke="midnightblue" d="M277.52,-128.63C300.08,-122.07 327.99,-113.96 351.79,-107.04"/>
<polygon fill="midnightblue" stroke="midnightblue" points="276.51,-125.28 267.89,-131.44 278.47,-132 276.51,-125.28"/>
</g>
<!-- Node9 -->
<g id="node11" class="node">
<title>Node9</title>
<g id="a_node11"><a xlink:href="class_tools_1_1_parsed_grid_refinement.html" target="_top" xlink:title="A wrapper for refinement strategies.">
<polygon fill="none" stroke="black" points="325.5,-38.5 325.5,-57.5 483.5,-57.5 483.5,-38.5 325.5,-38.5"/>
<text text-anchor="middle" x="404.5" y="-45.5" font-family="Helvetica,sans-Serif" font-size="10.00">Tools::ParsedGridRefinement</text>
</a>
</g>
</g>
<!-- Node5&#45;&gt;Node9 -->
<g id="edge11" class="edge">
<title>Node5&#45;&gt;Node9</title>
<path fill="none" stroke="midnightblue" d="M251.04,-123.9C267.88,-106.97 295.91,-81.51 325,-67 332.78,-63.12 341.39,-60 349.99,-57.51"/>
<polygon fill="midnightblue" stroke="midnightblue" points="248.17,-121.84 243.71,-131.45 253.19,-126.71 248.17,-121.84"/>
</g>
<!-- Node10 -->
<g id="node12" class="node">
<title>Node10</title>
<g id="a_node12"><a xlink:href="class_tools_1_1_parsed_inverse_operator.html" target="_top" xlink:title="A factory that can generate inverse operators according to parameter files.">
<polygon fill="none" stroke="black" points="325,-0.5 325,-19.5 484,-19.5 484,-0.5 325,-0.5"/>
<text text-anchor="middle" x="404.5" y="-7.5" font-family="Helvetica,sans-Serif" font-size="10.00">Tools::ParsedInverseOperator</text>
</a>
</g>
</g>
<!-- Node5&#45;&gt;Node10 -->
<g id="edge12" class="edge">
<title>Node5&#45;&gt;Node10</title>
<path fill="none" stroke="midnightblue" d="M244.67,-122.54C258.83,-97.37 287.63,-52.72 325,-29 331.16,-25.09 338.05,-21.99 345.13,-19.52"/>
<polygon fill="midnightblue" stroke="midnightblue" points="241.53,-120.98 239.82,-131.43 247.68,-124.33 241.53,-120.98"/>
</g>
</g>
</svg>
