<?xml version="1.0" encoding="UTF-8" standalone="no"?>
<!DOCTYPE svg PUBLIC "-//W3C//DTD SVG 1.1//EN"
 "http://www.w3.org/Graphics/SVG/1.1/DTD/svg11.dtd">
<!-- Generated by graphviz version 2.43.0 (0)
 -->
<!-- Title: Graphical Class Hierarchy Pages: 1 -->
<svg width="410pt" height="88pt"
 viewBox="0.00 0.00 410.00 88.00" xmlns="http://www.w3.org/2000/svg" xmlns:xlink="http://www.w3.org/1999/xlink">
<g id="graph0" class="graph" transform="scale(1 1) rotate(0) translate(4 84)">
<title>Graphical Class Hierarchy</title>
<!-- Node0 -->
<g id="node1" class="node">
<title>Node0</title>
<g id="a_node1"><a xlink:href="http://www.dealii.org/developer/doxygen/deal.II/classSubscriptor.html" xlink:title=" ">
<polygon fill="none" stroke="black" points="0,-30 0,-49 71,-49 71,-30 0,-30"/>
<text text-anchor="middle" x="35.5" y="-37" font-family="Helvetica,sans-Serif" font-size="10.00">Subscriptor</text>
</a>
</g>
</g>
<!-- Node1 -->
<g id="node2" class="node">
<title>Node1</title>
<g id="a_node2"><a xlink:href="http://www.dealii.org/developer/doxygen/deal.II/classParameterAcceptor.html" xlink:title=" ">
<polygon fill="none" stroke="black" points="107,-30 107,-49 217,-49 217,-30 107,-30"/>
<text text-anchor="middle" x="162" y="-37" font-family="Helvetica,sans-Serif" font-size="10.00">ParameterAcceptor</text>
</a>
</g>
</g>
<!-- Node0&#45;&gt;Node1 -->
<g id="edge1" class="edge">
<title>Node0&#45;&gt;Node1</title>
<path fill="none" stroke="midnightblue" d="M81.39,-39.5C89.67,-39.5 98.4,-39.5 106.92,-39.5"/>
<polygon fill="midnightblue" stroke="midnightblue" points="81.18,-36 71.18,-39.5 81.18,-43 81.18,-36"/>
</g>
<!-- Node2 -->
<g id="node3" class="node">
<title>Node2</title>
<g id="a_node3"><a xlink:href="class_tools_1_1_parsed_finite_element.html" target="_top" xlink:title=" ">
<polygon fill="none" stroke="black" points="254,-49.5 254,-79.5 401,-79.5 401,-49.5 254,-49.5"/>
<text text-anchor="start" x="262" y="-67.5" font-family="Helvetica,sans-Serif" font-size="10.00">Tools::ParsedFiniteElement</text>
<text text-anchor="middle" x="327.5" y="-56.5" font-family="Helvetica,sans-Serif" font-size="10.00">&lt; dim, spacedim &gt;</text>
</a>
</g>
</g>
<!-- Node1&#45;&gt;Node2 -->
<g id="edge2" class="edge">
<title>Node1&#45;&gt;Node2</title>
<path fill="none" stroke="midnightblue" d="M227.49,-49.36C236.18,-50.69 245.15,-52.06 253.96,-53.41"/>
<polygon fill="midnightblue" stroke="midnightblue" points="227.86,-45.88 217.44,-47.82 226.8,-52.8 227.86,-45.88"/>
</g>
<!-- Node3 -->
<g id="node4" class="node">
<title>Node3</title>
<g id="a_node4"><a xlink:href="class_tools_1_1_parsed_grid_generator.html" target="_top" xlink:title=" ">
<polygon fill="none" stroke="black" points="253,-0.5 253,-30.5 402,-30.5 402,-0.5 253,-0.5"/>
<text text-anchor="start" x="261" y="-18.5" font-family="Helvetica,sans-Serif" font-size="10.00">Tools::ParsedGridGenerator</text>
<text text-anchor="middle" x="327.5" y="-7.5" font-family="Helvetica,sans-Serif" font-size="10.00">&lt; dim, spacedim &gt;</text>
</a>
</g>
</g>
<!-- Node1&#45;&gt;Node3 -->
<g id="edge3" class="edge">
<title>Node1&#45;&gt;Node3</title>
<path fill="none" stroke="midnightblue" d="M227.44,-30.04C235.77,-28.82 244.34,-27.56 252.8,-26.32"/>
<polygon fill="midnightblue" stroke="midnightblue" points="226.83,-26.59 217.44,-31.51 227.85,-33.52 226.83,-26.59"/>
</g>
</g>
</svg>
