<?xml version="1.0" encoding="UTF-8" standalone="no"?>
<!DOCTYPE svg PUBLIC "-//W3C//DTD SVG 1.1//EN"
 "http://www.w3.org/Graphics/SVG/1.1/DTD/svg11.dtd">
<!-- Generated by graphviz version 2.43.0 (0)
 -->
<!-- Title: Graphical Class Hierarchy Pages: 1 -->
<svg width="815pt" height="253pt"
 viewBox="0.00 0.00 815.00 252.50" xmlns="http://www.w3.org/2000/svg" xmlns:xlink="http://www.w3.org/1999/xlink">
<g id="graph0" class="graph" transform="scale(1 1) rotate(0) translate(4 248.5)">
<title>Graphical Class Hierarchy</title>
<!-- Node12 -->
<g id="node1" class="node">
<title>Node12</title>
<g id="a_node1"><a xlink:href="http://www.dealii.org/developer/doxygen/deal.II/classFunctionTime.html" xlink:title=" ">
<polygon fill="none" stroke="black" points="0,-186.5 0,-205.5 143,-205.5 143,-186.5 0,-186.5"/>
<text text-anchor="middle" x="71.5" y="-193.5" font-family="Helvetica,sans-Serif" font-size="10.00">FunctionTime&lt; Number &gt;</text>
</a>
</g>
</g>
<!-- Node1 -->
<g id="node2" class="node">
<title>Node1</title>
<g id="a_node2"><a xlink:href="http://www.dealii.org/developer/doxygen/deal.II/classFunction.html" xlink:title=" ">
<polygon fill="none" stroke="black" points="184.5,-186.5 184.5,-205.5 283.5,-205.5 283.5,-186.5 184.5,-186.5"/>
<text text-anchor="middle" x="234" y="-193.5" font-family="Helvetica,sans-Serif" font-size="10.00">Function&lt; dim &gt;</text>
</a>
</g>
</g>
<!-- Node12&#45;&gt;Node1 -->
<g id="edge1" class="edge">
<title>Node12&#45;&gt;Node1</title>
<path fill="none" stroke="midnightblue" d="M153.41,-196C163.91,-196 174.4,-196 184.15,-196"/>
<polygon fill="midnightblue" stroke="midnightblue" points="153.36,-192.5 143.36,-196 153.36,-199.5 153.36,-192.5"/>
</g>
<!-- Node2 -->
<g id="node3" class="node">
<title>Node2</title>
<g id="a_node3"><a xlink:href="http://www.dealii.org/developer/doxygen/deal.II/classAutoDerivativeFunction.html" xlink:title=" ">
<polygon fill="none" stroke="black" points="338.5,-214 338.5,-244 469.5,-244 469.5,-214 338.5,-214"/>
<text text-anchor="start" x="346.5" y="-232" font-family="Helvetica,sans-Serif" font-size="10.00">AutoDerivativeFunction</text>
<text text-anchor="middle" x="404" y="-221" font-family="Helvetica,sans-Serif" font-size="10.00">&lt; dim &gt;</text>
</a>
</g>
</g>
<!-- Node1&#45;&gt;Node2 -->
<g id="edge2" class="edge">
<title>Node1&#45;&gt;Node2</title>
<path fill="none" stroke="midnightblue" d="M293.41,-207.47C307.89,-210.32 323.49,-213.38 338.26,-216.28"/>
<polygon fill="midnightblue" stroke="midnightblue" points="294.08,-204.04 283.59,-205.54 292.73,-210.91 294.08,-204.04"/>
</g>
<!-- Node3 -->
<g id="node4" class="node">
<title>Node3</title>
<g id="a_node4"><a xlink:href="http://www.dealii.org/developer/doxygen/deal.II/classFunctionParser.html" xlink:title=" ">
<polygon fill="none" stroke="black" points="519,-216.5 519,-235.5 649,-235.5 649,-216.5 519,-216.5"/>
<text text-anchor="middle" x="584" y="-223.5" font-family="Helvetica,sans-Serif" font-size="10.00">FunctionParser&lt; dim &gt;</text>
</a>
</g>
</g>
<!-- Node2&#45;&gt;Node3 -->
<g id="edge3" class="edge">
<title>Node2&#45;&gt;Node3</title>
<path fill="none" stroke="midnightblue" d="M479.78,-227.74C492.72,-227.52 506.07,-227.3 518.71,-227.08"/>
<polygon fill="midnightblue" stroke="midnightblue" points="479.45,-224.24 469.51,-227.91 479.57,-231.24 479.45,-224.24"/>
</g>
<!-- Node4 -->
<g id="node5" class="node">
<title>Node4</title>
<g id="a_node5"><a xlink:href="class_tools_1_1_parsed_function.html" target="_top" xlink:title="A wrapper for the FunctionParser class.">
<polygon fill="none" stroke="black" points="685,-189 685,-219 807,-219 807,-189 685,-189"/>
<text text-anchor="start" x="693" y="-207" font-family="Helvetica,sans-Serif" font-size="10.00">Tools::ParsedFunction</text>
<text text-anchor="middle" x="746" y="-196" font-family="Helvetica,sans-Serif" font-size="10.00">&lt; dim &gt;</text>
</a>
</g>
</g>
<!-- Node3&#45;&gt;Node4 -->
<g id="edge4" class="edge">
<title>Node3&#45;&gt;Node4</title>
<path fill="none" stroke="midnightblue" d="M659.22,-215.79C667.85,-214.61 676.57,-213.41 684.98,-212.25"/>
<polygon fill="midnightblue" stroke="midnightblue" points="658.59,-212.35 649.16,-217.18 659.54,-219.28 658.59,-212.35"/>
</g>
<!-- Node0 -->
<g id="node6" class="node">
<title>Node0</title>
<g id="a_node6"><a xlink:href="http://www.dealii.org/developer/doxygen/deal.II/classSubscriptor.html" xlink:title=" ">
<polygon fill="none" stroke="black" points="36,-148.5 36,-167.5 107,-167.5 107,-148.5 36,-148.5"/>
<text text-anchor="middle" x="71.5" y="-155.5" font-family="Helvetica,sans-Serif" font-size="10.00">Subscriptor</text>
</a>
</g>
</g>
<!-- Node0&#45;&gt;Node1 -->
<g id="edge5" class="edge">
<title>Node0&#45;&gt;Node1</title>
<path fill="none" stroke="midnightblue" d="M117.15,-168.57C140.89,-174.19 169.84,-181.05 192.87,-186.5"/>
<polygon fill="midnightblue" stroke="midnightblue" points="117.86,-165.14 107.33,-166.25 116.25,-171.96 117.86,-165.14"/>
</g>
<!-- Node5 -->
<g id="node7" class="node">
<title>Node5</title>
<g id="a_node7"><a xlink:href="http://www.dealii.org/developer/doxygen/deal.II/classParameterAcceptor.html" xlink:title=" ">
<polygon fill="none" stroke="black" points="179,-115.5 179,-134.5 289,-134.5 289,-115.5 179,-115.5"/>
<text text-anchor="middle" x="234" y="-122.5" font-family="Helvetica,sans-Serif" font-size="10.00">ParameterAcceptor</text>
</a>
</g>
</g>
<!-- Node0&#45;&gt;Node5 -->
<g id="edge6" class="edge">
<title>Node0&#45;&gt;Node5</title>
<path fill="none" stroke="midnightblue" d="M117.25,-148.8C138.88,-144.35 164.83,-139.02 186.66,-134.53"/>
<polygon fill="midnightblue" stroke="midnightblue" points="116.42,-145.4 107.33,-150.84 117.83,-152.25 116.42,-145.4"/>
</g>
<!-- Node5&#45;&gt;Node4 -->
<g id="edge9" class="edge">
<title>Node5&#45;&gt;Node4</title>
<path fill="none" stroke="midnightblue" d="M260.64,-139.5C278.19,-148.71 302.31,-159.99 325,-166 449.92,-199.08 602.23,-204.61 684.78,-204.85"/>
<polygon fill="midnightblue" stroke="midnightblue" points="262.08,-136.3 251.62,-134.64 258.76,-142.47 262.08,-136.3"/>
</g>
<!-- Node6 -->
<g id="node8" class="node">
<title>Node6</title>
<g id="a_node8"><a xlink:href="class_tools_1_1_parsed_constants.html" target="_top" xlink:title="A wrapper for physical constants to be shared among functions and classes.">
<polygon fill="none" stroke="black" points="339.5,-137.5 339.5,-156.5 468.5,-156.5 468.5,-137.5 339.5,-137.5"/>
<text text-anchor="middle" x="404" y="-144.5" font-family="Helvetica,sans-Serif" font-size="10.00">Tools::ParsedConstants</text>
</a>
</g>
</g>
<!-- Node5&#45;&gt;Node6 -->
<g id="edge7" class="edge">
<title>Node5&#45;&gt;Node6</title>
<path fill="none" stroke="midnightblue" d="M299.03,-133.38C312.24,-135.11 326.15,-136.94 339.35,-138.67"/>
<polygon fill="midnightblue" stroke="midnightblue" points="299.45,-129.91 289.08,-132.08 298.54,-136.85 299.45,-129.91"/>
</g>
<!-- Node7 -->
<g id="node9" class="node">
<title>Node7</title>
<g id="a_node9"><a xlink:href="class_tools_1_1_parsed_finite_element.html" target="_top" xlink:title="Parsed FiniteElement.">
<polygon fill="none" stroke="black" points="330.5,-88 330.5,-118 477.5,-118 477.5,-88 330.5,-88"/>
<text text-anchor="start" x="338.5" y="-106" font-family="Helvetica,sans-Serif" font-size="10.00">Tools::ParsedFiniteElement</text>
<text text-anchor="middle" x="404" y="-95" font-family="Helvetica,sans-Serif" font-size="10.00">&lt; dim, spacedim &gt;</text>
</a>
</g>
</g>
<!-- Node5&#45;&gt;Node7 -->
<g id="edge8" class="edge">
<title>Node5&#45;&gt;Node7</title>
<path fill="none" stroke="midnightblue" d="M299.12,-116.6C309.33,-115.27 319.95,-113.88 330.33,-112.52"/>
<polygon fill="midnightblue" stroke="midnightblue" points="298.54,-113.15 289.08,-117.92 299.45,-120.09 298.54,-113.15"/>
</g>
<!-- Node8 -->
<g id="node10" class="node">
<title>Node8</title>
<g id="a_node10"><a xlink:href="class_tools_1_1_parsed_grid_generator.html" target="_top" xlink:title="ParsedGridGenerator class.">
<polygon fill="none" stroke="black" points="329.5,-39 329.5,-69 478.5,-69 478.5,-39 329.5,-39"/>
<text text-anchor="start" x="337.5" y="-57" font-family="Helvetica,sans-Serif" font-size="10.00">Tools::ParsedGridGenerator</text>
<text text-anchor="middle" x="404" y="-46" font-family="Helvetica,sans-Serif" font-size="10.00">&lt; dim, spacedim &gt;</text>
</a>
</g>
</g>
<!-- Node5&#45;&gt;Node8 -->
<g id="edge10" class="edge">
<title>Node5&#45;&gt;Node8</title>
<path fill="none" stroke="midnightblue" d="M260.25,-110.22C277.97,-100.25 302.44,-87.27 325,-78 332.73,-74.82 341.04,-71.84 349.26,-69.12"/>
<polygon fill="midnightblue" stroke="midnightblue" points="258.11,-107.42 251.16,-115.41 261.58,-113.5 258.11,-107.42"/>
</g>
<!-- Node9 -->
<g id="node11" class="node">
<title>Node9</title>
<g id="a_node11"><a xlink:href="class_tools_1_1_parsed_grid_refinement.html" target="_top" xlink:title="A wrapper for refinement strategies.">
<polygon fill="none" stroke="black" points="325,-0.5 325,-19.5 483,-19.5 483,-0.5 325,-0.5"/>
<text text-anchor="middle" x="404" y="-7.5" font-family="Helvetica,sans-Serif" font-size="10.00">Tools::ParsedGridRefinement</text>
</a>
</g>
</g>
<!-- Node5&#45;&gt;Node9 -->
<g id="edge11" class="edge">
<title>Node5&#45;&gt;Node9</title>
<path fill="none" stroke="midnightblue" d="M246.88,-106.98C262.27,-85.12 291.16,-48.75 325,-29 331.62,-25.14 339,-22.06 346.5,-19.6"/>
<polygon fill="midnightblue" stroke="midnightblue" points="243.9,-105.14 241.14,-115.37 249.68,-109.1 243.9,-105.14"/>
</g>
</g>
</svg>
