<?xml version="1.0" encoding="UTF-8" standalone="no"?>
<!DOCTYPE svg PUBLIC "-//W3C//DTD SVG 1.1//EN"
 "http://www.w3.org/Graphics/SVG/1.1/DTD/svg11.dtd">
<!-- Generated by graphviz version 2.43.0 (0)
 -->
<!-- Title: Graphical Class Hierarchy Pages: 1 -->
<svg width="995pt" height="946pt"
 viewBox="0.00 0.00 995.00 946.00" xmlns="http://www.w3.org/2000/svg" xmlns:xlink="http://www.w3.org/1999/xlink">
<g id="graph0" class="graph" transform="scale(1 1) rotate(0) translate(4 942)">
<title>Graphical Class Hierarchy</title>
<!-- Node36 -->
<g id="node1" class="node">
<title>Node36</title>
<g id="a_node1"><a xlink:href="http://www.dealii.org/developer/doxygen/deal.II/classFiniteElementData.html" xlink:title=" ">
<polygon fill="none" stroke="black" points="440.5,-858.5 440.5,-888.5 555.5,-888.5 555.5,-858.5 440.5,-858.5"/>
<text text-anchor="start" x="448.5" y="-876.5" font-family="Helvetica,sans-Serif" font-size="10.00">FiniteElementData&lt;</text>
<text text-anchor="middle" x="498" y="-865.5" font-family="Helvetica,sans-Serif" font-size="10.00"> dim &gt;</text>
</a>
</g>
</g>
<!-- Node1 -->
<g id="node2" class="node">
<title>Node1</title>
<g id="a_node2"><a xlink:href="class_parsed_tools_1_1_finite_element.html" target="_top" xlink:title=" ">
<polygon fill="none" stroke="black" points="655,-863.5 655,-893.5 802,-893.5 802,-863.5 655,-863.5"/>
<text text-anchor="start" x="663" y="-881.5" font-family="Helvetica,sans-Serif" font-size="10.00">ParsedTools::FiniteElement</text>
<text text-anchor="middle" x="728.5" y="-870.5" font-family="Helvetica,sans-Serif" font-size="10.00">&lt; dim, dim &gt;</text>
</a>
</g>
</g>
<!-- Node36&#45;&gt;Node1 -->
<g id="edge1" class="edge">
<title>Node36&#45;&gt;Node1</title>
<path fill="none" stroke="midnightblue" d="M565.82,-874.96C593.67,-875.57 626.1,-876.28 654.58,-876.9"/>
<polygon fill="midnightblue" stroke="midnightblue" points="565.85,-871.46 555.78,-874.74 565.7,-878.46 565.85,-871.46"/>
</g>
<!-- Node35 -->
<g id="node3" class="node">
<title>Node35</title>
<g id="a_node3"><a xlink:href="http://www.dealii.org/developer/doxygen/deal.II/classFunctionTime.html" xlink:title=" ">
<polygon fill="none" stroke="black" points="0,-802 0,-821 143,-821 143,-802 0,-802"/>
<text text-anchor="middle" x="71.5" y="-809" font-family="Helvetica,sans-Serif" font-size="10.00">FunctionTime&lt; Number &gt;</text>
</a>
</g>
</g>
<!-- Node2 -->
<g id="node4" class="node">
<title>Node2</title>
<g id="a_node4"><a xlink:href="http://www.dealii.org/developer/doxygen/deal.II/classFunction.html" xlink:title=" ">
<polygon fill="none" stroke="black" points="224,-802 224,-821 323,-821 323,-802 224,-802"/>
<text text-anchor="middle" x="273.5" y="-809" font-family="Helvetica,sans-Serif" font-size="10.00">Function&lt; dim &gt;</text>
</a>
</g>
</g>
<!-- Node35&#45;&gt;Node2 -->
<g id="edge2" class="edge">
<title>Node35&#45;&gt;Node2</title>
<path fill="none" stroke="midnightblue" d="M153.18,-811.5C177.16,-811.5 202.68,-811.5 223.94,-811.5"/>
<polygon fill="midnightblue" stroke="midnightblue" points="153.01,-808 143.01,-811.5 153.01,-815 153.01,-808"/>
</g>
<!-- Node3 -->
<g id="node5" class="node">
<title>Node3</title>
<g id="a_node5"><a xlink:href="http://www.dealii.org/developer/doxygen/deal.II/classAutoDerivativeFunction.html" xlink:title=" ">
<polygon fill="none" stroke="black" points="432.5,-907.5 432.5,-937.5 563.5,-937.5 563.5,-907.5 432.5,-907.5"/>
<text text-anchor="start" x="440.5" y="-925.5" font-family="Helvetica,sans-Serif" font-size="10.00">AutoDerivativeFunction</text>
<text text-anchor="middle" x="498" y="-914.5" font-family="Helvetica,sans-Serif" font-size="10.00">&lt; dim &gt;</text>
</a>
</g>
</g>
<!-- Node2&#45;&gt;Node3 -->
<g id="edge3" class="edge">
<title>Node2&#45;&gt;Node3</title>
<path fill="none" stroke="midnightblue" d="M293.88,-827.63C318.16,-847.08 361.75,-879.53 404,-898.5 412.97,-902.53 422.75,-905.98 432.49,-908.9"/>
<polygon fill="midnightblue" stroke="midnightblue" points="295.81,-824.69 285.84,-821.1 291.39,-830.12 295.81,-824.69"/>
</g>
<!-- Node4 -->
<g id="node6" class="node">
<title>Node4</title>
<g id="a_node6"><a xlink:href="http://www.dealii.org/developer/doxygen/deal.II/classFunctionParser.html" xlink:title=" ">
<polygon fill="none" stroke="black" points="663.5,-913 663.5,-932 793.5,-932 793.5,-913 663.5,-913"/>
<text text-anchor="middle" x="728.5" y="-920" font-family="Helvetica,sans-Serif" font-size="10.00">FunctionParser&lt; dim &gt;</text>
</a>
</g>
</g>
<!-- Node3&#45;&gt;Node4 -->
<g id="edge4" class="edge">
<title>Node3&#45;&gt;Node4</title>
<path fill="none" stroke="midnightblue" d="M573.65,-922.5C602.67,-922.5 635.58,-922.5 663.49,-922.5"/>
<polygon fill="midnightblue" stroke="midnightblue" points="573.56,-919 563.56,-922.5 573.56,-926 573.56,-919"/>
</g>
<!-- Node5 -->
<g id="node7" class="node">
<title>Node5</title>
<g id="a_node7"><a xlink:href="class_parsed_tools_1_1_function.html" target="_top" xlink:title="A wrapper for the FunctionParser class.">
<polygon fill="none" stroke="black" points="865,-535.5 865,-565.5 987,-565.5 987,-535.5 865,-535.5"/>
<text text-anchor="start" x="873" y="-553.5" font-family="Helvetica,sans-Serif" font-size="10.00">ParsedTools::Function</text>
<text text-anchor="middle" x="926" y="-542.5" font-family="Helvetica,sans-Serif" font-size="10.00">&lt; dim &gt;</text>
</a>
</g>
</g>
<!-- Node4&#45;&gt;Node5 -->
<g id="edge5" class="edge">
<title>Node4&#45;&gt;Node5</title>
<path fill="none" stroke="midnightblue" d="M803.25,-918.19C812.75,-914.97 821.69,-910.27 829,-903.5 880.49,-855.82 914.62,-627.39 922.99,-565.82"/>
<polygon fill="midnightblue" stroke="midnightblue" points="802.27,-914.83 793.61,-920.94 804.19,-921.56 802.27,-914.83"/>
</g>
<!-- Node0 -->
<g id="node8" class="node">
<title>Node0</title>
<g id="a_node8"><a xlink:href="http://www.dealii.org/developer/doxygen/deal.II/classSubscriptor.html" xlink:title=" ">
<polygon fill="none" stroke="black" points="36,-634 36,-653 107,-653 107,-634 36,-634"/>
<text text-anchor="middle" x="71.5" y="-641" font-family="Helvetica,sans-Serif" font-size="10.00">Subscriptor</text>
</a>
</g>
</g>
<!-- Node0&#45;&gt;Node1 -->
<g id="edge6" class="edge">
<title>Node0&#45;&gt;Node1</title>
<path fill="none" stroke="midnightblue" d="M104.2,-656.96C188.38,-692.39 425.01,-789.86 628,-853.5 639.22,-857.02 651.26,-860.38 662.97,-863.44"/>
<polygon fill="midnightblue" stroke="midnightblue" points="105.5,-653.71 94.92,-653.05 102.78,-660.16 105.5,-653.71"/>
</g>
<!-- Node0&#45;&gt;Node2 -->
<g id="edge7" class="edge">
<title>Node0&#45;&gt;Node2</title>
<path fill="none" stroke="midnightblue" d="M91.71,-659.64C132.68,-694.05 227.62,-773.8 260.8,-801.67"/>
<polygon fill="midnightblue" stroke="midnightblue" points="93.73,-656.77 83.83,-653.01 89.23,-662.13 93.73,-656.77"/>
</g>
<!-- Node6 -->
<g id="node9" class="node">
<title>Node6</title>
<g id="a_node9"><a xlink:href="http://www.dealii.org/developer/doxygen/deal.II/classParameterAcceptor.html" xlink:title=" ">
<polygon fill="none" stroke="black" points="443,-448 443,-467 553,-467 553,-448 443,-448"/>
<text text-anchor="middle" x="498" y="-455" font-family="Helvetica,sans-Serif" font-size="10.00">ParameterAcceptor</text>
</a>
</g>
</g>
<!-- Node0&#45;&gt;Node6 -->
<g id="edge8" class="edge">
<title>Node0&#45;&gt;Node6</title>
<path fill="none" stroke="midnightblue" d="M103.72,-629.82C185.61,-593.94 405.15,-497.74 475.2,-467.05"/>
<polygon fill="midnightblue" stroke="midnightblue" points="102.18,-626.67 94.43,-633.89 104.99,-633.08 102.18,-626.67"/>
</g>
<!-- Node25 -->
<g id="node28" class="node">
<title>Node25</title>
<g id="a_node28"><a xlink:href="http://www.dealii.org/developer/doxygen/deal.II/classTrilinosWrappers_1_1PreconditionBase.html" xlink:title=" ">
<polygon fill="none" stroke="black" points="179,-99 179,-118 368,-118 368,-99 179,-99"/>
<text text-anchor="middle" x="273.5" y="-106" font-family="Helvetica,sans-Serif" font-size="10.00">TrilinosWrappers::PreconditionBase</text>
</a>
</g>
</g>
<!-- Node0&#45;&gt;Node25 -->
<g id="edge29" class="edge">
<title>Node0&#45;&gt;Node25</title>
<path fill="none" stroke="midnightblue" d="M79.67,-624.31C112.22,-537.24 245.44,-180.88 268.95,-118"/>
<polygon fill="midnightblue" stroke="midnightblue" points="76.37,-623.16 76.14,-633.76 82.92,-625.62 76.37,-623.16"/>
</g>
<!-- Node6&#45;&gt;Node1 -->
<g id="edge11" class="edge">
<title>Node6&#45;&gt;Node1</title>
<path fill="none" stroke="midnightblue" d="M509.98,-475.63C529.53,-508.75 570.37,-581.76 592,-648.5 620.53,-736.5 565,-785.77 628,-853.5 635.34,-861.39 644.77,-866.95 654.89,-870.83"/>
<polygon fill="midnightblue" stroke="midnightblue" points="512.98,-473.83 504.85,-467.04 506.97,-477.42 512.98,-473.83"/>
</g>
<!-- Node6&#45;&gt;Node5 -->
<g id="edge22" class="edge">
<title>Node6&#45;&gt;Node5</title>
<path fill="none" stroke="midnightblue" d="M501.75,-437.83C510.03,-387.13 539.82,-252.19 628,-197.5 665.96,-173.96 793.51,-170.37 829,-197.5 884.88,-240.21 915.93,-473.28 923.28,-535.32"/>
<polygon fill="midnightblue" stroke="midnightblue" points="498.28,-437.4 500.23,-447.81 505.2,-438.45 498.28,-437.4"/>
</g>
<!-- Node7 -->
<g id="node10" class="node">
<title>Node7</title>
<g id="a_node10"><a xlink:href="class_parsed_tools_1_1_boundary_conditions.html" target="_top" xlink:title=" ">
<polygon fill="none" stroke="black" points="639,-393.5 639,-423.5 818,-423.5 818,-393.5 639,-393.5"/>
<text text-anchor="start" x="647" y="-411.5" font-family="Helvetica,sans-Serif" font-size="10.00">ParsedTools::BoundaryConditions</text>
<text text-anchor="middle" x="728.5" y="-400.5" font-family="Helvetica,sans-Serif" font-size="10.00">&lt; dim &gt;</text>
</a>
</g>
</g>
<!-- Node6&#45;&gt;Node7 -->
<g id="edge9" class="edge">
<title>Node6&#45;&gt;Node7</title>
<path fill="none" stroke="midnightblue" d="M553.12,-445.89C584.25,-439.22 623.71,-430.76 657.22,-423.57"/>
<polygon fill="midnightblue" stroke="midnightblue" points="552.37,-442.48 543.33,-447.99 553.84,-449.32 552.37,-442.48"/>
</g>
<!-- Node8 -->
<g id="node11" class="node">
<title>Node8</title>
<g id="a_node11"><a xlink:href="class_parsed_tools_1_1_data_out.html" target="_top" xlink:title=" ">
<polygon fill="none" stroke="black" points="668,-344.5 668,-374.5 789,-374.5 789,-344.5 668,-344.5"/>
<text text-anchor="start" x="676" y="-362.5" font-family="Helvetica,sans-Serif" font-size="10.00">ParsedTools::DataOut</text>
<text text-anchor="middle" x="728.5" y="-351.5" font-family="Helvetica,sans-Serif" font-size="10.00">&lt; dim, dim &gt;</text>
</a>
</g>
</g>
<!-- Node6&#45;&gt;Node8 -->
<g id="edge10" class="edge">
<title>Node6&#45;&gt;Node8</title>
<path fill="none" stroke="midnightblue" d="M521.01,-442.27C545.93,-425.65 588.26,-399.31 628,-383.5 640.63,-378.47 654.6,-374.31 667.97,-370.94"/>
<polygon fill="midnightblue" stroke="midnightblue" points="518.98,-439.41 512.65,-447.91 522.9,-445.21 518.98,-439.41"/>
</g>
<!-- Node9 -->
<g id="node12" class="node">
<title>Node9</title>
<g id="a_node12"><a xlink:href="class_parsed_tools_1_1_grid_generator.html" target="_top" xlink:title=" ">
<polygon fill="none" stroke="black" points="654,-295.5 654,-325.5 803,-325.5 803,-295.5 654,-295.5"/>
<text text-anchor="start" x="662" y="-313.5" font-family="Helvetica,sans-Serif" font-size="10.00">ParsedTools::GridGenerator</text>
<text text-anchor="middle" x="728.5" y="-302.5" font-family="Helvetica,sans-Serif" font-size="10.00">&lt; dim, dim &gt;</text>
</a>
</g>
</g>
<!-- Node6&#45;&gt;Node9 -->
<g id="edge12" class="edge">
<title>Node6&#45;&gt;Node9</title>
<path fill="none" stroke="midnightblue" d="M512.57,-439.54C534.03,-412.47 578.45,-361.52 628,-334.5 636.03,-330.12 644.86,-326.53 653.84,-323.59"/>
<polygon fill="midnightblue" stroke="midnightblue" points="509.58,-437.69 506.21,-447.73 515.11,-441.98 509.58,-437.69"/>
</g>
<!-- Node10 -->
<g id="node13" class="node">
<title>Node10</title>
<g id="a_node13"><a xlink:href="class_parsed_l_a_c_1_1_a_m_g_mue_lu_preconditioner.html" target="_top" xlink:title="A parsed AMG preconditioner based on MueLu which uses parameter files to choose between different opt...">
<polygon fill="none" stroke="black" points="628,-12 628,-31 829,-31 829,-12 628,-12"/>
<text text-anchor="middle" x="728.5" y="-19" font-family="Helvetica,sans-Serif" font-size="10.00">ParsedLAC::AMGMueLuPreconditioner</text>
</a>
</g>
</g>
<!-- Node6&#45;&gt;Node10 -->
<g id="edge13" class="edge">
<title>Node6&#45;&gt;Node10</title>
<path fill="none" stroke="midnightblue" d="M505.26,-438.23C520.41,-391.53 560.13,-268.55 592,-165.5 608.45,-112.3 587.56,-83.78 628,-45.5 634.58,-39.27 642.49,-34.57 650.93,-31.04"/>
<polygon fill="midnightblue" stroke="midnightblue" points="501.87,-437.35 502.11,-447.94 508.53,-439.51 501.87,-437.35"/>
</g>
<!-- Node11 -->
<g id="node14" class="node">
<title>Node11</title>
<g id="a_node14"><a xlink:href="class_parsed_l_a_c_1_1_a_m_g_preconditioner.html" target="_top" xlink:title="A parsed AMG preconditioner which uses parameter files to choose between different options.">
<polygon fill="none" stroke="black" points="644,-131 644,-150 813,-150 813,-131 644,-131"/>
<text text-anchor="middle" x="728.5" y="-138" font-family="Helvetica,sans-Serif" font-size="10.00">ParsedLAC::AMGPreconditioner</text>
</a>
</g>
</g>
<!-- Node6&#45;&gt;Node11 -->
<g id="edge14" class="edge">
<title>Node6&#45;&gt;Node11</title>
<path fill="none" stroke="midnightblue" d="M501.63,-437.74C509.78,-384.73 539.61,-238.4 628,-164.5 635.5,-158.23 644.37,-153.55 653.67,-150.06"/>
<polygon fill="midnightblue" stroke="midnightblue" points="498.14,-437.44 500.18,-447.84 505.07,-438.44 498.14,-437.44"/>
</g>
<!-- Node12 -->
<g id="node15" class="node">
<title>Node12</title>
<g id="a_node15"><a xlink:href="class_parsed_l_a_c_1_1_i_l_u_preconditioner.html" target="_top" xlink:title="A parsed ILU preconditioner which uses parameter files to choose between different options.">
<polygon fill="none" stroke="black" points="648,-93 648,-112 809,-112 809,-93 648,-93"/>
<text text-anchor="middle" x="728.5" y="-100" font-family="Helvetica,sans-Serif" font-size="10.00">ParsedLAC::ILUPreconditioner</text>
</a>
</g>
</g>
<!-- Node6&#45;&gt;Node12 -->
<g id="edge15" class="edge">
<title>Node6&#45;&gt;Node12</title>
<path fill="none" stroke="midnightblue" d="M503.78,-438.2C520.23,-373.32 576.34,-164.7 628,-121.5 633.8,-116.65 640.46,-112.89 647.53,-110"/>
<polygon fill="midnightblue" stroke="midnightblue" points="500.37,-437.41 501.33,-447.96 507.16,-439.11 500.37,-437.41"/>
</g>
<!-- Node13 -->
<g id="node16" class="node">
<title>Node13</title>
<g id="a_node16"><a xlink:href="class_parsed_l_a_c_1_1_inverse_operator.html" target="_top" xlink:title="A factory that can generate inverse operators according to parameter files.">
<polygon fill="none" stroke="black" points="651.5,-257 651.5,-276 805.5,-276 805.5,-257 651.5,-257"/>
<text text-anchor="middle" x="728.5" y="-264" font-family="Helvetica,sans-Serif" font-size="10.00">ParsedLAC::InverseOperator</text>
</a>
</g>
</g>
<!-- Node6&#45;&gt;Node13 -->
<g id="edge16" class="edge">
<title>Node6&#45;&gt;Node13</title>
<path fill="none" stroke="midnightblue" d="M507.5,-438.28C524.62,-402 566.9,-323.63 628,-285.5 635.16,-281.03 643.13,-277.57 651.36,-274.89"/>
<polygon fill="midnightblue" stroke="midnightblue" points="504.16,-437.17 503.17,-447.72 510.52,-440.09 504.16,-437.17"/>
</g>
<!-- Node14 -->
<g id="node17" class="node">
<title>Node14</title>
<g id="a_node17"><a xlink:href="class_parsed_l_a_c_1_1_jacobi_preconditioner.html" target="_top" xlink:title="A parsed Jacobi preconditioner which uses parameter files to choose between different options.">
<polygon fill="none" stroke="black" points="641,-55 641,-74 816,-74 816,-55 641,-55"/>
<text text-anchor="middle" x="728.5" y="-62" font-family="Helvetica,sans-Serif" font-size="10.00">ParsedLAC::JacobiPreconditioner</text>
</a>
</g>
</g>
<!-- Node6&#45;&gt;Node14 -->
<g id="edge17" class="edge">
<title>Node6&#45;&gt;Node14</title>
<path fill="none" stroke="midnightblue" d="M505.03,-438.3C528.58,-363.6 613.71,-95.87 628,-83.5 632.25,-79.82 637,-76.76 642.05,-74.22"/>
<polygon fill="midnightblue" stroke="midnightblue" points="501.69,-437.28 502.02,-447.87 508.36,-439.38 501.69,-437.28"/>
</g>
<!-- Node15 -->
<g id="node18" class="node">
<title>Node15</title>
<g id="a_node18"><a xlink:href="class_parsed_tools_1_1_boundary_conditions.html" target="_top" xlink:title="A wrapper for boundary conditions.">
<polygon fill="none" stroke="black" points="639,-207.5 639,-237.5 818,-237.5 818,-207.5 639,-207.5"/>
<text text-anchor="start" x="647" y="-225.5" font-family="Helvetica,sans-Serif" font-size="10.00">ParsedTools::BoundaryConditions</text>
<text text-anchor="middle" x="728.5" y="-214.5" font-family="Helvetica,sans-Serif" font-size="10.00">&lt; spacedim &gt;</text>
</a>
</g>
</g>
<!-- Node6&#45;&gt;Node15 -->
<g id="edge18" class="edge">
<title>Node6&#45;&gt;Node15</title>
<path fill="none" stroke="midnightblue" d="M505.19,-438.21C519.6,-396.53 559.45,-297.8 628,-247.5 633.31,-243.6 639.17,-240.31 645.3,-237.52"/>
<polygon fill="midnightblue" stroke="midnightblue" points="501.86,-437.13 502.01,-447.73 508.5,-439.35 501.86,-437.13"/>
</g>
<!-- Node16 -->
<g id="node19" class="node">
<title>Node16</title>
<g id="a_node19"><a xlink:href="class_parsed_tools_1_1_constants.html" target="_top" xlink:title="A wrapper for physical constants to be shared among functions and classes.">
<polygon fill="none" stroke="black" points="664,-825 664,-844 793,-844 793,-825 664,-825"/>
<text text-anchor="middle" x="728.5" y="-832" font-family="Helvetica,sans-Serif" font-size="10.00">ParsedTools::Constants</text>
</a>
</g>
</g>
<!-- Node6&#45;&gt;Node16 -->
<g id="edge19" class="edge">
<title>Node6&#45;&gt;Node16</title>
<path fill="none" stroke="midnightblue" d="M509.97,-476.15C529.2,-509.6 569.14,-582.49 592,-648.5 616.7,-719.84 574.21,-761.53 628,-814.5 637.67,-824.02 650.52,-829.62 663.77,-832.8"/>
<polygon fill="midnightblue" stroke="midnightblue" points="512.75,-473.98 504.7,-467.08 506.7,-477.49 512.75,-473.98"/>
</g>
<!-- Node17 -->
<g id="node20" class="node">
<title>Node17</title>
<g id="a_node20"><a xlink:href="class_parsed_tools_1_1_data_out.html" target="_top" xlink:title=" ">
<polygon fill="none" stroke="black" points="668,-775.5 668,-805.5 789,-805.5 789,-775.5 668,-775.5"/>
<text text-anchor="start" x="676" y="-793.5" font-family="Helvetica,sans-Serif" font-size="10.00">ParsedTools::DataOut</text>
<text text-anchor="middle" x="728.5" y="-782.5" font-family="Helvetica,sans-Serif" font-size="10.00">&lt; dim, spacedim &gt;</text>
</a>
</g>
</g>
<!-- Node6&#45;&gt;Node17 -->
<g id="edge20" class="edge">
<title>Node6&#45;&gt;Node17</title>
<path fill="none" stroke="midnightblue" d="M509.4,-476.36C527.75,-510.14 566.36,-583.52 592,-648.5 611.97,-699.11 588.54,-728.05 628,-765.5 638.85,-775.8 653.3,-782.03 667.81,-785.76"/>
<polygon fill="midnightblue" stroke="midnightblue" points="512.26,-474.29 504.39,-467.2 506.12,-477.65 512.26,-474.29"/>
</g>
<!-- Node18 -->
<g id="node21" class="node">
<title>Node18</title>
<g id="a_node21"><a xlink:href="class_parsed_tools_1_1_finite_element.html" target="_top" xlink:title="Parsed FiniteElement.">
<polygon fill="none" stroke="black" points="655,-726.5 655,-756.5 802,-756.5 802,-726.5 655,-726.5"/>
<text text-anchor="start" x="663" y="-744.5" font-family="Helvetica,sans-Serif" font-size="10.00">ParsedTools::FiniteElement</text>
<text text-anchor="middle" x="728.5" y="-733.5" font-family="Helvetica,sans-Serif" font-size="10.00">&lt; dim, spacedim &gt;</text>
</a>
</g>
</g>
<!-- Node6&#45;&gt;Node18 -->
<g id="edge21" class="edge">
<title>Node6&#45;&gt;Node18</title>
<path fill="none" stroke="midnightblue" d="M508.17,-476.45C536.79,-535.46 622.78,-712.3 628,-716.5 635.91,-722.86 645.23,-727.63 654.94,-731.2"/>
<polygon fill="midnightblue" stroke="midnightblue" points="511.18,-474.63 503.67,-467.15 504.88,-477.68 511.18,-474.63"/>
</g>
<!-- Node19 -->
<g id="node22" class="node">
<title>Node19</title>
<g id="a_node22"><a xlink:href="class_parsed_tools_1_1_grid_generator.html" target="_top" xlink:title="GridGenerator class.">
<polygon fill="none" stroke="black" points="654,-677.5 654,-707.5 803,-707.5 803,-677.5 654,-677.5"/>
<text text-anchor="start" x="662" y="-695.5" font-family="Helvetica,sans-Serif" font-size="10.00">ParsedTools::GridGenerator</text>
<text text-anchor="middle" x="728.5" y="-684.5" font-family="Helvetica,sans-Serif" font-size="10.00">&lt; dim, spacedim &gt;</text>
</a>
</g>
</g>
<!-- Node6&#45;&gt;Node19 -->
<g id="edge23" class="edge">
<title>Node6&#45;&gt;Node19</title>
<path fill="none" stroke="midnightblue" d="M505.19,-476.79C519.6,-518.47 559.45,-617.2 628,-667.5 635.75,-673.19 644.66,-677.59 653.9,-681"/>
<polygon fill="midnightblue" stroke="midnightblue" points="508.5,-475.65 502.01,-467.27 501.86,-477.87 508.5,-475.65"/>
</g>
<!-- Node20 -->
<g id="node23" class="node">
<title>Node20</title>
<g id="a_node23"><a xlink:href="class_parsed_tools_1_1_grid_refinement.html" target="_top" xlink:title="A wrapper for refinement strategies.">
<polygon fill="none" stroke="black" points="649.5,-639 649.5,-658 807.5,-658 807.5,-639 649.5,-639"/>
<text text-anchor="middle" x="728.5" y="-646" font-family="Helvetica,sans-Serif" font-size="10.00">ParsedTools::GridRefinement</text>
</a>
</g>
</g>
<!-- Node6&#45;&gt;Node20 -->
<g id="edge24" class="edge">
<title>Node6&#45;&gt;Node20</title>
<path fill="none" stroke="midnightblue" d="M507.57,-476.55C524.8,-512.54 567.26,-590.3 628,-628.5 634.86,-632.82 642.47,-636.23 650.33,-638.92"/>
<polygon fill="midnightblue" stroke="midnightblue" points="510.6,-474.79 503.21,-467.2 504.26,-477.74 510.6,-474.79"/>
</g>
<!-- Node21 -->
<g id="node24" class="node">
<title>Node21</title>
<g id="a_node24"><a xlink:href="class_parsed_tools_1_1_mapping_eulerian.html" target="_top" xlink:title="A wrapper class for MappingFEField or MappingQEulerian.">
<polygon fill="none" stroke="black" points="647.5,-589.5 647.5,-619.5 809.5,-619.5 809.5,-589.5 647.5,-589.5"/>
<text text-anchor="start" x="655.5" y="-607.5" font-family="Helvetica,sans-Serif" font-size="10.00">ParsedTools::MappingEulerian</text>
<text text-anchor="middle" x="728.5" y="-596.5" font-family="Helvetica,sans-Serif" font-size="10.00">&lt; dim, spacedim &gt;</text>
</a>
</g>
</g>
<!-- Node6&#45;&gt;Node21 -->
<g id="edge25" class="edge">
<title>Node6&#45;&gt;Node21</title>
<path fill="none" stroke="midnightblue" d="M512.64,-475.25C534.18,-502.02 578.71,-552.46 628,-579.5 635.1,-583.4 642.83,-586.7 650.72,-589.5"/>
<polygon fill="midnightblue" stroke="midnightblue" points="515.19,-472.83 506.24,-467.15 509.69,-477.17 515.19,-472.83"/>
</g>
<!-- Node22 -->
<g id="node25" class="node">
<title>Node22</title>
<g id="a_node25"><a xlink:href="class_parsed_tools_1_1_symbolic_function.html" target="_top" xlink:title="A wrapper for the Functions::SymbolicFunction class.">
<polygon fill="none" stroke="black" points="645,-540.5 645,-570.5 812,-570.5 812,-540.5 645,-540.5"/>
<text text-anchor="start" x="653" y="-558.5" font-family="Helvetica,sans-Serif" font-size="10.00">ParsedTools::SymbolicFunction</text>
<text text-anchor="middle" x="728.5" y="-547.5" font-family="Helvetica,sans-Serif" font-size="10.00">&lt; dim &gt;</text>
</a>
</g>
</g>
<!-- Node6&#45;&gt;Node22 -->
<g id="edge26" class="edge">
<title>Node6&#45;&gt;Node22</title>
<path fill="none" stroke="midnightblue" d="M521.48,-472.71C546.5,-489.04 588.63,-514.75 628,-530.5 637.34,-534.24 647.41,-537.54 657.42,-540.43"/>
<polygon fill="midnightblue" stroke="midnightblue" points="523.34,-469.74 513.06,-467.15 519.48,-475.58 523.34,-469.74"/>
</g>
<!-- Node23 -->
<g id="node26" class="node">
<title>Node23</title>
<g id="a_node26"><a xlink:href="class_p_d_es_1_1_serial_1_1_linear_elasticity.html" target="_top" xlink:title=" ">
<polygon fill="none" stroke="black" points="650.5,-491.5 650.5,-521.5 806.5,-521.5 806.5,-491.5 650.5,-491.5"/>
<text text-anchor="start" x="658.5" y="-509.5" font-family="Helvetica,sans-Serif" font-size="10.00">PDEs::Serial::LinearElasticity</text>
<text text-anchor="middle" x="728.5" y="-498.5" font-family="Helvetica,sans-Serif" font-size="10.00">&lt; dim, spacedim &gt;</text>
</a>
</g>
</g>
<!-- Node6&#45;&gt;Node23 -->
<g id="edge27" class="edge">
<title>Node6&#45;&gt;Node23</title>
<path fill="none" stroke="midnightblue" d="M553.12,-469.11C584.25,-475.78 623.71,-484.24 657.22,-491.43"/>
<polygon fill="midnightblue" stroke="midnightblue" points="553.84,-465.68 543.33,-467.01 552.37,-472.52 553.84,-465.68"/>
</g>
<!-- Node24 -->
<g id="node27" class="node">
<title>Node24</title>
<g id="a_node27"><a xlink:href="class_p_d_es_1_1_serial_1_1_poisson.html" target="_top" xlink:title=" ">
<polygon fill="none" stroke="black" points="669,-442.5 669,-472.5 788,-472.5 788,-442.5 669,-442.5"/>
<text text-anchor="start" x="677" y="-460.5" font-family="Helvetica,sans-Serif" font-size="10.00">PDEs::Serial::Poisson</text>
<text text-anchor="middle" x="728.5" y="-449.5" font-family="Helvetica,sans-Serif" font-size="10.00">&lt; dim, spacedim &gt;</text>
</a>
</g>
</g>
<!-- Node6&#45;&gt;Node24 -->
<g id="edge28" class="edge">
<title>Node6&#45;&gt;Node24</title>
<path fill="none" stroke="midnightblue" d="M563.21,-457.5C596.4,-457.5 636.6,-457.5 668.93,-457.5"/>
<polygon fill="midnightblue" stroke="midnightblue" points="563.15,-454 553.15,-457.5 563.15,-461 563.15,-454"/>
</g>
<!-- Node26 -->
<g id="node29" class="node">
<title>Node26</title>
<g id="a_node29"><a xlink:href="http://www.dealii.org/developer/doxygen/deal.II/classTrilinosWrappers_1_1PreconditionAMG.html" xlink:title=" ">
<polygon fill="none" stroke="black" points="404,-137 404,-156 592,-156 592,-137 404,-137"/>
<text text-anchor="middle" x="498" y="-144" font-family="Helvetica,sans-Serif" font-size="10.00">TrilinosWrappers::PreconditionAMG</text>
</a>
</g>
</g>
<!-- Node25&#45;&gt;Node26 -->
<g id="edge30" class="edge">
<title>Node25&#45;&gt;Node26</title>
<path fill="none" stroke="midnightblue" d="M340.52,-119.78C372.53,-125.24 410.57,-131.74 441.12,-136.96"/>
<polygon fill="midnightblue" stroke="midnightblue" points="340.81,-116.27 330.36,-118.04 339.63,-123.17 340.81,-116.27"/>
</g>
<!-- Node27 -->
<g id="node30" class="node">
<title>Node27</title>
<g id="a_node30"><a xlink:href="http://www.dealii.org/developer/doxygen/deal.II/classTrilinosWrappers_1_1PreconditionAMGMueLu.html" xlink:title=" ">
<polygon fill="none" stroke="black" points="415.5,-0.5 415.5,-30.5 580.5,-30.5 580.5,-0.5 415.5,-0.5"/>
<text text-anchor="start" x="423.5" y="-18.5" font-family="Helvetica,sans-Serif" font-size="10.00">TrilinosWrappers::Precondition</text>
<text text-anchor="middle" x="498" y="-7.5" font-family="Helvetica,sans-Serif" font-size="10.00">AMGMueLu</text>
</a>
</g>
</g>
<!-- Node25&#45;&gt;Node27 -->
<g id="edge32" class="edge">
<title>Node25&#45;&gt;Node27</title>
<path fill="none" stroke="midnightblue" d="M298.04,-93.75C323.39,-78.41 365.31,-54.56 404,-39.5 412.55,-36.17 421.71,-33.17 430.84,-30.5"/>
<polygon fill="midnightblue" stroke="midnightblue" points="296.19,-90.78 289.49,-98.99 299.84,-96.75 296.19,-90.78"/>
</g>
<!-- Node28 -->
<g id="node31" class="node">
<title>Node28</title>
<g id="a_node31"><a xlink:href="http://www.dealii.org/developer/doxygen/deal.II/classTrilinosWrappers_1_1PreconditionILU.html" xlink:title=" ">
<polygon fill="none" stroke="black" points="408,-99 408,-118 588,-118 588,-99 408,-99"/>
<text text-anchor="middle" x="498" y="-106" font-family="Helvetica,sans-Serif" font-size="10.00">TrilinosWrappers::PreconditionILU</text>
</a>
</g>
</g>
<!-- Node25&#45;&gt;Node28 -->
<g id="edge34" class="edge">
<title>Node25&#45;&gt;Node28</title>
<path fill="none" stroke="midnightblue" d="M378.37,-108.5C388.16,-108.5 398.02,-108.5 407.66,-108.5"/>
<polygon fill="midnightblue" stroke="midnightblue" points="378.22,-105 368.22,-108.5 378.22,-112 378.22,-105"/>
</g>
<!-- Node29 -->
<g id="node32" class="node">
<title>Node29</title>
<g id="a_node32"><a xlink:href="http://www.dealii.org/developer/doxygen/deal.II/classTrilinosWrappers_1_1PreconditionJacobi.html" xlink:title=" ">
<polygon fill="none" stroke="black" points="415.5,-49.5 415.5,-79.5 580.5,-79.5 580.5,-49.5 415.5,-49.5"/>
<text text-anchor="start" x="423.5" y="-67.5" font-family="Helvetica,sans-Serif" font-size="10.00">TrilinosWrappers::Precondition</text>
<text text-anchor="middle" x="498" y="-56.5" font-family="Helvetica,sans-Serif" font-size="10.00">Jacobi</text>
</a>
</g>
</g>
<!-- Node25&#45;&gt;Node29 -->
<g id="edge36" class="edge">
<title>Node25&#45;&gt;Node29</title>
<path fill="none" stroke="midnightblue" d="M332.81,-96.97C359.72,-91.65 392.01,-85.26 420.82,-79.57"/>
<polygon fill="midnightblue" stroke="midnightblue" points="331.91,-93.58 322.78,-98.95 333.27,-100.45 331.91,-93.58"/>
</g>
<!-- Node26&#45;&gt;Node11 -->
<g id="edge31" class="edge">
<title>Node26&#45;&gt;Node11</title>
<path fill="none" stroke="midnightblue" d="M602.31,-143.79C616.17,-143.42 630.24,-143.05 643.71,-142.7"/>
<polygon fill="midnightblue" stroke="midnightblue" points="602.17,-140.29 592.27,-144.05 602.36,-147.29 602.17,-140.29"/>
</g>
<!-- Node27&#45;&gt;Node10 -->
<g id="edge33" class="edge">
<title>Node27&#45;&gt;Node10</title>
<path fill="none" stroke="midnightblue" d="M590.64,-17.91C602.8,-18.23 615.32,-18.55 627.61,-18.88"/>
<polygon fill="midnightblue" stroke="midnightblue" points="590.61,-14.4 580.53,-17.64 590.43,-21.4 590.61,-14.4"/>
</g>
<!-- Node28&#45;&gt;Node12 -->
<g id="edge35" class="edge">
<title>Node28&#45;&gt;Node12</title>
<path fill="none" stroke="midnightblue" d="M598.54,-105.89C615.05,-105.45 631.97,-105.01 647.9,-104.59"/>
<polygon fill="midnightblue" stroke="midnightblue" points="598.23,-102.39 588.33,-106.15 598.41,-109.39 598.23,-102.39"/>
</g>
<!-- Node29&#45;&gt;Node14 -->
<g id="edge37" class="edge">
<title>Node29&#45;&gt;Node14</title>
<path fill="none" stroke="midnightblue" d="M590.75,-64.5C607.32,-64.5 624.56,-64.5 640.98,-64.5"/>
<polygon fill="midnightblue" stroke="midnightblue" points="590.53,-61 580.53,-64.5 590.53,-68 590.53,-61"/>
</g>
</g>
</svg>
