<?xml version="1.0" encoding="UTF-8" standalone="no"?>
<!DOCTYPE svg PUBLIC "-//W3C//DTD SVG 1.1//EN"
 "http://www.w3.org/Graphics/SVG/1.1/DTD/svg11.dtd">
<!-- Generated by graphviz version 2.43.0 (0)
 -->
<!-- Title: Graphical Class Hierarchy Pages: 1 -->
<svg width="995pt" height="1127pt"
 viewBox="0.00 0.00 995.00 1126.50" xmlns="http://www.w3.org/2000/svg" xmlns:xlink="http://www.w3.org/1999/xlink">
<g id="graph0" class="graph" transform="scale(1 1) rotate(0) translate(4 1122.5)">
<title>Graphical Class Hierarchy</title>
<!-- Node41 -->
<g id="node1" class="node">
<title>Node41</title>
<g id="a_node1"><a xlink:href="http://www.dealii.org/developer/doxygen/deal.II/classDataOutInterface.html" xlink:title=" ">
<polygon fill="none" stroke="black" points="204,-1039 204,-1069 343,-1069 343,-1039 204,-1039"/>
<text text-anchor="start" x="212" y="-1057" font-family="Helvetica,sans-Serif" font-size="10.00">DataOutInterface&lt; patch</text>
<text text-anchor="middle" x="273.5" y="-1046" font-family="Helvetica,sans-Serif" font-size="10.00">_dim, patch_spacedim &gt;</text>
</a>
</g>
</g>
<!-- Node42 -->
<g id="node2" class="node">
<title>Node42</title>
<g id="a_node2"><a xlink:href="http://www.dealii.org/developer/doxygen/deal.II/classDataOut__DoFData.html" xlink:title=" ">
<polygon fill="none" stroke="black" points="429,-1039 429,-1069 567,-1069 567,-1039 429,-1039"/>
<text text-anchor="start" x="437" y="-1057" font-family="Helvetica,sans-Serif" font-size="10.00">DataOut_DoFData&lt; dim,</text>
<text text-anchor="middle" x="498" y="-1046" font-family="Helvetica,sans-Serif" font-size="10.00"> dim, dim, dim &gt;</text>
</a>
</g>
</g>
<!-- Node41&#45;&gt;Node42 -->
<g id="edge1" class="edge">
<title>Node41&#45;&gt;Node42</title>
<path fill="none" stroke="midnightblue" d="M353.12,-1054C377.77,-1054 404.77,-1054 428.65,-1054"/>
<polygon fill="midnightblue" stroke="midnightblue" points="353.07,-1050.5 343.07,-1054 353.07,-1057.5 353.07,-1050.5"/>
</g>
<!-- Node9 -->
<g id="node3" class="node">
<title>Node9</title>
<g id="a_node3"><a xlink:href="class_parsed_tools_1_1_data_out.html" target="_top" xlink:title=" ">
<polygon fill="none" stroke="black" points="668,-1044 668,-1074 789,-1074 789,-1044 668,-1044"/>
<text text-anchor="start" x="676" y="-1062" font-family="Helvetica,sans-Serif" font-size="10.00">ParsedTools::DataOut</text>
<text text-anchor="middle" x="728.5" y="-1051" font-family="Helvetica,sans-Serif" font-size="10.00">&lt; dim &gt;</text>
</a>
</g>
</g>
<!-- Node42&#45;&gt;Node9 -->
<g id="edge2" class="edge">
<title>Node42&#45;&gt;Node9</title>
<path fill="none" stroke="midnightblue" d="M577.54,-1055.72C607.08,-1056.37 640.17,-1057.09 667.74,-1057.69"/>
<polygon fill="midnightblue" stroke="midnightblue" points="577.32,-1052.21 567.25,-1055.49 577.17,-1059.21 577.32,-1052.21"/>
</g>
<!-- Node40 -->
<g id="node4" class="node">
<title>Node40</title>
<g id="a_node4"><a xlink:href="http://www.dealii.org/developer/doxygen/deal.II/classFiniteElementData.html" xlink:title=" ">
<polygon fill="none" stroke="black" points="440.5,-951 440.5,-981 555.5,-981 555.5,-951 440.5,-951"/>
<text text-anchor="start" x="448.5" y="-969" font-family="Helvetica,sans-Serif" font-size="10.00">FiniteElementData&lt;</text>
<text text-anchor="middle" x="498" y="-958" font-family="Helvetica,sans-Serif" font-size="10.00"> dim &gt;</text>
</a>
</g>
</g>
<!-- Node1 -->
<g id="node5" class="node">
<title>Node1</title>
<g id="a_node5"><a xlink:href="class_parsed_tools_1_1_finite_element.html" target="_top" xlink:title=" ">
<polygon fill="none" stroke="black" points="655,-995 655,-1025 802,-1025 802,-995 655,-995"/>
<text text-anchor="start" x="663" y="-1013" font-family="Helvetica,sans-Serif" font-size="10.00">ParsedTools::FiniteElement</text>
<text text-anchor="middle" x="728.5" y="-1002" font-family="Helvetica,sans-Serif" font-size="10.00">&lt; dim &gt;</text>
</a>
</g>
</g>
<!-- Node40&#45;&gt;Node1 -->
<g id="edge3" class="edge">
<title>Node40&#45;&gt;Node1</title>
<path fill="none" stroke="midnightblue" d="M565.82,-978.87C593.67,-984.23 626.1,-990.48 654.58,-995.96"/>
<polygon fill="midnightblue" stroke="midnightblue" points="566.26,-975.39 555.78,-976.93 564.93,-982.26 566.26,-975.39"/>
</g>
<!-- Node2 -->
<g id="node6" class="node">
<title>Node2</title>
<g id="a_node6"><a xlink:href="class_parsed_tools_1_1_finite_element.html" target="_top" xlink:title=" ">
<polygon fill="none" stroke="black" points="655,-946 655,-976 802,-976 802,-946 655,-946"/>
<text text-anchor="start" x="663" y="-964" font-family="Helvetica,sans-Serif" font-size="10.00">ParsedTools::FiniteElement</text>
<text text-anchor="middle" x="728.5" y="-953" font-family="Helvetica,sans-Serif" font-size="10.00">&lt; dim, dim &gt;</text>
</a>
</g>
</g>
<!-- Node40&#45;&gt;Node2 -->
<g id="edge4" class="edge">
<title>Node40&#45;&gt;Node2</title>
<path fill="none" stroke="midnightblue" d="M565.82,-964.54C593.67,-963.93 626.1,-963.22 654.58,-962.6"/>
<polygon fill="midnightblue" stroke="midnightblue" points="565.7,-961.04 555.78,-964.76 565.85,-968.04 565.7,-961.04"/>
</g>
<!-- Node39 -->
<g id="node7" class="node">
<title>Node39</title>
<g id="a_node7"><a xlink:href="http://www.dealii.org/developer/doxygen/deal.II/classFunctionTime.html" xlink:title=" ">
<polygon fill="none" stroke="black" points="0,-1090.5 0,-1109.5 143,-1109.5 143,-1090.5 0,-1090.5"/>
<text text-anchor="middle" x="71.5" y="-1097.5" font-family="Helvetica,sans-Serif" font-size="10.00">FunctionTime&lt; Number &gt;</text>
</a>
</g>
</g>
<!-- Node3 -->
<g id="node8" class="node">
<title>Node3</title>
<g id="a_node8"><a xlink:href="http://www.dealii.org/developer/doxygen/deal.II/classFunction.html" xlink:title=" ">
<polygon fill="none" stroke="black" points="224,-1090.5 224,-1109.5 323,-1109.5 323,-1090.5 224,-1090.5"/>
<text text-anchor="middle" x="273.5" y="-1097.5" font-family="Helvetica,sans-Serif" font-size="10.00">Function&lt; dim &gt;</text>
</a>
</g>
</g>
<!-- Node39&#45;&gt;Node3 -->
<g id="edge5" class="edge">
<title>Node39&#45;&gt;Node3</title>
<path fill="none" stroke="midnightblue" d="M153.18,-1100C177.16,-1100 202.68,-1100 223.94,-1100"/>
<polygon fill="midnightblue" stroke="midnightblue" points="153.01,-1096.5 143.01,-1100 153.01,-1103.5 153.01,-1096.5"/>
</g>
<!-- Node4 -->
<g id="node9" class="node">
<title>Node4</title>
<g id="a_node9"><a xlink:href="http://www.dealii.org/developer/doxygen/deal.II/classAutoDerivativeFunction.html" xlink:title=" ">
<polygon fill="none" stroke="black" points="432.5,-1088 432.5,-1118 563.5,-1118 563.5,-1088 432.5,-1088"/>
<text text-anchor="start" x="440.5" y="-1106" font-family="Helvetica,sans-Serif" font-size="10.00">AutoDerivativeFunction</text>
<text text-anchor="middle" x="498" y="-1095" font-family="Helvetica,sans-Serif" font-size="10.00">&lt; dim &gt;</text>
</a>
</g>
</g>
<!-- Node3&#45;&gt;Node4 -->
<g id="edge6" class="edge">
<title>Node3&#45;&gt;Node4</title>
<path fill="none" stroke="midnightblue" d="M333.13,-1100.79C363.69,-1101.2 401.13,-1101.71 432.5,-1102.13"/>
<polygon fill="midnightblue" stroke="midnightblue" points="333.1,-1097.29 323.05,-1100.65 333.01,-1104.29 333.1,-1097.29"/>
</g>
<!-- Node5 -->
<g id="node10" class="node">
<title>Node5</title>
<g id="a_node10"><a xlink:href="http://www.dealii.org/developer/doxygen/deal.II/classFunctionParser.html" xlink:title=" ">
<polygon fill="none" stroke="black" points="663.5,-1093.5 663.5,-1112.5 793.5,-1112.5 793.5,-1093.5 663.5,-1093.5"/>
<text text-anchor="middle" x="728.5" y="-1100.5" font-family="Helvetica,sans-Serif" font-size="10.00">FunctionParser&lt; dim &gt;</text>
</a>
</g>
</g>
<!-- Node4&#45;&gt;Node5 -->
<g id="edge7" class="edge">
<title>Node4&#45;&gt;Node5</title>
<path fill="none" stroke="midnightblue" d="M573.65,-1103C602.67,-1103 635.58,-1103 663.49,-1103"/>
<polygon fill="midnightblue" stroke="midnightblue" points="573.56,-1099.5 563.56,-1103 573.56,-1106.5 573.56,-1099.5"/>
</g>
<!-- Node6 -->
<g id="node11" class="node">
<title>Node6</title>
<g id="a_node11"><a xlink:href="class_parsed_tools_1_1_function.html" target="_top" xlink:title="A wrapper for the FunctionParser class.">
<polygon fill="none" stroke="black" points="865,-902 865,-932 987,-932 987,-902 865,-902"/>
<text text-anchor="start" x="873" y="-920" font-family="Helvetica,sans-Serif" font-size="10.00">ParsedTools::Function</text>
<text text-anchor="middle" x="926" y="-909" font-family="Helvetica,sans-Serif" font-size="10.00">&lt; dim &gt;</text>
</a>
</g>
</g>
<!-- Node5&#45;&gt;Node6 -->
<g id="edge8" class="edge">
<title>Node5&#45;&gt;Node6</title>
<path fill="none" stroke="midnightblue" d="M803.24,-1096.44C812.43,-1093.51 821.29,-1089.49 829,-1084 883.34,-1045.3 911.29,-965.5 920.98,-932.16"/>
<polygon fill="midnightblue" stroke="midnightblue" points="802.28,-1093.07 793.57,-1099.11 804.14,-1099.82 802.28,-1093.07"/>
</g>
<!-- Node0 -->
<g id="node12" class="node">
<title>Node0</title>
<g id="a_node12"><a xlink:href="http://www.dealii.org/developer/doxygen/deal.II/classSubscriptor.html" xlink:title=" ">
<polygon fill="none" stroke="black" points="36,-912.5 36,-931.5 107,-931.5 107,-912.5 36,-912.5"/>
<text text-anchor="middle" x="71.5" y="-919.5" font-family="Helvetica,sans-Serif" font-size="10.00">Subscriptor</text>
</a>
</g>
</g>
<!-- Node0&#45;&gt;Node1 -->
<g id="edge9" class="edge">
<title>Node0&#45;&gt;Node1</title>
<path fill="none" stroke="midnightblue" d="M117.09,-933.46C180.41,-949.23 300.22,-977.23 404,-991 489.75,-1002.38 589.19,-1006.94 654.94,-1008.77"/>
<polygon fill="midnightblue" stroke="midnightblue" points="117.6,-929.98 107.05,-930.94 115.9,-936.77 117.6,-929.98"/>
</g>
<!-- Node0&#45;&gt;Node2 -->
<g id="edge10" class="edge">
<title>Node0&#45;&gt;Node2</title>
<path fill="none" stroke="midnightblue" d="M117.37,-922.21C207.49,-922.96 416.88,-926.39 592,-942 612.47,-943.82 634.57,-946.58 654.87,-949.44"/>
<polygon fill="midnightblue" stroke="midnightblue" points="117.26,-918.71 107.23,-922.13 117.2,-925.71 117.26,-918.71"/>
</g>
<!-- Node0&#45;&gt;Node3 -->
<g id="edge11" class="edge">
<title>Node0&#45;&gt;Node3</title>
<path fill="none" stroke="midnightblue" d="M79.88,-941.17C93.84,-974.73 127.41,-1043.87 179,-1079 192.06,-1087.9 208.31,-1093.08 223.57,-1096.09"/>
<polygon fill="midnightblue" stroke="midnightblue" points="83.02,-939.59 76.04,-931.61 76.53,-942.2 83.02,-939.59"/>
</g>
<!-- Node7 -->
<g id="node13" class="node">
<title>Node7</title>
<g id="a_node13"><a xlink:href="http://www.dealii.org/developer/doxygen/deal.II/classParameterAcceptor.html" xlink:title=" ">
<polygon fill="none" stroke="black" points="443,-530.5 443,-549.5 553,-549.5 553,-530.5 443,-530.5"/>
<text text-anchor="middle" x="498" y="-537.5" font-family="Helvetica,sans-Serif" font-size="10.00">ParameterAcceptor</text>
</a>
</g>
</g>
<!-- Node0&#45;&gt;Node7 -->
<g id="edge12" class="edge">
<title>Node0&#45;&gt;Node7</title>
<path fill="none" stroke="midnightblue" d="M90.94,-905.4C163.63,-840 429.1,-601.1 486.15,-549.76"/>
<polygon fill="midnightblue" stroke="midnightblue" points="88.51,-902.88 83.42,-912.17 93.19,-908.09 88.51,-902.88"/>
</g>
<!-- Node29 -->
<g id="node34" class="node">
<title>Node29</title>
<g id="a_node34"><a xlink:href="http://www.dealii.org/developer/doxygen/deal.II/classTrilinosWrappers_1_1PreconditionBase.html" xlink:title=" ">
<polygon fill="none" stroke="black" points="179,-82.5 179,-101.5 368,-101.5 368,-82.5 179,-82.5"/>
<text text-anchor="middle" x="273.5" y="-89.5" font-family="Helvetica,sans-Serif" font-size="10.00">TrilinosWrappers::PreconditionBase</text>
</a>
</g>
</g>
<!-- Node0&#45;&gt;Node29 -->
<g id="edge37" class="edge">
<title>Node0&#45;&gt;Node29</title>
<path fill="none" stroke="midnightblue" d="M77.23,-902.39C105.33,-785.76 249.91,-185.76 270.15,-101.77"/>
<polygon fill="midnightblue" stroke="midnightblue" points="73.76,-901.85 74.82,-912.39 80.56,-903.49 73.76,-901.85"/>
</g>
<!-- Node7&#45;&gt;Node9 -->
<g id="edge14" class="edge">
<title>Node7&#45;&gt;Node9</title>
<path fill="none" stroke="midnightblue" d="M503.47,-559.39C524.12,-648.77 610.19,-1017.51 628,-1035 638.71,-1045.52 653.2,-1051.71 667.79,-1055.28"/>
<polygon fill="midnightblue" stroke="midnightblue" points="506.84,-558.46 501.18,-549.5 500.02,-560.03 506.84,-558.46"/>
</g>
<!-- Node7&#45;&gt;Node1 -->
<g id="edge16" class="edge">
<title>Node7&#45;&gt;Node1</title>
<path fill="none" stroke="midnightblue" d="M502.02,-559.65C514.42,-637.7 563.72,-924.55 628,-986 635.58,-993.25 644.95,-998.43 654.88,-1002.11"/>
<polygon fill="midnightblue" stroke="midnightblue" points="505.47,-559.04 500.47,-549.7 498.55,-560.12 505.47,-559.04"/>
</g>
<!-- Node7&#45;&gt;Node2 -->
<g id="edge17" class="edge">
<title>Node7&#45;&gt;Node2</title>
<path fill="none" stroke="midnightblue" d="M499.08,-559.89C500.48,-624.69 514.08,-831.58 628,-937 635.63,-944.06 644.97,-949.15 654.84,-952.79"/>
<polygon fill="midnightblue" stroke="midnightblue" points="502.58,-559.45 498.94,-549.5 495.58,-559.55 502.58,-559.45"/>
</g>
<!-- Node7&#45;&gt;Node6 -->
<g id="edge29" class="edge">
<title>Node7&#45;&gt;Node6</title>
<path fill="none" stroke="midnightblue" d="M507.51,-559.2C524.65,-595.46 566.96,-673.77 628,-712 705.13,-760.3 754.89,-698.2 829,-751 883.09,-789.54 911.18,-868.82 920.94,-901.94"/>
<polygon fill="midnightblue" stroke="midnightblue" points="510.53,-557.4 503.18,-549.77 504.17,-560.32 510.53,-557.4"/>
</g>
<!-- Node8 -->
<g id="node14" class="node">
<title>Node8</title>
<g id="a_node14"><a xlink:href="class_parsed_tools_1_1_boundary_conditions.html" target="_top" xlink:title=" ">
<polygon fill="none" stroke="black" points="639,-525 639,-555 818,-555 818,-525 639,-525"/>
<text text-anchor="start" x="647" y="-543" font-family="Helvetica,sans-Serif" font-size="10.00">ParsedTools::BoundaryConditions</text>
<text text-anchor="middle" x="728.5" y="-532" font-family="Helvetica,sans-Serif" font-size="10.00">&lt; dim &gt;</text>
</a>
</g>
</g>
<!-- Node7&#45;&gt;Node8 -->
<g id="edge13" class="edge">
<title>Node7&#45;&gt;Node8</title>
<path fill="none" stroke="midnightblue" d="M563.32,-540C586.77,-540 613.71,-540 638.91,-540"/>
<polygon fill="midnightblue" stroke="midnightblue" points="563.15,-536.5 553.15,-540 563.15,-543.5 563.15,-536.5"/>
</g>
<!-- Node10 -->
<g id="node15" class="node">
<title>Node10</title>
<g id="a_node15"><a xlink:href="class_parsed_tools_1_1_data_out.html" target="_top" xlink:title=" ">
<polygon fill="none" stroke="black" points="668,-476 668,-506 789,-506 789,-476 668,-476"/>
<text text-anchor="start" x="676" y="-494" font-family="Helvetica,sans-Serif" font-size="10.00">ParsedTools::DataOut</text>
<text text-anchor="middle" x="728.5" y="-483" font-family="Helvetica,sans-Serif" font-size="10.00">&lt; dim, dim &gt;</text>
</a>
</g>
</g>
<!-- Node7&#45;&gt;Node10 -->
<g id="edge15" class="edge">
<title>Node7&#45;&gt;Node10</title>
<path fill="none" stroke="midnightblue" d="M553.21,-528.37C587.66,-520.99 632.27,-511.42 667.73,-503.82"/>
<polygon fill="midnightblue" stroke="midnightblue" points="552.37,-524.98 543.33,-530.49 553.84,-531.82 552.37,-524.98"/>
</g>
<!-- Node11 -->
<g id="node16" class="node">
<title>Node11</title>
<g id="a_node16"><a xlink:href="class_parsed_tools_1_1_grid_generator.html" target="_top" xlink:title=" ">
<polygon fill="none" stroke="black" points="654,-427 654,-457 803,-457 803,-427 654,-427"/>
<text text-anchor="start" x="662" y="-445" font-family="Helvetica,sans-Serif" font-size="10.00">ParsedTools::GridGenerator</text>
<text text-anchor="middle" x="728.5" y="-434" font-family="Helvetica,sans-Serif" font-size="10.00">&lt; dim &gt;</text>
</a>
</g>
</g>
<!-- Node7&#45;&gt;Node11 -->
<g id="edge18" class="edge">
<title>Node7&#45;&gt;Node11</title>
<path fill="none" stroke="midnightblue" d="M521.48,-524.79C546.5,-508.46 588.63,-482.75 628,-467 637.34,-463.26 647.41,-459.96 657.42,-457.07"/>
<polygon fill="midnightblue" stroke="midnightblue" points="519.48,-521.92 513.06,-530.35 523.34,-527.76 519.48,-521.92"/>
</g>
<!-- Node12 -->
<g id="node17" class="node">
<title>Node12</title>
<g id="a_node17"><a xlink:href="class_parsed_tools_1_1_grid_generator.html" target="_top" xlink:title=" ">
<polygon fill="none" stroke="black" points="654,-378 654,-408 803,-408 803,-378 654,-378"/>
<text text-anchor="start" x="662" y="-396" font-family="Helvetica,sans-Serif" font-size="10.00">ParsedTools::GridGenerator</text>
<text text-anchor="middle" x="728.5" y="-385" font-family="Helvetica,sans-Serif" font-size="10.00">&lt; dim, dim &gt;</text>
</a>
</g>
</g>
<!-- Node7&#45;&gt;Node12 -->
<g id="edge19" class="edge">
<title>Node7&#45;&gt;Node12</title>
<path fill="none" stroke="midnightblue" d="M512.64,-522.25C534.18,-495.48 578.71,-445.04 628,-418 636.04,-413.59 644.87,-409.94 653.86,-406.92"/>
<polygon fill="midnightblue" stroke="midnightblue" points="509.69,-520.33 506.24,-530.35 515.19,-524.67 509.69,-520.33"/>
</g>
<!-- Node13 -->
<g id="node18" class="node">
<title>Node13</title>
<g id="a_node18"><a xlink:href="class_parsed_l_a_c_1_1_a_m_g_mue_lu_preconditioner.html" target="_top" xlink:title="A parsed AMG preconditioner based on MueLu which uses parameter files to choose between different opt...">
<polygon fill="none" stroke="black" points="628,-114.5 628,-133.5 829,-133.5 829,-114.5 628,-114.5"/>
<text text-anchor="middle" x="728.5" y="-121.5" font-family="Helvetica,sans-Serif" font-size="10.00">ParsedLAC::AMGMueLuPreconditioner</text>
</a>
</g>
</g>
<!-- Node7&#45;&gt;Node13 -->
<g id="edge20" class="edge">
<title>Node7&#45;&gt;Node13</title>
<path fill="none" stroke="midnightblue" d="M498.93,-520.39C499.85,-455.66 512.07,-247.15 628,-144 632.74,-139.78 638.11,-136.36 643.85,-133.58"/>
<polygon fill="midnightblue" stroke="midnightblue" points="495.43,-520.41 498.87,-530.43 502.43,-520.46 495.43,-520.41"/>
</g>
<!-- Node14 -->
<g id="node19" class="node">
<title>Node14</title>
<g id="a_node19"><a xlink:href="class_parsed_l_a_c_1_1_a_m_g_preconditioner.html" target="_top" xlink:title="A parsed AMG preconditioner which uses parameter files to choose between different options.">
<polygon fill="none" stroke="black" points="644,-0.5 644,-19.5 813,-19.5 813,-0.5 644,-0.5"/>
<text text-anchor="middle" x="728.5" y="-7.5" font-family="Helvetica,sans-Serif" font-size="10.00">ParsedLAC::AMGPreconditioner</text>
</a>
</g>
</g>
<!-- Node7&#45;&gt;Node14 -->
<g id="edge21" class="edge">
<title>Node7&#45;&gt;Node14</title>
<path fill="none" stroke="midnightblue" d="M503.86,-520.46C527.07,-427.14 625.65,-31.22 628,-29 632.61,-24.66 637.88,-21.16 643.55,-18.35"/>
<polygon fill="midnightblue" stroke="midnightblue" points="500.43,-519.75 501.41,-530.29 507.22,-521.44 500.43,-519.75"/>
</g>
<!-- Node15 -->
<g id="node20" class="node">
<title>Node15</title>
<g id="a_node20"><a xlink:href="class_parsed_l_a_c_1_1_i_l_u_preconditioner.html" target="_top" xlink:title="A parsed ILU preconditioner which uses parameter files to choose between different options.">
<polygon fill="none" stroke="black" points="648,-38.5 648,-57.5 809,-57.5 809,-38.5 648,-38.5"/>
<text text-anchor="middle" x="728.5" y="-45.5" font-family="Helvetica,sans-Serif" font-size="10.00">ParsedLAC::ILUPreconditioner</text>
</a>
</g>
</g>
<!-- Node7&#45;&gt;Node15 -->
<g id="edge22" class="edge">
<title>Node7&#45;&gt;Node15</title>
<path fill="none" stroke="midnightblue" d="M503.67,-520.64C524.73,-433.73 610.49,-83.2 628,-67 633.81,-61.63 640.65,-57.55 647.98,-54.49"/>
<polygon fill="midnightblue" stroke="midnightblue" points="500.24,-519.95 501.29,-530.5 507.04,-521.6 500.24,-519.95"/>
</g>
<!-- Node16 -->
<g id="node21" class="node">
<title>Node16</title>
<g id="a_node21"><a xlink:href="class_parsed_l_a_c_1_1_inverse_operator.html" target="_top" xlink:title="A factory that can generate inverse operators according to parameter files.">
<polygon fill="none" stroke="black" points="651.5,-339.5 651.5,-358.5 805.5,-358.5 805.5,-339.5 651.5,-339.5"/>
<text text-anchor="middle" x="728.5" y="-346.5" font-family="Helvetica,sans-Serif" font-size="10.00">ParsedLAC::InverseOperator</text>
</a>
</g>
</g>
<!-- Node7&#45;&gt;Node16 -->
<g id="edge23" class="edge">
<title>Node7&#45;&gt;Node16</title>
<path fill="none" stroke="midnightblue" d="M507.57,-520.95C524.8,-484.96 567.26,-407.2 628,-369 635.16,-364.5 643.13,-360.98 651.36,-358.24"/>
<polygon fill="midnightblue" stroke="midnightblue" points="504.26,-519.76 503.21,-530.3 510.6,-522.71 504.26,-519.76"/>
</g>
<!-- Node17 -->
<g id="node22" class="node">
<title>Node17</title>
<g id="a_node22"><a xlink:href="class_parsed_l_a_c_1_1_jacobi_preconditioner.html" target="_top" xlink:title="A parsed Jacobi preconditioner which uses parameter files to choose between different options.">
<polygon fill="none" stroke="black" points="641,-76.5 641,-95.5 816,-95.5 816,-76.5 641,-76.5"/>
<text text-anchor="middle" x="728.5" y="-83.5" font-family="Helvetica,sans-Serif" font-size="10.00">ParsedLAC::JacobiPreconditioner</text>
</a>
</g>
</g>
<!-- Node7&#45;&gt;Node17 -->
<g id="edge24" class="edge">
<title>Node7&#45;&gt;Node17</title>
<path fill="none" stroke="midnightblue" d="M503.49,-520.63C522.34,-440.07 595.58,-134.34 628,-105 632.17,-101.22 636.86,-98.09 641.86,-95.51"/>
<polygon fill="midnightblue" stroke="midnightblue" points="500.06,-519.92 501.2,-530.45 506.88,-521.51 500.06,-519.92"/>
</g>
<!-- Node18 -->
<g id="node23" class="node">
<title>Node18</title>
<g id="a_node23"><a xlink:href="class_parsed_tools_1_1_boundary_conditions.html" target="_top" xlink:title="A wrapper for boundary conditions.">
<polygon fill="none" stroke="black" points="639,-290 639,-320 818,-320 818,-290 639,-290"/>
<text text-anchor="start" x="647" y="-308" font-family="Helvetica,sans-Serif" font-size="10.00">ParsedTools::BoundaryConditions</text>
<text text-anchor="middle" x="728.5" y="-297" font-family="Helvetica,sans-Serif" font-size="10.00">&lt; spacedim &gt;</text>
</a>
</g>
</g>
<!-- Node7&#45;&gt;Node18 -->
<g id="edge25" class="edge">
<title>Node7&#45;&gt;Node18</title>
<path fill="none" stroke="midnightblue" d="M505.19,-520.71C519.6,-479.03 559.45,-380.3 628,-330 633.31,-326.1 639.17,-322.81 645.3,-320.02"/>
<polygon fill="midnightblue" stroke="midnightblue" points="501.86,-519.63 502.01,-530.23 508.5,-521.85 501.86,-519.63"/>
</g>
<!-- Node19 -->
<g id="node24" class="node">
<title>Node19</title>
<g id="a_node24"><a xlink:href="class_parsed_tools_1_1_constants.html" target="_top" xlink:title="A wrapper for physical constants to be shared among functions and classes.">
<polygon fill="none" stroke="black" points="664,-251.5 664,-270.5 793,-270.5 793,-251.5 664,-251.5"/>
<text text-anchor="middle" x="728.5" y="-258.5" font-family="Helvetica,sans-Serif" font-size="10.00">ParsedTools::Constants</text>
</a>
</g>
</g>
<!-- Node7&#45;&gt;Node19 -->
<g id="edge26" class="edge">
<title>Node7&#45;&gt;Node19</title>
<path fill="none" stroke="midnightblue" d="M502.65,-520.4C512.84,-471.49 546.41,-343.48 628,-281 638.35,-273.07 651.03,-268.06 663.83,-264.93"/>
<polygon fill="midnightblue" stroke="midnightblue" points="499.19,-519.83 500.68,-530.32 506.06,-521.2 499.19,-519.83"/>
</g>
<!-- Node20 -->
<g id="node25" class="node">
<title>Node20</title>
<g id="a_node25"><a xlink:href="class_parsed_tools_1_1_data_out.html" target="_top" xlink:title=" ">
<polygon fill="none" stroke="black" points="668,-202 668,-232 789,-232 789,-202 668,-202"/>
<text text-anchor="start" x="676" y="-220" font-family="Helvetica,sans-Serif" font-size="10.00">ParsedTools::DataOut</text>
<text text-anchor="middle" x="728.5" y="-209" font-family="Helvetica,sans-Serif" font-size="10.00">&lt; dim, spacedim &gt;</text>
</a>
</g>
</g>
<!-- Node7&#45;&gt;Node20 -->
<g id="edge27" class="edge">
<title>Node7&#45;&gt;Node20</title>
<path fill="none" stroke="midnightblue" d="M501.51,-520.32C509.4,-466.85 538.74,-317.83 628,-242 639.2,-232.49 653.51,-226.51 667.77,-222.77"/>
<polygon fill="midnightblue" stroke="midnightblue" points="498,-520.09 500.1,-530.48 504.94,-521.05 498,-520.09"/>
</g>
<!-- Node21 -->
<g id="node26" class="node">
<title>Node21</title>
<g id="a_node26"><a xlink:href="class_parsed_tools_1_1_finite_element.html" target="_top" xlink:title="Parsed FiniteElement.">
<polygon fill="none" stroke="black" points="655,-153 655,-183 802,-183 802,-153 655,-153"/>
<text text-anchor="start" x="663" y="-171" font-family="Helvetica,sans-Serif" font-size="10.00">ParsedTools::FiniteElement</text>
<text text-anchor="middle" x="728.5" y="-160" font-family="Helvetica,sans-Serif" font-size="10.00">&lt; dim, spacedim &gt;</text>
</a>
</g>
</g>
<!-- Node7&#45;&gt;Node21 -->
<g id="edge28" class="edge">
<title>Node7&#45;&gt;Node21</title>
<path fill="none" stroke="midnightblue" d="M500.2,-519.94C504.87,-460.44 527.02,-283.46 628,-193 635.69,-186.11 645.01,-181.05 654.82,-177.36"/>
<polygon fill="midnightblue" stroke="midnightblue" points="496.69,-519.99 499.48,-530.21 503.67,-520.48 496.69,-519.99"/>
</g>
<!-- Node22 -->
<g id="node27" class="node">
<title>Node22</title>
<g id="a_node27"><a xlink:href="class_parsed_tools_1_1_grid_generator.html" target="_top" xlink:title="GridGenerator class.">
<polygon fill="none" stroke="black" points="654,-897 654,-927 803,-927 803,-897 654,-897"/>
<text text-anchor="start" x="662" y="-915" font-family="Helvetica,sans-Serif" font-size="10.00">ParsedTools::GridGenerator</text>
<text text-anchor="middle" x="728.5" y="-904" font-family="Helvetica,sans-Serif" font-size="10.00">&lt; dim, spacedim &gt;</text>
</a>
</g>
</g>
<!-- Node7&#45;&gt;Node22 -->
<g id="edge30" class="edge">
<title>Node7&#45;&gt;Node22</title>
<path fill="none" stroke="midnightblue" d="M500.2,-560.06C504.87,-619.56 527.02,-796.54 628,-887 635.43,-893.66 644.37,-898.6 653.8,-902.25"/>
<polygon fill="midnightblue" stroke="midnightblue" points="503.67,-559.52 499.48,-549.79 496.69,-560.01 503.67,-559.52"/>
</g>
<!-- Node23 -->
<g id="node28" class="node">
<title>Node23</title>
<g id="a_node28"><a xlink:href="class_parsed_tools_1_1_grid_refinement.html" target="_top" xlink:title="A wrapper for refinement strategies.">
<polygon fill="none" stroke="black" points="649.5,-858.5 649.5,-877.5 807.5,-877.5 807.5,-858.5 649.5,-858.5"/>
<text text-anchor="middle" x="728.5" y="-865.5" font-family="Helvetica,sans-Serif" font-size="10.00">ParsedTools::GridRefinement</text>
</a>
</g>
</g>
<!-- Node7&#45;&gt;Node23 -->
<g id="edge31" class="edge">
<title>Node7&#45;&gt;Node23</title>
<path fill="none" stroke="midnightblue" d="M500.94,-559.95C507.47,-615.44 533.83,-772.54 628,-849 634.28,-854.1 641.52,-857.98 649.16,-860.91"/>
<polygon fill="midnightblue" stroke="midnightblue" points="504.39,-559.28 499.83,-549.72 497.43,-560.04 504.39,-559.28"/>
</g>
<!-- Node24 -->
<g id="node29" class="node">
<title>Node24</title>
<g id="a_node29"><a xlink:href="class_parsed_tools_1_1_mapping_eulerian.html" target="_top" xlink:title="A wrapper class for MappingFEField or MappingQEulerian.">
<polygon fill="none" stroke="black" points="647.5,-809 647.5,-839 809.5,-839 809.5,-809 647.5,-809"/>
<text text-anchor="start" x="655.5" y="-827" font-family="Helvetica,sans-Serif" font-size="10.00">ParsedTools::MappingEulerian</text>
<text text-anchor="middle" x="728.5" y="-816" font-family="Helvetica,sans-Serif" font-size="10.00">&lt; dim, spacedim &gt;</text>
</a>
</g>
</g>
<!-- Node7&#45;&gt;Node24 -->
<g id="edge32" class="edge">
<title>Node7&#45;&gt;Node24</title>
<path fill="none" stroke="midnightblue" d="M502.77,-559.48C513.25,-608.15 547.43,-735.71 628,-800 633.83,-804.65 640.43,-808.43 647.39,-811.48"/>
<polygon fill="midnightblue" stroke="midnightblue" points="506.19,-558.71 500.74,-549.61 499.33,-560.11 506.19,-558.71"/>
</g>
<!-- Node25 -->
<g id="node30" class="node">
<title>Node25</title>
<g id="a_node30"><a xlink:href="class_parsed_tools_1_1_symbolic_function.html" target="_top" xlink:title="A wrapper for the Functions::SymbolicFunction class.">
<polygon fill="none" stroke="black" points="645,-760 645,-790 812,-790 812,-760 645,-760"/>
<text text-anchor="start" x="653" y="-778" font-family="Helvetica,sans-Serif" font-size="10.00">ParsedTools::SymbolicFunction</text>
<text text-anchor="middle" x="728.5" y="-767" font-family="Helvetica,sans-Serif" font-size="10.00">&lt; dim &gt;</text>
</a>
</g>
</g>
<!-- Node7&#45;&gt;Node25 -->
<g id="edge33" class="edge">
<title>Node7&#45;&gt;Node25</title>
<path fill="none" stroke="midnightblue" d="M505.81,-559.42C521.08,-600.12 561.98,-694.71 628,-745 636.11,-751.18 645.49,-756.09 655.17,-759.99"/>
<polygon fill="midnightblue" stroke="midnightblue" points="509.05,-558.07 502.33,-549.87 502.47,-560.47 509.05,-558.07"/>
</g>
<!-- Node26 -->
<g id="node31" class="node">
<title>Node26</title>
<g id="a_node31"><a xlink:href="class_p_d_es_1_1_serial_1_1_linear_elasticity.html" target="_top" xlink:title=" ">
<polygon fill="none" stroke="black" points="650.5,-672 650.5,-702 806.5,-702 806.5,-672 650.5,-672"/>
<text text-anchor="start" x="658.5" y="-690" font-family="Helvetica,sans-Serif" font-size="10.00">PDEs::Serial::LinearElasticity</text>
<text text-anchor="middle" x="728.5" y="-679" font-family="Helvetica,sans-Serif" font-size="10.00">&lt; dim, spacedim &gt;</text>
</a>
</g>
</g>
<!-- Node7&#45;&gt;Node26 -->
<g id="edge34" class="edge">
<title>Node7&#45;&gt;Node26</title>
<path fill="none" stroke="midnightblue" d="M512.57,-557.96C534.03,-585.03 578.45,-635.98 628,-663 635.02,-666.83 642.65,-670.05 650.45,-672.76"/>
<polygon fill="midnightblue" stroke="midnightblue" points="515.11,-555.52 506.21,-549.77 509.58,-559.81 515.11,-555.52"/>
</g>
<!-- Node27 -->
<g id="node32" class="node">
<title>Node27</title>
<g id="a_node32"><a xlink:href="class_p_d_es_1_1_serial_1_1_poisson.html" target="_top" xlink:title=" ">
<polygon fill="none" stroke="black" points="669,-623 669,-653 788,-653 788,-623 669,-623"/>
<text text-anchor="start" x="677" y="-641" font-family="Helvetica,sans-Serif" font-size="10.00">PDEs::Serial::Poisson</text>
<text text-anchor="middle" x="728.5" y="-630" font-family="Helvetica,sans-Serif" font-size="10.00">&lt; dim, spacedim &gt;</text>
</a>
</g>
</g>
<!-- Node7&#45;&gt;Node27 -->
<g id="edge35" class="edge">
<title>Node7&#45;&gt;Node27</title>
<path fill="none" stroke="midnightblue" d="M521.01,-555.23C545.93,-571.85 588.26,-598.19 628,-614 640.88,-619.12 655.15,-623.35 668.76,-626.76"/>
<polygon fill="midnightblue" stroke="midnightblue" points="522.9,-552.29 512.65,-549.59 518.98,-558.09 522.9,-552.29"/>
</g>
<!-- Node28 -->
<g id="node33" class="node">
<title>Node28</title>
<g id="a_node33"><a xlink:href="class_p_d_es_1_1_serial_1_1_stokes.html" target="_top" xlink:title=" ">
<polygon fill="none" stroke="black" points="672,-574 672,-604 785,-604 785,-574 672,-574"/>
<text text-anchor="start" x="680" y="-592" font-family="Helvetica,sans-Serif" font-size="10.00">PDEs::Serial::Stokes</text>
<text text-anchor="middle" x="728.5" y="-581" font-family="Helvetica,sans-Serif" font-size="10.00">&lt; dim &gt;</text>
</a>
</g>
</g>
<!-- Node7&#45;&gt;Node28 -->
<g id="edge36" class="edge">
<title>Node7&#45;&gt;Node28</title>
<path fill="none" stroke="midnightblue" d="M553.13,-551.61C588.97,-559.29 635.85,-569.35 671.97,-577.09"/>
<polygon fill="midnightblue" stroke="midnightblue" points="553.84,-548.18 543.33,-549.51 552.37,-555.02 553.84,-548.18"/>
</g>
<!-- Node30 -->
<g id="node35" class="node">
<title>Node30</title>
<g id="a_node35"><a xlink:href="http://www.dealii.org/developer/doxygen/deal.II/classTrilinosWrappers_1_1PreconditionAMG.html" xlink:title=" ">
<polygon fill="none" stroke="black" points="404,-0.5 404,-19.5 592,-19.5 592,-0.5 404,-0.5"/>
<text text-anchor="middle" x="498" y="-7.5" font-family="Helvetica,sans-Serif" font-size="10.00">TrilinosWrappers::PreconditionAMG</text>
</a>
</g>
</g>
<!-- Node29&#45;&gt;Node30 -->
<g id="edge38" class="edge">
<title>Node29&#45;&gt;Node30</title>
<path fill="none" stroke="midnightblue" d="M299.68,-77.39C325.2,-63.15 366.21,-41.82 404,-29 415.08,-25.24 427.17,-22.1 438.85,-19.54"/>
<polygon fill="midnightblue" stroke="midnightblue" points="297.68,-74.5 290.7,-82.46 301.12,-80.59 297.68,-74.5"/>
</g>
<!-- Node31 -->
<g id="node36" class="node">
<title>Node31</title>
<g id="a_node36"><a xlink:href="http://www.dealii.org/developer/doxygen/deal.II/classTrilinosWrappers_1_1PreconditionAMGMueLu.html" xlink:title=" ">
<polygon fill="none" stroke="black" points="415.5,-126 415.5,-156 580.5,-156 580.5,-126 415.5,-126"/>
<text text-anchor="start" x="423.5" y="-144" font-family="Helvetica,sans-Serif" font-size="10.00">TrilinosWrappers::Precondition</text>
<text text-anchor="middle" x="498" y="-133" font-family="Helvetica,sans-Serif" font-size="10.00">AMGMueLu</text>
</a>
</g>
</g>
<!-- Node29&#45;&gt;Node31 -->
<g id="edge40" class="edge">
<title>Node29&#45;&gt;Node31</title>
<path fill="none" stroke="midnightblue" d="M327.6,-103.69C357.85,-110.36 396.08,-118.77 428.56,-125.93"/>
<polygon fill="midnightblue" stroke="midnightblue" points="328.18,-100.24 317.66,-101.51 326.68,-107.07 328.18,-100.24"/>
</g>
<!-- Node32 -->
<g id="node37" class="node">
<title>Node32</title>
<g id="a_node37"><a xlink:href="http://www.dealii.org/developer/doxygen/deal.II/classTrilinosWrappers_1_1PreconditionILU.html" xlink:title=" ">
<polygon fill="none" stroke="black" points="408,-38.5 408,-57.5 588,-57.5 588,-38.5 408,-38.5"/>
<text text-anchor="middle" x="498" y="-45.5" font-family="Helvetica,sans-Serif" font-size="10.00">TrilinosWrappers::PreconditionILU</text>
</a>
</g>
</g>
<!-- Node29&#45;&gt;Node32 -->
<g id="edge42" class="edge">
<title>Node29&#45;&gt;Node32</title>
<path fill="none" stroke="midnightblue" d="M332.7,-80.49C368.83,-73.35 414.72,-64.27 448.82,-57.53"/>
<polygon fill="midnightblue" stroke="midnightblue" points="331.91,-77.08 322.78,-82.45 333.27,-83.95 331.91,-77.08"/>
</g>
<!-- Node33 -->
<g id="node38" class="node">
<title>Node33</title>
<g id="a_node38"><a xlink:href="http://www.dealii.org/developer/doxygen/deal.II/classTrilinosWrappers_1_1PreconditionJacobi.html" xlink:title=" ">
<polygon fill="none" stroke="black" points="415.5,-77 415.5,-107 580.5,-107 580.5,-77 415.5,-77"/>
<text text-anchor="start" x="423.5" y="-95" font-family="Helvetica,sans-Serif" font-size="10.00">TrilinosWrappers::Precondition</text>
<text text-anchor="middle" x="498" y="-84" font-family="Helvetica,sans-Serif" font-size="10.00">Jacobi</text>
</a>
</g>
</g>
<!-- Node29&#45;&gt;Node33 -->
<g id="edge44" class="edge">
<title>Node29&#45;&gt;Node33</title>
<path fill="none" stroke="midnightblue" d="M378.56,-92C390.92,-92 403.4,-92 415.39,-92"/>
<polygon fill="midnightblue" stroke="midnightblue" points="378.22,-88.5 368.22,-92 378.22,-95.5 378.22,-88.5"/>
</g>
<!-- Node30&#45;&gt;Node14 -->
<g id="edge39" class="edge">
<title>Node30&#45;&gt;Node14</title>
<path fill="none" stroke="midnightblue" d="M602.31,-10C616.17,-10 630.24,-10 643.71,-10"/>
<polygon fill="midnightblue" stroke="midnightblue" points="602.27,-6.5 592.27,-10 602.27,-13.5 602.27,-6.5"/>
</g>
<!-- Node31&#45;&gt;Node13 -->
<g id="edge41" class="edge">
<title>Node31&#45;&gt;Node13</title>
<path fill="none" stroke="midnightblue" d="M590.64,-134.18C602.8,-133.28 615.32,-132.35 627.61,-131.43"/>
<polygon fill="midnightblue" stroke="midnightblue" points="590.24,-130.7 580.53,-134.93 590.76,-137.68 590.24,-130.7"/>
</g>
<!-- Node32&#45;&gt;Node15 -->
<g id="edge43" class="edge">
<title>Node32&#45;&gt;Node15</title>
<path fill="none" stroke="midnightblue" d="M598.54,-48C615.05,-48 631.97,-48 647.9,-48"/>
<polygon fill="midnightblue" stroke="midnightblue" points="598.33,-44.5 588.33,-48 598.33,-51.5 598.33,-44.5"/>
</g>
<!-- Node33&#45;&gt;Node17 -->
<g id="edge45" class="edge">
<title>Node33&#45;&gt;Node17</title>
<path fill="none" stroke="midnightblue" d="M590.75,-89.59C607.32,-89.16 624.56,-88.7 640.98,-88.27"/>
<polygon fill="midnightblue" stroke="midnightblue" points="590.43,-86.1 580.53,-89.86 590.61,-93.1 590.43,-86.1"/>
</g>
</g>
</svg>
