<?xml version="1.0" encoding="UTF-8" standalone="no"?>
<!DOCTYPE svg PUBLIC "-//W3C//DTD SVG 1.1//EN"
 "http://www.w3.org/Graphics/SVG/1.1/DTD/svg11.dtd">
<!-- Generated by graphviz version 2.43.0 (0)
 -->
<!-- Title: include/parsed_lac/inverse_operator.h Pages: 1 -->
<svg width="2509pt" height="240pt"
 viewBox="0.00 0.00 2508.50 240.00" xmlns="http://www.w3.org/2000/svg" xmlns:xlink="http://www.w3.org/1999/xlink">
<g id="graph0" class="graph" transform="scale(1 1) rotate(0) translate(4 236)">
<title>include/parsed_lac/inverse_operator.h</title>
<!-- Node1 -->
<g id="node1" class="node">
<title>Node1</title>
<g id="a_node1"><a xlink:title=" ">
<polygon fill="#bfbfbf" stroke="black" points="1619,-201.5 1619,-231.5 1730,-231.5 1730,-201.5 1619,-201.5"/>
<text text-anchor="start" x="1627" y="-219.5" font-family="Helvetica,sans-Serif" font-size="10.00">include/parsed_lac</text>
<text text-anchor="middle" x="1674.5" y="-208.5" font-family="Helvetica,sans-Serif" font-size="10.00">/inverse_operator.h</text>
</a>
</g>
</g>
<!-- Node2 -->
<g id="node2" class="node">
<title>Node2</title>
<g id="a_node2"><a xlink:href="linear__problem_8h.html" target="_top" xlink:title=" ">
<polygon fill="none" stroke="black" points="863,-134.5 863,-164.5 972,-164.5 972,-134.5 863,-134.5"/>
<text text-anchor="start" x="871" y="-152.5" font-family="Helvetica,sans-Serif" font-size="10.00">include/pdes/linear</text>
<text text-anchor="middle" x="917.5" y="-141.5" font-family="Helvetica,sans-Serif" font-size="10.00">_problem.h</text>
</a>
</g>
</g>
<!-- Node1&#45;&gt;Node2 -->
<g id="edge1" class="edge">
<title>Node1&#45;&gt;Node2</title>
<path fill="none" stroke="midnightblue" d="M1608.6,-209.84C1461.43,-197.2 1108.28,-166.88 972.22,-155.2"/>
<polygon fill="midnightblue" stroke="midnightblue" points="1608.57,-213.35 1618.84,-210.72 1609.17,-206.38 1608.57,-213.35"/>
</g>
<!-- Node14 -->
<g id="node14" class="node">
<title>Node14</title>
<g id="a_node14"><a xlink:href="distributed__lagrange_8h.html" target="_top" xlink:title=" ">
<polygon fill="none" stroke="black" points="1121,-67.5 1121,-97.5 1250,-97.5 1250,-67.5 1121,-67.5"/>
<text text-anchor="start" x="1129" y="-85.5" font-family="Helvetica,sans-Serif" font-size="10.00">include/pdes/serial</text>
<text text-anchor="middle" x="1185.5" y="-74.5" font-family="Helvetica,sans-Serif" font-size="10.00">/distributed_lagrange.h</text>
</a>
</g>
</g>
<!-- Node1&#45;&gt;Node14 -->
<g id="edge20" class="edge">
<title>Node1&#45;&gt;Node14</title>
<path fill="none" stroke="midnightblue" d="M1608.79,-202.18C1563.74,-192.69 1502.73,-179.17 1449.5,-165 1370.23,-143.9 1279.07,-114.63 1227.27,-97.51"/>
<polygon fill="midnightblue" stroke="midnightblue" points="1608.22,-205.63 1618.72,-204.26 1609.65,-198.78 1608.22,-205.63"/>
</g>
<!-- Node17 -->
<g id="node17" class="node">
<title>Node17</title>
<g id="a_node17"><a xlink:href="stokes_8h.html" target="_top" xlink:title=" ">
<polygon fill="none" stroke="black" points="1268.5,-73 1268.5,-92 1390.5,-92 1390.5,-73 1268.5,-73"/>
<text text-anchor="middle" x="1329.5" y="-80" font-family="Helvetica,sans-Serif" font-size="10.00">include/pdes/stokes.h</text>
</a>
</g>
</g>
<!-- Node1&#45;&gt;Node17 -->
<g id="edge33" class="edge">
<title>Node1&#45;&gt;Node17</title>
<path fill="none" stroke="midnightblue" d="M1623.28,-198.02C1595.93,-188.54 1561.77,-176.44 1531.5,-165 1464.47,-139.66 1385.99,-107.18 1349.74,-92.01"/>
<polygon fill="midnightblue" stroke="midnightblue" points="1622.43,-201.43 1633.02,-201.39 1624.72,-194.82 1622.43,-201.43"/>
</g>
<!-- Node21 -->
<g id="node21" class="node">
<title>Node21</title>
<g id="a_node21"><a xlink:href="serial_2poisson_8h.html" target="_top" xlink:title=" ">
<polygon fill="none" stroke="black" points="1540.5,-134.5 1540.5,-164.5 1648.5,-164.5 1648.5,-134.5 1540.5,-134.5"/>
<text text-anchor="start" x="1548.5" y="-152.5" font-family="Helvetica,sans-Serif" font-size="10.00">include/pdes/serial</text>
<text text-anchor="middle" x="1594.5" y="-141.5" font-family="Helvetica,sans-Serif" font-size="10.00">/poisson.h</text>
</a>
</g>
</g>
<!-- Node1&#45;&gt;Node21 -->
<g id="edge21" class="edge">
<title>Node1&#45;&gt;Node21</title>
<path fill="none" stroke="midnightblue" d="M1649.13,-194.88C1636.97,-185.01 1622.72,-173.43 1611.82,-164.58"/>
<polygon fill="midnightblue" stroke="midnightblue" points="1647.17,-197.81 1657.14,-201.4 1651.59,-192.37 1647.17,-197.81"/>
</g>
<!-- Node24 -->
<g id="node24" class="node">
<title>Node24</title>
<g id="a_node24"><a xlink:href="poisson__nitsche__interface_8h.html" target="_top" xlink:title=" ">
<polygon fill="none" stroke="black" points="1677,-134.5 1677,-164.5 1832,-164.5 1832,-134.5 1677,-134.5"/>
<text text-anchor="start" x="1685" y="-152.5" font-family="Helvetica,sans-Serif" font-size="10.00">include/pdes/serial</text>
<text text-anchor="middle" x="1754.5" y="-141.5" font-family="Helvetica,sans-Serif" font-size="10.00">/poisson_nitsche_interface.h</text>
</a>
</g>
</g>
<!-- Node1&#45;&gt;Node24 -->
<g id="edge24" class="edge">
<title>Node1&#45;&gt;Node24</title>
<path fill="none" stroke="midnightblue" d="M1699.87,-194.88C1712.03,-185.01 1726.28,-173.43 1737.18,-164.58"/>
<polygon fill="midnightblue" stroke="midnightblue" points="1697.41,-192.37 1691.86,-201.4 1701.83,-197.81 1697.41,-192.37"/>
</g>
<!-- Node27 -->
<g id="node27" class="node">
<title>Node27</title>
<g id="a_node27"><a xlink:href="reduced__lagrange_8h.html" target="_top" xlink:title=" ">
<polygon fill="none" stroke="black" points="1992.5,-134.5 1992.5,-164.5 2108.5,-164.5 2108.5,-134.5 1992.5,-134.5"/>
<text text-anchor="start" x="2000.5" y="-152.5" font-family="Helvetica,sans-Serif" font-size="10.00">include/pdes/serial</text>
<text text-anchor="middle" x="2050.5" y="-141.5" font-family="Helvetica,sans-Serif" font-size="10.00">/reduced_lagrange.h</text>
</a>
</g>
</g>
<!-- Node1&#45;&gt;Node27 -->
<g id="edge27" class="edge">
<title>Node1&#45;&gt;Node27</title>
<path fill="none" stroke="midnightblue" d="M1740.6,-204.07C1811.93,-191.74 1924.42,-172.3 1992.45,-160.53"/>
<polygon fill="midnightblue" stroke="midnightblue" points="1739.64,-200.69 1730.38,-205.84 1740.84,-207.58 1739.64,-200.69"/>
</g>
<!-- Node30 -->
<g id="node30" class="node">
<title>Node30</title>
<g id="a_node30"><a xlink:href="serial_2stokes_8h.html" target="_top" xlink:title=" ">
<polygon fill="none" stroke="black" points="2191.5,-134.5 2191.5,-164.5 2299.5,-164.5 2299.5,-134.5 2191.5,-134.5"/>
<text text-anchor="start" x="2199.5" y="-152.5" font-family="Helvetica,sans-Serif" font-size="10.00">include/pdes/serial</text>
<text text-anchor="middle" x="2245.5" y="-141.5" font-family="Helvetica,sans-Serif" font-size="10.00">/stokes.h</text>
</a>
</g>
</g>
<!-- Node1&#45;&gt;Node30 -->
<g id="edge30" class="edge">
<title>Node1&#45;&gt;Node30</title>
<path fill="none" stroke="midnightblue" d="M1740,-208.04C1853.72,-195.1 2085.63,-168.7 2191.1,-156.69"/>
<polygon fill="midnightblue" stroke="midnightblue" points="1739.57,-204.57 1730.03,-209.18 1740.36,-211.53 1739.57,-204.57"/>
</g>
<!-- Node33 -->
<g id="node33" class="node">
<title>Node33</title>
<g id="a_node33"><a xlink:href="inverse__operator_8cc.html" target="_top" xlink:title=" ">
<polygon fill="none" stroke="black" points="2318,-134.5 2318,-164.5 2461,-164.5 2461,-134.5 2318,-134.5"/>
<text text-anchor="start" x="2326" y="-152.5" font-family="Helvetica,sans-Serif" font-size="10.00">source/parsed_lac/inverse</text>
<text text-anchor="middle" x="2389.5" y="-141.5" font-family="Helvetica,sans-Serif" font-size="10.00">_operator.cc</text>
</a>
</g>
</g>
<!-- Node1&#45;&gt;Node33 -->
<g id="edge34" class="edge">
<title>Node1&#45;&gt;Node33</title>
<path fill="none" stroke="midnightblue" d="M1740.33,-212.38C1855.75,-206.43 2102.01,-191.64 2308.5,-165 2311.48,-164.62 2314.51,-164.2 2317.57,-163.75"/>
<polygon fill="midnightblue" stroke="midnightblue" points="1740.05,-208.89 1730.24,-212.89 1740.4,-215.88 1740.05,-208.89"/>
</g>
<!-- Node3 -->
<g id="node3" class="node">
<title>Node3</title>
<g id="a_node3"><a xlink:href="linear__elasticity_8h.html" target="_top" xlink:title=" ">
<polygon fill="none" stroke="black" points="595,-67.5 595,-97.5 704,-97.5 704,-67.5 595,-67.5"/>
<text text-anchor="start" x="603" y="-85.5" font-family="Helvetica,sans-Serif" font-size="10.00">include/pdes/linear</text>
<text text-anchor="middle" x="649.5" y="-74.5" font-family="Helvetica,sans-Serif" font-size="10.00">_elasticity.h</text>
</a>
</g>
</g>
<!-- Node2&#45;&gt;Node3 -->
<g id="edge2" class="edge">
<title>Node2&#45;&gt;Node3</title>
<path fill="none" stroke="midnightblue" d="M853.2,-132.9C807.8,-121.89 747.6,-107.29 704.44,-96.82"/>
<polygon fill="midnightblue" stroke="midnightblue" points="852.4,-136.31 862.94,-135.27 854.05,-129.51 852.4,-136.31"/>
</g>
<!-- Node7 -->
<g id="node7" class="node">
<title>Node7</title>
<g id="a_node7"><a xlink:href="linear__visco__elasticity_8h.html" target="_top" xlink:title=" ">
<polygon fill="none" stroke="black" points="863,-67.5 863,-97.5 972,-97.5 972,-67.5 863,-67.5"/>
<text text-anchor="start" x="871" y="-85.5" font-family="Helvetica,sans-Serif" font-size="10.00">include/pdes/linear</text>
<text text-anchor="middle" x="917.5" y="-74.5" font-family="Helvetica,sans-Serif" font-size="10.00">_visco_elasticity.h</text>
</a>
</g>
</g>
<!-- Node2&#45;&gt;Node7 -->
<g id="edge6" class="edge">
<title>Node2&#45;&gt;Node7</title>
<path fill="none" stroke="midnightblue" d="M917.5,-124.11C917.5,-115.15 917.5,-105.32 917.5,-97.58"/>
<polygon fill="midnightblue" stroke="midnightblue" points="914,-124.4 917.5,-134.4 921,-124.4 914,-124.4"/>
</g>
<!-- Node11 -->
<g id="node11" class="node">
<title>Node11</title>
<g id="a_node11"><a xlink:href="mpi_2poisson_8h.html" target="_top" xlink:title=" ">
<polygon fill="none" stroke="black" points="153,-73 153,-92 302,-92 302,-73 153,-73"/>
<text text-anchor="middle" x="227.5" y="-80" font-family="Helvetica,sans-Serif" font-size="10.00">include/pdes/mpi/poisson.h</text>
</a>
</g>
</g>
<!-- Node2&#45;&gt;Node11 -->
<g id="edge10" class="edge">
<title>Node2&#45;&gt;Node11</title>
<path fill="none" stroke="midnightblue" d="M852.7,-142.4C724.3,-130.3 438.23,-103.35 302.17,-90.53"/>
<polygon fill="midnightblue" stroke="midnightblue" points="852.5,-145.89 862.78,-143.35 853.15,-138.92 852.5,-145.89"/>
</g>
<!-- Node2&#45;&gt;Node14 -->
<g id="edge13" class="edge">
<title>Node2&#45;&gt;Node14</title>
<path fill="none" stroke="midnightblue" d="M981.88,-132.89C1026.31,-122.11 1084.86,-107.91 1127.78,-97.5"/>
<polygon fill="midnightblue" stroke="midnightblue" points="980.95,-129.51 972.06,-135.27 982.6,-136.31 980.95,-129.51"/>
</g>
<!-- Node2&#45;&gt;Node17 -->
<g id="edge16" class="edge">
<title>Node2&#45;&gt;Node17</title>
<path fill="none" stroke="midnightblue" d="M982.52,-139.94C1051.26,-130.65 1162.77,-114.85 1258.5,-98 1268.66,-96.21 1279.6,-94.08 1289.77,-92.01"/>
<polygon fill="midnightblue" stroke="midnightblue" points="981.72,-136.52 972.28,-141.32 982.66,-143.46 981.72,-136.52"/>
</g>
<!-- Node20 -->
<g id="node20" class="node">
<title>Node20</title>
<g id="a_node20"><a xlink:href="linear__problem_8cc.html" target="_top" xlink:title=" ">
<polygon fill="none" stroke="black" points="470.5,-67.5 470.5,-97.5 576.5,-97.5 576.5,-67.5 470.5,-67.5"/>
<text text-anchor="start" x="478.5" y="-85.5" font-family="Helvetica,sans-Serif" font-size="10.00">source/pdes/linear</text>
<text text-anchor="middle" x="523.5" y="-74.5" font-family="Helvetica,sans-Serif" font-size="10.00">_problem.cc</text>
</a>
</g>
</g>
<!-- Node2&#45;&gt;Node20 -->
<g id="edge19" class="edge">
<title>Node2&#45;&gt;Node20</title>
<path fill="none" stroke="midnightblue" d="M852.93,-140.21C785.84,-131.24 677.93,-115.81 585.5,-98 582.57,-97.44 579.57,-96.83 576.54,-96.19"/>
<polygon fill="midnightblue" stroke="midnightblue" points="852.56,-143.69 862.93,-141.54 853.48,-136.75 852.56,-143.69"/>
</g>
<!-- Node4 -->
<g id="node4" class="node">
<title>Node4</title>
<g id="a_node4"><a xlink:href="source_2pdes_2linear__elasticity_8cc.html" target="_top" xlink:title=" ">
<polygon fill="none" stroke="black" points="596.5,-0.5 596.5,-30.5 702.5,-30.5 702.5,-0.5 596.5,-0.5"/>
<text text-anchor="start" x="604.5" y="-18.5" font-family="Helvetica,sans-Serif" font-size="10.00">source/pdes/linear</text>
<text text-anchor="middle" x="649.5" y="-7.5" font-family="Helvetica,sans-Serif" font-size="10.00">_elasticity.cc</text>
</a>
</g>
</g>
<!-- Node3&#45;&gt;Node4 -->
<g id="edge3" class="edge">
<title>Node3&#45;&gt;Node4</title>
<path fill="none" stroke="midnightblue" d="M649.5,-57.11C649.5,-48.15 649.5,-38.32 649.5,-30.58"/>
<polygon fill="midnightblue" stroke="midnightblue" points="646,-57.4 649.5,-67.4 653,-57.4 646,-57.4"/>
</g>
<!-- Node5 -->
<g id="node5" class="node">
<title>Node5</title>
<g id="a_node5"><a xlink:href="apps_2mpi_2linear__elasticity_8cc.html" target="_top" xlink:title=" ">
<polygon fill="none" stroke="black" points="304,-6 304,-25 459,-25 459,-6 304,-6"/>
<text text-anchor="middle" x="381.5" y="-13" font-family="Helvetica,sans-Serif" font-size="10.00">apps/mpi/linear_elasticity.cc</text>
</a>
</g>
</g>
<!-- Node3&#45;&gt;Node5 -->
<g id="edge4" class="edge">
<title>Node3&#45;&gt;Node5</title>
<path fill="none" stroke="midnightblue" d="M584.99,-65.85C532.19,-53.05 459.47,-35.41 416.78,-25.06"/>
<polygon fill="midnightblue" stroke="midnightblue" points="584.4,-69.31 594.94,-68.27 586.05,-62.51 584.4,-69.31"/>
</g>
<!-- Node6 -->
<g id="node6" class="node">
<title>Node6</title>
<g id="a_node6"><a xlink:href="apps_2serial_2linear__elasticity_8cc.html" target="_top" xlink:title=" ">
<polygon fill="none" stroke="black" points="477,-0.5 477,-30.5 578,-30.5 578,-0.5 477,-0.5"/>
<text text-anchor="start" x="485" y="-18.5" font-family="Helvetica,sans-Serif" font-size="10.00">apps/serial/linear</text>
<text text-anchor="middle" x="527.5" y="-7.5" font-family="Helvetica,sans-Serif" font-size="10.00">_elasticity.cc</text>
</a>
</g>
</g>
<!-- Node3&#45;&gt;Node6 -->
<g id="edge5" class="edge">
<title>Node3&#45;&gt;Node6</title>
<path fill="none" stroke="midnightblue" d="M613.98,-62.57C594.79,-52.35 571.5,-39.94 553.92,-30.58"/>
<polygon fill="midnightblue" stroke="midnightblue" points="612.56,-65.78 623.03,-67.4 615.85,-59.6 612.56,-65.78"/>
</g>
<!-- Node8 -->
<g id="node8" class="node">
<title>Node8</title>
<g id="a_node8"><a xlink:href="source_2pdes_2linear__visco__elasticity_8cc.html" target="_top" xlink:title=" ">
<polygon fill="none" stroke="black" points="990.5,-0.5 990.5,-30.5 1100.5,-30.5 1100.5,-0.5 990.5,-0.5"/>
<text text-anchor="start" x="998.5" y="-18.5" font-family="Helvetica,sans-Serif" font-size="10.00">source/pdes/linear</text>
<text text-anchor="middle" x="1045.5" y="-7.5" font-family="Helvetica,sans-Serif" font-size="10.00">_visco_elasticity.cc</text>
</a>
</g>
</g>
<!-- Node7&#45;&gt;Node8 -->
<g id="edge7" class="edge">
<title>Node7&#45;&gt;Node8</title>
<path fill="none" stroke="midnightblue" d="M954.22,-62.85C974.46,-52.58 999.17,-40.03 1017.78,-30.58"/>
<polygon fill="midnightblue" stroke="midnightblue" points="952.61,-59.75 945.27,-67.4 955.78,-65.99 952.61,-59.75"/>
</g>
<!-- Node9 -->
<g id="node9" class="node">
<title>Node9</title>
<g id="a_node9"><a xlink:href="apps_2mpi_2linear__visco__elasticity_8cc.html" target="_top" xlink:title=" ">
<polygon fill="none" stroke="black" points="721,-0.5 721,-30.5 844,-30.5 844,-0.5 721,-0.5"/>
<text text-anchor="start" x="729" y="-18.5" font-family="Helvetica,sans-Serif" font-size="10.00">apps/mpi/linear_visco</text>
<text text-anchor="middle" x="782.5" y="-7.5" font-family="Helvetica,sans-Serif" font-size="10.00">_elasticity.cc</text>
</a>
</g>
</g>
<!-- Node7&#45;&gt;Node9 -->
<g id="edge8" class="edge">
<title>Node7&#45;&gt;Node9</title>
<path fill="none" stroke="midnightblue" d="M879.06,-62.99C857.66,-52.69 831.45,-40.07 811.74,-30.58"/>
<polygon fill="midnightblue" stroke="midnightblue" points="877.68,-66.21 888.21,-67.4 880.72,-59.9 877.68,-66.21"/>
</g>
<!-- Node10 -->
<g id="node10" class="node">
<title>Node10</title>
<g id="a_node10"><a xlink:href="apps_2serial_2linear__visco__elasticity_8cc.html" target="_top" xlink:title=" ">
<polygon fill="none" stroke="black" points="862.5,-0.5 862.5,-30.5 972.5,-30.5 972.5,-0.5 862.5,-0.5"/>
<text text-anchor="start" x="870.5" y="-18.5" font-family="Helvetica,sans-Serif" font-size="10.00">apps/serial/linear</text>
<text text-anchor="middle" x="917.5" y="-7.5" font-family="Helvetica,sans-Serif" font-size="10.00">_visco_elasticity.cc</text>
</a>
</g>
</g>
<!-- Node7&#45;&gt;Node10 -->
<g id="edge9" class="edge">
<title>Node7&#45;&gt;Node10</title>
<path fill="none" stroke="midnightblue" d="M917.5,-57.11C917.5,-48.15 917.5,-38.32 917.5,-30.58"/>
<polygon fill="midnightblue" stroke="midnightblue" points="914,-57.4 917.5,-67.4 921,-57.4 914,-57.4"/>
</g>
<!-- Node12 -->
<g id="node12" class="node">
<title>Node12</title>
<g id="a_node12"><a xlink:href="source_2pdes_2mpi_2poisson_8cc.html" target="_top" xlink:title=" ">
<polygon fill="none" stroke="black" points="0,-6 0,-25 151,-25 151,-6 0,-6"/>
<text text-anchor="middle" x="75.5" y="-13" font-family="Helvetica,sans-Serif" font-size="10.00">source/pdes/mpi/poisson.cc</text>
</a>
</g>
</g>
<!-- Node11&#45;&gt;Node12 -->
<g id="edge11" class="edge">
<title>Node11&#45;&gt;Node12</title>
<path fill="none" stroke="midnightblue" d="M197.76,-68.78C167.66,-55.91 121.93,-36.35 95.77,-25.17"/>
<polygon fill="midnightblue" stroke="midnightblue" points="196.74,-72.15 207.32,-72.87 199.5,-65.72 196.74,-72.15"/>
</g>
<!-- Node13 -->
<g id="node13" class="node">
<title>Node13</title>
<g id="a_node13"><a xlink:href="apps_2mpi_2poisson_8cc.html" target="_top" xlink:title=" ">
<polygon fill="none" stroke="black" points="169.5,-6 169.5,-25 285.5,-25 285.5,-6 169.5,-6"/>
<text text-anchor="middle" x="227.5" y="-13" font-family="Helvetica,sans-Serif" font-size="10.00">apps/mpi/poisson.cc</text>
</a>
</g>
</g>
<!-- Node11&#45;&gt;Node13 -->
<g id="edge12" class="edge">
<title>Node11&#45;&gt;Node13</title>
<path fill="none" stroke="midnightblue" d="M227.5,-62.54C227.5,-50.17 227.5,-34.62 227.5,-25.13"/>
<polygon fill="midnightblue" stroke="midnightblue" points="224,-62.73 227.5,-72.73 231,-62.73 224,-62.73"/>
</g>
<!-- Node15 -->
<g id="node15" class="node">
<title>Node15</title>
<g id="a_node15"><a xlink:href="source_2pdes_2serial_2distributed__lagrange_8cc.html" target="_top" xlink:title=" ">
<polygon fill="none" stroke="black" points="1118.5,-0.5 1118.5,-30.5 1252.5,-30.5 1252.5,-0.5 1118.5,-0.5"/>
<text text-anchor="start" x="1126.5" y="-18.5" font-family="Helvetica,sans-Serif" font-size="10.00">source/pdes/serial</text>
<text text-anchor="middle" x="1185.5" y="-7.5" font-family="Helvetica,sans-Serif" font-size="10.00">/distributed_lagrange.cc</text>
</a>
</g>
</g>
<!-- Node14&#45;&gt;Node15 -->
<g id="edge14" class="edge">
<title>Node14&#45;&gt;Node15</title>
<path fill="none" stroke="midnightblue" d="M1185.5,-57.11C1185.5,-48.15 1185.5,-38.32 1185.5,-30.58"/>
<polygon fill="midnightblue" stroke="midnightblue" points="1182,-57.4 1185.5,-67.4 1189,-57.4 1182,-57.4"/>
</g>
<!-- Node16 -->
<g id="node16" class="node">
<title>Node16</title>
<g id="a_node16"><a xlink:href="apps_2serial_2distributed__lagrange_8cc.html" target="_top" xlink:title=" ">
<polygon fill="none" stroke="black" points="1271,-0.5 1271,-30.5 1396,-30.5 1396,-0.5 1271,-0.5"/>
<text text-anchor="start" x="1279" y="-18.5" font-family="Helvetica,sans-Serif" font-size="10.00">apps/serial/distributed</text>
<text text-anchor="middle" x="1333.5" y="-7.5" font-family="Helvetica,sans-Serif" font-size="10.00">_lagrange.cc</text>
</a>
</g>
</g>
<!-- Node14&#45;&gt;Node16 -->
<g id="edge15" class="edge">
<title>Node14&#45;&gt;Node16</title>
<path fill="none" stroke="midnightblue" d="M1227.01,-63.27C1250.58,-52.92 1279.64,-40.15 1301.45,-30.58"/>
<polygon fill="midnightblue" stroke="midnightblue" points="1225.36,-60.17 1217.61,-67.4 1228.18,-66.58 1225.36,-60.17"/>
</g>
<!-- Node18 -->
<g id="node18" class="node">
<title>Node18</title>
<g id="a_node18"><a xlink:href="source_2pdes_2stokes_8cc.html" target="_top" xlink:title=" ">
<polygon fill="none" stroke="black" points="1414,-6 1414,-25 1537,-25 1537,-6 1414,-6"/>
<text text-anchor="middle" x="1475.5" y="-13" font-family="Helvetica,sans-Serif" font-size="10.00">source/pdes/stokes.cc</text>
</a>
</g>
</g>
<!-- Node17&#45;&gt;Node18 -->
<g id="edge17" class="edge">
<title>Node17&#45;&gt;Node18</title>
<path fill="none" stroke="midnightblue" d="M1358.07,-68.78C1386.98,-55.91 1430.9,-36.35 1456.03,-25.17"/>
<polygon fill="midnightblue" stroke="midnightblue" points="1356.6,-65.6 1348.89,-72.87 1359.45,-72 1356.6,-65.6"/>
</g>
<!-- Node19 -->
<g id="node19" class="node">
<title>Node19</title>
<g id="a_node19"><a xlink:href="apps_2mpi_2stokes_8cc.html" target="_top" xlink:title=" ">
<polygon fill="none" stroke="black" points="1555.5,-6 1555.5,-25 1665.5,-25 1665.5,-6 1555.5,-6"/>
<text text-anchor="middle" x="1610.5" y="-13" font-family="Helvetica,sans-Serif" font-size="10.00">apps/mpi/stokes.cc</text>
</a>
</g>
</g>
<!-- Node17&#45;&gt;Node19 -->
<g id="edge18" class="edge">
<title>Node17&#45;&gt;Node19</title>
<path fill="none" stroke="midnightblue" d="M1376.43,-70.64C1431.8,-57.84 1522.7,-36.81 1573.39,-25.08"/>
<polygon fill="midnightblue" stroke="midnightblue" points="1375.48,-67.27 1366.52,-72.94 1377.06,-74.09 1375.48,-67.27"/>
</g>
<!-- Node22 -->
<g id="node22" class="node">
<title>Node22</title>
<g id="a_node22"><a xlink:href="source_2pdes_2serial_2poisson_8cc.html" target="_top" xlink:title=" ">
<polygon fill="none" stroke="black" points="1409,-67.5 1409,-97.5 1514,-97.5 1514,-67.5 1409,-67.5"/>
<text text-anchor="start" x="1417" y="-85.5" font-family="Helvetica,sans-Serif" font-size="10.00">source/pdes/serial</text>
<text text-anchor="middle" x="1461.5" y="-74.5" font-family="Helvetica,sans-Serif" font-size="10.00">/poisson.cc</text>
</a>
</g>
</g>
<!-- Node21&#45;&gt;Node22 -->
<g id="edge22" class="edge">
<title>Node21&#45;&gt;Node22</title>
<path fill="none" stroke="midnightblue" d="M1556.63,-129.99C1535.55,-119.69 1509.72,-107.07 1490.3,-97.58"/>
<polygon fill="midnightblue" stroke="midnightblue" points="1555.12,-133.15 1565.64,-134.4 1558.19,-126.86 1555.12,-133.15"/>
</g>
<!-- Node23 -->
<g id="node23" class="node">
<title>Node23</title>
<g id="a_node23"><a xlink:href="apps_2serial_2poisson_8cc.html" target="_top" xlink:title=" ">
<polygon fill="none" stroke="black" points="1532.5,-73 1532.5,-92 1656.5,-92 1656.5,-73 1532.5,-73"/>
<text text-anchor="middle" x="1594.5" y="-80" font-family="Helvetica,sans-Serif" font-size="10.00">apps/serial/poisson.cc</text>
</a>
</g>
</g>
<!-- Node21&#45;&gt;Node23 -->
<g id="edge23" class="edge">
<title>Node21&#45;&gt;Node23</title>
<path fill="none" stroke="midnightblue" d="M1594.5,-124.25C1594.5,-113.02 1594.5,-100.38 1594.5,-92.19"/>
<polygon fill="midnightblue" stroke="midnightblue" points="1591,-124.4 1594.5,-134.4 1598,-124.4 1591,-124.4"/>
</g>
<!-- Node25 -->
<g id="node25" class="node">
<title>Node25</title>
<g id="a_node25"><a xlink:href="source_2pdes_2serial_2poisson__nitsche__interface_8cc.html" target="_top" xlink:title=" ">
<polygon fill="none" stroke="black" points="1674.5,-67.5 1674.5,-97.5 1834.5,-97.5 1834.5,-67.5 1674.5,-67.5"/>
<text text-anchor="start" x="1682.5" y="-85.5" font-family="Helvetica,sans-Serif" font-size="10.00">source/pdes/serial</text>
<text text-anchor="middle" x="1754.5" y="-74.5" font-family="Helvetica,sans-Serif" font-size="10.00">/poisson_nitsche_interface.cc</text>
</a>
</g>
</g>
<!-- Node24&#45;&gt;Node25 -->
<g id="edge25" class="edge">
<title>Node24&#45;&gt;Node25</title>
<path fill="none" stroke="midnightblue" d="M1754.5,-124.11C1754.5,-115.15 1754.5,-105.32 1754.5,-97.58"/>
<polygon fill="midnightblue" stroke="midnightblue" points="1751,-124.4 1754.5,-134.4 1758,-124.4 1751,-124.4"/>
</g>
<!-- Node26 -->
<g id="node26" class="node">
<title>Node26</title>
<g id="a_node26"><a xlink:href="apps_2serial_2poisson__nitsche__interface_8cc.html" target="_top" xlink:title=" ">
<polygon fill="none" stroke="black" points="1853,-67.5 1853,-97.5 1972,-97.5 1972,-67.5 1853,-67.5"/>
<text text-anchor="start" x="1861" y="-85.5" font-family="Helvetica,sans-Serif" font-size="10.00">apps/serial/poisson</text>
<text text-anchor="middle" x="1912.5" y="-74.5" font-family="Helvetica,sans-Serif" font-size="10.00">_nitsche_interface.cc</text>
</a>
</g>
</g>
<!-- Node24&#45;&gt;Node26 -->
<g id="edge26" class="edge">
<title>Node24&#45;&gt;Node26</title>
<path fill="none" stroke="midnightblue" d="M1798.15,-130.54C1823.43,-120.14 1854.8,-107.24 1878.28,-97.58"/>
<polygon fill="midnightblue" stroke="midnightblue" points="1796.7,-127.35 1788.78,-134.4 1799.36,-133.83 1796.7,-127.35"/>
</g>
<!-- Node28 -->
<g id="node28" class="node">
<title>Node28</title>
<g id="a_node28"><a xlink:href="source_2pdes_2serial_2reduced__lagrange_8cc.html" target="_top" xlink:title=" ">
<polygon fill="none" stroke="black" points="1990.5,-67.5 1990.5,-97.5 2110.5,-97.5 2110.5,-67.5 1990.5,-67.5"/>
<text text-anchor="start" x="1998.5" y="-85.5" font-family="Helvetica,sans-Serif" font-size="10.00">source/pdes/serial</text>
<text text-anchor="middle" x="2050.5" y="-74.5" font-family="Helvetica,sans-Serif" font-size="10.00">/reduced_lagrange.cc</text>
</a>
</g>
</g>
<!-- Node27&#45;&gt;Node28 -->
<g id="edge28" class="edge">
<title>Node27&#45;&gt;Node28</title>
<path fill="none" stroke="midnightblue" d="M2050.5,-124.11C2050.5,-115.15 2050.5,-105.32 2050.5,-97.58"/>
<polygon fill="midnightblue" stroke="midnightblue" points="2047,-124.4 2050.5,-134.4 2054,-124.4 2047,-124.4"/>
</g>
<!-- Node29 -->
<g id="node29" class="node">
<title>Node29</title>
<g id="a_node29"><a xlink:href="apps_2serial_2reduced__lagrange_8cc.html" target="_top" xlink:title=" ">
<polygon fill="none" stroke="black" points="2128.5,-67.5 2128.5,-97.5 2240.5,-97.5 2240.5,-67.5 2128.5,-67.5"/>
<text text-anchor="start" x="2136.5" y="-85.5" font-family="Helvetica,sans-Serif" font-size="10.00">apps/serial/reduced</text>
<text text-anchor="middle" x="2184.5" y="-74.5" font-family="Helvetica,sans-Serif" font-size="10.00">_lagrange.cc</text>
</a>
</g>
</g>
<!-- Node27&#45;&gt;Node29 -->
<g id="edge29" class="edge">
<title>Node27&#45;&gt;Node29</title>
<path fill="none" stroke="midnightblue" d="M2088.65,-129.99C2109.89,-119.69 2135.91,-107.07 2155.48,-97.58"/>
<polygon fill="midnightblue" stroke="midnightblue" points="2087.05,-126.88 2079.58,-134.4 2090.1,-133.18 2087.05,-126.88"/>
</g>
<!-- Node31 -->
<g id="node31" class="node">
<title>Node31</title>
<g id="a_node31"><a xlink:href="source_2pdes_2serial_2stokes_8cc.html" target="_top" xlink:title=" ">
<polygon fill="none" stroke="black" points="2259,-67.5 2259,-97.5 2364,-97.5 2364,-67.5 2259,-67.5"/>
<text text-anchor="start" x="2267" y="-85.5" font-family="Helvetica,sans-Serif" font-size="10.00">source/pdes/serial</text>
<text text-anchor="middle" x="2311.5" y="-74.5" font-family="Helvetica,sans-Serif" font-size="10.00">/stokes.cc</text>
</a>
</g>
</g>
<!-- Node30&#45;&gt;Node31 -->
<g id="edge31" class="edge">
<title>Node30&#45;&gt;Node31</title>
<path fill="none" stroke="midnightblue" d="M2267.01,-127.31C2276.91,-117.56 2288.39,-106.26 2297.21,-97.58"/>
<polygon fill="midnightblue" stroke="midnightblue" points="2264.49,-124.89 2259.82,-134.4 2269.4,-129.87 2264.49,-124.89"/>
</g>
<!-- Node32 -->
<g id="node32" class="node">
<title>Node32</title>
<g id="a_node32"><a xlink:href="apps_2serial_2stokes_8cc.html" target="_top" xlink:title=" ">
<polygon fill="none" stroke="black" points="2382.5,-73 2382.5,-92 2500.5,-92 2500.5,-73 2382.5,-73"/>
<text text-anchor="middle" x="2441.5" y="-80" font-family="Helvetica,sans-Serif" font-size="10.00">apps/serial/stokes.cc</text>
</a>
</g>
</g>
<!-- Node30&#45;&gt;Node32 -->
<g id="edge32" class="edge">
<title>Node30&#45;&gt;Node32</title>
<path fill="none" stroke="midnightblue" d="M2297.94,-131.11C2336.08,-118.46 2386.04,-101.89 2415.85,-92.01"/>
<polygon fill="midnightblue" stroke="midnightblue" points="2296.42,-127.93 2288.03,-134.4 2298.62,-134.57 2296.42,-127.93"/>
</g>
</g>
</svg>
