<?xml version="1.0" encoding="UTF-8" standalone="no"?>
<!DOCTYPE svg PUBLIC "-//W3C//DTD SVG 1.1//EN"
 "http://www.w3.org/Graphics/SVG/1.1/DTD/svg11.dtd">
<!-- Generated by graphviz version 2.43.0 (0)
 -->
<!-- Title: include/parsed_lac/inverse_operator.h Pages: 1 -->
<svg width="1493pt" height="106pt"
 viewBox="0.00 0.00 1492.50 106.00" xmlns="http://www.w3.org/2000/svg" xmlns:xlink="http://www.w3.org/1999/xlink">
<g id="graph0" class="graph" transform="scale(1 1) rotate(0) translate(4 102)">
<title>include/parsed_lac/inverse_operator.h</title>
<!-- Node1 -->
<g id="node1" class="node">
<title>Node1</title>
<g id="a_node1"><a xlink:title=" ">
<polygon fill="#bfbfbf" stroke="black" points="729,-67.5 729,-97.5 839,-97.5 839,-67.5 729,-67.5"/>
<text text-anchor="start" x="737" y="-85.5" font-family="Helvetica,sans-Serif" font-size="10.00">include/parsed_lac</text>
<text text-anchor="middle" x="784" y="-74.5" font-family="Helvetica,sans-Serif" font-size="10.00">/inverse_operator.h</text>
</a>
</g>
</g>
<!-- Node2 -->
<g id="node2" class="node">
<title>Node2</title>
<g id="a_node2"><a target="_parent" xlink:href="http://www.dealii.org/developer/doxygen/deal.II/config_8h.html.html" xlink:title=" ">
<polygon fill="none" stroke="black" points="0,-6 0,-25 114,-25 114,-6 0,-6"/>
<text text-anchor="middle" x="57" y="-13" font-family="Helvetica,sans-Serif" font-size="10.00">deal.II/base/config.h</text>
</a>
</g>
</g>
<!-- Node1&#45;&gt;Node2 -->
<g id="edge1" class="edge">
<title>Node1&#45;&gt;Node2</title>
<path fill="none" stroke="midnightblue" d="M728.87,-79.9C615.08,-76.01 346.17,-63.87 123,-31 116.06,-29.98 108.76,-28.64 101.65,-27.19"/>
<polygon fill="midnightblue" stroke="midnightblue" points="101.94,-23.68 91.43,-25.02 100.48,-30.52 101.94,-23.68"/>
</g>
<!-- Node3 -->
<g id="node3" class="node">
<title>Node3</title>
<g id="a_node3"><a target="_parent" xlink:href="http://www.dealii.org/developer/doxygen/deal.II/general__data__storage_8h.html.html" xlink:title=" ">
<polygon fill="none" stroke="black" points="132,-0.5 132,-30.5 266,-30.5 266,-0.5 132,-0.5"/>
<text text-anchor="start" x="140" y="-18.5" font-family="Helvetica,sans-Serif" font-size="10.00">deal.II/algorithms</text>
<text text-anchor="middle" x="199" y="-7.5" font-family="Helvetica,sans-Serif" font-size="10.00">/general_data_storage.h</text>
</a>
</g>
</g>
<!-- Node1&#45;&gt;Node3 -->
<g id="edge2" class="edge">
<title>Node1&#45;&gt;Node3</title>
<path fill="none" stroke="midnightblue" d="M728.82,-77.65C636.97,-70.9 446.77,-55.39 276,-31.06"/>
<polygon fill="midnightblue" stroke="midnightblue" points="276.48,-27.6 266.08,-29.64 275.48,-34.52 276.48,-27.6"/>
</g>
<!-- Node4 -->
<g id="node4" class="node">
<title>Node4</title>
<g id="a_node4"><a target="_parent" xlink:href="http://www.dealii.org/developer/doxygen/deal.II/parameter__acceptor_8h.html.html" xlink:title=" ">
<polygon fill="none" stroke="black" points="284.5,-0.5 284.5,-30.5 411.5,-30.5 411.5,-0.5 284.5,-0.5"/>
<text text-anchor="start" x="292.5" y="-18.5" font-family="Helvetica,sans-Serif" font-size="10.00">deal.II/base/parameter</text>
<text text-anchor="middle" x="348" y="-7.5" font-family="Helvetica,sans-Serif" font-size="10.00">_acceptor.h</text>
</a>
</g>
</g>
<!-- Node1&#45;&gt;Node4 -->
<g id="edge3" class="edge">
<title>Node1&#45;&gt;Node4</title>
<path fill="none" stroke="midnightblue" d="M728.96,-74.92C659.55,-66.39 536.36,-50.48 421.58,-31.21"/>
<polygon fill="midnightblue" stroke="midnightblue" points="422.01,-27.74 411.56,-29.52 420.84,-34.64 422.01,-27.74"/>
</g>
<!-- Node5 -->
<g id="node5" class="node">
<title>Node5</title>
<g id="a_node5"><a target="_parent" xlink:href="http://www.dealii.org/developer/doxygen/deal.II/linear__operator__tools_8h.html.html" xlink:title=" ">
<polygon fill="none" stroke="black" points="429.5,-0.5 429.5,-30.5 530.5,-30.5 530.5,-0.5 429.5,-0.5"/>
<text text-anchor="start" x="437.5" y="-18.5" font-family="Helvetica,sans-Serif" font-size="10.00">deal.II/lac/linear</text>
<text text-anchor="middle" x="480" y="-7.5" font-family="Helvetica,sans-Serif" font-size="10.00">_operator_tools.h</text>
</a>
</g>
</g>
<!-- Node1&#45;&gt;Node5 -->
<g id="edge4" class="edge">
<title>Node1&#45;&gt;Node5</title>
<path fill="none" stroke="midnightblue" d="M728.9,-70.76C681.39,-61.36 610.72,-47.04 540.42,-31.28"/>
<polygon fill="midnightblue" stroke="midnightblue" points="541.03,-27.83 530.5,-29.04 539.49,-34.66 541.03,-27.83"/>
</g>
<!-- Node6 -->
<g id="node6" class="node">
<title>Node6</title>
<g id="a_node6"><a target="_parent" xlink:href="http://www.dealii.org/developer/doxygen/deal.II/solver_8h.html.html" xlink:title=" ">
<polygon fill="none" stroke="black" points="548.5,-6 548.5,-25 653.5,-25 653.5,-6 548.5,-6"/>
<text text-anchor="middle" x="601" y="-13" font-family="Helvetica,sans-Serif" font-size="10.00">deal.II/lac/solver.h</text>
</a>
</g>
</g>
<!-- Node1&#45;&gt;Node6 -->
<g id="edge5" class="edge">
<title>Node1&#45;&gt;Node6</title>
<path fill="none" stroke="midnightblue" d="M744.29,-67.4C711.47,-55.74 665.4,-39.37 634.44,-28.38"/>
<polygon fill="midnightblue" stroke="midnightblue" points="635.55,-25.06 624.95,-25.01 633.2,-31.65 635.55,-25.06"/>
</g>
<!-- Node7 -->
<g id="node7" class="node">
<title>Node7</title>
<g id="a_node7"><a target="_parent" xlink:href="http://www.dealii.org/developer/doxygen/deal.II/solver__bicgstab_8h.html.html" xlink:title=" ">
<polygon fill="none" stroke="black" points="671.5,-0.5 671.5,-30.5 768.5,-30.5 768.5,-0.5 671.5,-0.5"/>
<text text-anchor="start" x="679.5" y="-18.5" font-family="Helvetica,sans-Serif" font-size="10.00">deal.II/lac/solver</text>
<text text-anchor="middle" x="720" y="-7.5" font-family="Helvetica,sans-Serif" font-size="10.00">_bicgstab.h</text>
</a>
</g>
</g>
<!-- Node1&#45;&gt;Node7 -->
<g id="edge6" class="edge">
<title>Node1&#45;&gt;Node7</title>
<path fill="none" stroke="midnightblue" d="M770.11,-67.4C761.64,-58.79 750.65,-47.63 741.11,-37.94"/>
<polygon fill="midnightblue" stroke="midnightblue" points="743.37,-35.25 733.86,-30.58 738.38,-40.16 743.37,-35.25"/>
</g>
<!-- Node8 -->
<g id="node8" class="node">
<title>Node8</title>
<g id="a_node8"><a target="_parent" xlink:href="http://www.dealii.org/developer/doxygen/deal.II/solver__cg_8h.html.html" xlink:title=" ">
<polygon fill="none" stroke="black" points="787,-6 787,-25 909,-25 909,-6 787,-6"/>
<text text-anchor="middle" x="848" y="-13" font-family="Helvetica,sans-Serif" font-size="10.00">deal.II/lac/solver_cg.h</text>
</a>
</g>
</g>
<!-- Node1&#45;&gt;Node8 -->
<g id="edge7" class="edge">
<title>Node1&#45;&gt;Node8</title>
<path fill="none" stroke="midnightblue" d="M797.89,-67.4C807.96,-57.16 821.62,-43.3 832.13,-32.62"/>
<polygon fill="midnightblue" stroke="midnightblue" points="834.92,-34.78 839.44,-25.19 829.93,-29.86 834.92,-34.78"/>
</g>
<!-- Node9 -->
<g id="node9" class="node">
<title>Node9</title>
<g id="a_node9"><a target="_parent" xlink:href="http://www.dealii.org/developer/doxygen/deal.II/solver__control_8h.html.html" xlink:title=" ">
<polygon fill="none" stroke="black" points="927.5,-0.5 927.5,-30.5 1024.5,-30.5 1024.5,-0.5 927.5,-0.5"/>
<text text-anchor="start" x="935.5" y="-18.5" font-family="Helvetica,sans-Serif" font-size="10.00">deal.II/lac/solver</text>
<text text-anchor="middle" x="976" y="-7.5" font-family="Helvetica,sans-Serif" font-size="10.00">_control.h</text>
</a>
</g>
</g>
<!-- Node1&#45;&gt;Node9 -->
<g id="edge8" class="edge">
<title>Node1&#45;&gt;Node9</title>
<path fill="none" stroke="midnightblue" d="M825.66,-67.4C854.72,-57.56 893.69,-44.37 924.67,-33.88"/>
<polygon fill="midnightblue" stroke="midnightblue" points="926.07,-37.1 934.42,-30.58 923.83,-30.47 926.07,-37.1"/>
</g>
<!-- Node10 -->
<g id="node10" class="node">
<title>Node10</title>
<g id="a_node10"><a target="_parent" xlink:href="http://www.dealii.org/developer/doxygen/deal.II/solver__gmres_8h.html.html" xlink:title=" ">
<polygon fill="none" stroke="black" points="1042.5,-0.5 1042.5,-30.5 1139.5,-30.5 1139.5,-0.5 1042.5,-0.5"/>
<text text-anchor="start" x="1050.5" y="-18.5" font-family="Helvetica,sans-Serif" font-size="10.00">deal.II/lac/solver</text>
<text text-anchor="middle" x="1091" y="-7.5" font-family="Helvetica,sans-Serif" font-size="10.00">_gmres.h</text>
</a>
</g>
</g>
<!-- Node1&#45;&gt;Node10 -->
<g id="edge9" class="edge">
<title>Node1&#45;&gt;Node10</title>
<path fill="none" stroke="midnightblue" d="M839.28,-71.15C887.77,-61.89 960.41,-47.57 1032.11,-31.38"/>
<polygon fill="midnightblue" stroke="midnightblue" points="1033.25,-34.71 1042.22,-29.08 1031.69,-27.88 1033.25,-34.71"/>
</g>
<!-- Node11 -->
<g id="node11" class="node">
<title>Node11</title>
<g id="a_node11"><a target="_parent" xlink:href="http://www.dealii.org/developer/doxygen/deal.II/solver__minres_8h.html.html" xlink:title=" ">
<polygon fill="none" stroke="black" points="1157.5,-0.5 1157.5,-30.5 1254.5,-30.5 1254.5,-0.5 1157.5,-0.5"/>
<text text-anchor="start" x="1165.5" y="-18.5" font-family="Helvetica,sans-Serif" font-size="10.00">deal.II/lac/solver</text>
<text text-anchor="middle" x="1206" y="-7.5" font-family="Helvetica,sans-Serif" font-size="10.00">_minres.h</text>
</a>
</g>
</g>
<!-- Node1&#45;&gt;Node11 -->
<g id="edge10" class="edge">
<title>Node1&#45;&gt;Node11</title>
<path fill="none" stroke="midnightblue" d="M839.04,-75.82C908.74,-68.2 1032.65,-53.23 1147.27,-31.22"/>
<polygon fill="midnightblue" stroke="midnightblue" points="1148.11,-34.62 1157.26,-29.28 1146.78,-27.75 1148.11,-34.62"/>
</g>
<!-- Node12 -->
<g id="node12" class="node">
<title>Node12</title>
<g id="a_node12"><a target="_parent" xlink:href="http://www.dealii.org/developer/doxygen/deal.II/solver__qmrs_8h.html.html" xlink:title=" ">
<polygon fill="none" stroke="black" points="1272.5,-0.5 1272.5,-30.5 1369.5,-30.5 1369.5,-0.5 1272.5,-0.5"/>
<text text-anchor="start" x="1280.5" y="-18.5" font-family="Helvetica,sans-Serif" font-size="10.00">deal.II/lac/solver</text>
<text text-anchor="middle" x="1321" y="-7.5" font-family="Helvetica,sans-Serif" font-size="10.00">_qmrs.h</text>
</a>
</g>
</g>
<!-- Node1&#45;&gt;Node12 -->
<g id="edge11" class="edge">
<title>Node1&#45;&gt;Node12</title>
<path fill="none" stroke="midnightblue" d="M839.07,-78.3C926.85,-72.63 1103.95,-58.87 1262.36,-31.14"/>
<polygon fill="midnightblue" stroke="midnightblue" points="1263.05,-34.58 1272.28,-29.39 1261.83,-27.68 1263.05,-34.58"/>
</g>
<!-- Node13 -->
<g id="node13" class="node">
<title>Node13</title>
<g id="a_node13"><a target="_parent" xlink:href="http://www.dealii.org/developer/doxygen/deal.II/solver__richardson_8h.html.html" xlink:title=" ">
<polygon fill="none" stroke="black" points="1387.5,-0.5 1387.5,-30.5 1484.5,-30.5 1484.5,-0.5 1387.5,-0.5"/>
<text text-anchor="start" x="1395.5" y="-18.5" font-family="Helvetica,sans-Serif" font-size="10.00">deal.II/lac/solver</text>
<text text-anchor="middle" x="1436" y="-7.5" font-family="Helvetica,sans-Serif" font-size="10.00">_richardson.h</text>
</a>
</g>
</g>
<!-- Node1&#45;&gt;Node13 -->
<g id="edge12" class="edge">
<title>Node1&#45;&gt;Node13</title>
<path fill="none" stroke="midnightblue" d="M839.34,-79.84C943.24,-76.06 1174.6,-64.53 1377.36,-31.11"/>
<polygon fill="midnightblue" stroke="midnightblue" points="1378.01,-34.55 1387.29,-29.45 1376.85,-27.65 1378.01,-34.55"/>
</g>
</g>
</svg>
