<?xml version="1.0" encoding="UTF-8" standalone="no"?>
<!DOCTYPE svg PUBLIC "-//W3C//DTD SVG 1.1//EN"
 "http://www.w3.org/Graphics/SVG/1.1/DTD/svg11.dtd">
<!-- Generated by graphviz version 2.43.0 (0)
 -->
<!-- Title: include/parsed_lac/inverse_operator.h Pages: 1 -->
<svg width="2248pt" height="240pt"
 viewBox="0.00 0.00 2248.00 240.00" xmlns="http://www.w3.org/2000/svg" xmlns:xlink="http://www.w3.org/1999/xlink">
<g id="graph0" class="graph" transform="scale(1 1) rotate(0) translate(4 236)">
<title>include/parsed_lac/inverse_operator.h</title>
<!-- Node1 -->
<g id="node1" class="node">
<title>Node1</title>
<g id="a_node1"><a xlink:title=" ">
<polygon fill="#bfbfbf" stroke="black" points="1354,-201.5 1354,-231.5 1465,-231.5 1465,-201.5 1354,-201.5"/>
<text text-anchor="start" x="1362" y="-219.5" font-family="Helvetica,sans-Serif" font-size="10.00">include/parsed_lac</text>
<text text-anchor="middle" x="1409.5" y="-208.5" font-family="Helvetica,sans-Serif" font-size="10.00">/inverse_operator.h</text>
</a>
</g>
</g>
<!-- Node2 -->
<g id="node2" class="node">
<title>Node2</title>
<g id="a_node2"><a xlink:href="linear__problem_8h.html" target="_top" xlink:title=" ">
<polygon fill="none" stroke="black" points="804,-134.5 804,-164.5 913,-164.5 913,-134.5 804,-134.5"/>
<text text-anchor="start" x="812" y="-152.5" font-family="Helvetica,sans-Serif" font-size="10.00">include/pdes/linear</text>
<text text-anchor="middle" x="858.5" y="-141.5" font-family="Helvetica,sans-Serif" font-size="10.00">_problem.h</text>
</a>
</g>
</g>
<!-- Node1&#45;&gt;Node2 -->
<g id="edge1" class="edge">
<title>Node1&#45;&gt;Node2</title>
<path fill="none" stroke="midnightblue" d="M1343.94,-207.77C1234.23,-194.82 1015.45,-169.01 913.35,-156.97"/>
<polygon fill="midnightblue" stroke="midnightblue" points="1343.55,-211.24 1353.89,-208.94 1344.37,-204.29 1343.55,-211.24"/>
</g>
<!-- Node10 -->
<g id="node10" class="node">
<title>Node10</title>
<g id="a_node10"><a xlink:href="distributed__lagrange_8h.html" target="_top" xlink:title=" ">
<polygon fill="none" stroke="black" points="862,-67.5 862,-97.5 991,-97.5 991,-67.5 862,-67.5"/>
<text text-anchor="start" x="870" y="-85.5" font-family="Helvetica,sans-Serif" font-size="10.00">include/pdes/serial</text>
<text text-anchor="middle" x="926.5" y="-74.5" font-family="Helvetica,sans-Serif" font-size="10.00">/distributed_lagrange.h</text>
</a>
</g>
</g>
<!-- Node1&#45;&gt;Node10 -->
<g id="edge16" class="edge">
<title>Node1&#45;&gt;Node10</title>
<path fill="none" stroke="midnightblue" d="M1343.94,-201.69C1300.27,-192.17 1241.71,-178.79 1190.5,-165 1111.53,-143.74 1020.64,-114.64 968.75,-97.58"/>
<polygon fill="midnightblue" stroke="midnightblue" points="1343.35,-205.14 1353.87,-203.84 1344.84,-198.3 1343.35,-205.14"/>
</g>
<!-- Node13 -->
<g id="node13" class="node">
<title>Node13</title>
<g id="a_node13"><a xlink:href="stokes_8h.html" target="_top" xlink:title=" ">
<polygon fill="none" stroke="black" points="1009.5,-73 1009.5,-92 1131.5,-92 1131.5,-73 1009.5,-73"/>
<text text-anchor="middle" x="1070.5" y="-80" font-family="Helvetica,sans-Serif" font-size="10.00">include/pdes/stokes.h</text>
</a>
</g>
</g>
<!-- Node1&#45;&gt;Node13 -->
<g id="edge29" class="edge">
<title>Node1&#45;&gt;Node13</title>
<path fill="none" stroke="midnightblue" d="M1360.68,-198.1C1334.21,-188.54 1300.97,-176.36 1271.5,-165 1205.1,-139.4 1127.19,-107.18 1090.95,-92.06"/>
<polygon fill="midnightblue" stroke="midnightblue" points="1359.51,-201.4 1370.11,-201.49 1361.88,-194.81 1359.51,-201.4"/>
</g>
<!-- Node17 -->
<g id="node17" class="node">
<title>Node17</title>
<g id="a_node17"><a xlink:href="serial_2poisson_8h.html" target="_top" xlink:title=" ">
<polygon fill="none" stroke="black" points="1280.5,-134.5 1280.5,-164.5 1388.5,-164.5 1388.5,-134.5 1280.5,-134.5"/>
<text text-anchor="start" x="1288.5" y="-152.5" font-family="Helvetica,sans-Serif" font-size="10.00">include/pdes/serial</text>
<text text-anchor="middle" x="1334.5" y="-141.5" font-family="Helvetica,sans-Serif" font-size="10.00">/poisson.h</text>
</a>
</g>
</g>
<!-- Node1&#45;&gt;Node17 -->
<g id="edge17" class="edge">
<title>Node1&#45;&gt;Node17</title>
<path fill="none" stroke="midnightblue" d="M1385.38,-194.6C1374.06,-184.78 1360.86,-173.34 1350.74,-164.58"/>
<polygon fill="midnightblue" stroke="midnightblue" points="1383.38,-197.49 1393.23,-201.4 1387.96,-192.2 1383.38,-197.49"/>
</g>
<!-- Node20 -->
<g id="node20" class="node">
<title>Node20</title>
<g id="a_node20"><a xlink:href="poisson__nitsche__interface_8h.html" target="_top" xlink:title=" ">
<polygon fill="none" stroke="black" points="1407,-134.5 1407,-164.5 1562,-164.5 1562,-134.5 1407,-134.5"/>
<text text-anchor="start" x="1415" y="-152.5" font-family="Helvetica,sans-Serif" font-size="10.00">include/pdes/serial</text>
<text text-anchor="middle" x="1484.5" y="-141.5" font-family="Helvetica,sans-Serif" font-size="10.00">/poisson_nitsche_interface.h</text>
</a>
</g>
</g>
<!-- Node1&#45;&gt;Node20 -->
<g id="edge20" class="edge">
<title>Node1&#45;&gt;Node20</title>
<path fill="none" stroke="midnightblue" d="M1433.62,-194.6C1444.94,-184.78 1458.14,-173.34 1468.26,-164.58"/>
<polygon fill="midnightblue" stroke="midnightblue" points="1431.04,-192.2 1425.77,-201.4 1435.62,-197.49 1431.04,-192.2"/>
</g>
<!-- Node23 -->
<g id="node23" class="node">
<title>Node23</title>
<g id="a_node23"><a xlink:href="reduced__lagrange_8h.html" target="_top" xlink:title=" ">
<polygon fill="none" stroke="black" points="1728.5,-134.5 1728.5,-164.5 1844.5,-164.5 1844.5,-134.5 1728.5,-134.5"/>
<text text-anchor="start" x="1736.5" y="-152.5" font-family="Helvetica,sans-Serif" font-size="10.00">include/pdes/serial</text>
<text text-anchor="middle" x="1786.5" y="-141.5" font-family="Helvetica,sans-Serif" font-size="10.00">/reduced_lagrange.h</text>
</a>
</g>
</g>
<!-- Node1&#45;&gt;Node23 -->
<g id="edge23" class="edge">
<title>Node1&#45;&gt;Node23</title>
<path fill="none" stroke="midnightblue" d="M1475.37,-204.14C1546.93,-191.8 1660.15,-172.28 1728.47,-160.5"/>
<polygon fill="midnightblue" stroke="midnightblue" points="1474.39,-200.76 1465.13,-205.91 1475.58,-207.66 1474.39,-200.76"/>
</g>
<!-- Node26 -->
<g id="node26" class="node">
<title>Node26</title>
<g id="a_node26"><a xlink:href="serial_2stokes_8h.html" target="_top" xlink:title=" ">
<polygon fill="none" stroke="black" points="1932.5,-134.5 1932.5,-164.5 2040.5,-164.5 2040.5,-134.5 1932.5,-134.5"/>
<text text-anchor="start" x="1940.5" y="-152.5" font-family="Helvetica,sans-Serif" font-size="10.00">include/pdes/serial</text>
<text text-anchor="middle" x="1986.5" y="-141.5" font-family="Helvetica,sans-Serif" font-size="10.00">/stokes.h</text>
</a>
</g>
</g>
<!-- Node1&#45;&gt;Node26 -->
<g id="edge26" class="edge">
<title>Node1&#45;&gt;Node26</title>
<path fill="none" stroke="midnightblue" d="M1475.16,-208.1C1590.15,-195.15 1825.84,-168.6 1932.25,-156.61"/>
<polygon fill="midnightblue" stroke="midnightblue" points="1474.63,-204.64 1465.09,-209.24 1475.42,-211.6 1474.63,-204.64"/>
</g>
<!-- Node29 -->
<g id="node29" class="node">
<title>Node29</title>
<g id="a_node29"><a xlink:href="inverse__operator_8cc.html" target="_top" xlink:title=" ">
<polygon fill="none" stroke="black" points="2059,-134.5 2059,-164.5 2202,-164.5 2202,-134.5 2059,-134.5"/>
<text text-anchor="start" x="2067" y="-152.5" font-family="Helvetica,sans-Serif" font-size="10.00">source/parsed_lac/inverse</text>
<text text-anchor="middle" x="2130.5" y="-141.5" font-family="Helvetica,sans-Serif" font-size="10.00">_operator.cc</text>
</a>
</g>
</g>
<!-- Node1&#45;&gt;Node29 -->
<g id="edge30" class="edge">
<title>Node1&#45;&gt;Node29</title>
<path fill="none" stroke="midnightblue" d="M1475.5,-212.44C1591.82,-206.56 1840.79,-191.85 2049.5,-165 2052.48,-164.62 2055.51,-164.2 2058.57,-163.76"/>
<polygon fill="midnightblue" stroke="midnightblue" points="1475.15,-208.95 1465.33,-212.95 1475.5,-215.94 1475.15,-208.95"/>
</g>
<!-- Node3 -->
<g id="node3" class="node">
<title>Node3</title>
<g id="a_node3"><a xlink:href="linear__elasticity_8h.html" target="_top" xlink:title=" ">
<polygon fill="none" stroke="black" points="230,-67.5 230,-97.5 339,-97.5 339,-67.5 230,-67.5"/>
<text text-anchor="start" x="238" y="-85.5" font-family="Helvetica,sans-Serif" font-size="10.00">include/pdes/linear</text>
<text text-anchor="middle" x="284.5" y="-74.5" font-family="Helvetica,sans-Serif" font-size="10.00">_elasticity.h</text>
</a>
</g>
</g>
<!-- Node2&#45;&gt;Node3 -->
<g id="edge2" class="edge">
<title>Node2&#45;&gt;Node3</title>
<path fill="none" stroke="midnightblue" d="M794.01,-141.2C680.14,-128.3 445.47,-101.73 339.07,-89.68"/>
<polygon fill="midnightblue" stroke="midnightblue" points="793.65,-144.68 803.98,-142.33 794.44,-137.72 793.65,-144.68"/>
</g>
<!-- Node7 -->
<g id="node7" class="node">
<title>Node7</title>
<g id="a_node7"><a xlink:href="mpi_2poisson_8h.html" target="_top" xlink:title=" ">
<polygon fill="none" stroke="black" points="570,-73 570,-92 719,-92 719,-73 570,-73"/>
<text text-anchor="middle" x="644.5" y="-80" font-family="Helvetica,sans-Serif" font-size="10.00">include/pdes/mpi/poisson.h</text>
</a>
</g>
</g>
<!-- Node2&#45;&gt;Node7 -->
<g id="edge6" class="edge">
<title>Node2&#45;&gt;Node7</title>
<path fill="none" stroke="midnightblue" d="M802.56,-131.51C760.8,-118.83 705.48,-102.02 672.58,-92.03"/>
<polygon fill="midnightblue" stroke="midnightblue" points="801.74,-134.92 812.33,-134.48 803.78,-128.22 801.74,-134.92"/>
</g>
<!-- Node2&#45;&gt;Node10 -->
<g id="edge9" class="edge">
<title>Node2&#45;&gt;Node10</title>
<path fill="none" stroke="midnightblue" d="M880.67,-127.31C890.87,-117.56 902.69,-106.26 911.77,-97.58"/>
<polygon fill="midnightblue" stroke="midnightblue" points="878.07,-124.96 873.25,-134.4 882.9,-130.02 878.07,-124.96"/>
</g>
<!-- Node2&#45;&gt;Node13 -->
<g id="edge12" class="edge">
<title>Node2&#45;&gt;Node13</title>
<path fill="none" stroke="midnightblue" d="M913.91,-131.51C955.29,-118.83 1010.09,-102.02 1042.68,-92.03"/>
<polygon fill="midnightblue" stroke="midnightblue" points="912.77,-128.2 904.24,-134.48 914.83,-134.89 912.77,-128.2"/>
</g>
<!-- Node16 -->
<g id="node16" class="node">
<title>Node16</title>
<g id="a_node16"><a xlink:href="linear__problem_8cc.html" target="_top" xlink:title=" ">
<polygon fill="none" stroke="black" points="737.5,-67.5 737.5,-97.5 843.5,-97.5 843.5,-67.5 737.5,-67.5"/>
<text text-anchor="start" x="745.5" y="-85.5" font-family="Helvetica,sans-Serif" font-size="10.00">source/pdes/linear</text>
<text text-anchor="middle" x="790.5" y="-74.5" font-family="Helvetica,sans-Serif" font-size="10.00">_problem.cc</text>
</a>
</g>
</g>
<!-- Node2&#45;&gt;Node16 -->
<g id="edge15" class="edge">
<title>Node2&#45;&gt;Node16</title>
<path fill="none" stroke="midnightblue" d="M836.33,-127.31C826.13,-117.56 814.31,-106.26 805.23,-97.58"/>
<polygon fill="midnightblue" stroke="midnightblue" points="834.1,-130.02 843.75,-134.4 838.93,-124.96 834.1,-130.02"/>
</g>
<!-- Node4 -->
<g id="node4" class="node">
<title>Node4</title>
<g id="a_node4"><a xlink:href="source_2pdes_2linear__elasticity_8cc.html" target="_top" xlink:title=" ">
<polygon fill="none" stroke="black" points="292.5,-0.5 292.5,-30.5 398.5,-30.5 398.5,-0.5 292.5,-0.5"/>
<text text-anchor="start" x="300.5" y="-18.5" font-family="Helvetica,sans-Serif" font-size="10.00">source/pdes/linear</text>
<text text-anchor="middle" x="345.5" y="-7.5" font-family="Helvetica,sans-Serif" font-size="10.00">_elasticity.cc</text>
</a>
</g>
</g>
<!-- Node3&#45;&gt;Node4 -->
<g id="edge3" class="edge">
<title>Node3&#45;&gt;Node4</title>
<path fill="none" stroke="midnightblue" d="M304.65,-60.02C313.74,-50.34 324.22,-39.17 332.29,-30.58"/>
<polygon fill="midnightblue" stroke="midnightblue" points="302.03,-57.71 297.74,-67.4 307.13,-62.5 302.03,-57.71"/>
</g>
<!-- Node5 -->
<g id="node5" class="node">
<title>Node5</title>
<g id="a_node5"><a xlink:href="apps_2mpi_2linear__elasticity_8cc.html" target="_top" xlink:title=" ">
<polygon fill="none" stroke="black" points="0,-6 0,-25 155,-25 155,-6 0,-6"/>
<text text-anchor="middle" x="77.5" y="-13" font-family="Helvetica,sans-Serif" font-size="10.00">apps/mpi/linear_elasticity.cc</text>
</a>
</g>
</g>
<!-- Node3&#45;&gt;Node5 -->
<g id="edge4" class="edge">
<title>Node3&#45;&gt;Node5</title>
<path fill="none" stroke="midnightblue" d="M230.14,-64.43C189.77,-51.75 136.42,-35 104.66,-25.03"/>
<polygon fill="midnightblue" stroke="midnightblue" points="229.25,-67.82 239.84,-67.48 231.35,-61.14 229.25,-67.82"/>
</g>
<!-- Node6 -->
<g id="node6" class="node">
<title>Node6</title>
<g id="a_node6"><a xlink:href="apps_2serial_2linear__elasticity_8cc.html" target="_top" xlink:title=" ">
<polygon fill="none" stroke="black" points="173,-0.5 173,-30.5 274,-30.5 274,-0.5 173,-0.5"/>
<text text-anchor="start" x="181" y="-18.5" font-family="Helvetica,sans-Serif" font-size="10.00">apps/serial/linear</text>
<text text-anchor="middle" x="223.5" y="-7.5" font-family="Helvetica,sans-Serif" font-size="10.00">_elasticity.cc</text>
</a>
</g>
</g>
<!-- Node3&#45;&gt;Node6 -->
<g id="edge5" class="edge">
<title>Node3&#45;&gt;Node6</title>
<path fill="none" stroke="midnightblue" d="M264.35,-60.02C255.26,-50.34 244.78,-39.17 236.71,-30.58"/>
<polygon fill="midnightblue" stroke="midnightblue" points="261.87,-62.5 271.26,-67.4 266.97,-57.71 261.87,-62.5"/>
</g>
<!-- Node8 -->
<g id="node8" class="node">
<title>Node8</title>
<g id="a_node8"><a xlink:href="source_2pdes_2mpi_2poisson_8cc.html" target="_top" xlink:title=" ">
<polygon fill="none" stroke="black" points="417,-6 417,-25 568,-25 568,-6 417,-6"/>
<text text-anchor="middle" x="492.5" y="-13" font-family="Helvetica,sans-Serif" font-size="10.00">source/pdes/mpi/poisson.cc</text>
</a>
</g>
</g>
<!-- Node7&#45;&gt;Node8 -->
<g id="edge7" class="edge">
<title>Node7&#45;&gt;Node8</title>
<path fill="none" stroke="midnightblue" d="M614.76,-68.78C584.66,-55.91 538.93,-36.35 512.77,-25.17"/>
<polygon fill="midnightblue" stroke="midnightblue" points="613.74,-72.15 624.32,-72.87 616.5,-65.72 613.74,-72.15"/>
</g>
<!-- Node9 -->
<g id="node9" class="node">
<title>Node9</title>
<g id="a_node9"><a xlink:href="apps_2mpi_2poisson_8cc.html" target="_top" xlink:title=" ">
<polygon fill="none" stroke="black" points="586.5,-6 586.5,-25 702.5,-25 702.5,-6 586.5,-6"/>
<text text-anchor="middle" x="644.5" y="-13" font-family="Helvetica,sans-Serif" font-size="10.00">apps/mpi/poisson.cc</text>
</a>
</g>
</g>
<!-- Node7&#45;&gt;Node9 -->
<g id="edge8" class="edge">
<title>Node7&#45;&gt;Node9</title>
<path fill="none" stroke="midnightblue" d="M644.5,-62.54C644.5,-50.17 644.5,-34.62 644.5,-25.13"/>
<polygon fill="midnightblue" stroke="midnightblue" points="641,-62.73 644.5,-72.73 648,-62.73 641,-62.73"/>
</g>
<!-- Node11 -->
<g id="node11" class="node">
<title>Node11</title>
<g id="a_node11"><a xlink:href="source_2pdes_2serial_2distributed__lagrange_8cc.html" target="_top" xlink:title=" ">
<polygon fill="none" stroke="black" points="864.5,-0.5 864.5,-30.5 998.5,-30.5 998.5,-0.5 864.5,-0.5"/>
<text text-anchor="start" x="872.5" y="-18.5" font-family="Helvetica,sans-Serif" font-size="10.00">source/pdes/serial</text>
<text text-anchor="middle" x="931.5" y="-7.5" font-family="Helvetica,sans-Serif" font-size="10.00">/distributed_lagrange.cc</text>
</a>
</g>
</g>
<!-- Node10&#45;&gt;Node11 -->
<g id="edge10" class="edge">
<title>Node10&#45;&gt;Node11</title>
<path fill="none" stroke="midnightblue" d="M928.35,-57.4C929.05,-48.37 929.81,-38.41 930.42,-30.58"/>
<polygon fill="midnightblue" stroke="midnightblue" points="924.86,-57.16 927.58,-67.4 931.84,-57.69 924.86,-57.16"/>
</g>
<!-- Node12 -->
<g id="node12" class="node">
<title>Node12</title>
<g id="a_node12"><a xlink:href="apps_2serial_2distributed__lagrange_8cc.html" target="_top" xlink:title=" ">
<polygon fill="none" stroke="black" points="721,-0.5 721,-30.5 846,-30.5 846,-0.5 721,-0.5"/>
<text text-anchor="start" x="729" y="-18.5" font-family="Helvetica,sans-Serif" font-size="10.00">apps/serial/distributed</text>
<text text-anchor="middle" x="783.5" y="-7.5" font-family="Helvetica,sans-Serif" font-size="10.00">_lagrange.cc</text>
</a>
</g>
</g>
<!-- Node10&#45;&gt;Node12 -->
<g id="edge11" class="edge">
<title>Node10&#45;&gt;Node12</title>
<path fill="none" stroke="midnightblue" d="M886.09,-63.13C863.37,-52.8 835.44,-40.11 814.47,-30.58"/>
<polygon fill="midnightblue" stroke="midnightblue" points="884.92,-66.44 895.47,-67.4 887.82,-60.07 884.92,-66.44"/>
</g>
<!-- Node14 -->
<g id="node14" class="node">
<title>Node14</title>
<g id="a_node14"><a xlink:href="source_2pdes_2stokes_8cc.html" target="_top" xlink:title=" ">
<polygon fill="none" stroke="black" points="1145,-6 1145,-25 1268,-25 1268,-6 1145,-6"/>
<text text-anchor="middle" x="1206.5" y="-13" font-family="Helvetica,sans-Serif" font-size="10.00">source/pdes/stokes.cc</text>
</a>
</g>
</g>
<!-- Node13&#45;&gt;Node14 -->
<g id="edge13" class="edge">
<title>Node13&#45;&gt;Node14</title>
<path fill="none" stroke="midnightblue" d="M1097.82,-68.44C1124.76,-55.57 1165.16,-36.26 1188.37,-25.17"/>
<polygon fill="midnightblue" stroke="midnightblue" points="1096.07,-65.4 1088.56,-72.87 1099.09,-71.71 1096.07,-65.4"/>
</g>
<!-- Node15 -->
<g id="node15" class="node">
<title>Node15</title>
<g id="a_node15"><a xlink:href="apps_2mpi_2stokes_8cc.html" target="_top" xlink:title=" ">
<polygon fill="none" stroke="black" points="1016.5,-6 1016.5,-25 1126.5,-25 1126.5,-6 1016.5,-6"/>
<text text-anchor="middle" x="1071.5" y="-13" font-family="Helvetica,sans-Serif" font-size="10.00">apps/mpi/stokes.cc</text>
</a>
</g>
</g>
<!-- Node13&#45;&gt;Node15 -->
<g id="edge14" class="edge">
<title>Node13&#45;&gt;Node15</title>
<path fill="none" stroke="midnightblue" d="M1070.79,-62.54C1070.98,-50.17 1071.22,-34.62 1071.37,-25.13"/>
<polygon fill="midnightblue" stroke="midnightblue" points="1067.29,-62.68 1070.63,-72.73 1074.29,-62.79 1067.29,-62.68"/>
</g>
<!-- Node18 -->
<g id="node18" class="node">
<title>Node18</title>
<g id="a_node18"><a xlink:href="source_2pdes_2serial_2poisson_8cc.html" target="_top" xlink:title=" ">
<polygon fill="none" stroke="black" points="1292,-67.5 1292,-97.5 1397,-97.5 1397,-67.5 1292,-67.5"/>
<text text-anchor="start" x="1300" y="-85.5" font-family="Helvetica,sans-Serif" font-size="10.00">source/pdes/serial</text>
<text text-anchor="middle" x="1344.5" y="-74.5" font-family="Helvetica,sans-Serif" font-size="10.00">/poisson.cc</text>
</a>
</g>
</g>
<!-- Node17&#45;&gt;Node18 -->
<g id="edge18" class="edge">
<title>Node17&#45;&gt;Node18</title>
<path fill="none" stroke="midnightblue" d="M1338.21,-124.4C1339.6,-115.37 1341.13,-105.41 1342.33,-97.58"/>
<polygon fill="midnightblue" stroke="midnightblue" points="1334.73,-123.98 1336.67,-134.4 1341.65,-125.04 1334.73,-123.98"/>
</g>
<!-- Node19 -->
<g id="node19" class="node">
<title>Node19</title>
<g id="a_node19"><a xlink:href="apps_2serial_2poisson_8cc.html" target="_top" xlink:title=" ">
<polygon fill="none" stroke="black" points="1149.5,-73 1149.5,-92 1273.5,-92 1273.5,-73 1149.5,-73"/>
<text text-anchor="middle" x="1211.5" y="-80" font-family="Helvetica,sans-Serif" font-size="10.00">apps/serial/poisson.cc</text>
</a>
</g>
</g>
<!-- Node17&#45;&gt;Node19 -->
<g id="edge19" class="edge">
<title>Node17&#45;&gt;Node19</title>
<path fill="none" stroke="midnightblue" d="M1298.81,-129.64C1275.28,-117.2 1245.59,-101.51 1227.6,-92.01"/>
<polygon fill="midnightblue" stroke="midnightblue" points="1297.33,-132.82 1307.81,-134.4 1300.6,-126.63 1297.33,-132.82"/>
</g>
<!-- Node21 -->
<g id="node21" class="node">
<title>Node21</title>
<g id="a_node21"><a xlink:href="source_2pdes_2serial_2poisson__nitsche__interface_8cc.html" target="_top" xlink:title=" ">
<polygon fill="none" stroke="black" points="1552.5,-67.5 1552.5,-97.5 1712.5,-97.5 1712.5,-67.5 1552.5,-67.5"/>
<text text-anchor="start" x="1560.5" y="-85.5" font-family="Helvetica,sans-Serif" font-size="10.00">source/pdes/serial</text>
<text text-anchor="middle" x="1632.5" y="-74.5" font-family="Helvetica,sans-Serif" font-size="10.00">/poisson_nitsche_interface.cc</text>
</a>
</g>
</g>
<!-- Node20&#45;&gt;Node21 -->
<g id="edge21" class="edge">
<title>Node20&#45;&gt;Node21</title>
<path fill="none" stroke="midnightblue" d="M1526.01,-130.27C1549.58,-119.92 1578.64,-107.15 1600.45,-97.58"/>
<polygon fill="midnightblue" stroke="midnightblue" points="1524.36,-127.17 1516.61,-134.4 1527.18,-133.58 1524.36,-127.17"/>
</g>
<!-- Node22 -->
<g id="node22" class="node">
<title>Node22</title>
<g id="a_node22"><a xlink:href="apps_2serial_2poisson__nitsche__interface_8cc.html" target="_top" xlink:title=" ">
<polygon fill="none" stroke="black" points="1415,-67.5 1415,-97.5 1534,-97.5 1534,-67.5 1415,-67.5"/>
<text text-anchor="start" x="1423" y="-85.5" font-family="Helvetica,sans-Serif" font-size="10.00">apps/serial/poisson</text>
<text text-anchor="middle" x="1474.5" y="-74.5" font-family="Helvetica,sans-Serif" font-size="10.00">_nitsche_interface.cc</text>
</a>
</g>
</g>
<!-- Node20&#45;&gt;Node22 -->
<g id="edge22" class="edge">
<title>Node20&#45;&gt;Node22</title>
<path fill="none" stroke="midnightblue" d="M1480.79,-124.4C1479.4,-115.37 1477.87,-105.41 1476.67,-97.58"/>
<polygon fill="midnightblue" stroke="midnightblue" points="1477.35,-125.04 1482.33,-134.4 1484.27,-123.98 1477.35,-125.04"/>
</g>
<!-- Node24 -->
<g id="node24" class="node">
<title>Node24</title>
<g id="a_node24"><a xlink:href="source_2pdes_2serial_2reduced__lagrange_8cc.html" target="_top" xlink:title=" ">
<polygon fill="none" stroke="black" points="1860.5,-67.5 1860.5,-97.5 1980.5,-97.5 1980.5,-67.5 1860.5,-67.5"/>
<text text-anchor="start" x="1868.5" y="-85.5" font-family="Helvetica,sans-Serif" font-size="10.00">source/pdes/serial</text>
<text text-anchor="middle" x="1920.5" y="-74.5" font-family="Helvetica,sans-Serif" font-size="10.00">/reduced_lagrange.cc</text>
</a>
</g>
</g>
<!-- Node23&#45;&gt;Node24 -->
<g id="edge24" class="edge">
<title>Node23&#45;&gt;Node24</title>
<path fill="none" stroke="midnightblue" d="M1824.65,-129.99C1845.89,-119.69 1871.91,-107.07 1891.48,-97.58"/>
<polygon fill="midnightblue" stroke="midnightblue" points="1823.05,-126.88 1815.58,-134.4 1826.1,-133.18 1823.05,-126.88"/>
</g>
<!-- Node25 -->
<g id="node25" class="node">
<title>Node25</title>
<g id="a_node25"><a xlink:href="apps_2serial_2reduced__lagrange_8cc.html" target="_top" xlink:title=" ">
<polygon fill="none" stroke="black" points="1730.5,-67.5 1730.5,-97.5 1842.5,-97.5 1842.5,-67.5 1730.5,-67.5"/>
<text text-anchor="start" x="1738.5" y="-85.5" font-family="Helvetica,sans-Serif" font-size="10.00">apps/serial/reduced</text>
<text text-anchor="middle" x="1786.5" y="-74.5" font-family="Helvetica,sans-Serif" font-size="10.00">_lagrange.cc</text>
</a>
</g>
</g>
<!-- Node23&#45;&gt;Node25 -->
<g id="edge25" class="edge">
<title>Node23&#45;&gt;Node25</title>
<path fill="none" stroke="midnightblue" d="M1786.5,-124.11C1786.5,-115.15 1786.5,-105.32 1786.5,-97.58"/>
<polygon fill="midnightblue" stroke="midnightblue" points="1783,-124.4 1786.5,-134.4 1790,-124.4 1783,-124.4"/>
</g>
<!-- Node27 -->
<g id="node27" class="node">
<title>Node27</title>
<g id="a_node27"><a xlink:href="source_2pdes_2serial_2stokes_8cc.html" target="_top" xlink:title=" ">
<polygon fill="none" stroke="black" points="2135,-67.5 2135,-97.5 2240,-97.5 2240,-67.5 2135,-67.5"/>
<text text-anchor="start" x="2143" y="-85.5" font-family="Helvetica,sans-Serif" font-size="10.00">source/pdes/serial</text>
<text text-anchor="middle" x="2187.5" y="-74.5" font-family="Helvetica,sans-Serif" font-size="10.00">/stokes.cc</text>
</a>
</g>
</g>
<!-- Node26&#45;&gt;Node27 -->
<g id="edge27" class="edge">
<title>Node26&#45;&gt;Node27</title>
<path fill="none" stroke="midnightblue" d="M2039.91,-131.23C2072.43,-120.71 2113.44,-107.45 2143.97,-97.58"/>
<polygon fill="midnightblue" stroke="midnightblue" points="2038.55,-127.99 2030.11,-134.4 2040.71,-134.65 2038.55,-127.99"/>
</g>
<!-- Node28 -->
<g id="node28" class="node">
<title>Node28</title>
<g id="a_node28"><a xlink:href="apps_2serial_2stokes_8cc.html" target="_top" xlink:title=" ">
<polygon fill="none" stroke="black" points="1998.5,-73 1998.5,-92 2116.5,-92 2116.5,-73 1998.5,-73"/>
<text text-anchor="middle" x="2057.5" y="-80" font-family="Helvetica,sans-Serif" font-size="10.00">apps/serial/stokes.cc</text>
</a>
</g>
</g>
<!-- Node26&#45;&gt;Node28 -->
<g id="edge28" class="edge">
<title>Node26&#45;&gt;Node28</title>
<path fill="none" stroke="midnightblue" d="M2009.62,-127.34C2022.65,-115.4 2038.24,-101.14 2048,-92.19"/>
<polygon fill="midnightblue" stroke="midnightblue" points="2006.92,-125.06 2001.91,-134.4 2011.65,-130.22 2006.92,-125.06"/>
</g>
</g>
</svg>
