<?xml version="1.0" encoding="UTF-8" standalone="no"?>
<!DOCTYPE svg PUBLIC "-//W3C//DTD SVG 1.1//EN"
 "http://www.w3.org/Graphics/SVG/1.1/DTD/svg11.dtd">
<!-- Generated by graphviz version 2.43.0 (0)
 -->
<!-- Title: include/parsed_lac/inverse_operator.h Pages: 1 -->
<svg width="1940pt" height="240pt"
 viewBox="0.00 0.00 1940.00 240.00" xmlns="http://www.w3.org/2000/svg" xmlns:xlink="http://www.w3.org/1999/xlink">
<g id="graph0" class="graph" transform="scale(1 1) rotate(0) translate(4 236)">
<title>include/parsed_lac/inverse_operator.h</title>
<!-- Node1 -->
<g id="node1" class="node">
<title>Node1</title>
<g id="a_node1"><a xlink:title=" ">
<polygon fill="#bfbfbf" stroke="black" points="1222.5,-201.5 1222.5,-231.5 1333.5,-231.5 1333.5,-201.5 1222.5,-201.5"/>
<text text-anchor="start" x="1230.5" y="-219.5" font-family="Helvetica,sans-Serif" font-size="10.00">include/parsed_lac</text>
<text text-anchor="middle" x="1278" y="-208.5" font-family="Helvetica,sans-Serif" font-size="10.00">/inverse_operator.h</text>
</a>
</g>
</g>
<!-- Node2 -->
<g id="node2" class="node">
<title>Node2</title>
<g id="a_node2"><a xlink:href="linear__problem_8h.html" target="_top" xlink:title=" ">
<polygon fill="none" stroke="black" points="595.5,-134.5 595.5,-164.5 704.5,-164.5 704.5,-134.5 595.5,-134.5"/>
<text text-anchor="start" x="603.5" y="-152.5" font-family="Helvetica,sans-Serif" font-size="10.00">include/pdes/linear</text>
<text text-anchor="middle" x="650" y="-141.5" font-family="Helvetica,sans-Serif" font-size="10.00">_problem.h</text>
</a>
</g>
</g>
<!-- Node1&#45;&gt;Node2 -->
<g id="edge1" class="edge">
<title>Node1&#45;&gt;Node2</title>
<path fill="none" stroke="midnightblue" d="M1212.12,-208.68C1087.63,-195.8 820.02,-168.1 704.71,-156.16"/>
<polygon fill="midnightblue" stroke="midnightblue" points="1211.96,-212.18 1222.27,-209.73 1212.68,-205.22 1211.96,-212.18"/>
</g>
<!-- Node10 -->
<g id="node10" class="node">
<title>Node10</title>
<g id="a_node10"><a xlink:href="stokes_8h.html" target="_top" xlink:title=" ">
<polygon fill="none" stroke="black" points="721,-73 721,-92 843,-92 843,-73 721,-73"/>
<text text-anchor="middle" x="782" y="-80" font-family="Helvetica,sans-Serif" font-size="10.00">include/pdes/stokes.h</text>
</a>
</g>
</g>
<!-- Node1&#45;&gt;Node10 -->
<g id="edge25" class="edge">
<title>Node1&#45;&gt;Node10</title>
<path fill="none" stroke="midnightblue" d="M1212.17,-206.75C1155.8,-198.47 1072.76,-184.42 1002,-165 926.19,-144.19 839.65,-108.44 801.64,-92.1"/>
<polygon fill="midnightblue" stroke="midnightblue" points="1211.98,-210.26 1222.38,-208.22 1212.98,-203.33 1211.98,-210.26"/>
</g>
<!-- Node14 -->
<g id="node14" class="node">
<title>Node14</title>
<g id="a_node14"><a xlink:href="distributed__lagrange_8h.html" target="_top" xlink:title=" ">
<polygon fill="none" stroke="black" points="1011.5,-134.5 1011.5,-164.5 1140.5,-164.5 1140.5,-134.5 1011.5,-134.5"/>
<text text-anchor="start" x="1019.5" y="-152.5" font-family="Helvetica,sans-Serif" font-size="10.00">include/pdes/serial</text>
<text text-anchor="middle" x="1076" y="-141.5" font-family="Helvetica,sans-Serif" font-size="10.00">/distributed_lagrange.h</text>
</a>
</g>
</g>
<!-- Node1&#45;&gt;Node14 -->
<g id="edge13" class="edge">
<title>Node1&#45;&gt;Node14</title>
<path fill="none" stroke="midnightblue" d="M1224.32,-198.23C1191.65,-187.71 1150.43,-174.45 1119.75,-164.58"/>
<polygon fill="midnightblue" stroke="midnightblue" points="1223.58,-201.66 1234.17,-201.4 1225.72,-195 1223.58,-201.66"/>
</g>
<!-- Node17 -->
<g id="node17" class="node">
<title>Node17</title>
<g id="a_node17"><a xlink:href="serial_2poisson_8h.html" target="_top" xlink:title=" ">
<polygon fill="none" stroke="black" points="1224,-134.5 1224,-164.5 1332,-164.5 1332,-134.5 1224,-134.5"/>
<text text-anchor="start" x="1232" y="-152.5" font-family="Helvetica,sans-Serif" font-size="10.00">include/pdes/serial</text>
<text text-anchor="middle" x="1278" y="-141.5" font-family="Helvetica,sans-Serif" font-size="10.00">/poisson.h</text>
</a>
</g>
</g>
<!-- Node1&#45;&gt;Node17 -->
<g id="edge16" class="edge">
<title>Node1&#45;&gt;Node17</title>
<path fill="none" stroke="midnightblue" d="M1278,-191.11C1278,-182.15 1278,-172.32 1278,-164.58"/>
<polygon fill="midnightblue" stroke="midnightblue" points="1274.5,-191.4 1278,-201.4 1281.5,-191.4 1274.5,-191.4"/>
</g>
<!-- Node20 -->
<g id="node20" class="node">
<title>Node20</title>
<g id="a_node20"><a xlink:href="reduced__lagrange_8h.html" target="_top" xlink:title=" ">
<polygon fill="none" stroke="black" points="1424,-134.5 1424,-164.5 1540,-164.5 1540,-134.5 1424,-134.5"/>
<text text-anchor="start" x="1432" y="-152.5" font-family="Helvetica,sans-Serif" font-size="10.00">include/pdes/serial</text>
<text text-anchor="middle" x="1482" y="-141.5" font-family="Helvetica,sans-Serif" font-size="10.00">/reduced_lagrange.h</text>
</a>
</g>
</g>
<!-- Node1&#45;&gt;Node20 -->
<g id="edge19" class="edge">
<title>Node1&#45;&gt;Node20</title>
<path fill="none" stroke="midnightblue" d="M1331.96,-198.31C1364.96,-187.79 1406.66,-174.51 1437.71,-164.61"/>
<polygon fill="midnightblue" stroke="midnightblue" points="1330.48,-195.11 1322.01,-201.48 1332.6,-201.77 1330.48,-195.11"/>
</g>
<!-- Node23 -->
<g id="node23" class="node">
<title>Node23</title>
<g id="a_node23"><a xlink:href="serial_2stokes_8h.html" target="_top" xlink:title=" ">
<polygon fill="none" stroke="black" points="1623,-134.5 1623,-164.5 1731,-164.5 1731,-134.5 1623,-134.5"/>
<text text-anchor="start" x="1631" y="-152.5" font-family="Helvetica,sans-Serif" font-size="10.00">include/pdes/serial</text>
<text text-anchor="middle" x="1677" y="-141.5" font-family="Helvetica,sans-Serif" font-size="10.00">/stokes.h</text>
</a>
</g>
</g>
<!-- Node1&#45;&gt;Node23 -->
<g id="edge22" class="edge">
<title>Node1&#45;&gt;Node23</title>
<path fill="none" stroke="midnightblue" d="M1344.09,-204.73C1422.09,-192.03 1550.32,-171.14 1622.76,-159.34"/>
<polygon fill="midnightblue" stroke="midnightblue" points="1343.21,-201.33 1333.9,-206.39 1344.33,-208.24 1343.21,-201.33"/>
</g>
<!-- Node26 -->
<g id="node26" class="node">
<title>Node26</title>
<g id="a_node26"><a xlink:href="inverse__operator_8cc.html" target="_top" xlink:title=" ">
<polygon fill="none" stroke="black" points="1749.5,-134.5 1749.5,-164.5 1892.5,-164.5 1892.5,-134.5 1749.5,-134.5"/>
<text text-anchor="start" x="1757.5" y="-152.5" font-family="Helvetica,sans-Serif" font-size="10.00">source/parsed_lac/inverse</text>
<text text-anchor="middle" x="1821" y="-141.5" font-family="Helvetica,sans-Serif" font-size="10.00">_operator.cc</text>
</a>
</g>
</g>
<!-- Node1&#45;&gt;Node26 -->
<g id="edge26" class="edge">
<title>Node1&#45;&gt;Node26</title>
<path fill="none" stroke="midnightblue" d="M1343.65,-209.75C1433.39,-201.56 1599.28,-185.26 1740,-165 1743.11,-164.55 1746.29,-164.07 1749.49,-163.57"/>
<polygon fill="midnightblue" stroke="midnightblue" points="1343.27,-206.27 1333.62,-210.66 1343.9,-213.24 1343.27,-206.27"/>
</g>
<!-- Node3 -->
<g id="node3" class="node">
<title>Node3</title>
<g id="a_node3"><a xlink:href="linear__elasticity_8h.html" target="_top" xlink:title=" ">
<polygon fill="none" stroke="black" points="220.5,-67.5 220.5,-97.5 329.5,-97.5 329.5,-67.5 220.5,-67.5"/>
<text text-anchor="start" x="228.5" y="-85.5" font-family="Helvetica,sans-Serif" font-size="10.00">include/pdes/linear</text>
<text text-anchor="middle" x="275" y="-74.5" font-family="Helvetica,sans-Serif" font-size="10.00">_elasticity.h</text>
</a>
</g>
</g>
<!-- Node2&#45;&gt;Node3 -->
<g id="edge2" class="edge">
<title>Node2&#45;&gt;Node3</title>
<path fill="none" stroke="midnightblue" d="M585.58,-137.33C513.37,-124.82 397.53,-104.74 329.59,-92.96"/>
<polygon fill="midnightblue" stroke="midnightblue" points="585.02,-140.79 595.47,-139.05 586.22,-133.89 585.02,-140.79"/>
</g>
<!-- Node7 -->
<g id="node7" class="node">
<title>Node7</title>
<g id="a_node7"><a xlink:href="mpi_2poisson_8h.html" target="_top" xlink:title=" ">
<polygon fill="none" stroke="black" points="430.5,-73 430.5,-92 579.5,-92 579.5,-73 430.5,-73"/>
<text text-anchor="middle" x="505" y="-80" font-family="Helvetica,sans-Serif" font-size="10.00">include/pdes/mpi/poisson.h</text>
</a>
</g>
</g>
<!-- Node2&#45;&gt;Node7 -->
<g id="edge6" class="edge">
<title>Node2&#45;&gt;Node7</title>
<path fill="none" stroke="midnightblue" d="M609.39,-130.3C581.43,-117.76 545.56,-101.68 523.98,-92.01"/>
<polygon fill="midnightblue" stroke="midnightblue" points="607.98,-133.5 618.54,-134.4 610.84,-127.11 607.98,-133.5"/>
</g>
<!-- Node2&#45;&gt;Node10 -->
<g id="edge9" class="edge">
<title>Node2&#45;&gt;Node10</title>
<path fill="none" stroke="midnightblue" d="M687.64,-129.97C712.99,-117.48 745.25,-101.6 764.72,-92.01"/>
<polygon fill="midnightblue" stroke="midnightblue" points="686.07,-126.84 678.64,-134.4 689.16,-133.12 686.07,-126.84"/>
</g>
<!-- Node13 -->
<g id="node13" class="node">
<title>Node13</title>
<g id="a_node13"><a xlink:href="linear__problem_8cc.html" target="_top" xlink:title=" ">
<polygon fill="none" stroke="black" points="597,-67.5 597,-97.5 703,-97.5 703,-67.5 597,-67.5"/>
<text text-anchor="start" x="605" y="-85.5" font-family="Helvetica,sans-Serif" font-size="10.00">source/pdes/linear</text>
<text text-anchor="middle" x="650" y="-74.5" font-family="Helvetica,sans-Serif" font-size="10.00">_problem.cc</text>
</a>
</g>
</g>
<!-- Node2&#45;&gt;Node13 -->
<g id="edge12" class="edge">
<title>Node2&#45;&gt;Node13</title>
<path fill="none" stroke="midnightblue" d="M650,-124.11C650,-115.15 650,-105.32 650,-97.58"/>
<polygon fill="midnightblue" stroke="midnightblue" points="646.5,-124.4 650,-134.4 653.5,-124.4 646.5,-124.4"/>
</g>
<!-- Node4 -->
<g id="node4" class="node">
<title>Node4</title>
<g id="a_node4"><a xlink:href="source_2pdes_2linear__elasticity_8cc.html" target="_top" xlink:title=" ">
<polygon fill="none" stroke="black" points="0,-0.5 0,-30.5 106,-30.5 106,-0.5 0,-0.5"/>
<text text-anchor="start" x="8" y="-18.5" font-family="Helvetica,sans-Serif" font-size="10.00">source/pdes/linear</text>
<text text-anchor="middle" x="53" y="-7.5" font-family="Helvetica,sans-Serif" font-size="10.00">_elasticity.cc</text>
</a>
</g>
</g>
<!-- Node3&#45;&gt;Node4 -->
<g id="edge3" class="edge">
<title>Node3&#45;&gt;Node4</title>
<path fill="none" stroke="midnightblue" d="M217.21,-64.58C181.15,-54.02 135.28,-40.59 101.19,-30.61"/>
<polygon fill="midnightblue" stroke="midnightblue" points="216.52,-68.02 227.1,-67.48 218.49,-61.31 216.52,-68.02"/>
</g>
<!-- Node5 -->
<g id="node5" class="node">
<title>Node5</title>
<g id="a_node5"><a xlink:href="apps_2mpi_2linear__elasticity_8cc.html" target="_top" xlink:title=" ">
<polygon fill="none" stroke="black" points="124.5,-6 124.5,-25 279.5,-25 279.5,-6 124.5,-6"/>
<text text-anchor="middle" x="202" y="-13" font-family="Helvetica,sans-Serif" font-size="10.00">apps/mpi/linear_elasticity.cc</text>
</a>
</g>
</g>
<!-- Node3&#45;&gt;Node5 -->
<g id="edge4" class="edge">
<title>Node3&#45;&gt;Node5</title>
<path fill="none" stroke="midnightblue" d="M251.61,-60.67C238.13,-48.67 221.9,-34.22 211.76,-25.19"/>
<polygon fill="midnightblue" stroke="midnightblue" points="249.36,-63.36 259.16,-67.4 254.02,-58.13 249.36,-63.36"/>
</g>
<!-- Node6 -->
<g id="node6" class="node">
<title>Node6</title>
<g id="a_node6"><a xlink:href="apps_2serial_2linear__elasticity_8cc.html" target="_top" xlink:title=" ">
<polygon fill="none" stroke="black" points="297.5,-0.5 297.5,-30.5 398.5,-30.5 398.5,-0.5 297.5,-0.5"/>
<text text-anchor="start" x="305.5" y="-18.5" font-family="Helvetica,sans-Serif" font-size="10.00">apps/serial/linear</text>
<text text-anchor="middle" x="348" y="-7.5" font-family="Helvetica,sans-Serif" font-size="10.00">_elasticity.cc</text>
</a>
</g>
</g>
<!-- Node3&#45;&gt;Node6 -->
<g id="edge5" class="edge">
<title>Node3&#45;&gt;Node6</title>
<path fill="none" stroke="midnightblue" d="M298.47,-60.6C309.5,-50.78 322.34,-39.34 332.19,-30.58"/>
<polygon fill="midnightblue" stroke="midnightblue" points="295.98,-58.13 290.84,-67.4 300.64,-63.36 295.98,-58.13"/>
</g>
<!-- Node8 -->
<g id="node8" class="node">
<title>Node8</title>
<g id="a_node8"><a xlink:href="source_2pdes_2mpi_2poisson_8cc.html" target="_top" xlink:title=" ">
<polygon fill="none" stroke="black" points="416.5,-6 416.5,-25 567.5,-25 567.5,-6 416.5,-6"/>
<text text-anchor="middle" x="492" y="-13" font-family="Helvetica,sans-Serif" font-size="10.00">source/pdes/mpi/poisson.cc</text>
</a>
</g>
</g>
<!-- Node7&#45;&gt;Node8 -->
<g id="edge7" class="edge">
<title>Node7&#45;&gt;Node8</title>
<path fill="none" stroke="midnightblue" d="M501.28,-62.91C498.8,-50.49 495.64,-34.72 493.73,-25.13"/>
<polygon fill="midnightblue" stroke="midnightblue" points="497.85,-63.61 503.25,-72.73 504.72,-62.24 497.85,-63.61"/>
</g>
<!-- Node9 -->
<g id="node9" class="node">
<title>Node9</title>
<g id="a_node9"><a xlink:href="apps_2mpi_2poisson_8cc.html" target="_top" xlink:title=" ">
<polygon fill="none" stroke="black" points="586,-6 586,-25 702,-25 702,-6 586,-6"/>
<text text-anchor="middle" x="644" y="-13" font-family="Helvetica,sans-Serif" font-size="10.00">apps/mpi/poisson.cc</text>
</a>
</g>
</g>
<!-- Node7&#45;&gt;Node9 -->
<g id="edge8" class="edge">
<title>Node7&#45;&gt;Node9</title>
<path fill="none" stroke="midnightblue" d="M532.56,-68.61C560.09,-55.74 601.65,-36.31 625.47,-25.17"/>
<polygon fill="midnightblue" stroke="midnightblue" points="531.03,-65.46 523.46,-72.87 534,-71.8 531.03,-65.46"/>
</g>
<!-- Node11 -->
<g id="node11" class="node">
<title>Node11</title>
<g id="a_node11"><a xlink:href="source_2pdes_2stokes_8cc.html" target="_top" xlink:title=" ">
<polygon fill="none" stroke="black" points="720.5,-6 720.5,-25 843.5,-25 843.5,-6 720.5,-6"/>
<text text-anchor="middle" x="782" y="-13" font-family="Helvetica,sans-Serif" font-size="10.00">source/pdes/stokes.cc</text>
</a>
</g>
</g>
<!-- Node10&#45;&gt;Node11 -->
<g id="edge10" class="edge">
<title>Node10&#45;&gt;Node11</title>
<path fill="none" stroke="midnightblue" d="M782,-62.54C782,-50.17 782,-34.62 782,-25.13"/>
<polygon fill="midnightblue" stroke="midnightblue" points="778.5,-62.73 782,-72.73 785.5,-62.73 778.5,-62.73"/>
</g>
<!-- Node12 -->
<g id="node12" class="node">
<title>Node12</title>
<g id="a_node12"><a xlink:href="apps_2mpi_2stokes_8cc.html" target="_top" xlink:title=" ">
<polygon fill="none" stroke="black" points="862,-6 862,-25 972,-25 972,-6 862,-6"/>
<text text-anchor="middle" x="917" y="-13" font-family="Helvetica,sans-Serif" font-size="10.00">apps/mpi/stokes.cc</text>
</a>
</g>
</g>
<!-- Node10&#45;&gt;Node12 -->
<g id="edge11" class="edge">
<title>Node10&#45;&gt;Node12</title>
<path fill="none" stroke="midnightblue" d="M809.12,-68.44C835.86,-55.57 875.97,-36.26 899,-25.17"/>
<polygon fill="midnightblue" stroke="midnightblue" points="807.42,-65.38 799.93,-72.87 810.46,-71.68 807.42,-65.38"/>
</g>
<!-- Node15 -->
<g id="node15" class="node">
<title>Node15</title>
<g id="a_node15"><a xlink:href="source_2pdes_2serial_2distributed__lagrange_8cc.html" target="_top" xlink:title=" ">
<polygon fill="none" stroke="black" points="861,-67.5 861,-97.5 995,-97.5 995,-67.5 861,-67.5"/>
<text text-anchor="start" x="869" y="-85.5" font-family="Helvetica,sans-Serif" font-size="10.00">source/pdes/serial</text>
<text text-anchor="middle" x="928" y="-74.5" font-family="Helvetica,sans-Serif" font-size="10.00">/distributed_lagrange.cc</text>
</a>
</g>
</g>
<!-- Node14&#45;&gt;Node15 -->
<g id="edge14" class="edge">
<title>Node14&#45;&gt;Node15</title>
<path fill="none" stroke="midnightblue" d="M1034.49,-130.27C1010.92,-119.92 981.86,-107.15 960.05,-97.58"/>
<polygon fill="midnightblue" stroke="midnightblue" points="1033.32,-133.58 1043.89,-134.4 1036.14,-127.17 1033.32,-133.58"/>
</g>
<!-- Node16 -->
<g id="node16" class="node">
<title>Node16</title>
<g id="a_node16"><a xlink:href="apps_2serial_2distributed__lagrange_8cc.html" target="_top" xlink:title=" ">
<polygon fill="none" stroke="black" points="1013.5,-67.5 1013.5,-97.5 1138.5,-97.5 1138.5,-67.5 1013.5,-67.5"/>
<text text-anchor="start" x="1021.5" y="-85.5" font-family="Helvetica,sans-Serif" font-size="10.00">apps/serial/distributed</text>
<text text-anchor="middle" x="1076" y="-74.5" font-family="Helvetica,sans-Serif" font-size="10.00">_lagrange.cc</text>
</a>
</g>
</g>
<!-- Node14&#45;&gt;Node16 -->
<g id="edge15" class="edge">
<title>Node14&#45;&gt;Node16</title>
<path fill="none" stroke="midnightblue" d="M1076,-124.11C1076,-115.15 1076,-105.32 1076,-97.58"/>
<polygon fill="midnightblue" stroke="midnightblue" points="1072.5,-124.4 1076,-134.4 1079.5,-124.4 1072.5,-124.4"/>
</g>
<!-- Node18 -->
<g id="node18" class="node">
<title>Node18</title>
<g id="a_node18"><a xlink:href="source_2pdes_2serial_2poisson_8cc.html" target="_top" xlink:title=" ">
<polygon fill="none" stroke="black" points="1156.5,-67.5 1156.5,-97.5 1261.5,-97.5 1261.5,-67.5 1156.5,-67.5"/>
<text text-anchor="start" x="1164.5" y="-85.5" font-family="Helvetica,sans-Serif" font-size="10.00">source/pdes/serial</text>
<text text-anchor="middle" x="1209" y="-74.5" font-family="Helvetica,sans-Serif" font-size="10.00">/poisson.cc</text>
</a>
</g>
</g>
<!-- Node17&#45;&gt;Node18 -->
<g id="edge17" class="edge">
<title>Node17&#45;&gt;Node18</title>
<path fill="none" stroke="midnightblue" d="M1255.51,-127.31C1245.16,-117.56 1233.16,-106.26 1223.94,-97.58"/>
<polygon fill="midnightblue" stroke="midnightblue" points="1253.35,-130.09 1263.03,-134.4 1258.15,-124.99 1253.35,-130.09"/>
</g>
<!-- Node19 -->
<g id="node19" class="node">
<title>Node19</title>
<g id="a_node19"><a xlink:href="apps_2serial_2poisson_8cc.html" target="_top" xlink:title=" ">
<polygon fill="none" stroke="black" points="1280,-73 1280,-92 1404,-92 1404,-73 1280,-73"/>
<text text-anchor="middle" x="1342" y="-80" font-family="Helvetica,sans-Serif" font-size="10.00">apps/serial/poisson.cc</text>
</a>
</g>
</g>
<!-- Node17&#45;&gt;Node19 -->
<g id="edge18" class="edge">
<title>Node17&#45;&gt;Node19</title>
<path fill="none" stroke="midnightblue" d="M1299.17,-127C1310.85,-115.13 1324.72,-101.05 1333.44,-92.19"/>
<polygon fill="midnightblue" stroke="midnightblue" points="1296.41,-124.81 1291.89,-134.4 1301.4,-129.73 1296.41,-124.81"/>
</g>
<!-- Node21 -->
<g id="node21" class="node">
<title>Node21</title>
<g id="a_node21"><a xlink:href="source_2pdes_2serial_2reduced__lagrange_8cc.html" target="_top" xlink:title=" ">
<polygon fill="none" stroke="black" points="1422,-67.5 1422,-97.5 1542,-97.5 1542,-67.5 1422,-67.5"/>
<text text-anchor="start" x="1430" y="-85.5" font-family="Helvetica,sans-Serif" font-size="10.00">source/pdes/serial</text>
<text text-anchor="middle" x="1482" y="-74.5" font-family="Helvetica,sans-Serif" font-size="10.00">/reduced_lagrange.cc</text>
</a>
</g>
</g>
<!-- Node20&#45;&gt;Node21 -->
<g id="edge20" class="edge">
<title>Node20&#45;&gt;Node21</title>
<path fill="none" stroke="midnightblue" d="M1482,-124.11C1482,-115.15 1482,-105.32 1482,-97.58"/>
<polygon fill="midnightblue" stroke="midnightblue" points="1478.5,-124.4 1482,-134.4 1485.5,-124.4 1478.5,-124.4"/>
</g>
<!-- Node22 -->
<g id="node22" class="node">
<title>Node22</title>
<g id="a_node22"><a xlink:href="apps_2serial_2reduced__lagrange_8cc.html" target="_top" xlink:title=" ">
<polygon fill="none" stroke="black" points="1560,-67.5 1560,-97.5 1672,-97.5 1672,-67.5 1560,-67.5"/>
<text text-anchor="start" x="1568" y="-85.5" font-family="Helvetica,sans-Serif" font-size="10.00">apps/serial/reduced</text>
<text text-anchor="middle" x="1616" y="-74.5" font-family="Helvetica,sans-Serif" font-size="10.00">_lagrange.cc</text>
</a>
</g>
</g>
<!-- Node20&#45;&gt;Node22 -->
<g id="edge21" class="edge">
<title>Node20&#45;&gt;Node22</title>
<path fill="none" stroke="midnightblue" d="M1520.15,-129.99C1541.39,-119.69 1567.41,-107.07 1586.98,-97.58"/>
<polygon fill="midnightblue" stroke="midnightblue" points="1518.55,-126.88 1511.08,-134.4 1521.6,-133.18 1518.55,-126.88"/>
</g>
<!-- Node24 -->
<g id="node24" class="node">
<title>Node24</title>
<g id="a_node24"><a xlink:href="source_2pdes_2serial_2stokes_8cc.html" target="_top" xlink:title=" ">
<polygon fill="none" stroke="black" points="1690.5,-67.5 1690.5,-97.5 1795.5,-97.5 1795.5,-67.5 1690.5,-67.5"/>
<text text-anchor="start" x="1698.5" y="-85.5" font-family="Helvetica,sans-Serif" font-size="10.00">source/pdes/serial</text>
<text text-anchor="middle" x="1743" y="-74.5" font-family="Helvetica,sans-Serif" font-size="10.00">/stokes.cc</text>
</a>
</g>
</g>
<!-- Node23&#45;&gt;Node24 -->
<g id="edge23" class="edge">
<title>Node23&#45;&gt;Node24</title>
<path fill="none" stroke="midnightblue" d="M1698.51,-127.31C1708.41,-117.56 1719.89,-106.26 1728.71,-97.58"/>
<polygon fill="midnightblue" stroke="midnightblue" points="1695.99,-124.89 1691.32,-134.4 1700.9,-129.87 1695.99,-124.89"/>
</g>
<!-- Node25 -->
<g id="node25" class="node">
<title>Node25</title>
<g id="a_node25"><a xlink:href="apps_2serial_2stokes_8cc.html" target="_top" xlink:title=" ">
<polygon fill="none" stroke="black" points="1814,-73 1814,-92 1932,-92 1932,-73 1814,-73"/>
<text text-anchor="middle" x="1873" y="-80" font-family="Helvetica,sans-Serif" font-size="10.00">apps/serial/stokes.cc</text>
</a>
</g>
</g>
<!-- Node23&#45;&gt;Node25 -->
<g id="edge24" class="edge">
<title>Node23&#45;&gt;Node25</title>
<path fill="none" stroke="midnightblue" d="M1729.44,-131.11C1767.58,-118.46 1817.54,-101.89 1847.35,-92.01"/>
<polygon fill="midnightblue" stroke="midnightblue" points="1727.92,-127.93 1719.53,-134.4 1730.12,-134.57 1727.92,-127.93"/>
</g>
</g>
</svg>
