<?xml version="1.0" encoding="UTF-8" standalone="no"?>
<!DOCTYPE svg PUBLIC "-//W3C//DTD SVG 1.1//EN"
 "http://www.w3.org/Graphics/SVG/1.1/DTD/svg11.dtd">
<!-- Generated by graphviz version 2.43.0 (0)
 -->
<!-- Title: include/lac_initializer.h Pages: 1 -->
<svg width="2747pt" height="218pt"
 viewBox="0.00 0.00 2746.50 218.00" xmlns="http://www.w3.org/2000/svg" xmlns:xlink="http://www.w3.org/1999/xlink">
<g id="graph0" class="graph" transform="scale(1 1) rotate(0) translate(4 214)">
<title>include/lac_initializer.h</title>
<!-- Node1 -->
<g id="node1" class="node">
<title>Node1</title>
<g id="a_node1"><a xlink:title=" ">
<polygon fill="#bfbfbf" stroke="black" points="1276,-190.5 1276,-209.5 1404,-209.5 1404,-190.5 1276,-190.5"/>
<text text-anchor="middle" x="1340" y="-197.5" font-family="Helvetica,sans-Serif" font-size="10.00">include/lac_initializer.h</text>
</a>
</g>
</g>
<!-- Node2 -->
<g id="node2" class="node">
<title>Node2</title>
<g id="a_node2"><a target="_parent" xlink:href="http://www.dealii.org/developer/doxygen/deal.II/mpi_8h.html.html" xlink:title=" ">
<polygon fill="none" stroke="black" points="1288,-134.5 1288,-153.5 1332,-153.5 1332,-134.5 1288,-134.5"/>
<text text-anchor="middle" x="1310" y="-141.5" font-family="Helvetica,sans-Serif" font-size="10.00">mpi.h</text>
</a>
</g>
</g>
<!-- Node1&#45;&gt;Node2 -->
<g id="edge1" class="edge">
<title>Node1&#45;&gt;Node2</title>
<path fill="none" stroke="midnightblue" d="M1335.05,-190.08C1330.9,-182.61 1324.85,-171.72 1319.73,-162.52"/>
<polygon fill="midnightblue" stroke="midnightblue" points="1322.78,-160.79 1314.86,-153.75 1316.66,-164.19 1322.78,-160.79"/>
</g>
<!-- Node3 -->
<g id="node3" class="node">
<title>Node3</title>
<g id="a_node3"><a xlink:href="lac_8h.html" target="_top" xlink:title=" ">
<polygon fill="none" stroke="black" points="1350,-134.5 1350,-153.5 1390,-153.5 1390,-134.5 1350,-134.5"/>
<text text-anchor="middle" x="1370" y="-141.5" font-family="Helvetica,sans-Serif" font-size="10.00">lac.h</text>
</a>
</g>
</g>
<!-- Node1&#45;&gt;Node3 -->
<g id="edge2" class="edge">
<title>Node1&#45;&gt;Node3</title>
<path fill="none" stroke="midnightblue" d="M1344.95,-190.08C1349.1,-182.61 1355.15,-171.72 1360.27,-162.52"/>
<polygon fill="midnightblue" stroke="midnightblue" points="1363.34,-164.19 1365.14,-153.75 1357.22,-160.79 1363.34,-164.19"/>
</g>
<!-- Node4 -->
<g id="node4" class="node">
<title>Node4</title>
<g id="a_node4"><a target="_parent" xlink:href="http://www.dealii.org/developer/doxygen/deal.II/config_8h.html.html" xlink:title=" ">
<polygon fill="none" stroke="black" points="186,-6 186,-25 300,-25 300,-6 186,-6"/>
<text text-anchor="middle" x="243" y="-13" font-family="Helvetica,sans-Serif" font-size="10.00">deal.II/base/config.h</text>
</a>
</g>
</g>
<!-- Node3&#45;&gt;Node4 -->
<g id="edge3" class="edge">
<title>Node3&#45;&gt;Node4</title>
<path fill="none" stroke="midnightblue" d="M1349.89,-136C1346.94,-135.19 1343.91,-134.49 1341,-134 1276.7,-123.24 213.39,-144.8 168,-98 145.29,-74.58 185.61,-46.41 215.4,-30.07"/>
<polygon fill="midnightblue" stroke="midnightblue" points="217.4,-32.97 224.61,-25.2 214.13,-26.78 217.4,-32.97"/>
</g>
<!-- Node5 -->
<g id="node5" class="node">
<title>Node5</title>
<g id="a_node5"><a target="_parent" xlink:href="http://www.dealii.org/developer/doxygen/deal.II/block__sparse__matrix_8h.html.html" xlink:title=" ">
<polygon fill="none" stroke="black" points="561.5,-67.5 561.5,-97.5 692.5,-97.5 692.5,-67.5 561.5,-67.5"/>
<text text-anchor="start" x="569.5" y="-85.5" font-family="Helvetica,sans-Serif" font-size="10.00">deal.II/lac/block_sparse</text>
<text text-anchor="middle" x="627" y="-74.5" font-family="Helvetica,sans-Serif" font-size="10.00">_matrix.h</text>
</a>
</g>
</g>
<!-- Node3&#45;&gt;Node5 -->
<g id="edge4" class="edge">
<title>Node3&#45;&gt;Node5</title>
<path fill="none" stroke="midnightblue" d="M1349.88,-136.06C1346.93,-135.25 1343.91,-134.52 1341,-134 1064.35,-84.06 986.11,-131.93 702.93,-97.98"/>
<polygon fill="midnightblue" stroke="midnightblue" points="703.12,-94.47 692.77,-96.74 702.27,-101.42 703.12,-94.47"/>
</g>
<!-- Node6 -->
<g id="node6" class="node">
<title>Node6</title>
<g id="a_node6"><a target="_parent" xlink:href="http://www.dealii.org/developer/doxygen/deal.II/block__sparsity__pattern_8h.html.html" xlink:title=" ">
<polygon fill="none" stroke="black" points="710.5,-67.5 710.5,-97.5 847.5,-97.5 847.5,-67.5 710.5,-67.5"/>
<text text-anchor="start" x="718.5" y="-85.5" font-family="Helvetica,sans-Serif" font-size="10.00">deal.II/lac/block_sparsity</text>
<text text-anchor="middle" x="779" y="-74.5" font-family="Helvetica,sans-Serif" font-size="10.00">_pattern.h</text>
</a>
</g>
</g>
<!-- Node3&#45;&gt;Node6 -->
<g id="edge5" class="edge">
<title>Node3&#45;&gt;Node6</title>
<path fill="none" stroke="midnightblue" d="M1349.87,-136.11C1346.92,-135.29 1343.9,-134.55 1341,-134 1132.29,-94.38 1072.71,-124.8 857.86,-98"/>
<polygon fill="midnightblue" stroke="midnightblue" points="858.2,-94.51 847.84,-96.72 857.32,-101.46 858.2,-94.51"/>
</g>
<!-- Node7 -->
<g id="node7" class="node">
<title>Node7</title>
<g id="a_node7"><a target="_parent" xlink:href="http://www.dealii.org/developer/doxygen/deal.II/block__vector_8h.html.html" xlink:title=" ">
<polygon fill="none" stroke="black" points="865.5,-73 865.5,-92 1002.5,-92 1002.5,-73 865.5,-73"/>
<text text-anchor="middle" x="934" y="-80" font-family="Helvetica,sans-Serif" font-size="10.00">deal.II/lac/block_vector.h</text>
</a>
</g>
</g>
<!-- Node3&#45;&gt;Node7 -->
<g id="edge6" class="edge">
<title>Node3&#45;&gt;Node7</title>
<path fill="none" stroke="midnightblue" d="M1349.85,-136.2C1346.9,-135.37 1343.89,-134.6 1341,-134 1196.98,-104.06 1157.52,-119.46 1012,-98 1003.86,-96.8 995.28,-95.37 986.9,-93.88"/>
<polygon fill="midnightblue" stroke="midnightblue" points="987.28,-90.4 976.82,-92.06 986.03,-97.29 987.28,-90.4"/>
</g>
<!-- Node8 -->
<g id="node8" class="node">
<title>Node8</title>
<g id="a_node8"><a target="_parent" xlink:href="http://www.dealii.org/developer/doxygen/deal.II/sparse__direct_8h.html.html" xlink:title=" ">
<polygon fill="none" stroke="black" points="1020.5,-67.5 1020.5,-97.5 1119.5,-97.5 1119.5,-67.5 1020.5,-67.5"/>
<text text-anchor="start" x="1028.5" y="-85.5" font-family="Helvetica,sans-Serif" font-size="10.00">deal.II/lac/sparse</text>
<text text-anchor="middle" x="1070" y="-74.5" font-family="Helvetica,sans-Serif" font-size="10.00">_direct.h</text>
</a>
</g>
</g>
<!-- Node3&#45;&gt;Node8 -->
<g id="edge7" class="edge">
<title>Node3&#45;&gt;Node8</title>
<path fill="none" stroke="midnightblue" d="M1349.81,-136.36C1346.87,-135.5 1343.87,-134.69 1341,-134 1251.13,-112.53 1224.34,-117.07 1129.53,-98"/>
<polygon fill="midnightblue" stroke="midnightblue" points="1130.01,-94.52 1119.51,-95.95 1128.61,-101.38 1130.01,-94.52"/>
</g>
<!-- Node9 -->
<g id="node9" class="node">
<title>Node9</title>
<g id="a_node9"><a target="_parent" xlink:href="http://www.dealii.org/developer/doxygen/deal.II/sparse__matrix_8h.html.html" xlink:title=" ">
<polygon fill="none" stroke="black" points="1137.5,-67.5 1137.5,-97.5 1236.5,-97.5 1236.5,-67.5 1137.5,-67.5"/>
<text text-anchor="start" x="1145.5" y="-85.5" font-family="Helvetica,sans-Serif" font-size="10.00">deal.II/lac/sparse</text>
<text text-anchor="middle" x="1187" y="-74.5" font-family="Helvetica,sans-Serif" font-size="10.00">_matrix.h</text>
</a>
</g>
</g>
<!-- Node3&#45;&gt;Node9 -->
<g id="edge8" class="edge">
<title>Node3&#45;&gt;Node9</title>
<path fill="none" stroke="midnightblue" d="M1349.72,-136.41C1323.41,-127.85 1276.53,-112.61 1239.83,-100.68"/>
<polygon fill="midnightblue" stroke="midnightblue" points="1240.85,-97.33 1230.26,-97.57 1238.69,-103.99 1240.85,-97.33"/>
</g>
<!-- Node10 -->
<g id="node10" class="node">
<title>Node10</title>
<g id="a_node10"><a target="_parent" xlink:href="http://www.dealii.org/developer/doxygen/deal.II/sparsity__pattern_8h.html.html" xlink:title=" ">
<polygon fill="none" stroke="black" points="1255,-67.5 1255,-97.5 1361,-97.5 1361,-67.5 1255,-67.5"/>
<text text-anchor="start" x="1263" y="-85.5" font-family="Helvetica,sans-Serif" font-size="10.00">deal.II/lac/sparsity</text>
<text text-anchor="middle" x="1308" y="-74.5" font-family="Helvetica,sans-Serif" font-size="10.00">_pattern.h</text>
</a>
</g>
</g>
<!-- Node3&#45;&gt;Node10 -->
<g id="edge9" class="edge">
<title>Node3&#45;&gt;Node10</title>
<path fill="none" stroke="midnightblue" d="M1361.12,-134.48C1353.03,-126.72 1340.76,-114.94 1330.05,-104.66"/>
<polygon fill="midnightblue" stroke="midnightblue" points="1332.25,-101.92 1322.61,-97.52 1327.4,-106.97 1332.25,-101.92"/>
</g>
<!-- Node11 -->
<g id="node11" class="node">
<title>Node11</title>
<g id="a_node11"><a target="_parent" xlink:href="http://www.dealii.org/developer/doxygen/deal.II/vector_8h.html.html" xlink:title=" ">
<polygon fill="none" stroke="black" points="1379,-73 1379,-92 1485,-92 1485,-73 1379,-73"/>
<text text-anchor="middle" x="1432" y="-80" font-family="Helvetica,sans-Serif" font-size="10.00">deal.II/lac/vector.h</text>
</a>
</g>
</g>
<!-- Node3&#45;&gt;Node11 -->
<g id="edge10" class="edge">
<title>Node3&#45;&gt;Node11</title>
<path fill="none" stroke="midnightblue" d="M1378.88,-134.48C1388.46,-125.28 1403.91,-110.46 1415.69,-99.16"/>
<polygon fill="midnightblue" stroke="midnightblue" points="1418.34,-101.46 1423.13,-92.01 1413.49,-96.41 1418.34,-101.46"/>
</g>
<!-- Node12 -->
<g id="node12" class="node">
<title>Node12</title>
<g id="a_node12"><a target="_parent" xlink:href="http://www.dealii.org/developer/doxygen/deal.II/petsc__block__sparse__matrix_8h.html.html" xlink:title=" ">
<polygon fill="none" stroke="black" points="1503.5,-67.5 1503.5,-97.5 1628.5,-97.5 1628.5,-67.5 1503.5,-67.5"/>
<text text-anchor="start" x="1511.5" y="-85.5" font-family="Helvetica,sans-Serif" font-size="10.00">deal.II/lac/petsc_block</text>
<text text-anchor="middle" x="1566" y="-74.5" font-family="Helvetica,sans-Serif" font-size="10.00">_sparse_matrix.h</text>
</a>
</g>
</g>
<!-- Node3&#45;&gt;Node12 -->
<g id="edge11" class="edge">
<title>Node3&#45;&gt;Node12</title>
<path fill="none" stroke="midnightblue" d="M1390.24,-136.86C1418.25,-128.35 1469.91,-112.67 1510.01,-100.5"/>
<polygon fill="midnightblue" stroke="midnightblue" points="1511.12,-103.82 1519.67,-97.56 1509.09,-97.12 1511.12,-103.82"/>
</g>
<!-- Node13 -->
<g id="node13" class="node">
<title>Node13</title>
<g id="a_node13"><a target="_parent" xlink:href="http://www.dealii.org/developer/doxygen/deal.II/petsc__block__vector_8h.html.html" xlink:title=" ">
<polygon fill="none" stroke="black" points="1646.5,-67.5 1646.5,-97.5 1771.5,-97.5 1771.5,-67.5 1646.5,-67.5"/>
<text text-anchor="start" x="1654.5" y="-85.5" font-family="Helvetica,sans-Serif" font-size="10.00">deal.II/lac/petsc_block</text>
<text text-anchor="middle" x="1709" y="-74.5" font-family="Helvetica,sans-Serif" font-size="10.00">_vector.h</text>
</a>
</g>
</g>
<!-- Node3&#45;&gt;Node13 -->
<g id="edge12" class="edge">
<title>Node3&#45;&gt;Node13</title>
<path fill="none" stroke="midnightblue" d="M1390.21,-139.85C1433.47,-133.07 1538.42,-116.33 1636.25,-98.29"/>
<polygon fill="midnightblue" stroke="midnightblue" points="1637.11,-101.69 1646.3,-96.43 1635.83,-94.81 1637.11,-101.69"/>
</g>
<!-- Node14 -->
<g id="node14" class="node">
<title>Node14</title>
<g id="a_node14"><a target="_parent" xlink:href="http://www.dealii.org/developer/doxygen/deal.II/petsc__solver_8h.html.html" xlink:title=" ">
<polygon fill="none" stroke="black" points="1789.5,-73 1789.5,-92 1926.5,-92 1926.5,-73 1789.5,-73"/>
<text text-anchor="middle" x="1858" y="-80" font-family="Helvetica,sans-Serif" font-size="10.00">deal.II/lac/petsc_solver.h</text>
</a>
</g>
</g>
<!-- Node3&#45;&gt;Node14 -->
<g id="edge13" class="edge">
<title>Node3&#45;&gt;Node14</title>
<path fill="none" stroke="midnightblue" d="M1390.17,-141.35C1449.99,-136.32 1631.54,-120.22 1781,-98 1789.04,-96.81 1797.51,-95.38 1805.79,-93.89"/>
<polygon fill="midnightblue" stroke="midnightblue" points="1806.53,-97.32 1815.74,-92.07 1805.27,-90.43 1806.53,-97.32"/>
</g>
<!-- Node15 -->
<g id="node15" class="node">
<title>Node15</title>
<g id="a_node15"><a target="_parent" xlink:href="http://www.dealii.org/developer/doxygen/deal.II/petsc__sparse__matrix_8h.html.html" xlink:title=" ">
<polygon fill="none" stroke="black" points="1944.5,-67.5 1944.5,-97.5 2075.5,-97.5 2075.5,-67.5 1944.5,-67.5"/>
<text text-anchor="start" x="1952.5" y="-85.5" font-family="Helvetica,sans-Serif" font-size="10.00">deal.II/lac/petsc_sparse</text>
<text text-anchor="middle" x="2010" y="-74.5" font-family="Helvetica,sans-Serif" font-size="10.00">_matrix.h</text>
</a>
</g>
</g>
<!-- Node3&#45;&gt;Node15 -->
<g id="edge14" class="edge">
<title>Node3&#45;&gt;Node15</title>
<path fill="none" stroke="midnightblue" d="M1390.14,-142.23C1462.44,-139.3 1715.76,-127.52 1934.25,-98.15"/>
<polygon fill="midnightblue" stroke="midnightblue" points="1934.86,-101.59 1944.3,-96.78 1933.92,-94.66 1934.86,-101.59"/>
</g>
<!-- Node16 -->
<g id="node16" class="node">
<title>Node16</title>
<g id="a_node16"><a target="_parent" xlink:href="http://www.dealii.org/developer/doxygen/deal.II/petsc__vector_8h.html.html" xlink:title=" ">
<polygon fill="none" stroke="black" points="2093.5,-73 2093.5,-92 2230.5,-92 2230.5,-73 2093.5,-73"/>
<text text-anchor="middle" x="2162" y="-80" font-family="Helvetica,sans-Serif" font-size="10.00">deal.II/lac/petsc_vector.h</text>
</a>
</g>
</g>
<!-- Node3&#45;&gt;Node16 -->
<g id="edge15" class="edge">
<title>Node3&#45;&gt;Node16</title>
<path fill="none" stroke="midnightblue" d="M1390.27,-142.64C1475.29,-140.93 1811.33,-132.25 2085,-98 2093.73,-96.91 2102.96,-95.44 2111.88,-93.86"/>
<polygon fill="midnightblue" stroke="midnightblue" points="2112.58,-97.29 2121.79,-92.04 2111.32,-90.41 2112.58,-97.29"/>
</g>
<!-- Node17 -->
<g id="node17" class="node">
<title>Node17</title>
<g id="a_node17"><a target="_parent" xlink:href="http://www.dealii.org/developer/doxygen/deal.II/trilinos__block__sparse__matrix_8h.html.html" xlink:title=" ">
<polygon fill="none" stroke="black" points="2249,-67.5 2249,-97.5 2381,-97.5 2381,-67.5 2249,-67.5"/>
<text text-anchor="start" x="2257" y="-85.5" font-family="Helvetica,sans-Serif" font-size="10.00">deal.II/lac/trilinos</text>
<text text-anchor="middle" x="2315" y="-74.5" font-family="Helvetica,sans-Serif" font-size="10.00">_block_sparse_matrix.h</text>
</a>
</g>
</g>
<!-- Node3&#45;&gt;Node17 -->
<g id="edge16" class="edge">
<title>Node3&#45;&gt;Node17</title>
<path fill="none" stroke="midnightblue" d="M1390,-142.99C1484.3,-142.75 1893.92,-139.3 2238.9,-98.01"/>
<polygon fill="midnightblue" stroke="midnightblue" points="2239.32,-101.49 2248.83,-96.81 2238.48,-94.54 2239.32,-101.49"/>
</g>
<!-- Node18 -->
<g id="node18" class="node">
<title>Node18</title>
<g id="a_node18"><a target="_parent" xlink:href="http://www.dealii.org/developer/doxygen/deal.II/trilinos__solver_8h.html.html" xlink:title=" ">
<polygon fill="none" stroke="black" points="2399.5,-67.5 2399.5,-97.5 2500.5,-97.5 2500.5,-67.5 2399.5,-67.5"/>
<text text-anchor="start" x="2407.5" y="-85.5" font-family="Helvetica,sans-Serif" font-size="10.00">deal.II/lac/trilinos</text>
<text text-anchor="middle" x="2450" y="-74.5" font-family="Helvetica,sans-Serif" font-size="10.00">_solver.h</text>
</a>
</g>
</g>
<!-- Node3&#45;&gt;Node18 -->
<g id="edge17" class="edge">
<title>Node3&#45;&gt;Node18</title>
<path fill="none" stroke="midnightblue" d="M1390.25,-142.64C1513.66,-140.37 2166.44,-127.19 2389.42,-97.82"/>
<polygon fill="midnightblue" stroke="midnightblue" points="2389.96,-101.28 2399.39,-96.46 2389.01,-94.35 2389.96,-101.28"/>
</g>
<!-- Node19 -->
<g id="node19" class="node">
<title>Node19</title>
<g id="a_node19"><a target="_parent" xlink:href="http://www.dealii.org/developer/doxygen/deal.II/trilinos__sparse__matrix_8h.html.html" xlink:title=" ">
<polygon fill="none" stroke="black" points="2518.5,-67.5 2518.5,-97.5 2619.5,-97.5 2619.5,-67.5 2518.5,-67.5"/>
<text text-anchor="start" x="2526.5" y="-85.5" font-family="Helvetica,sans-Serif" font-size="10.00">deal.II/lac/trilinos</text>
<text text-anchor="middle" x="2569" y="-74.5" font-family="Helvetica,sans-Serif" font-size="10.00">_sparse_matrix.h</text>
</a>
</g>
</g>
<!-- Node3&#45;&gt;Node19 -->
<g id="edge18" class="edge">
<title>Node3&#45;&gt;Node19</title>
<path fill="none" stroke="midnightblue" d="M1390.42,-142.76C1522.75,-141.1 2260.93,-130.54 2508.28,-98.02"/>
<polygon fill="midnightblue" stroke="midnightblue" points="2508.84,-101.47 2518.28,-96.65 2507.9,-94.54 2508.84,-101.47"/>
</g>
<!-- Node20 -->
<g id="node20" class="node">
<title>Node20</title>
<g id="a_node20"><a target="_parent" xlink:href="http://www.dealii.org/developer/doxygen/deal.II/trilinos__vector_8h.html.html" xlink:title=" ">
<polygon fill="none" stroke="black" points="2637.5,-67.5 2637.5,-97.5 2738.5,-97.5 2738.5,-67.5 2637.5,-67.5"/>
<text text-anchor="start" x="2645.5" y="-85.5" font-family="Helvetica,sans-Serif" font-size="10.00">deal.II/lac/trilinos</text>
<text text-anchor="middle" x="2688" y="-74.5" font-family="Helvetica,sans-Serif" font-size="10.00">_vector.h</text>
</a>
</g>
</g>
<!-- Node3&#45;&gt;Node20 -->
<g id="edge19" class="edge">
<title>Node3&#45;&gt;Node20</title>
<path fill="none" stroke="midnightblue" d="M1390.23,-142.85C1529.93,-141.7 2353.97,-133.54 2627.02,-98.05"/>
<polygon fill="midnightblue" stroke="midnightblue" points="2627.84,-101.47 2637.28,-96.67 2626.9,-94.53 2627.84,-101.47"/>
</g>
<!-- Node21 -->
<g id="node21" class="node">
<title>Node21</title>
<g id="a_node21"><a xlink:href="amg_8h.html" target="_top" xlink:title=" ">
<polygon fill="none" stroke="black" points="329.5,-73 329.5,-92 432.5,-92 432.5,-73 329.5,-73"/>
<text text-anchor="middle" x="381" y="-80" font-family="Helvetica,sans-Serif" font-size="10.00">parsed_lac/amg.h</text>
</a>
</g>
</g>
<!-- Node3&#45;&gt;Node21 -->
<g id="edge20" class="edge">
<title>Node3&#45;&gt;Node21</title>
<path fill="none" stroke="midnightblue" d="M1349.88,-136.02C1346.93,-135.21 1343.91,-134.5 1341,-134 946.92,-66.16 838.15,-152.49 442,-98 435.49,-97.1 428.66,-95.82 422.02,-94.39"/>
<polygon fill="midnightblue" stroke="midnightblue" points="422.34,-90.88 411.81,-92.05 420.78,-97.7 422.34,-90.88"/>
</g>
<!-- Node24 -->
<g id="node24" class="node">
<title>Node24</title>
<g id="a_node24"><a xlink:href="amg__petsc_8h.html" target="_top" xlink:title=" ">
<polygon fill="none" stroke="black" points="177,-73 177,-92 311,-92 311,-73 177,-73"/>
<text text-anchor="middle" x="244" y="-80" font-family="Helvetica,sans-Serif" font-size="10.00">parsed_lac/amg_petsc.h</text>
</a>
</g>
</g>
<!-- Node3&#45;&gt;Node24 -->
<g id="edge24" class="edge">
<title>Node3&#45;&gt;Node24</title>
<path fill="none" stroke="midnightblue" d="M1349.89,-136.01C1346.94,-135.2 1343.91,-134.49 1341,-134 893.34,-58.04 771.22,-148.7 320,-98 311.08,-97 301.63,-95.53 292.55,-93.91"/>
<polygon fill="midnightblue" stroke="midnightblue" points="292.96,-90.43 282.49,-92.03 291.68,-97.31 292.96,-90.43"/>
</g>
<!-- Node26 -->
<g id="node26" class="node">
<title>Node26</title>
<g id="a_node26"><a xlink:href="ilu_8h.html" target="_top" xlink:title=" ">
<polygon fill="none" stroke="black" points="450.5,-73 450.5,-92 543.5,-92 543.5,-73 450.5,-73"/>
<text text-anchor="middle" x="497" y="-80" font-family="Helvetica,sans-Serif" font-size="10.00">parsed_lac/ilu.h</text>
</a>
</g>
</g>
<!-- Node3&#45;&gt;Node26 -->
<g id="edge28" class="edge">
<title>Node3&#45;&gt;Node26</title>
<path fill="none" stroke="midnightblue" d="M1349.88,-136.04C1346.93,-135.23 1343.91,-134.51 1341,-134 995.66,-73.55 899.68,-150.22 553,-98 547.15,-97.12 541.02,-95.87 535.06,-94.48"/>
<polygon fill="midnightblue" stroke="midnightblue" points="535.8,-91.06 525.25,-92.03 534.11,-97.85 535.8,-91.06"/>
</g>
<!-- Node21&#45;&gt;Node4 -->
<g id="edge21" class="edge">
<title>Node21&#45;&gt;Node4</title>
<path fill="none" stroke="midnightblue" d="M362.67,-72.87C339.06,-61.75 297.81,-42.32 270.45,-29.43"/>
<polygon fill="midnightblue" stroke="midnightblue" points="271.94,-26.26 261.4,-25.17 268.96,-32.59 271.94,-26.26"/>
</g>
<!-- Node22 -->
<g id="node22" class="node">
<title>Node22</title>
<g id="a_node22"><a target="_parent" xlink:href="http://www.dealii.org/developer/doxygen/deal.II/parameter__acceptor_8h.html.html" xlink:title=" ">
<polygon fill="none" stroke="black" points="318.5,-0.5 318.5,-30.5 445.5,-30.5 445.5,-0.5 318.5,-0.5"/>
<text text-anchor="start" x="326.5" y="-18.5" font-family="Helvetica,sans-Serif" font-size="10.00">deal.II/base/parameter</text>
<text text-anchor="middle" x="382" y="-7.5" font-family="Helvetica,sans-Serif" font-size="10.00">_acceptor.h</text>
</a>
</g>
</g>
<!-- Node21&#45;&gt;Node22 -->
<g id="edge22" class="edge">
<title>Node21&#45;&gt;Node22</title>
<path fill="none" stroke="midnightblue" d="M381.13,-72.73C381.26,-64.54 381.46,-51.92 381.63,-40.71"/>
<polygon fill="midnightblue" stroke="midnightblue" points="385.13,-40.64 381.78,-30.59 378.13,-40.53 385.13,-40.64"/>
</g>
<!-- Node23 -->
<g id="node23" class="node">
<title>Node23</title>
<g id="a_node23"><a target="_parent" xlink:href="http://www.dealii.org/developer/doxygen/deal.II/trilinos__precondition_8h.html.html" xlink:title=" ">
<polygon fill="none" stroke="black" points="463.5,-0.5 463.5,-30.5 564.5,-30.5 564.5,-0.5 463.5,-0.5"/>
<text text-anchor="start" x="471.5" y="-18.5" font-family="Helvetica,sans-Serif" font-size="10.00">deal.II/lac/trilinos</text>
<text text-anchor="middle" x="514" y="-7.5" font-family="Helvetica,sans-Serif" font-size="10.00">_precondition.h</text>
</a>
</g>
</g>
<!-- Node21&#45;&gt;Node23 -->
<g id="edge23" class="edge">
<title>Node21&#45;&gt;Node23</title>
<path fill="none" stroke="midnightblue" d="M398.66,-72.87C418.36,-63.24 450.8,-47.39 476.27,-34.94"/>
<polygon fill="midnightblue" stroke="midnightblue" points="477.85,-38.06 485.3,-30.53 474.78,-31.77 477.85,-38.06"/>
</g>
<!-- Node24&#45;&gt;Node4 -->
<g id="edge25" class="edge">
<title>Node24&#45;&gt;Node4</title>
<path fill="none" stroke="midnightblue" d="M243.87,-72.73C243.72,-63.18 243.48,-47.62 243.29,-35.28"/>
<polygon fill="midnightblue" stroke="midnightblue" points="246.79,-35.07 243.13,-25.13 239.79,-35.18 246.79,-35.07"/>
</g>
<!-- Node24&#45;&gt;Node22 -->
<g id="edge26" class="edge">
<title>Node24&#45;&gt;Node22</title>
<path fill="none" stroke="midnightblue" d="M262.33,-72.87C282.76,-63.24 316.42,-47.39 342.85,-34.94"/>
<polygon fill="midnightblue" stroke="midnightblue" points="344.66,-37.96 352.22,-30.53 341.68,-31.62 344.66,-37.96"/>
</g>
<!-- Node25 -->
<g id="node25" class="node">
<title>Node25</title>
<g id="a_node25"><a target="_parent" xlink:href="http://www.dealii.org/developer/doxygen/deal.II/petsc__precondition_8h.html.html" xlink:title=" ">
<polygon fill="none" stroke="black" points="0,-6 0,-25 168,-25 168,-6 0,-6"/>
<text text-anchor="middle" x="84" y="-13" font-family="Helvetica,sans-Serif" font-size="10.00">deal.II/lac/petsc_precondition.h</text>
</a>
</g>
</g>
<!-- Node24&#45;&gt;Node25 -->
<g id="edge27" class="edge">
<title>Node24&#45;&gt;Node25</title>
<path fill="none" stroke="midnightblue" d="M222.75,-72.87C195.06,-61.62 146.44,-41.87 114.73,-28.99"/>
<polygon fill="midnightblue" stroke="midnightblue" points="115.66,-25.58 105.08,-25.06 113.03,-32.07 115.66,-25.58"/>
</g>
<!-- Node26&#45;&gt;Node4 -->
<g id="edge29" class="edge">
<title>Node26&#45;&gt;Node4</title>
<path fill="none" stroke="midnightblue" d="M464.73,-72.94C457.27,-70.97 449.36,-68.9 442,-67 388.72,-53.22 327.31,-37.69 286.97,-27.53"/>
<polygon fill="midnightblue" stroke="midnightblue" points="287.73,-24.12 277.18,-25.07 286.03,-30.91 287.73,-24.12"/>
</g>
<!-- Node26&#45;&gt;Node22 -->
<g id="edge30" class="edge">
<title>Node26&#45;&gt;Node22</title>
<path fill="none" stroke="midnightblue" d="M481.49,-72.73C464.75,-63.27 437.58,-47.91 415.86,-35.64"/>
<polygon fill="midnightblue" stroke="midnightblue" points="417.35,-32.46 406.93,-30.59 413.91,-38.56 417.35,-32.46"/>
</g>
<!-- Node26&#45;&gt;Node23 -->
<g id="edge31" class="edge">
<title>Node26&#45;&gt;Node23</title>
<path fill="none" stroke="midnightblue" d="M499.29,-72.73C501.46,-64.46 504.8,-51.66 507.76,-40.37"/>
<polygon fill="midnightblue" stroke="midnightblue" points="511.17,-41.15 510.32,-30.59 504.4,-39.38 511.17,-41.15"/>
</g>
</g>
</svg>
