<?xml version="1.0" encoding="UTF-8" standalone="no"?>
<!DOCTYPE svg PUBLIC "-//W3C//DTD SVG 1.1//EN"
 "http://www.w3.org/Graphics/SVG/1.1/DTD/svg11.dtd">
<!-- Generated by graphviz version 2.43.0 (0)
 -->
<!-- Title: include/lac_initializer.h Pages: 1 -->
<svg width="2751pt" height="218pt"
 viewBox="0.00 0.00 2750.50 218.00" xmlns="http://www.w3.org/2000/svg" xmlns:xlink="http://www.w3.org/1999/xlink">
<g id="graph0" class="graph" transform="scale(1 1) rotate(0) translate(4 214)">
<title>include/lac_initializer.h</title>
<!-- Node1 -->
<g id="node1" class="node">
<title>Node1</title>
<g id="a_node1"><a xlink:title=" ">
<polygon fill="#bfbfbf" stroke="black" points="1277.5,-190.5 1277.5,-209.5 1406.5,-209.5 1406.5,-190.5 1277.5,-190.5"/>
<text text-anchor="middle" x="1342" y="-197.5" font-family="Helvetica,sans-Serif" font-size="10.00">include/lac_initializer.h</text>
</a>
</g>
</g>
<!-- Node2 -->
<g id="node2" class="node">
<title>Node2</title>
<g id="a_node2"><a xlink:href="http://www.dealii.org/developer/doxygen/deal.II/mpi_8h.html.html" xlink:title=" ">
<polygon fill="none" stroke="black" points="1290,-134.5 1290,-153.5 1334,-153.5 1334,-134.5 1290,-134.5"/>
<text text-anchor="middle" x="1312" y="-141.5" font-family="Helvetica,sans-Serif" font-size="10.00">mpi.h</text>
</a>
</g>
</g>
<!-- Node1&#45;&gt;Node2 -->
<g id="edge1" class="edge">
<title>Node1&#45;&gt;Node2</title>
<path fill="none" stroke="midnightblue" d="M1337.05,-190.08C1332.9,-182.61 1326.85,-171.72 1321.73,-162.52"/>
<polygon fill="midnightblue" stroke="midnightblue" points="1324.78,-160.79 1316.86,-153.75 1318.66,-164.19 1324.78,-160.79"/>
</g>
<!-- Node3 -->
<g id="node3" class="node">
<title>Node3</title>
<g id="a_node3"><a xlink:href="lac_8h.html" target="_top" xlink:title=" ">
<polygon fill="none" stroke="black" points="1352,-134.5 1352,-153.5 1392,-153.5 1392,-134.5 1352,-134.5"/>
<text text-anchor="middle" x="1372" y="-141.5" font-family="Helvetica,sans-Serif" font-size="10.00">lac.h</text>
</a>
</g>
</g>
<!-- Node1&#45;&gt;Node3 -->
<g id="edge2" class="edge">
<title>Node1&#45;&gt;Node3</title>
<path fill="none" stroke="midnightblue" d="M1346.95,-190.08C1351.1,-182.61 1357.15,-171.72 1362.27,-162.52"/>
<polygon fill="midnightblue" stroke="midnightblue" points="1365.34,-164.19 1367.14,-153.75 1359.22,-160.79 1365.34,-164.19"/>
</g>
<!-- Node4 -->
<g id="node4" class="node">
<title>Node4</title>
<g id="a_node4"><a xlink:href="http://www.dealii.org/developer/doxygen/deal.II/config_8h.html.html" xlink:title=" ">
<polygon fill="none" stroke="black" points="185.5,-6 185.5,-25 300.5,-25 300.5,-6 185.5,-6"/>
<text text-anchor="middle" x="243" y="-13" font-family="Helvetica,sans-Serif" font-size="10.00">deal.II/base/config.h</text>
</a>
</g>
</g>
<!-- Node3&#45;&gt;Node4 -->
<g id="edge3" class="edge">
<title>Node3&#45;&gt;Node4</title>
<path fill="none" stroke="midnightblue" d="M1351.89,-136C1348.94,-135.19 1345.91,-134.49 1343,-134 1278.59,-123.22 213.47,-144.88 168,-98 145.29,-74.58 185.61,-46.41 215.4,-30.07"/>
<polygon fill="midnightblue" stroke="midnightblue" points="217.4,-32.97 224.61,-25.2 214.13,-26.78 217.4,-32.97"/>
</g>
<!-- Node5 -->
<g id="node5" class="node">
<title>Node5</title>
<g id="a_node5"><a xlink:href="http://www.dealii.org/developer/doxygen/deal.II/block__sparse__matrix_8h.html.html" xlink:title=" ">
<polygon fill="none" stroke="black" points="561.5,-67.5 561.5,-97.5 692.5,-97.5 692.5,-67.5 561.5,-67.5"/>
<text text-anchor="start" x="569.5" y="-85.5" font-family="Helvetica,sans-Serif" font-size="10.00">deal.II/lac/block_sparse</text>
<text text-anchor="middle" x="627" y="-74.5" font-family="Helvetica,sans-Serif" font-size="10.00">_matrix.h</text>
</a>
</g>
</g>
<!-- Node3&#45;&gt;Node5 -->
<g id="edge4" class="edge">
<title>Node3&#45;&gt;Node5</title>
<path fill="none" stroke="midnightblue" d="M1351.88,-136.06C1348.93,-135.25 1345.91,-134.52 1343,-134 1065.49,-83.93 987,-132.01 702.96,-97.98"/>
<polygon fill="midnightblue" stroke="midnightblue" points="703.12,-94.47 692.77,-96.74 702.27,-101.42 703.12,-94.47"/>
</g>
<!-- Node6 -->
<g id="node6" class="node">
<title>Node6</title>
<g id="a_node6"><a xlink:href="http://www.dealii.org/developer/doxygen/deal.II/block__sparsity__pattern_8h.html.html" xlink:title=" ">
<polygon fill="none" stroke="black" points="710.5,-67.5 710.5,-97.5 847.5,-97.5 847.5,-67.5 710.5,-67.5"/>
<text text-anchor="start" x="718.5" y="-85.5" font-family="Helvetica,sans-Serif" font-size="10.00">deal.II/lac/block_sparsity</text>
<text text-anchor="middle" x="779" y="-74.5" font-family="Helvetica,sans-Serif" font-size="10.00">_pattern.h</text>
</a>
</g>
</g>
<!-- Node3&#45;&gt;Node6 -->
<g id="edge5" class="edge">
<title>Node3&#45;&gt;Node6</title>
<path fill="none" stroke="midnightblue" d="M1351.87,-136.11C1348.92,-135.29 1345.9,-134.55 1343,-134 1133.42,-94.25 1073.6,-124.88 857.9,-98"/>
<polygon fill="midnightblue" stroke="midnightblue" points="858.2,-94.51 847.84,-96.72 857.32,-101.46 858.2,-94.51"/>
</g>
<!-- Node7 -->
<g id="node7" class="node">
<title>Node7</title>
<g id="a_node7"><a xlink:href="http://www.dealii.org/developer/doxygen/deal.II/block__vector_8h.html.html" xlink:title=" ">
<polygon fill="none" stroke="black" points="866,-73 866,-92 1004,-92 1004,-73 866,-73"/>
<text text-anchor="middle" x="935" y="-80" font-family="Helvetica,sans-Serif" font-size="10.00">deal.II/lac/block_vector.h</text>
</a>
</g>
</g>
<!-- Node3&#45;&gt;Node7 -->
<g id="edge6" class="edge">
<title>Node3&#45;&gt;Node7</title>
<path fill="none" stroke="midnightblue" d="M1351.85,-136.2C1348.9,-135.37 1345.89,-134.6 1343,-134 1198.98,-104.06 1159.55,-119.29 1014,-98 1005.67,-96.78 996.87,-95.33 988.3,-93.83"/>
<polygon fill="midnightblue" stroke="midnightblue" points="988.83,-90.37 978.37,-92.04 987.59,-97.26 988.83,-90.37"/>
</g>
<!-- Node8 -->
<g id="node8" class="node">
<title>Node8</title>
<g id="a_node8"><a xlink:href="http://www.dealii.org/developer/doxygen/deal.II/sparse__direct_8h.html.html" xlink:title=" ">
<polygon fill="none" stroke="black" points="1022.5,-67.5 1022.5,-97.5 1121.5,-97.5 1121.5,-67.5 1022.5,-67.5"/>
<text text-anchor="start" x="1030.5" y="-85.5" font-family="Helvetica,sans-Serif" font-size="10.00">deal.II/lac/sparse</text>
<text text-anchor="middle" x="1072" y="-74.5" font-family="Helvetica,sans-Serif" font-size="10.00">_direct.h</text>
</a>
</g>
</g>
<!-- Node3&#45;&gt;Node8 -->
<g id="edge7" class="edge">
<title>Node3&#45;&gt;Node8</title>
<path fill="none" stroke="midnightblue" d="M1351.81,-136.36C1348.87,-135.5 1345.87,-134.69 1343,-134 1253.13,-112.53 1226.34,-117.07 1131.53,-98"/>
<polygon fill="midnightblue" stroke="midnightblue" points="1132.01,-94.52 1121.51,-95.95 1130.61,-101.38 1132.01,-94.52"/>
</g>
<!-- Node9 -->
<g id="node9" class="node">
<title>Node9</title>
<g id="a_node9"><a xlink:href="http://www.dealii.org/developer/doxygen/deal.II/sparse__matrix_8h.html.html" xlink:title=" ">
<polygon fill="none" stroke="black" points="1139.5,-67.5 1139.5,-97.5 1238.5,-97.5 1238.5,-67.5 1139.5,-67.5"/>
<text text-anchor="start" x="1147.5" y="-85.5" font-family="Helvetica,sans-Serif" font-size="10.00">deal.II/lac/sparse</text>
<text text-anchor="middle" x="1189" y="-74.5" font-family="Helvetica,sans-Serif" font-size="10.00">_matrix.h</text>
</a>
</g>
</g>
<!-- Node3&#45;&gt;Node9 -->
<g id="edge8" class="edge">
<title>Node3&#45;&gt;Node9</title>
<path fill="none" stroke="midnightblue" d="M1351.72,-136.41C1325.41,-127.85 1278.53,-112.61 1241.83,-100.68"/>
<polygon fill="midnightblue" stroke="midnightblue" points="1242.85,-97.33 1232.26,-97.57 1240.69,-103.99 1242.85,-97.33"/>
</g>
<!-- Node10 -->
<g id="node10" class="node">
<title>Node10</title>
<g id="a_node10"><a xlink:href="http://www.dealii.org/developer/doxygen/deal.II/sparsity__pattern_8h.html.html" xlink:title=" ">
<polygon fill="none" stroke="black" points="1257,-67.5 1257,-97.5 1363,-97.5 1363,-67.5 1257,-67.5"/>
<text text-anchor="start" x="1265" y="-85.5" font-family="Helvetica,sans-Serif" font-size="10.00">deal.II/lac/sparsity</text>
<text text-anchor="middle" x="1310" y="-74.5" font-family="Helvetica,sans-Serif" font-size="10.00">_pattern.h</text>
</a>
</g>
</g>
<!-- Node3&#45;&gt;Node10 -->
<g id="edge9" class="edge">
<title>Node3&#45;&gt;Node10</title>
<path fill="none" stroke="midnightblue" d="M1363.12,-134.48C1355.03,-126.72 1342.76,-114.94 1332.05,-104.66"/>
<polygon fill="midnightblue" stroke="midnightblue" points="1334.25,-101.92 1324.61,-97.52 1329.4,-106.97 1334.25,-101.92"/>
</g>
<!-- Node11 -->
<g id="node11" class="node">
<title>Node11</title>
<g id="a_node11"><a xlink:href="http://www.dealii.org/developer/doxygen/deal.II/vector_8h.html.html" xlink:title=" ">
<polygon fill="none" stroke="black" points="1381.5,-73 1381.5,-92 1488.5,-92 1488.5,-73 1381.5,-73"/>
<text text-anchor="middle" x="1435" y="-80" font-family="Helvetica,sans-Serif" font-size="10.00">deal.II/lac/vector.h</text>
</a>
</g>
</g>
<!-- Node3&#45;&gt;Node11 -->
<g id="edge10" class="edge">
<title>Node3&#45;&gt;Node11</title>
<path fill="none" stroke="midnightblue" d="M1381.03,-134.48C1390.76,-125.28 1406.46,-110.46 1418.42,-99.16"/>
<polygon fill="midnightblue" stroke="midnightblue" points="1421.12,-101.42 1425.99,-92.01 1416.32,-96.33 1421.12,-101.42"/>
</g>
<!-- Node12 -->
<g id="node12" class="node">
<title>Node12</title>
<g id="a_node12"><a xlink:href="http://www.dealii.org/developer/doxygen/deal.II/petsc__block__sparse__matrix_8h.html.html" xlink:title=" ">
<polygon fill="none" stroke="black" points="1506.5,-67.5 1506.5,-97.5 1631.5,-97.5 1631.5,-67.5 1506.5,-67.5"/>
<text text-anchor="start" x="1514.5" y="-85.5" font-family="Helvetica,sans-Serif" font-size="10.00">deal.II/lac/petsc_block</text>
<text text-anchor="middle" x="1569" y="-74.5" font-family="Helvetica,sans-Serif" font-size="10.00">_sparse_matrix.h</text>
</a>
</g>
</g>
<!-- Node3&#45;&gt;Node12 -->
<g id="edge11" class="edge">
<title>Node3&#45;&gt;Node12</title>
<path fill="none" stroke="midnightblue" d="M1392.34,-136.86C1420.49,-128.35 1472.42,-112.67 1512.72,-100.5"/>
<polygon fill="midnightblue" stroke="midnightblue" points="1513.87,-103.81 1522.43,-97.56 1511.85,-97.11 1513.87,-103.81"/>
</g>
<!-- Node13 -->
<g id="node13" class="node">
<title>Node13</title>
<g id="a_node13"><a xlink:href="http://www.dealii.org/developer/doxygen/deal.II/petsc__block__vector_8h.html.html" xlink:title=" ">
<polygon fill="none" stroke="black" points="1649.5,-67.5 1649.5,-97.5 1774.5,-97.5 1774.5,-67.5 1649.5,-67.5"/>
<text text-anchor="start" x="1657.5" y="-85.5" font-family="Helvetica,sans-Serif" font-size="10.00">deal.II/lac/petsc_block</text>
<text text-anchor="middle" x="1712" y="-74.5" font-family="Helvetica,sans-Serif" font-size="10.00">_vector.h</text>
</a>
</g>
</g>
<!-- Node3&#45;&gt;Node13 -->
<g id="edge12" class="edge">
<title>Node3&#45;&gt;Node13</title>
<path fill="none" stroke="midnightblue" d="M1392.29,-139.86C1435.71,-133.09 1541.05,-116.36 1639.22,-98.3"/>
<polygon fill="midnightblue" stroke="midnightblue" points="1640.11,-101.69 1649.3,-96.43 1638.83,-94.81 1640.11,-101.69"/>
</g>
<!-- Node14 -->
<g id="node14" class="node">
<title>Node14</title>
<g id="a_node14"><a xlink:href="http://www.dealii.org/developer/doxygen/deal.II/petsc__solver_8h.html.html" xlink:title=" ">
<polygon fill="none" stroke="black" points="1792.5,-73 1792.5,-92 1929.5,-92 1929.5,-73 1792.5,-73"/>
<text text-anchor="middle" x="1861" y="-80" font-family="Helvetica,sans-Serif" font-size="10.00">deal.II/lac/petsc_solver.h</text>
</a>
</g>
</g>
<!-- Node3&#45;&gt;Node14 -->
<g id="edge13" class="edge">
<title>Node3&#45;&gt;Node14</title>
<path fill="none" stroke="midnightblue" d="M1392.22,-141.35C1452.18,-136.34 1634.18,-120.25 1784,-98 1792.04,-96.81 1800.51,-95.38 1808.79,-93.9"/>
<polygon fill="midnightblue" stroke="midnightblue" points="1809.53,-97.32 1818.74,-92.07 1808.27,-90.43 1809.53,-97.32"/>
</g>
<!-- Node15 -->
<g id="node15" class="node">
<title>Node15</title>
<g id="a_node15"><a xlink:href="http://www.dealii.org/developer/doxygen/deal.II/petsc__sparse__matrix_8h.html.html" xlink:title=" ">
<polygon fill="none" stroke="black" points="1947.5,-67.5 1947.5,-97.5 2078.5,-97.5 2078.5,-67.5 1947.5,-67.5"/>
<text text-anchor="start" x="1955.5" y="-85.5" font-family="Helvetica,sans-Serif" font-size="10.00">deal.II/lac/petsc_sparse</text>
<text text-anchor="middle" x="2013" y="-74.5" font-family="Helvetica,sans-Serif" font-size="10.00">_matrix.h</text>
</a>
</g>
</g>
<!-- Node3&#45;&gt;Node15 -->
<g id="edge14" class="edge">
<title>Node3&#45;&gt;Node15</title>
<path fill="none" stroke="midnightblue" d="M1392.18,-142.23C1464.61,-139.31 1718.38,-127.56 1937.23,-98.15"/>
<polygon fill="midnightblue" stroke="midnightblue" points="1937.86,-101.59 1947.3,-96.78 1936.92,-94.66 1937.86,-101.59"/>
</g>
<!-- Node16 -->
<g id="node16" class="node">
<title>Node16</title>
<g id="a_node16"><a xlink:href="http://www.dealii.org/developer/doxygen/deal.II/petsc__vector_8h.html.html" xlink:title=" ">
<polygon fill="none" stroke="black" points="2097,-73 2097,-92 2235,-92 2235,-73 2097,-73"/>
<text text-anchor="middle" x="2166" y="-80" font-family="Helvetica,sans-Serif" font-size="10.00">deal.II/lac/petsc_vector.h</text>
</a>
</g>
</g>
<!-- Node3&#45;&gt;Node16 -->
<g id="edge15" class="edge">
<title>Node3&#45;&gt;Node16</title>
<path fill="none" stroke="midnightblue" d="M1392.01,-142.63C1476.67,-140.87 1813.6,-132 2088,-98 2096.84,-96.9 2106.19,-95.44 2115.23,-93.86"/>
<polygon fill="midnightblue" stroke="midnightblue" points="2116.04,-97.27 2125.26,-92.04 2114.79,-90.38 2116.04,-97.27"/>
</g>
<!-- Node17 -->
<g id="node17" class="node">
<title>Node17</title>
<g id="a_node17"><a xlink:href="http://www.dealii.org/developer/doxygen/deal.II/trilinos__block__sparse__matrix_8h.html.html" xlink:title=" ">
<polygon fill="none" stroke="black" points="2253,-67.5 2253,-97.5 2385,-97.5 2385,-67.5 2253,-67.5"/>
<text text-anchor="start" x="2261" y="-85.5" font-family="Helvetica,sans-Serif" font-size="10.00">deal.II/lac/trilinos</text>
<text text-anchor="middle" x="2319" y="-74.5" font-family="Helvetica,sans-Serif" font-size="10.00">_block_sparse_matrix.h</text>
</a>
</g>
</g>
<!-- Node3&#45;&gt;Node17 -->
<g id="edge16" class="edge">
<title>Node3&#45;&gt;Node17</title>
<path fill="none" stroke="midnightblue" d="M1392.05,-143C1486.57,-142.76 1897.13,-139.37 2242.87,-98.02"/>
<polygon fill="midnightblue" stroke="midnightblue" points="2243.32,-101.49 2252.83,-96.81 2242.48,-94.54 2243.32,-101.49"/>
</g>
<!-- Node18 -->
<g id="node18" class="node">
<title>Node18</title>
<g id="a_node18"><a xlink:href="http://www.dealii.org/developer/doxygen/deal.II/trilinos__solver_8h.html.html" xlink:title=" ">
<polygon fill="none" stroke="black" points="2403.5,-67.5 2403.5,-97.5 2504.5,-97.5 2504.5,-67.5 2403.5,-67.5"/>
<text text-anchor="start" x="2411.5" y="-85.5" font-family="Helvetica,sans-Serif" font-size="10.00">deal.II/lac/trilinos</text>
<text text-anchor="middle" x="2454" y="-74.5" font-family="Helvetica,sans-Serif" font-size="10.00">_solver.h</text>
</a>
</g>
</g>
<!-- Node3&#45;&gt;Node18 -->
<g id="edge17" class="edge">
<title>Node3&#45;&gt;Node18</title>
<path fill="none" stroke="midnightblue" d="M1392.29,-142.64C1515.95,-140.38 2170,-127.24 2393.4,-97.82"/>
<polygon fill="midnightblue" stroke="midnightblue" points="2393.96,-101.28 2403.39,-96.46 2393.01,-94.35 2393.96,-101.28"/>
</g>
<!-- Node19 -->
<g id="node19" class="node">
<title>Node19</title>
<g id="a_node19"><a xlink:href="http://www.dealii.org/developer/doxygen/deal.II/trilinos__sparse__matrix_8h.html.html" xlink:title=" ">
<polygon fill="none" stroke="black" points="2522.5,-67.5 2522.5,-97.5 2623.5,-97.5 2623.5,-67.5 2522.5,-67.5"/>
<text text-anchor="start" x="2530.5" y="-85.5" font-family="Helvetica,sans-Serif" font-size="10.00">deal.II/lac/trilinos</text>
<text text-anchor="middle" x="2573" y="-74.5" font-family="Helvetica,sans-Serif" font-size="10.00">_sparse_matrix.h</text>
</a>
</g>
</g>
<!-- Node3&#45;&gt;Node19 -->
<g id="edge18" class="edge">
<title>Node3&#45;&gt;Node19</title>
<path fill="none" stroke="midnightblue" d="M1392.02,-142.76C1523.41,-141.13 2264.21,-130.63 2512.25,-98.02"/>
<polygon fill="midnightblue" stroke="midnightblue" points="2512.84,-101.47 2522.28,-96.65 2511.9,-94.54 2512.84,-101.47"/>
</g>
<!-- Node20 -->
<g id="node20" class="node">
<title>Node20</title>
<g id="a_node20"><a xlink:href="http://www.dealii.org/developer/doxygen/deal.II/trilinos__vector_8h.html.html" xlink:title=" ">
<polygon fill="none" stroke="black" points="2641.5,-67.5 2641.5,-97.5 2742.5,-97.5 2742.5,-67.5 2641.5,-67.5"/>
<text text-anchor="start" x="2649.5" y="-85.5" font-family="Helvetica,sans-Serif" font-size="10.00">deal.II/lac/trilinos</text>
<text text-anchor="middle" x="2692" y="-74.5" font-family="Helvetica,sans-Serif" font-size="10.00">_vector.h</text>
</a>
</g>
</g>
<!-- Node3&#45;&gt;Node20 -->
<g id="edge19" class="edge">
<title>Node3&#45;&gt;Node20</title>
<path fill="none" stroke="midnightblue" d="M1392.26,-142.85C1532.19,-141.7 2357.53,-133.59 2631.01,-98.05"/>
<polygon fill="midnightblue" stroke="midnightblue" points="2631.84,-101.47 2641.28,-96.67 2630.9,-94.53 2631.84,-101.47"/>
</g>
<!-- Node21 -->
<g id="node21" class="node">
<title>Node21</title>
<g id="a_node21"><a xlink:href="amg_8h.html" target="_top" xlink:title=" ">
<polygon fill="none" stroke="black" points="329.5,-73 329.5,-92 432.5,-92 432.5,-73 329.5,-73"/>
<text text-anchor="middle" x="381" y="-80" font-family="Helvetica,sans-Serif" font-size="10.00">parsed_lac/amg.h</text>
</a>
</g>
</g>
<!-- Node3&#45;&gt;Node21 -->
<g id="edge20" class="edge">
<title>Node3&#45;&gt;Node21</title>
<path fill="none" stroke="midnightblue" d="M1351.88,-136.02C1348.93,-135.21 1345.91,-134.5 1343,-134 948.04,-66.03 839.03,-152.6 442,-98 435.49,-97.1 428.66,-95.83 422.02,-94.39"/>
<polygon fill="midnightblue" stroke="midnightblue" points="422.34,-90.88 411.81,-92.05 420.78,-97.7 422.34,-90.88"/>
</g>
<!-- Node24 -->
<g id="node24" class="node">
<title>Node24</title>
<g id="a_node24"><a xlink:href="amg__petsc_8h.html" target="_top" xlink:title=" ">
<polygon fill="none" stroke="black" points="177,-73 177,-92 311,-92 311,-73 177,-73"/>
<text text-anchor="middle" x="244" y="-80" font-family="Helvetica,sans-Serif" font-size="10.00">parsed_lac/amg_petsc.h</text>
</a>
</g>
</g>
<!-- Node3&#45;&gt;Node24 -->
<g id="edge24" class="edge">
<title>Node3&#45;&gt;Node24</title>
<path fill="none" stroke="midnightblue" d="M1351.89,-136.01C1348.94,-135.2 1345.91,-134.49 1343,-134 894.46,-57.91 772.11,-148.78 320,-98 311.08,-97 301.63,-95.53 292.55,-93.91"/>
<polygon fill="midnightblue" stroke="midnightblue" points="292.96,-90.43 282.49,-92.03 291.68,-97.31 292.96,-90.43"/>
</g>
<!-- Node26 -->
<g id="node26" class="node">
<title>Node26</title>
<g id="a_node26"><a xlink:href="ilu_8h.html" target="_top" xlink:title=" ">
<polygon fill="none" stroke="black" points="450.5,-73 450.5,-92 543.5,-92 543.5,-73 450.5,-73"/>
<text text-anchor="middle" x="497" y="-80" font-family="Helvetica,sans-Serif" font-size="10.00">parsed_lac/ilu.h</text>
</a>
</g>
</g>
<!-- Node3&#45;&gt;Node26 -->
<g id="edge28" class="edge">
<title>Node3&#45;&gt;Node26</title>
<path fill="none" stroke="midnightblue" d="M1351.88,-136.04C1348.93,-135.23 1345.91,-134.51 1343,-134 996.78,-73.42 900.56,-150.33 553,-98 547.15,-97.12 541.02,-95.87 535.06,-94.48"/>
<polygon fill="midnightblue" stroke="midnightblue" points="535.8,-91.06 525.25,-92.03 534.11,-97.85 535.8,-91.06"/>
</g>
<!-- Node21&#45;&gt;Node4 -->
<g id="edge21" class="edge">
<title>Node21&#45;&gt;Node4</title>
<path fill="none" stroke="midnightblue" d="M362.67,-72.87C339.06,-61.75 297.81,-42.32 270.45,-29.43"/>
<polygon fill="midnightblue" stroke="midnightblue" points="271.94,-26.26 261.4,-25.17 268.96,-32.59 271.94,-26.26"/>
</g>
<!-- Node22 -->
<g id="node22" class="node">
<title>Node22</title>
<g id="a_node22"><a xlink:href="http://www.dealii.org/developer/doxygen/deal.II/parameter__acceptor_8h.html.html" xlink:title=" ">
<polygon fill="none" stroke="black" points="318.5,-0.5 318.5,-30.5 445.5,-30.5 445.5,-0.5 318.5,-0.5"/>
<text text-anchor="start" x="326.5" y="-18.5" font-family="Helvetica,sans-Serif" font-size="10.00">deal.II/base/parameter</text>
<text text-anchor="middle" x="382" y="-7.5" font-family="Helvetica,sans-Serif" font-size="10.00">_acceptor.h</text>
</a>
</g>
</g>
<!-- Node21&#45;&gt;Node22 -->
<g id="edge22" class="edge">
<title>Node21&#45;&gt;Node22</title>
<path fill="none" stroke="midnightblue" d="M381.13,-72.73C381.26,-64.54 381.46,-51.92 381.63,-40.71"/>
<polygon fill="midnightblue" stroke="midnightblue" points="385.13,-40.64 381.78,-30.59 378.13,-40.53 385.13,-40.64"/>
</g>
<!-- Node23 -->
<g id="node23" class="node">
<title>Node23</title>
<g id="a_node23"><a xlink:href="http://www.dealii.org/developer/doxygen/deal.II/trilinos__precondition_8h.html.html" xlink:title=" ">
<polygon fill="none" stroke="black" points="463.5,-0.5 463.5,-30.5 564.5,-30.5 564.5,-0.5 463.5,-0.5"/>
<text text-anchor="start" x="471.5" y="-18.5" font-family="Helvetica,sans-Serif" font-size="10.00">deal.II/lac/trilinos</text>
<text text-anchor="middle" x="514" y="-7.5" font-family="Helvetica,sans-Serif" font-size="10.00">_precondition.h</text>
</a>
</g>
</g>
<!-- Node21&#45;&gt;Node23 -->
<g id="edge23" class="edge">
<title>Node21&#45;&gt;Node23</title>
<path fill="none" stroke="midnightblue" d="M398.66,-72.87C418.36,-63.24 450.8,-47.39 476.27,-34.94"/>
<polygon fill="midnightblue" stroke="midnightblue" points="477.85,-38.06 485.3,-30.53 474.78,-31.77 477.85,-38.06"/>
</g>
<!-- Node24&#45;&gt;Node4 -->
<g id="edge25" class="edge">
<title>Node24&#45;&gt;Node4</title>
<path fill="none" stroke="midnightblue" d="M243.87,-72.73C243.72,-63.18 243.48,-47.62 243.29,-35.28"/>
<polygon fill="midnightblue" stroke="midnightblue" points="246.79,-35.07 243.13,-25.13 239.79,-35.18 246.79,-35.07"/>
</g>
<!-- Node24&#45;&gt;Node22 -->
<g id="edge26" class="edge">
<title>Node24&#45;&gt;Node22</title>
<path fill="none" stroke="midnightblue" d="M262.33,-72.87C282.76,-63.24 316.42,-47.39 342.85,-34.94"/>
<polygon fill="midnightblue" stroke="midnightblue" points="344.66,-37.96 352.22,-30.53 341.68,-31.62 344.66,-37.96"/>
</g>
<!-- Node25 -->
<g id="node25" class="node">
<title>Node25</title>
<g id="a_node25"><a xlink:href="http://www.dealii.org/developer/doxygen/deal.II/petsc__precondition_8h.html.html" xlink:title=" ">
<polygon fill="none" stroke="black" points="0,-6 0,-25 168,-25 168,-6 0,-6"/>
<text text-anchor="middle" x="84" y="-13" font-family="Helvetica,sans-Serif" font-size="10.00">deal.II/lac/petsc_precondition.h</text>
</a>
</g>
</g>
<!-- Node24&#45;&gt;Node25 -->
<g id="edge27" class="edge">
<title>Node24&#45;&gt;Node25</title>
<path fill="none" stroke="midnightblue" d="M222.75,-72.87C195.06,-61.62 146.44,-41.87 114.73,-28.99"/>
<polygon fill="midnightblue" stroke="midnightblue" points="115.66,-25.58 105.08,-25.06 113.03,-32.07 115.66,-25.58"/>
</g>
<!-- Node26&#45;&gt;Node4 -->
<g id="edge29" class="edge">
<title>Node26&#45;&gt;Node4</title>
<path fill="none" stroke="midnightblue" d="M464.73,-72.94C457.27,-70.97 449.36,-68.9 442,-67 388.72,-53.22 327.31,-37.69 286.97,-27.53"/>
<polygon fill="midnightblue" stroke="midnightblue" points="287.73,-24.12 277.18,-25.07 286.03,-30.91 287.73,-24.12"/>
</g>
<!-- Node26&#45;&gt;Node22 -->
<g id="edge30" class="edge">
<title>Node26&#45;&gt;Node22</title>
<path fill="none" stroke="midnightblue" d="M481.49,-72.73C464.75,-63.27 437.58,-47.91 415.86,-35.64"/>
<polygon fill="midnightblue" stroke="midnightblue" points="417.35,-32.46 406.93,-30.59 413.91,-38.56 417.35,-32.46"/>
</g>
<!-- Node26&#45;&gt;Node23 -->
<g id="edge31" class="edge">
<title>Node26&#45;&gt;Node23</title>
<path fill="none" stroke="midnightblue" d="M499.29,-72.73C501.46,-64.46 504.8,-51.66 507.76,-40.37"/>
<polygon fill="midnightblue" stroke="midnightblue" points="511.17,-41.15 510.32,-30.59 504.4,-39.38 511.17,-41.15"/>
</g>
</g>
</svg>
