<?xml version="1.0" encoding="UTF-8" standalone="no"?>
<!DOCTYPE svg PUBLIC "-//W3C//DTD SVG 1.1//EN"
 "http://www.w3.org/Graphics/SVG/1.1/DTD/svg11.dtd">
<!-- Generated by graphviz version 2.43.0 (0)
 -->
<!-- Title: source/pdes/linear_problem.cc Pages: 1 -->
<svg width="4882pt" height="240pt"
 viewBox="0.00 0.00 4881.50 240.00" xmlns="http://www.w3.org/2000/svg" xmlns:xlink="http://www.w3.org/1999/xlink">
<g id="graph0" class="graph" transform="scale(1 1) rotate(0) translate(4 236)">
<title>source/pdes/linear_problem.cc</title>
<!-- Node1 -->
<g id="node1" class="node">
<title>Node1</title>
<g id="a_node1"><a xlink:title=" ">
<polygon fill="#bfbfbf" stroke="black" points="2332.5,-201.5 2332.5,-231.5 2438.5,-231.5 2438.5,-201.5 2332.5,-201.5"/>
<text text-anchor="start" x="2340.5" y="-219.5" font-family="Helvetica,sans-Serif" font-size="10.00">source/pdes/linear</text>
<text text-anchor="middle" x="2385.5" y="-208.5" font-family="Helvetica,sans-Serif" font-size="10.00">_problem.cc</text>
</a>
</g>
</g>
<!-- Node2 -->
<g id="node2" class="node">
<title>Node2</title>
<g id="a_node2"><a xlink:href="linear__problem_8h.html" target="_top" xlink:title=" ">
<polygon fill="none" stroke="red" points="2071,-140 2071,-159 2196,-159 2196,-140 2071,-140"/>
<text text-anchor="middle" x="2133.5" y="-147" font-family="Helvetica,sans-Serif" font-size="10.00">pdes/linear_problem.h</text>
</a>
</g>
</g>
<!-- Node1&#45;&gt;Node2 -->
<g id="edge1" class="edge">
<title>Node1&#45;&gt;Node2</title>
<path fill="none" stroke="midnightblue" d="M2332.37,-201.79C2285.98,-189.83 2219.51,-172.69 2176.43,-161.57"/>
<polygon fill="midnightblue" stroke="midnightblue" points="2177.09,-158.13 2166.54,-159.02 2175.35,-164.91 2177.09,-158.13"/>
</g>
<!-- Node39 -->
<g id="node38" class="node">
<title>Node39</title>
<g id="a_node38"><a xlink:title=" ">
<polygon fill="none" stroke="#bfbfbf" points="4833.5,-73 4833.5,-92 4873.5,-92 4873.5,-73 4833.5,-73"/>
<text text-anchor="middle" x="4853.5" y="-80" font-family="Helvetica,sans-Serif" font-size="10.00">lac.h</text>
</a>
</g>
</g>
<!-- Node1&#45;&gt;Node39 -->
<g id="edge64" class="edge">
<title>Node1&#45;&gt;Node39</title>
<path fill="none" stroke="midnightblue" d="M2332.42,-204.7C2279.49,-191.74 2210.47,-167.5 2243.5,-134 2293.85,-82.95 4754.83,-114.96 4824.5,-98 4826.43,-97.53 4828.37,-96.92 4830.3,-96.2"/>
<polygon fill="midnightblue" stroke="midnightblue" points="4831.84,-99.35 4839.53,-92.07 4828.98,-92.96 4831.84,-99.35"/>
</g>
<!-- Node45 -->
<g id="node41" class="node">
<title>Node45</title>
<g id="a_node41"><a xlink:href="http://www.dealii.org/developer/doxygen/deal.II/linear__operator__tools_8h.html.html" xlink:title=" ">
<polygon fill="none" stroke="black" points="0,-0.5 0,-30.5 101,-30.5 101,-0.5 0,-0.5"/>
<text text-anchor="start" x="8" y="-18.5" font-family="Helvetica,sans-Serif" font-size="10.00">deal.II/lac/linear</text>
<text text-anchor="middle" x="50.5" y="-7.5" font-family="Helvetica,sans-Serif" font-size="10.00">_operator_tools.h</text>
</a>
</g>
</g>
<!-- Node1&#45;&gt;Node45 -->
<g id="edge63" class="edge">
<title>Node1&#45;&gt;Node45</title>
<path fill="none" stroke="midnightblue" d="M2332.49,-214.73C1994.02,-209.61 146.48,-178.03 60.5,-98 45.24,-83.79 44.15,-59.21 46.03,-40.75"/>
<polygon fill="midnightblue" stroke="midnightblue" points="49.51,-41.09 47.39,-30.71 42.57,-40.15 49.51,-41.09"/>
</g>
<!-- Node86 -->
<g id="node46" class="node">
<title>Node86</title>
<g id="a_node46"><a xlink:href="http://www.dealii.org/developer/doxygen/deal.II/discrete__time_8h.html.html" xlink:title=" ">
<polygon fill="none" stroke="black" points="2253,-134.5 2253,-164.5 2368,-164.5 2368,-134.5 2253,-134.5"/>
<text text-anchor="start" x="2261" y="-152.5" font-family="Helvetica,sans-Serif" font-size="10.00">deal.II/base/discrete</text>
<text text-anchor="middle" x="2310.5" y="-141.5" font-family="Helvetica,sans-Serif" font-size="10.00">_time.h</text>
</a>
</g>
</g>
<!-- Node1&#45;&gt;Node86 -->
<g id="edge59" class="edge">
<title>Node1&#45;&gt;Node86</title>
<path fill="none" stroke="midnightblue" d="M2369.23,-201.4C2359.1,-192.62 2345.9,-181.18 2334.58,-171.37"/>
<polygon fill="midnightblue" stroke="midnightblue" points="2336.59,-168.48 2326.74,-164.58 2332.01,-173.77 2336.59,-168.48"/>
</g>
<!-- Node87 -->
<g id="node47" class="node">
<title>Node87</title>
<g id="a_node47"><a xlink:href="http://www.dealii.org/developer/doxygen/deal.II/work__stream_8h.html.html" xlink:title=" ">
<polygon fill="none" stroke="black" points="2386,-140 2386,-159 2535,-159 2535,-140 2386,-140"/>
<text text-anchor="middle" x="2460.5" y="-147" font-family="Helvetica,sans-Serif" font-size="10.00">deal.II/base/work_stream.h</text>
</a>
</g>
</g>
<!-- Node1&#45;&gt;Node87 -->
<g id="edge60" class="edge">
<title>Node1&#45;&gt;Node87</title>
<path fill="none" stroke="midnightblue" d="M2401.77,-201.4C2413.82,-190.96 2430.21,-176.75 2442.62,-166"/>
<polygon fill="midnightblue" stroke="midnightblue" points="2445.2,-168.39 2450.47,-159.19 2440.62,-163.1 2445.2,-168.39"/>
</g>
<!-- Node88 -->
<g id="node48" class="node">
<title>Node88</title>
<g id="a_node48"><a xlink:href="http://www.dealii.org/developer/doxygen/deal.II/dof__renumbering_8h.html.html" xlink:title=" ">
<polygon fill="none" stroke="black" points="2553.5,-140 2553.5,-159 2719.5,-159 2719.5,-140 2553.5,-140"/>
<text text-anchor="middle" x="2636.5" y="-147" font-family="Helvetica,sans-Serif" font-size="10.00">deal.II/dofs/dof_renumbering.h</text>
</a>
</g>
</g>
<!-- Node1&#45;&gt;Node88 -->
<g id="edge61" class="edge">
<title>Node1&#45;&gt;Node88</title>
<path fill="none" stroke="midnightblue" d="M2438.73,-201.72C2484.83,-189.78 2550.65,-172.73 2593.48,-161.64"/>
<polygon fill="midnightblue" stroke="midnightblue" points="2594.51,-164.99 2603.31,-159.09 2592.76,-158.21 2594.51,-164.99"/>
</g>
<!-- Node89 -->
<g id="node49" class="node">
<title>Node89</title>
<g id="a_node49"><a xlink:href="http://www.dealii.org/developer/doxygen/deal.II/fe__tools_8h.html.html" xlink:title=" ">
<polygon fill="none" stroke="black" points="2737.5,-140 2737.5,-159 2847.5,-159 2847.5,-140 2737.5,-140"/>
<text text-anchor="middle" x="2792.5" y="-147" font-family="Helvetica,sans-Serif" font-size="10.00">deal.II/fe/fe_tools.h</text>
</a>
</g>
</g>
<!-- Node1&#45;&gt;Node89 -->
<g id="edge62" class="edge">
<title>Node1&#45;&gt;Node89</title>
<path fill="none" stroke="midnightblue" d="M2438.59,-208.97C2506.18,-200.35 2626.43,-184.05 2728.5,-165 2734.45,-163.89 2740.7,-162.61 2746.85,-161.29"/>
<polygon fill="midnightblue" stroke="midnightblue" points="2748.04,-164.61 2757.06,-159.04 2746.54,-157.78 2748.04,-164.61"/>
</g>
<!-- Node90 -->
<g id="node50" class="node">
<title>Node90</title>
<g id="a_node50"><a xlink:href="lac__initializer_8h.html" target="_top" xlink:title=" ">
<polygon fill="none" stroke="red" points="2866,-140 2866,-159 2957,-159 2957,-140 2866,-140"/>
<text text-anchor="middle" x="2911.5" y="-147" font-family="Helvetica,sans-Serif" font-size="10.00">lac_initializer.h</text>
</a>
</g>
</g>
<!-- Node1&#45;&gt;Node90 -->
<g id="edge65" class="edge">
<title>Node1&#45;&gt;Node90</title>
<path fill="none" stroke="midnightblue" d="M2438.85,-212.41C2526.57,-206.75 2706.47,-192.66 2856.5,-165 2861.71,-164.04 2867.15,-162.85 2872.49,-161.56"/>
<polygon fill="midnightblue" stroke="midnightblue" points="2873.74,-164.85 2882.57,-159 2872.02,-158.07 2873.74,-164.85"/>
</g>
<!-- Node3 -->
<g id="node3" class="node">
<title>Node3</title>
<g id="a_node3"><a xlink:href="http://www.dealii.org/developer/doxygen/deal.II/conditional__ostream_8h.html.html" xlink:title=" ">
<polygon fill="none" stroke="black" points="4251.5,-67.5 4251.5,-97.5 4381.5,-97.5 4381.5,-67.5 4251.5,-67.5"/>
<text text-anchor="start" x="4259.5" y="-85.5" font-family="Helvetica,sans-Serif" font-size="10.00">deal.II/base/conditional</text>
<text text-anchor="middle" x="4316.5" y="-74.5" font-family="Helvetica,sans-Serif" font-size="10.00">_ostream.h</text>
</a>
</g>
</g>
<!-- Node2&#45;&gt;Node3 -->
<g id="edge2" class="edge">
<title>Node2&#45;&gt;Node3</title>
<path fill="none" stroke="midnightblue" d="M2171.7,-139.99C2184.02,-137.6 2197.78,-135.3 2210.5,-134 3105.66,-42.44 3342.49,-192.07 4240.96,-98.02"/>
<polygon fill="midnightblue" stroke="midnightblue" points="4241.65,-101.47 4251.22,-96.94 4240.91,-94.5 4241.65,-101.47"/>
</g>
<!-- Node4 -->
<g id="node4" class="node">
<title>Node4</title>
<g id="a_node4"><a xlink:href="http://www.dealii.org/developer/doxygen/deal.II/convergence__table_8h.html.html" xlink:title=" ">
<polygon fill="none" stroke="black" points="4399.5,-67.5 4399.5,-97.5 4537.5,-97.5 4537.5,-67.5 4399.5,-67.5"/>
<text text-anchor="start" x="4407.5" y="-85.5" font-family="Helvetica,sans-Serif" font-size="10.00">deal.II/base/convergence</text>
<text text-anchor="middle" x="4468.5" y="-74.5" font-family="Helvetica,sans-Serif" font-size="10.00">_table.h</text>
</a>
</g>
</g>
<!-- Node2&#45;&gt;Node4 -->
<g id="edge3" class="edge">
<title>Node2&#45;&gt;Node4</title>
<path fill="none" stroke="midnightblue" d="M2171.7,-139.98C2184.02,-137.59 2197.78,-135.29 2210.5,-134 3171.26,-36.32 3424.61,-193.81 4389.31,-97.99"/>
<polygon fill="midnightblue" stroke="midnightblue" points="4389.66,-101.47 4399.26,-96.99 4388.97,-94.5 4389.66,-101.47"/>
</g>
<!-- Node5 -->
<g id="node5" class="node">
<title>Node5</title>
<g id="a_node5"><a xlink:href="http://www.dealii.org/developer/doxygen/deal.II/function_8h.html.html" xlink:title=" ">
<polygon fill="none" stroke="black" points="4556,-73 4556,-92 4681,-92 4681,-73 4556,-73"/>
<text text-anchor="middle" x="4618.5" y="-80" font-family="Helvetica,sans-Serif" font-size="10.00">deal.II/base/function.h</text>
</a>
</g>
</g>
<!-- Node2&#45;&gt;Node5 -->
<g id="edge4" class="edge">
<title>Node2&#45;&gt;Node5</title>
<path fill="none" stroke="midnightblue" d="M2171.7,-139.97C2184.02,-137.58 2197.78,-135.29 2210.5,-134 2727.04,-81.77 4030.3,-153.48 4546.5,-98 4555.07,-97.08 4564.12,-95.63 4572.82,-94.01"/>
<polygon fill="midnightblue" stroke="midnightblue" points="4573.68,-97.4 4582.81,-92.03 4572.32,-90.54 4573.68,-97.4"/>
</g>
<!-- Node6 -->
<g id="node6" class="node">
<title>Node6</title>
<g id="a_node6"><a xlink:href="http://www.dealii.org/developer/doxygen/deal.II/function__parser_8h.html.html" xlink:title=" ">
<polygon fill="none" stroke="black" points="4699.5,-67.5 4699.5,-97.5 4815.5,-97.5 4815.5,-67.5 4699.5,-67.5"/>
<text text-anchor="start" x="4707.5" y="-85.5" font-family="Helvetica,sans-Serif" font-size="10.00">deal.II/base/function</text>
<text text-anchor="middle" x="4757.5" y="-74.5" font-family="Helvetica,sans-Serif" font-size="10.00">_parser.h</text>
</a>
</g>
</g>
<!-- Node2&#45;&gt;Node6 -->
<g id="edge5" class="edge">
<title>Node2&#45;&gt;Node6</title>
<path fill="none" stroke="midnightblue" d="M2171.69,-139.97C2184.02,-137.58 2197.78,-135.28 2210.5,-134 2755.55,-79.13 4126.03,-159.61 4688.87,-97.99"/>
<polygon fill="midnightblue" stroke="midnightblue" points="4689.6,-101.43 4699.15,-96.84 4688.82,-94.48 4689.6,-101.43"/>
</g>
<!-- Node7 -->
<g id="node7" class="node">
<title>Node7</title>
<g id="a_node7"><a xlink:href="http://www.dealii.org/developer/doxygen/deal.II/parameter__acceptor_8h.html.html" xlink:title=" ">
<polygon fill="none" stroke="black" points="471,-0.5 471,-30.5 598,-30.5 598,-0.5 471,-0.5"/>
<text text-anchor="start" x="479" y="-18.5" font-family="Helvetica,sans-Serif" font-size="10.00">deal.II/base/parameter</text>
<text text-anchor="middle" x="534.5" y="-7.5" font-family="Helvetica,sans-Serif" font-size="10.00">_acceptor.h</text>
</a>
</g>
</g>
<!-- Node2&#45;&gt;Node7 -->
<g id="edge6" class="edge">
<title>Node2&#45;&gt;Node7</title>
<path fill="none" stroke="midnightblue" d="M2070.75,-148.17C1788.21,-146.47 645.17,-137.18 580.5,-98 559.65,-85.37 547.44,-59.55 540.9,-40.34"/>
<polygon fill="midnightblue" stroke="midnightblue" points="544.23,-39.24 537.91,-30.74 537.54,-41.32 544.23,-39.24"/>
</g>
<!-- Node8 -->
<g id="node8" class="node">
<title>Node8</title>
<g id="a_node8"><a xlink:href="http://www.dealii.org/developer/doxygen/deal.II/quadrature__lib_8h.html.html" xlink:title=" ">
<polygon fill="none" stroke="black" points="1238,-67.5 1238,-97.5 1367,-97.5 1367,-67.5 1238,-67.5"/>
<text text-anchor="start" x="1246" y="-85.5" font-family="Helvetica,sans-Serif" font-size="10.00">deal.II/base/quadrature</text>
<text text-anchor="middle" x="1302.5" y="-74.5" font-family="Helvetica,sans-Serif" font-size="10.00">_lib.h</text>
</a>
</g>
</g>
<!-- Node2&#45;&gt;Node8 -->
<g id="edge7" class="edge">
<title>Node2&#45;&gt;Node8</title>
<path fill="none" stroke="midnightblue" d="M2070.83,-147.07C1942.39,-143.54 1639.91,-132.18 1377.41,-98.15"/>
<polygon fill="midnightblue" stroke="midnightblue" points="1377.68,-94.65 1367.31,-96.83 1376.77,-101.59 1377.68,-94.65"/>
</g>
<!-- Node9 -->
<g id="node9" class="node">
<title>Node9</title>
<g id="a_node9"><a xlink:href="http://www.dealii.org/developer/doxygen/deal.II/timer_8h.html.html" xlink:title=" ">
<polygon fill="none" stroke="black" points="1385,-73 1385,-92 1496,-92 1496,-73 1385,-73"/>
<text text-anchor="middle" x="1440.5" y="-80" font-family="Helvetica,sans-Serif" font-size="10.00">deal.II/base/timer.h</text>
</a>
</g>
</g>
<!-- Node2&#45;&gt;Node9 -->
<g id="edge8" class="edge">
<title>Node2&#45;&gt;Node9</title>
<path fill="none" stroke="midnightblue" d="M2070.66,-146.42C1957.08,-142.01 1710.27,-129.41 1504.5,-98 1497.77,-96.97 1490.69,-95.63 1483.79,-94.18"/>
<polygon fill="midnightblue" stroke="midnightblue" points="1484.39,-90.73 1473.88,-92.01 1482.89,-97.57 1484.39,-90.73"/>
</g>
<!-- Node10 -->
<g id="node10" class="node">
<title>Node10</title>
<g id="a_node10"><a xlink:href="http://www.dealii.org/developer/doxygen/deal.II/distributed_2grid__refinement_8h.html.html" xlink:title=" ">
<polygon fill="none" stroke="black" points="1514,-67.5 1514,-97.5 1621,-97.5 1621,-67.5 1514,-67.5"/>
<text text-anchor="start" x="1522" y="-85.5" font-family="Helvetica,sans-Serif" font-size="10.00">deal.II/distributed</text>
<text text-anchor="middle" x="1567.5" y="-74.5" font-family="Helvetica,sans-Serif" font-size="10.00">/grid_refinement.h</text>
</a>
</g>
</g>
<!-- Node2&#45;&gt;Node10 -->
<g id="edge9" class="edge">
<title>Node2&#45;&gt;Node10</title>
<path fill="none" stroke="midnightblue" d="M2070.83,-144.76C1977.29,-138.61 1795.54,-124.5 1631.32,-97.98"/>
<polygon fill="midnightblue" stroke="midnightblue" points="1631.46,-94.46 1621.02,-96.3 1630.33,-101.37 1631.46,-94.46"/>
</g>
<!-- Node11 -->
<g id="node11" class="node">
<title>Node11</title>
<g id="a_node11"><a xlink:href="http://www.dealii.org/developer/doxygen/deal.II/shared__tria_8h.html.html" xlink:title=" ">
<polygon fill="none" stroke="black" points="1639.5,-67.5 1639.5,-97.5 1741.5,-97.5 1741.5,-67.5 1639.5,-67.5"/>
<text text-anchor="start" x="1647.5" y="-85.5" font-family="Helvetica,sans-Serif" font-size="10.00">deal.II/distributed</text>
<text text-anchor="middle" x="1690.5" y="-74.5" font-family="Helvetica,sans-Serif" font-size="10.00">/shared_tria.h</text>
</a>
</g>
</g>
<!-- Node2&#45;&gt;Node11 -->
<g id="edge10" class="edge">
<title>Node2&#45;&gt;Node11</title>
<path fill="none" stroke="midnightblue" d="M2070.82,-142.3C1996.79,-134.51 1869.77,-119.71 1751.74,-98.12"/>
<polygon fill="midnightblue" stroke="midnightblue" points="1752.28,-94.66 1741.81,-96.28 1751.01,-101.54 1752.28,-94.66"/>
</g>
<!-- Node12 -->
<g id="node12" class="node">
<title>Node12</title>
<g id="a_node12"><a xlink:href="http://www.dealii.org/developer/doxygen/deal.II/distributed_2tria_8h.html.html" xlink:title=" ">
<polygon fill="none" stroke="black" points="1759.5,-67.5 1759.5,-97.5 1861.5,-97.5 1861.5,-67.5 1759.5,-67.5"/>
<text text-anchor="start" x="1767.5" y="-85.5" font-family="Helvetica,sans-Serif" font-size="10.00">deal.II/distributed</text>
<text text-anchor="middle" x="1810.5" y="-74.5" font-family="Helvetica,sans-Serif" font-size="10.00">/tria.h</text>
</a>
</g>
</g>
<!-- Node2&#45;&gt;Node12 -->
<g id="edge11" class="edge">
<title>Node2&#45;&gt;Node12</title>
<path fill="none" stroke="midnightblue" d="M2085.37,-139.97C2034.59,-130.8 1952.01,-115.46 1871.35,-98.13"/>
<polygon fill="midnightblue" stroke="midnightblue" points="1872.04,-94.7 1861.53,-96.01 1870.56,-101.54 1872.04,-94.7"/>
</g>
<!-- Node13 -->
<g id="node13" class="node">
<title>Node13</title>
<g id="a_node13"><a xlink:href="http://www.dealii.org/developer/doxygen/deal.II/dof__handler_8h.html.html" xlink:title=" ">
<polygon fill="none" stroke="red" points="941.5,-6 941.5,-25 1081.5,-25 1081.5,-6 941.5,-6"/>
<text text-anchor="middle" x="1011.5" y="-13" font-family="Helvetica,sans-Serif" font-size="10.00">deal.II/dofs/dof_handler.h</text>
</a>
</g>
</g>
<!-- Node2&#45;&gt;Node13 -->
<g id="edge12" class="edge">
<title>Node2&#45;&gt;Node13</title>
<path fill="none" stroke="midnightblue" d="M2070.81,-148.06C1839.25,-146.13 1043.49,-136.68 1006.5,-98 990.54,-81.31 996.92,-52.85 1003.67,-34.36"/>
<polygon fill="midnightblue" stroke="midnightblue" points="1006.94,-35.61 1007.42,-25.03 1000.44,-33 1006.94,-35.61"/>
</g>
<!-- Node15 -->
<g id="node14" class="node">
<title>Node15</title>
<g id="a_node14"><a xlink:href="http://www.dealii.org/developer/doxygen/deal.II/dof__tools_8h.html.html" xlink:title=" ">
<polygon fill="none" stroke="black" points="1879.5,-73 1879.5,-92 2007.5,-92 2007.5,-73 1879.5,-73"/>
<text text-anchor="middle" x="1943.5" y="-80" font-family="Helvetica,sans-Serif" font-size="10.00">deal.II/dofs/dof_tools.h</text>
</a>
</g>
</g>
<!-- Node2&#45;&gt;Node15 -->
<g id="edge13" class="edge">
<title>Node2&#45;&gt;Node15</title>
<path fill="none" stroke="midnightblue" d="M2108.27,-139.87C2074.82,-128.42 2015.64,-108.18 1978.06,-95.32"/>
<polygon fill="midnightblue" stroke="midnightblue" points="1979.13,-91.99 1968.53,-92.06 1976.86,-98.61 1979.13,-91.99"/>
</g>
<!-- Node16 -->
<g id="node15" class="node">
<title>Node16</title>
<g id="a_node15"><a xlink:href="http://www.dealii.org/developer/doxygen/deal.II/fe__q_8h.html.html" xlink:title=" ">
<polygon fill="none" stroke="black" points="2025.5,-73 2025.5,-92 2117.5,-92 2117.5,-73 2025.5,-73"/>
<text text-anchor="middle" x="2071.5" y="-80" font-family="Helvetica,sans-Serif" font-size="10.00">deal.II/fe/fe_q.h</text>
</a>
</g>
</g>
<!-- Node2&#45;&gt;Node16 -->
<g id="edge14" class="edge">
<title>Node2&#45;&gt;Node16</title>
<path fill="none" stroke="midnightblue" d="M2125.14,-139.73C2115.38,-129.5 2099.03,-112.36 2086.95,-99.69"/>
<polygon fill="midnightblue" stroke="midnightblue" points="2089.16,-96.95 2079.73,-92.13 2084.1,-101.78 2089.16,-96.95"/>
</g>
<!-- Node17 -->
<g id="node16" class="node">
<title>Node17</title>
<g id="a_node16"><a xlink:href="http://www.dealii.org/developer/doxygen/deal.II/fe_2fe__values_8h.html.html" xlink:title=" ">
<polygon fill="none" stroke="black" points="2136,-73 2136,-92 2255,-92 2255,-73 2136,-73"/>
<text text-anchor="middle" x="2195.5" y="-80" font-family="Helvetica,sans-Serif" font-size="10.00">deal.II/fe/fe_values.h</text>
</a>
</g>
</g>
<!-- Node2&#45;&gt;Node17 -->
<g id="edge15" class="edge">
<title>Node2&#45;&gt;Node17</title>
<path fill="none" stroke="midnightblue" d="M2141.86,-139.73C2151.62,-129.5 2167.97,-112.36 2180.05,-99.69"/>
<polygon fill="midnightblue" stroke="midnightblue" points="2182.9,-101.78 2187.27,-92.13 2177.84,-96.95 2182.9,-101.78"/>
</g>
<!-- Node18 -->
<g id="node17" class="node">
<title>Node18</title>
<g id="a_node17"><a xlink:href="http://www.dealii.org/developer/doxygen/deal.II/fe__values__extractors_8h.html.html" xlink:title=" ">
<polygon fill="none" stroke="black" points="2273.5,-67.5 2273.5,-97.5 2383.5,-97.5 2383.5,-67.5 2273.5,-67.5"/>
<text text-anchor="start" x="2281.5" y="-85.5" font-family="Helvetica,sans-Serif" font-size="10.00">deal.II/fe/fe_values</text>
<text text-anchor="middle" x="2328.5" y="-74.5" font-family="Helvetica,sans-Serif" font-size="10.00">_extractors.h</text>
</a>
</g>
</g>
<!-- Node2&#45;&gt;Node18 -->
<g id="edge16" class="edge">
<title>Node2&#45;&gt;Node18</title>
<path fill="none" stroke="midnightblue" d="M2159.39,-139.87C2189.16,-129.95 2238.77,-113.41 2276.58,-100.81"/>
<polygon fill="midnightblue" stroke="midnightblue" points="2278.04,-104.01 2286.42,-97.53 2275.82,-97.37 2278.04,-104.01"/>
</g>
<!-- Node19 -->
<g id="node18" class="node">
<title>Node19</title>
<g id="a_node18"><a xlink:href="http://www.dealii.org/developer/doxygen/deal.II/mapping__q__generic_8h.html.html" xlink:title=" ">
<polygon fill="none" stroke="black" points="2402,-67.5 2402,-97.5 2507,-97.5 2507,-67.5 2402,-67.5"/>
<text text-anchor="start" x="2410" y="-85.5" font-family="Helvetica,sans-Serif" font-size="10.00">deal.II/fe/mapping</text>
<text text-anchor="middle" x="2454.5" y="-74.5" font-family="Helvetica,sans-Serif" font-size="10.00">_q_generic.h</text>
</a>
</g>
</g>
<!-- Node2&#45;&gt;Node19 -->
<g id="edge17" class="edge">
<title>Node2&#45;&gt;Node19</title>
<path fill="none" stroke="midnightblue" d="M2178.29,-139.98C2237.21,-128.73 2338.59,-109.25 2391.79,-98.09"/>
<polygon fill="midnightblue" stroke="midnightblue" points="2392.71,-101.47 2401.76,-95.97 2391.26,-94.63 2392.71,-101.47"/>
</g>
<!-- Node20 -->
<g id="node19" class="node">
<title>Node20</title>
<g id="a_node19"><a xlink:href="http://www.dealii.org/developer/doxygen/deal.II/grid__generator_8h.html.html" xlink:title=" ">
<polygon fill="none" stroke="red" points="2525.5,-73 2525.5,-92 2677.5,-92 2677.5,-73 2525.5,-73"/>
<text text-anchor="middle" x="2601.5" y="-80" font-family="Helvetica,sans-Serif" font-size="10.00">deal.II/grid/grid_generator.h</text>
</a>
</g>
</g>
<!-- Node2&#45;&gt;Node20 -->
<g id="edge18" class="edge">
<title>Node2&#45;&gt;Node20</title>
<path fill="none" stroke="midnightblue" d="M2175.77,-140C2187.03,-137.88 2199.2,-135.73 2210.5,-134 2345.87,-113.32 2380.96,-117.52 2516.5,-98 2525.33,-96.73 2534.65,-95.26 2543.76,-93.76"/>
<polygon fill="midnightblue" stroke="midnightblue" points="2544.63,-97.17 2553.92,-92.06 2543.47,-90.26 2544.63,-97.17"/>
</g>
<!-- Node21 -->
<g id="node20" class="node">
<title>Node21</title>
<g id="a_node20"><a xlink:href="http://www.dealii.org/developer/doxygen/deal.II/grid_2tria_8h.html.html" xlink:title=" ">
<polygon fill="none" stroke="black" points="616,-6 616,-25 713,-25 713,-6 616,-6"/>
<text text-anchor="middle" x="664.5" y="-13" font-family="Helvetica,sans-Serif" font-size="10.00">deal.II/grid/tria.h</text>
</a>
</g>
</g>
<!-- Node2&#45;&gt;Node21 -->
<g id="edge19" class="edge">
<title>Node2&#45;&gt;Node21</title>
<path fill="none" stroke="midnightblue" d="M2070.73,-148.49C1818.9,-148.12 889.51,-143.67 766.5,-98 729.87,-84.4 696.32,-52.16 678.32,-32.55"/>
<polygon fill="midnightblue" stroke="midnightblue" points="680.86,-30.14 671.59,-25.01 675.63,-34.81 680.86,-30.14"/>
</g>
<!-- Node22 -->
<g id="node21" class="node">
<title>Node22</title>
<g id="a_node21"><a xlink:href="http://www.dealii.org/developer/doxygen/deal.II/affine__constraints_8h.html.html" xlink:title=" ">
<polygon fill="none" stroke="black" points="1100,-0.5 1100,-30.5 1195,-30.5 1195,-0.5 1100,-0.5"/>
<text text-anchor="start" x="1108" y="-18.5" font-family="Helvetica,sans-Serif" font-size="10.00">deal.II/lac/affine</text>
<text text-anchor="middle" x="1147.5" y="-7.5" font-family="Helvetica,sans-Serif" font-size="10.00">_constraints.h</text>
</a>
</g>
</g>
<!-- Node2&#45;&gt;Node22 -->
<g id="edge20" class="edge">
<title>Node2&#45;&gt;Node22</title>
<path fill="none" stroke="midnightblue" d="M2070.83,-147.85C1876.82,-145.45 1294.57,-135.18 1218.5,-98 1192.59,-85.34 1172.21,-58.51 1160.05,-39.09"/>
<polygon fill="midnightblue" stroke="midnightblue" points="1163.04,-37.28 1154.9,-30.5 1157.04,-40.88 1163.04,-37.28"/>
</g>
<!-- Node23 -->
<g id="node22" class="node">
<title>Node23</title>
<g id="a_node22"><a xlink:href="http://www.dealii.org/developer/doxygen/deal.II/dynamic__sparsity__pattern_8h.html.html" xlink:title=" ">
<polygon fill="none" stroke="black" points="2695.5,-67.5 2695.5,-97.5 2805.5,-97.5 2805.5,-67.5 2695.5,-67.5"/>
<text text-anchor="start" x="2703.5" y="-85.5" font-family="Helvetica,sans-Serif" font-size="10.00">deal.II/lac/dynamic</text>
<text text-anchor="middle" x="2750.5" y="-74.5" font-family="Helvetica,sans-Serif" font-size="10.00">_sparsity_pattern.h</text>
</a>
</g>
</g>
<!-- Node2&#45;&gt;Node23 -->
<g id="edge21" class="edge">
<title>Node2&#45;&gt;Node23</title>
<path fill="none" stroke="midnightblue" d="M2174.13,-139.98C2185.82,-137.76 2198.63,-135.56 2210.5,-134 2417.56,-106.76 2474.91,-128.81 2685.3,-98.02"/>
<polygon fill="midnightblue" stroke="midnightblue" points="2686.06,-101.45 2695.44,-96.52 2685.03,-94.52 2686.06,-101.45"/>
</g>
<!-- Node24 -->
<g id="node23" class="node">
<title>Node24</title>
<g id="a_node23"><a xlink:href="http://www.dealii.org/developer/doxygen/deal.II/full__matrix_8h.html.html" xlink:title=" ">
<polygon fill="none" stroke="black" points="2824,-73 2824,-92 2953,-92 2953,-73 2824,-73"/>
<text text-anchor="middle" x="2888.5" y="-80" font-family="Helvetica,sans-Serif" font-size="10.00">deal.II/lac/full_matrix.h</text>
</a>
</g>
</g>
<!-- Node2&#45;&gt;Node24 -->
<g id="edge22" class="edge">
<title>Node2&#45;&gt;Node24</title>
<path fill="none" stroke="midnightblue" d="M2173.71,-139.93C2185.52,-137.69 2198.48,-135.48 2210.5,-134 2477.39,-101.05 2547.73,-131.93 2814.5,-98 2822.9,-96.93 2831.78,-95.48 2840.36,-93.9"/>
<polygon fill="midnightblue" stroke="midnightblue" points="2841.09,-97.33 2850.25,-92.01 2839.77,-90.45 2841.09,-97.33"/>
</g>
<!-- Node25 -->
<g id="node24" class="node">
<title>Node25</title>
<g id="a_node24"><a xlink:href="http://www.dealii.org/developer/doxygen/deal.II/generic__linear__algebra_8h.html.html" xlink:title=" ">
<polygon fill="none" stroke="black" points="2971,-67.5 2971,-97.5 3074,-97.5 3074,-67.5 2971,-67.5"/>
<text text-anchor="start" x="2979" y="-85.5" font-family="Helvetica,sans-Serif" font-size="10.00">deal.II/lac/generic</text>
<text text-anchor="middle" x="3022.5" y="-74.5" font-family="Helvetica,sans-Serif" font-size="10.00">_linear_algebra.h</text>
</a>
</g>
</g>
<!-- Node2&#45;&gt;Node25 -->
<g id="edge23" class="edge">
<title>Node2&#45;&gt;Node25</title>
<path fill="none" stroke="midnightblue" d="M2172.91,-139.99C2184.92,-137.69 2198.21,-135.44 2210.5,-134 2539.41,-95.35 2629.45,-144.49 2960.54,-98.1"/>
<polygon fill="midnightblue" stroke="midnightblue" points="2961.5,-101.5 2970.91,-96.62 2960.52,-94.56 2961.5,-101.5"/>
</g>
<!-- Node26 -->
<g id="node25" class="node">
<title>Node26</title>
<g id="a_node25"><a xlink:href="http://www.dealii.org/developer/doxygen/deal.II/precondition_8h.html.html" xlink:title=" ">
<polygon fill="none" stroke="black" points="3092,-73 3092,-92 3229,-92 3229,-73 3092,-73"/>
<text text-anchor="middle" x="3160.5" y="-80" font-family="Helvetica,sans-Serif" font-size="10.00">deal.II/lac/precondition.h</text>
</a>
</g>
</g>
<!-- Node2&#45;&gt;Node26 -->
<g id="edge24" class="edge">
<title>Node2&#45;&gt;Node26</title>
<path fill="none" stroke="midnightblue" d="M2172.9,-139.94C2184.92,-137.64 2198.2,-135.4 2210.5,-134 2596.32,-89.95 2697.68,-142.05 3083.5,-98 3092.44,-96.98 3101.89,-95.52 3111,-93.91"/>
<polygon fill="midnightblue" stroke="midnightblue" points="3111.9,-97.31 3121.1,-92.06 3110.63,-90.42 3111.9,-97.31"/>
</g>
<!-- Node27 -->
<g id="node26" class="node">
<title>Node27</title>
<g id="a_node26"><a xlink:href="http://www.dealii.org/developer/doxygen/deal.II/solver__cg_8h.html.html" xlink:title=" ">
<polygon fill="none" stroke="black" points="136.5,-6 136.5,-25 258.5,-25 258.5,-6 136.5,-6"/>
<text text-anchor="middle" x="197.5" y="-13" font-family="Helvetica,sans-Serif" font-size="10.00">deal.II/lac/solver_cg.h</text>
</a>
</g>
</g>
<!-- Node2&#45;&gt;Node27 -->
<g id="edge25" class="edge">
<title>Node2&#45;&gt;Node27</title>
<path fill="none" stroke="midnightblue" d="M2070.81,-147.82C1745.41,-144.2 262.41,-126.15 224.5,-98 204.99,-83.52 199.38,-54.43 197.88,-35.22"/>
<polygon fill="midnightblue" stroke="midnightblue" points="201.37,-35.04 197.39,-25.23 194.38,-35.38 201.37,-35.04"/>
</g>
<!-- Node28 -->
<g id="node27" class="node">
<title>Node28</title>
<g id="a_node27"><a xlink:href="http://www.dealii.org/developer/doxygen/deal.II/sparse__matrix_8h.html.html" xlink:title=" ">
<polygon fill="none" stroke="black" points="3247,-67.5 3247,-97.5 3346,-97.5 3346,-67.5 3247,-67.5"/>
<text text-anchor="start" x="3255" y="-85.5" font-family="Helvetica,sans-Serif" font-size="10.00">deal.II/lac/sparse</text>
<text text-anchor="middle" x="3296.5" y="-74.5" font-family="Helvetica,sans-Serif" font-size="10.00">_matrix.h</text>
</a>
</g>
</g>
<!-- Node2&#45;&gt;Node28 -->
<g id="edge26" class="edge">
<title>Node2&#45;&gt;Node28</title>
<path fill="none" stroke="midnightblue" d="M2172.5,-139.97C2184.62,-137.64 2198.06,-135.38 2210.5,-134 2661.55,-83.92 2784.01,-160.65 3236.88,-98.02"/>
<polygon fill="midnightblue" stroke="midnightblue" points="3237.54,-101.46 3246.96,-96.61 3236.57,-94.53 3237.54,-101.46"/>
</g>
<!-- Node29 -->
<g id="node28" class="node">
<title>Node29</title>
<g id="a_node28"><a xlink:href="http://www.dealii.org/developer/doxygen/deal.II/vector_8h.html.html" xlink:title=" ">
<polygon fill="none" stroke="black" points="3364,-73 3364,-92 3471,-92 3471,-73 3364,-73"/>
<text text-anchor="middle" x="3417.5" y="-80" font-family="Helvetica,sans-Serif" font-size="10.00">deal.II/lac/vector.h</text>
</a>
</g>
</g>
<!-- Node2&#45;&gt;Node29 -->
<g id="edge27" class="edge">
<title>Node2&#45;&gt;Node29</title>
<path fill="none" stroke="midnightblue" d="M2172.5,-139.94C2184.62,-137.61 2198.06,-135.36 2210.5,-134 2716.63,-78.72 2850.69,-164.3 3355.5,-98 3362.35,-97.1 3369.55,-95.78 3376.52,-94.29"/>
<polygon fill="midnightblue" stroke="midnightblue" points="3377.52,-97.65 3386.5,-92.02 3375.97,-90.82 3377.52,-97.65"/>
</g>
<!-- Node30 -->
<g id="node29" class="node">
<title>Node30</title>
<g id="a_node29"><a xlink:href="http://www.dealii.org/developer/doxygen/deal.II/copy__data_8h.html.html" xlink:title=" ">
<polygon fill="none" stroke="black" points="3489.5,-67.5 3489.5,-97.5 3599.5,-97.5 3599.5,-67.5 3489.5,-67.5"/>
<text text-anchor="start" x="3497.5" y="-85.5" font-family="Helvetica,sans-Serif" font-size="10.00">deal.II/meshworker</text>
<text text-anchor="middle" x="3544.5" y="-74.5" font-family="Helvetica,sans-Serif" font-size="10.00">/copy_data.h</text>
</a>
</g>
</g>
<!-- Node2&#45;&gt;Node30 -->
<g id="edge28" class="edge">
<title>Node2&#45;&gt;Node30</title>
<path fill="none" stroke="midnightblue" d="M2172.1,-140C2184.32,-137.64 2197.92,-135.35 2210.5,-134 2768.64,-73.92 2918.52,-167.61 3479.5,-97.93"/>
<polygon fill="midnightblue" stroke="midnightblue" points="3479.98,-101.4 3489.46,-96.68 3479.11,-94.45 3479.98,-101.4"/>
</g>
<!-- Node31 -->
<g id="node30" class="node">
<title>Node31</title>
<g id="a_node30"><a xlink:href="http://www.dealii.org/developer/doxygen/deal.II/scratch__data_8h.html.html" xlink:title=" ">
<polygon fill="none" stroke="black" points="3617.5,-67.5 3617.5,-97.5 3727.5,-97.5 3727.5,-67.5 3617.5,-67.5"/>
<text text-anchor="start" x="3625.5" y="-85.5" font-family="Helvetica,sans-Serif" font-size="10.00">deal.II/meshworker</text>
<text text-anchor="middle" x="3672.5" y="-74.5" font-family="Helvetica,sans-Serif" font-size="10.00">/scratch_data.h</text>
</a>
</g>
</g>
<!-- Node2&#45;&gt;Node31 -->
<g id="edge29" class="edge">
<title>Node2&#45;&gt;Node31</title>
<path fill="none" stroke="midnightblue" d="M2172.1,-139.98C2184.32,-137.62 2197.92,-135.34 2210.5,-134 2825.24,-68.63 2989.99,-173.9 3607.42,-97.94"/>
<polygon fill="midnightblue" stroke="midnightblue" points="3607.97,-101.4 3617.46,-96.69 3607.11,-94.45 3607.97,-101.4"/>
</g>
<!-- Node32 -->
<g id="node31" class="node">
<title>Node32</title>
<g id="a_node31"><a xlink:href="http://www.dealii.org/developer/doxygen/deal.II/numerics_2data__out_8h.html.html" xlink:title=" ">
<polygon fill="none" stroke="black" points="731,-0.5 731,-30.5 850,-30.5 850,-0.5 731,-0.5"/>
<text text-anchor="start" x="739" y="-18.5" font-family="Helvetica,sans-Serif" font-size="10.00">deal.II/numerics/data</text>
<text text-anchor="middle" x="790.5" y="-7.5" font-family="Helvetica,sans-Serif" font-size="10.00">_out.h</text>
</a>
</g>
</g>
<!-- Node2&#45;&gt;Node32 -->
<g id="edge30" class="edge">
<title>Node2&#45;&gt;Node32</title>
<path fill="none" stroke="midnightblue" d="M2070.98,-148.55C1810.63,-148.48 823.85,-145.07 778.5,-98 763.86,-82.81 770.08,-58.07 777.97,-39.83"/>
<polygon fill="midnightblue" stroke="midnightblue" points="781.17,-41.25 782.28,-30.71 774.84,-38.26 781.17,-41.25"/>
</g>
<!-- Node33 -->
<g id="node32" class="node">
<title>Node33</title>
<g id="a_node32"><a xlink:href="http://www.dealii.org/developer/doxygen/deal.II/matrix__tools_8h.html.html" xlink:title=" ">
<polygon fill="none" stroke="red" points="3745.5,-67.5 3745.5,-97.5 3875.5,-97.5 3875.5,-67.5 3745.5,-67.5"/>
<text text-anchor="start" x="3753.5" y="-85.5" font-family="Helvetica,sans-Serif" font-size="10.00">deal.II/numerics/matrix</text>
<text text-anchor="middle" x="3810.5" y="-74.5" font-family="Helvetica,sans-Serif" font-size="10.00">_tools.h</text>
</a>
</g>
</g>
<!-- Node2&#45;&gt;Node33 -->
<g id="edge31" class="edge">
<title>Node2&#45;&gt;Node33</title>
<path fill="none" stroke="midnightblue" d="M2172.1,-139.96C2184.32,-137.6 2197.92,-135.32 2210.5,-134 2881.89,-63.34 3060.34,-170.44 3735.25,-97.99"/>
<polygon fill="midnightblue" stroke="midnightblue" points="3735.66,-101.47 3745.22,-96.92 3734.9,-94.51 3735.66,-101.47"/>
</g>
<!-- Node34 -->
<g id="node33" class="node">
<title>Node34</title>
<g id="a_node33"><a xlink:href="http://www.dealii.org/developer/doxygen/deal.II/vector__tools_8h.html.html" xlink:title=" ">
<polygon fill="none" stroke="black" points="1213.5,-0.5 1213.5,-30.5 1341.5,-30.5 1341.5,-0.5 1213.5,-0.5"/>
<text text-anchor="start" x="1221.5" y="-18.5" font-family="Helvetica,sans-Serif" font-size="10.00">deal.II/numerics/vector</text>
<text text-anchor="middle" x="1277.5" y="-7.5" font-family="Helvetica,sans-Serif" font-size="10.00">_tools.h</text>
</a>
</g>
</g>
<!-- Node2&#45;&gt;Node34 -->
<g id="edge32" class="edge">
<title>Node2&#45;&gt;Node34</title>
<path fill="none" stroke="midnightblue" d="M2070.75,-147.34C1870.4,-143.32 1257.42,-128.58 1228.5,-98 1211.37,-79.89 1231.49,-54.8 1250.87,-37.26"/>
<polygon fill="midnightblue" stroke="midnightblue" points="1253.18,-39.89 1258.47,-30.7 1248.61,-34.59 1253.18,-39.89"/>
</g>
<!-- Node35 -->
<g id="node34" class="node">
<title>Node35</title>
<g id="a_node34"><a xlink:href="http://www.dealii.org/developer/doxygen/deal.II/arkode_8h.html.html" xlink:title=" ">
<polygon fill="none" stroke="black" points="3894,-73 3894,-92 4029,-92 4029,-73 3894,-73"/>
<text text-anchor="middle" x="3961.5" y="-80" font-family="Helvetica,sans-Serif" font-size="10.00">deal.II/sundials/arkode.h</text>
</a>
</g>
</g>
<!-- Node2&#45;&gt;Node35 -->
<g id="edge33" class="edge">
<title>Node2&#45;&gt;Node35</title>
<path fill="none" stroke="midnightblue" d="M2172.09,-139.94C2184.31,-137.58 2197.92,-135.31 2210.5,-134 2950.67,-56.88 3144.33,-175.12 3884.5,-98 3893.74,-97.04 3903.53,-95.56 3912.92,-93.9"/>
<polygon fill="midnightblue" stroke="midnightblue" points="3913.71,-97.32 3922.91,-92.06 3912.44,-90.43 3913.71,-97.32"/>
</g>
<!-- Node36 -->
<g id="node35" class="node">
<title>Node36</title>
<g id="a_node35"><a xlink:title=" ">
<polygon fill="none" stroke="#bfbfbf" points="4047.5,-73 4047.5,-92 4155.5,-92 4155.5,-73 4047.5,-73"/>
<text text-anchor="middle" x="4101.5" y="-80" font-family="Helvetica,sans-Serif" font-size="10.00">boost/signals2.hpp</text>
</a>
</g>
</g>
<!-- Node2&#45;&gt;Node36 -->
<g id="edge34" class="edge">
<title>Node2&#45;&gt;Node36</title>
<path fill="none" stroke="midnightblue" d="M2172.09,-139.93C2184.31,-137.57 2197.92,-135.3 2210.5,-134 2614.65,-92.26 3635.27,-147.83 4038.5,-98 4045.53,-97.13 4052.93,-95.81 4060.09,-94.31"/>
<polygon fill="midnightblue" stroke="midnightblue" points="4061.33,-97.62 4070.32,-92.02 4059.8,-90.79 4061.33,-97.62"/>
</g>
<!-- Node37 -->
<g id="node36" class="node">
<title>Node37</title>
<g id="a_node36"><a xlink:title=" ">
<polygon fill="none" stroke="#bfbfbf" points="868,-6 868,-25 923,-25 923,-6 868,-6"/>
<text text-anchor="middle" x="895.5" y="-13" font-family="Helvetica,sans-Serif" font-size="10.00">fstream</text>
</a>
</g>
</g>
<!-- Node2&#45;&gt;Node37 -->
<g id="edge35" class="edge">
<title>Node2&#45;&gt;Node37</title>
<path fill="none" stroke="midnightblue" d="M2070.72,-148.05C1846.61,-146.14 1093.97,-136.85 993.5,-98 958.26,-84.37 926.44,-52.67 909.15,-33.07"/>
<polygon fill="midnightblue" stroke="midnightblue" points="911.62,-30.58 902.46,-25.25 906.3,-35.13 911.62,-30.58"/>
</g>
<!-- Node38 -->
<g id="node37" class="node">
<title>Node38</title>
<g id="a_node37"><a xlink:title=" ">
<polygon fill="none" stroke="#bfbfbf" points="4173.5,-73 4173.5,-92 4233.5,-92 4233.5,-73 4173.5,-73"/>
<text text-anchor="middle" x="4203.5" y="-80" font-family="Helvetica,sans-Serif" font-size="10.00">iostream</text>
</a>
</g>
</g>
<!-- Node2&#45;&gt;Node38 -->
<g id="edge36" class="edge">
<title>Node2&#45;&gt;Node38</title>
<path fill="none" stroke="midnightblue" d="M2171.7,-140C2184.02,-137.61 2197.78,-135.31 2210.5,-134 2642.53,-89.66 3737.79,-178.82 4164.5,-98 4167.94,-97.35 4171.48,-96.42 4174.95,-95.35"/>
<polygon fill="midnightblue" stroke="midnightblue" points="4176.13,-98.65 4184.43,-92.05 4173.83,-92.03 4176.13,-98.65"/>
</g>
<!-- Node2&#45;&gt;Node39 -->
<g id="edge37" class="edge">
<title>Node2&#45;&gt;Node39</title>
<path fill="none" stroke="midnightblue" d="M2171.69,-139.96C2184.02,-137.57 2197.78,-135.28 2210.5,-134 2499.52,-105.02 4542.26,-166.68 4824.5,-98 4826.43,-97.53 4828.37,-96.92 4830.3,-96.2"/>
<polygon fill="midnightblue" stroke="midnightblue" points="4831.84,-99.35 4839.53,-92.07 4828.98,-92.96 4831.84,-99.35"/>
</g>
<!-- Node40 -->
<g id="node39" class="node">
<title>Node40</title>
<g id="a_node39"><a xlink:href="amg_8h.html" target="_top" xlink:title=" ">
<polygon fill="none" stroke="red" points="590,-73 590,-92 693,-92 693,-73 590,-73"/>
<text text-anchor="middle" x="641.5" y="-80" font-family="Helvetica,sans-Serif" font-size="10.00">parsed_lac/amg.h</text>
</a>
</g>
</g>
<!-- Node2&#45;&gt;Node40 -->
<g id="edge38" class="edge">
<title>Node2&#45;&gt;Node40</title>
<path fill="none" stroke="midnightblue" d="M2070.84,-147.79C1831.8,-144.84 977.07,-132.1 707.5,-98 700.14,-97.07 692.39,-95.71 684.88,-94.2"/>
<polygon fill="midnightblue" stroke="midnightblue" points="685.38,-90.73 674.87,-92.06 683.92,-97.57 685.38,-90.73"/>
</g>
<!-- Node43 -->
<g id="node40" class="node">
<title>Node43</title>
<g id="a_node40"><a xlink:href="inverse__operator_8h.html" target="_top" xlink:title=" ">
<polygon fill="none" stroke="red" points="69.5,-67.5 69.5,-97.5 177.5,-97.5 177.5,-67.5 69.5,-67.5"/>
<text text-anchor="start" x="77.5" y="-85.5" font-family="Helvetica,sans-Serif" font-size="10.00">parsed_lac/inverse</text>
<text text-anchor="middle" x="123.5" y="-74.5" font-family="Helvetica,sans-Serif" font-size="10.00">_operator.h</text>
</a>
</g>
</g>
<!-- Node2&#45;&gt;Node43 -->
<g id="edge40" class="edge">
<title>Node2&#45;&gt;Node43</title>
<path fill="none" stroke="midnightblue" d="M2070.58,-148.42C1780.2,-147.82 567.87,-142.64 191.5,-98 190.22,-97.85 188.93,-97.68 187.63,-97.51"/>
<polygon fill="midnightblue" stroke="midnightblue" points="187.96,-94.02 177.54,-95.96 186.89,-100.94 187.96,-94.02"/>
</g>
<!-- Node53 -->
<g id="node42" class="node">
<title>Node53</title>
<g id="a_node42"><a xlink:href="boundary__conditions_8h.html" target="_top" xlink:title=" ">
<polygon fill="none" stroke="red" points="1015.5,-67.5 1015.5,-97.5 1143.5,-97.5 1143.5,-67.5 1015.5,-67.5"/>
<text text-anchor="start" x="1023.5" y="-85.5" font-family="Helvetica,sans-Serif" font-size="10.00">parsed_tools/boundary</text>
<text text-anchor="middle" x="1079.5" y="-74.5" font-family="Helvetica,sans-Serif" font-size="10.00">_conditions.h</text>
</a>
</g>
</g>
<!-- Node2&#45;&gt;Node53 -->
<g id="edge44" class="edge">
<title>Node2&#45;&gt;Node53</title>
<path fill="none" stroke="midnightblue" d="M2070.74,-148.12C1915.38,-146.56 1500.6,-138.59 1157.5,-98 1156.23,-97.85 1154.95,-97.69 1153.66,-97.53"/>
<polygon fill="midnightblue" stroke="midnightblue" points="1154.06,-94.05 1143.67,-96.12 1153.09,-100.98 1154.06,-94.05"/>
</g>
<!-- Node70 -->
<g id="node43" class="node">
<title>Node70</title>
<g id="a_node43"><a xlink:href="constants_8h.html" target="_top" xlink:title=" ">
<polygon fill="none" stroke="red" points="233.5,-73 233.5,-92 371.5,-92 371.5,-73 233.5,-73"/>
<text text-anchor="middle" x="302.5" y="-80" font-family="Helvetica,sans-Serif" font-size="10.00">parsed_tools/constants.h</text>
</a>
</g>
</g>
<!-- Node2&#45;&gt;Node70 -->
<g id="edge49" class="edge">
<title>Node2&#45;&gt;Node70</title>
<path fill="none" stroke="midnightblue" d="M2070.91,-148C1798.92,-145.62 718.25,-134.04 380.5,-98 371.25,-97.01 361.44,-95.54 352.03,-93.9"/>
<polygon fill="midnightblue" stroke="midnightblue" points="352.47,-90.42 342.01,-92.07 351.22,-97.31 352.47,-90.42"/>
</g>
<!-- Node71 -->
<g id="node44" class="node">
<title>Node71</title>
<g id="a_node44"><a xlink:href="convergence__table_8h.html" target="_top" xlink:title=" ">
<polygon fill="none" stroke="red" points="389.5,-67.5 389.5,-97.5 533.5,-97.5 533.5,-67.5 389.5,-67.5"/>
<text text-anchor="start" x="397.5" y="-85.5" font-family="Helvetica,sans-Serif" font-size="10.00">parsed_tools/convergence</text>
<text text-anchor="middle" x="461.5" y="-74.5" font-family="Helvetica,sans-Serif" font-size="10.00">_table.h</text>
</a>
</g>
</g>
<!-- Node2&#45;&gt;Node71 -->
<g id="edge51" class="edge">
<title>Node2&#45;&gt;Node71</title>
<path fill="none" stroke="midnightblue" d="M2070.96,-147.64C1815.57,-143.95 850.92,-128.27 547.5,-98 546.23,-97.87 544.95,-97.74 543.66,-97.6"/>
<polygon fill="midnightblue" stroke="midnightblue" points="544.01,-94.12 533.67,-96.4 543.18,-101.07 544.01,-94.12"/>
</g>
<!-- Node74 -->
<g id="node45" class="node">
<title>Node74</title>
<g id="a_node45"><a xlink:href="data__out_8h.html" target="_top" xlink:title=" ">
<polygon fill="none" stroke="red" points="787.5,-73 787.5,-92 921.5,-92 921.5,-73 787.5,-73"/>
<text text-anchor="middle" x="854.5" y="-80" font-family="Helvetica,sans-Serif" font-size="10.00">parsed_tools/data_out.h</text>
</a>
</g>
</g>
<!-- Node2&#45;&gt;Node74 -->
<g id="edge53" class="edge">
<title>Node2&#45;&gt;Node74</title>
<path fill="none" stroke="midnightblue" d="M2070.92,-148.83C1892.79,-149.14 1367.96,-145.6 935.5,-98 925.91,-96.94 915.74,-95.44 905.97,-93.79"/>
<polygon fill="midnightblue" stroke="midnightblue" points="906.42,-90.31 895.97,-92.03 905.21,-97.21 906.42,-90.31"/>
</g>
<!-- Node40&#45;&gt;Node7 -->
<g id="edge39" class="edge">
<title>Node40&#45;&gt;Node7</title>
<path fill="none" stroke="midnightblue" d="M627.07,-72.73C611.57,-63.32 586.44,-48.05 566.27,-35.8"/>
<polygon fill="midnightblue" stroke="midnightblue" points="568.06,-32.79 557.69,-30.59 564.42,-38.77 568.06,-32.79"/>
</g>
<!-- Node43&#45;&gt;Node7 -->
<g id="edge41" class="edge">
<title>Node43&#45;&gt;Node7</title>
<path fill="none" stroke="midnightblue" d="M177.65,-72.94C250.19,-61.46 379.18,-41.06 460.59,-28.19"/>
<polygon fill="midnightblue" stroke="midnightblue" points="461.44,-31.6 470.77,-26.58 460.35,-24.68 461.44,-31.6"/>
</g>
<!-- Node43&#45;&gt;Node27 -->
<g id="edge43" class="edge">
<title>Node43&#45;&gt;Node27</title>
<path fill="none" stroke="midnightblue" d="M139.56,-67.4C151.44,-56.96 167.61,-42.75 179.86,-32"/>
<polygon fill="midnightblue" stroke="midnightblue" points="182.4,-34.42 187.6,-25.19 177.78,-29.16 182.4,-34.42"/>
</g>
<!-- Node43&#45;&gt;Node45 -->
<g id="edge42" class="edge">
<title>Node43&#45;&gt;Node45</title>
<path fill="none" stroke="midnightblue" d="M107.66,-67.4C97.81,-58.62 84.96,-47.18 73.94,-37.37"/>
<polygon fill="midnightblue" stroke="midnightblue" points="76.1,-34.61 66.31,-30.58 71.45,-39.84 76.1,-34.61"/>
</g>
<!-- Node53&#45;&gt;Node7 -->
<g id="edge45" class="edge">
<title>Node53&#45;&gt;Node7</title>
<path fill="none" stroke="midnightblue" d="M1015.28,-74.98C902.16,-63.44 673.78,-39.93 608.06,-31.06"/>
<polygon fill="midnightblue" stroke="midnightblue" points="608.44,-27.58 598.05,-29.63 607.45,-34.51 608.44,-27.58"/>
</g>
<!-- Node53&#45;&gt;Node13 -->
<g id="edge46" class="edge">
<title>Node53&#45;&gt;Node13</title>
<path fill="none" stroke="midnightblue" d="M1064.75,-67.4C1053.93,-57.06 1039.25,-43.02 1028.04,-32.31"/>
<polygon fill="midnightblue" stroke="midnightblue" points="1030.24,-29.57 1020.6,-25.19 1025.41,-34.63 1030.24,-29.57"/>
</g>
<!-- Node53&#45;&gt;Node22 -->
<g id="edge47" class="edge">
<title>Node53&#45;&gt;Node22</title>
<path fill="none" stroke="midnightblue" d="M1094.25,-67.4C1103.34,-58.71 1115.17,-47.4 1125.37,-37.66"/>
<polygon fill="midnightblue" stroke="midnightblue" points="1127.96,-40.02 1132.77,-30.58 1123.13,-34.96 1127.96,-40.02"/>
</g>
<!-- Node53&#45;&gt;Node34 -->
<g id="edge48" class="edge">
<title>Node53&#45;&gt;Node34</title>
<path fill="none" stroke="midnightblue" d="M1122.46,-67.4C1152.56,-57.52 1192.96,-44.25 1224.98,-33.74"/>
<polygon fill="midnightblue" stroke="midnightblue" points="1226.21,-37.02 1234.62,-30.58 1224.03,-30.37 1226.21,-37.02"/>
</g>
<!-- Node70&#45;&gt;Node7 -->
<g id="edge50" class="edge">
<title>Node70&#45;&gt;Node7</title>
<path fill="none" stroke="midnightblue" d="M333.31,-72.87C369.25,-62.8 429.51,-45.91 474.73,-33.24"/>
<polygon fill="midnightblue" stroke="midnightblue" points="475.75,-36.6 484.43,-30.53 473.86,-29.86 475.75,-36.6"/>
</g>
<!-- Node71&#45;&gt;Node7 -->
<g id="edge52" class="edge">
<title>Node71&#45;&gt;Node7</title>
<path fill="none" stroke="midnightblue" d="M477.34,-67.4C487.19,-58.62 500.04,-47.18 511.06,-37.37"/>
<polygon fill="midnightblue" stroke="midnightblue" points="513.55,-39.84 518.69,-30.58 508.9,-34.61 513.55,-39.84"/>
</g>
<!-- Node74&#45;&gt;Node7 -->
<g id="edge54" class="edge">
<title>Node74&#45;&gt;Node7</title>
<path fill="none" stroke="midnightblue" d="M812.34,-72.94C760.38,-62.38 671.23,-44.27 607.94,-31.42"/>
<polygon fill="midnightblue" stroke="midnightblue" points="608.51,-27.96 598.01,-29.4 607.12,-34.82 608.51,-27.96"/>
</g>
<!-- Node74&#45;&gt;Node13 -->
<g id="edge55" class="edge">
<title>Node74&#45;&gt;Node13</title>
<path fill="none" stroke="midnightblue" d="M875.35,-72.87C902.44,-61.65 949.96,-41.98 981.08,-29.09"/>
<polygon fill="midnightblue" stroke="midnightblue" points="982.66,-32.23 990.57,-25.17 979.99,-25.76 982.66,-32.23"/>
</g>
<!-- Node74&#45;&gt;Node21 -->
<g id="edge56" class="edge">
<title>Node74&#45;&gt;Node21</title>
<path fill="none" stroke="midnightblue" d="M829.27,-72.87C795.82,-61.42 736.64,-41.18 699.06,-28.32"/>
<polygon fill="midnightblue" stroke="midnightblue" points="700.13,-24.99 689.53,-25.06 697.86,-31.61 700.13,-24.99"/>
</g>
<!-- Node74&#45;&gt;Node32 -->
<g id="edge57" class="edge">
<title>Node74&#45;&gt;Node32</title>
<path fill="none" stroke="midnightblue" d="M845.87,-72.73C837.14,-63.86 823.3,-49.81 811.64,-37.97"/>
<polygon fill="midnightblue" stroke="midnightblue" points="813.88,-35.26 804.37,-30.59 808.89,-40.17 813.88,-35.26"/>
</g>
<!-- Node74&#45;&gt;Node37 -->
<g id="edge58" class="edge">
<title>Node74&#45;&gt;Node37</title>
<path fill="none" stroke="midnightblue" d="M860.03,-72.73C866.3,-62.79 876.68,-46.34 884.59,-33.79"/>
<polygon fill="midnightblue" stroke="midnightblue" points="887.68,-35.45 890.06,-25.13 881.76,-31.72 887.68,-35.45"/>
</g>
</g>
</svg>
