<?xml version="1.0" encoding="UTF-8" standalone="no"?>
<!DOCTYPE svg PUBLIC "-//W3C//DTD SVG 1.1//EN"
 "http://www.w3.org/Graphics/SVG/1.1/DTD/svg11.dtd">
<!-- Generated by graphviz version 2.43.0 (0)
 -->
<!-- Title: include/pdes/linear_elasticity.h Pages: 1 -->
<svg width="407pt" height="106pt"
 viewBox="0.00 0.00 406.50 106.00" xmlns="http://www.w3.org/2000/svg" xmlns:xlink="http://www.w3.org/1999/xlink">
<g id="graph0" class="graph" transform="scale(1 1) rotate(0) translate(4 102)">
<title>include/pdes/linear_elasticity.h</title>
<!-- Node1 -->
<g id="node1" class="node">
<title>Node1</title>
<g id="a_node1"><a xlink:title=" ">
<polygon fill="#bfbfbf" stroke="black" points="147.5,-67.5 147.5,-97.5 256.5,-97.5 256.5,-67.5 147.5,-67.5"/>
<text text-anchor="start" x="155.5" y="-85.5" font-family="Helvetica,sans-Serif" font-size="10.00">include/pdes/linear</text>
<text text-anchor="middle" x="202" y="-74.5" font-family="Helvetica,sans-Serif" font-size="10.00">_elasticity.h</text>
</a>
</g>
</g>
<!-- Node2 -->
<g id="node2" class="node">
<title>Node2</title>
<g id="a_node2"><a xlink:href="source_2pdes_2linear__elasticity_8cc.html" target="_top" xlink:title=" ">
<polygon fill="none" stroke="black" points="0,-0.5 0,-30.5 106,-30.5 106,-0.5 0,-0.5"/>
<text text-anchor="start" x="8" y="-18.5" font-family="Helvetica,sans-Serif" font-size="10.00">source/pdes/linear</text>
<text text-anchor="middle" x="53" y="-7.5" font-family="Helvetica,sans-Serif" font-size="10.00">_elasticity.cc</text>
</a>
</g>
</g>
<!-- Node1&#45;&gt;Node2 -->
<g id="edge1" class="edge">
<title>Node1&#45;&gt;Node2</title>
<path fill="none" stroke="midnightblue" d="M160.21,-63.27C136.48,-52.92 107.22,-40.15 85.27,-30.58"/>
<polygon fill="midnightblue" stroke="midnightblue" points="159.1,-66.61 169.67,-67.4 161.9,-60.19 159.1,-66.61"/>
</g>
<!-- Node3 -->
<g id="node3" class="node">
<title>Node3</title>
<g id="a_node3"><a xlink:href="apps_2mpi_2linear__elasticity_8cc.html" target="_top" xlink:title=" ">
<polygon fill="none" stroke="black" points="124.5,-6 124.5,-25 279.5,-25 279.5,-6 124.5,-6"/>
<text text-anchor="middle" x="202" y="-13" font-family="Helvetica,sans-Serif" font-size="10.00">apps/mpi/linear_elasticity.cc</text>
</a>
</g>
</g>
<!-- Node1&#45;&gt;Node3 -->
<g id="edge2" class="edge">
<title>Node1&#45;&gt;Node3</title>
<path fill="none" stroke="midnightblue" d="M202,-57.25C202,-46.02 202,-33.38 202,-25.19"/>
<polygon fill="midnightblue" stroke="midnightblue" points="198.5,-57.4 202,-67.4 205.5,-57.4 198.5,-57.4"/>
</g>
<!-- Node4 -->
<g id="node4" class="node">
<title>Node4</title>
<g id="a_node4"><a xlink:href="apps_2serial_2linear__elasticity_8cc.html" target="_top" xlink:title=" ">
<polygon fill="none" stroke="black" points="297.5,-0.5 297.5,-30.5 398.5,-30.5 398.5,-0.5 297.5,-0.5"/>
<text text-anchor="start" x="305.5" y="-18.5" font-family="Helvetica,sans-Serif" font-size="10.00">apps/serial/linear</text>
<text text-anchor="middle" x="348" y="-7.5" font-family="Helvetica,sans-Serif" font-size="10.00">_elasticity.cc</text>
</a>
</g>
</g>
<!-- Node1&#45;&gt;Node4 -->
<g id="edge3" class="edge">
<title>Node1&#45;&gt;Node4</title>
<path fill="none" stroke="midnightblue" d="M242.95,-63.27C266.2,-52.92 294.87,-40.15 316.38,-30.58"/>
<polygon fill="midnightblue" stroke="midnightblue" points="241.39,-60.13 233.68,-67.4 244.24,-66.53 241.39,-60.13"/>
</g>
</g>
</svg>
