<?xml version="1.0" encoding="UTF-8" standalone="no"?>
<!DOCTYPE svg PUBLIC "-//W3C//DTD SVG 1.1//EN"
 "http://www.w3.org/Graphics/SVG/1.1/DTD/svg11.dtd">
<!-- Generated by graphviz version 2.43.0 (0)
 -->
<!-- Title: source/mapping_eulerian.cc Pages: 1 -->
<svg width="901pt" height="285pt"
 viewBox="0.00 0.00 901.00 285.00" xmlns="http://www.w3.org/2000/svg" xmlns:xlink="http://www.w3.org/1999/xlink">
<g id="graph0" class="graph" transform="scale(1 1) rotate(0) translate(4 281)">
<title>source/mapping_eulerian.cc</title>
<!-- Node1 -->
<g id="node1" class="node">
<title>Node1</title>
<g id="a_node1"><a xlink:title=" ">
<polygon fill="#bfbfbf" stroke="black" points="364.5,-257.5 364.5,-276.5 517.5,-276.5 517.5,-257.5 364.5,-257.5"/>
<text text-anchor="middle" x="441" y="-264.5" font-family="Helvetica,sans-Serif" font-size="10.00">source/mapping_eulerian.cc</text>
</a>
</g>
</g>
<!-- Node2 -->
<g id="node2" class="node">
<title>Node2</title>
<g id="a_node2"><a xlink:href="mapping__eulerian_8h.html" target="_top" xlink:title=" ">
<polygon fill="none" stroke="black" points="378.5,-190.5 378.5,-220.5 503.5,-220.5 503.5,-190.5 378.5,-190.5"/>
<text text-anchor="start" x="386.5" y="-208.5" font-family="Helvetica,sans-Serif" font-size="10.00">parsed_tools/mapping</text>
<text text-anchor="middle" x="441" y="-197.5" font-family="Helvetica,sans-Serif" font-size="10.00">_eulerian.h</text>
</a>
</g>
</g>
<!-- Node1&#45;&gt;Node2 -->
<g id="edge1" class="edge">
<title>Node1&#45;&gt;Node2</title>
<path fill="none" stroke="midnightblue" d="M441,-257.48C441,-250.47 441,-240.19 441,-230.7"/>
<polygon fill="midnightblue" stroke="midnightblue" points="444.5,-230.52 441,-220.52 437.5,-230.52 444.5,-230.52"/>
</g>
<!-- Node3 -->
<g id="node3" class="node">
<title>Node3</title>
<g id="a_node3"><a target="_parent" xlink:href="http://www.dealii.org/developer/doxygen/deal.II/config_8h.html.html" xlink:title=" ">
<polygon fill="none" stroke="black" points="0,-129 0,-148 114,-148 114,-129 0,-129"/>
<text text-anchor="middle" x="57" y="-136" font-family="Helvetica,sans-Serif" font-size="10.00">deal.II/base/config.h</text>
</a>
</g>
</g>
<!-- Node2&#45;&gt;Node3 -->
<g id="edge2" class="edge">
<title>Node2&#45;&gt;Node3</title>
<path fill="none" stroke="midnightblue" d="M378.36,-195.66C314.09,-186.34 211.29,-170.69 123,-154 116.8,-152.83 110.29,-151.51 103.87,-150.15"/>
<polygon fill="midnightblue" stroke="midnightblue" points="104.44,-146.69 93.92,-148.01 102.96,-153.54 104.44,-146.69"/>
</g>
<!-- Node4 -->
<g id="node4" class="node">
<title>Node4</title>
<g id="a_node4"><a target="_parent" xlink:href="http://www.dealii.org/developer/doxygen/deal.II/general__data__storage_8h.html.html" xlink:title=" ">
<polygon fill="none" stroke="black" points="132,-123.5 132,-153.5 266,-153.5 266,-123.5 132,-123.5"/>
<text text-anchor="start" x="140" y="-141.5" font-family="Helvetica,sans-Serif" font-size="10.00">deal.II/algorithms</text>
<text text-anchor="middle" x="199" y="-130.5" font-family="Helvetica,sans-Serif" font-size="10.00">/general_data_storage.h</text>
</a>
</g>
</g>
<!-- Node2&#45;&gt;Node4 -->
<g id="edge3" class="edge">
<title>Node2&#45;&gt;Node4</title>
<path fill="none" stroke="midnightblue" d="M388.79,-190.48C351.38,-180.43 300.85,-166.86 261.33,-156.24"/>
<polygon fill="midnightblue" stroke="midnightblue" points="262.1,-152.82 251.54,-153.61 260.29,-159.59 262.1,-152.82"/>
</g>
<!-- Node5 -->
<g id="node5" class="node">
<title>Node5</title>
<g id="a_node5"><a target="_parent" xlink:href="http://www.dealii.org/developer/doxygen/deal.II/function__parser_8h.html.html" xlink:title=" ">
<polygon fill="none" stroke="black" points="264,-0.5 264,-30.5 380,-30.5 380,-0.5 264,-0.5"/>
<text text-anchor="start" x="272" y="-18.5" font-family="Helvetica,sans-Serif" font-size="10.00">deal.II/base/function</text>
<text text-anchor="middle" x="322" y="-7.5" font-family="Helvetica,sans-Serif" font-size="10.00">_parser.h</text>
</a>
</g>
</g>
<!-- Node2&#45;&gt;Node5 -->
<g id="edge4" class="edge">
<title>Node2&#45;&gt;Node5</title>
<path fill="none" stroke="midnightblue" d="M378.35,-195.25C353.73,-188.22 327.85,-175.82 313,-154 289.89,-120.03 301.84,-69.75 312.21,-40.34"/>
<polygon fill="midnightblue" stroke="midnightblue" points="315.52,-41.46 315.75,-30.86 308.97,-39.01 315.52,-41.46"/>
</g>
<!-- Node6 -->
<g id="node6" class="node">
<title>Node6</title>
<g id="a_node6"><a target="_parent" xlink:href="http://www.dealii.org/developer/doxygen/deal.II/parameter__acceptor_8h.html.html" xlink:title=" ">
<polygon fill="none" stroke="black" points="412.5,-0.5 412.5,-30.5 539.5,-30.5 539.5,-0.5 412.5,-0.5"/>
<text text-anchor="start" x="420.5" y="-18.5" font-family="Helvetica,sans-Serif" font-size="10.00">deal.II/base/parameter</text>
<text text-anchor="middle" x="476" y="-7.5" font-family="Helvetica,sans-Serif" font-size="10.00">_acceptor.h</text>
</a>
</g>
</g>
<!-- Node2&#45;&gt;Node6 -->
<g id="edge5" class="edge">
<title>Node2&#45;&gt;Node6</title>
<path fill="none" stroke="midnightblue" d="M452.01,-190.38C458.86,-180.73 467.08,-167.3 471,-154 482.31,-115.56 480.95,-68.47 478.66,-40.56"/>
<polygon fill="midnightblue" stroke="midnightblue" points="482.14,-40.16 477.73,-30.52 475.17,-40.8 482.14,-40.16"/>
</g>
<!-- Node7 -->
<g id="node7" class="node">
<title>Node7</title>
<g id="a_node7"><a target="_parent" xlink:href="http://www.dealii.org/developer/doxygen/deal.II/dof__handler_8h.html.html" xlink:title=" ">
<polygon fill="none" stroke="black" points="322,-129 322,-148 462,-148 462,-129 322,-129"/>
<text text-anchor="middle" x="392" y="-136" font-family="Helvetica,sans-Serif" font-size="10.00">deal.II/dofs/dof_handler.h</text>
</a>
</g>
</g>
<!-- Node2&#45;&gt;Node7 -->
<g id="edge6" class="edge">
<title>Node2&#45;&gt;Node7</title>
<path fill="none" stroke="midnightblue" d="M430.37,-190.4C422.8,-180.36 412.61,-166.84 404.63,-156.25"/>
<polygon fill="midnightblue" stroke="midnightblue" points="407.37,-154.07 398.55,-148.19 401.78,-158.29 407.37,-154.07"/>
</g>
<!-- Node9 -->
<g id="node9" class="node">
<title>Node9</title>
<g id="a_node9"><a target="_parent" xlink:href="http://www.dealii.org/developer/doxygen/deal.II/mapping__fe__field_8h.html.html" xlink:title=" ">
<polygon fill="none" stroke="black" points="518.5,-123.5 518.5,-153.5 623.5,-153.5 623.5,-123.5 518.5,-123.5"/>
<text text-anchor="start" x="526.5" y="-141.5" font-family="Helvetica,sans-Serif" font-size="10.00">deal.II/fe/mapping</text>
<text text-anchor="middle" x="571" y="-130.5" font-family="Helvetica,sans-Serif" font-size="10.00">_fe_field.h</text>
</a>
</g>
</g>
<!-- Node2&#45;&gt;Node9 -->
<g id="edge10" class="edge">
<title>Node2&#45;&gt;Node9</title>
<path fill="none" stroke="midnightblue" d="M469.21,-190.4C488.12,-180.94 513.22,-168.39 533.77,-158.12"/>
<polygon fill="midnightblue" stroke="midnightblue" points="535.47,-161.18 542.85,-153.58 532.34,-154.92 535.47,-161.18"/>
</g>
<!-- Node10 -->
<g id="node10" class="node">
<title>Node10</title>
<g id="a_node10"><a target="_parent" xlink:href="http://www.dealii.org/developer/doxygen/deal.II/mapping__q__eulerian_8h.html.html" xlink:title=" ">
<polygon fill="none" stroke="black" points="641.5,-123.5 641.5,-153.5 746.5,-153.5 746.5,-123.5 641.5,-123.5"/>
<text text-anchor="start" x="649.5" y="-141.5" font-family="Helvetica,sans-Serif" font-size="10.00">deal.II/fe/mapping</text>
<text text-anchor="middle" x="694" y="-130.5" font-family="Helvetica,sans-Serif" font-size="10.00">_q_eulerian.h</text>
</a>
</g>
</g>
<!-- Node2&#45;&gt;Node10 -->
<g id="edge11" class="edge">
<title>Node2&#45;&gt;Node10</title>
<path fill="none" stroke="midnightblue" d="M495.59,-190.48C535.53,-180.21 589.79,-166.27 631.48,-155.56"/>
<polygon fill="midnightblue" stroke="midnightblue" points="632.43,-158.93 641.25,-153.05 630.69,-152.15 632.43,-158.93"/>
</g>
<!-- Node11 -->
<g id="node11" class="node">
<title>Node11</title>
<g id="a_node11"><a target="_parent" xlink:href="http://www.dealii.org/developer/doxygen/deal.II/vector__tools_8h.html.html" xlink:title=" ">
<polygon fill="none" stroke="black" points="765,-123.5 765,-153.5 893,-153.5 893,-123.5 765,-123.5"/>
<text text-anchor="start" x="773" y="-141.5" font-family="Helvetica,sans-Serif" font-size="10.00">deal.II/numerics/vector</text>
<text text-anchor="middle" x="829" y="-130.5" font-family="Helvetica,sans-Serif" font-size="10.00">_tools.h</text>
</a>
</g>
</g>
<!-- Node2&#45;&gt;Node11 -->
<g id="edge12" class="edge">
<title>Node2&#45;&gt;Node11</title>
<path fill="none" stroke="midnightblue" d="M503.57,-195.17C565.04,-185.84 661.75,-170.75 755.04,-154.14"/>
<polygon fill="midnightblue" stroke="midnightblue" points="755.7,-157.57 764.93,-152.37 754.47,-150.68 755.7,-157.57"/>
</g>
<!-- Node8 -->
<g id="node8" class="node">
<title>Node8</title>
<g id="a_node8"><a xlink:href="function_8h.html" target="_top" xlink:title=" ">
<polygon fill="none" stroke="black" points="329.5,-67.5 329.5,-86.5 454.5,-86.5 454.5,-67.5 329.5,-67.5"/>
<text text-anchor="middle" x="392" y="-74.5" font-family="Helvetica,sans-Serif" font-size="10.00">deal.II/base/function.h</text>
</a>
</g>
</g>
<!-- Node7&#45;&gt;Node8 -->
<g id="edge7" class="edge">
<title>Node7&#45;&gt;Node8</title>
<path fill="none" stroke="midnightblue" d="M392,-128.98C392,-120.58 392,-107.48 392,-96.66"/>
<polygon fill="midnightblue" stroke="midnightblue" points="395.5,-96.51 392,-86.51 388.5,-96.51 395.5,-96.51"/>
</g>
<!-- Node8&#45;&gt;Node5 -->
<g id="edge8" class="edge">
<title>Node8&#45;&gt;Node5</title>
<path fill="none" stroke="midnightblue" d="M381.97,-67.48C372.67,-59.57 358.45,-47.48 346.2,-37.07"/>
<polygon fill="midnightblue" stroke="midnightblue" points="348.38,-34.33 338.5,-30.52 343.85,-39.67 348.38,-34.33"/>
</g>
<!-- Node8&#45;&gt;Node6 -->
<g id="edge9" class="edge">
<title>Node8&#45;&gt;Node6</title>
<path fill="none" stroke="midnightblue" d="M404.04,-67.48C415.41,-59.42 432.91,-47.02 447.8,-36.47"/>
<polygon fill="midnightblue" stroke="midnightblue" points="450.07,-39.16 456.2,-30.52 446.02,-33.45 450.07,-39.16"/>
</g>
</g>
</svg>
