<?xml version="1.0" encoding="UTF-8" standalone="no"?>
<!DOCTYPE svg PUBLIC "-//W3C//DTD SVG 1.1//EN"
 "http://www.w3.org/Graphics/SVG/1.1/DTD/svg11.dtd">
<!-- Generated by graphviz version 2.43.0 (0)
 -->
<!-- Title: include/parsed_tools/mapping_eulerian.h Pages: 1 -->
<svg width="1088pt" height="173pt"
 viewBox="0.00 0.00 1088.00 173.00" xmlns="http://www.w3.org/2000/svg" xmlns:xlink="http://www.w3.org/1999/xlink">
<g id="graph0" class="graph" transform="scale(1 1) rotate(0) translate(4 169)">
<title>include/parsed_tools/mapping_eulerian.h</title>
<!-- Node1 -->
<g id="node1" class="node">
<title>Node1</title>
<g id="a_node1"><a xlink:title=" ">
<polygon fill="#bfbfbf" stroke="black" points="658,-134.5 658,-164.5 775,-164.5 775,-134.5 658,-134.5"/>
<text text-anchor="start" x="666" y="-152.5" font-family="Helvetica,sans-Serif" font-size="10.00">include/parsed_tools</text>
<text text-anchor="middle" x="716.5" y="-141.5" font-family="Helvetica,sans-Serif" font-size="10.00">/mapping_eulerian.h</text>
</a>
</g>
</g>
<!-- Node2 -->
<g id="node2" class="node">
<title>Node2</title>
<g id="a_node2"><a xlink:href="distributed__lagrange_8h.html" target="_top" xlink:title=" ">
<polygon fill="none" stroke="black" points="210.5,-67.5 210.5,-97.5 344.5,-97.5 344.5,-67.5 210.5,-67.5"/>
<text text-anchor="start" x="218.5" y="-85.5" font-family="Helvetica,sans-Serif" font-size="10.00">include/pdes/distributed</text>
<text text-anchor="middle" x="277.5" y="-74.5" font-family="Helvetica,sans-Serif" font-size="10.00">_lagrange.h</text>
</a>
</g>
</g>
<!-- Node1&#45;&gt;Node2 -->
<g id="edge1" class="edge">
<title>Node1&#45;&gt;Node2</title>
<path fill="none" stroke="midnightblue" d="M647.68,-138.31C564.81,-126.04 426.57,-105.57 344.52,-93.42"/>
<polygon fill="midnightblue" stroke="midnightblue" points="647.35,-141.8 657.75,-139.8 648.37,-134.87 647.35,-141.8"/>
</g>
<!-- Node6 -->
<g id="node6" class="node">
<title>Node6</title>
<g id="a_node6"><a xlink:href="linear__visco__elasticity_8h.html" target="_top" xlink:title=" ">
<polygon fill="none" stroke="black" points="597,-67.5 597,-97.5 706,-97.5 706,-67.5 597,-67.5"/>
<text text-anchor="start" x="605" y="-85.5" font-family="Helvetica,sans-Serif" font-size="10.00">include/pdes/linear</text>
<text text-anchor="middle" x="651.5" y="-74.5" font-family="Helvetica,sans-Serif" font-size="10.00">_visco_elasticity.h</text>
</a>
</g>
</g>
<!-- Node1&#45;&gt;Node6 -->
<g id="edge5" class="edge">
<title>Node1&#45;&gt;Node6</title>
<path fill="none" stroke="midnightblue" d="M695.31,-127.31C685.56,-117.56 674.26,-106.26 665.58,-97.58"/>
<polygon fill="midnightblue" stroke="midnightblue" points="692.85,-129.8 702.4,-134.4 697.8,-124.85 692.85,-129.8"/>
</g>
<!-- Node10 -->
<g id="node10" class="node">
<title>Node10</title>
<g id="a_node10"><a xlink:href="reduced__lagrange_8h.html" target="_top" xlink:title=" ">
<polygon fill="none" stroke="black" points="792.5,-67.5 792.5,-97.5 908.5,-97.5 908.5,-67.5 792.5,-67.5"/>
<text text-anchor="start" x="800.5" y="-85.5" font-family="Helvetica,sans-Serif" font-size="10.00">include/pdes/serial</text>
<text text-anchor="middle" x="850.5" y="-74.5" font-family="Helvetica,sans-Serif" font-size="10.00">/reduced_lagrange.h</text>
</a>
</g>
</g>
<!-- Node1&#45;&gt;Node10 -->
<g id="edge9" class="edge">
<title>Node1&#45;&gt;Node10</title>
<path fill="none" stroke="midnightblue" d="M754.65,-129.99C775.89,-119.69 801.91,-107.07 821.48,-97.58"/>
<polygon fill="midnightblue" stroke="midnightblue" points="753.05,-126.88 745.58,-134.4 756.1,-133.18 753.05,-126.88"/>
</g>
<!-- Node13 -->
<g id="node13" class="node">
<title>Node13</title>
<g id="a_node13"><a xlink:href="mapping__eulerian_8cc.html" target="_top" xlink:title=" ">
<polygon fill="none" stroke="black" points="927,-73 927,-92 1080,-92 1080,-73 927,-73"/>
<text text-anchor="middle" x="1003.5" y="-80" font-family="Helvetica,sans-Serif" font-size="10.00">source/mapping_eulerian.cc</text>
</a>
</g>
</g>
<!-- Node1&#45;&gt;Node13 -->
<g id="edge12" class="edge">
<title>Node1&#45;&gt;Node13</title>
<path fill="none" stroke="midnightblue" d="M785.23,-132.94C841.85,-120.11 920.02,-102.41 965.82,-92.03"/>
<polygon fill="midnightblue" stroke="midnightblue" points="784.25,-129.57 775.27,-135.19 785.8,-136.39 784.25,-129.57"/>
</g>
<!-- Node3 -->
<g id="node3" class="node">
<title>Node3</title>
<g id="a_node3"><a xlink:href="source_2pdes_2distributed__lagrange_8cc.html" target="_top" xlink:title=" ">
<polygon fill="none" stroke="black" points="0,-0.5 0,-30.5 131,-30.5 131,-0.5 0,-0.5"/>
<text text-anchor="start" x="8" y="-18.5" font-family="Helvetica,sans-Serif" font-size="10.00">source/pdes/distributed</text>
<text text-anchor="middle" x="65.5" y="-7.5" font-family="Helvetica,sans-Serif" font-size="10.00">_lagrange.cc</text>
</a>
</g>
</g>
<!-- Node2&#45;&gt;Node3 -->
<g id="edge2" class="edge">
<title>Node2&#45;&gt;Node3</title>
<path fill="none" stroke="midnightblue" d="M221.87,-64.44C187.51,-53.91 143.94,-40.55 111.52,-30.61"/>
<polygon fill="midnightblue" stroke="midnightblue" points="221.17,-67.89 231.76,-67.48 223.23,-61.2 221.17,-67.89"/>
</g>
<!-- Node4 -->
<g id="node4" class="node">
<title>Node4</title>
<g id="a_node4"><a xlink:href="apps_2mpi_2distributed__lagrange_8cc.html" target="_top" xlink:title=" ">
<polygon fill="none" stroke="black" points="149,-0.5 149,-30.5 266,-30.5 266,-0.5 149,-0.5"/>
<text text-anchor="start" x="157" y="-18.5" font-family="Helvetica,sans-Serif" font-size="10.00">apps/mpi/distributed</text>
<text text-anchor="middle" x="207.5" y="-7.5" font-family="Helvetica,sans-Serif" font-size="10.00">_lagrange.cc</text>
</a>
</g>
</g>
<!-- Node2&#45;&gt;Node4 -->
<g id="edge3" class="edge">
<title>Node2&#45;&gt;Node4</title>
<path fill="none" stroke="midnightblue" d="M254.68,-60.31C244.18,-50.56 232.01,-39.26 222.66,-30.58"/>
<polygon fill="midnightblue" stroke="midnightblue" points="252.6,-63.16 262.31,-67.4 257.36,-58.03 252.6,-63.16"/>
</g>
<!-- Node5 -->
<g id="node5" class="node">
<title>Node5</title>
<g id="a_node5"><a xlink:href="apps_2serial_2distributed__lagrange_8cc.html" target="_top" xlink:title=" ">
<polygon fill="none" stroke="black" points="284,-0.5 284,-30.5 409,-30.5 409,-0.5 284,-0.5"/>
<text text-anchor="start" x="292" y="-18.5" font-family="Helvetica,sans-Serif" font-size="10.00">apps/serial/distributed</text>
<text text-anchor="middle" x="346.5" y="-7.5" font-family="Helvetica,sans-Serif" font-size="10.00">_lagrange.cc</text>
</a>
</g>
</g>
<!-- Node2&#45;&gt;Node5 -->
<g id="edge4" class="edge">
<title>Node2&#45;&gt;Node5</title>
<path fill="none" stroke="midnightblue" d="M299.99,-60.31C310.34,-50.56 322.34,-39.26 331.56,-30.58"/>
<polygon fill="midnightblue" stroke="midnightblue" points="297.35,-57.99 292.47,-67.4 302.15,-63.09 297.35,-57.99"/>
</g>
<!-- Node7 -->
<g id="node7" class="node">
<title>Node7</title>
<g id="a_node7"><a xlink:href="source_2pdes_2linear__visco__elasticity_8cc.html" target="_top" xlink:title=" ">
<polygon fill="none" stroke="black" points="427.5,-0.5 427.5,-30.5 537.5,-30.5 537.5,-0.5 427.5,-0.5"/>
<text text-anchor="start" x="435.5" y="-18.5" font-family="Helvetica,sans-Serif" font-size="10.00">source/pdes/linear</text>
<text text-anchor="middle" x="482.5" y="-7.5" font-family="Helvetica,sans-Serif" font-size="10.00">_visco_elasticity.cc</text>
</a>
</g>
</g>
<!-- Node6&#45;&gt;Node7 -->
<g id="edge6" class="edge">
<title>Node6&#45;&gt;Node7</title>
<path fill="none" stroke="midnightblue" d="M605.17,-63.68C578.07,-53.26 544.33,-40.28 519.1,-30.58"/>
<polygon fill="midnightblue" stroke="midnightblue" points="604.24,-67.07 614.83,-67.4 606.75,-60.54 604.24,-67.07"/>
</g>
<!-- Node8 -->
<g id="node8" class="node">
<title>Node8</title>
<g id="a_node8"><a xlink:href="apps_2mpi_2linear__visco__elasticity_8cc.html" target="_top" xlink:title=" ">
<polygon fill="none" stroke="black" points="556,-0.5 556,-30.5 679,-30.5 679,-0.5 556,-0.5"/>
<text text-anchor="start" x="564" y="-18.5" font-family="Helvetica,sans-Serif" font-size="10.00">apps/mpi/linear_visco</text>
<text text-anchor="middle" x="617.5" y="-7.5" font-family="Helvetica,sans-Serif" font-size="10.00">_elasticity.cc</text>
</a>
</g>
</g>
<!-- Node6&#45;&gt;Node8 -->
<g id="edge7" class="edge">
<title>Node6&#45;&gt;Node8</title>
<path fill="none" stroke="midnightblue" d="M639.36,-58.28C634.51,-49.02 629.09,-38.66 624.86,-30.58"/>
<polygon fill="midnightblue" stroke="midnightblue" points="636.39,-60.16 644.12,-67.4 642.59,-56.91 636.39,-60.16"/>
</g>
<!-- Node9 -->
<g id="node9" class="node">
<title>Node9</title>
<g id="a_node9"><a xlink:href="apps_2serial_2linear__visco__elasticity_8cc.html" target="_top" xlink:title=" ">
<polygon fill="none" stroke="black" points="697.5,-0.5 697.5,-30.5 807.5,-30.5 807.5,-0.5 697.5,-0.5"/>
<text text-anchor="start" x="705.5" y="-18.5" font-family="Helvetica,sans-Serif" font-size="10.00">apps/serial/linear</text>
<text text-anchor="middle" x="752.5" y="-7.5" font-family="Helvetica,sans-Serif" font-size="10.00">_visco_elasticity.cc</text>
</a>
</g>
</g>
<!-- Node6&#45;&gt;Node9 -->
<g id="edge8" class="edge">
<title>Node6&#45;&gt;Node9</title>
<path fill="none" stroke="midnightblue" d="M682.21,-61.73C697.84,-51.68 716.47,-39.68 730.63,-30.58"/>
<polygon fill="midnightblue" stroke="midnightblue" points="679.93,-59.04 673.42,-67.4 683.72,-64.93 679.93,-59.04"/>
</g>
<!-- Node11 -->
<g id="node11" class="node">
<title>Node11</title>
<g id="a_node11"><a xlink:href="source_2pdes_2serial_2reduced__lagrange_8cc.html" target="_top" xlink:title=" ">
<polygon fill="none" stroke="black" points="825.5,-0.5 825.5,-30.5 945.5,-30.5 945.5,-0.5 825.5,-0.5"/>
<text text-anchor="start" x="833.5" y="-18.5" font-family="Helvetica,sans-Serif" font-size="10.00">source/pdes/serial</text>
<text text-anchor="middle" x="885.5" y="-7.5" font-family="Helvetica,sans-Serif" font-size="10.00">/reduced_lagrange.cc</text>
</a>
</g>
</g>
<!-- Node10&#45;&gt;Node11 -->
<g id="edge10" class="edge">
<title>Node10&#45;&gt;Node11</title>
<path fill="none" stroke="midnightblue" d="M862.84,-58.58C867.87,-49.24 873.52,-38.75 877.92,-30.58"/>
<polygon fill="midnightblue" stroke="midnightblue" points="859.75,-56.93 858.09,-67.4 865.92,-60.25 859.75,-56.93"/>
</g>
<!-- Node12 -->
<g id="node12" class="node">
<title>Node12</title>
<g id="a_node12"><a xlink:href="apps_2serial_2reduced__lagrange_8cc.html" target="_top" xlink:title=" ">
<polygon fill="none" stroke="black" points="963.5,-0.5 963.5,-30.5 1075.5,-30.5 1075.5,-0.5 963.5,-0.5"/>
<text text-anchor="start" x="971.5" y="-18.5" font-family="Helvetica,sans-Serif" font-size="10.00">apps/serial/reduced</text>
<text text-anchor="middle" x="1019.5" y="-7.5" font-family="Helvetica,sans-Serif" font-size="10.00">_lagrange.cc</text>
</a>
</g>
</g>
<!-- Node10&#45;&gt;Node12 -->
<g id="edge11" class="edge">
<title>Node10&#45;&gt;Node12</title>
<path fill="none" stroke="midnightblue" d="M896.83,-63.68C923.93,-53.26 957.67,-40.28 982.9,-30.58"/>
<polygon fill="midnightblue" stroke="midnightblue" points="895.25,-60.54 887.17,-67.4 897.76,-67.07 895.25,-60.54"/>
</g>
</g>
</svg>
