<?xml version="1.0" encoding="UTF-8" standalone="no"?>
<!DOCTYPE svg PUBLIC "-//W3C//DTD SVG 1.1//EN"
 "http://www.w3.org/Graphics/SVG/1.1/DTD/svg11.dtd">
<!-- Generated by graphviz version 2.43.0 (0)
 -->
<!-- Title: include/parsed_tools/mapping_eulerian.h Pages: 1 -->
<svg width="903pt" height="229pt"
 viewBox="0.00 0.00 902.50 229.00" xmlns="http://www.w3.org/2000/svg" xmlns:xlink="http://www.w3.org/1999/xlink">
<g id="graph0" class="graph" transform="scale(1 1) rotate(0) translate(4 225)">
<title>include/parsed_tools/mapping_eulerian.h</title>
<!-- Node1 -->
<g id="node1" class="node">
<title>Node1</title>
<g id="a_node1"><a xlink:title=" ">
<polygon fill="#bfbfbf" stroke="black" points="384,-190.5 384,-220.5 501,-220.5 501,-190.5 384,-190.5"/>
<text text-anchor="start" x="392" y="-208.5" font-family="Helvetica,sans-Serif" font-size="10.00">include/parsed_tools</text>
<text text-anchor="middle" x="442.5" y="-197.5" font-family="Helvetica,sans-Serif" font-size="10.00">/mapping_eulerian.h</text>
</a>
</g>
</g>
<!-- Node2 -->
<g id="node2" class="node">
<title>Node2</title>
<g id="a_node2"><a xlink:href="http://www.dealii.org/developer/doxygen/deal.II/config_8h.html.html" xlink:title=" ">
<polygon fill="none" stroke="black" points="0,-129 0,-148 115,-148 115,-129 0,-129"/>
<text text-anchor="middle" x="57.5" y="-136" font-family="Helvetica,sans-Serif" font-size="10.00">deal.II/base/config.h</text>
</a>
</g>
</g>
<!-- Node1&#45;&gt;Node2 -->
<g id="edge1" class="edge">
<title>Node1&#45;&gt;Node2</title>
<path fill="none" stroke="midnightblue" d="M383.72,-196.17C319.77,-186.87 214.61,-170.89 124.5,-154 118.28,-152.83 111.76,-151.53 105.32,-150.19"/>
<polygon fill="midnightblue" stroke="midnightblue" points="105.85,-146.72 95.34,-148.07 104.4,-153.57 105.85,-146.72"/>
</g>
<!-- Node3 -->
<g id="node3" class="node">
<title>Node3</title>
<g id="a_node3"><a xlink:href="http://www.dealii.org/developer/doxygen/deal.II/general__data__storage_8h.html.html" xlink:title=" ">
<polygon fill="none" stroke="black" points="133.5,-123.5 133.5,-153.5 267.5,-153.5 267.5,-123.5 133.5,-123.5"/>
<text text-anchor="start" x="141.5" y="-141.5" font-family="Helvetica,sans-Serif" font-size="10.00">deal.II/algorithms</text>
<text text-anchor="middle" x="200.5" y="-130.5" font-family="Helvetica,sans-Serif" font-size="10.00">/general_data_storage.h</text>
</a>
</g>
</g>
<!-- Node1&#45;&gt;Node3 -->
<g id="edge2" class="edge">
<title>Node1&#45;&gt;Node3</title>
<path fill="none" stroke="midnightblue" d="M390.29,-190.48C352.88,-180.43 302.35,-166.86 262.83,-156.24"/>
<polygon fill="midnightblue" stroke="midnightblue" points="263.6,-152.82 253.04,-153.61 261.79,-159.59 263.6,-152.82"/>
</g>
<!-- Node4 -->
<g id="node4" class="node">
<title>Node4</title>
<g id="a_node4"><a xlink:href="http://www.dealii.org/developer/doxygen/deal.II/function__parser_8h.html.html" xlink:title=" ">
<polygon fill="none" stroke="black" points="265.5,-0.5 265.5,-30.5 381.5,-30.5 381.5,-0.5 265.5,-0.5"/>
<text text-anchor="start" x="273.5" y="-18.5" font-family="Helvetica,sans-Serif" font-size="10.00">deal.II/base/function</text>
<text text-anchor="middle" x="323.5" y="-7.5" font-family="Helvetica,sans-Serif" font-size="10.00">_parser.h</text>
</a>
</g>
</g>
<!-- Node1&#45;&gt;Node4 -->
<g id="edge3" class="edge">
<title>Node1&#45;&gt;Node4</title>
<path fill="none" stroke="midnightblue" d="M383.85,-196.35C358.07,-189.53 330.16,-177.01 314.5,-154 291.39,-120.03 303.34,-69.75 313.71,-40.34"/>
<polygon fill="midnightblue" stroke="midnightblue" points="317.02,-41.46 317.25,-30.86 310.47,-39.01 317.02,-41.46"/>
</g>
<!-- Node5 -->
<g id="node5" class="node">
<title>Node5</title>
<g id="a_node5"><a xlink:href="http://www.dealii.org/developer/doxygen/deal.II/parameter__acceptor_8h.html.html" xlink:title=" ">
<polygon fill="none" stroke="black" points="414,-0.5 414,-30.5 541,-30.5 541,-0.5 414,-0.5"/>
<text text-anchor="start" x="422" y="-18.5" font-family="Helvetica,sans-Serif" font-size="10.00">deal.II/base/parameter</text>
<text text-anchor="middle" x="477.5" y="-7.5" font-family="Helvetica,sans-Serif" font-size="10.00">_acceptor.h</text>
</a>
</g>
</g>
<!-- Node1&#45;&gt;Node5 -->
<g id="edge4" class="edge">
<title>Node1&#45;&gt;Node5</title>
<path fill="none" stroke="midnightblue" d="M453.51,-190.38C460.36,-180.73 468.58,-167.3 472.5,-154 483.81,-115.56 482.45,-68.47 480.16,-40.56"/>
<polygon fill="midnightblue" stroke="midnightblue" points="483.64,-40.16 479.23,-30.52 476.67,-40.8 483.64,-40.16"/>
</g>
<!-- Node6 -->
<g id="node6" class="node">
<title>Node6</title>
<g id="a_node6"><a xlink:href="http://www.dealii.org/developer/doxygen/deal.II/dof__handler_8h.html.html" xlink:title=" ">
<polygon fill="none" stroke="black" points="323.5,-129 323.5,-148 463.5,-148 463.5,-129 323.5,-129"/>
<text text-anchor="middle" x="393.5" y="-136" font-family="Helvetica,sans-Serif" font-size="10.00">deal.II/dofs/dof_handler.h</text>
</a>
</g>
</g>
<!-- Node1&#45;&gt;Node6 -->
<g id="edge5" class="edge">
<title>Node1&#45;&gt;Node6</title>
<path fill="none" stroke="midnightblue" d="M431.87,-190.4C424.3,-180.36 414.11,-166.84 406.13,-156.25"/>
<polygon fill="midnightblue" stroke="midnightblue" points="408.87,-154.07 400.05,-148.19 403.28,-158.29 408.87,-154.07"/>
</g>
<!-- Node8 -->
<g id="node8" class="node">
<title>Node8</title>
<g id="a_node8"><a xlink:href="http://www.dealii.org/developer/doxygen/deal.II/mapping__fe__field_8h.html.html" xlink:title=" ">
<polygon fill="none" stroke="black" points="520,-123.5 520,-153.5 625,-153.5 625,-123.5 520,-123.5"/>
<text text-anchor="start" x="528" y="-141.5" font-family="Helvetica,sans-Serif" font-size="10.00">deal.II/fe/mapping</text>
<text text-anchor="middle" x="572.5" y="-130.5" font-family="Helvetica,sans-Serif" font-size="10.00">_fe_field.h</text>
</a>
</g>
</g>
<!-- Node1&#45;&gt;Node8 -->
<g id="edge9" class="edge">
<title>Node1&#45;&gt;Node8</title>
<path fill="none" stroke="midnightblue" d="M470.71,-190.4C489.62,-180.94 514.72,-168.39 535.27,-158.12"/>
<polygon fill="midnightblue" stroke="midnightblue" points="536.97,-161.18 544.35,-153.58 533.84,-154.92 536.97,-161.18"/>
</g>
<!-- Node9 -->
<g id="node9" class="node">
<title>Node9</title>
<g id="a_node9"><a xlink:href="http://www.dealii.org/developer/doxygen/deal.II/mapping__q__eulerian_8h.html.html" xlink:title=" ">
<polygon fill="none" stroke="black" points="643,-123.5 643,-153.5 748,-153.5 748,-123.5 643,-123.5"/>
<text text-anchor="start" x="651" y="-141.5" font-family="Helvetica,sans-Serif" font-size="10.00">deal.II/fe/mapping</text>
<text text-anchor="middle" x="695.5" y="-130.5" font-family="Helvetica,sans-Serif" font-size="10.00">_q_eulerian.h</text>
</a>
</g>
</g>
<!-- Node1&#45;&gt;Node9 -->
<g id="edge10" class="edge">
<title>Node1&#45;&gt;Node9</title>
<path fill="none" stroke="midnightblue" d="M497.09,-190.48C537.03,-180.21 591.29,-166.27 632.98,-155.56"/>
<polygon fill="midnightblue" stroke="midnightblue" points="633.93,-158.93 642.75,-153.05 632.19,-152.15 633.93,-158.93"/>
</g>
<!-- Node10 -->
<g id="node10" class="node">
<title>Node10</title>
<g id="a_node10"><a xlink:href="http://www.dealii.org/developer/doxygen/deal.II/vector__tools_8h.html.html" xlink:title=" ">
<polygon fill="none" stroke="black" points="766.5,-123.5 766.5,-153.5 894.5,-153.5 894.5,-123.5 766.5,-123.5"/>
<text text-anchor="start" x="774.5" y="-141.5" font-family="Helvetica,sans-Serif" font-size="10.00">deal.II/numerics/vector</text>
<text text-anchor="middle" x="830.5" y="-130.5" font-family="Helvetica,sans-Serif" font-size="10.00">_tools.h</text>
</a>
</g>
</g>
<!-- Node1&#45;&gt;Node10 -->
<g id="edge11" class="edge">
<title>Node1&#45;&gt;Node10</title>
<path fill="none" stroke="midnightblue" d="M501.25,-195.75C562.43,-186.48 661.32,-171.09 756.36,-154.17"/>
<polygon fill="midnightblue" stroke="midnightblue" points="757.2,-157.57 766.43,-152.37 755.97,-150.68 757.2,-157.57"/>
</g>
<!-- Node7 -->
<g id="node7" class="node">
<title>Node7</title>
<g id="a_node7"><a xlink:href="function_8h.html" target="_top" xlink:title=" ">
<polygon fill="none" stroke="black" points="331,-67.5 331,-86.5 456,-86.5 456,-67.5 331,-67.5"/>
<text text-anchor="middle" x="393.5" y="-74.5" font-family="Helvetica,sans-Serif" font-size="10.00">deal.II/base/function.h</text>
</a>
</g>
</g>
<!-- Node6&#45;&gt;Node7 -->
<g id="edge6" class="edge">
<title>Node6&#45;&gt;Node7</title>
<path fill="none" stroke="midnightblue" d="M393.5,-128.98C393.5,-120.58 393.5,-107.48 393.5,-96.66"/>
<polygon fill="midnightblue" stroke="midnightblue" points="397,-96.51 393.5,-86.51 390,-96.51 397,-96.51"/>
</g>
<!-- Node7&#45;&gt;Node4 -->
<g id="edge7" class="edge">
<title>Node7&#45;&gt;Node4</title>
<path fill="none" stroke="midnightblue" d="M383.47,-67.48C374.17,-59.57 359.95,-47.48 347.7,-37.07"/>
<polygon fill="midnightblue" stroke="midnightblue" points="349.88,-34.33 340,-30.52 345.35,-39.67 349.88,-34.33"/>
</g>
<!-- Node7&#45;&gt;Node5 -->
<g id="edge8" class="edge">
<title>Node7&#45;&gt;Node5</title>
<path fill="none" stroke="midnightblue" d="M405.54,-67.48C416.91,-59.42 434.41,-47.02 449.3,-36.47"/>
<polygon fill="midnightblue" stroke="midnightblue" points="451.57,-39.16 457.7,-30.52 447.52,-33.45 451.57,-39.16"/>
</g>
</g>
</svg>
