<?xml version="1.0" encoding="UTF-8" standalone="no"?>
<!DOCTYPE svg PUBLIC "-//W3C//DTD SVG 1.1//EN"
 "http://www.w3.org/Graphics/SVG/1.1/DTD/svg11.dtd">
<!-- Generated by graphviz version 2.43.0 (0)
 -->
<!-- Title: include/mesh_handler.h Pages: 1 -->
<svg width="945pt" height="274pt"
 viewBox="0.00 0.00 944.98 274.00" xmlns="http://www.w3.org/2000/svg" xmlns:xlink="http://www.w3.org/1999/xlink">
<g id="graph0" class="graph" transform="scale(1 1) rotate(0) translate(4 270)">
<title>include/mesh_handler.h</title>
<!-- Node1 -->
<g id="node1" class="node">
<title>Node1</title>
<g id="a_node1"><a xlink:title=" ">
<polygon fill="#bfbfbf" stroke="black" points="397.48,-246.5 397.48,-265.5 530.48,-265.5 530.48,-246.5 397.48,-246.5"/>
<text text-anchor="middle" x="463.98" y="-253.5" font-family="Helvetica,sans-Serif" font-size="10.00">include/mesh_handler.h</text>
</a>
</g>
</g>
<!-- Node2 -->
<g id="node2" class="node">
<title>Node2</title>
<g id="a_node2"><a xlink:href="grid__generator_8h.html" target="_top" xlink:title=" ">
<polygon fill="none" stroke="black" points="237.98,-190.5 237.98,-209.5 399.98,-209.5 399.98,-190.5 237.98,-190.5"/>
<text text-anchor="middle" x="318.98" y="-197.5" font-family="Helvetica,sans-Serif" font-size="10.00">parsed_tools/grid_generator.h</text>
</a>
</g>
</g>
<!-- Node1&#45;&gt;Node2 -->
<g id="edge1" class="edge">
<title>Node1&#45;&gt;Node2</title>
<path fill="none" stroke="midnightblue" d="M441.01,-246.44C416.83,-237.44 378.57,-223.19 351.34,-213.05"/>
<polygon fill="midnightblue" stroke="midnightblue" points="352.45,-209.73 341.85,-209.52 350,-216.29 352.45,-209.73"/>
</g>
<!-- Node11 -->
<g id="node11" class="node">
<title>Node11</title>
<g id="a_node11"><a xlink:href="grid__info_8h.html" target="_top" xlink:title=" ">
<polygon fill="none" stroke="black" points="605.98,-190.5 605.98,-209.5 739.98,-209.5 739.98,-190.5 605.98,-190.5"/>
<text text-anchor="middle" x="672.98" y="-197.5" font-family="Helvetica,sans-Serif" font-size="10.00">parsed_tools/grid_info.h</text>
</a>
</g>
</g>
<!-- Node1&#45;&gt;Node11 -->
<g id="edge11" class="edge">
<title>Node1&#45;&gt;Node11</title>
<path fill="none" stroke="midnightblue" d="M497.1,-246.44C533.1,-237.14 590.75,-222.25 630.17,-212.06"/>
<polygon fill="midnightblue" stroke="midnightblue" points="631.22,-215.41 640.02,-209.52 629.47,-208.63 631.22,-215.41"/>
</g>
<!-- Node3 -->
<g id="node3" class="node">
<title>Node3</title>
<g id="a_node3"><a xlink:href="http://www.dealii.org/developer/doxygen/deal.II/parameter__acceptor_8h.html.html" xlink:title=" ">
<polygon fill="none" stroke="black" points="95.48,-0.5 95.48,-30.5 222.48,-30.5 222.48,-0.5 95.48,-0.5"/>
<text text-anchor="start" x="103.48" y="-18.5" font-family="Helvetica,sans-Serif" font-size="10.00">deal.II/base/parameter</text>
<text text-anchor="middle" x="158.98" y="-7.5" font-family="Helvetica,sans-Serif" font-size="10.00">_acceptor.h</text>
</a>
</g>
</g>
<!-- Node2&#45;&gt;Node3 -->
<g id="edge2" class="edge">
<title>Node2&#45;&gt;Node3</title>
<path fill="none" stroke="midnightblue" d="M237.98,-198.69C156.78,-196.45 39.79,-187.32 10.98,-154 -29.43,-107.25 55.89,-59.72 113.02,-34.63"/>
<polygon fill="midnightblue" stroke="midnightblue" points="114.47,-37.82 122.27,-30.65 111.7,-31.39 114.47,-37.82"/>
</g>
<!-- Node4 -->
<g id="node4" class="node">
<title>Node4</title>
<g id="a_node4"><a xlink:href="http://www.dealii.org/developer/doxygen/deal.II/distributed_2grid__refinement_8h.html.html" xlink:title=" ">
<polygon fill="none" stroke="black" points="20.48,-123.5 20.48,-153.5 127.48,-153.5 127.48,-123.5 20.48,-123.5"/>
<text text-anchor="start" x="28.48" y="-141.5" font-family="Helvetica,sans-Serif" font-size="10.00">deal.II/distributed</text>
<text text-anchor="middle" x="73.98" y="-130.5" font-family="Helvetica,sans-Serif" font-size="10.00">/grid_refinement.h</text>
</a>
</g>
</g>
<!-- Node2&#45;&gt;Node4 -->
<g id="edge3" class="edge">
<title>Node2&#45;&gt;Node4</title>
<path fill="none" stroke="midnightblue" d="M283.88,-190.48C245.79,-181.22 184.18,-166.26 137.54,-154.93"/>
<polygon fill="midnightblue" stroke="midnightblue" points="138.07,-151.46 127.53,-152.5 136.42,-158.26 138.07,-151.46"/>
</g>
<!-- Node5 -->
<g id="node5" class="node">
<title>Node5</title>
<g id="a_node5"><a xlink:href="http://www.dealii.org/developer/doxygen/deal.II/distributed_2tria_8h.html.html" xlink:title=" ">
<polygon fill="none" stroke="black" points="145.98,-123.5 145.98,-153.5 247.98,-153.5 247.98,-123.5 145.98,-123.5"/>
<text text-anchor="start" x="153.98" y="-141.5" font-family="Helvetica,sans-Serif" font-size="10.00">deal.II/distributed</text>
<text text-anchor="middle" x="196.98" y="-130.5" font-family="Helvetica,sans-Serif" font-size="10.00">/tria.h</text>
</a>
</g>
</g>
<!-- Node2&#45;&gt;Node5 -->
<g id="edge4" class="edge">
<title>Node2&#45;&gt;Node5</title>
<path fill="none" stroke="midnightblue" d="M301.51,-190.48C284.21,-182.04 257.18,-168.86 234.93,-158.01"/>
<polygon fill="midnightblue" stroke="midnightblue" points="236.26,-154.76 225.74,-153.52 233.19,-161.05 236.26,-154.76"/>
</g>
<!-- Node6 -->
<g id="node6" class="node">
<title>Node6</title>
<g id="a_node6"><a xlink:href="http://www.dealii.org/developer/doxygen/deal.II/mapping__q__generic_8h.html.html" xlink:title=" ">
<polygon fill="none" stroke="black" points="266.48,-123.5 266.48,-153.5 371.48,-153.5 371.48,-123.5 266.48,-123.5"/>
<text text-anchor="start" x="274.48" y="-141.5" font-family="Helvetica,sans-Serif" font-size="10.00">deal.II/fe/mapping</text>
<text text-anchor="middle" x="318.98" y="-130.5" font-family="Helvetica,sans-Serif" font-size="10.00">_q_generic.h</text>
</a>
</g>
</g>
<!-- Node2&#45;&gt;Node6 -->
<g id="edge5" class="edge">
<title>Node2&#45;&gt;Node6</title>
<path fill="none" stroke="midnightblue" d="M318.98,-190.48C318.98,-183.47 318.98,-173.19 318.98,-163.7"/>
<polygon fill="midnightblue" stroke="midnightblue" points="322.49,-163.52 318.98,-153.52 315.49,-163.52 322.49,-163.52"/>
</g>
<!-- Node7 -->
<g id="node7" class="node">
<title>Node7</title>
<g id="a_node7"><a xlink:href="http://www.dealii.org/developer/doxygen/deal.II/grid__generator_8h.html.html" xlink:title=" ">
<polygon fill="none" stroke="black" points="389.98,-129 389.98,-148 541.98,-148 541.98,-129 389.98,-129"/>
<text text-anchor="middle" x="465.98" y="-136" font-family="Helvetica,sans-Serif" font-size="10.00">deal.II/grid/grid_generator.h</text>
</a>
</g>
</g>
<!-- Node2&#45;&gt;Node7 -->
<g id="edge6" class="edge">
<title>Node2&#45;&gt;Node7</title>
<path fill="none" stroke="midnightblue" d="M340.05,-190.48C365.04,-180.36 406.93,-163.4 435.47,-151.85"/>
<polygon fill="midnightblue" stroke="midnightblue" points="437.01,-155.01 444.96,-148.01 434.38,-148.52 437.01,-155.01"/>
</g>
<!-- Node10 -->
<g id="node10" class="node">
<title>Node10</title>
<g id="a_node10"><a xlink:href="http://www.dealii.org/developer/doxygen/deal.II/grid_2tria_8h.html.html" xlink:title=" ">
<polygon fill="none" stroke="black" points="560.48,-129 560.48,-148 657.48,-148 657.48,-129 560.48,-129"/>
<text text-anchor="middle" x="608.98" y="-136" font-family="Helvetica,sans-Serif" font-size="10.00">deal.II/grid/tria.h</text>
</a>
</g>
</g>
<!-- Node2&#45;&gt;Node10 -->
<g id="edge10" class="edge">
<title>Node2&#45;&gt;Node10</title>
<path fill="none" stroke="midnightblue" d="M367.13,-190.44C414.16,-181.89 487.7,-168.04 550.98,-154 555.99,-152.89 561.22,-151.67 566.4,-150.42"/>
<polygon fill="midnightblue" stroke="midnightblue" points="567.36,-153.79 576.24,-148.01 565.69,-146.99 567.36,-153.79"/>
</g>
<!-- Node8 -->
<g id="node8" class="node">
<title>Node8</title>
<g id="a_node8"><a xlink:href="function_8h.html" target="_top" xlink:title=" ">
<polygon fill="none" stroke="black" points="319.48,-67.5 319.48,-86.5 444.48,-86.5 444.48,-67.5 319.48,-67.5"/>
<text text-anchor="middle" x="381.98" y="-74.5" font-family="Helvetica,sans-Serif" font-size="10.00">deal.II/base/function.h</text>
</a>
</g>
</g>
<!-- Node7&#45;&gt;Node8 -->
<g id="edge7" class="edge">
<title>Node7&#45;&gt;Node8</title>
<path fill="none" stroke="midnightblue" d="M453.95,-128.98C440.48,-119.43 418.42,-103.81 402.27,-92.37"/>
<polygon fill="midnightblue" stroke="midnightblue" points="404.18,-89.43 394,-86.51 400.13,-95.15 404.18,-89.43"/>
</g>
<!-- Node8&#45;&gt;Node3 -->
<g id="edge9" class="edge">
<title>Node8&#45;&gt;Node3</title>
<path fill="none" stroke="midnightblue" d="M350.03,-67.48C316.59,-58.55 263.21,-44.31 221.37,-33.14"/>
<polygon fill="midnightblue" stroke="midnightblue" points="222.11,-29.72 211.54,-30.52 220.3,-36.48 222.11,-29.72"/>
</g>
<!-- Node9 -->
<g id="node9" class="node">
<title>Node9</title>
<g id="a_node9"><a xlink:href="http://www.dealii.org/developer/doxygen/deal.II/function__parser_8h.html.html" xlink:title=" ">
<polygon fill="none" stroke="black" points="323.98,-0.5 323.98,-30.5 439.98,-30.5 439.98,-0.5 323.98,-0.5"/>
<text text-anchor="start" x="331.98" y="-18.5" font-family="Helvetica,sans-Serif" font-size="10.00">deal.II/base/function</text>
<text text-anchor="middle" x="381.98" y="-7.5" font-family="Helvetica,sans-Serif" font-size="10.00">_parser.h</text>
</a>
</g>
</g>
<!-- Node8&#45;&gt;Node9 -->
<g id="edge8" class="edge">
<title>Node8&#45;&gt;Node9</title>
<path fill="none" stroke="midnightblue" d="M381.98,-67.48C381.98,-60.47 381.98,-50.19 381.98,-40.7"/>
<polygon fill="midnightblue" stroke="midnightblue" points="385.49,-40.52 381.98,-30.52 378.49,-40.52 385.49,-40.52"/>
</g>
<!-- Node11&#45;&gt;Node10 -->
<g id="edge14" class="edge">
<title>Node11&#45;&gt;Node10</title>
<path fill="none" stroke="midnightblue" d="M663.82,-190.48C653.84,-181.2 637.67,-166.17 625.48,-154.83"/>
<polygon fill="midnightblue" stroke="midnightblue" points="627.84,-152.25 618.14,-148.01 623.08,-157.38 627.84,-152.25"/>
</g>
<!-- Node12 -->
<g id="node12" class="node">
<title>Node12</title>
<g id="a_node12"><a xlink:href="http://www.dealii.org/developer/doxygen/deal.II/patterns_8h.html.html" xlink:title=" ">
<polygon fill="none" stroke="black" points="675.48,-129 675.48,-148 800.48,-148 800.48,-129 675.48,-129"/>
<text text-anchor="middle" x="737.98" y="-136" font-family="Helvetica,sans-Serif" font-size="10.00">deal.II/base/patterns.h</text>
</a>
</g>
</g>
<!-- Node11&#45;&gt;Node12 -->
<g id="edge12" class="edge">
<title>Node11&#45;&gt;Node12</title>
<path fill="none" stroke="midnightblue" d="M682.3,-190.48C692.43,-181.2 708.85,-166.17 721.24,-154.83"/>
<polygon fill="midnightblue" stroke="midnightblue" points="723.68,-157.34 728.69,-148.01 718.95,-152.18 723.68,-157.34"/>
</g>
<!-- Node13 -->
<g id="node13" class="node">
<title>Node13</title>
<g id="a_node13"><a xlink:href="http://www.dealii.org/developer/doxygen/deal.II/reference__cell_8h.html.html" xlink:title=" ">
<polygon fill="none" stroke="black" points="818.98,-123.5 818.98,-153.5 936.98,-153.5 936.98,-123.5 818.98,-123.5"/>
<text text-anchor="start" x="826.98" y="-141.5" font-family="Helvetica,sans-Serif" font-size="10.00">deal.II/grid/reference</text>
<text text-anchor="middle" x="877.98" y="-130.5" font-family="Helvetica,sans-Serif" font-size="10.00">_cell.h</text>
</a>
</g>
</g>
<!-- Node11&#45;&gt;Node13 -->
<g id="edge13" class="edge">
<title>Node11&#45;&gt;Node13</title>
<path fill="none" stroke="midnightblue" d="M702.36,-190.48C732.85,-181.63 781.35,-167.55 819.66,-156.43"/>
<polygon fill="midnightblue" stroke="midnightblue" points="821.04,-159.67 829.67,-153.52 819.09,-152.95 821.04,-159.67"/>
</g>
</g>
</svg>
