<?xml version="1.0" encoding="UTF-8" standalone="no"?>
<!DOCTYPE svg PUBLIC "-//W3C//DTD SVG 1.1//EN"
 "http://www.w3.org/Graphics/SVG/1.1/DTD/svg11.dtd">
<!-- Generated by graphviz version 2.43.0 (0)
 -->
<!-- Title: include/mesh_handler.h Pages: 1 -->
<svg width="941pt" height="274pt"
 viewBox="0.00 0.00 940.93 274.00" xmlns="http://www.w3.org/2000/svg" xmlns:xlink="http://www.w3.org/1999/xlink">
<g id="graph0" class="graph" transform="scale(1 1) rotate(0) translate(4 270)">
<title>include/mesh_handler.h</title>
<!-- Node1 -->
<g id="node1" class="node">
<title>Node1</title>
<g id="a_node1"><a xlink:title=" ">
<polygon fill="#bfbfbf" stroke="black" points="394.93,-246.5 394.93,-265.5 526.93,-265.5 526.93,-246.5 394.93,-246.5"/>
<text text-anchor="middle" x="460.93" y="-253.5" font-family="Helvetica,sans-Serif" font-size="10.00">include/mesh_handler.h</text>
</a>
</g>
</g>
<!-- Node2 -->
<g id="node2" class="node">
<title>Node2</title>
<g id="a_node2"><a xlink:href="grid__generator_8h.html" target="_top" xlink:title=" ">
<polygon fill="none" stroke="black" points="236.43,-190.5 236.43,-209.5 397.43,-209.5 397.43,-190.5 236.43,-190.5"/>
<text text-anchor="middle" x="316.93" y="-197.5" font-family="Helvetica,sans-Serif" font-size="10.00">parsed_tools/grid_generator.h</text>
</a>
</g>
</g>
<!-- Node1&#45;&gt;Node2 -->
<g id="edge1" class="edge">
<title>Node1&#45;&gt;Node2</title>
<path fill="none" stroke="midnightblue" d="M438.11,-246.44C414.1,-237.44 376.1,-223.19 349.06,-213.05"/>
<polygon fill="midnightblue" stroke="midnightblue" points="350.23,-209.75 339.64,-209.52 347.78,-216.3 350.23,-209.75"/>
</g>
<!-- Node11 -->
<g id="node11" class="node">
<title>Node11</title>
<g id="a_node11"><a xlink:href="grid__info_8h.html" target="_top" xlink:title=" ">
<polygon fill="none" stroke="black" points="601.93,-190.5 601.93,-209.5 735.93,-209.5 735.93,-190.5 601.93,-190.5"/>
<text text-anchor="middle" x="668.93" y="-197.5" font-family="Helvetica,sans-Serif" font-size="10.00">parsed_tools/grid_info.h</text>
</a>
</g>
</g>
<!-- Node1&#45;&gt;Node11 -->
<g id="edge11" class="edge">
<title>Node1&#45;&gt;Node11</title>
<path fill="none" stroke="midnightblue" d="M493.89,-246.44C529.72,-237.14 587.09,-222.25 626.32,-212.06"/>
<polygon fill="midnightblue" stroke="midnightblue" points="627.33,-215.42 636.13,-209.52 625.57,-208.64 627.33,-215.42"/>
</g>
<!-- Node3 -->
<g id="node3" class="node">
<title>Node3</title>
<g id="a_node3"><a target="_parent" xlink:href="http://www.dealii.org/developer/doxygen/deal.II/parameter__acceptor_8h.html.html" xlink:title=" ">
<polygon fill="none" stroke="black" points="93.43,-0.5 93.43,-30.5 220.43,-30.5 220.43,-0.5 93.43,-0.5"/>
<text text-anchor="start" x="101.43" y="-18.5" font-family="Helvetica,sans-Serif" font-size="10.00">deal.II/base/parameter</text>
<text text-anchor="middle" x="156.93" y="-7.5" font-family="Helvetica,sans-Serif" font-size="10.00">_acceptor.h</text>
</a>
</g>
</g>
<!-- Node2&#45;&gt;Node3 -->
<g id="edge2" class="edge">
<title>Node2&#45;&gt;Node3</title>
<path fill="none" stroke="midnightblue" d="M236.07,-198.6C155.41,-196.28 39.49,-187.07 10.93,-154 -29.19,-107.54 55.19,-59.86 111.62,-34.67"/>
<polygon fill="midnightblue" stroke="midnightblue" points="113.34,-37.74 121.11,-30.53 110.54,-31.33 113.34,-37.74"/>
</g>
<!-- Node4 -->
<g id="node4" class="node">
<title>Node4</title>
<g id="a_node4"><a target="_parent" xlink:href="http://www.dealii.org/developer/doxygen/deal.II/distributed_2grid__refinement_8h.html.html" xlink:title=" ">
<polygon fill="none" stroke="black" points="19.93,-123.5 19.93,-153.5 125.93,-153.5 125.93,-123.5 19.93,-123.5"/>
<text text-anchor="start" x="27.93" y="-141.5" font-family="Helvetica,sans-Serif" font-size="10.00">deal.II/distributed</text>
<text text-anchor="middle" x="72.93" y="-130.5" font-family="Helvetica,sans-Serif" font-size="10.00">/grid_refinement.h</text>
</a>
</g>
</g>
<!-- Node2&#45;&gt;Node4 -->
<g id="edge3" class="edge">
<title>Node2&#45;&gt;Node4</title>
<path fill="none" stroke="midnightblue" d="M281.97,-190.48C244.04,-181.22 182.67,-166.26 136.22,-154.93"/>
<polygon fill="midnightblue" stroke="midnightblue" points="136.8,-151.47 126.25,-152.5 135.14,-158.27 136.8,-151.47"/>
</g>
<!-- Node5 -->
<g id="node5" class="node">
<title>Node5</title>
<g id="a_node5"><a target="_parent" xlink:href="http://www.dealii.org/developer/doxygen/deal.II/distributed_2tria_8h.html.html" xlink:title=" ">
<polygon fill="none" stroke="black" points="143.93,-123.5 143.93,-153.5 245.93,-153.5 245.93,-123.5 143.93,-123.5"/>
<text text-anchor="start" x="151.93" y="-141.5" font-family="Helvetica,sans-Serif" font-size="10.00">deal.II/distributed</text>
<text text-anchor="middle" x="194.93" y="-130.5" font-family="Helvetica,sans-Serif" font-size="10.00">/tria.h</text>
</a>
</g>
</g>
<!-- Node2&#45;&gt;Node5 -->
<g id="edge4" class="edge">
<title>Node2&#45;&gt;Node5</title>
<path fill="none" stroke="midnightblue" d="M299.45,-190.48C282.16,-182.04 255.12,-168.86 232.88,-158.01"/>
<polygon fill="midnightblue" stroke="midnightblue" points="234.21,-154.76 223.68,-153.52 231.14,-161.05 234.21,-154.76"/>
</g>
<!-- Node6 -->
<g id="node6" class="node">
<title>Node6</title>
<g id="a_node6"><a target="_parent" xlink:href="http://www.dealii.org/developer/doxygen/deal.II/mapping__q__generic_8h.html.html" xlink:title=" ">
<polygon fill="none" stroke="black" points="264.43,-123.5 264.43,-153.5 369.43,-153.5 369.43,-123.5 264.43,-123.5"/>
<text text-anchor="start" x="272.43" y="-141.5" font-family="Helvetica,sans-Serif" font-size="10.00">deal.II/fe/mapping</text>
<text text-anchor="middle" x="316.93" y="-130.5" font-family="Helvetica,sans-Serif" font-size="10.00">_q_generic.h</text>
</a>
</g>
</g>
<!-- Node2&#45;&gt;Node6 -->
<g id="edge5" class="edge">
<title>Node2&#45;&gt;Node6</title>
<path fill="none" stroke="midnightblue" d="M316.93,-190.48C316.93,-183.47 316.93,-173.19 316.93,-163.7"/>
<polygon fill="midnightblue" stroke="midnightblue" points="320.43,-163.52 316.93,-153.52 313.43,-163.52 320.43,-163.52"/>
</g>
<!-- Node7 -->
<g id="node7" class="node">
<title>Node7</title>
<g id="a_node7"><a target="_parent" xlink:href="http://www.dealii.org/developer/doxygen/deal.II/grid__generator_8h.html.html" xlink:title=" ">
<polygon fill="none" stroke="black" points="387.43,-129 387.43,-148 538.43,-148 538.43,-129 387.43,-129"/>
<text text-anchor="middle" x="462.93" y="-136" font-family="Helvetica,sans-Serif" font-size="10.00">deal.II/grid/grid_generator.h</text>
</a>
</g>
</g>
<!-- Node2&#45;&gt;Node7 -->
<g id="edge6" class="edge">
<title>Node2&#45;&gt;Node7</title>
<path fill="none" stroke="midnightblue" d="M337.85,-190.48C362.68,-180.36 404.27,-163.4 432.62,-151.85"/>
<polygon fill="midnightblue" stroke="midnightblue" points="434.11,-155.02 442.05,-148.01 431.47,-148.54 434.11,-155.02"/>
</g>
<!-- Node10 -->
<g id="node10" class="node">
<title>Node10</title>
<g id="a_node10"><a target="_parent" xlink:href="http://www.dealii.org/developer/doxygen/deal.II/grid_2tria_8h.html.html" xlink:title=" ">
<polygon fill="none" stroke="black" points="556.43,-129 556.43,-148 653.43,-148 653.43,-129 556.43,-129"/>
<text text-anchor="middle" x="604.93" y="-136" font-family="Helvetica,sans-Serif" font-size="10.00">deal.II/grid/tria.h</text>
</a>
</g>
</g>
<!-- Node2&#45;&gt;Node10 -->
<g id="edge10" class="edge">
<title>Node2&#45;&gt;Node10</title>
<path fill="none" stroke="midnightblue" d="M364.21,-190.49C410.81,-181.93 483.98,-168.02 546.93,-154 551.93,-152.89 557.16,-151.66 562.34,-150.41"/>
<polygon fill="midnightblue" stroke="midnightblue" points="563.3,-153.78 572.18,-148 561.63,-146.98 563.3,-153.78"/>
</g>
<!-- Node8 -->
<g id="node8" class="node">
<title>Node8</title>
<g id="a_node8"><a xlink:href="function_8h.html" target="_top" xlink:title=" ">
<polygon fill="none" stroke="black" points="317.43,-67.5 317.43,-86.5 442.43,-86.5 442.43,-67.5 317.43,-67.5"/>
<text text-anchor="middle" x="379.93" y="-74.5" font-family="Helvetica,sans-Serif" font-size="10.00">deal.II/base/function.h</text>
</a>
</g>
</g>
<!-- Node7&#45;&gt;Node8 -->
<g id="edge7" class="edge">
<title>Node7&#45;&gt;Node8</title>
<path fill="none" stroke="midnightblue" d="M451.04,-128.98C437.73,-119.43 415.93,-103.81 399.97,-92.37"/>
<polygon fill="midnightblue" stroke="midnightblue" points="401.97,-89.49 391.8,-86.51 397.89,-95.18 401.97,-89.49"/>
</g>
<!-- Node8&#45;&gt;Node3 -->
<g id="edge9" class="edge">
<title>Node8&#45;&gt;Node3</title>
<path fill="none" stroke="midnightblue" d="M347.98,-67.48C314.53,-58.55 261.15,-44.31 219.31,-33.14"/>
<polygon fill="midnightblue" stroke="midnightblue" points="220.05,-29.72 209.49,-30.52 218.25,-36.48 220.05,-29.72"/>
</g>
<!-- Node9 -->
<g id="node9" class="node">
<title>Node9</title>
<g id="a_node9"><a target="_parent" xlink:href="http://www.dealii.org/developer/doxygen/deal.II/function__parser_8h.html.html" xlink:title=" ">
<polygon fill="none" stroke="black" points="321.93,-0.5 321.93,-30.5 437.93,-30.5 437.93,-0.5 321.93,-0.5"/>
<text text-anchor="start" x="329.93" y="-18.5" font-family="Helvetica,sans-Serif" font-size="10.00">deal.II/base/function</text>
<text text-anchor="middle" x="379.93" y="-7.5" font-family="Helvetica,sans-Serif" font-size="10.00">_parser.h</text>
</a>
</g>
</g>
<!-- Node8&#45;&gt;Node9 -->
<g id="edge8" class="edge">
<title>Node8&#45;&gt;Node9</title>
<path fill="none" stroke="midnightblue" d="M379.93,-67.48C379.93,-60.47 379.93,-50.19 379.93,-40.7"/>
<polygon fill="midnightblue" stroke="midnightblue" points="383.43,-40.52 379.93,-30.52 376.43,-40.52 383.43,-40.52"/>
</g>
<!-- Node11&#45;&gt;Node10 -->
<g id="edge14" class="edge">
<title>Node11&#45;&gt;Node10</title>
<path fill="none" stroke="midnightblue" d="M659.76,-190.48C649.78,-181.2 633.62,-166.17 621.42,-154.83"/>
<polygon fill="midnightblue" stroke="midnightblue" points="623.79,-152.25 614.08,-148.01 619.02,-157.38 623.79,-152.25"/>
</g>
<!-- Node12 -->
<g id="node12" class="node">
<title>Node12</title>
<g id="a_node12"><a target="_parent" xlink:href="http://www.dealii.org/developer/doxygen/deal.II/patterns_8h.html.html" xlink:title=" ">
<polygon fill="none" stroke="black" points="671.43,-129 671.43,-148 796.43,-148 796.43,-129 671.43,-129"/>
<text text-anchor="middle" x="733.93" y="-136" font-family="Helvetica,sans-Serif" font-size="10.00">deal.II/base/patterns.h</text>
</a>
</g>
</g>
<!-- Node11&#45;&gt;Node12 -->
<g id="edge12" class="edge">
<title>Node11&#45;&gt;Node12</title>
<path fill="none" stroke="midnightblue" d="M678.24,-190.48C688.38,-181.2 704.79,-166.17 717.18,-154.83"/>
<polygon fill="midnightblue" stroke="midnightblue" points="719.62,-157.34 724.63,-148.01 714.9,-152.18 719.62,-157.34"/>
</g>
<!-- Node13 -->
<g id="node13" class="node">
<title>Node13</title>
<g id="a_node13"><a target="_parent" xlink:href="http://www.dealii.org/developer/doxygen/deal.II/reference__cell_8h.html.html" xlink:title=" ">
<polygon fill="none" stroke="black" points="814.93,-123.5 814.93,-153.5 932.93,-153.5 932.93,-123.5 814.93,-123.5"/>
<text text-anchor="start" x="822.93" y="-141.5" font-family="Helvetica,sans-Serif" font-size="10.00">deal.II/grid/reference</text>
<text text-anchor="middle" x="873.93" y="-130.5" font-family="Helvetica,sans-Serif" font-size="10.00">_cell.h</text>
</a>
</g>
</g>
<!-- Node11&#45;&gt;Node13 -->
<g id="edge13" class="edge">
<title>Node11&#45;&gt;Node13</title>
<path fill="none" stroke="midnightblue" d="M698.3,-190.48C728.79,-181.63 777.29,-167.55 815.61,-156.43"/>
<polygon fill="midnightblue" stroke="midnightblue" points="816.99,-159.67 825.62,-153.52 815.04,-152.95 816.99,-159.67"/>
</g>
</g>
</svg>
