<?xml version="1.0" encoding="UTF-8" standalone="no"?>
<!DOCTYPE svg PUBLIC "-//W3C//DTD SVG 1.1//EN"
 "http://www.w3.org/Graphics/SVG/1.1/DTD/svg11.dtd">
<!-- Generated by graphviz version 2.43.0 (0)
 -->
<!-- Title: include/mesh_handler.h Pages: 1 -->
<svg width="1111pt" height="274pt"
 viewBox="0.00 0.00 1111.00 274.00" xmlns="http://www.w3.org/2000/svg" xmlns:xlink="http://www.w3.org/1999/xlink">
<g id="graph0" class="graph" transform="scale(1 1) rotate(0) translate(4 270)">
<title>include/mesh_handler.h</title>
<!-- Node1 -->
<g id="node1" class="node">
<title>Node1</title>
<g id="a_node1"><a xlink:title=" ">
<polygon fill="#bfbfbf" stroke="black" points="504,-246.5 504,-265.5 636,-265.5 636,-246.5 504,-246.5"/>
<text text-anchor="middle" x="570" y="-253.5" font-family="Helvetica,sans-Serif" font-size="10.00">include/mesh_handler.h</text>
</a>
</g>
</g>
<!-- Node2 -->
<g id="node2" class="node">
<title>Node2</title>
<g id="a_node2"><a xlink:href="grid__generator_8h.html" target="_top" xlink:title=" ">
<polygon fill="none" stroke="black" points="345.5,-190.5 345.5,-209.5 506.5,-209.5 506.5,-190.5 345.5,-190.5"/>
<text text-anchor="middle" x="426" y="-197.5" font-family="Helvetica,sans-Serif" font-size="10.00">parsed_tools/grid_generator.h</text>
</a>
</g>
</g>
<!-- Node1&#45;&gt;Node2 -->
<g id="edge1" class="edge">
<title>Node1&#45;&gt;Node2</title>
<path fill="none" stroke="midnightblue" d="M547.18,-246.44C523.17,-237.44 485.17,-223.19 458.13,-213.05"/>
<polygon fill="midnightblue" stroke="midnightblue" points="459.3,-209.75 448.71,-209.52 456.84,-216.3 459.3,-209.75"/>
</g>
<!-- Node12 -->
<g id="node12" class="node">
<title>Node12</title>
<g id="a_node12"><a xlink:href="grid__info_8h.html" target="_top" xlink:title=" ">
<polygon fill="none" stroke="black" points="772,-190.5 772,-209.5 906,-209.5 906,-190.5 772,-190.5"/>
<text text-anchor="middle" x="839" y="-197.5" font-family="Helvetica,sans-Serif" font-size="10.00">parsed_tools/grid_info.h</text>
</a>
</g>
</g>
<!-- Node1&#45;&gt;Node12 -->
<g id="edge12" class="edge">
<title>Node1&#45;&gt;Node12</title>
<path fill="none" stroke="midnightblue" d="M612.62,-246.44C659.75,-236.98 735.69,-221.74 786.46,-211.55"/>
<polygon fill="midnightblue" stroke="midnightblue" points="787.46,-214.92 796.58,-209.52 786.08,-208.05 787.46,-214.92"/>
</g>
<!-- Node3 -->
<g id="node3" class="node">
<title>Node3</title>
<g id="a_node3"><a target="_parent" xlink:href="http://www.dealii.org/developer/doxygen/deal.II/logstream_8h.html.html" xlink:title=" ">
<polygon fill="none" stroke="black" points="0,-129 0,-148 134,-148 134,-129 0,-129"/>
<text text-anchor="middle" x="67" y="-136" font-family="Helvetica,sans-Serif" font-size="10.00">deal.II/base/logstream.h</text>
</a>
</g>
</g>
<!-- Node2&#45;&gt;Node3 -->
<g id="edge2" class="edge">
<title>Node2&#45;&gt;Node3</title>
<path fill="none" stroke="midnightblue" d="M371.62,-190.47C315.55,-181.61 225.6,-167.22 148,-154 140.28,-152.68 132.14,-151.27 124.13,-149.85"/>
<polygon fill="midnightblue" stroke="midnightblue" points="124.55,-146.37 114.09,-148.07 123.33,-153.26 124.55,-146.37"/>
</g>
<!-- Node4 -->
<g id="node4" class="node">
<title>Node4</title>
<g id="a_node4"><a target="_parent" xlink:href="http://www.dealii.org/developer/doxygen/deal.II/parameter__acceptor_8h.html.html" xlink:title=" ">
<polygon fill="none" stroke="black" points="263.5,-0.5 263.5,-30.5 390.5,-30.5 390.5,-0.5 263.5,-0.5"/>
<text text-anchor="start" x="271.5" y="-18.5" font-family="Helvetica,sans-Serif" font-size="10.00">deal.II/base/parameter</text>
<text text-anchor="middle" x="327" y="-7.5" font-family="Helvetica,sans-Serif" font-size="10.00">_acceptor.h</text>
</a>
</g>
</g>
<!-- Node2&#45;&gt;Node4 -->
<g id="edge3" class="edge">
<title>Node2&#45;&gt;Node4</title>
<path fill="none" stroke="midnightblue" d="M345.45,-195.06C282.31,-190.09 201.76,-178.92 181,-154 141.82,-106.96 225.33,-59.67 281.48,-34.67"/>
<polygon fill="midnightblue" stroke="midnightblue" points="283.15,-37.76 290.92,-30.56 280.36,-31.34 283.15,-37.76"/>
</g>
<!-- Node5 -->
<g id="node5" class="node">
<title>Node5</title>
<g id="a_node5"><a target="_parent" xlink:href="http://www.dealii.org/developer/doxygen/deal.II/distributed_2grid__refinement_8h.html.html" xlink:title=" ">
<polygon fill="none" stroke="black" points="190,-123.5 190,-153.5 296,-153.5 296,-123.5 190,-123.5"/>
<text text-anchor="start" x="198" y="-141.5" font-family="Helvetica,sans-Serif" font-size="10.00">deal.II/distributed</text>
<text text-anchor="middle" x="243" y="-130.5" font-family="Helvetica,sans-Serif" font-size="10.00">/grid_refinement.h</text>
</a>
</g>
</g>
<!-- Node2&#45;&gt;Node5 -->
<g id="edge4" class="edge">
<title>Node2&#45;&gt;Node5</title>
<path fill="none" stroke="midnightblue" d="M399.78,-190.48C372.8,-181.7 330,-167.79 295.94,-156.71"/>
<polygon fill="midnightblue" stroke="midnightblue" points="296.72,-153.29 286.13,-153.52 294.56,-159.94 296.72,-153.29"/>
</g>
<!-- Node6 -->
<g id="node6" class="node">
<title>Node6</title>
<g id="a_node6"><a target="_parent" xlink:href="http://www.dealii.org/developer/doxygen/deal.II/distributed_2tria_8h.html.html" xlink:title=" ">
<polygon fill="none" stroke="black" points="314,-123.5 314,-153.5 416,-153.5 416,-123.5 314,-123.5"/>
<text text-anchor="start" x="322" y="-141.5" font-family="Helvetica,sans-Serif" font-size="10.00">deal.II/distributed</text>
<text text-anchor="middle" x="365" y="-130.5" font-family="Helvetica,sans-Serif" font-size="10.00">/tria.h</text>
</a>
</g>
</g>
<!-- Node2&#45;&gt;Node6 -->
<g id="edge5" class="edge">
<title>Node2&#45;&gt;Node6</title>
<path fill="none" stroke="midnightblue" d="M417.26,-190.48C409.31,-182.72 397.24,-170.94 386.7,-160.66"/>
<polygon fill="midnightblue" stroke="midnightblue" points="388.98,-158 379.38,-153.52 384.09,-163.01 388.98,-158"/>
</g>
<!-- Node7 -->
<g id="node7" class="node">
<title>Node7</title>
<g id="a_node7"><a target="_parent" xlink:href="http://www.dealii.org/developer/doxygen/deal.II/mapping__q__generic_8h.html.html" xlink:title=" ">
<polygon fill="none" stroke="black" points="434.5,-123.5 434.5,-153.5 539.5,-153.5 539.5,-123.5 434.5,-123.5"/>
<text text-anchor="start" x="442.5" y="-141.5" font-family="Helvetica,sans-Serif" font-size="10.00">deal.II/fe/mapping</text>
<text text-anchor="middle" x="487" y="-130.5" font-family="Helvetica,sans-Serif" font-size="10.00">_q_generic.h</text>
</a>
</g>
</g>
<!-- Node2&#45;&gt;Node7 -->
<g id="edge6" class="edge">
<title>Node2&#45;&gt;Node7</title>
<path fill="none" stroke="midnightblue" d="M434.74,-190.48C442.69,-182.72 454.76,-170.94 465.3,-160.66"/>
<polygon fill="midnightblue" stroke="midnightblue" points="467.91,-163.01 472.62,-153.52 463.02,-158 467.91,-163.01"/>
</g>
<!-- Node8 -->
<g id="node8" class="node">
<title>Node8</title>
<g id="a_node8"><a target="_parent" xlink:href="http://www.dealii.org/developer/doxygen/deal.II/grid__generator_8h.html.html" xlink:title=" ">
<polygon fill="none" stroke="black" points="557.5,-129 557.5,-148 708.5,-148 708.5,-129 557.5,-129"/>
<text text-anchor="middle" x="633" y="-136" font-family="Helvetica,sans-Serif" font-size="10.00">deal.II/grid/grid_generator.h</text>
</a>
</g>
</g>
<!-- Node2&#45;&gt;Node8 -->
<g id="edge7" class="edge">
<title>Node2&#45;&gt;Node8</title>
<path fill="none" stroke="midnightblue" d="M455.66,-190.48C491.93,-180.05 553.46,-162.36 593.66,-150.81"/>
<polygon fill="midnightblue" stroke="midnightblue" points="594.75,-154.14 603.4,-148.01 592.82,-147.41 594.75,-154.14"/>
</g>
<!-- Node11 -->
<g id="node11" class="node">
<title>Node11</title>
<g id="a_node11"><a target="_parent" xlink:href="http://www.dealii.org/developer/doxygen/deal.II/grid_2tria_8h.html.html" xlink:title=" ">
<polygon fill="none" stroke="black" points="726.5,-129 726.5,-148 823.5,-148 823.5,-129 726.5,-129"/>
<text text-anchor="middle" x="775" y="-136" font-family="Helvetica,sans-Serif" font-size="10.00">deal.II/grid/tria.h</text>
</a>
</g>
</g>
<!-- Node2&#45;&gt;Node11 -->
<g id="edge11" class="edge">
<title>Node2&#45;&gt;Node11</title>
<path fill="none" stroke="midnightblue" d="M492.47,-190.49C551.65,-182.49 640.46,-169.45 717,-154 722.34,-152.92 727.93,-151.68 733.44,-150.38"/>
<polygon fill="midnightblue" stroke="midnightblue" points="734.32,-153.77 743.21,-148 732.67,-146.96 734.32,-153.77"/>
</g>
<!-- Node9 -->
<g id="node9" class="node">
<title>Node9</title>
<g id="a_node9"><a xlink:href="function_8h.html" target="_top" xlink:title=" ">
<polygon fill="none" stroke="black" points="487.5,-67.5 487.5,-86.5 612.5,-86.5 612.5,-67.5 487.5,-67.5"/>
<text text-anchor="middle" x="550" y="-74.5" font-family="Helvetica,sans-Serif" font-size="10.00">deal.II/base/function.h</text>
</a>
</g>
</g>
<!-- Node8&#45;&gt;Node9 -->
<g id="edge8" class="edge">
<title>Node8&#45;&gt;Node9</title>
<path fill="none" stroke="midnightblue" d="M621.11,-128.98C607.8,-119.43 586,-103.81 570.04,-92.37"/>
<polygon fill="midnightblue" stroke="midnightblue" points="572.04,-89.49 561.87,-86.51 567.96,-95.18 572.04,-89.49"/>
</g>
<!-- Node9&#45;&gt;Node4 -->
<g id="edge10" class="edge">
<title>Node9&#45;&gt;Node4</title>
<path fill="none" stroke="midnightblue" d="M518.05,-67.48C484.6,-58.55 431.22,-44.31 389.38,-33.14"/>
<polygon fill="midnightblue" stroke="midnightblue" points="390.12,-29.72 379.56,-30.52 388.32,-36.48 390.12,-29.72"/>
</g>
<!-- Node10 -->
<g id="node10" class="node">
<title>Node10</title>
<g id="a_node10"><a target="_parent" xlink:href="http://www.dealii.org/developer/doxygen/deal.II/function__parser_8h.html.html" xlink:title=" ">
<polygon fill="none" stroke="black" points="492,-0.5 492,-30.5 608,-30.5 608,-0.5 492,-0.5"/>
<text text-anchor="start" x="500" y="-18.5" font-family="Helvetica,sans-Serif" font-size="10.00">deal.II/base/function</text>
<text text-anchor="middle" x="550" y="-7.5" font-family="Helvetica,sans-Serif" font-size="10.00">_parser.h</text>
</a>
</g>
</g>
<!-- Node9&#45;&gt;Node10 -->
<g id="edge9" class="edge">
<title>Node9&#45;&gt;Node10</title>
<path fill="none" stroke="midnightblue" d="M550,-67.48C550,-60.47 550,-50.19 550,-40.7"/>
<polygon fill="midnightblue" stroke="midnightblue" points="553.5,-40.52 550,-30.52 546.5,-40.52 553.5,-40.52"/>
</g>
<!-- Node12&#45;&gt;Node11 -->
<g id="edge15" class="edge">
<title>Node12&#45;&gt;Node11</title>
<path fill="none" stroke="midnightblue" d="M829.83,-190.48C819.85,-181.2 803.69,-166.17 791.49,-154.83"/>
<polygon fill="midnightblue" stroke="midnightblue" points="793.86,-152.25 784.15,-148.01 789.09,-157.38 793.86,-152.25"/>
</g>
<!-- Node13 -->
<g id="node13" class="node">
<title>Node13</title>
<g id="a_node13"><a target="_parent" xlink:href="http://www.dealii.org/developer/doxygen/deal.II/patterns_8h.html.html" xlink:title=" ">
<polygon fill="none" stroke="black" points="841.5,-129 841.5,-148 966.5,-148 966.5,-129 841.5,-129"/>
<text text-anchor="middle" x="904" y="-136" font-family="Helvetica,sans-Serif" font-size="10.00">deal.II/base/patterns.h</text>
</a>
</g>
</g>
<!-- Node12&#45;&gt;Node13 -->
<g id="edge13" class="edge">
<title>Node12&#45;&gt;Node13</title>
<path fill="none" stroke="midnightblue" d="M848.31,-190.48C858.45,-181.2 874.86,-166.17 887.25,-154.83"/>
<polygon fill="midnightblue" stroke="midnightblue" points="889.69,-157.34 894.7,-148.01 884.96,-152.18 889.69,-157.34"/>
</g>
<!-- Node14 -->
<g id="node14" class="node">
<title>Node14</title>
<g id="a_node14"><a target="_parent" xlink:href="http://www.dealii.org/developer/doxygen/deal.II/reference__cell_8h.html.html" xlink:title=" ">
<polygon fill="none" stroke="black" points="985,-123.5 985,-153.5 1103,-153.5 1103,-123.5 985,-123.5"/>
<text text-anchor="start" x="993" y="-141.5" font-family="Helvetica,sans-Serif" font-size="10.00">deal.II/grid/reference</text>
<text text-anchor="middle" x="1044" y="-130.5" font-family="Helvetica,sans-Serif" font-size="10.00">_cell.h</text>
</a>
</g>
</g>
<!-- Node12&#45;&gt;Node14 -->
<g id="edge14" class="edge">
<title>Node12&#45;&gt;Node14</title>
<path fill="none" stroke="midnightblue" d="M868.37,-190.48C898.86,-181.63 947.36,-167.55 985.68,-156.43"/>
<polygon fill="midnightblue" stroke="midnightblue" points="987.06,-159.67 995.69,-153.52 985.11,-152.95 987.06,-159.67"/>
</g>
</g>
</svg>
