<?xml version="1.0" encoding="UTF-8" standalone="no"?>
<!DOCTYPE svg PUBLIC "-//W3C//DTD SVG 1.1//EN"
 "http://www.w3.org/Graphics/SVG/1.1/DTD/svg11.dtd">
<!-- Generated by graphviz version 2.43.0 (0)
 -->
<!-- Title: apps/mesh_handler.cc Pages: 1 -->
<svg width="1016pt" height="330pt"
 viewBox="0.00 0.00 1015.98 330.00" xmlns="http://www.w3.org/2000/svg" xmlns:xlink="http://www.w3.org/1999/xlink">
<g id="graph0" class="graph" transform="scale(1 1) rotate(0) translate(4 326)">
<title>apps/mesh_handler.cc</title>
<!-- Node1 -->
<g id="node1" class="node">
<title>Node1</title>
<g id="a_node1"><a xlink:title="Mesh generator and reader.">
<polygon fill="#bfbfbf" stroke="black" points="811.48,-302.5 811.48,-321.5 936.48,-321.5 936.48,-302.5 811.48,-302.5"/>
<text text-anchor="middle" x="873.98" y="-309.5" font-family="Helvetica,sans-Serif" font-size="10.00">apps/mesh_handler.cc</text>
</a>
</g>
</g>
<!-- Node2 -->
<g id="node2" class="node">
<title>Node2</title>
<g id="a_node2"><a xlink:href="mesh__handler_8h.html" target="_top" xlink:title=" ">
<polygon fill="none" stroke="black" points="690.48,-246.5 690.48,-265.5 785.48,-265.5 785.48,-246.5 690.48,-246.5"/>
<text text-anchor="middle" x="737.98" y="-253.5" font-family="Helvetica,sans-Serif" font-size="10.00">mesh_handler.h</text>
</a>
</g>
</g>
<!-- Node1&#45;&gt;Node2 -->
<g id="edge1" class="edge">
<title>Node1&#45;&gt;Node2</title>
<path fill="none" stroke="midnightblue" d="M852.44,-302.44C829.95,-293.52 794.5,-279.44 769.01,-269.32"/>
<polygon fill="midnightblue" stroke="midnightblue" points="770.02,-265.95 759.43,-265.52 767.44,-272.46 770.02,-265.95"/>
</g>
<!-- Node14 -->
<g id="node14" class="node">
<title>Node14</title>
<g id="a_node14"><a xlink:href="http://www.dealii.org/developer/doxygen/deal.II/reference__cell_8h.html.html" xlink:title=" ">
<polygon fill="none" stroke="black" points="818.98,-123.5 818.98,-153.5 936.98,-153.5 936.98,-123.5 818.98,-123.5"/>
<text text-anchor="start" x="826.98" y="-141.5" font-family="Helvetica,sans-Serif" font-size="10.00">deal.II/grid/reference</text>
<text text-anchor="middle" x="877.98" y="-130.5" font-family="Helvetica,sans-Serif" font-size="10.00">_cell.h</text>
</a>
</g>
</g>
<!-- Node1&#45;&gt;Node14 -->
<g id="edge17" class="edge">
<title>Node1&#45;&gt;Node14</title>
<path fill="none" stroke="midnightblue" d="M874.19,-302.26C874.78,-276.97 876.5,-203.08 877.41,-164.15"/>
<polygon fill="midnightblue" stroke="midnightblue" points="880.92,-163.8 877.65,-153.72 873.92,-163.64 880.92,-163.8"/>
</g>
<!-- Node15 -->
<g id="node15" class="node">
<title>Node15</title>
<g id="a_node15"><a xlink:href="http://www.dealii.org/developer/doxygen/deal.II/include_2deal_8II_2base_2utilities_8h.html.html" xlink:title=" ">
<polygon fill="none" stroke="black" points="885.98,-190.5 885.98,-209.5 1007.98,-209.5 1007.98,-190.5 885.98,-190.5"/>
<text text-anchor="middle" x="946.98" y="-197.5" font-family="Helvetica,sans-Serif" font-size="10.00">deal.II/base/utilities.h</text>
</a>
</g>
</g>
<!-- Node1&#45;&gt;Node15 -->
<g id="edge16" class="edge">
<title>Node1&#45;&gt;Node15</title>
<path fill="none" stroke="midnightblue" d="M878.75,-302.41C885.84,-289.79 899.73,-265.63 912.98,-246 919.42,-236.46 927.11,-226.2 933.55,-217.89"/>
<polygon fill="midnightblue" stroke="midnightblue" points="936.51,-219.79 939.92,-209.76 931,-215.47 936.51,-219.79"/>
</g>
<!-- Node16 -->
<g id="node16" class="node">
<title>Node16</title>
<g id="a_node16"><a xlink:href="runner_8h.html" target="_top" xlink:title=" ">
<polygon fill="none" stroke="black" points="921.48,-246.5 921.48,-265.5 978.48,-265.5 978.48,-246.5 921.48,-246.5"/>
<text text-anchor="middle" x="949.98" y="-253.5" font-family="Helvetica,sans-Serif" font-size="10.00">runner.h</text>
</a>
</g>
</g>
<!-- Node1&#45;&gt;Node16 -->
<g id="edge18" class="edge">
<title>Node1&#45;&gt;Node16</title>
<path fill="none" stroke="midnightblue" d="M886.2,-302.32C897.76,-294.11 915.36,-281.6 929.15,-271.81"/>
<polygon fill="midnightblue" stroke="midnightblue" points="931.43,-274.48 937.55,-265.83 927.37,-268.77 931.43,-274.48"/>
</g>
<!-- Node3 -->
<g id="node3" class="node">
<title>Node3</title>
<g id="a_node3"><a xlink:href="grid__generator_8h.html" target="_top" xlink:title=" ">
<polygon fill="none" stroke="black" points="237.98,-190.5 237.98,-209.5 399.98,-209.5 399.98,-190.5 237.98,-190.5"/>
<text text-anchor="middle" x="318.98" y="-197.5" font-family="Helvetica,sans-Serif" font-size="10.00">parsed_tools/grid_generator.h</text>
</a>
</g>
</g>
<!-- Node2&#45;&gt;Node3 -->
<g id="edge2" class="edge">
<title>Node2&#45;&gt;Node3</title>
<path fill="none" stroke="midnightblue" d="M690.33,-248.86C618.32,-239.58 481.1,-221.89 395.13,-210.81"/>
<polygon fill="midnightblue" stroke="midnightblue" points="395.54,-207.34 385.17,-209.53 394.64,-214.28 395.54,-207.34"/>
</g>
<!-- Node12 -->
<g id="node12" class="node">
<title>Node12</title>
<g id="a_node12"><a xlink:href="grid__info_8h.html" target="_top" xlink:title=" ">
<polygon fill="none" stroke="black" points="670.98,-190.5 670.98,-209.5 804.98,-209.5 804.98,-190.5 670.98,-190.5"/>
<text text-anchor="middle" x="737.98" y="-197.5" font-family="Helvetica,sans-Serif" font-size="10.00">parsed_tools/grid_info.h</text>
</a>
</g>
</g>
<!-- Node2&#45;&gt;Node12 -->
<g id="edge12" class="edge">
<title>Node2&#45;&gt;Node12</title>
<path fill="none" stroke="midnightblue" d="M737.98,-246.08C737.98,-239.01 737.98,-228.86 737.98,-219.99"/>
<polygon fill="midnightblue" stroke="midnightblue" points="741.49,-219.75 737.98,-209.75 734.49,-219.75 741.49,-219.75"/>
</g>
<!-- Node4 -->
<g id="node4" class="node">
<title>Node4</title>
<g id="a_node4"><a xlink:href="http://www.dealii.org/developer/doxygen/deal.II/parameter__acceptor_8h.html.html" xlink:title=" ">
<polygon fill="none" stroke="black" points="95.48,-0.5 95.48,-30.5 222.48,-30.5 222.48,-0.5 95.48,-0.5"/>
<text text-anchor="start" x="103.48" y="-18.5" font-family="Helvetica,sans-Serif" font-size="10.00">deal.II/base/parameter</text>
<text text-anchor="middle" x="158.98" y="-7.5" font-family="Helvetica,sans-Serif" font-size="10.00">_acceptor.h</text>
</a>
</g>
</g>
<!-- Node3&#45;&gt;Node4 -->
<g id="edge3" class="edge">
<title>Node3&#45;&gt;Node4</title>
<path fill="none" stroke="midnightblue" d="M237.98,-198.69C156.78,-196.45 39.79,-187.32 10.98,-154 -29.43,-107.25 55.89,-59.72 113.02,-34.63"/>
<polygon fill="midnightblue" stroke="midnightblue" points="114.47,-37.82 122.27,-30.65 111.7,-31.39 114.47,-37.82"/>
</g>
<!-- Node5 -->
<g id="node5" class="node">
<title>Node5</title>
<g id="a_node5"><a xlink:href="http://www.dealii.org/developer/doxygen/deal.II/distributed_2grid__refinement_8h.html.html" xlink:title=" ">
<polygon fill="none" stroke="black" points="20.48,-123.5 20.48,-153.5 127.48,-153.5 127.48,-123.5 20.48,-123.5"/>
<text text-anchor="start" x="28.48" y="-141.5" font-family="Helvetica,sans-Serif" font-size="10.00">deal.II/distributed</text>
<text text-anchor="middle" x="73.98" y="-130.5" font-family="Helvetica,sans-Serif" font-size="10.00">/grid_refinement.h</text>
</a>
</g>
</g>
<!-- Node3&#45;&gt;Node5 -->
<g id="edge4" class="edge">
<title>Node3&#45;&gt;Node5</title>
<path fill="none" stroke="midnightblue" d="M283.88,-190.48C245.79,-181.22 184.18,-166.26 137.54,-154.93"/>
<polygon fill="midnightblue" stroke="midnightblue" points="138.07,-151.46 127.53,-152.5 136.42,-158.26 138.07,-151.46"/>
</g>
<!-- Node6 -->
<g id="node6" class="node">
<title>Node6</title>
<g id="a_node6"><a xlink:href="http://www.dealii.org/developer/doxygen/deal.II/distributed_2tria_8h.html.html" xlink:title=" ">
<polygon fill="none" stroke="black" points="145.98,-123.5 145.98,-153.5 247.98,-153.5 247.98,-123.5 145.98,-123.5"/>
<text text-anchor="start" x="153.98" y="-141.5" font-family="Helvetica,sans-Serif" font-size="10.00">deal.II/distributed</text>
<text text-anchor="middle" x="196.98" y="-130.5" font-family="Helvetica,sans-Serif" font-size="10.00">/tria.h</text>
</a>
</g>
</g>
<!-- Node3&#45;&gt;Node6 -->
<g id="edge5" class="edge">
<title>Node3&#45;&gt;Node6</title>
<path fill="none" stroke="midnightblue" d="M301.51,-190.48C284.21,-182.04 257.18,-168.86 234.93,-158.01"/>
<polygon fill="midnightblue" stroke="midnightblue" points="236.26,-154.76 225.74,-153.52 233.19,-161.05 236.26,-154.76"/>
</g>
<!-- Node7 -->
<g id="node7" class="node">
<title>Node7</title>
<g id="a_node7"><a xlink:href="http://www.dealii.org/developer/doxygen/deal.II/mapping__q__generic_8h.html.html" xlink:title=" ">
<polygon fill="none" stroke="black" points="266.48,-123.5 266.48,-153.5 371.48,-153.5 371.48,-123.5 266.48,-123.5"/>
<text text-anchor="start" x="274.48" y="-141.5" font-family="Helvetica,sans-Serif" font-size="10.00">deal.II/fe/mapping</text>
<text text-anchor="middle" x="318.98" y="-130.5" font-family="Helvetica,sans-Serif" font-size="10.00">_q_generic.h</text>
</a>
</g>
</g>
<!-- Node3&#45;&gt;Node7 -->
<g id="edge6" class="edge">
<title>Node3&#45;&gt;Node7</title>
<path fill="none" stroke="midnightblue" d="M318.98,-190.48C318.98,-183.47 318.98,-173.19 318.98,-163.7"/>
<polygon fill="midnightblue" stroke="midnightblue" points="322.49,-163.52 318.98,-153.52 315.49,-163.52 322.49,-163.52"/>
</g>
<!-- Node8 -->
<g id="node8" class="node">
<title>Node8</title>
<g id="a_node8"><a xlink:href="http://www.dealii.org/developer/doxygen/deal.II/grid__generator_8h.html.html" xlink:title=" ">
<polygon fill="none" stroke="black" points="389.98,-129 389.98,-148 541.98,-148 541.98,-129 389.98,-129"/>
<text text-anchor="middle" x="465.98" y="-136" font-family="Helvetica,sans-Serif" font-size="10.00">deal.II/grid/grid_generator.h</text>
</a>
</g>
</g>
<!-- Node3&#45;&gt;Node8 -->
<g id="edge7" class="edge">
<title>Node3&#45;&gt;Node8</title>
<path fill="none" stroke="midnightblue" d="M340.05,-190.48C365.04,-180.36 406.93,-163.4 435.47,-151.85"/>
<polygon fill="midnightblue" stroke="midnightblue" points="437.01,-155.01 444.96,-148.01 434.38,-148.52 437.01,-155.01"/>
</g>
<!-- Node11 -->
<g id="node11" class="node">
<title>Node11</title>
<g id="a_node11"><a xlink:href="http://www.dealii.org/developer/doxygen/deal.II/grid_2tria_8h.html.html" xlink:title=" ">
<polygon fill="none" stroke="black" points="560.48,-129 560.48,-148 657.48,-148 657.48,-129 560.48,-129"/>
<text text-anchor="middle" x="608.98" y="-136" font-family="Helvetica,sans-Serif" font-size="10.00">deal.II/grid/tria.h</text>
</a>
</g>
</g>
<!-- Node3&#45;&gt;Node11 -->
<g id="edge11" class="edge">
<title>Node3&#45;&gt;Node11</title>
<path fill="none" stroke="midnightblue" d="M367.13,-190.44C414.16,-181.89 487.7,-168.04 550.98,-154 555.99,-152.89 561.22,-151.67 566.4,-150.42"/>
<polygon fill="midnightblue" stroke="midnightblue" points="567.36,-153.79 576.24,-148.01 565.69,-146.99 567.36,-153.79"/>
</g>
<!-- Node9 -->
<g id="node9" class="node">
<title>Node9</title>
<g id="a_node9"><a xlink:href="function_8h.html" target="_top" xlink:title=" ">
<polygon fill="none" stroke="black" points="319.48,-67.5 319.48,-86.5 444.48,-86.5 444.48,-67.5 319.48,-67.5"/>
<text text-anchor="middle" x="381.98" y="-74.5" font-family="Helvetica,sans-Serif" font-size="10.00">deal.II/base/function.h</text>
</a>
</g>
</g>
<!-- Node8&#45;&gt;Node9 -->
<g id="edge8" class="edge">
<title>Node8&#45;&gt;Node9</title>
<path fill="none" stroke="midnightblue" d="M453.95,-128.98C440.48,-119.43 418.42,-103.81 402.27,-92.37"/>
<polygon fill="midnightblue" stroke="midnightblue" points="404.18,-89.43 394,-86.51 400.13,-95.15 404.18,-89.43"/>
</g>
<!-- Node9&#45;&gt;Node4 -->
<g id="edge10" class="edge">
<title>Node9&#45;&gt;Node4</title>
<path fill="none" stroke="midnightblue" d="M350.03,-67.48C316.59,-58.55 263.21,-44.31 221.37,-33.14"/>
<polygon fill="midnightblue" stroke="midnightblue" points="222.11,-29.72 211.54,-30.52 220.3,-36.48 222.11,-29.72"/>
</g>
<!-- Node10 -->
<g id="node10" class="node">
<title>Node10</title>
<g id="a_node10"><a xlink:href="http://www.dealii.org/developer/doxygen/deal.II/function__parser_8h.html.html" xlink:title=" ">
<polygon fill="none" stroke="black" points="323.98,-0.5 323.98,-30.5 439.98,-30.5 439.98,-0.5 323.98,-0.5"/>
<text text-anchor="start" x="331.98" y="-18.5" font-family="Helvetica,sans-Serif" font-size="10.00">deal.II/base/function</text>
<text text-anchor="middle" x="381.98" y="-7.5" font-family="Helvetica,sans-Serif" font-size="10.00">_parser.h</text>
</a>
</g>
</g>
<!-- Node9&#45;&gt;Node10 -->
<g id="edge9" class="edge">
<title>Node9&#45;&gt;Node10</title>
<path fill="none" stroke="midnightblue" d="M381.98,-67.48C381.98,-60.47 381.98,-50.19 381.98,-40.7"/>
<polygon fill="midnightblue" stroke="midnightblue" points="385.49,-40.52 381.98,-30.52 378.49,-40.52 385.49,-40.52"/>
</g>
<!-- Node12&#45;&gt;Node11 -->
<g id="edge15" class="edge">
<title>Node12&#45;&gt;Node11</title>
<path fill="none" stroke="midnightblue" d="M719.5,-190.48C697.85,-180.49 661.77,-163.85 636.75,-152.31"/>
<polygon fill="midnightblue" stroke="midnightblue" points="637.98,-149.02 627.43,-148.01 635.05,-155.38 637.98,-149.02"/>
</g>
<!-- Node13 -->
<g id="node13" class="node">
<title>Node13</title>
<g id="a_node13"><a xlink:href="http://www.dealii.org/developer/doxygen/deal.II/patterns_8h.html.html" xlink:title=" ">
<polygon fill="none" stroke="black" points="675.48,-129 675.48,-148 800.48,-148 800.48,-129 675.48,-129"/>
<text text-anchor="middle" x="737.98" y="-136" font-family="Helvetica,sans-Serif" font-size="10.00">deal.II/base/patterns.h</text>
</a>
</g>
</g>
<!-- Node12&#45;&gt;Node13 -->
<g id="edge13" class="edge">
<title>Node12&#45;&gt;Node13</title>
<path fill="none" stroke="midnightblue" d="M737.98,-190.48C737.98,-182.08 737.98,-168.98 737.98,-158.16"/>
<polygon fill="midnightblue" stroke="midnightblue" points="741.49,-158.01 737.98,-148.01 734.49,-158.01 741.49,-158.01"/>
</g>
<!-- Node12&#45;&gt;Node14 -->
<g id="edge14" class="edge">
<title>Node12&#45;&gt;Node14</title>
<path fill="none" stroke="midnightblue" d="M758.04,-190.48C778.16,-181.93 809.75,-168.5 835.46,-157.57"/>
<polygon fill="midnightblue" stroke="midnightblue" points="837.16,-160.66 844.99,-153.52 834.42,-154.21 837.16,-160.66"/>
</g>
<!-- Node16&#45;&gt;Node15 -->
<g id="edge19" class="edge">
<title>Node16&#45;&gt;Node15</title>
<path fill="none" stroke="midnightblue" d="M949.49,-246.08C949.1,-239.01 948.53,-228.86 948.04,-219.99"/>
<polygon fill="midnightblue" stroke="midnightblue" points="951.52,-219.54 947.47,-209.75 944.53,-219.93 951.52,-219.54"/>
</g>
</g>
</svg>
