<?xml version="1.0" encoding="UTF-8" standalone="no"?>
<!DOCTYPE svg PUBLIC "-//W3C//DTD SVG 1.1//EN"
 "http://www.w3.org/Graphics/SVG/1.1/DTD/svg11.dtd">
<!-- Generated by graphviz version 2.43.0 (0)
 -->
<!-- Title: include/moonolith_tools.h Pages: 1 -->
<svg width="1267pt" height="609pt"
 viewBox="0.00 0.00 1267.00 609.00" xmlns="http://www.w3.org/2000/svg" xmlns:xlink="http://www.w3.org/1999/xlink">
<g id="graph0" class="graph" transform="scale(1 1) rotate(0) translate(4 605)">
<title>include/moonolith_tools.h</title>
<!-- Node1 -->
<g id="node1" class="node">
<title>Node1</title>
<g id="a_node1"><a xlink:title=" ">
<polygon fill="#bfbfbf" stroke="black" points="577.5,-581.5 577.5,-600.5 720.5,-600.5 720.5,-581.5 577.5,-581.5"/>
<text text-anchor="middle" x="649" y="-588.5" font-family="Helvetica,sans-Serif" font-size="10.00">include/moonolith_tools.h</text>
</a>
</g>
</g>
<!-- Node2 -->
<g id="node2" class="node">
<title>Node2</title>
<g id="a_node2"><a xlink:href="http://www.dealii.org/developer/doxygen/deal.II/config_8h.html" xlink:title=" ">
<polygon fill="none" stroke="black" points="591.5,-525.5 591.5,-544.5 706.5,-544.5 706.5,-525.5 591.5,-525.5"/>
<text text-anchor="middle" x="649" y="-532.5" font-family="Helvetica,sans-Serif" font-size="10.00">deal.II/base/config.h</text>
</a>
</g>
</g>
<!-- Node1&#45;&gt;Node2 -->
<g id="edge1" class="edge">
<title>Node1&#45;&gt;Node2</title>
<path fill="none" stroke="midnightblue" d="M649,-581.08C649,-574.01 649,-563.86 649,-554.99"/>
<polygon fill="midnightblue" stroke="midnightblue" points="652.5,-554.75 649,-544.75 645.5,-554.75 652.5,-554.75"/>
</g>
<!-- Node3 -->
<g id="node3" class="node">
<title>Node3</title>
<g id="a_node3"><a xlink:href="http://www.dealii.org/developer/doxygen/deal.II/mpi_8h.html" xlink:title=" ">
<polygon fill="none" stroke="black" points="627,-469.5 627,-488.5 671,-488.5 671,-469.5 627,-469.5"/>
<text text-anchor="middle" x="649" y="-476.5" font-family="Helvetica,sans-Serif" font-size="10.00">mpi.h</text>
</a>
</g>
</g>
<!-- Node2&#45;&gt;Node3 -->
<g id="edge2" class="edge">
<title>Node2&#45;&gt;Node3</title>
<path fill="none" stroke="midnightblue" d="M643.83,-525.08C642.32,-517.93 641.89,-507.64 642.54,-498.69"/>
<polygon fill="midnightblue" stroke="midnightblue" points="646.02,-499.13 643.87,-488.75 639.08,-498.2 646.02,-499.13"/>
</g>
<!-- Node8 -->
<g id="node8" class="node">
<title>Node8</title>
<g id="a_node8"><a xlink:href="http://www.dealii.org/developer/doxygen/deal.II/numbers_8h.html" xlink:title=" ">
<polygon fill="none" stroke="black" points="448,-207 448,-226 576,-226 576,-207 448,-207"/>
<text text-anchor="middle" x="512" y="-214" font-family="Helvetica,sans-Serif" font-size="10.00">deal.II/base/numbers.h</text>
</a>
</g>
</g>
<!-- Node2&#45;&gt;Node8 -->
<g id="edge60" class="edge">
<title>Node2&#45;&gt;Node8</title>
<path fill="none" stroke="midnightblue" d="M635.41,-525.41C626.49,-516.61 616.17,-502.38 609,-489 566.05,-408.83 565.6,-383.91 533,-299 524.74,-277.5 515.66,-252.64 511.59,-236.09"/>
<polygon fill="midnightblue" stroke="midnightblue" points="514.99,-235.24 509.64,-226.1 508.12,-236.58 514.99,-235.24"/>
</g>
<!-- Node9 -->
<g id="node9" class="node">
<title>Node9</title>
<g id="a_node9"><a xlink:href="http://www.dealii.org/developer/doxygen/deal.II/types_8h.html" xlink:title=" ">
<polygon fill="none" stroke="black" points="1076,-140 1076,-159 1188,-159 1188,-140 1076,-140"/>
<text text-anchor="middle" x="1132" y="-147" font-family="Helvetica,sans-Serif" font-size="10.00">deal.II/base/types.h</text>
</a>
</g>
</g>
<!-- Node2&#45;&gt;Node9 -->
<g id="edge61" class="edge">
<title>Node2&#45;&gt;Node9</title>
<path fill="none" stroke="midnightblue" d="M706.64,-533.28C841.35,-530 1165,-512.29 1165,-418.5 1165,-418.5 1165,-418.5 1165,-282.5 1165,-240.18 1145.16,-193.68 1135.67,-168.73"/>
<polygon fill="midnightblue" stroke="midnightblue" points="1138.91,-167.39 1132.24,-159.16 1132.32,-169.75 1138.91,-167.39"/>
</g>
<!-- Node3&#45;&gt;Node2 -->
<g id="edge3" class="edge">
<title>Node3&#45;&gt;Node2</title>
<path fill="none" stroke="midnightblue" d="M654.13,-488.75C655.66,-495.86 656.1,-506.14 655.47,-515.1"/>
<polygon fill="midnightblue" stroke="midnightblue" points="651.99,-514.71 654.17,-525.08 658.93,-515.62 651.99,-514.71"/>
</g>
<!-- Node4 -->
<g id="node4" class="node">
<title>Node4</title>
<g id="a_node4"><a xlink:href="http://www.dealii.org/developer/doxygen/deal.II/array__view_8h.html" xlink:title=" ">
<polygon fill="none" stroke="black" points="413.5,-402.5 413.5,-432.5 514.5,-432.5 514.5,-402.5 413.5,-402.5"/>
<text text-anchor="start" x="421.5" y="-420.5" font-family="Helvetica,sans-Serif" font-size="10.00">deal.II/base/array</text>
<text text-anchor="middle" x="464" y="-409.5" font-family="Helvetica,sans-Serif" font-size="10.00">_view.h</text>
</a>
</g>
</g>
<!-- Node3&#45;&gt;Node4 -->
<g id="edge4" class="edge">
<title>Node3&#45;&gt;Node4</title>
<path fill="none" stroke="midnightblue" d="M626.68,-470.82C599.8,-462.18 553.74,-447.36 517.48,-435.7"/>
<polygon fill="midnightblue" stroke="midnightblue" points="518.12,-432.23 507.53,-432.5 515.98,-438.89 518.12,-432.23"/>
</g>
<!-- Node3&#45;&gt;Node8 -->
<g id="edge58" class="edge">
<title>Node3&#45;&gt;Node8</title>
<path fill="none" stroke="midnightblue" d="M644.91,-469.49C631.07,-440.8 584.46,-345.05 542,-268 535.87,-256.88 528.61,-244.63 522.76,-234.98"/>
<polygon fill="midnightblue" stroke="midnightblue" points="525.69,-233.05 517.49,-226.34 519.71,-236.7 525.69,-233.05"/>
</g>
<!-- Node12 -->
<g id="node12" class="node">
<title>Node12</title>
<g id="a_node12"><a xlink:href="http://www.dealii.org/developer/doxygen/deal.II/template__constraints_8h.html" xlink:title=" ">
<polygon fill="none" stroke="black" points="239,-67.5 239,-97.5 359,-97.5 359,-67.5 239,-67.5"/>
<text text-anchor="start" x="247" y="-85.5" font-family="Helvetica,sans-Serif" font-size="10.00">deal.II/base/template</text>
<text text-anchor="middle" x="299" y="-74.5" font-family="Helvetica,sans-Serif" font-size="10.00">_constraints.h</text>
</a>
</g>
</g>
<!-- Node3&#45;&gt;Node12 -->
<g id="edge59" class="edge">
<title>Node3&#45;&gt;Node12</title>
<path fill="none" stroke="midnightblue" d="M649.94,-469.22C654.12,-424.84 666.52,-223.87 559,-134 530.77,-110.4 436.23,-96.57 369.31,-89.52"/>
<polygon fill="midnightblue" stroke="midnightblue" points="369.55,-86.03 359.24,-88.49 368.83,-92.99 369.55,-86.03"/>
</g>
<!-- Node17 -->
<g id="node17" class="node">
<title>Node17</title>
<g id="a_node17"><a xlink:href="http://www.dealii.org/developer/doxygen/deal.II/index__set_8h.html" xlink:title=" ">
<polygon fill="none" stroke="black" points="670.5,-402.5 670.5,-432.5 773.5,-432.5 773.5,-402.5 670.5,-402.5"/>
<text text-anchor="start" x="678.5" y="-420.5" font-family="Helvetica,sans-Serif" font-size="10.00">deal.II/base/index</text>
<text text-anchor="middle" x="722" y="-409.5" font-family="Helvetica,sans-Serif" font-size="10.00">_set.h</text>
</a>
</g>
</g>
<!-- Node3&#45;&gt;Node17 -->
<g id="edge41" class="edge">
<title>Node3&#45;&gt;Node17</title>
<path fill="none" stroke="midnightblue" d="M654.56,-469.48C662.61,-461.49 677.11,-449.25 690.69,-438.77"/>
<polygon fill="midnightblue" stroke="midnightblue" points="693.1,-441.34 698.97,-432.52 688.88,-435.76 693.1,-441.34"/>
</g>
<!-- Node21 -->
<g id="node21" class="node">
<title>Node21</title>
<g id="a_node21"><a xlink:href="http://www.dealii.org/developer/doxygen/deal.II/mpi__tags_8h.html" xlink:title=" ">
<polygon fill="none" stroke="black" points="792,-408 792,-427 922,-427 922,-408 792,-408"/>
<text text-anchor="middle" x="857" y="-415" font-family="Helvetica,sans-Serif" font-size="10.00">deal.II/base/mpi_tags.h</text>
</a>
</g>
</g>
<!-- Node3&#45;&gt;Node21 -->
<g id="edge56" class="edge">
<title>Node3&#45;&gt;Node21</title>
<path fill="none" stroke="midnightblue" d="M671.26,-471.63C706.16,-461.65 774.25,-442.17 817.59,-429.77"/>
<polygon fill="midnightblue" stroke="midnightblue" points="818.58,-433.13 827.23,-427.02 816.66,-426.4 818.58,-433.13"/>
</g>
<!-- Node4&#45;&gt;Node2 -->
<g id="edge5" class="edge">
<title>Node4&#45;&gt;Node2</title>
<path fill="none" stroke="midnightblue" d="M473.74,-432.51C485.3,-448.21 505.93,-473.48 529,-489 551.69,-504.27 580.26,-515.25 603.84,-522.54"/>
<polygon fill="midnightblue" stroke="midnightblue" points="603.02,-525.95 613.6,-525.44 605.01,-519.24 603.02,-525.95"/>
</g>
<!-- Node5 -->
<g id="node5" class="node">
<title>Node5</title>
<g id="a_node5"><a xlink:href="http://www.dealii.org/developer/doxygen/deal.II/include_2deal_8II_2base_2exceptions_8h.html" xlink:title=" ">
<polygon fill="none" stroke="black" points="662,-73 662,-92 800,-92 800,-73 662,-73"/>
<text text-anchor="middle" x="731" y="-80" font-family="Helvetica,sans-Serif" font-size="10.00">deal.II/base/exceptions.h</text>
</a>
</g>
</g>
<!-- Node4&#45;&gt;Node5 -->
<g id="edge6" class="edge">
<title>Node4&#45;&gt;Node5</title>
<path fill="none" stroke="midnightblue" d="M474.45,-402.39C505.51,-360.6 600.42,-234.14 685,-134 694.92,-122.25 706.6,-109.44 715.7,-99.67"/>
<polygon fill="midnightblue" stroke="midnightblue" points="718.36,-101.95 722.65,-92.26 713.26,-97.16 718.36,-101.95"/>
</g>
<!-- Node6 -->
<g id="node6" class="node">
<title>Node6</title>
<g id="a_node6"><a xlink:href="http://www.dealii.org/developer/doxygen/deal.II/memory__space_8h.html" xlink:title=" ">
<polygon fill="none" stroke="black" points="326.5,-335.5 326.5,-365.5 443.5,-365.5 443.5,-335.5 326.5,-335.5"/>
<text text-anchor="start" x="334.5" y="-353.5" font-family="Helvetica,sans-Serif" font-size="10.00">deal.II/base/memory</text>
<text text-anchor="middle" x="385" y="-342.5" font-family="Helvetica,sans-Serif" font-size="10.00">_space.h</text>
</a>
</g>
</g>
<!-- Node4&#45;&gt;Node6 -->
<g id="edge8" class="edge">
<title>Node4&#45;&gt;Node6</title>
<path fill="none" stroke="midnightblue" d="M446.86,-402.4C436.09,-393.54 422.02,-381.96 410.02,-372.09"/>
<polygon fill="midnightblue" stroke="midnightblue" points="412.05,-369.23 402.11,-365.58 407.61,-374.63 412.05,-369.23"/>
</g>
<!-- Node7 -->
<g id="node7" class="node">
<title>Node7</title>
<g id="a_node7"><a xlink:href="http://www.dealii.org/developer/doxygen/deal.II/symmetric__tensor_8h.html" xlink:title=" ">
<polygon fill="none" stroke="black" points="104,-335.5 104,-365.5 232,-365.5 232,-335.5 104,-335.5"/>
<text text-anchor="start" x="112" y="-353.5" font-family="Helvetica,sans-Serif" font-size="10.00">deal.II/base/symmetric</text>
<text text-anchor="middle" x="168" y="-342.5" font-family="Helvetica,sans-Serif" font-size="10.00">_tensor.h</text>
</a>
</g>
</g>
<!-- Node4&#45;&gt;Node7 -->
<g id="edge10" class="edge">
<title>Node4&#45;&gt;Node7</title>
<path fill="none" stroke="midnightblue" d="M413.45,-405.4C366.2,-395.02 295.08,-379.41 241.54,-367.65"/>
<polygon fill="midnightblue" stroke="midnightblue" points="242.28,-364.23 231.76,-365.5 240.78,-371.06 242.28,-364.23"/>
</g>
<!-- Node14 -->
<g id="node14" class="node">
<title>Node14</title>
<g id="a_node14"><a xlink:href="http://www.dealii.org/developer/doxygen/deal.II/tensor_8h.html" xlink:title=" ">
<polygon fill="none" stroke="black" points="238,-274 238,-293 354,-293 354,-274 238,-274"/>
<text text-anchor="middle" x="296" y="-281" font-family="Helvetica,sans-Serif" font-size="10.00">deal.II/base/tensor.h</text>
</a>
</g>
</g>
<!-- Node4&#45;&gt;Node14 -->
<g id="edge40" class="edge">
<title>Node4&#45;&gt;Node14</title>
<path fill="none" stroke="midnightblue" d="M466.07,-402.31C467.84,-384.47 467.98,-353.89 452,-335 430.27,-309.31 395.35,-296.57 364.05,-290.31"/>
<polygon fill="midnightblue" stroke="midnightblue" points="364.5,-286.83 354.04,-288.5 363.25,-293.72 364.5,-286.83"/>
</g>
<!-- Node5&#45;&gt;Node2 -->
<g id="edge7" class="edge">
<title>Node5&#45;&gt;Node2</title>
<path fill="none" stroke="midnightblue" d="M800.1,-86.79C922.46,-93.23 1167.18,-109.08 1197,-134 1225.97,-158.22 1221,-177.74 1221,-215.5 1221,-418.5 1221,-418.5 1221,-418.5 1221,-520.32 868.36,-533.45 716.85,-534.4"/>
<polygon fill="midnightblue" stroke="midnightblue" points="716.71,-530.9 706.73,-534.44 716.75,-537.9 716.71,-530.9"/>
</g>
<!-- Node6&#45;&gt;Node2 -->
<g id="edge9" class="edge">
<title>Node6&#45;&gt;Node2</title>
<path fill="none" stroke="midnightblue" d="M384.96,-365.6C385.6,-383.08 389.03,-412.99 404,-433 445.94,-489.03 524.54,-514.13 581.43,-525.28"/>
<polygon fill="midnightblue" stroke="midnightblue" points="580.96,-528.75 591.43,-527.14 582.24,-521.87 580.96,-528.75"/>
</g>
<!-- Node7&#45;&gt;Node2 -->
<g id="edge11" class="edge">
<title>Node7&#45;&gt;Node2</title>
<path fill="none" stroke="midnightblue" d="M171.45,-365.74C179.23,-394.52 201.09,-459.39 246,-489 299.55,-524.32 481.09,-532.16 581.25,-533.74"/>
<polygon fill="midnightblue" stroke="midnightblue" points="581.23,-537.24 591.27,-533.88 581.33,-530.24 581.23,-537.24"/>
</g>
<!-- Node7&#45;&gt;Node8 -->
<g id="edge12" class="edge">
<title>Node7&#45;&gt;Node8</title>
<path fill="none" stroke="midnightblue" d="M232.05,-337.1C270.72,-328.59 320.57,-315.8 363,-299 410.54,-280.18 462.04,-249.46 490.32,-231.6"/>
<polygon fill="midnightblue" stroke="midnightblue" points="492.44,-234.4 498.98,-226.07 488.67,-228.5 492.44,-234.4"/>
</g>
<!-- Node11 -->
<g id="node11" class="node">
<title>Node11</title>
<g id="a_node11"><a xlink:href="http://www.dealii.org/developer/doxygen/deal.II/table__indices_8h.html" xlink:title=" ">
<polygon fill="none" stroke="black" points="208.5,-134.5 208.5,-164.5 309.5,-164.5 309.5,-134.5 208.5,-134.5"/>
<text text-anchor="start" x="216.5" y="-152.5" font-family="Helvetica,sans-Serif" font-size="10.00">deal.II/base/table</text>
<text text-anchor="middle" x="259" y="-141.5" font-family="Helvetica,sans-Serif" font-size="10.00">_indices.h</text>
</a>
</g>
</g>
<!-- Node7&#45;&gt;Node11 -->
<g id="edge18" class="edge">
<title>Node7&#45;&gt;Node11</title>
<path fill="none" stroke="midnightblue" d="M178.69,-335.47C194.38,-314.21 223.56,-272.06 240,-232 247.6,-213.48 252.52,-191.28 255.45,-174.73"/>
<polygon fill="midnightblue" stroke="midnightblue" points="258.92,-175.2 257.09,-164.77 252.01,-174.06 258.92,-175.2"/>
</g>
<!-- Node7&#45;&gt;Node12 -->
<g id="edge26" class="edge">
<title>Node7&#45;&gt;Node12</title>
<path fill="none" stroke="midnightblue" d="M155.98,-335.42C134.85,-308.85 95.07,-249.63 115,-201 136.2,-149.27 194.06,-118.14 239.29,-101.05"/>
<polygon fill="midnightblue" stroke="midnightblue" points="240.54,-104.32 248.74,-97.61 238.14,-97.74 240.54,-104.32"/>
</g>
<!-- Node7&#45;&gt;Node14 -->
<g id="edge27" class="edge">
<title>Node7&#45;&gt;Node14</title>
<path fill="none" stroke="midnightblue" d="M195.77,-335.4C217.94,-324.14 248.74,-308.5 270.33,-297.54"/>
<polygon fill="midnightblue" stroke="midnightblue" points="271.92,-300.66 279.25,-293.01 268.75,-294.41 271.92,-300.66"/>
</g>
<!-- Node8&#45;&gt;Node2 -->
<g id="edge13" class="edge">
<title>Node8&#45;&gt;Node2</title>
<path fill="none" stroke="midnightblue" d="M520.51,-226.1C529.42,-240.99 540.84,-272.54 551,-299 583.6,-383.91 584.05,-408.83 627,-489 632.1,-498.51 638.78,-508.46 643.85,-516.57"/>
<polygon fill="midnightblue" stroke="midnightblue" points="640.95,-518.54 649.02,-525.41 646.99,-515.01 640.95,-518.54"/>
</g>
<!-- Node8&#45;&gt;Node9 -->
<g id="edge14" class="edge">
<title>Node8&#45;&gt;Node9</title>
<path fill="none" stroke="midnightblue" d="M576.02,-208.79C694.16,-196.4 945.35,-170.07 1065.41,-157.48"/>
<polygon fill="midnightblue" stroke="midnightblue" points="1065.98,-160.94 1075.56,-156.42 1065.25,-153.98 1065.98,-160.94"/>
</g>
<!-- Node10 -->
<g id="node10" class="node">
<title>Node10</title>
<g id="a_node10"><a xlink:href="http://www.dealii.org/developer/doxygen/deal.II/adolc__math_8h.html" xlink:title=" ">
<polygon fill="none" stroke="black" points="431.5,-134.5 431.5,-164.5 550.5,-164.5 550.5,-134.5 431.5,-134.5"/>
<text text-anchor="start" x="439.5" y="-152.5" font-family="Helvetica,sans-Serif" font-size="10.00">deal.II/differentiation</text>
<text text-anchor="middle" x="491" y="-141.5" font-family="Helvetica,sans-Serif" font-size="10.00">/ad/adolc_math.h</text>
</a>
</g>
</g>
<!-- Node8&#45;&gt;Node10 -->
<g id="edge16" class="edge">
<title>Node8&#45;&gt;Node10</title>
<path fill="none" stroke="midnightblue" d="M509.17,-206.73C506.49,-198.46 502.36,-185.66 498.71,-174.37"/>
<polygon fill="midnightblue" stroke="midnightblue" points="501.96,-173.03 495.55,-164.59 495.3,-175.18 501.96,-173.03"/>
</g>
<!-- Node9&#45;&gt;Node2 -->
<g id="edge15" class="edge">
<title>Node9&#45;&gt;Node2</title>
<path fill="none" stroke="midnightblue" d="M1141.4,-159.16C1156.85,-179.82 1183,-233.92 1183,-282.5 1183,-418.5 1183,-418.5 1183,-418.5 1183,-512.14 860.37,-529.95 716.61,-533.27"/>
<polygon fill="midnightblue" stroke="midnightblue" points="716.5,-529.77 706.57,-533.48 716.65,-536.77 716.5,-529.77"/>
</g>
<!-- Node10&#45;&gt;Node2 -->
<g id="edge17" class="edge">
<title>Node10&#45;&gt;Node2</title>
<path fill="none" stroke="midnightblue" d="M475.42,-164.55C464.78,-174.39 450.58,-188.06 439,-201 402.25,-242.08 401.89,-259.94 363,-299 344.68,-317.4 328.37,-311.66 317,-335 310.97,-347.39 311.73,-353.27 317,-366 346.59,-437.43 372.11,-452.02 440,-489 483.6,-512.75 538.71,-523.97 581.39,-529.26"/>
<polygon fill="midnightblue" stroke="midnightblue" points="581.06,-532.75 591.4,-530.43 581.87,-525.8 581.06,-532.75"/>
</g>
<!-- Node11&#45;&gt;Node2 -->
<g id="edge19" class="edge">
<title>Node11&#45;&gt;Node2</title>
<path fill="none" stroke="midnightblue" d="M208.3,-157.96C143.05,-170.76 38,-203.62 38,-282.5 38,-418.5 38,-418.5 38,-418.5 38,-463.93 70.57,-470.38 112,-489 194.07,-525.88 455.96,-532.75 581.12,-533.88"/>
<polygon fill="midnightblue" stroke="midnightblue" points="581.32,-537.38 591.35,-533.96 581.38,-530.38 581.32,-537.38"/>
</g>
<!-- Node11&#45;&gt;Node5 -->
<g id="edge20" class="edge">
<title>Node11&#45;&gt;Node5</title>
<path fill="none" stroke="midnightblue" d="M309.51,-141.54C393.58,-129.97 562.47,-106.71 658.99,-93.42"/>
<polygon fill="midnightblue" stroke="midnightblue" points="659.53,-96.88 668.96,-92.04 658.58,-89.94 659.53,-96.88"/>
</g>
<!-- Node11&#45;&gt;Node12 -->
<g id="edge21" class="edge">
<title>Node11&#45;&gt;Node12</title>
<path fill="none" stroke="midnightblue" d="M267.68,-134.4C272.76,-126.13 279.3,-115.51 285.09,-106.1"/>
<polygon fill="midnightblue" stroke="midnightblue" points="288.08,-107.93 290.34,-97.58 282.12,-104.26 288.08,-107.93"/>
</g>
<!-- Node12&#45;&gt;Node2 -->
<g id="edge22" class="edge">
<title>Node12&#45;&gt;Node2</title>
<path fill="none" stroke="midnightblue" d="M238.85,-84.31C151.54,-89.02 0,-112.09 0,-215.5 0,-418.5 0,-418.5 0,-418.5 0,-461.12 26.65,-470.41 65,-489 110.46,-511.04 437.27,-525.98 581.22,-531.56"/>
<polygon fill="midnightblue" stroke="midnightblue" points="581.14,-535.06 591.26,-531.95 581.41,-528.06 581.14,-535.06"/>
</g>
<!-- Node13 -->
<g id="node13" class="node">
<title>Node13</title>
<g id="a_node13"><a xlink:href="http://www.dealii.org/developer/doxygen/deal.II/complex__overloads_8h.html" xlink:title=" ">
<polygon fill="none" stroke="black" points="240,-0.5 240,-30.5 358,-30.5 358,-0.5 240,-0.5"/>
<text text-anchor="start" x="248" y="-18.5" font-family="Helvetica,sans-Serif" font-size="10.00">deal.II/base/complex</text>
<text text-anchor="middle" x="299" y="-7.5" font-family="Helvetica,sans-Serif" font-size="10.00">_overloads.h</text>
</a>
</g>
</g>
<!-- Node12&#45;&gt;Node13 -->
<g id="edge23" class="edge">
<title>Node12&#45;&gt;Node13</title>
<path fill="none" stroke="midnightblue" d="M293.32,-67.4C292.29,-59.56 292.01,-49.6 292.46,-40.57"/>
<polygon fill="midnightblue" stroke="midnightblue" points="295.95,-40.84 293.33,-30.58 288.97,-40.24 295.95,-40.84"/>
</g>
<!-- Node13&#45;&gt;Node2 -->
<g id="edge24" class="edge">
<title>Node13&#45;&gt;Node2</title>
<path fill="none" stroke="midnightblue" d="M358.33,-18.38C567.63,-25.77 1259,-57.13 1259,-148.5 1259,-418.5 1259,-418.5 1259,-418.5 1259,-465.89 1222.59,-470.39 1179,-489 1097.53,-523.78 840.49,-531.71 716.8,-533.49"/>
<polygon fill="midnightblue" stroke="midnightblue" points="716.65,-529.99 706.69,-533.63 716.74,-536.99 716.65,-529.99"/>
</g>
<!-- Node13&#45;&gt;Node12 -->
<g id="edge25" class="edge">
<title>Node13&#45;&gt;Node12</title>
<path fill="none" stroke="midnightblue" d="M304.67,-30.58C305.7,-38.41 305.99,-48.37 305.55,-57.4"/>
<polygon fill="midnightblue" stroke="midnightblue" points="302.06,-57.13 304.68,-67.4 309.03,-57.74 302.06,-57.13"/>
</g>
<!-- Node14&#45;&gt;Node2 -->
<g id="edge28" class="edge">
<title>Node14&#45;&gt;Node2</title>
<path fill="none" stroke="midnightblue" d="M291.69,-293.27C277.05,-324.45 232.88,-431.19 284,-489 303.32,-510.85 481.02,-524.43 581.16,-530.42"/>
<polygon fill="midnightblue" stroke="midnightblue" points="581,-533.92 591.19,-531.01 581.41,-526.93 581,-533.92"/>
</g>
<!-- Node14&#45;&gt;Node5 -->
<g id="edge29" class="edge">
<title>Node14&#45;&gt;Node5</title>
<path fill="none" stroke="midnightblue" d="M302.23,-273.67C322.99,-244.47 390.36,-151.89 422,-134 460.21,-112.4 573.18,-97.95 651.39,-90.23"/>
<polygon fill="midnightblue" stroke="midnightblue" points="652.08,-93.68 661.7,-89.23 651.41,-86.71 652.08,-93.68"/>
</g>
<!-- Node14&#45;&gt;Node8 -->
<g id="edge30" class="edge">
<title>Node14&#45;&gt;Node8</title>
<path fill="none" stroke="midnightblue" d="M324.68,-273.87C363.04,-262.33 431.13,-241.84 473.8,-229"/>
<polygon fill="midnightblue" stroke="midnightblue" points="474.98,-232.3 483.54,-226.06 472.96,-225.59 474.98,-232.3"/>
</g>
<!-- Node14&#45;&gt;Node11 -->
<g id="edge31" class="edge">
<title>Node14&#45;&gt;Node11</title>
<path fill="none" stroke="midnightblue" d="M293.76,-273.91C289.86,-259.04 281.51,-227.51 274,-201 271.52,-192.24 268.7,-182.66 266.18,-174.22"/>
<polygon fill="midnightblue" stroke="midnightblue" points="269.53,-173.19 263.3,-164.62 262.82,-175.21 269.53,-173.19"/>
</g>
<!-- Node14&#45;&gt;Node12 -->
<g id="edge32" class="edge">
<title>Node14&#45;&gt;Node12</title>
<path fill="none" stroke="midnightblue" d="M299.29,-273.76C307.51,-250.79 327.61,-186.82 318,-134 316.36,-124.96 313.18,-115.43 309.89,-107.12"/>
<polygon fill="midnightblue" stroke="midnightblue" points="313.03,-105.54 305.91,-97.69 306.58,-108.26 313.03,-105.54"/>
</g>
<!-- Node15 -->
<g id="node15" class="node">
<title>Node15</title>
<g id="a_node15"><a xlink:href="http://www.dealii.org/developer/doxygen/deal.II/tensor__accessors_8h.html" xlink:title=" ">
<polygon fill="none" stroke="black" points="124.5,-201.5 124.5,-231.5 231.5,-231.5 231.5,-201.5 124.5,-201.5"/>
<text text-anchor="start" x="132.5" y="-219.5" font-family="Helvetica,sans-Serif" font-size="10.00">deal.II/base/tensor</text>
<text text-anchor="middle" x="178" y="-208.5" font-family="Helvetica,sans-Serif" font-size="10.00">_accessors.h</text>
</a>
</g>
</g>
<!-- Node14&#45;&gt;Node15 -->
<g id="edge33" class="edge">
<title>Node14&#45;&gt;Node15</title>
<path fill="none" stroke="midnightblue" d="M280.09,-273.73C262.84,-264.23 234.78,-248.78 212.44,-236.47"/>
<polygon fill="midnightblue" stroke="midnightblue" points="214.02,-233.35 203.58,-231.59 210.65,-239.48 214.02,-233.35"/>
</g>
<!-- Node16 -->
<g id="node16" class="node">
<title>Node16</title>
<g id="a_node16"><a xlink:href="http://www.dealii.org/developer/doxygen/deal.II/include_2deal_8II_2base_2utilities_8h.html" xlink:title=" ">
<polygon fill="none" stroke="black" points="746,-207 746,-226 868,-226 868,-207 746,-207"/>
<text text-anchor="middle" x="807" y="-214" font-family="Helvetica,sans-Serif" font-size="10.00">deal.II/base/utilities.h</text>
</a>
</g>
</g>
<!-- Node14&#45;&gt;Node16 -->
<g id="edge37" class="edge">
<title>Node14&#45;&gt;Node16</title>
<path fill="none" stroke="midnightblue" d="M354.12,-275.11C448.2,-263.14 633.57,-239.56 735.56,-226.59"/>
<polygon fill="midnightblue" stroke="midnightblue" points="736.28,-230.02 745.76,-225.29 735.4,-223.08 736.28,-230.02"/>
</g>
<!-- Node15&#45;&gt;Node2 -->
<g id="edge34" class="edge">
<title>Node15&#45;&gt;Node2</title>
<path fill="none" stroke="midnightblue" d="M156.37,-231.71C126.43,-253.29 76,-297.37 76,-349.5 76,-418.5 76,-418.5 76,-418.5 76,-520.55 429.69,-533.54 581.31,-534.42"/>
<polygon fill="midnightblue" stroke="midnightblue" points="581.42,-537.92 591.44,-534.46 581.45,-530.92 581.42,-537.92"/>
</g>
<!-- Node15&#45;&gt;Node11 -->
<g id="edge35" class="edge">
<title>Node15&#45;&gt;Node11</title>
<path fill="none" stroke="midnightblue" d="M195.58,-201.4C206.61,-192.54 221.04,-180.96 233.35,-171.09"/>
<polygon fill="midnightblue" stroke="midnightblue" points="235.85,-173.56 241.46,-164.58 231.47,-168.11 235.85,-173.56"/>
</g>
<!-- Node15&#45;&gt;Node12 -->
<g id="edge36" class="edge">
<title>Node15&#45;&gt;Node12</title>
<path fill="none" stroke="midnightblue" d="M178.21,-201.26C179.18,-183.64 183.24,-153.58 199,-134 210.31,-119.94 226.57,-109.44 242.69,-101.76"/>
<polygon fill="midnightblue" stroke="midnightblue" points="244.41,-104.83 252.13,-97.56 241.57,-98.43 244.41,-104.83"/>
</g>
<!-- Node16&#45;&gt;Node2 -->
<g id="edge38" class="edge">
<title>Node16&#45;&gt;Node2</title>
<path fill="none" stroke="midnightblue" d="M868.18,-219.94C945.96,-224.32 1074.2,-236.26 1108,-268 1135.11,-293.46 1127,-312.31 1127,-349.5 1127,-418.5 1127,-418.5 1127,-418.5 1127,-501.91 848.49,-525.28 716.66,-531.67"/>
<polygon fill="midnightblue" stroke="midnightblue" points="716.48,-528.17 706.66,-532.14 716.81,-535.17 716.48,-528.17"/>
</g>
<!-- Node16&#45;&gt;Node5 -->
<g id="edge39" class="edge">
<title>Node16&#45;&gt;Node5</title>
<path fill="none" stroke="midnightblue" d="M802.01,-206.84C789.67,-185.39 757.48,-129.49 741.02,-100.9"/>
<polygon fill="midnightblue" stroke="midnightblue" points="743.93,-98.94 735.91,-92.02 737.86,-102.43 743.93,-98.94"/>
</g>
<!-- Node17&#45;&gt;Node2 -->
<g id="edge42" class="edge">
<title>Node17&#45;&gt;Node2</title>
<path fill="none" stroke="midnightblue" d="M713.9,-432.71C705.64,-447.07 692.31,-469.81 680,-489 673.91,-498.5 666.78,-508.89 660.9,-517.29"/>
<polygon fill="midnightblue" stroke="midnightblue" points="658.02,-515.3 655.11,-525.49 663.74,-519.34 658.02,-515.3"/>
</g>
<!-- Node17&#45;&gt;Node3 -->
<g id="edge55" class="edge">
<title>Node17&#45;&gt;Node3</title>
<path fill="none" stroke="midnightblue" d="M710.63,-432.52C700.4,-441.84 685.44,-454.05 672.72,-463.47"/>
<polygon fill="midnightblue" stroke="midnightblue" points="670.44,-460.8 664.36,-469.48 674.52,-466.48 670.44,-460.8"/>
</g>
<!-- Node17&#45;&gt;Node5 -->
<g id="edge43" class="edge">
<title>Node17&#45;&gt;Node5</title>
<path fill="none" stroke="midnightblue" d="M714.3,-402.32C702.17,-378.64 680,-329.23 680,-284.5 680,-284.5 680,-284.5 680,-215.5 680,-171.69 704.75,-124.86 719.76,-100.48"/>
<polygon fill="midnightblue" stroke="midnightblue" points="722.73,-102.33 725.15,-92.02 716.83,-98.58 722.73,-102.33"/>
</g>
<!-- Node17&#45;&gt;Node16 -->
<g id="edge54" class="edge">
<title>Node17&#45;&gt;Node16</title>
<path fill="none" stroke="midnightblue" d="M726.89,-402.35C736.26,-375.66 757.77,-316.27 780,-268 785.12,-256.87 791.57,-244.76 796.88,-235.19"/>
<polygon fill="midnightblue" stroke="midnightblue" points="800.04,-236.71 801.9,-226.28 793.94,-233.27 800.04,-236.71"/>
</g>
<!-- Node18 -->
<g id="node18" class="node">
<title>Node18</title>
<g id="a_node18"><a xlink:href="http://www.dealii.org/developer/doxygen/deal.II/thread__management_8h.html" xlink:title=" ">
<polygon fill="none" stroke="black" points="810.5,-335.5 810.5,-365.5 917.5,-365.5 917.5,-335.5 810.5,-335.5"/>
<text text-anchor="start" x="818.5" y="-353.5" font-family="Helvetica,sans-Serif" font-size="10.00">deal.II/base/thread</text>
<text text-anchor="middle" x="864" y="-342.5" font-family="Helvetica,sans-Serif" font-size="10.00">_management.h</text>
</a>
</g>
</g>
<!-- Node17&#45;&gt;Node18 -->
<g id="edge44" class="edge">
<title>Node17&#45;&gt;Node18</title>
<path fill="none" stroke="midnightblue" d="M752.81,-402.4C773.65,-392.86 801.38,-380.16 823.93,-369.84"/>
<polygon fill="midnightblue" stroke="midnightblue" points="825.61,-372.92 833.25,-365.58 822.7,-366.56 825.61,-372.92"/>
</g>
<!-- Node18&#45;&gt;Node2 -->
<g id="edge45" class="edge">
<title>Node18&#45;&gt;Node2</title>
<path fill="none" stroke="midnightblue" d="M893.69,-365.66C907.74,-374.08 923.14,-386.23 931,-402 937.15,-414.33 938.93,-421.73 931,-433 882.8,-501.45 783.71,-523.75 716.79,-530.88"/>
<polygon fill="midnightblue" stroke="midnightblue" points="716.36,-527.4 706.75,-531.86 717.04,-534.37 716.36,-527.4"/>
</g>
<!-- Node18&#45;&gt;Node5 -->
<g id="edge46" class="edge">
<title>Node18&#45;&gt;Node5</title>
<path fill="none" stroke="midnightblue" d="M845.03,-335.49C825.6,-319.35 800.09,-291.98 814,-268 830.19,-240.11 860.81,-259.89 877,-232 883.92,-220.08 882.95,-213.43 877,-201 852.72,-150.3 794.72,-114.52 759.57,-96.61"/>
<polygon fill="midnightblue" stroke="midnightblue" points="760.83,-93.33 750.31,-92.04 757.73,-99.6 760.83,-93.33"/>
</g>
<!-- Node18&#45;&gt;Node12 -->
<g id="edge53" class="edge">
<title>Node18&#45;&gt;Node12</title>
<path fill="none" stroke="midnightblue" d="M847.73,-335.37C836.1,-325.25 820.07,-311.3 806,-299 764.15,-262.42 668.32,-157.61 618,-134 538.21,-96.57 436.14,-86.06 369.23,-83.53"/>
<polygon fill="midnightblue" stroke="midnightblue" points="369.33,-80.03 359.22,-83.2 369.1,-87.03 369.33,-80.03"/>
</g>
<!-- Node19 -->
<g id="node19" class="node">
<title>Node19</title>
<g id="a_node19"><a xlink:href="http://www.dealii.org/developer/doxygen/deal.II/multithread__info_8h.html" xlink:title=" ">
<polygon fill="none" stroke="black" points="822.5,-268.5 822.5,-298.5 955.5,-298.5 955.5,-268.5 822.5,-268.5"/>
<text text-anchor="start" x="830.5" y="-286.5" font-family="Helvetica,sans-Serif" font-size="10.00">deal.II/base/multithread</text>
<text text-anchor="middle" x="889" y="-275.5" font-family="Helvetica,sans-Serif" font-size="10.00">_info.h</text>
</a>
</g>
</g>
<!-- Node18&#45;&gt;Node19 -->
<g id="edge47" class="edge">
<title>Node18&#45;&gt;Node19</title>
<path fill="none" stroke="midnightblue" d="M869.42,-335.4C872.5,-327.39 876.44,-317.16 879.97,-307.98"/>
<polygon fill="midnightblue" stroke="midnightblue" points="883.26,-309.17 883.59,-298.58 876.73,-306.65 883.26,-309.17"/>
</g>
<!-- Node20 -->
<g id="node20" class="node">
<title>Node20</title>
<g id="a_node20"><a xlink:href="http://www.dealii.org/developer/doxygen/deal.II/tuple_8h.html" xlink:title=" ">
<polygon fill="none" stroke="black" points="973.5,-268.5 973.5,-298.5 1098.5,-298.5 1098.5,-268.5 973.5,-268.5"/>
<text text-anchor="start" x="981.5" y="-286.5" font-family="Helvetica,sans-Serif" font-size="10.00">deal.II/base/std_cxx17</text>
<text text-anchor="middle" x="1036" y="-275.5" font-family="Helvetica,sans-Serif" font-size="10.00">/tuple.h</text>
</a>
</g>
</g>
<!-- Node18&#45;&gt;Node20 -->
<g id="edge51" class="edge">
<title>Node18&#45;&gt;Node20</title>
<path fill="none" stroke="midnightblue" d="M901.32,-335.4C927.13,-325.64 961.66,-312.59 989.29,-302.15"/>
<polygon fill="midnightblue" stroke="midnightblue" points="990.63,-305.39 998.75,-298.58 988.16,-298.84 990.63,-305.39"/>
</g>
<!-- Node19&#45;&gt;Node2 -->
<g id="edge48" class="edge">
<title>Node19&#45;&gt;Node2</title>
<path fill="none" stroke="midnightblue" d="M901.79,-298.61C909.97,-308.26 920.27,-321.68 927,-335 941.01,-362.74 942.51,-371.25 947,-402 948.99,-415.63 952.04,-420.18 947,-433 934.59,-464.61 924.78,-472.67 895,-489 839.86,-519.24 768.37,-529.67 716.68,-533.02"/>
<polygon fill="midnightblue" stroke="midnightblue" points="716.39,-529.53 706.61,-533.6 716.8,-536.52 716.39,-529.53"/>
</g>
<!-- Node19&#45;&gt;Node5 -->
<g id="edge49" class="edge">
<title>Node19&#45;&gt;Node5</title>
<path fill="none" stroke="midnightblue" d="M897.23,-268.12C912.42,-239.46 940.64,-174.48 910,-134 896.23,-115.81 843.12,-102.31 798.3,-93.87"/>
<polygon fill="midnightblue" stroke="midnightblue" points="798.76,-90.4 788.29,-92.04 797.5,-97.28 798.76,-90.4"/>
</g>
<!-- Node19&#45;&gt;Node9 -->
<g id="edge50" class="edge">
<title>Node19&#45;&gt;Node9</title>
<path fill="none" stroke="midnightblue" d="M915.01,-268.37C962.1,-242.79 1060.9,-189.12 1107.14,-164"/>
<polygon fill="midnightblue" stroke="midnightblue" points="1109.06,-166.95 1116.17,-159.1 1105.72,-160.8 1109.06,-166.95"/>
</g>
<!-- Node20&#45;&gt;Node2 -->
<g id="edge52" class="edge">
<title>Node20&#45;&gt;Node2</title>
<path fill="none" stroke="midnightblue" d="M1033.1,-298.63C1024.36,-337.12 994.37,-444 923,-489 889.53,-510.11 786.3,-522.65 716.55,-528.93"/>
<polygon fill="midnightblue" stroke="midnightblue" points="716.17,-525.45 706.51,-529.81 716.78,-532.42 716.17,-525.45"/>
</g>
<!-- Node21&#45;&gt;Node2 -->
<g id="edge57" class="edge">
<title>Node21&#45;&gt;Node2</title>
<path fill="none" stroke="midnightblue" d="M841.47,-427.12C805.64,-447.02 716.99,-496.25 673.65,-520.31"/>
<polygon fill="midnightblue" stroke="midnightblue" points="671.68,-517.4 664.63,-525.32 675.08,-523.52 671.68,-517.4"/>
</g>
</g>
</svg>
