<?xml version="1.0" encoding="UTF-8" standalone="no"?>
<!DOCTYPE svg PUBLIC "-//W3C//DTD SVG 1.1//EN"
 "http://www.w3.org/Graphics/SVG/1.1/DTD/svg11.dtd">
<!-- Generated by graphviz version 2.43.0 (0)
 -->
<!-- Title: include/pdes/mpi/linear_elasticity.h Pages: 1 -->
<svg width="310pt" height="106pt"
 viewBox="0.00 0.00 309.50 106.00" xmlns="http://www.w3.org/2000/svg" xmlns:xlink="http://www.w3.org/1999/xlink">
<g id="graph0" class="graph" transform="scale(1 1) rotate(0) translate(4 102)">
<title>include/pdes/mpi/linear_elasticity.h</title>
<!-- Node1 -->
<g id="node1" class="node">
<title>Node1</title>
<g id="a_node1"><a xlink:title=" ">
<polygon fill="#bfbfbf" stroke="black" points="78.5,-67.5 78.5,-97.5 209.5,-97.5 209.5,-67.5 78.5,-67.5"/>
<text text-anchor="start" x="86.5" y="-85.5" font-family="Helvetica,sans-Serif" font-size="10.00">include/pdes/mpi/linear</text>
<text text-anchor="middle" x="144" y="-74.5" font-family="Helvetica,sans-Serif" font-size="10.00">_elasticity.h</text>
</a>
</g>
</g>
<!-- Node2 -->
<g id="node2" class="node">
<title>Node2</title>
<g id="a_node2"><a xlink:href="source_2pdes_2mpi_2linear__elasticity_8cc.html" target="_top" xlink:title=" ">
<polygon fill="none" stroke="black" points="0,-0.5 0,-30.5 128,-30.5 128,-0.5 0,-0.5"/>
<text text-anchor="start" x="8" y="-18.5" font-family="Helvetica,sans-Serif" font-size="10.00">source/pdes/mpi/linear</text>
<text text-anchor="middle" x="64" y="-7.5" font-family="Helvetica,sans-Serif" font-size="10.00">_elasticity.cc</text>
</a>
</g>
</g>
<!-- Node1&#45;&gt;Node2 -->
<g id="edge1" class="edge">
<title>Node1&#45;&gt;Node2</title>
<path fill="none" stroke="midnightblue" d="M118.63,-60.88C106.47,-51.01 92.22,-39.43 81.32,-30.58"/>
<polygon fill="midnightblue" stroke="midnightblue" points="116.67,-63.81 126.64,-67.4 121.09,-58.37 116.67,-63.81"/>
</g>
<!-- Node3 -->
<g id="node3" class="node">
<title>Node3</title>
<g id="a_node3"><a xlink:href="apps_2mpi_2linear__elasticity_8cc.html" target="_top" xlink:title=" ">
<polygon fill="none" stroke="black" points="146.5,-6 146.5,-25 301.5,-25 301.5,-6 146.5,-6"/>
<text text-anchor="middle" x="224" y="-13" font-family="Helvetica,sans-Serif" font-size="10.00">apps/mpi/linear_elasticity.cc</text>
</a>
</g>
</g>
<!-- Node1&#45;&gt;Node3 -->
<g id="edge2" class="edge">
<title>Node1&#45;&gt;Node3</title>
<path fill="none" stroke="midnightblue" d="M169.22,-61.01C184.07,-48.94 202.09,-34.3 213.3,-25.19"/>
<polygon fill="midnightblue" stroke="midnightblue" points="166.91,-58.37 161.36,-67.4 171.33,-63.81 166.91,-58.37"/>
</g>
</g>
</svg>
