<?xml version="1.0" encoding="UTF-8" standalone="no"?>
<!DOCTYPE svg PUBLIC "-//W3C//DTD SVG 1.1//EN"
 "http://www.w3.org/Graphics/SVG/1.1/DTD/svg11.dtd">
<!-- Generated by graphviz version 2.43.0 (0)
 -->
<!-- Title: source/non_matching_coupling.cc Pages: 1 -->
<svg width="2859pt" height="430pt"
 viewBox="0.00 0.00 2859.00 430.00" xmlns="http://www.w3.org/2000/svg" xmlns:xlink="http://www.w3.org/1999/xlink">
<g id="graph0" class="graph" transform="scale(1 1) rotate(0) translate(4 426)">
<title>source/non_matching_coupling.cc</title>
<!-- Node1 -->
<g id="node1" class="node">
<title>Node1</title>
<g id="a_node1"><a xlink:title=" ">
<polygon fill="#bfbfbf" stroke="black" points="2194,-391.5 2194,-421.5 2315,-421.5 2315,-391.5 2194,-391.5"/>
<text text-anchor="start" x="2202" y="-409.5" font-family="Helvetica,sans-Serif" font-size="10.00">source/non_matching</text>
<text text-anchor="middle" x="2254.5" y="-398.5" font-family="Helvetica,sans-Serif" font-size="10.00">_coupling.cc</text>
</a>
</g>
</g>
<!-- Node2 -->
<g id="node2" class="node">
<title>Node2</title>
<g id="a_node2"><a xlink:href="non__matching__coupling_8h.html" target="_top" xlink:title=" ">
<polygon fill="none" stroke="black" points="1710,-324.5 1710,-354.5 1861,-354.5 1861,-324.5 1710,-324.5"/>
<text text-anchor="start" x="1718" y="-342.5" font-family="Helvetica,sans-Serif" font-size="10.00">parsed_tools/non_matching</text>
<text text-anchor="middle" x="1785.5" y="-331.5" font-family="Helvetica,sans-Serif" font-size="10.00">_coupling.h</text>
</a>
</g>
</g>
<!-- Node1&#45;&gt;Node2 -->
<g id="edge1" class="edge">
<title>Node1&#45;&gt;Node2</title>
<path fill="none" stroke="midnightblue" d="M2193.67,-397.07C2111.52,-385.68 1964.7,-365.34 1871.35,-352.4"/>
<polygon fill="midnightblue" stroke="midnightblue" points="1871.75,-348.92 1861.36,-351.01 1870.79,-355.85 1871.75,-348.92"/>
</g>
<!-- Node14 -->
<g id="node14" class="node">
<title>Node14</title>
<g id="a_node14"><a xlink:href="assemble__coupling__mass__matrix__with__exact__intersections_8h.html" target="_top" xlink:title=" ">
<polygon fill="none" stroke="black" points="2079.5,-257.5 2079.5,-287.5 2269.5,-287.5 2269.5,-257.5 2079.5,-257.5"/>
<text text-anchor="start" x="2087.5" y="-275.5" font-family="Helvetica,sans-Serif" font-size="10.00">assemble_coupling_mass</text>
<text text-anchor="middle" x="2174.5" y="-264.5" font-family="Helvetica,sans-Serif" font-size="10.00">_matrix_with_exact_intersections.h</text>
</a>
</g>
</g>
<!-- Node1&#45;&gt;Node14 -->
<g id="edge62" class="edge">
<title>Node1&#45;&gt;Node14</title>
<path fill="none" stroke="midnightblue" d="M2245.94,-391.37C2232.16,-368.65 2204.96,-323.75 2188.38,-296.4"/>
<polygon fill="midnightblue" stroke="midnightblue" points="2191.18,-294.26 2183,-287.52 2185.19,-297.89 2191.18,-294.26"/>
</g>
<!-- Node22 -->
<g id="node22" class="node">
<title>Node22</title>
<g id="a_node22"><a xlink:href="compute__intersections_8h.html" target="_top" xlink:title=" ">
<polygon fill="none" stroke="black" points="2277,-196 2277,-215 2414,-215 2414,-196 2277,-196"/>
<text text-anchor="middle" x="2345.5" y="-203" font-family="Helvetica,sans-Serif" font-size="10.00">compute_intersections.h</text>
</a>
</g>
</g>
<!-- Node1&#45;&gt;Node22 -->
<g id="edge63" class="edge">
<title>Node1&#45;&gt;Node22</title>
<path fill="none" stroke="midnightblue" d="M2261.4,-391.48C2272.16,-369.53 2293.44,-325.67 2310.5,-288 2320.3,-266.37 2330.99,-241.22 2337.95,-224.65"/>
<polygon fill="midnightblue" stroke="midnightblue" points="2341.3,-225.69 2341.93,-215.11 2334.85,-222.99 2341.3,-225.69"/>
</g>
<!-- Node23 -->
<g id="node23" class="node">
<title>Node23</title>
<g id="a_node23"><a xlink:href="create__coupling__sparsity__pattern__with__exact__intersections_8h.html" target="_top" xlink:title=" ">
<polygon fill="none" stroke="black" points="1140,-190.5 1140,-220.5 1333,-220.5 1333,-190.5 1140,-190.5"/>
<text text-anchor="start" x="1148" y="-208.5" font-family="Helvetica,sans-Serif" font-size="10.00">create_coupling_sparsity</text>
<text text-anchor="middle" x="1236.5" y="-197.5" font-family="Helvetica,sans-Serif" font-size="10.00">_pattern_with_exact_intersections.h</text>
</a>
</g>
</g>
<!-- Node1&#45;&gt;Node23 -->
<g id="edge64" class="edge">
<title>Node1&#45;&gt;Node23</title>
<path fill="none" stroke="midnightblue" d="M2193.9,-403.43C2011.43,-396.33 1470.33,-368.81 1316.5,-288 1289.71,-273.93 1266.43,-247.67 1251.99,-228.75"/>
<polygon fill="midnightblue" stroke="midnightblue" points="1254.76,-226.61 1246,-220.65 1249.13,-230.77 1254.76,-226.61"/>
</g>
<!-- Node34 -->
<g id="node34" class="node">
<title>Node34</title>
<g id="a_node34"><a xlink:title=" ">
<polygon fill="none" stroke="#bfbfbf" points="0,-129 0,-148 113,-148 113,-129 0,-129"/>
<text text-anchor="middle" x="56.5" y="-136" font-family="Helvetica,sans-Serif" font-size="10.00">boost/geometry.hpp</text>
</a>
</g>
</g>
<!-- Node1&#45;&gt;Node34 -->
<g id="edge61" class="edge">
<title>Node1&#45;&gt;Node34</title>
<path fill="none" stroke="midnightblue" d="M2193.86,-403.74C2056.45,-399.32 1710.92,-385.85 1423.5,-355 841.32,-292.51 696.89,-262.47 121.5,-154 115.39,-152.85 108.97,-151.54 102.65,-150.19"/>
<polygon fill="midnightblue" stroke="midnightblue" points="103.37,-146.77 92.85,-148.06 101.88,-153.6 103.37,-146.77"/>
</g>
<!-- Node35 -->
<g id="node35" class="node">
<title>Node35</title>
<g id="a_node35"><a xlink:href="http://www.dealii.org/developer/doxygen/deal.II/quadrature__selector_8h.html.html" xlink:title=" ">
<polygon fill="none" stroke="black" points="2338,-324.5 2338,-354.5 2467,-354.5 2467,-324.5 2338,-324.5"/>
<text text-anchor="start" x="2346" y="-342.5" font-family="Helvetica,sans-Serif" font-size="10.00">deal.II/base/quadrature</text>
<text text-anchor="middle" x="2402.5" y="-331.5" font-family="Helvetica,sans-Serif" font-size="10.00">_selector.h</text>
</a>
</g>
</g>
<!-- Node1&#45;&gt;Node35 -->
<g id="edge60" class="edge">
<title>Node1&#45;&gt;Node35</title>
<path fill="none" stroke="midnightblue" d="M2286.61,-391.4C2308.43,-381.81 2337.49,-369.05 2361.06,-358.7"/>
<polygon fill="midnightblue" stroke="midnightblue" points="2362.7,-361.8 2370.45,-354.58 2359.89,-355.39 2362.7,-361.8"/>
</g>
<!-- Node36 -->
<g id="node36" class="node">
<title>Node36</title>
<g id="a_node36"><a xlink:title=" ">
<polygon fill="none" stroke="#bfbfbf" points="2485.5,-330 2485.5,-349 2525.5,-349 2525.5,-330 2485.5,-330"/>
<text text-anchor="middle" x="2505.5" y="-337" font-family="Helvetica,sans-Serif" font-size="10.00">lac.h</text>
</a>
</g>
</g>
<!-- Node1&#45;&gt;Node36 -->
<g id="edge65" class="edge">
<title>Node1&#45;&gt;Node36</title>
<path fill="none" stroke="midnightblue" d="M2315.1,-395.47C2360.1,-387.11 2422.58,-373.57 2475.5,-355 2477.11,-354.43 2478.75,-353.81 2480.4,-353.14"/>
<polygon fill="midnightblue" stroke="midnightblue" points="2481.9,-356.3 2489.59,-349.01 2479.04,-349.91 2481.9,-356.3"/>
</g>
<!-- Node37 -->
<g id="node37" class="node">
<title>Node37</title>
<g id="a_node37"><a xlink:href="enum_8h.html" target="_top" xlink:title=" ">
<polygon fill="none" stroke="black" points="2544,-330 2544,-349 2663,-349 2663,-330 2544,-330"/>
<text text-anchor="middle" x="2603.5" y="-337" font-family="Helvetica,sans-Serif" font-size="10.00">parsed_tools/enum.h</text>
</a>
</g>
</g>
<!-- Node1&#45;&gt;Node37 -->
<g id="edge66" class="edge">
<title>Node1&#45;&gt;Node37</title>
<path fill="none" stroke="midnightblue" d="M2315.22,-395.07C2372,-385.19 2459.11,-369.72 2534.5,-355 2540.73,-353.78 2547.26,-352.47 2553.73,-351.14"/>
<polygon fill="midnightblue" stroke="midnightblue" points="2554.69,-354.51 2563.77,-349.05 2553.27,-347.66 2554.69,-354.51"/>
</g>
<!-- Node3 -->
<g id="node3" class="node">
<title>Node3</title>
<g id="a_node3"><a xlink:href="http://www.dealii.org/developer/doxygen/deal.II/config_8h.html.html" xlink:title=" ">
<polygon fill="none" stroke="black" points="1873,-129 1873,-148 1988,-148 1988,-129 1873,-129"/>
<text text-anchor="middle" x="1930.5" y="-136" font-family="Helvetica,sans-Serif" font-size="10.00">deal.II/base/config.h</text>
</a>
</g>
</g>
<!-- Node2&#45;&gt;Node3 -->
<g id="edge2" class="edge">
<title>Node2&#45;&gt;Node3</title>
<path fill="none" stroke="midnightblue" d="M1861.17,-325.35C1901.22,-316.69 1944.55,-303.99 1956.5,-288 1985.92,-248.63 1958.19,-187.12 1941.33,-157.13"/>
<polygon fill="midnightblue" stroke="midnightblue" points="1944.19,-155.11 1936.12,-148.25 1938.15,-158.64 1944.19,-155.11"/>
</g>
<!-- Node4 -->
<g id="node4" class="node">
<title>Node4</title>
<g id="a_node4"><a xlink:href="http://www.dealii.org/developer/doxygen/deal.II/general__data__storage_8h.html.html" xlink:title=" ">
<polygon fill="none" stroke="black" points="1813.5,-257.5 1813.5,-287.5 1947.5,-287.5 1947.5,-257.5 1813.5,-257.5"/>
<text text-anchor="start" x="1821.5" y="-275.5" font-family="Helvetica,sans-Serif" font-size="10.00">deal.II/algorithms</text>
<text text-anchor="middle" x="1880.5" y="-264.5" font-family="Helvetica,sans-Serif" font-size="10.00">/general_data_storage.h</text>
</a>
</g>
</g>
<!-- Node2&#45;&gt;Node4 -->
<g id="edge3" class="edge">
<title>Node2&#45;&gt;Node4</title>
<path fill="none" stroke="midnightblue" d="M1806.11,-324.4C1819.43,-315.28 1836.96,-303.29 1851.66,-293.24"/>
<polygon fill="midnightblue" stroke="midnightblue" points="1853.65,-296.11 1859.93,-287.58 1849.7,-290.33 1853.65,-296.11"/>
</g>
<!-- Node5 -->
<g id="node5" class="node">
<title>Node5</title>
<g id="a_node5"><a xlink:href="http://www.dealii.org/developer/doxygen/deal.II/parameter__acceptor_8h.html.html" xlink:title=" ">
<polygon fill="none" stroke="black" points="1340,-0.5 1340,-30.5 1467,-30.5 1467,-0.5 1340,-0.5"/>
<text text-anchor="start" x="1348" y="-18.5" font-family="Helvetica,sans-Serif" font-size="10.00">deal.II/base/parameter</text>
<text text-anchor="middle" x="1403.5" y="-7.5" font-family="Helvetica,sans-Serif" font-size="10.00">_acceptor.h</text>
</a>
</g>
</g>
<!-- Node2&#45;&gt;Node5 -->
<g id="edge4" class="edge">
<title>Node2&#45;&gt;Node5</title>
<path fill="none" stroke="midnightblue" d="M1709.74,-336.64C1618.9,-332.92 1473.71,-321.71 1432.5,-288 1402.74,-263.66 1403.5,-244.95 1403.5,-206.5 1403.5,-206.5 1403.5,-206.5 1403.5,-137.5 1403.5,-103.98 1403.5,-65.24 1403.5,-40.81"/>
<polygon fill="midnightblue" stroke="midnightblue" points="1407,-40.66 1403.5,-30.66 1400,-40.66 1407,-40.66"/>
</g>
<!-- Node6 -->
<g id="node6" class="node">
<title>Node6</title>
<g id="a_node6"><a xlink:href="http://www.dealii.org/developer/doxygen/deal.II/include_2deal_8II_2base_2quadrature_8h.html.html" xlink:title=" ">
<polygon fill="none" stroke="black" points="2006.5,-129 2006.5,-148 2144.5,-148 2144.5,-129 2006.5,-129"/>
<text text-anchor="middle" x="2075.5" y="-136" font-family="Helvetica,sans-Serif" font-size="10.00">deal.II/base/quadrature.h</text>
</a>
</g>
</g>
<!-- Node2&#45;&gt;Node6 -->
<g id="edge5" class="edge">
<title>Node2&#45;&gt;Node6</title>
<path fill="none" stroke="midnightblue" d="M1861.1,-331.46C1898.87,-324.92 1943.61,-312.31 1977.5,-288 2024.87,-254.01 2055.66,-189.42 2068.57,-157.83"/>
<polygon fill="midnightblue" stroke="midnightblue" points="2071.98,-158.72 2072.39,-148.13 2065.47,-156.15 2071.98,-158.72"/>
</g>
<!-- Node7 -->
<g id="node7" class="node">
<title>Node7</title>
<g id="a_node7"><a xlink:href="http://www.dealii.org/developer/doxygen/deal.II/dof__handler_8h.html.html" xlink:title=" ">
<polygon fill="none" stroke="black" points="1431.5,-129 1431.5,-148 1571.5,-148 1571.5,-129 1431.5,-129"/>
<text text-anchor="middle" x="1501.5" y="-136" font-family="Helvetica,sans-Serif" font-size="10.00">deal.II/dofs/dof_handler.h</text>
</a>
</g>
</g>
<!-- Node2&#45;&gt;Node7 -->
<g id="edge6" class="edge">
<title>Node2&#45;&gt;Node7</title>
<path fill="none" stroke="midnightblue" d="M1709.81,-327.16C1678.02,-319.75 1641.91,-307.65 1613.5,-288 1563.15,-253.18 1525.96,-188.5 1510.04,-157.27"/>
<polygon fill="midnightblue" stroke="midnightblue" points="1513.05,-155.46 1505.47,-148.06 1506.78,-158.57 1513.05,-155.46"/>
</g>
<!-- Node10 -->
<g id="node10" class="node">
<title>Node10</title>
<g id="a_node10"><a xlink:href="http://www.dealii.org/developer/doxygen/deal.II/grid__tools_8h.html.html" xlink:title=" ">
<polygon fill="none" stroke="black" points="1589.5,-129 1589.5,-148 1717.5,-148 1717.5,-129 1589.5,-129"/>
<text text-anchor="middle" x="1653.5" y="-136" font-family="Helvetica,sans-Serif" font-size="10.00">deal.II/grid/grid_tools.h</text>
</a>
</g>
</g>
<!-- Node2&#45;&gt;Node10 -->
<g id="edge10" class="edge">
<title>Node2&#45;&gt;Node10</title>
<path fill="none" stroke="midnightblue" d="M1709.88,-333.06C1679.51,-326.71 1647.3,-313.8 1628.5,-288 1599.59,-248.33 1626.54,-186.96 1642.96,-157.07"/>
<polygon fill="midnightblue" stroke="midnightblue" points="1646.1,-158.63 1648.03,-148.21 1640.02,-155.15 1646.1,-158.63"/>
</g>
<!-- Node11 -->
<g id="node11" class="node">
<title>Node11</title>
<g id="a_node11"><a xlink:href="http://www.dealii.org/developer/doxygen/deal.II/grid__tools__cache_8h.html.html" xlink:title=" ">
<polygon fill="none" stroke="black" points="1736,-123.5 1736,-153.5 1855,-153.5 1855,-123.5 1736,-123.5"/>
<text text-anchor="start" x="1744" y="-141.5" font-family="Helvetica,sans-Serif" font-size="10.00">deal.II/grid/grid_tools</text>
<text text-anchor="middle" x="1795.5" y="-130.5" font-family="Helvetica,sans-Serif" font-size="10.00">_cache.h</text>
</a>
</g>
</g>
<!-- Node2&#45;&gt;Node11 -->
<g id="edge11" class="edge">
<title>Node2&#45;&gt;Node11</title>
<path fill="none" stroke="midnightblue" d="M1786.22,-324.19C1787.91,-290.48 1792.17,-205.8 1794.28,-163.84"/>
<polygon fill="midnightblue" stroke="midnightblue" points="1797.78,-163.85 1794.79,-153.68 1790.79,-163.49 1797.78,-163.85"/>
</g>
<!-- Node12 -->
<g id="node12" class="node">
<title>Node12</title>
<g id="a_node12"><a xlink:href="http://www.dealii.org/developer/doxygen/deal.II/linear__operator__tools_8h.html.html" xlink:title=" ">
<polygon fill="none" stroke="black" points="1442,-257.5 1442,-287.5 1543,-287.5 1543,-257.5 1442,-257.5"/>
<text text-anchor="start" x="1450" y="-275.5" font-family="Helvetica,sans-Serif" font-size="10.00">deal.II/lac/linear</text>
<text text-anchor="middle" x="1492.5" y="-264.5" font-family="Helvetica,sans-Serif" font-size="10.00">_operator_tools.h</text>
</a>
</g>
</g>
<!-- Node2&#45;&gt;Node12 -->
<g id="edge12" class="edge">
<title>Node2&#45;&gt;Node12</title>
<path fill="none" stroke="midnightblue" d="M1722.1,-324.48C1676.35,-314.36 1613.11,-300.36 1557.5,-288 1556.05,-287.68 1554.59,-287.35 1553.11,-287.02"/>
<polygon fill="midnightblue" stroke="midnightblue" points="1553.76,-283.58 1543.24,-284.83 1552.24,-290.42 1553.76,-283.58"/>
</g>
<!-- Node13 -->
<g id="node13" class="node">
<title>Node13</title>
<g id="a_node13"><a xlink:href="http://www.dealii.org/developer/doxygen/deal.II/coupling_8h.html.html" xlink:title=" ">
<polygon fill="none" stroke="black" points="1638,-257.5 1638,-287.5 1757,-287.5 1757,-257.5 1638,-257.5"/>
<text text-anchor="start" x="1646" y="-275.5" font-family="Helvetica,sans-Serif" font-size="10.00">deal.II/non_matching</text>
<text text-anchor="middle" x="1697.5" y="-264.5" font-family="Helvetica,sans-Serif" font-size="10.00">/coupling.h</text>
</a>
</g>
</g>
<!-- Node2&#45;&gt;Node13 -->
<g id="edge13" class="edge">
<title>Node2&#45;&gt;Node13</title>
<path fill="none" stroke="midnightblue" d="M1766.41,-324.4C1754.18,-315.37 1738.13,-303.51 1724.6,-293.52"/>
<polygon fill="midnightblue" stroke="midnightblue" points="1726.68,-290.7 1716.56,-287.58 1722.52,-296.33 1726.68,-290.7"/>
</g>
<!-- Node2&#45;&gt;Node14 -->
<g id="edge14" class="edge">
<title>Node2&#45;&gt;Node14</title>
<path fill="none" stroke="midnightblue" d="M1861.43,-325.81C1924.1,-315.34 2013.33,-300.43 2080.51,-289.21"/>
<polygon fill="midnightblue" stroke="midnightblue" points="2081.39,-292.61 2090.67,-287.51 2080.23,-285.7 2081.39,-292.61"/>
</g>
<!-- Node2&#45;&gt;Node22 -->
<g id="edge40" class="edge">
<title>Node2&#45;&gt;Node22</title>
<path fill="none" stroke="midnightblue" d="M1861.07,-337.7C1980.92,-335.29 2208.18,-325.73 2278.5,-288 2305.44,-273.55 2325.73,-243.3 2336.59,-223.99"/>
<polygon fill="midnightblue" stroke="midnightblue" points="2339.75,-225.5 2341.4,-215.04 2333.59,-222.19 2339.75,-225.5"/>
</g>
<!-- Node2&#45;&gt;Node23 -->
<g id="edge41" class="edge">
<title>Node2&#45;&gt;Node23</title>
<path fill="none" stroke="midnightblue" d="M1709.68,-336.93C1628.66,-333.4 1497.31,-322.32 1389.5,-288 1343.76,-273.44 1295.62,-245.39 1265.83,-226.3"/>
<polygon fill="midnightblue" stroke="midnightblue" points="1267.49,-223.21 1257.2,-220.7 1263.68,-229.08 1267.49,-223.21"/>
</g>
<!-- Node8 -->
<g id="node8" class="node">
<title>Node8</title>
<g id="a_node8"><a xlink:href="function_8h.html" target="_top" xlink:title=" ">
<polygon fill="none" stroke="black" points="1460,-67.5 1460,-86.5 1585,-86.5 1585,-67.5 1460,-67.5"/>
<text text-anchor="middle" x="1522.5" y="-74.5" font-family="Helvetica,sans-Serif" font-size="10.00">deal.II/base/function.h</text>
</a>
</g>
</g>
<!-- Node7&#45;&gt;Node8 -->
<g id="edge7" class="edge">
<title>Node7&#45;&gt;Node8</title>
<path fill="none" stroke="midnightblue" d="M1504.51,-128.98C1507.53,-120.4 1512.29,-106.93 1516.15,-95.98"/>
<polygon fill="midnightblue" stroke="midnightblue" points="1519.47,-97.1 1519.5,-86.51 1512.87,-94.77 1519.47,-97.1"/>
</g>
<!-- Node8&#45;&gt;Node5 -->
<g id="edge9" class="edge">
<title>Node8&#45;&gt;Node5</title>
<path fill="none" stroke="midnightblue" d="M1505.45,-67.48C1488.58,-59.04 1462.21,-45.86 1440.52,-35.01"/>
<polygon fill="midnightblue" stroke="midnightblue" points="1442.06,-31.86 1431.55,-30.52 1438.92,-38.13 1442.06,-31.86"/>
</g>
<!-- Node9 -->
<g id="node9" class="node">
<title>Node9</title>
<g id="a_node9"><a xlink:href="http://www.dealii.org/developer/doxygen/deal.II/function__parser_8h.html.html" xlink:title=" ">
<polygon fill="none" stroke="black" points="1485.5,-0.5 1485.5,-30.5 1601.5,-30.5 1601.5,-0.5 1485.5,-0.5"/>
<text text-anchor="start" x="1493.5" y="-18.5" font-family="Helvetica,sans-Serif" font-size="10.00">deal.II/base/function</text>
<text text-anchor="middle" x="1543.5" y="-7.5" font-family="Helvetica,sans-Serif" font-size="10.00">_parser.h</text>
</a>
</g>
</g>
<!-- Node8&#45;&gt;Node9 -->
<g id="edge8" class="edge">
<title>Node8&#45;&gt;Node9</title>
<path fill="none" stroke="midnightblue" d="M1525.51,-67.48C1528.03,-60.32 1531.77,-49.75 1535.18,-40.08"/>
<polygon fill="midnightblue" stroke="midnightblue" points="1538.52,-41.12 1538.55,-30.52 1531.92,-38.79 1538.52,-41.12"/>
</g>
<!-- Node14&#45;&gt;Node3 -->
<g id="edge15" class="edge">
<title>Node14&#45;&gt;Node3</title>
<path fill="none" stroke="midnightblue" d="M2149.64,-257.46C2120.5,-241.05 2070.68,-213.21 2027.5,-190 2003.5,-177.1 1975.92,-162.79 1956.32,-152.71"/>
<polygon fill="midnightblue" stroke="midnightblue" points="1957.89,-149.58 1947.39,-148.12 1954.69,-155.81 1957.89,-149.58"/>
</g>
<!-- Node14&#45;&gt;Node6 -->
<g id="edge18" class="edge">
<title>Node14&#45;&gt;Node6</title>
<path fill="none" stroke="midnightblue" d="M2163.91,-257.37C2145.52,-232.86 2107.8,-182.56 2088.1,-156.3"/>
<polygon fill="midnightblue" stroke="midnightblue" points="2090.75,-154 2081.95,-148.1 2085.15,-158.2 2090.75,-154"/>
</g>
<!-- Node14&#45;&gt;Node7 -->
<g id="edge19" class="edge">
<title>Node14&#45;&gt;Node7</title>
<path fill="none" stroke="midnightblue" d="M2079.16,-260.32C2008.97,-251.44 1911.4,-237.76 1826.5,-221 1722.65,-200.5 1602.22,-167.96 1541.26,-150.86"/>
<polygon fill="midnightblue" stroke="midnightblue" points="1541.87,-147.4 1531.29,-148.05 1539.97,-154.13 1541.87,-147.4"/>
</g>
<!-- Node14&#45;&gt;Node10 -->
<g id="edge22" class="edge">
<title>Node14&#45;&gt;Node10</title>
<path fill="none" stroke="midnightblue" d="M2104.4,-257.49C2058,-247.93 1995.91,-234.58 1941.5,-221 1851.08,-198.43 1746.01,-167.49 1691.19,-150.98"/>
<polygon fill="midnightblue" stroke="midnightblue" points="1692.14,-147.61 1681.55,-148.07 1690.11,-154.31 1692.14,-147.61"/>
</g>
<!-- Node14&#45;&gt;Node11 -->
<g id="edge23" class="edge">
<title>Node14&#45;&gt;Node11</title>
<path fill="none" stroke="midnightblue" d="M2133.29,-257.43C2103.8,-247.34 2063.19,-233.4 2027.5,-221 1964.44,-199.09 1891.85,-173.54 1844.91,-156.97"/>
<polygon fill="midnightblue" stroke="midnightblue" points="1845.89,-153.6 1835.29,-153.57 1843.56,-160.2 1845.89,-153.6"/>
</g>
<!-- Node15 -->
<g id="node15" class="node">
<title>Node15</title>
<g id="a_node15"><a xlink:href="http://www.dealii.org/developer/doxygen/deal.II/function__lib_8h.html.html" xlink:title=" ">
<polygon fill="none" stroke="black" points="2162.5,-123.5 2162.5,-153.5 2278.5,-153.5 2278.5,-123.5 2162.5,-123.5"/>
<text text-anchor="start" x="2170.5" y="-141.5" font-family="Helvetica,sans-Serif" font-size="10.00">deal.II/base/function</text>
<text text-anchor="middle" x="2220.5" y="-130.5" font-family="Helvetica,sans-Serif" font-size="10.00">_lib.h</text>
</a>
</g>
</g>
<!-- Node14&#45;&gt;Node15 -->
<g id="edge16" class="edge">
<title>Node14&#45;&gt;Node15</title>
<path fill="none" stroke="midnightblue" d="M2177.49,-257.42C2181.16,-240.98 2187.97,-213.1 2196.5,-190 2199.83,-180.97 2204.19,-171.35 2208.27,-162.96"/>
<polygon fill="midnightblue" stroke="midnightblue" points="2211.52,-164.3 2212.86,-153.79 2205.26,-161.16 2211.52,-164.3"/>
</g>
<!-- Node16 -->
<g id="node16" class="node">
<title>Node16</title>
<g id="a_node16"><a xlink:href="http://www.dealii.org/developer/doxygen/deal.II/mapping_8h.html.html" xlink:title=" ">
<polygon fill="none" stroke="black" points="2446.5,-129 2446.5,-148 2560.5,-148 2560.5,-129 2446.5,-129"/>
<text text-anchor="middle" x="2503.5" y="-136" font-family="Helvetica,sans-Serif" font-size="10.00">deal.II/fe/mapping.h</text>
</a>
</g>
</g>
<!-- Node14&#45;&gt;Node16 -->
<g id="edge20" class="edge">
<title>Node14&#45;&gt;Node16</title>
<path fill="none" stroke="midnightblue" d="M2191.78,-257.38C2203.88,-247.38 2220.36,-233.58 2234.5,-221 2249.54,-207.63 2249.67,-199.33 2267.5,-190 2335.55,-154.4 2361.41,-170.12 2436.5,-154 2442.24,-152.77 2448.26,-151.47 2454.23,-150.18"/>
<polygon fill="midnightblue" stroke="midnightblue" points="2455.14,-153.57 2464.18,-148.03 2453.67,-146.72 2455.14,-153.57"/>
</g>
<!-- Node17 -->
<g id="node17" class="node">
<title>Node17</title>
<g id="a_node17"><a xlink:href="http://www.dealii.org/developer/doxygen/deal.II/mapping__q1_8h.html.html" xlink:title=" ">
<polygon fill="none" stroke="black" points="2297,-129 2297,-148 2428,-148 2428,-129 2297,-129"/>
<text text-anchor="middle" x="2362.5" y="-136" font-family="Helvetica,sans-Serif" font-size="10.00">deal.II/fe/mapping_q1.h</text>
</a>
</g>
</g>
<!-- Node14&#45;&gt;Node17 -->
<g id="edge21" class="edge">
<title>Node14&#45;&gt;Node17</title>
<path fill="none" stroke="midnightblue" d="M2181.74,-257.2C2191.48,-239.24 2210.41,-208.54 2234.5,-190 2258.59,-171.46 2290.35,-158.87 2316.21,-150.9"/>
<polygon fill="midnightblue" stroke="midnightblue" points="2317.21,-154.26 2325.81,-148.07 2315.23,-147.55 2317.21,-154.26"/>
</g>
<!-- Node18 -->
<g id="node18" class="node">
<title>Node18</title>
<g id="a_node18"><a xlink:href="http://www.dealii.org/developer/doxygen/deal.II/grid_2tria_8h.html.html" xlink:title=" ">
<polygon fill="none" stroke="black" points="2579,-129 2579,-148 2676,-148 2676,-129 2579,-129"/>
<text text-anchor="middle" x="2627.5" y="-136" font-family="Helvetica,sans-Serif" font-size="10.00">deal.II/grid/tria.h</text>
</a>
</g>
</g>
<!-- Node14&#45;&gt;Node18 -->
<g id="edge24" class="edge">
<title>Node14&#45;&gt;Node18</title>
<path fill="none" stroke="midnightblue" d="M2262.66,-257.48C2310.47,-248.9 2370.28,-236.56 2422.5,-221 2487.53,-201.62 2560.73,-170.03 2599.65,-152.41"/>
<polygon fill="midnightblue" stroke="midnightblue" points="2601.59,-155.38 2609.24,-148.04 2598.68,-149.01 2601.59,-155.38"/>
</g>
<!-- Node19 -->
<g id="node19" class="node">
<title>Node19</title>
<g id="a_node19"><a xlink:title=" ">
<polygon fill="none" stroke="#bfbfbf" points="2694.5,-129 2694.5,-148 2726.5,-148 2726.5,-129 2694.5,-129"/>
<text text-anchor="middle" x="2710.5" y="-136" font-family="Helvetica,sans-Serif" font-size="10.00">set</text>
</a>
</g>
</g>
<!-- Node14&#45;&gt;Node19 -->
<g id="edge25" class="edge">
<title>Node14&#45;&gt;Node19</title>
<path fill="none" stroke="midnightblue" d="M2269.7,-259.49C2330.24,-250.94 2410.02,-237.95 2479.5,-221 2573.03,-198.18 2597.59,-193.26 2685.5,-154 2686.34,-153.62 2687.19,-153.23 2688.04,-152.81"/>
<polygon fill="midnightblue" stroke="midnightblue" points="2689.85,-155.82 2697.02,-148.01 2686.55,-149.64 2689.85,-155.82"/>
</g>
<!-- Node20 -->
<g id="node20" class="node">
<title>Node20</title>
<g id="a_node20"><a xlink:title=" ">
<polygon fill="none" stroke="#bfbfbf" points="2745,-129 2745,-148 2786,-148 2786,-129 2745,-129"/>
<text text-anchor="middle" x="2765.5" y="-136" font-family="Helvetica,sans-Serif" font-size="10.00">tuple</text>
</a>
</g>
</g>
<!-- Node14&#45;&gt;Node20 -->
<g id="edge26" class="edge">
<title>Node14&#45;&gt;Node20</title>
<path fill="none" stroke="midnightblue" d="M2269.68,-264.48C2346.55,-257.44 2457.08,-244.23 2551.5,-221 2636.01,-200.21 2655.33,-187.87 2735.5,-154 2736.7,-153.49 2737.92,-152.96 2739.15,-152.42"/>
<polygon fill="midnightblue" stroke="midnightblue" points="2740.9,-155.46 2748.5,-148.08 2737.96,-149.11 2740.9,-155.46"/>
</g>
<!-- Node21 -->
<g id="node21" class="node">
<title>Node21</title>
<g id="a_node21"><a xlink:title=" ">
<polygon fill="none" stroke="#bfbfbf" points="2804,-129 2804,-148 2851,-148 2851,-129 2804,-129"/>
<text text-anchor="middle" x="2827.5" y="-136" font-family="Helvetica,sans-Serif" font-size="10.00">vector</text>
</a>
</g>
</g>
<!-- Node14&#45;&gt;Node21 -->
<g id="edge27" class="edge">
<title>Node14&#45;&gt;Node21</title>
<path fill="none" stroke="midnightblue" d="M2269.55,-263.28C2378.78,-253.37 2551.12,-236.14 2614.5,-221 2683.73,-204.47 2760.76,-170.97 2800.5,-152.48"/>
<polygon fill="midnightblue" stroke="midnightblue" points="2802.21,-155.54 2809.77,-148.12 2799.23,-149.21 2802.21,-155.54"/>
</g>
<!-- Node14&#45;&gt;Node22 -->
<g id="edge28" class="edge">
<title>Node14&#45;&gt;Node22</title>
<path fill="none" stroke="midnightblue" d="M2211.6,-257.4C2242.01,-245.84 2284.58,-229.66 2313.5,-218.66"/>
<polygon fill="midnightblue" stroke="midnightblue" points="2315.02,-221.83 2323.12,-215.01 2312.53,-215.29 2315.02,-221.83"/>
</g>
<!-- Node15&#45;&gt;Node8 -->
<g id="edge17" class="edge">
<title>Node15&#45;&gt;Node8</title>
<path fill="none" stroke="midnightblue" d="M2162.49,-124.42C2159.45,-123.9 2156.45,-123.42 2153.5,-123 1952.72,-94.26 1713.25,-83.57 1595.39,-79.84"/>
<polygon fill="midnightblue" stroke="midnightblue" points="1595.16,-76.33 1585.06,-79.52 1594.95,-83.33 1595.16,-76.33"/>
</g>
<!-- Node22&#45;&gt;Node3 -->
<g id="edge29" class="edge">
<title>Node22&#45;&gt;Node3</title>
<path fill="none" stroke="midnightblue" d="M2276.93,-195.97C2206.58,-186.89 2094.08,-171.44 1997.5,-154 1991.12,-152.85 1984.42,-151.53 1977.83,-150.17"/>
<polygon fill="midnightblue" stroke="midnightblue" points="1978.13,-146.65 1967.62,-148.01 1976.68,-153.5 1978.13,-146.65"/>
</g>
<!-- Node22&#45;&gt;Node6 -->
<g id="edge31" class="edge">
<title>Node22&#45;&gt;Node6</title>
<path fill="none" stroke="midnightblue" d="M2309.92,-195.94C2261.36,-184.24 2174.28,-163.28 2121.01,-150.46"/>
<polygon fill="midnightblue" stroke="midnightblue" points="2121.7,-147.02 2111.15,-148.08 2120.06,-153.83 2121.7,-147.02"/>
</g>
<!-- Node22&#45;&gt;Node10 -->
<g id="edge34" class="edge">
<title>Node22&#45;&gt;Node10</title>
<path fill="none" stroke="midnightblue" d="M2276.98,-201.48C2162.52,-195.86 1925.39,-181.77 1726.5,-154 1718.49,-152.88 1710.04,-151.44 1701.84,-149.91"/>
<polygon fill="midnightblue" stroke="midnightblue" points="1702.49,-146.47 1692,-148.01 1701.16,-153.34 1702.49,-146.47"/>
</g>
<!-- Node22&#45;&gt;Node11 -->
<g id="edge35" class="edge">
<title>Node22&#45;&gt;Node11</title>
<path fill="none" stroke="midnightblue" d="M2276.96,-199.61C2185.24,-192.56 2017.37,-177.87 1865.14,-154.16"/>
<polygon fill="midnightblue" stroke="midnightblue" points="1865.56,-150.69 1855.14,-152.59 1864.47,-157.6 1865.56,-150.69"/>
</g>
<!-- Node22&#45;&gt;Node15 -->
<g id="edge30" class="edge">
<title>Node22&#45;&gt;Node15</title>
<path fill="none" stroke="midnightblue" d="M2328.9,-195.87C2310.61,-186.36 2280.63,-170.77 2256.82,-158.39"/>
<polygon fill="midnightblue" stroke="midnightblue" points="2258.2,-155.16 2247.71,-153.65 2254.97,-161.37 2258.2,-155.16"/>
</g>
<!-- Node22&#45;&gt;Node16 -->
<g id="edge32" class="edge">
<title>Node22&#45;&gt;Node16</title>
<path fill="none" stroke="midnightblue" d="M2366.48,-195.87C2393.75,-184.65 2441.57,-164.98 2472.89,-152.09"/>
<polygon fill="midnightblue" stroke="midnightblue" points="2474.52,-155.21 2482.43,-148.17 2471.85,-148.74 2474.52,-155.21"/>
</g>
<!-- Node22&#45;&gt;Node17 -->
<g id="edge33" class="edge">
<title>Node22&#45;&gt;Node17</title>
<path fill="none" stroke="midnightblue" d="M2347.79,-195.73C2350.32,-186.09 2354.44,-170.3 2357.69,-157.91"/>
<polygon fill="midnightblue" stroke="midnightblue" points="2361.1,-158.69 2360.24,-148.13 2354.33,-156.92 2361.1,-158.69"/>
</g>
<!-- Node22&#45;&gt;Node18 -->
<g id="edge36" class="edge">
<title>Node22&#45;&gt;Node18</title>
<path fill="none" stroke="midnightblue" d="M2384.81,-195.93C2429.59,-186.09 2504.92,-169.35 2569.5,-154 2574.18,-152.89 2579.06,-151.7 2583.92,-150.51"/>
<polygon fill="midnightblue" stroke="midnightblue" points="2584.93,-153.87 2593.8,-148.07 2583.25,-147.07 2584.93,-153.87"/>
</g>
<!-- Node22&#45;&gt;Node19 -->
<g id="edge37" class="edge">
<title>Node22&#45;&gt;Node19</title>
<path fill="none" stroke="midnightblue" d="M2414.07,-201.88C2484.06,-197.48 2594.95,-185.68 2685.5,-154 2686.57,-153.63 2687.64,-153.21 2688.7,-152.75"/>
<polygon fill="midnightblue" stroke="midnightblue" points="2690.67,-155.68 2697.97,-148 2687.48,-149.45 2690.67,-155.68"/>
</g>
<!-- Node22&#45;&gt;Node20 -->
<g id="edge38" class="edge">
<title>Node22&#45;&gt;Node20</title>
<path fill="none" stroke="midnightblue" d="M2414.16,-202.25C2493.16,-198.16 2626.06,-186.6 2735.5,-154 2737.37,-153.44 2739.27,-152.78 2741.16,-152.05"/>
<polygon fill="midnightblue" stroke="midnightblue" points="2742.58,-155.25 2750.31,-148.01 2739.75,-148.85 2742.58,-155.25"/>
</g>
<!-- Node22&#45;&gt;Node21 -->
<g id="edge39" class="edge">
<title>Node22&#45;&gt;Node21</title>
<path fill="none" stroke="midnightblue" d="M2414.22,-203.44C2503.58,-200.56 2663.8,-190.25 2795.5,-154 2797.65,-153.41 2799.84,-152.69 2802.01,-151.89"/>
<polygon fill="midnightblue" stroke="midnightblue" points="2803.37,-155.12 2811.26,-148.05 2800.68,-148.65 2803.37,-155.12"/>
</g>
<!-- Node23&#45;&gt;Node3 -->
<g id="edge42" class="edge">
<title>Node23&#45;&gt;Node3</title>
<path fill="none" stroke="midnightblue" d="M1333.09,-200.7C1456.61,-194.94 1676.87,-181.59 1863.5,-154 1870.46,-152.97 1877.78,-151.64 1884.92,-150.21"/>
<polygon fill="midnightblue" stroke="midnightblue" points="1886.12,-153.54 1895.19,-148.06 1884.69,-146.68 1886.12,-153.54"/>
</g>
<!-- Node23&#45;&gt;Node6 -->
<g id="edge45" class="edge">
<title>Node23&#45;&gt;Node6</title>
<path fill="none" stroke="midnightblue" d="M1333.12,-201.64C1477.8,-196.56 1759.15,-183.57 1996.5,-154 2005.54,-152.87 2015.12,-151.38 2024.37,-149.77"/>
<polygon fill="midnightblue" stroke="midnightblue" points="2025,-153.21 2034.23,-148 2023.77,-146.32 2025,-153.21"/>
</g>
<!-- Node23&#45;&gt;Node7 -->
<g id="edge48" class="edge">
<title>Node23&#45;&gt;Node7</title>
<path fill="none" stroke="midnightblue" d="M1293.67,-190.48C1342.62,-178.47 1412.1,-161.43 1456.99,-150.42"/>
<polygon fill="midnightblue" stroke="midnightblue" points="1457.85,-153.81 1466.73,-148.03 1456.18,-147.01 1457.85,-153.81"/>
</g>
<!-- Node23&#45;&gt;Node10 -->
<g id="edge54" class="edge">
<title>Node23&#45;&gt;Node10</title>
<path fill="none" stroke="midnightblue" d="M1333.09,-191.64C1402.15,-182.13 1497.22,-168.37 1580.5,-154 1587.59,-152.78 1595.05,-151.4 1602.38,-149.99"/>
<polygon fill="midnightblue" stroke="midnightblue" points="1603.11,-153.42 1612.26,-148.07 1601.77,-146.55 1603.11,-153.42"/>
</g>
<!-- Node23&#45;&gt;Node11 -->
<g id="edge55" class="edge">
<title>Node23&#45;&gt;Node11</title>
<path fill="none" stroke="midnightblue" d="M1333.11,-197.54C1429.9,-189.88 1583.28,-175.89 1725.51,-154.04"/>
<polygon fill="midnightblue" stroke="midnightblue" points="1726.39,-157.45 1735.73,-152.46 1725.31,-150.53 1726.39,-157.45"/>
</g>
<!-- Node23&#45;&gt;Node15 -->
<g id="edge44" class="edge">
<title>Node23&#45;&gt;Node15</title>
<path fill="none" stroke="midnightblue" d="M1333.02,-204.19C1498.79,-202.55 1848.28,-194.28 2152.16,-154.02"/>
<polygon fill="midnightblue" stroke="midnightblue" points="2153.05,-157.44 2162.49,-152.64 2152.12,-150.5 2153.05,-157.44"/>
</g>
<!-- Node23&#45;&gt;Node17 -->
<g id="edge53" class="edge">
<title>Node23&#45;&gt;Node17</title>
<path fill="none" stroke="midnightblue" d="M1333.25,-204.46C1518.93,-203.37 1937.9,-195.97 2287.5,-154 2296.21,-152.95 2305.42,-151.48 2314.29,-149.87"/>
<polygon fill="midnightblue" stroke="midnightblue" points="2314.95,-153.31 2324.13,-148.01 2313.65,-146.43 2314.95,-153.31"/>
</g>
<!-- Node24 -->
<g id="node24" class="node">
<title>Node24</title>
<g id="a_node24"><a xlink:href="http://www.dealii.org/developer/doxygen/deal.II/include_2deal_8II_2base_2exceptions_8h.html.html" xlink:title=" ">
<polygon fill="none" stroke="black" points="622.5,-129 622.5,-148 760.5,-148 760.5,-129 622.5,-129"/>
<text text-anchor="middle" x="691.5" y="-136" font-family="Helvetica,sans-Serif" font-size="10.00">deal.II/base/exceptions.h</text>
</a>
</g>
</g>
<!-- Node23&#45;&gt;Node24 -->
<g id="edge43" class="edge">
<title>Node23&#45;&gt;Node24</title>
<path fill="none" stroke="midnightblue" d="M1139.63,-196.19C1044.99,-187.56 896.98,-172.71 769.5,-154 761.36,-152.81 752.78,-151.38 744.39,-149.89"/>
<polygon fill="midnightblue" stroke="midnightblue" points="744.78,-146.41 734.31,-148.07 743.53,-153.29 744.78,-146.41"/>
</g>
<!-- Node25 -->
<g id="node25" class="node">
<title>Node25</title>
<g id="a_node25"><a xlink:href="http://www.dealii.org/developer/doxygen/deal.II/shared__tria_8h.html.html" xlink:title=" ">
<polygon fill="none" stroke="black" points="778.5,-123.5 778.5,-153.5 880.5,-153.5 880.5,-123.5 778.5,-123.5"/>
<text text-anchor="start" x="786.5" y="-141.5" font-family="Helvetica,sans-Serif" font-size="10.00">deal.II/distributed</text>
<text text-anchor="middle" x="829.5" y="-130.5" font-family="Helvetica,sans-Serif" font-size="10.00">/shared_tria.h</text>
</a>
</g>
</g>
<!-- Node23&#45;&gt;Node25 -->
<g id="edge46" class="edge">
<title>Node23&#45;&gt;Node25</title>
<path fill="none" stroke="midnightblue" d="M1139.99,-192.89C1072.67,-184.22 980.57,-171.23 890.89,-154.17"/>
<polygon fill="midnightblue" stroke="midnightblue" points="891.3,-150.68 880.82,-152.23 889.98,-157.56 891.3,-150.68"/>
</g>
<!-- Node26 -->
<g id="node26" class="node">
<title>Node26</title>
<g id="a_node26"><a xlink:href="http://www.dealii.org/developer/doxygen/deal.II/distributed_2tria_8h.html.html" xlink:title=" ">
<polygon fill="none" stroke="black" points="898.5,-123.5 898.5,-153.5 1000.5,-153.5 1000.5,-123.5 898.5,-123.5"/>
<text text-anchor="start" x="906.5" y="-141.5" font-family="Helvetica,sans-Serif" font-size="10.00">deal.II/distributed</text>
<text text-anchor="middle" x="949.5" y="-130.5" font-family="Helvetica,sans-Serif" font-size="10.00">/tria.h</text>
</a>
</g>
</g>
<!-- Node23&#45;&gt;Node26 -->
<g id="edge47" class="edge">
<title>Node23&#45;&gt;Node26</title>
<path fill="none" stroke="midnightblue" d="M1171.85,-190.45C1128.79,-181.01 1070.68,-168.13 1010.6,-154.23"/>
<polygon fill="midnightblue" stroke="midnightblue" points="1011.08,-150.75 1000.55,-151.9 1009.5,-157.57 1011.08,-150.75"/>
</g>
<!-- Node27 -->
<g id="node27" class="node">
<title>Node27</title>
<g id="a_node27"><a xlink:href="http://www.dealii.org/developer/doxygen/deal.II/component__mask_8h.html.html" xlink:title=" ">
<polygon fill="none" stroke="black" points="1019,-123.5 1019,-153.5 1136,-153.5 1136,-123.5 1019,-123.5"/>
<text text-anchor="start" x="1027" y="-141.5" font-family="Helvetica,sans-Serif" font-size="10.00">deal.II/fe/component</text>
<text text-anchor="middle" x="1077.5" y="-130.5" font-family="Helvetica,sans-Serif" font-size="10.00">_mask.h</text>
</a>
</g>
</g>
<!-- Node23&#45;&gt;Node27 -->
<g id="edge49" class="edge">
<title>Node23&#45;&gt;Node27</title>
<path fill="none" stroke="midnightblue" d="M1202,-190.4C1178.35,-180.73 1146.78,-167.82 1121.35,-157.43"/>
<polygon fill="midnightblue" stroke="midnightblue" points="1122.51,-154.12 1111.93,-153.58 1119.87,-160.6 1122.51,-154.12"/>
</g>
<!-- Node28 -->
<g id="node28" class="node">
<title>Node28</title>
<g id="a_node28"><a xlink:href="http://www.dealii.org/developer/doxygen/deal.II/include_2deal_8II_2fe_2fe_8h.html.html" xlink:title=" ">
<polygon fill="none" stroke="black" points="1154,-129 1154,-148 1235,-148 1235,-129 1154,-129"/>
<text text-anchor="middle" x="1194.5" y="-136" font-family="Helvetica,sans-Serif" font-size="10.00">deal.II/fe/fe.h</text>
</a>
</g>
</g>
<!-- Node23&#45;&gt;Node28 -->
<g id="edge50" class="edge">
<title>Node23&#45;&gt;Node28</title>
<path fill="none" stroke="midnightblue" d="M1227.39,-190.4C1221.03,-180.56 1212.51,-167.38 1205.74,-156.89"/>
<polygon fill="midnightblue" stroke="midnightblue" points="1208.48,-154.69 1200.12,-148.19 1202.61,-158.49 1208.48,-154.69"/>
</g>
<!-- Node29 -->
<g id="node29" class="node">
<title>Node29</title>
<g id="a_node29"><a xlink:href="http://www.dealii.org/developer/doxygen/deal.II/fe__system_8h.html.html" xlink:title=" ">
<polygon fill="none" stroke="black" points="1253.5,-129 1253.5,-148 1375.5,-148 1375.5,-129 1253.5,-129"/>
<text text-anchor="middle" x="1314.5" y="-136" font-family="Helvetica,sans-Serif" font-size="10.00">deal.II/fe/fe_system.h</text>
</a>
</g>
</g>
<!-- Node23&#45;&gt;Node29 -->
<g id="edge51" class="edge">
<title>Node23&#45;&gt;Node29</title>
<path fill="none" stroke="midnightblue" d="M1253.42,-190.4C1266.07,-179.86 1283.33,-165.48 1296.27,-154.69"/>
<polygon fill="midnightblue" stroke="midnightblue" points="1298.62,-157.29 1304.07,-148.19 1294.14,-151.91 1298.62,-157.29"/>
</g>
<!-- Node30 -->
<g id="node30" class="node">
<title>Node30</title>
<g id="a_node30"><a xlink:href="http://www.dealii.org/developer/doxygen/deal.II/fe_2fe__values_8h.html.html" xlink:title=" ">
<polygon fill="none" stroke="black" points="131,-129 131,-148 250,-148 250,-129 131,-129"/>
<text text-anchor="middle" x="190.5" y="-136" font-family="Helvetica,sans-Serif" font-size="10.00">deal.II/fe/fe_values.h</text>
</a>
</g>
</g>
<!-- Node23&#45;&gt;Node30 -->
<g id="edge52" class="edge">
<title>Node23&#45;&gt;Node30</title>
<path fill="none" stroke="midnightblue" d="M1139.91,-204.57C963.88,-203.58 579.41,-196.23 258.5,-154 250.93,-153 242.94,-151.61 235.22,-150.09"/>
<polygon fill="midnightblue" stroke="midnightblue" points="235.76,-146.62 225.26,-148.02 234.34,-153.48 235.76,-146.62"/>
</g>
<!-- Node31 -->
<g id="node31" class="node">
<title>Node31</title>
<g id="a_node31"><a xlink:href="http://www.dealii.org/developer/doxygen/deal.II/affine__constraints_8h.html.html" xlink:title=" ">
<polygon fill="none" stroke="black" points="268,-123.5 268,-153.5 363,-153.5 363,-123.5 268,-123.5"/>
<text text-anchor="start" x="276" y="-141.5" font-family="Helvetica,sans-Serif" font-size="10.00">deal.II/lac/affine</text>
<text text-anchor="middle" x="315.5" y="-130.5" font-family="Helvetica,sans-Serif" font-size="10.00">_constraints.h</text>
</a>
</g>
</g>
<!-- Node23&#45;&gt;Node31 -->
<g id="edge56" class="edge">
<title>Node23&#45;&gt;Node31</title>
<path fill="none" stroke="midnightblue" d="M1139.85,-204.98C981.17,-204.41 655.65,-197.59 373.06,-154.04"/>
<polygon fill="midnightblue" stroke="midnightblue" points="373.45,-150.56 363.03,-152.48 372.37,-157.48 373.45,-150.56"/>
</g>
<!-- Node32 -->
<g id="node32" class="node">
<title>Node32</title>
<g id="a_node32"><a xlink:href="http://www.dealii.org/developer/doxygen/deal.II/sparse__matrix_8h.html.html" xlink:title=" ">
<polygon fill="none" stroke="black" points="381,-123.5 381,-153.5 480,-153.5 480,-123.5 381,-123.5"/>
<text text-anchor="start" x="389" y="-141.5" font-family="Helvetica,sans-Serif" font-size="10.00">deal.II/lac/sparse</text>
<text text-anchor="middle" x="430.5" y="-130.5" font-family="Helvetica,sans-Serif" font-size="10.00">_matrix.h</text>
</a>
</g>
</g>
<!-- Node23&#45;&gt;Node32 -->
<g id="edge57" class="edge">
<title>Node23&#45;&gt;Node32</title>
<path fill="none" stroke="midnightblue" d="M1139.8,-203.31C998.8,-200.38 728.53,-190.28 490.16,-153.9"/>
<polygon fill="midnightblue" stroke="midnightblue" points="490.69,-150.44 480.27,-152.38 489.62,-157.36 490.69,-150.44"/>
</g>
<!-- Node33 -->
<g id="node33" class="node">
<title>Node33</title>
<g id="a_node33"><a xlink:href="http://www.dealii.org/developer/doxygen/deal.II/sparsity__pattern_8h.html.html" xlink:title=" ">
<polygon fill="none" stroke="black" points="498.5,-123.5 498.5,-153.5 604.5,-153.5 604.5,-123.5 498.5,-123.5"/>
<text text-anchor="start" x="506.5" y="-141.5" font-family="Helvetica,sans-Serif" font-size="10.00">deal.II/lac/sparsity</text>
<text text-anchor="middle" x="551.5" y="-130.5" font-family="Helvetica,sans-Serif" font-size="10.00">_pattern.h</text>
</a>
</g>
</g>
<!-- Node23&#45;&gt;Node33 -->
<g id="edge58" class="edge">
<title>Node23&#45;&gt;Node33</title>
<path fill="none" stroke="midnightblue" d="M1139.92,-201.13C1019.11,-195.91 805.88,-183.39 614.78,-154.05"/>
<polygon fill="midnightblue" stroke="midnightblue" points="615.25,-150.58 604.84,-152.51 614.18,-157.5 615.25,-150.58"/>
</g>
<!-- Node23&#45;&gt;Node34 -->
<g id="edge59" class="edge">
<title>Node23&#45;&gt;Node34</title>
<path fill="none" stroke="midnightblue" d="M1139.71,-202.28C906.23,-196.58 316.94,-180.02 121.5,-154 114.49,-153.07 107.12,-151.75 99.97,-150.29"/>
<polygon fill="midnightblue" stroke="midnightblue" points="100.21,-146.76 89.7,-148.08 98.74,-153.61 100.21,-146.76"/>
</g>
<!-- Node38 -->
<g id="node38" class="node">
<title>Node38</title>
<g id="a_node38"><a xlink:href="http://www.dealii.org/developer/doxygen/deal.II/patterns_8h.html.html" xlink:title=" ">
<polygon fill="none" stroke="black" points="2389,-263 2389,-282 2514,-282 2514,-263 2389,-263"/>
<text text-anchor="middle" x="2451.5" y="-270" font-family="Helvetica,sans-Serif" font-size="10.00">deal.II/base/patterns.h</text>
</a>
</g>
</g>
<!-- Node37&#45;&gt;Node38 -->
<g id="edge67" class="edge">
<title>Node37&#45;&gt;Node38</title>
<path fill="none" stroke="midnightblue" d="M2583.32,-329.87C2557.2,-318.7 2511.47,-299.15 2481.34,-286.26"/>
<polygon fill="midnightblue" stroke="midnightblue" points="2482.34,-282.88 2471.77,-282.17 2479.59,-289.32 2482.34,-282.88"/>
</g>
<!-- Node39 -->
<g id="node39" class="node">
<title>Node39</title>
<g id="a_node39"><a xlink:href="http://www.dealii.org/developer/doxygen/deal.II/sd_8h.html.html" xlink:title=" ">
<polygon fill="none" stroke="black" points="2532,-263 2532,-282 2675,-282 2675,-263 2532,-263"/>
<text text-anchor="middle" x="2603.5" y="-270" font-family="Helvetica,sans-Serif" font-size="10.00">deal.II/differentiation/sd.h</text>
</a>
</g>
</g>
<!-- Node37&#45;&gt;Node39 -->
<g id="edge68" class="edge">
<title>Node37&#45;&gt;Node39</title>
<path fill="none" stroke="midnightblue" d="M2603.5,-329.73C2603.5,-320.18 2603.5,-304.62 2603.5,-292.28"/>
<polygon fill="midnightblue" stroke="midnightblue" points="2607,-292.13 2603.5,-282.13 2600,-292.13 2607,-292.13"/>
</g>
<!-- Node40 -->
<g id="node40" class="node">
<title>Node40</title>
<g id="a_node40"><a xlink:title=" ">
<polygon fill="none" stroke="#bfbfbf" points="2693.5,-257.5 2693.5,-287.5 2805.5,-287.5 2805.5,-257.5 2693.5,-257.5"/>
<text text-anchor="start" x="2701.5" y="-275.5" font-family="Helvetica,sans-Serif" font-size="10.00">parsed_tools/magic</text>
<text text-anchor="middle" x="2749.5" y="-264.5" font-family="Helvetica,sans-Serif" font-size="10.00">_enum.hpp</text>
</a>
</g>
</g>
<!-- Node37&#45;&gt;Node40 -->
<g id="edge69" class="edge">
<title>Node37&#45;&gt;Node40</title>
<path fill="none" stroke="midnightblue" d="M2622.89,-329.87C2644.7,-320.16 2680.75,-304.11 2708.81,-291.61"/>
<polygon fill="midnightblue" stroke="midnightblue" points="2710.28,-294.79 2717.99,-287.53 2707.43,-288.4 2710.28,-294.79"/>
</g>
</g>
</svg>
