<?xml version="1.0" encoding="UTF-8" standalone="no"?>
<!DOCTYPE svg PUBLIC "-//W3C//DTD SVG 1.1//EN"
 "http://www.w3.org/Graphics/SVG/1.1/DTD/svg11.dtd">
<!-- Generated by graphviz version 2.43.0 (0)
 -->
<!-- Title: include/parsed_tools/non_matching_coupling.h Pages: 1 -->
<svg width="2915pt" height="363pt"
 viewBox="0.00 0.00 2915.00 363.00" xmlns="http://www.w3.org/2000/svg" xmlns:xlink="http://www.w3.org/1999/xlink">
<g id="graph0" class="graph" transform="scale(1 1) rotate(0) translate(4 359)">
<title>include/parsed_tools/non_matching_coupling.h</title>
<!-- Node1 -->
<g id="node1" class="node">
<title>Node1</title>
<g id="a_node1"><a xlink:title=" ">
<polygon fill="#bfbfbf" stroke="black" points="1933.5,-324.5 1933.5,-354.5 2077.5,-354.5 2077.5,-324.5 1933.5,-324.5"/>
<text text-anchor="start" x="1941.5" y="-342.5" font-family="Helvetica,sans-Serif" font-size="10.00">include/parsed_tools</text>
<text text-anchor="middle" x="2005.5" y="-331.5" font-family="Helvetica,sans-Serif" font-size="10.00">/non_matching_coupling.h</text>
</a>
</g>
</g>
<!-- Node2 -->
<g id="node2" class="node">
<title>Node2</title>
<g id="a_node2"><a xlink:href="http://www.dealii.org/developer/doxygen/deal.II/config_8h.html.html" xlink:title=" ">
<polygon fill="none" stroke="black" points="1645,-129 1645,-148 1760,-148 1760,-129 1645,-129"/>
<text text-anchor="middle" x="1702.5" y="-136" font-family="Helvetica,sans-Serif" font-size="10.00">deal.II/base/config.h</text>
</a>
</g>
</g>
<!-- Node1&#45;&gt;Node2 -->
<g id="edge1" class="edge">
<title>Node1&#45;&gt;Node2</title>
<path fill="none" stroke="midnightblue" d="M1983.71,-324.19C1927.79,-287.47 1779.74,-190.23 1724.07,-153.67"/>
<polygon fill="midnightblue" stroke="midnightblue" points="1725.94,-150.71 1715.66,-148.14 1722.1,-156.56 1725.94,-150.71"/>
</g>
<!-- Node3 -->
<g id="node3" class="node">
<title>Node3</title>
<g id="a_node3"><a xlink:href="http://www.dealii.org/developer/doxygen/deal.II/general__data__storage_8h.html.html" xlink:title=" ">
<polygon fill="none" stroke="black" points="2317.5,-257.5 2317.5,-287.5 2451.5,-287.5 2451.5,-257.5 2317.5,-257.5"/>
<text text-anchor="start" x="2325.5" y="-275.5" font-family="Helvetica,sans-Serif" font-size="10.00">deal.II/algorithms</text>
<text text-anchor="middle" x="2384.5" y="-264.5" font-family="Helvetica,sans-Serif" font-size="10.00">/general_data_storage.h</text>
</a>
</g>
</g>
<!-- Node1&#45;&gt;Node3 -->
<g id="edge2" class="edge">
<title>Node1&#45;&gt;Node3</title>
<path fill="none" stroke="midnightblue" d="M2077.52,-326.98C2136.62,-317.42 2222.76,-303.23 2307.34,-288.18"/>
<polygon fill="midnightblue" stroke="midnightblue" points="2308.15,-291.6 2317.38,-286.39 2306.92,-284.7 2308.15,-291.6"/>
</g>
<!-- Node4 -->
<g id="node4" class="node">
<title>Node4</title>
<g id="a_node4"><a xlink:href="http://www.dealii.org/developer/doxygen/deal.II/parameter__acceptor_8h.html.html" xlink:title=" ">
<polygon fill="none" stroke="black" points="0,-0.5 0,-30.5 127,-30.5 127,-0.5 0,-0.5"/>
<text text-anchor="start" x="8" y="-18.5" font-family="Helvetica,sans-Serif" font-size="10.00">deal.II/base/parameter</text>
<text text-anchor="middle" x="63.5" y="-7.5" font-family="Helvetica,sans-Serif" font-size="10.00">_acceptor.h</text>
</a>
</g>
</g>
<!-- Node1&#45;&gt;Node4 -->
<g id="edge3" class="edge">
<title>Node1&#45;&gt;Node4</title>
<path fill="none" stroke="midnightblue" d="M1933.5,-337.45C1582.04,-331.85 63.5,-302.12 63.5,-206.5 63.5,-206.5 63.5,-206.5 63.5,-137.5 63.5,-103.98 63.5,-65.24 63.5,-40.81"/>
<polygon fill="midnightblue" stroke="midnightblue" points="67,-40.66 63.5,-30.66 60,-40.66 67,-40.66"/>
</g>
<!-- Node5 -->
<g id="node5" class="node">
<title>Node5</title>
<g id="a_node5"><a xlink:href="http://www.dealii.org/developer/doxygen/deal.II/include_2deal_8II_2base_2quadrature_8h.html.html" xlink:title=" ">
<polygon fill="none" stroke="black" points="1778.5,-129 1778.5,-148 1916.5,-148 1916.5,-129 1778.5,-129"/>
<text text-anchor="middle" x="1847.5" y="-136" font-family="Helvetica,sans-Serif" font-size="10.00">deal.II/base/quadrature.h</text>
</a>
</g>
</g>
<!-- Node1&#45;&gt;Node5 -->
<g id="edge4" class="edge">
<title>Node1&#45;&gt;Node5</title>
<path fill="none" stroke="midnightblue" d="M1994.14,-324.19C1965.71,-288.38 1891.6,-195.04 1861.01,-156.51"/>
<polygon fill="midnightblue" stroke="midnightblue" points="1863.49,-154.02 1854.53,-148.36 1858.01,-158.37 1863.49,-154.02"/>
</g>
<!-- Node6 -->
<g id="node6" class="node">
<title>Node6</title>
<g id="a_node6"><a xlink:href="http://www.dealii.org/developer/doxygen/deal.II/dof__handler_8h.html.html" xlink:title=" ">
<polygon fill="none" stroke="black" points="91.5,-129 91.5,-148 231.5,-148 231.5,-129 91.5,-129"/>
<text text-anchor="middle" x="161.5" y="-136" font-family="Helvetica,sans-Serif" font-size="10.00">deal.II/dofs/dof_handler.h</text>
</a>
</g>
</g>
<!-- Node1&#45;&gt;Node6 -->
<g id="edge5" class="edge">
<title>Node1&#45;&gt;Node6</title>
<path fill="none" stroke="midnightblue" d="M1933.42,-334.84C1726.87,-323.82 1115.33,-287.58 611.5,-221 465.1,-201.65 293.9,-167.4 211.21,-150.11"/>
<polygon fill="midnightblue" stroke="midnightblue" points="211.84,-146.67 201.33,-148.04 210.4,-153.52 211.84,-146.67"/>
</g>
<!-- Node9 -->
<g id="node9" class="node">
<title>Node9</title>
<g id="a_node9"><a xlink:href="http://www.dealii.org/developer/doxygen/deal.II/grid__tools_8h.html.html" xlink:title=" ">
<polygon fill="none" stroke="black" points="1934.5,-129 1934.5,-148 2062.5,-148 2062.5,-129 1934.5,-129"/>
<text text-anchor="middle" x="1998.5" y="-136" font-family="Helvetica,sans-Serif" font-size="10.00">deal.II/grid/grid_tools.h</text>
</a>
</g>
</g>
<!-- Node1&#45;&gt;Node9 -->
<g id="edge9" class="edge">
<title>Node1&#45;&gt;Node9</title>
<path fill="none" stroke="midnightblue" d="M2005,-324.19C2003.76,-288.99 2000.56,-198.17 1999.17,-158.51"/>
<polygon fill="midnightblue" stroke="midnightblue" points="2002.66,-158.23 1998.81,-148.36 1995.67,-158.48 2002.66,-158.23"/>
</g>
<!-- Node10 -->
<g id="node10" class="node">
<title>Node10</title>
<g id="a_node10"><a xlink:href="http://www.dealii.org/developer/doxygen/deal.II/grid__tools__cache_8h.html.html" xlink:title=" ">
<polygon fill="none" stroke="black" points="2081,-123.5 2081,-153.5 2200,-153.5 2200,-123.5 2081,-123.5"/>
<text text-anchor="start" x="2089" y="-141.5" font-family="Helvetica,sans-Serif" font-size="10.00">deal.II/grid/grid_tools</text>
<text text-anchor="middle" x="2140.5" y="-130.5" font-family="Helvetica,sans-Serif" font-size="10.00">_cache.h</text>
</a>
</g>
</g>
<!-- Node1&#45;&gt;Node10 -->
<g id="edge10" class="edge">
<title>Node1&#45;&gt;Node10</title>
<path fill="none" stroke="midnightblue" d="M2014.55,-324.27C2024.99,-307.94 2042.75,-280.37 2058.5,-257 2081.06,-223.52 2107.96,-185.28 2124.64,-161.76"/>
<polygon fill="midnightblue" stroke="midnightblue" points="2127.57,-163.68 2130.5,-153.5 2121.86,-159.63 2127.57,-163.68"/>
</g>
<!-- Node11 -->
<g id="node11" class="node">
<title>Node11</title>
<g id="a_node11"><a xlink:href="http://www.dealii.org/developer/doxygen/deal.II/linear__operator__tools_8h.html.html" xlink:title=" ">
<polygon fill="none" stroke="black" points="2470,-257.5 2470,-287.5 2571,-287.5 2571,-257.5 2470,-257.5"/>
<text text-anchor="start" x="2478" y="-275.5" font-family="Helvetica,sans-Serif" font-size="10.00">deal.II/lac/linear</text>
<text text-anchor="middle" x="2520.5" y="-264.5" font-family="Helvetica,sans-Serif" font-size="10.00">_operator_tools.h</text>
</a>
</g>
</g>
<!-- Node1&#45;&gt;Node11 -->
<g id="edge11" class="edge">
<title>Node1&#45;&gt;Node11</title>
<path fill="none" stroke="midnightblue" d="M2077.61,-333.33C2165.56,-326.39 2318.85,-312.26 2459.73,-287.98"/>
<polygon fill="midnightblue" stroke="midnightblue" points="2460.61,-291.38 2469.86,-286.22 2459.4,-284.49 2460.61,-291.38"/>
</g>
<!-- Node12 -->
<g id="node12" class="node">
<title>Node12</title>
<g id="a_node12"><a xlink:href="http://www.dealii.org/developer/doxygen/deal.II/coupling_8h.html.html" xlink:title=" ">
<polygon fill="none" stroke="black" points="2589,-257.5 2589,-287.5 2708,-287.5 2708,-257.5 2589,-257.5"/>
<text text-anchor="start" x="2597" y="-275.5" font-family="Helvetica,sans-Serif" font-size="10.00">deal.II/non_matching</text>
<text text-anchor="middle" x="2648.5" y="-264.5" font-family="Helvetica,sans-Serif" font-size="10.00">/coupling.h</text>
</a>
</g>
</g>
<!-- Node1&#45;&gt;Node12 -->
<g id="edge12" class="edge">
<title>Node1&#45;&gt;Node12</title>
<path fill="none" stroke="midnightblue" d="M2077.86,-334.91C2185.11,-328.98 2392.69,-315.14 2578.77,-287.98"/>
<polygon fill="midnightblue" stroke="midnightblue" points="2579.36,-291.44 2588.74,-286.51 2578.34,-284.51 2579.36,-291.44"/>
</g>
<!-- Node13 -->
<g id="node13" class="node">
<title>Node13</title>
<g id="a_node13"><a xlink:href="assemble__coupling__mass__matrix__with__exact__intersections_8h.html" target="_top" xlink:title=" ">
<polygon fill="none" stroke="black" points="2109.5,-257.5 2109.5,-287.5 2299.5,-287.5 2299.5,-257.5 2109.5,-257.5"/>
<text text-anchor="start" x="2117.5" y="-275.5" font-family="Helvetica,sans-Serif" font-size="10.00">assemble_coupling_mass</text>
<text text-anchor="middle" x="2204.5" y="-264.5" font-family="Helvetica,sans-Serif" font-size="10.00">_matrix_with_exact_intersections.h</text>
</a>
</g>
</g>
<!-- Node1&#45;&gt;Node13 -->
<g id="edge13" class="edge">
<title>Node1&#45;&gt;Node13</title>
<path fill="none" stroke="midnightblue" d="M2048.68,-324.4C2078.93,-314.52 2119.53,-301.25 2151.71,-290.74"/>
<polygon fill="midnightblue" stroke="midnightblue" points="2152.99,-294.01 2161.4,-287.58 2150.81,-287.35 2152.99,-294.01"/>
</g>
<!-- Node21 -->
<g id="node21" class="node">
<title>Node21</title>
<g id="a_node21"><a xlink:href="compute__intersections_8h.html" target="_top" xlink:title=" ">
<polygon fill="none" stroke="black" points="2233,-196 2233,-215 2370,-215 2370,-196 2233,-196"/>
<text text-anchor="middle" x="2301.5" y="-203" font-family="Helvetica,sans-Serif" font-size="10.00">compute_intersections.h</text>
</a>
</g>
</g>
<!-- Node1&#45;&gt;Node21 -->
<g id="edge39" class="edge">
<title>Node1&#45;&gt;Node21</title>
<path fill="none" stroke="midnightblue" d="M2020.32,-324.29C2042.33,-303.45 2082.94,-266.09 2100.5,-257 2139.51,-236.81 2187.03,-224.39 2226.07,-216.92"/>
<polygon fill="midnightblue" stroke="midnightblue" points="2227.12,-220.29 2236.32,-215.04 2225.85,-213.4 2227.12,-220.29"/>
</g>
<!-- Node22 -->
<g id="node22" class="node">
<title>Node22</title>
<g id="a_node22"><a xlink:href="create__coupling__sparsity__pattern__with__exact__intersections_8h.html" target="_top" xlink:title=" ">
<polygon fill="none" stroke="black" points="1232,-190.5 1232,-220.5 1425,-220.5 1425,-190.5 1232,-190.5"/>
<text text-anchor="start" x="1240" y="-208.5" font-family="Helvetica,sans-Serif" font-size="10.00">create_coupling_sparsity</text>
<text text-anchor="middle" x="1328.5" y="-197.5" font-family="Helvetica,sans-Serif" font-size="10.00">_pattern_with_exact_intersections.h</text>
</a>
</g>
</g>
<!-- Node1&#45;&gt;Node22 -->
<g id="edge40" class="edge">
<title>Node1&#45;&gt;Node22</title>
<path fill="none" stroke="midnightblue" d="M1933.2,-327.29C1872.33,-317.62 1783.04,-302.9 1705.5,-288 1598.35,-267.41 1474.88,-240.02 1399.27,-222.82"/>
<polygon fill="midnightblue" stroke="midnightblue" points="1399.9,-219.37 1389.38,-220.57 1398.35,-226.2 1399.9,-219.37"/>
</g>
<!-- Node7 -->
<g id="node7" class="node">
<title>Node7</title>
<g id="a_node7"><a xlink:href="function_8h.html" target="_top" xlink:title=" ">
<polygon fill="none" stroke="black" points="120,-67.5 120,-86.5 245,-86.5 245,-67.5 120,-67.5"/>
<text text-anchor="middle" x="182.5" y="-74.5" font-family="Helvetica,sans-Serif" font-size="10.00">deal.II/base/function.h</text>
</a>
</g>
</g>
<!-- Node6&#45;&gt;Node7 -->
<g id="edge6" class="edge">
<title>Node6&#45;&gt;Node7</title>
<path fill="none" stroke="midnightblue" d="M164.51,-128.98C167.53,-120.4 172.29,-106.93 176.15,-95.98"/>
<polygon fill="midnightblue" stroke="midnightblue" points="179.47,-97.1 179.5,-86.51 172.87,-94.77 179.47,-97.1"/>
</g>
<!-- Node7&#45;&gt;Node4 -->
<g id="edge8" class="edge">
<title>Node7&#45;&gt;Node4</title>
<path fill="none" stroke="midnightblue" d="M165.45,-67.48C148.58,-59.04 122.21,-45.86 100.52,-35.01"/>
<polygon fill="midnightblue" stroke="midnightblue" points="102.06,-31.86 91.55,-30.52 98.92,-38.13 102.06,-31.86"/>
</g>
<!-- Node8 -->
<g id="node8" class="node">
<title>Node8</title>
<g id="a_node8"><a xlink:href="http://www.dealii.org/developer/doxygen/deal.II/function__parser_8h.html.html" xlink:title=" ">
<polygon fill="none" stroke="black" points="145.5,-0.5 145.5,-30.5 261.5,-30.5 261.5,-0.5 145.5,-0.5"/>
<text text-anchor="start" x="153.5" y="-18.5" font-family="Helvetica,sans-Serif" font-size="10.00">deal.II/base/function</text>
<text text-anchor="middle" x="203.5" y="-7.5" font-family="Helvetica,sans-Serif" font-size="10.00">_parser.h</text>
</a>
</g>
</g>
<!-- Node7&#45;&gt;Node8 -->
<g id="edge7" class="edge">
<title>Node7&#45;&gt;Node8</title>
<path fill="none" stroke="midnightblue" d="M185.51,-67.48C188.03,-60.32 191.77,-49.75 195.18,-40.08"/>
<polygon fill="midnightblue" stroke="midnightblue" points="198.52,-41.12 198.55,-30.52 191.92,-38.79 198.52,-41.12"/>
</g>
<!-- Node13&#45;&gt;Node2 -->
<g id="edge14" class="edge">
<title>Node13&#45;&gt;Node2</title>
<path fill="none" stroke="midnightblue" d="M2141.58,-257.42C2098.85,-247.67 2041.12,-234.13 1990.5,-221 1900.53,-197.67 1795.69,-167.15 1740.68,-150.88"/>
<polygon fill="midnightblue" stroke="midnightblue" points="1741.58,-147.5 1731,-148.02 1739.59,-154.21 1741.58,-147.5"/>
</g>
<!-- Node13&#45;&gt;Node5 -->
<g id="edge17" class="edge">
<title>Node13&#45;&gt;Node5</title>
<path fill="none" stroke="midnightblue" d="M2166.63,-257.5C2096.31,-231.5 1946.68,-176.17 1880.34,-151.64"/>
<polygon fill="midnightblue" stroke="midnightblue" points="1881.4,-148.3 1870.81,-148.12 1878.97,-154.87 1881.4,-148.3"/>
</g>
<!-- Node13&#45;&gt;Node6 -->
<g id="edge18" class="edge">
<title>Node13&#45;&gt;Node6</title>
<path fill="none" stroke="midnightblue" d="M2109.31,-270.19C1824.58,-265.33 954.99,-243.65 240.5,-154 231.65,-152.89 222.3,-151.43 213.24,-149.86"/>
<polygon fill="midnightblue" stroke="midnightblue" points="213.64,-146.38 203.18,-148.06 212.41,-153.27 213.64,-146.38"/>
</g>
<!-- Node13&#45;&gt;Node9 -->
<g id="edge21" class="edge">
<title>Node13&#45;&gt;Node9</title>
<path fill="none" stroke="midnightblue" d="M2182.45,-257.37C2142.87,-232.01 2060.17,-179.02 2020.57,-153.64"/>
<polygon fill="midnightblue" stroke="midnightblue" points="2022.23,-150.55 2011.92,-148.1 2018.45,-156.44 2022.23,-150.55"/>
</g>
<!-- Node13&#45;&gt;Node10 -->
<g id="edge22" class="edge">
<title>Node13&#45;&gt;Node10</title>
<path fill="none" stroke="midnightblue" d="M2197.65,-257.37C2186.68,-234.75 2165.05,-190.14 2151.78,-162.76"/>
<polygon fill="midnightblue" stroke="midnightblue" points="2154.81,-161 2147.3,-153.52 2148.51,-164.05 2154.81,-161"/>
</g>
<!-- Node14 -->
<g id="node14" class="node">
<title>Node14</title>
<g id="a_node14"><a xlink:href="http://www.dealii.org/developer/doxygen/deal.II/function__lib_8h.html.html" xlink:title=" ">
<polygon fill="none" stroke="black" points="2218.5,-123.5 2218.5,-153.5 2334.5,-153.5 2334.5,-123.5 2218.5,-123.5"/>
<text text-anchor="start" x="2226.5" y="-141.5" font-family="Helvetica,sans-Serif" font-size="10.00">deal.II/base/function</text>
<text text-anchor="middle" x="2276.5" y="-130.5" font-family="Helvetica,sans-Serif" font-size="10.00">_lib.h</text>
</a>
</g>
</g>
<!-- Node13&#45;&gt;Node14 -->
<g id="edge15" class="edge">
<title>Node13&#45;&gt;Node14</title>
<path fill="none" stroke="midnightblue" d="M2205.34,-257.35C2206.89,-240.35 2211.24,-211.44 2223.5,-190 2229.96,-178.71 2239.72,-168.37 2249.12,-160.03"/>
<polygon fill="midnightblue" stroke="midnightblue" points="2251.45,-162.64 2256.84,-153.52 2246.94,-157.29 2251.45,-162.64"/>
</g>
<!-- Node15 -->
<g id="node15" class="node">
<title>Node15</title>
<g id="a_node15"><a xlink:href="http://www.dealii.org/developer/doxygen/deal.II/mapping_8h.html.html" xlink:title=" ">
<polygon fill="none" stroke="black" points="2677.5,-129 2677.5,-148 2791.5,-148 2791.5,-129 2677.5,-129"/>
<text text-anchor="middle" x="2734.5" y="-136" font-family="Helvetica,sans-Serif" font-size="10.00">deal.II/fe/mapping.h</text>
</a>
</g>
</g>
<!-- Node13&#45;&gt;Node15 -->
<g id="edge19" class="edge">
<title>Node13&#45;&gt;Node15</title>
<path fill="none" stroke="midnightblue" d="M2299.91,-258.06C2389.22,-245.3 2512.19,-227.16 2534.5,-221 2598.86,-203.23 2670.46,-170.74 2708.08,-152.61"/>
<polygon fill="midnightblue" stroke="midnightblue" points="2709.87,-155.64 2717.33,-148.12 2706.8,-149.35 2709.87,-155.64"/>
</g>
<!-- Node16 -->
<g id="node16" class="node">
<title>Node16</title>
<g id="a_node16"><a xlink:href="http://www.dealii.org/developer/doxygen/deal.II/mapping__q1_8h.html.html" xlink:title=" ">
<polygon fill="none" stroke="black" points="2353,-129 2353,-148 2484,-148 2484,-129 2353,-129"/>
<text text-anchor="middle" x="2418.5" y="-136" font-family="Helvetica,sans-Serif" font-size="10.00">deal.II/fe/mapping_q1.h</text>
</a>
</g>
</g>
<!-- Node13&#45;&gt;Node16 -->
<g id="edge20" class="edge">
<title>Node13&#45;&gt;Node16</title>
<path fill="none" stroke="midnightblue" d="M2299.95,-258.79C2327.63,-251.37 2356.34,-239.61 2378.5,-221 2397.98,-204.64 2408.8,-176.51 2414.13,-157.96"/>
<polygon fill="midnightblue" stroke="midnightblue" points="2417.58,-158.63 2416.72,-148.07 2410.8,-156.86 2417.58,-158.63"/>
</g>
<!-- Node17 -->
<g id="node17" class="node">
<title>Node17</title>
<g id="a_node17"><a xlink:href="http://www.dealii.org/developer/doxygen/deal.II/grid_2tria_8h.html.html" xlink:title=" ">
<polygon fill="none" stroke="black" points="2810,-129 2810,-148 2907,-148 2907,-129 2810,-129"/>
<text text-anchor="middle" x="2858.5" y="-136" font-family="Helvetica,sans-Serif" font-size="10.00">deal.II/grid/tria.h</text>
</a>
</g>
</g>
<!-- Node13&#45;&gt;Node17 -->
<g id="edge23" class="edge">
<title>Node13&#45;&gt;Node17</title>
<path fill="none" stroke="midnightblue" d="M2299.71,-258.18C2302.67,-257.78 2305.61,-257.39 2308.5,-257 2434.18,-240.25 2467.53,-247.6 2591.5,-221 2677.5,-202.54 2775.76,-169.29 2825.67,-151.5"/>
<polygon fill="midnightblue" stroke="midnightblue" points="2827.05,-154.73 2835.28,-148.05 2824.69,-148.14 2827.05,-154.73"/>
</g>
<!-- Node18 -->
<g id="node18" class="node">
<title>Node18</title>
<g id="a_node18"><a xlink:title=" ">
<polygon fill="none" stroke="#bfbfbf" points="2502.5,-129 2502.5,-148 2534.5,-148 2534.5,-129 2502.5,-129"/>
<text text-anchor="middle" x="2518.5" y="-136" font-family="Helvetica,sans-Serif" font-size="10.00">set</text>
</a>
</g>
</g>
<!-- Node13&#45;&gt;Node18 -->
<g id="edge24" class="edge">
<title>Node13&#45;&gt;Node18</title>
<path fill="none" stroke="midnightblue" d="M2289.1,-257.44C2325.66,-249.54 2368.27,-237.79 2404.5,-221 2442.14,-203.56 2480.21,-173.19 2501.44,-154.86"/>
<polygon fill="midnightblue" stroke="midnightblue" points="2504.01,-157.26 2509.21,-148.03 2499.39,-152 2504.01,-157.26"/>
</g>
<!-- Node19 -->
<g id="node19" class="node">
<title>Node19</title>
<g id="a_node19"><a xlink:title=" ">
<polygon fill="none" stroke="#bfbfbf" points="2553,-129 2553,-148 2594,-148 2594,-129 2553,-129"/>
<text text-anchor="middle" x="2573.5" y="-136" font-family="Helvetica,sans-Serif" font-size="10.00">tuple</text>
</a>
</g>
</g>
<!-- Node13&#45;&gt;Node19 -->
<g id="edge25" class="edge">
<title>Node13&#45;&gt;Node19</title>
<path fill="none" stroke="midnightblue" d="M2285.75,-257.48C2343.36,-246.94 2415.24,-232.42 2443.5,-221 2486.17,-203.75 2530.46,-172.66 2554.75,-154.27"/>
<polygon fill="midnightblue" stroke="midnightblue" points="2556.95,-156.99 2562.75,-148.12 2552.69,-151.44 2556.95,-156.99"/>
</g>
<!-- Node20 -->
<g id="node20" class="node">
<title>Node20</title>
<g id="a_node20"><a xlink:title=" ">
<polygon fill="none" stroke="#bfbfbf" points="2612,-129 2612,-148 2659,-148 2659,-129 2612,-129"/>
<text text-anchor="middle" x="2635.5" y="-136" font-family="Helvetica,sans-Serif" font-size="10.00">vector</text>
</a>
</g>
</g>
<!-- Node13&#45;&gt;Node20 -->
<g id="edge26" class="edge">
<title>Node13&#45;&gt;Node20</title>
<path fill="none" stroke="midnightblue" d="M2299.81,-257.7C2367.42,-247.28 2451.89,-232.81 2485.5,-221 2534.24,-203.88 2586.14,-172.29 2614.31,-153.87"/>
<polygon fill="midnightblue" stroke="midnightblue" points="2616.51,-156.61 2622.91,-148.17 2612.64,-150.78 2616.51,-156.61"/>
</g>
<!-- Node13&#45;&gt;Node21 -->
<g id="edge27" class="edge">
<title>Node13&#45;&gt;Node21</title>
<path fill="none" stroke="midnightblue" d="M2225.55,-257.4C2241.81,-246.5 2264.22,-231.48 2280.48,-220.58"/>
<polygon fill="midnightblue" stroke="midnightblue" points="2282.45,-223.48 2288.8,-215.01 2278.55,-217.67 2282.45,-223.48"/>
</g>
<!-- Node14&#45;&gt;Node7 -->
<g id="edge16" class="edge">
<title>Node14&#45;&gt;Node7</title>
<path fill="none" stroke="midnightblue" d="M2218.38,-124.36C2215.05,-123.84 2211.74,-123.38 2208.5,-123 1818.92,-77.55 571.07,-77.13 255.53,-77.78"/>
<polygon fill="midnightblue" stroke="midnightblue" points="255.14,-74.28 245.14,-77.81 255.15,-81.28 255.14,-74.28"/>
</g>
<!-- Node21&#45;&gt;Node2 -->
<g id="edge28" class="edge">
<title>Node21&#45;&gt;Node2</title>
<path fill="none" stroke="midnightblue" d="M2232.73,-200.58C2131.04,-194.21 1934.75,-179.63 1769.5,-154 1762.63,-152.93 1755.4,-151.6 1748.34,-150.17"/>
<polygon fill="midnightblue" stroke="midnightblue" points="1748.67,-146.67 1738.17,-148.04 1747.24,-153.52 1748.67,-146.67"/>
</g>
<!-- Node21&#45;&gt;Node5 -->
<g id="edge30" class="edge">
<title>Node21&#45;&gt;Node5</title>
<path fill="none" stroke="midnightblue" d="M2232.74,-196.32C2157.23,-187.09 2032.49,-171.12 1925.5,-154 1917.57,-152.73 1909.21,-151.29 1901.02,-149.82"/>
<polygon fill="midnightblue" stroke="midnightblue" points="1901.63,-146.37 1891.16,-148.02 1900.37,-153.26 1901.63,-146.37"/>
</g>
<!-- Node21&#45;&gt;Node9 -->
<g id="edge33" class="edge">
<title>Node21&#45;&gt;Node9</title>
<path fill="none" stroke="midnightblue" d="M2261.58,-195.94C2206.74,-184.17 2108.13,-163.02 2048.46,-150.22"/>
<polygon fill="midnightblue" stroke="midnightblue" points="2049.02,-146.76 2038.51,-148.08 2047.56,-153.6 2049.02,-146.76"/>
</g>
<!-- Node21&#45;&gt;Node10 -->
<g id="edge34" class="edge">
<title>Node21&#45;&gt;Node10</title>
<path fill="none" stroke="midnightblue" d="M2280.12,-195.87C2255.86,-186.07 2215.62,-169.83 2184.56,-157.29"/>
<polygon fill="midnightblue" stroke="midnightblue" points="2185.83,-154.03 2175.25,-153.53 2183.21,-160.52 2185.83,-154.03"/>
</g>
<!-- Node21&#45;&gt;Node14 -->
<g id="edge29" class="edge">
<title>Node21&#45;&gt;Node14</title>
<path fill="none" stroke="midnightblue" d="M2298.13,-195.73C2294.91,-187.37 2289.92,-174.4 2285.55,-163.02"/>
<polygon fill="midnightblue" stroke="midnightblue" points="2288.78,-161.67 2281.92,-153.59 2282.24,-164.18 2288.78,-161.67"/>
</g>
<!-- Node21&#45;&gt;Node15 -->
<g id="edge31" class="edge">
<title>Node21&#45;&gt;Node15</title>
<path fill="none" stroke="midnightblue" d="M2370.21,-196.6C2443.95,-187.76 2564.39,-172.24 2667.5,-154 2673.88,-152.87 2680.58,-151.57 2687.18,-150.21"/>
<polygon fill="midnightblue" stroke="midnightblue" points="2688.32,-153.55 2697.39,-148.06 2686.88,-146.7 2688.32,-153.55"/>
</g>
<!-- Node21&#45;&gt;Node16 -->
<g id="edge32" class="edge">
<title>Node21&#45;&gt;Node16</title>
<path fill="none" stroke="midnightblue" d="M2317.28,-195.73C2337.01,-184.77 2371.01,-165.88 2394.11,-153.05"/>
<polygon fill="midnightblue" stroke="midnightblue" points="2395.93,-156.04 2402.97,-148.13 2392.53,-149.92 2395.93,-156.04"/>
</g>
<!-- Node21&#45;&gt;Node17 -->
<g id="edge35" class="edge">
<title>Node21&#45;&gt;Node17</title>
<path fill="none" stroke="midnightblue" d="M2370.13,-200.69C2466.72,-194.63 2648.03,-180.63 2800.5,-154 2806.26,-152.99 2812.3,-151.73 2818.21,-150.36"/>
<polygon fill="midnightblue" stroke="midnightblue" points="2819.07,-153.76 2827.97,-148.01 2817.43,-146.95 2819.07,-153.76"/>
</g>
<!-- Node21&#45;&gt;Node18 -->
<g id="edge36" class="edge">
<title>Node21&#45;&gt;Node18</title>
<path fill="none" stroke="midnightblue" d="M2346.52,-195.93C2385.88,-187.66 2444.15,-173.51 2492.5,-154 2493.51,-153.59 2494.52,-153.16 2495.54,-152.7"/>
<polygon fill="midnightblue" stroke="midnightblue" points="2497.18,-155.79 2504.51,-148.14 2494.01,-149.55 2497.18,-155.79"/>
</g>
<!-- Node21&#45;&gt;Node19 -->
<g id="edge37" class="edge">
<title>Node21&#45;&gt;Node19</title>
<path fill="none" stroke="midnightblue" d="M2362.77,-195.96C2412.36,-188.05 2483.57,-174.39 2543.5,-154 2545.12,-153.45 2546.76,-152.83 2548.41,-152.17"/>
<polygon fill="midnightblue" stroke="midnightblue" points="2549.9,-155.34 2557.61,-148.07 2547.05,-148.94 2549.9,-155.34"/>
</g>
<!-- Node21&#45;&gt;Node20 -->
<g id="edge38" class="edge">
<title>Node21&#45;&gt;Node20</title>
<path fill="none" stroke="midnightblue" d="M2370.14,-197.89C2431.87,-190.79 2524.56,-177.27 2602.5,-154 2604.64,-153.36 2606.83,-152.62 2609.01,-151.81"/>
<polygon fill="midnightblue" stroke="midnightblue" points="2610.4,-155.02 2618.33,-148 2607.75,-148.54 2610.4,-155.02"/>
</g>
<!-- Node22&#45;&gt;Node2 -->
<g id="edge41" class="edge">
<title>Node22&#45;&gt;Node2</title>
<path fill="none" stroke="midnightblue" d="M1421.41,-190.46C1482.41,-180.93 1563.87,-167.63 1635.5,-154 1641.71,-152.82 1648.24,-151.5 1654.67,-150.16"/>
<polygon fill="midnightblue" stroke="midnightblue" points="1655.6,-153.54 1664.65,-148.04 1654.15,-146.69 1655.6,-153.54"/>
</g>
<!-- Node22&#45;&gt;Node5 -->
<g id="edge44" class="edge">
<title>Node22&#45;&gt;Node5</title>
<path fill="none" stroke="midnightblue" d="M1425.31,-195.28C1514.63,-186.32 1650.81,-171.53 1768.5,-154 1776.83,-152.76 1785.62,-151.3 1794.2,-149.79"/>
<polygon fill="midnightblue" stroke="midnightblue" points="1794.9,-153.22 1804.12,-148 1793.66,-146.33 1794.9,-153.22"/>
</g>
<!-- Node22&#45;&gt;Node6 -->
<g id="edge47" class="edge">
<title>Node22&#45;&gt;Node6</title>
<path fill="none" stroke="midnightblue" d="M1231.86,-200.37C974.59,-189.33 289.26,-159.58 240.5,-154 231.24,-152.94 221.43,-151.45 211.99,-149.82"/>
<polygon fill="midnightblue" stroke="midnightblue" points="212.4,-146.33 201.94,-148.01 211.16,-153.22 212.4,-146.33"/>
</g>
<!-- Node22&#45;&gt;Node9 -->
<g id="edge53" class="edge">
<title>Node22&#45;&gt;Node9</title>
<path fill="none" stroke="midnightblue" d="M1425.03,-199.66C1543.39,-192.96 1749.89,-178.79 1925.5,-154 1933.33,-152.9 1941.58,-151.49 1949.61,-149.99"/>
<polygon fill="midnightblue" stroke="midnightblue" points="1950.46,-153.39 1959.62,-148.06 1949.13,-146.52 1950.46,-153.39"/>
</g>
<!-- Node22&#45;&gt;Node10 -->
<g id="edge54" class="edge">
<title>Node22&#45;&gt;Node10</title>
<path fill="none" stroke="midnightblue" d="M1425.12,-202.22C1565.28,-197.97 1833.25,-186.24 2070.54,-153.99"/>
<polygon fill="midnightblue" stroke="midnightblue" points="2071.32,-157.42 2080.75,-152.59 2070.37,-150.48 2071.32,-157.42"/>
</g>
<!-- Node22&#45;&gt;Node14 -->
<g id="edge43" class="edge">
<title>Node22&#45;&gt;Node14</title>
<path fill="none" stroke="midnightblue" d="M1425.32,-203.77C1585.97,-201.49 1917.76,-192.27 2208.05,-153.88"/>
<polygon fill="midnightblue" stroke="midnightblue" points="2208.92,-157.3 2218.36,-152.51 2207.99,-150.36 2208.92,-157.3"/>
</g>
<!-- Node22&#45;&gt;Node16 -->
<g id="edge52" class="edge">
<title>Node22&#45;&gt;Node16</title>
<path fill="none" stroke="midnightblue" d="M1425.1,-204.23C1605.98,-202.71 2007.86,-194.59 2343.5,-154 2352.21,-152.95 2361.42,-151.47 2370.29,-149.86"/>
<polygon fill="midnightblue" stroke="midnightblue" points="2370.95,-153.3 2380.12,-148 2369.65,-146.42 2370.95,-153.3"/>
</g>
<!-- Node23 -->
<g id="node23" class="node">
<title>Node23</title>
<g id="a_node23"><a xlink:href="http://www.dealii.org/developer/doxygen/deal.II/include_2deal_8II_2base_2exceptions_8h.html.html" xlink:title=" ">
<polygon fill="none" stroke="black" points="873.5,-129 873.5,-148 1011.5,-148 1011.5,-129 873.5,-129"/>
<text text-anchor="middle" x="942.5" y="-136" font-family="Helvetica,sans-Serif" font-size="10.00">deal.II/base/exceptions.h</text>
</a>
</g>
</g>
<!-- Node22&#45;&gt;Node23 -->
<g id="edge42" class="edge">
<title>Node22&#45;&gt;Node23</title>
<path fill="none" stroke="midnightblue" d="M1239.79,-190.47C1178.21,-180.6 1094.29,-166.91 1020.5,-154 1013.05,-152.7 1005.2,-151.28 997.48,-149.87"/>
<polygon fill="midnightblue" stroke="midnightblue" points="997.9,-146.39 987.43,-148.02 996.63,-153.27 997.9,-146.39"/>
</g>
<!-- Node24 -->
<g id="node24" class="node">
<title>Node24</title>
<g id="a_node24"><a xlink:href="http://www.dealii.org/developer/doxygen/deal.II/shared__tria_8h.html.html" xlink:title=" ">
<polygon fill="none" stroke="black" points="1029.5,-123.5 1029.5,-153.5 1131.5,-153.5 1131.5,-123.5 1029.5,-123.5"/>
<text text-anchor="start" x="1037.5" y="-141.5" font-family="Helvetica,sans-Serif" font-size="10.00">deal.II/distributed</text>
<text text-anchor="middle" x="1080.5" y="-130.5" font-family="Helvetica,sans-Serif" font-size="10.00">/shared_tria.h</text>
</a>
</g>
</g>
<!-- Node22&#45;&gt;Node24 -->
<g id="edge45" class="edge">
<title>Node22&#45;&gt;Node24</title>
<path fill="none" stroke="midnightblue" d="M1274.99,-190.48C1235.79,-180.2 1182.52,-166.24 1141.64,-155.52"/>
<polygon fill="midnightblue" stroke="midnightblue" points="1142.35,-152.09 1131.79,-152.94 1140.58,-158.86 1142.35,-152.09"/>
</g>
<!-- Node25 -->
<g id="node25" class="node">
<title>Node25</title>
<g id="a_node25"><a xlink:href="http://www.dealii.org/developer/doxygen/deal.II/distributed_2tria_8h.html.html" xlink:title=" ">
<polygon fill="none" stroke="black" points="1149.5,-123.5 1149.5,-153.5 1251.5,-153.5 1251.5,-123.5 1149.5,-123.5"/>
<text text-anchor="start" x="1157.5" y="-141.5" font-family="Helvetica,sans-Serif" font-size="10.00">deal.II/distributed</text>
<text text-anchor="middle" x="1200.5" y="-130.5" font-family="Helvetica,sans-Serif" font-size="10.00">/tria.h</text>
</a>
</g>
</g>
<!-- Node22&#45;&gt;Node25 -->
<g id="edge46" class="edge">
<title>Node22&#45;&gt;Node25</title>
<path fill="none" stroke="midnightblue" d="M1300.73,-190.4C1282.11,-180.94 1257.39,-168.39 1237.16,-158.12"/>
<polygon fill="midnightblue" stroke="midnightblue" points="1238.72,-154.98 1228.22,-153.58 1235.55,-161.23 1238.72,-154.98"/>
</g>
<!-- Node26 -->
<g id="node26" class="node">
<title>Node26</title>
<g id="a_node26"><a xlink:href="http://www.dealii.org/developer/doxygen/deal.II/component__mask_8h.html.html" xlink:title=" ">
<polygon fill="none" stroke="black" points="1270,-123.5 1270,-153.5 1387,-153.5 1387,-123.5 1270,-123.5"/>
<text text-anchor="start" x="1278" y="-141.5" font-family="Helvetica,sans-Serif" font-size="10.00">deal.II/fe/component</text>
<text text-anchor="middle" x="1328.5" y="-130.5" font-family="Helvetica,sans-Serif" font-size="10.00">_mask.h</text>
</a>
</g>
</g>
<!-- Node22&#45;&gt;Node26 -->
<g id="edge48" class="edge">
<title>Node22&#45;&gt;Node26</title>
<path fill="none" stroke="midnightblue" d="M1328.5,-190.4C1328.5,-182.64 1328.5,-172.81 1328.5,-163.86"/>
<polygon fill="midnightblue" stroke="midnightblue" points="1332,-163.58 1328.5,-153.58 1325,-163.58 1332,-163.58"/>
</g>
<!-- Node27 -->
<g id="node27" class="node">
<title>Node27</title>
<g id="a_node27"><a xlink:href="http://www.dealii.org/developer/doxygen/deal.II/include_2deal_8II_2fe_2fe_8h.html.html" xlink:title=" ">
<polygon fill="none" stroke="black" points="1405,-129 1405,-148 1486,-148 1486,-129 1405,-129"/>
<text text-anchor="middle" x="1445.5" y="-136" font-family="Helvetica,sans-Serif" font-size="10.00">deal.II/fe/fe.h</text>
</a>
</g>
</g>
<!-- Node22&#45;&gt;Node27 -->
<g id="edge49" class="edge">
<title>Node22&#45;&gt;Node27</title>
<path fill="none" stroke="midnightblue" d="M1353.89,-190.4C1373.87,-179.29 1401.54,-163.92 1421.23,-152.98"/>
<polygon fill="midnightblue" stroke="midnightblue" points="1423.15,-155.92 1430.19,-148.01 1419.75,-149.8 1423.15,-155.92"/>
</g>
<!-- Node28 -->
<g id="node28" class="node">
<title>Node28</title>
<g id="a_node28"><a xlink:href="http://www.dealii.org/developer/doxygen/deal.II/fe__system_8h.html.html" xlink:title=" ">
<polygon fill="none" stroke="black" points="1504.5,-129 1504.5,-148 1626.5,-148 1626.5,-129 1504.5,-129"/>
<text text-anchor="middle" x="1565.5" y="-136" font-family="Helvetica,sans-Serif" font-size="10.00">deal.II/fe/fe_system.h</text>
</a>
</g>
</g>
<!-- Node22&#45;&gt;Node28 -->
<g id="edge50" class="edge">
<title>Node22&#45;&gt;Node28</title>
<path fill="none" stroke="midnightblue" d="M1379.63,-190.48C1423.04,-178.57 1484.5,-161.72 1524.67,-150.7"/>
<polygon fill="midnightblue" stroke="midnightblue" points="1525.69,-154.05 1534.4,-148.03 1523.83,-147.3 1525.69,-154.05"/>
</g>
<!-- Node29 -->
<g id="node29" class="node">
<title>Node29</title>
<g id="a_node29"><a xlink:href="http://www.dealii.org/developer/doxygen/deal.II/fe_2fe__values_8h.html.html" xlink:title=" ">
<polygon fill="none" stroke="black" points="250,-129 250,-148 369,-148 369,-129 250,-129"/>
<text text-anchor="middle" x="309.5" y="-136" font-family="Helvetica,sans-Serif" font-size="10.00">deal.II/fe/fe_values.h</text>
</a>
</g>
</g>
<!-- Node22&#45;&gt;Node29 -->
<g id="edge51" class="edge">
<title>Node22&#45;&gt;Node29</title>
<path fill="none" stroke="midnightblue" d="M1231.71,-200.23C1006.55,-190.16 460.43,-164.97 377.5,-154 369.93,-153 361.95,-151.61 354.22,-150.08"/>
<polygon fill="midnightblue" stroke="midnightblue" points="354.76,-146.62 344.26,-148.01 353.34,-153.47 354.76,-146.62"/>
</g>
<!-- Node30 -->
<g id="node30" class="node">
<title>Node30</title>
<g id="a_node30"><a xlink:href="http://www.dealii.org/developer/doxygen/deal.II/affine__constraints_8h.html.html" xlink:title=" ">
<polygon fill="none" stroke="black" points="387,-123.5 387,-153.5 482,-153.5 482,-123.5 387,-123.5"/>
<text text-anchor="start" x="395" y="-141.5" font-family="Helvetica,sans-Serif" font-size="10.00">deal.II/lac/affine</text>
<text text-anchor="middle" x="434.5" y="-130.5" font-family="Helvetica,sans-Serif" font-size="10.00">_constraints.h</text>
</a>
</g>
</g>
<!-- Node22&#45;&gt;Node30 -->
<g id="edge55" class="edge">
<title>Node22&#45;&gt;Node30</title>
<path fill="none" stroke="midnightblue" d="M1231.98,-201.03C1047.14,-194.01 648.39,-176.93 491.97,-153.99"/>
<polygon fill="midnightblue" stroke="midnightblue" points="492.44,-150.52 482.03,-152.47 491.38,-157.44 492.44,-150.52"/>
</g>
<!-- Node31 -->
<g id="node31" class="node">
<title>Node31</title>
<g id="a_node31"><a xlink:href="http://www.dealii.org/developer/doxygen/deal.II/sparse__matrix_8h.html.html" xlink:title=" ">
<polygon fill="none" stroke="black" points="500,-123.5 500,-153.5 599,-153.5 599,-123.5 500,-123.5"/>
<text text-anchor="start" x="508" y="-141.5" font-family="Helvetica,sans-Serif" font-size="10.00">deal.II/lac/sparse</text>
<text text-anchor="middle" x="549.5" y="-130.5" font-family="Helvetica,sans-Serif" font-size="10.00">_matrix.h</text>
</a>
</g>
</g>
<!-- Node22&#45;&gt;Node31 -->
<g id="edge56" class="edge">
<title>Node22&#45;&gt;Node31</title>
<path fill="none" stroke="midnightblue" d="M1231.73,-199.77C1068.22,-191.44 742.86,-173.34 609.31,-153.89"/>
<polygon fill="midnightblue" stroke="midnightblue" points="609.68,-150.41 599.27,-152.37 608.63,-157.33 609.68,-150.41"/>
</g>
<!-- Node32 -->
<g id="node32" class="node">
<title>Node32</title>
<g id="a_node32"><a xlink:href="http://www.dealii.org/developer/doxygen/deal.II/sparsity__pattern_8h.html.html" xlink:title=" ">
<polygon fill="none" stroke="black" points="617.5,-123.5 617.5,-153.5 723.5,-153.5 723.5,-123.5 617.5,-123.5"/>
<text text-anchor="start" x="625.5" y="-141.5" font-family="Helvetica,sans-Serif" font-size="10.00">deal.II/lac/sparsity</text>
<text text-anchor="middle" x="670.5" y="-130.5" font-family="Helvetica,sans-Serif" font-size="10.00">_pattern.h</text>
</a>
</g>
</g>
<!-- Node22&#45;&gt;Node32 -->
<g id="edge57" class="edge">
<title>Node22&#45;&gt;Node32</title>
<path fill="none" stroke="midnightblue" d="M1231.98,-200.64C1115.82,-195.01 914.8,-182.18 733.81,-154.06"/>
<polygon fill="midnightblue" stroke="midnightblue" points="734.26,-150.59 723.84,-152.49 733.17,-157.5 734.26,-150.59"/>
</g>
<!-- Node33 -->
<g id="node33" class="node">
<title>Node33</title>
<g id="a_node33"><a xlink:title=" ">
<polygon fill="none" stroke="#bfbfbf" points="742,-129 742,-148 855,-148 855,-129 742,-129"/>
<text text-anchor="middle" x="798.5" y="-136" font-family="Helvetica,sans-Serif" font-size="10.00">boost/geometry.hpp</text>
</a>
</g>
</g>
<!-- Node22&#45;&gt;Node33 -->
<g id="edge58" class="edge">
<title>Node22&#45;&gt;Node33</title>
<path fill="none" stroke="midnightblue" d="M1231.67,-197.02C1137.52,-189.03 990.65,-174.66 864.5,-154 857.81,-152.9 850.78,-151.56 843.9,-150.15"/>
<polygon fill="midnightblue" stroke="midnightblue" points="844.5,-146.7 833.99,-148.03 843.04,-153.54 844.5,-146.7"/>
</g>
</g>
</svg>
