<?xml version="1.0" encoding="UTF-8" standalone="no"?>
<!DOCTYPE svg PUBLIC "-//W3C//DTD SVG 1.1//EN"
 "http://www.w3.org/Graphics/SVG/1.1/DTD/svg11.dtd">
<!-- Generated by graphviz version 2.43.0 (0)
 -->
<!-- Title: include/tools/parsed_symbolic_function.h Pages: 1 -->
<!--zoomable 620 -->
<svg id="main" version="1.1" xmlns="http://www.w3.org/2000/svg" xmlns:xlink="http://www.w3.org/1999/xlink" xml:space="preserve" onload="init(evt)">
<style type="text/css"><![CDATA[
.edge:hover path { stroke: red; }
.edge:hover polygon { stroke: red; fill: red; }
]]></style>
<script type="text/javascript"><![CDATA[
var edges = document.getElementsByTagName('g');
if (edges && edges.length) {
  for (var i=0;i<edges.length;i++) {
    if (edges[i].id.substr(0,4)=='edge') {
      edges[i].setAttribute('class','edge');
    }
  }
}
]]></script>
        <defs>
                <circle id="rim" cx="0" cy="0" r="7"/>
                <circle id="rim2" cx="0" cy="0" r="3.5"/>
                <g id="zoomPlus">
                        <use xlink:href="#rim" fill="#404040">
                                <set attributeName="fill" to="#808080" begin="zoomplus.mouseover" end="zoomplus.mouseout"/>
                        </use>
                        <path d="M-4,0h8M0,-4v8" fill="none" stroke="white" stroke-width="1.5" pointer-events="none"/>
                </g>
                <g id="zoomMin">
                        <use xlink:href="#rim" fill="#404040">
                                <set attributeName="fill" to="#808080" begin="zoomminus.mouseover" end="zoomminus.mouseout"/>
                        </use>
                        <path d="M-4,0h8" fill="none" stroke="white" stroke-width="1.5" pointer-events="none"/>
                </g>
                <g id="dirArrow">
                        <path fill="none" stroke="white" stroke-width="1.5" d="M0,-3.0v7 M-2.5,-0.5L0,-3.0L2.5,-0.5"/>
                </g>
               <g id="resetDef">
                       <use xlink:href="#rim2" fill="#404040">
                               <set attributeName="fill" to="#808080" begin="reset.mouseover" end="reset.mouseout"/>
                       </use>
               </g>
        </defs>

<script type="text/javascript">
var viewWidth = 1276;
var viewHeight = 620;
var sectionId = 'dynsection-0';
</script>
<script xlink:href="svgpan.js"/>
<svg id="graph" class="graph">
<g id="viewport">
<title>include/tools/parsed_symbolic_function.h</title>
<!-- Node1 -->
<g id="node1" class="node">
<title>Node1</title>
<g id="a_node1"><a xlink:title=" ">
<polygon fill="#bfbfbf" stroke="black" points="561,-581.5 561,-611.5 681,-611.5 681,-581.5 561,-581.5"/>
<text text-anchor="start" x="569" y="-599.5" font-family="Helvetica,sans-Serif" font-size="10.00">include/tools/parsed</text>
<text text-anchor="middle" x="621" y="-588.5" font-family="Helvetica,sans-Serif" font-size="10.00">_symbolic_function.h</text>
</a>
</g>
</g>
<!-- Node2 -->
<g id="node2" class="node">
<title>Node2</title>
<g id="a_node2"><a xlink:href="http://www.dealii.org/developer/doxygen/deal.II/config_8h.html" xlink:title=" ">
<polygon fill="none" stroke="black" points="563.5,-525.5 563.5,-544.5 678.5,-544.5 678.5,-525.5 563.5,-525.5"/>
<text text-anchor="middle" x="621" y="-532.5" font-family="Helvetica,sans-Serif" font-size="10.00">deal.II/base/config.h</text>
</a>
</g>
</g>
<!-- Node1&#45;&gt;Node2 -->
<g id="edge1" class="edge">
<title>Node1&#45;&gt;Node2</title>
<path fill="none" stroke="midnightblue" d="M621,-581.4C621,-573.47 621,-563.46 621,-554.86"/>
<polygon fill="midnightblue" stroke="midnightblue" points="624.5,-554.66 621,-544.66 617.5,-554.66 624.5,-554.66"/>
</g>
<!-- Node3 -->
<g id="node3" class="node">
<title>Node3</title>
<g id="a_node3"><a xlink:href="http://www.dealii.org/developer/doxygen/deal.II/mpi_8h.html" xlink:title=" ">
<polygon fill="none" stroke="black" points="675,-469.5 675,-488.5 719,-488.5 719,-469.5 675,-469.5"/>
<text text-anchor="middle" x="697" y="-476.5" font-family="Helvetica,sans-Serif" font-size="10.00">mpi.h</text>
</a>
</g>
</g>
<!-- Node2&#45;&gt;Node3 -->
<g id="edge2" class="edge">
<title>Node2&#45;&gt;Node3</title>
<path fill="none" stroke="midnightblue" d="M628.1,-525.32C638.13,-516.9 656.03,-503.97 671.18,-494.07"/>
<polygon fill="midnightblue" stroke="midnightblue" points="673.15,-496.97 679.71,-488.65 669.39,-491.06 673.15,-496.97"/>
</g>
<!-- Node8 -->
<g id="node8" class="node">
<title>Node8</title>
<g id="a_node8"><a xlink:href="http://www.dealii.org/developer/doxygen/deal.II/numbers_8h.html" xlink:title=" ">
<polygon fill="none" stroke="black" points="609,-207 609,-226 737,-226 737,-207 609,-207"/>
<text text-anchor="middle" x="673" y="-214" font-family="Helvetica,sans-Serif" font-size="10.00">deal.II/base/numbers.h</text>
</a>
</g>
</g>
<!-- Node2&#45;&gt;Node8 -->
<g id="edge59" class="edge">
<title>Node2&#45;&gt;Node8</title>
<path fill="none" stroke="midnightblue" d="M612.93,-525.46C601.71,-506.51 586,-459.4 586,-418.5 586,-418.5 586,-418.5 586,-349.5 586,-301.46 624.76,-255.55 650.79,-232.65"/>
<polygon fill="midnightblue" stroke="midnightblue" points="653.28,-235.13 658.73,-226.04 648.8,-229.75 653.28,-235.13"/>
</g>
<!-- Node9 -->
<g id="node9" class="node">
<title>Node9</title>
<g id="a_node9"><a xlink:href="http://www.dealii.org/developer/doxygen/deal.II/types_8h.html" xlink:title=" ">
<polygon fill="none" stroke="black" points="1049,-140 1049,-159 1161,-159 1161,-140 1049,-140"/>
<text text-anchor="middle" x="1105" y="-147" font-family="Helvetica,sans-Serif" font-size="10.00">deal.II/base/types.h</text>
</a>
</g>
</g>
<!-- Node2&#45;&gt;Node9 -->
<g id="edge60" class="edge">
<title>Node2&#45;&gt;Node9</title>
<path fill="none" stroke="midnightblue" d="M678.52,-534.2C820.18,-533.01 1174,-519.67 1174,-418.5 1174,-418.5 1174,-418.5 1174,-282.5 1174,-235.29 1136.57,-190.14 1116.56,-166.86"/>
<polygon fill="midnightblue" stroke="midnightblue" points="1119.02,-164.36 1109.86,-159.04 1113.71,-168.91 1119.02,-164.36"/>
</g>
<!-- Node3&#45;&gt;Node2 -->
<g id="edge3" class="edge">
<title>Node3&#45;&gt;Node2</title>
<path fill="none" stroke="midnightblue" d="M689.72,-488.83C679.65,-497.26 661.87,-510.1 646.8,-519.94"/>
<polygon fill="midnightblue" stroke="midnightblue" points="644.89,-517.01 638.33,-525.32 648.64,-522.91 644.89,-517.01"/>
</g>
<!-- Node4 -->
<g id="node4" class="node">
<title>Node4</title>
<g id="a_node4"><a xlink:href="http://www.dealii.org/developer/doxygen/deal.II/array__view_8h.html" xlink:title=" ">
<polygon fill="none" stroke="black" points="418.5,-402.5 418.5,-432.5 519.5,-432.5 519.5,-402.5 418.5,-402.5"/>
<text text-anchor="start" x="426.5" y="-420.5" font-family="Helvetica,sans-Serif" font-size="10.00">deal.II/base/array</text>
<text text-anchor="middle" x="469" y="-409.5" font-family="Helvetica,sans-Serif" font-size="10.00">_view.h</text>
</a>
</g>
</g>
<!-- Node3&#45;&gt;Node4 -->
<g id="edge4" class="edge">
<title>Node3&#45;&gt;Node4</title>
<path fill="none" stroke="midnightblue" d="M674.72,-472.19C641.46,-463.51 577.6,-446.84 529.81,-434.37"/>
<polygon fill="midnightblue" stroke="midnightblue" points="530.44,-430.92 519.88,-431.78 528.67,-437.69 530.44,-430.92"/>
</g>
<!-- Node3&#45;&gt;Node8 -->
<g id="edge58" class="edge">
<title>Node3&#45;&gt;Node8</title>
<path fill="none" stroke="midnightblue" d="M715.38,-469.43C735.23,-459.76 764.85,-443.94 771,-433 777.75,-420.99 774.33,-415.37 771,-402 754.32,-335.02 708.28,-265.66 685.75,-234.48"/>
<polygon fill="midnightblue" stroke="midnightblue" points="688.31,-232.06 679.57,-226.07 682.67,-236.2 688.31,-232.06"/>
</g>
<!-- Node17 -->
<g id="node17" class="node">
<title>Node17</title>
<g id="a_node17"><a xlink:href="http://www.dealii.org/developer/doxygen/deal.II/index__set_8h.html" xlink:title=" ">
<polygon fill="none" stroke="black" points="818.5,-402.5 818.5,-432.5 921.5,-432.5 921.5,-402.5 818.5,-402.5"/>
<text text-anchor="start" x="826.5" y="-420.5" font-family="Helvetica,sans-Serif" font-size="10.00">deal.II/base/index</text>
<text text-anchor="middle" x="870" y="-409.5" font-family="Helvetica,sans-Serif" font-size="10.00">_set.h</text>
</a>
</g>
</g>
<!-- Node3&#45;&gt;Node17 -->
<g id="edge41" class="edge">
<title>Node3&#45;&gt;Node17</title>
<path fill="none" stroke="midnightblue" d="M716.89,-469.48C740.48,-460.7 780.51,-446.79 813.77,-435.71"/>
<polygon fill="midnightblue" stroke="midnightblue" points="815,-438.99 823.4,-432.52 812.8,-432.34 815,-438.99"/>
</g>
<!-- Node21 -->
<g id="node21" class="node">
<title>Node21</title>
<g id="a_node21"><a xlink:href="http://www.dealii.org/developer/doxygen/deal.II/mpi__tags_8h.html" xlink:title=" ">
<polygon fill="none" stroke="black" points="632,-408 632,-427 762,-427 762,-408 632,-408"/>
<text text-anchor="middle" x="697" y="-415" font-family="Helvetica,sans-Serif" font-size="10.00">deal.II/base/mpi_tags.h</text>
</a>
</g>
</g>
<!-- Node3&#45;&gt;Node21 -->
<g id="edge56" class="edge">
<title>Node3&#45;&gt;Node21</title>
<path fill="none" stroke="midnightblue" d="M697,-469.48C697,-461.08 697,-447.98 697,-437.16"/>
<polygon fill="midnightblue" stroke="midnightblue" points="700.5,-437.01 697,-427.01 693.5,-437.01 700.5,-437.01"/>
</g>
<!-- Node4&#45;&gt;Node2 -->
<g id="edge5" class="edge">
<title>Node4&#45;&gt;Node2</title>
<path fill="none" stroke="midnightblue" d="M479.52,-432.58C491.47,-447.87 512.16,-472.34 534,-489 551.23,-502.14 572.85,-513.35 590.24,-521.29"/>
<polygon fill="midnightblue" stroke="midnightblue" points="588.84,-524.5 599.4,-525.36 591.68,-518.1 588.84,-524.5"/>
</g>
<!-- Node5 -->
<g id="node5" class="node">
<title>Node5</title>
<g id="a_node5"><a xlink:href="http://www.dealii.org/developer/doxygen/deal.II/include_2deal_8II_2base_2exceptions_8h.html" xlink:title=" ">
<polygon fill="none" stroke="black" points="678,-73 678,-92 816,-92 816,-73 678,-73"/>
<text text-anchor="middle" x="747" y="-80" font-family="Helvetica,sans-Serif" font-size="10.00">deal.II/base/exceptions.h</text>
</a>
</g>
</g>
<!-- Node4&#45;&gt;Node5 -->
<g id="edge6" class="edge">
<title>Node4&#45;&gt;Node5</title>
<path fill="none" stroke="midnightblue" d="M469.37,-402.36C469.72,-386.1 470.03,-358.61 469,-335 465.07,-244.95 423.6,-187.69 496,-134 522.86,-114.08 604.84,-100.13 667.88,-92.02"/>
<polygon fill="midnightblue" stroke="midnightblue" points="668.34,-95.49 677.82,-90.76 667.46,-88.54 668.34,-95.49"/>
</g>
<!-- Node6 -->
<g id="node6" class="node">
<title>Node6</title>
<g id="a_node6"><a xlink:href="http://www.dealii.org/developer/doxygen/deal.II/memory__space_8h.html" xlink:title=" ">
<polygon fill="none" stroke="black" points="142.5,-335.5 142.5,-365.5 259.5,-365.5 259.5,-335.5 142.5,-335.5"/>
<text text-anchor="start" x="150.5" y="-353.5" font-family="Helvetica,sans-Serif" font-size="10.00">deal.II/base/memory</text>
<text text-anchor="middle" x="201" y="-342.5" font-family="Helvetica,sans-Serif" font-size="10.00">_space.h</text>
</a>
</g>
</g>
<!-- Node4&#45;&gt;Node6 -->
<g id="edge8" class="edge">
<title>Node4&#45;&gt;Node6</title>
<path fill="none" stroke="midnightblue" d="M418.28,-404.2C376,-393.95 315.42,-379.25 268.95,-367.98"/>
<polygon fill="midnightblue" stroke="midnightblue" points="269.51,-364.51 258.97,-365.56 267.86,-371.32 269.51,-364.51"/>
</g>
<!-- Node7 -->
<g id="node7" class="node">
<title>Node7</title>
<g id="a_node7"><a xlink:href="http://www.dealii.org/developer/doxygen/deal.II/symmetric__tensor_8h.html" xlink:title=" ">
<polygon fill="none" stroke="black" points="278,-335.5 278,-365.5 406,-365.5 406,-335.5 278,-335.5"/>
<text text-anchor="start" x="286" y="-353.5" font-family="Helvetica,sans-Serif" font-size="10.00">deal.II/base/symmetric</text>
<text text-anchor="middle" x="342" y="-342.5" font-family="Helvetica,sans-Serif" font-size="10.00">_tensor.h</text>
</a>
</g>
</g>
<!-- Node4&#45;&gt;Node7 -->
<g id="edge10" class="edge">
<title>Node4&#45;&gt;Node7</title>
<path fill="none" stroke="midnightblue" d="M441.44,-402.4C423.05,-392.98 398.67,-380.5 378.65,-370.26"/>
<polygon fill="midnightblue" stroke="midnightblue" points="380,-367.02 369.5,-365.58 376.81,-373.25 380,-367.02"/>
</g>
<!-- Node14 -->
<g id="node14" class="node">
<title>Node14</title>
<g id="a_node14"><a xlink:href="http://www.dealii.org/developer/doxygen/deal.II/tensor_8h.html" xlink:title=" ">
<polygon fill="none" stroke="black" points="317,-274 317,-293 433,-293 433,-274 317,-274"/>
<text text-anchor="middle" x="375" y="-281" font-family="Helvetica,sans-Serif" font-size="10.00">deal.II/base/tensor.h</text>
</a>
</g>
</g>
<!-- Node4&#45;&gt;Node14 -->
<g id="edge40" class="edge">
<title>Node4&#45;&gt;Node14</title>
<path fill="none" stroke="midnightblue" d="M468.32,-402.29C466.86,-384.97 462.29,-355.5 448,-335 436.83,-318.98 418.84,-306.45 403.51,-297.88"/>
<polygon fill="midnightblue" stroke="midnightblue" points="404.87,-294.64 394.39,-293.05 401.6,-300.82 404.87,-294.64"/>
</g>
<!-- Node5&#45;&gt;Node2 -->
<g id="edge7" class="edge">
<title>Node5&#45;&gt;Node2</title>
<path fill="none" stroke="midnightblue" d="M816.31,-85.17C920.5,-88.77 1111.53,-99.94 1170,-134 1208.87,-156.64 1230,-170.52 1230,-215.5 1230,-418.5 1230,-418.5 1230,-418.5 1230,-467.58 1190.41,-470.38 1145,-489 1064.16,-522.14 811.36,-530.88 688.87,-533.18"/>
<polygon fill="midnightblue" stroke="midnightblue" points="688.79,-529.68 678.86,-533.36 688.92,-536.68 688.79,-529.68"/>
</g>
<!-- Node6&#45;&gt;Node2 -->
<g id="edge9" class="edge">
<title>Node6&#45;&gt;Node2</title>
<path fill="none" stroke="midnightblue" d="M212.26,-365.59C235.91,-394.09 293.88,-458.47 358,-489 420.01,-518.53 498.42,-528.95 553.42,-532.49"/>
<polygon fill="midnightblue" stroke="midnightblue" points="553.22,-535.98 563.41,-533.07 553.63,-528.99 553.22,-535.98"/>
</g>
<!-- Node7&#45;&gt;Node2 -->
<g id="edge11" class="edge">
<title>Node7&#45;&gt;Node2</title>
<path fill="none" stroke="midnightblue" d="M340.92,-365.6C339.63,-393.56 341.08,-456.14 376,-489 401.06,-512.58 489.64,-524.23 553.08,-529.68"/>
<polygon fill="midnightblue" stroke="midnightblue" points="553.18,-533.2 563.43,-530.53 553.75,-526.22 553.18,-533.2"/>
</g>
<!-- Node7&#45;&gt;Node8 -->
<g id="edge12" class="edge">
<title>Node7&#45;&gt;Node8</title>
<path fill="none" stroke="midnightblue" d="M377.11,-335.5C442.04,-309.6 579.91,-254.63 641.79,-229.95"/>
<polygon fill="midnightblue" stroke="midnightblue" points="643.4,-233.07 651.39,-226.12 640.81,-226.57 643.4,-233.07"/>
</g>
<!-- Node11 -->
<g id="node11" class="node">
<title>Node11</title>
<g id="a_node11"><a xlink:href="http://www.dealii.org/developer/doxygen/deal.II/table__indices_8h.html" xlink:title=" ">
<polygon fill="none" stroke="black" points="197.5,-134.5 197.5,-164.5 298.5,-164.5 298.5,-134.5 197.5,-134.5"/>
<text text-anchor="start" x="205.5" y="-152.5" font-family="Helvetica,sans-Serif" font-size="10.00">deal.II/base/table</text>
<text text-anchor="middle" x="248" y="-141.5" font-family="Helvetica,sans-Serif" font-size="10.00">_indices.h</text>
</a>
</g>
</g>
<!-- Node7&#45;&gt;Node11 -->
<g id="edge18" class="edge">
<title>Node7&#45;&gt;Node11</title>
<path fill="none" stroke="midnightblue" d="M331.35,-335.41C324.19,-325.55 314.84,-311.88 308,-299 285.6,-256.82 266.25,-204.4 255.94,-174.46"/>
<polygon fill="midnightblue" stroke="midnightblue" points="259.21,-173.21 252.68,-164.86 252.58,-175.46 259.21,-173.21"/>
</g>
<!-- Node12 -->
<g id="node12" class="node">
<title>Node12</title>
<g id="a_node12"><a xlink:href="http://www.dealii.org/developer/doxygen/deal.II/template__constraints_8h.html" xlink:title=" ">
<polygon fill="none" stroke="black" points="188,-67.5 188,-97.5 308,-97.5 308,-67.5 188,-67.5"/>
<text text-anchor="start" x="196" y="-85.5" font-family="Helvetica,sans-Serif" font-size="10.00">deal.II/base/template</text>
<text text-anchor="middle" x="248" y="-74.5" font-family="Helvetica,sans-Serif" font-size="10.00">_constraints.h</text>
</a>
</g>
</g>
<!-- Node7&#45;&gt;Node12 -->
<g id="edge26" class="edge">
<title>Node7&#45;&gt;Node12</title>
<path fill="none" stroke="midnightblue" d="M292.76,-335.49C221.13,-314.01 93.89,-271.27 68,-232 29,-172.84 127.31,-125.2 193.51,-100.96"/>
<polygon fill="midnightblue" stroke="midnightblue" points="194.79,-104.22 203.02,-97.55 192.43,-97.63 194.79,-104.22"/>
</g>
<!-- Node7&#45;&gt;Node14 -->
<g id="edge27" class="edge">
<title>Node7&#45;&gt;Node14</title>
<path fill="none" stroke="midnightblue" d="M349.16,-335.4C354.1,-325.66 360.71,-312.65 366.01,-302.21"/>
<polygon fill="midnightblue" stroke="midnightblue" points="369.18,-303.7 370.59,-293.19 362.94,-300.53 369.18,-303.7"/>
</g>
<!-- Node8&#45;&gt;Node2 -->
<g id="edge13" class="edge">
<title>Node8&#45;&gt;Node2</title>
<path fill="none" stroke="midnightblue" d="M668.14,-226.04C651.61,-245.64 604,-296.26 604,-349.5 604,-418.5 604,-418.5 604,-418.5 604,-453.49 615.5,-493.02 620.55,-515.58"/>
<polygon fill="midnightblue" stroke="midnightblue" points="617.13,-516.31 622.48,-525.46 624,-514.97 617.13,-516.31"/>
</g>
<!-- Node8&#45;&gt;Node9 -->
<g id="edge14" class="edge">
<title>Node8&#45;&gt;Node9</title>
<path fill="none" stroke="midnightblue" d="M729.92,-206.94C809.73,-194.93 954.56,-173.14 1038.99,-160.43"/>
<polygon fill="midnightblue" stroke="midnightblue" points="1039.61,-163.88 1048.98,-158.93 1038.57,-156.96 1039.61,-163.88"/>
</g>
<!-- Node10 -->
<g id="node10" class="node">
<title>Node10</title>
<g id="a_node10"><a xlink:href="http://www.dealii.org/developer/doxygen/deal.II/adolc__math_8h.html" xlink:title=" ">
<polygon fill="none" stroke="black" points="505.5,-134.5 505.5,-164.5 624.5,-164.5 624.5,-134.5 505.5,-134.5"/>
<text text-anchor="start" x="513.5" y="-152.5" font-family="Helvetica,sans-Serif" font-size="10.00">deal.II/differentiation</text>
<text text-anchor="middle" x="565" y="-141.5" font-family="Helvetica,sans-Serif" font-size="10.00">/ad/adolc_math.h</text>
</a>
</g>
</g>
<!-- Node8&#45;&gt;Node10 -->
<g id="edge16" class="edge">
<title>Node8&#45;&gt;Node10</title>
<path fill="none" stroke="midnightblue" d="M658.43,-206.73C642.79,-197.32 617.42,-182.05 597.07,-169.8"/>
<polygon fill="midnightblue" stroke="midnightblue" points="598.78,-166.75 588.41,-164.59 595.17,-172.74 598.78,-166.75"/>
</g>
<!-- Node9&#45;&gt;Node2 -->
<g id="edge15" class="edge">
<title>Node9&#45;&gt;Node2</title>
<path fill="none" stroke="midnightblue" d="M1119.27,-159.04C1144.39,-178.64 1192,-229.26 1192,-282.5 1192,-418.5 1192,-418.5 1192,-418.5 1192,-519.4 840.02,-532.94 688.71,-534.19"/>
<polygon fill="midnightblue" stroke="midnightblue" points="688.58,-530.69 678.6,-534.26 688.63,-537.69 688.58,-530.69"/>
</g>
<!-- Node10&#45;&gt;Node2 -->
<g id="edge17" class="edge">
<title>Node10&#45;&gt;Node2</title>
<path fill="none" stroke="midnightblue" d="M505.3,-155.85C407.78,-168.16 216.81,-208.08 133,-335 125.41,-346.5 126.42,-353.9 133,-366 181.06,-454.37 228.93,-453.36 323,-489 398.66,-517.67 491.65,-528.12 553.43,-531.91"/>
<polygon fill="midnightblue" stroke="midnightblue" points="553.26,-535.4 563.45,-532.48 553.66,-528.41 553.26,-535.4"/>
</g>
<!-- Node11&#45;&gt;Node2 -->
<g id="edge19" class="edge">
<title>Node11&#45;&gt;Node2</title>
<path fill="none" stroke="midnightblue" d="M239.61,-164.62C229.43,-181.34 211.33,-209.72 193,-232 146.18,-288.91 76,-275.8 76,-349.5 76,-418.5 76,-418.5 76,-418.5 76,-515.02 407.26,-531.24 553.26,-533.71"/>
<polygon fill="midnightblue" stroke="midnightblue" points="553.4,-537.21 563.45,-533.86 553.5,-530.21 553.4,-537.21"/>
</g>
<!-- Node11&#45;&gt;Node5 -->
<g id="edge20" class="edge">
<title>Node11&#45;&gt;Node5</title>
<path fill="none" stroke="midnightblue" d="M298.54,-141.25C315.23,-138.89 333.91,-136.29 351,-134 460.84,-119.26 587.98,-103.23 667.94,-93.28"/>
<polygon fill="midnightblue" stroke="midnightblue" points="668.44,-96.74 677.93,-92.03 667.58,-89.79 668.44,-96.74"/>
</g>
<!-- Node11&#45;&gt;Node12 -->
<g id="edge21" class="edge">
<title>Node11&#45;&gt;Node12</title>
<path fill="none" stroke="midnightblue" d="M248,-134.4C248,-126.64 248,-116.81 248,-107.86"/>
<polygon fill="midnightblue" stroke="midnightblue" points="251.5,-107.58 248,-97.58 244.5,-107.58 251.5,-107.58"/>
</g>
<!-- Node12&#45;&gt;Node2 -->
<g id="edge22" class="edge">
<title>Node12&#45;&gt;Node2</title>
<path fill="none" stroke="midnightblue" d="M187.97,-89.33C114.57,-100.15 0,-130.63 0,-215.5 0,-418.5 0,-418.5 0,-418.5 0,-454.75 10.3,-469.72 41,-489 83.49,-515.69 409.54,-528.06 553.29,-532.26"/>
<polygon fill="midnightblue" stroke="midnightblue" points="553.22,-535.76 563.32,-532.55 553.42,-528.76 553.22,-535.76"/>
</g>
<!-- Node13 -->
<g id="node13" class="node">
<title>Node13</title>
<g id="a_node13"><a xlink:href="http://www.dealii.org/developer/doxygen/deal.II/complex__overloads_8h.html" xlink:title=" ">
<polygon fill="none" stroke="black" points="189,-0.5 189,-30.5 307,-30.5 307,-0.5 189,-0.5"/>
<text text-anchor="start" x="197" y="-18.5" font-family="Helvetica,sans-Serif" font-size="10.00">deal.II/base/complex</text>
<text text-anchor="middle" x="248" y="-7.5" font-family="Helvetica,sans-Serif" font-size="10.00">_overloads.h</text>
</a>
</g>
</g>
<!-- Node12&#45;&gt;Node13 -->
<g id="edge23" class="edge">
<title>Node12&#45;&gt;Node13</title>
<path fill="none" stroke="midnightblue" d="M242.32,-67.4C241.29,-59.56 241.01,-49.6 241.46,-40.57"/>
<polygon fill="midnightblue" stroke="midnightblue" points="244.95,-40.84 242.33,-30.58 237.97,-40.24 244.95,-40.84"/>
</g>
<!-- Node13&#45;&gt;Node2 -->
<g id="edge24" class="edge">
<title>Node13&#45;&gt;Node2</title>
<path fill="none" stroke="midnightblue" d="M307.25,-17.89C524.94,-23.76 1268,-50.96 1268,-148.5 1268,-418.5 1268,-418.5 1268,-418.5 1268,-467.24 1229.1,-470.51 1184,-489 1096.1,-525.03 818.76,-532.3 689.08,-533.7"/>
<polygon fill="midnightblue" stroke="midnightblue" points="688.84,-530.2 678.88,-533.8 688.91,-537.2 688.84,-530.2"/>
</g>
<!-- Node13&#45;&gt;Node12 -->
<g id="edge25" class="edge">
<title>Node13&#45;&gt;Node12</title>
<path fill="none" stroke="midnightblue" d="M253.67,-30.58C254.7,-38.41 254.99,-48.37 254.55,-57.4"/>
<polygon fill="midnightblue" stroke="midnightblue" points="251.06,-57.13 253.68,-67.4 258.03,-57.74 251.06,-57.13"/>
</g>
<!-- Node14&#45;&gt;Node2 -->
<g id="edge28" class="edge">
<title>Node14&#45;&gt;Node2</title>
<path fill="none" stroke="midnightblue" d="M384.81,-293C394.61,-302.21 409.04,-317.89 415,-335 429.34,-376.21 387.02,-395.31 409,-433 439.52,-485.33 506.04,-510.94 556.48,-523.22"/>
<polygon fill="midnightblue" stroke="midnightblue" points="555.81,-526.65 566.34,-525.5 557.38,-519.83 555.81,-526.65"/>
</g>
<!-- Node14&#45;&gt;Node5 -->
<g id="edge29" class="edge">
<title>Node14&#45;&gt;Node5</title>
<path fill="none" stroke="midnightblue" d="M372.56,-273.65C366.08,-248.06 351.44,-173.33 389,-134 426.17,-95.07 574.21,-85.64 667.89,-83.65"/>
<polygon fill="midnightblue" stroke="midnightblue" points="667.97,-87.15 677.9,-83.46 667.84,-80.15 667.97,-87.15"/>
</g>
<!-- Node14&#45;&gt;Node8 -->
<g id="edge30" class="edge">
<title>Node14&#45;&gt;Node8</title>
<path fill="none" stroke="midnightblue" d="M414.26,-273.94C468.2,-262.17 565.18,-241.02 623.86,-228.22"/>
<polygon fill="midnightblue" stroke="midnightblue" points="624.62,-231.63 633.65,-226.08 623.13,-224.8 624.62,-231.63"/>
</g>
<!-- Node14&#45;&gt;Node11 -->
<g id="edge31" class="edge">
<title>Node14&#45;&gt;Node11</title>
<path fill="none" stroke="midnightblue" d="M362.94,-273.89C349.96,-264.36 329.02,-248.18 313,-232 294.57,-213.38 276.2,-189.76 263.71,-172.74"/>
<polygon fill="midnightblue" stroke="midnightblue" points="266.45,-170.56 257.75,-164.51 260.78,-174.66 266.45,-170.56"/>
</g>
<!-- Node14&#45;&gt;Node12 -->
<g id="edge32" class="edge">
<title>Node14&#45;&gt;Node12</title>
<path fill="none" stroke="midnightblue" d="M370.87,-273.95C366.04,-263.93 357.84,-246.8 351,-232 330.97,-188.66 335.61,-172.23 307,-134 298.59,-122.76 287.25,-112.3 276.77,-103.86"/>
<polygon fill="midnightblue" stroke="midnightblue" points="278.66,-100.9 268.61,-97.54 274.37,-106.43 278.66,-100.9"/>
</g>
<!-- Node15 -->
<g id="node15" class="node">
<title>Node15</title>
<g id="a_node15"><a xlink:href="http://www.dealii.org/developer/doxygen/deal.II/tensor__accessors_8h.html" xlink:title=" ">
<polygon fill="none" stroke="black" points="77.5,-201.5 77.5,-231.5 184.5,-231.5 184.5,-201.5 77.5,-201.5"/>
<text text-anchor="start" x="85.5" y="-219.5" font-family="Helvetica,sans-Serif" font-size="10.00">deal.II/base/tensor</text>
<text text-anchor="middle" x="131" y="-208.5" font-family="Helvetica,sans-Serif" font-size="10.00">_accessors.h</text>
</a>
</g>
</g>
<!-- Node14&#45;&gt;Node15 -->
<g id="edge33" class="edge">
<title>Node14&#45;&gt;Node15</title>
<path fill="none" stroke="midnightblue" d="M342.85,-273.94C305.04,-263.86 241.38,-246.9 193.69,-234.2"/>
<polygon fill="midnightblue" stroke="midnightblue" points="194.34,-230.75 183.78,-231.56 192.54,-237.52 194.34,-230.75"/>
</g>
<!-- Node16 -->
<g id="node16" class="node">
<title>Node16</title>
<g id="a_node16"><a xlink:href="http://www.dealii.org/developer/doxygen/deal.II/include_2deal_8II_2base_2utilities_8h.html" xlink:title=" ">
<polygon fill="none" stroke="black" points="469,-207 469,-226 591,-226 591,-207 469,-207"/>
<text text-anchor="middle" x="530" y="-214" font-family="Helvetica,sans-Serif" font-size="10.00">deal.II/base/utilities.h</text>
</a>
</g>
</g>
<!-- Node14&#45;&gt;Node16 -->
<g id="edge37" class="edge">
<title>Node14&#45;&gt;Node16</title>
<path fill="none" stroke="midnightblue" d="M395.58,-273.87C422.33,-262.65 469.25,-242.98 499.97,-230.09"/>
<polygon fill="midnightblue" stroke="midnightblue" points="501.46,-233.26 509.33,-226.17 498.76,-226.81 501.46,-233.26"/>
</g>
<!-- Node15&#45;&gt;Node2 -->
<g id="edge34" class="edge">
<title>Node15&#45;&gt;Node2</title>
<path fill="none" stroke="midnightblue" d="M104.01,-231.5C89.64,-240.23 72.76,-252.7 62,-268 40.29,-298.89 38,-311.74 38,-349.5 38,-418.5 38,-418.5 38,-418.5 38,-451.6 35.88,-468.67 62,-489 99.94,-518.54 412.22,-529.29 552.83,-532.65"/>
<polygon fill="midnightblue" stroke="midnightblue" points="552.98,-536.16 563.06,-532.89 553.14,-529.16 552.98,-536.16"/>
</g>
<!-- Node15&#45;&gt;Node11 -->
<g id="edge35" class="edge">
<title>Node15&#45;&gt;Node11</title>
<path fill="none" stroke="midnightblue" d="M156.39,-201.4C173.18,-192.07 195.39,-179.73 213.74,-169.53"/>
<polygon fill="midnightblue" stroke="midnightblue" points="215.62,-172.49 222.66,-164.58 212.22,-166.37 215.62,-172.49"/>
</g>
<!-- Node15&#45;&gt;Node12 -->
<g id="edge36" class="edge">
<title>Node15&#45;&gt;Node12</title>
<path fill="none" stroke="midnightblue" d="M139.27,-201.42C149.56,-184.49 168.19,-155.66 188,-134 197.88,-123.19 210.06,-112.55 220.85,-103.84"/>
<polygon fill="midnightblue" stroke="midnightblue" points="223.09,-106.53 228.77,-97.59 218.75,-101.04 223.09,-106.53"/>
</g>
<!-- Node16&#45;&gt;Node2 -->
<g id="edge38" class="edge">
<title>Node16&#45;&gt;Node2</title>
<path fill="none" stroke="midnightblue" d="M532,-226.09C536.68,-247.06 548,-302.55 548,-349.5 548,-418.5 548,-418.5 548,-418.5 548,-459.52 581.3,-497.82 602.92,-518.36"/>
<polygon fill="midnightblue" stroke="midnightblue" points="600.8,-521.16 610.54,-525.33 605.53,-516 600.8,-521.16"/>
</g>
<!-- Node16&#45;&gt;Node5 -->
<g id="edge39" class="edge">
<title>Node16&#45;&gt;Node5</title>
<path fill="none" stroke="midnightblue" d="M550.08,-206.99C571.43,-197.66 605.91,-181.78 634,-165 668.86,-144.18 706.59,-115.62 728.44,-98.42"/>
<polygon fill="midnightblue" stroke="midnightblue" points="730.86,-100.97 736.52,-92.01 726.51,-95.49 730.86,-100.97"/>
</g>
<!-- Node17&#45;&gt;Node2 -->
<g id="edge42" class="edge">
<title>Node17&#45;&gt;Node2</title>
<path fill="none" stroke="midnightblue" d="M843.02,-432.53C814.64,-447.13 768.54,-470.43 728,-489 702.58,-500.64 673.28,-512.88 651.78,-521.65"/>
<polygon fill="midnightblue" stroke="midnightblue" points="650.44,-518.42 642.49,-525.43 653.07,-524.91 650.44,-518.42"/>
</g>
<!-- Node17&#45;&gt;Node3 -->
<g id="edge55" class="edge">
<title>Node17&#45;&gt;Node3</title>
<path fill="none" stroke="midnightblue" d="M834.94,-432.56C803.81,-443.77 758.89,-459.13 728.77,-468.81"/>
<polygon fill="midnightblue" stroke="midnightblue" points="727.64,-465.49 719.17,-471.86 729.76,-472.16 727.64,-465.49"/>
</g>
<!-- Node17&#45;&gt;Node5 -->
<g id="edge43" class="edge">
<title>Node17&#45;&gt;Node5</title>
<path fill="none" stroke="midnightblue" d="M857.08,-402.27C837.61,-379.29 803,-331.79 803,-284.5 803,-284.5 803,-284.5 803,-215.5 803,-171.33 776.09,-124.97 759.58,-100.68"/>
<polygon fill="midnightblue" stroke="midnightblue" points="762.26,-98.4 753.64,-92.23 756.53,-102.43 762.26,-98.4"/>
</g>
<!-- Node17&#45;&gt;Node16 -->
<g id="edge54" class="edge">
<title>Node17&#45;&gt;Node16</title>
<path fill="none" stroke="midnightblue" d="M845.82,-402.35C783.05,-365.61 615.48,-267.53 553.49,-231.25"/>
<polygon fill="midnightblue" stroke="midnightblue" points="555.2,-228.19 544.8,-226.16 551.67,-234.24 555.2,-228.19"/>
</g>
<!-- Node18 -->
<g id="node18" class="node">
<title>Node18</title>
<g id="a_node18"><a xlink:href="http://www.dealii.org/developer/doxygen/deal.II/thread__management_8h.html" xlink:title=" ">
<polygon fill="none" stroke="black" points="842.5,-335.5 842.5,-365.5 949.5,-365.5 949.5,-335.5 842.5,-335.5"/>
<text text-anchor="start" x="850.5" y="-353.5" font-family="Helvetica,sans-Serif" font-size="10.00">deal.II/base/thread</text>
<text text-anchor="middle" x="896" y="-342.5" font-family="Helvetica,sans-Serif" font-size="10.00">_management.h</text>
</a>
</g>
</g>
<!-- Node17&#45;&gt;Node18 -->
<g id="edge44" class="edge">
<title>Node17&#45;&gt;Node18</title>
<path fill="none" stroke="midnightblue" d="M875.64,-402.4C878.84,-394.39 882.94,-384.16 886.61,-374.98"/>
<polygon fill="midnightblue" stroke="midnightblue" points="889.91,-376.16 890.37,-365.58 883.41,-373.56 889.91,-376.16"/>
</g>
<!-- Node18&#45;&gt;Node2 -->
<g id="edge45" class="edge">
<title>Node18&#45;&gt;Node2</title>
<path fill="none" stroke="midnightblue" d="M910.39,-365.73C925.88,-382.81 946.34,-411.79 931,-433 875.94,-509.1 762,-528.98 688.66,-533.55"/>
<polygon fill="midnightblue" stroke="midnightblue" points="688.38,-530.06 678.59,-534.1 688.76,-537.05 688.38,-530.06"/>
</g>
<!-- Node18&#45;&gt;Node5 -->
<g id="edge46" class="edge">
<title>Node18&#45;&gt;Node5</title>
<path fill="none" stroke="midnightblue" d="M884.15,-335.29C876.59,-325.6 867.09,-312.17 861,-299 829.13,-230.12 860.06,-196.5 817,-134 806.16,-118.26 788.75,-105.67 774,-97"/>
<polygon fill="midnightblue" stroke="midnightblue" points="775.69,-93.93 765.25,-92.11 772.27,-100.04 775.69,-93.93"/>
</g>
<!-- Node18&#45;&gt;Node12 -->
<g id="edge53" class="edge">
<title>Node18&#45;&gt;Node12</title>
<path fill="none" stroke="midnightblue" d="M881.92,-335.38C846.04,-299.42 753.46,-206.78 746,-201 700.17,-165.45 688.79,-153.05 634,-134 528.15,-97.2 397.49,-86.89 318.56,-84.18"/>
<polygon fill="midnightblue" stroke="midnightblue" points="318.36,-80.68 308.25,-83.87 318.14,-87.67 318.36,-80.68"/>
</g>
<!-- Node19 -->
<g id="node19" class="node">
<title>Node19</title>
<g id="a_node19"><a xlink:href="http://www.dealii.org/developer/doxygen/deal.II/multithread__info_8h.html" xlink:title=" ">
<polygon fill="none" stroke="black" points="869.5,-268.5 869.5,-298.5 1002.5,-298.5 1002.5,-268.5 869.5,-268.5"/>
<text text-anchor="start" x="877.5" y="-286.5" font-family="Helvetica,sans-Serif" font-size="10.00">deal.II/base/multithread</text>
<text text-anchor="middle" x="936" y="-275.5" font-family="Helvetica,sans-Serif" font-size="10.00">_info.h</text>
</a>
</g>
</g>
<!-- Node18&#45;&gt;Node19 -->
<g id="edge47" class="edge">
<title>Node18&#45;&gt;Node19</title>
<path fill="none" stroke="midnightblue" d="M904.68,-335.4C909.76,-327.13 916.3,-316.51 922.09,-307.1"/>
<polygon fill="midnightblue" stroke="midnightblue" points="925.08,-308.93 927.34,-298.58 919.12,-305.26 925.08,-308.93"/>
</g>
<!-- Node20 -->
<g id="node20" class="node">
<title>Node20</title>
<g id="a_node20"><a xlink:href="http://www.dealii.org/developer/doxygen/deal.II/tuple_8h.html" xlink:title=" ">
<polygon fill="none" stroke="black" points="1020.5,-268.5 1020.5,-298.5 1145.5,-298.5 1145.5,-268.5 1020.5,-268.5"/>
<text text-anchor="start" x="1028.5" y="-286.5" font-family="Helvetica,sans-Serif" font-size="10.00">deal.II/base/std_cxx17</text>
<text text-anchor="middle" x="1083" y="-275.5" font-family="Helvetica,sans-Serif" font-size="10.00">/tuple.h</text>
</a>
</g>
</g>
<!-- Node18&#45;&gt;Node20 -->
<g id="edge51" class="edge">
<title>Node18&#45;&gt;Node20</title>
<path fill="none" stroke="midnightblue" d="M936.58,-335.4C964.88,-325.56 1002.83,-312.37 1033,-301.88"/>
<polygon fill="midnightblue" stroke="midnightblue" points="1034.21,-305.17 1042.5,-298.58 1031.91,-298.55 1034.21,-305.17"/>
</g>
<!-- Node19&#45;&gt;Node2 -->
<g id="edge48" class="edge">
<title>Node19&#45;&gt;Node2</title>
<path fill="none" stroke="midnightblue" d="M944.36,-298.52C949.72,-308.35 956.18,-322.01 959,-335 961.92,-348.46 960.22,-352.28 959,-366 953.51,-427.8 947.92,-460.14 893,-489 858.49,-507.13 757.78,-520.41 689.08,-527.67"/>
<polygon fill="midnightblue" stroke="midnightblue" points="688.35,-524.22 678.76,-528.74 689.07,-531.19 688.35,-524.22"/>
</g>
<!-- Node19&#45;&gt;Node5 -->
<g id="edge49" class="edge">
<title>Node19&#45;&gt;Node5</title>
<path fill="none" stroke="midnightblue" d="M931.65,-268.35C922.14,-239.53 896.94,-173.42 855,-134 836.04,-116.18 809.64,-103.68 787.7,-95.57"/>
<polygon fill="midnightblue" stroke="midnightblue" points="788.57,-92.17 777.97,-92.16 786.25,-98.77 788.57,-92.17"/>
</g>
<!-- Node19&#45;&gt;Node9 -->
<g id="edge50" class="edge">
<title>Node19&#45;&gt;Node9</title>
<path fill="none" stroke="midnightblue" d="M954.09,-268.37C986.29,-243.22 1053.26,-190.91 1086.07,-165.29"/>
<polygon fill="midnightblue" stroke="midnightblue" points="1088.27,-168.01 1093.99,-159.1 1083.96,-162.49 1088.27,-168.01"/>
</g>
<!-- Node20&#45;&gt;Node2 -->
<g id="edge52" class="edge">
<title>Node20&#45;&gt;Node2</title>
<path fill="none" stroke="midnightblue" d="M1076.52,-298.67C1058.25,-336.8 1002.33,-441.9 921,-489 882.56,-511.26 764.53,-523.72 688.49,-529.63"/>
<polygon fill="midnightblue" stroke="midnightblue" points="688.22,-526.14 678.51,-530.39 688.75,-533.12 688.22,-526.14"/>
</g>
<!-- Node21&#45;&gt;Node2 -->
<g id="edge57" class="edge">
<title>Node21&#45;&gt;Node2</title>
<path fill="none" stroke="midnightblue" d="M691.22,-427.28C678.67,-446.36 648.73,-491.86 632.29,-516.84"/>
<polygon fill="midnightblue" stroke="midnightblue" points="629.29,-515.04 626.71,-525.32 635.13,-518.89 629.29,-515.04"/>
</g>
</g>
</svg>
        <g id="navigator" transform="translate(0 0)" fill="#404254">
                <rect fill="#f2f5e9" fill-opacity="0.5" stroke="#606060" stroke-width=".5" x="0" y="0" width="60" height="60"/>
                <use id="zoomplus" xlink:href="#zoomPlus" x="17" y="9" onmousedown="handleZoom(evt,'in')"/>
                <use id="zoomminus" xlink:href="#zoomMin" x="42" y="9" onmousedown="handleZoom(evt,'out')"/>
                <use id="reset" xlink:href="#resetDef" x="30" y="36" onmousedown="handleReset()"/>
                <g id="arrowUp" xlink:href="#dirArrow" transform="translate(30 24)" onmousedown="handlePan(0,-1)">
                  <use xlink:href="#rim" fill="#404040">
                        <set attributeName="fill" to="#808080" begin="arrowUp.mouseover" end="arrowUp.mouseout"/>
                  </use>
                  <path fill="none" stroke="white" stroke-width="1.5" d="M0,-3.0v7 M-2.5,-0.5L0,-3.0L2.5,-0.5"/>
                </g>
                <g id="arrowRight" xlink:href="#dirArrow" transform="rotate(90) translate(36 -43)" onmousedown="handlePan(1,0)">
                  <use xlink:href="#rim" fill="#404040">
                        <set attributeName="fill" to="#808080" begin="arrowRight.mouseover" end="arrowRight.mouseout"/>
                  </use>
                  <path fill="none" stroke="white" stroke-width="1.5" d="M0,-3.0v7 M-2.5,-0.5L0,-3.0L2.5,-0.5"/>
                </g>
                <g id="arrowDown" xlink:href="#dirArrow" transform="rotate(180) translate(-30 -48)" onmousedown="handlePan(0,1)">
                  <use xlink:href="#rim" fill="#404040">
                        <set attributeName="fill" to="#808080" begin="arrowDown.mouseover" end="arrowDown.mouseout"/>
                  </use>
                  <path fill="none" stroke="white" stroke-width="1.5" d="M0,-3.0v7 M-2.5,-0.5L0,-3.0L2.5,-0.5"/>
                </g>
                <g id="arrowLeft" xlink:href="#dirArrow" transform="rotate(270) translate(-36 17)" onmousedown="handlePan(-1,0)">
                  <use xlink:href="#rim" fill="#404040">
                        <set attributeName="fill" to="#808080" begin="arrowLeft.mouseover" end="arrowLeft.mouseout"/>
                  </use>
                  <path fill="none" stroke="white" stroke-width="1.5" d="M0,-3.0v7 M-2.5,-0.5L0,-3.0L2.5,-0.5"/>
                </g>
        </g>
        <svg viewBox="0 0 15 15" width="100%" height="30px" preserveAspectRatio="xMaxYMin meet">
         <g id="arrow_out" transform="scale(0.3 0.3)">
          <a xlink:href="parsed__symbolic__function_8h__incl_org.svg" target="_base">
           <rect id="button" ry="5" rx="5" y="6" x="6" height="38" width="38"
                fill="#f2f5e9" fill-opacity="0.5" stroke="#606060" stroke-width="1.0"/>
           <path id="arrow"
             d="M 11.500037,31.436501 C 11.940474,20.09759 22.043105,11.32322 32.158766,21.979434 L 37.068811,17.246167 C 37.068811,17.246167 37.088388,32 37.088388,32 L 22.160133,31.978069 C 22.160133,31.978069 26.997745,27.140456 26.997745,27.140456 C 18.528582,18.264221 13.291696,25.230495 11.500037,31.436501 z"
             style="fill:#404040;"/>
          </a>
         </g>
        </svg>
</svg>
