<?xml version="1.0" encoding="UTF-8" standalone="no"?>
<!DOCTYPE svg PUBLIC "-//W3C//DTD SVG 1.1//EN"
 "http://www.w3.org/Graphics/SVG/1.1/DTD/svg11.dtd">
<!-- Generated by graphviz version 2.43.0 (0)
 -->
<!-- Title: include/tools/parsed_enum.h Pages: 1 -->
<svg width="480pt" height="296pt"
 viewBox="0.00 0.00 479.50 296.00" xmlns="http://www.w3.org/2000/svg" xmlns:xlink="http://www.w3.org/1999/xlink">
<g id="graph0" class="graph" transform="scale(1 1) rotate(0) translate(4 292)">
<title>include/tools/parsed_enum.h</title>
<!-- Node1 -->
<g id="node1" class="node">
<title>Node1</title>
<g id="a_node1"><a xlink:title=" ">
<polygon fill="#bfbfbf" stroke="black" points="174,-257.5 174,-287.5 289,-287.5 289,-257.5 174,-257.5"/>
<text text-anchor="start" x="182" y="-275.5" font-family="Helvetica,sans-Serif" font-size="10.00">include/tools/parsed</text>
<text text-anchor="middle" x="231.5" y="-264.5" font-family="Helvetica,sans-Serif" font-size="10.00">_enum.h</text>
</a>
</g>
</g>
<!-- Node2 -->
<g id="node2" class="node">
<title>Node2</title>
<g id="a_node2"><a xlink:href="parsed__boundary__conditions_8h.html" target="_top" xlink:title=" ">
<polygon fill="none" stroke="black" points="165.5,-123.5 165.5,-153.5 297.5,-153.5 297.5,-123.5 165.5,-123.5"/>
<text text-anchor="start" x="173.5" y="-141.5" font-family="Helvetica,sans-Serif" font-size="10.00">include/tools/parsed</text>
<text text-anchor="middle" x="231.5" y="-130.5" font-family="Helvetica,sans-Serif" font-size="10.00">_boundary_conditions.h</text>
</a>
</g>
</g>
<!-- Node1&#45;&gt;Node2 -->
<g id="edge1" class="edge">
<title>Node1&#45;&gt;Node2</title>
<path fill="none" stroke="midnightblue" d="M231.5,-247.02C231.5,-219.51 231.5,-175.79 231.5,-153.52"/>
<polygon fill="midnightblue" stroke="midnightblue" points="228,-247.37 231.5,-257.37 235,-247.37 228,-247.37"/>
</g>
<!-- Node7 -->
<g id="node7" class="node">
<title>Node7</title>
<g id="a_node7"><a xlink:href="parsed__grid__refinement_8h.html" target="_top" xlink:title=" ">
<polygon fill="none" stroke="black" points="80,-190.5 80,-220.5 195,-220.5 195,-190.5 80,-190.5"/>
<text text-anchor="start" x="88" y="-208.5" font-family="Helvetica,sans-Serif" font-size="10.00">include/tools/parsed</text>
<text text-anchor="middle" x="137.5" y="-197.5" font-family="Helvetica,sans-Serif" font-size="10.00">_grid_refinement.h</text>
</a>
</g>
</g>
<!-- Node1&#45;&gt;Node7 -->
<g id="edge6" class="edge">
<title>Node1&#45;&gt;Node7</title>
<path fill="none" stroke="midnightblue" d="M202.51,-251.45C188.05,-241.45 170.91,-229.6 157.86,-220.58"/>
<polygon fill="midnightblue" stroke="midnightblue" points="200.89,-254.59 211.1,-257.4 204.87,-248.83 200.89,-254.59"/>
</g>
<!-- Node9 -->
<g id="node9" class="node">
<title>Node9</title>
<g id="a_node9"><a xlink:href="components_8h.html" target="_top" xlink:title=" ">
<polygon fill="none" stroke="black" points="281,-196 281,-215 432,-215 432,-196 281,-196"/>
<text text-anchor="middle" x="356.5" y="-203" font-family="Helvetica,sans-Serif" font-size="10.00">include/tools/components.h</text>
</a>
</g>
</g>
<!-- Node1&#45;&gt;Node9 -->
<g id="edge9" class="edge">
<title>Node1&#45;&gt;Node9</title>
<path fill="none" stroke="midnightblue" d="M267.77,-252.64C291.69,-240.2 321.86,-224.51 340.14,-215.01"/>
<polygon fill="midnightblue" stroke="midnightblue" points="265.88,-249.68 258.62,-257.4 269.11,-255.89 265.88,-249.68"/>
</g>
<!-- Node3 -->
<g id="node3" class="node">
<title>Node3</title>
<g id="a_node3"><a xlink:href="parsed__boundary__conditions_8cc.html" target="_top" xlink:title=" ">
<polygon fill="none" stroke="black" points="335.5,-56.5 335.5,-86.5 471.5,-86.5 471.5,-56.5 335.5,-56.5"/>
<text text-anchor="start" x="343.5" y="-74.5" font-family="Helvetica,sans-Serif" font-size="10.00">source/parsed_boundary</text>
<text text-anchor="middle" x="403.5" y="-63.5" font-family="Helvetica,sans-Serif" font-size="10.00">_conditions.cc</text>
</a>
</g>
</g>
<!-- Node2&#45;&gt;Node3 -->
<g id="edge2" class="edge">
<title>Node2&#45;&gt;Node3</title>
<path fill="none" stroke="midnightblue" d="M278.29,-119.82C305.93,-109.37 340.46,-96.32 366.25,-86.58"/>
<polygon fill="midnightblue" stroke="midnightblue" points="276.94,-116.59 268.82,-123.4 279.41,-123.13 276.94,-116.59"/>
</g>
<!-- Node4 -->
<g id="node4" class="node">
<title>Node4</title>
<g id="a_node4"><a xlink:href="serial__poisson_8h.html" target="_top" xlink:title=" ">
<polygon fill="none" stroke="black" points="117.5,-62 117.5,-81 251.5,-81 251.5,-62 117.5,-62"/>
<text text-anchor="middle" x="184.5" y="-69" font-family="Helvetica,sans-Serif" font-size="10.00">include/serial_poisson.h</text>
</a>
</g>
</g>
<!-- Node2&#45;&gt;Node4 -->
<g id="edge3" class="edge">
<title>Node2&#45;&gt;Node4</title>
<path fill="none" stroke="midnightblue" d="M215.21,-114.97C206.79,-103.33 197.01,-89.8 190.79,-81.19"/>
<polygon fill="midnightblue" stroke="midnightblue" points="212.61,-117.34 221.3,-123.4 218.28,-113.24 212.61,-117.34"/>
</g>
<!-- Node5 -->
<g id="node5" class="node">
<title>Node5</title>
<g id="a_node5"><a xlink:href="source_2serial__poisson_8cc.html" target="_top" xlink:title=" ">
<polygon fill="none" stroke="black" points="43,-0.5 43,-19.5 178,-19.5 178,-0.5 43,-0.5"/>
<text text-anchor="middle" x="110.5" y="-7.5" font-family="Helvetica,sans-Serif" font-size="10.00">source/serial_poisson.cc</text>
</a>
</g>
</g>
<!-- Node4&#45;&gt;Node5 -->
<g id="edge4" class="edge">
<title>Node4&#45;&gt;Node5</title>
<path fill="none" stroke="midnightblue" d="M165.81,-55.47C151.66,-44.09 132.72,-28.87 121.08,-19.51"/>
<polygon fill="midnightblue" stroke="midnightblue" points="163.91,-58.44 173.9,-61.98 168.3,-52.98 163.91,-58.44"/>
</g>
<!-- Node6 -->
<g id="node6" class="node">
<title>Node6</title>
<g id="a_node6"><a xlink:href="apps_2serial__poisson_8cc.html" target="_top" xlink:title=" ">
<polygon fill="none" stroke="black" points="196.5,-0.5 196.5,-19.5 322.5,-19.5 322.5,-0.5 196.5,-0.5"/>
<text text-anchor="middle" x="259.5" y="-7.5" font-family="Helvetica,sans-Serif" font-size="10.00">apps/serial_poisson.cc</text>
</a>
</g>
</g>
<!-- Node4&#45;&gt;Node6 -->
<g id="edge5" class="edge">
<title>Node4&#45;&gt;Node6</title>
<path fill="none" stroke="midnightblue" d="M203.44,-55.47C217.79,-44.09 236.98,-28.87 248.77,-19.51"/>
<polygon fill="midnightblue" stroke="midnightblue" points="200.9,-53.02 195.25,-61.98 205.26,-58.5 200.9,-53.02"/>
</g>
<!-- Node7&#45;&gt;Node4 -->
<g id="edge8" class="edge">
<title>Node7&#45;&gt;Node4</title>
<path fill="none" stroke="midnightblue" d="M141.31,-180.37C144.35,-163.87 149.3,-141.68 156.5,-123 162.48,-107.47 172.48,-90.85 178.77,-81.08"/>
<polygon fill="midnightblue" stroke="midnightblue" points="137.85,-179.85 139.58,-190.3 144.74,-181.05 137.85,-179.85"/>
</g>
<!-- Node8 -->
<g id="node8" class="node">
<title>Node8</title>
<g id="a_node8"><a xlink:href="parsed__grid__refinement_8cc.html" target="_top" xlink:title=" ">
<polygon fill="none" stroke="black" points="0,-123.5 0,-153.5 109,-153.5 109,-123.5 0,-123.5"/>
<text text-anchor="start" x="8" y="-141.5" font-family="Helvetica,sans-Serif" font-size="10.00">source/parsed_grid</text>
<text text-anchor="middle" x="54.5" y="-130.5" font-family="Helvetica,sans-Serif" font-size="10.00">_refinement.cc</text>
</a>
</g>
</g>
<!-- Node7&#45;&gt;Node8 -->
<g id="edge7" class="edge">
<title>Node7&#45;&gt;Node8</title>
<path fill="none" stroke="midnightblue" d="M111.54,-184.17C98.85,-174.23 83.89,-162.51 72.47,-153.58"/>
<polygon fill="midnightblue" stroke="midnightblue" points="109.46,-186.99 119.49,-190.4 113.78,-181.47 109.46,-186.99"/>
</g>
<!-- Node9&#45;&gt;Node2 -->
<g id="edge12" class="edge">
<title>Node9&#45;&gt;Node2</title>
<path fill="none" stroke="midnightblue" d="M330.91,-191.19C309.89,-180.26 280.17,-164.81 258.71,-153.65"/>
<polygon fill="midnightblue" stroke="midnightblue" points="329.41,-194.36 339.9,-195.87 332.64,-188.15 329.41,-194.36"/>
</g>
<!-- Node9&#45;&gt;Node3 -->
<g id="edge11" class="edge">
<title>Node9&#45;&gt;Node3</title>
<path fill="none" stroke="midnightblue" d="M400.03,-192.33C419.02,-184.61 439.44,-172.5 450.5,-154 464.5,-130.59 440.23,-103.04 421.67,-86.71"/>
<polygon fill="midnightblue" stroke="midnightblue" points="398.71,-189.08 390.58,-195.87 401.17,-195.64 398.71,-189.08"/>
</g>
<!-- Node10 -->
<g id="node10" class="node">
<title>Node10</title>
<g id="a_node10"><a xlink:href="components_8cc.html" target="_top" xlink:title=" ">
<polygon fill="none" stroke="black" points="316,-129 316,-148 441,-148 441,-129 316,-129"/>
<text text-anchor="middle" x="378.5" y="-136" font-family="Helvetica,sans-Serif" font-size="10.00">source/components.cc</text>
</a>
</g>
</g>
<!-- Node9&#45;&gt;Node10 -->
<g id="edge10" class="edge">
<title>Node9&#45;&gt;Node10</title>
<path fill="none" stroke="midnightblue" d="M362.79,-185.91C367,-173.49 372.33,-157.72 375.58,-148.13"/>
<polygon fill="midnightblue" stroke="midnightblue" points="359.36,-185.14 359.47,-195.73 365.99,-187.38 359.36,-185.14"/>
</g>
</g>
</svg>
