<?xml version="1.0" encoding="UTF-8" standalone="no"?>
<!DOCTYPE svg PUBLIC "-//W3C//DTD SVG 1.1//EN"
 "http://www.w3.org/Graphics/SVG/1.1/DTD/svg11.dtd">
<!-- Generated by graphviz version 2.43.0 (0)
 -->
<!-- Title: include/tools/parsed_finite_element.h Pages: 1 -->
<svg width="346pt" height="162pt"
 viewBox="0.00 0.00 346.00 162.00" xmlns="http://www.w3.org/2000/svg" xmlns:xlink="http://www.w3.org/1999/xlink">
<g id="graph0" class="graph" transform="scale(1 1) rotate(0) translate(4 158)">
<title>include/tools/parsed_finite_element.h</title>
<!-- Node1 -->
<g id="node1" class="node">
<title>Node1</title>
<g id="a_node1"><a xlink:title=" ">
<polygon fill="#bfbfbf" stroke="black" points="71.5,-123.5 71.5,-153.5 186.5,-153.5 186.5,-123.5 71.5,-123.5"/>
<text text-anchor="start" x="79.5" y="-141.5" font-family="Helvetica,sans-Serif" font-size="10.00">include/tools/parsed</text>
<text text-anchor="middle" x="129" y="-130.5" font-family="Helvetica,sans-Serif" font-size="10.00">_finite_element.h</text>
</a>
</g>
</g>
<!-- Node2 -->
<g id="node2" class="node">
<title>Node2</title>
<g id="a_node2"><a xlink:href="parsed__finite__element_8cc.html" target="_top" xlink:title=" ">
<polygon fill="none" stroke="black" points="0,-56.5 0,-86.5 116,-86.5 116,-56.5 0,-56.5"/>
<text text-anchor="start" x="8" y="-74.5" font-family="Helvetica,sans-Serif" font-size="10.00">source/parsed_finite</text>
<text text-anchor="middle" x="58" y="-63.5" font-family="Helvetica,sans-Serif" font-size="10.00">_element.cc</text>
</a>
</g>
</g>
<!-- Node1&#45;&gt;Node2 -->
<g id="edge1" class="edge">
<title>Node1&#45;&gt;Node2</title>
<path fill="none" stroke="midnightblue" d="M106.17,-116.6C95.45,-106.78 82.95,-95.34 73.38,-86.58"/>
<polygon fill="midnightblue" stroke="midnightblue" points="103.85,-119.22 113.59,-123.4 108.58,-114.06 103.85,-119.22"/>
</g>
<!-- Node3 -->
<g id="node3" class="node">
<title>Node3</title>
<g id="a_node3"><a xlink:href="serial__poisson_8h.html" target="_top" xlink:title=" ">
<polygon fill="none" stroke="black" points="134,-62 134,-81 268,-81 268,-62 134,-62"/>
<text text-anchor="middle" x="201" y="-69" font-family="Helvetica,sans-Serif" font-size="10.00">include/serial_poisson.h</text>
</a>
</g>
</g>
<!-- Node1&#45;&gt;Node3 -->
<g id="edge2" class="edge">
<title>Node1&#45;&gt;Node3</title>
<path fill="none" stroke="midnightblue" d="M152.07,-116.67C165.36,-104.67 181.37,-90.22 191.37,-81.19"/>
<polygon fill="midnightblue" stroke="midnightblue" points="149.7,-114.1 144.62,-123.4 154.39,-119.29 149.7,-114.1"/>
</g>
<!-- Node4 -->
<g id="node4" class="node">
<title>Node4</title>
<g id="a_node4"><a xlink:href="source_2serial__poisson_8cc.html" target="_top" xlink:title=" ">
<polygon fill="none" stroke="black" points="58.5,-0.5 58.5,-19.5 193.5,-19.5 193.5,-0.5 58.5,-0.5"/>
<text text-anchor="middle" x="126" y="-7.5" font-family="Helvetica,sans-Serif" font-size="10.00">source/serial_poisson.cc</text>
</a>
</g>
</g>
<!-- Node3&#45;&gt;Node4 -->
<g id="edge3" class="edge">
<title>Node3&#45;&gt;Node4</title>
<path fill="none" stroke="midnightblue" d="M182.06,-55.47C167.71,-44.09 148.52,-28.87 136.73,-19.51"/>
<polygon fill="midnightblue" stroke="midnightblue" points="180.24,-58.5 190.25,-61.98 184.6,-53.02 180.24,-58.5"/>
</g>
<!-- Node5 -->
<g id="node5" class="node">
<title>Node5</title>
<g id="a_node5"><a xlink:href="apps_2serial__poisson_8cc.html" target="_top" xlink:title=" ">
<polygon fill="none" stroke="black" points="212,-0.5 212,-19.5 338,-19.5 338,-0.5 212,-0.5"/>
<text text-anchor="middle" x="275" y="-7.5" font-family="Helvetica,sans-Serif" font-size="10.00">apps/serial_poisson.cc</text>
</a>
</g>
</g>
<!-- Node3&#45;&gt;Node5 -->
<g id="edge4" class="edge">
<title>Node3&#45;&gt;Node5</title>
<path fill="none" stroke="midnightblue" d="M219.69,-55.47C233.84,-44.09 252.78,-28.87 264.42,-19.51"/>
<polygon fill="midnightblue" stroke="midnightblue" points="217.2,-52.98 211.6,-61.98 221.59,-58.44 217.2,-52.98"/>
</g>
</g>
</svg>
