<?xml version="1.0" encoding="UTF-8" standalone="no"?>
<!DOCTYPE svg PUBLIC "-//W3C//DTD SVG 1.1//EN"
 "http://www.w3.org/Graphics/SVG/1.1/DTD/svg11.dtd">
<!-- Generated by graphviz version 2.43.0 (0)
 -->
<!-- Title: include/tools/parsed_grid_refinement.h Pages: 1 -->
<svg width="340pt" height="162pt"
 viewBox="0.00 0.00 339.50 162.00" xmlns="http://www.w3.org/2000/svg" xmlns:xlink="http://www.w3.org/1999/xlink">
<g id="graph0" class="graph" transform="scale(1 1) rotate(0) translate(4 158)">
<title>include/tools/parsed_grid_refinement.h</title>
<!-- Node1 -->
<g id="node1" class="node">
<title>Node1</title>
<g id="a_node1"><a xlink:title=" ">
<polygon fill="#bfbfbf" stroke="black" points="67,-123.5 67,-153.5 182,-153.5 182,-123.5 67,-123.5"/>
<text text-anchor="start" x="75" y="-141.5" font-family="Helvetica,sans-Serif" font-size="10.00">include/tools/parsed</text>
<text text-anchor="middle" x="124.5" y="-130.5" font-family="Helvetica,sans-Serif" font-size="10.00">_grid_refinement.h</text>
</a>
</g>
</g>
<!-- Node2 -->
<g id="node2" class="node">
<title>Node2</title>
<g id="a_node2"><a xlink:href="parsed__grid__refinement_8cc.html" target="_top" xlink:title=" ">
<polygon fill="none" stroke="black" points="0,-56.5 0,-86.5 109,-86.5 109,-56.5 0,-56.5"/>
<text text-anchor="start" x="8" y="-74.5" font-family="Helvetica,sans-Serif" font-size="10.00">source/parsed_grid</text>
<text text-anchor="middle" x="54.5" y="-63.5" font-family="Helvetica,sans-Serif" font-size="10.00">_refinement.cc</text>
</a>
</g>
</g>
<!-- Node1&#45;&gt;Node2 -->
<g id="edge1" class="edge">
<title>Node1&#45;&gt;Node2</title>
<path fill="none" stroke="midnightblue" d="M101.68,-116.31C91.18,-106.56 79.01,-95.26 69.66,-86.58"/>
<polygon fill="midnightblue" stroke="midnightblue" points="99.6,-119.16 109.31,-123.4 104.36,-114.03 99.6,-119.16"/>
</g>
<!-- Node3 -->
<g id="node3" class="node">
<title>Node3</title>
<g id="a_node3"><a xlink:href="serial__poisson_8h.html" target="_top" xlink:title=" ">
<polygon fill="none" stroke="black" points="127.5,-62 127.5,-81 261.5,-81 261.5,-62 127.5,-62"/>
<text text-anchor="middle" x="194.5" y="-69" font-family="Helvetica,sans-Serif" font-size="10.00">include/serial_poisson.h</text>
</a>
</g>
</g>
<!-- Node1&#45;&gt;Node3 -->
<g id="edge2" class="edge">
<title>Node1&#45;&gt;Node3</title>
<path fill="none" stroke="midnightblue" d="M147.29,-116.34C160.15,-104.4 175.51,-90.14 185.14,-81.19"/>
<polygon fill="midnightblue" stroke="midnightblue" points="144.64,-114.03 139.69,-123.4 149.4,-119.16 144.64,-114.03"/>
</g>
<!-- Node4 -->
<g id="node4" class="node">
<title>Node4</title>
<g id="a_node4"><a xlink:href="source_2serial__poisson_8cc.html" target="_top" xlink:title=" ">
<polygon fill="none" stroke="black" points="52,-0.5 52,-19.5 187,-19.5 187,-0.5 52,-0.5"/>
<text text-anchor="middle" x="119.5" y="-7.5" font-family="Helvetica,sans-Serif" font-size="10.00">source/serial_poisson.cc</text>
</a>
</g>
</g>
<!-- Node3&#45;&gt;Node4 -->
<g id="edge3" class="edge">
<title>Node3&#45;&gt;Node4</title>
<path fill="none" stroke="midnightblue" d="M175.56,-55.47C161.21,-44.09 142.02,-28.87 130.23,-19.51"/>
<polygon fill="midnightblue" stroke="midnightblue" points="173.74,-58.5 183.75,-61.98 178.1,-53.02 173.74,-58.5"/>
</g>
<!-- Node5 -->
<g id="node5" class="node">
<title>Node5</title>
<g id="a_node5"><a xlink:href="apps_2serial__poisson_8cc.html" target="_top" xlink:title=" ">
<polygon fill="none" stroke="black" points="205.5,-0.5 205.5,-19.5 331.5,-19.5 331.5,-0.5 205.5,-0.5"/>
<text text-anchor="middle" x="268.5" y="-7.5" font-family="Helvetica,sans-Serif" font-size="10.00">apps/serial_poisson.cc</text>
</a>
</g>
</g>
<!-- Node3&#45;&gt;Node5 -->
<g id="edge4" class="edge">
<title>Node3&#45;&gt;Node5</title>
<path fill="none" stroke="midnightblue" d="M213.19,-55.47C227.34,-44.09 246.28,-28.87 257.92,-19.51"/>
<polygon fill="midnightblue" stroke="midnightblue" points="210.7,-52.98 205.1,-61.98 215.09,-58.44 210.7,-52.98"/>
</g>
</g>
</svg>
