<?xml version="1.0" encoding="UTF-8" standalone="no"?>
<!DOCTYPE svg PUBLIC "-//W3C//DTD SVG 1.1//EN"
 "http://www.w3.org/Graphics/SVG/1.1/DTD/svg11.dtd">
<!-- Generated by graphviz version 2.43.0 (0)
 -->
<!-- Title: include/tools/parsed_enum.h Pages: 1 -->
<svg width="456pt" height="285pt"
 viewBox="0.00 0.00 456.00 285.00" xmlns="http://www.w3.org/2000/svg" xmlns:xlink="http://www.w3.org/1999/xlink">
<g id="graph0" class="graph" transform="scale(1 1) rotate(0) translate(4 281)">
<title>include/tools/parsed_enum.h</title>
<!-- Node1 -->
<g id="node1" class="node">
<title>Node1</title>
<g id="a_node1"><a xlink:title=" ">
<polygon fill="#bfbfbf" stroke="black" points="188,-246.5 188,-276.5 303,-276.5 303,-246.5 188,-246.5"/>
<text text-anchor="start" x="196" y="-264.5" font-family="Helvetica,sans-Serif" font-size="10.00">include/tools/parsed</text>
<text text-anchor="middle" x="245.5" y="-253.5" font-family="Helvetica,sans-Serif" font-size="10.00">_enum.h</text>
</a>
</g>
</g>
<!-- Node2 -->
<g id="node2" class="node">
<title>Node2</title>
<g id="a_node2"><a xlink:href="parsed__boundary__conditions_8h.html" target="_top" xlink:title=" ">
<polygon fill="none" stroke="black" points="132.5,-123.5 132.5,-153.5 264.5,-153.5 264.5,-123.5 132.5,-123.5"/>
<text text-anchor="start" x="140.5" y="-141.5" font-family="Helvetica,sans-Serif" font-size="10.00">include/tools/parsed</text>
<text text-anchor="middle" x="198.5" y="-130.5" font-family="Helvetica,sans-Serif" font-size="10.00">_boundary_conditions.h</text>
</a>
</g>
</g>
<!-- Node1&#45;&gt;Node2 -->
<g id="edge1" class="edge">
<title>Node1&#45;&gt;Node2</title>
<path fill="none" stroke="midnightblue" d="M228.24,-238.13C222.47,-229.71 216.49,-219.79 212.5,-210 204.91,-191.4 201.33,-168.31 199.72,-153.74"/>
<polygon fill="midnightblue" stroke="midnightblue" points="225.42,-240.21 234.09,-246.31 231.12,-236.14 225.42,-240.21"/>
</g>
<!-- Node7 -->
<g id="node7" class="node">
<title>Node7</title>
<g id="a_node7"><a xlink:href="components_8h.html" target="_top" xlink:title=" ">
<polygon fill="none" stroke="black" points="222,-190.5 222,-209.5 373,-209.5 373,-190.5 222,-190.5"/>
<text text-anchor="middle" x="297.5" y="-197.5" font-family="Helvetica,sans-Serif" font-size="10.00">include/tools/components.h</text>
</a>
</g>
</g>
<!-- Node1&#45;&gt;Node7 -->
<g id="edge6" class="edge">
<title>Node1&#45;&gt;Node7</title>
<path fill="none" stroke="midnightblue" d="M264.55,-238.7C273.35,-228.64 283.29,-217.26 289.93,-209.66"/>
<polygon fill="midnightblue" stroke="midnightblue" points="261.77,-236.57 257.82,-246.4 267.04,-241.17 261.77,-236.57"/>
</g>
<!-- Node3 -->
<g id="node3" class="node">
<title>Node3</title>
<g id="a_node3"><a xlink:href="parsed__boundary__conditions_8cc.html" target="_top" xlink:title=" ">
<polygon fill="none" stroke="black" points="226.5,-56.5 226.5,-86.5 362.5,-86.5 362.5,-56.5 226.5,-56.5"/>
<text text-anchor="start" x="234.5" y="-74.5" font-family="Helvetica,sans-Serif" font-size="10.00">source/parsed_boundary</text>
<text text-anchor="middle" x="294.5" y="-63.5" font-family="Helvetica,sans-Serif" font-size="10.00">_conditions.cc</text>
</a>
</g>
</g>
<!-- Node2&#45;&gt;Node3 -->
<g id="edge2" class="edge">
<title>Node2&#45;&gt;Node3</title>
<path fill="none" stroke="midnightblue" d="M227.69,-117.73C242.55,-107.68 260.26,-95.68 273.71,-86.58"/>
<polygon fill="midnightblue" stroke="midnightblue" points="225.65,-114.89 219.33,-123.4 229.57,-120.69 225.65,-114.89"/>
</g>
<!-- Node4 -->
<g id="node4" class="node">
<title>Node4</title>
<g id="a_node4"><a xlink:href="serial__poisson_8h.html" target="_top" xlink:title=" ">
<polygon fill="none" stroke="black" points="74.5,-62 74.5,-81 208.5,-81 208.5,-62 74.5,-62"/>
<text text-anchor="middle" x="141.5" y="-69" font-family="Helvetica,sans-Serif" font-size="10.00">include/serial_poisson.h</text>
</a>
</g>
</g>
<!-- Node2&#45;&gt;Node4 -->
<g id="edge3" class="edge">
<title>Node2&#45;&gt;Node4</title>
<path fill="none" stroke="midnightblue" d="M179.35,-115.66C169,-103.86 156.82,-89.97 149.12,-81.19"/>
<polygon fill="midnightblue" stroke="midnightblue" points="176.91,-118.18 186.13,-123.4 182.17,-113.57 176.91,-118.18"/>
</g>
<!-- Node5 -->
<g id="node5" class="node">
<title>Node5</title>
<g id="a_node5"><a xlink:href="source_2serial__poisson_8cc.html" target="_top" xlink:title=" ">
<polygon fill="none" stroke="black" points="0,-0.5 0,-19.5 135,-19.5 135,-0.5 0,-0.5"/>
<text text-anchor="middle" x="67.5" y="-7.5" font-family="Helvetica,sans-Serif" font-size="10.00">source/serial_poisson.cc</text>
</a>
</g>
</g>
<!-- Node4&#45;&gt;Node5 -->
<g id="edge4" class="edge">
<title>Node4&#45;&gt;Node5</title>
<path fill="none" stroke="midnightblue" d="M122.81,-55.47C108.66,-44.09 89.72,-28.87 78.08,-19.51"/>
<polygon fill="midnightblue" stroke="midnightblue" points="120.91,-58.44 130.9,-61.98 125.3,-52.98 120.91,-58.44"/>
</g>
<!-- Node6 -->
<g id="node6" class="node">
<title>Node6</title>
<g id="a_node6"><a xlink:href="apps_2serial__poisson_8cc.html" target="_top" xlink:title=" ">
<polygon fill="none" stroke="black" points="153.5,-0.5 153.5,-19.5 279.5,-19.5 279.5,-0.5 153.5,-0.5"/>
<text text-anchor="middle" x="216.5" y="-7.5" font-family="Helvetica,sans-Serif" font-size="10.00">apps/serial_poisson.cc</text>
</a>
</g>
</g>
<!-- Node4&#45;&gt;Node6 -->
<g id="edge5" class="edge">
<title>Node4&#45;&gt;Node6</title>
<path fill="none" stroke="midnightblue" d="M160.44,-55.47C174.79,-44.09 193.98,-28.87 205.77,-19.51"/>
<polygon fill="midnightblue" stroke="midnightblue" points="157.9,-53.02 152.25,-61.98 162.26,-58.5 157.9,-53.02"/>
</g>
<!-- Node7&#45;&gt;Node2 -->
<g id="edge9" class="edge">
<title>Node7&#45;&gt;Node2</title>
<path fill="none" stroke="midnightblue" d="M274.67,-185.28C258.82,-175.75 237.78,-163.11 221.83,-153.52"/>
<polygon fill="midnightblue" stroke="midnightblue" points="272.94,-188.32 283.32,-190.48 276.55,-182.32 272.94,-188.32"/>
</g>
<!-- Node7&#45;&gt;Node3 -->
<g id="edge8" class="edge">
<title>Node7&#45;&gt;Node3</title>
<path fill="none" stroke="midnightblue" d="M297.05,-180.11C296.45,-154.63 295.38,-109.81 294.84,-86.89"/>
<polygon fill="midnightblue" stroke="midnightblue" points="293.56,-180.39 297.29,-190.31 300.56,-180.22 293.56,-180.39"/>
</g>
<!-- Node8 -->
<g id="node8" class="node">
<title>Node8</title>
<g id="a_node8"><a xlink:href="components_8cc.html" target="_top" xlink:title=" ">
<polygon fill="none" stroke="black" points="323,-129 323,-148 448,-148 448,-129 323,-129"/>
<text text-anchor="middle" x="385.5" y="-136" font-family="Helvetica,sans-Serif" font-size="10.00">source/components.cc</text>
</a>
</g>
</g>
<!-- Node7&#45;&gt;Node8 -->
<g id="edge7" class="edge">
<title>Node7&#45;&gt;Node8</title>
<path fill="none" stroke="midnightblue" d="M318.78,-184.61C335.7,-173.17 358.81,-157.55 372.92,-148.01"/>
<polygon fill="midnightblue" stroke="midnightblue" points="316.43,-181.97 310.11,-190.48 320.35,-187.77 316.43,-181.97"/>
</g>
</g>
</svg>
