<?xml version="1.0" encoding="UTF-8" standalone="no"?>
<!DOCTYPE svg PUBLIC "-//W3C//DTD SVG 1.1//EN"
 "http://www.w3.org/Graphics/SVG/1.1/DTD/svg11.dtd">
<!-- Generated by graphviz version 2.43.0 (0)
 -->
<!-- Title: source/patterns_unsigned_int.cc Pages: 1 -->
<svg width="1522pt" height="877pt"
 viewBox="0.00 0.00 1521.50 877.00" xmlns="http://www.w3.org/2000/svg" xmlns:xlink="http://www.w3.org/1999/xlink">
<g id="graph0" class="graph" transform="scale(1 1) rotate(0) translate(4 873)">
<title>source/patterns_unsigned_int.cc</title>
<!-- Node1 -->
<g id="node1" class="node">
<title>Node1</title>
<g id="a_node1"><a xlink:title=" ">
<polygon fill="#bfbfbf" stroke="black" points="344,-838.5 344,-868.5 486,-868.5 486,-838.5 344,-838.5"/>
<text text-anchor="start" x="352" y="-856.5" font-family="Helvetica,sans-Serif" font-size="10.00">source/patterns_unsigned</text>
<text text-anchor="middle" x="415" y="-845.5" font-family="Helvetica,sans-Serif" font-size="10.00">_int.cc</text>
</a>
</g>
</g>
<!-- Node2 -->
<g id="node2" class="node">
<title>Node2</title>
<g id="a_node2"><a xlink:href="patterns__unsigned__int_8h.html" target="_top" xlink:title=" ">
<polygon fill="none" stroke="black" points="354,-771.5 354,-801.5 476,-801.5 476,-771.5 354,-771.5"/>
<text text-anchor="start" x="362" y="-789.5" font-family="Helvetica,sans-Serif" font-size="10.00">parsed_tools/patterns</text>
<text text-anchor="middle" x="415" y="-778.5" font-family="Helvetica,sans-Serif" font-size="10.00">_unsigned_int.h</text>
</a>
</g>
</g>
<!-- Node1&#45;&gt;Node2 -->
<g id="edge1" class="edge">
<title>Node1&#45;&gt;Node2</title>
<path fill="none" stroke="midnightblue" d="M415,-838.4C415,-830.64 415,-820.81 415,-811.86"/>
<polygon fill="midnightblue" stroke="midnightblue" points="418.5,-811.58 415,-801.58 411.5,-811.58 418.5,-811.58"/>
</g>
<!-- Node3 -->
<g id="node3" class="node">
<title>Node3</title>
<g id="a_node3"><a xlink:href="http://www.dealii.org/developer/doxygen/deal.II/config_8h.html" xlink:title=" ">
<polygon fill="none" stroke="black" points="693.5,-525.5 693.5,-544.5 808.5,-544.5 808.5,-525.5 693.5,-525.5"/>
<text text-anchor="middle" x="751" y="-532.5" font-family="Helvetica,sans-Serif" font-size="10.00">deal.II/base/config.h</text>
</a>
</g>
</g>
<!-- Node2&#45;&gt;Node3 -->
<g id="edge2" class="edge">
<title>Node2&#45;&gt;Node3</title>
<path fill="none" stroke="midnightblue" d="M397.11,-771.39C381.26,-757.1 362.33,-734.42 374,-715 439.75,-605.56 593.6,-561.97 683.12,-545.43"/>
<polygon fill="midnightblue" stroke="midnightblue" points="683.95,-548.84 693.18,-543.64 682.72,-541.95 683.95,-548.84"/>
</g>
<!-- Node23 -->
<g id="node23" class="node">
<title>Node23</title>
<g id="a_node23"><a xlink:href="http://www.dealii.org/developer/doxygen/deal.II/patterns_8h.html" xlink:title=" ">
<polygon fill="none" stroke="black" points="383.5,-715.5 383.5,-734.5 508.5,-734.5 508.5,-715.5 383.5,-715.5"/>
<text text-anchor="middle" x="446" y="-722.5" font-family="Helvetica,sans-Serif" font-size="10.00">deal.II/base/patterns.h</text>
</a>
</g>
</g>
<!-- Node2&#45;&gt;Node23 -->
<g id="edge63" class="edge">
<title>Node2&#45;&gt;Node23</title>
<path fill="none" stroke="midnightblue" d="M422.35,-771.4C426.67,-763.11 432.17,-752.55 436.77,-743.71"/>
<polygon fill="midnightblue" stroke="midnightblue" points="439.97,-745.14 441.49,-734.66 433.76,-741.91 439.97,-745.14"/>
</g>
<!-- Node4 -->
<g id="node4" class="node">
<title>Node4</title>
<g id="a_node4"><a xlink:href="http://www.dealii.org/developer/doxygen/deal.II/mpi_8h.html" xlink:title=" ">
<polygon fill="none" stroke="black" points="704,-469.5 704,-488.5 748,-488.5 748,-469.5 704,-469.5"/>
<text text-anchor="middle" x="726" y="-476.5" font-family="Helvetica,sans-Serif" font-size="10.00">mpi.h</text>
</a>
</g>
</g>
<!-- Node3&#45;&gt;Node4 -->
<g id="edge3" class="edge">
<title>Node3&#45;&gt;Node4</title>
<path fill="none" stroke="midnightblue" d="M741.71,-525.08C736.83,-517.85 731.57,-507.41 728.08,-498.4"/>
<polygon fill="midnightblue" stroke="midnightblue" points="731.36,-497.16 724.92,-488.75 724.71,-499.34 731.36,-497.16"/>
</g>
<!-- Node9 -->
<g id="node9" class="node">
<title>Node9</title>
<g id="a_node9"><a xlink:href="http://www.dealii.org/developer/doxygen/deal.II/numbers_8h.html" xlink:title=" ">
<polygon fill="none" stroke="black" points="610,-207 610,-226 738,-226 738,-207 610,-207"/>
<text text-anchor="middle" x="674" y="-214" font-family="Helvetica,sans-Serif" font-size="10.00">deal.II/base/numbers.h</text>
</a>
</g>
</g>
<!-- Node3&#45;&gt;Node9 -->
<g id="edge61" class="edge">
<title>Node3&#45;&gt;Node9</title>
<path fill="none" stroke="midnightblue" d="M753.01,-525.23C765.77,-496.57 818.04,-403.61 786,-335 775.45,-312.42 761.2,-316.03 743,-299 720.31,-277.77 695.8,-251.56 682.57,-234.69"/>
<polygon fill="midnightblue" stroke="midnightblue" points="685.2,-232.36 676.46,-226.37 679.55,-236.5 685.2,-232.36"/>
</g>
<!-- Node10 -->
<g id="node10" class="node">
<title>Node10</title>
<g id="a_node10"><a xlink:href="http://www.dealii.org/developer/doxygen/deal.II/types_8h.html" xlink:title=" ">
<polygon fill="none" stroke="black" points="710,-140 710,-159 822,-159 822,-140 710,-140"/>
<text text-anchor="middle" x="766" y="-147" font-family="Helvetica,sans-Serif" font-size="10.00">deal.II/base/types.h</text>
</a>
</g>
</g>
<!-- Node3&#45;&gt;Node10 -->
<g id="edge62" class="edge">
<title>Node3&#45;&gt;Node10</title>
<path fill="none" stroke="midnightblue" d="M757.85,-525.23C767.84,-517.13 784.57,-504.09 795,-489 810.03,-467.26 810.49,-459.04 815,-433 832.37,-332.73 785.6,-213.61 770.09,-168.77"/>
<polygon fill="midnightblue" stroke="midnightblue" points="773.41,-167.65 766.95,-159.25 766.76,-169.84 773.41,-167.65"/>
</g>
<!-- Node4&#45;&gt;Node3 -->
<g id="edge4" class="edge">
<title>Node4&#45;&gt;Node3</title>
<path fill="none" stroke="midnightblue" d="M735.18,-488.75C740.05,-495.94 745.32,-506.36 748.84,-515.4"/>
<polygon fill="midnightblue" stroke="midnightblue" points="745.58,-516.69 752.04,-525.08 752.22,-514.49 745.58,-516.69"/>
</g>
<!-- Node5 -->
<g id="node5" class="node">
<title>Node5</title>
<g id="a_node5"><a xlink:href="http://www.dealii.org/developer/doxygen/deal.II/array__view_8h.html" xlink:title=" ">
<polygon fill="none" stroke="black" points="608.5,-402.5 608.5,-432.5 709.5,-432.5 709.5,-402.5 608.5,-402.5"/>
<text text-anchor="start" x="616.5" y="-420.5" font-family="Helvetica,sans-Serif" font-size="10.00">deal.II/base/array</text>
<text text-anchor="middle" x="659" y="-409.5" font-family="Helvetica,sans-Serif" font-size="10.00">_view.h</text>
</a>
</g>
</g>
<!-- Node4&#45;&gt;Node5 -->
<g id="edge5" class="edge">
<title>Node4&#45;&gt;Node5</title>
<path fill="none" stroke="midnightblue" d="M716.4,-469.48C707.58,-461.64 694.15,-449.71 682.5,-439.37"/>
<polygon fill="midnightblue" stroke="midnightblue" points="684.59,-436.55 674.79,-432.52 679.94,-441.78 684.59,-436.55"/>
</g>
<!-- Node4&#45;&gt;Node9 -->
<g id="edge59" class="edge">
<title>Node4&#45;&gt;Node9</title>
<path fill="none" stroke="midnightblue" d="M727.57,-469.24C729.78,-454.22 732.18,-423.14 719,-402 702.75,-375.93 675.04,-392.79 660,-366 636.52,-324.17 654.35,-265.12 666,-235.67"/>
<polygon fill="midnightblue" stroke="midnightblue" points="669.31,-236.83 669.93,-226.25 662.85,-234.14 669.31,-236.83"/>
</g>
<!-- Node13 -->
<g id="node13" class="node">
<title>Node13</title>
<g id="a_node13"><a xlink:href="http://www.dealii.org/developer/doxygen/deal.II/template__constraints_8h.html" xlink:title=" ">
<polygon fill="none" stroke="black" points="212,-67.5 212,-97.5 332,-97.5 332,-67.5 212,-67.5"/>
<text text-anchor="start" x="220" y="-85.5" font-family="Helvetica,sans-Serif" font-size="10.00">deal.II/base/template</text>
<text text-anchor="middle" x="272" y="-74.5" font-family="Helvetica,sans-Serif" font-size="10.00">_constraints.h</text>
</a>
</g>
</g>
<!-- Node4&#45;&gt;Node13 -->
<g id="edge60" class="edge">
<title>Node4&#45;&gt;Node13</title>
<path fill="none" stroke="midnightblue" d="M703.66,-472.42C677.71,-465.41 634.11,-451.96 600,-433 580.65,-422.24 581.3,-410.84 561,-402 462.92,-359.27 421.74,-407.17 323,-366 276.97,-346.81 265.36,-336.94 233,-299 184.83,-242.51 169.99,-198.35 207,-134 214.04,-121.76 225.33,-111.44 236.54,-103.39"/>
<polygon fill="midnightblue" stroke="midnightblue" points="238.68,-106.17 245.02,-97.68 234.77,-100.36 238.68,-106.17"/>
</g>
<!-- Node18 -->
<g id="node18" class="node">
<title>Node18</title>
<g id="a_node18"><a xlink:href="http://www.dealii.org/developer/doxygen/deal.II/index__set_8h.html" xlink:title=" ">
<polygon fill="none" stroke="black" points="916.5,-402.5 916.5,-432.5 1019.5,-432.5 1019.5,-402.5 916.5,-402.5"/>
<text text-anchor="start" x="924.5" y="-420.5" font-family="Helvetica,sans-Serif" font-size="10.00">deal.II/base/index</text>
<text text-anchor="middle" x="968" y="-409.5" font-family="Helvetica,sans-Serif" font-size="10.00">_set.h</text>
</a>
</g>
</g>
<!-- Node4&#45;&gt;Node18 -->
<g id="edge42" class="edge">
<title>Node4&#45;&gt;Node18</title>
<path fill="none" stroke="midnightblue" d="M748.39,-471.41C784.04,-462.02 854.53,-444.57 906.11,-432.29"/>
<polygon fill="midnightblue" stroke="midnightblue" points="907.24,-435.62 916.16,-429.91 905.63,-428.81 907.24,-435.62"/>
</g>
<!-- Node22 -->
<g id="node22" class="node">
<title>Node22</title>
<g id="a_node22"><a xlink:href="http://www.dealii.org/developer/doxygen/deal.II/mpi__tags_8h.html" xlink:title=" ">
<polygon fill="none" stroke="black" points="422,-408 422,-427 552,-427 552,-408 422,-408"/>
<text text-anchor="middle" x="487" y="-415" font-family="Helvetica,sans-Serif" font-size="10.00">deal.II/base/mpi_tags.h</text>
</a>
</g>
</g>
<!-- Node4&#45;&gt;Node22 -->
<g id="edge57" class="edge">
<title>Node4&#45;&gt;Node22</title>
<path fill="none" stroke="midnightblue" d="M703.94,-472.51C664.73,-462.75 582.18,-442.2 530.98,-429.45"/>
<polygon fill="midnightblue" stroke="midnightblue" points="531.73,-426.03 521.18,-427.01 530.04,-432.82 531.73,-426.03"/>
</g>
<!-- Node5&#45;&gt;Node3 -->
<g id="edge6" class="edge">
<title>Node5&#45;&gt;Node3</title>
<path fill="none" stroke="midnightblue" d="M664.2,-432.77C670.13,-447.79 680.86,-471.62 695,-489 704.57,-500.76 717.67,-511.49 728.79,-519.52"/>
<polygon fill="midnightblue" stroke="midnightblue" points="726.98,-522.53 737.19,-525.36 730.97,-516.78 726.98,-522.53"/>
</g>
<!-- Node6 -->
<g id="node6" class="node">
<title>Node6</title>
<g id="a_node6"><a xlink:href="http://www.dealii.org/developer/doxygen/deal.II/include_2deal_8II_2base_2exceptions_8h.html" xlink:title=" ">
<polygon fill="none" stroke="black" points="877,-73 877,-92 1015,-92 1015,-73 877,-73"/>
<text text-anchor="middle" x="946" y="-80" font-family="Helvetica,sans-Serif" font-size="10.00">deal.II/base/exceptions.h</text>
</a>
</g>
</g>
<!-- Node5&#45;&gt;Node6 -->
<g id="edge7" class="edge">
<title>Node5&#45;&gt;Node6</title>
<path fill="none" stroke="midnightblue" d="M645.71,-402.28C605.36,-357.41 491.35,-216.88 564,-134 583.62,-111.61 760.65,-95.94 866.7,-88.47"/>
<polygon fill="midnightblue" stroke="midnightblue" points="867,-91.96 876.73,-87.77 866.52,-84.98 867,-91.96"/>
</g>
<!-- Node7 -->
<g id="node7" class="node">
<title>Node7</title>
<g id="a_node7"><a xlink:href="http://www.dealii.org/developer/doxygen/deal.II/memory__space_8h.html" xlink:title=" ">
<polygon fill="none" stroke="black" points="668.5,-335.5 668.5,-365.5 785.5,-365.5 785.5,-335.5 668.5,-335.5"/>
<text text-anchor="start" x="676.5" y="-353.5" font-family="Helvetica,sans-Serif" font-size="10.00">deal.II/base/memory</text>
<text text-anchor="middle" x="727" y="-342.5" font-family="Helvetica,sans-Serif" font-size="10.00">_space.h</text>
</a>
</g>
</g>
<!-- Node5&#45;&gt;Node7 -->
<g id="edge9" class="edge">
<title>Node5&#45;&gt;Node7</title>
<path fill="none" stroke="midnightblue" d="M673.75,-402.4C682.84,-393.71 694.67,-382.4 704.87,-372.66"/>
<polygon fill="midnightblue" stroke="midnightblue" points="707.46,-375.02 712.27,-365.58 702.63,-369.96 707.46,-375.02"/>
</g>
<!-- Node8 -->
<g id="node8" class="node">
<title>Node8</title>
<g id="a_node8"><a xlink:href="http://www.dealii.org/developer/doxygen/deal.II/symmetric__tensor_8h.html" xlink:title=" ">
<polygon fill="none" stroke="black" points="332,-335.5 332,-365.5 460,-365.5 460,-335.5 332,-335.5"/>
<text text-anchor="start" x="340" y="-353.5" font-family="Helvetica,sans-Serif" font-size="10.00">deal.II/base/symmetric</text>
<text text-anchor="middle" x="396" y="-342.5" font-family="Helvetica,sans-Serif" font-size="10.00">_tensor.h</text>
</a>
</g>
</g>
<!-- Node5&#45;&gt;Node8 -->
<g id="edge11" class="edge">
<title>Node5&#45;&gt;Node8</title>
<path fill="none" stroke="midnightblue" d="M608.29,-403.97C566.85,-393.73 507.93,-379.16 462.67,-367.98"/>
<polygon fill="midnightblue" stroke="midnightblue" points="463.49,-364.58 452.95,-365.57 461.81,-371.37 463.49,-364.58"/>
</g>
<!-- Node15 -->
<g id="node15" class="node">
<title>Node15</title>
<g id="a_node15"><a xlink:href="http://www.dealii.org/developer/doxygen/deal.II/tensor_8h.html" xlink:title=" ">
<polygon fill="none" stroke="black" points="382,-274 382,-293 498,-293 498,-274 382,-274"/>
<text text-anchor="middle" x="440" y="-281" font-family="Helvetica,sans-Serif" font-size="10.00">deal.II/base/tensor.h</text>
</a>
</g>
</g>
<!-- Node5&#45;&gt;Node15 -->
<g id="edge41" class="edge">
<title>Node5&#45;&gt;Node15</title>
<path fill="none" stroke="midnightblue" d="M635.56,-402.37C593.3,-376.9 504.82,-323.57 462.93,-298.32"/>
<polygon fill="midnightblue" stroke="midnightblue" points="464.63,-295.26 454.26,-293.1 461.02,-301.26 464.63,-295.26"/>
</g>
<!-- Node6&#45;&gt;Node3 -->
<g id="edge8" class="edge">
<title>Node6&#45;&gt;Node3</title>
<path fill="none" stroke="midnightblue" d="M1015.22,-91.88C1129.7,-107.69 1346,-146.67 1346,-215.5 1346,-351.5 1346,-351.5 1346,-351.5 1346,-434.99 1294.66,-455.91 1218,-489 1148.02,-519.2 930.76,-529.3 818.97,-532.54"/>
<polygon fill="midnightblue" stroke="midnightblue" points="818.71,-529.05 808.82,-532.82 818.91,-536.04 818.71,-529.05"/>
</g>
<!-- Node7&#45;&gt;Node3 -->
<g id="edge10" class="edge">
<title>Node7&#45;&gt;Node3</title>
<path fill="none" stroke="midnightblue" d="M736.02,-365.93C741.65,-375.72 748.49,-389.17 752,-402 762.75,-441.28 758.09,-489.63 754.24,-515.53"/>
<polygon fill="midnightblue" stroke="midnightblue" points="750.78,-515.02 752.63,-525.46 757.69,-516.14 750.78,-515.02"/>
</g>
<!-- Node8&#45;&gt;Node3 -->
<g id="edge12" class="edge">
<title>Node8&#45;&gt;Node3</title>
<path fill="none" stroke="midnightblue" d="M373.63,-365.65C361.83,-374.5 348.49,-387.05 342,-402 326.61,-437.47 316.2,-460.2 342,-489 364.33,-513.93 573.14,-526.47 683.44,-531.41"/>
<polygon fill="midnightblue" stroke="midnightblue" points="683.33,-534.91 693.48,-531.85 683.64,-527.91 683.33,-534.91"/>
</g>
<!-- Node8&#45;&gt;Node9 -->
<g id="edge13" class="edge">
<title>Node8&#45;&gt;Node9</title>
<path fill="none" stroke="midnightblue" d="M427.68,-335.36C449.94,-325.36 480.38,-311.55 507,-299 556.93,-275.46 614.72,-246.98 647.56,-230.68"/>
<polygon fill="midnightblue" stroke="midnightblue" points="649.13,-233.81 656.52,-226.22 646.01,-227.54 649.13,-233.81"/>
</g>
<!-- Node12 -->
<g id="node12" class="node">
<title>Node12</title>
<g id="a_node12"><a xlink:href="http://www.dealii.org/developer/doxygen/deal.II/table__indices_8h.html" xlink:title=" ">
<polygon fill="none" stroke="black" points="320.5,-134.5 320.5,-164.5 421.5,-164.5 421.5,-134.5 320.5,-134.5"/>
<text text-anchor="start" x="328.5" y="-152.5" font-family="Helvetica,sans-Serif" font-size="10.00">deal.II/base/table</text>
<text text-anchor="middle" x="371" y="-141.5" font-family="Helvetica,sans-Serif" font-size="10.00">_indices.h</text>
</a>
</g>
</g>
<!-- Node8&#45;&gt;Node12 -->
<g id="edge19" class="edge">
<title>Node8&#45;&gt;Node12</title>
<path fill="none" stroke="midnightblue" d="M387.7,-335.47C382.36,-325.63 375.91,-311.97 373,-299 367.87,-276.08 369.03,-210.59 370.12,-174.72"/>
<polygon fill="midnightblue" stroke="midnightblue" points="373.62,-174.73 370.45,-164.62 366.63,-174.5 373.62,-174.73"/>
</g>
<!-- Node8&#45;&gt;Node13 -->
<g id="edge27" class="edge">
<title>Node8&#45;&gt;Node13</title>
<path fill="none" stroke="midnightblue" d="M350.61,-335.44C305.54,-318.78 238.95,-286.2 209,-232 185.23,-188.98 223.66,-135.16 250.18,-105.56"/>
<polygon fill="midnightblue" stroke="midnightblue" points="253.06,-107.6 257.28,-97.88 247.92,-102.84 253.06,-107.6"/>
</g>
<!-- Node8&#45;&gt;Node15 -->
<g id="edge28" class="edge">
<title>Node8&#45;&gt;Node15</title>
<path fill="none" stroke="midnightblue" d="M405.55,-335.4C412.27,-325.46 421.31,-312.11 428.44,-301.57"/>
<polygon fill="midnightblue" stroke="midnightblue" points="431.41,-303.44 434.11,-293.19 425.61,-299.51 431.41,-303.44"/>
</g>
<!-- Node9&#45;&gt;Node3 -->
<g id="edge14" class="edge">
<title>Node9&#45;&gt;Node3</title>
<path fill="none" stroke="midnightblue" d="M687.06,-226.13C704.34,-241.34 733.97,-273.71 761,-299 779.2,-316.03 793.45,-312.42 804,-335 833.41,-397.98 791.77,-481.48 766.74,-516.93"/>
<polygon fill="midnightblue" stroke="midnightblue" points="763.71,-515.13 760.49,-525.23 769.3,-519.34 763.71,-515.13"/>
</g>
<!-- Node9&#45;&gt;Node10 -->
<g id="edge15" class="edge">
<title>Node9&#45;&gt;Node10</title>
<path fill="none" stroke="midnightblue" d="M686.41,-206.73C701.58,-196.01 727.48,-177.72 745.6,-164.91"/>
<polygon fill="midnightblue" stroke="midnightblue" points="747.64,-167.76 753.79,-159.13 743.6,-162.04 747.64,-167.76"/>
</g>
<!-- Node11 -->
<g id="node11" class="node">
<title>Node11</title>
<g id="a_node11"><a xlink:href="http://www.dealii.org/developer/doxygen/deal.II/adolc__math_8h.html" xlink:title=" ">
<polygon fill="none" stroke="black" points="572.5,-134.5 572.5,-164.5 691.5,-164.5 691.5,-134.5 572.5,-134.5"/>
<text text-anchor="start" x="580.5" y="-152.5" font-family="Helvetica,sans-Serif" font-size="10.00">deal.II/differentiation</text>
<text text-anchor="middle" x="632" y="-141.5" font-family="Helvetica,sans-Serif" font-size="10.00">/ad/adolc_math.h</text>
</a>
</g>
</g>
<!-- Node9&#45;&gt;Node11 -->
<g id="edge17" class="edge">
<title>Node9&#45;&gt;Node11</title>
<path fill="none" stroke="midnightblue" d="M668.34,-206.73C662.77,-198.12 654.04,-184.61 646.53,-172.99"/>
<polygon fill="midnightblue" stroke="midnightblue" points="649.47,-171.09 641.1,-164.59 643.59,-174.89 649.47,-171.09"/>
</g>
<!-- Node10&#45;&gt;Node3 -->
<g id="edge16" class="edge">
<title>Node10&#45;&gt;Node3</title>
<path fill="none" stroke="midnightblue" d="M773.52,-159.25C795.45,-193.84 851.8,-324.47 833,-433 828.49,-459.04 828.03,-467.26 813,-489 804.63,-501.11 792.21,-511.89 780.53,-519.86"/>
<polygon fill="midnightblue" stroke="midnightblue" points="778.38,-517.07 771.81,-525.39 782.13,-522.99 778.38,-517.07"/>
</g>
<!-- Node11&#45;&gt;Node3 -->
<g id="edge18" class="edge">
<title>Node11&#45;&gt;Node3</title>
<path fill="none" stroke="midnightblue" d="M622.97,-164.72C594,-210.2 504.23,-350.12 486,-366 485.17,-366.72 370.91,-376.37 413,-433 445.54,-476.78 596.45,-508.54 685.24,-523.8"/>
<polygon fill="midnightblue" stroke="midnightblue" points="684.78,-527.27 695.22,-525.49 685.95,-520.37 684.78,-527.27"/>
</g>
<!-- Node12&#45;&gt;Node3 -->
<g id="edge20" class="edge">
<title>Node12&#45;&gt;Node3</title>
<path fill="none" stroke="midnightblue" d="M366.34,-164.66C347.69,-222.58 281.49,-440.73 326,-489 349.74,-514.75 569.63,-526.99 683.43,-531.65"/>
<polygon fill="midnightblue" stroke="midnightblue" points="683.3,-535.15 693.44,-532.05 683.58,-528.15 683.3,-535.15"/>
</g>
<!-- Node12&#45;&gt;Node6 -->
<g id="edge21" class="edge">
<title>Node12&#45;&gt;Node6</title>
<path fill="none" stroke="midnightblue" d="M421.62,-142.34C443.29,-139.72 468.88,-136.67 492,-134 623.23,-118.84 775.91,-102.03 866.56,-92.13"/>
<polygon fill="midnightblue" stroke="midnightblue" points="867.19,-95.58 876.76,-91.02 866.43,-88.62 867.19,-95.58"/>
</g>
<!-- Node12&#45;&gt;Node13 -->
<g id="edge22" class="edge">
<title>Node12&#45;&gt;Node13</title>
<path fill="none" stroke="midnightblue" d="M349.52,-134.4C335.64,-125.28 317.37,-113.29 302.06,-103.24"/>
<polygon fill="midnightblue" stroke="midnightblue" points="303.72,-100.14 293.44,-97.58 299.88,-105.99 303.72,-100.14"/>
</g>
<!-- Node13&#45;&gt;Node3 -->
<g id="edge23" class="edge">
<title>Node13&#45;&gt;Node3</title>
<path fill="none" stroke="midnightblue" d="M234.52,-97.56C218.13,-105.68 200.33,-117.58 190,-134 105.32,-268.63 101.05,-403.27 235,-489 271.87,-512.6 551.2,-526.33 682.81,-531.56"/>
<polygon fill="midnightblue" stroke="midnightblue" points="683.04,-535.07 693.16,-531.96 683.31,-528.07 683.04,-535.07"/>
</g>
<!-- Node14 -->
<g id="node14" class="node">
<title>Node14</title>
<g id="a_node14"><a xlink:href="http://www.dealii.org/developer/doxygen/deal.II/complex__overloads_8h.html" xlink:title=" ">
<polygon fill="none" stroke="black" points="213,-0.5 213,-30.5 331,-30.5 331,-0.5 213,-0.5"/>
<text text-anchor="start" x="221" y="-18.5" font-family="Helvetica,sans-Serif" font-size="10.00">deal.II/base/complex</text>
<text text-anchor="middle" x="272" y="-7.5" font-family="Helvetica,sans-Serif" font-size="10.00">_overloads.h</text>
</a>
</g>
</g>
<!-- Node13&#45;&gt;Node14 -->
<g id="edge24" class="edge">
<title>Node13&#45;&gt;Node14</title>
<path fill="none" stroke="midnightblue" d="M266.32,-67.4C265.29,-59.56 265.01,-49.6 265.46,-40.57"/>
<polygon fill="midnightblue" stroke="midnightblue" points="268.95,-40.84 266.33,-30.58 261.97,-40.24 268.95,-40.84"/>
</g>
<!-- Node14&#45;&gt;Node3 -->
<g id="edge25" class="edge">
<title>Node14&#45;&gt;Node3</title>
<path fill="none" stroke="midnightblue" d="M331.32,-16.79C571.63,-18.72 1460,-33.65 1460,-148.5 1460,-217.5 1460,-217.5 1460,-217.5 1460,-369.24 1396.65,-440.11 1253,-489 1174.42,-515.75 936.6,-527.56 818.72,-531.89"/>
<polygon fill="midnightblue" stroke="midnightblue" points="818.6,-528.39 808.73,-532.25 818.85,-535.39 818.6,-528.39"/>
</g>
<!-- Node14&#45;&gt;Node13 -->
<g id="edge26" class="edge">
<title>Node14&#45;&gt;Node13</title>
<path fill="none" stroke="midnightblue" d="M277.67,-30.58C278.7,-38.41 278.99,-48.37 278.55,-57.4"/>
<polygon fill="midnightblue" stroke="midnightblue" points="275.06,-57.13 277.68,-67.4 282.03,-57.74 275.06,-57.13"/>
</g>
<!-- Node15&#45;&gt;Node3 -->
<g id="edge29" class="edge">
<title>Node15&#45;&gt;Node3</title>
<path fill="none" stroke="midnightblue" d="M447.97,-293.24C461.25,-308.91 484.95,-342.34 469,-366 445.15,-401.38 403.85,-366.62 380,-402 358.38,-434.06 354.36,-460.06 380,-489 399.73,-511.27 581.7,-524.73 683.25,-530.57"/>
<polygon fill="midnightblue" stroke="midnightblue" points="683.24,-534.08 693.42,-531.15 683.63,-527.09 683.24,-534.08"/>
</g>
<!-- Node15&#45;&gt;Node6 -->
<g id="edge30" class="edge">
<title>Node15&#45;&gt;Node6</title>
<path fill="none" stroke="midnightblue" d="M444.67,-273.83C461.15,-243.4 516.26,-142.87 530,-134 583.97,-99.15 761.48,-88.35 866.38,-85"/>
<polygon fill="midnightblue" stroke="midnightblue" points="866.72,-88.49 876.61,-84.69 866.51,-81.5 866.72,-88.49"/>
</g>
<!-- Node15&#45;&gt;Node9 -->
<g id="edge31" class="edge">
<title>Node15&#45;&gt;Node9</title>
<path fill="none" stroke="midnightblue" d="M471.07,-273.87C512.89,-262.25 587.33,-241.58 633.49,-228.75"/>
<polygon fill="midnightblue" stroke="midnightblue" points="634.47,-232.11 643.17,-226.06 632.6,-225.37 634.47,-232.11"/>
</g>
<!-- Node15&#45;&gt;Node12 -->
<g id="edge32" class="edge">
<title>Node15&#45;&gt;Node12</title>
<path fill="none" stroke="midnightblue" d="M437.01,-273.66C431.69,-258.39 419.83,-226.29 406,-201 400.76,-191.42 394.11,-181.42 388.01,-172.87"/>
<polygon fill="midnightblue" stroke="midnightblue" points="390.67,-170.58 381.95,-164.57 385.02,-174.71 390.67,-170.58"/>
</g>
<!-- Node15&#45;&gt;Node13 -->
<g id="edge33" class="edge">
<title>Node15&#45;&gt;Node13</title>
<path fill="none" stroke="midnightblue" d="M442.39,-273.98C448.75,-249.28 463.46,-176.72 430,-134 409.17,-107.4 374.26,-94.58 342.54,-88.49"/>
<polygon fill="midnightblue" stroke="midnightblue" points="342.82,-84.98 332.37,-86.74 341.64,-91.88 342.82,-84.98"/>
</g>
<!-- Node16 -->
<g id="node16" class="node">
<title>Node16</title>
<g id="a_node16"><a xlink:href="http://www.dealii.org/developer/doxygen/deal.II/tensor__accessors_8h.html" xlink:title=" ">
<polygon fill="none" stroke="black" points="218.5,-201.5 218.5,-231.5 325.5,-231.5 325.5,-201.5 218.5,-201.5"/>
<text text-anchor="start" x="226.5" y="-219.5" font-family="Helvetica,sans-Serif" font-size="10.00">deal.II/base/tensor</text>
<text text-anchor="middle" x="272" y="-208.5" font-family="Helvetica,sans-Serif" font-size="10.00">_accessors.h</text>
</a>
</g>
</g>
<!-- Node15&#45;&gt;Node16 -->
<g id="edge34" class="edge">
<title>Node15&#45;&gt;Node16</title>
<path fill="none" stroke="midnightblue" d="M417.69,-273.87C392.37,-264.07 350.39,-247.83 317.98,-235.29"/>
<polygon fill="midnightblue" stroke="midnightblue" points="318.85,-231.87 308.26,-231.53 316.32,-238.4 318.85,-231.87"/>
</g>
<!-- Node17 -->
<g id="node17" class="node">
<title>Node17</title>
<g id="a_node17"><a xlink:href="http://www.dealii.org/developer/doxygen/deal.II/include_2deal_8II_2base_2utilities_8h.html" xlink:title=" ">
<polygon fill="none" stroke="black" points="1171,-207 1171,-226 1293,-226 1293,-207 1171,-207"/>
<text text-anchor="middle" x="1232" y="-214" font-family="Helvetica,sans-Serif" font-size="10.00">deal.II/base/utilities.h</text>
</a>
</g>
</g>
<!-- Node15&#45;&gt;Node17 -->
<g id="edge38" class="edge">
<title>Node15&#45;&gt;Node17</title>
<path fill="none" stroke="midnightblue" d="M498.24,-277.72C640.54,-266.04 1005.57,-236.08 1160.62,-223.36"/>
<polygon fill="midnightblue" stroke="midnightblue" points="1161.29,-226.82 1170.97,-222.51 1160.72,-219.84 1161.29,-226.82"/>
</g>
<!-- Node16&#45;&gt;Node3 -->
<g id="edge35" class="edge">
<title>Node16&#45;&gt;Node3</title>
<path fill="none" stroke="midnightblue" d="M262.39,-231.52C248.48,-252.77 223.36,-294.9 214,-335 197.71,-404.82 204.72,-445.88 262,-489 294.88,-513.75 556.31,-526.76 682.84,-531.67"/>
<polygon fill="midnightblue" stroke="midnightblue" points="683.06,-535.18 693.19,-532.06 683.33,-528.18 683.06,-535.18"/>
</g>
<!-- Node16&#45;&gt;Node12 -->
<g id="edge36" class="edge">
<title>Node16&#45;&gt;Node12</title>
<path fill="none" stroke="midnightblue" d="M293.48,-201.4C307.36,-192.28 325.63,-180.29 340.94,-170.24"/>
<polygon fill="midnightblue" stroke="midnightblue" points="343.12,-172.99 349.56,-164.58 339.28,-167.14 343.12,-172.99"/>
</g>
<!-- Node16&#45;&gt;Node13 -->
<g id="edge37" class="edge">
<title>Node16&#45;&gt;Node13</title>
<path fill="none" stroke="midnightblue" d="M272,-201.37C272,-179.04 272,-135.31 272,-107.85"/>
<polygon fill="midnightblue" stroke="midnightblue" points="275.5,-107.52 272,-97.52 268.5,-107.52 275.5,-107.52"/>
</g>
<!-- Node17&#45;&gt;Node3 -->
<g id="edge39" class="edge">
<title>Node17&#45;&gt;Node3</title>
<path fill="none" stroke="midnightblue" d="M1236.36,-226.21C1246.34,-246.99 1270,-301.33 1270,-349.5 1270,-418.5 1270,-418.5 1270,-418.5 1270,-509.91 959.39,-529.01 818.76,-532.98"/>
<polygon fill="midnightblue" stroke="midnightblue" points="818.43,-529.48 808.53,-533.25 818.61,-536.48 818.43,-529.48"/>
</g>
<!-- Node17&#45;&gt;Node6 -->
<g id="edge40" class="edge">
<title>Node17&#45;&gt;Node6</title>
<path fill="none" stroke="midnightblue" d="M1222.87,-206.8C1205.07,-190.29 1163.86,-154.24 1123,-134 1084.92,-115.13 1038.63,-102.24 1002.95,-94.21"/>
<polygon fill="midnightblue" stroke="midnightblue" points="1003.69,-90.79 993.18,-92.07 1002.2,-97.62 1003.69,-90.79"/>
</g>
<!-- Node18&#45;&gt;Node3 -->
<g id="edge43" class="edge">
<title>Node18&#45;&gt;Node3</title>
<path fill="none" stroke="midnightblue" d="M958.46,-432.51C946.89,-448.45 925.95,-474.18 902,-489 875.16,-505.61 841.83,-516.39 813.32,-523.22"/>
<polygon fill="midnightblue" stroke="midnightblue" points="812.43,-519.83 803.46,-525.47 813.99,-526.65 812.43,-519.83"/>
</g>
<!-- Node18&#45;&gt;Node4 -->
<g id="edge56" class="edge">
<title>Node18&#45;&gt;Node4</title>
<path fill="none" stroke="midnightblue" d="M916.57,-432.58C868.66,-444.74 798.85,-461.8 758.29,-471.17"/>
<polygon fill="midnightblue" stroke="midnightblue" points="757.36,-467.79 748.4,-473.43 758.92,-474.61 757.36,-467.79"/>
</g>
<!-- Node18&#45;&gt;Node6 -->
<g id="edge44" class="edge">
<title>Node18&#45;&gt;Node6</title>
<path fill="none" stroke="midnightblue" d="M958.78,-402.26C947.06,-384.92 925.5,-355.42 902,-335 878.52,-314.61 857.32,-326.06 842,-299 800.92,-226.44 888.19,-135.18 927.8,-99.15"/>
<polygon fill="midnightblue" stroke="midnightblue" points="930.32,-101.59 935.47,-92.33 925.67,-96.37 930.32,-101.59"/>
</g>
<!-- Node18&#45;&gt;Node17 -->
<g id="edge55" class="edge">
<title>Node18&#45;&gt;Node17</title>
<path fill="none" stroke="midnightblue" d="M1019.68,-409.62C1057.56,-402.85 1109.13,-389.91 1149,-366 1184.32,-344.82 1193.41,-335.22 1213,-299 1223.67,-279.27 1228.38,-253.7 1230.44,-236.51"/>
<polygon fill="midnightblue" stroke="midnightblue" points="1233.97,-236.42 1231.48,-226.12 1227,-235.72 1233.97,-236.42"/>
</g>
<!-- Node19 -->
<g id="node19" class="node">
<title>Node19</title>
<g id="a_node19"><a xlink:href="http://www.dealii.org/developer/doxygen/deal.II/thread__management_8h.html" xlink:title=" ">
<polygon fill="none" stroke="black" points="1032.5,-335.5 1032.5,-365.5 1139.5,-365.5 1139.5,-335.5 1032.5,-335.5"/>
<text text-anchor="start" x="1040.5" y="-353.5" font-family="Helvetica,sans-Serif" font-size="10.00">deal.II/base/thread</text>
<text text-anchor="middle" x="1086" y="-342.5" font-family="Helvetica,sans-Serif" font-size="10.00">_management.h</text>
</a>
</g>
</g>
<!-- Node18&#45;&gt;Node19 -->
<g id="edge45" class="edge">
<title>Node18&#45;&gt;Node19</title>
<path fill="none" stroke="midnightblue" d="M993.6,-402.4C1010.54,-393.07 1032.94,-380.73 1051.45,-370.53"/>
<polygon fill="midnightblue" stroke="midnightblue" points="1053.38,-373.47 1060.45,-365.58 1050,-367.34 1053.38,-373.47"/>
</g>
<!-- Node19&#45;&gt;Node3 -->
<g id="edge46" class="edge">
<title>Node19&#45;&gt;Node3</title>
<path fill="none" stroke="midnightblue" d="M1088.33,-365.59C1092.08,-393.53 1095.9,-456.08 1062,-489 1028.36,-521.67 899.68,-530.76 818.75,-533.2"/>
<polygon fill="midnightblue" stroke="midnightblue" points="818.54,-529.7 808.64,-533.48 818.73,-536.7 818.54,-529.7"/>
</g>
<!-- Node19&#45;&gt;Node6 -->
<g id="edge47" class="edge">
<title>Node19&#45;&gt;Node6</title>
<path fill="none" stroke="midnightblue" d="M1079.13,-335.25C1057.43,-290.28 991.15,-153.26 980,-134 973.34,-122.49 965.01,-110.1 958.27,-100.47"/>
<polygon fill="midnightblue" stroke="midnightblue" points="961.04,-98.33 952.39,-92.21 955.33,-102.38 961.04,-98.33"/>
</g>
<!-- Node19&#45;&gt;Node13 -->
<g id="edge54" class="edge">
<title>Node19&#45;&gt;Node13</title>
<path fill="none" stroke="midnightblue" d="M1071.65,-335.32C1026.66,-291.18 887.96,-157.8 831,-134 744.56,-97.87 472.58,-87.53 342.57,-84.61"/>
<polygon fill="midnightblue" stroke="midnightblue" points="342.4,-81.11 332.32,-84.39 342.24,-88.11 342.4,-81.11"/>
</g>
<!-- Node20 -->
<g id="node20" class="node">
<title>Node20</title>
<g id="a_node20"><a xlink:href="http://www.dealii.org/developer/doxygen/deal.II/multithread__info_8h.html" xlink:title=" ">
<polygon fill="none" stroke="black" points="1070.5,-268.5 1070.5,-298.5 1203.5,-298.5 1203.5,-268.5 1070.5,-268.5"/>
<text text-anchor="start" x="1078.5" y="-286.5" font-family="Helvetica,sans-Serif" font-size="10.00">deal.II/base/multithread</text>
<text text-anchor="middle" x="1137" y="-275.5" font-family="Helvetica,sans-Serif" font-size="10.00">_info.h</text>
</a>
</g>
</g>
<!-- Node19&#45;&gt;Node20 -->
<g id="edge48" class="edge">
<title>Node19&#45;&gt;Node20</title>
<path fill="none" stroke="midnightblue" d="M1097.07,-335.4C1103.68,-326.96 1112.23,-316.07 1119.72,-306.52"/>
<polygon fill="midnightblue" stroke="midnightblue" points="1122.54,-308.6 1125.96,-298.58 1117.03,-304.28 1122.54,-308.6"/>
</g>
<!-- Node21 -->
<g id="node21" class="node">
<title>Node21</title>
<g id="a_node21"><a xlink:href="http://www.dealii.org/developer/doxygen/deal.II/tuple_8h.html" xlink:title=" ">
<polygon fill="none" stroke="black" points="850.5,-268.5 850.5,-298.5 975.5,-298.5 975.5,-268.5 850.5,-268.5"/>
<text text-anchor="start" x="858.5" y="-286.5" font-family="Helvetica,sans-Serif" font-size="10.00">deal.II/base/std_cxx17</text>
<text text-anchor="middle" x="913" y="-275.5" font-family="Helvetica,sans-Serif" font-size="10.00">/tuple.h</text>
</a>
</g>
</g>
<!-- Node19&#45;&gt;Node21 -->
<g id="edge52" class="edge">
<title>Node19&#45;&gt;Node21</title>
<path fill="none" stroke="midnightblue" d="M1048.46,-335.4C1022.5,-325.64 987.78,-312.59 959.98,-302.15"/>
<polygon fill="midnightblue" stroke="midnightblue" points="961.06,-298.82 950.47,-298.58 958.6,-305.37 961.06,-298.82"/>
</g>
<!-- Node20&#45;&gt;Node3 -->
<g id="edge49" class="edge">
<title>Node20&#45;&gt;Node3</title>
<path fill="none" stroke="midnightblue" d="M1142.36,-298.51C1147.86,-314.88 1154.86,-342.7 1149,-366 1133.88,-426.17 1133.97,-453.64 1083,-489 1041.44,-517.83 903.1,-528.26 818.67,-531.98"/>
<polygon fill="midnightblue" stroke="midnightblue" points="818.5,-528.48 808.65,-532.4 818.79,-535.48 818.5,-528.48"/>
</g>
<!-- Node20&#45;&gt;Node6 -->
<g id="edge50" class="edge">
<title>Node20&#45;&gt;Node6</title>
<path fill="none" stroke="midnightblue" d="M1132.67,-268.32C1123.21,-239.46 1098.08,-173.27 1056,-134 1036.6,-115.89 1009.56,-103.36 987.15,-95.31"/>
<polygon fill="midnightblue" stroke="midnightblue" points="988.14,-91.95 977.54,-92.02 985.87,-98.57 988.14,-91.95"/>
</g>
<!-- Node20&#45;&gt;Node10 -->
<g id="edge51" class="edge">
<title>Node20&#45;&gt;Node10</title>
<path fill="none" stroke="midnightblue" d="M1097.65,-268.5C1024.42,-242.44 868.43,-186.94 799.71,-162.49"/>
<polygon fill="midnightblue" stroke="midnightblue" points="800.81,-159.17 790.22,-159.12 798.47,-165.77 800.81,-159.17"/>
</g>
<!-- Node21&#45;&gt;Node3 -->
<g id="edge53" class="edge">
<title>Node21&#45;&gt;Node3</title>
<path fill="none" stroke="midnightblue" d="M938.78,-298.54C981.78,-323.88 1060.46,-379.58 1029,-433 986.8,-504.65 886.75,-526.07 818.92,-532.13"/>
<polygon fill="midnightblue" stroke="midnightblue" points="818.43,-528.66 808.74,-532.95 818.99,-535.64 818.43,-528.66"/>
</g>
<!-- Node22&#45;&gt;Node3 -->
<g id="edge58" class="edge">
<title>Node22&#45;&gt;Node3</title>
<path fill="none" stroke="midnightblue" d="M506.71,-427.12C552.76,-447.27 667.56,-497.49 721.77,-521.21"/>
<polygon fill="midnightblue" stroke="midnightblue" points="720.59,-524.52 731.16,-525.32 723.4,-518.1 720.59,-524.52"/>
</g>
<!-- Node23&#45;&gt;Node3 -->
<g id="edge64" class="edge">
<title>Node23&#45;&gt;Node3</title>
<path fill="none" stroke="midnightblue" d="M459.9,-715.43C508.13,-685.7 668.59,-586.8 728.33,-549.97"/>
<polygon fill="midnightblue" stroke="midnightblue" points="730.34,-552.84 737.02,-544.62 726.67,-546.88 730.34,-552.84"/>
</g>
<!-- Node23&#45;&gt;Node6 -->
<g id="edge65" class="edge">
<title>Node23&#45;&gt;Node6</title>
<path fill="none" stroke="midnightblue" d="M383.47,-721.53C310.26,-714.89 191.89,-691.62 136,-612 128.08,-600.72 135.63,-594.77 136,-581 139.56,-449.08 152,-416.47 152,-284.5 152,-284.5 152,-284.5 152,-215.5 152,-167.46 180,-155.41 223,-134 279.46,-105.89 691,-90.83 866.77,-85.63"/>
<polygon fill="midnightblue" stroke="midnightblue" points="867.09,-89.12 876.98,-85.33 866.89,-82.12 867.09,-89.12"/>
</g>
<!-- Node23&#45;&gt;Node13 -->
<g id="edge73" class="edge">
<title>Node23&#45;&gt;Node13</title>
<path fill="none" stroke="midnightblue" d="M383.05,-719.33C260.1,-708.46 0,-676.17 0,-597.5 0,-597.5 0,-597.5 0,-215.5 0,-125.78 121.27,-97.02 201.87,-87.82"/>
<polygon fill="midnightblue" stroke="midnightblue" points="202.4,-91.28 211.97,-86.74 201.66,-84.32 202.4,-91.28"/>
</g>
<!-- Node23&#45;&gt;Node17 -->
<g id="edge74" class="edge">
<title>Node23&#45;&gt;Node17</title>
<path fill="none" stroke="midnightblue" d="M508.57,-721.8C712.67,-713.82 1346,-682.21 1346,-597.5 1346,-597.5 1346,-597.5 1346,-534 1346,-411.29 1327.64,-377.37 1272,-268 1265.57,-255.36 1255.69,-242.84 1247.36,-233.44"/>
<polygon fill="midnightblue" stroke="midnightblue" points="1249.91,-231.04 1240.56,-226.04 1244.75,-235.77 1249.91,-231.04"/>
</g>
<!-- Node24 -->
<g id="node24" class="node">
<title>Node24</title>
<g id="a_node24"><a xlink:href="http://www.dealii.org/developer/doxygen/deal.II/base_2point_8h.html" xlink:title=" ">
<polygon fill="none" stroke="black" points="145,-587 145,-606 255,-606 255,-587 145,-587"/>
<text text-anchor="middle" x="200" y="-594" font-family="Helvetica,sans-Serif" font-size="10.00">deal.II/base/point.h</text>
</a>
</g>
</g>
<!-- Node23&#45;&gt;Node24 -->
<g id="edge66" class="edge">
<title>Node23&#45;&gt;Node24</title>
<path fill="none" stroke="midnightblue" d="M435.22,-715.29C416,-700.08 374.17,-668.35 335,-648 303.75,-631.77 266.07,-618.12 238.46,-609.12"/>
<polygon fill="midnightblue" stroke="midnightblue" points="239.37,-605.74 228.78,-606.02 237.24,-612.4 239.37,-605.74"/>
</g>
<!-- Node25 -->
<g id="node25" class="node">
<title>Node25</title>
<g id="a_node25"><a xlink:href="http://www.dealii.org/developer/doxygen/deal.II/subscriptor_8h.html" xlink:title=" ">
<polygon fill="none" stroke="black" points="1374.5,-587 1374.5,-606 1513.5,-606 1513.5,-587 1374.5,-587"/>
<text text-anchor="middle" x="1444" y="-594" font-family="Helvetica,sans-Serif" font-size="10.00">deal.II/base/subscriptor.h</text>
</a>
</g>
</g>
<!-- Node23&#45;&gt;Node25 -->
<g id="edge70" class="edge">
<title>Node23&#45;&gt;Node25</title>
<path fill="none" stroke="midnightblue" d="M508.81,-723.46C702.56,-721.45 1282.49,-712.66 1360,-679 1391.54,-665.3 1418.08,-634.11 1432.45,-614.53"/>
<polygon fill="midnightblue" stroke="midnightblue" points="1435.42,-616.4 1438.34,-606.22 1429.7,-612.36 1435.42,-616.4"/>
</g>
<!-- Node26 -->
<g id="node26" class="node">
<title>Node26</title>
<g id="a_node26"><a xlink:href="http://www.dealii.org/developer/doxygen/deal.II/component__mask_8h.html" xlink:title=" ">
<polygon fill="none" stroke="black" points="717.5,-648.5 717.5,-678.5 834.5,-678.5 834.5,-648.5 717.5,-648.5"/>
<text text-anchor="start" x="725.5" y="-666.5" font-family="Helvetica,sans-Serif" font-size="10.00">deal.II/fe/component</text>
<text text-anchor="middle" x="776" y="-655.5" font-family="Helvetica,sans-Serif" font-size="10.00">_mask.h</text>
</a>
</g>
</g>
<!-- Node23&#45;&gt;Node26 -->
<g id="edge75" class="edge">
<title>Node23&#45;&gt;Node26</title>
<path fill="none" stroke="midnightblue" d="M493.28,-715.48C549.36,-705.36 643.3,-688.43 707.37,-676.87"/>
<polygon fill="midnightblue" stroke="midnightblue" points="708.17,-680.29 717.39,-675.07 706.93,-673.4 708.17,-680.29"/>
</g>
<!-- Node24&#45;&gt;Node3 -->
<g id="edge67" class="edge">
<title>Node24&#45;&gt;Node3</title>
<path fill="none" stroke="midnightblue" d="M236.74,-586.97C247.13,-584.78 258.47,-582.59 269,-581 415.78,-558.8 589.47,-545.81 683.06,-539.89"/>
<polygon fill="midnightblue" stroke="midnightblue" points="683.48,-543.37 693.24,-539.26 683.04,-536.39 683.48,-543.37"/>
</g>
<!-- Node24&#45;&gt;Node6 -->
<g id="edge68" class="edge">
<title>Node24&#45;&gt;Node6</title>
<path fill="none" stroke="midnightblue" d="M199.52,-586.85C197.52,-550.23 190,-404.43 190,-284.5 190,-284.5 190,-284.5 190,-215.5 190,-195.64 106.37,-204.15 311,-134 411.63,-99.5 719.63,-88.33 866.49,-84.91"/>
<polygon fill="midnightblue" stroke="midnightblue" points="866.86,-88.41 876.78,-84.68 866.7,-81.41 866.86,-88.41"/>
</g>
<!-- Node24&#45;&gt;Node15 -->
<g id="edge69" class="edge">
<title>Node24&#45;&gt;Node15</title>
<path fill="none" stroke="midnightblue" d="M195.42,-586.65C189.04,-573.13 179.02,-546.61 186,-525 217.99,-425.93 241.84,-400.2 323,-335 345.36,-317.04 375.08,-304.32 398.97,-296.14"/>
<polygon fill="midnightblue" stroke="midnightblue" points="400.07,-299.46 408.47,-293.01 397.88,-292.81 400.07,-299.46"/>
</g>
<!-- Node25&#45;&gt;Node3 -->
<g id="edge71" class="edge">
<title>Node25&#45;&gt;Node3</title>
<path fill="none" stroke="midnightblue" d="M1374.38,-589.52C1240.91,-578.06 950.58,-553.14 818.66,-541.81"/>
<polygon fill="midnightblue" stroke="midnightblue" points="818.94,-538.32 808.68,-540.95 818.34,-545.29 818.94,-538.32"/>
</g>
<!-- Node25&#45;&gt;Node6 -->
<g id="edge72" class="edge">
<title>Node25&#45;&gt;Node6</title>
<path fill="none" stroke="midnightblue" d="M1446.03,-586.86C1450.33,-567.73 1460,-520.28 1460,-480 1460,-480 1460,-480 1460,-416.5 1460,-287.96 1493.53,-220.01 1398,-134 1370.89,-109.59 1147.37,-94.11 1025.14,-87.38"/>
<polygon fill="midnightblue" stroke="midnightblue" points="1025.26,-83.88 1015.08,-86.83 1024.88,-90.87 1025.26,-83.88"/>
</g>
<!-- Node26&#45;&gt;Node3 -->
<g id="edge76" class="edge">
<title>Node26&#45;&gt;Node3</title>
<path fill="none" stroke="midnightblue" d="M756.8,-648.45C746.12,-639.4 733.83,-626.6 728,-612 720.12,-592.28 730.05,-568.78 739.21,-553.18"/>
<polygon fill="midnightblue" stroke="midnightblue" points="742.25,-554.92 744.65,-544.6 736.34,-551.17 742.25,-554.92"/>
</g>
<!-- Node26&#45;&gt;Node6 -->
<g id="edge77" class="edge">
<title>Node26&#45;&gt;Node6</title>
<path fill="none" stroke="midnightblue" d="M834.51,-657.91C952.16,-645.26 1216.74,-598.87 1341,-433 1382.2,-378.01 1384,-353.21 1384,-284.5 1384,-284.5 1384,-284.5 1384,-215.5 1384,-155.37 1331.41,-157.37 1276,-134 1194.98,-99.83 1094.09,-88.42 1025.34,-84.8"/>
<polygon fill="midnightblue" stroke="midnightblue" points="1025.17,-81.29 1015.01,-84.3 1024.83,-88.28 1025.17,-81.29"/>
</g>
<!-- Node27 -->
<g id="node27" class="node">
<title>Node27</title>
<g id="a_node27"><a xlink:href="http://www.dealii.org/developer/doxygen/deal.II/memory__consumption_8h.html" xlink:title=" ">
<polygon fill="none" stroke="black" points="736.5,-581.5 736.5,-611.5 853.5,-611.5 853.5,-581.5 736.5,-581.5"/>
<text text-anchor="start" x="744.5" y="-599.5" font-family="Helvetica,sans-Serif" font-size="10.00">deal.II/base/memory</text>
<text text-anchor="middle" x="795" y="-588.5" font-family="Helvetica,sans-Serif" font-size="10.00">_consumption.h</text>
</a>
</g>
</g>
<!-- Node26&#45;&gt;Node27 -->
<g id="edge78" class="edge">
<title>Node26&#45;&gt;Node27</title>
<path fill="none" stroke="midnightblue" d="M780.12,-648.4C782.44,-640.47 785.39,-630.38 788.05,-621.27"/>
<polygon fill="midnightblue" stroke="midnightblue" points="791.44,-622.16 790.89,-611.58 784.72,-620.19 791.44,-622.16"/>
</g>
<!-- Node27&#45;&gt;Node3 -->
<g id="edge79" class="edge">
<title>Node27&#45;&gt;Node3</title>
<path fill="none" stroke="midnightblue" d="M784.57,-581.4C778.24,-572.84 770.13,-561.87 763.47,-552.86"/>
<polygon fill="midnightblue" stroke="midnightblue" points="766.16,-550.62 757.4,-544.66 760.53,-554.78 766.16,-550.62"/>
</g>
</g>
</svg>
