<?xml version="1.0" encoding="UTF-8" standalone="no"?>
<!DOCTYPE svg PUBLIC "-//W3C//DTD SVG 1.1//EN"
 "http://www.w3.org/Graphics/SVG/1.1/DTD/svg11.dtd">
<!-- Generated by graphviz version 2.43.0 (0)
 -->
<!-- Title: include/tools/patterns_unsigned_int.h Pages: 1 -->
<svg width="1429pt" height="810pt"
 viewBox="0.00 0.00 1429.00 810.00" xmlns="http://www.w3.org/2000/svg" xmlns:xlink="http://www.w3.org/1999/xlink">
<g id="graph0" class="graph" transform="scale(1 1) rotate(0) translate(4 806)">
<title>include/tools/patterns_unsigned_int.h</title>
<!-- Node1 -->
<g id="node1" class="node">
<title>Node1</title>
<g id="a_node1"><a xlink:title=" ">
<polygon fill="#bfbfbf" stroke="black" points="1000,-771.5 1000,-801.5 1122,-801.5 1122,-771.5 1000,-771.5"/>
<text text-anchor="start" x="1008" y="-789.5" font-family="Helvetica,sans-Serif" font-size="10.00">include/tools/patterns</text>
<text text-anchor="middle" x="1061" y="-778.5" font-family="Helvetica,sans-Serif" font-size="10.00">_unsigned_int.h</text>
</a>
</g>
</g>
<!-- Node2 -->
<g id="node2" class="node">
<title>Node2</title>
<g id="a_node2"><a xlink:href="http://www.dealii.org/developer/doxygen/deal.II/config_8h.html" xlink:title=" ">
<polygon fill="none" stroke="black" points="692.5,-525.5 692.5,-544.5 807.5,-544.5 807.5,-525.5 692.5,-525.5"/>
<text text-anchor="middle" x="750" y="-532.5" font-family="Helvetica,sans-Serif" font-size="10.00">deal.II/base/config.h</text>
</a>
</g>
</g>
<!-- Node1&#45;&gt;Node2 -->
<g id="edge1" class="edge">
<title>Node1&#45;&gt;Node2</title>
<path fill="none" stroke="midnightblue" d="M1055.91,-771.23C1041.78,-733.75 998.35,-631.92 927,-581 895.29,-558.37 853.24,-547.1 818.09,-541.49"/>
<polygon fill="midnightblue" stroke="midnightblue" points="818.3,-537.98 807.9,-539.99 817.28,-544.91 818.3,-537.98"/>
</g>
<!-- Node22 -->
<g id="node22" class="node">
<title>Node22</title>
<g id="a_node22"><a xlink:href="http://www.dealii.org/developer/doxygen/deal.II/patterns_8h.html" xlink:title=" ">
<polygon fill="none" stroke="black" points="644.5,-715.5 644.5,-734.5 769.5,-734.5 769.5,-715.5 644.5,-715.5"/>
<text text-anchor="middle" x="707" y="-722.5" font-family="Helvetica,sans-Serif" font-size="10.00">deal.II/base/patterns.h</text>
</a>
</g>
</g>
<!-- Node1&#45;&gt;Node22 -->
<g id="edge61" class="edge">
<title>Node1&#45;&gt;Node22</title>
<path fill="none" stroke="midnightblue" d="M999.74,-775.2C934.75,-764.28 832.68,-747.12 767.85,-736.23"/>
<polygon fill="midnightblue" stroke="midnightblue" points="768.21,-732.74 757.77,-734.53 767.05,-739.64 768.21,-732.74"/>
</g>
<!-- Node3 -->
<g id="node3" class="node">
<title>Node3</title>
<g id="a_node3"><a xlink:href="http://www.dealii.org/developer/doxygen/deal.II/mpi_8h.html" xlink:title=" ">
<polygon fill="none" stroke="black" points="1027,-469.5 1027,-488.5 1071,-488.5 1071,-469.5 1027,-469.5"/>
<text text-anchor="middle" x="1049" y="-476.5" font-family="Helvetica,sans-Serif" font-size="10.00">mpi.h</text>
</a>
</g>
</g>
<!-- Node2&#45;&gt;Node3 -->
<g id="edge2" class="edge">
<title>Node2&#45;&gt;Node3</title>
<path fill="none" stroke="midnightblue" d="M800.2,-525.49C851.62,-517.24 933.51,-503.82 1004,-489 1008.11,-488.14 1012.47,-487.13 1016.82,-486.1"/>
<polygon fill="midnightblue" stroke="midnightblue" points="1017.94,-489.44 1026.88,-483.75 1016.34,-482.62 1017.94,-489.44"/>
</g>
<!-- Node8 -->
<g id="node8" class="node">
<title>Node8</title>
<g id="a_node8"><a xlink:href="http://www.dealii.org/developer/doxygen/deal.II/numbers_8h.html" xlink:title=" ">
<polygon fill="none" stroke="black" points="572,-207 572,-226 700,-226 700,-207 572,-207"/>
<text text-anchor="middle" x="636" y="-214" font-family="Helvetica,sans-Serif" font-size="10.00">deal.II/base/numbers.h</text>
</a>
</g>
</g>
<!-- Node2&#45;&gt;Node8 -->
<g id="edge59" class="edge">
<title>Node2&#45;&gt;Node8</title>
<path fill="none" stroke="midnightblue" d="M692.38,-528.41C642.13,-521.96 575.05,-509.5 559,-489 496.53,-409.2 580.98,-279.23 619.29,-233.79"/>
<polygon fill="midnightblue" stroke="midnightblue" points="622.09,-235.92 626.07,-226.1 616.83,-231.29 622.09,-235.92"/>
</g>
<!-- Node9 -->
<g id="node9" class="node">
<title>Node9</title>
<g id="a_node9"><a xlink:href="http://www.dealii.org/developer/doxygen/deal.II/types_8h.html" xlink:title=" ">
<polygon fill="none" stroke="black" points="794,-140 794,-159 906,-159 906,-140 794,-140"/>
<text text-anchor="middle" x="850" y="-147" font-family="Helvetica,sans-Serif" font-size="10.00">deal.II/base/types.h</text>
</a>
</g>
</g>
<!-- Node2&#45;&gt;Node9 -->
<g id="edge60" class="edge">
<title>Node2&#45;&gt;Node9</title>
<path fill="none" stroke="midnightblue" d="M751.47,-525.38C760.1,-508.61 787.06,-470 800,-433 817.26,-383.65 833.92,-223.75 844.28,-169.05"/>
<polygon fill="midnightblue" stroke="midnightblue" points="847.75,-169.56 846.4,-159.05 840.9,-168.11 847.75,-169.56"/>
</g>
<!-- Node3&#45;&gt;Node2 -->
<g id="edge3" class="edge">
<title>Node3&#45;&gt;Node2</title>
<path fill="none" stroke="midnightblue" d="M1027,-487.91C1025.32,-488.29 1023.64,-488.66 1022,-489 952.97,-503.51 873.01,-516.68 817.65,-524.97"/>
<polygon fill="midnightblue" stroke="midnightblue" points="816.99,-521.53 807.61,-526.46 818.01,-528.46 816.99,-521.53"/>
</g>
<!-- Node4 -->
<g id="node4" class="node">
<title>Node4</title>
<g id="a_node4"><a xlink:href="http://www.dealii.org/developer/doxygen/deal.II/array__view_8h.html" xlink:title=" ">
<polygon fill="none" stroke="black" points="699.5,-402.5 699.5,-432.5 800.5,-432.5 800.5,-402.5 699.5,-402.5"/>
<text text-anchor="start" x="707.5" y="-420.5" font-family="Helvetica,sans-Serif" font-size="10.00">deal.II/base/array</text>
<text text-anchor="middle" x="750" y="-409.5" font-family="Helvetica,sans-Serif" font-size="10.00">_view.h</text>
</a>
</g>
</g>
<!-- Node3&#45;&gt;Node4 -->
<g id="edge4" class="edge">
<title>Node3&#45;&gt;Node4</title>
<path fill="none" stroke="midnightblue" d="M1026.53,-473.53C981.18,-464.5 877.4,-443.85 810.66,-430.57"/>
<polygon fill="midnightblue" stroke="midnightblue" points="811.18,-427.11 800.69,-428.59 809.82,-433.97 811.18,-427.11"/>
</g>
<!-- Node3&#45;&gt;Node8 -->
<g id="edge58" class="edge">
<title>Node3&#45;&gt;Node8</title>
<path fill="none" stroke="midnightblue" d="M1035.26,-469.33C974.99,-431.32 733.71,-279.13 658.5,-231.69"/>
<polygon fill="midnightblue" stroke="midnightblue" points="660.12,-228.57 649.79,-226.2 656.38,-234.5 660.12,-228.57"/>
</g>
<!-- Node17 -->
<g id="node17" class="node">
<title>Node17</title>
<g id="a_node17"><a xlink:href="http://www.dealii.org/developer/doxygen/deal.II/index__set_8h.html" xlink:title=" ">
<polygon fill="none" stroke="black" points="1027.5,-402.5 1027.5,-432.5 1130.5,-432.5 1130.5,-402.5 1027.5,-402.5"/>
<text text-anchor="start" x="1035.5" y="-420.5" font-family="Helvetica,sans-Serif" font-size="10.00">deal.II/base/index</text>
<text text-anchor="middle" x="1079" y="-409.5" font-family="Helvetica,sans-Serif" font-size="10.00">_set.h</text>
</a>
</g>
</g>
<!-- Node3&#45;&gt;Node17 -->
<g id="edge41" class="edge">
<title>Node3&#45;&gt;Node17</title>
<path fill="none" stroke="midnightblue" d="M1048.4,-469.48C1050.51,-462.09 1055.51,-451.08 1060.99,-441.17"/>
<polygon fill="midnightblue" stroke="midnightblue" points="1064.03,-442.91 1066.1,-432.52 1058,-439.35 1064.03,-442.91"/>
</g>
<!-- Node21 -->
<g id="node21" class="node">
<title>Node21</title>
<g id="a_node21"><a xlink:href="http://www.dealii.org/developer/doxygen/deal.II/mpi__tags_8h.html" xlink:title=" ">
<polygon fill="none" stroke="black" points="1149,-408 1149,-427 1279,-427 1279,-408 1149,-408"/>
<text text-anchor="middle" x="1214" y="-415" font-family="Helvetica,sans-Serif" font-size="10.00">deal.II/base/mpi_tags.h</text>
</a>
</g>
</g>
<!-- Node3&#45;&gt;Node21 -->
<g id="edge56" class="edge">
<title>Node3&#45;&gt;Node21</title>
<path fill="none" stroke="midnightblue" d="M1071.25,-469.98C1099.39,-459.83 1148.1,-442.27 1180.68,-430.52"/>
<polygon fill="midnightblue" stroke="midnightblue" points="1182.01,-433.75 1190.23,-427.07 1179.64,-427.17 1182.01,-433.75"/>
</g>
<!-- Node4&#45;&gt;Node2 -->
<g id="edge5" class="edge">
<title>Node4&#45;&gt;Node2</title>
<path fill="none" stroke="midnightblue" d="M750,-432.55C750,-453.22 750,-491.9 750,-515.07"/>
<polygon fill="midnightblue" stroke="midnightblue" points="746.5,-515.32 750,-525.32 753.5,-515.32 746.5,-515.32"/>
</g>
<!-- Node5 -->
<g id="node5" class="node">
<title>Node5</title>
<g id="a_node5"><a xlink:href="http://www.dealii.org/developer/doxygen/deal.II/include_2deal_8II_2base_2exceptions_8h.html" xlink:title=" ">
<polygon fill="none" stroke="black" points="878,-73 878,-92 1016,-92 1016,-73 878,-73"/>
<text text-anchor="middle" x="947" y="-80" font-family="Helvetica,sans-Serif" font-size="10.00">deal.II/base/exceptions.h</text>
</a>
</g>
</g>
<!-- Node4&#45;&gt;Node5 -->
<g id="edge6" class="edge">
<title>Node4&#45;&gt;Node5</title>
<path fill="none" stroke="midnightblue" d="M752.4,-402.37C754.08,-392.26 756.31,-378.31 758,-366 772.12,-263.16 718.74,-213.91 785,-134 805.36,-109.45 837.47,-96.63 867.75,-90.01"/>
<polygon fill="midnightblue" stroke="midnightblue" points="868.8,-93.37 877.93,-88 867.44,-86.51 868.8,-93.37"/>
</g>
<!-- Node6 -->
<g id="node6" class="node">
<title>Node6</title>
<g id="a_node6"><a xlink:href="http://www.dealii.org/developer/doxygen/deal.II/memory__space_8h.html" xlink:title=" ">
<polygon fill="none" stroke="black" points="610.5,-335.5 610.5,-365.5 727.5,-365.5 727.5,-335.5 610.5,-335.5"/>
<text text-anchor="start" x="618.5" y="-353.5" font-family="Helvetica,sans-Serif" font-size="10.00">deal.II/base/memory</text>
<text text-anchor="middle" x="669" y="-342.5" font-family="Helvetica,sans-Serif" font-size="10.00">_space.h</text>
</a>
</g>
</g>
<!-- Node4&#45;&gt;Node6 -->
<g id="edge8" class="edge">
<title>Node4&#45;&gt;Node6</title>
<path fill="none" stroke="midnightblue" d="M732.42,-402.4C721.39,-393.54 706.96,-381.96 694.65,-372.09"/>
<polygon fill="midnightblue" stroke="midnightblue" points="696.53,-369.11 686.54,-365.58 692.15,-374.56 696.53,-369.11"/>
</g>
<!-- Node7 -->
<g id="node7" class="node">
<title>Node7</title>
<g id="a_node7"><a xlink:href="http://www.dealii.org/developer/doxygen/deal.II/symmetric__tensor_8h.html" xlink:title=" ">
<polygon fill="none" stroke="black" points="370,-335.5 370,-365.5 498,-365.5 498,-335.5 370,-335.5"/>
<text text-anchor="start" x="378" y="-353.5" font-family="Helvetica,sans-Serif" font-size="10.00">deal.II/base/symmetric</text>
<text text-anchor="middle" x="434" y="-342.5" font-family="Helvetica,sans-Serif" font-size="10.00">_tensor.h</text>
</a>
</g>
</g>
<!-- Node4&#45;&gt;Node7 -->
<g id="edge10" class="edge">
<title>Node4&#45;&gt;Node7</title>
<path fill="none" stroke="midnightblue" d="M699.23,-406.06C647.53,-395.42 566.82,-378.82 508,-366.72"/>
<polygon fill="midnightblue" stroke="midnightblue" points="508.52,-363.26 498.02,-364.67 507.11,-370.11 508.52,-363.26"/>
</g>
<!-- Node14 -->
<g id="node14" class="node">
<title>Node14</title>
<g id="a_node14"><a xlink:href="http://www.dealii.org/developer/doxygen/deal.II/tensor_8h.html" xlink:title=" ">
<polygon fill="none" stroke="black" points="372,-274 372,-293 488,-293 488,-274 372,-274"/>
<text text-anchor="middle" x="430" y="-281" font-family="Helvetica,sans-Serif" font-size="10.00">deal.II/base/tensor.h</text>
</a>
</g>
</g>
<!-- Node4&#45;&gt;Node14 -->
<g id="edge40" class="edge">
<title>Node4&#45;&gt;Node14</title>
<path fill="none" stroke="midnightblue" d="M752.07,-402.19C753.82,-383.93 753.72,-352.61 736,-335 703.42,-302.63 578.38,-290.98 498.57,-286.8"/>
<polygon fill="midnightblue" stroke="midnightblue" points="498.27,-283.28 488.11,-286.29 497.93,-290.28 498.27,-283.28"/>
</g>
<!-- Node5&#45;&gt;Node2 -->
<g id="edge7" class="edge">
<title>Node5&#45;&gt;Node2</title>
<path fill="none" stroke="midnightblue" d="M1016.16,-87.68C1079.01,-93.18 1173.48,-105.71 1251,-134 1305.85,-154.02 1335.1,-150.27 1364,-201 1415.95,-292.19 1371.55,-341.59 1320,-433 1302.24,-464.49 1293.96,-474.14 1261,-489 1183.69,-523.86 938.59,-531.76 818.15,-533.52"/>
<polygon fill="midnightblue" stroke="midnightblue" points="817.89,-530.02 807.94,-533.65 817.99,-537.02 817.89,-530.02"/>
</g>
<!-- Node6&#45;&gt;Node2 -->
<g id="edge9" class="edge">
<title>Node6&#45;&gt;Node2</title>
<path fill="none" stroke="midnightblue" d="M671.4,-365.74C674.48,-382.32 680.57,-410.33 690,-433 702.99,-464.23 724.33,-497.39 737.75,-516.87"/>
<polygon fill="midnightblue" stroke="midnightblue" points="735.03,-519.08 743.63,-525.26 740.76,-515.07 735.03,-519.08"/>
</g>
<!-- Node7&#45;&gt;Node2 -->
<g id="edge11" class="edge">
<title>Node7&#45;&gt;Node2</title>
<path fill="none" stroke="midnightblue" d="M437.76,-365.9C446,-394.38 468.47,-457.87 512,-489 538.76,-508.14 621.7,-520.69 682.16,-527.56"/>
<polygon fill="midnightblue" stroke="midnightblue" points="682.09,-531.07 692.41,-528.69 682.86,-524.11 682.09,-531.07"/>
</g>
<!-- Node7&#45;&gt;Node8 -->
<g id="edge12" class="edge">
<title>Node7&#45;&gt;Node8</title>
<path fill="none" stroke="midnightblue" d="M464.15,-335.3C483.45,-325.81 508.75,-312.61 530,-299 562.49,-278.18 597.49,-250.03 618.03,-232.85"/>
<polygon fill="midnightblue" stroke="midnightblue" points="620.51,-235.34 625.9,-226.21 616,-229.98 620.51,-235.34"/>
</g>
<!-- Node11 -->
<g id="node11" class="node">
<title>Node11</title>
<g id="a_node11"><a xlink:href="http://www.dealii.org/developer/doxygen/deal.II/table__indices_8h.html" xlink:title=" ">
<polygon fill="none" stroke="black" points="298.5,-134.5 298.5,-164.5 399.5,-164.5 399.5,-134.5 298.5,-134.5"/>
<text text-anchor="start" x="306.5" y="-152.5" font-family="Helvetica,sans-Serif" font-size="10.00">deal.II/base/table</text>
<text text-anchor="middle" x="349" y="-141.5" font-family="Helvetica,sans-Serif" font-size="10.00">_indices.h</text>
</a>
</g>
</g>
<!-- Node7&#45;&gt;Node11 -->
<g id="edge18" class="edge">
<title>Node7&#45;&gt;Node11</title>
<path fill="none" stroke="midnightblue" d="M401.85,-335.34C387.17,-327.03 371.25,-315 363,-299 356.68,-286.76 361.32,-281.67 363,-268 365.02,-251.63 369.98,-248.37 372,-232 373.68,-218.33 374.92,-214.46 372,-201 369.97,-191.66 366.06,-181.98 362.04,-173.62"/>
<polygon fill="midnightblue" stroke="midnightblue" points="365.04,-171.81 357.36,-164.52 358.82,-175.01 365.04,-171.81"/>
</g>
<!-- Node12 -->
<g id="node12" class="node">
<title>Node12</title>
<g id="a_node12"><a xlink:href="http://www.dealii.org/developer/doxygen/deal.II/template__constraints_8h.html" xlink:title=" ">
<polygon fill="none" stroke="black" points="190,-67.5 190,-97.5 310,-97.5 310,-67.5 190,-67.5"/>
<text text-anchor="start" x="198" y="-85.5" font-family="Helvetica,sans-Serif" font-size="10.00">deal.II/base/template</text>
<text text-anchor="middle" x="250" y="-74.5" font-family="Helvetica,sans-Serif" font-size="10.00">_constraints.h</text>
</a>
</g>
</g>
<!-- Node7&#45;&gt;Node12 -->
<g id="edge26" class="edge">
<title>Node7&#45;&gt;Node12</title>
<path fill="none" stroke="midnightblue" d="M461.3,-335.36C474.7,-326.81 489.54,-314.54 497,-299 525.74,-239.12 477.41,-171.85 432,-134 400.8,-107.99 357.19,-95.33 320.48,-89.19"/>
<polygon fill="midnightblue" stroke="midnightblue" points="320.74,-85.69 310.33,-87.62 319.68,-92.61 320.74,-85.69"/>
</g>
<!-- Node7&#45;&gt;Node14 -->
<g id="edge27" class="edge">
<title>Node7&#45;&gt;Node14</title>
<path fill="none" stroke="midnightblue" d="M433.13,-335.4C432.55,-325.96 431.78,-313.45 431.15,-303.19"/>
<polygon fill="midnightblue" stroke="midnightblue" points="434.64,-302.96 430.54,-293.19 427.66,-303.39 434.64,-302.96"/>
</g>
<!-- Node8&#45;&gt;Node2 -->
<g id="edge13" class="edge">
<title>Node8&#45;&gt;Node2</title>
<path fill="none" stroke="midnightblue" d="M632.33,-226.1C610.47,-262.27 510.5,-404.06 577,-489 590.42,-506.14 639.51,-517.66 682.05,-524.74"/>
<polygon fill="midnightblue" stroke="midnightblue" points="681.7,-528.23 692.13,-526.36 682.81,-521.32 681.7,-528.23"/>
</g>
<!-- Node8&#45;&gt;Node9 -->
<g id="edge14" class="edge">
<title>Node8&#45;&gt;Node9</title>
<path fill="none" stroke="midnightblue" d="M664.42,-206.87C702.42,-195.33 769.88,-174.84 812.15,-162"/>
<polygon fill="midnightblue" stroke="midnightblue" points="813.25,-165.32 821.81,-159.06 811.22,-158.62 813.25,-165.32"/>
</g>
<!-- Node10 -->
<g id="node10" class="node">
<title>Node10</title>
<g id="a_node10"><a xlink:href="http://www.dealii.org/developer/doxygen/deal.II/adolc__math_8h.html" xlink:title=" ">
<polygon fill="none" stroke="black" points="597.5,-134.5 597.5,-164.5 716.5,-164.5 716.5,-134.5 597.5,-134.5"/>
<text text-anchor="start" x="605.5" y="-152.5" font-family="Helvetica,sans-Serif" font-size="10.00">deal.II/differentiation</text>
<text text-anchor="middle" x="657" y="-141.5" font-family="Helvetica,sans-Serif" font-size="10.00">/ad/adolc_math.h</text>
</a>
</g>
</g>
<!-- Node8&#45;&gt;Node10 -->
<g id="edge16" class="edge">
<title>Node8&#45;&gt;Node10</title>
<path fill="none" stroke="midnightblue" d="M638.83,-206.73C641.51,-198.46 645.64,-185.66 649.29,-174.37"/>
<polygon fill="midnightblue" stroke="midnightblue" points="652.7,-175.18 652.45,-164.59 646.04,-173.03 652.7,-175.18"/>
</g>
<!-- Node9&#45;&gt;Node2 -->
<g id="edge15" class="edge">
<title>Node9&#45;&gt;Node2</title>
<path fill="none" stroke="midnightblue" d="M852.01,-159.05C854.29,-200.44 836.49,-380.14 818,-433 806.73,-465.23 784.82,-498.69 768.55,-517.86"/>
<polygon fill="midnightblue" stroke="midnightblue" points="765.86,-515.62 761.75,-525.38 771.05,-520.31 765.86,-515.62"/>
</g>
<!-- Node10&#45;&gt;Node2 -->
<g id="edge17" class="edge">
<title>Node10&#45;&gt;Node2</title>
<path fill="none" stroke="midnightblue" d="M678.3,-164.62C689.73,-173.54 702.73,-186.16 709,-201 714.37,-213.69 714.42,-219.33 709,-232 678.89,-302.32 574.7,-294.17 601,-366 626.1,-434.56 694.21,-492.71 728.97,-519"/>
<polygon fill="midnightblue" stroke="midnightblue" points="727.32,-522.13 737.44,-525.27 731.48,-516.5 727.32,-522.13"/>
</g>
<!-- Node11&#45;&gt;Node2 -->
<g id="edge19" class="edge">
<title>Node11&#45;&gt;Node2</title>
<path fill="none" stroke="midnightblue" d="M300.22,-164.52C281.04,-172.35 260.44,-184.04 247,-201 223.9,-230.15 228,-245.31 228,-282.5 228,-351.5 228,-351.5 228,-351.5 228,-451.11 313.06,-450.66 405,-489 453.62,-509.27 596.12,-522.81 682.02,-529.38"/>
<polygon fill="midnightblue" stroke="midnightblue" points="681.97,-532.88 692.21,-530.15 682.5,-525.9 681.97,-532.88"/>
</g>
<!-- Node11&#45;&gt;Node5 -->
<g id="edge20" class="edge">
<title>Node11&#45;&gt;Node5</title>
<path fill="none" stroke="midnightblue" d="M399.73,-142.99C503.96,-131.66 742.9,-105.68 867.75,-92.11"/>
<polygon fill="midnightblue" stroke="midnightblue" points="868.43,-95.56 878,-91 867.68,-88.6 868.43,-95.56"/>
</g>
<!-- Node11&#45;&gt;Node12 -->
<g id="edge21" class="edge">
<title>Node11&#45;&gt;Node12</title>
<path fill="none" stroke="midnightblue" d="M327.52,-134.4C313.64,-125.28 295.37,-113.29 280.06,-103.24"/>
<polygon fill="midnightblue" stroke="midnightblue" points="281.72,-100.14 271.44,-97.58 277.88,-105.99 281.72,-100.14"/>
</g>
<!-- Node12&#45;&gt;Node2 -->
<g id="edge22" class="edge">
<title>Node12&#45;&gt;Node2</title>
<path fill="none" stroke="midnightblue" d="M237.19,-97.74C219.38,-118.61 187.97,-159.54 176,-201 140.5,-323.98 89.1,-395.02 176,-489 209.76,-525.51 537.8,-532.45 682.27,-533.73"/>
<polygon fill="midnightblue" stroke="midnightblue" points="682.32,-537.23 692.35,-533.81 682.38,-530.23 682.32,-537.23"/>
</g>
<!-- Node13 -->
<g id="node13" class="node">
<title>Node13</title>
<g id="a_node13"><a xlink:href="http://www.dealii.org/developer/doxygen/deal.II/complex__overloads_8h.html" xlink:title=" ">
<polygon fill="none" stroke="black" points="191,-0.5 191,-30.5 309,-30.5 309,-0.5 191,-0.5"/>
<text text-anchor="start" x="199" y="-18.5" font-family="Helvetica,sans-Serif" font-size="10.00">deal.II/base/complex</text>
<text text-anchor="middle" x="250" y="-7.5" font-family="Helvetica,sans-Serif" font-size="10.00">_overloads.h</text>
</a>
</g>
</g>
<!-- Node12&#45;&gt;Node13 -->
<g id="edge23" class="edge">
<title>Node12&#45;&gt;Node13</title>
<path fill="none" stroke="midnightblue" d="M244.32,-67.4C243.29,-59.56 243.01,-49.6 243.46,-40.57"/>
<polygon fill="midnightblue" stroke="midnightblue" points="246.95,-40.84 244.33,-30.58 239.97,-40.24 246.95,-40.84"/>
</g>
<!-- Node13&#45;&gt;Node2 -->
<g id="edge24" class="edge">
<title>Node13&#45;&gt;Node2</title>
<path fill="none" stroke="midnightblue" d="M219.7,-30.58C205.3,-38.99 189.42,-51.14 181,-67 103.89,-212.22 121.4,-314.13 235,-433 273.73,-473.52 294.22,-473.2 348,-489 462.05,-522.51 601.02,-531.38 682.1,-533.54"/>
<polygon fill="midnightblue" stroke="midnightblue" points="682.1,-537.04 692.18,-533.79 682.27,-530.05 682.1,-537.04"/>
</g>
<!-- Node13&#45;&gt;Node12 -->
<g id="edge25" class="edge">
<title>Node13&#45;&gt;Node12</title>
<path fill="none" stroke="midnightblue" d="M255.67,-30.58C256.7,-38.41 256.99,-48.37 256.55,-57.4"/>
<polygon fill="midnightblue" stroke="midnightblue" points="253.06,-57.13 255.68,-67.4 260.03,-57.74 253.06,-57.13"/>
</g>
<!-- Node14&#45;&gt;Node2 -->
<g id="edge28" class="edge">
<title>Node14&#45;&gt;Node2</title>
<path fill="none" stroke="midnightblue" d="M409.49,-293.09C393.03,-301.22 371.07,-315.14 361,-335 354.77,-347.29 355.63,-353.31 361,-366 391.65,-438.35 417.93,-453.43 488,-489 549.02,-519.98 627.24,-530.17 682.28,-533.26"/>
<polygon fill="midnightblue" stroke="midnightblue" points="682.11,-536.75 692.27,-533.75 682.46,-529.76 682.11,-536.75"/>
</g>
<!-- Node14&#45;&gt;Node5 -->
<g id="edge29" class="edge">
<title>Node14&#45;&gt;Node5</title>
<path fill="none" stroke="midnightblue" d="M436.02,-273.91C454.91,-247.7 516.04,-168.5 588,-134 636.02,-110.98 777.43,-96.32 867.78,-89.04"/>
<polygon fill="midnightblue" stroke="midnightblue" points="868.29,-92.51 877.99,-88.23 867.74,-85.53 868.29,-92.51"/>
</g>
<!-- Node14&#45;&gt;Node8 -->
<g id="edge30" class="edge">
<title>Node14&#45;&gt;Node8</title>
<path fill="none" stroke="midnightblue" d="M457.36,-273.87C493.86,-262.35 558.6,-241.92 599.31,-229.08"/>
<polygon fill="midnightblue" stroke="midnightblue" points="600.38,-232.41 608.86,-226.06 598.27,-225.74 600.38,-232.41"/>
</g>
<!-- Node14&#45;&gt;Node11 -->
<g id="edge31" class="edge">
<title>Node14&#45;&gt;Node11</title>
<path fill="none" stroke="midnightblue" d="M429.03,-273.76C426.97,-258.09 421.03,-224.65 406,-201 398.73,-189.55 388.13,-179.17 378.04,-170.84"/>
<polygon fill="midnightblue" stroke="midnightblue" points="380.16,-168.05 370.13,-164.62 375.83,-173.55 380.16,-168.05"/>
</g>
<!-- Node14&#45;&gt;Node12 -->
<g id="edge32" class="edge">
<title>Node14&#45;&gt;Node12</title>
<path fill="none" stroke="midnightblue" d="M431.81,-273.65C436.48,-248.06 446.06,-173.33 408,-134 384.96,-110.19 350.72,-97.58 320,-90.91"/>
<polygon fill="midnightblue" stroke="midnightblue" points="320.66,-87.48 310.17,-88.95 319.29,-94.34 320.66,-87.48"/>
</g>
<!-- Node15 -->
<g id="node15" class="node">
<title>Node15</title>
<g id="a_node15"><a xlink:href="http://www.dealii.org/developer/doxygen/deal.II/tensor__accessors_8h.html" xlink:title=" ">
<polygon fill="none" stroke="black" points="256.5,-201.5 256.5,-231.5 363.5,-231.5 363.5,-201.5 256.5,-201.5"/>
<text text-anchor="start" x="264.5" y="-219.5" font-family="Helvetica,sans-Serif" font-size="10.00">deal.II/base/tensor</text>
<text text-anchor="middle" x="310" y="-208.5" font-family="Helvetica,sans-Serif" font-size="10.00">_accessors.h</text>
</a>
</g>
</g>
<!-- Node14&#45;&gt;Node15 -->
<g id="edge33" class="edge">
<title>Node14&#45;&gt;Node15</title>
<path fill="none" stroke="midnightblue" d="M413.82,-273.73C396.27,-264.23 367.74,-248.78 345.03,-236.47"/>
<polygon fill="midnightblue" stroke="midnightblue" points="346.47,-233.27 336.01,-231.59 343.14,-239.43 346.47,-233.27"/>
</g>
<!-- Node16 -->
<g id="node16" class="node">
<title>Node16</title>
<g id="a_node16"><a xlink:href="http://www.dealii.org/developer/doxygen/deal.II/include_2deal_8II_2base_2utilities_8h.html" xlink:title=" ">
<polygon fill="none" stroke="black" points="1233,-207 1233,-226 1355,-226 1355,-207 1233,-207"/>
<text text-anchor="middle" x="1294" y="-214" font-family="Helvetica,sans-Serif" font-size="10.00">deal.II/base/utilities.h</text>
</a>
</g>
</g>
<!-- Node14&#45;&gt;Node16 -->
<g id="edge37" class="edge">
<title>Node14&#45;&gt;Node16</title>
<path fill="none" stroke="midnightblue" d="M488.03,-278.13C641.09,-266.62 1055.42,-235.45 1222.61,-222.87"/>
<polygon fill="midnightblue" stroke="midnightblue" points="1223.07,-226.35 1232.78,-222.11 1222.55,-219.37 1223.07,-226.35"/>
</g>
<!-- Node15&#45;&gt;Node2 -->
<g id="edge34" class="edge">
<title>Node15&#45;&gt;Node2</title>
<path fill="none" stroke="midnightblue" d="M311.26,-231.69C315.12,-268.26 329.49,-367.41 376,-433 399.25,-465.78 410.1,-473.07 447,-489 523.08,-521.85 618.8,-531.38 682.07,-533.81"/>
<polygon fill="midnightblue" stroke="midnightblue" points="682.21,-537.32 692.33,-534.15 682.45,-530.32 682.21,-537.32"/>
</g>
<!-- Node15&#45;&gt;Node11 -->
<g id="edge35" class="edge">
<title>Node15&#45;&gt;Node11</title>
<path fill="none" stroke="midnightblue" d="M318.46,-201.4C323.37,-193.22 329.66,-182.73 335.26,-173.39"/>
<polygon fill="midnightblue" stroke="midnightblue" points="338.41,-174.95 340.55,-164.58 332.41,-171.35 338.41,-174.95"/>
</g>
<!-- Node15&#45;&gt;Node12 -->
<g id="edge36" class="edge">
<title>Node15&#45;&gt;Node12</title>
<path fill="none" stroke="midnightblue" d="M303.58,-201.37C293.29,-178.75 273.02,-134.14 260.57,-106.76"/>
<polygon fill="midnightblue" stroke="midnightblue" points="263.7,-105.18 256.37,-97.52 257.33,-108.08 263.7,-105.18"/>
</g>
<!-- Node16&#45;&gt;Node2 -->
<g id="edge38" class="edge">
<title>Node16&#45;&gt;Node2</title>
<path fill="none" stroke="midnightblue" d="M1295.44,-226.12C1298.83,-247.14 1307,-302.75 1307,-349.5 1307,-418.5 1307,-418.5 1307,-418.5 1307,-517.35 966.37,-532.23 817.86,-534.02"/>
<polygon fill="midnightblue" stroke="midnightblue" points="817.47,-530.52 807.51,-534.13 817.55,-537.52 817.47,-530.52"/>
</g>
<!-- Node16&#45;&gt;Node5 -->
<g id="edge39" class="edge">
<title>Node16&#45;&gt;Node5</title>
<path fill="none" stroke="midnightblue" d="M1288.84,-206.91C1278.15,-189.94 1251.81,-152.15 1219,-134 1159.63,-101.16 1082.95,-89.19 1026.15,-85.05"/>
<polygon fill="midnightblue" stroke="midnightblue" points="1026.35,-81.55 1016.15,-84.39 1025.89,-88.54 1026.35,-81.55"/>
</g>
<!-- Node17&#45;&gt;Node2 -->
<g id="edge42" class="edge">
<title>Node17&#45;&gt;Node2</title>
<path fill="none" stroke="midnightblue" d="M1084.15,-432.55C1088.92,-448.29 1093.44,-473.6 1080,-489 1046.7,-527.14 904.52,-534.16 818.02,-534.78"/>
<polygon fill="midnightblue" stroke="midnightblue" points="817.74,-531.29 807.76,-534.83 817.77,-538.29 817.74,-531.29"/>
</g>
<!-- Node17&#45;&gt;Node3 -->
<g id="edge55" class="edge">
<title>Node17&#45;&gt;Node3</title>
<path fill="none" stroke="midnightblue" d="M1077.76,-432.52C1074.57,-441.03 1069.17,-451.96 1063.76,-460.96"/>
<polygon fill="midnightblue" stroke="midnightblue" points="1060.74,-459.19 1058.2,-469.48 1066.6,-463.02 1060.74,-459.19"/>
</g>
<!-- Node17&#45;&gt;Node5 -->
<g id="edge43" class="edge">
<title>Node17&#45;&gt;Node5</title>
<path fill="none" stroke="midnightblue" d="M1101.17,-402.45C1136.41,-378.16 1199.79,-325.36 1185,-268 1165.7,-193.11 1139.64,-174.89 1074,-134 1046.59,-116.92 1012.42,-103.73 986.44,-95.12"/>
<polygon fill="midnightblue" stroke="midnightblue" points="987.5,-91.78 976.91,-92.04 985.35,-98.44 987.5,-91.78"/>
</g>
<!-- Node17&#45;&gt;Node16 -->
<g id="edge54" class="edge">
<title>Node17&#45;&gt;Node16</title>
<path fill="none" stroke="midnightblue" d="M1130.92,-403.28C1176.41,-391.27 1236.57,-374.24 1245,-366 1281.32,-330.52 1290.73,-267.62 1293.16,-236.3"/>
<polygon fill="midnightblue" stroke="midnightblue" points="1296.65,-236.5 1293.77,-226.3 1289.66,-236.07 1296.65,-236.5"/>
</g>
<!-- Node18 -->
<g id="node18" class="node">
<title>Node18</title>
<g id="a_node18"><a xlink:href="http://www.dealii.org/developer/doxygen/deal.II/thread__management_8h.html" xlink:title=" ">
<polygon fill="none" stroke="black" points="1016.5,-335.5 1016.5,-365.5 1123.5,-365.5 1123.5,-335.5 1016.5,-335.5"/>
<text text-anchor="start" x="1024.5" y="-353.5" font-family="Helvetica,sans-Serif" font-size="10.00">deal.II/base/thread</text>
<text text-anchor="middle" x="1070" y="-342.5" font-family="Helvetica,sans-Serif" font-size="10.00">_management.h</text>
</a>
</g>
</g>
<!-- Node17&#45;&gt;Node18 -->
<g id="edge44" class="edge">
<title>Node17&#45;&gt;Node18</title>
<path fill="none" stroke="midnightblue" d="M1077.05,-402.4C1075.96,-394.56 1074.58,-384.6 1073.33,-375.57"/>
<polygon fill="midnightblue" stroke="midnightblue" points="1076.79,-375 1071.95,-365.58 1069.85,-375.96 1076.79,-375"/>
</g>
<!-- Node18&#45;&gt;Node2 -->
<g id="edge45" class="edge">
<title>Node18&#45;&gt;Node2</title>
<path fill="none" stroke="midnightblue" d="M1052.99,-365.78C1042.34,-375.3 1028.83,-388.5 1019,-402 993.5,-437.03 1009.5,-462.78 975,-489 950.65,-507.51 874.58,-520 817.59,-527.04"/>
<polygon fill="midnightblue" stroke="midnightblue" points="817.05,-523.58 807.54,-528.25 817.89,-530.53 817.05,-523.58"/>
</g>
<!-- Node18&#45;&gt;Node5 -->
<g id="edge46" class="edge">
<title>Node18&#45;&gt;Node5</title>
<path fill="none" stroke="midnightblue" d="M1121.91,-335.44C1140.04,-327.77 1158.47,-316.19 1169,-299 1176.2,-287.25 1174.85,-280.47 1169,-268 1128.49,-181.66 1025.52,-121.73 975.35,-96.65"/>
<polygon fill="midnightblue" stroke="midnightblue" points="976.57,-93.36 966.05,-92.11 973.5,-99.64 976.57,-93.36"/>
</g>
<!-- Node18&#45;&gt;Node12 -->
<g id="edge53" class="edge">
<title>Node18&#45;&gt;Node12</title>
<path fill="none" stroke="midnightblue" d="M1098.91,-335.45C1112.85,-326.99 1128.2,-314.78 1136,-299 1142.1,-286.65 1142.76,-280.01 1136,-268 1079.64,-167.91 1024.38,-169.09 915,-134 805.92,-99.01 468.16,-87.94 320.41,-84.72"/>
<polygon fill="midnightblue" stroke="midnightblue" points="320.17,-81.21 310.1,-84.5 320.03,-88.21 320.17,-81.21"/>
</g>
<!-- Node19 -->
<g id="node19" class="node">
<title>Node19</title>
<g id="a_node19"><a xlink:href="http://www.dealii.org/developer/doxygen/deal.II/multithread__info_8h.html" xlink:title=" ">
<polygon fill="none" stroke="black" points="993.5,-268.5 993.5,-298.5 1126.5,-298.5 1126.5,-268.5 993.5,-268.5"/>
<text text-anchor="start" x="1001.5" y="-286.5" font-family="Helvetica,sans-Serif" font-size="10.00">deal.II/base/multithread</text>
<text text-anchor="middle" x="1060" y="-275.5" font-family="Helvetica,sans-Serif" font-size="10.00">_info.h</text>
</a>
</g>
</g>
<!-- Node18&#45;&gt;Node19 -->
<g id="edge47" class="edge">
<title>Node18&#45;&gt;Node19</title>
<path fill="none" stroke="midnightblue" d="M1067.83,-335.4C1066.62,-327.56 1065.09,-317.6 1063.7,-308.57"/>
<polygon fill="midnightblue" stroke="midnightblue" points="1067.15,-307.93 1062.17,-298.58 1060.23,-308.99 1067.15,-307.93"/>
</g>
<!-- Node20 -->
<g id="node20" class="node">
<title>Node20</title>
<g id="a_node20"><a xlink:href="http://www.dealii.org/developer/doxygen/deal.II/tuple_8h.html" xlink:title=" ">
<polygon fill="none" stroke="black" points="850.5,-268.5 850.5,-298.5 975.5,-298.5 975.5,-268.5 850.5,-268.5"/>
<text text-anchor="start" x="858.5" y="-286.5" font-family="Helvetica,sans-Serif" font-size="10.00">deal.II/base/std_cxx17</text>
<text text-anchor="middle" x="913" y="-275.5" font-family="Helvetica,sans-Serif" font-size="10.00">/tuple.h</text>
</a>
</g>
</g>
<!-- Node18&#45;&gt;Node20 -->
<g id="edge51" class="edge">
<title>Node18&#45;&gt;Node20</title>
<path fill="none" stroke="midnightblue" d="M1035.93,-335.4C1012.58,-325.73 981.41,-312.82 956.3,-302.43"/>
<polygon fill="midnightblue" stroke="midnightblue" points="957.58,-299.17 947,-298.58 954.9,-305.64 957.58,-299.17"/>
</g>
<!-- Node19&#45;&gt;Node2 -->
<g id="edge48" class="edge">
<title>Node19&#45;&gt;Node2</title>
<path fill="none" stroke="midnightblue" d="M1044.53,-298.64C1033.94,-308.53 1019.75,-322.21 1008,-335 948.18,-400.13 954.65,-438.57 882,-489 858.74,-505.15 829.17,-515.94 803.92,-522.89"/>
<polygon fill="midnightblue" stroke="midnightblue" points="802.91,-519.54 794.12,-525.46 804.68,-526.31 802.91,-519.54"/>
</g>
<!-- Node19&#45;&gt;Node5 -->
<g id="edge49" class="edge">
<title>Node19&#45;&gt;Node5</title>
<path fill="none" stroke="midnightblue" d="M1051.87,-268.19C1031.67,-232.61 979.21,-140.22 957.08,-101.25"/>
<polygon fill="midnightblue" stroke="midnightblue" points="960.01,-99.33 952.03,-92.36 953.93,-102.78 960.01,-99.33"/>
</g>
<!-- Node19&#45;&gt;Node9 -->
<g id="edge50" class="edge">
<title>Node19&#45;&gt;Node9</title>
<path fill="none" stroke="midnightblue" d="M1037.53,-268.37C997.08,-242.95 912.51,-189.79 872.24,-164.48"/>
<polygon fill="midnightblue" stroke="midnightblue" points="874.01,-161.46 863.68,-159.1 870.28,-167.38 874.01,-161.46"/>
</g>
<!-- Node20&#45;&gt;Node2 -->
<g id="edge52" class="edge">
<title>Node20&#45;&gt;Node2</title>
<path fill="none" stroke="midnightblue" d="M913.73,-298.56C914.84,-335.09 912.64,-433.97 861,-489 845.84,-505.16 824.06,-515.66 803.81,-522.42"/>
<polygon fill="midnightblue" stroke="midnightblue" points="802.55,-519.14 794.03,-525.44 804.61,-525.83 802.55,-519.14"/>
</g>
<!-- Node21&#45;&gt;Node2 -->
<g id="edge57" class="edge">
<title>Node21&#45;&gt;Node2</title>
<path fill="none" stroke="midnightblue" d="M1203.27,-427.19C1183.68,-442.52 1140.25,-474.18 1098,-489 1004.58,-521.77 889.53,-531.07 817.96,-533.49"/>
<polygon fill="midnightblue" stroke="midnightblue" points="817.62,-530 807.73,-533.8 817.83,-536.99 817.62,-530"/>
</g>
<!-- Node22&#45;&gt;Node2 -->
<g id="edge62" class="edge">
<title>Node22&#45;&gt;Node2</title>
<path fill="none" stroke="midnightblue" d="M708.96,-715.43C715.49,-686.87 736.64,-594.43 745.75,-554.57"/>
<polygon fill="midnightblue" stroke="midnightblue" points="749.21,-555.15 748.03,-544.62 742.39,-553.58 749.21,-555.15"/>
</g>
<!-- Node22&#45;&gt;Node5 -->
<g id="edge63" class="edge">
<title>Node22&#45;&gt;Node5</title>
<path fill="none" stroke="midnightblue" d="M644.36,-718.73C478.05,-703.9 38,-658.86 38,-597.5 38,-597.5 38,-597.5 38,-349.5 38,-238.1 66.02,-183.12 166,-134 227.79,-103.64 681.23,-89.7 867.48,-85.21"/>
<polygon fill="midnightblue" stroke="midnightblue" points="867.84,-88.7 877.75,-84.96 867.67,-81.7 867.84,-88.7"/>
</g>
<!-- Node22&#45;&gt;Node12 -->
<g id="edge71" class="edge">
<title>Node22&#45;&gt;Node12</title>
<path fill="none" stroke="midnightblue" d="M644.21,-722.3C518.15,-718.33 238.51,-706.63 147,-679 75.49,-657.41 0,-672.2 0,-597.5 0,-597.5 0,-597.5 0,-215.5 0,-171.87 120.55,-125.19 194.23,-100.72"/>
<polygon fill="midnightblue" stroke="midnightblue" points="195.44,-104.01 203.85,-97.57 193.26,-97.36 195.44,-104.01"/>
</g>
<!-- Node22&#45;&gt;Node16 -->
<g id="edge72" class="edge">
<title>Node22&#45;&gt;Node16</title>
<path fill="none" stroke="midnightblue" d="M769.74,-719.47C943.97,-706.07 1421,-663.36 1421,-597.5 1421,-597.5 1421,-597.5 1421,-478 1421,-376.5 1342.13,-273.19 1308.7,-233.97"/>
<polygon fill="midnightblue" stroke="midnightblue" points="1311.14,-231.45 1301.94,-226.19 1305.86,-236.04 1311.14,-231.45"/>
</g>
<!-- Node23 -->
<g id="node23" class="node">
<title>Node23</title>
<g id="a_node23"><a xlink:href="http://www.dealii.org/developer/doxygen/deal.II/base_2point_8h.html" xlink:title=" ">
<polygon fill="none" stroke="black" points="250,-587 250,-606 360,-606 360,-587 250,-587"/>
<text text-anchor="middle" x="305" y="-594" font-family="Helvetica,sans-Serif" font-size="10.00">deal.II/base/point.h</text>
</a>
</g>
</g>
<!-- Node22&#45;&gt;Node23 -->
<g id="edge64" class="edge">
<title>Node22&#45;&gt;Node23</title>
<path fill="none" stroke="midnightblue" d="M679.68,-715.4C609.27,-693.25 421.52,-634.17 341.72,-609.05"/>
<polygon fill="midnightblue" stroke="midnightblue" points="342.68,-605.69 332.09,-606.02 340.58,-612.36 342.68,-605.69"/>
</g>
<!-- Node24 -->
<g id="node24" class="node">
<title>Node24</title>
<g id="a_node24"><a xlink:href="http://www.dealii.org/developer/doxygen/deal.II/subscriptor_8h.html" xlink:title=" ">
<polygon fill="none" stroke="black" points="778.5,-587 778.5,-606 917.5,-606 917.5,-587 778.5,-587"/>
<text text-anchor="middle" x="848" y="-594" font-family="Helvetica,sans-Serif" font-size="10.00">deal.II/base/subscriptor.h</text>
</a>
</g>
</g>
<!-- Node22&#45;&gt;Node24 -->
<g id="edge68" class="edge">
<title>Node22&#45;&gt;Node24</title>
<path fill="none" stroke="midnightblue" d="M718.63,-715.37C730.35,-706.55 748.82,-692.29 764,-679 788.7,-657.37 815.68,-630.58 832.22,-613.76"/>
<polygon fill="midnightblue" stroke="midnightblue" points="834.96,-615.97 839.45,-606.37 829.96,-611.07 834.96,-615.97"/>
</g>
<!-- Node25 -->
<g id="node25" class="node">
<title>Node25</title>
<g id="a_node25"><a xlink:href="http://www.dealii.org/developer/doxygen/deal.II/component__mask_8h.html" xlink:title=" ">
<polygon fill="none" stroke="black" points="585.5,-648.5 585.5,-678.5 702.5,-678.5 702.5,-648.5 585.5,-648.5"/>
<text text-anchor="start" x="593.5" y="-666.5" font-family="Helvetica,sans-Serif" font-size="10.00">deal.II/fe/component</text>
<text text-anchor="middle" x="644" y="-655.5" font-family="Helvetica,sans-Serif" font-size="10.00">_mask.h</text>
</a>
</g>
</g>
<!-- Node22&#45;&gt;Node25 -->
<g id="edge73" class="edge">
<title>Node22&#45;&gt;Node25</title>
<path fill="none" stroke="midnightblue" d="M697.97,-715.48C689.76,-707.72 677.29,-695.94 666.41,-685.66"/>
<polygon fill="midnightblue" stroke="midnightblue" points="668.52,-682.84 658.85,-678.52 663.71,-687.93 668.52,-682.84"/>
</g>
<!-- Node23&#45;&gt;Node2 -->
<g id="edge65" class="edge">
<title>Node23&#45;&gt;Node2</title>
<path fill="none" stroke="midnightblue" d="M360.01,-588.14C441.43,-577.26 593.88,-556.87 682.13,-545.08"/>
<polygon fill="midnightblue" stroke="midnightblue" points="682.85,-548.51 692.3,-543.72 681.92,-541.57 682.85,-548.51"/>
</g>
<!-- Node23&#45;&gt;Node5 -->
<g id="edge66" class="edge">
<title>Node23&#45;&gt;Node5</title>
<path fill="none" stroke="midnightblue" d="M297.45,-586.9C271.87,-556.82 190,-452.65 190,-351.5 190,-351.5 190,-351.5 190,-215.5 190,-158.51 236.13,-155.28 289,-134 391.99,-92.55 716.13,-84.91 867.58,-83.65"/>
<polygon fill="midnightblue" stroke="midnightblue" points="867.76,-87.15 877.74,-83.58 867.71,-80.15 867.76,-87.15"/>
</g>
<!-- Node23&#45;&gt;Node14 -->
<g id="edge67" class="edge">
<title>Node23&#45;&gt;Node14</title>
<path fill="none" stroke="midnightblue" d="M304.29,-586.97C301.85,-552.29 296.77,-419.66 353,-335 364.09,-318.3 382.79,-305.85 398.98,-297.48"/>
<polygon fill="midnightblue" stroke="midnightblue" points="400.69,-300.55 408.15,-293.03 397.63,-294.25 400.69,-300.55"/>
</g>
<!-- Node24&#45;&gt;Node2 -->
<g id="edge69" class="edge">
<title>Node24&#45;&gt;Node2</title>
<path fill="none" stroke="midnightblue" d="M833.96,-586.98C817.95,-577.25 791.55,-561.23 772.63,-549.74"/>
<polygon fill="midnightblue" stroke="midnightblue" points="774.38,-546.71 764.01,-544.51 770.75,-552.69 774.38,-546.71"/>
</g>
<!-- Node24&#45;&gt;Node5 -->
<g id="edge70" class="edge">
<title>Node24&#45;&gt;Node5</title>
<path fill="none" stroke="midnightblue" d="M917.59,-591.39C1009.05,-583.29 1172.02,-559.36 1291,-489 1383.7,-434.18 1421,-392.2 1421,-284.5 1421,-284.5 1421,-284.5 1421,-215.5 1421,-152.49 1363.6,-157.15 1305,-134 1213.84,-97.98 1100.69,-87.11 1026.29,-84.12"/>
<polygon fill="midnightblue" stroke="midnightblue" points="1026.18,-80.61 1016.06,-83.74 1025.93,-87.61 1026.18,-80.61"/>
</g>
<!-- Node25&#45;&gt;Node2 -->
<g id="edge74" class="edge">
<title>Node25&#45;&gt;Node2</title>
<path fill="none" stroke="midnightblue" d="M658.29,-648.3C668.07,-638.39 681.17,-624.7 692,-612 708.74,-592.36 726.54,-568.54 737.94,-552.87"/>
<polygon fill="midnightblue" stroke="midnightblue" points="740.84,-554.83 743.85,-544.67 735.16,-550.73 740.84,-554.83"/>
</g>
<!-- Node25&#45;&gt;Node5 -->
<g id="edge75" class="edge">
<title>Node25&#45;&gt;Node5</title>
<path fill="none" stroke="midnightblue" d="M585.35,-661.77C440.23,-658.38 76,-639.55 76,-536 76,-536 76,-536 76,-416.5 76,-277.15 94.92,-209.57 212,-134 266.06,-99.11 689.23,-87.87 867.86,-84.65"/>
<polygon fill="midnightblue" stroke="midnightblue" points="868.05,-88.15 877.98,-84.48 867.92,-81.15 868.05,-88.15"/>
</g>
<!-- Node26 -->
<g id="node26" class="node">
<title>Node26</title>
<g id="a_node26"><a xlink:href="http://www.dealii.org/developer/doxygen/deal.II/memory__consumption_8h.html" xlink:title=" ">
<polygon fill="none" stroke="black" points="566.5,-581.5 566.5,-611.5 683.5,-611.5 683.5,-581.5 566.5,-581.5"/>
<text text-anchor="start" x="574.5" y="-599.5" font-family="Helvetica,sans-Serif" font-size="10.00">deal.II/base/memory</text>
<text text-anchor="middle" x="625" y="-588.5" font-family="Helvetica,sans-Serif" font-size="10.00">_consumption.h</text>
</a>
</g>
</g>
<!-- Node25&#45;&gt;Node26 -->
<g id="edge76" class="edge">
<title>Node25&#45;&gt;Node26</title>
<path fill="none" stroke="midnightblue" d="M639.88,-648.4C637.56,-640.47 634.61,-630.38 631.95,-621.27"/>
<polygon fill="midnightblue" stroke="midnightblue" points="635.28,-620.19 629.11,-611.58 628.56,-622.16 635.28,-620.19"/>
</g>
<!-- Node26&#45;&gt;Node2 -->
<g id="edge77" class="edge">
<title>Node26&#45;&gt;Node2</title>
<path fill="none" stroke="midnightblue" d="M654.62,-581.4C675.22,-571.59 702.48,-558.62 722.58,-549.05"/>
<polygon fill="midnightblue" stroke="midnightblue" points="724.29,-552.12 731.81,-544.66 721.28,-545.8 724.29,-552.12"/>
</g>
</g>
</svg>
