<?xml version="1.0" encoding="UTF-8" standalone="no"?>
<!DOCTYPE svg PUBLIC "-//W3C//DTD SVG 1.1//EN"
 "http://www.w3.org/Graphics/SVG/1.1/DTD/svg11.dtd">
<!-- Generated by graphviz version 2.43.0 (0)
 -->
<!-- Title: include/projection_operator.h Pages: 1 -->
<svg width="483pt" height="106pt"
 viewBox="0.00 0.00 483.00 106.00" xmlns="http://www.w3.org/2000/svg" xmlns:xlink="http://www.w3.org/1999/xlink">
<g id="graph0" class="graph" transform="scale(1 1) rotate(0) translate(4 102)">
<title>include/projection_operator.h</title>
<!-- Node1 -->
<g id="node1" class="node">
<title>Node1</title>
<g id="a_node1"><a xlink:title=" ">
<polygon fill="#bfbfbf" stroke="black" points="190,-67.5 190,-97.5 294,-97.5 294,-67.5 190,-67.5"/>
<text text-anchor="start" x="198" y="-85.5" font-family="Helvetica,sans-Serif" font-size="10.00">include/projection</text>
<text text-anchor="middle" x="242" y="-74.5" font-family="Helvetica,sans-Serif" font-size="10.00">_operator.h</text>
</a>
</g>
</g>
<!-- Node2 -->
<g id="node2" class="node">
<title>Node2</title>
<g id="a_node2"><a target="_parent" xlink:href="http://www.dealii.org/developer/doxygen/deal.II/config_8h.html.html" xlink:title=" ">
<polygon fill="none" stroke="black" points="0,-6 0,-25 114,-25 114,-6 0,-6"/>
<text text-anchor="middle" x="57" y="-13" font-family="Helvetica,sans-Serif" font-size="10.00">deal.II/base/config.h</text>
</a>
</g>
</g>
<!-- Node1&#45;&gt;Node2 -->
<g id="edge1" class="edge">
<title>Node1&#45;&gt;Node2</title>
<path fill="none" stroke="midnightblue" d="M201.86,-67.4C168.68,-55.74 122.1,-39.37 90.8,-28.38"/>
<polygon fill="midnightblue" stroke="midnightblue" points="91.81,-25.02 81.21,-25.01 89.49,-31.62 91.81,-25.02"/>
</g>
<!-- Node3 -->
<g id="node3" class="node">
<title>Node3</title>
<g id="a_node3"><a target="_parent" xlink:href="http://www.dealii.org/developer/doxygen/deal.II/linear__operator__tools_8h.html.html" xlink:title=" ">
<polygon fill="none" stroke="black" points="132.5,-0.5 132.5,-30.5 233.5,-30.5 233.5,-0.5 132.5,-0.5"/>
<text text-anchor="start" x="140.5" y="-18.5" font-family="Helvetica,sans-Serif" font-size="10.00">deal.II/lac/linear</text>
<text text-anchor="middle" x="183" y="-7.5" font-family="Helvetica,sans-Serif" font-size="10.00">_operator_tools.h</text>
</a>
</g>
</g>
<!-- Node1&#45;&gt;Node3 -->
<g id="edge2" class="edge">
<title>Node1&#45;&gt;Node3</title>
<path fill="none" stroke="midnightblue" d="M229.2,-67.4C221.47,-58.88 211.45,-47.85 202.73,-38.23"/>
<polygon fill="midnightblue" stroke="midnightblue" points="205.09,-35.63 195.78,-30.58 199.91,-40.33 205.09,-35.63"/>
</g>
<!-- Node4 -->
<g id="node4" class="node">
<title>Node4</title>
<g id="a_node4"><a target="_parent" xlink:href="http://www.dealii.org/developer/doxygen/deal.II/sparse__matrix_8h.html.html" xlink:title=" ">
<polygon fill="none" stroke="black" points="251.5,-0.5 251.5,-30.5 350.5,-30.5 350.5,-0.5 251.5,-0.5"/>
<text text-anchor="start" x="259.5" y="-18.5" font-family="Helvetica,sans-Serif" font-size="10.00">deal.II/lac/sparse</text>
<text text-anchor="middle" x="301" y="-7.5" font-family="Helvetica,sans-Serif" font-size="10.00">_matrix.h</text>
</a>
</g>
</g>
<!-- Node1&#45;&gt;Node4 -->
<g id="edge3" class="edge">
<title>Node1&#45;&gt;Node4</title>
<path fill="none" stroke="midnightblue" d="M254.8,-67.4C262.53,-58.88 272.55,-47.85 281.27,-38.23"/>
<polygon fill="midnightblue" stroke="midnightblue" points="284.09,-40.33 288.22,-30.58 278.91,-35.63 284.09,-40.33"/>
</g>
<!-- Node5 -->
<g id="node5" class="node">
<title>Node5</title>
<g id="a_node5"><a target="_parent" xlink:href="http://www.dealii.org/developer/doxygen/deal.II/vector_8h.html.html" xlink:title=" ">
<polygon fill="none" stroke="black" points="369,-6 369,-25 475,-25 475,-6 369,-6"/>
<text text-anchor="middle" x="422" y="-13" font-family="Helvetica,sans-Serif" font-size="10.00">deal.II/lac/vector.h</text>
</a>
</g>
</g>
<!-- Node1&#45;&gt;Node5 -->
<g id="edge4" class="edge">
<title>Node1&#45;&gt;Node5</title>
<path fill="none" stroke="midnightblue" d="M281.06,-67.4C313.2,-55.79 358.27,-39.51 388.72,-28.52"/>
<polygon fill="midnightblue" stroke="midnightblue" points="390.23,-31.7 398.44,-25.01 387.85,-25.11 390.23,-31.7"/>
</g>
</g>
</svg>
