<?xml version="1.0" encoding="UTF-8" standalone="no"?>
<!DOCTYPE svg PUBLIC "-//W3C//DTD SVG 1.1//EN"
 "http://www.w3.org/Graphics/SVG/1.1/DTD/svg11.dtd">
<!-- Generated by graphviz version 2.43.0 (0)
 -->
<!-- Title: include/parsed_tools/proxy.h Pages: 1 -->
<svg width="1456pt" height="307pt"
 viewBox="0.00 0.00 1456.00 307.00" xmlns="http://www.w3.org/2000/svg" xmlns:xlink="http://www.w3.org/1999/xlink">
<g id="graph0" class="graph" transform="scale(1 1) rotate(0) translate(4 303)">
<title>include/parsed_tools/proxy.h</title>
<!-- Node1 -->
<g id="node1" class="node">
<title>Node1</title>
<g id="a_node1"><a xlink:title=" ">
<polygon fill="#bfbfbf" stroke="black" points="992.5,-268.5 992.5,-298.5 1109.5,-298.5 1109.5,-268.5 992.5,-268.5"/>
<text text-anchor="start" x="1000.5" y="-286.5" font-family="Helvetica,sans-Serif" font-size="10.00">include/parsed_tools</text>
<text text-anchor="middle" x="1051" y="-275.5" font-family="Helvetica,sans-Serif" font-size="10.00">/proxy.h</text>
</a>
</g>
</g>
<!-- Node2 -->
<g id="node2" class="node">
<title>Node2</title>
<g id="a_node2"><a xlink:href="convergence__table_8h.html" target="_top" xlink:title=" ">
<polygon fill="none" stroke="black" points="990.5,-201.5 990.5,-231.5 1111.5,-231.5 1111.5,-201.5 990.5,-201.5"/>
<text text-anchor="start" x="998.5" y="-219.5" font-family="Helvetica,sans-Serif" font-size="10.00">include/parsed_tools</text>
<text text-anchor="middle" x="1051" y="-208.5" font-family="Helvetica,sans-Serif" font-size="10.00">/convergence_table.h</text>
</a>
</g>
</g>
<!-- Node1&#45;&gt;Node2 -->
<g id="edge1" class="edge">
<title>Node1&#45;&gt;Node2</title>
<path fill="none" stroke="midnightblue" d="M1051,-258.11C1051,-249.15 1051,-239.32 1051,-231.58"/>
<polygon fill="midnightblue" stroke="midnightblue" points="1047.5,-258.4 1051,-268.4 1054.5,-258.4 1047.5,-258.4"/>
</g>
<!-- Node3 -->
<g id="node3" class="node">
<title>Node3</title>
<g id="a_node3"><a xlink:href="linear__problem_8h.html" target="_top" xlink:title=" ">
<polygon fill="none" stroke="black" points="630.5,-134.5 630.5,-164.5 761.5,-164.5 761.5,-134.5 630.5,-134.5"/>
<text text-anchor="start" x="638.5" y="-152.5" font-family="Helvetica,sans-Serif" font-size="10.00">include/pdes/mpi/linear</text>
<text text-anchor="middle" x="696" y="-141.5" font-family="Helvetica,sans-Serif" font-size="10.00">_problem.h</text>
</a>
</g>
</g>
<!-- Node2&#45;&gt;Node3 -->
<g id="edge2" class="edge">
<title>Node2&#45;&gt;Node3</title>
<path fill="none" stroke="midnightblue" d="M980.42,-202.58C916.78,-190.93 823.91,-173.92 761.8,-162.55"/>
<polygon fill="midnightblue" stroke="midnightblue" points="979.91,-206.04 990.38,-204.4 981.17,-199.16 979.91,-206.04"/>
</g>
<!-- Node14 -->
<g id="node14" class="node">
<title>Node14</title>
<g id="a_node14"><a xlink:href="serial_2poisson_8h.html" target="_top" xlink:title=" ">
<polygon fill="none" stroke="black" points="997,-134.5 997,-164.5 1105,-164.5 1105,-134.5 997,-134.5"/>
<text text-anchor="start" x="1005" y="-152.5" font-family="Helvetica,sans-Serif" font-size="10.00">include/pdes/serial</text>
<text text-anchor="middle" x="1051" y="-141.5" font-family="Helvetica,sans-Serif" font-size="10.00">/poisson.h</text>
</a>
</g>
</g>
<!-- Node2&#45;&gt;Node14 -->
<g id="edge13" class="edge">
<title>Node2&#45;&gt;Node14</title>
<path fill="none" stroke="midnightblue" d="M1051,-191.11C1051,-182.15 1051,-172.32 1051,-164.58"/>
<polygon fill="midnightblue" stroke="midnightblue" points="1047.5,-191.4 1051,-201.4 1054.5,-191.4 1047.5,-191.4"/>
</g>
<!-- Node17 -->
<g id="node17" class="node">
<title>Node17</title>
<g id="a_node17"><a xlink:href="reduced__lagrange_8h.html" target="_top" xlink:title=" ">
<polygon fill="none" stroke="black" points="1200,-134.5 1200,-164.5 1316,-164.5 1316,-134.5 1200,-134.5"/>
<text text-anchor="start" x="1208" y="-152.5" font-family="Helvetica,sans-Serif" font-size="10.00">include/pdes/serial</text>
<text text-anchor="middle" x="1258" y="-141.5" font-family="Helvetica,sans-Serif" font-size="10.00">/reduced_lagrange.h</text>
</a>
</g>
</g>
<!-- Node2&#45;&gt;Node17 -->
<g id="edge16" class="edge">
<title>Node2&#45;&gt;Node17</title>
<path fill="none" stroke="midnightblue" d="M1105.32,-198.44C1138.87,-187.91 1181.41,-174.55 1213.06,-164.61"/>
<polygon fill="midnightblue" stroke="midnightblue" points="1104.15,-195.14 1095.66,-201.48 1106.25,-201.82 1104.15,-195.14"/>
</g>
<!-- Node4 -->
<g id="node4" class="node">
<title>Node4</title>
<g id="a_node4"><a xlink:href="mpi_2linear__elasticity_8h.html" target="_top" xlink:title=" ">
<polygon fill="none" stroke="black" points="158.5,-67.5 158.5,-97.5 289.5,-97.5 289.5,-67.5 158.5,-67.5"/>
<text text-anchor="start" x="166.5" y="-85.5" font-family="Helvetica,sans-Serif" font-size="10.00">include/pdes/mpi/linear</text>
<text text-anchor="middle" x="224" y="-74.5" font-family="Helvetica,sans-Serif" font-size="10.00">_elasticity.h</text>
</a>
</g>
</g>
<!-- Node3&#45;&gt;Node4 -->
<g id="edge3" class="edge">
<title>Node3&#45;&gt;Node4</title>
<path fill="none" stroke="midnightblue" d="M620.35,-138.08C528.93,-125.49 376.61,-104.52 289.83,-92.57"/>
<polygon fill="midnightblue" stroke="midnightblue" points="619.99,-141.56 630.37,-139.46 620.94,-134.63 619.99,-141.56"/>
</g>
<!-- Node7 -->
<g id="node7" class="node">
<title>Node7</title>
<g id="a_node7"><a xlink:href="mpi_2poisson_8h.html" target="_top" xlink:title=" ">
<polygon fill="none" stroke="black" points="457.5,-73 457.5,-92 606.5,-92 606.5,-73 457.5,-73"/>
<text text-anchor="middle" x="532" y="-80" font-family="Helvetica,sans-Serif" font-size="10.00">include/pdes/mpi/poisson.h</text>
</a>
</g>
</g>
<!-- Node3&#45;&gt;Node7 -->
<g id="edge6" class="edge">
<title>Node3&#45;&gt;Node7</title>
<path fill="none" stroke="midnightblue" d="M650.89,-130.62C619.15,-118.04 578.09,-101.77 553.46,-92.01"/>
<polygon fill="midnightblue" stroke="midnightblue" points="649.83,-133.97 660.41,-134.4 652.41,-127.46 649.83,-133.97"/>
</g>
<!-- Node10 -->
<g id="node10" class="node">
<title>Node10</title>
<g id="a_node10"><a xlink:href="mpi_2stokes_8h.html" target="_top" xlink:title=" ">
<polygon fill="none" stroke="black" points="624.5,-73 624.5,-92 767.5,-92 767.5,-73 624.5,-73"/>
<text text-anchor="middle" x="696" y="-80" font-family="Helvetica,sans-Serif" font-size="10.00">include/pdes/mpi/stokes.h</text>
</a>
</g>
</g>
<!-- Node3&#45;&gt;Node10 -->
<g id="edge9" class="edge">
<title>Node3&#45;&gt;Node10</title>
<path fill="none" stroke="midnightblue" d="M696,-124.25C696,-113.02 696,-100.38 696,-92.19"/>
<polygon fill="midnightblue" stroke="midnightblue" points="692.5,-124.4 696,-134.4 699.5,-124.4 692.5,-124.4"/>
</g>
<!-- Node13 -->
<g id="node13" class="node">
<title>Node13</title>
<g id="a_node13"><a xlink:href="linear__problem_8cc.html" target="_top" xlink:title=" ">
<polygon fill="none" stroke="black" points="786,-67.5 786,-97.5 914,-97.5 914,-67.5 786,-67.5"/>
<text text-anchor="start" x="794" y="-85.5" font-family="Helvetica,sans-Serif" font-size="10.00">source/pdes/mpi/linear</text>
<text text-anchor="middle" x="850" y="-74.5" font-family="Helvetica,sans-Serif" font-size="10.00">_problem.cc</text>
</a>
</g>
</g>
<!-- Node3&#45;&gt;Node13 -->
<g id="edge12" class="edge">
<title>Node3&#45;&gt;Node13</title>
<path fill="none" stroke="midnightblue" d="M738.87,-130.41C763.45,-120.03 793.86,-107.2 816.65,-97.58"/>
<polygon fill="midnightblue" stroke="midnightblue" points="737.27,-127.28 729.42,-134.4 739.99,-133.73 737.27,-127.28"/>
</g>
<!-- Node5 -->
<g id="node5" class="node">
<title>Node5</title>
<g id="a_node5"><a xlink:href="source_2pdes_2mpi_2linear__elasticity_8cc.html" target="_top" xlink:title=" ">
<polygon fill="none" stroke="black" points="0,-0.5 0,-30.5 128,-30.5 128,-0.5 0,-0.5"/>
<text text-anchor="start" x="8" y="-18.5" font-family="Helvetica,sans-Serif" font-size="10.00">source/pdes/mpi/linear</text>
<text text-anchor="middle" x="64" y="-7.5" font-family="Helvetica,sans-Serif" font-size="10.00">_elasticity.cc</text>
</a>
</g>
</g>
<!-- Node4&#45;&gt;Node5 -->
<g id="edge4" class="edge">
<title>Node4&#45;&gt;Node5</title>
<path fill="none" stroke="midnightblue" d="M179.8,-63.54C154.2,-53.14 122.43,-40.24 98.65,-30.58"/>
<polygon fill="midnightblue" stroke="midnightblue" points="178.7,-66.87 189.28,-67.4 181.34,-60.39 178.7,-66.87"/>
</g>
<!-- Node6 -->
<g id="node6" class="node">
<title>Node6</title>
<g id="a_node6"><a xlink:href="apps_2mpi_2linear__elasticity_8cc.html" target="_top" xlink:title=" ">
<polygon fill="none" stroke="black" points="146.5,-6 146.5,-25 301.5,-25 301.5,-6 146.5,-6"/>
<text text-anchor="middle" x="224" y="-13" font-family="Helvetica,sans-Serif" font-size="10.00">apps/mpi/linear_elasticity.cc</text>
</a>
</g>
</g>
<!-- Node4&#45;&gt;Node6 -->
<g id="edge5" class="edge">
<title>Node4&#45;&gt;Node6</title>
<path fill="none" stroke="midnightblue" d="M224,-57.25C224,-46.02 224,-33.38 224,-25.19"/>
<polygon fill="midnightblue" stroke="midnightblue" points="220.5,-57.4 224,-67.4 227.5,-57.4 220.5,-57.4"/>
</g>
<!-- Node8 -->
<g id="node8" class="node">
<title>Node8</title>
<g id="a_node8"><a xlink:href="source_2pdes_2mpi_2poisson_8cc.html" target="_top" xlink:title=" ">
<polygon fill="none" stroke="black" points="319.5,-6 319.5,-25 470.5,-25 470.5,-6 319.5,-6"/>
<text text-anchor="middle" x="395" y="-13" font-family="Helvetica,sans-Serif" font-size="10.00">source/pdes/mpi/poisson.cc</text>
</a>
</g>
</g>
<!-- Node7&#45;&gt;Node8 -->
<g id="edge7" class="edge">
<title>Node7&#45;&gt;Node8</title>
<path fill="none" stroke="midnightblue" d="M504.48,-68.44C477.35,-55.57 436.64,-36.26 413.27,-25.17"/>
<polygon fill="midnightblue" stroke="midnightblue" points="503.27,-71.74 513.81,-72.87 506.27,-65.42 503.27,-71.74"/>
</g>
<!-- Node9 -->
<g id="node9" class="node">
<title>Node9</title>
<g id="a_node9"><a xlink:href="apps_2mpi_2poisson_8cc.html" target="_top" xlink:title=" ">
<polygon fill="none" stroke="black" points="489,-6 489,-25 605,-25 605,-6 489,-6"/>
<text text-anchor="middle" x="547" y="-13" font-family="Helvetica,sans-Serif" font-size="10.00">apps/mpi/poisson.cc</text>
</a>
</g>
</g>
<!-- Node7&#45;&gt;Node9 -->
<g id="edge8" class="edge">
<title>Node7&#45;&gt;Node9</title>
<path fill="none" stroke="midnightblue" d="M536.29,-62.91C539.16,-50.49 542.8,-34.72 545.01,-25.13"/>
<polygon fill="midnightblue" stroke="midnightblue" points="532.86,-62.2 534.02,-72.73 539.68,-63.78 532.86,-62.2"/>
</g>
<!-- Node11 -->
<g id="node11" class="node">
<title>Node11</title>
<g id="a_node11"><a xlink:href="source_2pdes_2mpi_2stokes_8cc.html" target="_top" xlink:title=" ">
<polygon fill="none" stroke="black" points="623.5,-6 623.5,-25 768.5,-25 768.5,-6 623.5,-6"/>
<text text-anchor="middle" x="696" y="-13" font-family="Helvetica,sans-Serif" font-size="10.00">source/pdes/mpi/stokes.cc</text>
</a>
</g>
</g>
<!-- Node10&#45;&gt;Node11 -->
<g id="edge10" class="edge">
<title>Node10&#45;&gt;Node11</title>
<path fill="none" stroke="midnightblue" d="M696,-62.54C696,-50.17 696,-34.62 696,-25.13"/>
<polygon fill="midnightblue" stroke="midnightblue" points="692.5,-62.73 696,-72.73 699.5,-62.73 692.5,-62.73"/>
</g>
<!-- Node12 -->
<g id="node12" class="node">
<title>Node12</title>
<g id="a_node12"><a xlink:href="apps_2mpi_2stokes_8cc.html" target="_top" xlink:title=" ">
<polygon fill="none" stroke="black" points="787,-6 787,-25 897,-25 897,-6 787,-6"/>
<text text-anchor="middle" x="842" y="-13" font-family="Helvetica,sans-Serif" font-size="10.00">apps/mpi/stokes.cc</text>
</a>
</g>
</g>
<!-- Node10&#45;&gt;Node12 -->
<g id="edge11" class="edge">
<title>Node10&#45;&gt;Node12</title>
<path fill="none" stroke="midnightblue" d="M724.57,-68.78C753.48,-55.91 797.4,-36.35 822.53,-25.17"/>
<polygon fill="midnightblue" stroke="midnightblue" points="723.1,-65.6 715.39,-72.87 725.95,-72 723.1,-65.6"/>
</g>
<!-- Node15 -->
<g id="node15" class="node">
<title>Node15</title>
<g id="a_node15"><a xlink:href="source_2pdes_2serial_2poisson_8cc.html" target="_top" xlink:title=" ">
<polygon fill="none" stroke="black" points="932.5,-67.5 932.5,-97.5 1037.5,-97.5 1037.5,-67.5 932.5,-67.5"/>
<text text-anchor="start" x="940.5" y="-85.5" font-family="Helvetica,sans-Serif" font-size="10.00">source/pdes/serial</text>
<text text-anchor="middle" x="985" y="-74.5" font-family="Helvetica,sans-Serif" font-size="10.00">/poisson.cc</text>
</a>
</g>
</g>
<!-- Node14&#45;&gt;Node15 -->
<g id="edge14" class="edge">
<title>Node14&#45;&gt;Node15</title>
<path fill="none" stroke="midnightblue" d="M1029.49,-127.31C1019.59,-117.56 1008.11,-106.26 999.29,-97.58"/>
<polygon fill="midnightblue" stroke="midnightblue" points="1027.1,-129.87 1036.68,-134.4 1032.01,-124.89 1027.1,-129.87"/>
</g>
<!-- Node16 -->
<g id="node16" class="node">
<title>Node16</title>
<g id="a_node16"><a xlink:href="apps_2serial_2poisson_8cc.html" target="_top" xlink:title=" ">
<polygon fill="none" stroke="black" points="1056,-73 1056,-92 1180,-92 1180,-73 1056,-73"/>
<text text-anchor="middle" x="1118" y="-80" font-family="Helvetica,sans-Serif" font-size="10.00">apps/serial/poisson.cc</text>
</a>
</g>
</g>
<!-- Node14&#45;&gt;Node16 -->
<g id="edge15" class="edge">
<title>Node14&#45;&gt;Node16</title>
<path fill="none" stroke="midnightblue" d="M1072.82,-127.34C1085.12,-115.4 1099.82,-101.14 1109.04,-92.19"/>
<polygon fill="midnightblue" stroke="midnightblue" points="1070.28,-124.92 1065.54,-134.4 1075.15,-129.94 1070.28,-124.92"/>
</g>
<!-- Node18 -->
<g id="node18" class="node">
<title>Node18</title>
<g id="a_node18"><a xlink:href="source_2pdes_2serial_2reduced__lagrange_8cc.html" target="_top" xlink:title=" ">
<polygon fill="none" stroke="black" points="1198,-67.5 1198,-97.5 1318,-97.5 1318,-67.5 1198,-67.5"/>
<text text-anchor="start" x="1206" y="-85.5" font-family="Helvetica,sans-Serif" font-size="10.00">source/pdes/serial</text>
<text text-anchor="middle" x="1258" y="-74.5" font-family="Helvetica,sans-Serif" font-size="10.00">/reduced_lagrange.cc</text>
</a>
</g>
</g>
<!-- Node17&#45;&gt;Node18 -->
<g id="edge17" class="edge">
<title>Node17&#45;&gt;Node18</title>
<path fill="none" stroke="midnightblue" d="M1258,-124.11C1258,-115.15 1258,-105.32 1258,-97.58"/>
<polygon fill="midnightblue" stroke="midnightblue" points="1254.5,-124.4 1258,-134.4 1261.5,-124.4 1254.5,-124.4"/>
</g>
<!-- Node19 -->
<g id="node19" class="node">
<title>Node19</title>
<g id="a_node19"><a xlink:href="apps_2serial_2reduced__lagrange_8cc.html" target="_top" xlink:title=" ">
<polygon fill="none" stroke="black" points="1336,-67.5 1336,-97.5 1448,-97.5 1448,-67.5 1336,-67.5"/>
<text text-anchor="start" x="1344" y="-85.5" font-family="Helvetica,sans-Serif" font-size="10.00">apps/serial/reduced</text>
<text text-anchor="middle" x="1392" y="-74.5" font-family="Helvetica,sans-Serif" font-size="10.00">_lagrange.cc</text>
</a>
</g>
</g>
<!-- Node17&#45;&gt;Node19 -->
<g id="edge18" class="edge">
<title>Node17&#45;&gt;Node19</title>
<path fill="none" stroke="midnightblue" d="M1296.15,-129.99C1317.39,-119.69 1343.41,-107.07 1362.98,-97.58"/>
<polygon fill="midnightblue" stroke="midnightblue" points="1294.55,-126.88 1287.08,-134.4 1297.6,-133.18 1294.55,-126.88"/>
</g>
</g>
</svg>
