<?xml version="1.0" encoding="UTF-8" standalone="no"?>
<!DOCTYPE svg PUBLIC "-//W3C//DTD SVG 1.1//EN"
 "http://www.w3.org/Graphics/SVG/1.1/DTD/svg11.dtd">
<!-- Generated by graphviz version 2.43.0 (0)
 -->
<!-- Title: include/runner.h Pages: 1 -->
<svg width="1897pt" height="95pt"
 viewBox="0.00 0.00 1896.50 95.00" xmlns="http://www.w3.org/2000/svg" xmlns:xlink="http://www.w3.org/1999/xlink">
<g id="graph0" class="graph" transform="scale(1 1) rotate(0) translate(4 91)">
<title>include/runner.h</title>
<!-- Node1 -->
<g id="node1" class="node">
<title>Node1</title>
<g id="a_node1"><a xlink:title=" ">
<polygon fill="#bfbfbf" stroke="black" points="917,-67.5 917,-86.5 1012,-86.5 1012,-67.5 917,-67.5"/>
<text text-anchor="middle" x="964.5" y="-74.5" font-family="Helvetica,sans-Serif" font-size="10.00">include/runner.h</text>
</a>
</g>
</g>
<!-- Node2 -->
<g id="node2" class="node">
<title>Node2</title>
<g id="a_node2"><a xlink:href="runner_8cc.html" target="_top" xlink:title=" ">
<polygon fill="none" stroke="black" points="0,-6 0,-25 97,-25 97,-6 0,-6"/>
<text text-anchor="middle" x="48.5" y="-13" font-family="Helvetica,sans-Serif" font-size="10.00">source/runner.cc</text>
</a>
</g>
</g>
<!-- Node1&#45;&gt;Node2 -->
<g id="edge1" class="edge">
<title>Node1&#45;&gt;Node2</title>
<path fill="none" stroke="midnightblue" d="M906.81,-74.46C740.26,-69.77 260.69,-54.57 105.5,-31 96.31,-29.6 86.46,-27.37 77.56,-25.07"/>
<polygon fill="midnightblue" stroke="midnightblue" points="906.76,-77.96 916.85,-74.74 906.96,-70.96 906.76,-77.96"/>
</g>
<!-- Node3 -->
<g id="node3" class="node">
<title>Node3</title>
<g id="a_node3"><a xlink:href="mesh__handler_8cc.html" target="_top" xlink:title="Mesh generator and reader.">
<polygon fill="none" stroke="black" points="115,-6 115,-25 240,-25 240,-6 115,-6"/>
<text text-anchor="middle" x="177.5" y="-13" font-family="Helvetica,sans-Serif" font-size="10.00">apps/mesh_handler.cc</text>
</a>
</g>
</g>
<!-- Node1&#45;&gt;Node3 -->
<g id="edge2" class="edge">
<title>Node1&#45;&gt;Node3</title>
<path fill="none" stroke="midnightblue" d="M906.71,-75.08C784.64,-72.55 491.74,-63.32 248.5,-31 237.28,-29.51 225.17,-27.27 214.19,-25"/>
<polygon fill="midnightblue" stroke="midnightblue" points="906.87,-78.59 916.94,-75.29 907.01,-71.59 906.87,-78.59"/>
</g>
<!-- Node4 -->
<g id="node4" class="node">
<title>Node4</title>
<g id="a_node4"><a xlink:href="apps_2mpi_2distributed__lagrange_8cc.html" target="_top" xlink:title=" ">
<polygon fill="none" stroke="black" points="258,-0.5 258,-30.5 375,-30.5 375,-0.5 258,-0.5"/>
<text text-anchor="start" x="266" y="-18.5" font-family="Helvetica,sans-Serif" font-size="10.00">apps/mpi/distributed</text>
<text text-anchor="middle" x="316.5" y="-7.5" font-family="Helvetica,sans-Serif" font-size="10.00">_lagrange.cc</text>
</a>
</g>
</g>
<!-- Node1&#45;&gt;Node4 -->
<g id="edge3" class="edge">
<title>Node1&#45;&gt;Node4</title>
<path fill="none" stroke="midnightblue" d="M906.76,-74.13C802.01,-70.15 573.87,-58.84 383.5,-31 380.79,-30.6 378.03,-30.16 375.24,-29.69"/>
<polygon fill="midnightblue" stroke="midnightblue" points="906.69,-77.63 916.81,-74.5 906.95,-70.63 906.69,-77.63"/>
</g>
<!-- Node5 -->
<g id="node5" class="node">
<title>Node5</title>
<g id="a_node5"><a xlink:href="apps_2mpi_2linear__elasticity_8cc.html" target="_top" xlink:title=" ">
<polygon fill="none" stroke="black" points="393,-6 393,-25 548,-25 548,-6 393,-6"/>
<text text-anchor="middle" x="470.5" y="-13" font-family="Helvetica,sans-Serif" font-size="10.00">apps/mpi/linear_elasticity.cc</text>
</a>
</g>
</g>
<!-- Node1&#45;&gt;Node5 -->
<g id="edge4" class="edge">
<title>Node1&#45;&gt;Node5</title>
<path fill="none" stroke="midnightblue" d="M906.71,-70.68C827.54,-63.14 680.96,-48.34 556.5,-31 544.05,-29.27 530.64,-27.13 518.19,-25.04"/>
<polygon fill="midnightblue" stroke="midnightblue" points="906.68,-74.19 916.96,-71.65 907.34,-67.22 906.68,-74.19"/>
</g>
<!-- Node6 -->
<g id="node6" class="node">
<title>Node6</title>
<g id="a_node6"><a xlink:href="apps_2mpi_2linear__visco__elasticity_8cc.html" target="_top" xlink:title=" ">
<polygon fill="none" stroke="black" points="566,-0.5 566,-30.5 689,-30.5 689,-0.5 566,-0.5"/>
<text text-anchor="start" x="574" y="-18.5" font-family="Helvetica,sans-Serif" font-size="10.00">apps/mpi/linear_visco</text>
<text text-anchor="middle" x="627.5" y="-7.5" font-family="Helvetica,sans-Serif" font-size="10.00">_elasticity.cc</text>
</a>
</g>
</g>
<!-- Node1&#45;&gt;Node6 -->
<g id="edge5" class="edge">
<title>Node1&#45;&gt;Node6</title>
<path fill="none" stroke="midnightblue" d="M906.78,-66.81C852.83,-58.09 770.09,-44.36 698.5,-31 695.41,-30.42 692.24,-29.82 689.05,-29.2"/>
<polygon fill="midnightblue" stroke="midnightblue" points="906.41,-70.3 916.84,-68.44 907.53,-63.39 906.41,-70.3"/>
</g>
<!-- Node7 -->
<g id="node7" class="node">
<title>Node7</title>
<g id="a_node7"><a xlink:href="apps_2mpi_2poisson_8cc.html" target="_top" xlink:title=" ">
<polygon fill="none" stroke="black" points="707.5,-6 707.5,-25 823.5,-25 823.5,-6 707.5,-6"/>
<text text-anchor="middle" x="765.5" y="-13" font-family="Helvetica,sans-Serif" font-size="10.00">apps/mpi/poisson.cc</text>
</a>
</g>
</g>
<!-- Node1&#45;&gt;Node7 -->
<g id="edge6" class="edge">
<title>Node1&#45;&gt;Node7</title>
<path fill="none" stroke="midnightblue" d="M926.13,-64.53C887.46,-52.96 828.66,-35.38 793.96,-25.01"/>
<polygon fill="midnightblue" stroke="midnightblue" points="925.4,-67.96 935.99,-67.48 927.41,-61.26 925.4,-67.96"/>
</g>
<!-- Node8 -->
<g id="node8" class="node">
<title>Node8</title>
<g id="a_node8"><a xlink:href="apps_2mpi_2stokes_8cc.html" target="_top" xlink:title=" ">
<polygon fill="none" stroke="black" points="841.5,-6 841.5,-25 951.5,-25 951.5,-6 841.5,-6"/>
<text text-anchor="middle" x="896.5" y="-13" font-family="Helvetica,sans-Serif" font-size="10.00">apps/mpi/stokes.cc</text>
</a>
</g>
</g>
<!-- Node1&#45;&gt;Node8 -->
<g id="edge7" class="edge">
<title>Node1&#45;&gt;Node8</title>
<path fill="none" stroke="midnightblue" d="M946.96,-60.65C933.99,-49.31 916.82,-34.28 906.22,-25.01"/>
<polygon fill="midnightblue" stroke="midnightblue" points="944.93,-63.52 954.76,-67.48 949.54,-58.26 944.93,-63.52"/>
</g>
<!-- Node9 -->
<g id="node9" class="node">
<title>Node9</title>
<g id="a_node9"><a xlink:href="apps_2serial_2distributed__lagrange_8cc.html" target="_top" xlink:title=" ">
<polygon fill="none" stroke="black" points="970,-0.5 970,-30.5 1095,-30.5 1095,-0.5 970,-0.5"/>
<text text-anchor="start" x="978" y="-18.5" font-family="Helvetica,sans-Serif" font-size="10.00">apps/serial/distributed</text>
<text text-anchor="middle" x="1032.5" y="-7.5" font-family="Helvetica,sans-Serif" font-size="10.00">_lagrange.cc</text>
</a>
</g>
</g>
<!-- Node1&#45;&gt;Node9 -->
<g id="edge8" class="edge">
<title>Node1&#45;&gt;Node9</title>
<path fill="none" stroke="midnightblue" d="M982.05,-60.65C992.68,-51.35 1006.13,-39.57 1016.47,-30.52"/>
<polygon fill="midnightblue" stroke="midnightblue" points="979.46,-58.26 974.24,-67.48 984.07,-63.52 979.46,-58.26"/>
</g>
<!-- Node10 -->
<g id="node10" class="node">
<title>Node10</title>
<g id="a_node10"><a xlink:href="apps_2serial_2linear__elasticity_8cc.html" target="_top" xlink:title=" ">
<polygon fill="none" stroke="black" points="1113,-0.5 1113,-30.5 1214,-30.5 1214,-0.5 1113,-0.5"/>
<text text-anchor="start" x="1121" y="-18.5" font-family="Helvetica,sans-Serif" font-size="10.00">apps/serial/linear</text>
<text text-anchor="middle" x="1163.5" y="-7.5" font-family="Helvetica,sans-Serif" font-size="10.00">_elasticity.cc</text>
</a>
</g>
</g>
<!-- Node1&#45;&gt;Node10 -->
<g id="edge9" class="edge">
<title>Node1&#45;&gt;Node10</title>
<path fill="none" stroke="midnightblue" d="M1002.6,-64.61C1035.06,-54.9 1081.84,-40.92 1116.6,-30.52"/>
<polygon fill="midnightblue" stroke="midnightblue" points="1001.59,-61.26 993.01,-67.48 1003.6,-67.96 1001.59,-61.26"/>
</g>
<!-- Node11 -->
<g id="node11" class="node">
<title>Node11</title>
<g id="a_node11"><a xlink:href="apps_2serial_2linear__visco__elasticity_8cc.html" target="_top" xlink:title=" ">
<polygon fill="none" stroke="black" points="1232.5,-0.5 1232.5,-30.5 1342.5,-30.5 1342.5,-0.5 1232.5,-0.5"/>
<text text-anchor="start" x="1240.5" y="-18.5" font-family="Helvetica,sans-Serif" font-size="10.00">apps/serial/linear</text>
<text text-anchor="middle" x="1287.5" y="-7.5" font-family="Helvetica,sans-Serif" font-size="10.00">_visco_elasticity.cc</text>
</a>
</g>
</g>
<!-- Node1&#45;&gt;Node11 -->
<g id="edge10" class="edge">
<title>Node1&#45;&gt;Node11</title>
<path fill="none" stroke="midnightblue" d="M1022.52,-66.78C1075.11,-58.23 1154.69,-44.76 1223.5,-31 1226.4,-30.42 1229.38,-29.81 1232.38,-29.17"/>
<polygon fill="midnightblue" stroke="midnightblue" points="1021.68,-63.37 1012.37,-68.43 1022.8,-70.28 1021.68,-63.37"/>
</g>
<!-- Node12 -->
<g id="node12" class="node">
<title>Node12</title>
<g id="a_node12"><a xlink:href="apps_2serial_2poisson_8cc.html" target="_top" xlink:title=" ">
<polygon fill="none" stroke="black" points="1360.5,-6 1360.5,-25 1484.5,-25 1484.5,-6 1360.5,-6"/>
<text text-anchor="middle" x="1422.5" y="-13" font-family="Helvetica,sans-Serif" font-size="10.00">apps/serial/poisson.cc</text>
</a>
</g>
</g>
<!-- Node1&#45;&gt;Node12 -->
<g id="edge11" class="edge">
<title>Node1&#45;&gt;Node12</title>
<path fill="none" stroke="midnightblue" d="M1022.33,-70.84C1098.17,-63.71 1235.24,-49.6 1351.5,-31 1362.06,-29.31 1373.43,-27.15 1383.92,-25.01"/>
<polygon fill="midnightblue" stroke="midnightblue" points="1021.67,-67.38 1012.04,-71.8 1022.32,-74.35 1021.67,-67.38"/>
</g>
<!-- Node13 -->
<g id="node13" class="node">
<title>Node13</title>
<g id="a_node13"><a xlink:href="apps_2serial_2poisson__nitsche__interface_8cc.html" target="_top" xlink:title=" ">
<polygon fill="none" stroke="black" points="1503,-0.5 1503,-30.5 1622,-30.5 1622,-0.5 1503,-0.5"/>
<text text-anchor="start" x="1511" y="-18.5" font-family="Helvetica,sans-Serif" font-size="10.00">apps/serial/poisson</text>
<text text-anchor="middle" x="1562.5" y="-7.5" font-family="Helvetica,sans-Serif" font-size="10.00">_nitsche_interface.cc</text>
</a>
</g>
</g>
<!-- Node1&#45;&gt;Node13 -->
<g id="edge12" class="edge">
<title>Node1&#45;&gt;Node13</title>
<path fill="none" stroke="midnightblue" d="M1022.38,-73.4C1119.97,-68.49 1323.25,-56.03 1493.5,-31 1496.53,-30.55 1499.62,-30.06 1502.74,-29.52"/>
<polygon fill="midnightblue" stroke="midnightblue" points="1021.96,-69.91 1012.14,-73.9 1022.3,-76.9 1021.96,-69.91"/>
</g>
<!-- Node14 -->
<g id="node14" class="node">
<title>Node14</title>
<g id="a_node14"><a xlink:href="apps_2serial_2reduced__lagrange_8cc.html" target="_top" xlink:title=" ">
<polygon fill="none" stroke="black" points="1640.5,-0.5 1640.5,-30.5 1752.5,-30.5 1752.5,-0.5 1640.5,-0.5"/>
<text text-anchor="start" x="1648.5" y="-18.5" font-family="Helvetica,sans-Serif" font-size="10.00">apps/serial/reduced</text>
<text text-anchor="middle" x="1696.5" y="-7.5" font-family="Helvetica,sans-Serif" font-size="10.00">_lagrange.cc</text>
</a>
</g>
</g>
<!-- Node1&#45;&gt;Node14 -->
<g id="edge13" class="edge">
<title>Node1&#45;&gt;Node14</title>
<path fill="none" stroke="midnightblue" d="M1022.14,-75.06C1138.11,-72.51 1407.65,-63.33 1631.5,-31 1634.36,-30.59 1637.28,-30.12 1640.23,-29.6"/>
<polygon fill="midnightblue" stroke="midnightblue" points="1021.99,-71.56 1012.07,-75.27 1022.14,-78.56 1021.99,-71.56"/>
</g>
<!-- Node15 -->
<g id="node15" class="node">
<title>Node15</title>
<g id="a_node15"><a xlink:href="apps_2serial_2stokes_8cc.html" target="_top" xlink:title=" ">
<polygon fill="none" stroke="black" points="1770.5,-6 1770.5,-25 1888.5,-25 1888.5,-6 1770.5,-6"/>
<text text-anchor="middle" x="1829.5" y="-13" font-family="Helvetica,sans-Serif" font-size="10.00">apps/serial/stokes.cc</text>
</a>
</g>
</g>
<!-- Node1&#45;&gt;Node15 -->
<g id="edge14" class="edge">
<title>Node1&#45;&gt;Node15</title>
<path fill="none" stroke="midnightblue" d="M1022.63,-75.77C1154.59,-74.58 1486.67,-67.84 1761.5,-31 1772.27,-29.56 1783.87,-27.34 1794.39,-25.06"/>
<polygon fill="midnightblue" stroke="midnightblue" points="1022.32,-72.27 1012.35,-75.85 1022.38,-79.27 1022.32,-72.27"/>
</g>
</g>
</svg>
