<?xml version="1.0" encoding="UTF-8" standalone="no"?>
<!DOCTYPE svg PUBLIC "-//W3C//DTD SVG 1.1//EN"
 "http://www.w3.org/Graphics/SVG/1.1/DTD/svg11.dtd">
<!-- Generated by graphviz version 2.43.0 (0)
 -->
<!-- Title: include/runner.h Pages: 1 -->
<svg width="1227pt" height="95pt"
 viewBox="0.00 0.00 1226.50 95.00" xmlns="http://www.w3.org/2000/svg" xmlns:xlink="http://www.w3.org/1999/xlink">
<g id="graph0" class="graph" transform="scale(1 1) rotate(0) translate(4 91)">
<title>include/runner.h</title>
<!-- Node1 -->
<g id="node1" class="node">
<title>Node1</title>
<g id="a_node1"><a xlink:title=" ">
<polygon fill="#bfbfbf" stroke="black" points="581,-67.5 581,-86.5 676,-86.5 676,-67.5 581,-67.5"/>
<text text-anchor="middle" x="628.5" y="-74.5" font-family="Helvetica,sans-Serif" font-size="10.00">include/runner.h</text>
</a>
</g>
</g>
<!-- Node2 -->
<g id="node2" class="node">
<title>Node2</title>
<g id="a_node2"><a xlink:href="runner_8cc.html" target="_top" xlink:title=" ">
<polygon fill="none" stroke="black" points="0,-6 0,-25 97,-25 97,-6 0,-6"/>
<text text-anchor="middle" x="48.5" y="-13" font-family="Helvetica,sans-Serif" font-size="10.00">source/runner.cc</text>
</a>
</g>
</g>
<!-- Node1&#45;&gt;Node2 -->
<g id="edge1" class="edge">
<title>Node1&#45;&gt;Node2</title>
<path fill="none" stroke="midnightblue" d="M570.78,-74.11C473.97,-70.26 273.05,-59.32 105.5,-31 96.54,-29.49 86.92,-27.27 78.18,-25.03"/>
<polygon fill="midnightblue" stroke="midnightblue" points="570.81,-77.62 580.94,-74.51 571.08,-70.62 570.81,-77.62"/>
</g>
<!-- Node3 -->
<g id="node3" class="node">
<title>Node3</title>
<g id="a_node3"><a xlink:href="mesh__handler_8cc.html" target="_top" xlink:title="Mesh generator and reader.">
<polygon fill="none" stroke="black" points="115,-6 115,-25 240,-25 240,-6 115,-6"/>
<text text-anchor="middle" x="177.5" y="-13" font-family="Helvetica,sans-Serif" font-size="10.00">apps/mesh_handler.cc</text>
</a>
</g>
</g>
<!-- Node1&#45;&gt;Node3 -->
<g id="edge2" class="edge">
<title>Node1&#45;&gt;Node3</title>
<path fill="none" stroke="midnightblue" d="M570.8,-70.68C496.15,-63.46 362.19,-49.31 248.5,-31 238.07,-29.32 226.84,-27.18 216.45,-25.07"/>
<polygon fill="midnightblue" stroke="midnightblue" points="570.64,-74.18 580.93,-71.66 571.31,-67.22 570.64,-74.18"/>
</g>
<!-- Node4 -->
<g id="node4" class="node">
<title>Node4</title>
<g id="a_node4"><a xlink:href="apps_2mpi_2linear__elasticity_8cc.html" target="_top" xlink:title=" ">
<polygon fill="none" stroke="black" points="258,-6 258,-25 413,-25 413,-6 258,-6"/>
<text text-anchor="middle" x="335.5" y="-13" font-family="Helvetica,sans-Serif" font-size="10.00">apps/mpi/linear_elasticity.cc</text>
</a>
</g>
</g>
<!-- Node1&#45;&gt;Node4 -->
<g id="edge3" class="edge">
<title>Node1&#45;&gt;Node4</title>
<path fill="none" stroke="midnightblue" d="M576.67,-65.47C519.88,-53.94 429.91,-35.67 377.4,-25.01"/>
<polygon fill="midnightblue" stroke="midnightblue" points="576.02,-68.91 586.52,-67.48 577.42,-62.05 576.02,-68.91"/>
</g>
<!-- Node5 -->
<g id="node5" class="node">
<title>Node5</title>
<g id="a_node5"><a xlink:href="apps_2mpi_2poisson_8cc.html" target="_top" xlink:title=" ">
<polygon fill="none" stroke="black" points="431.5,-6 431.5,-25 547.5,-25 547.5,-6 431.5,-6"/>
<text text-anchor="middle" x="489.5" y="-13" font-family="Helvetica,sans-Serif" font-size="10.00">apps/mpi/poisson.cc</text>
</a>
</g>
</g>
<!-- Node1&#45;&gt;Node5 -->
<g id="edge4" class="edge">
<title>Node1&#45;&gt;Node5</title>
<path fill="none" stroke="midnightblue" d="M599.25,-63.48C572.25,-51.92 532.9,-35.08 509.38,-25.01"/>
<polygon fill="midnightblue" stroke="midnightblue" points="598.01,-66.76 608.58,-67.48 600.77,-60.32 598.01,-66.76"/>
</g>
<!-- Node6 -->
<g id="node6" class="node">
<title>Node6</title>
<g id="a_node6"><a xlink:href="apps_2serial_2distributed__lagrange_8cc.html" target="_top" xlink:title=" ">
<polygon fill="none" stroke="black" points="566,-0.5 566,-30.5 691,-30.5 691,-0.5 566,-0.5"/>
<text text-anchor="start" x="574" y="-18.5" font-family="Helvetica,sans-Serif" font-size="10.00">apps/serial/distributed</text>
<text text-anchor="middle" x="628.5" y="-7.5" font-family="Helvetica,sans-Serif" font-size="10.00">_lagrange.cc</text>
</a>
</g>
</g>
<!-- Node1&#45;&gt;Node6 -->
<g id="edge5" class="edge">
<title>Node1&#45;&gt;Node6</title>
<path fill="none" stroke="midnightblue" d="M628.5,-57.23C628.5,-48.59 628.5,-38.5 628.5,-30.52"/>
<polygon fill="midnightblue" stroke="midnightblue" points="625,-57.48 628.5,-67.48 632,-57.48 625,-57.48"/>
</g>
<!-- Node7 -->
<g id="node7" class="node">
<title>Node7</title>
<g id="a_node7"><a xlink:href="apps_2serial_2linear__elasticity_8cc.html" target="_top" xlink:title=" ">
<polygon fill="none" stroke="black" points="709,-0.5 709,-30.5 810,-30.5 810,-0.5 709,-0.5"/>
<text text-anchor="start" x="717" y="-18.5" font-family="Helvetica,sans-Serif" font-size="10.00">apps/serial/linear</text>
<text text-anchor="middle" x="759.5" y="-7.5" font-family="Helvetica,sans-Serif" font-size="10.00">_elasticity.cc</text>
</a>
</g>
</g>
<!-- Node1&#45;&gt;Node7 -->
<g id="edge6" class="edge">
<title>Node1&#45;&gt;Node7</title>
<path fill="none" stroke="midnightblue" d="M656.39,-63.33C677.59,-53.7 706.73,-40.47 728.63,-30.52"/>
<polygon fill="midnightblue" stroke="midnightblue" points="654.93,-60.15 647.27,-67.48 657.82,-66.53 654.93,-60.15"/>
</g>
<!-- Node8 -->
<g id="node8" class="node">
<title>Node8</title>
<g id="a_node8"><a xlink:href="apps_2serial_2poisson_8cc.html" target="_top" xlink:title=" ">
<polygon fill="none" stroke="black" points="828.5,-6 828.5,-25 952.5,-25 952.5,-6 828.5,-6"/>
<text text-anchor="middle" x="890.5" y="-13" font-family="Helvetica,sans-Serif" font-size="10.00">apps/serial/poisson.cc</text>
</a>
</g>
</g>
<!-- Node1&#45;&gt;Node8 -->
<g id="edge7" class="edge">
<title>Node1&#45;&gt;Node8</title>
<path fill="none" stroke="midnightblue" d="M675.8,-65.26C726.62,-53.72 806.37,-35.61 853.03,-25.01"/>
<polygon fill="midnightblue" stroke="midnightblue" points="675.01,-61.85 666.04,-67.48 676.57,-68.67 675.01,-61.85"/>
</g>
<!-- Node9 -->
<g id="node9" class="node">
<title>Node9</title>
<g id="a_node9"><a xlink:href="apps_2serial_2reduced__lagrange_8cc.html" target="_top" xlink:title=" ">
<polygon fill="none" stroke="black" points="970.5,-0.5 970.5,-30.5 1082.5,-30.5 1082.5,-0.5 970.5,-0.5"/>
<text text-anchor="start" x="978.5" y="-18.5" font-family="Helvetica,sans-Serif" font-size="10.00">apps/serial/reduced</text>
<text text-anchor="middle" x="1026.5" y="-7.5" font-family="Helvetica,sans-Serif" font-size="10.00">_lagrange.cc</text>
</a>
</g>
</g>
<!-- Node1&#45;&gt;Node9 -->
<g id="edge8" class="edge">
<title>Node1&#45;&gt;Node9</title>
<path fill="none" stroke="midnightblue" d="M686.41,-69.69C753.02,-62.08 865.56,-48.15 961.5,-31 964.35,-30.49 967.25,-29.94 970.19,-29.37"/>
<polygon fill="midnightblue" stroke="midnightblue" points="685.66,-66.25 676.12,-70.86 686.45,-73.21 685.66,-66.25"/>
</g>
<!-- Node10 -->
<g id="node10" class="node">
<title>Node10</title>
<g id="a_node10"><a xlink:href="apps_2serial_2stokes_8cc.html" target="_top" xlink:title=" ">
<polygon fill="none" stroke="black" points="1100.5,-6 1100.5,-25 1218.5,-25 1218.5,-6 1100.5,-6"/>
<text text-anchor="middle" x="1159.5" y="-13" font-family="Helvetica,sans-Serif" font-size="10.00">apps/serial/stokes.cc</text>
</a>
</g>
</g>
<!-- Node1&#45;&gt;Node10 -->
<g id="edge9" class="edge">
<title>Node1&#45;&gt;Node10</title>
<path fill="none" stroke="midnightblue" d="M686.07,-72.51C773.88,-66.71 946.4,-53.45 1091.5,-31 1101.88,-29.39 1113.06,-27.21 1123.29,-25.02"/>
<polygon fill="midnightblue" stroke="midnightblue" points="685.8,-69.02 676.04,-73.16 686.25,-76 685.8,-69.02"/>
</g>
</g>
</svg>
