<?xml version="1.0" encoding="UTF-8" standalone="no"?>
<!DOCTYPE svg PUBLIC "-//W3C//DTD SVG 1.1//EN"
 "http://www.w3.org/Graphics/SVG/1.1/DTD/svg11.dtd">
<!-- Generated by graphviz version 2.43.0 (0)
 -->
<!-- Title: include/runner.h Pages: 1 -->
<svg width="1178pt" height="665pt"
 viewBox="0.00 0.00 1178.49 665.00" xmlns="http://www.w3.org/2000/svg" xmlns:xlink="http://www.w3.org/1999/xlink">
<g id="graph0" class="graph" transform="scale(1 1) rotate(0) translate(4 661)">
<title>include/runner.h</title>
<!-- Node1 -->
<g id="node1" class="node">
<title>Node1</title>
<g id="a_node1"><a xlink:title=" ">
<polygon fill="#bfbfbf" stroke="black" points="104.99,-637.5 104.99,-656.5 199.99,-656.5 199.99,-637.5 104.99,-637.5"/>
<text text-anchor="middle" x="152.49" y="-644.5" font-family="Helvetica,sans-Serif" font-size="10.00">include/runner.h</text>
</a>
</g>
</g>
<!-- Node2 -->
<g id="node2" class="node">
<title>Node2</title>
<g id="a_node2"><a xlink:href="http://www.dealii.org/developer/doxygen/deal.II/include_2deal_8II_2base_2utilities_8h.html" xlink:title=" ">
<polygon fill="none" stroke="black" points="91.49,-581.5 91.49,-600.5 213.49,-600.5 213.49,-581.5 91.49,-581.5"/>
<text text-anchor="middle" x="152.49" y="-588.5" font-family="Helvetica,sans-Serif" font-size="10.00">deal.II/base/utilities.h</text>
</a>
</g>
</g>
<!-- Node1&#45;&gt;Node2 -->
<g id="edge1" class="edge">
<title>Node1&#45;&gt;Node2</title>
<path fill="none" stroke="midnightblue" d="M152.49,-637.08C152.49,-630.01 152.49,-619.86 152.49,-610.99"/>
<polygon fill="midnightblue" stroke="midnightblue" points="155.99,-610.75 152.49,-600.75 148.99,-610.75 155.99,-610.75"/>
</g>
<!-- Node3 -->
<g id="node3" class="node">
<title>Node3</title>
<g id="a_node3"><a xlink:href="http://www.dealii.org/developer/doxygen/deal.II/config_8h.html" xlink:title=" ">
<polygon fill="none" stroke="black" points="485.99,-525.5 485.99,-544.5 600.99,-544.5 600.99,-525.5 485.99,-525.5"/>
<text text-anchor="middle" x="543.49" y="-532.5" font-family="Helvetica,sans-Serif" font-size="10.00">deal.II/base/config.h</text>
</a>
</g>
</g>
<!-- Node2&#45;&gt;Node3 -->
<g id="edge2" class="edge">
<title>Node2&#45;&gt;Node3</title>
<path fill="none" stroke="midnightblue" d="M213.58,-581.56C284.66,-571.75 401.68,-555.58 475.56,-545.38"/>
<polygon fill="midnightblue" stroke="midnightblue" points="476.26,-548.82 485.69,-543.98 475.31,-541.88 476.26,-548.82"/>
</g>
<!-- Node6 -->
<g id="node6" class="node">
<title>Node6</title>
<g id="a_node6"><a xlink:href="http://www.dealii.org/developer/doxygen/deal.II/include_2deal_8II_2base_2exceptions_8h.html" xlink:title=" ">
<polygon fill="none" stroke="black" points="207.49,-73 207.49,-92 345.49,-92 345.49,-73 207.49,-73"/>
<text text-anchor="middle" x="276.49" y="-80" font-family="Helvetica,sans-Serif" font-size="10.00">deal.II/base/exceptions.h</text>
</a>
</g>
</g>
<!-- Node2&#45;&gt;Node6 -->
<g id="edge60" class="edge">
<title>Node2&#45;&gt;Node6</title>
<path fill="none" stroke="midnightblue" d="M117.62,-581.4C72.74,-568 0.49,-537.49 0.49,-480 0.49,-480 0.49,-480 0.49,-416.5 0.49,-284.32 -7.33,-219.49 93.49,-134 122.32,-109.55 162.04,-96.88 197.11,-90.33"/>
<polygon fill="midnightblue" stroke="midnightblue" points="198.09,-93.71 207.35,-88.56 196.9,-86.81 198.09,-93.71"/>
</g>
<!-- Node4 -->
<g id="node4" class="node">
<title>Node4</title>
<g id="a_node4"><a xlink:href="http://www.dealii.org/developer/doxygen/deal.II/mpi_8h.html" xlink:title=" ">
<polygon fill="none" stroke="black" points="521.49,-469.5 521.49,-488.5 565.49,-488.5 565.49,-469.5 521.49,-469.5"/>
<text text-anchor="middle" x="543.49" y="-476.5" font-family="Helvetica,sans-Serif" font-size="10.00">mpi.h</text>
</a>
</g>
</g>
<!-- Node3&#45;&gt;Node4 -->
<g id="edge3" class="edge">
<title>Node3&#45;&gt;Node4</title>
<path fill="none" stroke="midnightblue" d="M538.32,-525.08C536.81,-517.93 536.38,-507.64 537.03,-498.69"/>
<polygon fill="midnightblue" stroke="midnightblue" points="540.5,-499.13 538.36,-488.75 533.57,-498.2 540.5,-499.13"/>
</g>
<!-- Node9 -->
<g id="node9" class="node">
<title>Node9</title>
<g id="a_node9"><a xlink:href="http://www.dealii.org/developer/doxygen/deal.II/numbers_8h.html" xlink:title=" ">
<polygon fill="none" stroke="black" points="622.49,-207 622.49,-226 750.49,-226 750.49,-207 622.49,-207"/>
<text text-anchor="middle" x="686.49" y="-214" font-family="Helvetica,sans-Serif" font-size="10.00">deal.II/base/numbers.h</text>
</a>
</g>
</g>
<!-- Node3&#45;&gt;Node9 -->
<g id="edge58" class="edge">
<title>Node3&#45;&gt;Node9</title>
<path fill="none" stroke="midnightblue" d="M601.08,-527.39C633.23,-521.48 672.59,-510.26 702.49,-489 727,-471.57 731.65,-461.75 740.49,-433 752.18,-394.96 705.15,-280.53 690.19,-235.75"/>
<polygon fill="midnightblue" stroke="midnightblue" points="693.52,-234.67 687.2,-226.17 686.84,-236.76 693.52,-234.67"/>
</g>
<!-- Node10 -->
<g id="node10" class="node">
<title>Node10</title>
<g id="a_node10"><a xlink:href="http://www.dealii.org/developer/doxygen/deal.II/types_8h.html" xlink:title=" ">
<polygon fill="none" stroke="black" points="220.49,-140 220.49,-159 332.49,-159 332.49,-140 220.49,-140"/>
<text text-anchor="middle" x="276.49" y="-147" font-family="Helvetica,sans-Serif" font-size="10.00">deal.II/base/types.h</text>
</a>
</g>
</g>
<!-- Node3&#45;&gt;Node10 -->
<g id="edge59" class="edge">
<title>Node3&#45;&gt;Node10</title>
<path fill="none" stroke="midnightblue" d="M485.87,-530.25C430.98,-525.19 347.03,-513.76 278.49,-489 231.31,-471.96 205.67,-476.39 180.49,-433 173.57,-421.08 177.02,-415.33 180.49,-402 202.3,-318.24 253.67,-315.76 275.49,-232 280.96,-210.98 277.06,-186.03 274.93,-169.32"/>
<polygon fill="midnightblue" stroke="midnightblue" points="278.39,-168.8 273.87,-159.22 271.43,-169.53 278.39,-168.8"/>
</g>
<!-- Node4&#45;&gt;Node3 -->
<g id="edge4" class="edge">
<title>Node4&#45;&gt;Node3</title>
<path fill="none" stroke="midnightblue" d="M548.62,-488.75C550.15,-495.86 550.59,-506.14 549.96,-515.1"/>
<polygon fill="midnightblue" stroke="midnightblue" points="546.48,-514.71 548.65,-525.08 553.42,-515.62 546.48,-514.71"/>
</g>
<!-- Node5 -->
<g id="node5" class="node">
<title>Node5</title>
<g id="a_node5"><a xlink:href="http://www.dealii.org/developer/doxygen/deal.II/array__view_8h.html" xlink:title=" ">
<polygon fill="none" stroke="black" points="620.99,-402.5 620.99,-432.5 721.99,-432.5 721.99,-402.5 620.99,-402.5"/>
<text text-anchor="start" x="628.99" y="-420.5" font-family="Helvetica,sans-Serif" font-size="10.00">deal.II/base/array</text>
<text text-anchor="middle" x="671.49" y="-409.5" font-family="Helvetica,sans-Serif" font-size="10.00">_view.h</text>
</a>
</g>
</g>
<!-- Node4&#45;&gt;Node5 -->
<g id="edge5" class="edge">
<title>Node4&#45;&gt;Node5</title>
<path fill="none" stroke="midnightblue" d="M561.83,-469.48C580.05,-461 608.59,-447.74 631.99,-436.86"/>
<polygon fill="midnightblue" stroke="midnightblue" points="633.73,-439.91 641.32,-432.52 630.78,-433.56 633.73,-439.91"/>
</g>
<!-- Node4&#45;&gt;Node9 -->
<g id="edge56" class="edge">
<title>Node4&#45;&gt;Node9</title>
<path fill="none" stroke="midnightblue" d="M548.3,-469.38C553.34,-460.33 561.5,-445.68 568.49,-433 608.97,-359.6 656.84,-271.9 676.9,-235.11"/>
<polygon fill="midnightblue" stroke="midnightblue" points="680.07,-236.59 681.79,-226.13 673.93,-233.24 680.07,-236.59"/>
</g>
<!-- Node13 -->
<g id="node13" class="node">
<title>Node13</title>
<g id="a_node13"><a xlink:href="http://www.dealii.org/developer/doxygen/deal.II/template__constraints_8h.html" xlink:title=" ">
<polygon fill="none" stroke="black" points="839.49,-67.5 839.49,-97.5 959.49,-97.5 959.49,-67.5 839.49,-67.5"/>
<text text-anchor="start" x="847.49" y="-85.5" font-family="Helvetica,sans-Serif" font-size="10.00">deal.II/base/template</text>
<text text-anchor="middle" x="899.49" y="-74.5" font-family="Helvetica,sans-Serif" font-size="10.00">_constraints.h</text>
</a>
</g>
</g>
<!-- Node4&#45;&gt;Node13 -->
<g id="edge57" class="edge">
<title>Node4&#45;&gt;Node13</title>
<path fill="none" stroke="midnightblue" d="M544.75,-469.43C547.64,-449.05 554.49,-396.03 554.49,-351.5 554.49,-351.5 554.49,-351.5 554.49,-215.5 554.49,-164.74 589.74,-157.95 634.49,-134 695.13,-101.54 773.4,-89.7 829.13,-85.51"/>
<polygon fill="midnightblue" stroke="midnightblue" points="829.52,-88.99 839.26,-84.81 829.04,-82.01 829.52,-88.99"/>
</g>
<!-- Node17 -->
<g id="node17" class="node">
<title>Node17</title>
<g id="a_node17"><a xlink:href="http://www.dealii.org/developer/doxygen/deal.II/index__set_8h.html" xlink:title=" ">
<polygon fill="none" stroke="black" points="198.99,-402.5 198.99,-432.5 301.99,-432.5 301.99,-402.5 198.99,-402.5"/>
<text text-anchor="start" x="206.99" y="-420.5" font-family="Helvetica,sans-Serif" font-size="10.00">deal.II/base/index</text>
<text text-anchor="middle" x="250.49" y="-409.5" font-family="Helvetica,sans-Serif" font-size="10.00">_set.h</text>
</a>
</g>
</g>
<!-- Node4&#45;&gt;Node17 -->
<g id="edge39" class="edge">
<title>Node4&#45;&gt;Node17</title>
<path fill="none" stroke="midnightblue" d="M521.19,-474.19C477.05,-465.9 377.73,-445.88 312.4,-432.25"/>
<polygon fill="midnightblue" stroke="midnightblue" points="312.73,-428.74 302.22,-430.12 311.29,-435.59 312.73,-428.74"/>
</g>
<!-- Node21 -->
<g id="node21" class="node">
<title>Node21</title>
<g id="a_node21"><a xlink:href="http://www.dealii.org/developer/doxygen/deal.II/mpi__tags_8h.html" xlink:title=" ">
<polygon fill="none" stroke="black" points="396.49,-408 396.49,-427 526.49,-427 526.49,-408 396.49,-408"/>
<text text-anchor="middle" x="461.49" y="-415" font-family="Helvetica,sans-Serif" font-size="10.00">deal.II/base/mpi_tags.h</text>
</a>
</g>
</g>
<!-- Node4&#45;&gt;Node21 -->
<g id="edge54" class="edge">
<title>Node4&#45;&gt;Node21</title>
<path fill="none" stroke="midnightblue" d="M531.74,-469.48C518.71,-460.02 497.45,-444.6 481.73,-433.19"/>
<polygon fill="midnightblue" stroke="midnightblue" points="483.36,-430.05 473.22,-427.01 479.25,-435.71 483.36,-430.05"/>
</g>
<!-- Node5&#45;&gt;Node3 -->
<g id="edge6" class="edge">
<title>Node5&#45;&gt;Node3</title>
<path fill="none" stroke="midnightblue" d="M655.92,-432.55C631.86,-454.26 585.78,-495.83 560.74,-518.44"/>
<polygon fill="midnightblue" stroke="midnightblue" points="558.19,-516.02 553.11,-525.32 562.88,-521.22 558.19,-516.02"/>
</g>
<!-- Node5&#45;&gt;Node6 -->
<g id="edge7" class="edge">
<title>Node5&#45;&gt;Node6</title>
<path fill="none" stroke="midnightblue" d="M659.74,-402.26C636.91,-374.93 584.37,-313.77 534.49,-268 462.82,-202.25 441.89,-188.72 361.49,-134 341.73,-120.56 318.33,-106.8 301.08,-97.05"/>
<polygon fill="midnightblue" stroke="midnightblue" points="302.63,-93.9 292.2,-92.07 299.21,-100.01 302.63,-93.9"/>
</g>
<!-- Node7 -->
<g id="node7" class="node">
<title>Node7</title>
<g id="a_node7"><a xlink:href="http://www.dealii.org/developer/doxygen/deal.II/memory__space_8h.html" xlink:title=" ">
<polygon fill="none" stroke="black" points="405.99,-335.5 405.99,-365.5 522.99,-365.5 522.99,-335.5 405.99,-335.5"/>
<text text-anchor="start" x="413.99" y="-353.5" font-family="Helvetica,sans-Serif" font-size="10.00">deal.II/base/memory</text>
<text text-anchor="middle" x="464.49" y="-342.5" font-family="Helvetica,sans-Serif" font-size="10.00">_space.h</text>
</a>
</g>
</g>
<!-- Node5&#45;&gt;Node7 -->
<g id="edge9" class="edge">
<title>Node5&#45;&gt;Node7</title>
<path fill="none" stroke="midnightblue" d="M626.83,-402.48C595.24,-392.56 552.71,-379.2 519.1,-368.65"/>
<polygon fill="midnightblue" stroke="midnightblue" points="520.02,-365.27 509.43,-365.61 517.92,-371.95 520.02,-365.27"/>
</g>
<!-- Node8 -->
<g id="node8" class="node">
<title>Node8</title>
<g id="a_node8"><a xlink:href="http://www.dealii.org/developer/doxygen/deal.II/symmetric__tensor_8h.html" xlink:title=" ">
<polygon fill="none" stroke="black" points="752.49,-335.5 752.49,-365.5 880.49,-365.5 880.49,-335.5 752.49,-335.5"/>
<text text-anchor="start" x="760.49" y="-353.5" font-family="Helvetica,sans-Serif" font-size="10.00">deal.II/base/symmetric</text>
<text text-anchor="middle" x="816.49" y="-342.5" font-family="Helvetica,sans-Serif" font-size="10.00">_tensor.h</text>
</a>
</g>
</g>
<!-- Node5&#45;&gt;Node8 -->
<g id="edge11" class="edge">
<title>Node5&#45;&gt;Node8</title>
<path fill="none" stroke="midnightblue" d="M702.95,-402.4C724.33,-392.81 752.8,-380.05 775.88,-369.7"/>
<polygon fill="midnightblue" stroke="midnightblue" points="777.39,-372.86 785.09,-365.58 774.53,-366.47 777.39,-372.86"/>
</g>
<!-- Node15 -->
<g id="node15" class="node">
<title>Node15</title>
<g id="a_node15"><a xlink:href="http://www.dealii.org/developer/doxygen/deal.II/tensor_8h.html" xlink:title=" ">
<polygon fill="none" stroke="black" points="882.49,-274 882.49,-293 998.49,-293 998.49,-274 882.49,-274"/>
<text text-anchor="middle" x="940.49" y="-281" font-family="Helvetica,sans-Serif" font-size="10.00">deal.II/base/tensor.h</text>
</a>
</g>
</g>
<!-- Node5&#45;&gt;Node15 -->
<g id="edge38" class="edge">
<title>Node5&#45;&gt;Node15</title>
<path fill="none" stroke="midnightblue" d="M722.25,-415.55C769.54,-412.32 839.99,-401.31 889.49,-366 911.63,-350.21 926.24,-321.5 933.95,-302.72"/>
<polygon fill="midnightblue" stroke="midnightblue" points="937.28,-303.81 937.6,-293.22 930.75,-301.29 937.28,-303.81"/>
</g>
<!-- Node6&#45;&gt;Node3 -->
<g id="edge8" class="edge">
<title>Node6&#45;&gt;Node3</title>
<path fill="none" stroke="midnightblue" d="M232.6,-92.05C173.72,-106.36 76.49,-141.24 76.49,-215.5 76.49,-418.5 76.49,-418.5 76.49,-418.5 76.49,-460.23 101.48,-469.73 138.49,-489 195.53,-518.7 375.83,-528.91 475.54,-532.34"/>
<polygon fill="midnightblue" stroke="midnightblue" points="475.71,-535.84 485.82,-532.67 475.94,-528.85 475.71,-535.84"/>
</g>
<!-- Node7&#45;&gt;Node3 -->
<g id="edge10" class="edge">
<title>Node7&#45;&gt;Node3</title>
<path fill="none" stroke="midnightblue" d="M428.5,-365.65C412.94,-373.78 396.3,-385.68 387.49,-402 380.94,-414.12 380.91,-420.9 387.49,-433 412.53,-479.05 468.63,-507.33 506.27,-521.85"/>
<polygon fill="midnightblue" stroke="midnightblue" points="505.29,-525.22 515.88,-525.41 507.73,-518.66 505.29,-525.22"/>
</g>
<!-- Node8&#45;&gt;Node3 -->
<g id="edge12" class="edge">
<title>Node8&#45;&gt;Node3</title>
<path fill="none" stroke="midnightblue" d="M822.36,-365.58C832.73,-392.94 850.51,-453.71 820.49,-489 794.14,-519.97 684.41,-529.68 611.22,-532.7"/>
<polygon fill="midnightblue" stroke="midnightblue" points="611.01,-529.2 601.15,-533.08 611.28,-536.2 611.01,-529.2"/>
</g>
<!-- Node8&#45;&gt;Node9 -->
<g id="edge13" class="edge">
<title>Node8&#45;&gt;Node9</title>
<path fill="none" stroke="midnightblue" d="M801.78,-335.49C791.29,-325.43 776.9,-311.5 764.49,-299 742.4,-276.75 717.43,-250.45 701.83,-233.88"/>
<polygon fill="midnightblue" stroke="midnightblue" points="703.98,-231.06 694.58,-226.17 698.88,-235.85 703.98,-231.06"/>
</g>
<!-- Node12 -->
<g id="node12" class="node">
<title>Node12</title>
<g id="a_node12"><a xlink:href="http://www.dealii.org/developer/doxygen/deal.II/table__indices_8h.html" xlink:title=" ">
<polygon fill="none" stroke="black" points="955.99,-134.5 955.99,-164.5 1056.99,-164.5 1056.99,-134.5 955.99,-134.5"/>
<text text-anchor="start" x="963.99" y="-152.5" font-family="Helvetica,sans-Serif" font-size="10.00">deal.II/base/table</text>
<text text-anchor="middle" x="1006.49" y="-141.5" font-family="Helvetica,sans-Serif" font-size="10.00">_indices.h</text>
</a>
</g>
</g>
<!-- Node8&#45;&gt;Node12 -->
<g id="edge19" class="edge">
<title>Node8&#45;&gt;Node12</title>
<path fill="none" stroke="midnightblue" d="M825.03,-335.2C835.44,-318.31 854.06,-289.77 873.49,-268 906.77,-230.71 951.28,-193.5 979.42,-171.24"/>
<polygon fill="midnightblue" stroke="midnightblue" points="981.89,-173.75 987.6,-164.83 977.57,-168.25 981.89,-173.75"/>
</g>
<!-- Node8&#45;&gt;Node13 -->
<g id="edge27" class="edge">
<title>Node8&#45;&gt;Node13</title>
<path fill="none" stroke="midnightblue" d="M820.95,-335.2C834.49,-291.8 875.22,-161.27 892.07,-107.28"/>
<polygon fill="midnightblue" stroke="midnightblue" points="895.47,-108.14 895.1,-97.55 888.78,-106.05 895.47,-108.14"/>
</g>
<!-- Node8&#45;&gt;Node15 -->
<g id="edge28" class="edge">
<title>Node8&#45;&gt;Node15</title>
<path fill="none" stroke="midnightblue" d="M843.39,-335.4C864.77,-324.19 894.43,-308.64 915.33,-297.69"/>
<polygon fill="midnightblue" stroke="midnightblue" points="917.03,-300.75 924.26,-293.01 913.78,-294.55 917.03,-300.75"/>
</g>
<!-- Node9&#45;&gt;Node3 -->
<g id="edge14" class="edge">
<title>Node9&#45;&gt;Node3</title>
<path fill="none" stroke="midnightblue" d="M693.62,-226.17C715,-261.14 771.14,-391.83 758.49,-433 749.65,-461.75 745,-471.57 720.49,-489 688.91,-511.46 646.77,-522.71 611.47,-528.34"/>
<polygon fill="midnightblue" stroke="midnightblue" points="610.61,-524.93 601.23,-529.85 611.63,-531.86 610.61,-524.93"/>
</g>
<!-- Node9&#45;&gt;Node10 -->
<g id="edge15" class="edge">
<title>Node9&#45;&gt;Node10</title>
<path fill="none" stroke="midnightblue" d="M632.47,-206.94C557.08,-194.98 420.58,-173.34 340.29,-160.61"/>
<polygon fill="midnightblue" stroke="midnightblue" points="340.73,-157.14 330.3,-159.03 339.63,-164.05 340.73,-157.14"/>
</g>
<!-- Node11 -->
<g id="node11" class="node">
<title>Node11</title>
<g id="a_node11"><a xlink:href="http://www.dealii.org/developer/doxygen/deal.II/adolc__math_8h.html" xlink:title=" ">
<polygon fill="none" stroke="black" points="642.99,-134.5 642.99,-164.5 761.99,-164.5 761.99,-134.5 642.99,-134.5"/>
<text text-anchor="start" x="650.99" y="-152.5" font-family="Helvetica,sans-Serif" font-size="10.00">deal.II/differentiation</text>
<text text-anchor="middle" x="702.49" y="-141.5" font-family="Helvetica,sans-Serif" font-size="10.00">/ad/adolc_math.h</text>
</a>
</g>
</g>
<!-- Node9&#45;&gt;Node11 -->
<g id="edge17" class="edge">
<title>Node9&#45;&gt;Node11</title>
<path fill="none" stroke="midnightblue" d="M688.65,-206.73C690.68,-198.46 693.83,-185.66 696.61,-174.37"/>
<polygon fill="midnightblue" stroke="midnightblue" points="700.03,-175.14 699.02,-164.59 693.23,-173.46 700.03,-175.14"/>
</g>
<!-- Node10&#45;&gt;Node3 -->
<g id="edge16" class="edge">
<title>Node10&#45;&gt;Node3</title>
<path fill="none" stroke="midnightblue" d="M284.74,-159.22C292.75,-174.31 300.23,-206.13 293.49,-232 271.67,-315.76 220.3,-318.24 198.49,-402 195.02,-415.33 191.57,-421.08 198.49,-433 223.67,-476.39 249.31,-471.96 296.49,-489 355.16,-510.19 425.1,-521.61 475.63,-527.64"/>
<polygon fill="midnightblue" stroke="midnightblue" points="475.45,-531.15 485.79,-528.81 476.25,-524.19 475.45,-531.15"/>
</g>
<!-- Node11&#45;&gt;Node3 -->
<g id="edge18" class="edge">
<title>Node11&#45;&gt;Node3</title>
<path fill="none" stroke="midnightblue" d="M726.2,-164.53C768.78,-191.3 856.76,-254.27 889.49,-335 916.52,-401.69 895.99,-444.44 839.49,-489 805.07,-516.15 687.5,-527.06 611.3,-531.34"/>
<polygon fill="midnightblue" stroke="midnightblue" points="611.09,-527.85 601.3,-531.88 611.47,-534.84 611.09,-527.85"/>
</g>
<!-- Node12&#45;&gt;Node3 -->
<g id="edge20" class="edge">
<title>Node12&#45;&gt;Node3</title>
<path fill="none" stroke="midnightblue" d="M1008.94,-164.93C1014.28,-197.66 1026.49,-280.05 1026.49,-349.5 1026.49,-418.5 1026.49,-418.5 1026.49,-418.5 1026.49,-466.9 987.91,-469.79 943.49,-489 885.41,-514.11 709.34,-526.21 611.27,-531.15"/>
<polygon fill="midnightblue" stroke="midnightblue" points="610.98,-527.66 601.16,-531.64 611.32,-534.65 610.98,-527.66"/>
</g>
<!-- Node12&#45;&gt;Node6 -->
<g id="edge21" class="edge">
<title>Node12&#45;&gt;Node6</title>
<path fill="none" stroke="midnightblue" d="M955.74,-143.98C830.57,-132.84 506.39,-103.97 355.68,-90.55"/>
<polygon fill="midnightblue" stroke="midnightblue" points="355.84,-87.05 345.57,-89.65 355.22,-94.02 355.84,-87.05"/>
</g>
<!-- Node12&#45;&gt;Node13 -->
<g id="edge22" class="edge">
<title>Node12&#45;&gt;Node13</title>
<path fill="none" stroke="midnightblue" d="M983.27,-134.4C968.13,-125.2 948.16,-113.07 931.51,-102.95"/>
<polygon fill="midnightblue" stroke="midnightblue" points="933.02,-99.78 922.66,-97.58 929.39,-105.76 933.02,-99.78"/>
</g>
<!-- Node13&#45;&gt;Node3 -->
<g id="edge23" class="edge">
<title>Node13&#45;&gt;Node3</title>
<path fill="none" stroke="midnightblue" d="M959.63,-86.85C1039.47,-94.92 1170.49,-122.35 1170.49,-215.5 1170.49,-418.5 1170.49,-418.5 1170.49,-418.5 1170.49,-474.71 1118.51,-470.33 1065.49,-489 983.58,-517.85 733.48,-528.7 611.63,-532.35"/>
<polygon fill="midnightblue" stroke="midnightblue" points="611.21,-528.86 601.32,-532.65 611.41,-535.86 611.21,-528.86"/>
</g>
<!-- Node14 -->
<g id="node14" class="node">
<title>Node14</title>
<g id="a_node14"><a xlink:href="http://www.dealii.org/developer/doxygen/deal.II/complex__overloads_8h.html" xlink:title=" ">
<polygon fill="none" stroke="black" points="840.49,-0.5 840.49,-30.5 958.49,-30.5 958.49,-0.5 840.49,-0.5"/>
<text text-anchor="start" x="848.49" y="-18.5" font-family="Helvetica,sans-Serif" font-size="10.00">deal.II/base/complex</text>
<text text-anchor="middle" x="899.49" y="-7.5" font-family="Helvetica,sans-Serif" font-size="10.00">_overloads.h</text>
</a>
</g>
</g>
<!-- Node13&#45;&gt;Node14 -->
<g id="edge24" class="edge">
<title>Node13&#45;&gt;Node14</title>
<path fill="none" stroke="midnightblue" d="M893.81,-67.4C892.78,-59.56 892.49,-49.6 892.94,-40.57"/>
<polygon fill="midnightblue" stroke="midnightblue" points="896.43,-40.84 893.81,-30.58 889.46,-40.24 896.43,-40.84"/>
</g>
<!-- Node14&#45;&gt;Node3 -->
<g id="edge25" class="edge">
<title>Node14&#45;&gt;Node3</title>
<path fill="none" stroke="midnightblue" d="M840.27,-18.35C694.22,-23.29 319.86,-38.43 198.49,-67 105.86,-88.81 0.49,-53.34 0.49,-148.5 0.49,-217.5 0.49,-217.5 0.49,-217.5 0.49,-368.21 46.88,-451.99 100.49,-489 159.65,-529.84 366.7,-535.09 475.51,-534.91"/>
<polygon fill="midnightblue" stroke="midnightblue" points="475.73,-538.41 485.72,-534.87 475.71,-531.41 475.73,-538.41"/>
</g>
<!-- Node14&#45;&gt;Node13 -->
<g id="edge26" class="edge">
<title>Node14&#45;&gt;Node13</title>
<path fill="none" stroke="midnightblue" d="M905.16,-30.58C906.19,-38.41 906.48,-48.37 906.03,-57.4"/>
<polygon fill="midnightblue" stroke="midnightblue" points="902.54,-57.13 905.17,-67.4 909.52,-57.74 902.54,-57.13"/>
</g>
<!-- Node15&#45;&gt;Node3 -->
<g id="edge29" class="edge">
<title>Node15&#45;&gt;Node3</title>
<path fill="none" stroke="midnightblue" d="M943.11,-293.43C951.83,-325.15 976.34,-433.49 922.49,-489 901.25,-510.89 714.52,-524.57 611.33,-530.53"/>
<polygon fill="midnightblue" stroke="midnightblue" points="611.09,-527.03 601.31,-531.1 611.49,-534.02 611.09,-527.03"/>
</g>
<!-- Node15&#45;&gt;Node6 -->
<g id="edge30" class="edge">
<title>Node15&#45;&gt;Node6</title>
<path fill="none" stroke="midnightblue" d="M933.95,-273.78C913.48,-247.22 847.39,-167.1 771.49,-134 698.88,-102.33 476.24,-90.12 355.81,-85.74"/>
<polygon fill="midnightblue" stroke="midnightblue" points="355.67,-82.23 345.55,-85.38 355.42,-89.23 355.67,-82.23"/>
</g>
<!-- Node15&#45;&gt;Node9 -->
<g id="edge31" class="edge">
<title>Node15&#45;&gt;Node9</title>
<path fill="none" stroke="midnightblue" d="M907.02,-273.94C861.52,-262.29 780.09,-241.45 729.93,-228.62"/>
<polygon fill="midnightblue" stroke="midnightblue" points="730.59,-225.17 720.03,-226.08 728.85,-231.95 730.59,-225.17"/>
</g>
<!-- Node15&#45;&gt;Node12 -->
<g id="edge32" class="edge">
<title>Node15&#45;&gt;Node12</title>
<path fill="none" stroke="midnightblue" d="M944.82,-273.84C954.82,-253.85 979.79,-203.9 994.71,-174.06"/>
<polygon fill="midnightblue" stroke="midnightblue" points="998.01,-175.29 999.35,-164.78 991.74,-172.16 998.01,-175.29"/>
</g>
<!-- Node15&#45;&gt;Node13 -->
<g id="edge33" class="edge">
<title>Node15&#45;&gt;Node13</title>
<path fill="none" stroke="midnightblue" d="M938.73,-273.95C932.82,-245.29 913.59,-151.94 904.43,-107.47"/>
<polygon fill="midnightblue" stroke="midnightblue" points="907.83,-106.62 902.38,-97.53 900.97,-108.03 907.83,-106.62"/>
</g>
<!-- Node16 -->
<g id="node16" class="node">
<title>Node16</title>
<g id="a_node16"><a xlink:href="http://www.dealii.org/developer/doxygen/deal.II/tensor__accessors_8h.html" xlink:title=" ">
<polygon fill="none" stroke="black" points="1034.99,-201.5 1034.99,-231.5 1141.99,-231.5 1141.99,-201.5 1034.99,-201.5"/>
<text text-anchor="start" x="1042.99" y="-219.5" font-family="Helvetica,sans-Serif" font-size="10.00">deal.II/base/tensor</text>
<text text-anchor="middle" x="1088.49" y="-208.5" font-family="Helvetica,sans-Serif" font-size="10.00">_accessors.h</text>
</a>
</g>
</g>
<!-- Node15&#45;&gt;Node16 -->
<g id="edge34" class="edge">
<title>Node15&#45;&gt;Node16</title>
<path fill="none" stroke="midnightblue" d="M960.14,-273.87C982.25,-264.16 1018.79,-248.11 1047.24,-235.61"/>
<polygon fill="midnightblue" stroke="midnightblue" points="1048.8,-238.75 1056.55,-231.53 1045.98,-232.34 1048.8,-238.75"/>
</g>
<!-- Node16&#45;&gt;Node3 -->
<g id="edge35" class="edge">
<title>Node16&#45;&gt;Node3</title>
<path fill="none" stroke="midnightblue" d="M1086.34,-231.72C1082.89,-255.87 1076.49,-306.47 1076.49,-349.5 1076.49,-418.5 1076.49,-418.5 1076.49,-418.5 1076.49,-453.68 1069.63,-469.3 1040.49,-489 1005.72,-512.5 738.89,-526.21 611.18,-531.48"/>
<polygon fill="midnightblue" stroke="midnightblue" points="610.97,-527.99 601.12,-531.89 611.26,-534.98 610.97,-527.99"/>
</g>
<!-- Node16&#45;&gt;Node12 -->
<g id="edge36" class="edge">
<title>Node16&#45;&gt;Node12</title>
<path fill="none" stroke="midnightblue" d="M1070.7,-201.4C1059.41,-192.45 1044.63,-180.74 1032.1,-170.8"/>
<polygon fill="midnightblue" stroke="midnightblue" points="1034.26,-168.05 1024.25,-164.58 1029.91,-173.53 1034.26,-168.05"/>
</g>
<!-- Node16&#45;&gt;Node13 -->
<g id="edge37" class="edge">
<title>Node16&#45;&gt;Node13</title>
<path fill="none" stroke="midnightblue" d="M1088.63,-201.4C1088.03,-183.37 1084.25,-152.3 1066.49,-134 1041.35,-108.1 1003.43,-95.37 970.07,-89.16"/>
<polygon fill="midnightblue" stroke="midnightblue" points="970.33,-85.65 959.88,-87.43 969.16,-92.55 970.33,-85.65"/>
</g>
<!-- Node17&#45;&gt;Node2 -->
<g id="edge52" class="edge">
<title>Node17&#45;&gt;Node2</title>
<path fill="none" stroke="midnightblue" d="M242.36,-432.72C224.53,-463.94 182,-538.36 162.53,-572.43"/>
<polygon fill="midnightblue" stroke="midnightblue" points="159.41,-570.84 157.48,-581.26 165.48,-574.31 159.41,-570.84"/>
</g>
<!-- Node17&#45;&gt;Node3 -->
<g id="edge40" class="edge">
<title>Node17&#45;&gt;Node3</title>
<path fill="none" stroke="midnightblue" d="M259.59,-432.63C270.89,-448.92 291.72,-475.24 316.49,-489 365.41,-516.17 428.29,-527.1 475.46,-531.41"/>
<polygon fill="midnightblue" stroke="midnightblue" points="475.32,-534.91 485.58,-532.26 475.91,-527.94 475.32,-534.91"/>
</g>
<!-- Node17&#45;&gt;Node4 -->
<g id="edge53" class="edge">
<title>Node17&#45;&gt;Node4</title>
<path fill="none" stroke="midnightblue" d="M302.07,-427.94C362.42,-439.72 460.32,-459.63 510.99,-470.45"/>
<polygon fill="midnightblue" stroke="midnightblue" points="510.54,-473.93 521.05,-472.61 512.01,-467.09 510.54,-473.93"/>
</g>
<!-- Node17&#45;&gt;Node6 -->
<g id="edge41" class="edge">
<title>Node17&#45;&gt;Node6</title>
<path fill="none" stroke="midnightblue" d="M232.67,-402.38C192.45,-368.69 100.58,-280.45 133.49,-201 154.68,-149.85 212.12,-114.33 247.42,-96.56"/>
<polygon fill="midnightblue" stroke="midnightblue" points="249.28,-99.55 256.74,-92.03 246.22,-93.26 249.28,-99.55"/>
</g>
<!-- Node18 -->
<g id="node18" class="node">
<title>Node18</title>
<g id="a_node18"><a xlink:href="http://www.dealii.org/developer/doxygen/deal.II/thread__management_8h.html" xlink:title=" ">
<polygon fill="none" stroke="black" points="278.99,-335.5 278.99,-365.5 385.99,-365.5 385.99,-335.5 278.99,-335.5"/>
<text text-anchor="start" x="286.99" y="-353.5" font-family="Helvetica,sans-Serif" font-size="10.00">deal.II/base/thread</text>
<text text-anchor="middle" x="332.49" y="-342.5" font-family="Helvetica,sans-Serif" font-size="10.00">_management.h</text>
</a>
</g>
</g>
<!-- Node17&#45;&gt;Node18 -->
<g id="edge42" class="edge">
<title>Node17&#45;&gt;Node18</title>
<path fill="none" stroke="midnightblue" d="M268.28,-402.4C279.56,-393.45 294.34,-381.74 306.88,-371.8"/>
<polygon fill="midnightblue" stroke="midnightblue" points="309.07,-374.53 314.73,-365.58 304.72,-369.05 309.07,-374.53"/>
</g>
<!-- Node18&#45;&gt;Node3 -->
<g id="edge43" class="edge">
<title>Node18&#45;&gt;Node3</title>
<path fill="none" stroke="midnightblue" d="M337.27,-365.89C347.27,-393.79 373.05,-455.46 415.49,-489 436.2,-505.37 463.3,-516.03 487.24,-522.84"/>
<polygon fill="midnightblue" stroke="midnightblue" points="486.36,-526.23 496.92,-525.44 488.18,-519.47 486.36,-526.23"/>
</g>
<!-- Node18&#45;&gt;Node6 -->
<g id="edge44" class="edge">
<title>Node18&#45;&gt;Node6</title>
<path fill="none" stroke="midnightblue" d="M337.44,-335.46C349.16,-299.66 375.23,-202.95 341.49,-134 333.66,-118 318.03,-105.6 304.07,-97.1"/>
<polygon fill="midnightblue" stroke="midnightblue" points="305.65,-93.97 295.23,-92.07 302.19,-100.06 305.65,-93.97"/>
</g>
<!-- Node18&#45;&gt;Node13 -->
<g id="edge51" class="edge">
<title>Node18&#45;&gt;Node13</title>
<path fill="none" stroke="midnightblue" d="M340.81,-335.31C365.32,-295.04 441.75,-180.01 540.49,-134 590.34,-110.77 739.44,-95.72 829.04,-88.51"/>
<polygon fill="midnightblue" stroke="midnightblue" points="829.43,-91.99 839.13,-87.71 828.88,-85.01 829.43,-91.99"/>
</g>
<!-- Node19 -->
<g id="node19" class="node">
<title>Node19</title>
<g id="a_node19"><a xlink:href="http://www.dealii.org/developer/doxygen/deal.II/multithread__info_8h.html" xlink:title=" ">
<polygon fill="none" stroke="black" points="142.99,-201.5 142.99,-231.5 275.99,-231.5 275.99,-201.5 142.99,-201.5"/>
<text text-anchor="start" x="150.99" y="-219.5" font-family="Helvetica,sans-Serif" font-size="10.00">deal.II/base/multithread</text>
<text text-anchor="middle" x="209.49" y="-208.5" font-family="Helvetica,sans-Serif" font-size="10.00">_info.h</text>
</a>
</g>
</g>
<!-- Node18&#45;&gt;Node19 -->
<g id="edge45" class="edge">
<title>Node18&#45;&gt;Node19</title>
<path fill="none" stroke="midnightblue" d="M319.33,-335.37C297.78,-312.25 254.85,-266.18 229.51,-238.99"/>
<polygon fill="midnightblue" stroke="midnightblue" points="231.93,-236.45 222.56,-231.52 226.81,-241.23 231.93,-236.45"/>
</g>
<!-- Node20 -->
<g id="node20" class="node">
<title>Node20</title>
<g id="a_node20"><a xlink:href="http://www.dealii.org/developer/doxygen/deal.II/tuple_8h.html" xlink:title=" ">
<polygon fill="none" stroke="black" points="400.99,-268.5 400.99,-298.5 525.99,-298.5 525.99,-268.5 400.99,-268.5"/>
<text text-anchor="start" x="408.99" y="-286.5" font-family="Helvetica,sans-Serif" font-size="10.00">deal.II/base/std_cxx17</text>
<text text-anchor="middle" x="463.49" y="-275.5" font-family="Helvetica,sans-Serif" font-size="10.00">/tuple.h</text>
</a>
</g>
</g>
<!-- Node18&#45;&gt;Node20 -->
<g id="edge49" class="edge">
<title>Node18&#45;&gt;Node20</title>
<path fill="none" stroke="midnightblue" d="M360.91,-335.4C379.97,-325.94 405.26,-313.39 425.97,-303.12"/>
<polygon fill="midnightblue" stroke="midnightblue" points="427.72,-306.16 435.12,-298.58 424.61,-299.89 427.72,-306.16"/>
</g>
<!-- Node19&#45;&gt;Node3 -->
<g id="edge46" class="edge">
<title>Node19&#45;&gt;Node3</title>
<path fill="none" stroke="midnightblue" d="M181.36,-231.54C166.65,-240.2 149.47,-252.61 138.49,-268 116.56,-298.74 114.49,-311.74 114.49,-349.5 114.49,-418.5 114.49,-418.5 114.49,-418.5 114.49,-460.23 139.59,-469.52 176.49,-489 226.96,-515.65 384.41,-526.99 475.85,-531.43"/>
<polygon fill="midnightblue" stroke="midnightblue" points="475.7,-534.93 485.85,-531.9 476.03,-527.93 475.7,-534.93"/>
</g>
<!-- Node19&#45;&gt;Node6 -->
<g id="edge47" class="edge">
<title>Node19&#45;&gt;Node6</title>
<path fill="none" stroke="midnightblue" d="M206.34,-201.36C203.32,-184.37 200.65,-155.48 211.49,-134 219.52,-118.09 235.14,-105.7 249.06,-97.17"/>
<polygon fill="midnightblue" stroke="midnightblue" points="250.93,-100.14 257.87,-92.13 247.45,-94.06 250.93,-100.14"/>
</g>
<!-- Node19&#45;&gt;Node10 -->
<g id="edge48" class="edge">
<title>Node19&#45;&gt;Node10</title>
<path fill="none" stroke="midnightblue" d="M224.03,-201.4C234.68,-191.06 249.15,-177.02 260.19,-166.31"/>
<polygon fill="midnightblue" stroke="midnightblue" points="262.79,-168.67 267.53,-159.19 257.91,-163.65 262.79,-168.67"/>
</g>
<!-- Node20&#45;&gt;Node3 -->
<g id="edge50" class="edge">
<title>Node20&#45;&gt;Node3</title>
<path fill="none" stroke="midnightblue" d="M511.38,-298.58C581.41,-320.24 706.2,-363.3 731.49,-402 771.38,-463.05 658.36,-504.23 590.52,-522.78"/>
<polygon fill="midnightblue" stroke="midnightblue" points="589.22,-519.51 580.46,-525.46 591.02,-526.27 589.22,-519.51"/>
</g>
<!-- Node21&#45;&gt;Node3 -->
<g id="edge55" class="edge">
<title>Node21&#45;&gt;Node3</title>
<path fill="none" stroke="midnightblue" d="M467.72,-427.28C481.26,-446.36 513.57,-491.86 531.31,-516.84"/>
<polygon fill="midnightblue" stroke="midnightblue" points="528.68,-519.19 537.33,-525.32 534.39,-515.14 528.68,-519.19"/>
</g>
</g>
</svg>
