<?xml version="1.0" encoding="UTF-8" standalone="no"?>
<!DOCTYPE svg PUBLIC "-//W3C//DTD SVG 1.1//EN"
 "http://www.w3.org/Graphics/SVG/1.1/DTD/svg11.dtd">
<!-- Generated by graphviz version 2.43.0 (0)
 -->
<!-- Title: source/runner.cc Pages: 1 -->
<svg width="851pt" height="151pt"
 viewBox="0.00 0.00 850.50 151.00" xmlns="http://www.w3.org/2000/svg" xmlns:xlink="http://www.w3.org/1999/xlink">
<g id="graph0" class="graph" transform="scale(1 1) rotate(0) translate(4 147)">
<title>source/runner.cc</title>
<!-- Node1 -->
<g id="node1" class="node">
<title>Node1</title>
<g id="a_node1"><a xlink:title=" ">
<polygon fill="#bfbfbf" stroke="black" points="340.5,-123.5 340.5,-142.5 437.5,-142.5 437.5,-123.5 340.5,-123.5"/>
<text text-anchor="middle" x="389" y="-130.5" font-family="Helvetica,sans-Serif" font-size="10.00">source/runner.cc</text>
</a>
</g>
</g>
<!-- Node2 -->
<g id="node2" class="node">
<title>Node2</title>
<g id="a_node2"><a xlink:href="runner_8h.html" target="_top" xlink:title=" ">
<polygon fill="none" stroke="black" points="4.5,-62 4.5,-81 61.5,-81 61.5,-62 4.5,-62"/>
<text text-anchor="middle" x="33" y="-69" font-family="Helvetica,sans-Serif" font-size="10.00">runner.h</text>
</a>
</g>
</g>
<!-- Node1&#45;&gt;Node2 -->
<g id="edge1" class="edge">
<title>Node1&#45;&gt;Node2</title>
<path fill="none" stroke="midnightblue" d="M340.49,-127.8C278.53,-121.79 168.25,-108.99 76,-87 72.6,-86.19 69.09,-85.23 65.61,-84.18"/>
<polygon fill="midnightblue" stroke="midnightblue" points="66.57,-80.82 55.98,-81.11 64.45,-87.49 66.57,-80.82"/>
</g>
<!-- Node3 -->
<g id="node3" class="node">
<title>Node3</title>
<g id="a_node3"><a xlink:href="http://www.dealii.org/developer/doxygen/deal.II/include_2deal_8II_2base_2utilities_8h.html.html" xlink:title=" ">
<polygon fill="none" stroke="black" points="0,-0.5 0,-19.5 122,-19.5 122,-0.5 0,-0.5"/>
<text text-anchor="middle" x="61" y="-7.5" font-family="Helvetica,sans-Serif" font-size="10.00">deal.II/base/utilities.h</text>
</a>
</g>
</g>
<!-- Node1&#45;&gt;Node3 -->
<g id="edge7" class="edge">
<title>Node1&#45;&gt;Node3</title>
<path fill="none" stroke="midnightblue" d="M340.27,-128.98C270.42,-123.84 146.14,-111.51 109,-87 88.19,-73.27 74.66,-47.08 67.43,-29.33"/>
<polygon fill="midnightblue" stroke="midnightblue" points="70.63,-27.89 63.81,-19.78 64.08,-30.37 70.63,-27.89"/>
</g>
<!-- Node4 -->
<g id="node4" class="node">
<title>Node4</title>
<g id="a_node4"><a xlink:href="http://www.dealii.org/developer/doxygen/deal.II/logstream_8h.html.html" xlink:title=" ">
<polygon fill="none" stroke="black" points="118,-62 118,-81 252,-81 252,-62 118,-62"/>
<text text-anchor="middle" x="185" y="-69" font-family="Helvetica,sans-Serif" font-size="10.00">deal.II/base/logstream.h</text>
</a>
</g>
</g>
<!-- Node1&#45;&gt;Node4 -->
<g id="edge3" class="edge">
<title>Node1&#45;&gt;Node4</title>
<path fill="none" stroke="midnightblue" d="M359.77,-123.48C324.1,-113.07 263.64,-95.44 224.02,-83.88"/>
<polygon fill="midnightblue" stroke="midnightblue" points="224.75,-80.45 214.17,-81.01 222.79,-87.17 224.75,-80.45"/>
</g>
<!-- Node5 -->
<g id="node5" class="node">
<title>Node5</title>
<g id="a_node5"><a xlink:href="http://www.dealii.org/developer/doxygen/deal.II/mpi_8h.html.html" xlink:title=" ">
<polygon fill="none" stroke="black" points="270,-62 270,-81 374,-81 374,-62 270,-62"/>
<text text-anchor="middle" x="322" y="-69" font-family="Helvetica,sans-Serif" font-size="10.00">deal.II/base/mpi.h</text>
</a>
</g>
</g>
<!-- Node1&#45;&gt;Node5 -->
<g id="edge4" class="edge">
<title>Node1&#45;&gt;Node5</title>
<path fill="none" stroke="midnightblue" d="M379.4,-123.48C368.95,-114.2 352.03,-99.17 339.26,-87.83"/>
<polygon fill="midnightblue" stroke="midnightblue" points="341.38,-85.03 331.58,-81.01 336.73,-90.27 341.38,-85.03"/>
</g>
<!-- Node6 -->
<g id="node6" class="node">
<title>Node6</title>
<g id="a_node6"><a xlink:href="http://www.dealii.org/developer/doxygen/deal.II/parameter__acceptor_8h.html.html" xlink:title=" ">
<polygon fill="none" stroke="black" points="392.5,-56.5 392.5,-86.5 519.5,-86.5 519.5,-56.5 392.5,-56.5"/>
<text text-anchor="start" x="400.5" y="-74.5" font-family="Helvetica,sans-Serif" font-size="10.00">deal.II/base/parameter</text>
<text text-anchor="middle" x="456" y="-63.5" font-family="Helvetica,sans-Serif" font-size="10.00">_acceptor.h</text>
</a>
</g>
</g>
<!-- Node1&#45;&gt;Node6 -->
<g id="edge5" class="edge">
<title>Node1&#45;&gt;Node6</title>
<path fill="none" stroke="midnightblue" d="M398.6,-123.48C407.42,-115.64 420.85,-103.71 432.5,-93.37"/>
<polygon fill="midnightblue" stroke="midnightblue" points="435.06,-95.78 440.21,-86.52 430.41,-90.55 435.06,-95.78"/>
</g>
<!-- Node7 -->
<g id="node7" class="node">
<title>Node7</title>
<g id="a_node7"><a xlink:href="http://www.dealii.org/developer/doxygen/deal.II/parameter__handler_8h.html.html" xlink:title=" ">
<polygon fill="none" stroke="black" points="537.5,-56.5 537.5,-86.5 664.5,-86.5 664.5,-56.5 537.5,-56.5"/>
<text text-anchor="start" x="545.5" y="-74.5" font-family="Helvetica,sans-Serif" font-size="10.00">deal.II/base/parameter</text>
<text text-anchor="middle" x="601" y="-63.5" font-family="Helvetica,sans-Serif" font-size="10.00">_handler.h</text>
</a>
</g>
</g>
<!-- Node1&#45;&gt;Node7 -->
<g id="edge6" class="edge">
<title>Node1&#45;&gt;Node7</title>
<path fill="none" stroke="midnightblue" d="M419.37,-123.48C451.04,-114.59 501.49,-100.43 541.19,-89.29"/>
<polygon fill="midnightblue" stroke="midnightblue" points="542.35,-92.6 551.04,-86.52 540.46,-85.86 542.35,-92.6"/>
</g>
<!-- Node8 -->
<g id="node8" class="node">
<title>Node8</title>
<g id="a_node8"><a xlink:title=" ">
<polygon fill="none" stroke="#bfbfbf" points="682.5,-62 682.5,-81 741.5,-81 741.5,-62 682.5,-62"/>
<text text-anchor="middle" x="712" y="-69" font-family="Helvetica,sans-Serif" font-size="10.00">argh.hpp</text>
</a>
</g>
</g>
<!-- Node1&#45;&gt;Node8 -->
<g id="edge8" class="edge">
<title>Node1&#45;&gt;Node8</title>
<path fill="none" stroke="midnightblue" d="M437.54,-127.44C494.78,-121.36 592.44,-108.74 674,-87 676.66,-86.29 679.39,-85.46 682.11,-84.57"/>
<polygon fill="midnightblue" stroke="midnightblue" points="683.51,-87.78 691.75,-81.12 681.15,-81.19 683.51,-87.78"/>
</g>
<!-- Node9 -->
<g id="node9" class="node">
<title>Node9</title>
<g id="a_node9"><a xlink:title=" ">
<polygon fill="none" stroke="#bfbfbf" points="759.5,-62 759.5,-81 842.5,-81 842.5,-62 759.5,-62"/>
<text text-anchor="middle" x="801" y="-69" font-family="Helvetica,sans-Serif" font-size="10.00">text_flow.hpp</text>
</a>
</g>
</g>
<!-- Node1&#45;&gt;Node9 -->
<g id="edge9" class="edge">
<title>Node1&#45;&gt;Node9</title>
<path fill="none" stroke="midnightblue" d="M437.71,-128.41C507.59,-122.71 640.12,-109.82 751,-87 755.45,-86.08 760.09,-84.97 764.66,-83.77"/>
<polygon fill="midnightblue" stroke="midnightblue" points="765.77,-87.09 774.47,-81.04 763.9,-80.34 765.77,-87.09"/>
</g>
<!-- Node2&#45;&gt;Node3 -->
<g id="edge2" class="edge">
<title>Node2&#45;&gt;Node3</title>
<path fill="none" stroke="midnightblue" d="M37.01,-61.98C41.09,-53.32 47.52,-39.65 52.7,-28.65"/>
<polygon fill="midnightblue" stroke="midnightblue" points="55.9,-30.05 57,-19.51 49.57,-27.07 55.9,-30.05"/>
</g>
</g>
</svg>
