<?xml version="1.0" encoding="UTF-8" standalone="no"?>
<!DOCTYPE svg PUBLIC "-//W3C//DTD SVG 1.1//EN"
 "http://www.w3.org/Graphics/SVG/1.1/DTD/svg11.dtd">
<!-- Generated by graphviz version 2.43.0 (0)
 -->
<!-- Title: include/runner.h Pages: 1 -->
<svg width="1493pt" height="95pt"
 viewBox="0.00 0.00 1492.50 95.00" xmlns="http://www.w3.org/2000/svg" xmlns:xlink="http://www.w3.org/1999/xlink">
<g id="graph0" class="graph" transform="scale(1 1) rotate(0) translate(4 91)">
<title>include/runner.h</title>
<!-- Node1 -->
<g id="node1" class="node">
<title>Node1</title>
<g id="a_node1"><a xlink:title=" ">
<polygon fill="#bfbfbf" stroke="black" points="709,-67.5 709,-86.5 804,-86.5 804,-67.5 709,-67.5"/>
<text text-anchor="middle" x="756.5" y="-74.5" font-family="Helvetica,sans-Serif" font-size="10.00">include/runner.h</text>
</a>
</g>
</g>
<!-- Node2 -->
<g id="node2" class="node">
<title>Node2</title>
<g id="a_node2"><a xlink:href="runner_8cc.html" target="_top" xlink:title=" ">
<polygon fill="none" stroke="black" points="0,-6 0,-25 97,-25 97,-6 0,-6"/>
<text text-anchor="middle" x="48.5" y="-13" font-family="Helvetica,sans-Serif" font-size="10.00">source/runner.cc</text>
</a>
</g>
</g>
<!-- Node1&#45;&gt;Node2 -->
<g id="edge1" class="edge">
<title>Node1&#45;&gt;Node2</title>
<path fill="none" stroke="midnightblue" d="M698.53,-75.48C584.32,-73.7 322.45,-65.8 105.5,-31 96.43,-29.54 86.69,-27.32 77.87,-25.05"/>
<polygon fill="midnightblue" stroke="midnightblue" points="698.74,-78.99 708.79,-75.63 698.84,-71.99 698.74,-78.99"/>
</g>
<!-- Node3 -->
<g id="node3" class="node">
<title>Node3</title>
<g id="a_node3"><a xlink:href="mesh__handler_8cc.html" target="_top" xlink:title="Mesh generator and reader.">
<polygon fill="none" stroke="black" points="115,-6 115,-25 240,-25 240,-6 115,-6"/>
<text text-anchor="middle" x="177.5" y="-13" font-family="Helvetica,sans-Serif" font-size="10.00">apps/mesh_handler.cc</text>
</a>
</g>
</g>
<!-- Node1&#45;&gt;Node3 -->
<g id="edge2" class="edge">
<title>Node1&#45;&gt;Node3</title>
<path fill="none" stroke="midnightblue" d="M698.45,-73C603.83,-67.63 410.64,-54.66 248.5,-31 237.67,-29.42 226,-27.24 215.31,-25.05"/>
<polygon fill="midnightblue" stroke="midnightblue" points="698.49,-76.51 708.67,-73.57 698.88,-69.52 698.49,-76.51"/>
</g>
<!-- Node4 -->
<g id="node4" class="node">
<title>Node4</title>
<g id="a_node4"><a xlink:href="apps_2mpi_2linear__elasticity_8cc.html" target="_top" xlink:title=" ">
<polygon fill="none" stroke="black" points="258,-6 258,-25 413,-25 413,-6 258,-6"/>
<text text-anchor="middle" x="335.5" y="-13" font-family="Helvetica,sans-Serif" font-size="10.00">apps/mpi/linear_elasticity.cc</text>
</a>
</g>
</g>
<!-- Node1&#45;&gt;Node4 -->
<g id="edge3" class="edge">
<title>Node1&#45;&gt;Node4</title>
<path fill="none" stroke="midnightblue" d="M698.57,-68.75C631.9,-60.28 519.16,-45.56 422.5,-31 410.39,-29.17 397.35,-27.07 385.15,-25.05"/>
<polygon fill="midnightblue" stroke="midnightblue" points="698.51,-72.27 708.87,-70.06 699.39,-65.33 698.51,-72.27"/>
</g>
<!-- Node5 -->
<g id="node5" class="node">
<title>Node5</title>
<g id="a_node5"><a xlink:href="apps_2mpi_2poisson_8cc.html" target="_top" xlink:title=" ">
<polygon fill="none" stroke="black" points="431.5,-6 431.5,-25 547.5,-25 547.5,-6 431.5,-6"/>
<text text-anchor="middle" x="489.5" y="-13" font-family="Helvetica,sans-Serif" font-size="10.00">apps/mpi/poisson.cc</text>
</a>
</g>
</g>
<!-- Node1&#45;&gt;Node5 -->
<g id="edge4" class="edge">
<title>Node1&#45;&gt;Node5</title>
<path fill="none" stroke="midnightblue" d="M708.3,-65.26C656.5,-53.72 575.23,-35.61 527.68,-25.01"/>
<polygon fill="midnightblue" stroke="midnightblue" points="707.72,-68.72 718.25,-67.48 709.25,-61.88 707.72,-68.72"/>
</g>
<!-- Node6 -->
<g id="node6" class="node">
<title>Node6</title>
<g id="a_node6"><a xlink:href="apps_2mpi_2stokes_8cc.html" target="_top" xlink:title=" ">
<polygon fill="none" stroke="black" points="565.5,-6 565.5,-25 675.5,-25 675.5,-6 565.5,-6"/>
<text text-anchor="middle" x="620.5" y="-13" font-family="Helvetica,sans-Serif" font-size="10.00">apps/mpi/stokes.cc</text>
</a>
</g>
</g>
<!-- Node1&#45;&gt;Node6 -->
<g id="edge5" class="edge">
<title>Node1&#45;&gt;Node6</title>
<path fill="none" stroke="midnightblue" d="M727.53,-63.33C701.13,-51.78 662.86,-35.03 639.95,-25.01"/>
<polygon fill="midnightblue" stroke="midnightblue" points="726.45,-66.67 737.01,-67.48 729.26,-60.26 726.45,-66.67"/>
</g>
<!-- Node7 -->
<g id="node7" class="node">
<title>Node7</title>
<g id="a_node7"><a xlink:href="apps_2serial_2distributed__lagrange_8cc.html" target="_top" xlink:title=" ">
<polygon fill="none" stroke="black" points="694,-0.5 694,-30.5 819,-30.5 819,-0.5 694,-0.5"/>
<text text-anchor="start" x="702" y="-18.5" font-family="Helvetica,sans-Serif" font-size="10.00">apps/serial/distributed</text>
<text text-anchor="middle" x="756.5" y="-7.5" font-family="Helvetica,sans-Serif" font-size="10.00">_lagrange.cc</text>
</a>
</g>
</g>
<!-- Node1&#45;&gt;Node7 -->
<g id="edge6" class="edge">
<title>Node1&#45;&gt;Node7</title>
<path fill="none" stroke="midnightblue" d="M756.5,-57.23C756.5,-48.59 756.5,-38.5 756.5,-30.52"/>
<polygon fill="midnightblue" stroke="midnightblue" points="753,-57.48 756.5,-67.48 760,-57.48 753,-57.48"/>
</g>
<!-- Node8 -->
<g id="node8" class="node">
<title>Node8</title>
<g id="a_node8"><a xlink:href="apps_2serial_2linear__elasticity_8cc.html" target="_top" xlink:title=" ">
<polygon fill="none" stroke="black" points="837,-0.5 837,-30.5 938,-30.5 938,-0.5 837,-0.5"/>
<text text-anchor="start" x="845" y="-18.5" font-family="Helvetica,sans-Serif" font-size="10.00">apps/serial/linear</text>
<text text-anchor="middle" x="887.5" y="-7.5" font-family="Helvetica,sans-Serif" font-size="10.00">_elasticity.cc</text>
</a>
</g>
</g>
<!-- Node1&#45;&gt;Node8 -->
<g id="edge7" class="edge">
<title>Node1&#45;&gt;Node8</title>
<path fill="none" stroke="midnightblue" d="M784.39,-63.33C805.59,-53.7 834.73,-40.47 856.63,-30.52"/>
<polygon fill="midnightblue" stroke="midnightblue" points="782.93,-60.15 775.27,-67.48 785.82,-66.53 782.93,-60.15"/>
</g>
<!-- Node9 -->
<g id="node9" class="node">
<title>Node9</title>
<g id="a_node9"><a xlink:href="apps_2serial_2poisson_8cc.html" target="_top" xlink:title=" ">
<polygon fill="none" stroke="black" points="956.5,-6 956.5,-25 1080.5,-25 1080.5,-6 956.5,-6"/>
<text text-anchor="middle" x="1018.5" y="-13" font-family="Helvetica,sans-Serif" font-size="10.00">apps/serial/poisson.cc</text>
</a>
</g>
</g>
<!-- Node1&#45;&gt;Node9 -->
<g id="edge8" class="edge">
<title>Node1&#45;&gt;Node9</title>
<path fill="none" stroke="midnightblue" d="M803.8,-65.26C854.62,-53.72 934.37,-35.61 981.03,-25.01"/>
<polygon fill="midnightblue" stroke="midnightblue" points="803.01,-61.85 794.04,-67.48 804.57,-68.67 803.01,-61.85"/>
</g>
<!-- Node10 -->
<g id="node10" class="node">
<title>Node10</title>
<g id="a_node10"><a xlink:href="apps_2serial_2poisson__nitsche__interface_8cc.html" target="_top" xlink:title=" ">
<polygon fill="none" stroke="black" points="1099,-0.5 1099,-30.5 1218,-30.5 1218,-0.5 1099,-0.5"/>
<text text-anchor="start" x="1107" y="-18.5" font-family="Helvetica,sans-Serif" font-size="10.00">apps/serial/poisson</text>
<text text-anchor="middle" x="1158.5" y="-7.5" font-family="Helvetica,sans-Serif" font-size="10.00">_nitsche_interface.cc</text>
</a>
</g>
</g>
<!-- Node1&#45;&gt;Node10 -->
<g id="edge9" class="edge">
<title>Node1&#45;&gt;Node10</title>
<path fill="none" stroke="midnightblue" d="M814.37,-69.48C880.95,-61.67 993.46,-47.56 1089.5,-31 1092.52,-30.48 1095.6,-29.92 1098.71,-29.34"/>
<polygon fill="midnightblue" stroke="midnightblue" points="813.62,-66.04 804.09,-70.67 814.43,-72.99 813.62,-66.04"/>
</g>
<!-- Node11 -->
<g id="node11" class="node">
<title>Node11</title>
<g id="a_node11"><a xlink:href="apps_2serial_2reduced__lagrange_8cc.html" target="_top" xlink:title=" ">
<polygon fill="none" stroke="black" points="1236.5,-0.5 1236.5,-30.5 1348.5,-30.5 1348.5,-0.5 1236.5,-0.5"/>
<text text-anchor="start" x="1244.5" y="-18.5" font-family="Helvetica,sans-Serif" font-size="10.00">apps/serial/reduced</text>
<text text-anchor="middle" x="1292.5" y="-7.5" font-family="Helvetica,sans-Serif" font-size="10.00">_lagrange.cc</text>
</a>
</g>
</g>
<!-- Node1&#45;&gt;Node11 -->
<g id="edge10" class="edge">
<title>Node1&#45;&gt;Node11</title>
<path fill="none" stroke="midnightblue" d="M814.39,-72.79C903.53,-67.33 1079.62,-54.47 1227.5,-31 1230.35,-30.55 1233.27,-30.04 1236.21,-29.51"/>
<polygon fill="midnightblue" stroke="midnightblue" points="813.98,-69.31 804.21,-73.41 814.41,-76.3 813.98,-69.31"/>
</g>
<!-- Node12 -->
<g id="node12" class="node">
<title>Node12</title>
<g id="a_node12"><a xlink:href="apps_2serial_2stokes_8cc.html" target="_top" xlink:title=" ">
<polygon fill="none" stroke="black" points="1366.5,-6 1366.5,-25 1484.5,-25 1484.5,-6 1366.5,-6"/>
<text text-anchor="middle" x="1425.5" y="-13" font-family="Helvetica,sans-Serif" font-size="10.00">apps/serial/stokes.cc</text>
</a>
</g>
</g>
<!-- Node1&#45;&gt;Node12 -->
<g id="edge11" class="edge">
<title>Node1&#45;&gt;Node12</title>
<path fill="none" stroke="midnightblue" d="M814.57,-74.26C922.16,-70.47 1159.54,-59.38 1357.5,-31 1368.13,-29.48 1379.59,-27.26 1390.02,-25.01"/>
<polygon fill="midnightblue" stroke="midnightblue" points="814.14,-70.78 804.26,-74.62 814.38,-77.77 814.14,-70.78"/>
</g>
</g>
</svg>
