<?xml version="1.0" encoding="UTF-8" standalone="no"?>
<!DOCTYPE svg PUBLIC "-//W3C//DTD SVG 1.1//EN"
 "http://www.w3.org/Graphics/SVG/1.1/DTD/svg11.dtd">
<!-- Generated by graphviz version 2.43.0 (0)
 -->
<!-- Title: G Pages: 1 -->
<svg width="1051pt" height="367pt"
 viewBox="0.00 0.00 1051.00 367.00" xmlns="http://www.w3.org/2000/svg" xmlns:xlink="http://www.w3.org/1999/xlink">
<g id="graph0" class="graph" transform="scale(1 1) rotate(0) translate(4 363)">
<title>G</title>
<!-- Poisson -->
<g id="node1" class="node">
<title>Poisson</title>
<path fill="#5d8aa8" stroke="#5d8aa8" d="M405,-359C405,-359 299,-359 299,-359 293,-359 287,-353 287,-347 287,-347 287,-328 287,-328 287,-322 293,-316 299,-316 299,-316 405,-316 405,-316 411,-316 417,-322 417,-328 417,-328 417,-347 417,-347 417,-353 411,-359 405,-359"/>
<text text-anchor="middle" x="352" y="-333.8" font-family="Times,serif" font-size="14.00">Poisson</text>
</g>
<!-- HeatEquation -->
<g id="node3" class="node">
<title>HeatEquation</title>
<path fill="#5d8aa8" stroke="#5d8aa8" d="M675,-359C675,-359 569,-359 569,-359 563,-359 557,-353 557,-347 557,-347 557,-328 557,-328 557,-322 563,-316 569,-316 569,-316 675,-316 675,-316 681,-316 687,-322 687,-328 687,-328 687,-347 687,-347 687,-353 681,-359 675,-359"/>
<text text-anchor="middle" x="622" y="-333.8" font-family="Times,serif" font-size="14.00">HeatEquation</text>
</g>
<!-- Poisson&#45;&gt;HeatEquation -->
<g id="edge13" class="edge">
<title>Poisson&#45;&gt;HeatEquation</title>
<path fill="none" stroke="black" d="M417.13,-337.5C460.31,-337.5 503.5,-337.5 546.68,-337.5"/>
<polygon fill="black" stroke="black" points="546.78,-341 556.78,-337.5 546.78,-334 546.78,-341"/>
</g>
<!-- LinearElasticity -->
<g id="node5" class="node">
<title>LinearElasticity</title>
<path fill="#5d8aa8" stroke="#5d8aa8" d="M405,-280C405,-280 299,-280 299,-280 293,-280 287,-274 287,-268 287,-268 287,-249 287,-249 287,-243 293,-237 299,-237 299,-237 405,-237 405,-237 411,-237 417,-243 417,-249 417,-249 417,-268 417,-268 417,-274 411,-280 405,-280"/>
<text text-anchor="middle" x="352" y="-254.8" font-family="Times,serif" font-size="14.00">LinearElasticity</text>
</g>
<!-- Poisson&#45;&gt;LinearElasticity -->
<g id="edge1" class="edge">
<title>Poisson&#45;&gt;LinearElasticity</title>
<path fill="none" stroke="black" d="M352,-315.87C352,-308.01 352,-298.88 352,-290.29"/>
<polygon fill="black" stroke="black" points="355.5,-290.19 352,-280.19 348.5,-290.19 355.5,-290.19"/>
</g>
<!-- ImmersedInteface -->
<g id="node22" class="node">
<title>ImmersedInteface</title>
<path fill="#5d8aa8" stroke="#5d8aa8" d="M118,-43C118,-43 12,-43 12,-43 6,-43 0,-37 0,-31 0,-31 0,-12 0,-12 0,-6 6,0 12,0 12,0 118,0 118,0 124,0 130,-6 130,-12 130,-12 130,-31 130,-31 130,-37 124,-43 118,-43"/>
<text text-anchor="middle" x="65" y="-17.8" font-family="Times,serif" font-size="14.00">ImmersedInteface</text>
</g>
<!-- Poisson&#45;&gt;ImmersedInteface -->
<g id="edge34" class="edge">
<title>Poisson&#45;&gt;ImmersedInteface</title>
<path fill="none" stroke="black" d="M286.96,-333.21C239.35,-327.87 175.4,-314.25 130,-280 59.46,-226.78 58.11,-108.93 61.89,-53.04"/>
<polygon fill="black" stroke="black" points="65.38,-53.29 62.66,-43.04 58.4,-52.74 65.38,-53.29"/>
</g>
<!-- QuasiStaticPoisson -->
<!-- WaveEquation -->
<g id="node7" class="node">
<title>WaveEquation</title>
<path fill="#5d8aa8" stroke="#5d8aa8" d="M759,-280C759,-280 653,-280 653,-280 647,-280 641,-274 641,-268 641,-268 641,-249 641,-249 641,-243 647,-237 653,-237 653,-237 759,-237 759,-237 765,-237 771,-243 771,-249 771,-249 771,-268 771,-268 771,-274 765,-280 759,-280"/>
<text text-anchor="middle" x="706" y="-254.8" font-family="Times,serif" font-size="14.00">WaveEquation</text>
</g>
<!-- HeatEquation&#45;&gt;WaveEquation -->
<g id="edge6" class="edge">
<title>HeatEquation&#45;&gt;WaveEquation</title>
<path fill="none" stroke="black" d="M644.51,-315.87C654.11,-307.06 665.47,-296.66 675.78,-287.2"/>
<polygon fill="black" stroke="black" points="678.42,-289.53 683.43,-280.19 673.69,-284.37 678.42,-289.53"/>
</g>
<!-- csd -->
<g id="node4" class="node">
<title>csd</title>
<text text-anchor="middle" x="204" y="-262.3" font-family="Times,serif" font-size="14.00">Compututational</text>
<text text-anchor="middle" x="204" y="-247.3" font-family="Times,serif" font-size="14.00">Solid Dynamics</text>
</g>
<!-- csd&#45;&gt;LinearElasticity -->
<g id="edge14" class="edge">
<title>csd&#45;&gt;LinearElasticity</title>
<path fill="none" stroke="black" d="M269.04,-258.5C271.64,-258.5 274.24,-258.5 276.84,-258.5"/>
<polygon fill="black" stroke="black" points="276.86,-262 286.86,-258.5 276.86,-255 276.86,-262"/>
</g>
<!-- QuasiStaticLinearElasticity -->
<g id="node6" class="node">
<title>QuasiStaticLinearElasticity</title>
<path fill="#5d8aa8" stroke="#5d8aa8" d="M600,-280C600,-280 494,-280 494,-280 488,-280 482,-274 482,-268 482,-268 482,-249 482,-249 482,-243 488,-237 494,-237 494,-237 600,-237 600,-237 606,-237 612,-243 612,-249 612,-249 612,-268 612,-268 612,-274 606,-280 600,-280"/>
<text text-anchor="middle" x="547" y="-262.3" font-family="Times,serif" font-size="14.00">QuasiStatic</text>
<text text-anchor="middle" x="547" y="-247.3" font-family="Times,serif" font-size="14.00">LinearElasticity</text>
</g>
<!-- LinearElasticity&#45;&gt;QuasiStaticLinearElasticity -->
<g id="edge15" class="edge">
<title>LinearElasticity&#45;&gt;QuasiStaticLinearElasticity</title>
<path fill="none" stroke="black" d="M417.13,-258.5C435.32,-258.5 453.51,-258.5 471.7,-258.5"/>
<polygon fill="black" stroke="black" points="471.81,-262 481.81,-258.5 471.81,-255 471.81,-262"/>
</g>
<!-- Stokes -->
<g id="node10" class="node">
<title>Stokes</title>
<path fill="#5d8aa8" stroke="#5d8aa8" d="M359,-201C359,-201 253,-201 253,-201 247,-201 241,-195 241,-189 241,-189 241,-170 241,-170 241,-164 247,-158 253,-158 253,-158 359,-158 359,-158 365,-158 371,-164 371,-170 371,-170 371,-189 371,-189 371,-195 365,-201 359,-201"/>
<text text-anchor="middle" x="306" y="-175.8" font-family="Times,serif" font-size="14.00">Stokes</text>
</g>
<!-- LinearElasticity&#45;&gt;Stokes -->
<g id="edge2" class="edge">
<title>LinearElasticity&#45;&gt;Stokes</title>
<path fill="none" stroke="black" d="M339.67,-236.87C334.72,-228.58 328.93,-218.88 323.55,-209.88"/>
<polygon fill="black" stroke="black" points="326.49,-207.98 318.36,-201.19 320.49,-211.57 326.49,-207.98"/>
</g>
<!-- QuasiStaticLinearElasticity&#45;&gt;WaveEquation -->
<g id="edge16" class="edge">
<title>QuasiStaticLinearElasticity&#45;&gt;WaveEquation</title>
<path fill="none" stroke="black" d="M612.21,-258.5C618.32,-258.5 624.42,-258.5 630.52,-258.5"/>
<polygon fill="black" stroke="black" points="630.79,-262 640.79,-258.5 630.79,-255 630.79,-262"/>
</g>
<!-- QuasiStaticStokes -->
<g id="node11" class="node">
<title>QuasiStaticStokes</title>
<path fill="#5d8aa8" stroke="#5d8aa8" d="M507,-201C507,-201 401,-201 401,-201 395,-201 389,-195 389,-189 389,-189 389,-170 389,-170 389,-164 395,-158 401,-158 401,-158 507,-158 507,-158 513,-158 519,-164 519,-170 519,-170 519,-189 519,-189 519,-195 513,-201 507,-201"/>
<text text-anchor="middle" x="454" y="-183.3" font-family="Times,serif" font-size="14.00">QuasiStatic</text>
<text text-anchor="middle" x="454" y="-168.3" font-family="Times,serif" font-size="14.00">Stokes</text>
</g>
<!-- QuasiStaticLinearElasticity&#45;&gt;QuasiStaticStokes -->
<g id="edge3" class="edge">
<title>QuasiStaticLinearElasticity&#45;&gt;QuasiStaticStokes</title>
<path fill="none" stroke="black" d="M522.08,-236.87C511.24,-227.89 498.38,-217.25 486.78,-207.64"/>
<polygon fill="black" stroke="black" points="488.93,-204.87 478.99,-201.19 484.46,-210.26 488.93,-204.87"/>
</g>
<!-- QuasiStaticLinearFSI -->
<g id="node15" class="node">
<title>QuasiStaticLinearFSI</title>
<path fill="#5d8aa8" stroke="#5d8aa8" d="M545,-122C545,-122 439,-122 439,-122 433,-122 427,-116 427,-110 427,-110 427,-91 427,-91 427,-85 433,-79 439,-79 439,-79 545,-79 545,-79 551,-79 557,-85 557,-91 557,-91 557,-110 557,-110 557,-116 551,-122 545,-122"/>
<text text-anchor="middle" x="492" y="-104.3" font-family="Times,serif" font-size="14.00">QuasiStatic</text>
<text text-anchor="middle" x="492" y="-89.3" font-family="Times,serif" font-size="14.00">LinearFSI</text>
</g>
<!-- QuasiStaticLinearElasticity&#45;&gt;QuasiStaticLinearFSI -->
<g id="edge28" class="edge">
<title>QuasiStaticLinearElasticity&#45;&gt;QuasiStaticLinearFSI</title>
<path fill="none" stroke="black" d="M545.33,-236.66C543.15,-216.08 538.32,-183.99 528,-158 524.27,-148.61 518.93,-139.09 513.5,-130.61"/>
<polygon fill="black" stroke="black" points="516.34,-128.56 507.87,-122.2 510.52,-132.45 516.34,-128.56"/>
</g>
<!-- QuasiStaticLinearIFEM -->
<g id="node19" class="node">
<title>QuasiStaticLinearIFEM</title>
<path fill="#5d8aa8" stroke="#5d8aa8" d="M612,-43C612,-43 506,-43 506,-43 500,-43 494,-37 494,-31 494,-31 494,-12 494,-12 494,-6 500,0 506,0 506,0 612,0 612,0 618,0 624,-6 624,-12 624,-12 624,-31 624,-31 624,-37 618,-43 612,-43"/>
<text text-anchor="middle" x="559" y="-25.3" font-family="Times,serif" font-size="14.00">QuasiStatic</text>
<text text-anchor="middle" x="559" y="-10.3" font-family="Times,serif" font-size="14.00">LinearIFEM</text>
</g>
<!-- QuasiStaticLinearElasticity&#45;&gt;QuasiStaticLinearIFEM -->
<g id="edge29" class="edge">
<title>QuasiStaticLinearElasticity&#45;&gt;QuasiStaticLinearIFEM</title>
<path fill="none" stroke="black" d="M551.45,-236.94C558.11,-203.77 569.54,-136.39 566,-79 565.48,-70.61 564.54,-61.55 563.5,-53.2"/>
<polygon fill="black" stroke="black" points="566.95,-52.56 562.17,-43.11 560.01,-53.48 566.95,-52.56"/>
</g>
<!-- HyperElasticity -->
<g id="node8" class="node">
<title>HyperElasticity</title>
<path fill="#5d8aa8" stroke="#5d8aa8" d="M909,-280C909,-280 803,-280 803,-280 797,-280 791,-274 791,-268 791,-268 791,-249 791,-249 791,-243 797,-237 803,-237 803,-237 909,-237 909,-237 915,-237 921,-243 921,-249 921,-249 921,-268 921,-268 921,-274 915,-280 909,-280"/>
<text text-anchor="middle" x="856" y="-254.8" font-family="Times,serif" font-size="14.00">HyperElasticity</text>
</g>
<!-- WaveEquation&#45;&gt;HyperElasticity -->
<g id="edge17" class="edge">
<title>WaveEquation&#45;&gt;HyperElasticity</title>
<path fill="none" stroke="black" d="M771.04,-258.5C774.25,-258.5 777.47,-258.5 780.68,-258.5"/>
<polygon fill="black" stroke="black" points="780.95,-262 790.95,-258.5 780.95,-255 780.95,-262"/>
</g>
<!-- DynamicStokes -->
<g id="node12" class="node">
<title>DynamicStokes</title>
<path fill="#5d8aa8" stroke="#5d8aa8" d="M769,-201C769,-201 663,-201 663,-201 657,-201 651,-195 651,-189 651,-189 651,-170 651,-170 651,-164 657,-158 663,-158 663,-158 769,-158 769,-158 775,-158 781,-164 781,-170 781,-170 781,-189 781,-189 781,-195 775,-201 769,-201"/>
<text text-anchor="middle" x="716" y="-175.8" font-family="Times,serif" font-size="14.00">DynamicStokes</text>
</g>
<!-- WaveEquation&#45;&gt;DynamicStokes -->
<g id="edge7" class="edge">
<title>WaveEquation&#45;&gt;DynamicStokes</title>
<path fill="none" stroke="black" d="M708.68,-236.87C709.7,-229.01 710.89,-219.88 712,-211.29"/>
<polygon fill="black" stroke="black" points="715.5,-211.56 713.31,-201.19 708.55,-210.66 715.5,-211.56"/>
</g>
<!-- DynamicLinearFSI -->
<g id="node16" class="node">
<title>DynamicLinearFSI</title>
<path fill="#5d8aa8" stroke="#5d8aa8" d="M769,-122C769,-122 663,-122 663,-122 657,-122 651,-116 651,-110 651,-110 651,-91 651,-91 651,-85 657,-79 663,-79 663,-79 769,-79 769,-79 775,-79 781,-85 781,-91 781,-91 781,-110 781,-110 781,-116 775,-122 769,-122"/>
<text text-anchor="middle" x="716" y="-96.8" font-family="Times,serif" font-size="14.00">DynamicLinearFSI</text>
</g>
<!-- WaveEquation&#45;&gt;DynamicLinearFSI -->
<g id="edge30" class="edge">
<title>WaveEquation&#45;&gt;DynamicLinearFSI</title>
<path fill="none" stroke="black" d="M753.24,-236.87C767.7,-228.05 781.9,-216.2 790,-201 798.98,-184.13 798.47,-175.13 790,-158 784.23,-146.34 774.78,-136.43 764.52,-128.31"/>
<polygon fill="black" stroke="black" points="766.32,-125.29 756.18,-122.2 762.18,-130.93 766.32,-125.29"/>
</g>
<!-- DynamicLinearIFEM -->
<g id="node20" class="node">
<title>DynamicLinearIFEM</title>
<path fill="#5d8aa8" stroke="#5d8aa8" d="M760,-43C760,-43 654,-43 654,-43 648,-43 642,-37 642,-31 642,-31 642,-12 642,-12 642,-6 648,0 654,0 654,0 760,0 760,0 766,0 772,-6 772,-12 772,-12 772,-31 772,-31 772,-37 766,-43 760,-43"/>
<text text-anchor="middle" x="707" y="-17.8" font-family="Times,serif" font-size="14.00">DynamicLinearIFEM</text>
</g>
<!-- WaveEquation&#45;&gt;DynamicLinearIFEM -->
<g id="edge31" class="edge">
<title>WaveEquation&#45;&gt;DynamicLinearIFEM</title>
<path fill="none" stroke="black" d="M672.49,-236.79C660.54,-227.47 648.46,-215.32 642,-201 619.7,-151.57 619.51,-128.34 642,-79 647.13,-67.73 655.75,-57.84 665.06,-49.62"/>
<polygon fill="black" stroke="black" points="667.47,-52.16 672.97,-43.11 663.03,-46.76 667.47,-52.16"/>
</g>
<!-- NavierStokes -->
<g id="node13" class="node">
<title>NavierStokes</title>
<path fill="#5d8aa8" stroke="#5d8aa8" d="M1031,-201C1031,-201 925,-201 925,-201 919,-201 913,-195 913,-189 913,-189 913,-170 913,-170 913,-164 919,-158 925,-158 925,-158 1031,-158 1031,-158 1037,-158 1043,-164 1043,-170 1043,-170 1043,-189 1043,-189 1043,-195 1037,-201 1031,-201"/>
<text text-anchor="middle" x="978" y="-175.8" font-family="Times,serif" font-size="14.00">NavierStokes</text>
</g>
<!-- HyperElasticity&#45;&gt;NavierStokes -->
<g id="edge10" class="edge">
<title>HyperElasticity&#45;&gt;NavierStokes</title>
<path fill="none" stroke="black" d="M888.69,-236.87C903.46,-227.54 921.08,-216.43 936.74,-206.54"/>
<polygon fill="black" stroke="black" points="938.63,-209.49 945.22,-201.19 934.89,-203.57 938.63,-209.49"/>
</g>
<!-- SemiImplicitALE -->
<g id="node17" class="node">
<title>SemiImplicitALE</title>
<path fill="#5d8aa8" stroke="#5d8aa8" d="M993,-122C993,-122 887,-122 887,-122 881,-122 875,-116 875,-110 875,-110 875,-91 875,-91 875,-85 881,-79 887,-79 887,-79 993,-79 993,-79 999,-79 1005,-85 1005,-91 1005,-91 1005,-110 1005,-110 1005,-116 999,-122 993,-122"/>
<text text-anchor="middle" x="940" y="-96.8" font-family="Times,serif" font-size="14.00">SemiImplicitALE</text>
</g>
<!-- HyperElasticity&#45;&gt;SemiImplicitALE -->
<g id="edge32" class="edge">
<title>HyperElasticity&#45;&gt;SemiImplicitALE</title>
<path fill="none" stroke="black" d="M865.06,-236.94C874.23,-216.57 889.16,-184.64 904,-158 909.04,-148.95 914.93,-139.36 920.47,-130.7"/>
<polygon fill="black" stroke="black" points="923.56,-132.37 926.07,-122.07 917.69,-128.56 923.56,-132.37"/>
</g>
<!-- SemiImplicitIFEM -->
<g id="node21" class="node">
<title>SemiImplicitIFEM</title>
<path fill="#5d8aa8" stroke="#5d8aa8" d="M908,-43C908,-43 802,-43 802,-43 796,-43 790,-37 790,-31 790,-31 790,-12 790,-12 790,-6 796,0 802,0 802,0 908,0 908,0 914,0 920,-6 920,-12 920,-12 920,-31 920,-31 920,-37 914,-43 908,-43"/>
<text text-anchor="middle" x="855" y="-17.8" font-family="Times,serif" font-size="14.00">SemiImplicitIFEM</text>
</g>
<!-- HyperElasticity&#45;&gt;SemiImplicitIFEM -->
<g id="edge33" class="edge">
<title>HyperElasticity&#45;&gt;SemiImplicitIFEM</title>
<path fill="none" stroke="black" d="M855.91,-236.65C855.73,-195.19 855.34,-102.22 855.13,-53.55"/>
<polygon fill="black" stroke="black" points="858.63,-53.29 855.09,-43.31 851.63,-53.32 858.63,-53.29"/>
</g>
<!-- cfd -->
<g id="node9" class="node">
<title>cfd</title>
<text text-anchor="middle" x="158" y="-183.3" font-family="Times,serif" font-size="14.00">Compututational</text>
<text text-anchor="middle" x="158" y="-168.3" font-family="Times,serif" font-size="14.00">Fluid Dynamics</text>
</g>
<!-- cfd&#45;&gt;Stokes -->
<g id="edge18" class="edge">
<title>cfd&#45;&gt;Stokes</title>
<path fill="none" stroke="black" d="M223.04,-179.5C225.64,-179.5 228.24,-179.5 230.84,-179.5"/>
<polygon fill="black" stroke="black" points="230.86,-183 240.86,-179.5 230.86,-176 230.86,-183"/>
</g>
<!-- Stokes&#45;&gt;QuasiStaticStokes -->
<g id="edge19" class="edge">
<title>Stokes&#45;&gt;QuasiStaticStokes</title>
<path fill="none" stroke="black" d="M371.04,-179.5C373.64,-179.5 376.24,-179.5 378.84,-179.5"/>
<polygon fill="black" stroke="black" points="378.86,-183 388.86,-179.5 378.86,-176 378.86,-183"/>
</g>
<!-- QuasiStaticStokes&#45;&gt;DynamicStokes -->
<g id="edge20" class="edge">
<title>QuasiStaticStokes&#45;&gt;DynamicStokes</title>
<path fill="none" stroke="black" d="M519.24,-179.5C559.72,-179.5 600.19,-179.5 640.66,-179.5"/>
<polygon fill="black" stroke="black" points="640.67,-183 650.67,-179.5 640.67,-176 640.67,-183"/>
</g>
<!-- QuasiStaticStokes&#45;&gt;QuasiStaticLinearFSI -->
<g id="edge4" class="edge">
<title>QuasiStaticStokes&#45;&gt;QuasiStaticLinearFSI</title>
<path fill="none" stroke="black" d="M464.18,-157.87C468.19,-149.75 472.86,-140.28 477.22,-131.44"/>
<polygon fill="black" stroke="black" points="480.5,-132.71 481.79,-122.19 474.22,-129.61 480.5,-132.71"/>
</g>
<!-- DynamicStokes&#45;&gt;NavierStokes -->
<g id="edge21" class="edge">
<title>DynamicStokes&#45;&gt;NavierStokes</title>
<path fill="none" stroke="black" d="M781.24,-179.5C821.72,-179.5 862.19,-179.5 902.66,-179.5"/>
<polygon fill="black" stroke="black" points="902.67,-183 912.67,-179.5 902.67,-176 902.67,-183"/>
</g>
<!-- DynamicStokes&#45;&gt;DynamicLinearFSI -->
<g id="edge8" class="edge">
<title>DynamicStokes&#45;&gt;DynamicLinearFSI</title>
<path fill="none" stroke="black" d="M716,-157.87C716,-150.01 716,-140.88 716,-132.29"/>
<polygon fill="black" stroke="black" points="719.5,-132.19 716,-122.19 712.5,-132.19 719.5,-132.19"/>
</g>
<!-- NavierStokes&#45;&gt;SemiImplicitALE -->
<g id="edge11" class="edge">
<title>NavierStokes&#45;&gt;SemiImplicitALE</title>
<path fill="none" stroke="black" d="M967.82,-157.87C963.81,-149.75 959.14,-140.28 954.78,-131.44"/>
<polygon fill="black" stroke="black" points="957.78,-129.61 950.21,-122.19 951.5,-132.71 957.78,-129.61"/>
</g>
<!-- fsi -->
<g id="node14" class="node">
<title>fsi</title>
<text text-anchor="middle" x="344" y="-104.3" font-family="Times,serif" font-size="14.00">Matching Fluid</text>
<text text-anchor="middle" x="344" y="-89.3" font-family="Times,serif" font-size="14.00">Structure Interaction</text>
</g>
<!-- fsi&#45;&gt;QuasiStaticLinearFSI -->
<g id="edge22" class="edge">
<title>fsi&#45;&gt;QuasiStaticLinearFSI</title>
<path fill="none" stroke="black" d="M409.04,-100.5C411.64,-100.5 414.24,-100.5 416.84,-100.5"/>
<polygon fill="black" stroke="black" points="416.86,-104 426.86,-100.5 416.86,-97 416.86,-104"/>
</g>
<!-- QuasiStaticLinearFSI&#45;&gt;DynamicLinearFSI -->
<g id="edge23" class="edge">
<title>QuasiStaticLinearFSI&#45;&gt;DynamicLinearFSI</title>
<path fill="none" stroke="black" d="M557.19,-100.5C585,-100.5 612.81,-100.5 640.62,-100.5"/>
<polygon fill="black" stroke="black" points="640.86,-104 650.86,-100.5 640.86,-97 640.86,-104"/>
</g>
<!-- QuasiStaticLinearFSI&#45;&gt;QuasiStaticLinearIFEM -->
<!-- DynamicLinearFSI&#45;&gt;SemiImplicitALE -->
<g id="edge24" class="edge">
<title>DynamicLinearFSI&#45;&gt;SemiImplicitALE</title>
<path fill="none" stroke="black" d="M781.19,-100.5C809,-100.5 836.81,-100.5 864.62,-100.5"/>
<polygon fill="black" stroke="black" points="864.86,-104 874.86,-100.5 864.86,-97 864.86,-104"/>
</g>
<!-- DynamicLinearFSI&#45;&gt;DynamicLinearIFEM -->
<!-- SemiImplicitALE&#45;&gt;SemiImplicitIFEM -->
<!-- nmfsi -->
<g id="node18" class="node">
<title>nmfsi</title>
<text text-anchor="middle" x="411" y="-25.3" font-family="Times,serif" font-size="14.00">Non&#45;matching Fluid</text>
<text text-anchor="middle" x="411" y="-10.3" font-family="Times,serif" font-size="14.00">Structure Interaction</text>
</g>
<!-- nmfsi&#45;&gt;QuasiStaticLinearIFEM -->
<g id="edge25" class="edge">
<title>nmfsi&#45;&gt;QuasiStaticLinearIFEM</title>
<path fill="none" stroke="black" d="M476.04,-21.5C478.64,-21.5 481.24,-21.5 483.84,-21.5"/>
<polygon fill="black" stroke="black" points="483.86,-25 493.86,-21.5 483.86,-18 483.86,-25"/>
</g>
<!-- QuasiStaticLinearIFEM&#45;&gt;DynamicLinearIFEM -->
<g id="edge26" class="edge">
<title>QuasiStaticLinearIFEM&#45;&gt;DynamicLinearIFEM</title>
<path fill="none" stroke="black" d="M624.04,-21.5C626.64,-21.5 629.24,-21.5 631.84,-21.5"/>
<polygon fill="black" stroke="black" points="631.86,-25 641.86,-21.5 631.86,-18 631.86,-25"/>
</g>
<!-- DynamicLinearIFEM&#45;&gt;SemiImplicitIFEM -->
<g id="edge27" class="edge">
<title>DynamicLinearIFEM&#45;&gt;SemiImplicitIFEM</title>
<path fill="none" stroke="black" d="M772.04,-21.5C774.64,-21.5 777.24,-21.5 779.84,-21.5"/>
<polygon fill="black" stroke="black" points="779.86,-25 789.86,-21.5 779.86,-18 779.86,-25"/>
</g>
<!-- FictitiousDomain -->
<g id="node23" class="node">
<title>FictitiousDomain</title>
<path fill="#5d8aa8" stroke="#5d8aa8" d="M266,-43C266,-43 160,-43 160,-43 154,-43 148,-37 148,-31 148,-31 148,-12 148,-12 148,-6 154,0 160,0 160,0 266,0 266,0 272,0 278,-6 278,-12 278,-12 278,-31 278,-31 278,-37 272,-43 266,-43"/>
<text text-anchor="middle" x="213" y="-17.8" font-family="Times,serif" font-size="14.00">FictitiousDomain</text>
</g>
<!-- ImmersedInteface&#45;&gt;FictitiousDomain -->
<g id="edge35" class="edge">
<title>ImmersedInteface&#45;&gt;FictitiousDomain</title>
<path fill="none" stroke="black" d="M130.04,-21.5C132.64,-21.5 135.24,-21.5 137.84,-21.5"/>
<polygon fill="black" stroke="black" points="137.86,-25 147.86,-21.5 137.86,-18 137.86,-25"/>
</g>
</g>
</svg>
