<?xml version="1.0" encoding="UTF-8" standalone="no"?>
<!DOCTYPE svg PUBLIC "-//W3C//DTD SVG 1.1//EN"
 "http://www.w3.org/Graphics/SVG/1.1/DTD/svg11.dtd">
<!-- Generated by graphviz version 2.43.0 (0)
 -->
<!-- Title: source/pdes/linear_elasticity.cc Pages: 1 -->
<svg width="5789pt" height="296pt"
 viewBox="0.00 0.00 5788.50 296.00" xmlns="http://www.w3.org/2000/svg" xmlns:xlink="http://www.w3.org/1999/xlink">
<g id="graph0" class="graph" transform="scale(1 1) rotate(0) translate(4 292)">
<title>source/pdes/linear_elasticity.cc</title>
<!-- Node1 -->
<g id="node1" class="node">
<title>Node1</title>
<g id="a_node1"><a xlink:title=" ">
<polygon fill="#bfbfbf" stroke="black" points="3593,-257.5 3593,-287.5 3699,-287.5 3699,-257.5 3593,-257.5"/>
<text text-anchor="start" x="3601" y="-275.5" font-family="Helvetica,sans-Serif" font-size="10.00">source/pdes/linear</text>
<text text-anchor="middle" x="3646" y="-264.5" font-family="Helvetica,sans-Serif" font-size="10.00">_elasticity.cc</text>
</a>
</g>
</g>
<!-- Node2 -->
<g id="node2" class="node">
<title>Node2</title>
<g id="a_node2"><a xlink:href="linear__elasticity_8h.html" target="_top" xlink:title=" ">
<polygon fill="none" stroke="black" points="2199,-196 2199,-215 2327,-215 2327,-196 2199,-196"/>
<text text-anchor="middle" x="2263" y="-203" font-family="Helvetica,sans-Serif" font-size="10.00">pdes/linear_elasticity.h</text>
</a>
</g>
</g>
<!-- Node1&#45;&gt;Node2 -->
<g id="edge1" class="edge">
<title>Node1&#45;&gt;Node2</title>
<path fill="none" stroke="midnightblue" d="M3592.63,-268.99C3379.02,-258.95 2585.24,-221.65 2337.41,-210"/>
<polygon fill="midnightblue" stroke="midnightblue" points="2337.23,-206.48 2327.08,-209.51 2336.9,-213.48 2337.23,-206.48"/>
</g>
<!-- Node87 -->
<g id="node41" class="node">
<title>Node87</title>
<g id="a_node41"><a xlink:href="http://www.dealii.org/developer/doxygen/deal.II/mesh__loop_8h.html.html" xlink:title=" ">
<polygon fill="none" stroke="black" points="3674,-190.5 3674,-220.5 3784,-220.5 3784,-190.5 3674,-190.5"/>
<text text-anchor="start" x="3682" y="-208.5" font-family="Helvetica,sans-Serif" font-size="10.00">deal.II/meshworker</text>
<text text-anchor="middle" x="3729" y="-197.5" font-family="Helvetica,sans-Serif" font-size="10.00">/mesh_loop.h</text>
</a>
</g>
</g>
<!-- Node1&#45;&gt;Node87 -->
<g id="edge42" class="edge">
<title>Node1&#45;&gt;Node87</title>
<path fill="none" stroke="midnightblue" d="M3664.01,-257.4C3675.43,-248.45 3690.39,-236.74 3703.08,-226.8"/>
<polygon fill="midnightblue" stroke="midnightblue" points="3705.31,-229.5 3711.03,-220.58 3700.99,-223.99 3705.31,-229.5"/>
</g>
<!-- Node59 -->
<g id="node42" class="node">
<title>Node59</title>
<g id="a_node42"><a xlink:href="components_8h.html" target="_top" xlink:title=" ">
<polygon fill="none" stroke="black" points="4867.5,-134.5 4867.5,-153.5 5018.5,-153.5 5018.5,-134.5 4867.5,-134.5"/>
<text text-anchor="middle" x="4943" y="-141.5" font-family="Helvetica,sans-Serif" font-size="10.00">parsed_tools/components.h</text>
</a>
</g>
</g>
<!-- Node1&#45;&gt;Node59 -->
<g id="edge43" class="edge">
<title>Node1&#45;&gt;Node59</title>
<path fill="none" stroke="midnightblue" d="M3644.62,-257.36C3643.68,-238.68 3645.25,-206.25 3665,-190 3710.99,-152.16 4577.93,-146.14 4857.14,-145.18"/>
<polygon fill="midnightblue" stroke="midnightblue" points="4857.23,-148.68 4867.22,-145.15 4857.21,-141.68 4857.23,-148.68"/>
</g>
<!-- Node3 -->
<g id="node3" class="node">
<title>Node3</title>
<g id="a_node3"><a xlink:href="constants_8h.html" target="_top" xlink:title=" ">
<polygon fill="none" stroke="black" points="0,-73 0,-92 138,-92 138,-73 0,-73"/>
<text text-anchor="middle" x="69" y="-80" font-family="Helvetica,sans-Serif" font-size="10.00">parsed_tools/constants.h</text>
</a>
</g>
</g>
<!-- Node2&#45;&gt;Node3 -->
<g id="edge2" class="edge">
<title>Node2&#45;&gt;Node3</title>
<path fill="none" stroke="midnightblue" d="M2198.57,-204.56C1939.68,-204.11 950.3,-195.71 144,-98 135.48,-96.97 126.48,-95.53 117.78,-93.96"/>
<polygon fill="midnightblue" stroke="midnightblue" points="118.24,-90.48 107.76,-92.07 116.94,-97.36 118.24,-90.48"/>
</g>
<!-- Node6 -->
<g id="node6" class="node">
<title>Node6</title>
<g id="a_node6"><a xlink:href="linear__problem_8h.html" target="_top" xlink:title=" ">
<polygon fill="none" stroke="red" points="2200.5,-134.5 2200.5,-153.5 2325.5,-153.5 2325.5,-134.5 2200.5,-134.5"/>
<text text-anchor="middle" x="2263" y="-141.5" font-family="Helvetica,sans-Serif" font-size="10.00">pdes/linear_problem.h</text>
</a>
</g>
</g>
<!-- Node2&#45;&gt;Node6 -->
<g id="edge5" class="edge">
<title>Node2&#45;&gt;Node6</title>
<path fill="none" stroke="midnightblue" d="M2263,-195.98C2263,-187.58 2263,-174.48 2263,-163.66"/>
<polygon fill="midnightblue" stroke="midnightblue" points="2266.5,-163.51 2263,-153.51 2259.5,-163.51 2266.5,-163.51"/>
</g>
<!-- Node4 -->
<g id="node4" class="node">
<title>Node4</title>
<g id="a_node4"><a xlink:href="http://www.dealii.org/developer/doxygen/deal.II/parameter__acceptor_8h.html.html" xlink:title=" ">
<polygon fill="none" stroke="black" points="53.5,-0.5 53.5,-30.5 180.5,-30.5 180.5,-0.5 53.5,-0.5"/>
<text text-anchor="start" x="61.5" y="-18.5" font-family="Helvetica,sans-Serif" font-size="10.00">deal.II/base/parameter</text>
<text text-anchor="middle" x="117" y="-7.5" font-family="Helvetica,sans-Serif" font-size="10.00">_acceptor.h</text>
</a>
</g>
</g>
<!-- Node3&#45;&gt;Node4 -->
<g id="edge3" class="edge">
<title>Node3&#45;&gt;Node4</title>
<path fill="none" stroke="midnightblue" d="M75.47,-72.73C81.9,-64.03 92.01,-50.34 100.64,-38.65"/>
<polygon fill="midnightblue" stroke="midnightblue" points="103.47,-40.71 106.6,-30.59 97.84,-36.55 103.47,-40.71"/>
</g>
<!-- Node5 -->
<g id="node5" class="node">
<title>Node5</title>
<g id="a_node5"><a xlink:href="http://www.dealii.org/developer/doxygen/deal.II/sd_8h.html.html" xlink:title=" ">
<polygon fill="none" stroke="black" points="2641.5,-6 2641.5,-25 2784.5,-25 2784.5,-6 2641.5,-6"/>
<text text-anchor="middle" x="2713" y="-13" font-family="Helvetica,sans-Serif" font-size="10.00">deal.II/differentiation/sd.h</text>
</a>
</g>
</g>
<!-- Node3&#45;&gt;Node5 -->
<g id="edge4" class="edge">
<title>Node3&#45;&gt;Node5</title>
<path fill="none" stroke="midnightblue" d="M127.6,-72.97C145.94,-70.62 166.28,-68.35 185,-67 677.05,-31.43 2253.8,-19.39 2631.25,-16.98"/>
<polygon fill="midnightblue" stroke="midnightblue" points="2631.29,-20.48 2641.27,-16.92 2631.25,-13.48 2631.29,-20.48"/>
</g>
<!-- Node6&#45;&gt;Node3 -->
<g id="edge41" class="edge">
<title>Node6&#45;&gt;Node3</title>
<path fill="none" stroke="midnightblue" d="M2200.5,-142.23C1872.79,-138.14 360.02,-118.27 152,-98 141.85,-97.01 131.06,-95.48 120.75,-93.79"/>
<polygon fill="midnightblue" stroke="midnightblue" points="121.08,-90.29 110.63,-92.04 119.89,-97.19 121.08,-90.29"/>
</g>
<!-- Node6&#45;&gt;Node4 -->
<g id="edge10" class="edge">
<title>Node6&#45;&gt;Node4</title>
<path fill="none" stroke="midnightblue" d="M2200.36,-142.35C1858.49,-138.74 231.55,-120.4 185,-98 159.6,-85.78 140.28,-59.06 128.83,-39.54"/>
<polygon fill="midnightblue" stroke="midnightblue" points="131.79,-37.65 123.86,-30.63 125.68,-41.06 131.79,-37.65"/>
</g>
<!-- Node7 -->
<g id="node7" class="node">
<title>Node7</title>
<g id="a_node7"><a xlink:href="http://www.dealii.org/developer/doxygen/deal.II/conditional__ostream_8h.html.html" xlink:title=" ">
<polygon fill="none" stroke="black" points="1186,-67.5 1186,-97.5 1316,-97.5 1316,-67.5 1186,-67.5"/>
<text text-anchor="start" x="1194" y="-85.5" font-family="Helvetica,sans-Serif" font-size="10.00">deal.II/base/conditional</text>
<text text-anchor="middle" x="1251" y="-74.5" font-family="Helvetica,sans-Serif" font-size="10.00">_ostream.h</text>
</a>
</g>
</g>
<!-- Node6&#45;&gt;Node7 -->
<g id="edge6" class="edge">
<title>Node6&#45;&gt;Node7</title>
<path fill="none" stroke="midnightblue" d="M2200.44,-143.14C2050.94,-142.78 1661.05,-137.88 1326.66,-98.08"/>
<polygon fill="midnightblue" stroke="midnightblue" points="1326.63,-94.55 1316.29,-96.83 1325.8,-101.5 1326.63,-94.55"/>
</g>
<!-- Node8 -->
<g id="node8" class="node">
<title>Node8</title>
<g id="a_node8"><a xlink:href="http://www.dealii.org/developer/doxygen/deal.II/convergence__table_8h.html.html" xlink:title=" ">
<polygon fill="none" stroke="black" points="1334,-67.5 1334,-97.5 1472,-97.5 1472,-67.5 1334,-67.5"/>
<text text-anchor="start" x="1342" y="-85.5" font-family="Helvetica,sans-Serif" font-size="10.00">deal.II/base/convergence</text>
<text text-anchor="middle" x="1403" y="-74.5" font-family="Helvetica,sans-Serif" font-size="10.00">_table.h</text>
</a>
</g>
</g>
<!-- Node6&#45;&gt;Node8 -->
<g id="edge7" class="edge">
<title>Node6&#45;&gt;Node8</title>
<path fill="none" stroke="midnightblue" d="M2200.42,-142.08C2069.1,-139.56 1755.08,-130.51 1482.34,-98.06"/>
<polygon fill="midnightblue" stroke="midnightblue" points="1482.6,-94.56 1472.25,-96.84 1481.76,-101.51 1482.6,-94.56"/>
</g>
<!-- Node9 -->
<g id="node9" class="node">
<title>Node9</title>
<g id="a_node9"><a xlink:href="http://www.dealii.org/developer/doxygen/deal.II/function_8h.html.html" xlink:title=" ">
<polygon fill="none" stroke="black" points="1490.5,-73 1490.5,-92 1615.5,-92 1615.5,-73 1490.5,-73"/>
<text text-anchor="middle" x="1553" y="-80" font-family="Helvetica,sans-Serif" font-size="10.00">deal.II/base/function.h</text>
</a>
</g>
</g>
<!-- Node6&#45;&gt;Node9 -->
<g id="edge8" class="edge">
<title>Node6&#45;&gt;Node9</title>
<path fill="none" stroke="midnightblue" d="M2200.24,-141.24C2085.55,-137.44 1834.62,-126.38 1625,-98 1617.09,-96.93 1608.75,-95.52 1600.65,-93.99"/>
<polygon fill="midnightblue" stroke="midnightblue" points="1601.07,-90.51 1590.59,-92.02 1599.73,-97.38 1601.07,-90.51"/>
</g>
<!-- Node10 -->
<g id="node10" class="node">
<title>Node10</title>
<g id="a_node10"><a xlink:href="http://www.dealii.org/developer/doxygen/deal.II/function__parser_8h.html.html" xlink:title=" ">
<polygon fill="none" stroke="black" points="1634,-67.5 1634,-97.5 1750,-97.5 1750,-67.5 1634,-67.5"/>
<text text-anchor="start" x="1642" y="-85.5" font-family="Helvetica,sans-Serif" font-size="10.00">deal.II/base/function</text>
<text text-anchor="middle" x="1692" y="-74.5" font-family="Helvetica,sans-Serif" font-size="10.00">_parser.h</text>
</a>
</g>
</g>
<!-- Node6&#45;&gt;Node10 -->
<g id="edge9" class="edge">
<title>Node6&#45;&gt;Node10</title>
<path fill="none" stroke="midnightblue" d="M2200.24,-139.9C2106.56,-134.73 1924.51,-122.55 1760.31,-98.07"/>
<polygon fill="midnightblue" stroke="midnightblue" points="1760.43,-94.55 1750.02,-96.52 1759.39,-101.47 1760.43,-94.55"/>
</g>
<!-- Node11 -->
<g id="node11" class="node">
<title>Node11</title>
<g id="a_node11"><a xlink:href="http://www.dealii.org/developer/doxygen/deal.II/quadrature__lib_8h.html.html" xlink:title=" ">
<polygon fill="none" stroke="black" points="4304.5,-67.5 4304.5,-97.5 4433.5,-97.5 4433.5,-67.5 4304.5,-67.5"/>
<text text-anchor="start" x="4312.5" y="-85.5" font-family="Helvetica,sans-Serif" font-size="10.00">deal.II/base/quadrature</text>
<text text-anchor="middle" x="4369" y="-74.5" font-family="Helvetica,sans-Serif" font-size="10.00">_lib.h</text>
</a>
</g>
</g>
<!-- Node6&#45;&gt;Node11 -->
<g id="edge11" class="edge">
<title>Node6&#45;&gt;Node11</title>
<path fill="none" stroke="midnightblue" d="M2325.81,-143.06C2621.69,-143.12 3878.97,-140.85 4294.17,-97.92"/>
<polygon fill="midnightblue" stroke="midnightblue" points="4294.55,-101.4 4304.12,-96.86 4293.81,-94.44 4294.55,-101.4"/>
</g>
<!-- Node12 -->
<g id="node12" class="node">
<title>Node12</title>
<g id="a_node12"><a xlink:href="http://www.dealii.org/developer/doxygen/deal.II/timer_8h.html.html" xlink:title=" ">
<polygon fill="none" stroke="black" points="1768.5,-73 1768.5,-92 1879.5,-92 1879.5,-73 1768.5,-73"/>
<text text-anchor="middle" x="1824" y="-80" font-family="Helvetica,sans-Serif" font-size="10.00">deal.II/base/timer.h</text>
</a>
</g>
</g>
<!-- Node6&#45;&gt;Node12 -->
<g id="edge12" class="edge">
<title>Node6&#45;&gt;Node12</title>
<path fill="none" stroke="midnightblue" d="M2200.34,-137.48C2125.65,-130.44 1997.2,-116.87 1888,-98 1881.74,-96.92 1875.17,-95.62 1868.72,-94.25"/>
<polygon fill="midnightblue" stroke="midnightblue" points="1869.26,-90.79 1858.75,-92.06 1867.76,-97.62 1869.26,-90.79"/>
</g>
<!-- Node13 -->
<g id="node13" class="node">
<title>Node13</title>
<g id="a_node13"><a xlink:href="http://www.dealii.org/developer/doxygen/deal.II/distributed_2grid__refinement_8h.html.html" xlink:title=" ">
<polygon fill="none" stroke="black" points="1897.5,-67.5 1897.5,-97.5 2004.5,-97.5 2004.5,-67.5 1897.5,-67.5"/>
<text text-anchor="start" x="1905.5" y="-85.5" font-family="Helvetica,sans-Serif" font-size="10.00">deal.II/distributed</text>
<text text-anchor="middle" x="1951" y="-74.5" font-family="Helvetica,sans-Serif" font-size="10.00">/grid_refinement.h</text>
</a>
</g>
</g>
<!-- Node6&#45;&gt;Node13 -->
<g id="edge13" class="edge">
<title>Node6&#45;&gt;Node13</title>
<path fill="none" stroke="midnightblue" d="M2211.84,-134.48C2163.57,-126.29 2088.96,-113.19 2014.59,-98.06"/>
<polygon fill="midnightblue" stroke="midnightblue" points="2015.08,-94.59 2004.58,-96.01 2013.67,-101.45 2015.08,-94.59"/>
</g>
<!-- Node14 -->
<g id="node14" class="node">
<title>Node14</title>
<g id="a_node14"><a xlink:href="http://www.dealii.org/developer/doxygen/deal.II/shared__tria_8h.html.html" xlink:title=" ">
<polygon fill="none" stroke="black" points="2023,-67.5 2023,-97.5 2125,-97.5 2125,-67.5 2023,-67.5"/>
<text text-anchor="start" x="2031" y="-85.5" font-family="Helvetica,sans-Serif" font-size="10.00">deal.II/distributed</text>
<text text-anchor="middle" x="2074" y="-74.5" font-family="Helvetica,sans-Serif" font-size="10.00">/shared_tria.h</text>
</a>
</g>
</g>
<!-- Node6&#45;&gt;Node14 -->
<g id="edge14" class="edge">
<title>Node6&#45;&gt;Node14</title>
<path fill="none" stroke="midnightblue" d="M2235.92,-134.48C2207.93,-125.66 2163.48,-111.67 2128.22,-100.57"/>
<polygon fill="midnightblue" stroke="midnightblue" points="2129.13,-97.19 2118.54,-97.52 2127.03,-103.86 2129.13,-97.19"/>
</g>
<!-- Node15 -->
<g id="node15" class="node">
<title>Node15</title>
<g id="a_node15"><a xlink:href="http://www.dealii.org/developer/doxygen/deal.II/distributed_2tria_8h.html.html" xlink:title=" ">
<polygon fill="none" stroke="black" points="2143,-67.5 2143,-97.5 2245,-97.5 2245,-67.5 2143,-67.5"/>
<text text-anchor="start" x="2151" y="-85.5" font-family="Helvetica,sans-Serif" font-size="10.00">deal.II/distributed</text>
<text text-anchor="middle" x="2194" y="-74.5" font-family="Helvetica,sans-Serif" font-size="10.00">/tria.h</text>
</a>
</g>
</g>
<!-- Node6&#45;&gt;Node15 -->
<g id="edge15" class="edge">
<title>Node6&#45;&gt;Node15</title>
<path fill="none" stroke="midnightblue" d="M2253.11,-134.48C2243.94,-126.57 2229.93,-114.48 2217.85,-104.07"/>
<polygon fill="midnightblue" stroke="midnightblue" points="2220.12,-101.4 2210.26,-97.52 2215.55,-106.7 2220.12,-101.4"/>
</g>
<!-- Node16 -->
<g id="node16" class="node">
<title>Node16</title>
<g id="a_node16"><a xlink:href="http://www.dealii.org/developer/doxygen/deal.II/dof__handler_8h.html.html" xlink:title=" ">
<polygon fill="none" stroke="red" points="2263,-73 2263,-92 2403,-92 2403,-73 2263,-73"/>
<text text-anchor="middle" x="2333" y="-80" font-family="Helvetica,sans-Serif" font-size="10.00">deal.II/dofs/dof_handler.h</text>
</a>
</g>
</g>
<!-- Node6&#45;&gt;Node16 -->
<g id="edge16" class="edge">
<title>Node6&#45;&gt;Node16</title>
<path fill="none" stroke="midnightblue" d="M2273.03,-134.48C2284.05,-125.11 2301.96,-109.88 2315.34,-98.51"/>
<polygon fill="midnightblue" stroke="midnightblue" points="2317.64,-101.15 2322.99,-92.01 2313.1,-95.82 2317.64,-101.15"/>
</g>
<!-- Node18 -->
<g id="node17" class="node">
<title>Node18</title>
<g id="a_node17"><a xlink:href="http://www.dealii.org/developer/doxygen/deal.II/dof__tools_8h.html.html" xlink:title=" ">
<polygon fill="none" stroke="black" points="2421,-73 2421,-92 2549,-92 2549,-73 2421,-73"/>
<text text-anchor="middle" x="2485" y="-80" font-family="Helvetica,sans-Serif" font-size="10.00">deal.II/dofs/dof_tools.h</text>
</a>
</g>
</g>
<!-- Node6&#45;&gt;Node18 -->
<g id="edge17" class="edge">
<title>Node6&#45;&gt;Node18</title>
<path fill="none" stroke="midnightblue" d="M2294.81,-134.48C2333.88,-124 2400.26,-106.21 2443.36,-94.66"/>
<polygon fill="midnightblue" stroke="midnightblue" points="2444.5,-97.98 2453.25,-92.01 2442.69,-91.22 2444.5,-97.98"/>
</g>
<!-- Node19 -->
<g id="node18" class="node">
<title>Node19</title>
<g id="a_node18"><a xlink:href="http://www.dealii.org/developer/doxygen/deal.II/fe__q_8h.html.html" xlink:title=" ">
<polygon fill="none" stroke="black" points="4452,-73 4452,-92 4544,-92 4544,-73 4452,-73"/>
<text text-anchor="middle" x="4498" y="-80" font-family="Helvetica,sans-Serif" font-size="10.00">deal.II/fe/fe_q.h</text>
</a>
</g>
</g>
<!-- Node6&#45;&gt;Node19 -->
<g id="edge18" class="edge">
<title>Node6&#45;&gt;Node19</title>
<path fill="none" stroke="midnightblue" d="M2325.65,-142.59C2660.19,-140.3 4228.84,-128.01 4443,-98 4448.89,-97.17 4455.05,-95.94 4461.03,-94.52"/>
<polygon fill="midnightblue" stroke="midnightblue" points="4462.02,-97.88 4470.84,-92.02 4460.29,-91.1 4462.02,-97.88"/>
</g>
<!-- Node20 -->
<g id="node19" class="node">
<title>Node20</title>
<g id="a_node19"><a xlink:href="http://www.dealii.org/developer/doxygen/deal.II/fe_2fe__values_8h.html.html" xlink:title=" ">
<polygon fill="none" stroke="black" points="2567.5,-73 2567.5,-92 2686.5,-92 2686.5,-73 2567.5,-73"/>
<text text-anchor="middle" x="2627" y="-80" font-family="Helvetica,sans-Serif" font-size="10.00">deal.II/fe/fe_values.h</text>
</a>
</g>
</g>
<!-- Node6&#45;&gt;Node20 -->
<g id="edge19" class="edge">
<title>Node6&#45;&gt;Node20</title>
<path fill="none" stroke="midnightblue" d="M2325.61,-134.48C2385.44,-126.1 2478.09,-112.48 2558,-98 2564.64,-96.8 2571.61,-95.44 2578.47,-94.05"/>
<polygon fill="midnightblue" stroke="midnightblue" points="2579.3,-97.46 2588.39,-92.01 2577.89,-90.6 2579.3,-97.46"/>
</g>
<!-- Node21 -->
<g id="node20" class="node">
<title>Node21</title>
<g id="a_node20"><a xlink:href="http://www.dealii.org/developer/doxygen/deal.II/fe__values__extractors_8h.html.html" xlink:title=" ">
<polygon fill="none" stroke="black" points="2705,-67.5 2705,-97.5 2815,-97.5 2815,-67.5 2705,-67.5"/>
<text text-anchor="start" x="2713" y="-85.5" font-family="Helvetica,sans-Serif" font-size="10.00">deal.II/fe/fe_values</text>
<text text-anchor="middle" x="2760" y="-74.5" font-family="Helvetica,sans-Serif" font-size="10.00">_extractors.h</text>
</a>
</g>
</g>
<!-- Node6&#45;&gt;Node21 -->
<g id="edge20" class="edge">
<title>Node6&#45;&gt;Node21</title>
<path fill="none" stroke="midnightblue" d="M2325.54,-138.77C2407.85,-132.69 2557.18,-119.91 2694.87,-97.88"/>
<polygon fill="midnightblue" stroke="midnightblue" points="2695.45,-101.33 2704.77,-96.28 2694.34,-94.42 2695.45,-101.33"/>
</g>
<!-- Node22 -->
<g id="node21" class="node">
<title>Node22</title>
<g id="a_node21"><a xlink:href="http://www.dealii.org/developer/doxygen/deal.II/mapping__q__generic_8h.html.html" xlink:title=" ">
<polygon fill="none" stroke="black" points="2833.5,-67.5 2833.5,-97.5 2938.5,-97.5 2938.5,-67.5 2833.5,-67.5"/>
<text text-anchor="start" x="2841.5" y="-85.5" font-family="Helvetica,sans-Serif" font-size="10.00">deal.II/fe/mapping</text>
<text text-anchor="middle" x="2886" y="-74.5" font-family="Helvetica,sans-Serif" font-size="10.00">_q_generic.h</text>
</a>
</g>
</g>
<!-- Node6&#45;&gt;Node22 -->
<g id="edge21" class="edge">
<title>Node6&#45;&gt;Node22</title>
<path fill="none" stroke="midnightblue" d="M2325.62,-141.04C2427.83,-137.16 2636.92,-126.42 2823.36,-97.93"/>
<polygon fill="midnightblue" stroke="midnightblue" points="2823.99,-101.37 2833.34,-96.38 2822.92,-94.45 2823.99,-101.37"/>
</g>
<!-- Node23 -->
<g id="node22" class="node">
<title>Node23</title>
<g id="a_node22"><a xlink:href="http://www.dealii.org/developer/doxygen/deal.II/grid__generator_8h.html.html" xlink:title=" ">
<polygon fill="none" stroke="red" points="2957,-73 2957,-92 3109,-92 3109,-73 2957,-73"/>
<text text-anchor="middle" x="3033" y="-80" font-family="Helvetica,sans-Serif" font-size="10.00">deal.II/grid/grid_generator.h</text>
</a>
</g>
</g>
<!-- Node6&#45;&gt;Node23 -->
<g id="edge22" class="edge">
<title>Node6&#45;&gt;Node23</title>
<path fill="none" stroke="midnightblue" d="M2325.91,-140.99C2446.66,-136.67 2719.17,-124.63 2947,-98 2956.93,-96.84 2967.45,-95.31 2977.6,-93.69"/>
<polygon fill="midnightblue" stroke="midnightblue" points="2978.3,-97.12 2987.6,-92.04 2977.16,-90.21 2978.3,-97.12"/>
</g>
<!-- Node24 -->
<g id="node23" class="node">
<title>Node24</title>
<g id="a_node23"><a xlink:href="http://www.dealii.org/developer/doxygen/deal.II/grid_2tria_8h.html.html" xlink:title=" ">
<polygon fill="none" stroke="black" points="4562.5,-73 4562.5,-92 4659.5,-92 4659.5,-73 4562.5,-73"/>
<text text-anchor="middle" x="4611" y="-80" font-family="Helvetica,sans-Serif" font-size="10.00">deal.II/grid/tria.h</text>
</a>
</g>
</g>
<!-- Node6&#45;&gt;Node24 -->
<g id="edge23" class="edge">
<title>Node6&#45;&gt;Node24</title>
<path fill="none" stroke="midnightblue" d="M2325.67,-142.61C2670.26,-140.36 4327.15,-128.06 4553,-98 4559.35,-97.16 4566,-95.88 4572.45,-94.42"/>
<polygon fill="midnightblue" stroke="midnightblue" points="4573.44,-97.78 4582.34,-92.02 4571.79,-90.98 4573.44,-97.78"/>
</g>
<!-- Node25 -->
<g id="node24" class="node">
<title>Node25</title>
<g id="a_node24"><a xlink:href="http://www.dealii.org/developer/doxygen/deal.II/affine__constraints_8h.html.html" xlink:title=" ">
<polygon fill="none" stroke="black" points="3127.5,-67.5 3127.5,-97.5 3222.5,-97.5 3222.5,-67.5 3127.5,-67.5"/>
<text text-anchor="start" x="3135.5" y="-85.5" font-family="Helvetica,sans-Serif" font-size="10.00">deal.II/lac/affine</text>
<text text-anchor="middle" x="3175" y="-74.5" font-family="Helvetica,sans-Serif" font-size="10.00">_constraints.h</text>
</a>
</g>
</g>
<!-- Node6&#45;&gt;Node25 -->
<g id="edge24" class="edge">
<title>Node6&#45;&gt;Node25</title>
<path fill="none" stroke="midnightblue" d="M2325.78,-141.3C2492.84,-136.52 2946.51,-121.83 3117.15,-97.85"/>
<polygon fill="midnightblue" stroke="midnightblue" points="3117.86,-101.29 3127.25,-96.37 3116.84,-94.36 3117.86,-101.29"/>
</g>
<!-- Node26 -->
<g id="node25" class="node">
<title>Node26</title>
<g id="a_node25"><a xlink:href="http://www.dealii.org/developer/doxygen/deal.II/dynamic__sparsity__pattern_8h.html.html" xlink:title=" ">
<polygon fill="none" stroke="black" points="3241,-67.5 3241,-97.5 3351,-97.5 3351,-67.5 3241,-67.5"/>
<text text-anchor="start" x="3249" y="-85.5" font-family="Helvetica,sans-Serif" font-size="10.00">deal.II/lac/dynamic</text>
<text text-anchor="middle" x="3296" y="-74.5" font-family="Helvetica,sans-Serif" font-size="10.00">_sparsity_pattern.h</text>
</a>
</g>
</g>
<!-- Node6&#45;&gt;Node26 -->
<g id="edge25" class="edge">
<title>Node6&#45;&gt;Node26</title>
<path fill="none" stroke="midnightblue" d="M2325.58,-141.51C2507.65,-136.94 3035.96,-122.08 3230.67,-97.81"/>
<polygon fill="midnightblue" stroke="midnightblue" points="3231.33,-101.25 3240.8,-96.5 3230.43,-94.31 3231.33,-101.25"/>
</g>
<!-- Node27 -->
<g id="node26" class="node">
<title>Node27</title>
<g id="a_node26"><a xlink:href="http://www.dealii.org/developer/doxygen/deal.II/full__matrix_8h.html.html" xlink:title=" ">
<polygon fill="none" stroke="black" points="3369.5,-73 3369.5,-92 3498.5,-92 3498.5,-73 3369.5,-73"/>
<text text-anchor="middle" x="3434" y="-80" font-family="Helvetica,sans-Serif" font-size="10.00">deal.II/lac/full_matrix.h</text>
</a>
</g>
</g>
<!-- Node6&#45;&gt;Node27 -->
<g id="edge26" class="edge">
<title>Node6&#45;&gt;Node27</title>
<path fill="none" stroke="midnightblue" d="M2325.54,-141.69C2526.96,-137.27 3157.45,-121.86 3360,-98 3368.5,-97 3377.49,-95.56 3386.16,-93.98"/>
<polygon fill="midnightblue" stroke="midnightblue" points="3386.98,-97.39 3396.15,-92.07 3385.67,-90.51 3386.98,-97.39"/>
</g>
<!-- Node28 -->
<g id="node27" class="node">
<title>Node28</title>
<g id="a_node27"><a xlink:href="http://www.dealii.org/developer/doxygen/deal.II/generic__linear__algebra_8h.html.html" xlink:title=" ">
<polygon fill="none" stroke="black" points="3516.5,-67.5 3516.5,-97.5 3619.5,-97.5 3619.5,-67.5 3516.5,-67.5"/>
<text text-anchor="start" x="3524.5" y="-85.5" font-family="Helvetica,sans-Serif" font-size="10.00">deal.II/lac/generic</text>
<text text-anchor="middle" x="3568" y="-74.5" font-family="Helvetica,sans-Serif" font-size="10.00">_linear_algebra.h</text>
</a>
</g>
</g>
<!-- Node6&#45;&gt;Node28 -->
<g id="edge27" class="edge">
<title>Node6&#45;&gt;Node28</title>
<path fill="none" stroke="midnightblue" d="M2325.77,-142.37C2541.9,-139.93 3255.17,-129.73 3506.05,-97.88"/>
<polygon fill="midnightblue" stroke="midnightblue" points="3506.76,-101.32 3516.22,-96.54 3505.85,-94.38 3506.76,-101.32"/>
</g>
<!-- Node29 -->
<g id="node28" class="node">
<title>Node29</title>
<g id="a_node28"><a xlink:href="http://www.dealii.org/developer/doxygen/deal.II/precondition_8h.html.html" xlink:title=" ">
<polygon fill="none" stroke="black" points="3637.5,-73 3637.5,-92 3774.5,-92 3774.5,-73 3637.5,-73"/>
<text text-anchor="middle" x="3706" y="-80" font-family="Helvetica,sans-Serif" font-size="10.00">deal.II/lac/precondition.h</text>
</a>
</g>
</g>
<!-- Node6&#45;&gt;Node29 -->
<g id="edge28" class="edge">
<title>Node6&#45;&gt;Node29</title>
<path fill="none" stroke="midnightblue" d="M2325.71,-142.19C2558.17,-138.99 3370.48,-126.02 3628,-98 3637.25,-96.99 3647.05,-95.51 3656.47,-93.87"/>
<polygon fill="midnightblue" stroke="midnightblue" points="3657.28,-97.28 3666.49,-92.04 3656.03,-90.39 3657.28,-97.28"/>
</g>
<!-- Node30 -->
<g id="node29" class="node">
<title>Node30</title>
<g id="a_node29"><a xlink:href="http://www.dealii.org/developer/doxygen/deal.II/solver__cg_8h.html.html" xlink:title=" ">
<polygon fill="none" stroke="black" points="3793,-73 3793,-92 3915,-92 3915,-73 3793,-73"/>
<text text-anchor="middle" x="3854" y="-80" font-family="Helvetica,sans-Serif" font-size="10.00">deal.II/lac/solver_cg.h</text>
</a>
</g>
</g>
<!-- Node6&#45;&gt;Node30 -->
<g id="edge29" class="edge">
<title>Node6&#45;&gt;Node30</title>
<path fill="none" stroke="midnightblue" d="M2325.52,-142.61C2574.32,-140.82 3494.57,-131.99 3784,-98 3792.15,-97.04 3800.76,-95.61 3809.05,-94.02"/>
<polygon fill="midnightblue" stroke="midnightblue" points="3809.84,-97.43 3818.94,-92.01 3808.45,-90.57 3809.84,-97.43"/>
</g>
<!-- Node31 -->
<g id="node30" class="node">
<title>Node31</title>
<g id="a_node30"><a xlink:href="http://www.dealii.org/developer/doxygen/deal.II/sparse__matrix_8h.html.html" xlink:title=" ">
<polygon fill="none" stroke="black" points="3933.5,-67.5 3933.5,-97.5 4032.5,-97.5 4032.5,-67.5 3933.5,-67.5"/>
<text text-anchor="start" x="3941.5" y="-85.5" font-family="Helvetica,sans-Serif" font-size="10.00">deal.II/lac/sparse</text>
<text text-anchor="middle" x="3983" y="-74.5" font-family="Helvetica,sans-Serif" font-size="10.00">_matrix.h</text>
</a>
</g>
</g>
<!-- Node6&#45;&gt;Node31 -->
<g id="edge30" class="edge">
<title>Node6&#45;&gt;Node31</title>
<path fill="none" stroke="midnightblue" d="M2325.88,-143.09C2586.77,-143.21 3585.71,-140.86 3922.98,-97.87"/>
<polygon fill="midnightblue" stroke="midnightblue" points="3923.79,-101.29 3933.25,-96.52 3922.88,-94.35 3923.79,-101.29"/>
</g>
<!-- Node32 -->
<g id="node31" class="node">
<title>Node32</title>
<g id="a_node31"><a xlink:href="http://www.dealii.org/developer/doxygen/deal.II/vector_8h.html.html" xlink:title=" ">
<polygon fill="none" stroke="black" points="4050.5,-73 4050.5,-92 4157.5,-92 4157.5,-73 4050.5,-73"/>
<text text-anchor="middle" x="4104" y="-80" font-family="Helvetica,sans-Serif" font-size="10.00">deal.II/lac/vector.h</text>
</a>
</g>
</g>
<!-- Node6&#45;&gt;Node32 -->
<g id="edge31" class="edge">
<title>Node6&#45;&gt;Node32</title>
<path fill="none" stroke="midnightblue" d="M2325.64,-143.13C2600.31,-143.45 3699.74,-141.88 4042,-98 4048.85,-97.12 4056.05,-95.81 4063.02,-94.32"/>
<polygon fill="midnightblue" stroke="midnightblue" points="4064.03,-97.69 4073,-92.06 4062.48,-90.86 4064.03,-97.69"/>
</g>
<!-- Node33 -->
<g id="node32" class="node">
<title>Node33</title>
<g id="a_node32"><a xlink:href="http://www.dealii.org/developer/doxygen/deal.II/copy__data_8h.html.html" xlink:title=" ">
<polygon fill="none" stroke="black" points="4176,-67.5 4176,-97.5 4286,-97.5 4286,-67.5 4176,-67.5"/>
<text text-anchor="start" x="4184" y="-85.5" font-family="Helvetica,sans-Serif" font-size="10.00">deal.II/meshworker</text>
<text text-anchor="middle" x="4231" y="-74.5" font-family="Helvetica,sans-Serif" font-size="10.00">/copy_data.h</text>
</a>
</g>
</g>
<!-- Node6&#45;&gt;Node33 -->
<g id="edge32" class="edge">
<title>Node6&#45;&gt;Node33</title>
<path fill="none" stroke="midnightblue" d="M2325.66,-143.2C2609.57,-143.83 3777.87,-143.62 4165.83,-97.93"/>
<polygon fill="midnightblue" stroke="midnightblue" points="4166.46,-101.38 4175.96,-96.7 4165.62,-94.43 4166.46,-101.38"/>
</g>
<!-- Node34 -->
<g id="node33" class="node">
<title>Node34</title>
<g id="a_node33"><a xlink:href="http://www.dealii.org/developer/doxygen/deal.II/scratch__data_8h.html.html" xlink:title=" ">
<polygon fill="none" stroke="black" points="194,-67.5 194,-97.5 304,-97.5 304,-67.5 194,-67.5"/>
<text text-anchor="start" x="202" y="-85.5" font-family="Helvetica,sans-Serif" font-size="10.00">deal.II/meshworker</text>
<text text-anchor="middle" x="249" y="-74.5" font-family="Helvetica,sans-Serif" font-size="10.00">/scratch_data.h</text>
</a>
</g>
</g>
<!-- Node6&#45;&gt;Node34 -->
<g id="edge33" class="edge">
<title>Node6&#45;&gt;Node34</title>
<path fill="none" stroke="midnightblue" d="M2200.43,-142.3C1892.79,-138.76 546.62,-122.09 314.25,-97.86"/>
<polygon fill="midnightblue" stroke="midnightblue" points="314.37,-94.35 304.03,-96.7 313.58,-101.31 314.37,-94.35"/>
</g>
<!-- Node35 -->
<g id="node34" class="node">
<title>Node35</title>
<g id="a_node34"><a xlink:href="http://www.dealii.org/developer/doxygen/deal.II/numerics_2data__out_8h.html.html" xlink:title=" ">
<polygon fill="none" stroke="black" points="322.5,-67.5 322.5,-97.5 441.5,-97.5 441.5,-67.5 322.5,-67.5"/>
<text text-anchor="start" x="330.5" y="-85.5" font-family="Helvetica,sans-Serif" font-size="10.00">deal.II/numerics/data</text>
<text text-anchor="middle" x="382" y="-74.5" font-family="Helvetica,sans-Serif" font-size="10.00">_out.h</text>
</a>
</g>
</g>
<!-- Node6&#45;&gt;Node35 -->
<g id="edge34" class="edge">
<title>Node6&#45;&gt;Node35</title>
<path fill="none" stroke="midnightblue" d="M2200.16,-142.98C1924.65,-142.64 821.23,-138.79 451.91,-97.91"/>
<polygon fill="midnightblue" stroke="midnightblue" points="452.06,-94.4 441.73,-96.75 451.27,-101.36 452.06,-94.4"/>
</g>
<!-- Node36 -->
<g id="node35" class="node">
<title>Node36</title>
<g id="a_node35"><a xlink:href="http://www.dealii.org/developer/doxygen/deal.II/matrix__tools_8h.html.html" xlink:title=" ">
<polygon fill="none" stroke="red" points="460,-67.5 460,-97.5 590,-97.5 590,-67.5 460,-67.5"/>
<text text-anchor="start" x="468" y="-85.5" font-family="Helvetica,sans-Serif" font-size="10.00">deal.II/numerics/matrix</text>
<text text-anchor="middle" x="525" y="-74.5" font-family="Helvetica,sans-Serif" font-size="10.00">_tools.h</text>
</a>
</g>
</g>
<!-- Node6&#45;&gt;Node36 -->
<g id="edge35" class="edge">
<title>Node6&#45;&gt;Node36</title>
<path fill="none" stroke="midnightblue" d="M2200.06,-142.7C1938.83,-141.24 938.32,-133.48 600.33,-97.99"/>
<polygon fill="midnightblue" stroke="midnightblue" points="600.6,-94.5 590.28,-96.9 599.85,-101.46 600.6,-94.5"/>
</g>
<!-- Node37 -->
<g id="node36" class="node">
<title>Node37</title>
<g id="a_node36"><a xlink:href="http://www.dealii.org/developer/doxygen/deal.II/vector__tools_8h.html.html" xlink:title=" ">
<polygon fill="none" stroke="black" points="608,-67.5 608,-97.5 736,-97.5 736,-67.5 608,-67.5"/>
<text text-anchor="start" x="616" y="-85.5" font-family="Helvetica,sans-Serif" font-size="10.00">deal.II/numerics/vector</text>
<text text-anchor="middle" x="672" y="-74.5" font-family="Helvetica,sans-Serif" font-size="10.00">_tools.h</text>
</a>
</g>
</g>
<!-- Node6&#45;&gt;Node37 -->
<g id="edge36" class="edge">
<title>Node6&#45;&gt;Node37</title>
<path fill="none" stroke="midnightblue" d="M2200.19,-142.53C1954.08,-140.49 1054.36,-130.95 746.65,-98.03"/>
<polygon fill="midnightblue" stroke="midnightblue" points="746.72,-94.51 736.4,-96.89 745.95,-101.47 746.72,-94.51"/>
</g>
<!-- Node38 -->
<g id="node37" class="node">
<title>Node38</title>
<g id="a_node37"><a xlink:href="http://www.dealii.org/developer/doxygen/deal.II/arkode_8h.html.html" xlink:title=" ">
<polygon fill="none" stroke="black" points="754.5,-73 754.5,-92 889.5,-92 889.5,-73 754.5,-73"/>
<text text-anchor="middle" x="822" y="-80" font-family="Helvetica,sans-Serif" font-size="10.00">deal.II/sundials/arkode.h</text>
</a>
</g>
</g>
<!-- Node6&#45;&gt;Node38 -->
<g id="edge37" class="edge">
<title>Node6&#45;&gt;Node38</title>
<path fill="none" stroke="midnightblue" d="M2200.33,-142.21C1968.04,-139.07 1156.3,-126.3 899,-98 889.86,-97 880.19,-95.51 870.89,-93.87"/>
<polygon fill="midnightblue" stroke="midnightblue" points="871.47,-90.42 861,-92.04 870.2,-97.3 871.47,-90.42"/>
</g>
<!-- Node39 -->
<g id="node38" class="node">
<title>Node39</title>
<g id="a_node38"><a xlink:title=" ">
<polygon fill="none" stroke="#bfbfbf" points="908,-73 908,-92 1016,-92 1016,-73 908,-73"/>
<text text-anchor="middle" x="962" y="-80" font-family="Helvetica,sans-Serif" font-size="10.00">boost/signals2.hpp</text>
</a>
</g>
</g>
<!-- Node6&#45;&gt;Node39 -->
<g id="edge38" class="edge">
<title>Node6&#45;&gt;Node39</title>
<path fill="none" stroke="midnightblue" d="M2200.16,-142.29C1981.66,-139.59 1255.81,-128.48 1025,-98 1018.12,-97.09 1010.89,-95.78 1003.88,-94.3"/>
<polygon fill="midnightblue" stroke="midnightblue" points="1004.36,-90.82 993.84,-92.06 1002.83,-97.66 1004.36,-90.82"/>
</g>
<!-- Node40 -->
<g id="node39" class="node">
<title>Node40</title>
<g id="a_node39"><a xlink:title=" ">
<polygon fill="none" stroke="#bfbfbf" points="1034.5,-73 1034.5,-92 1089.5,-92 1089.5,-73 1034.5,-73"/>
<text text-anchor="middle" x="1062" y="-80" font-family="Helvetica,sans-Serif" font-size="10.00">fstream</text>
</a>
</g>
</g>
<!-- Node6&#45;&gt;Node40 -->
<g id="edge39" class="edge">
<title>Node6&#45;&gt;Node40</title>
<path fill="none" stroke="midnightblue" d="M2200.47,-143.33C1990.54,-143.99 1312.17,-142.56 1099,-98 1095.99,-97.37 1092.91,-96.52 1089.87,-95.55"/>
<polygon fill="midnightblue" stroke="midnightblue" points="1091.04,-92.25 1080.45,-92.13 1088.66,-98.83 1091.04,-92.25"/>
</g>
<!-- Node41 -->
<g id="node40" class="node">
<title>Node41</title>
<g id="a_node40"><a xlink:title=" ">
<polygon fill="none" stroke="#bfbfbf" points="1108,-73 1108,-92 1168,-92 1168,-73 1108,-73"/>
<text text-anchor="middle" x="1138" y="-80" font-family="Helvetica,sans-Serif" font-size="10.00">iostream</text>
</a>
</g>
</g>
<!-- Node6&#45;&gt;Node41 -->
<g id="edge40" class="edge">
<title>Node6&#45;&gt;Node41</title>
<path fill="none" stroke="midnightblue" d="M2200.18,-142.98C1999.37,-142.51 1374.71,-137.81 1177,-98 1173.74,-97.34 1170.4,-96.46 1167.1,-95.44"/>
<polygon fill="midnightblue" stroke="midnightblue" points="1168.08,-92.08 1157.49,-92.11 1165.79,-98.69 1168.08,-92.08"/>
</g>
<!-- Node59&#45;&gt;Node11 -->
<g id="edge46" class="edge">
<title>Node59&#45;&gt;Node11</title>
<path fill="none" stroke="midnightblue" d="M4867.33,-138.64C4771.26,-132.56 4600.25,-119.9 4443.79,-98"/>
<polygon fill="midnightblue" stroke="midnightblue" points="4443.9,-94.49 4433.51,-96.55 4442.92,-101.42 4443.9,-94.49"/>
</g>
<!-- Node59&#45;&gt;Node19 -->
<g id="edge50" class="edge">
<title>Node59&#45;&gt;Node19</title>
<path fill="none" stroke="midnightblue" d="M4867.24,-137.36C4788.5,-130.76 4661.94,-118.12 4554,-98 4548.63,-97 4543.02,-95.77 4537.5,-94.45"/>
<polygon fill="midnightblue" stroke="midnightblue" points="4538.31,-91.05 4527.76,-92.02 4536.62,-97.84 4538.31,-91.05"/>
</g>
<!-- Node59&#45;&gt;Node24 -->
<g id="edge53" class="edge">
<title>Node59&#45;&gt;Node24</title>
<path fill="none" stroke="midnightblue" d="M4882.33,-134.5C4826.64,-126.35 4741.94,-113.08 4669,-98 4663.86,-96.94 4658.49,-95.73 4653.17,-94.47"/>
<polygon fill="midnightblue" stroke="midnightblue" points="4653.65,-90.99 4643.1,-92.03 4652,-97.79 4653.65,-90.99"/>
</g>
<!-- Node44 -->
<g id="node43" class="node">
<title>Node44</title>
<g id="a_node43"><a xlink:href="http://www.dealii.org/developer/doxygen/deal.II/config_8h.html.html" xlink:title=" ">
<polygon fill="none" stroke="black" points="5233.5,-73 5233.5,-92 5348.5,-92 5348.5,-73 5233.5,-73"/>
<text text-anchor="middle" x="5291" y="-80" font-family="Helvetica,sans-Serif" font-size="10.00">deal.II/base/config.h</text>
</a>
</g>
</g>
<!-- Node59&#45;&gt;Node44 -->
<g id="edge44" class="edge">
<title>Node59&#45;&gt;Node44</title>
<path fill="none" stroke="midnightblue" d="M5002.86,-134.48C5060.07,-126.09 5148.65,-112.47 5225,-98 5231.2,-96.82 5237.71,-95.5 5244.13,-94.15"/>
<polygon fill="midnightblue" stroke="midnightblue" points="5245.04,-97.53 5254.08,-92.01 5243.56,-90.69 5245.04,-97.53"/>
</g>
<!-- Node60 -->
<g id="node44" class="node">
<title>Node60</title>
<g id="a_node44"><a xlink:href="http://www.dealii.org/developer/doxygen/deal.II/include_2deal_8II_2base_2quadrature_8h.html.html" xlink:title=" ">
<polygon fill="none" stroke="black" points="5367,-73 5367,-92 5505,-92 5505,-73 5367,-73"/>
<text text-anchor="middle" x="5436" y="-80" font-family="Helvetica,sans-Serif" font-size="10.00">deal.II/base/quadrature.h</text>
</a>
</g>
</g>
<!-- Node59&#45;&gt;Node60 -->
<g id="edge45" class="edge">
<title>Node59&#45;&gt;Node60</title>
<path fill="none" stroke="midnightblue" d="M5018.57,-136.54C5101.91,-129.01 5239.87,-115.36 5358,-98 5366.14,-96.8 5374.72,-95.38 5383.11,-93.89"/>
<polygon fill="midnightblue" stroke="midnightblue" points="5383.97,-97.29 5393.18,-92.06 5382.72,-90.4 5383.97,-97.29"/>
</g>
<!-- Node61 -->
<g id="node45" class="node">
<title>Node61</title>
<g id="a_node45"><a xlink:href="http://www.dealii.org/developer/doxygen/deal.II/include_2deal_8II_2base_2utilities_8h.html.html" xlink:title=" ">
<polygon fill="none" stroke="black" points="5523,-73 5523,-92 5645,-92 5645,-73 5523,-73"/>
<text text-anchor="middle" x="5584" y="-80" font-family="Helvetica,sans-Serif" font-size="10.00">deal.II/base/utilities.h</text>
</a>
</g>
</g>
<!-- Node59&#45;&gt;Node61 -->
<g id="edge47" class="edge">
<title>Node59&#45;&gt;Node61</title>
<path fill="none" stroke="midnightblue" d="M5018.61,-140.07C5128.24,-135.13 5337.54,-123.13 5514,-98 5521.52,-96.93 5529.44,-95.54 5537.15,-94.05"/>
<polygon fill="midnightblue" stroke="midnightblue" points="5537.98,-97.45 5547.1,-92.05 5536.6,-90.59 5537.98,-97.45"/>
</g>
<!-- Node62 -->
<g id="node46" class="node">
<title>Node62</title>
<g id="a_node46"><a xlink:href="http://www.dealii.org/developer/doxygen/deal.II/component__mask_8h.html.html" xlink:title=" ">
<polygon fill="none" stroke="black" points="5663.5,-67.5 5663.5,-97.5 5780.5,-97.5 5780.5,-67.5 5663.5,-67.5"/>
<text text-anchor="start" x="5671.5" y="-85.5" font-family="Helvetica,sans-Serif" font-size="10.00">deal.II/fe/component</text>
<text text-anchor="middle" x="5722" y="-74.5" font-family="Helvetica,sans-Serif" font-size="10.00">_mask.h</text>
</a>
</g>
</g>
<!-- Node59&#45;&gt;Node62 -->
<g id="edge48" class="edge">
<title>Node59&#45;&gt;Node62</title>
<path fill="none" stroke="midnightblue" d="M5018.61,-141.86C5147.06,-139.11 5416.19,-129.9 5653.29,-97.94"/>
<polygon fill="midnightblue" stroke="midnightblue" points="5654.06,-101.37 5663.49,-96.55 5653.11,-94.43 5654.06,-101.37"/>
</g>
<!-- Node63 -->
<g id="node47" class="node">
<title>Node63</title>
<g id="a_node47"><a xlink:href="http://www.dealii.org/developer/doxygen/deal.II/fe__dgq_8h.html.html" xlink:title=" ">
<polygon fill="none" stroke="black" points="4678,-73 4678,-92 4782,-92 4782,-73 4678,-73"/>
<text text-anchor="middle" x="4730" y="-80" font-family="Helvetica,sans-Serif" font-size="10.00">deal.II/fe/fe_dgq.h</text>
</a>
</g>
</g>
<!-- Node59&#45;&gt;Node63 -->
<g id="edge49" class="edge">
<title>Node59&#45;&gt;Node63</title>
<path fill="none" stroke="midnightblue" d="M4912.48,-134.48C4875.08,-124.03 4811.57,-106.29 4770.21,-94.73"/>
<polygon fill="midnightblue" stroke="midnightblue" points="4771.03,-91.33 4760.46,-92.01 4769.15,-98.07 4771.03,-91.33"/>
</g>
<!-- Node64 -->
<g id="node48" class="node">
<title>Node64</title>
<g id="a_node48"><a xlink:href="http://www.dealii.org/developer/doxygen/deal.II/fe__simplex__p_8h.html.html" xlink:title=" ">
<polygon fill="none" stroke="black" points="4800.5,-73 4800.5,-92 4937.5,-92 4937.5,-73 4800.5,-73"/>
<text text-anchor="middle" x="4869" y="-80" font-family="Helvetica,sans-Serif" font-size="10.00">deal.II/fe/fe_simplex_p.h</text>
</a>
</g>
</g>
<!-- Node59&#45;&gt;Node64 -->
<g id="edge51" class="edge">
<title>Node59&#45;&gt;Node64</title>
<path fill="none" stroke="midnightblue" d="M4932.4,-134.48C4920.75,-125.11 4901.81,-109.88 4887.67,-98.51"/>
<polygon fill="midnightblue" stroke="midnightblue" points="4889.57,-95.55 4879.58,-92.01 4885.18,-101 4889.57,-95.55"/>
</g>
<!-- Node65 -->
<g id="node49" class="node">
<title>Node65</title>
<g id="a_node49"><a xlink:href="http://www.dealii.org/developer/doxygen/deal.II/fe__system_8h.html.html" xlink:title=" ">
<polygon fill="none" stroke="black" points="4956,-73 4956,-92 5078,-92 5078,-73 4956,-73"/>
<text text-anchor="middle" x="5017" y="-80" font-family="Helvetica,sans-Serif" font-size="10.00">deal.II/fe/fe_system.h</text>
</a>
</g>
</g>
<!-- Node59&#45;&gt;Node65 -->
<g id="edge52" class="edge">
<title>Node59&#45;&gt;Node65</title>
<path fill="none" stroke="midnightblue" d="M4953.6,-134.48C4965.25,-125.11 4984.19,-109.88 4998.33,-98.51"/>
<polygon fill="midnightblue" stroke="midnightblue" points="5000.82,-101 5006.42,-92.01 4996.43,-95.55 5000.82,-101"/>
</g>
<!-- Node66 -->
<g id="node50" class="node">
<title>Node66</title>
<g id="a_node50"><a xlink:href="enum_8h.html" target="_top" xlink:title=" ">
<polygon fill="none" stroke="red" points="5096.5,-73 5096.5,-92 5215.5,-92 5215.5,-73 5096.5,-73"/>
<text text-anchor="middle" x="5156" y="-80" font-family="Helvetica,sans-Serif" font-size="10.00">parsed_tools/enum.h</text>
</a>
</g>
</g>
<!-- Node59&#45;&gt;Node66 -->
<g id="edge54" class="edge">
<title>Node59&#45;&gt;Node66</title>
<path fill="none" stroke="midnightblue" d="M4973.52,-134.48C5010.92,-124.03 5074.43,-106.29 5115.79,-94.73"/>
<polygon fill="midnightblue" stroke="midnightblue" points="5116.85,-98.07 5125.54,-92.01 5114.97,-91.33 5116.85,-98.07"/>
</g>
<!-- Node66&#45;&gt;Node5 -->
<g id="edge55" class="edge">
<title>Node66&#45;&gt;Node5</title>
<path fill="none" stroke="midnightblue" d="M5121.46,-72.93C5110.51,-70.57 5098.31,-68.3 5087,-67 4628.86,-14.45 3158.35,-15.18 2794.84,-16.2"/>
<polygon fill="midnightblue" stroke="midnightblue" points="2794.66,-12.7 2784.67,-16.23 2794.68,-19.7 2794.66,-12.7"/>
</g>
</g>
</svg>
