<?xml version="1.0" encoding="UTF-8" standalone="no"?>
<!DOCTYPE svg PUBLIC "-//W3C//DTD SVG 1.1//EN"
 "http://www.w3.org/Graphics/SVG/1.1/DTD/svg11.dtd">
<!-- Generated by graphviz version 2.43.0 (0)
 -->
<!-- Title: source/pdes/linear_visco_elasticity.cc Pages: 1 -->
<svg width="5645pt" height="307pt"
 viewBox="0.00 0.00 5645.00 307.00" xmlns="http://www.w3.org/2000/svg" xmlns:xlink="http://www.w3.org/1999/xlink">
<g id="graph0" class="graph" transform="scale(1 1) rotate(0) translate(4 303)">
<title>source/pdes/linear_visco_elasticity.cc</title>
<!-- Node1 -->
<g id="node1" class="node">
<title>Node1</title>
<g id="a_node1"><a xlink:title=" ">
<polygon fill="#bfbfbf" stroke="black" points="4487,-268.5 4487,-298.5 4597,-298.5 4597,-268.5 4487,-268.5"/>
<text text-anchor="start" x="4495" y="-286.5" font-family="Helvetica,sans-Serif" font-size="10.00">source/pdes/linear</text>
<text text-anchor="middle" x="4542" y="-275.5" font-family="Helvetica,sans-Serif" font-size="10.00">_visco_elasticity.cc</text>
</a>
</g>
</g>
<!-- Node2 -->
<g id="node2" class="node">
<title>Node2</title>
<g id="a_node2"><a xlink:href="linear__visco__elasticity_8h.html" target="_top" xlink:title=" ">
<polygon fill="none" stroke="black" points="3832.5,-207 3832.5,-226 3991.5,-226 3991.5,-207 3832.5,-207"/>
<text text-anchor="middle" x="3912" y="-214" font-family="Helvetica,sans-Serif" font-size="10.00">pdes/linear_visco_elasticity.h</text>
</a>
</g>
</g>
<!-- Node1&#45;&gt;Node2 -->
<g id="edge1" class="edge">
<title>Node1&#45;&gt;Node2</title>
<path fill="none" stroke="midnightblue" d="M4486.92,-276.82C4378,-265.58 4134.2,-240.43 4001.77,-226.76"/>
<polygon fill="midnightblue" stroke="midnightblue" points="4001.95,-223.26 3991.65,-225.72 4001.24,-230.23 4001.95,-223.26"/>
</g>
<!-- Node90 -->
<g id="node41" class="node">
<title>Node90</title>
<g id="a_node41"><a xlink:href="http://www.dealii.org/developer/doxygen/deal.II/symmetric__tensor_8h.html.html" xlink:title=" ">
<polygon fill="none" stroke="black" points="4524,-201.5 4524,-231.5 4652,-231.5 4652,-201.5 4524,-201.5"/>
<text text-anchor="start" x="4532" y="-219.5" font-family="Helvetica,sans-Serif" font-size="10.00">deal.II/base/symmetric</text>
<text text-anchor="middle" x="4588" y="-208.5" font-family="Helvetica,sans-Serif" font-size="10.00">_tensor.h</text>
</a>
</g>
</g>
<!-- Node1&#45;&gt;Node90 -->
<g id="edge46" class="edge">
<title>Node1&#45;&gt;Node90</title>
<path fill="none" stroke="midnightblue" d="M4551.98,-268.4C4557.89,-260.05 4565.5,-249.29 4572.21,-239.81"/>
<polygon fill="midnightblue" stroke="midnightblue" points="4575.12,-241.76 4578.04,-231.58 4569.4,-237.72 4575.12,-241.76"/>
</g>
<!-- Node91 -->
<g id="node42" class="node">
<title>Node91</title>
<g id="a_node42"><a xlink:href="http://www.dealii.org/developer/doxygen/deal.II/mesh__loop_8h.html.html" xlink:title=" ">
<polygon fill="none" stroke="black" points="4670,-201.5 4670,-231.5 4780,-231.5 4780,-201.5 4670,-201.5"/>
<text text-anchor="start" x="4678" y="-219.5" font-family="Helvetica,sans-Serif" font-size="10.00">deal.II/meshworker</text>
<text text-anchor="middle" x="4725" y="-208.5" font-family="Helvetica,sans-Serif" font-size="10.00">/mesh_loop.h</text>
</a>
</g>
</g>
<!-- Node1&#45;&gt;Node91 -->
<g id="edge47" class="edge">
<title>Node1&#45;&gt;Node91</title>
<path fill="none" stroke="midnightblue" d="M4581.71,-268.4C4609.29,-258.6 4646.22,-245.48 4675.69,-235.02"/>
<polygon fill="midnightblue" stroke="midnightblue" points="4677.12,-238.22 4685.37,-231.58 4674.77,-231.63 4677.12,-238.22"/>
</g>
<!-- Node62 -->
<g id="node43" class="node">
<title>Node62</title>
<g id="a_node43"><a xlink:href="components_8h.html" target="_top" xlink:title=" ">
<polygon fill="none" stroke="black" points="4734.5,-140 4734.5,-159 4885.5,-159 4885.5,-140 4734.5,-140"/>
<text text-anchor="middle" x="4810" y="-147" font-family="Helvetica,sans-Serif" font-size="10.00">parsed_tools/components.h</text>
</a>
</g>
</g>
<!-- Node1&#45;&gt;Node62 -->
<g id="edge48" class="edge">
<title>Node1&#45;&gt;Node62</title>
<path fill="none" stroke="midnightblue" d="M4529.85,-268.26C4516.34,-250.65 4498.47,-220.6 4515,-201 4541.37,-169.73 4646.87,-157.82 4724.2,-153.29"/>
<polygon fill="midnightblue" stroke="midnightblue" points="4724.65,-156.77 4734.44,-152.72 4724.26,-149.78 4724.65,-156.77"/>
</g>
<!-- Node3 -->
<g id="node3" class="node">
<title>Node3</title>
<g id="a_node3"><a xlink:href="constants_8h.html" target="_top" xlink:title=" ">
<polygon fill="none" stroke="black" points="3130,-73 3130,-92 3268,-92 3268,-73 3130,-73"/>
<text text-anchor="middle" x="3199" y="-80" font-family="Helvetica,sans-Serif" font-size="10.00">parsed_tools/constants.h</text>
</a>
</g>
</g>
<!-- Node2&#45;&gt;Node3 -->
<g id="edge2" class="edge">
<title>Node2&#45;&gt;Node3</title>
<path fill="none" stroke="midnightblue" d="M3865.79,-206.96C3761.03,-187.61 3497.47,-138.89 3277,-98 3269.83,-96.67 3262.29,-95.27 3254.84,-93.89"/>
<polygon fill="midnightblue" stroke="midnightblue" points="3255.25,-90.4 3244.78,-92.02 3253.97,-97.29 3255.25,-90.4"/>
</g>
<!-- Node6 -->
<g id="node6" class="node">
<title>Node6</title>
<g id="a_node6"><a xlink:href="mapping__eulerian_8h.html" target="_top" xlink:title=" ">
<polygon fill="none" stroke="black" points="4087.5,-134.5 4087.5,-164.5 4212.5,-164.5 4212.5,-134.5 4087.5,-134.5"/>
<text text-anchor="start" x="4095.5" y="-152.5" font-family="Helvetica,sans-Serif" font-size="10.00">parsed_tools/mapping</text>
<text text-anchor="middle" x="4150" y="-141.5" font-family="Helvetica,sans-Serif" font-size="10.00">_eulerian.h</text>
</a>
</g>
</g>
<!-- Node2&#45;&gt;Node6 -->
<g id="edge5" class="edge">
<title>Node2&#45;&gt;Node6</title>
<path fill="none" stroke="midnightblue" d="M3943.6,-206.87C3980.55,-196.78 4042.56,-179.84 4088.98,-167.16"/>
<polygon fill="midnightblue" stroke="midnightblue" points="4089.91,-170.54 4098.64,-164.53 4088.07,-163.79 4089.91,-170.54"/>
</g>
<!-- Node15 -->
<g id="node14" class="node">
<title>Node15</title>
<g id="a_node14"><a xlink:href="linear__problem_8h.html" target="_top" xlink:title=" ">
<polygon fill="none" stroke="red" points="1982.5,-140 1982.5,-159 2107.5,-159 2107.5,-140 1982.5,-140"/>
<text text-anchor="middle" x="2045" y="-147" font-family="Helvetica,sans-Serif" font-size="10.00">pdes/linear_problem.h</text>
</a>
</g>
</g>
<!-- Node2&#45;&gt;Node15 -->
<g id="edge14" class="edge">
<title>Node2&#45;&gt;Node15</title>
<path fill="none" stroke="midnightblue" d="M3832.37,-212.73C3524.39,-202.01 2413.68,-163.34 2117.83,-153.04"/>
<polygon fill="midnightblue" stroke="midnightblue" points="2117.77,-149.53 2107.65,-152.68 2117.52,-156.53 2117.77,-149.53"/>
</g>
<!-- Node4 -->
<g id="node4" class="node">
<title>Node4</title>
<g id="a_node4"><a xlink:href="http://www.dealii.org/developer/doxygen/deal.II/parameter__acceptor_8h.html.html" xlink:title=" ">
<polygon fill="none" stroke="black" points="3135.5,-0.5 3135.5,-30.5 3262.5,-30.5 3262.5,-0.5 3135.5,-0.5"/>
<text text-anchor="start" x="3143.5" y="-18.5" font-family="Helvetica,sans-Serif" font-size="10.00">deal.II/base/parameter</text>
<text text-anchor="middle" x="3199" y="-7.5" font-family="Helvetica,sans-Serif" font-size="10.00">_acceptor.h</text>
</a>
</g>
</g>
<!-- Node3&#45;&gt;Node4 -->
<g id="edge3" class="edge">
<title>Node3&#45;&gt;Node4</title>
<path fill="none" stroke="midnightblue" d="M3199,-72.73C3199,-64.54 3199,-51.92 3199,-40.71"/>
<polygon fill="midnightblue" stroke="midnightblue" points="3202.5,-40.59 3199,-30.59 3195.5,-40.59 3202.5,-40.59"/>
</g>
<!-- Node5 -->
<g id="node5" class="node">
<title>Node5</title>
<g id="a_node5"><a xlink:href="http://www.dealii.org/developer/doxygen/deal.II/sd_8h.html.html" xlink:title=" ">
<polygon fill="none" stroke="black" points="4115.5,-6 4115.5,-25 4258.5,-25 4258.5,-6 4115.5,-6"/>
<text text-anchor="middle" x="4187" y="-13" font-family="Helvetica,sans-Serif" font-size="10.00">deal.II/differentiation/sd.h</text>
</a>
</g>
</g>
<!-- Node3&#45;&gt;Node5 -->
<g id="edge4" class="edge">
<title>Node3&#45;&gt;Node5</title>
<path fill="none" stroke="midnightblue" d="M3239.33,-72.98C3251.4,-70.71 3264.69,-68.48 3277,-67 3580.99,-30.46 3945.34,-20.31 4105.12,-17.53"/>
<polygon fill="midnightblue" stroke="midnightblue" points="4105.41,-21.02 4115.35,-17.35 4105.29,-14.02 4105.41,-21.02"/>
</g>
<!-- Node6&#45;&gt;Node4 -->
<g id="edge9" class="edge">
<title>Node6&#45;&gt;Node4</title>
<path fill="none" stroke="midnightblue" d="M4212.8,-144.5C4292.08,-137.27 4412.6,-117.75 4364,-67 4326.19,-27.52 3522.76,-18.71 3272.65,-16.92"/>
<polygon fill="midnightblue" stroke="midnightblue" points="3272.6,-13.42 3262.57,-16.85 3272.55,-20.42 3272.6,-13.42"/>
</g>
<!-- Node7 -->
<g id="node7" class="node">
<title>Node7</title>
<g id="a_node7"><a xlink:href="http://www.dealii.org/developer/doxygen/deal.II/config_8h.html.html" xlink:title=" ">
<polygon fill="none" stroke="black" points="4534.5,-73 4534.5,-92 4649.5,-92 4649.5,-73 4534.5,-73"/>
<text text-anchor="middle" x="4592" y="-80" font-family="Helvetica,sans-Serif" font-size="10.00">deal.II/base/config.h</text>
</a>
</g>
</g>
<!-- Node6&#45;&gt;Node7 -->
<g id="edge6" class="edge">
<title>Node6&#45;&gt;Node7</title>
<path fill="none" stroke="midnightblue" d="M4212.6,-141.61C4287.25,-133.03 4415.65,-117.16 4525,-98 4531.62,-96.84 4538.57,-95.49 4545.39,-94.08"/>
<polygon fill="midnightblue" stroke="midnightblue" points="4546.18,-97.49 4555.24,-92 4544.73,-90.64 4546.18,-97.49"/>
</g>
<!-- Node8 -->
<g id="node8" class="node">
<title>Node8</title>
<g id="a_node8"><a xlink:href="http://www.dealii.org/developer/doxygen/deal.II/general__data__storage_8h.html.html" xlink:title=" ">
<polygon fill="none" stroke="black" points="4221,-67.5 4221,-97.5 4355,-97.5 4355,-67.5 4221,-67.5"/>
<text text-anchor="start" x="4229" y="-85.5" font-family="Helvetica,sans-Serif" font-size="10.00">deal.II/algorithms</text>
<text text-anchor="middle" x="4288" y="-74.5" font-family="Helvetica,sans-Serif" font-size="10.00">/general_data_storage.h</text>
</a>
</g>
</g>
<!-- Node6&#45;&gt;Node8 -->
<g id="edge7" class="edge">
<title>Node6&#45;&gt;Node8</title>
<path fill="none" stroke="midnightblue" d="M4179.94,-134.4C4200.2,-124.86 4227.15,-112.16 4249.06,-101.84"/>
<polygon fill="midnightblue" stroke="midnightblue" points="4250.56,-105 4258.11,-97.58 4247.58,-98.67 4250.56,-105"/>
</g>
<!-- Node9 -->
<g id="node9" class="node">
<title>Node9</title>
<g id="a_node9"><a xlink:href="http://www.dealii.org/developer/doxygen/deal.II/function__parser_8h.html.html" xlink:title=" ">
<polygon fill="none" stroke="black" points="3590,-67.5 3590,-97.5 3706,-97.5 3706,-67.5 3590,-67.5"/>
<text text-anchor="start" x="3598" y="-85.5" font-family="Helvetica,sans-Serif" font-size="10.00">deal.II/base/function</text>
<text text-anchor="middle" x="3648" y="-74.5" font-family="Helvetica,sans-Serif" font-size="10.00">_parser.h</text>
</a>
</g>
</g>
<!-- Node6&#45;&gt;Node9 -->
<g id="edge8" class="edge">
<title>Node6&#45;&gt;Node9</title>
<path fill="none" stroke="midnightblue" d="M4087.42,-143.17C4004.65,-135.69 3854.08,-120.59 3715.96,-98.06"/>
<polygon fill="midnightblue" stroke="midnightblue" points="3716.47,-94.6 3706.04,-96.42 3715.34,-101.5 3716.47,-94.6"/>
</g>
<!-- Node10 -->
<g id="node10" class="node">
<title>Node10</title>
<g id="a_node10"><a xlink:href="http://www.dealii.org/developer/doxygen/deal.II/dof__handler_8h.html.html" xlink:title=" ">
<polygon fill="none" stroke="red" points="3286,-73 3286,-92 3426,-92 3426,-73 3286,-73"/>
<text text-anchor="middle" x="3356" y="-80" font-family="Helvetica,sans-Serif" font-size="10.00">deal.II/dofs/dof_handler.h</text>
</a>
</g>
</g>
<!-- Node6&#45;&gt;Node10 -->
<g id="edge10" class="edge">
<title>Node6&#45;&gt;Node10</title>
<path fill="none" stroke="midnightblue" d="M4087.13,-146.41C3962.36,-141.73 3674.81,-128.38 3435,-98 3426.16,-96.88 3416.8,-95.41 3407.74,-93.85"/>
<polygon fill="midnightblue" stroke="midnightblue" points="3408.14,-90.36 3397.68,-92.05 3406.91,-97.25 3408.14,-90.36"/>
</g>
<!-- Node12 -->
<g id="node11" class="node">
<title>Node12</title>
<g id="a_node11"><a xlink:href="http://www.dealii.org/developer/doxygen/deal.II/mapping__fe__field_8h.html.html" xlink:title=" ">
<polygon fill="none" stroke="black" points="4411.5,-67.5 4411.5,-97.5 4516.5,-97.5 4516.5,-67.5 4411.5,-67.5"/>
<text text-anchor="start" x="4419.5" y="-85.5" font-family="Helvetica,sans-Serif" font-size="10.00">deal.II/fe/mapping</text>
<text text-anchor="middle" x="4464" y="-74.5" font-family="Helvetica,sans-Serif" font-size="10.00">_fe_field.h</text>
</a>
</g>
</g>
<!-- Node6&#45;&gt;Node12 -->
<g id="edge11" class="edge">
<title>Node6&#45;&gt;Node12</title>
<path fill="none" stroke="midnightblue" d="M4212.73,-135.88C4262.68,-125.78 4334.36,-111.18 4397,-98 4398.46,-97.69 4399.93,-97.38 4401.41,-97.07"/>
<polygon fill="midnightblue" stroke="midnightblue" points="4402.29,-100.46 4411.35,-94.96 4400.84,-93.61 4402.29,-100.46"/>
</g>
<!-- Node13 -->
<g id="node12" class="node">
<title>Node13</title>
<g id="a_node12"><a xlink:href="http://www.dealii.org/developer/doxygen/deal.II/mapping__q__eulerian_8h.html.html" xlink:title=" ">
<polygon fill="none" stroke="black" points="4097.5,-67.5 4097.5,-97.5 4202.5,-97.5 4202.5,-67.5 4097.5,-67.5"/>
<text text-anchor="start" x="4105.5" y="-85.5" font-family="Helvetica,sans-Serif" font-size="10.00">deal.II/fe/mapping</text>
<text text-anchor="middle" x="4150" y="-74.5" font-family="Helvetica,sans-Serif" font-size="10.00">_q_eulerian.h</text>
</a>
</g>
</g>
<!-- Node6&#45;&gt;Node13 -->
<g id="edge12" class="edge">
<title>Node6&#45;&gt;Node13</title>
<path fill="none" stroke="midnightblue" d="M4150,-134.4C4150,-126.64 4150,-116.81 4150,-107.86"/>
<polygon fill="midnightblue" stroke="midnightblue" points="4153.5,-107.58 4150,-97.58 4146.5,-107.58 4153.5,-107.58"/>
</g>
<!-- Node14 -->
<g id="node13" class="node">
<title>Node14</title>
<g id="a_node13"><a xlink:href="http://www.dealii.org/developer/doxygen/deal.II/vector__tools_8h.html.html" xlink:title=" ">
<polygon fill="none" stroke="black" points="3444,-67.5 3444,-97.5 3572,-97.5 3572,-67.5 3444,-67.5"/>
<text text-anchor="start" x="3452" y="-85.5" font-family="Helvetica,sans-Serif" font-size="10.00">deal.II/numerics/vector</text>
<text text-anchor="middle" x="3508" y="-74.5" font-family="Helvetica,sans-Serif" font-size="10.00">_tools.h</text>
</a>
</g>
</g>
<!-- Node6&#45;&gt;Node14 -->
<g id="edge13" class="edge">
<title>Node6&#45;&gt;Node14</title>
<path fill="none" stroke="midnightblue" d="M4087.44,-145.15C3984.25,-139.15 3771.73,-124.75 3582.18,-98.07"/>
<polygon fill="midnightblue" stroke="midnightblue" points="3582.42,-94.57 3572.03,-96.62 3581.43,-101.5 3582.42,-94.57"/>
</g>
<!-- Node15&#45;&gt;Node3 -->
<g id="edge45" class="edge">
<title>Node15&#45;&gt;Node3</title>
<path fill="none" stroke="midnightblue" d="M2107.64,-148.5C2273.42,-147.85 2737.16,-141.92 3120,-98 3129.26,-96.94 3139.07,-95.44 3148.51,-93.81"/>
<polygon fill="midnightblue" stroke="midnightblue" points="3149.34,-97.22 3158.56,-92 3148.1,-90.33 3149.34,-97.22"/>
</g>
<!-- Node15&#45;&gt;Node4 -->
<g id="edge19" class="edge">
<title>Node15&#45;&gt;Node4</title>
<path fill="none" stroke="midnightblue" d="M1982.41,-148.51C1823.81,-147.89 1415.8,-141.99 1375,-98 1365.63,-87.9 1365.39,-76.88 1375,-67 1406.02,-35.11 2787.49,-20.3 3125.13,-17.15"/>
<polygon fill="midnightblue" stroke="midnightblue" points="3125.32,-20.65 3135.29,-17.06 3125.26,-13.65 3125.32,-20.65"/>
</g>
<!-- Node15&#45;&gt;Node9 -->
<g id="edge18" class="edge">
<title>Node15&#45;&gt;Node9</title>
<path fill="none" stroke="midnightblue" d="M2107.72,-147.95C2355.57,-145.53 3267.92,-134.39 3579.27,-98.03"/>
<polygon fill="midnightblue" stroke="midnightblue" points="3580.13,-101.45 3589.64,-96.78 3579.29,-94.5 3580.13,-101.45"/>
</g>
<!-- Node15&#45;&gt;Node10 -->
<g id="edge25" class="edge">
<title>Node15&#45;&gt;Node10</title>
<path fill="none" stroke="midnightblue" d="M2107.74,-149.03C2289.35,-149.91 2831.03,-147.82 3277,-98 3286.26,-96.97 3296.07,-95.48 3305.51,-93.86"/>
<polygon fill="midnightblue" stroke="midnightblue" points="3306.34,-97.26 3315.57,-92.05 3305.11,-90.37 3306.34,-97.26"/>
</g>
<!-- Node15&#45;&gt;Node14 -->
<g id="edge44" class="edge">
<title>Node15&#45;&gt;Node14</title>
<path fill="none" stroke="midnightblue" d="M2107.66,-147.55C2339.92,-143.85 3152.35,-129.01 3433.81,-97.97"/>
<polygon fill="midnightblue" stroke="midnightblue" points="3434.46,-101.42 3444,-96.81 3433.67,-94.47 3434.46,-101.42"/>
</g>
<!-- Node16 -->
<g id="node15" class="node">
<title>Node16</title>
<g id="a_node15"><a xlink:href="http://www.dealii.org/developer/doxygen/deal.II/conditional__ostream_8h.html.html" xlink:title=" ">
<polygon fill="none" stroke="black" points="1904,-67.5 1904,-97.5 2034,-97.5 2034,-67.5 1904,-67.5"/>
<text text-anchor="start" x="1912" y="-85.5" font-family="Helvetica,sans-Serif" font-size="10.00">deal.II/base/conditional</text>
<text text-anchor="middle" x="1969" y="-74.5" font-family="Helvetica,sans-Serif" font-size="10.00">_ostream.h</text>
</a>
</g>
</g>
<!-- Node15&#45;&gt;Node16 -->
<g id="edge15" class="edge">
<title>Node15&#45;&gt;Node16</title>
<path fill="none" stroke="midnightblue" d="M2034.75,-139.73C2024.18,-130.7 2007.32,-116.27 1993.32,-104.3"/>
<polygon fill="midnightblue" stroke="midnightblue" points="1995.35,-101.43 1985.47,-97.59 1990.8,-106.75 1995.35,-101.43"/>
</g>
<!-- Node17 -->
<g id="node16" class="node">
<title>Node17</title>
<g id="a_node16"><a xlink:href="http://www.dealii.org/developer/doxygen/deal.II/convergence__table_8h.html.html" xlink:title=" ">
<polygon fill="none" stroke="black" points="2052,-67.5 2052,-97.5 2190,-97.5 2190,-67.5 2052,-67.5"/>
<text text-anchor="start" x="2060" y="-85.5" font-family="Helvetica,sans-Serif" font-size="10.00">deal.II/base/convergence</text>
<text text-anchor="middle" x="2121" y="-74.5" font-family="Helvetica,sans-Serif" font-size="10.00">_table.h</text>
</a>
</g>
</g>
<!-- Node15&#45;&gt;Node17 -->
<g id="edge16" class="edge">
<title>Node15&#45;&gt;Node17</title>
<path fill="none" stroke="midnightblue" d="M2055.25,-139.73C2065.82,-130.7 2082.68,-116.27 2096.68,-104.3"/>
<polygon fill="midnightblue" stroke="midnightblue" points="2099.2,-106.75 2104.53,-97.59 2094.65,-101.43 2099.2,-106.75"/>
</g>
<!-- Node18 -->
<g id="node17" class="node">
<title>Node18</title>
<g id="a_node17"><a xlink:href="http://www.dealii.org/developer/doxygen/deal.II/function_8h.html.html" xlink:title=" ">
<polygon fill="none" stroke="black" points="2208.5,-73 2208.5,-92 2333.5,-92 2333.5,-73 2208.5,-73"/>
<text text-anchor="middle" x="2271" y="-80" font-family="Helvetica,sans-Serif" font-size="10.00">deal.II/base/function.h</text>
</a>
</g>
</g>
<!-- Node15&#45;&gt;Node18 -->
<g id="edge17" class="edge">
<title>Node15&#45;&gt;Node18</title>
<path fill="none" stroke="midnightblue" d="M2075.01,-139.87C2115.31,-128.28 2186.99,-107.66 2231.59,-94.83"/>
<polygon fill="midnightblue" stroke="midnightblue" points="2232.58,-98.19 2241.22,-92.06 2230.65,-91.46 2232.58,-98.19"/>
</g>
<!-- Node19 -->
<g id="node18" class="node">
<title>Node19</title>
<g id="a_node18"><a xlink:href="http://www.dealii.org/developer/doxygen/deal.II/quadrature__lib_8h.html.html" xlink:title=" ">
<polygon fill="none" stroke="black" points="3839.5,-67.5 3839.5,-97.5 3968.5,-97.5 3968.5,-67.5 3839.5,-67.5"/>
<text text-anchor="start" x="3847.5" y="-85.5" font-family="Helvetica,sans-Serif" font-size="10.00">deal.II/base/quadrature</text>
<text text-anchor="middle" x="3904" y="-74.5" font-family="Helvetica,sans-Serif" font-size="10.00">_lib.h</text>
</a>
</g>
</g>
<!-- Node15&#45;&gt;Node19 -->
<g id="edge20" class="edge">
<title>Node15&#45;&gt;Node19</title>
<path fill="none" stroke="midnightblue" d="M2107.82,-148.12C2380.71,-146.23 3465.49,-136.5 3829.1,-97.93"/>
<polygon fill="midnightblue" stroke="midnightblue" points="3829.56,-101.4 3839.12,-96.84 3828.8,-94.44 3829.56,-101.4"/>
</g>
<!-- Node20 -->
<g id="node19" class="node">
<title>Node20</title>
<g id="a_node19"><a xlink:href="http://www.dealii.org/developer/doxygen/deal.II/timer_8h.html.html" xlink:title=" ">
<polygon fill="none" stroke="black" points="2351.5,-73 2351.5,-92 2462.5,-92 2462.5,-73 2351.5,-73"/>
<text text-anchor="middle" x="2407" y="-80" font-family="Helvetica,sans-Serif" font-size="10.00">deal.II/base/timer.h</text>
</a>
</g>
</g>
<!-- Node15&#45;&gt;Node20 -->
<g id="edge21" class="edge">
<title>Node15&#45;&gt;Node20</title>
<path fill="none" stroke="midnightblue" d="M2100.17,-139.98C2159.91,-130.56 2257.96,-114.51 2342,-98 2347.89,-96.84 2354.06,-95.56 2360.16,-94.25"/>
<polygon fill="midnightblue" stroke="midnightblue" points="2361.27,-97.59 2370.29,-92.03 2359.77,-90.75 2361.27,-97.59"/>
</g>
<!-- Node21 -->
<g id="node20" class="node">
<title>Node21</title>
<g id="a_node20"><a xlink:href="http://www.dealii.org/developer/doxygen/deal.II/distributed_2grid__refinement_8h.html.html" xlink:title=" ">
<polygon fill="none" stroke="black" points="2480.5,-67.5 2480.5,-97.5 2587.5,-97.5 2587.5,-67.5 2480.5,-67.5"/>
<text text-anchor="start" x="2488.5" y="-85.5" font-family="Helvetica,sans-Serif" font-size="10.00">deal.II/distributed</text>
<text text-anchor="middle" x="2534" y="-74.5" font-family="Helvetica,sans-Serif" font-size="10.00">/grid_refinement.h</text>
</a>
</g>
</g>
<!-- Node15&#45;&gt;Node21 -->
<g id="edge22" class="edge">
<title>Node15&#45;&gt;Node21</title>
<path fill="none" stroke="midnightblue" d="M2107.75,-143.2C2189.07,-135.86 2335.41,-121.04 2470.36,-97.98"/>
<polygon fill="midnightblue" stroke="midnightblue" points="2471.21,-101.39 2480.46,-96.24 2470.01,-94.49 2471.21,-101.39"/>
</g>
<!-- Node22 -->
<g id="node21" class="node">
<title>Node22</title>
<g id="a_node21"><a xlink:href="http://www.dealii.org/developer/doxygen/deal.II/shared__tria_8h.html.html" xlink:title=" ">
<polygon fill="none" stroke="black" points="2606,-67.5 2606,-97.5 2708,-97.5 2708,-67.5 2606,-67.5"/>
<text text-anchor="start" x="2614" y="-85.5" font-family="Helvetica,sans-Serif" font-size="10.00">deal.II/distributed</text>
<text text-anchor="middle" x="2657" y="-74.5" font-family="Helvetica,sans-Serif" font-size="10.00">/shared_tria.h</text>
</a>
</g>
</g>
<!-- Node15&#45;&gt;Node22 -->
<g id="edge23" class="edge">
<title>Node15&#45;&gt;Node22</title>
<path fill="none" stroke="midnightblue" d="M2107.75,-145.65C2210.41,-140.35 2420.39,-126.77 2596,-98 2596.1,-97.98 2596.2,-97.97 2596.3,-97.95"/>
<polygon fill="midnightblue" stroke="midnightblue" points="2596.64,-101.45 2605.85,-96.21 2595.39,-94.56 2596.64,-101.45"/>
</g>
<!-- Node23 -->
<g id="node22" class="node">
<title>Node23</title>
<g id="a_node22"><a xlink:href="http://www.dealii.org/developer/doxygen/deal.II/distributed_2tria_8h.html.html" xlink:title=" ">
<polygon fill="none" stroke="black" points="2726,-67.5 2726,-97.5 2828,-97.5 2828,-67.5 2726,-67.5"/>
<text text-anchor="start" x="2734" y="-85.5" font-family="Helvetica,sans-Serif" font-size="10.00">deal.II/distributed</text>
<text text-anchor="middle" x="2777" y="-74.5" font-family="Helvetica,sans-Serif" font-size="10.00">/tria.h</text>
</a>
</g>
</g>
<!-- Node15&#45;&gt;Node23 -->
<g id="edge24" class="edge">
<title>Node15&#45;&gt;Node23</title>
<path fill="none" stroke="midnightblue" d="M2107.93,-147.17C2225.6,-143.94 2487.01,-133.28 2715.55,-98.06"/>
<polygon fill="midnightblue" stroke="midnightblue" points="2716.38,-101.47 2725.72,-96.47 2715.3,-94.55 2716.38,-101.47"/>
</g>
<!-- Node24 -->
<g id="node23" class="node">
<title>Node24</title>
<g id="a_node23"><a xlink:href="http://www.dealii.org/developer/doxygen/deal.II/dof__tools_8h.html.html" xlink:title=" ">
<polygon fill="none" stroke="black" points="2846,-73 2846,-92 2974,-92 2974,-73 2846,-73"/>
<text text-anchor="middle" x="2910" y="-80" font-family="Helvetica,sans-Serif" font-size="10.00">deal.II/dofs/dof_tools.h</text>
</a>
</g>
</g>
<!-- Node15&#45;&gt;Node24 -->
<g id="edge26" class="edge">
<title>Node15&#45;&gt;Node24</title>
<path fill="none" stroke="midnightblue" d="M2107.65,-147.32C2241.88,-144.18 2567.01,-133.26 2837,-98 2845.11,-96.94 2853.67,-95.52 2861.96,-93.98"/>
<polygon fill="midnightblue" stroke="midnightblue" points="2862.74,-97.39 2871.89,-92.06 2861.41,-90.52 2862.74,-97.39"/>
</g>
<!-- Node25 -->
<g id="node24" class="node">
<title>Node25</title>
<g id="a_node24"><a xlink:href="http://www.dealii.org/developer/doxygen/deal.II/fe__q_8h.html.html" xlink:title=" ">
<polygon fill="none" stroke="black" points="3987,-73 3987,-92 4079,-92 4079,-73 3987,-73"/>
<text text-anchor="middle" x="4033" y="-80" font-family="Helvetica,sans-Serif" font-size="10.00">deal.II/fe/fe_q.h</text>
</a>
</g>
</g>
<!-- Node15&#45;&gt;Node25 -->
<g id="edge27" class="edge">
<title>Node15&#45;&gt;Node25</title>
<path fill="none" stroke="midnightblue" d="M2107.65,-148.77C2396.73,-149.75 3603.62,-150.52 3977,-98 3982.93,-97.17 3989.13,-95.94 3995.15,-94.54"/>
<polygon fill="midnightblue" stroke="midnightblue" points="3996.2,-97.88 4005.05,-92.07 3994.5,-91.09 3996.2,-97.88"/>
</g>
<!-- Node26 -->
<g id="node25" class="node">
<title>Node26</title>
<g id="a_node25"><a xlink:href="http://www.dealii.org/developer/doxygen/deal.II/fe_2fe__values_8h.html.html" xlink:title=" ">
<polygon fill="none" stroke="black" points="2992.5,-73 2992.5,-92 3111.5,-92 3111.5,-73 2992.5,-73"/>
<text text-anchor="middle" x="3052" y="-80" font-family="Helvetica,sans-Serif" font-size="10.00">deal.II/fe/fe_values.h</text>
</a>
</g>
</g>
<!-- Node15&#45;&gt;Node26 -->
<g id="edge28" class="edge">
<title>Node15&#45;&gt;Node26</title>
<path fill="none" stroke="midnightblue" d="M2107.6,-148.44C2258.74,-147.56 2655.36,-140.99 2983,-98 2990.77,-96.98 2998.96,-95.57 3006.88,-94.02"/>
<polygon fill="midnightblue" stroke="midnightblue" points="3007.63,-97.44 3016.72,-92 3006.22,-90.58 3007.63,-97.44"/>
</g>
<!-- Node27 -->
<g id="node26" class="node">
<title>Node27</title>
<g id="a_node26"><a xlink:href="http://www.dealii.org/developer/doxygen/deal.II/fe__values__extractors_8h.html.html" xlink:title=" ">
<polygon fill="none" stroke="black" points="0,-67.5 0,-97.5 110,-97.5 110,-67.5 0,-67.5"/>
<text text-anchor="start" x="8" y="-85.5" font-family="Helvetica,sans-Serif" font-size="10.00">deal.II/fe/fe_values</text>
<text text-anchor="middle" x="55" y="-74.5" font-family="Helvetica,sans-Serif" font-size="10.00">_extractors.h</text>
</a>
</g>
</g>
<!-- Node15&#45;&gt;Node27 -->
<g id="edge29" class="edge">
<title>Node15&#45;&gt;Node27</title>
<path fill="none" stroke="midnightblue" d="M1982.1,-148.51C1695.67,-148.32 512.23,-144.72 120,-97.91"/>
<polygon fill="midnightblue" stroke="midnightblue" points="120.39,-94.43 110.04,-96.69 119.54,-101.38 120.39,-94.43"/>
</g>
<!-- Node28 -->
<g id="node27" class="node">
<title>Node28</title>
<g id="a_node27"><a xlink:href="http://www.dealii.org/developer/doxygen/deal.II/mapping__q__generic_8h.html.html" xlink:title=" ">
<polygon fill="none" stroke="black" points="128.5,-67.5 128.5,-97.5 233.5,-97.5 233.5,-67.5 128.5,-67.5"/>
<text text-anchor="start" x="136.5" y="-85.5" font-family="Helvetica,sans-Serif" font-size="10.00">deal.II/fe/mapping</text>
<text text-anchor="middle" x="181" y="-74.5" font-family="Helvetica,sans-Serif" font-size="10.00">_q_generic.h</text>
</a>
</g>
</g>
<!-- Node15&#45;&gt;Node28 -->
<g id="edge30" class="edge">
<title>Node15&#45;&gt;Node28</title>
<path fill="none" stroke="midnightblue" d="M1982.48,-148.44C1708.38,-147.92 610.67,-143.07 243.75,-97.85"/>
<polygon fill="midnightblue" stroke="midnightblue" points="243.99,-94.36 233.63,-96.57 243.11,-101.3 243.99,-94.36"/>
</g>
<!-- Node29 -->
<g id="node28" class="node">
<title>Node29</title>
<g id="a_node28"><a xlink:href="http://www.dealii.org/developer/doxygen/deal.II/grid__generator_8h.html.html" xlink:title=" ">
<polygon fill="none" stroke="red" points="252,-73 252,-92 404,-92 404,-73 252,-73"/>
<text text-anchor="middle" x="328" y="-80" font-family="Helvetica,sans-Serif" font-size="10.00">deal.II/grid/grid_generator.h</text>
</a>
</g>
</g>
<!-- Node15&#45;&gt;Node29 -->
<g id="edge31" class="edge">
<title>Node15&#45;&gt;Node29</title>
<path fill="none" stroke="midnightblue" d="M1982.41,-147.72C1722.33,-144.3 725.9,-129.38 413,-98 402.62,-96.96 391.58,-95.41 381.02,-93.71"/>
<polygon fill="midnightblue" stroke="midnightblue" points="381.53,-90.24 371.08,-92.04 380.37,-97.14 381.53,-90.24"/>
</g>
<!-- Node30 -->
<g id="node29" class="node">
<title>Node30</title>
<g id="a_node29"><a xlink:href="http://www.dealii.org/developer/doxygen/deal.II/grid_2tria_8h.html.html" xlink:title=" ">
<polygon fill="none" stroke="black" points="3724.5,-73 3724.5,-92 3821.5,-92 3821.5,-73 3724.5,-73"/>
<text text-anchor="middle" x="3773" y="-80" font-family="Helvetica,sans-Serif" font-size="10.00">deal.II/grid/tria.h</text>
</a>
</g>
</g>
<!-- Node15&#45;&gt;Node30 -->
<g id="edge32" class="edge">
<title>Node15&#45;&gt;Node30</title>
<path fill="none" stroke="midnightblue" d="M2107.78,-148.4C2372.12,-147.72 3395.71,-142.21 3715,-98 3721.27,-97.13 3727.85,-95.85 3734.24,-94.41"/>
<polygon fill="midnightblue" stroke="midnightblue" points="3735.13,-97.79 3744.03,-92.04 3733.49,-90.99 3735.13,-97.79"/>
</g>
<!-- Node31 -->
<g id="node30" class="node">
<title>Node31</title>
<g id="a_node30"><a xlink:href="http://www.dealii.org/developer/doxygen/deal.II/affine__constraints_8h.html.html" xlink:title=" ">
<polygon fill="none" stroke="black" points="422.5,-67.5 422.5,-97.5 517.5,-97.5 517.5,-67.5 422.5,-67.5"/>
<text text-anchor="start" x="430.5" y="-85.5" font-family="Helvetica,sans-Serif" font-size="10.00">deal.II/lac/affine</text>
<text text-anchor="middle" x="470" y="-74.5" font-family="Helvetica,sans-Serif" font-size="10.00">_constraints.h</text>
</a>
</g>
</g>
<!-- Node15&#45;&gt;Node31 -->
<g id="edge33" class="edge">
<title>Node15&#45;&gt;Node31</title>
<path fill="none" stroke="midnightblue" d="M1982.13,-148.22C1735.81,-146.83 835.36,-139.08 527.99,-97.86"/>
<polygon fill="midnightblue" stroke="midnightblue" points="528.13,-94.35 517.74,-96.44 527.17,-101.28 528.13,-94.35"/>
</g>
<!-- Node32 -->
<g id="node31" class="node">
<title>Node32</title>
<g id="a_node31"><a xlink:href="http://www.dealii.org/developer/doxygen/deal.II/dynamic__sparsity__pattern_8h.html.html" xlink:title=" ">
<polygon fill="none" stroke="black" points="536,-67.5 536,-97.5 646,-97.5 646,-67.5 536,-67.5"/>
<text text-anchor="start" x="544" y="-85.5" font-family="Helvetica,sans-Serif" font-size="10.00">deal.II/lac/dynamic</text>
<text text-anchor="middle" x="591" y="-74.5" font-family="Helvetica,sans-Serif" font-size="10.00">_sparsity_pattern.h</text>
</a>
</g>
</g>
<!-- Node15&#45;&gt;Node32 -->
<g id="edge34" class="edge">
<title>Node15&#45;&gt;Node32</title>
<path fill="none" stroke="midnightblue" d="M1982.31,-147.78C1749.96,-144.85 937.23,-132.45 656.21,-97.94"/>
<polygon fill="midnightblue" stroke="midnightblue" points="656.4,-94.44 646.04,-96.65 655.52,-101.38 656.4,-94.44"/>
</g>
<!-- Node33 -->
<g id="node32" class="node">
<title>Node33</title>
<g id="a_node32"><a xlink:href="http://www.dealii.org/developer/doxygen/deal.II/full__matrix_8h.html.html" xlink:title=" ">
<polygon fill="none" stroke="black" points="664.5,-73 664.5,-92 793.5,-92 793.5,-73 664.5,-73"/>
<text text-anchor="middle" x="729" y="-80" font-family="Helvetica,sans-Serif" font-size="10.00">deal.II/lac/full_matrix.h</text>
</a>
</g>
</g>
<!-- Node15&#45;&gt;Node33 -->
<g id="edge35" class="edge">
<title>Node15&#45;&gt;Node33</title>
<path fill="none" stroke="midnightblue" d="M1982.31,-147.24C1763.5,-142.66 1034.29,-125.62 802,-98 793.61,-97 784.74,-95.57 776.18,-93.98"/>
<polygon fill="midnightblue" stroke="midnightblue" points="776.82,-90.54 766.33,-92.08 775.49,-97.41 776.82,-90.54"/>
</g>
<!-- Node34 -->
<g id="node33" class="node">
<title>Node34</title>
<g id="a_node33"><a xlink:href="http://www.dealii.org/developer/doxygen/deal.II/generic__linear__algebra_8h.html.html" xlink:title=" ">
<polygon fill="none" stroke="black" points="811.5,-67.5 811.5,-97.5 914.5,-97.5 914.5,-67.5 811.5,-67.5"/>
<text text-anchor="start" x="819.5" y="-85.5" font-family="Helvetica,sans-Serif" font-size="10.00">deal.II/lac/generic</text>
<text text-anchor="middle" x="863" y="-74.5" font-family="Helvetica,sans-Serif" font-size="10.00">_linear_algebra.h</text>
</a>
</g>
</g>
<!-- Node15&#45;&gt;Node34 -->
<g id="edge36" class="edge">
<title>Node15&#45;&gt;Node34</title>
<path fill="none" stroke="midnightblue" d="M1982.43,-147.27C1780.94,-143.05 1149.56,-127.87 924.67,-98.02"/>
<polygon fill="midnightblue" stroke="midnightblue" points="924.97,-94.53 914.59,-96.63 924.02,-101.46 924.97,-94.53"/>
</g>
<!-- Node35 -->
<g id="node34" class="node">
<title>Node35</title>
<g id="a_node34"><a xlink:href="http://www.dealii.org/developer/doxygen/deal.II/precondition_8h.html.html" xlink:title=" ">
<polygon fill="none" stroke="black" points="932.5,-73 932.5,-92 1069.5,-92 1069.5,-73 932.5,-73"/>
<text text-anchor="middle" x="1001" y="-80" font-family="Helvetica,sans-Serif" font-size="10.00">deal.II/lac/precondition.h</text>
</a>
</g>
</g>
<!-- Node15&#45;&gt;Node35 -->
<g id="edge37" class="edge">
<title>Node15&#45;&gt;Node35</title>
<path fill="none" stroke="midnightblue" d="M1982.32,-148.07C1828.11,-146.4 1418.17,-138.21 1079,-98 1070.06,-96.94 1060.59,-95.47 1051.46,-93.88"/>
<polygon fill="midnightblue" stroke="midnightblue" points="1051.79,-90.39 1041.33,-92.04 1050.54,-97.27 1051.79,-90.39"/>
</g>
<!-- Node36 -->
<g id="node35" class="node">
<title>Node36</title>
<g id="a_node35"><a xlink:href="http://www.dealii.org/developer/doxygen/deal.II/solver__cg_8h.html.html" xlink:title=" ">
<polygon fill="none" stroke="black" points="1088,-73 1088,-92 1210,-92 1210,-73 1088,-73"/>
<text text-anchor="middle" x="1149" y="-80" font-family="Helvetica,sans-Serif" font-size="10.00">deal.II/lac/solver_cg.h</text>
</a>
</g>
</g>
<!-- Node15&#45;&gt;Node36 -->
<g id="edge38" class="edge">
<title>Node15&#45;&gt;Node36</title>
<path fill="none" stroke="midnightblue" d="M1982.27,-147.72C1843.89,-145.34 1502.21,-135.79 1219,-98 1211.22,-96.96 1203,-95.55 1195.05,-94.01"/>
<polygon fill="midnightblue" stroke="midnightblue" points="1195.66,-90.57 1185.16,-92.02 1194.27,-97.43 1195.66,-90.57"/>
</g>
<!-- Node37 -->
<g id="node36" class="node">
<title>Node37</title>
<g id="a_node36"><a xlink:href="http://www.dealii.org/developer/doxygen/deal.II/sparse__matrix_8h.html.html" xlink:title=" ">
<polygon fill="none" stroke="black" points="1228.5,-67.5 1228.5,-97.5 1327.5,-97.5 1327.5,-67.5 1228.5,-67.5"/>
<text text-anchor="start" x="1236.5" y="-85.5" font-family="Helvetica,sans-Serif" font-size="10.00">deal.II/lac/sparse</text>
<text text-anchor="middle" x="1278" y="-74.5" font-family="Helvetica,sans-Serif" font-size="10.00">_matrix.h</text>
</a>
</g>
</g>
<!-- Node15&#45;&gt;Node37 -->
<g id="edge39" class="edge">
<title>Node15&#45;&gt;Node37</title>
<path fill="none" stroke="midnightblue" d="M1982.11,-147.16C1858.73,-143.84 1576.51,-132.79 1342,-98 1340.7,-97.81 1339.39,-97.6 1338.07,-97.39"/>
<polygon fill="midnightblue" stroke="midnightblue" points="1338.28,-93.87 1327.82,-95.55 1337.05,-100.76 1338.28,-93.87"/>
</g>
<!-- Node38 -->
<g id="node37" class="node">
<title>Node38</title>
<g id="a_node37"><a xlink:href="http://www.dealii.org/developer/doxygen/deal.II/vector_8h.html.html" xlink:title=" ">
<polygon fill="none" stroke="black" points="1384.5,-73 1384.5,-92 1491.5,-92 1491.5,-73 1384.5,-73"/>
<text text-anchor="middle" x="1438" y="-80" font-family="Helvetica,sans-Serif" font-size="10.00">deal.II/lac/vector.h</text>
</a>
</g>
</g>
<!-- Node15&#45;&gt;Node38 -->
<g id="edge40" class="edge">
<title>Node15&#45;&gt;Node38</title>
<path fill="none" stroke="midnightblue" d="M1982.24,-145.41C1880.63,-139.78 1674.02,-125.81 1501,-98 1494.6,-96.97 1487.88,-95.67 1481.31,-94.27"/>
<polygon fill="midnightblue" stroke="midnightblue" points="1481.71,-90.77 1471.19,-92.01 1480.19,-97.6 1481.71,-90.77"/>
</g>
<!-- Node39 -->
<g id="node38" class="node">
<title>Node39</title>
<g id="a_node38"><a xlink:href="http://www.dealii.org/developer/doxygen/deal.II/copy__data_8h.html.html" xlink:title=" ">
<polygon fill="none" stroke="black" points="1510,-67.5 1510,-97.5 1620,-97.5 1620,-67.5 1510,-67.5"/>
<text text-anchor="start" x="1518" y="-85.5" font-family="Helvetica,sans-Serif" font-size="10.00">deal.II/meshworker</text>
<text text-anchor="middle" x="1565" y="-74.5" font-family="Helvetica,sans-Serif" font-size="10.00">/copy_data.h</text>
</a>
</g>
</g>
<!-- Node15&#45;&gt;Node39 -->
<g id="edge41" class="edge">
<title>Node15&#45;&gt;Node39</title>
<path fill="none" stroke="midnightblue" d="M1982.34,-142.9C1902.73,-135.35 1760.97,-120.39 1630.28,-98.11"/>
<polygon fill="midnightblue" stroke="midnightblue" points="1630.54,-94.6 1620.09,-96.36 1629.35,-101.5 1630.54,-94.6"/>
</g>
<!-- Node40 -->
<g id="node39" class="node">
<title>Node40</title>
<g id="a_node39"><a xlink:href="http://www.dealii.org/developer/doxygen/deal.II/scratch__data_8h.html.html" xlink:title=" ">
<polygon fill="none" stroke="black" points="1638,-67.5 1638,-97.5 1748,-97.5 1748,-67.5 1638,-67.5"/>
<text text-anchor="start" x="1646" y="-85.5" font-family="Helvetica,sans-Serif" font-size="10.00">deal.II/meshworker</text>
<text text-anchor="middle" x="1693" y="-74.5" font-family="Helvetica,sans-Serif" font-size="10.00">/scratch_data.h</text>
</a>
</g>
</g>
<!-- Node15&#45;&gt;Node40 -->
<g id="edge42" class="edge">
<title>Node15&#45;&gt;Node40</title>
<path fill="none" stroke="midnightblue" d="M1991.77,-139.97C1935.95,-130.85 1845.46,-115.55 1757.95,-98.14"/>
<polygon fill="midnightblue" stroke="midnightblue" points="1758.61,-94.7 1748.12,-96.17 1757.24,-101.56 1758.61,-94.7"/>
</g>
<!-- Node41 -->
<g id="node40" class="node">
<title>Node41</title>
<g id="a_node40"><a xlink:href="http://www.dealii.org/developer/doxygen/deal.II/numerics_2data__out_8h.html.html" xlink:title=" ">
<polygon fill="none" stroke="black" points="1766.5,-67.5 1766.5,-97.5 1885.5,-97.5 1885.5,-67.5 1766.5,-67.5"/>
<text text-anchor="start" x="1774.5" y="-85.5" font-family="Helvetica,sans-Serif" font-size="10.00">deal.II/numerics/data</text>
<text text-anchor="middle" x="1826" y="-74.5" font-family="Helvetica,sans-Serif" font-size="10.00">_out.h</text>
</a>
</g>
</g>
<!-- Node15&#45;&gt;Node41 -->
<g id="edge43" class="edge">
<title>Node15&#45;&gt;Node41</title>
<path fill="none" stroke="midnightblue" d="M2015.92,-139.87C1982.13,-129.84 1925.58,-113.06 1882.95,-100.4"/>
<polygon fill="midnightblue" stroke="midnightblue" points="1883.85,-97.02 1873.26,-97.53 1881.85,-103.73 1883.85,-97.02"/>
</g>
<!-- Node62&#45;&gt;Node7 -->
<g id="edge49" class="edge">
<title>Node62&#45;&gt;Node7</title>
<path fill="none" stroke="midnightblue" d="M4781.05,-139.87C4742.34,-128.33 4673.62,-107.84 4630.55,-95"/>
<polygon fill="midnightblue" stroke="midnightblue" points="4631.3,-91.57 4620.72,-92.06 4629.3,-98.28 4631.3,-91.57"/>
</g>
<!-- Node62&#45;&gt;Node19 -->
<g id="edge51" class="edge">
<title>Node62&#45;&gt;Node19</title>
<path fill="none" stroke="midnightblue" d="M4734.26,-147.27C4589.39,-144.17 4262.99,-133.66 3978.98,-98"/>
<polygon fill="midnightblue" stroke="midnightblue" points="3979.25,-94.51 3968.89,-96.72 3978.37,-101.45 3979.25,-94.51"/>
</g>
<!-- Node62&#45;&gt;Node25 -->
<g id="edge55" class="edge">
<title>Node62&#45;&gt;Node25</title>
<path fill="none" stroke="midnightblue" d="M4734.36,-147.87C4602.31,-145.74 4321.53,-136.6 4088,-98 4082.52,-97.09 4076.79,-95.89 4071.19,-94.55"/>
<polygon fill="midnightblue" stroke="midnightblue" points="4071.88,-91.12 4061.33,-92.06 4070.16,-97.9 4071.88,-91.12"/>
</g>
<!-- Node62&#45;&gt;Node30 -->
<g id="edge58" class="edge">
<title>Node62&#45;&gt;Node30</title>
<path fill="none" stroke="midnightblue" d="M4734.48,-146.54C4536.2,-141.08 4004.13,-124.37 3830,-98 3824.11,-97.11 3817.95,-95.87 3811.95,-94.49"/>
<polygon fill="midnightblue" stroke="midnightblue" points="3812.61,-91.05 3802.06,-92.07 3810.94,-97.85 3812.61,-91.05"/>
</g>
<!-- Node63 -->
<g id="node44" class="node">
<title>Node63</title>
<g id="a_node44"><a xlink:href="http://www.dealii.org/developer/doxygen/deal.II/include_2deal_8II_2base_2quadrature_8h.html.html" xlink:title=" ">
<polygon fill="none" stroke="black" points="5101,-73 5101,-92 5239,-92 5239,-73 5101,-73"/>
<text text-anchor="middle" x="5170" y="-80" font-family="Helvetica,sans-Serif" font-size="10.00">deal.II/base/quadrature.h</text>
</a>
</g>
</g>
<!-- Node62&#45;&gt;Node63 -->
<g id="edge50" class="edge">
<title>Node62&#45;&gt;Node63</title>
<path fill="none" stroke="midnightblue" d="M4857.74,-139.98C4913.66,-129.98 5009.07,-112.88 5091,-98 5098.35,-96.67 5106.07,-95.26 5113.7,-93.86"/>
<polygon fill="midnightblue" stroke="midnightblue" points="5114.43,-97.28 5123.64,-92.04 5113.17,-90.4 5114.43,-97.28"/>
</g>
<!-- Node64 -->
<g id="node45" class="node">
<title>Node64</title>
<g id="a_node45"><a xlink:href="http://www.dealii.org/developer/doxygen/deal.II/include_2deal_8II_2base_2utilities_8h.html.html" xlink:title=" ">
<polygon fill="none" stroke="black" points="5257,-73 5257,-92 5379,-92 5379,-73 5257,-73"/>
<text text-anchor="middle" x="5318" y="-80" font-family="Helvetica,sans-Serif" font-size="10.00">deal.II/base/utilities.h</text>
</a>
</g>
</g>
<!-- Node62&#45;&gt;Node64 -->
<g id="edge52" class="edge">
<title>Node62&#45;&gt;Node64</title>
<path fill="none" stroke="midnightblue" d="M4885.85,-141.83C4973.41,-133.65 5121.6,-118.34 5248,-98 5255.16,-96.85 5262.7,-95.47 5270.07,-94.02"/>
<polygon fill="midnightblue" stroke="midnightblue" points="5270.86,-97.43 5279.97,-92.02 5269.47,-90.57 5270.86,-97.43"/>
</g>
<!-- Node65 -->
<g id="node46" class="node">
<title>Node65</title>
<g id="a_node46"><a xlink:href="http://www.dealii.org/developer/doxygen/deal.II/component__mask_8h.html.html" xlink:title=" ">
<polygon fill="none" stroke="black" points="5397.5,-67.5 5397.5,-97.5 5514.5,-97.5 5514.5,-67.5 5397.5,-67.5"/>
<text text-anchor="start" x="5405.5" y="-85.5" font-family="Helvetica,sans-Serif" font-size="10.00">deal.II/fe/component</text>
<text text-anchor="middle" x="5456" y="-74.5" font-family="Helvetica,sans-Serif" font-size="10.00">_mask.h</text>
</a>
</g>
</g>
<!-- Node62&#45;&gt;Node65 -->
<g id="edge53" class="edge">
<title>Node62&#45;&gt;Node65</title>
<path fill="none" stroke="midnightblue" d="M4885.63,-144.86C4994.42,-138.97 5201.49,-125.3 5387.51,-97.94"/>
<polygon fill="midnightblue" stroke="midnightblue" points="5388.1,-101.39 5397.48,-96.46 5387.07,-94.47 5388.1,-101.39"/>
</g>
<!-- Node66 -->
<g id="node47" class="node">
<title>Node66</title>
<g id="a_node47"><a xlink:href="http://www.dealii.org/developer/doxygen/deal.II/fe__dgq_8h.html.html" xlink:title=" ">
<polygon fill="none" stroke="black" points="5533,-73 5533,-92 5637,-92 5637,-73 5533,-73"/>
<text text-anchor="middle" x="5585" y="-80" font-family="Helvetica,sans-Serif" font-size="10.00">deal.II/fe/fe_dgq.h</text>
</a>
</g>
</g>
<!-- Node62&#45;&gt;Node66 -->
<g id="edge54" class="edge">
<title>Node62&#45;&gt;Node66</title>
<path fill="none" stroke="midnightblue" d="M4885.63,-147.09C5016.3,-143.77 5292.48,-132.89 5523,-98 5529.46,-97.02 5536.23,-95.72 5542.84,-94.31"/>
<polygon fill="midnightblue" stroke="midnightblue" points="5544.03,-97.63 5553.01,-92.01 5542.48,-90.8 5544.03,-97.63"/>
</g>
<!-- Node67 -->
<g id="node48" class="node">
<title>Node67</title>
<g id="a_node48"><a xlink:href="http://www.dealii.org/developer/doxygen/deal.II/fe__simplex__p_8h.html.html" xlink:title=" ">
<polygon fill="none" stroke="black" points="4667.5,-73 4667.5,-92 4804.5,-92 4804.5,-73 4667.5,-73"/>
<text text-anchor="middle" x="4736" y="-80" font-family="Helvetica,sans-Serif" font-size="10.00">deal.II/fe/fe_simplex_p.h</text>
</a>
</g>
</g>
<!-- Node62&#45;&gt;Node67 -->
<g id="edge56" class="edge">
<title>Node62&#45;&gt;Node67</title>
<path fill="none" stroke="midnightblue" d="M4800.02,-139.73C4788.15,-129.31 4768.11,-111.71 4753.62,-98.97"/>
<polygon fill="midnightblue" stroke="midnightblue" points="4755.64,-96.1 4745.82,-92.13 4751.03,-101.36 4755.64,-96.1"/>
</g>
<!-- Node68 -->
<g id="node49" class="node">
<title>Node68</title>
<g id="a_node49"><a xlink:href="http://www.dealii.org/developer/doxygen/deal.II/fe__system_8h.html.html" xlink:title=" ">
<polygon fill="none" stroke="black" points="4823,-73 4823,-92 4945,-92 4945,-73 4823,-73"/>
<text text-anchor="middle" x="4884" y="-80" font-family="Helvetica,sans-Serif" font-size="10.00">deal.II/fe/fe_system.h</text>
</a>
</g>
</g>
<!-- Node62&#45;&gt;Node68 -->
<g id="edge57" class="edge">
<title>Node62&#45;&gt;Node68</title>
<path fill="none" stroke="midnightblue" d="M4819.98,-139.73C4831.85,-129.31 4851.89,-111.71 4866.38,-98.97"/>
<polygon fill="midnightblue" stroke="midnightblue" points="4868.97,-101.36 4874.18,-92.13 4864.36,-96.1 4868.97,-101.36"/>
</g>
<!-- Node69 -->
<g id="node50" class="node">
<title>Node69</title>
<g id="a_node50"><a xlink:href="enum_8h.html" target="_top" xlink:title=" ">
<polygon fill="none" stroke="red" points="4963.5,-73 4963.5,-92 5082.5,-92 5082.5,-73 4963.5,-73"/>
<text text-anchor="middle" x="5023" y="-80" font-family="Helvetica,sans-Serif" font-size="10.00">parsed_tools/enum.h</text>
</a>
</g>
</g>
<!-- Node62&#45;&gt;Node69 -->
<g id="edge59" class="edge">
<title>Node62&#45;&gt;Node69</title>
<path fill="none" stroke="midnightblue" d="M4838.28,-139.87C4876.11,-128.33 4943.25,-107.84 4985.33,-95"/>
<polygon fill="midnightblue" stroke="midnightblue" points="4986.39,-98.33 4994.94,-92.06 4984.35,-91.63 4986.39,-98.33"/>
</g>
<!-- Node69&#45;&gt;Node5 -->
<g id="edge60" class="edge">
<title>Node69&#45;&gt;Node5</title>
<path fill="none" stroke="midnightblue" d="M4987,-72.93C4976.42,-70.69 4964.79,-68.48 4954,-67 4706.04,-32.96 4409.71,-21.69 4268.99,-18.1"/>
<polygon fill="midnightblue" stroke="midnightblue" points="4268.8,-14.59 4258.72,-17.84 4268.63,-21.59 4268.8,-14.59"/>
</g>
</g>
</svg>
