<?xml version="1.0" encoding="UTF-8" standalone="no"?>
<!DOCTYPE svg PUBLIC "-//W3C//DTD SVG 1.1//EN"
 "http://www.w3.org/Graphics/SVG/1.1/DTD/svg11.dtd">
<!-- Generated by graphviz version 2.43.0 (0)
 -->
<!-- Title: source/pdes/stokes.cc Pages: 1 -->
<svg width="4838pt" height="274pt"
 viewBox="0.00 0.00 4838.38 274.00" xmlns="http://www.w3.org/2000/svg" xmlns:xlink="http://www.w3.org/1999/xlink">
<g id="graph0" class="graph" transform="scale(1 1) rotate(0) translate(4 270)">
<title>source/pdes/stokes.cc</title>
<!-- Node1 -->
<g id="node1" class="node">
<title>Node1</title>
<g id="a_node1"><a xlink:title=" ">
<polygon fill="#bfbfbf" stroke="black" points="3591.5,-246.5 3591.5,-265.5 3714.5,-265.5 3714.5,-246.5 3591.5,-246.5"/>
<text text-anchor="middle" x="3653" y="-253.5" font-family="Helvetica,sans-Serif" font-size="10.00">source/pdes/stokes.cc</text>
</a>
</g>
</g>
<!-- Node2 -->
<g id="node2" class="node">
<title>Node2</title>
<g id="a_node2"><a xlink:href="stokes_8h.html" target="_top" xlink:title=" ">
<polygon fill="none" stroke="black" points="3010.5,-190.5 3010.5,-209.5 3093.5,-209.5 3093.5,-190.5 3010.5,-190.5"/>
<text text-anchor="middle" x="3052" y="-197.5" font-family="Helvetica,sans-Serif" font-size="10.00">pdes/stokes.h</text>
</a>
</g>
</g>
<!-- Node1&#45;&gt;Node2 -->
<g id="edge1" class="edge">
<title>Node1&#45;&gt;Node2</title>
<path fill="none" stroke="midnightblue" d="M3591.23,-249.45C3472.54,-238.79 3214.62,-215.61 3104.04,-205.68"/>
<polygon fill="midnightblue" stroke="midnightblue" points="3104.09,-202.17 3093.81,-204.76 3103.46,-209.14 3104.09,-202.17"/>
</g>
<!-- Node10 -->
<g id="node10" class="node">
<title>Node10</title>
<g id="a_node10"><a target="_parent" xlink:href="http://www.dealii.org/developer/doxygen/deal.II/linear__operator__tools_8h.html.html" xlink:title=" ">
<polygon fill="none" stroke="black" points="3189.5,-0.5 3189.5,-30.5 3290.5,-30.5 3290.5,-0.5 3189.5,-0.5"/>
<text text-anchor="start" x="3197.5" y="-18.5" font-family="Helvetica,sans-Serif" font-size="10.00">deal.II/lac/linear</text>
<text text-anchor="middle" x="3240" y="-7.5" font-family="Helvetica,sans-Serif" font-size="10.00">_operator_tools.h</text>
</a>
</g>
</g>
<!-- Node1&#45;&gt;Node10 -->
<g id="edge54" class="edge">
<title>Node1&#45;&gt;Node10</title>
<path fill="none" stroke="midnightblue" d="M3714.66,-254.54C3976,-251.57 4971.75,-229.57 4813,-67 4784.63,-37.95 3438.6,-36.53 3300.6,-30.22"/>
<polygon fill="midnightblue" stroke="midnightblue" points="3300.81,-26.73 3290.6,-29.53 3300.33,-33.71 3300.81,-26.73"/>
</g>
<!-- Node33 -->
<g id="node32" class="node">
<title>Node33</title>
<g id="a_node32"><a target="_parent" xlink:href="http://www.dealii.org/developer/doxygen/deal.II/dof__tools_8h.html.html" xlink:title=" ">
<polygon fill="none" stroke="black" points="3166,-73 3166,-92 3294,-92 3294,-73 3166,-73"/>
<text text-anchor="middle" x="3230" y="-80" font-family="Helvetica,sans-Serif" font-size="10.00">deal.II/dofs/dof_tools.h</text>
</a>
</g>
</g>
<!-- Node1&#45;&gt;Node33 -->
<g id="edge53" class="edge">
<title>Node1&#45;&gt;Node33</title>
<path fill="none" stroke="midnightblue" d="M3632.02,-246.5C3562.89,-218.47 3342,-128.91 3260.55,-95.88"/>
<polygon fill="midnightblue" stroke="midnightblue" points="3261.69,-92.57 3251.1,-92.06 3259.06,-99.06 3261.69,-92.57"/>
</g>
<!-- Node60 -->
<g id="node43" class="node">
<title>Node60</title>
<g id="a_node43"><a xlink:href="components_8h.html" target="_top" xlink:title=" ">
<polygon fill="none" stroke="black" points="3979.5,-134.5 3979.5,-153.5 4130.5,-153.5 4130.5,-134.5 3979.5,-134.5"/>
<text text-anchor="middle" x="4055" y="-141.5" font-family="Helvetica,sans-Serif" font-size="10.00">parsed_tools/components.h</text>
</a>
</g>
</g>
<!-- Node1&#45;&gt;Node60 -->
<g id="edge55" class="edge">
<title>Node1&#45;&gt;Node60</title>
<path fill="none" stroke="midnightblue" d="M3684.21,-246.46C3756.12,-226.78 3933.48,-178.25 4014.02,-156.21"/>
<polygon fill="midnightblue" stroke="midnightblue" points="4015.09,-159.55 4023.81,-153.53 4013.24,-152.8 4015.09,-159.55"/>
</g>
<!-- Node3 -->
<g id="node3" class="node">
<title>Node3</title>
<g id="a_node3"><a xlink:href="amg_8h.html" target="_top" xlink:title=" ">
<polygon fill="none" stroke="black" points="3044.5,-73 3044.5,-92 3147.5,-92 3147.5,-73 3044.5,-73"/>
<text text-anchor="middle" x="3096" y="-80" font-family="Helvetica,sans-Serif" font-size="10.00">parsed_lac/amg.h</text>
</a>
</g>
</g>
<!-- Node2&#45;&gt;Node3 -->
<g id="edge2" class="edge">
<title>Node2&#45;&gt;Node3</title>
<path fill="none" stroke="midnightblue" d="M3055.31,-190.32C3062.44,-171.59 3079.41,-127.05 3089.03,-101.79"/>
<polygon fill="midnightblue" stroke="midnightblue" points="3092.37,-102.87 3092.65,-92.28 3085.82,-100.38 3092.37,-102.87"/>
</g>
<!-- Node7 -->
<g id="node7" class="node">
<title>Node7</title>
<g id="a_node7"><a xlink:href="ilu_8h.html" target="_top" xlink:title=" ">
<polygon fill="none" stroke="black" points="3312.5,-73 3312.5,-92 3405.5,-92 3405.5,-73 3312.5,-73"/>
<text text-anchor="middle" x="3359" y="-80" font-family="Helvetica,sans-Serif" font-size="10.00">parsed_lac/ilu.h</text>
</a>
</g>
</g>
<!-- Node2&#45;&gt;Node7 -->
<g id="edge6" class="edge">
<title>Node2&#45;&gt;Node7</title>
<path fill="none" stroke="midnightblue" d="M3074.82,-190.41C3128.66,-170.16 3263.74,-119.34 3326.28,-95.81"/>
<polygon fill="midnightblue" stroke="midnightblue" points="3327.9,-98.94 3336.03,-92.14 3325.43,-92.39 3327.9,-98.94"/>
</g>
<!-- Node8 -->
<g id="node8" class="node">
<title>Node8</title>
<g id="a_node8"><a xlink:href="inverse__operator_8h.html" target="_top" xlink:title=" ">
<polygon fill="none" stroke="black" points="422,-67.5 422,-97.5 530,-97.5 530,-67.5 422,-67.5"/>
<text text-anchor="start" x="430" y="-85.5" font-family="Helvetica,sans-Serif" font-size="10.00">parsed_lac/inverse</text>
<text text-anchor="middle" x="476" y="-74.5" font-family="Helvetica,sans-Serif" font-size="10.00">_operator.h</text>
</a>
</g>
</g>
<!-- Node2&#45;&gt;Node8 -->
<g id="edge10" class="edge">
<title>Node2&#45;&gt;Node8</title>
<path fill="none" stroke="midnightblue" d="M3010.27,-198.39C2725.69,-194.04 1066.33,-166.16 540.12,-97.96"/>
<polygon fill="midnightblue" stroke="midnightblue" points="540.55,-94.48 530.18,-96.64 539.63,-101.42 540.55,-94.48"/>
</g>
<!-- Node19 -->
<g id="node19" class="node">
<title>Node19</title>
<g id="a_node19"><a xlink:href="constants_8h.html" target="_top" xlink:title=" ">
<polygon fill="none" stroke="black" points="2888,-73 2888,-92 3026,-92 3026,-73 2888,-73"/>
<text text-anchor="middle" x="2957" y="-80" font-family="Helvetica,sans-Serif" font-size="10.00">parsed_tools/constants.h</text>
</a>
</g>
</g>
<!-- Node2&#45;&gt;Node19 -->
<g id="edge23" class="edge">
<title>Node2&#45;&gt;Node19</title>
<path fill="none" stroke="midnightblue" d="M3044.86,-190.32C3029.11,-171.17 2991.17,-125.04 2970.68,-100.13"/>
<polygon fill="midnightblue" stroke="midnightblue" points="2973.28,-97.78 2964.22,-92.28 2967.87,-102.23 2973.28,-97.78"/>
</g>
<!-- Node21 -->
<g id="node21" class="node">
<title>Node21</title>
<g id="a_node21"><a xlink:href="linear__problem_8h.html" target="_top" xlink:title=" ">
<polygon fill="none" stroke="red" points="1966.5,-134.5 1966.5,-153.5 2091.5,-153.5 2091.5,-134.5 1966.5,-134.5"/>
<text text-anchor="middle" x="2029" y="-141.5" font-family="Helvetica,sans-Serif" font-size="10.00">pdes/linear_problem.h</text>
</a>
</g>
</g>
<!-- Node2&#45;&gt;Node21 -->
<g id="edge26" class="edge">
<title>Node2&#45;&gt;Node21</title>
<path fill="none" stroke="midnightblue" d="M3010.31,-196.8C2853.98,-188.55 2301.36,-159.38 2101.67,-148.84"/>
<polygon fill="midnightblue" stroke="midnightblue" points="2101.75,-145.34 2091.58,-148.3 2101.38,-152.33 2101.75,-145.34"/>
</g>
<!-- Node4 -->
<g id="node4" class="node">
<title>Node4</title>
<g id="a_node4"><a target="_parent" xlink:href="http://www.dealii.org/developer/doxygen/deal.II/config_8h.html.html" xlink:title=" ">
<polygon fill="none" stroke="black" points="3057,-6 3057,-25 3171,-25 3171,-6 3057,-6"/>
<text text-anchor="middle" x="3114" y="-13" font-family="Helvetica,sans-Serif" font-size="10.00">deal.II/base/config.h</text>
</a>
</g>
</g>
<!-- Node3&#45;&gt;Node4 -->
<g id="edge3" class="edge">
<title>Node3&#45;&gt;Node4</title>
<path fill="none" stroke="midnightblue" d="M3098.43,-72.73C3101.1,-63.09 3105.47,-47.3 3108.9,-34.91"/>
<polygon fill="midnightblue" stroke="midnightblue" points="3112.32,-35.7 3111.61,-25.13 3105.57,-33.83 3112.32,-35.7"/>
</g>
<!-- Node5 -->
<g id="node5" class="node">
<title>Node5</title>
<g id="a_node5"><a target="_parent" xlink:href="http://www.dealii.org/developer/doxygen/deal.II/parameter__acceptor_8h.html.html" xlink:title=" ">
<polygon fill="none" stroke="black" points="2751.5,-0.5 2751.5,-30.5 2878.5,-30.5 2878.5,-0.5 2751.5,-0.5"/>
<text text-anchor="start" x="2759.5" y="-18.5" font-family="Helvetica,sans-Serif" font-size="10.00">deal.II/base/parameter</text>
<text text-anchor="middle" x="2815" y="-7.5" font-family="Helvetica,sans-Serif" font-size="10.00">_acceptor.h</text>
</a>
</g>
</g>
<!-- Node3&#45;&gt;Node5 -->
<g id="edge4" class="edge">
<title>Node3&#45;&gt;Node5</title>
<path fill="none" stroke="midnightblue" d="M3060.21,-72.94C3051.93,-70.98 3043.16,-68.91 3035,-67 2985.44,-55.42 2929.54,-42.59 2886.49,-32.76"/>
<polygon fill="midnightblue" stroke="midnightblue" points="2887.2,-29.33 2876.67,-30.52 2885.64,-36.16 2887.2,-29.33"/>
</g>
<!-- Node6 -->
<g id="node6" class="node">
<title>Node6</title>
<g id="a_node6"><a target="_parent" xlink:href="http://www.dealii.org/developer/doxygen/deal.II/trilinos__precondition_8h.html.html" xlink:title=" ">
<polygon fill="none" stroke="black" points="3308.5,-0.5 3308.5,-30.5 3409.5,-30.5 3409.5,-0.5 3308.5,-0.5"/>
<text text-anchor="start" x="3316.5" y="-18.5" font-family="Helvetica,sans-Serif" font-size="10.00">deal.II/lac/trilinos</text>
<text text-anchor="middle" x="3359" y="-7.5" font-family="Helvetica,sans-Serif" font-size="10.00">_precondition.h</text>
</a>
</g>
</g>
<!-- Node3&#45;&gt;Node6 -->
<g id="edge5" class="edge">
<title>Node3&#45;&gt;Node6</title>
<path fill="none" stroke="midnightblue" d="M3130.65,-72.94C3173.37,-62.38 3246.69,-44.26 3298.71,-31.4"/>
<polygon fill="midnightblue" stroke="midnightblue" points="3299.62,-34.78 3308.49,-28.98 3297.94,-27.98 3299.62,-34.78"/>
</g>
<!-- Node7&#45;&gt;Node4 -->
<g id="edge7" class="edge">
<title>Node7&#45;&gt;Node4</title>
<path fill="none" stroke="midnightblue" d="M3326.72,-72.94C3282.93,-61.32 3204.62,-40.54 3156.21,-27.7"/>
<polygon fill="midnightblue" stroke="midnightblue" points="3156.92,-24.26 3146.35,-25.08 3155.12,-31.03 3156.92,-24.26"/>
</g>
<!-- Node7&#45;&gt;Node5 -->
<g id="edge8" class="edge">
<title>Node7&#45;&gt;Node5</title>
<path fill="none" stroke="midnightblue" d="M3329.85,-72.97C3321.26,-70.72 3311.81,-68.51 3303,-67 3123.74,-36.24 3073.06,-56.34 2888.66,-30.97"/>
<polygon fill="midnightblue" stroke="midnightblue" points="2889.02,-27.49 2878.63,-29.57 2888.05,-34.42 2889.02,-27.49"/>
</g>
<!-- Node7&#45;&gt;Node6 -->
<g id="edge9" class="edge">
<title>Node7&#45;&gt;Node6</title>
<path fill="none" stroke="midnightblue" d="M3359,-72.73C3359,-64.54 3359,-51.92 3359,-40.71"/>
<polygon fill="midnightblue" stroke="midnightblue" points="3362.5,-40.59 3359,-30.59 3355.5,-40.59 3362.5,-40.59"/>
</g>
<!-- Node8&#45;&gt;Node4 -->
<g id="edge11" class="edge">
<title>Node8&#45;&gt;Node4</title>
<path fill="none" stroke="midnightblue" d="M530.17,-68.27C533.14,-67.78 536.1,-67.35 539,-67 1092.58,-0.09 2494.09,-95.15 3048,-31 3055.62,-30.12 3063.65,-28.74 3071.38,-27.18"/>
<polygon fill="midnightblue" stroke="midnightblue" points="3072.28,-30.57 3081.32,-25.05 3070.81,-23.72 3072.28,-30.57"/>
</g>
<!-- Node8&#45;&gt;Node5 -->
<g id="edge13" class="edge">
<title>Node8&#45;&gt;Node5</title>
<path fill="none" stroke="midnightblue" d="M530.17,-68.29C533.15,-67.8 536.1,-67.36 539,-67 979.69,-11.98 2400.65,-14.64 2741.17,-16.11"/>
<polygon fill="midnightblue" stroke="midnightblue" points="2741.38,-19.61 2751.4,-16.16 2741.41,-12.61 2741.38,-19.61"/>
</g>
<!-- Node9 -->
<g id="node9" class="node">
<title>Node9</title>
<g id="a_node9"><a target="_parent" xlink:href="http://www.dealii.org/developer/doxygen/deal.II/general__data__storage_8h.html.html" xlink:title=" ">
<polygon fill="none" stroke="black" points="716,-0.5 716,-30.5 850,-30.5 850,-0.5 716,-0.5"/>
<text text-anchor="start" x="724" y="-18.5" font-family="Helvetica,sans-Serif" font-size="10.00">deal.II/algorithms</text>
<text text-anchor="middle" x="783" y="-7.5" font-family="Helvetica,sans-Serif" font-size="10.00">/general_data_storage.h</text>
</a>
</g>
</g>
<!-- Node8&#45;&gt;Node9 -->
<g id="edge12" class="edge">
<title>Node8&#45;&gt;Node9</title>
<path fill="none" stroke="midnightblue" d="M530.28,-68.93C533.23,-68.27 536.15,-67.62 539,-67 594.73,-54.82 657.79,-41.79 705.84,-32.01"/>
<polygon fill="midnightblue" stroke="midnightblue" points="706.75,-35.4 715.86,-29.98 705.36,-28.54 706.75,-35.4"/>
</g>
<!-- Node8&#45;&gt;Node10 -->
<g id="edge14" class="edge">
<title>Node8&#45;&gt;Node10</title>
<path fill="none" stroke="midnightblue" d="M530.17,-68.26C533.14,-67.78 536.1,-67.35 539,-67 1118.46,2.83 2581.12,-103.19 3179.36,-30.81"/>
<polygon fill="midnightblue" stroke="midnightblue" points="3179.91,-34.27 3189.41,-29.57 3179.05,-27.32 3179.91,-34.27"/>
</g>
<!-- Node11 -->
<g id="node11" class="node">
<title>Node11</title>
<g id="a_node11"><a target="_parent" xlink:href="http://www.dealii.org/developer/doxygen/deal.II/solver_8h.html.html" xlink:title=" ">
<polygon fill="none" stroke="black" points="868.5,-6 868.5,-25 973.5,-25 973.5,-6 868.5,-6"/>
<text text-anchor="middle" x="921" y="-13" font-family="Helvetica,sans-Serif" font-size="10.00">deal.II/lac/solver.h</text>
</a>
</g>
</g>
<!-- Node8&#45;&gt;Node11 -->
<g id="edge15" class="edge">
<title>Node8&#45;&gt;Node11</title>
<path fill="none" stroke="midnightblue" d="M530.22,-68.61C533.18,-68.03 536.12,-67.49 539,-67 680.08,-42.91 717.97,-55.34 859,-31 865.15,-29.94 871.6,-28.64 877.92,-27.26"/>
<polygon fill="midnightblue" stroke="midnightblue" points="878.7,-30.67 887.68,-25.05 877.16,-23.85 878.7,-30.67"/>
</g>
<!-- Node12 -->
<g id="node12" class="node">
<title>Node12</title>
<g id="a_node12"><a target="_parent" xlink:href="http://www.dealii.org/developer/doxygen/deal.II/solver__bicgstab_8h.html.html" xlink:title=" ">
<polygon fill="none" stroke="black" points="991.5,-0.5 991.5,-30.5 1088.5,-30.5 1088.5,-0.5 991.5,-0.5"/>
<text text-anchor="start" x="999.5" y="-18.5" font-family="Helvetica,sans-Serif" font-size="10.00">deal.II/lac/solver</text>
<text text-anchor="middle" x="1040" y="-7.5" font-family="Helvetica,sans-Serif" font-size="10.00">_bicgstab.h</text>
</a>
</g>
</g>
<!-- Node8&#45;&gt;Node12 -->
<g id="edge16" class="edge">
<title>Node8&#45;&gt;Node12</title>
<path fill="none" stroke="midnightblue" d="M530.2,-68.5C533.17,-67.95 536.12,-67.45 539,-67 730.97,-37.27 785.29,-62.21 981.34,-30.9"/>
<polygon fill="midnightblue" stroke="midnightblue" points="982.08,-34.33 991.39,-29.27 980.95,-27.42 982.08,-34.33"/>
</g>
<!-- Node13 -->
<g id="node13" class="node">
<title>Node13</title>
<g id="a_node13"><a target="_parent" xlink:href="http://www.dealii.org/developer/doxygen/deal.II/solver__cg_8h.html.html" xlink:title=" ">
<polygon fill="none" stroke="black" points="0,-6 0,-25 122,-25 122,-6 0,-6"/>
<text text-anchor="middle" x="61" y="-13" font-family="Helvetica,sans-Serif" font-size="10.00">deal.II/lac/solver_cg.h</text>
</a>
</g>
</g>
<!-- Node8&#45;&gt;Node13 -->
<g id="edge17" class="edge">
<title>Node8&#45;&gt;Node13</title>
<path fill="none" stroke="midnightblue" d="M421.76,-74.57C353.67,-65.63 233.38,-49.08 131,-31 124.27,-29.81 117.19,-28.46 110.23,-27.08"/>
<polygon fill="midnightblue" stroke="midnightblue" points="110.66,-23.59 100.17,-25.04 109.27,-30.45 110.66,-23.59"/>
</g>
<!-- Node14 -->
<g id="node14" class="node">
<title>Node14</title>
<g id="a_node14"><a target="_parent" xlink:href="http://www.dealii.org/developer/doxygen/deal.II/solver__control_8h.html.html" xlink:title=" ">
<polygon fill="none" stroke="black" points="140.5,-0.5 140.5,-30.5 237.5,-30.5 237.5,-0.5 140.5,-0.5"/>
<text text-anchor="start" x="148.5" y="-18.5" font-family="Helvetica,sans-Serif" font-size="10.00">deal.II/lac/solver</text>
<text text-anchor="middle" x="189" y="-7.5" font-family="Helvetica,sans-Serif" font-size="10.00">_control.h</text>
</a>
</g>
</g>
<!-- Node8&#45;&gt;Node14 -->
<g id="edge18" class="edge">
<title>Node8&#45;&gt;Node14</title>
<path fill="none" stroke="midnightblue" d="M421.98,-70.16C377.58,-60.73 312.78,-46.68 247.8,-31.39"/>
<polygon fill="midnightblue" stroke="midnightblue" points="248.33,-27.92 237.79,-29.02 246.72,-34.73 248.33,-27.92"/>
</g>
<!-- Node15 -->
<g id="node15" class="node">
<title>Node15</title>
<g id="a_node15"><a target="_parent" xlink:href="http://www.dealii.org/developer/doxygen/deal.II/solver__gmres_8h.html.html" xlink:title=" ">
<polygon fill="none" stroke="black" points="255.5,-0.5 255.5,-30.5 352.5,-30.5 352.5,-0.5 255.5,-0.5"/>
<text text-anchor="start" x="263.5" y="-18.5" font-family="Helvetica,sans-Serif" font-size="10.00">deal.II/lac/solver</text>
<text text-anchor="middle" x="304" y="-7.5" font-family="Helvetica,sans-Serif" font-size="10.00">_gmres.h</text>
</a>
</g>
</g>
<!-- Node8&#45;&gt;Node15 -->
<g id="edge19" class="edge">
<title>Node8&#45;&gt;Node15</title>
<path fill="none" stroke="midnightblue" d="M438.68,-67.4C412.87,-57.64 378.34,-44.59 350.71,-34.15"/>
<polygon fill="midnightblue" stroke="midnightblue" points="351.84,-30.84 341.25,-30.58 349.37,-37.39 351.84,-30.84"/>
</g>
<!-- Node16 -->
<g id="node16" class="node">
<title>Node16</title>
<g id="a_node16"><a target="_parent" xlink:href="http://www.dealii.org/developer/doxygen/deal.II/solver__minres_8h.html.html" xlink:title=" ">
<polygon fill="none" stroke="black" points="370.5,-0.5 370.5,-30.5 467.5,-30.5 467.5,-0.5 370.5,-0.5"/>
<text text-anchor="start" x="378.5" y="-18.5" font-family="Helvetica,sans-Serif" font-size="10.00">deal.II/lac/solver</text>
<text text-anchor="middle" x="419" y="-7.5" font-family="Helvetica,sans-Serif" font-size="10.00">_minres.h</text>
</a>
</g>
</g>
<!-- Node8&#45;&gt;Node16 -->
<g id="edge20" class="edge">
<title>Node8&#45;&gt;Node16</title>
<path fill="none" stroke="midnightblue" d="M463.63,-67.4C456.16,-58.88 446.49,-47.85 438.06,-38.23"/>
<polygon fill="midnightblue" stroke="midnightblue" points="440.57,-35.79 431.34,-30.58 435.31,-40.4 440.57,-35.79"/>
</g>
<!-- Node17 -->
<g id="node17" class="node">
<title>Node17</title>
<g id="a_node17"><a target="_parent" xlink:href="http://www.dealii.org/developer/doxygen/deal.II/solver__qmrs_8h.html.html" xlink:title=" ">
<polygon fill="none" stroke="black" points="485.5,-0.5 485.5,-30.5 582.5,-30.5 582.5,-0.5 485.5,-0.5"/>
<text text-anchor="start" x="493.5" y="-18.5" font-family="Helvetica,sans-Serif" font-size="10.00">deal.II/lac/solver</text>
<text text-anchor="middle" x="534" y="-7.5" font-family="Helvetica,sans-Serif" font-size="10.00">_qmrs.h</text>
</a>
</g>
</g>
<!-- Node8&#45;&gt;Node17 -->
<g id="edge21" class="edge">
<title>Node8&#45;&gt;Node17</title>
<path fill="none" stroke="midnightblue" d="M488.59,-67.4C496.19,-58.88 506.03,-47.85 514.61,-38.23"/>
<polygon fill="midnightblue" stroke="midnightblue" points="517.39,-40.37 521.44,-30.58 512.17,-35.71 517.39,-40.37"/>
</g>
<!-- Node18 -->
<g id="node18" class="node">
<title>Node18</title>
<g id="a_node18"><a target="_parent" xlink:href="http://www.dealii.org/developer/doxygen/deal.II/solver__richardson_8h.html.html" xlink:title=" ">
<polygon fill="none" stroke="black" points="600.5,-0.5 600.5,-30.5 697.5,-30.5 697.5,-0.5 600.5,-0.5"/>
<text text-anchor="start" x="608.5" y="-18.5" font-family="Helvetica,sans-Serif" font-size="10.00">deal.II/lac/solver</text>
<text text-anchor="middle" x="649" y="-7.5" font-family="Helvetica,sans-Serif" font-size="10.00">_richardson.h</text>
</a>
</g>
</g>
<!-- Node8&#45;&gt;Node18 -->
<g id="edge22" class="edge">
<title>Node8&#45;&gt;Node18</title>
<path fill="none" stroke="midnightblue" d="M513.54,-67.4C539.5,-57.64 574.22,-44.59 602.02,-34.15"/>
<polygon fill="midnightblue" stroke="midnightblue" points="603.4,-37.37 611.53,-30.58 600.94,-30.82 603.4,-37.37"/>
</g>
<!-- Node19&#45;&gt;Node5 -->
<g id="edge24" class="edge">
<title>Node19&#45;&gt;Node5</title>
<path fill="none" stroke="midnightblue" d="M2938.14,-72.87C2917.02,-63.2 2882.17,-47.25 2854.93,-34.78"/>
<polygon fill="midnightblue" stroke="midnightblue" points="2856.2,-31.51 2845.65,-30.53 2853.28,-37.87 2856.2,-31.51"/>
</g>
<!-- Node20 -->
<g id="node20" class="node">
<title>Node20</title>
<g id="a_node20"><a target="_parent" xlink:href="http://www.dealii.org/developer/doxygen/deal.II/sd_8h.html.html" xlink:title=" ">
<polygon fill="none" stroke="black" points="2897,-6 2897,-25 3039,-25 3039,-6 2897,-6"/>
<text text-anchor="middle" x="2968" y="-13" font-family="Helvetica,sans-Serif" font-size="10.00">deal.II/differentiation/sd.h</text>
</a>
</g>
</g>
<!-- Node19&#45;&gt;Node20 -->
<g id="edge25" class="edge">
<title>Node19&#45;&gt;Node20</title>
<path fill="none" stroke="midnightblue" d="M2958.48,-72.73C2960.1,-63.18 2962.73,-47.62 2964.82,-35.28"/>
<polygon fill="midnightblue" stroke="midnightblue" points="2968.32,-35.57 2966.54,-25.13 2961.42,-34.4 2968.32,-35.57"/>
</g>
<!-- Node21&#45;&gt;Node3 -->
<g id="edge50" class="edge">
<title>Node21&#45;&gt;Node3</title>
<path fill="none" stroke="midnightblue" d="M2091.67,-141.75C2282.01,-137.69 2851.47,-123.68 3035,-98 3041.51,-97.09 3048.34,-95.8 3054.98,-94.37"/>
<polygon fill="midnightblue" stroke="midnightblue" points="3056.22,-97.67 3065.18,-92.02 3054.65,-90.85 3056.22,-97.67"/>
</g>
<!-- Node21&#45;&gt;Node5 -->
<g id="edge31" class="edge">
<title>Node21&#45;&gt;Node5</title>
<path fill="none" stroke="midnightblue" d="M1966.49,-141.67C1786.98,-137.54 1281.23,-123.68 1257,-98 1247.55,-87.98 1247.42,-76.9 1257,-67 1309.15,-13.14 2438.66,-14.69 2741.08,-16.07"/>
<polygon fill="midnightblue" stroke="midnightblue" points="2741.47,-19.58 2751.48,-16.12 2741.5,-12.58 2741.47,-19.58"/>
</g>
<!-- Node21&#45;&gt;Node8 -->
<g id="edge51" class="edge">
<title>Node21&#45;&gt;Node8</title>
<path fill="none" stroke="midnightblue" d="M1966.48,-142.74C1723.61,-141.5 841.78,-134.6 540.22,-97.94"/>
<polygon fill="midnightblue" stroke="midnightblue" points="540.53,-94.45 530.17,-96.68 539.66,-101.4 540.53,-94.45"/>
</g>
<!-- Node21&#45;&gt;Node13 -->
<g id="edge49" class="edge">
<title>Node21&#45;&gt;Node13</title>
<path fill="none" stroke="midnightblue" d="M1966.1,-142.93C1707,-142.36 721.48,-137.6 413,-98 296.95,-83.1 163.15,-46.65 99.07,-27.96"/>
<polygon fill="midnightblue" stroke="midnightblue" points="99.97,-24.58 89.39,-25.12 98,-31.29 99.97,-24.58"/>
</g>
<!-- Node21&#45;&gt;Node19 -->
<g id="edge52" class="edge">
<title>Node21&#45;&gt;Node19</title>
<path fill="none" stroke="midnightblue" d="M2091.54,-142.43C2232.43,-140.55 2585.19,-132.49 2878,-98 2887.15,-96.92 2896.85,-95.43 2906.19,-93.82"/>
<polygon fill="midnightblue" stroke="midnightblue" points="2906.92,-97.24 2916.15,-92.03 2905.69,-90.35 2906.92,-97.24"/>
</g>
<!-- Node22 -->
<g id="node22" class="node">
<title>Node22</title>
<g id="a_node22"><a target="_parent" xlink:href="http://www.dealii.org/developer/doxygen/deal.II/conditional__ostream_8h.html.html" xlink:title=" ">
<polygon fill="none" stroke="black" points="1266,-67.5 1266,-97.5 1396,-97.5 1396,-67.5 1266,-67.5"/>
<text text-anchor="start" x="1274" y="-85.5" font-family="Helvetica,sans-Serif" font-size="10.00">deal.II/base/conditional</text>
<text text-anchor="middle" x="1331" y="-74.5" font-family="Helvetica,sans-Serif" font-size="10.00">_ostream.h</text>
</a>
</g>
</g>
<!-- Node21&#45;&gt;Node22 -->
<g id="edge27" class="edge">
<title>Node21&#45;&gt;Node22</title>
<path fill="none" stroke="midnightblue" d="M1966.3,-141C1855.32,-136.91 1616.88,-125.64 1406.3,-98.07"/>
<polygon fill="midnightblue" stroke="midnightblue" points="1406.67,-94.59 1396.3,-96.74 1405.75,-101.52 1406.67,-94.59"/>
</g>
<!-- Node23 -->
<g id="node23" class="node">
<title>Node23</title>
<g id="a_node23"><a target="_parent" xlink:href="http://www.dealii.org/developer/doxygen/deal.II/convergence__table_8h.html.html" xlink:title=" ">
<polygon fill="none" stroke="black" points="1414,-67.5 1414,-97.5 1552,-97.5 1552,-67.5 1414,-67.5"/>
<text text-anchor="start" x="1422" y="-85.5" font-family="Helvetica,sans-Serif" font-size="10.00">deal.II/base/convergence</text>
<text text-anchor="middle" x="1483" y="-74.5" font-family="Helvetica,sans-Serif" font-size="10.00">_table.h</text>
</a>
</g>
</g>
<!-- Node21&#45;&gt;Node23 -->
<g id="edge28" class="edge">
<title>Node21&#45;&gt;Node23</title>
<path fill="none" stroke="midnightblue" d="M1966.34,-138.74C1878.39,-132.36 1713.12,-118.95 1562.62,-98.15"/>
<polygon fill="midnightblue" stroke="midnightblue" points="1562.66,-94.62 1552.27,-96.7 1561.69,-101.55 1562.66,-94.62"/>
</g>
<!-- Node24 -->
<g id="node24" class="node">
<title>Node24</title>
<g id="a_node24"><a target="_parent" xlink:href="http://www.dealii.org/developer/doxygen/deal.II/function_8h.html.html" xlink:title=" ">
<polygon fill="none" stroke="black" points="1570.5,-73 1570.5,-92 1695.5,-92 1695.5,-73 1570.5,-73"/>
<text text-anchor="middle" x="1633" y="-80" font-family="Helvetica,sans-Serif" font-size="10.00">deal.II/base/function.h</text>
</a>
</g>
</g>
<!-- Node21&#45;&gt;Node24 -->
<g id="edge29" class="edge">
<title>Node21&#45;&gt;Node24</title>
<path fill="none" stroke="midnightblue" d="M1966.41,-135.45C1901.03,-127.3 1795.56,-113.39 1705,-98 1697.91,-96.8 1690.46,-95.42 1683.14,-94"/>
<polygon fill="midnightblue" stroke="midnightblue" points="1683.77,-90.56 1673.28,-92.06 1682.42,-97.43 1683.77,-90.56"/>
</g>
<!-- Node25 -->
<g id="node25" class="node">
<title>Node25</title>
<g id="a_node25"><a target="_parent" xlink:href="http://www.dealii.org/developer/doxygen/deal.II/function__parser_8h.html.html" xlink:title=" ">
<polygon fill="none" stroke="black" points="1714,-67.5 1714,-97.5 1830,-97.5 1830,-67.5 1714,-67.5"/>
<text text-anchor="start" x="1722" y="-85.5" font-family="Helvetica,sans-Serif" font-size="10.00">deal.II/base/function</text>
<text text-anchor="middle" x="1772" y="-74.5" font-family="Helvetica,sans-Serif" font-size="10.00">_parser.h</text>
</a>
</g>
</g>
<!-- Node21&#45;&gt;Node25 -->
<g id="edge30" class="edge">
<title>Node21&#45;&gt;Node25</title>
<path fill="none" stroke="midnightblue" d="M1992.18,-134.48C1952.57,-125.31 1888.73,-110.52 1839.96,-99.23"/>
<polygon fill="midnightblue" stroke="midnightblue" points="1840.64,-95.8 1830.11,-96.95 1839.06,-102.62 1840.64,-95.8"/>
</g>
<!-- Node26 -->
<g id="node26" class="node">
<title>Node26</title>
<g id="a_node26"><a target="_parent" xlink:href="http://www.dealii.org/developer/doxygen/deal.II/quadrature__lib_8h.html.html" xlink:title=" ">
<polygon fill="none" stroke="black" points="3423.5,-67.5 3423.5,-97.5 3552.5,-97.5 3552.5,-67.5 3423.5,-67.5"/>
<text text-anchor="start" x="3431.5" y="-85.5" font-family="Helvetica,sans-Serif" font-size="10.00">deal.II/base/quadrature</text>
<text text-anchor="middle" x="3488" y="-74.5" font-family="Helvetica,sans-Serif" font-size="10.00">_lib.h</text>
</a>
</g>
</g>
<!-- Node21&#45;&gt;Node26 -->
<g id="edge32" class="edge">
<title>Node21&#45;&gt;Node26</title>
<path fill="none" stroke="midnightblue" d="M2091.88,-142.33C2324,-139.63 3133.3,-128.3 3413.08,-98.07"/>
<polygon fill="midnightblue" stroke="midnightblue" points="3413.66,-101.53 3423.21,-96.94 3412.88,-94.57 3413.66,-101.53"/>
</g>
<!-- Node27 -->
<g id="node27" class="node">
<title>Node27</title>
<g id="a_node27"><a target="_parent" xlink:href="http://www.dealii.org/developer/doxygen/deal.II/timer_8h.html.html" xlink:title=" ">
<polygon fill="none" stroke="black" points="1848,-73 1848,-92 1958,-92 1958,-73 1848,-73"/>
<text text-anchor="middle" x="1903" y="-80" font-family="Helvetica,sans-Serif" font-size="10.00">deal.II/base/timer.h</text>
</a>
</g>
</g>
<!-- Node21&#45;&gt;Node27 -->
<g id="edge33" class="edge">
<title>Node21&#45;&gt;Node27</title>
<path fill="none" stroke="midnightblue" d="M2010.95,-134.48C1989.8,-124.49 1954.56,-107.85 1930.12,-96.31"/>
<polygon fill="midnightblue" stroke="midnightblue" points="1931.56,-93.11 1921.02,-92.01 1928.57,-99.44 1931.56,-93.11"/>
</g>
<!-- Node28 -->
<g id="node28" class="node">
<title>Node28</title>
<g id="a_node28"><a target="_parent" xlink:href="http://www.dealii.org/developer/doxygen/deal.II/distributed_2grid__refinement_8h.html.html" xlink:title=" ">
<polygon fill="none" stroke="black" points="1976,-67.5 1976,-97.5 2082,-97.5 2082,-67.5 1976,-67.5"/>
<text text-anchor="start" x="1984" y="-85.5" font-family="Helvetica,sans-Serif" font-size="10.00">deal.II/distributed</text>
<text text-anchor="middle" x="2029" y="-74.5" font-family="Helvetica,sans-Serif" font-size="10.00">/grid_refinement.h</text>
</a>
</g>
</g>
<!-- Node21&#45;&gt;Node28 -->
<g id="edge34" class="edge">
<title>Node21&#45;&gt;Node28</title>
<path fill="none" stroke="midnightblue" d="M2029,-134.48C2029,-127.47 2029,-117.19 2029,-107.7"/>
<polygon fill="midnightblue" stroke="midnightblue" points="2032.5,-107.52 2029,-97.52 2025.5,-107.52 2032.5,-107.52"/>
</g>
<!-- Node29 -->
<g id="node29" class="node">
<title>Node29</title>
<g id="a_node29"><a target="_parent" xlink:href="http://www.dealii.org/developer/doxygen/deal.II/shared__tria_8h.html.html" xlink:title=" ">
<polygon fill="none" stroke="black" points="2100,-67.5 2100,-97.5 2202,-97.5 2202,-67.5 2100,-67.5"/>
<text text-anchor="start" x="2108" y="-85.5" font-family="Helvetica,sans-Serif" font-size="10.00">deal.II/distributed</text>
<text text-anchor="middle" x="2151" y="-74.5" font-family="Helvetica,sans-Serif" font-size="10.00">/shared_tria.h</text>
</a>
</g>
</g>
<!-- Node21&#45;&gt;Node29 -->
<g id="edge35" class="edge">
<title>Node21&#45;&gt;Node29</title>
<path fill="none" stroke="midnightblue" d="M2046.48,-134.48C2063.77,-126.04 2090.81,-112.86 2113.05,-102.01"/>
<polygon fill="midnightblue" stroke="midnightblue" points="2114.79,-105.05 2122.25,-97.52 2111.72,-98.76 2114.79,-105.05"/>
</g>
<!-- Node30 -->
<g id="node30" class="node">
<title>Node30</title>
<g id="a_node30"><a target="_parent" xlink:href="http://www.dealii.org/developer/doxygen/deal.II/distributed_2tria_8h.html.html" xlink:title=" ">
<polygon fill="none" stroke="black" points="2220,-67.5 2220,-97.5 2322,-97.5 2322,-67.5 2220,-67.5"/>
<text text-anchor="start" x="2228" y="-85.5" font-family="Helvetica,sans-Serif" font-size="10.00">deal.II/distributed</text>
<text text-anchor="middle" x="2271" y="-74.5" font-family="Helvetica,sans-Serif" font-size="10.00">/tria.h</text>
</a>
</g>
</g>
<!-- Node21&#45;&gt;Node30 -->
<g id="edge36" class="edge">
<title>Node21&#45;&gt;Node30</title>
<path fill="none" stroke="midnightblue" d="M2063.67,-134.48C2101.78,-125.1 2163.73,-109.87 2210.01,-98.5"/>
<polygon fill="midnightblue" stroke="midnightblue" points="2211.05,-101.84 2219.93,-96.06 2209.38,-95.05 2211.05,-101.84"/>
</g>
<!-- Node31 -->
<g id="node31" class="node">
<title>Node31</title>
<g id="a_node31"><a target="_parent" xlink:href="http://www.dealii.org/developer/doxygen/deal.II/dof__handler_8h.html.html" xlink:title=" ">
<polygon fill="none" stroke="red" points="2340,-73 2340,-92 2480,-92 2480,-73 2340,-73"/>
<text text-anchor="middle" x="2410" y="-80" font-family="Helvetica,sans-Serif" font-size="10.00">deal.II/dofs/dof_handler.h</text>
</a>
</g>
</g>
<!-- Node21&#45;&gt;Node31 -->
<g id="edge37" class="edge">
<title>Node21&#45;&gt;Node31</title>
<path fill="none" stroke="midnightblue" d="M2090.41,-134.47C2151.49,-125.83 2247.86,-111.82 2331,-98 2338.74,-96.71 2346.89,-95.29 2354.9,-93.86"/>
<polygon fill="midnightblue" stroke="midnightblue" points="2355.71,-97.27 2364.93,-92.04 2354.46,-90.38 2355.71,-97.27"/>
</g>
<!-- Node21&#45;&gt;Node33 -->
<g id="edge38" class="edge">
<title>Node21&#45;&gt;Node33</title>
<path fill="none" stroke="midnightblue" d="M2091.5,-141.79C2296.64,-137.63 2948.14,-122.76 3157,-98 3165.48,-96.99 3174.46,-95.54 3183.1,-93.94"/>
<polygon fill="midnightblue" stroke="midnightblue" points="3183.89,-97.35 3193.04,-92.01 3182.56,-90.48 3183.89,-97.35"/>
</g>
<!-- Node34 -->
<g id="node33" class="node">
<title>Node34</title>
<g id="a_node33"><a target="_parent" xlink:href="http://www.dealii.org/developer/doxygen/deal.II/fe__q_8h.html.html" xlink:title=" ">
<polygon fill="none" stroke="black" points="3571,-73 3571,-92 3663,-92 3663,-73 3571,-73"/>
<text text-anchor="middle" x="3617" y="-80" font-family="Helvetica,sans-Serif" font-size="10.00">deal.II/fe/fe_q.h</text>
</a>
</g>
</g>
<!-- Node21&#45;&gt;Node34 -->
<g id="edge39" class="edge">
<title>Node21&#45;&gt;Node34</title>
<path fill="none" stroke="midnightblue" d="M2091.65,-143.07C2342.01,-143.04 3271.14,-140.04 3562,-98 3567.82,-97.16 3573.91,-95.92 3579.83,-94.52"/>
<polygon fill="midnightblue" stroke="midnightblue" points="3580.73,-97.91 3589.56,-92.05 3579,-91.12 3580.73,-97.91"/>
</g>
<!-- Node35 -->
<g id="node34" class="node">
<title>Node35</title>
<g id="a_node34"><a target="_parent" xlink:href="http://www.dealii.org/developer/doxygen/deal.II/fe_2fe__values_8h.html.html" xlink:title=" ">
<polygon fill="none" stroke="black" points="2498.5,-73 2498.5,-92 2617.5,-92 2617.5,-73 2498.5,-73"/>
<text text-anchor="middle" x="2558" y="-80" font-family="Helvetica,sans-Serif" font-size="10.00">deal.II/fe/fe_values.h</text>
</a>
</g>
</g>
<!-- Node21&#45;&gt;Node35 -->
<g id="edge40" class="edge">
<title>Node21&#45;&gt;Node35</title>
<path fill="none" stroke="midnightblue" d="M2091.77,-139.05C2180.58,-132.96 2347.82,-119.67 2489,-98 2496.24,-96.89 2503.86,-95.51 2511.29,-94.04"/>
<polygon fill="midnightblue" stroke="midnightblue" points="2512.16,-97.43 2521.25,-92 2510.75,-90.58 2512.16,-97.43"/>
</g>
<!-- Node36 -->
<g id="node35" class="node">
<title>Node36</title>
<g id="a_node35"><a target="_parent" xlink:href="http://www.dealii.org/developer/doxygen/deal.II/fe__values__extractors_8h.html.html" xlink:title=" ">
<polygon fill="none" stroke="black" points="2636,-67.5 2636,-97.5 2746,-97.5 2746,-67.5 2636,-67.5"/>
<text text-anchor="start" x="2644" y="-85.5" font-family="Helvetica,sans-Serif" font-size="10.00">deal.II/fe/fe_values</text>
<text text-anchor="middle" x="2691" y="-74.5" font-family="Helvetica,sans-Serif" font-size="10.00">_extractors.h</text>
</a>
</g>
</g>
<!-- Node21&#45;&gt;Node36 -->
<g id="edge41" class="edge">
<title>Node21&#45;&gt;Node36</title>
<path fill="none" stroke="midnightblue" d="M2091.64,-141.25C2198.92,-137.6 2424.79,-127.09 2625.63,-97.88"/>
<polygon fill="midnightblue" stroke="midnightblue" points="2626.4,-101.31 2635.78,-96.39 2625.38,-94.38 2626.4,-101.31"/>
</g>
<!-- Node37 -->
<g id="node36" class="node">
<title>Node37</title>
<g id="a_node36"><a target="_parent" xlink:href="http://www.dealii.org/developer/doxygen/deal.II/mapping__q__generic_8h.html.html" xlink:title=" ">
<polygon fill="none" stroke="black" points="2764.5,-67.5 2764.5,-97.5 2869.5,-97.5 2869.5,-67.5 2764.5,-67.5"/>
<text text-anchor="start" x="2772.5" y="-85.5" font-family="Helvetica,sans-Serif" font-size="10.00">deal.II/fe/mapping</text>
<text text-anchor="middle" x="2817" y="-74.5" font-family="Helvetica,sans-Serif" font-size="10.00">_q_generic.h</text>
</a>
</g>
</g>
<!-- Node21&#45;&gt;Node37 -->
<g id="edge42" class="edge">
<title>Node21&#45;&gt;Node37</title>
<path fill="none" stroke="midnightblue" d="M2091.52,-142.65C2215.99,-141.18 2503.65,-133.98 2754.32,-97.91"/>
<polygon fill="midnightblue" stroke="midnightblue" points="2754.96,-101.35 2764.35,-96.45 2753.95,-94.43 2754.96,-101.35"/>
</g>
<!-- Node38 -->
<g id="node37" class="node">
<title>Node38</title>
<g id="a_node37"><a target="_parent" xlink:href="http://www.dealii.org/developer/doxygen/deal.II/grid__generator_8h.html.html" xlink:title=" ">
<polygon fill="none" stroke="red" points="548.5,-73 548.5,-92 699.5,-92 699.5,-73 548.5,-73"/>
<text text-anchor="middle" x="624" y="-80" font-family="Helvetica,sans-Serif" font-size="10.00">deal.II/grid/grid_generator.h</text>
</a>
</g>
</g>
<!-- Node21&#45;&gt;Node38 -->
<g id="edge43" class="edge">
<title>Node21&#45;&gt;Node38</title>
<path fill="none" stroke="midnightblue" d="M1966.38,-142C1738.9,-138.21 956.67,-123.58 708,-98 697.84,-96.96 687.06,-95.42 676.72,-93.74"/>
<polygon fill="midnightblue" stroke="midnightblue" points="677.02,-90.24 666.58,-92.01 675.85,-97.14 677.02,-90.24"/>
</g>
<!-- Node39 -->
<g id="node38" class="node">
<title>Node39</title>
<g id="a_node38"><a target="_parent" xlink:href="http://www.dealii.org/developer/doxygen/deal.II/grid_2tria_8h.html.html" xlink:title=" ">
<polygon fill="none" stroke="black" points="3681.5,-73 3681.5,-92 3778.5,-92 3778.5,-73 3681.5,-73"/>
<text text-anchor="middle" x="3730" y="-80" font-family="Helvetica,sans-Serif" font-size="10.00">deal.II/grid/tria.h</text>
</a>
</g>
</g>
<!-- Node21&#45;&gt;Node39 -->
<g id="edge44" class="edge">
<title>Node21&#45;&gt;Node39</title>
<path fill="none" stroke="midnightblue" d="M2091.64,-143.11C2353.09,-143.26 3358.19,-141 3672,-98 3678.28,-97.14 3684.86,-95.87 3691.24,-94.42"/>
<polygon fill="midnightblue" stroke="midnightblue" points="3692.14,-97.81 3701.03,-92.06 3690.49,-91 3692.14,-97.81"/>
</g>
<!-- Node40 -->
<g id="node39" class="node">
<title>Node40</title>
<g id="a_node39"><a target="_parent" xlink:href="http://www.dealii.org/developer/doxygen/deal.II/affine__constraints_8h.html.html" xlink:title=" ">
<polygon fill="none" stroke="black" points="717.5,-67.5 717.5,-97.5 812.5,-97.5 812.5,-67.5 717.5,-67.5"/>
<text text-anchor="start" x="725.5" y="-85.5" font-family="Helvetica,sans-Serif" font-size="10.00">deal.II/lac/affine</text>
<text text-anchor="middle" x="765" y="-74.5" font-family="Helvetica,sans-Serif" font-size="10.00">_constraints.h</text>
</a>
</g>
</g>
<!-- Node21&#45;&gt;Node40 -->
<g id="edge45" class="edge">
<title>Node21&#45;&gt;Node40</title>
<path fill="none" stroke="midnightblue" d="M1966.22,-142.41C1754.37,-140.17 1066.02,-130.59 822.94,-97.85"/>
<polygon fill="midnightblue" stroke="midnightblue" points="823.13,-94.35 812.75,-96.43 822.17,-101.28 823.13,-94.35"/>
</g>
<!-- Node41 -->
<g id="node40" class="node">
<title>Node41</title>
<g id="a_node40"><a target="_parent" xlink:href="http://www.dealii.org/developer/doxygen/deal.II/dynamic__sparsity__pattern_8h.html.html" xlink:title=" ">
<polygon fill="none" stroke="black" points="831,-67.5 831,-97.5 941,-97.5 941,-67.5 831,-67.5"/>
<text text-anchor="start" x="839" y="-85.5" font-family="Helvetica,sans-Serif" font-size="10.00">deal.II/lac/dynamic</text>
<text text-anchor="middle" x="886" y="-74.5" font-family="Helvetica,sans-Serif" font-size="10.00">_sparsity_pattern.h</text>
</a>
</g>
</g>
<!-- Node21&#45;&gt;Node41 -->
<g id="edge46" class="edge">
<title>Node21&#45;&gt;Node41</title>
<path fill="none" stroke="midnightblue" d="M1966.41,-141.88C1770.19,-138.14 1167.74,-124.83 951.07,-97.93"/>
<polygon fill="midnightblue" stroke="midnightblue" points="951.41,-94.44 941.04,-96.64 950.51,-101.39 951.41,-94.44"/>
</g>
<!-- Node42 -->
<g id="node41" class="node">
<title>Node42</title>
<g id="a_node41"><a target="_parent" xlink:href="http://www.dealii.org/developer/doxygen/deal.II/full__matrix_8h.html.html" xlink:title=" ">
<polygon fill="none" stroke="black" points="959.5,-73 959.5,-92 1088.5,-92 1088.5,-73 959.5,-73"/>
<text text-anchor="middle" x="1024" y="-80" font-family="Helvetica,sans-Serif" font-size="10.00">deal.II/lac/full_matrix.h</text>
</a>
</g>
</g>
<!-- Node21&#45;&gt;Node42 -->
<g id="edge47" class="edge">
<title>Node21&#45;&gt;Node42</title>
<path fill="none" stroke="midnightblue" d="M1966.28,-143.16C1815.76,-142.86 1422.39,-137.95 1097,-98 1088.61,-96.97 1079.74,-95.52 1071.19,-93.93"/>
<polygon fill="midnightblue" stroke="midnightblue" points="1071.82,-90.49 1061.34,-92.02 1070.49,-97.36 1071.82,-90.49"/>
</g>
<!-- Node43 -->
<g id="node42" class="node">
<title>Node43</title>
<g id="a_node42"><a target="_parent" xlink:href="http://www.dealii.org/developer/doxygen/deal.II/generic__linear__algebra_8h.html.html" xlink:title=" ">
<polygon fill="none" stroke="black" points="1106.5,-67.5 1106.5,-97.5 1209.5,-97.5 1209.5,-67.5 1106.5,-67.5"/>
<text text-anchor="start" x="1114.5" y="-85.5" font-family="Helvetica,sans-Serif" font-size="10.00">deal.II/lac/generic</text>
<text text-anchor="middle" x="1158" y="-74.5" font-family="Helvetica,sans-Serif" font-size="10.00">_linear_algebra.h</text>
</a>
</g>
</g>
<!-- Node21&#45;&gt;Node43 -->
<g id="edge48" class="edge">
<title>Node21&#45;&gt;Node43</title>
<path fill="none" stroke="midnightblue" d="M1966.3,-142.91C1830.4,-141.96 1498.76,-135.61 1224,-98 1222.55,-97.8 1221.08,-97.59 1219.6,-97.36"/>
<polygon fill="midnightblue" stroke="midnightblue" points="1220.18,-93.91 1209.74,-95.69 1219.01,-100.81 1220.18,-93.91"/>
</g>
<!-- Node60&#45;&gt;Node4 -->
<g id="edge56" class="edge">
<title>Node60&#45;&gt;Node4</title>
<path fill="none" stroke="midnightblue" d="M4130.79,-141.9C4206.76,-139.01 4316.18,-129.33 4343,-98 4351.96,-87.53 4352.59,-76.89 4343,-67 4298.04,-20.63 3245.11,-38.86 3181,-31 3173.36,-30.06 3165.31,-28.67 3157.53,-27.12"/>
<polygon fill="midnightblue" stroke="midnightblue" points="3158.04,-23.65 3147.54,-25.01 3156.6,-30.5 3158.04,-23.65"/>
</g>
<!-- Node60&#45;&gt;Node26 -->
<g id="edge58" class="edge">
<title>Node60&#45;&gt;Node26</title>
<path fill="none" stroke="midnightblue" d="M3979.13,-138.5C3884.17,-132.32 3716.38,-119.61 3562.61,-97.98"/>
<polygon fill="midnightblue" stroke="midnightblue" points="3562.9,-94.49 3552.51,-96.54 3561.91,-101.42 3562.9,-94.49"/>
</g>
<!-- Node60&#45;&gt;Node34 -->
<g id="edge62" class="edge">
<title>Node60&#45;&gt;Node34</title>
<path fill="none" stroke="midnightblue" d="M3979.16,-137.13C3901.75,-130.42 3778.34,-117.75 3673,-98 3667.63,-96.99 3662.02,-95.76 3656.51,-94.44"/>
<polygon fill="midnightblue" stroke="midnightblue" points="3657.32,-91.04 3646.77,-92.01 3655.62,-97.83 3657.32,-91.04"/>
</g>
<!-- Node60&#45;&gt;Node39 -->
<g id="edge65" class="edge">
<title>Node60&#45;&gt;Node39</title>
<path fill="none" stroke="midnightblue" d="M3996.42,-134.47C3942.16,-126.26 3859.32,-112.9 3788,-98 3782.86,-96.93 3777.49,-95.71 3772.18,-94.45"/>
<polygon fill="midnightblue" stroke="midnightblue" points="3772.65,-90.97 3762.11,-92 3771,-97.77 3772.65,-90.97"/>
</g>
<!-- Node61 -->
<g id="node44" class="node">
<title>Node61</title>
<g id="a_node44"><a target="_parent" xlink:href="http://www.dealii.org/developer/doxygen/deal.II/include_2deal_8II_2base_2quadrature_8h.html.html" xlink:title=" ">
<polygon fill="none" stroke="black" points="4390,-73 4390,-92 4528,-92 4528,-73 4390,-73"/>
<text text-anchor="middle" x="4459" y="-80" font-family="Helvetica,sans-Serif" font-size="10.00">deal.II/base/quadrature.h</text>
</a>
</g>
</g>
<!-- Node60&#45;&gt;Node61 -->
<g id="edge57" class="edge">
<title>Node60&#45;&gt;Node61</title>
<path fill="none" stroke="midnightblue" d="M4120.57,-134.47C4185.51,-125.86 4287.75,-111.89 4376,-98 4384.31,-96.69 4393.07,-95.24 4401.67,-93.78"/>
<polygon fill="midnightblue" stroke="midnightblue" points="4402.38,-97.2 4411.64,-92.06 4401.19,-90.31 4402.38,-97.2"/>
</g>
<!-- Node62 -->
<g id="node45" class="node">
<title>Node62</title>
<g id="a_node45"><a target="_parent" xlink:href="http://www.dealii.org/developer/doxygen/deal.II/include_2deal_8II_2base_2utilities_8h.html.html" xlink:title=" ">
<polygon fill="none" stroke="black" points="4546,-73 4546,-92 4668,-92 4668,-73 4546,-73"/>
<text text-anchor="middle" x="4607" y="-80" font-family="Helvetica,sans-Serif" font-size="10.00">deal.II/base/utilities.h</text>
</a>
</g>
</g>
<!-- Node60&#45;&gt;Node62 -->
<g id="edge59" class="edge">
<title>Node60&#45;&gt;Node62</title>
<path fill="none" stroke="midnightblue" d="M4130.87,-138.53C4226.09,-132.33 4394.25,-119.38 4537,-98 4544.42,-96.89 4552.25,-95.49 4559.87,-94.01"/>
<polygon fill="midnightblue" stroke="midnightblue" points="4560.61,-97.43 4569.72,-92.02 4559.23,-90.57 4560.61,-97.43"/>
</g>
<!-- Node63 -->
<g id="node46" class="node">
<title>Node63</title>
<g id="a_node46"><a target="_parent" xlink:href="http://www.dealii.org/developer/doxygen/deal.II/component__mask_8h.html.html" xlink:title=" ">
<polygon fill="none" stroke="black" points="4686.5,-67.5 4686.5,-97.5 4803.5,-97.5 4803.5,-67.5 4686.5,-67.5"/>
<text text-anchor="start" x="4694.5" y="-85.5" font-family="Helvetica,sans-Serif" font-size="10.00">deal.II/fe/component</text>
<text text-anchor="middle" x="4745" y="-74.5" font-family="Helvetica,sans-Serif" font-size="10.00">_mask.h</text>
</a>
</g>
</g>
<!-- Node60&#45;&gt;Node63 -->
<g id="edge60" class="edge">
<title>Node60&#45;&gt;Node63</title>
<path fill="none" stroke="midnightblue" d="M4130.52,-140.89C4246.03,-136.93 4473.62,-126.19 4676.54,-97.92"/>
<polygon fill="midnightblue" stroke="midnightblue" points="4677.07,-101.37 4686.49,-96.51 4676.1,-94.44 4677.07,-101.37"/>
</g>
<!-- Node64 -->
<g id="node47" class="node">
<title>Node64</title>
<g id="a_node47"><a target="_parent" xlink:href="http://www.dealii.org/developer/doxygen/deal.II/fe__dgq_8h.html.html" xlink:title=" ">
<polygon fill="none" stroke="black" points="3934,-73 3934,-92 4038,-92 4038,-73 3934,-73"/>
<text text-anchor="middle" x="3986" y="-80" font-family="Helvetica,sans-Serif" font-size="10.00">deal.II/fe/fe_dgq.h</text>
</a>
</g>
</g>
<!-- Node60&#45;&gt;Node64 -->
<g id="edge61" class="edge">
<title>Node60&#45;&gt;Node64</title>
<path fill="none" stroke="midnightblue" d="M4045.11,-134.48C4034.35,-125.2 4016.93,-110.17 4003.78,-98.83"/>
<polygon fill="midnightblue" stroke="midnightblue" points="4005.73,-95.89 3995.87,-92.01 4001.16,-101.19 4005.73,-95.89"/>
</g>
<!-- Node65 -->
<g id="node48" class="node">
<title>Node65</title>
<g id="a_node48"><a target="_parent" xlink:href="http://www.dealii.org/developer/doxygen/deal.II/fe__simplex__p_8h.html.html" xlink:title=" ">
<polygon fill="none" stroke="black" points="4056.5,-73 4056.5,-92 4193.5,-92 4193.5,-73 4056.5,-73"/>
<text text-anchor="middle" x="4125" y="-80" font-family="Helvetica,sans-Serif" font-size="10.00">deal.II/fe/fe_simplex_p.h</text>
</a>
</g>
</g>
<!-- Node60&#45;&gt;Node65 -->
<g id="edge63" class="edge">
<title>Node60&#45;&gt;Node65</title>
<path fill="none" stroke="midnightblue" d="M4065.03,-134.48C4076.05,-125.11 4093.96,-109.88 4107.34,-98.51"/>
<polygon fill="midnightblue" stroke="midnightblue" points="4109.64,-101.15 4114.99,-92.01 4105.1,-95.82 4109.64,-101.15"/>
</g>
<!-- Node66 -->
<g id="node49" class="node">
<title>Node66</title>
<g id="a_node49"><a target="_parent" xlink:href="http://www.dealii.org/developer/doxygen/deal.II/fe__system_8h.html.html" xlink:title=" ">
<polygon fill="none" stroke="black" points="4212,-73 4212,-92 4334,-92 4334,-73 4212,-73"/>
<text text-anchor="middle" x="4273" y="-80" font-family="Helvetica,sans-Serif" font-size="10.00">deal.II/fe/fe_system.h</text>
</a>
</g>
</g>
<!-- Node60&#45;&gt;Node66 -->
<g id="edge64" class="edge">
<title>Node60&#45;&gt;Node66</title>
<path fill="none" stroke="midnightblue" d="M4086.23,-134.48C4124.6,-124 4189.79,-106.21 4232.11,-94.66"/>
<polygon fill="midnightblue" stroke="midnightblue" points="4233.1,-98.02 4241.82,-92.01 4231.26,-91.27 4233.1,-98.02"/>
</g>
<!-- Node67 -->
<g id="node50" class="node">
<title>Node67</title>
<g id="a_node50"><a xlink:href="enum_8h.html" target="_top" xlink:title=" ">
<polygon fill="none" stroke="red" points="3796.5,-73 3796.5,-92 3915.5,-92 3915.5,-73 3796.5,-73"/>
<text text-anchor="middle" x="3856" y="-80" font-family="Helvetica,sans-Serif" font-size="10.00">parsed_tools/enum.h</text>
</a>
</g>
</g>
<!-- Node60&#45;&gt;Node67 -->
<g id="edge66" class="edge">
<title>Node60&#45;&gt;Node67</title>
<path fill="none" stroke="midnightblue" d="M4026.49,-134.48C3991.76,-124.09 3932.96,-106.51 3894.31,-94.95"/>
<polygon fill="midnightblue" stroke="midnightblue" points="3895.04,-91.52 3884.46,-92.01 3893.04,-98.23 3895.04,-91.52"/>
</g>
<!-- Node67&#45;&gt;Node20 -->
<g id="edge67" class="edge">
<title>Node67&#45;&gt;Node20</title>
<path fill="none" stroke="midnightblue" d="M3821.24,-72.96C3810.63,-70.66 3798.89,-68.42 3788,-67 3461.47,-24.53 3375.14,-68.44 3048,-31 3038.73,-29.94 3028.92,-28.46 3019.45,-26.85"/>
<polygon fill="midnightblue" stroke="midnightblue" points="3019.83,-23.36 3009.37,-25.06 3018.6,-30.25 3019.83,-23.36"/>
</g>
</g>
</svg>
