<?xml version="1.0" encoding="UTF-8" standalone="no"?>
<!DOCTYPE svg PUBLIC "-//W3C//DTD SVG 1.1//EN"
 "http://www.w3.org/Graphics/SVG/1.1/DTD/svg11.dtd">
<!-- Generated by graphviz version 2.43.0 (0)
 -->
<!-- Title: source/pdes/linear_elasticity.cc Pages: 1 -->
<svg width="5782pt" height="296pt"
 viewBox="0.00 0.00 5781.50 296.00" xmlns="http://www.w3.org/2000/svg" xmlns:xlink="http://www.w3.org/1999/xlink">
<g id="graph0" class="graph" transform="scale(1 1) rotate(0) translate(4 292)">
<title>source/pdes/linear_elasticity.cc</title>
<!-- Node1 -->
<g id="node1" class="node">
<title>Node1</title>
<g id="a_node1"><a xlink:title=" ">
<polygon fill="#bfbfbf" stroke="black" points="3589,-257.5 3589,-287.5 3695,-287.5 3695,-257.5 3589,-257.5"/>
<text text-anchor="start" x="3597" y="-275.5" font-family="Helvetica,sans-Serif" font-size="10.00">source/pdes/linear</text>
<text text-anchor="middle" x="3642" y="-264.5" font-family="Helvetica,sans-Serif" font-size="10.00">_elasticity.cc</text>
</a>
</g>
</g>
<!-- Node2 -->
<g id="node2" class="node">
<title>Node2</title>
<g id="a_node2"><a xlink:href="linear__elasticity_8h.html" target="_top" xlink:title=" ">
<polygon fill="none" stroke="black" points="2196,-196 2196,-215 2324,-215 2324,-196 2196,-196"/>
<text text-anchor="middle" x="2260" y="-203" font-family="Helvetica,sans-Serif" font-size="10.00">pdes/linear_elasticity.h</text>
</a>
</g>
</g>
<!-- Node1&#45;&gt;Node2 -->
<g id="edge1" class="edge">
<title>Node1&#45;&gt;Node2</title>
<path fill="none" stroke="midnightblue" d="M3588.67,-268.99C3375.21,-258.95 2582.01,-221.65 2334.36,-210"/>
<polygon fill="midnightblue" stroke="midnightblue" points="2334.18,-206.49 2324.03,-209.51 2333.85,-213.48 2334.18,-206.49"/>
</g>
<!-- Node87 -->
<g id="node41" class="node">
<title>Node87</title>
<g id="a_node41"><a target="_parent" xlink:href="http://www.dealii.org/developer/doxygen/deal.II/mesh__loop_8h.html.html" xlink:title=" ">
<polygon fill="none" stroke="black" points="3670,-190.5 3670,-220.5 3780,-220.5 3780,-190.5 3670,-190.5"/>
<text text-anchor="start" x="3678" y="-208.5" font-family="Helvetica,sans-Serif" font-size="10.00">deal.II/meshworker</text>
<text text-anchor="middle" x="3725" y="-197.5" font-family="Helvetica,sans-Serif" font-size="10.00">/mesh_loop.h</text>
</a>
</g>
</g>
<!-- Node1&#45;&gt;Node87 -->
<g id="edge42" class="edge">
<title>Node1&#45;&gt;Node87</title>
<path fill="none" stroke="midnightblue" d="M3660.01,-257.4C3671.43,-248.45 3686.39,-236.74 3699.08,-226.8"/>
<polygon fill="midnightblue" stroke="midnightblue" points="3701.31,-229.5 3707.03,-220.58 3696.99,-223.99 3701.31,-229.5"/>
</g>
<!-- Node59 -->
<g id="node42" class="node">
<title>Node59</title>
<g id="a_node42"><a xlink:href="components_8h.html" target="_top" xlink:title=" ">
<polygon fill="none" stroke="black" points="4861.5,-134.5 4861.5,-153.5 5012.5,-153.5 5012.5,-134.5 4861.5,-134.5"/>
<text text-anchor="middle" x="4937" y="-141.5" font-family="Helvetica,sans-Serif" font-size="10.00">parsed_tools/components.h</text>
</a>
</g>
</g>
<!-- Node1&#45;&gt;Node59 -->
<g id="edge43" class="edge">
<title>Node1&#45;&gt;Node59</title>
<path fill="none" stroke="midnightblue" d="M3640.62,-257.36C3639.68,-238.68 3641.25,-206.25 3661,-190 3706.92,-152.22 4572.5,-146.16 4851.27,-145.19"/>
<polygon fill="midnightblue" stroke="midnightblue" points="4851.35,-148.69 4861.34,-145.15 4851.33,-141.69 4851.35,-148.69"/>
</g>
<!-- Node3 -->
<g id="node3" class="node">
<title>Node3</title>
<g id="a_node3"><a xlink:href="constants_8h.html" target="_top" xlink:title=" ">
<polygon fill="none" stroke="black" points="0,-73 0,-92 138,-92 138,-73 0,-73"/>
<text text-anchor="middle" x="69" y="-80" font-family="Helvetica,sans-Serif" font-size="10.00">parsed_tools/constants.h</text>
</a>
</g>
</g>
<!-- Node2&#45;&gt;Node3 -->
<g id="edge2" class="edge">
<title>Node2&#45;&gt;Node3</title>
<path fill="none" stroke="midnightblue" d="M2195.66,-204.55C1937.14,-204.08 949.16,-195.6 144,-98 135.48,-96.97 126.48,-95.53 117.79,-93.96"/>
<polygon fill="midnightblue" stroke="midnightblue" points="118.24,-90.48 107.76,-92.07 116.94,-97.36 118.24,-90.48"/>
</g>
<!-- Node6 -->
<g id="node6" class="node">
<title>Node6</title>
<g id="a_node6"><a xlink:href="linear__problem_8h.html" target="_top" xlink:title=" ">
<polygon fill="none" stroke="red" points="2197.5,-134.5 2197.5,-153.5 2322.5,-153.5 2322.5,-134.5 2197.5,-134.5"/>
<text text-anchor="middle" x="2260" y="-141.5" font-family="Helvetica,sans-Serif" font-size="10.00">pdes/linear_problem.h</text>
</a>
</g>
</g>
<!-- Node2&#45;&gt;Node6 -->
<g id="edge5" class="edge">
<title>Node2&#45;&gt;Node6</title>
<path fill="none" stroke="midnightblue" d="M2260,-195.98C2260,-187.58 2260,-174.48 2260,-163.66"/>
<polygon fill="midnightblue" stroke="midnightblue" points="2263.5,-163.51 2260,-153.51 2256.5,-163.51 2263.5,-163.51"/>
</g>
<!-- Node4 -->
<g id="node4" class="node">
<title>Node4</title>
<g id="a_node4"><a target="_parent" xlink:href="http://www.dealii.org/developer/doxygen/deal.II/parameter__acceptor_8h.html.html" xlink:title=" ">
<polygon fill="none" stroke="black" points="53.5,-0.5 53.5,-30.5 180.5,-30.5 180.5,-0.5 53.5,-0.5"/>
<text text-anchor="start" x="61.5" y="-18.5" font-family="Helvetica,sans-Serif" font-size="10.00">deal.II/base/parameter</text>
<text text-anchor="middle" x="117" y="-7.5" font-family="Helvetica,sans-Serif" font-size="10.00">_acceptor.h</text>
</a>
</g>
</g>
<!-- Node3&#45;&gt;Node4 -->
<g id="edge3" class="edge">
<title>Node3&#45;&gt;Node4</title>
<path fill="none" stroke="midnightblue" d="M75.47,-72.73C81.9,-64.03 92.01,-50.34 100.64,-38.65"/>
<polygon fill="midnightblue" stroke="midnightblue" points="103.47,-40.71 106.6,-30.59 97.84,-36.55 103.47,-40.71"/>
</g>
<!-- Node5 -->
<g id="node5" class="node">
<title>Node5</title>
<g id="a_node5"><a target="_parent" xlink:href="http://www.dealii.org/developer/doxygen/deal.II/sd_8h.html.html" xlink:title=" ">
<polygon fill="none" stroke="black" points="2639,-6 2639,-25 2781,-25 2781,-6 2639,-6"/>
<text text-anchor="middle" x="2710" y="-13" font-family="Helvetica,sans-Serif" font-size="10.00">deal.II/differentiation/sd.h</text>
</a>
</g>
</g>
<!-- Node3&#45;&gt;Node5 -->
<g id="edge4" class="edge">
<title>Node3&#45;&gt;Node5</title>
<path fill="none" stroke="midnightblue" d="M127.6,-72.97C145.94,-70.62 166.28,-68.35 185,-67 676.61,-31.46 2252.3,-19.39 2628.69,-16.98"/>
<polygon fill="midnightblue" stroke="midnightblue" points="2628.97,-20.48 2638.95,-16.92 2628.93,-13.48 2628.97,-20.48"/>
</g>
<!-- Node6&#45;&gt;Node3 -->
<g id="edge41" class="edge">
<title>Node6&#45;&gt;Node3</title>
<path fill="none" stroke="midnightblue" d="M2197.32,-142.23C1869.52,-138.12 359.67,-118.24 152,-98 141.85,-97.01 131.06,-95.48 120.75,-93.79"/>
<polygon fill="midnightblue" stroke="midnightblue" points="121.08,-90.29 110.63,-92.04 119.89,-97.19 121.08,-90.29"/>
</g>
<!-- Node6&#45;&gt;Node4 -->
<g id="edge10" class="edge">
<title>Node6&#45;&gt;Node4</title>
<path fill="none" stroke="midnightblue" d="M2197.45,-142.35C1856.07,-138.74 231.48,-120.37 185,-98 159.6,-85.78 140.28,-59.06 128.84,-39.54"/>
<polygon fill="midnightblue" stroke="midnightblue" points="131.79,-37.65 123.86,-30.63 125.68,-41.06 131.79,-37.65"/>
</g>
<!-- Node7 -->
<g id="node7" class="node">
<title>Node7</title>
<g id="a_node7"><a target="_parent" xlink:href="http://www.dealii.org/developer/doxygen/deal.II/conditional__ostream_8h.html.html" xlink:title=" ">
<polygon fill="none" stroke="black" points="1186,-67.5 1186,-97.5 1316,-97.5 1316,-67.5 1186,-67.5"/>
<text text-anchor="start" x="1194" y="-85.5" font-family="Helvetica,sans-Serif" font-size="10.00">deal.II/base/conditional</text>
<text text-anchor="middle" x="1251" y="-74.5" font-family="Helvetica,sans-Serif" font-size="10.00">_ostream.h</text>
</a>
</g>
</g>
<!-- Node6&#45;&gt;Node7 -->
<g id="edge6" class="edge">
<title>Node6&#45;&gt;Node7</title>
<path fill="none" stroke="midnightblue" d="M2197.37,-143.12C2048.13,-142.74 1659.77,-137.76 1326.62,-98.07"/>
<polygon fill="midnightblue" stroke="midnightblue" points="1326.63,-94.55 1316.29,-96.83 1325.8,-101.5 1326.63,-94.55"/>
</g>
<!-- Node8 -->
<g id="node8" class="node">
<title>Node8</title>
<g id="a_node8"><a target="_parent" xlink:href="http://www.dealii.org/developer/doxygen/deal.II/convergence__table_8h.html.html" xlink:title=" ">
<polygon fill="none" stroke="black" points="1334,-67.5 1334,-97.5 1472,-97.5 1472,-67.5 1334,-67.5"/>
<text text-anchor="start" x="1342" y="-85.5" font-family="Helvetica,sans-Serif" font-size="10.00">deal.II/base/convergence</text>
<text text-anchor="middle" x="1403" y="-74.5" font-family="Helvetica,sans-Serif" font-size="10.00">_table.h</text>
</a>
</g>
</g>
<!-- Node6&#45;&gt;Node8 -->
<g id="edge7" class="edge">
<title>Node6&#45;&gt;Node8</title>
<path fill="none" stroke="midnightblue" d="M2197.41,-142.06C2066.45,-139.51 1753.85,-130.39 1482.3,-98.05"/>
<polygon fill="midnightblue" stroke="midnightblue" points="1482.6,-94.56 1472.25,-96.84 1481.76,-101.51 1482.6,-94.56"/>
</g>
<!-- Node9 -->
<g id="node9" class="node">
<title>Node9</title>
<g id="a_node9"><a target="_parent" xlink:href="http://www.dealii.org/developer/doxygen/deal.II/function_8h.html.html" xlink:title=" ">
<polygon fill="none" stroke="black" points="1490.5,-73 1490.5,-92 1615.5,-92 1615.5,-73 1490.5,-73"/>
<text text-anchor="middle" x="1553" y="-80" font-family="Helvetica,sans-Serif" font-size="10.00">deal.II/base/function.h</text>
</a>
</g>
</g>
<!-- Node6&#45;&gt;Node9 -->
<g id="edge8" class="edge">
<title>Node6&#45;&gt;Node9</title>
<path fill="none" stroke="midnightblue" d="M2197.09,-141.21C2082.73,-137.36 1833.36,-126.25 1625,-98 1617.09,-96.93 1608.75,-95.51 1600.66,-93.99"/>
<polygon fill="midnightblue" stroke="midnightblue" points="1601.07,-90.5 1590.59,-92.01 1599.73,-97.37 1601.07,-90.5"/>
</g>
<!-- Node10 -->
<g id="node10" class="node">
<title>Node10</title>
<g id="a_node10"><a target="_parent" xlink:href="http://www.dealii.org/developer/doxygen/deal.II/function__parser_8h.html.html" xlink:title=" ">
<polygon fill="none" stroke="black" points="1634,-67.5 1634,-97.5 1750,-97.5 1750,-67.5 1634,-67.5"/>
<text text-anchor="start" x="1642" y="-85.5" font-family="Helvetica,sans-Serif" font-size="10.00">deal.II/base/function</text>
<text text-anchor="middle" x="1692" y="-74.5" font-family="Helvetica,sans-Serif" font-size="10.00">_parser.h</text>
</a>
</g>
</g>
<!-- Node6&#45;&gt;Node10 -->
<g id="edge9" class="edge">
<title>Node6&#45;&gt;Node10</title>
<path fill="none" stroke="midnightblue" d="M2197.22,-139.86C2103.98,-134.64 1923.3,-122.41 1760.24,-98.06"/>
<polygon fill="midnightblue" stroke="midnightblue" points="1760.43,-94.55 1750.02,-96.52 1759.39,-101.47 1760.43,-94.55"/>
</g>
<!-- Node11 -->
<g id="node11" class="node">
<title>Node11</title>
<g id="a_node11"><a target="_parent" xlink:href="http://www.dealii.org/developer/doxygen/deal.II/quadrature__lib_8h.html.html" xlink:title=" ">
<polygon fill="none" stroke="black" points="4298.5,-67.5 4298.5,-97.5 4427.5,-97.5 4427.5,-67.5 4298.5,-67.5"/>
<text text-anchor="start" x="4306.5" y="-85.5" font-family="Helvetica,sans-Serif" font-size="10.00">deal.II/base/quadrature</text>
<text text-anchor="middle" x="4363" y="-74.5" font-family="Helvetica,sans-Serif" font-size="10.00">_lib.h</text>
</a>
</g>
</g>
<!-- Node6&#45;&gt;Node11 -->
<g id="edge11" class="edge">
<title>Node6&#45;&gt;Node11</title>
<path fill="none" stroke="midnightblue" d="M2322.72,-143.06C2618.09,-143.1 3872.97,-140.8 4287.88,-97.95"/>
<polygon fill="midnightblue" stroke="midnightblue" points="4288.55,-101.4 4298.12,-96.86 4287.81,-94.44 4288.55,-101.4"/>
</g>
<!-- Node12 -->
<g id="node12" class="node">
<title>Node12</title>
<g id="a_node12"><a target="_parent" xlink:href="http://www.dealii.org/developer/doxygen/deal.II/timer_8h.html.html" xlink:title=" ">
<polygon fill="none" stroke="black" points="1768,-73 1768,-92 1878,-92 1878,-73 1768,-73"/>
<text text-anchor="middle" x="1823" y="-80" font-family="Helvetica,sans-Serif" font-size="10.00">deal.II/base/timer.h</text>
</a>
</g>
</g>
<!-- Node6&#45;&gt;Node12 -->
<g id="edge12" class="edge">
<title>Node6&#45;&gt;Node12</title>
<path fill="none" stroke="midnightblue" d="M2197.35,-137.43C2123,-130.35 1995.46,-116.78 1887,-98 1880.74,-96.92 1874.17,-95.62 1867.72,-94.25"/>
<polygon fill="midnightblue" stroke="midnightblue" points="1868.26,-90.78 1857.75,-92.05 1866.76,-97.62 1868.26,-90.78"/>
</g>
<!-- Node13 -->
<g id="node13" class="node">
<title>Node13</title>
<g id="a_node13"><a target="_parent" xlink:href="http://www.dealii.org/developer/doxygen/deal.II/distributed_2grid__refinement_8h.html.html" xlink:title=" ">
<polygon fill="none" stroke="black" points="1896,-67.5 1896,-97.5 2002,-97.5 2002,-67.5 1896,-67.5"/>
<text text-anchor="start" x="1904" y="-85.5" font-family="Helvetica,sans-Serif" font-size="10.00">deal.II/distributed</text>
<text text-anchor="middle" x="1949" y="-74.5" font-family="Helvetica,sans-Serif" font-size="10.00">/grid_refinement.h</text>
</a>
</g>
</g>
<!-- Node6&#45;&gt;Node13 -->
<g id="edge13" class="edge">
<title>Node6&#45;&gt;Node13</title>
<path fill="none" stroke="midnightblue" d="M2208.35,-134.46C2160.05,-126.29 2085.7,-113.26 2011.98,-98.14"/>
<polygon fill="midnightblue" stroke="midnightblue" points="2012.56,-94.69 2002.06,-96.1 2011.15,-101.55 2012.56,-94.69"/>
</g>
<!-- Node14 -->
<g id="node14" class="node">
<title>Node14</title>
<g id="a_node14"><a target="_parent" xlink:href="http://www.dealii.org/developer/doxygen/deal.II/shared__tria_8h.html.html" xlink:title=" ">
<polygon fill="none" stroke="black" points="2020,-67.5 2020,-97.5 2122,-97.5 2122,-67.5 2020,-67.5"/>
<text text-anchor="start" x="2028" y="-85.5" font-family="Helvetica,sans-Serif" font-size="10.00">deal.II/distributed</text>
<text text-anchor="middle" x="2071" y="-74.5" font-family="Helvetica,sans-Serif" font-size="10.00">/shared_tria.h</text>
</a>
</g>
</g>
<!-- Node6&#45;&gt;Node14 -->
<g id="edge14" class="edge">
<title>Node6&#45;&gt;Node14</title>
<path fill="none" stroke="midnightblue" d="M2232.92,-134.48C2204.93,-125.66 2160.48,-111.67 2125.22,-100.57"/>
<polygon fill="midnightblue" stroke="midnightblue" points="2126.13,-97.19 2115.54,-97.52 2124.03,-103.86 2126.13,-97.19"/>
</g>
<!-- Node15 -->
<g id="node15" class="node">
<title>Node15</title>
<g id="a_node15"><a target="_parent" xlink:href="http://www.dealii.org/developer/doxygen/deal.II/distributed_2tria_8h.html.html" xlink:title=" ">
<polygon fill="none" stroke="black" points="2140,-67.5 2140,-97.5 2242,-97.5 2242,-67.5 2140,-67.5"/>
<text text-anchor="start" x="2148" y="-85.5" font-family="Helvetica,sans-Serif" font-size="10.00">deal.II/distributed</text>
<text text-anchor="middle" x="2191" y="-74.5" font-family="Helvetica,sans-Serif" font-size="10.00">/tria.h</text>
</a>
</g>
</g>
<!-- Node6&#45;&gt;Node15 -->
<g id="edge15" class="edge">
<title>Node6&#45;&gt;Node15</title>
<path fill="none" stroke="midnightblue" d="M2250.11,-134.48C2240.94,-126.57 2226.93,-114.48 2214.85,-104.07"/>
<polygon fill="midnightblue" stroke="midnightblue" points="2217.12,-101.4 2207.26,-97.52 2212.55,-106.7 2217.12,-101.4"/>
</g>
<!-- Node16 -->
<g id="node16" class="node">
<title>Node16</title>
<g id="a_node16"><a target="_parent" xlink:href="http://www.dealii.org/developer/doxygen/deal.II/dof__handler_8h.html.html" xlink:title=" ">
<polygon fill="none" stroke="red" points="2260,-73 2260,-92 2400,-92 2400,-73 2260,-73"/>
<text text-anchor="middle" x="2330" y="-80" font-family="Helvetica,sans-Serif" font-size="10.00">deal.II/dofs/dof_handler.h</text>
</a>
</g>
</g>
<!-- Node6&#45;&gt;Node16 -->
<g id="edge16" class="edge">
<title>Node6&#45;&gt;Node16</title>
<path fill="none" stroke="midnightblue" d="M2270.03,-134.48C2281.05,-125.11 2298.96,-109.88 2312.34,-98.51"/>
<polygon fill="midnightblue" stroke="midnightblue" points="2314.64,-101.15 2319.99,-92.01 2310.1,-95.82 2314.64,-101.15"/>
</g>
<!-- Node18 -->
<g id="node17" class="node">
<title>Node18</title>
<g id="a_node17"><a target="_parent" xlink:href="http://www.dealii.org/developer/doxygen/deal.II/dof__tools_8h.html.html" xlink:title=" ">
<polygon fill="none" stroke="black" points="2418,-73 2418,-92 2546,-92 2546,-73 2418,-73"/>
<text text-anchor="middle" x="2482" y="-80" font-family="Helvetica,sans-Serif" font-size="10.00">deal.II/dofs/dof_tools.h</text>
</a>
</g>
</g>
<!-- Node6&#45;&gt;Node18 -->
<g id="edge17" class="edge">
<title>Node6&#45;&gt;Node18</title>
<path fill="none" stroke="midnightblue" d="M2291.81,-134.48C2330.88,-124 2397.26,-106.21 2440.36,-94.66"/>
<polygon fill="midnightblue" stroke="midnightblue" points="2441.5,-97.98 2450.25,-92.01 2439.69,-91.22 2441.5,-97.98"/>
</g>
<!-- Node19 -->
<g id="node18" class="node">
<title>Node19</title>
<g id="a_node18"><a target="_parent" xlink:href="http://www.dealii.org/developer/doxygen/deal.II/fe__q_8h.html.html" xlink:title=" ">
<polygon fill="none" stroke="black" points="4446,-73 4446,-92 4538,-92 4538,-73 4446,-73"/>
<text text-anchor="middle" x="4492" y="-80" font-family="Helvetica,sans-Serif" font-size="10.00">deal.II/fe/fe_q.h</text>
</a>
</g>
</g>
<!-- Node6&#45;&gt;Node19 -->
<g id="edge18" class="edge">
<title>Node6&#45;&gt;Node19</title>
<path fill="none" stroke="midnightblue" d="M2322.56,-142.59C2656.65,-140.29 4223.14,-127.97 4437,-98 4442.89,-97.17 4449.05,-95.94 4455.03,-94.52"/>
<polygon fill="midnightblue" stroke="midnightblue" points="4456.02,-97.88 4464.84,-92.02 4454.29,-91.1 4456.02,-97.88"/>
</g>
<!-- Node20 -->
<g id="node19" class="node">
<title>Node20</title>
<g id="a_node19"><a target="_parent" xlink:href="http://www.dealii.org/developer/doxygen/deal.II/fe_2fe__values_8h.html.html" xlink:title=" ">
<polygon fill="none" stroke="black" points="2564.5,-73 2564.5,-92 2683.5,-92 2683.5,-73 2564.5,-73"/>
<text text-anchor="middle" x="2624" y="-80" font-family="Helvetica,sans-Serif" font-size="10.00">deal.II/fe/fe_values.h</text>
</a>
</g>
</g>
<!-- Node6&#45;&gt;Node20 -->
<g id="edge19" class="edge">
<title>Node6&#45;&gt;Node20</title>
<path fill="none" stroke="midnightblue" d="M2322.61,-134.48C2382.44,-126.1 2475.09,-112.48 2555,-98 2561.64,-96.8 2568.61,-95.44 2575.47,-94.05"/>
<polygon fill="midnightblue" stroke="midnightblue" points="2576.3,-97.46 2585.39,-92.01 2574.89,-90.6 2576.3,-97.46"/>
</g>
<!-- Node21 -->
<g id="node20" class="node">
<title>Node21</title>
<g id="a_node20"><a target="_parent" xlink:href="http://www.dealii.org/developer/doxygen/deal.II/fe__values__extractors_8h.html.html" xlink:title=" ">
<polygon fill="none" stroke="black" points="2702,-67.5 2702,-97.5 2812,-97.5 2812,-67.5 2702,-67.5"/>
<text text-anchor="start" x="2710" y="-85.5" font-family="Helvetica,sans-Serif" font-size="10.00">deal.II/fe/fe_values</text>
<text text-anchor="middle" x="2757" y="-74.5" font-family="Helvetica,sans-Serif" font-size="10.00">_extractors.h</text>
</a>
</g>
</g>
<!-- Node6&#45;&gt;Node21 -->
<g id="edge20" class="edge">
<title>Node6&#45;&gt;Node21</title>
<path fill="none" stroke="midnightblue" d="M2322.54,-138.77C2404.85,-132.69 2554.18,-119.91 2691.87,-97.88"/>
<polygon fill="midnightblue" stroke="midnightblue" points="2692.45,-101.33 2701.77,-96.28 2691.34,-94.42 2692.45,-101.33"/>
</g>
<!-- Node22 -->
<g id="node21" class="node">
<title>Node22</title>
<g id="a_node21"><a target="_parent" xlink:href="http://www.dealii.org/developer/doxygen/deal.II/mapping__q__generic_8h.html.html" xlink:title=" ">
<polygon fill="none" stroke="black" points="2830.5,-67.5 2830.5,-97.5 2935.5,-97.5 2935.5,-67.5 2830.5,-67.5"/>
<text text-anchor="start" x="2838.5" y="-85.5" font-family="Helvetica,sans-Serif" font-size="10.00">deal.II/fe/mapping</text>
<text text-anchor="middle" x="2883" y="-74.5" font-family="Helvetica,sans-Serif" font-size="10.00">_q_generic.h</text>
</a>
</g>
</g>
<!-- Node6&#45;&gt;Node22 -->
<g id="edge21" class="edge">
<title>Node6&#45;&gt;Node22</title>
<path fill="none" stroke="midnightblue" d="M2322.62,-141.04C2424.83,-137.16 2633.92,-126.42 2820.36,-97.93"/>
<polygon fill="midnightblue" stroke="midnightblue" points="2820.99,-101.37 2830.34,-96.38 2819.92,-94.45 2820.99,-101.37"/>
</g>
<!-- Node23 -->
<g id="node22" class="node">
<title>Node23</title>
<g id="a_node22"><a target="_parent" xlink:href="http://www.dealii.org/developer/doxygen/deal.II/grid__generator_8h.html.html" xlink:title=" ">
<polygon fill="none" stroke="red" points="2953.5,-73 2953.5,-92 3104.5,-92 3104.5,-73 2953.5,-73"/>
<text text-anchor="middle" x="3029" y="-80" font-family="Helvetica,sans-Serif" font-size="10.00">deal.II/grid/grid_generator.h</text>
</a>
</g>
</g>
<!-- Node6&#45;&gt;Node23 -->
<g id="edge22" class="edge">
<title>Node6&#45;&gt;Node23</title>
<path fill="none" stroke="midnightblue" d="M2322.91,-141.03C2443.67,-136.78 2716.19,-124.85 2944,-98 2953.81,-96.84 2964.21,-95.32 2974.25,-93.69"/>
<polygon fill="midnightblue" stroke="midnightblue" points="2974.84,-97.14 2984.13,-92.05 2973.69,-90.24 2974.84,-97.14"/>
</g>
<!-- Node24 -->
<g id="node23" class="node">
<title>Node24</title>
<g id="a_node23"><a target="_parent" xlink:href="http://www.dealii.org/developer/doxygen/deal.II/grid_2tria_8h.html.html" xlink:title=" ">
<polygon fill="none" stroke="black" points="4556.5,-73 4556.5,-92 4653.5,-92 4653.5,-73 4556.5,-73"/>
<text text-anchor="middle" x="4605" y="-80" font-family="Helvetica,sans-Serif" font-size="10.00">deal.II/grid/tria.h</text>
</a>
</g>
</g>
<!-- Node6&#45;&gt;Node24 -->
<g id="edge23" class="edge">
<title>Node6&#45;&gt;Node24</title>
<path fill="none" stroke="midnightblue" d="M2322.59,-142.61C2666.73,-140.36 4321.45,-128.02 4547,-98 4553.35,-97.16 4560,-95.88 4566.45,-94.42"/>
<polygon fill="midnightblue" stroke="midnightblue" points="4567.44,-97.78 4576.34,-92.02 4565.79,-90.98 4567.44,-97.78"/>
</g>
<!-- Node25 -->
<g id="node24" class="node">
<title>Node25</title>
<g id="a_node24"><a target="_parent" xlink:href="http://www.dealii.org/developer/doxygen/deal.II/affine__constraints_8h.html.html" xlink:title=" ">
<polygon fill="none" stroke="black" points="3122.5,-67.5 3122.5,-97.5 3217.5,-97.5 3217.5,-67.5 3122.5,-67.5"/>
<text text-anchor="start" x="3130.5" y="-85.5" font-family="Helvetica,sans-Serif" font-size="10.00">deal.II/lac/affine</text>
<text text-anchor="middle" x="3170" y="-74.5" font-family="Helvetica,sans-Serif" font-size="10.00">_constraints.h</text>
</a>
</g>
</g>
<!-- Node6&#45;&gt;Node25 -->
<g id="edge24" class="edge">
<title>Node6&#45;&gt;Node25</title>
<path fill="none" stroke="midnightblue" d="M2322.64,-141.29C2489.3,-136.5 2941.91,-121.79 3112.17,-97.85"/>
<polygon fill="midnightblue" stroke="midnightblue" points="3112.86,-101.29 3122.25,-96.37 3111.84,-94.36 3112.86,-101.29"/>
</g>
<!-- Node26 -->
<g id="node25" class="node">
<title>Node26</title>
<g id="a_node25"><a target="_parent" xlink:href="http://www.dealii.org/developer/doxygen/deal.II/dynamic__sparsity__pattern_8h.html.html" xlink:title=" ">
<polygon fill="none" stroke="black" points="3236,-67.5 3236,-97.5 3346,-97.5 3346,-67.5 3236,-67.5"/>
<text text-anchor="start" x="3244" y="-85.5" font-family="Helvetica,sans-Serif" font-size="10.00">deal.II/lac/dynamic</text>
<text text-anchor="middle" x="3291" y="-74.5" font-family="Helvetica,sans-Serif" font-size="10.00">_sparsity_pattern.h</text>
</a>
</g>
</g>
<!-- Node6&#45;&gt;Node26 -->
<g id="edge25" class="edge">
<title>Node6&#45;&gt;Node26</title>
<path fill="none" stroke="midnightblue" d="M2322.78,-141.5C2504.78,-136.91 3031.48,-122.03 3225.7,-97.8"/>
<polygon fill="midnightblue" stroke="midnightblue" points="3226.33,-101.25 3235.8,-96.5 3225.43,-94.31 3226.33,-101.25"/>
</g>
<!-- Node27 -->
<g id="node26" class="node">
<title>Node27</title>
<g id="a_node26"><a target="_parent" xlink:href="http://www.dealii.org/developer/doxygen/deal.II/full__matrix_8h.html.html" xlink:title=" ">
<polygon fill="none" stroke="black" points="3364.5,-73 3364.5,-92 3493.5,-92 3493.5,-73 3364.5,-73"/>
<text text-anchor="middle" x="3429" y="-80" font-family="Helvetica,sans-Serif" font-size="10.00">deal.II/lac/full_matrix.h</text>
</a>
</g>
</g>
<!-- Node6&#45;&gt;Node27 -->
<g id="edge26" class="edge">
<title>Node6&#45;&gt;Node27</title>
<path fill="none" stroke="midnightblue" d="M2322.78,-141.68C2524.22,-137.24 3152.93,-121.81 3355,-98 3363.5,-97 3372.49,-95.56 3381.16,-93.98"/>
<polygon fill="midnightblue" stroke="midnightblue" points="3381.98,-97.38 3391.15,-92.07 3380.67,-90.51 3381.98,-97.38"/>
</g>
<!-- Node28 -->
<g id="node27" class="node">
<title>Node28</title>
<g id="a_node27"><a target="_parent" xlink:href="http://www.dealii.org/developer/doxygen/deal.II/generic__linear__algebra_8h.html.html" xlink:title=" ">
<polygon fill="none" stroke="black" points="3511.5,-67.5 3511.5,-97.5 3614.5,-97.5 3614.5,-67.5 3511.5,-67.5"/>
<text text-anchor="start" x="3519.5" y="-85.5" font-family="Helvetica,sans-Serif" font-size="10.00">deal.II/lac/generic</text>
<text text-anchor="middle" x="3563" y="-74.5" font-family="Helvetica,sans-Serif" font-size="10.00">_linear_algebra.h</text>
</a>
</g>
</g>
<!-- Node6&#45;&gt;Node28 -->
<g id="edge27" class="edge">
<title>Node6&#45;&gt;Node28</title>
<path fill="none" stroke="midnightblue" d="M2322.67,-142.36C2538.45,-139.92 3250.58,-129.69 3501.07,-97.88"/>
<polygon fill="midnightblue" stroke="midnightblue" points="3501.76,-101.32 3511.22,-96.54 3500.85,-94.38 3501.76,-101.32"/>
</g>
<!-- Node29 -->
<g id="node28" class="node">
<title>Node29</title>
<g id="a_node28"><a target="_parent" xlink:href="http://www.dealii.org/developer/doxygen/deal.II/precondition_8h.html.html" xlink:title=" ">
<polygon fill="none" stroke="black" points="3632.5,-73 3632.5,-92 3769.5,-92 3769.5,-73 3632.5,-73"/>
<text text-anchor="middle" x="3701" y="-80" font-family="Helvetica,sans-Serif" font-size="10.00">deal.II/lac/precondition.h</text>
</a>
</g>
</g>
<!-- Node6&#45;&gt;Node29 -->
<g id="edge28" class="edge">
<title>Node6&#45;&gt;Node29</title>
<path fill="none" stroke="midnightblue" d="M2322.62,-142.19C2554.73,-138.98 3365.86,-125.98 3623,-98 3632.25,-96.99 3642.05,-95.51 3651.47,-93.87"/>
<polygon fill="midnightblue" stroke="midnightblue" points="3652.28,-97.28 3661.49,-92.04 3651.03,-90.39 3652.28,-97.28"/>
</g>
<!-- Node30 -->
<g id="node29" class="node">
<title>Node30</title>
<g id="a_node29"><a target="_parent" xlink:href="http://www.dealii.org/developer/doxygen/deal.II/solver__cg_8h.html.html" xlink:title=" ">
<polygon fill="none" stroke="black" points="3788,-73 3788,-92 3910,-92 3910,-73 3788,-73"/>
<text text-anchor="middle" x="3849" y="-80" font-family="Helvetica,sans-Serif" font-size="10.00">deal.II/lac/solver_cg.h</text>
</a>
</g>
</g>
<!-- Node6&#45;&gt;Node30 -->
<g id="edge29" class="edge">
<title>Node6&#45;&gt;Node30</title>
<path fill="none" stroke="midnightblue" d="M2322.86,-142.6C2571.95,-140.8 3490.11,-131.94 3779,-98 3787.15,-97.04 3795.76,-95.61 3804.05,-94.02"/>
<polygon fill="midnightblue" stroke="midnightblue" points="3804.84,-97.43 3813.94,-92.01 3803.45,-90.57 3804.84,-97.43"/>
</g>
<!-- Node31 -->
<g id="node30" class="node">
<title>Node31</title>
<g id="a_node30"><a target="_parent" xlink:href="http://www.dealii.org/developer/doxygen/deal.II/sparse__matrix_8h.html.html" xlink:title=" ">
<polygon fill="none" stroke="black" points="3928.5,-67.5 3928.5,-97.5 4027.5,-97.5 4027.5,-67.5 3928.5,-67.5"/>
<text text-anchor="start" x="3936.5" y="-85.5" font-family="Helvetica,sans-Serif" font-size="10.00">deal.II/lac/sparse</text>
<text text-anchor="middle" x="3978" y="-74.5" font-family="Helvetica,sans-Serif" font-size="10.00">_matrix.h</text>
</a>
</g>
</g>
<!-- Node6&#45;&gt;Node31 -->
<g id="edge30" class="edge">
<title>Node6&#45;&gt;Node31</title>
<path fill="none" stroke="midnightblue" d="M2322.8,-143.09C2583.38,-143.2 3581.12,-140.82 3917.99,-97.87"/>
<polygon fill="midnightblue" stroke="midnightblue" points="3918.79,-101.29 3928.25,-96.52 3917.88,-94.35 3918.79,-101.29"/>
</g>
<!-- Node32 -->
<g id="node31" class="node">
<title>Node32</title>
<g id="a_node31"><a target="_parent" xlink:href="http://www.dealii.org/developer/doxygen/deal.II/vector_8h.html.html" xlink:title=" ">
<polygon fill="none" stroke="black" points="4046,-73 4046,-92 4152,-92 4152,-73 4046,-73"/>
<text text-anchor="middle" x="4099" y="-80" font-family="Helvetica,sans-Serif" font-size="10.00">deal.II/lac/vector.h</text>
</a>
</g>
</g>
<!-- Node6&#45;&gt;Node32 -->
<g id="edge31" class="edge">
<title>Node6&#45;&gt;Node32</title>
<path fill="none" stroke="midnightblue" d="M2322.57,-143.13C2596.93,-143.43 3695.12,-141.84 4037,-98 4043.85,-97.12 4051.05,-95.81 4058.02,-94.32"/>
<polygon fill="midnightblue" stroke="midnightblue" points="4059.03,-97.69 4068,-92.06 4057.48,-90.86 4059.03,-97.69"/>
</g>
<!-- Node33 -->
<g id="node32" class="node">
<title>Node33</title>
<g id="a_node32"><a target="_parent" xlink:href="http://www.dealii.org/developer/doxygen/deal.II/copy__data_8h.html.html" xlink:title=" ">
<polygon fill="none" stroke="black" points="4170,-67.5 4170,-97.5 4280,-97.5 4280,-67.5 4170,-67.5"/>
<text text-anchor="start" x="4178" y="-85.5" font-family="Helvetica,sans-Serif" font-size="10.00">deal.II/meshworker</text>
<text text-anchor="middle" x="4225" y="-74.5" font-family="Helvetica,sans-Serif" font-size="10.00">/copy_data.h</text>
</a>
</g>
</g>
<!-- Node6&#45;&gt;Node33 -->
<g id="edge32" class="edge">
<title>Node6&#45;&gt;Node33</title>
<path fill="none" stroke="midnightblue" d="M2322.56,-143.19C2606.03,-143.81 3772.49,-143.56 4159.85,-97.92"/>
<polygon fill="midnightblue" stroke="midnightblue" points="4160.46,-101.38 4169.96,-96.7 4159.62,-94.43 4160.46,-101.38"/>
</g>
<!-- Node34 -->
<g id="node33" class="node">
<title>Node34</title>
<g id="a_node33"><a target="_parent" xlink:href="http://www.dealii.org/developer/doxygen/deal.II/scratch__data_8h.html.html" xlink:title=" ">
<polygon fill="none" stroke="black" points="194,-67.5 194,-97.5 304,-97.5 304,-67.5 194,-67.5"/>
<text text-anchor="start" x="202" y="-85.5" font-family="Helvetica,sans-Serif" font-size="10.00">deal.II/meshworker</text>
<text text-anchor="middle" x="249" y="-74.5" font-family="Helvetica,sans-Serif" font-size="10.00">/scratch_data.h</text>
</a>
</g>
</g>
<!-- Node6&#45;&gt;Node34 -->
<g id="edge33" class="edge">
<title>Node6&#45;&gt;Node34</title>
<path fill="none" stroke="midnightblue" d="M2197.26,-142.3C1889.61,-138.74 546.18,-122.05 314.23,-97.86"/>
<polygon fill="midnightblue" stroke="midnightblue" points="314.37,-94.35 304.03,-96.7 313.58,-101.31 314.37,-94.35"/>
</g>
<!-- Node35 -->
<g id="node34" class="node">
<title>Node35</title>
<g id="a_node34"><a target="_parent" xlink:href="http://www.dealii.org/developer/doxygen/deal.II/numerics_2data__out_8h.html.html" xlink:title=" ">
<polygon fill="none" stroke="black" points="322.5,-67.5 322.5,-97.5 441.5,-97.5 441.5,-67.5 322.5,-67.5"/>
<text text-anchor="start" x="330.5" y="-85.5" font-family="Helvetica,sans-Serif" font-size="10.00">deal.II/numerics/data</text>
<text text-anchor="middle" x="382" y="-74.5" font-family="Helvetica,sans-Serif" font-size="10.00">_out.h</text>
</a>
</g>
</g>
<!-- Node6&#45;&gt;Node35 -->
<g id="edge34" class="edge">
<title>Node6&#45;&gt;Node35</title>
<path fill="none" stroke="midnightblue" d="M2197.26,-142.97C1922.21,-142.62 820.61,-138.73 451.89,-97.9"/>
<polygon fill="midnightblue" stroke="midnightblue" points="452.06,-94.4 441.73,-96.75 451.27,-101.36 452.06,-94.4"/>
</g>
<!-- Node36 -->
<g id="node35" class="node">
<title>Node36</title>
<g id="a_node35"><a target="_parent" xlink:href="http://www.dealii.org/developer/doxygen/deal.II/matrix__tools_8h.html.html" xlink:title=" ">
<polygon fill="none" stroke="red" points="460,-67.5 460,-97.5 590,-97.5 590,-67.5 460,-67.5"/>
<text text-anchor="start" x="468" y="-85.5" font-family="Helvetica,sans-Serif" font-size="10.00">deal.II/numerics/matrix</text>
<text text-anchor="middle" x="525" y="-74.5" font-family="Helvetica,sans-Serif" font-size="10.00">_tools.h</text>
</a>
</g>
</g>
<!-- Node6&#45;&gt;Node36 -->
<g id="edge35" class="edge">
<title>Node6&#45;&gt;Node36</title>
<path fill="none" stroke="midnightblue" d="M2197.17,-142.7C1936.41,-141.23 937.71,-133.42 600.31,-97.99"/>
<polygon fill="midnightblue" stroke="midnightblue" points="600.6,-94.5 590.28,-96.9 599.85,-101.46 600.6,-94.5"/>
</g>
<!-- Node37 -->
<g id="node36" class="node">
<title>Node37</title>
<g id="a_node36"><a target="_parent" xlink:href="http://www.dealii.org/developer/doxygen/deal.II/vector__tools_8h.html.html" xlink:title=" ">
<polygon fill="none" stroke="black" points="608,-67.5 608,-97.5 736,-97.5 736,-67.5 608,-67.5"/>
<text text-anchor="start" x="616" y="-85.5" font-family="Helvetica,sans-Serif" font-size="10.00">deal.II/numerics/vector</text>
<text text-anchor="middle" x="672" y="-74.5" font-family="Helvetica,sans-Serif" font-size="10.00">_tools.h</text>
</a>
</g>
</g>
<!-- Node6&#45;&gt;Node37 -->
<g id="edge36" class="edge">
<title>Node6&#45;&gt;Node37</title>
<path fill="none" stroke="midnightblue" d="M2197.31,-142.53C1951.69,-140.47 1053.74,-130.9 746.63,-98.02"/>
<polygon fill="midnightblue" stroke="midnightblue" points="746.72,-94.51 736.4,-96.89 745.95,-101.47 746.72,-94.51"/>
</g>
<!-- Node38 -->
<g id="node37" class="node">
<title>Node38</title>
<g id="a_node37"><a target="_parent" xlink:href="http://www.dealii.org/developer/doxygen/deal.II/arkode_8h.html.html" xlink:title=" ">
<polygon fill="none" stroke="black" points="754.5,-73 754.5,-92 889.5,-92 889.5,-73 754.5,-73"/>
<text text-anchor="middle" x="822" y="-80" font-family="Helvetica,sans-Serif" font-size="10.00">deal.II/sundials/arkode.h</text>
</a>
</g>
</g>
<!-- Node6&#45;&gt;Node38 -->
<g id="edge37" class="edge">
<title>Node6&#45;&gt;Node38</title>
<path fill="none" stroke="midnightblue" d="M2197.47,-142.2C1965.69,-139.06 1155.73,-126.25 899,-98 889.86,-96.99 880.19,-95.51 870.89,-93.87"/>
<polygon fill="midnightblue" stroke="midnightblue" points="871.47,-90.42 861,-92.04 870.2,-97.3 871.47,-90.42"/>
</g>
<!-- Node39 -->
<g id="node38" class="node">
<title>Node39</title>
<g id="a_node38"><a xlink:title=" ">
<polygon fill="none" stroke="#bfbfbf" points="908,-73 908,-92 1016,-92 1016,-73 908,-73"/>
<text text-anchor="middle" x="962" y="-80" font-family="Helvetica,sans-Serif" font-size="10.00">boost/signals2.hpp</text>
</a>
</g>
</g>
<!-- Node6&#45;&gt;Node39 -->
<g id="edge38" class="edge">
<title>Node6&#45;&gt;Node39</title>
<path fill="none" stroke="midnightblue" d="M2197.31,-142.29C1979.34,-139.57 1255.25,-128.41 1025,-98 1018.12,-97.09 1010.89,-95.78 1003.88,-94.3"/>
<polygon fill="midnightblue" stroke="midnightblue" points="1004.36,-90.82 993.84,-92.06 1002.83,-97.66 1004.36,-90.82"/>
</g>
<!-- Node40 -->
<g id="node39" class="node">
<title>Node40</title>
<g id="a_node39"><a xlink:title=" ">
<polygon fill="none" stroke="#bfbfbf" points="1034.5,-73 1034.5,-92 1089.5,-92 1089.5,-73 1034.5,-73"/>
<text text-anchor="middle" x="1062" y="-80" font-family="Helvetica,sans-Serif" font-size="10.00">fstream</text>
</a>
</g>
</g>
<!-- Node6&#45;&gt;Node40 -->
<g id="edge39" class="edge">
<title>Node6&#45;&gt;Node40</title>
<path fill="none" stroke="midnightblue" d="M2197.27,-143.32C1987.45,-143.96 1311.5,-142.43 1099,-98 1095.99,-97.37 1092.91,-96.52 1089.87,-95.55"/>
<polygon fill="midnightblue" stroke="midnightblue" points="1091.04,-92.25 1080.45,-92.13 1088.66,-98.83 1091.04,-92.25"/>
</g>
<!-- Node41 -->
<g id="node40" class="node">
<title>Node41</title>
<g id="a_node40"><a xlink:title=" ">
<polygon fill="none" stroke="#bfbfbf" points="1108,-73 1108,-92 1168,-92 1168,-73 1108,-73"/>
<text text-anchor="middle" x="1138" y="-80" font-family="Helvetica,sans-Serif" font-size="10.00">iostream</text>
</a>
</g>
</g>
<!-- Node6&#45;&gt;Node41 -->
<g id="edge40" class="edge">
<title>Node6&#45;&gt;Node41</title>
<path fill="none" stroke="midnightblue" d="M2197.35,-142.97C1997.1,-142.48 1374.16,-137.71 1177,-98 1173.74,-97.34 1170.4,-96.46 1167.1,-95.44"/>
<polygon fill="midnightblue" stroke="midnightblue" points="1168.08,-92.08 1157.49,-92.11 1165.79,-98.69 1168.08,-92.08"/>
</g>
<!-- Node59&#45;&gt;Node11 -->
<g id="edge46" class="edge">
<title>Node59&#45;&gt;Node11</title>
<path fill="none" stroke="midnightblue" d="M4861.33,-138.64C4765.26,-132.56 4594.25,-119.9 4437.79,-98"/>
<polygon fill="midnightblue" stroke="midnightblue" points="4437.9,-94.49 4427.51,-96.55 4436.92,-101.42 4437.9,-94.49"/>
</g>
<!-- Node59&#45;&gt;Node19 -->
<g id="edge50" class="edge">
<title>Node59&#45;&gt;Node19</title>
<path fill="none" stroke="midnightblue" d="M4861.24,-137.36C4782.5,-130.76 4655.94,-118.12 4548,-98 4542.63,-97 4537.02,-95.77 4531.5,-94.45"/>
<polygon fill="midnightblue" stroke="midnightblue" points="4532.31,-91.05 4521.76,-92.02 4530.62,-97.84 4532.31,-91.05"/>
</g>
<!-- Node59&#45;&gt;Node24 -->
<g id="edge53" class="edge">
<title>Node59&#45;&gt;Node24</title>
<path fill="none" stroke="midnightblue" d="M4876.33,-134.5C4820.64,-126.35 4735.94,-113.08 4663,-98 4657.86,-96.94 4652.49,-95.73 4647.17,-94.47"/>
<polygon fill="midnightblue" stroke="midnightblue" points="4647.65,-90.99 4637.1,-92.03 4646,-97.79 4647.65,-90.99"/>
</g>
<!-- Node44 -->
<g id="node43" class="node">
<title>Node44</title>
<g id="a_node43"><a target="_parent" xlink:href="http://www.dealii.org/developer/doxygen/deal.II/config_8h.html.html" xlink:title=" ">
<polygon fill="none" stroke="black" points="5228,-73 5228,-92 5342,-92 5342,-73 5228,-73"/>
<text text-anchor="middle" x="5285" y="-80" font-family="Helvetica,sans-Serif" font-size="10.00">deal.II/base/config.h</text>
</a>
</g>
</g>
<!-- Node59&#45;&gt;Node44 -->
<g id="edge44" class="edge">
<title>Node59&#45;&gt;Node44</title>
<path fill="none" stroke="midnightblue" d="M4996.86,-134.48C5054.07,-126.09 5142.65,-112.47 5219,-98 5225.2,-96.82 5231.71,-95.5 5238.13,-94.15"/>
<polygon fill="midnightblue" stroke="midnightblue" points="5239.04,-97.53 5248.08,-92.01 5237.56,-90.69 5239.04,-97.53"/>
</g>
<!-- Node60 -->
<g id="node44" class="node">
<title>Node60</title>
<g id="a_node44"><a target="_parent" xlink:href="http://www.dealii.org/developer/doxygen/deal.II/include_2deal_8II_2base_2quadrature_8h.html.html" xlink:title=" ">
<polygon fill="none" stroke="black" points="5360,-73 5360,-92 5498,-92 5498,-73 5360,-73"/>
<text text-anchor="middle" x="5429" y="-80" font-family="Helvetica,sans-Serif" font-size="10.00">deal.II/base/quadrature.h</text>
</a>
</g>
</g>
<!-- Node59&#45;&gt;Node60 -->
<g id="edge45" class="edge">
<title>Node59&#45;&gt;Node60</title>
<path fill="none" stroke="midnightblue" d="M5012.76,-136.5C5095.94,-128.95 5233.34,-115.31 5351,-98 5359.14,-96.8 5367.72,-95.38 5376.11,-93.89"/>
<polygon fill="midnightblue" stroke="midnightblue" points="5376.97,-97.29 5386.18,-92.06 5375.72,-90.4 5376.97,-97.29"/>
</g>
<!-- Node61 -->
<g id="node45" class="node">
<title>Node61</title>
<g id="a_node45"><a target="_parent" xlink:href="http://www.dealii.org/developer/doxygen/deal.II/include_2deal_8II_2base_2utilities_8h.html.html" xlink:title=" ">
<polygon fill="none" stroke="black" points="5516,-73 5516,-92 5638,-92 5638,-73 5516,-73"/>
<text text-anchor="middle" x="5577" y="-80" font-family="Helvetica,sans-Serif" font-size="10.00">deal.II/base/utilities.h</text>
</a>
</g>
</g>
<!-- Node59&#45;&gt;Node61 -->
<g id="edge47" class="edge">
<title>Node59&#45;&gt;Node61</title>
<path fill="none" stroke="midnightblue" d="M5012.94,-140.04C5122.5,-135.08 5331.09,-123.06 5507,-98 5514.52,-96.93 5522.44,-95.54 5530.15,-94.05"/>
<polygon fill="midnightblue" stroke="midnightblue" points="5530.98,-97.45 5540.1,-92.05 5529.6,-90.59 5530.98,-97.45"/>
</g>
<!-- Node62 -->
<g id="node46" class="node">
<title>Node62</title>
<g id="a_node46"><a target="_parent" xlink:href="http://www.dealii.org/developer/doxygen/deal.II/component__mask_8h.html.html" xlink:title=" ">
<polygon fill="none" stroke="black" points="5656.5,-67.5 5656.5,-97.5 5773.5,-97.5 5773.5,-67.5 5656.5,-67.5"/>
<text text-anchor="start" x="5664.5" y="-85.5" font-family="Helvetica,sans-Serif" font-size="10.00">deal.II/fe/component</text>
<text text-anchor="middle" x="5715" y="-74.5" font-family="Helvetica,sans-Serif" font-size="10.00">_mask.h</text>
</a>
</g>
</g>
<!-- Node59&#45;&gt;Node62 -->
<g id="edge48" class="edge">
<title>Node59&#45;&gt;Node62</title>
<path fill="none" stroke="midnightblue" d="M5012.5,-141.85C5140.78,-139.09 5409.52,-129.87 5646.31,-97.94"/>
<polygon fill="midnightblue" stroke="midnightblue" points="5647.06,-101.37 5656.49,-96.55 5646.11,-94.43 5647.06,-101.37"/>
</g>
<!-- Node63 -->
<g id="node47" class="node">
<title>Node63</title>
<g id="a_node47"><a target="_parent" xlink:href="http://www.dealii.org/developer/doxygen/deal.II/fe__dgq_8h.html.html" xlink:title=" ">
<polygon fill="none" stroke="black" points="4672,-73 4672,-92 4776,-92 4776,-73 4672,-73"/>
<text text-anchor="middle" x="4724" y="-80" font-family="Helvetica,sans-Serif" font-size="10.00">deal.II/fe/fe_dgq.h</text>
</a>
</g>
</g>
<!-- Node59&#45;&gt;Node63 -->
<g id="edge49" class="edge">
<title>Node59&#45;&gt;Node63</title>
<path fill="none" stroke="midnightblue" d="M4906.48,-134.48C4869.08,-124.03 4805.57,-106.29 4764.21,-94.73"/>
<polygon fill="midnightblue" stroke="midnightblue" points="4765.03,-91.33 4754.46,-92.01 4763.15,-98.07 4765.03,-91.33"/>
</g>
<!-- Node64 -->
<g id="node48" class="node">
<title>Node64</title>
<g id="a_node48"><a target="_parent" xlink:href="http://www.dealii.org/developer/doxygen/deal.II/fe__simplex__p_8h.html.html" xlink:title=" ">
<polygon fill="none" stroke="black" points="4794.5,-73 4794.5,-92 4931.5,-92 4931.5,-73 4794.5,-73"/>
<text text-anchor="middle" x="4863" y="-80" font-family="Helvetica,sans-Serif" font-size="10.00">deal.II/fe/fe_simplex_p.h</text>
</a>
</g>
</g>
<!-- Node59&#45;&gt;Node64 -->
<g id="edge51" class="edge">
<title>Node59&#45;&gt;Node64</title>
<path fill="none" stroke="midnightblue" d="M4926.4,-134.48C4914.75,-125.11 4895.81,-109.88 4881.67,-98.51"/>
<polygon fill="midnightblue" stroke="midnightblue" points="4883.57,-95.55 4873.58,-92.01 4879.18,-101 4883.57,-95.55"/>
</g>
<!-- Node65 -->
<g id="node49" class="node">
<title>Node65</title>
<g id="a_node49"><a target="_parent" xlink:href="http://www.dealii.org/developer/doxygen/deal.II/fe__system_8h.html.html" xlink:title=" ">
<polygon fill="none" stroke="black" points="4950,-73 4950,-92 5072,-92 5072,-73 4950,-73"/>
<text text-anchor="middle" x="5011" y="-80" font-family="Helvetica,sans-Serif" font-size="10.00">deal.II/fe/fe_system.h</text>
</a>
</g>
</g>
<!-- Node59&#45;&gt;Node65 -->
<g id="edge52" class="edge">
<title>Node59&#45;&gt;Node65</title>
<path fill="none" stroke="midnightblue" d="M4947.6,-134.48C4959.25,-125.11 4978.19,-109.88 4992.33,-98.51"/>
<polygon fill="midnightblue" stroke="midnightblue" points="4994.82,-101 5000.42,-92.01 4990.43,-95.55 4994.82,-101"/>
</g>
<!-- Node66 -->
<g id="node50" class="node">
<title>Node66</title>
<g id="a_node50"><a xlink:href="enum_8h.html" target="_top" xlink:title=" ">
<polygon fill="none" stroke="red" points="5090.5,-73 5090.5,-92 5209.5,-92 5209.5,-73 5090.5,-73"/>
<text text-anchor="middle" x="5150" y="-80" font-family="Helvetica,sans-Serif" font-size="10.00">parsed_tools/enum.h</text>
</a>
</g>
</g>
<!-- Node59&#45;&gt;Node66 -->
<g id="edge54" class="edge">
<title>Node59&#45;&gt;Node66</title>
<path fill="none" stroke="midnightblue" d="M4967.52,-134.48C5004.92,-124.03 5068.43,-106.29 5109.79,-94.73"/>
<polygon fill="midnightblue" stroke="midnightblue" points="5110.85,-98.07 5119.54,-92.01 5108.97,-91.33 5110.85,-98.07"/>
</g>
<!-- Node66&#45;&gt;Node5 -->
<g id="edge55" class="edge">
<title>Node66&#45;&gt;Node5</title>
<path fill="none" stroke="midnightblue" d="M5115.46,-72.93C5104.51,-70.57 5092.31,-68.3 5081,-67 4623.18,-14.48 3153.17,-15.2 2791.14,-16.2"/>
<polygon fill="midnightblue" stroke="midnightblue" points="2791,-12.7 2781.01,-16.23 2791.02,-19.7 2791,-12.7"/>
</g>
</g>
</svg>
