<?xml version="1.0" encoding="UTF-8" standalone="no"?>
<!DOCTYPE svg PUBLIC "-//W3C//DTD SVG 1.1//EN"
 "http://www.w3.org/Graphics/SVG/1.1/DTD/svg11.dtd">
<!-- Generated by graphviz version 2.43.0 (0)
 -->
<!-- Title: include/pdes/stokes.h Pages: 1 -->
<svg width="5317pt" height="218pt"
 viewBox="0.00 0.00 5317.00 218.00" xmlns="http://www.w3.org/2000/svg" xmlns:xlink="http://www.w3.org/1999/xlink">
<g id="graph0" class="graph" transform="scale(1 1) rotate(0) translate(4 214)">
<title>include/pdes/stokes.h</title>
<!-- Node1 -->
<g id="node1" class="node">
<title>Node1</title>
<g id="a_node1"><a xlink:title=" ">
<polygon fill="#bfbfbf" stroke="black" points="2347.5,-190.5 2347.5,-209.5 2469.5,-209.5 2469.5,-190.5 2347.5,-190.5"/>
<text text-anchor="middle" x="2408.5" y="-197.5" font-family="Helvetica,sans-Serif" font-size="10.00">include/pdes/stokes.h</text>
</a>
</g>
</g>
<!-- Node2 -->
<g id="node2" class="node">
<title>Node2</title>
<g id="a_node2"><a xlink:href="amg_8h.html" target="_top" xlink:title=" ">
<polygon fill="none" stroke="black" points="115,-73 115,-92 218,-92 218,-73 115,-73"/>
<text text-anchor="middle" x="166.5" y="-80" font-family="Helvetica,sans-Serif" font-size="10.00">parsed_lac/amg.h</text>
</a>
</g>
</g>
<!-- Node1&#45;&gt;Node2 -->
<g id="edge1" class="edge">
<title>Node1&#45;&gt;Node2</title>
<path fill="none" stroke="midnightblue" d="M2347.28,-197.71C2038.88,-191 653.52,-157.96 227.5,-98 220.99,-97.08 214.16,-95.79 207.52,-94.36"/>
<polygon fill="midnightblue" stroke="midnightblue" points="207.85,-90.84 197.32,-92.01 206.28,-97.66 207.85,-90.84"/>
</g>
<!-- Node6 -->
<g id="node6" class="node">
<title>Node6</title>
<g id="a_node6"><a xlink:href="ilu_8h.html" target="_top" xlink:title=" ">
<polygon fill="none" stroke="black" points="4,-73 4,-92 97,-92 97,-73 4,-73"/>
<text text-anchor="middle" x="50.5" y="-80" font-family="Helvetica,sans-Serif" font-size="10.00">parsed_lac/ilu.h</text>
</a>
</g>
</g>
<!-- Node1&#45;&gt;Node6 -->
<g id="edge5" class="edge">
<title>Node1&#45;&gt;Node6</title>
<path fill="none" stroke="midnightblue" d="M2347.14,-199.22C2119.89,-199.67 1304.69,-197.9 634.5,-154 398.58,-138.55 338.04,-140.7 105.5,-98 100.29,-97.04 94.85,-95.85 89.51,-94.56"/>
<polygon fill="midnightblue" stroke="midnightblue" points="89.98,-91.07 79.43,-92.01 88.26,-97.86 89.98,-91.07"/>
</g>
<!-- Node7 -->
<g id="node7" class="node">
<title>Node7</title>
<g id="a_node7"><a xlink:href="inverse__operator_8h.html" target="_top" xlink:title=" ">
<polygon fill="none" stroke="black" points="4531.5,-67.5 4531.5,-97.5 4639.5,-97.5 4639.5,-67.5 4531.5,-67.5"/>
<text text-anchor="start" x="4539.5" y="-85.5" font-family="Helvetica,sans-Serif" font-size="10.00">parsed_lac/inverse</text>
<text text-anchor="middle" x="4585.5" y="-74.5" font-family="Helvetica,sans-Serif" font-size="10.00">_operator.h</text>
</a>
</g>
</g>
<!-- Node1&#45;&gt;Node7 -->
<g id="edge9" class="edge">
<title>Node1&#45;&gt;Node7</title>
<path fill="none" stroke="midnightblue" d="M2469.8,-198.38C2670.69,-196.06 3327.4,-186.34 3869.5,-154 4150.99,-137.21 4221.88,-134.46 4501.5,-98 4507.86,-97.17 4514.47,-96.21 4521.06,-95.18"/>
<polygon fill="midnightblue" stroke="midnightblue" points="4522.06,-98.56 4531.38,-93.52 4520.95,-91.65 4522.06,-98.56"/>
</g>
<!-- Node18 -->
<g id="node18" class="node">
<title>Node18</title>
<g id="a_node18"><a xlink:href="constants_8h.html" target="_top" xlink:title=" ">
<polygon fill="none" stroke="black" points="4337.5,-73 4337.5,-92 4475.5,-92 4475.5,-73 4337.5,-73"/>
<text text-anchor="middle" x="4406.5" y="-80" font-family="Helvetica,sans-Serif" font-size="10.00">parsed_tools/constants.h</text>
</a>
</g>
</g>
<!-- Node1&#45;&gt;Node18 -->
<g id="edge22" class="edge">
<title>Node1&#45;&gt;Node18</title>
<path fill="none" stroke="midnightblue" d="M2469.68,-198.7C2708.48,-196.9 3600.52,-184.43 4328.5,-98 4337.44,-96.94 4346.91,-95.47 4356.04,-93.88"/>
<polygon fill="midnightblue" stroke="midnightblue" points="4356.96,-97.27 4366.17,-92.04 4355.71,-90.38 4356.96,-97.27"/>
</g>
<!-- Node20 -->
<g id="node20" class="node">
<title>Node20</title>
<g id="a_node20"><a xlink:href="linear__problem_8h.html" target="_top" xlink:title=" ">
<polygon fill="none" stroke="red" points="2346,-134.5 2346,-153.5 2471,-153.5 2471,-134.5 2346,-134.5"/>
<text text-anchor="middle" x="2408.5" y="-141.5" font-family="Helvetica,sans-Serif" font-size="10.00">pdes/linear_problem.h</text>
</a>
</g>
</g>
<!-- Node1&#45;&gt;Node20 -->
<g id="edge25" class="edge">
<title>Node1&#45;&gt;Node20</title>
<path fill="none" stroke="midnightblue" d="M2408.5,-190.08C2408.5,-183.01 2408.5,-172.86 2408.5,-163.99"/>
<polygon fill="midnightblue" stroke="midnightblue" points="2412,-163.75 2408.5,-153.75 2405,-163.75 2412,-163.75"/>
</g>
<!-- Node3 -->
<g id="node3" class="node">
<title>Node3</title>
<g id="a_node3"><a xlink:href="http://www.dealii.org/developer/doxygen/deal.II/config_8h.html.html" xlink:title=" ">
<polygon fill="none" stroke="black" points="119,-6 119,-25 234,-25 234,-6 119,-6"/>
<text text-anchor="middle" x="176.5" y="-13" font-family="Helvetica,sans-Serif" font-size="10.00">deal.II/base/config.h</text>
</a>
</g>
</g>
<!-- Node2&#45;&gt;Node3 -->
<g id="edge2" class="edge">
<title>Node2&#45;&gt;Node3</title>
<path fill="none" stroke="midnightblue" d="M167.85,-72.73C169.32,-63.18 171.71,-47.62 173.61,-35.28"/>
<polygon fill="midnightblue" stroke="midnightblue" points="177.11,-35.54 175.17,-25.13 170.19,-34.48 177.11,-35.54"/>
</g>
<!-- Node4 -->
<g id="node4" class="node">
<title>Node4</title>
<g id="a_node4"><a xlink:href="http://www.dealii.org/developer/doxygen/deal.II/parameter__acceptor_8h.html.html" xlink:title=" ">
<polygon fill="none" stroke="black" points="3446,-0.5 3446,-30.5 3573,-30.5 3573,-0.5 3446,-0.5"/>
<text text-anchor="start" x="3454" y="-18.5" font-family="Helvetica,sans-Serif" font-size="10.00">deal.II/base/parameter</text>
<text text-anchor="middle" x="3509.5" y="-7.5" font-family="Helvetica,sans-Serif" font-size="10.00">_acceptor.h</text>
</a>
</g>
</g>
<!-- Node2&#45;&gt;Node4 -->
<g id="edge3" class="edge">
<title>Node2&#45;&gt;Node4</title>
<path fill="none" stroke="midnightblue" d="M196.67,-72.95C206.43,-70.56 217.35,-68.27 227.5,-67 555.17,-26.03 2980.17,-17.85 3435.81,-16.67"/>
<polygon fill="midnightblue" stroke="midnightblue" points="3435.9,-20.17 3445.89,-16.64 3435.88,-13.17 3435.9,-20.17"/>
</g>
<!-- Node5 -->
<g id="node5" class="node">
<title>Node5</title>
<g id="a_node5"><a xlink:href="http://www.dealii.org/developer/doxygen/deal.II/trilinos__precondition_8h.html.html" xlink:title=" ">
<polygon fill="none" stroke="black" points="0,-0.5 0,-30.5 101,-30.5 101,-0.5 0,-0.5"/>
<text text-anchor="start" x="8" y="-18.5" font-family="Helvetica,sans-Serif" font-size="10.00">deal.II/lac/trilinos</text>
<text text-anchor="middle" x="50.5" y="-7.5" font-family="Helvetica,sans-Serif" font-size="10.00">_precondition.h</text>
</a>
</g>
</g>
<!-- Node2&#45;&gt;Node5 -->
<g id="edge4" class="edge">
<title>Node2&#45;&gt;Node5</title>
<path fill="none" stroke="midnightblue" d="M150.86,-72.73C133.97,-63.27 106.56,-47.91 84.65,-35.64"/>
<polygon fill="midnightblue" stroke="midnightblue" points="86.08,-32.42 75.64,-30.59 82.66,-38.53 86.08,-32.42"/>
</g>
<!-- Node6&#45;&gt;Node3 -->
<g id="edge6" class="edge">
<title>Node6&#45;&gt;Node3</title>
<path fill="none" stroke="midnightblue" d="M67.23,-72.87C88.6,-61.84 125.8,-42.66 150.78,-29.77"/>
<polygon fill="midnightblue" stroke="midnightblue" points="152.42,-32.86 159.7,-25.17 149.21,-26.64 152.42,-32.86"/>
</g>
<!-- Node6&#45;&gt;Node4 -->
<g id="edge7" class="edge">
<title>Node6&#45;&gt;Node4</title>
<path fill="none" stroke="midnightblue" d="M77.65,-72.94C86.45,-70.55 96.3,-68.26 105.5,-67 445.46,-20.37 2969.82,-16.78 3435.69,-16.52"/>
<polygon fill="midnightblue" stroke="midnightblue" points="3435.99,-20.02 3445.99,-16.51 3435.99,-13.02 3435.99,-20.02"/>
</g>
<!-- Node6&#45;&gt;Node5 -->
<g id="edge8" class="edge">
<title>Node6&#45;&gt;Node5</title>
<path fill="none" stroke="midnightblue" d="M50.5,-72.73C50.5,-64.54 50.5,-51.92 50.5,-40.71"/>
<polygon fill="midnightblue" stroke="midnightblue" points="54,-40.59 50.5,-30.59 47,-40.59 54,-40.59"/>
</g>
<!-- Node7&#45;&gt;Node3 -->
<g id="edge10" class="edge">
<title>Node7&#45;&gt;Node3</title>
<path fill="none" stroke="midnightblue" d="M4531.39,-72.4C4516.26,-70.22 4499.78,-68.18 4484.5,-67 4044.86,-33.01 759.76,-18.79 244.43,-16.76"/>
<polygon fill="midnightblue" stroke="midnightblue" points="244.2,-13.26 234.18,-16.72 244.17,-20.26 244.2,-13.26"/>
</g>
<!-- Node7&#45;&gt;Node4 -->
<g id="edge12" class="edge">
<title>Node7&#45;&gt;Node4</title>
<path fill="none" stroke="midnightblue" d="M4531.36,-72.8C4516.23,-70.62 4499.75,-68.49 4484.5,-67 4309.76,-49.97 3779.32,-27.43 3583.32,-19.45"/>
<polygon fill="midnightblue" stroke="midnightblue" points="3583.26,-15.95 3573.12,-19.04 3582.97,-22.94 3583.26,-15.95"/>
</g>
<!-- Node8 -->
<g id="node8" class="node">
<title>Node8</title>
<g id="a_node8"><a xlink:href="http://www.dealii.org/developer/doxygen/deal.II/general__data__storage_8h.html.html" xlink:title=" ">
<polygon fill="none" stroke="black" points="4585.5,-0.5 4585.5,-30.5 4719.5,-30.5 4719.5,-0.5 4585.5,-0.5"/>
<text text-anchor="start" x="4593.5" y="-18.5" font-family="Helvetica,sans-Serif" font-size="10.00">deal.II/algorithms</text>
<text text-anchor="middle" x="4652.5" y="-7.5" font-family="Helvetica,sans-Serif" font-size="10.00">/general_data_storage.h</text>
</a>
</g>
</g>
<!-- Node7&#45;&gt;Node8 -->
<g id="edge11" class="edge">
<title>Node7&#45;&gt;Node8</title>
<path fill="none" stroke="midnightblue" d="M4600.04,-67.4C4608.99,-58.71 4620.64,-47.4 4630.69,-37.66"/>
<polygon fill="midnightblue" stroke="midnightblue" points="4633.25,-40.05 4637.99,-30.58 4628.38,-35.03 4633.25,-40.05"/>
</g>
<!-- Node9 -->
<g id="node9" class="node">
<title>Node9</title>
<g id="a_node9"><a xlink:href="http://www.dealii.org/developer/doxygen/deal.II/linear__operator__tools_8h.html.html" xlink:title=" ">
<polygon fill="none" stroke="black" points="4738,-0.5 4738,-30.5 4839,-30.5 4839,-0.5 4738,-0.5"/>
<text text-anchor="start" x="4746" y="-18.5" font-family="Helvetica,sans-Serif" font-size="10.00">deal.II/lac/linear</text>
<text text-anchor="middle" x="4788.5" y="-7.5" font-family="Helvetica,sans-Serif" font-size="10.00">_operator_tools.h</text>
</a>
</g>
</g>
<!-- Node7&#45;&gt;Node9 -->
<g id="edge13" class="edge">
<title>Node7&#45;&gt;Node9</title>
<path fill="none" stroke="midnightblue" d="M4629.55,-67.4C4660.41,-57.52 4701.83,-44.25 4734.65,-33.74"/>
<polygon fill="midnightblue" stroke="midnightblue" points="4736.08,-36.96 4744.54,-30.58 4733.95,-30.29 4736.08,-36.96"/>
</g>
<!-- Node10 -->
<g id="node10" class="node">
<title>Node10</title>
<g id="a_node10"><a xlink:href="http://www.dealii.org/developer/doxygen/deal.II/solver_8h.html.html" xlink:title=" ">
<polygon fill="none" stroke="black" points="4857.5,-6 4857.5,-25 4963.5,-25 4963.5,-6 4857.5,-6"/>
<text text-anchor="middle" x="4910.5" y="-13" font-family="Helvetica,sans-Serif" font-size="10.00">deal.II/lac/solver.h</text>
</a>
</g>
</g>
<!-- Node7&#45;&gt;Node10 -->
<g id="edge14" class="edge">
<title>Node7&#45;&gt;Node10</title>
<path fill="none" stroke="midnightblue" d="M4639.52,-71.78C4692.78,-62.04 4776.42,-46.34 4848.5,-31 4853.91,-29.85 4859.57,-28.59 4865.17,-27.32"/>
<polygon fill="midnightblue" stroke="midnightblue" points="4866.18,-30.68 4875.14,-25.03 4864.61,-23.86 4866.18,-30.68"/>
</g>
<!-- Node11 -->
<g id="node11" class="node">
<title>Node11</title>
<g id="a_node11"><a xlink:href="http://www.dealii.org/developer/doxygen/deal.II/solver__bicgstab_8h.html.html" xlink:title=" ">
<polygon fill="none" stroke="black" points="4982,-0.5 4982,-30.5 5079,-30.5 5079,-0.5 4982,-0.5"/>
<text text-anchor="start" x="4990" y="-18.5" font-family="Helvetica,sans-Serif" font-size="10.00">deal.II/lac/solver</text>
<text text-anchor="middle" x="5030.5" y="-7.5" font-family="Helvetica,sans-Serif" font-size="10.00">_bicgstab.h</text>
</a>
</g>
</g>
<!-- Node7&#45;&gt;Node11 -->
<g id="edge15" class="edge">
<title>Node7&#45;&gt;Node11</title>
<path fill="none" stroke="midnightblue" d="M4639.65,-76.42C4712.79,-69.13 4847.34,-54.16 4971.77,-30.99"/>
<polygon fill="midnightblue" stroke="midnightblue" points="4972.68,-34.38 4981.86,-29.09 4971.38,-27.5 4972.68,-34.38"/>
</g>
<!-- Node12 -->
<g id="node12" class="node">
<title>Node12</title>
<g id="a_node12"><a xlink:href="http://www.dealii.org/developer/doxygen/deal.II/solver__cg_8h.html.html" xlink:title=" ">
<polygon fill="none" stroke="black" points="4099.5,-6 4099.5,-25 4221.5,-25 4221.5,-6 4099.5,-6"/>
<text text-anchor="middle" x="4160.5" y="-13" font-family="Helvetica,sans-Serif" font-size="10.00">deal.II/lac/solver_cg.h</text>
</a>
</g>
</g>
<!-- Node7&#45;&gt;Node12 -->
<g id="edge16" class="edge">
<title>Node7&#45;&gt;Node12</title>
<path fill="none" stroke="midnightblue" d="M4531.39,-69.53C4526.7,-68.62 4522.02,-67.77 4517.5,-67 4391.18,-45.62 4357.91,-51.83 4231.5,-31 4224.33,-29.82 4216.78,-28.43 4209.39,-26.99"/>
<polygon fill="midnightblue" stroke="midnightblue" points="4209.95,-23.54 4199.46,-25.01 4208.59,-30.4 4209.95,-23.54"/>
</g>
<!-- Node13 -->
<g id="node13" class="node">
<title>Node13</title>
<g id="a_node13"><a xlink:href="http://www.dealii.org/developer/doxygen/deal.II/solver__control_8h.html.html" xlink:title=" ">
<polygon fill="none" stroke="black" points="5097,-0.5 5097,-30.5 5194,-30.5 5194,-0.5 5097,-0.5"/>
<text text-anchor="start" x="5105" y="-18.5" font-family="Helvetica,sans-Serif" font-size="10.00">deal.II/lac/solver</text>
<text text-anchor="middle" x="5145.5" y="-7.5" font-family="Helvetica,sans-Serif" font-size="10.00">_control.h</text>
</a>
</g>
</g>
<!-- Node7&#45;&gt;Node13 -->
<g id="edge17" class="edge">
<title>Node7&#45;&gt;Node13</title>
<path fill="none" stroke="midnightblue" d="M4639.83,-78.71C4730.65,-73.45 4919.11,-60.08 5086.79,-31.15"/>
<polygon fill="midnightblue" stroke="midnightblue" points="5087.54,-34.57 5096.79,-29.4 5086.33,-27.68 5087.54,-34.57"/>
</g>
<!-- Node14 -->
<g id="node14" class="node">
<title>Node14</title>
<g id="a_node14"><a xlink:href="http://www.dealii.org/developer/doxygen/deal.II/solver__gmres_8h.html.html" xlink:title=" ">
<polygon fill="none" stroke="black" points="5212,-0.5 5212,-30.5 5309,-30.5 5309,-0.5 5212,-0.5"/>
<text text-anchor="start" x="5220" y="-18.5" font-family="Helvetica,sans-Serif" font-size="10.00">deal.II/lac/solver</text>
<text text-anchor="middle" x="5260.5" y="-7.5" font-family="Helvetica,sans-Serif" font-size="10.00">_gmres.h</text>
</a>
</g>
</g>
<!-- Node7&#45;&gt;Node14 -->
<g id="edge18" class="edge">
<title>Node7&#45;&gt;Node14</title>
<path fill="none" stroke="midnightblue" d="M4639.61,-80.12C4745.85,-76.76 4989.22,-65.81 5201.7,-31.13"/>
<polygon fill="midnightblue" stroke="midnightblue" points="5202.5,-34.55 5211.8,-29.46 5201.36,-27.64 5202.5,-34.55"/>
</g>
<!-- Node15 -->
<g id="node15" class="node">
<title>Node15</title>
<g id="a_node15"><a xlink:href="http://www.dealii.org/developer/doxygen/deal.II/solver__minres_8h.html.html" xlink:title=" ">
<polygon fill="none" stroke="black" points="4240,-0.5 4240,-30.5 4337,-30.5 4337,-0.5 4240,-0.5"/>
<text text-anchor="start" x="4248" y="-18.5" font-family="Helvetica,sans-Serif" font-size="10.00">deal.II/lac/solver</text>
<text text-anchor="middle" x="4288.5" y="-7.5" font-family="Helvetica,sans-Serif" font-size="10.00">_minres.h</text>
</a>
</g>
</g>
<!-- Node7&#45;&gt;Node15 -->
<g id="edge19" class="edge">
<title>Node7&#45;&gt;Node15</title>
<path fill="none" stroke="midnightblue" d="M4531.31,-69.93C4526.64,-68.94 4521.99,-67.95 4517.5,-67 4444.64,-51.56 4423.87,-48.65 4347.34,-31.14"/>
<polygon fill="midnightblue" stroke="midnightblue" points="4347.73,-27.64 4337.2,-28.82 4346.16,-34.47 4347.73,-27.64"/>
</g>
<!-- Node16 -->
<g id="node16" class="node">
<title>Node16</title>
<g id="a_node16"><a xlink:href="http://www.dealii.org/developer/doxygen/deal.II/solver__qmrs_8h.html.html" xlink:title=" ">
<polygon fill="none" stroke="black" points="4355,-0.5 4355,-30.5 4452,-30.5 4452,-0.5 4355,-0.5"/>
<text text-anchor="start" x="4363" y="-18.5" font-family="Helvetica,sans-Serif" font-size="10.00">deal.II/lac/solver</text>
<text text-anchor="middle" x="4403.5" y="-7.5" font-family="Helvetica,sans-Serif" font-size="10.00">_qmrs.h</text>
</a>
</g>
</g>
<!-- Node7&#45;&gt;Node16 -->
<g id="edge20" class="edge">
<title>Node7&#45;&gt;Node16</title>
<path fill="none" stroke="midnightblue" d="M4546.01,-67.4C4518.58,-57.6 4481.85,-44.48 4452.54,-34.02"/>
<polygon fill="midnightblue" stroke="midnightblue" points="4453.51,-30.64 4442.91,-30.58 4451.15,-37.24 4453.51,-30.64"/>
</g>
<!-- Node17 -->
<g id="node17" class="node">
<title>Node17</title>
<g id="a_node17"><a xlink:href="http://www.dealii.org/developer/doxygen/deal.II/solver__richardson_8h.html.html" xlink:title=" ">
<polygon fill="none" stroke="black" points="4470,-0.5 4470,-30.5 4567,-30.5 4567,-0.5 4470,-0.5"/>
<text text-anchor="start" x="4478" y="-18.5" font-family="Helvetica,sans-Serif" font-size="10.00">deal.II/lac/solver</text>
<text text-anchor="middle" x="4518.5" y="-7.5" font-family="Helvetica,sans-Serif" font-size="10.00">_richardson.h</text>
</a>
</g>
</g>
<!-- Node7&#45;&gt;Node17 -->
<g id="edge21" class="edge">
<title>Node7&#45;&gt;Node17</title>
<path fill="none" stroke="midnightblue" d="M4570.96,-67.4C4562.01,-58.71 4550.36,-47.4 4540.31,-37.66"/>
<polygon fill="midnightblue" stroke="midnightblue" points="4542.62,-35.03 4533.01,-30.58 4537.75,-40.05 4542.62,-35.03"/>
</g>
<!-- Node18&#45;&gt;Node4 -->
<g id="edge23" class="edge">
<title>Node18&#45;&gt;Node4</title>
<path fill="none" stroke="midnightblue" d="M4365.76,-72.95C4353.8,-70.71 4340.67,-68.5 4328.5,-67 4054.94,-33.27 3727.06,-21.68 3583.23,-18.03"/>
<polygon fill="midnightblue" stroke="midnightblue" points="3583.28,-14.53 3573.2,-17.78 3583.11,-21.53 3583.28,-14.53"/>
</g>
<!-- Node19 -->
<g id="node19" class="node">
<title>Node19</title>
<g id="a_node19"><a xlink:href="http://www.dealii.org/developer/doxygen/deal.II/sd_8h.html.html" xlink:title=" ">
<polygon fill="none" stroke="black" points="3938,-6 3938,-25 4081,-25 4081,-6 3938,-6"/>
<text text-anchor="middle" x="4009.5" y="-13" font-family="Helvetica,sans-Serif" font-size="10.00">deal.II/differentiation/sd.h</text>
</a>
</g>
</g>
<!-- Node18&#45;&gt;Node19 -->
<g id="edge24" class="edge">
<title>Node18&#45;&gt;Node19</title>
<path fill="none" stroke="midnightblue" d="M4362,-72.96C4351.06,-70.93 4339.37,-68.83 4328.5,-67 4223.01,-49.22 4196.05,-48.43 4090.5,-31 4082.58,-29.69 4074.24,-28.26 4066.04,-26.82"/>
<polygon fill="midnightblue" stroke="midnightblue" points="4066.61,-23.37 4056.15,-25.07 4065.39,-30.26 4066.61,-23.37"/>
</g>
<!-- Node20&#45;&gt;Node2 -->
<g id="edge58" class="edge">
<title>Node20&#45;&gt;Node2</title>
<path fill="none" stroke="midnightblue" d="M2345.85,-142.08C1999.92,-136.97 335.18,-111.75 227.5,-98 220.68,-97.13 213.51,-95.81 206.58,-94.31"/>
<polygon fill="midnightblue" stroke="midnightblue" points="207.2,-90.86 196.67,-92.01 205.63,-97.68 207.2,-90.86"/>
</g>
<!-- Node20&#45;&gt;Node4 -->
<g id="edge30" class="edge">
<title>Node20&#45;&gt;Node4</title>
<path fill="none" stroke="midnightblue" d="M2471.11,-142.47C2695.9,-140.31 3451.09,-130.64 3490.5,-98 3506.96,-84.37 3510.78,-59.48 3511.05,-40.79"/>
<polygon fill="midnightblue" stroke="midnightblue" points="3514.54,-40.56 3510.86,-30.62 3507.54,-40.69 3514.54,-40.56"/>
</g>
<!-- Node20&#45;&gt;Node7 -->
<g id="edge59" class="edge">
<title>Node20&#45;&gt;Node7</title>
<path fill="none" stroke="midnightblue" d="M2471.16,-143.26C2776.02,-144.27 4106.2,-145.81 4517.5,-98 4518.78,-97.85 4520.07,-97.69 4521.38,-97.52"/>
<polygon fill="midnightblue" stroke="midnightblue" points="4522.1,-100.95 4531.46,-95.98 4521.05,-94.03 4522.1,-100.95"/>
</g>
<!-- Node20&#45;&gt;Node12 -->
<g id="edge49" class="edge">
<title>Node20&#45;&gt;Node12</title>
<path fill="none" stroke="midnightblue" d="M2471.14,-142.84C2813.92,-141.79 4448.39,-134.9 4484.5,-98 4494.14,-88.15 4493.53,-77.41 4484.5,-67 4447.28,-24.11 4287.46,-40.69 4231.5,-31 4224.67,-29.82 4217.49,-28.47 4210.43,-27.09"/>
<polygon fill="midnightblue" stroke="midnightblue" points="4210.72,-23.58 4200.22,-25.05 4209.35,-30.44 4210.72,-23.58"/>
</g>
<!-- Node20&#45;&gt;Node18 -->
<g id="edge60" class="edge">
<title>Node20&#45;&gt;Node18</title>
<path fill="none" stroke="midnightblue" d="M2471.17,-142.88C2758.99,-142.14 3956.03,-136.73 4328.5,-98 4337.86,-97.03 4347.77,-95.54 4357.28,-93.89"/>
<polygon fill="midnightblue" stroke="midnightblue" points="4358.19,-97.28 4367.4,-92.04 4356.93,-90.39 4358.19,-97.28"/>
</g>
<!-- Node21 -->
<g id="node21" class="node">
<title>Node21</title>
<g id="a_node21"><a xlink:href="http://www.dealii.org/developer/doxygen/deal.II/conditional__ostream_8h.html.html" xlink:title=" ">
<polygon fill="none" stroke="black" points="3195.5,-67.5 3195.5,-97.5 3325.5,-97.5 3325.5,-67.5 3195.5,-67.5"/>
<text text-anchor="start" x="3203.5" y="-85.5" font-family="Helvetica,sans-Serif" font-size="10.00">deal.II/base/conditional</text>
<text text-anchor="middle" x="3260.5" y="-74.5" font-family="Helvetica,sans-Serif" font-size="10.00">_ostream.h</text>
</a>
</g>
</g>
<!-- Node20&#45;&gt;Node21 -->
<g id="edge26" class="edge">
<title>Node20&#45;&gt;Node21</title>
<path fill="none" stroke="midnightblue" d="M2471.04,-142.26C2601.88,-140.08 2914.16,-131.63 3185.18,-98.05"/>
<polygon fill="midnightblue" stroke="midnightblue" points="3185.72,-101.51 3195.21,-96.79 3184.85,-94.56 3185.72,-101.51"/>
</g>
<!-- Node22 -->
<g id="node22" class="node">
<title>Node22</title>
<g id="a_node22"><a xlink:href="http://www.dealii.org/developer/doxygen/deal.II/convergence__table_8h.html.html" xlink:title=" ">
<polygon fill="none" stroke="black" points="3343.5,-67.5 3343.5,-97.5 3481.5,-97.5 3481.5,-67.5 3343.5,-67.5"/>
<text text-anchor="start" x="3351.5" y="-85.5" font-family="Helvetica,sans-Serif" font-size="10.00">deal.II/base/convergence</text>
<text text-anchor="middle" x="3412.5" y="-74.5" font-family="Helvetica,sans-Serif" font-size="10.00">_table.h</text>
</a>
</g>
</g>
<!-- Node20&#45;&gt;Node22 -->
<g id="edge27" class="edge">
<title>Node20&#45;&gt;Node22</title>
<path fill="none" stroke="midnightblue" d="M2471.06,-142.87C2619.22,-141.94 3003.18,-135.86 3333.02,-98.06"/>
<polygon fill="midnightblue" stroke="midnightblue" points="3333.72,-101.5 3343.25,-96.88 3332.92,-94.55 3333.72,-101.5"/>
</g>
<!-- Node23 -->
<g id="node23" class="node">
<title>Node23</title>
<g id="a_node23"><a xlink:href="http://www.dealii.org/developer/doxygen/deal.II/function_8h.html.html" xlink:title=" ">
<polygon fill="none" stroke="black" points="3538,-73 3538,-92 3663,-92 3663,-73 3538,-73"/>
<text text-anchor="middle" x="3600.5" y="-80" font-family="Helvetica,sans-Serif" font-size="10.00">deal.II/base/function.h</text>
</a>
</g>
</g>
<!-- Node20&#45;&gt;Node23 -->
<g id="edge28" class="edge">
<title>Node20&#45;&gt;Node23</title>
<path fill="none" stroke="midnightblue" d="M2471,-143.66C2640.78,-144.77 3124.56,-143.37 3523.5,-98 3532.44,-96.98 3541.89,-95.53 3551,-93.92"/>
<polygon fill="midnightblue" stroke="midnightblue" points="3551.9,-97.32 3561.1,-92.06 3550.63,-90.43 3551.9,-97.32"/>
</g>
<!-- Node24 -->
<g id="node24" class="node">
<title>Node24</title>
<g id="a_node24"><a xlink:href="http://www.dealii.org/developer/doxygen/deal.II/function__parser_8h.html.html" xlink:title=" ">
<polygon fill="none" stroke="black" points="3681.5,-67.5 3681.5,-97.5 3797.5,-97.5 3797.5,-67.5 3681.5,-67.5"/>
<text text-anchor="start" x="3689.5" y="-85.5" font-family="Helvetica,sans-Serif" font-size="10.00">deal.II/base/function</text>
<text text-anchor="middle" x="3739.5" y="-74.5" font-family="Helvetica,sans-Serif" font-size="10.00">_parser.h</text>
</a>
</g>
</g>
<!-- Node20&#45;&gt;Node24 -->
<g id="edge29" class="edge">
<title>Node20&#45;&gt;Node24</title>
<path fill="none" stroke="midnightblue" d="M2471.11,-142.24C2689.34,-139.38 3416.57,-127.86 3671.19,-97.98"/>
<polygon fill="midnightblue" stroke="midnightblue" points="3671.63,-101.45 3681.14,-96.77 3670.79,-94.5 3671.63,-101.45"/>
</g>
<!-- Node25 -->
<g id="node25" class="node">
<title>Node25</title>
<g id="a_node25"><a xlink:href="http://www.dealii.org/developer/doxygen/deal.II/quadrature__lib_8h.html.html" xlink:title=" ">
<polygon fill="none" stroke="black" points="3816,-67.5 3816,-97.5 3945,-97.5 3945,-67.5 3816,-67.5"/>
<text text-anchor="start" x="3824" y="-85.5" font-family="Helvetica,sans-Serif" font-size="10.00">deal.II/base/quadrature</text>
<text text-anchor="middle" x="3880.5" y="-74.5" font-family="Helvetica,sans-Serif" font-size="10.00">_lib.h</text>
</a>
</g>
</g>
<!-- Node20&#45;&gt;Node25 -->
<g id="edge31" class="edge">
<title>Node20&#45;&gt;Node25</title>
<path fill="none" stroke="midnightblue" d="M2471.11,-142.33C2704.15,-139.62 3521.99,-128.22 3805.36,-97.96"/>
<polygon fill="midnightblue" stroke="midnightblue" points="3806.06,-101.4 3815.62,-96.83 3805.3,-94.44 3806.06,-101.4"/>
</g>
<!-- Node26 -->
<g id="node26" class="node">
<title>Node26</title>
<g id="a_node26"><a xlink:href="http://www.dealii.org/developer/doxygen/deal.II/timer_8h.html.html" xlink:title=" ">
<polygon fill="none" stroke="black" points="3963,-73 3963,-92 4074,-92 4074,-73 3963,-73"/>
<text text-anchor="middle" x="4018.5" y="-80" font-family="Helvetica,sans-Serif" font-size="10.00">deal.II/base/timer.h</text>
</a>
</g>
</g>
<!-- Node20&#45;&gt;Node26 -->
<g id="edge32" class="edge">
<title>Node20&#45;&gt;Node26</title>
<path fill="none" stroke="midnightblue" d="M2471.21,-142.79C2722.91,-141.72 3660.31,-135.25 3954.5,-98 3961.73,-97.08 3969.34,-95.72 3976.69,-94.19"/>
<polygon fill="midnightblue" stroke="midnightblue" points="3977.48,-97.6 3986.49,-92.03 3975.97,-90.77 3977.48,-97.6"/>
</g>
<!-- Node27 -->
<g id="node27" class="node">
<title>Node27</title>
<g id="a_node27"><a xlink:href="http://www.dealii.org/developer/doxygen/deal.II/distributed_2grid__refinement_8h.html.html" xlink:title=" ">
<polygon fill="none" stroke="black" points="4092,-67.5 4092,-97.5 4199,-97.5 4199,-67.5 4092,-67.5"/>
<text text-anchor="start" x="4100" y="-85.5" font-family="Helvetica,sans-Serif" font-size="10.00">deal.II/distributed</text>
<text text-anchor="middle" x="4145.5" y="-74.5" font-family="Helvetica,sans-Serif" font-size="10.00">/grid_refinement.h</text>
</a>
</g>
</g>
<!-- Node20&#45;&gt;Node27 -->
<g id="edge33" class="edge">
<title>Node20&#45;&gt;Node27</title>
<path fill="none" stroke="midnightblue" d="M2471.44,-143.02C2733.85,-142.82 3742.42,-139.43 4081.77,-98.02"/>
<polygon fill="midnightblue" stroke="midnightblue" points="4082.37,-101.47 4091.85,-96.75 4081.49,-94.52 4082.37,-101.47"/>
</g>
<!-- Node28 -->
<g id="node28" class="node">
<title>Node28</title>
<g id="a_node28"><a xlink:href="http://www.dealii.org/developer/doxygen/deal.II/shared__tria_8h.html.html" xlink:title=" ">
<polygon fill="none" stroke="black" points="4217.5,-67.5 4217.5,-97.5 4319.5,-97.5 4319.5,-67.5 4217.5,-67.5"/>
<text text-anchor="start" x="4225.5" y="-85.5" font-family="Helvetica,sans-Serif" font-size="10.00">deal.II/distributed</text>
<text text-anchor="middle" x="4268.5" y="-74.5" font-family="Helvetica,sans-Serif" font-size="10.00">/shared_tria.h</text>
</a>
</g>
</g>
<!-- Node20&#45;&gt;Node28 -->
<g id="edge34" class="edge">
<title>Node20&#45;&gt;Node28</title>
<path fill="none" stroke="midnightblue" d="M2471.13,-142.22C2763.88,-138.49 3991.96,-121.62 4207.22,-97.85"/>
<polygon fill="midnightblue" stroke="midnightblue" points="4207.74,-101.31 4217.25,-96.64 4206.9,-94.37 4207.74,-101.31"/>
</g>
<!-- Node29 -->
<g id="node29" class="node">
<title>Node29</title>
<g id="a_node29"><a xlink:href="http://www.dealii.org/developer/doxygen/deal.II/distributed_2tria_8h.html.html" xlink:title=" ">
<polygon fill="none" stroke="black" points="236.5,-67.5 236.5,-97.5 338.5,-97.5 338.5,-67.5 236.5,-67.5"/>
<text text-anchor="start" x="244.5" y="-85.5" font-family="Helvetica,sans-Serif" font-size="10.00">deal.II/distributed</text>
<text text-anchor="middle" x="287.5" y="-74.5" font-family="Helvetica,sans-Serif" font-size="10.00">/tria.h</text>
</a>
</g>
</g>
<!-- Node20&#45;&gt;Node29 -->
<g id="edge35" class="edge">
<title>Node20&#45;&gt;Node29</title>
<path fill="none" stroke="midnightblue" d="M2345.77,-142.01C2019.11,-136.81 521.43,-112.38 348.85,-97.69"/>
<polygon fill="midnightblue" stroke="midnightblue" points="349.06,-94.2 338.75,-96.65 348.34,-101.16 349.06,-94.2"/>
</g>
<!-- Node30 -->
<g id="node30" class="node">
<title>Node30</title>
<g id="a_node30"><a xlink:href="http://www.dealii.org/developer/doxygen/deal.II/dof__handler_8h.html.html" xlink:title=" ">
<polygon fill="none" stroke="red" points="356.5,-73 356.5,-92 496.5,-92 496.5,-73 356.5,-73"/>
<text text-anchor="middle" x="426.5" y="-80" font-family="Helvetica,sans-Serif" font-size="10.00">deal.II/dofs/dof_handler.h</text>
</a>
</g>
</g>
<!-- Node20&#45;&gt;Node30 -->
<g id="edge36" class="edge">
<title>Node20&#45;&gt;Node30</title>
<path fill="none" stroke="midnightblue" d="M2345.93,-142.11C2038.09,-137.64 691.65,-117.16 505.5,-98 495.93,-97.01 485.77,-95.51 476.05,-93.83"/>
<polygon fill="midnightblue" stroke="midnightblue" points="476.57,-90.37 466.11,-92.03 475.33,-97.26 476.57,-90.37"/>
</g>
<!-- Node32 -->
<g id="node31" class="node">
<title>Node32</title>
<g id="a_node31"><a xlink:href="http://www.dealii.org/developer/doxygen/deal.II/dof__tools_8h.html.html" xlink:title=" ">
<polygon fill="none" stroke="black" points="514.5,-73 514.5,-92 642.5,-92 642.5,-73 514.5,-73"/>
<text text-anchor="middle" x="578.5" y="-80" font-family="Helvetica,sans-Serif" font-size="10.00">deal.II/dofs/dof_tools.h</text>
</a>
</g>
</g>
<!-- Node20&#45;&gt;Node32 -->
<g id="edge37" class="edge">
<title>Node20&#45;&gt;Node32</title>
<path fill="none" stroke="midnightblue" d="M2345.93,-142.03C2052.78,-137.4 822.27,-117.01 651.5,-98 642.92,-97.04 633.84,-95.6 625.11,-93.99"/>
<polygon fill="midnightblue" stroke="midnightblue" points="625.56,-90.51 615.07,-92.03 624.22,-97.38 625.56,-90.51"/>
</g>
<!-- Node33 -->
<g id="node32" class="node">
<title>Node33</title>
<g id="a_node32"><a xlink:href="http://www.dealii.org/developer/doxygen/deal.II/fe__q_8h.html.html" xlink:title=" ">
<polygon fill="none" stroke="black" points="660.5,-73 660.5,-92 752.5,-92 752.5,-73 660.5,-73"/>
<text text-anchor="middle" x="706.5" y="-80" font-family="Helvetica,sans-Serif" font-size="10.00">deal.II/fe/fe_q.h</text>
</a>
</g>
</g>
<!-- Node20&#45;&gt;Node33 -->
<g id="edge38" class="edge">
<title>Node20&#45;&gt;Node33</title>
<path fill="none" stroke="midnightblue" d="M2345.68,-142.12C2063.62,-138.07 921.1,-120.41 762.5,-98 756.58,-97.16 750.38,-95.93 744.35,-94.53"/>
<polygon fill="midnightblue" stroke="midnightblue" points="745,-91.09 734.45,-92.06 743.31,-97.88 745,-91.09"/>
</g>
<!-- Node34 -->
<g id="node33" class="node">
<title>Node34</title>
<g id="a_node33"><a xlink:href="http://www.dealii.org/developer/doxygen/deal.II/fe_2fe__values_8h.html.html" xlink:title=" ">
<polygon fill="none" stroke="black" points="771,-73 771,-92 890,-92 890,-73 771,-73"/>
<text text-anchor="middle" x="830.5" y="-80" font-family="Helvetica,sans-Serif" font-size="10.00">deal.II/fe/fe_values.h</text>
</a>
</g>
</g>
<!-- Node20&#45;&gt;Node34 -->
<g id="edge39" class="edge">
<title>Node20&#45;&gt;Node34</title>
<path fill="none" stroke="midnightblue" d="M2345.63,-141.78C2078.46,-136.53 1044.35,-115.24 899.5,-98 891.55,-97.05 883.16,-95.65 875.07,-94.07"/>
<polygon fill="midnightblue" stroke="midnightblue" points="875.55,-90.6 865.05,-92.01 874.14,-97.45 875.55,-90.6"/>
</g>
<!-- Node35 -->
<g id="node34" class="node">
<title>Node35</title>
<g id="a_node34"><a xlink:href="http://www.dealii.org/developer/doxygen/deal.II/fe__values__extractors_8h.html.html" xlink:title=" ">
<polygon fill="none" stroke="black" points="908.5,-67.5 908.5,-97.5 1018.5,-97.5 1018.5,-67.5 908.5,-67.5"/>
<text text-anchor="start" x="916.5" y="-85.5" font-family="Helvetica,sans-Serif" font-size="10.00">deal.II/fe/fe_values</text>
<text text-anchor="middle" x="963.5" y="-74.5" font-family="Helvetica,sans-Serif" font-size="10.00">_extractors.h</text>
</a>
</g>
</g>
<!-- Node20&#45;&gt;Node35 -->
<g id="edge40" class="edge">
<title>Node20&#45;&gt;Node35</title>
<path fill="none" stroke="midnightblue" d="M2345.87,-142.51C2114.67,-140.47 1308.61,-131.19 1028.82,-97.8"/>
<polygon fill="midnightblue" stroke="midnightblue" points="1029.05,-94.3 1018.69,-96.55 1028.19,-101.25 1029.05,-94.3"/>
</g>
<!-- Node36 -->
<g id="node35" class="node">
<title>Node36</title>
<g id="a_node35"><a xlink:href="http://www.dealii.org/developer/doxygen/deal.II/mapping__q__generic_8h.html.html" xlink:title=" ">
<polygon fill="none" stroke="black" points="1037,-67.5 1037,-97.5 1142,-97.5 1142,-67.5 1037,-67.5"/>
<text text-anchor="start" x="1045" y="-85.5" font-family="Helvetica,sans-Serif" font-size="10.00">deal.II/fe/mapping</text>
<text text-anchor="middle" x="1089.5" y="-74.5" font-family="Helvetica,sans-Serif" font-size="10.00">_q_generic.h</text>
</a>
</g>
</g>
<!-- Node20&#45;&gt;Node36 -->
<g id="edge41" class="edge">
<title>Node20&#45;&gt;Node36</title>
<path fill="none" stroke="midnightblue" d="M2345.84,-142.36C2128.4,-139.91 1406.32,-129.63 1152.42,-97.88"/>
<polygon fill="midnightblue" stroke="midnightblue" points="1152.5,-94.36 1142.14,-96.54 1151.6,-101.3 1152.5,-94.36"/>
</g>
<!-- Node37 -->
<g id="node36" class="node">
<title>Node37</title>
<g id="a_node36"><a xlink:href="http://www.dealii.org/developer/doxygen/deal.II/grid__generator_8h.html.html" xlink:title=" ">
<polygon fill="none" stroke="red" points="1160.5,-73 1160.5,-92 1312.5,-92 1312.5,-73 1160.5,-73"/>
<text text-anchor="middle" x="1236.5" y="-80" font-family="Helvetica,sans-Serif" font-size="10.00">deal.II/grid/grid_generator.h</text>
</a>
</g>
</g>
<!-- Node20&#45;&gt;Node37 -->
<g id="edge42" class="edge">
<title>Node20&#45;&gt;Node37</title>
<path fill="none" stroke="midnightblue" d="M2345.86,-143.15C2179,-142.96 1710.06,-138.54 1322.5,-98 1312.12,-96.91 1301.08,-95.36 1290.51,-93.67"/>
<polygon fill="midnightblue" stroke="midnightblue" points="1290.98,-90.2 1280.55,-92.02 1289.84,-97.11 1290.98,-90.2"/>
</g>
<!-- Node38 -->
<g id="node37" class="node">
<title>Node38</title>
<g id="a_node37"><a xlink:href="http://www.dealii.org/developer/doxygen/deal.II/grid_2tria_8h.html.html" xlink:title=" ">
<polygon fill="none" stroke="black" points="1331,-73 1331,-92 1428,-92 1428,-73 1331,-73"/>
<text text-anchor="middle" x="1379.5" y="-80" font-family="Helvetica,sans-Serif" font-size="10.00">deal.II/grid/tria.h</text>
</a>
</g>
</g>
<!-- Node20&#45;&gt;Node38 -->
<g id="edge43" class="edge">
<title>Node20&#45;&gt;Node38</title>
<path fill="none" stroke="midnightblue" d="M2345.7,-141.72C2159.71,-137.67 1613.76,-123.85 1437.5,-98 1431.45,-97.11 1425.11,-95.86 1418.93,-94.47"/>
<polygon fill="midnightblue" stroke="midnightblue" points="1419.32,-90.96 1408.78,-92.02 1417.68,-97.77 1419.32,-90.96"/>
</g>
<!-- Node39 -->
<g id="node38" class="node">
<title>Node39</title>
<g id="a_node38"><a xlink:href="http://www.dealii.org/developer/doxygen/deal.II/affine__constraints_8h.html.html" xlink:title=" ">
<polygon fill="none" stroke="black" points="1446,-67.5 1446,-97.5 1541,-97.5 1541,-67.5 1446,-67.5"/>
<text text-anchor="start" x="1454" y="-85.5" font-family="Helvetica,sans-Serif" font-size="10.00">deal.II/lac/affine</text>
<text text-anchor="middle" x="1493.5" y="-74.5" font-family="Helvetica,sans-Serif" font-size="10.00">_constraints.h</text>
</a>
</g>
</g>
<!-- Node20&#45;&gt;Node39 -->
<g id="edge44" class="edge">
<title>Node20&#45;&gt;Node39</title>
<path fill="none" stroke="midnightblue" d="M2345.8,-141.31C2178.41,-136.56 1722.7,-121.91 1551.39,-97.86"/>
<polygon fill="midnightblue" stroke="midnightblue" points="1551.66,-94.36 1541.25,-96.37 1550.64,-101.29 1551.66,-94.36"/>
</g>
<!-- Node40 -->
<g id="node39" class="node">
<title>Node40</title>
<g id="a_node39"><a xlink:href="http://www.dealii.org/developer/doxygen/deal.II/dynamic__sparsity__pattern_8h.html.html" xlink:title=" ">
<polygon fill="none" stroke="black" points="1559.5,-67.5 1559.5,-97.5 1669.5,-97.5 1669.5,-67.5 1559.5,-67.5"/>
<text text-anchor="start" x="1567.5" y="-85.5" font-family="Helvetica,sans-Serif" font-size="10.00">deal.II/lac/dynamic</text>
<text text-anchor="middle" x="1614.5" y="-74.5" font-family="Helvetica,sans-Serif" font-size="10.00">_sparsity_pattern.h</text>
</a>
</g>
</g>
<!-- Node20&#45;&gt;Node40 -->
<g id="edge45" class="edge">
<title>Node20&#45;&gt;Node40</title>
<path fill="none" stroke="midnightblue" d="M2345.75,-142.45C2220.82,-140.64 1932.07,-132.85 1679.8,-97.86"/>
<polygon fill="midnightblue" stroke="midnightblue" points="1680.1,-94.36 1669.71,-96.44 1679.13,-101.3 1680.1,-94.36"/>
</g>
<!-- Node41 -->
<g id="node40" class="node">
<title>Node41</title>
<g id="a_node40"><a xlink:href="http://www.dealii.org/developer/doxygen/deal.II/full__matrix_8h.html.html" xlink:title=" ">
<polygon fill="none" stroke="black" points="1688,-73 1688,-92 1817,-92 1817,-73 1688,-73"/>
<text text-anchor="middle" x="1752.5" y="-80" font-family="Helvetica,sans-Serif" font-size="10.00">deal.II/lac/full_matrix.h</text>
</a>
</g>
</g>
<!-- Node20&#45;&gt;Node41 -->
<g id="edge46" class="edge">
<title>Node20&#45;&gt;Node41</title>
<path fill="none" stroke="midnightblue" d="M2345.8,-140.55C2238.87,-135.83 2014.53,-123.6 1826.5,-98 1818.38,-96.89 1809.82,-95.46 1801.5,-93.93"/>
<polygon fill="midnightblue" stroke="midnightblue" points="1802.01,-90.47 1791.53,-92.03 1800.7,-97.34 1802.01,-90.47"/>
</g>
<!-- Node42 -->
<g id="node41" class="node">
<title>Node42</title>
<g id="a_node41"><a xlink:href="http://www.dealii.org/developer/doxygen/deal.II/generic__linear__algebra_8h.html.html" xlink:title=" ">
<polygon fill="none" stroke="black" points="1835,-67.5 1835,-97.5 1938,-97.5 1938,-67.5 1835,-67.5"/>
<text text-anchor="start" x="1843" y="-85.5" font-family="Helvetica,sans-Serif" font-size="10.00">deal.II/lac/generic</text>
<text text-anchor="middle" x="1886.5" y="-74.5" font-family="Helvetica,sans-Serif" font-size="10.00">_linear_algebra.h</text>
</a>
</g>
</g>
<!-- Node20&#45;&gt;Node42 -->
<g id="edge47" class="edge">
<title>Node20&#45;&gt;Node42</title>
<path fill="none" stroke="midnightblue" d="M2345.89,-139.6C2258.88,-134.27 2096.39,-122.15 1948.49,-98.01"/>
<polygon fill="midnightblue" stroke="midnightblue" points="1948.75,-94.5 1938.32,-96.32 1947.61,-101.41 1948.75,-94.5"/>
</g>
<!-- Node43 -->
<g id="node42" class="node">
<title>Node43</title>
<g id="a_node42"><a xlink:href="http://www.dealii.org/developer/doxygen/deal.II/precondition_8h.html.html" xlink:title=" ">
<polygon fill="none" stroke="black" points="1956,-73 1956,-92 2093,-92 2093,-73 1956,-73"/>
<text text-anchor="middle" x="2024.5" y="-80" font-family="Helvetica,sans-Serif" font-size="10.00">deal.II/lac/precondition.h</text>
</a>
</g>
</g>
<!-- Node20&#45;&gt;Node43 -->
<g id="edge48" class="edge">
<title>Node20&#45;&gt;Node43</title>
<path fill="none" stroke="midnightblue" d="M2345.98,-134.51C2284.06,-125.94 2186.59,-111.99 2102.5,-98 2094.86,-96.73 2086.81,-95.32 2078.9,-93.88"/>
<polygon fill="midnightblue" stroke="midnightblue" points="2079.46,-90.43 2069,-92.07 2078.2,-97.32 2079.46,-90.43"/>
</g>
<!-- Node44 -->
<g id="node43" class="node">
<title>Node44</title>
<g id="a_node43"><a xlink:href="http://www.dealii.org/developer/doxygen/deal.II/sparse__matrix_8h.html.html" xlink:title=" ">
<polygon fill="none" stroke="black" points="2111,-67.5 2111,-97.5 2210,-97.5 2210,-67.5 2111,-67.5"/>
<text text-anchor="start" x="2119" y="-85.5" font-family="Helvetica,sans-Serif" font-size="10.00">deal.II/lac/sparse</text>
<text text-anchor="middle" x="2160.5" y="-74.5" font-family="Helvetica,sans-Serif" font-size="10.00">_matrix.h</text>
</a>
</g>
</g>
<!-- Node20&#45;&gt;Node44 -->
<g id="edge50" class="edge">
<title>Node20&#45;&gt;Node44</title>
<path fill="none" stroke="midnightblue" d="M2372.25,-134.45C2336.2,-125.93 2279.04,-112.37 2219.95,-98.1"/>
<polygon fill="midnightblue" stroke="midnightblue" points="2220.61,-94.66 2210.07,-95.71 2218.97,-101.46 2220.61,-94.66"/>
</g>
<!-- Node45 -->
<g id="node44" class="node">
<title>Node45</title>
<g id="a_node44"><a xlink:href="http://www.dealii.org/developer/doxygen/deal.II/vector_8h.html.html" xlink:title=" ">
<polygon fill="none" stroke="black" points="2228,-73 2228,-92 2335,-92 2335,-73 2228,-73"/>
<text text-anchor="middle" x="2281.5" y="-80" font-family="Helvetica,sans-Serif" font-size="10.00">deal.II/lac/vector.h</text>
</a>
</g>
</g>
<!-- Node20&#45;&gt;Node45 -->
<g id="edge51" class="edge">
<title>Node20&#45;&gt;Node45</title>
<path fill="none" stroke="midnightblue" d="M2390.3,-134.48C2368.99,-124.49 2333.47,-107.85 2308.84,-96.31"/>
<polygon fill="midnightblue" stroke="midnightblue" points="2310.2,-93.08 2299.66,-92.01 2307.23,-99.42 2310.2,-93.08"/>
</g>
<!-- Node46 -->
<g id="node45" class="node">
<title>Node46</title>
<g id="a_node45"><a xlink:href="http://www.dealii.org/developer/doxygen/deal.II/copy__data_8h.html.html" xlink:title=" ">
<polygon fill="none" stroke="black" points="2353.5,-67.5 2353.5,-97.5 2463.5,-97.5 2463.5,-67.5 2353.5,-67.5"/>
<text text-anchor="start" x="2361.5" y="-85.5" font-family="Helvetica,sans-Serif" font-size="10.00">deal.II/meshworker</text>
<text text-anchor="middle" x="2408.5" y="-74.5" font-family="Helvetica,sans-Serif" font-size="10.00">/copy_data.h</text>
</a>
</g>
</g>
<!-- Node20&#45;&gt;Node46 -->
<g id="edge52" class="edge">
<title>Node20&#45;&gt;Node46</title>
<path fill="none" stroke="midnightblue" d="M2408.5,-134.48C2408.5,-127.47 2408.5,-117.19 2408.5,-107.7"/>
<polygon fill="midnightblue" stroke="midnightblue" points="2412,-107.52 2408.5,-97.52 2405,-107.52 2412,-107.52"/>
</g>
<!-- Node47 -->
<g id="node46" class="node">
<title>Node47</title>
<g id="a_node46"><a xlink:href="http://www.dealii.org/developer/doxygen/deal.II/scratch__data_8h.html.html" xlink:title=" ">
<polygon fill="none" stroke="black" points="2481.5,-67.5 2481.5,-97.5 2591.5,-97.5 2591.5,-67.5 2481.5,-67.5"/>
<text text-anchor="start" x="2489.5" y="-85.5" font-family="Helvetica,sans-Serif" font-size="10.00">deal.II/meshworker</text>
<text text-anchor="middle" x="2536.5" y="-74.5" font-family="Helvetica,sans-Serif" font-size="10.00">/scratch_data.h</text>
</a>
</g>
</g>
<!-- Node20&#45;&gt;Node47 -->
<g id="edge53" class="edge">
<title>Node20&#45;&gt;Node47</title>
<path fill="none" stroke="midnightblue" d="M2426.84,-134.48C2445.07,-126 2473.6,-112.74 2497,-101.86"/>
<polygon fill="midnightblue" stroke="midnightblue" points="2498.74,-104.91 2506.33,-97.52 2495.79,-98.56 2498.74,-104.91"/>
</g>
<!-- Node48 -->
<g id="node47" class="node">
<title>Node48</title>
<g id="a_node47"><a xlink:href="http://www.dealii.org/developer/doxygen/deal.II/numerics_2data__out_8h.html.html" xlink:title=" ">
<polygon fill="none" stroke="black" points="2610,-67.5 2610,-97.5 2729,-97.5 2729,-67.5 2610,-67.5"/>
<text text-anchor="start" x="2618" y="-85.5" font-family="Helvetica,sans-Serif" font-size="10.00">deal.II/numerics/data</text>
<text text-anchor="middle" x="2669.5" y="-74.5" font-family="Helvetica,sans-Serif" font-size="10.00">_out.h</text>
</a>
</g>
</g>
<!-- Node20&#45;&gt;Node48 -->
<g id="edge54" class="edge">
<title>Node20&#45;&gt;Node48</title>
<path fill="none" stroke="midnightblue" d="M2445.89,-134.48C2485.98,-125.34 2550.53,-110.62 2599.99,-99.35"/>
<polygon fill="midnightblue" stroke="midnightblue" points="2601.02,-102.7 2609.99,-97.07 2599.46,-95.88 2601.02,-102.7"/>
</g>
<!-- Node49 -->
<g id="node48" class="node">
<title>Node49</title>
<g id="a_node48"><a xlink:href="http://www.dealii.org/developer/doxygen/deal.II/matrix__tools_8h.html.html" xlink:title=" ">
<polygon fill="none" stroke="red" points="2747.5,-67.5 2747.5,-97.5 2877.5,-97.5 2877.5,-67.5 2747.5,-67.5"/>
<text text-anchor="start" x="2755.5" y="-85.5" font-family="Helvetica,sans-Serif" font-size="10.00">deal.II/numerics/matrix</text>
<text text-anchor="middle" x="2812.5" y="-74.5" font-family="Helvetica,sans-Serif" font-size="10.00">_tools.h</text>
</a>
</g>
</g>
<!-- Node20&#45;&gt;Node49 -->
<g id="edge55" class="edge">
<title>Node20&#45;&gt;Node49</title>
<path fill="none" stroke="midnightblue" d="M2471.01,-135.57C2535.29,-127.69 2638.53,-114.34 2737.04,-98.19"/>
<polygon fill="midnightblue" stroke="midnightblue" points="2737.87,-101.6 2747.17,-96.51 2736.73,-94.69 2737.87,-101.6"/>
</g>
<!-- Node50 -->
<g id="node49" class="node">
<title>Node50</title>
<g id="a_node49"><a xlink:href="http://www.dealii.org/developer/doxygen/deal.II/vector__tools_8h.html.html" xlink:title=" ">
<polygon fill="none" stroke="black" points="2895.5,-67.5 2895.5,-97.5 3023.5,-97.5 3023.5,-67.5 2895.5,-67.5"/>
<text text-anchor="start" x="2903.5" y="-85.5" font-family="Helvetica,sans-Serif" font-size="10.00">deal.II/numerics/vector</text>
<text text-anchor="middle" x="2959.5" y="-74.5" font-family="Helvetica,sans-Serif" font-size="10.00">_tools.h</text>
</a>
</g>
</g>
<!-- Node20&#45;&gt;Node50 -->
<g id="edge56" class="edge">
<title>Node20&#45;&gt;Node50</title>
<path fill="none" stroke="midnightblue" d="M2471.38,-139.14C2561.04,-133.17 2730.95,-120.19 2885.33,-98.07"/>
<polygon fill="midnightblue" stroke="midnightblue" points="2886.08,-101.5 2895.47,-96.6 2885.07,-94.57 2886.08,-101.5"/>
</g>
<!-- Node51 -->
<g id="node50" class="node">
<title>Node51</title>
<g id="a_node50"><a xlink:href="http://www.dealii.org/developer/doxygen/deal.II/arkode_8h.html.html" xlink:title=" ">
<polygon fill="none" stroke="black" points="3042,-73 3042,-92 3177,-92 3177,-73 3042,-73"/>
<text text-anchor="middle" x="3109.5" y="-80" font-family="Helvetica,sans-Serif" font-size="10.00">deal.II/sundials/arkode.h</text>
</a>
</g>
</g>
<!-- Node20&#45;&gt;Node51 -->
<g id="edge57" class="edge">
<title>Node20&#45;&gt;Node51</title>
<path fill="none" stroke="midnightblue" d="M2471.18,-140.85C2583.89,-136.45 2828.12,-124.53 3032.5,-98 3041.03,-96.89 3050.05,-95.45 3058.79,-93.9"/>
<polygon fill="midnightblue" stroke="midnightblue" points="3059.67,-97.29 3068.88,-92.05 3058.41,-90.41 3059.67,-97.29"/>
</g>
</g>
</svg>
