<?xml version="1.0" encoding="UTF-8" standalone="no"?>
<!DOCTYPE svg PUBLIC "-//W3C//DTD SVG 1.1//EN"
 "http://www.w3.org/Graphics/SVG/1.1/DTD/svg11.dtd">
<!-- Generated by graphviz version 2.43.0 (0)
 -->
<!-- Title: include/parsed_tools/symbolic_function.h Pages: 1 -->
<svg width="1074pt" height="240pt"
 viewBox="0.00 0.00 1073.50 240.00" xmlns="http://www.w3.org/2000/svg" xmlns:xlink="http://www.w3.org/1999/xlink">
<g id="graph0" class="graph" transform="scale(1 1) rotate(0) translate(4 236)">
<title>include/parsed_tools/symbolic_function.h</title>
<!-- Node1 -->
<g id="node1" class="node">
<title>Node1</title>
<g id="a_node1"><a xlink:title=" ">
<polygon fill="#bfbfbf" stroke="black" points="686,-201.5 686,-231.5 804,-231.5 804,-201.5 686,-201.5"/>
<text text-anchor="start" x="694" y="-219.5" font-family="Helvetica,sans-Serif" font-size="10.00">include/parsed_tools</text>
<text text-anchor="middle" x="745" y="-208.5" font-family="Helvetica,sans-Serif" font-size="10.00">/symbolic_function.h</text>
</a>
</g>
</g>
<!-- Node2 -->
<g id="node2" class="node">
<title>Node2</title>
<g id="a_node2"><a xlink:href="boundary__conditions_8h.html" target="_top" xlink:title=" ">
<polygon fill="none" stroke="black" points="600,-134.5 600,-164.5 730,-164.5 730,-134.5 600,-134.5"/>
<text text-anchor="start" x="608" y="-152.5" font-family="Helvetica,sans-Serif" font-size="10.00">include/parsed_tools</text>
<text text-anchor="middle" x="665" y="-141.5" font-family="Helvetica,sans-Serif" font-size="10.00">/boundary_conditions.h</text>
</a>
</g>
</g>
<!-- Node1&#45;&gt;Node2 -->
<g id="edge1" class="edge">
<title>Node1&#45;&gt;Node2</title>
<path fill="none" stroke="midnightblue" d="M719.63,-194.88C707.47,-185.01 693.22,-173.43 682.32,-164.58"/>
<polygon fill="midnightblue" stroke="midnightblue" points="717.67,-197.81 727.64,-201.4 722.09,-192.37 717.67,-197.81"/>
</g>
<!-- Node16 -->
<g id="node16" class="node">
<title>Node16</title>
<g id="a_node16"><a xlink:href="symbolic__function_8cc.html" target="_top" xlink:title=" ">
<polygon fill="none" stroke="black" points="748.5,-140 748.5,-159 903.5,-159 903.5,-140 748.5,-140"/>
<text text-anchor="middle" x="826" y="-147" font-family="Helvetica,sans-Serif" font-size="10.00">source/symbolic_function.cc</text>
</a>
</g>
</g>
<!-- Node1&#45;&gt;Node16 -->
<g id="edge15" class="edge">
<title>Node1&#45;&gt;Node16</title>
<path fill="none" stroke="midnightblue" d="M770.54,-195.01C785.57,-182.94 803.81,-168.3 815.17,-159.19"/>
<polygon fill="midnightblue" stroke="midnightblue" points="768.18,-192.41 762.58,-201.4 772.57,-197.87 768.18,-192.41"/>
</g>
<!-- Node3 -->
<g id="node3" class="node">
<title>Node3</title>
<g id="a_node3"><a xlink:href="distributed__lagrange_8h.html" target="_top" xlink:title=" ">
<polygon fill="none" stroke="black" points="150.5,-67.5 150.5,-97.5 279.5,-97.5 279.5,-67.5 150.5,-67.5"/>
<text text-anchor="start" x="158.5" y="-85.5" font-family="Helvetica,sans-Serif" font-size="10.00">include/pdes/serial</text>
<text text-anchor="middle" x="215" y="-74.5" font-family="Helvetica,sans-Serif" font-size="10.00">/distributed_lagrange.h</text>
</a>
</g>
</g>
<!-- Node2&#45;&gt;Node3 -->
<g id="edge2" class="edge">
<title>Node2&#45;&gt;Node3</title>
<path fill="none" stroke="midnightblue" d="M589.52,-137.6C502.75,-125.06 361.77,-104.7 279.78,-92.86"/>
<polygon fill="midnightblue" stroke="midnightblue" points="589.17,-141.08 599.57,-139.05 590.17,-134.15 589.17,-141.08"/>
</g>
<!-- Node6 -->
<g id="node6" class="node">
<title>Node6</title>
<g id="a_node6"><a xlink:href="linear__elasticity_8h.html" target="_top" xlink:title=" ">
<polygon fill="none" stroke="black" points="421,-67.5 421,-97.5 529,-97.5 529,-67.5 421,-67.5"/>
<text text-anchor="start" x="429" y="-85.5" font-family="Helvetica,sans-Serif" font-size="10.00">include/pdes/serial</text>
<text text-anchor="middle" x="475" y="-74.5" font-family="Helvetica,sans-Serif" font-size="10.00">/linear_elasticity.h</text>
</a>
</g>
</g>
<!-- Node2&#45;&gt;Node6 -->
<g id="edge5" class="edge">
<title>Node2&#45;&gt;Node6</title>
<path fill="none" stroke="midnightblue" d="M614.11,-131.09C583.44,-120.6 544.89,-107.41 516.15,-97.58"/>
<polygon fill="midnightblue" stroke="midnightblue" points="613.18,-134.47 623.77,-134.4 615.44,-127.85 613.18,-134.47"/>
</g>
<!-- Node9 -->
<g id="node9" class="node">
<title>Node9</title>
<g id="a_node9"><a xlink:href="poisson_8h.html" target="_top" xlink:title=" ">
<polygon fill="none" stroke="black" points="611,-67.5 611,-97.5 719,-97.5 719,-67.5 611,-67.5"/>
<text text-anchor="start" x="619" y="-85.5" font-family="Helvetica,sans-Serif" font-size="10.00">include/pdes/serial</text>
<text text-anchor="middle" x="665" y="-74.5" font-family="Helvetica,sans-Serif" font-size="10.00">/poisson.h</text>
</a>
</g>
</g>
<!-- Node2&#45;&gt;Node9 -->
<g id="edge8" class="edge">
<title>Node2&#45;&gt;Node9</title>
<path fill="none" stroke="midnightblue" d="M665,-124.11C665,-115.15 665,-105.32 665,-97.58"/>
<polygon fill="midnightblue" stroke="midnightblue" points="661.5,-124.4 665,-134.4 668.5,-124.4 661.5,-124.4"/>
</g>
<!-- Node12 -->
<g id="node12" class="node">
<title>Node12</title>
<g id="a_node12"><a xlink:href="stokes_8h.html" target="_top" xlink:title=" ">
<polygon fill="none" stroke="black" points="772,-67.5 772,-97.5 880,-97.5 880,-67.5 772,-67.5"/>
<text text-anchor="start" x="780" y="-85.5" font-family="Helvetica,sans-Serif" font-size="10.00">include/pdes/serial</text>
<text text-anchor="middle" x="826" y="-74.5" font-family="Helvetica,sans-Serif" font-size="10.00">/stokes.h</text>
</a>
</g>
</g>
<!-- Node2&#45;&gt;Node12 -->
<g id="edge11" class="edge">
<title>Node2&#45;&gt;Node12</title>
<path fill="none" stroke="midnightblue" d="M709.48,-130.54C735.24,-120.14 767.2,-107.24 791.13,-97.58"/>
<polygon fill="midnightblue" stroke="midnightblue" points="707.9,-127.41 699.93,-134.4 710.52,-133.9 707.9,-127.41"/>
</g>
<!-- Node15 -->
<g id="node15" class="node">
<title>Node15</title>
<g id="a_node15"><a xlink:href="boundary__conditions_8cc.html" target="_top" xlink:title=" ">
<polygon fill="none" stroke="black" points="898.5,-73 898.5,-92 1065.5,-92 1065.5,-73 898.5,-73"/>
<text text-anchor="middle" x="982" y="-80" font-family="Helvetica,sans-Serif" font-size="10.00">source/boundary_conditions.cc</text>
</a>
</g>
</g>
<!-- Node2&#45;&gt;Node15 -->
<g id="edge14" class="edge">
<title>Node2&#45;&gt;Node15</title>
<path fill="none" stroke="midnightblue" d="M740.13,-133.09C802.78,-120.25 889.7,-102.43 940.48,-92.01"/>
<polygon fill="midnightblue" stroke="midnightblue" points="739.39,-129.67 730.3,-135.11 740.8,-136.53 739.39,-129.67"/>
</g>
<!-- Node4 -->
<g id="node4" class="node">
<title>Node4</title>
<g id="a_node4"><a xlink:href="source_2pdes_2serial_2distributed__lagrange_8cc.html" target="_top" xlink:title=" ">
<polygon fill="none" stroke="black" points="0,-0.5 0,-30.5 134,-30.5 134,-0.5 0,-0.5"/>
<text text-anchor="start" x="8" y="-18.5" font-family="Helvetica,sans-Serif" font-size="10.00">source/pdes/serial</text>
<text text-anchor="middle" x="67" y="-7.5" font-family="Helvetica,sans-Serif" font-size="10.00">/distributed_lagrange.cc</text>
</a>
</g>
</g>
<!-- Node3&#45;&gt;Node4 -->
<g id="edge3" class="edge">
<title>Node3&#45;&gt;Node4</title>
<path fill="none" stroke="midnightblue" d="M173.49,-63.27C149.92,-52.92 120.86,-40.15 99.05,-30.58"/>
<polygon fill="midnightblue" stroke="midnightblue" points="172.32,-66.58 182.89,-67.4 175.14,-60.17 172.32,-66.58"/>
</g>
<!-- Node5 -->
<g id="node5" class="node">
<title>Node5</title>
<g id="a_node5"><a xlink:href="apps_2serial_2distributed__lagrange_8cc.html" target="_top" xlink:title=" ">
<polygon fill="none" stroke="black" points="152.5,-0.5 152.5,-30.5 277.5,-30.5 277.5,-0.5 152.5,-0.5"/>
<text text-anchor="start" x="160.5" y="-18.5" font-family="Helvetica,sans-Serif" font-size="10.00">apps/serial/distributed</text>
<text text-anchor="middle" x="215" y="-7.5" font-family="Helvetica,sans-Serif" font-size="10.00">_lagrange.cc</text>
</a>
</g>
</g>
<!-- Node3&#45;&gt;Node5 -->
<g id="edge4" class="edge">
<title>Node3&#45;&gt;Node5</title>
<path fill="none" stroke="midnightblue" d="M215,-57.11C215,-48.15 215,-38.32 215,-30.58"/>
<polygon fill="midnightblue" stroke="midnightblue" points="211.5,-57.4 215,-67.4 218.5,-57.4 211.5,-57.4"/>
</g>
<!-- Node7 -->
<g id="node7" class="node">
<title>Node7</title>
<g id="a_node7"><a xlink:href="source_2pdes_2serial_2linear__elasticity_8cc.html" target="_top" xlink:title=" ">
<polygon fill="none" stroke="black" points="296,-0.5 296,-30.5 406,-30.5 406,-0.5 296,-0.5"/>
<text text-anchor="start" x="304" y="-18.5" font-family="Helvetica,sans-Serif" font-size="10.00">source/pdes/serial</text>
<text text-anchor="middle" x="351" y="-7.5" font-family="Helvetica,sans-Serif" font-size="10.00">/linear_elasticity.cc</text>
</a>
</g>
</g>
<!-- Node6&#45;&gt;Node7 -->
<g id="edge6" class="edge">
<title>Node6&#45;&gt;Node7</title>
<path fill="none" stroke="midnightblue" d="M439.16,-62.71C419.61,-52.46 395.8,-39.98 377.85,-30.58"/>
<polygon fill="midnightblue" stroke="midnightblue" points="437.61,-65.85 448.09,-67.4 440.86,-59.65 437.61,-65.85"/>
</g>
<!-- Node8 -->
<g id="node8" class="node">
<title>Node8</title>
<g id="a_node8"><a xlink:href="apps_2serial_2linear__elasticity_8cc.html" target="_top" xlink:title=" ">
<polygon fill="none" stroke="black" points="424.5,-0.5 424.5,-30.5 525.5,-30.5 525.5,-0.5 424.5,-0.5"/>
<text text-anchor="start" x="432.5" y="-18.5" font-family="Helvetica,sans-Serif" font-size="10.00">apps/serial/linear</text>
<text text-anchor="middle" x="475" y="-7.5" font-family="Helvetica,sans-Serif" font-size="10.00">_elasticity.cc</text>
</a>
</g>
</g>
<!-- Node6&#45;&gt;Node8 -->
<g id="edge7" class="edge">
<title>Node6&#45;&gt;Node8</title>
<path fill="none" stroke="midnightblue" d="M475,-57.11C475,-48.15 475,-38.32 475,-30.58"/>
<polygon fill="midnightblue" stroke="midnightblue" points="471.5,-57.4 475,-67.4 478.5,-57.4 471.5,-57.4"/>
</g>
<!-- Node10 -->
<g id="node10" class="node">
<title>Node10</title>
<g id="a_node10"><a xlink:href="source_2pdes_2serial_2poisson_8cc.html" target="_top" xlink:title=" ">
<polygon fill="none" stroke="black" points="543.5,-0.5 543.5,-30.5 648.5,-30.5 648.5,-0.5 543.5,-0.5"/>
<text text-anchor="start" x="551.5" y="-18.5" font-family="Helvetica,sans-Serif" font-size="10.00">source/pdes/serial</text>
<text text-anchor="middle" x="596" y="-7.5" font-family="Helvetica,sans-Serif" font-size="10.00">/poisson.cc</text>
</a>
</g>
</g>
<!-- Node9&#45;&gt;Node10 -->
<g id="edge9" class="edge">
<title>Node9&#45;&gt;Node10</title>
<path fill="none" stroke="midnightblue" d="M642.51,-60.31C632.16,-50.56 620.16,-39.26 610.94,-30.58"/>
<polygon fill="midnightblue" stroke="midnightblue" points="640.35,-63.09 650.03,-67.4 645.15,-57.99 640.35,-63.09"/>
</g>
<!-- Node11 -->
<g id="node11" class="node">
<title>Node11</title>
<g id="a_node11"><a xlink:href="apps_2serial_2poisson_8cc.html" target="_top" xlink:title=" ">
<polygon fill="none" stroke="black" points="667,-6 667,-25 791,-25 791,-6 667,-6"/>
<text text-anchor="middle" x="729" y="-13" font-family="Helvetica,sans-Serif" font-size="10.00">apps/serial/poisson.cc</text>
</a>
</g>
</g>
<!-- Node9&#45;&gt;Node11 -->
<g id="edge10" class="edge">
<title>Node9&#45;&gt;Node11</title>
<path fill="none" stroke="midnightblue" d="M686.17,-60C697.85,-48.13 711.72,-34.05 720.44,-25.19"/>
<polygon fill="midnightblue" stroke="midnightblue" points="683.41,-57.81 678.89,-67.4 688.4,-62.73 683.41,-57.81"/>
</g>
<!-- Node13 -->
<g id="node13" class="node">
<title>Node13</title>
<g id="a_node13"><a xlink:href="source_2pdes_2serial_2stokes_8cc.html" target="_top" xlink:title=" ">
<polygon fill="none" stroke="black" points="809.5,-0.5 809.5,-30.5 914.5,-30.5 914.5,-0.5 809.5,-0.5"/>
<text text-anchor="start" x="817.5" y="-18.5" font-family="Helvetica,sans-Serif" font-size="10.00">source/pdes/serial</text>
<text text-anchor="middle" x="862" y="-7.5" font-family="Helvetica,sans-Serif" font-size="10.00">/stokes.cc</text>
</a>
</g>
</g>
<!-- Node12&#45;&gt;Node13 -->
<g id="edge12" class="edge">
<title>Node12&#45;&gt;Node13</title>
<path fill="none" stroke="midnightblue" d="M838.7,-58.58C843.87,-49.24 849.68,-38.75 854.2,-30.58"/>
<polygon fill="midnightblue" stroke="midnightblue" points="835.59,-56.95 833.81,-67.4 841.72,-60.34 835.59,-56.95"/>
</g>
<!-- Node14 -->
<g id="node14" class="node">
<title>Node14</title>
<g id="a_node14"><a xlink:href="apps_2serial_2stokes_8cc.html" target="_top" xlink:title=" ">
<polygon fill="none" stroke="black" points="933,-6 933,-25 1051,-25 1051,-6 933,-6"/>
<text text-anchor="middle" x="992" y="-13" font-family="Helvetica,sans-Serif" font-size="10.00">apps/serial/stokes.cc</text>
</a>
</g>
</g>
<!-- Node12&#45;&gt;Node14 -->
<g id="edge13" class="edge">
<title>Node12&#45;&gt;Node14</title>
<path fill="none" stroke="midnightblue" d="M871.66,-63.62C903.79,-51.04 945.35,-34.77 970.27,-25.01"/>
<polygon fill="midnightblue" stroke="midnightblue" points="870.05,-60.49 862.02,-67.4 872.61,-67.01 870.05,-60.49"/>
</g>
</g>
</svg>
