<?xml version="1.0" encoding="UTF-8" standalone="no"?>
<!DOCTYPE svg PUBLIC "-//W3C//DTD SVG 1.1//EN"
 "http://www.w3.org/Graphics/SVG/1.1/DTD/svg11.dtd">
<!-- Generated by graphviz version 2.43.0 (0)
 -->
<!-- Title: include/parsed_tools/symbolic_function.h Pages: 1 -->
<svg width="1245pt" height="240pt"
 viewBox="0.00 0.00 1244.50 240.00" xmlns="http://www.w3.org/2000/svg" xmlns:xlink="http://www.w3.org/1999/xlink">
<g id="graph0" class="graph" transform="scale(1 1) rotate(0) translate(4 236)">
<title>include/parsed_tools/symbolic_function.h</title>
<!-- Node1 -->
<g id="node1" class="node">
<title>Node1</title>
<g id="a_node1"><a xlink:title=" ">
<polygon fill="#bfbfbf" stroke="black" points="815,-201.5 815,-231.5 933,-231.5 933,-201.5 815,-201.5"/>
<text text-anchor="start" x="823" y="-219.5" font-family="Helvetica,sans-Serif" font-size="10.00">include/parsed_tools</text>
<text text-anchor="middle" x="874" y="-208.5" font-family="Helvetica,sans-Serif" font-size="10.00">/symbolic_function.h</text>
</a>
</g>
</g>
<!-- Node2 -->
<g id="node2" class="node">
<title>Node2</title>
<g id="a_node2"><a xlink:href="boundary__conditions_8h.html" target="_top" xlink:title=" ">
<polygon fill="none" stroke="black" points="729,-134.5 729,-164.5 859,-164.5 859,-134.5 729,-134.5"/>
<text text-anchor="start" x="737" y="-152.5" font-family="Helvetica,sans-Serif" font-size="10.00">include/parsed_tools</text>
<text text-anchor="middle" x="794" y="-141.5" font-family="Helvetica,sans-Serif" font-size="10.00">/boundary_conditions.h</text>
</a>
</g>
</g>
<!-- Node1&#45;&gt;Node2 -->
<g id="edge1" class="edge">
<title>Node1&#45;&gt;Node2</title>
<path fill="none" stroke="midnightblue" d="M848.63,-194.88C836.47,-185.01 822.22,-173.43 811.32,-164.58"/>
<polygon fill="midnightblue" stroke="midnightblue" points="846.67,-197.81 856.64,-201.4 851.09,-192.37 846.67,-197.81"/>
</g>
<!-- Node18 -->
<g id="node18" class="node">
<title>Node18</title>
<g id="a_node18"><a xlink:href="symbolic__function_8cc.html" target="_top" xlink:title=" ">
<polygon fill="none" stroke="black" points="877.5,-140 877.5,-159 1032.5,-159 1032.5,-140 877.5,-140"/>
<text text-anchor="middle" x="955" y="-147" font-family="Helvetica,sans-Serif" font-size="10.00">source/symbolic_function.cc</text>
</a>
</g>
</g>
<!-- Node1&#45;&gt;Node18 -->
<g id="edge17" class="edge">
<title>Node1&#45;&gt;Node18</title>
<path fill="none" stroke="midnightblue" d="M899.54,-195.01C914.57,-182.94 932.81,-168.3 944.17,-159.19"/>
<polygon fill="midnightblue" stroke="midnightblue" points="897.18,-192.41 891.58,-201.4 901.57,-197.87 897.18,-192.41"/>
</g>
<!-- Node3 -->
<g id="node3" class="node">
<title>Node3</title>
<g id="a_node3"><a xlink:href="distributed__lagrange_8h.html" target="_top" xlink:title=" ">
<polygon fill="none" stroke="black" points="150.5,-67.5 150.5,-97.5 279.5,-97.5 279.5,-67.5 150.5,-67.5"/>
<text text-anchor="start" x="158.5" y="-85.5" font-family="Helvetica,sans-Serif" font-size="10.00">include/pdes/serial</text>
<text text-anchor="middle" x="215" y="-74.5" font-family="Helvetica,sans-Serif" font-size="10.00">/distributed_lagrange.h</text>
</a>
</g>
</g>
<!-- Node2&#45;&gt;Node3 -->
<g id="edge2" class="edge">
<title>Node2&#45;&gt;Node3</title>
<path fill="none" stroke="midnightblue" d="M718.9,-140.07C604.29,-127.2 387.72,-102.89 279.69,-90.76"/>
<polygon fill="midnightblue" stroke="midnightblue" points="718.66,-143.56 728.99,-141.2 719.44,-136.61 718.66,-143.56"/>
</g>
<!-- Node6 -->
<g id="node6" class="node">
<title>Node6</title>
<g id="a_node6"><a xlink:href="linear__elasticity_8h.html" target="_top" xlink:title=" ">
<polygon fill="none" stroke="black" points="421,-67.5 421,-97.5 529,-97.5 529,-67.5 421,-67.5"/>
<text text-anchor="start" x="429" y="-85.5" font-family="Helvetica,sans-Serif" font-size="10.00">include/pdes/serial</text>
<text text-anchor="middle" x="475" y="-74.5" font-family="Helvetica,sans-Serif" font-size="10.00">/linear_elasticity.h</text>
</a>
</g>
</g>
<!-- Node2&#45;&gt;Node6 -->
<g id="edge5" class="edge">
<title>Node2&#45;&gt;Node6</title>
<path fill="none" stroke="midnightblue" d="M718.79,-133.17C660.53,-121.3 581.23,-105.15 529.11,-94.53"/>
<polygon fill="midnightblue" stroke="midnightblue" points="718.18,-136.62 728.68,-135.19 719.58,-129.76 718.18,-136.62"/>
</g>
<!-- Node9 -->
<g id="node9" class="node">
<title>Node9</title>
<g id="a_node9"><a xlink:href="poisson_8h.html" target="_top" xlink:title=" ">
<polygon fill="none" stroke="black" points="675,-67.5 675,-97.5 783,-97.5 783,-67.5 675,-67.5"/>
<text text-anchor="start" x="683" y="-85.5" font-family="Helvetica,sans-Serif" font-size="10.00">include/pdes/serial</text>
<text text-anchor="middle" x="729" y="-74.5" font-family="Helvetica,sans-Serif" font-size="10.00">/poisson.h</text>
</a>
</g>
</g>
<!-- Node2&#45;&gt;Node9 -->
<g id="edge8" class="edge">
<title>Node2&#45;&gt;Node9</title>
<path fill="none" stroke="midnightblue" d="M772.81,-127.31C763.06,-117.56 751.76,-106.26 743.08,-97.58"/>
<polygon fill="midnightblue" stroke="midnightblue" points="770.35,-129.8 779.9,-134.4 775.3,-124.85 770.35,-129.8"/>
</g>
<!-- Node12 -->
<g id="node12" class="node">
<title>Node12</title>
<g id="a_node12"><a xlink:href="reduced__lagrange_8h.html" target="_top" xlink:title=" ">
<polygon fill="none" stroke="black" points="806,-67.5 806,-97.5 922,-97.5 922,-67.5 806,-67.5"/>
<text text-anchor="start" x="814" y="-85.5" font-family="Helvetica,sans-Serif" font-size="10.00">include/pdes/serial</text>
<text text-anchor="middle" x="864" y="-74.5" font-family="Helvetica,sans-Serif" font-size="10.00">/reduced_lagrange.h</text>
</a>
</g>
</g>
<!-- Node2&#45;&gt;Node12 -->
<g id="edge11" class="edge">
<title>Node2&#45;&gt;Node12</title>
<path fill="none" stroke="midnightblue" d="M816.82,-127.31C827.32,-117.56 839.49,-106.26 848.84,-97.58"/>
<polygon fill="midnightblue" stroke="midnightblue" points="814.14,-125.03 809.19,-134.4 818.9,-130.16 814.14,-125.03"/>
</g>
<!-- Node14 -->
<g id="node14" class="node">
<title>Node14</title>
<g id="a_node14"><a xlink:href="stokes_8h.html" target="_top" xlink:title=" ">
<polygon fill="none" stroke="black" points="943,-67.5 943,-97.5 1051,-97.5 1051,-67.5 943,-67.5"/>
<text text-anchor="start" x="951" y="-85.5" font-family="Helvetica,sans-Serif" font-size="10.00">include/pdes/serial</text>
<text text-anchor="middle" x="997" y="-74.5" font-family="Helvetica,sans-Serif" font-size="10.00">/stokes.h</text>
</a>
</g>
</g>
<!-- Node2&#45;&gt;Node14 -->
<g id="edge13" class="edge">
<title>Node2&#45;&gt;Node14</title>
<path fill="none" stroke="midnightblue" d="M847.94,-131.23C880.78,-120.71 922.2,-107.45 953.04,-97.58"/>
<polygon fill="midnightblue" stroke="midnightblue" points="846.5,-128.01 838.05,-134.4 848.64,-134.68 846.5,-128.01"/>
</g>
<!-- Node17 -->
<g id="node17" class="node">
<title>Node17</title>
<g id="a_node17"><a xlink:href="boundary__conditions_8cc.html" target="_top" xlink:title=" ">
<polygon fill="none" stroke="black" points="1069.5,-73 1069.5,-92 1236.5,-92 1236.5,-73 1069.5,-73"/>
<text text-anchor="middle" x="1153" y="-80" font-family="Helvetica,sans-Serif" font-size="10.00">source/boundary_conditions.cc</text>
</a>
</g>
</g>
<!-- Node2&#45;&gt;Node17 -->
<g id="edge16" class="edge">
<title>Node2&#45;&gt;Node17</title>
<path fill="none" stroke="midnightblue" d="M869.24,-133.79C957.26,-117.43 1048.41,-101.5 1103.27,-92.03"/>
<polygon fill="midnightblue" stroke="midnightblue" points="868.55,-130.35 859.36,-135.63 869.83,-137.24 868.55,-130.35"/>
</g>
<!-- Node4 -->
<g id="node4" class="node">
<title>Node4</title>
<g id="a_node4"><a xlink:href="source_2pdes_2serial_2distributed__lagrange_8cc.html" target="_top" xlink:title=" ">
<polygon fill="none" stroke="black" points="0,-0.5 0,-30.5 134,-30.5 134,-0.5 0,-0.5"/>
<text text-anchor="start" x="8" y="-18.5" font-family="Helvetica,sans-Serif" font-size="10.00">source/pdes/serial</text>
<text text-anchor="middle" x="67" y="-7.5" font-family="Helvetica,sans-Serif" font-size="10.00">/distributed_lagrange.cc</text>
</a>
</g>
</g>
<!-- Node3&#45;&gt;Node4 -->
<g id="edge3" class="edge">
<title>Node3&#45;&gt;Node4</title>
<path fill="none" stroke="midnightblue" d="M173.49,-63.27C149.92,-52.92 120.86,-40.15 99.05,-30.58"/>
<polygon fill="midnightblue" stroke="midnightblue" points="172.32,-66.58 182.89,-67.4 175.14,-60.17 172.32,-66.58"/>
</g>
<!-- Node5 -->
<g id="node5" class="node">
<title>Node5</title>
<g id="a_node5"><a xlink:href="apps_2serial_2distributed__lagrange_8cc.html" target="_top" xlink:title=" ">
<polygon fill="none" stroke="black" points="152.5,-0.5 152.5,-30.5 277.5,-30.5 277.5,-0.5 152.5,-0.5"/>
<text text-anchor="start" x="160.5" y="-18.5" font-family="Helvetica,sans-Serif" font-size="10.00">apps/serial/distributed</text>
<text text-anchor="middle" x="215" y="-7.5" font-family="Helvetica,sans-Serif" font-size="10.00">_lagrange.cc</text>
</a>
</g>
</g>
<!-- Node3&#45;&gt;Node5 -->
<g id="edge4" class="edge">
<title>Node3&#45;&gt;Node5</title>
<path fill="none" stroke="midnightblue" d="M215,-57.11C215,-48.15 215,-38.32 215,-30.58"/>
<polygon fill="midnightblue" stroke="midnightblue" points="211.5,-57.4 215,-67.4 218.5,-57.4 211.5,-57.4"/>
</g>
<!-- Node7 -->
<g id="node7" class="node">
<title>Node7</title>
<g id="a_node7"><a xlink:href="source_2pdes_2serial_2linear__elasticity_8cc.html" target="_top" xlink:title=" ">
<polygon fill="none" stroke="black" points="296,-0.5 296,-30.5 406,-30.5 406,-0.5 296,-0.5"/>
<text text-anchor="start" x="304" y="-18.5" font-family="Helvetica,sans-Serif" font-size="10.00">source/pdes/serial</text>
<text text-anchor="middle" x="351" y="-7.5" font-family="Helvetica,sans-Serif" font-size="10.00">/linear_elasticity.cc</text>
</a>
</g>
</g>
<!-- Node6&#45;&gt;Node7 -->
<g id="edge6" class="edge">
<title>Node6&#45;&gt;Node7</title>
<path fill="none" stroke="midnightblue" d="M439.16,-62.71C419.61,-52.46 395.8,-39.98 377.85,-30.58"/>
<polygon fill="midnightblue" stroke="midnightblue" points="437.61,-65.85 448.09,-67.4 440.86,-59.65 437.61,-65.85"/>
</g>
<!-- Node8 -->
<g id="node8" class="node">
<title>Node8</title>
<g id="a_node8"><a xlink:href="apps_2serial_2linear__elasticity_8cc.html" target="_top" xlink:title=" ">
<polygon fill="none" stroke="black" points="424.5,-0.5 424.5,-30.5 525.5,-30.5 525.5,-0.5 424.5,-0.5"/>
<text text-anchor="start" x="432.5" y="-18.5" font-family="Helvetica,sans-Serif" font-size="10.00">apps/serial/linear</text>
<text text-anchor="middle" x="475" y="-7.5" font-family="Helvetica,sans-Serif" font-size="10.00">_elasticity.cc</text>
</a>
</g>
</g>
<!-- Node6&#45;&gt;Node8 -->
<g id="edge7" class="edge">
<title>Node6&#45;&gt;Node8</title>
<path fill="none" stroke="midnightblue" d="M475,-57.11C475,-48.15 475,-38.32 475,-30.58"/>
<polygon fill="midnightblue" stroke="midnightblue" points="471.5,-57.4 475,-67.4 478.5,-57.4 471.5,-57.4"/>
</g>
<!-- Node10 -->
<g id="node10" class="node">
<title>Node10</title>
<g id="a_node10"><a xlink:href="source_2pdes_2serial_2poisson_8cc.html" target="_top" xlink:title=" ">
<polygon fill="none" stroke="black" points="543.5,-0.5 543.5,-30.5 648.5,-30.5 648.5,-0.5 543.5,-0.5"/>
<text text-anchor="start" x="551.5" y="-18.5" font-family="Helvetica,sans-Serif" font-size="10.00">source/pdes/serial</text>
<text text-anchor="middle" x="596" y="-7.5" font-family="Helvetica,sans-Serif" font-size="10.00">/poisson.cc</text>
</a>
</g>
</g>
<!-- Node9&#45;&gt;Node10 -->
<g id="edge9" class="edge">
<title>Node9&#45;&gt;Node10</title>
<path fill="none" stroke="midnightblue" d="M691.13,-62.99C670.05,-52.69 644.22,-40.07 624.8,-30.58"/>
<polygon fill="midnightblue" stroke="midnightblue" points="689.62,-66.15 700.14,-67.4 692.69,-59.86 689.62,-66.15"/>
</g>
<!-- Node11 -->
<g id="node11" class="node">
<title>Node11</title>
<g id="a_node11"><a xlink:href="apps_2serial_2poisson_8cc.html" target="_top" xlink:title=" ">
<polygon fill="none" stroke="black" points="667,-6 667,-25 791,-25 791,-6 667,-6"/>
<text text-anchor="middle" x="729" y="-13" font-family="Helvetica,sans-Serif" font-size="10.00">apps/serial/poisson.cc</text>
</a>
</g>
</g>
<!-- Node9&#45;&gt;Node11 -->
<g id="edge10" class="edge">
<title>Node9&#45;&gt;Node11</title>
<path fill="none" stroke="midnightblue" d="M729,-57.25C729,-46.02 729,-33.38 729,-25.19"/>
<polygon fill="midnightblue" stroke="midnightblue" points="725.5,-57.4 729,-67.4 732.5,-57.4 725.5,-57.4"/>
</g>
<!-- Node13 -->
<g id="node13" class="node">
<title>Node13</title>
<g id="a_node13"><a xlink:href="reduced__lagrange_8cc.html" target="_top" xlink:title=" ">
<polygon fill="none" stroke="black" points="809,-0.5 809,-30.5 929,-30.5 929,-0.5 809,-0.5"/>
<text text-anchor="start" x="817" y="-18.5" font-family="Helvetica,sans-Serif" font-size="10.00">source/pdes/serial</text>
<text text-anchor="middle" x="869" y="-7.5" font-family="Helvetica,sans-Serif" font-size="10.00">/reduced_lagrange.cc</text>
</a>
</g>
</g>
<!-- Node12&#45;&gt;Node13 -->
<g id="edge12" class="edge">
<title>Node12&#45;&gt;Node13</title>
<path fill="none" stroke="midnightblue" d="M865.85,-57.4C866.55,-48.37 867.31,-38.41 867.92,-30.58"/>
<polygon fill="midnightblue" stroke="midnightblue" points="862.36,-57.16 865.08,-67.4 869.34,-57.69 862.36,-57.16"/>
</g>
<!-- Node15 -->
<g id="node15" class="node">
<title>Node15</title>
<g id="a_node15"><a xlink:href="source_2pdes_2serial_2stokes_8cc.html" target="_top" xlink:title=" ">
<polygon fill="none" stroke="black" points="947.5,-0.5 947.5,-30.5 1052.5,-30.5 1052.5,-0.5 947.5,-0.5"/>
<text text-anchor="start" x="955.5" y="-18.5" font-family="Helvetica,sans-Serif" font-size="10.00">source/pdes/serial</text>
<text text-anchor="middle" x="1000" y="-7.5" font-family="Helvetica,sans-Serif" font-size="10.00">/stokes.cc</text>
</a>
</g>
</g>
<!-- Node14&#45;&gt;Node15 -->
<g id="edge14" class="edge">
<title>Node14&#45;&gt;Node15</title>
<path fill="none" stroke="midnightblue" d="M998.11,-57.4C998.53,-48.37 998.99,-38.41 999.35,-30.58"/>
<polygon fill="midnightblue" stroke="midnightblue" points="994.62,-57.25 997.65,-67.4 1001.61,-57.57 994.62,-57.25"/>
</g>
<!-- Node16 -->
<g id="node16" class="node">
<title>Node16</title>
<g id="a_node16"><a xlink:href="apps_2serial_2stokes_8cc.html" target="_top" xlink:title=" ">
<polygon fill="none" stroke="black" points="1071,-6 1071,-25 1189,-25 1189,-6 1071,-6"/>
<text text-anchor="middle" x="1130" y="-13" font-family="Helvetica,sans-Serif" font-size="10.00">apps/serial/stokes.cc</text>
</a>
</g>
</g>
<!-- Node14&#45;&gt;Node16 -->
<g id="edge15" class="edge">
<title>Node14&#45;&gt;Node16</title>
<path fill="none" stroke="midnightblue" d="M1034.92,-62.97C1060.47,-50.48 1092.97,-34.6 1112.59,-25.01"/>
<polygon fill="midnightblue" stroke="midnightblue" points="1033.31,-59.86 1025.86,-67.4 1036.38,-66.15 1033.31,-59.86"/>
</g>
</g>
</svg>
