<?xml version="1.0" encoding="UTF-8" standalone="no"?>
<!DOCTYPE svg PUBLIC "-//W3C//DTD SVG 1.1//EN"
 "http://www.w3.org/Graphics/SVG/1.1/DTD/svg11.dtd">
<!-- Generated by graphviz version 2.43.0 (0)
 -->
<!-- Title: include/parsed_tools/symbolic_function.h Pages: 1 -->
<svg width="348pt" height="229pt"
 viewBox="0.00 0.00 348.00 229.00" xmlns="http://www.w3.org/2000/svg" xmlns:xlink="http://www.w3.org/1999/xlink">
<g id="graph0" class="graph" transform="scale(1 1) rotate(0) translate(4 225)">
<title>include/parsed_tools/symbolic_function.h</title>
<!-- Node1 -->
<g id="node1" class="node">
<title>Node1</title>
<g id="a_node1"><a xlink:title=" ">
<polygon fill="#bfbfbf" stroke="black" points="83,-190.5 83,-220.5 201,-220.5 201,-190.5 83,-190.5"/>
<text text-anchor="start" x="91" y="-208.5" font-family="Helvetica,sans-Serif" font-size="10.00">include/parsed_tools</text>
<text text-anchor="middle" x="142" y="-197.5" font-family="Helvetica,sans-Serif" font-size="10.00">/symbolic_function.h</text>
</a>
</g>
</g>
<!-- Node2 -->
<g id="node2" class="node">
<title>Node2</title>
<g id="a_node2"><a target="_parent" xlink:href="http://www.dealii.org/developer/doxygen/deal.II/config_8h.html.html" xlink:title=" ">
<polygon fill="none" stroke="black" points="0,-129 0,-148 114,-148 114,-129 0,-129"/>
<text text-anchor="middle" x="57" y="-136" font-family="Helvetica,sans-Serif" font-size="10.00">deal.II/base/config.h</text>
</a>
</g>
</g>
<!-- Node1&#45;&gt;Node2 -->
<g id="edge1" class="edge">
<title>Node1&#45;&gt;Node2</title>
<path fill="none" stroke="midnightblue" d="M123.56,-190.4C109.65,-179.76 90.61,-165.2 76.46,-154.38"/>
<polygon fill="midnightblue" stroke="midnightblue" points="78.44,-151.49 68.37,-148.19 74.19,-157.05 78.44,-151.49"/>
</g>
<!-- Node3 -->
<g id="node3" class="node">
<title>Node3</title>
<g id="a_node3"><a target="_parent" xlink:href="http://www.dealii.org/developer/doxygen/deal.II/parameter__acceptor_8h.html.html" xlink:title=" ">
<polygon fill="none" stroke="black" points="78.5,-0.5 78.5,-30.5 205.5,-30.5 205.5,-0.5 78.5,-0.5"/>
<text text-anchor="start" x="86.5" y="-18.5" font-family="Helvetica,sans-Serif" font-size="10.00">deal.II/base/parameter</text>
<text text-anchor="middle" x="142" y="-7.5" font-family="Helvetica,sans-Serif" font-size="10.00">_acceptor.h</text>
</a>
</g>
</g>
<!-- Node1&#45;&gt;Node3 -->
<g id="edge2" class="edge">
<title>Node1&#45;&gt;Node3</title>
<path fill="none" stroke="midnightblue" d="M142,-190.37C142,-158.44 142,-80.44 142,-40.67"/>
<polygon fill="midnightblue" stroke="midnightblue" points="145.5,-40.54 142,-30.54 138.5,-40.54 145.5,-40.54"/>
</g>
<!-- Node4 -->
<g id="node4" class="node">
<title>Node4</title>
<g id="a_node4"><a target="_parent" xlink:href="http://www.dealii.org/developer/doxygen/deal.II/symbolic__function_8h.html.html" xlink:title=" ">
<polygon fill="none" stroke="black" points="172,-123.5 172,-153.5 292,-153.5 292,-123.5 172,-123.5"/>
<text text-anchor="start" x="180" y="-141.5" font-family="Helvetica,sans-Serif" font-size="10.00">deal.II/base/symbolic</text>
<text text-anchor="middle" x="232" y="-130.5" font-family="Helvetica,sans-Serif" font-size="10.00">_function.h</text>
</a>
</g>
</g>
<!-- Node1&#45;&gt;Node4 -->
<g id="edge3" class="edge">
<title>Node1&#45;&gt;Node4</title>
<path fill="none" stroke="midnightblue" d="M161.53,-190.4C174.03,-181.37 190.44,-169.51 204.28,-159.52"/>
<polygon fill="midnightblue" stroke="midnightblue" points="206.45,-162.27 212.51,-153.58 202.35,-156.59 206.45,-162.27"/>
</g>
<!-- Node5 -->
<g id="node5" class="node">
<title>Node5</title>
<g id="a_node5"><a xlink:href="function_8h.html" target="_top" xlink:title=" ">
<polygon fill="none" stroke="black" points="170.5,-67.5 170.5,-86.5 295.5,-86.5 295.5,-67.5 170.5,-67.5"/>
<text text-anchor="middle" x="233" y="-74.5" font-family="Helvetica,sans-Serif" font-size="10.00">deal.II/base/function.h</text>
</a>
</g>
</g>
<!-- Node4&#45;&gt;Node5 -->
<g id="edge4" class="edge">
<title>Node4&#45;&gt;Node5</title>
<path fill="none" stroke="midnightblue" d="M232.24,-123.4C232.37,-115.47 232.54,-105.46 232.68,-96.86"/>
<polygon fill="midnightblue" stroke="midnightblue" points="236.19,-96.72 232.85,-86.66 229.19,-96.6 236.19,-96.72"/>
</g>
<!-- Node5&#45;&gt;Node3 -->
<g id="edge6" class="edge">
<title>Node5&#45;&gt;Node3</title>
<path fill="none" stroke="midnightblue" d="M219.96,-67.48C207.52,-59.34 188.33,-46.79 172.1,-36.18"/>
<polygon fill="midnightblue" stroke="midnightblue" points="173.73,-33.07 163.45,-30.52 169.9,-38.92 173.73,-33.07"/>
</g>
<!-- Node6 -->
<g id="node6" class="node">
<title>Node6</title>
<g id="a_node6"><a target="_parent" xlink:href="http://www.dealii.org/developer/doxygen/deal.II/function__parser_8h.html.html" xlink:title=" ">
<polygon fill="none" stroke="black" points="224,-0.5 224,-30.5 340,-30.5 340,-0.5 224,-0.5"/>
<text text-anchor="start" x="232" y="-18.5" font-family="Helvetica,sans-Serif" font-size="10.00">deal.II/base/function</text>
<text text-anchor="middle" x="282" y="-7.5" font-family="Helvetica,sans-Serif" font-size="10.00">_parser.h</text>
</a>
</g>
</g>
<!-- Node5&#45;&gt;Node6 -->
<g id="edge5" class="edge">
<title>Node5&#45;&gt;Node6</title>
<path fill="none" stroke="midnightblue" d="M240.02,-67.48C246.28,-59.87 255.73,-48.4 264.08,-38.26"/>
<polygon fill="midnightblue" stroke="midnightblue" points="266.8,-40.47 270.45,-30.52 261.39,-36.02 266.8,-40.47"/>
</g>
</g>
</svg>
