<?xml version="1.0" encoding="UTF-8" standalone="no"?>
<!DOCTYPE svg PUBLIC "-//W3C//DTD SVG 1.1//EN"
 "http://www.w3.org/Graphics/SVG/1.1/DTD/svg11.dtd">
<!-- Generated by graphviz version 2.43.0 (0)
 -->
<!-- Title: include/parsed_tools/symbolic_function.h Pages: 1 -->
<svg width="478pt" height="218pt"
 viewBox="0.00 0.00 477.50 218.00" xmlns="http://www.w3.org/2000/svg" xmlns:xlink="http://www.w3.org/1999/xlink">
<g id="graph0" class="graph" transform="scale(1 1) rotate(0) translate(4 214)">
<title>include/parsed_tools/symbolic_function.h</title>
<!-- Node1 -->
<g id="node1" class="node">
<title>Node1</title>
<g id="a_node1"><a xlink:title=" ">
<polygon fill="#bfbfbf" stroke="black" points="179.5,-179.5 179.5,-209.5 297.5,-209.5 297.5,-179.5 179.5,-179.5"/>
<text text-anchor="start" x="187.5" y="-197.5" font-family="Helvetica,sans-Serif" font-size="10.00">include/parsed_tools</text>
<text text-anchor="middle" x="238.5" y="-186.5" font-family="Helvetica,sans-Serif" font-size="10.00">/symbolic_function.h</text>
</a>
</g>
</g>
<!-- Node2 -->
<g id="node2" class="node">
<title>Node2</title>
<g id="a_node2"><a xlink:href="symbolic__function_8cc.html" target="_top" xlink:title=" ">
<polygon fill="none" stroke="black" points="0,-118 0,-137 155,-137 155,-118 0,-118"/>
<text text-anchor="middle" x="77.5" y="-125" font-family="Helvetica,sans-Serif" font-size="10.00">source/symbolic_function.cc</text>
</a>
</g>
</g>
<!-- Node1&#45;&gt;Node2 -->
<g id="edge1" class="edge">
<title>Node1&#45;&gt;Node2</title>
<path fill="none" stroke="midnightblue" d="M194.22,-175.62C163.05,-163.04 122.74,-146.77 98.57,-137.01"/>
<polygon fill="midnightblue" stroke="midnightblue" points="192.98,-178.9 203.57,-179.4 195.6,-172.41 192.98,-178.9"/>
</g>
<!-- Node3 -->
<g id="node3" class="node">
<title>Node3</title>
<g id="a_node3"><a xlink:href="boundary__conditions_8h.html" target="_top" xlink:title=" ">
<polygon fill="none" stroke="black" points="173.5,-112.5 173.5,-142.5 303.5,-142.5 303.5,-112.5 173.5,-112.5"/>
<text text-anchor="start" x="181.5" y="-130.5" font-family="Helvetica,sans-Serif" font-size="10.00">include/parsed_tools</text>
<text text-anchor="middle" x="238.5" y="-119.5" font-family="Helvetica,sans-Serif" font-size="10.00">/boundary_conditions.h</text>
</a>
</g>
</g>
<!-- Node1&#45;&gt;Node3 -->
<g id="edge2" class="edge">
<title>Node1&#45;&gt;Node3</title>
<path fill="none" stroke="midnightblue" d="M238.5,-169.11C238.5,-160.15 238.5,-150.32 238.5,-142.58"/>
<polygon fill="midnightblue" stroke="midnightblue" points="235,-169.4 238.5,-179.4 242,-169.4 235,-169.4"/>
</g>
<!-- Node5 -->
<g id="node5" class="node">
<title>Node5</title>
<g id="a_node5"><a xlink:href="serial__poisson_8h.html" target="_top" xlink:title=" ">
<polygon fill="none" stroke="black" points="264.5,-56.5 264.5,-75.5 398.5,-75.5 398.5,-56.5 264.5,-56.5"/>
<text text-anchor="middle" x="331.5" y="-63.5" font-family="Helvetica,sans-Serif" font-size="10.00">include/serial_poisson.h</text>
</a>
</g>
</g>
<!-- Node1&#45;&gt;Node5 -->
<g id="edge7" class="edge">
<title>Node1&#45;&gt;Node5</title>
<path fill="none" stroke="midnightblue" d="M277.57,-174.3C290.39,-166.25 303.61,-155.75 312.5,-143 327.12,-122.02 330.51,-90.87 331.28,-75.8"/>
<polygon fill="midnightblue" stroke="midnightblue" points="275.63,-171.38 268.81,-179.48 279.2,-177.4 275.63,-171.38"/>
</g>
<!-- Node4 -->
<g id="node4" class="node">
<title>Node4</title>
<g id="a_node4"><a xlink:href="boundary__conditions_8cc.html" target="_top" xlink:title=" ">
<polygon fill="none" stroke="black" points="79,-56.5 79,-75.5 246,-75.5 246,-56.5 79,-56.5"/>
<text text-anchor="middle" x="162.5" y="-63.5" font-family="Helvetica,sans-Serif" font-size="10.00">source/boundary_conditions.cc</text>
</a>
</g>
</g>
<!-- Node3&#45;&gt;Node4 -->
<g id="edge3" class="edge">
<title>Node3&#45;&gt;Node4</title>
<path fill="none" stroke="midnightblue" d="M212.56,-106.19C199.25,-95.77 183.75,-83.63 173.56,-75.66"/>
<polygon fill="midnightblue" stroke="midnightblue" points="210.46,-108.99 220.49,-112.4 214.77,-103.48 210.46,-108.99"/>
</g>
<!-- Node3&#45;&gt;Node5 -->
<g id="edge4" class="edge">
<title>Node3&#45;&gt;Node5</title>
<path fill="none" stroke="midnightblue" d="M269.33,-106.78C285.81,-96.23 305.27,-83.78 317.97,-75.66"/>
<polygon fill="midnightblue" stroke="midnightblue" points="267.08,-104.06 260.54,-112.4 270.85,-109.96 267.08,-104.06"/>
</g>
<!-- Node6 -->
<g id="node6" class="node">
<title>Node6</title>
<g id="a_node6"><a xlink:href="source_2serial__poisson_8cc.html" target="_top" xlink:title=" ">
<polygon fill="none" stroke="black" points="190,-0.5 190,-19.5 325,-19.5 325,-0.5 190,-0.5"/>
<text text-anchor="middle" x="257.5" y="-7.5" font-family="Helvetica,sans-Serif" font-size="10.00">source/serial_poisson.cc</text>
</a>
</g>
</g>
<!-- Node5&#45;&gt;Node6 -->
<g id="edge5" class="edge">
<title>Node5&#45;&gt;Node6</title>
<path fill="none" stroke="midnightblue" d="M311.47,-50.38C298.09,-40.62 280.94,-28.11 269.61,-19.83"/>
<polygon fill="midnightblue" stroke="midnightblue" points="309.47,-53.26 319.61,-56.32 313.6,-47.6 309.47,-53.26"/>
</g>
<!-- Node7 -->
<g id="node7" class="node">
<title>Node7</title>
<g id="a_node7"><a xlink:href="apps_2serial__poisson_8cc.html" target="_top" xlink:title=" ">
<polygon fill="none" stroke="black" points="343.5,-0.5 343.5,-19.5 469.5,-19.5 469.5,-0.5 343.5,-0.5"/>
<text text-anchor="middle" x="406.5" y="-7.5" font-family="Helvetica,sans-Serif" font-size="10.00">apps/serial_poisson.cc</text>
</a>
</g>
</g>
<!-- Node5&#45;&gt;Node7 -->
<g id="edge6" class="edge">
<title>Node5&#45;&gt;Node7</title>
<path fill="none" stroke="midnightblue" d="M351.81,-50.38C365.36,-40.62 382.74,-28.11 394.23,-19.83"/>
<polygon fill="midnightblue" stroke="midnightblue" points="349.62,-47.64 343.55,-56.32 353.71,-53.32 349.62,-47.64"/>
</g>
</g>
</svg>
