<?xml version="1.0" encoding="UTF-8" standalone="no"?>
<!DOCTYPE svg PUBLIC "-//W3C//DTD SVG 1.1//EN"
 "http://www.w3.org/Graphics/SVG/1.1/DTD/svg11.dtd">
<!-- Generated by graphviz version 2.43.0 (0)
 -->
<!-- Title: include/cgal/wrappers.h Pages: 1 -->
<svg width="1237pt" height="665pt"
 viewBox="0.00 0.00 1237.00 665.00" xmlns="http://www.w3.org/2000/svg" xmlns:xlink="http://www.w3.org/1999/xlink">
<g id="graph0" class="graph" transform="scale(1 1) rotate(0) translate(4 661)">
<title>include/cgal/wrappers.h</title>
<!-- Node1 -->
<g id="node1" class="node">
<title>Node1</title>
<g id="a_node1"><a xlink:title=" ">
<polygon fill="#bfbfbf" stroke="black" points="321,-637.5 321,-656.5 453,-656.5 453,-637.5 321,-637.5"/>
<text text-anchor="middle" x="387" y="-644.5" font-family="Helvetica,sans-Serif" font-size="10.00">include/cgal/wrappers.h</text>
</a>
</g>
</g>
<!-- Node2 -->
<g id="node2" class="node">
<title>Node2</title>
<g id="a_node2"><a xlink:href="http://www.dealii.org/developer/doxygen/deal.II/config_8h.html" xlink:title=" ">
<polygon fill="none" stroke="black" points="702.5,-525.5 702.5,-544.5 817.5,-544.5 817.5,-525.5 702.5,-525.5"/>
<text text-anchor="middle" x="760" y="-532.5" font-family="Helvetica,sans-Serif" font-size="10.00">deal.II/base/config.h</text>
</a>
</g>
</g>
<!-- Node1&#45;&gt;Node2 -->
<g id="edge1" class="edge">
<title>Node1&#45;&gt;Node2</title>
<path fill="none" stroke="midnightblue" d="M415.96,-637.46C482.41,-617.86 645.9,-569.65 721.06,-547.48"/>
<polygon fill="midnightblue" stroke="midnightblue" points="722.46,-550.72 731.06,-544.53 720.48,-544.01 722.46,-550.72"/>
</g>
<!-- Node22 -->
<g id="node22" class="node">
<title>Node22</title>
<g id="a_node22"><a xlink:href="http://www.dealii.org/developer/doxygen/deal.II/base_2point_8h.html" xlink:title=" ">
<polygon fill="none" stroke="black" points="291,-581.5 291,-600.5 401,-600.5 401,-581.5 291,-581.5"/>
<text text-anchor="middle" x="346" y="-588.5" font-family="Helvetica,sans-Serif" font-size="10.00">deal.II/base/point.h</text>
</a>
</g>
</g>
<!-- Node1&#45;&gt;Node22 -->
<g id="edge62" class="edge">
<title>Node1&#45;&gt;Node22</title>
<path fill="none" stroke="midnightblue" d="M380.23,-637.08C374.44,-629.46 365.94,-618.26 358.86,-608.94"/>
<polygon fill="midnightblue" stroke="midnightblue" points="361.48,-606.6 352.64,-600.75 355.9,-610.83 361.48,-606.6"/>
</g>
<!-- Node3 -->
<g id="node3" class="node">
<title>Node3</title>
<g id="a_node3"><a xlink:href="http://www.dealii.org/developer/doxygen/deal.II/mpi_8h.html" xlink:title=" ">
<polygon fill="none" stroke="black" points="568,-469.5 568,-488.5 612,-488.5 612,-469.5 568,-469.5"/>
<text text-anchor="middle" x="590" y="-476.5" font-family="Helvetica,sans-Serif" font-size="10.00">mpi.h</text>
</a>
</g>
</g>
<!-- Node2&#45;&gt;Node3 -->
<g id="edge2" class="edge">
<title>Node2&#45;&gt;Node3</title>
<path fill="none" stroke="midnightblue" d="M727.97,-525.44C697.38,-516.36 651.79,-501.94 621.41,-491.78"/>
<polygon fill="midnightblue" stroke="midnightblue" points="622.33,-488.4 611.73,-488.52 620.09,-495.03 622.33,-488.4"/>
</g>
<!-- Node8 -->
<g id="node8" class="node">
<title>Node8</title>
<g id="a_node8"><a xlink:href="http://www.dealii.org/developer/doxygen/deal.II/numbers_8h.html" xlink:title=" ">
<polygon fill="none" stroke="black" points="903,-207 903,-226 1031,-226 1031,-207 903,-207"/>
<text text-anchor="middle" x="967" y="-214" font-family="Helvetica,sans-Serif" font-size="10.00">deal.II/base/numbers.h</text>
</a>
</g>
</g>
<!-- Node2&#45;&gt;Node8 -->
<g id="edge60" class="edge">
<title>Node2&#45;&gt;Node8</title>
<path fill="none" stroke="midnightblue" d="M801.33,-525.45C879.57,-509.08 1041,-470.25 1041,-418.5 1041,-418.5 1041,-418.5 1041,-349.5 1041,-301.52 1001.22,-256.71 979.72,-233.67"/>
<polygon fill="midnightblue" stroke="midnightblue" points="982.13,-231.12 972.74,-226.21 977.01,-235.9 982.13,-231.12"/>
</g>
<!-- Node9 -->
<g id="node9" class="node">
<title>Node9</title>
<g id="a_node9"><a xlink:href="http://www.dealii.org/developer/doxygen/deal.II/types_8h.html" xlink:title=" ">
<polygon fill="none" stroke="black" points="1050,-140 1050,-159 1162,-159 1162,-140 1050,-140"/>
<text text-anchor="middle" x="1106" y="-147" font-family="Helvetica,sans-Serif" font-size="10.00">deal.II/base/types.h</text>
</a>
</g>
</g>
<!-- Node2&#45;&gt;Node9 -->
<g id="edge61" class="edge">
<title>Node2&#45;&gt;Node9</title>
<path fill="none" stroke="midnightblue" d="M817.67,-528.16C922.92,-516.31 1135,-484.72 1135,-418.5 1135,-418.5 1135,-418.5 1135,-282.5 1135,-240.54 1117.05,-193.9 1108.74,-168.84"/>
<polygon fill="midnightblue" stroke="midnightblue" points="1112.07,-167.74 1105.78,-159.21 1105.38,-169.8 1112.07,-167.74"/>
</g>
<!-- Node3&#45;&gt;Node2 -->
<g id="edge3" class="edge">
<title>Node3&#45;&gt;Node2</title>
<path fill="none" stroke="midnightblue" d="M612.03,-485.62C641.74,-494.21 694.36,-510.78 728.27,-522.11"/>
<polygon fill="midnightblue" stroke="midnightblue" points="727.56,-525.56 738.15,-525.44 729.8,-518.93 727.56,-525.56"/>
</g>
<!-- Node4 -->
<g id="node4" class="node">
<title>Node4</title>
<g id="a_node4"><a xlink:href="http://www.dealii.org/developer/doxygen/deal.II/array__view_8h.html" xlink:title=" ">
<polygon fill="none" stroke="black" points="425.5,-402.5 425.5,-432.5 526.5,-432.5 526.5,-402.5 425.5,-402.5"/>
<text text-anchor="start" x="433.5" y="-420.5" font-family="Helvetica,sans-Serif" font-size="10.00">deal.II/base/array</text>
<text text-anchor="middle" x="476" y="-409.5" font-family="Helvetica,sans-Serif" font-size="10.00">_view.h</text>
</a>
</g>
</g>
<!-- Node3&#45;&gt;Node4 -->
<g id="edge4" class="edge">
<title>Node3&#45;&gt;Node4</title>
<path fill="none" stroke="midnightblue" d="M573.67,-469.48C557.58,-461.08 532.47,-447.97 511.74,-437.15"/>
<polygon fill="midnightblue" stroke="midnightblue" points="513.35,-434.05 502.87,-432.52 510.11,-440.25 513.35,-434.05"/>
</g>
<!-- Node3&#45;&gt;Node8 -->
<g id="edge58" class="edge">
<title>Node3&#45;&gt;Node8</title>
<path fill="none" stroke="midnightblue" d="M612.07,-473.67C666.26,-462.35 808.95,-428.36 912,-366 949.4,-343.37 966.55,-339.08 984,-299 992.98,-278.37 984.75,-252.69 976.92,-235.73"/>
<polygon fill="midnightblue" stroke="midnightblue" points="979.87,-233.79 972.26,-226.42 973.61,-236.93 979.87,-233.79"/>
</g>
<!-- Node12 -->
<g id="node12" class="node">
<title>Node12</title>
<g id="a_node12"><a xlink:href="http://www.dealii.org/developer/doxygen/deal.II/template__constraints_8h.html" xlink:title=" ">
<polygon fill="none" stroke="black" points="605,-67.5 605,-97.5 725,-97.5 725,-67.5 605,-67.5"/>
<text text-anchor="start" x="613" y="-85.5" font-family="Helvetica,sans-Serif" font-size="10.00">deal.II/base/template</text>
<text text-anchor="middle" x="665" y="-74.5" font-family="Helvetica,sans-Serif" font-size="10.00">_constraints.h</text>
</a>
</g>
</g>
<!-- Node3&#45;&gt;Node12 -->
<g id="edge59" class="edge">
<title>Node3&#45;&gt;Node12</title>
<path fill="none" stroke="midnightblue" d="M585.89,-469.28C581.94,-460.38 576.26,-446.07 574,-433 571.41,-417.98 570.94,-353.15 575,-335 593.11,-254.06 628.14,-244.44 652,-165 657.63,-146.27 660.95,-124.34 662.82,-107.95"/>
<polygon fill="midnightblue" stroke="midnightblue" points="666.35,-107.91 663.9,-97.6 659.38,-107.18 666.35,-107.91"/>
</g>
<!-- Node17 -->
<g id="node17" class="node">
<title>Node17</title>
<g id="a_node17"><a xlink:href="http://www.dealii.org/developer/doxygen/deal.II/index__set_8h.html" xlink:title=" ">
<polygon fill="none" stroke="black" points="304.5,-402.5 304.5,-432.5 407.5,-432.5 407.5,-402.5 304.5,-402.5"/>
<text text-anchor="start" x="312.5" y="-420.5" font-family="Helvetica,sans-Serif" font-size="10.00">deal.II/base/index</text>
<text text-anchor="middle" x="356" y="-409.5" font-family="Helvetica,sans-Serif" font-size="10.00">_set.h</text>
</a>
</g>
</g>
<!-- Node3&#45;&gt;Node17 -->
<g id="edge41" class="edge">
<title>Node3&#45;&gt;Node17</title>
<path fill="none" stroke="midnightblue" d="M567.8,-473.33C532.94,-465.19 464.68,-448.03 414.99,-435.06"/>
<polygon fill="midnightblue" stroke="midnightblue" points="415.88,-431.67 405.32,-432.52 414.11,-438.44 415.88,-431.67"/>
</g>
<!-- Node21 -->
<g id="node21" class="node">
<title>Node21</title>
<g id="a_node21"><a xlink:href="http://www.dealii.org/developer/doxygen/deal.II/mpi__tags_8h.html" xlink:title=" ">
<polygon fill="none" stroke="black" points="583,-408 583,-427 713,-427 713,-408 583,-408"/>
<text text-anchor="middle" x="648" y="-415" font-family="Helvetica,sans-Serif" font-size="10.00">deal.II/base/mpi_tags.h</text>
</a>
</g>
</g>
<!-- Node3&#45;&gt;Node21 -->
<g id="edge56" class="edge">
<title>Node3&#45;&gt;Node21</title>
<path fill="none" stroke="midnightblue" d="M598.31,-469.48C607.18,-460.37 621.45,-445.74 632.42,-434.48"/>
<polygon fill="midnightblue" stroke="midnightblue" points="635.23,-436.61 639.71,-427.01 630.22,-431.73 635.23,-436.61"/>
</g>
<!-- Node4&#45;&gt;Node2 -->
<g id="edge5" class="edge">
<title>Node4&#45;&gt;Node2</title>
<path fill="none" stroke="midnightblue" d="M488.6,-432.74C503.71,-448.9 530.57,-474.84 559,-489 600.6,-509.73 651.78,-521.01 692.08,-527.09"/>
<polygon fill="midnightblue" stroke="midnightblue" points="691.68,-530.57 702.08,-528.53 692.68,-523.64 691.68,-530.57"/>
</g>
<!-- Node5 -->
<g id="node5" class="node">
<title>Node5</title>
<g id="a_node5"><a xlink:href="http://www.dealii.org/developer/doxygen/deal.II/include_2deal_8II_2base_2exceptions_8h.html" xlink:title=" ">
<polygon fill="none" stroke="black" points="185,-73 185,-92 323,-92 323,-73 185,-73"/>
<text text-anchor="middle" x="254" y="-80" font-family="Helvetica,sans-Serif" font-size="10.00">deal.II/base/exceptions.h</text>
</a>
</g>
</g>
<!-- Node4&#45;&gt;Node5 -->
<g id="edge6" class="edge">
<title>Node4&#45;&gt;Node5</title>
<path fill="none" stroke="midnightblue" d="M430.51,-402.44C385.3,-385.77 318.45,-353.19 288,-299 251.52,-234.08 251.02,-141.78 252.75,-102.44"/>
<polygon fill="midnightblue" stroke="midnightblue" points="256.25,-102.59 253.3,-92.42 249.26,-102.21 256.25,-102.59"/>
</g>
<!-- Node6 -->
<g id="node6" class="node">
<title>Node6</title>
<g id="a_node6"><a xlink:href="http://www.dealii.org/developer/doxygen/deal.II/memory__space_8h.html" xlink:title=" ">
<polygon fill="none" stroke="black" points="583.5,-335.5 583.5,-365.5 700.5,-365.5 700.5,-335.5 583.5,-335.5"/>
<text text-anchor="start" x="591.5" y="-353.5" font-family="Helvetica,sans-Serif" font-size="10.00">deal.II/base/memory</text>
<text text-anchor="middle" x="642" y="-342.5" font-family="Helvetica,sans-Serif" font-size="10.00">_space.h</text>
</a>
</g>
</g>
<!-- Node4&#45;&gt;Node6 -->
<g id="edge8" class="edge">
<title>Node4&#45;&gt;Node6</title>
<path fill="none" stroke="midnightblue" d="M512.02,-402.4C536.82,-392.69 569.96,-379.71 596.57,-369.29"/>
<polygon fill="midnightblue" stroke="midnightblue" points="598.02,-372.48 606.05,-365.58 595.46,-365.96 598.02,-372.48"/>
</g>
<!-- Node7 -->
<g id="node7" class="node">
<title>Node7</title>
<g id="a_node7"><a xlink:href="http://www.dealii.org/developer/doxygen/deal.II/symmetric__tensor_8h.html" xlink:title=" ">
<polygon fill="none" stroke="black" points="399,-335.5 399,-365.5 527,-365.5 527,-335.5 399,-335.5"/>
<text text-anchor="start" x="407" y="-353.5" font-family="Helvetica,sans-Serif" font-size="10.00">deal.II/base/symmetric</text>
<text text-anchor="middle" x="463" y="-342.5" font-family="Helvetica,sans-Serif" font-size="10.00">_tensor.h</text>
</a>
</g>
</g>
<!-- Node4&#45;&gt;Node7 -->
<g id="edge10" class="edge">
<title>Node4&#45;&gt;Node7</title>
<path fill="none" stroke="midnightblue" d="M473.18,-402.4C471.61,-394.56 469.62,-384.6 467.81,-375.57"/>
<polygon fill="midnightblue" stroke="midnightblue" points="471.21,-374.7 465.82,-365.58 464.34,-376.07 471.21,-374.7"/>
</g>
<!-- Node14 -->
<g id="node14" class="node">
<title>Node14</title>
<g id="a_node14"><a xlink:href="http://www.dealii.org/developer/doxygen/deal.II/tensor_8h.html" xlink:title=" ">
<polygon fill="none" stroke="black" points="297,-274 297,-293 413,-293 413,-274 297,-274"/>
<text text-anchor="middle" x="355" y="-281" font-family="Helvetica,sans-Serif" font-size="10.00">deal.II/base/tensor.h</text>
</a>
</g>
</g>
<!-- Node4&#45;&gt;Node14 -->
<g id="edge40" class="edge">
<title>Node4&#45;&gt;Node14</title>
<path fill="none" stroke="midnightblue" d="M441.46,-402.5C424.16,-394.05 403.97,-381.84 390,-366 373.81,-347.64 364.23,-320.64 359.29,-302.83"/>
<polygon fill="midnightblue" stroke="midnightblue" points="362.67,-301.9 356.8,-293.08 355.89,-303.63 362.67,-301.9"/>
</g>
<!-- Node5&#45;&gt;Node2 -->
<g id="edge7" class="edge">
<title>Node5&#45;&gt;Node2</title>
<path fill="none" stroke="midnightblue" d="M201.16,-92.03C137.21,-105.72 38,-139.25 38,-215.5 38,-351.5 38,-351.5 38,-351.5 38,-421.32 55.13,-451.46 114,-489 161.84,-519.51 535.89,-529.88 691.97,-532.91"/>
<polygon fill="midnightblue" stroke="midnightblue" points="692.31,-536.41 702.37,-533.1 692.44,-529.41 692.31,-536.41"/>
</g>
<!-- Node6&#45;&gt;Node2 -->
<g id="edge9" class="edge">
<title>Node6&#45;&gt;Node2</title>
<path fill="none" stroke="midnightblue" d="M700.68,-364.08C721.29,-371.56 742.43,-383.39 755,-402 778.25,-436.4 771.11,-488.17 764.94,-515.53"/>
<polygon fill="midnightblue" stroke="midnightblue" points="761.52,-514.79 762.53,-525.34 768.32,-516.47 761.52,-514.79"/>
</g>
<!-- Node7&#45;&gt;Node2 -->
<g id="edge11" class="edge">
<title>Node7&#45;&gt;Node2</title>
<path fill="none" stroke="midnightblue" d="M527.14,-360.46C599.1,-371.05 707.71,-388.91 722,-402 754.15,-431.45 759.76,-486.15 760.34,-515.02"/>
<polygon fill="midnightblue" stroke="midnightblue" points="756.84,-515.36 760.35,-525.35 763.84,-515.35 756.84,-515.36"/>
</g>
<!-- Node7&#45;&gt;Node8 -->
<g id="edge12" class="edge">
<title>Node7&#45;&gt;Node8</title>
<path fill="none" stroke="midnightblue" d="M483.28,-335.4C511.15,-316.77 563.48,-284.39 613,-268 706.44,-237.07 819.92,-225.08 892.77,-220.43"/>
<polygon fill="midnightblue" stroke="midnightblue" points="893.01,-223.93 902.78,-219.83 892.59,-216.94 893.01,-223.93"/>
</g>
<!-- Node11 -->
<g id="node11" class="node">
<title>Node11</title>
<g id="a_node11"><a xlink:href="http://www.dealii.org/developer/doxygen/deal.II/table__indices_8h.html" xlink:title=" ">
<polygon fill="none" stroke="black" points="320.5,-134.5 320.5,-164.5 421.5,-164.5 421.5,-134.5 320.5,-134.5"/>
<text text-anchor="start" x="328.5" y="-152.5" font-family="Helvetica,sans-Serif" font-size="10.00">deal.II/base/table</text>
<text text-anchor="middle" x="371" y="-141.5" font-family="Helvetica,sans-Serif" font-size="10.00">_indices.h</text>
</a>
</g>
</g>
<!-- Node7&#45;&gt;Node11 -->
<g id="edge18" class="edge">
<title>Node7&#45;&gt;Node11</title>
<path fill="none" stroke="midnightblue" d="M456.38,-335.19C440.67,-301.2 400.98,-215.35 381.76,-173.78"/>
<polygon fill="midnightblue" stroke="midnightblue" points="384.93,-172.29 377.56,-164.68 378.58,-175.23 384.93,-172.29"/>
</g>
<!-- Node7&#45;&gt;Node12 -->
<g id="edge26" class="edge">
<title>Node7&#45;&gt;Node12</title>
<path fill="none" stroke="midnightblue" d="M475.36,-335.31C490.25,-318.53 516.35,-290.08 541,-268 560.6,-250.44 571.09,-252.16 588,-232 620.52,-193.21 644.45,-138.4 656.41,-107.37"/>
<polygon fill="midnightblue" stroke="midnightblue" points="659.76,-108.41 660.01,-97.81 653.21,-105.94 659.76,-108.41"/>
</g>
<!-- Node7&#45;&gt;Node14 -->
<g id="edge27" class="edge">
<title>Node7&#45;&gt;Node14</title>
<path fill="none" stroke="midnightblue" d="M439.57,-335.4C421.29,-324.39 396.04,-309.2 377.9,-298.28"/>
<polygon fill="midnightblue" stroke="midnightblue" points="379.51,-295.16 369.13,-293.01 375.9,-301.16 379.51,-295.16"/>
</g>
<!-- Node8&#45;&gt;Node2 -->
<g id="edge13" class="edge">
<title>Node8&#45;&gt;Node2</title>
<path fill="none" stroke="midnightblue" d="M982.28,-226.21C1008.85,-245.75 1059,-295.63 1059,-349.5 1059,-418.5 1059,-418.5 1059,-418.5 1059,-468.33 909.33,-506.18 821.7,-523.54"/>
<polygon fill="midnightblue" stroke="midnightblue" points="821,-520.11 811.86,-525.45 822.34,-526.98 821,-520.11"/>
</g>
<!-- Node8&#45;&gt;Node9 -->
<g id="edge14" class="edge">
<title>Node8&#45;&gt;Node9</title>
<path fill="none" stroke="midnightblue" d="M985.46,-206.87C1009.24,-195.75 1050.79,-176.32 1078.35,-163.43"/>
<polygon fill="midnightblue" stroke="midnightblue" points="1079.89,-166.57 1087.47,-159.17 1076.92,-160.23 1079.89,-166.57"/>
</g>
<!-- Node10 -->
<g id="node10" class="node">
<title>Node10</title>
<g id="a_node10"><a xlink:href="http://www.dealii.org/developer/doxygen/deal.II/adolc__math_8h.html" xlink:title=" ">
<polygon fill="none" stroke="black" points="909.5,-134.5 909.5,-164.5 1028.5,-164.5 1028.5,-134.5 909.5,-134.5"/>
<text text-anchor="start" x="917.5" y="-152.5" font-family="Helvetica,sans-Serif" font-size="10.00">deal.II/differentiation</text>
<text text-anchor="middle" x="969" y="-141.5" font-family="Helvetica,sans-Serif" font-size="10.00">/ad/adolc_math.h</text>
</a>
</g>
</g>
<!-- Node8&#45;&gt;Node10 -->
<g id="edge16" class="edge">
<title>Node8&#45;&gt;Node10</title>
<path fill="none" stroke="midnightblue" d="M967.27,-206.73C967.52,-198.54 967.91,-185.92 968.25,-174.71"/>
<polygon fill="midnightblue" stroke="midnightblue" points="971.76,-174.69 968.57,-164.59 964.76,-174.48 971.76,-174.69"/>
</g>
<!-- Node9&#45;&gt;Node2 -->
<g id="edge15" class="edge">
<title>Node9&#45;&gt;Node2</title>
<path fill="none" stroke="midnightblue" d="M1114.94,-159.21C1129.34,-179.99 1153,-234.33 1153,-282.5 1153,-418.5 1153,-418.5 1153,-418.5 1153,-484.83 940.25,-516.41 827.75,-528.22"/>
<polygon fill="midnightblue" stroke="midnightblue" points="827.11,-524.77 817.52,-529.27 827.82,-531.73 827.11,-524.77"/>
</g>
<!-- Node10&#45;&gt;Node2 -->
<g id="edge17" class="edge">
<title>Node10&#45;&gt;Node2</title>
<path fill="none" stroke="midnightblue" d="M996.3,-164.69C1010.94,-173.47 1028.32,-185.94 1040,-201 1083.32,-256.87 1097,-278.81 1097,-349.5 1097,-418.5 1097,-418.5 1097,-418.5 1097,-472.52 1047.69,-467.82 998,-489 943.46,-512.24 876.82,-523.53 827.94,-528.98"/>
<polygon fill="midnightblue" stroke="midnightblue" points="827.36,-525.53 817.79,-530.06 828.1,-532.49 827.36,-525.53"/>
</g>
<!-- Node11&#45;&gt;Node2 -->
<g id="edge19" class="edge">
<title>Node11&#45;&gt;Node2</title>
<path fill="none" stroke="midnightblue" d="M356.92,-164.52C337.29,-185.11 302.48,-225.7 288,-268 243.79,-397.13 269.79,-406.37 282,-433 297.89,-467.66 312.03,-473.81 347,-489 407.36,-515.22 591.52,-526.93 692.32,-531.49"/>
<polygon fill="midnightblue" stroke="midnightblue" points="692.25,-534.99 702.4,-531.93 692.56,-527.99 692.25,-534.99"/>
</g>
<!-- Node11&#45;&gt;Node5 -->
<g id="edge20" class="edge">
<title>Node11&#45;&gt;Node5</title>
<path fill="none" stroke="midnightblue" d="M345.61,-134.4C325.63,-123.29 297.96,-107.92 278.27,-96.98"/>
<polygon fill="midnightblue" stroke="midnightblue" points="279.75,-93.8 269.31,-92.01 276.35,-99.92 279.75,-93.8"/>
</g>
<!-- Node11&#45;&gt;Node12 -->
<g id="edge21" class="edge">
<title>Node11&#45;&gt;Node12</title>
<path fill="none" stroke="midnightblue" d="M421.74,-137.17C426.56,-136.1 431.37,-135.03 436,-134 489.21,-122.2 549.39,-108.93 594.71,-98.96"/>
<polygon fill="midnightblue" stroke="midnightblue" points="595.71,-102.32 604.72,-96.75 594.2,-95.48 595.71,-102.32"/>
</g>
<!-- Node12&#45;&gt;Node2 -->
<g id="edge22" class="edge">
<title>Node12&#45;&gt;Node2</title>
<path fill="none" stroke="midnightblue" d="M725.11,-85.65C851.91,-90.74 1137.91,-105.28 1171,-134 1199.17,-158.45 1191,-178.2 1191,-215.5 1191,-418.5 1191,-418.5 1191,-418.5 1191,-472.52 1142.23,-469.13 1092,-489 1005.19,-523.35 896.72,-532.32 827.88,-534.23"/>
<polygon fill="midnightblue" stroke="midnightblue" points="827.52,-530.73 817.6,-534.47 827.68,-537.73 827.52,-530.73"/>
</g>
<!-- Node13 -->
<g id="node13" class="node">
<title>Node13</title>
<g id="a_node13"><a xlink:href="http://www.dealii.org/developer/doxygen/deal.II/complex__overloads_8h.html" xlink:title=" ">
<polygon fill="none" stroke="black" points="606,-0.5 606,-30.5 724,-30.5 724,-0.5 606,-0.5"/>
<text text-anchor="start" x="614" y="-18.5" font-family="Helvetica,sans-Serif" font-size="10.00">deal.II/base/complex</text>
<text text-anchor="middle" x="665" y="-7.5" font-family="Helvetica,sans-Serif" font-size="10.00">_overloads.h</text>
</a>
</g>
</g>
<!-- Node12&#45;&gt;Node13 -->
<g id="edge23" class="edge">
<title>Node12&#45;&gt;Node13</title>
<path fill="none" stroke="midnightblue" d="M659.32,-67.4C658.29,-59.56 658.01,-49.6 658.46,-40.57"/>
<polygon fill="midnightblue" stroke="midnightblue" points="661.95,-40.84 659.33,-30.58 654.97,-40.24 661.95,-40.84"/>
</g>
<!-- Node13&#45;&gt;Node2 -->
<g id="edge24" class="edge">
<title>Node13&#45;&gt;Node2</title>
<path fill="none" stroke="midnightblue" d="M724.03,-17.88C868.66,-22.87 1229,-45.61 1229,-148.5 1229,-418.5 1229,-418.5 1229,-418.5 1229,-470.37 1184.09,-469.57 1136,-489 1081.65,-510.95 920.59,-524.16 827.84,-530.15"/>
<polygon fill="midnightblue" stroke="midnightblue" points="827.47,-526.66 817.71,-530.79 827.91,-533.65 827.47,-526.66"/>
</g>
<!-- Node13&#45;&gt;Node12 -->
<g id="edge25" class="edge">
<title>Node13&#45;&gt;Node12</title>
<path fill="none" stroke="midnightblue" d="M670.67,-30.58C671.7,-38.41 671.99,-48.37 671.55,-57.4"/>
<polygon fill="midnightblue" stroke="midnightblue" points="668.06,-57.13 670.68,-67.4 675.03,-57.74 668.06,-57.13"/>
</g>
<!-- Node14&#45;&gt;Node2 -->
<g id="edge28" class="edge">
<title>Node14&#45;&gt;Node2</title>
<path fill="none" stroke="midnightblue" d="M345.89,-293.26C321.9,-317.39 261.1,-386.14 295,-433 340.95,-496.51 574.3,-521.36 691.96,-529.97"/>
<polygon fill="midnightblue" stroke="midnightblue" points="692.07,-533.49 702.29,-530.71 692.57,-526.5 692.07,-533.49"/>
</g>
<!-- Node14&#45;&gt;Node5 -->
<g id="edge29" class="edge">
<title>Node14&#45;&gt;Node5</title>
<path fill="none" stroke="midnightblue" d="M350.66,-273.95C335.41,-243.91 284.1,-142.8 263.09,-101.4"/>
<polygon fill="midnightblue" stroke="midnightblue" points="266.08,-99.58 258.44,-92.24 259.84,-102.74 266.08,-99.58"/>
</g>
<!-- Node14&#45;&gt;Node8 -->
<g id="edge30" class="edge">
<title>Node14&#45;&gt;Node8</title>
<path fill="none" stroke="midnightblue" d="M413.13,-276.33C524.86,-264.46 769.44,-238.48 892.77,-225.38"/>
<polygon fill="midnightblue" stroke="midnightblue" points="893.3,-228.85 902.87,-224.31 892.56,-221.89 893.3,-228.85"/>
</g>
<!-- Node14&#45;&gt;Node11 -->
<g id="edge31" class="edge">
<title>Node14&#45;&gt;Node11</title>
<path fill="none" stroke="midnightblue" d="M356.05,-273.84C358.45,-254.02 364.42,-204.77 368.05,-174.84"/>
<polygon fill="midnightblue" stroke="midnightblue" points="371.54,-175.13 369.27,-164.78 364.59,-174.29 371.54,-175.13"/>
</g>
<!-- Node14&#45;&gt;Node12 -->
<g id="edge32" class="edge">
<title>Node14&#45;&gt;Node12</title>
<path fill="none" stroke="midnightblue" d="M365.42,-273.97C384.34,-258.63 425.83,-225.71 463,-201 519.58,-163.39 588.57,-124.71 629.53,-102.45"/>
<polygon fill="midnightblue" stroke="midnightblue" points="631.44,-105.39 638.57,-97.55 628.11,-99.24 631.44,-105.39"/>
</g>
<!-- Node15 -->
<g id="node15" class="node">
<title>Node15</title>
<g id="a_node15"><a xlink:href="http://www.dealii.org/developer/doxygen/deal.II/tensor__accessors_8h.html" xlink:title=" ">
<polygon fill="none" stroke="black" points="472.5,-201.5 472.5,-231.5 579.5,-231.5 579.5,-201.5 472.5,-201.5"/>
<text text-anchor="start" x="480.5" y="-219.5" font-family="Helvetica,sans-Serif" font-size="10.00">deal.II/base/tensor</text>
<text text-anchor="middle" x="526" y="-208.5" font-family="Helvetica,sans-Serif" font-size="10.00">_accessors.h</text>
</a>
</g>
</g>
<!-- Node14&#45;&gt;Node15 -->
<g id="edge33" class="edge">
<title>Node14&#45;&gt;Node15</title>
<path fill="none" stroke="midnightblue" d="M377.71,-273.87C403.59,-264.03 446.58,-247.69 479.63,-235.13"/>
<polygon fill="midnightblue" stroke="midnightblue" points="480.99,-238.35 489.1,-231.53 478.5,-231.81 480.99,-238.35"/>
</g>
<!-- Node16 -->
<g id="node16" class="node">
<title>Node16</title>
<g id="a_node16"><a xlink:href="http://www.dealii.org/developer/doxygen/deal.II/include_2deal_8II_2base_2utilities_8h.html" xlink:title=" ">
<polygon fill="none" stroke="black" points="104,-207 104,-226 226,-226 226,-207 104,-207"/>
<text text-anchor="middle" x="165" y="-214" font-family="Helvetica,sans-Serif" font-size="10.00">deal.II/base/utilities.h</text>
</a>
</g>
</g>
<!-- Node14&#45;&gt;Node16 -->
<g id="edge37" class="edge">
<title>Node14&#45;&gt;Node16</title>
<path fill="none" stroke="midnightblue" d="M329.77,-273.87C296.32,-262.42 237.14,-242.18 199.56,-229.32"/>
<polygon fill="midnightblue" stroke="midnightblue" points="200.63,-225.99 190.03,-226.06 198.36,-232.61 200.63,-225.99"/>
</g>
<!-- Node15&#45;&gt;Node2 -->
<g id="edge34" class="edge">
<title>Node15&#45;&gt;Node2</title>
<path fill="none" stroke="midnightblue" d="M537.9,-231.71C553.53,-249.56 582.55,-280.16 613,-299 652.1,-323.19 671.48,-309.88 710,-335 718.69,-340.67 770.47,-392.67 775,-402 781.73,-415.88 789.89,-465.43 784,-489 781.56,-498.75 776.56,-508.71 771.76,-516.77"/>
<polygon fill="midnightblue" stroke="midnightblue" points="768.79,-514.92 766.37,-525.23 774.69,-518.68 768.79,-514.92"/>
</g>
<!-- Node15&#45;&gt;Node11 -->
<g id="edge35" class="edge">
<title>Node15&#45;&gt;Node11</title>
<path fill="none" stroke="midnightblue" d="M492.37,-201.4C469.42,-191.77 438.81,-178.94 414.08,-168.56"/>
<polygon fill="midnightblue" stroke="midnightblue" points="415.14,-165.22 404.57,-164.58 412.44,-171.67 415.14,-165.22"/>
</g>
<!-- Node15&#45;&gt;Node12 -->
<g id="edge36" class="edge">
<title>Node15&#45;&gt;Node12</title>
<path fill="none" stroke="midnightblue" d="M540.88,-201.37C565.33,-178.15 614.16,-131.78 642.74,-104.64"/>
<polygon fill="midnightblue" stroke="midnightblue" points="645.39,-106.95 650.23,-97.52 640.57,-101.87 645.39,-106.95"/>
</g>
<!-- Node16&#45;&gt;Node2 -->
<g id="edge38" class="edge">
<title>Node16&#45;&gt;Node2</title>
<path fill="none" stroke="midnightblue" d="M158.06,-226.26C143.78,-244.92 111.48,-290.53 100,-335 82.38,-403.26 82.82,-445.13 138,-489 180.59,-522.86 539.77,-531.29 692.12,-533.35"/>
<polygon fill="midnightblue" stroke="midnightblue" points="692.24,-536.85 702.29,-533.48 692.33,-529.85 692.24,-536.85"/>
</g>
<!-- Node16&#45;&gt;Node5 -->
<g id="edge39" class="edge">
<title>Node16&#45;&gt;Node5</title>
<path fill="none" stroke="midnightblue" d="M170.84,-206.84C185.36,-185.3 223.32,-129 242.52,-100.52"/>
<polygon fill="midnightblue" stroke="midnightblue" points="245.57,-102.27 248.25,-92.02 239.76,-98.36 245.57,-102.27"/>
</g>
<!-- Node17&#45;&gt;Node2 -->
<g id="edge42" class="edge">
<title>Node17&#45;&gt;Node2</title>
<path fill="none" stroke="midnightblue" d="M384.64,-432.59C417.73,-448.36 474.16,-473.71 525,-489 580.22,-505.61 644.65,-517.44 692.07,-524.79"/>
<polygon fill="midnightblue" stroke="midnightblue" points="691.81,-528.29 702.22,-526.33 692.86,-521.37 691.81,-528.29"/>
</g>
<!-- Node17&#45;&gt;Node3 -->
<g id="edge55" class="edge">
<title>Node17&#45;&gt;Node3</title>
<path fill="none" stroke="midnightblue" d="M407.72,-430.25C453.64,-441.47 519.15,-458.17 557.93,-468.55"/>
<polygon fill="midnightblue" stroke="midnightblue" points="557.08,-471.95 567.65,-471.17 558.91,-465.19 557.08,-471.95"/>
</g>
<!-- Node17&#45;&gt;Node5 -->
<g id="edge43" class="edge">
<title>Node17&#45;&gt;Node5</title>
<path fill="none" stroke="midnightblue" d="M304.41,-403.07C278.36,-394.84 247.06,-382.64 222,-366 153.65,-320.6 125.38,-308.22 95,-232 68.87,-166.43 165.61,-117.46 219.76,-95.79"/>
<polygon fill="midnightblue" stroke="midnightblue" points="221.29,-98.96 229.34,-92.07 218.75,-92.43 221.29,-98.96"/>
</g>
<!-- Node17&#45;&gt;Node16 -->
<g id="edge54" class="edge">
<title>Node17&#45;&gt;Node16</title>
<path fill="none" stroke="midnightblue" d="M313.33,-402.42C293.04,-394.17 269.46,-382.15 252,-366 210.97,-328.05 183.46,-266.29 171.61,-235.76"/>
<polygon fill="midnightblue" stroke="midnightblue" points="174.75,-234.17 167.96,-226.03 168.19,-236.63 174.75,-234.17"/>
</g>
<!-- Node18 -->
<g id="node18" class="node">
<title>Node18</title>
<g id="a_node18"><a xlink:href="http://www.dealii.org/developer/doxygen/deal.II/thread__management_8h.html" xlink:title=" ">
<polygon fill="none" stroke="black" points="795.5,-335.5 795.5,-365.5 902.5,-365.5 902.5,-335.5 795.5,-335.5"/>
<text text-anchor="start" x="803.5" y="-353.5" font-family="Helvetica,sans-Serif" font-size="10.00">deal.II/base/thread</text>
<text text-anchor="middle" x="849" y="-342.5" font-family="Helvetica,sans-Serif" font-size="10.00">_management.h</text>
</a>
</g>
</g>
<!-- Node17&#45;&gt;Node18 -->
<g id="edge44" class="edge">
<title>Node17&#45;&gt;Node18</title>
<path fill="none" stroke="midnightblue" d="M407.63,-403.6C410.45,-403.03 413.26,-402.49 416,-402 451.45,-395.67 673.48,-370.85 785.1,-358.52"/>
<polygon fill="midnightblue" stroke="midnightblue" points="785.67,-361.98 795.22,-357.4 784.9,-355.02 785.67,-361.98"/>
</g>
<!-- Node18&#45;&gt;Node2 -->
<g id="edge45" class="edge">
<title>Node18&#45;&gt;Node2</title>
<path fill="none" stroke="midnightblue" d="M873.59,-365.71C886.09,-374.41 900.09,-386.81 907,-402 923.02,-437.19 929.99,-457.91 907,-489 888.68,-513.76 857.01,-525.34 827.75,-530.6"/>
<polygon fill="midnightblue" stroke="midnightblue" points="826.86,-527.19 817.52,-532.2 827.94,-534.11 826.86,-527.19"/>
</g>
<!-- Node18&#45;&gt;Node5 -->
<g id="edge46" class="edge">
<title>Node18&#45;&gt;Node5</title>
<path fill="none" stroke="midnightblue" d="M836.85,-335.46C821.26,-318.04 792.79,-288.2 764,-268 654.01,-190.83 619.95,-178.01 493,-134 438.01,-114.94 373.29,-101.8 325.08,-93.71"/>
<polygon fill="midnightblue" stroke="midnightblue" points="325.49,-90.23 315.05,-92.06 324.35,-97.14 325.49,-90.23"/>
</g>
<!-- Node18&#45;&gt;Node12 -->
<g id="edge53" class="edge">
<title>Node18&#45;&gt;Node12</title>
<path fill="none" stroke="midnightblue" d="M842.46,-335.41C829.63,-308.34 799.55,-247.6 767,-201 741.95,-165.14 707.79,-127.64 686.06,-104.92"/>
<polygon fill="midnightblue" stroke="midnightblue" points="688.39,-102.29 678.93,-97.52 683.35,-107.15 688.39,-102.29"/>
</g>
<!-- Node19 -->
<g id="node19" class="node">
<title>Node19</title>
<g id="a_node19"><a xlink:href="http://www.dealii.org/developer/doxygen/deal.II/multithread__info_8h.html" xlink:title=" ">
<polygon fill="none" stroke="black" points="621.5,-268.5 621.5,-298.5 754.5,-298.5 754.5,-268.5 621.5,-268.5"/>
<text text-anchor="start" x="629.5" y="-286.5" font-family="Helvetica,sans-Serif" font-size="10.00">deal.II/base/multithread</text>
<text text-anchor="middle" x="688" y="-275.5" font-family="Helvetica,sans-Serif" font-size="10.00">_info.h</text>
</a>
</g>
</g>
<!-- Node18&#45;&gt;Node19 -->
<g id="edge47" class="edge">
<title>Node18&#45;&gt;Node19</title>
<path fill="none" stroke="midnightblue" d="M814.07,-335.4C790.12,-325.73 758.15,-312.82 732.4,-302.43"/>
<polygon fill="midnightblue" stroke="midnightblue" points="733.45,-299.07 722.87,-298.58 730.83,-305.57 733.45,-299.07"/>
</g>
<!-- Node20 -->
<g id="node20" class="node">
<title>Node20</title>
<g id="a_node20"><a xlink:href="http://www.dealii.org/developer/doxygen/deal.II/tuple_8h.html" xlink:title=" ">
<polygon fill="none" stroke="black" points="849.5,-268.5 849.5,-298.5 974.5,-298.5 974.5,-268.5 849.5,-268.5"/>
<text text-anchor="start" x="857.5" y="-286.5" font-family="Helvetica,sans-Serif" font-size="10.00">deal.II/base/std_cxx17</text>
<text text-anchor="middle" x="912" y="-275.5" font-family="Helvetica,sans-Serif" font-size="10.00">/tuple.h</text>
</a>
</g>
</g>
<!-- Node18&#45;&gt;Node20 -->
<g id="edge51" class="edge">
<title>Node18&#45;&gt;Node20</title>
<path fill="none" stroke="midnightblue" d="M862.67,-335.4C871.01,-326.79 881.83,-315.63 891.22,-305.94"/>
<polygon fill="midnightblue" stroke="midnightblue" points="893.91,-308.19 898.36,-298.58 888.88,-303.32 893.91,-308.19"/>
</g>
<!-- Node19&#45;&gt;Node2 -->
<g id="edge48" class="edge">
<title>Node19&#45;&gt;Node2</title>
<path fill="none" stroke="midnightblue" d="M702.45,-298.59C720.9,-316.05 754.38,-345.95 787,-366 820.91,-386.85 847.24,-368.68 869,-402 890.14,-434.37 890.5,-456.86 869,-489 858.09,-505.3 840.09,-515.7 821.82,-522.34"/>
<polygon fill="midnightblue" stroke="midnightblue" points="820.68,-519.03 812.28,-525.48 822.87,-525.68 820.68,-519.03"/>
</g>
<!-- Node19&#45;&gt;Node5 -->
<g id="edge49" class="edge">
<title>Node19&#45;&gt;Node5</title>
<path fill="none" stroke="midnightblue" d="M673.42,-268.36C654.79,-250.84 620.99,-220.89 588,-201 495.36,-145.16 372.27,-110.57 304.36,-94.4"/>
<polygon fill="midnightblue" stroke="midnightblue" points="304.88,-90.93 294.35,-92.05 303.29,-97.74 304.88,-90.93"/>
</g>
<!-- Node19&#45;&gt;Node9 -->
<g id="edge50" class="edge">
<title>Node19&#45;&gt;Node9</title>
<path fill="none" stroke="midnightblue" d="M754.68,-275.59C849.8,-265.33 1015.71,-245.79 1040,-232 1066.29,-217.07 1086.25,-187.22 1097.02,-168.09"/>
<polygon fill="midnightblue" stroke="midnightblue" points="1100.15,-169.66 1101.8,-159.19 1093.98,-166.34 1100.15,-169.66"/>
</g>
<!-- Node20&#45;&gt;Node2 -->
<g id="edge52" class="edge">
<title>Node20&#45;&gt;Node2</title>
<path fill="none" stroke="midnightblue" d="M918.78,-298.76C934.89,-334.94 970.84,-431.46 926,-489 913.61,-504.9 868.09,-516.55 827.85,-524.01"/>
<polygon fill="midnightblue" stroke="midnightblue" points="826.98,-520.61 817.75,-525.81 828.21,-527.5 826.98,-520.61"/>
</g>
<!-- Node21&#45;&gt;Node2 -->
<g id="edge57" class="edge">
<title>Node21&#45;&gt;Node2</title>
<path fill="none" stroke="midnightblue" d="M656.52,-427.28C675.26,-446.61 720.3,-493.06 744.31,-517.82"/>
<polygon fill="midnightblue" stroke="midnightblue" points="742.11,-520.58 751.58,-525.32 747.13,-515.7 742.11,-520.58"/>
</g>
<!-- Node22&#45;&gt;Node2 -->
<g id="edge63" class="edge">
<title>Node22&#45;&gt;Node2</title>
<path fill="none" stroke="midnightblue" d="M401.4,-582.77C476.63,-572.96 610.97,-555.44 692.15,-544.85"/>
<polygon fill="midnightblue" stroke="midnightblue" points="692.8,-548.3 702.26,-543.53 691.89,-541.35 692.8,-548.3"/>
</g>
<!-- Node22&#45;&gt;Node5 -->
<g id="edge64" class="edge">
<title>Node22&#45;&gt;Node5</title>
<path fill="none" stroke="midnightblue" d="M290.79,-584.02C193.11,-571.88 0,-540.27 0,-480 0,-480 0,-480 0,-215.5 0,-135.64 100.08,-104.03 174.6,-91.56"/>
<polygon fill="midnightblue" stroke="midnightblue" points="175.6,-94.94 184.93,-89.92 174.5,-88.03 175.6,-94.94"/>
</g>
<!-- Node22&#45;&gt;Node14 -->
<g id="edge65" class="edge">
<title>Node22&#45;&gt;Node14</title>
<path fill="none" stroke="midnightblue" d="M340.96,-581.18C328,-557.9 293.66,-492.5 282,-433 279.35,-419.48 281.18,-415.75 282,-402 283.78,-372.06 275.24,-361.11 290,-335 298.88,-319.29 314.83,-306.78 328.7,-298.15"/>
<polygon fill="midnightblue" stroke="midnightblue" points="330.57,-301.11 337.42,-293.04 327.03,-295.07 330.57,-301.11"/>
</g>
</g>
</svg>
