<?xml version="1.0" encoding="UTF-8" standalone="no"?>
<!DOCTYPE svg PUBLIC "-//W3C//DTD SVG 1.1//EN"
 "http://www.w3.org/Graphics/SVG/1.1/DTD/svg11.dtd">
<!-- Generated by graphviz version 2.43.0 (0)
 -->
<!-- Title: include/cgal/wrappers.h Pages: 1 -->
<svg width="250pt" height="84pt"
 viewBox="0.00 0.00 250.00 84.00" xmlns="http://www.w3.org/2000/svg" xmlns:xlink="http://www.w3.org/1999/xlink">
<g id="graph0" class="graph" transform="scale(1 1) rotate(0) translate(4 80)">
<title>include/cgal/wrappers.h</title>
<!-- Node1 -->
<g id="node1" class="node">
<title>Node1</title>
<g id="a_node1"><a xlink:title=" ">
<polygon fill="#bfbfbf" stroke="black" points="56,-56.5 56,-75.5 188,-75.5 188,-56.5 56,-56.5"/>
<text text-anchor="middle" x="122" y="-63.5" font-family="Helvetica,sans-Serif" font-size="10.00">include/cgal/wrappers.h</text>
</a>
</g>
</g>
<!-- Node2 -->
<g id="node2" class="node">
<title>Node2</title>
<g id="a_node2"><a target="_parent" xlink:href="http://www.dealii.org/developer/doxygen/deal.II/config_8h.html.html" xlink:title=" ">
<polygon fill="none" stroke="black" points="0,-0.5 0,-19.5 114,-19.5 114,-0.5 0,-0.5"/>
<text text-anchor="middle" x="57" y="-7.5" font-family="Helvetica,sans-Serif" font-size="10.00">deal.II/base/config.h</text>
</a>
</g>
</g>
<!-- Node1&#45;&gt;Node2 -->
<g id="edge1" class="edge">
<title>Node1&#45;&gt;Node2</title>
<path fill="none" stroke="midnightblue" d="M111.56,-56.32C101.85,-48.26 87.18,-36.08 75.5,-26.37"/>
<polygon fill="midnightblue" stroke="midnightblue" points="77.56,-23.53 67.63,-19.83 73.09,-28.92 77.56,-23.53"/>
</g>
<!-- Node3 -->
<g id="node3" class="node">
<title>Node3</title>
<g id="a_node3"><a target="_parent" xlink:href="http://www.dealii.org/developer/doxygen/deal.II/base_2point_8h.html.html" xlink:title=" ">
<polygon fill="none" stroke="black" points="132,-0.5 132,-19.5 242,-19.5 242,-0.5 132,-0.5"/>
<text text-anchor="middle" x="187" y="-7.5" font-family="Helvetica,sans-Serif" font-size="10.00">deal.II/base/point.h</text>
</a>
</g>
</g>
<!-- Node1&#45;&gt;Node3 -->
<g id="edge2" class="edge">
<title>Node1&#45;&gt;Node3</title>
<path fill="none" stroke="midnightblue" d="M132.44,-56.32C142.15,-48.26 156.82,-36.08 168.5,-26.37"/>
<polygon fill="midnightblue" stroke="midnightblue" points="170.91,-28.92 176.37,-19.83 166.44,-23.53 170.91,-28.92"/>
</g>
</g>
</svg>
