# Blender v2.92.0 OBJ File: ''
# www.blender.org
mtllib cylinder_surface.mtl
o Cube_Cube.001
v -0.666667 -1.000000 0.666667
v -0.666667 1.000000 0.666667
v -0.666667 -1.000000 -0.666667
v -0.666667 1.000000 -0.666667
v 0.666667 -1.000000 0.666667
v 0.666667 1.000000 0.666667
v 0.666667 -1.000000 -0.666667
v 0.666667 1.000000 -0.666667
v -0.854167 -1.000000 -0.364583
v -0.916667 -1.000000 0.000000
v -0.854167 -1.000000 0.364583
v -0.666667 -0.500000 0.666667
v -0.666667 0.000000 0.666667
v -0.666667 0.500000 0.666667
v -0.854167 1.000000 0.364583
v -0.916667 1.000000 0.000000
v -0.854167 1.000000 -0.364583
v -0.666667 0.500000 -0.666667
v -0.666667 0.000000 -0.666667
v -0.666667 -0.500000 -0.666667
v 0.364583 -1.000000 -0.854167
v 0.000000 -1.000000 -0.916667
v -0.364583 -1.000000 -0.854167
v -0.364583 1.000000 -0.854167
v 0.000000 1.000000 -0.916667
v 0.364583 1.000000 -0.854167
v 0.666667 0.500000 -0.666667
v 0.666667 0.000000 -0.666667
v 0.666667 -0.500000 -0.666667
v 0.854167 -1.000000 0.364583
v 0.916667 -1.000000 0.000000
v 0.854167 -1.000000 -0.364583
v 0.854167 1.000000 -0.364583
v 0.916667 1.000000 0.000000
v 0.854167 1.000000 0.364583
v 0.666667 0.500000 0.666667
v 0.666667 0.000000 0.666667
v 0.666667 -0.500000 0.666667
v -0.364583 -1.000000 0.854167
v 0.000000 -1.000000 0.916667
v 0.364583 -1.000000 0.854167
v 0.364583 1.000000 0.854167
v 0.000000 1.000000 0.916667
v -0.364583 1.000000 0.854167
v -0.854167 -0.500000 0.364583
v -0.854167 0.000000 0.364583
v -0.854167 0.500000 0.364583
v -0.916667 -0.500000 0.000000
v -0.916667 0.000000 0.000000
v -0.916667 0.500000 0.000000
v -0.854167 -0.500000 -0.364583
v -0.854167 0.000000 -0.364583
v -0.854167 0.500000 -0.364583
v -0.364583 -0.500000 -0.854167
v -0.364583 0.000000 -0.854167
v -0.364583 0.500000 -0.854167
v 0.000000 -0.500000 -0.916667
v 0.000000 0.000000 -0.916667
v 0.000000 0.500000 -0.916667
v 0.364583 -0.500000 -0.854167
v 0.364583 0.000000 -0.854167
v 0.364583 0.500000 -0.854167
v 0.854167 -0.500000 -0.364583
v 0.854167 0.000000 -0.364583
v 0.854167 0.500000 -0.364583
v 0.916667 -0.500000 0.000000
v 0.916667 0.000000 0.000000
v 0.916667 0.500000 0.000000
v 0.854167 -0.500000 0.364583
v 0.854167 0.000000 0.364583
v 0.854167 0.500000 0.364583
v 0.364583 -0.500000 0.854167
v 0.364583 0.000000 0.854167
v 0.364583 0.500000 0.854167
v 0.000000 -0.500000 0.916667
v 0.000000 0.000000 0.916667
v 0.000000 0.500000 0.916667
v -0.364583 -0.500000 0.854167
v -0.364583 0.000000 0.854167
v -0.364583 0.500000 0.854167
v -0.430556 -1.000000 -0.430556
v 0.000000 -1.000000 -0.458333
v 0.430556 -1.000000 -0.430556
v -0.458333 -1.000000 -0.000000
v 0.000000 -1.000000 0.000000
v 0.458333 -1.000000 0.000000
v -0.430556 -1.000000 0.430556
v 0.000000 -1.000000 0.458333
v 0.430556 -1.000000 0.430556
v 0.430556 1.000000 -0.430556
v 0.000000 1.000000 -0.458333
v -0.430556 1.000000 -0.430556
v 0.458333 1.000000 -0.000000
v 0.000000 1.000000 0.000000
v -0.458333 1.000000 0.000000
v 0.430556 1.000000 0.430556
v 0.000000 1.000000 0.458333
v -0.430556 1.000000 0.430556
vt 0.437500 0.062500
vt 0.500000 0.062500
vt 0.500000 0.125000
vt 0.437500 0.125000
vt 0.562500 0.062500
vt 0.562500 0.125000
vt 0.500000 0.187500
vt 0.437500 0.187500
vt 0.562500 0.187500
vt 0.375000 0.000000
vt 0.437500 0.000000
vt 0.375000 0.062500
vt 0.500000 0.000000
vt 0.562500 0.000000
vt 0.625000 0.000000
vt 0.625000 0.062500
vt 0.625000 0.125000
vt 0.625000 0.187500
vt 0.625000 0.250000
vt 0.562500 0.250000
vt 0.500000 0.250000
vt 0.437500 0.250000
vt 0.375000 0.187500
vt 0.375000 0.250000
vt 0.375000 0.125000
vt 0.437500 0.312500
vt 0.500000 0.312500
vt 0.500000 0.375000
vt 0.437500 0.375000
vt 0.562500 0.312500
vt 0.562500 0.375000
vt 0.500000 0.437500
vt 0.437500 0.437500
vt 0.562500 0.437500
vt 0.375000 0.312500
vt 0.625000 0.312500
vt 0.625000 0.375000
vt 0.625000 0.437500
vt 0.625000 0.500000
vt 0.562500 0.500000
vt 0.500000 0.500000
vt 0.437500 0.500000
vt 0.375000 0.437500
vt 0.375000 0.500000
vt 0.375000 0.375000
vt 0.437500 0.562500
vt 0.500000 0.562500
vt 0.500000 0.625000
vt 0.437500 0.625000
vt 0.562500 0.562500
vt 0.562500 0.625000
vt 0.500000 0.687500
vt 0.437500 0.687500
vt 0.562500 0.687500
vt 0.375000 0.562500
vt 0.625000 0.562500
vt 0.625000 0.625000
vt 0.625000 0.687500
vt 0.625000 0.750000
vt 0.562500 0.750000
vt 0.500000 0.750000
vt 0.437500 0.750000
vt 0.375000 0.687500
vt 0.375000 0.750000
vt 0.375000 0.625000
vt 0.437500 0.812500
vt 0.500000 0.812500
vt 0.500000 0.875000
vt 0.437500 0.875000
vt 0.562500 0.812500
vt 0.562500 0.875000
vt 0.500000 0.937500
vt 0.437500 0.937500
vt 0.562500 0.937500
vt 0.375000 0.812500
vt 0.625000 0.812500
vt 0.625000 0.875000
vt 0.625000 0.937500
vt 0.625000 1.000000
vt 0.562500 1.000000
vt 0.500000 1.000000
vt 0.437500 1.000000
vt 0.375000 0.937500
vt 0.375000 1.000000
vt 0.375000 0.875000
vt 0.187500 0.562500
vt 0.250000 0.562500
vt 0.250000 0.625000
vt 0.187500 0.625000
vt 0.312500 0.562500
vt 0.312500 0.625000
vt 0.250000 0.687500
vt 0.187500 0.687500
vt 0.312500 0.687500
vt 0.125000 0.500000
vt 0.187500 0.500000
vt 0.125000 0.562500
vt 0.250000 0.500000
vt 0.312500 0.500000
vt 0.312500 0.750000
vt 0.250000 0.750000
vt 0.187500 0.750000
vt 0.125000 0.687500
vt 0.125000 0.750000
vt 0.125000 0.625000
vt 0.687500 0.562500
vt 0.750000 0.562500
vt 0.750000 0.625000
vt 0.687500 0.625000
vt 0.812500 0.562500
vt 0.812500 0.625000
vt 0.750000 0.687500
vt 0.687500 0.687500
vt 0.812500 0.687500
vt 0.687500 0.500000
vt 0.750000 0.500000
vt 0.812500 0.500000
vt 0.875000 0.500000
vt 0.875000 0.562500
vt 0.875000 0.625000
vt 0.875000 0.687500
vt 0.875000 0.750000
vt 0.812500 0.750000
vt 0.750000 0.750000
vt 0.687500 0.750000
vn -0.9856 0.0000 0.1690
vn -0.9856 0.0000 -0.1690
vn -0.8496 0.0000 0.5274
vn -0.8496 -0.0000 -0.5274
vn -0.1690 0.0000 -0.9856
vn 0.1690 0.0000 -0.9856
vn -0.5274 -0.0000 -0.8496
vn 0.5274 -0.0000 -0.8496
vn 0.9856 0.0000 -0.1690
vn 0.9856 0.0000 0.1690
vn 0.8496 0.0000 -0.5274
vn 0.8496 -0.0000 0.5274
vn 0.1690 0.0000 0.9856
vn -0.1690 0.0000 0.9856
vn 0.5274 -0.0000 0.8496
vn -0.5274 -0.0000 0.8496
vn 0.0000 -1.0000 0.0000
vn 0.0000 1.0000 0.0000
usemtl None
s off
f 45/1/1 46/2/1 49/3/1 48/4/1
f 46/2/1 47/5/1 50/6/1 49/3/1
f 48/4/2 49/3/2 52/7/2 51/8/2
f 49/3/2 50/6/2 53/9/2 52/7/2
f 1/10/3 12/11/3 45/1/3 11/12/3
f 12/11/3 13/13/3 46/2/3 45/1/3
f 13/13/3 14/14/3 47/5/3 46/2/3
f 14/14/3 2/15/3 15/16/3 47/5/3
f 47/5/1 15/16/1 16/17/1 50/6/1
f 50/6/2 16/17/2 17/18/2 53/9/2
f 53/9/4 17/18/4 4/19/4 18/20/4
f 52/7/4 53/9/4 18/20/4 19/21/4
f 51/8/4 52/7/4 19/21/4 20/22/4
f 9/23/4 51/8/4 20/22/4 3/24/4
f 10/25/2 48/4/2 51/8/2 9/23/2
f 11/12/1 45/1/1 48/4/1 10/25/1
f 54/26/5 55/27/5 58/28/5 57/29/5
f 55/27/5 56/30/5 59/31/5 58/28/5
f 57/29/6 58/28/6 61/32/6 60/33/6
f 58/28/6 59/31/6 62/34/6 61/32/6
f 3/24/7 20/22/7 54/26/7 23/35/7
f 20/22/7 19/21/7 55/27/7 54/26/7
f 19/21/7 18/20/7 56/30/7 55/27/7
f 18/20/7 4/19/7 24/36/7 56/30/7
f 56/30/5 24/36/5 25/37/5 59/31/5
f 59/31/6 25/37/6 26/38/6 62/34/6
f 62/34/8 26/38/8 8/39/8 27/40/8
f 61/32/8 62/34/8 27/40/8 28/41/8
f 60/33/8 61/32/8 28/41/8 29/42/8
f 21/43/8 60/33/8 29/42/8 7/44/8
f 22/45/6 57/29/6 60/33/6 21/43/6
f 23/35/5 54/26/5 57/29/5 22/45/5
f 63/46/9 64/47/9 67/48/9 66/49/9
f 64/47/9 65/50/9 68/51/9 67/48/9
f 66/49/10 67/48/10 70/52/10 69/53/10
f 67/48/10 68/51/10 71/54/10 70/52/10
f 7/44/11 29/42/11 63/46/11 32/55/11
f 29/42/11 28/41/11 64/47/11 63/46/11
f 28/41/11 27/40/11 65/50/11 64/47/11
f 27/40/11 8/39/11 33/56/11 65/50/11
f 65/50/9 33/56/9 34/57/9 68/51/9
f 68/51/10 34/57/10 35/58/10 71/54/10
f 71/54/12 35/58/12 6/59/12 36/60/12
f 70/52/12 71/54/12 36/60/12 37/61/12
f 69/53/12 70/52/12 37/61/12 38/62/12
f 30/63/12 69/53/12 38/62/12 5/64/12
f 31/65/10 66/49/10 69/53/10 30/63/10
f 32/55/9 63/46/9 66/49/9 31/65/9
f 72/66/13 73/67/13 76/68/13 75/69/13
f 73/67/13 74/70/13 77/71/13 76/68/13
f 75/69/14 76/68/14 79/72/14 78/73/14
f 76/68/14 77/71/14 80/74/14 79/72/14
f 5/64/15 38/62/15 72/66/15 41/75/15
f 38/62/15 37/61/15 73/67/15 72/66/15
f 37/61/15 36/60/15 74/70/15 73/67/15
f 36/60/15 6/59/15 42/76/15 74/70/15
f 74/70/13 42/76/13 43/77/13 77/71/13
f 77/71/14 43/77/14 44/78/14 80/74/14
f 80/74/16 44/78/16 2/79/16 14/80/16
f 79/72/16 80/74/16 14/80/16 13/81/16
f 78/73/16 79/72/16 13/81/16 12/82/16
f 39/83/16 78/73/16 12/82/16 1/84/16
f 40/85/14 75/69/14 78/73/14 39/83/14
f 41/75/13 72/66/13 75/69/13 40/85/13
f 81/86/17 82/87/17 85/88/17 84/89/17
f 82/87/17 83/90/17 86/91/17 85/88/17
f 84/89/17 85/88/17 88/92/17 87/93/17
f 85/88/17 86/91/17 89/94/17 88/92/17
f 3/95/17 23/96/17 81/86/17 9/97/17
f 23/96/17 22/98/17 82/87/17 81/86/17
f 22/98/17 21/99/17 83/90/17 82/87/17
f 21/99/17 7/44/17 32/55/17 83/90/17
f 83/90/17 32/55/17 31/65/17 86/91/17
f 86/91/17 31/65/17 30/63/17 89/94/17
f 89/94/17 30/63/17 5/64/17 41/100/17
f 88/92/17 89/94/17 41/100/17 40/101/17
f 87/93/17 88/92/17 40/101/17 39/102/17
f 11/103/17 87/93/17 39/102/17 1/104/17
f 10/105/17 84/89/17 87/93/17 11/103/17
f 9/97/17 81/86/17 84/89/17 10/105/17
f 90/106/18 91/107/18 94/108/18 93/109/18
f 91/107/18 92/110/18 95/111/18 94/108/18
f 93/109/18 94/108/18 97/112/18 96/113/18
f 94/108/18 95/111/18 98/114/18 97/112/18
f 8/39/18 26/115/18 90/106/18 33/56/18
f 26/115/18 25/116/18 91/107/18 90/106/18
f 25/116/18 24/117/18 92/110/18 91/107/18
f 24/117/18 4/118/18 17/119/18 92/110/18
f 92/110/18 17/119/18 16/120/18 95/111/18
f 95/111/18 16/120/18 15/121/18 98/114/18
f 98/114/18 15/121/18 2/122/18 44/123/18
f 97/112/18 98/114/18 44/123/18 43/124/18
f 96/113/18 97/112/18 43/124/18 42/125/18
f 35/58/18 96/113/18 42/125/18 6/59/18
f 34/57/18 93/109/18 96/113/18 35/58/18
f 33/56/18 90/106/18 93/109/18 34/57/18
